<svg width="400" height="400" version="1.1" xmlns="http://www.w3.org/2000/svg" desc="Created with imagetracer.js version 1.2.5"><path fill="rgb(0,0,0)" stroke="rgb(0,0,0)" stroke-width="1" opacity="0.9411764705882353" d="M 210.5 8 Q 223 6.5 229 11.5 L 225.5 20 Q 220.9 17.1 212.5 18 Q 203.6 19.6 200 26.5 Q 196.7 32.3 198 42.5 L 203.5 52 Q 208.6 56.9 219.5 56 L 225.5 54 L 227 55.5 L 228 64 L 219.5 66 L 208.5 66 L 198.5 63 L 189 54.5 Q 183.1 46.9 185 31.5 Q 187.4 18.9 196.5 13 L 210.5 8 Z "></path><path fill="rgb(0,0,0)" stroke="rgb(0,0,0)" stroke-width="1" opacity="0.9411764705882353" d="M 253.5 8 Q 271.1 6.9 278 16.5 Q 286.2 24.8 284 43.5 Q 281.6 56.1 272.5 62 L 266.5 65 L 252.5 66 Q 241.4 63.6 236 55.5 L 232 47.5 L 231 32.5 Q 233 19.5 241.5 13 L 253.5 8 Z M 255 18 L 251 20 Q 245 24 244 33 L 244 42 L 248 52 L 255 56 L 264 55 Q 270 51 271 43 L 271 32 L 268 24 L 261 18 L 255 18 Z "></path><path fill="rgb(0,0,0)" stroke="rgb(0,0,0)" stroke-width="1" opacity="0.9411764705882353" d="M 164 9 L 175.5 9 L 176 9.5 L 176 65 L 164.5 65 L 164 64.5 L 164 9 Z "></path><path fill="rgb(0,0,0)" stroke="rgb(0,0,0)" stroke-width="1" opacity="0.9411764705882353" d="M 294 9 L 307.5 9 L 309 10.5 Q 320.3 27.7 328.5 48 L 329 40.5 L 328 39.5 L 328 9 L 338.5 9 L 339 9.5 L 339 65 L 326.5 65 L 326 63.5 L 304.5 24 L 304 26.5 L 305 27.5 L 305 65 L 294.5 65 L 294 64.5 L 294 9 Z "></path><path fill="rgb(0,0,0)" stroke="rgb(0,0,0)" stroke-width="1" opacity="0.9411764705882353" d="M 136.5 328 L 147.5 328 L 157 331.5 L 155 342 Q 149.4 339 139.5 339 L 135.5 340 L 132 343.5 Q 131 349 134.5 350 L 151.5 357 L 158 363.5 Q 161 367.5 160 375.5 Q 158.5 382.4 153.5 386 L 145.5 390 L 128.5 391 L 120.5 389 L 117 386.5 L 120.5 376 Q 126.8 380.2 137.5 380 L 145 376.5 L 146 371.5 L 143.5 368 L 128.5 362 L 120 354.5 Q 117.1 350.9 118 343.5 Q 119.8 335.8 125.5 332 L 136.5 328 Z "></path><path fill="rgb(0,0,0)" stroke="rgb(0,0,0)" stroke-width="1" opacity="0.9411764705882353" d="M 14.5 329 L 36.5 330 L 46 335.5 Q 50 339 49 347.5 L 43.5 355 L 40 356.5 L 49 363.5 Q 52.7 367.8 51 377.5 L 43.5 387 L 29.5 391 L 10.5 391 L 6 390 L 6 330.5 L 6.5 330 L 13.5 330 L 14.5 329 Z M 20 339 L 20 353 Q 31 355 35 349 Q 36 343 34 341 Q 30 338 20 339 Z M 20 363 L 20 381 Q 29 382 34 379 L 37 375 L 36 368 Q 32 361 20 363 Z "></path><path fill="rgb(0,0,0)" stroke="rgb(0,0,0)" stroke-width="1" opacity="0.9411764705882353" d="M 76.5 329 L 93.5 329 L 94 330.5 L 113 390 L 98.5 390 L 98 388.5 L 92.5 374 L 76.5 374 L 75 375.5 L 72 390 L 57.5 390 L 57 388.5 L 73 336.5 L 76.5 329 Z M 85 340 L 78 362 L 79 364 L 91 364 L 85 340 Z "></path><path fill="rgb(0,0,0)" stroke="rgb(0,0,0)" stroke-width="1" opacity="0.9411764705882353" d="M 170 329 L 207.5 329 L 208 329.5 L 208 340 L 184 340 L 184 353 L 206 353 L 206 364 L 184 364 L 184 379 L 209 379 L 209 390 L 170 390 L 170 329 Z "></path><path fill="rgb(0,0,0)" stroke="rgb(0,0,0)" stroke-width="1" opacity="0" d="M 0 0 L 400 0 L 400 400 L 0 400 L 0 0 Z M 211 8 L 197 13 Q 187 19 185 32 Q 183 47 189 55 L 199 63 L 209 66 L 220 66 L 228 64 L 227 56 L 226 54 L 220 56 Q 209 57 204 52 L 198 43 Q 197 32 200 27 Q 204 20 213 18 Q 221 17 226 20 L 229 12 Q 223 7 211 8 Z M 254 8 L 242 13 Q 233 20 231 33 L 232 48 L 236 56 Q 241 64 253 66 L 267 65 L 273 62 Q 282 56 284 44 Q 286 25 278 17 Q 271 7 254 8 Z M 164 9 L 164 65 L 165 65 L 176 65 L 176 10 L 176 9 L 164 9 Z M 294 9 L 294 65 L 295 65 L 305 65 L 305 28 L 304 27 L 305 24 L 326 64 L 327 65 L 339 65 L 339 10 L 339 9 L 328 9 L 328 40 L 329 41 L 329 48 Q 320 28 309 11 L 308 9 L 294 9 Z M 137 328 L 126 332 Q 120 336 118 344 Q 117 351 120 355 L 129 362 L 144 368 L 146 372 L 145 377 L 138 380 Q 127 380 121 376 L 117 387 L 121 389 L 129 391 L 146 390 L 154 386 Q 158 382 160 376 Q 161 368 158 364 L 152 357 L 135 350 Q 131 349 132 344 L 136 340 L 140 339 Q 149 339 155 342 L 157 332 L 148 328 L 137 328 Z M 15 329 L 14 330 L 7 330 L 6 331 L 6 390 L 11 391 L 30 391 L 44 387 L 51 378 Q 53 368 49 364 L 40 357 L 44 355 L 49 348 Q 50 339 46 336 L 37 330 L 15 329 Z M 77 329 L 73 337 L 57 389 L 58 390 L 72 390 L 75 376 L 77 374 L 93 374 L 98 389 L 99 390 L 113 390 L 94 331 L 94 329 L 77 329 Z M 170 329 L 170 390 L 209 390 L 209 379 L 184 379 L 184 364 L 206 364 L 206 353 L 184 353 L 184 340 L 208 340 L 208 330 L 208 329 L 170 329 Z "></path><path fill="rgb(0,0,0)" stroke="rgb(0,0,0)" stroke-width="1" opacity="0" d="M 254.5 18 L 260.5 18 L 268 23.5 L 271 31.5 L 271 42.5 Q 269.5 51 263.5 55 L 254.5 56 L 248 51.5 L 244 41.5 L 244 32.5 Q 245.2 24.2 250.5 20 L 254.5 18 Z "></path><path fill="rgb(0,0,0)" stroke="rgb(0,0,0)" stroke-width="1" opacity="0" d="M 20 339 Q 29.6 337.6 34 341 Q 35.6 343.1 35 348.5 Q 31 354.8 20 353 L 20 339 Z "></path><path fill="rgb(0,0,0)" stroke="rgb(0,0,0)" stroke-width="1" opacity="0" d="M 84.5 340 L 91 364 L 78.5 364 L 78 361.5 L 84.5 340 Z "></path><path fill="rgb(0,0,0)" stroke="rgb(0,0,0)" stroke-width="1" opacity="0" d="M 20 363 Q 31.8 361 36 367.5 L 37 374.5 L 33.5 379 Q 28.6 382.3 20 381 L 20 363 Z "></path></svg>