<svg width="400" height="400" version="1.1" xmlns="http://www.w3.org/2000/svg" desc="Created with imagetracer.js version 1.2.5"><path fill="rgb(3,88,96)" stroke="rgb(3,88,96)" stroke-width="1" opacity="0.996078431372549" d="M 27.5 10 L 38.5 11 L 40 10.5 Q 39.1 13.5 43.5 12 L 45.5 13 L 47 12.5 Q 46 16.3 49 15 L 49.5 13 L 50.5 16 L 52 15.5 L 51.5 17 L 53.5 18 L 55.5 17 L 55.5 18 L 54 18.5 L 58 20.5 L 59.5 23 L 61.5 23 L 67 27.5 L 66 29.5 L 70 32 L 70.5 35 L 71.5 33 L 72 34.5 L 72 36.5 L 72.5 38 L 74 37.5 L 74 39.5 L 74.5 42 L 75 40 Q 78 39 77 42 L 75 42.5 L 78 43.5 L 77.5 45 L 79 45.5 L 79 47.5 Q 77.9 50.8 80.5 50 L 80.5 52 L 82 52.5 L 81 56 L 84 56.5 L 82 57 Q 80.9 59.7 83.5 59 L 85 58.5 L 84 63 L 86.5 64 L 89.5 60 L 91.5 61 L 96 58.5 L 95.5 57 L 98 58 L 98.5 56 L 100 56.5 L 100.5 54 L 101 56 Q 103.7 57.1 103 54.5 L 102.5 53 L 113.5 54 L 115 53.5 Q 113.8 58.1 119 56 L 119.5 54 L 120 55.5 L 119.5 57 L 121.5 56 L 122.5 58 L 125 57 L 125.5 59 L 127 58.5 L 126.5 60 L 129 61.5 Q 127.7 65.7 132.5 64 L 134.5 64 L 137.5 67 L 140 68.5 L 142 71.5 L 141 72.5 L 144 75.5 Q 142.9 78.8 145.5 78 L 147 77.5 Q 144.8 78.8 147.5 80 L 149 80.5 L 149 82.5 L 149.5 85 L 151 84.5 L 150.5 86 L 153 86.5 L 151 87.5 L 153 88 L 155 95 Q 157.7 93.9 157 96.5 L 156 98.5 L 157.5 102 L 159.5 101 L 159.5 102 L 158 102 L 158 106 L 161 106.5 L 160 111 Q 162.7 109.9 162 112.5 Q 159.8 113.8 161 118.5 L 163 118.5 L 163 126.5 Q 159.8 125.5 161 131.5 L 162 133.5 L 160 133.5 L 161 136.5 L 159.5 136 Q 156.5 135.2 158 139 L 160 139.5 L 158.5 140 L 157 139.5 L 158 141.5 L 153.5 147 L 137.5 152 L 135.5 152 Q 122.3 154.2 116 149.5 L 114.5 147 L 113 147 L 113 151 L 111.5 151 L 103 146 L 101.5 143 L 98 140.5 L 96 137.5 Q 91.6 135.1 91 130 Q 88.3 131.1 89 128.5 L 83.5 119 Q 80.5 119.9 82 115.5 L 79 110.5 L 77 102.5 L 77 95 Q 74.3 96.1 75 93.5 L 74 93.5 L 74 98.5 Q 71.4 99.9 72 104.5 L 69.5 107 L 66 109.5 L 64.5 112 Q 59.5 115 50.5 114 L 39 111 Q 40.1 108.3 37.5 109 L 29 104 Q 30.1 101.3 27.5 102 L 21.5 94 L 18 91.5 L 14.5 85 Q 11.9 85.8 13 82.5 Q 8.6 78.5 8 72 Q 4.7 73.3 6 68.5 L 2 57.5 L 1 38.5 L 4 26.5 L 6.5 24 L 10 21.5 L 11.5 19 L 15.5 17 L 17.5 17 L 22 15.5 L 20 15 Q 19 12 22 13 L 22.5 15 L 23.5 12 L 25 12.5 L 25.5 11 L 28.5 12 L 28.5 11 L 27.5 10 Z M 137 68 Q 136 71 139 70 Q 140 67 137 68 Z M 80 105 Q 78 108 81 107 L 80 105 Z "></path><path fill="rgb(0,0,0)" stroke="rgb(0,0,0)" stroke-width="1" opacity="0" d="M 0 0 L 400 0 L 400 400 L 0 400 L 0 50.5 L 1 50.5 L 1 56.5 L 6 74 Q 9 72.8 8 76.5 L 13.5 86 Q 15.8 85.3 15 87.5 L 20.5 95 Q 23.1 94.3 22 97 L 10 102 Q 11.1 104.7 8.5 104 L 1 108.5 L 1 181.5 L 3.5 184 L 6 185.5 Q 5.2 188.1 8.5 187 L 19 192 Q 17.8 195 21.5 194 L 31 199.5 Q 30.3 201.8 32.5 201 L 44 206 L 45.5 209 L 53 212.5 Q 52.2 215.1 55.5 214 Q 59.5 218.4 66 219 L 67.5 222 L 78 226 Q 76.9 228.7 79.5 228 L 89 233.5 Q 88.2 236.1 91.5 235 L 102 240 Q 100.8 243 104.5 242 Q 106.1 245.9 112.5 245 L 119 241.5 Q 118.3 239.3 120.5 240 L 130 234.5 Q 129.3 231.9 132 233 L 132 257.5 L 137.5 265 L 140 266.5 L 144 274 Q 146.7 272.9 146 275.5 Q 149.5 277 148 283.5 L 151.5 287 L 159.5 286 L 160.5 287 L 175.5 287 L 183 284 Q 181.3 279.5 186.5 281 Q 190.6 276.6 197 276 Q 195.9 273.3 198.5 274 L 208 270 Q 206.9 267.3 209.5 268 Q 213.5 263.8 220 263 Q 218.9 260.3 221.5 261 L 232 255.5 Q 231.2 252.9 234.5 254 L 245 249 Q 243.9 246.3 246.5 247 L 258 242 Q 256.9 239.3 259.5 240 L 261 239.5 L 260 243.5 L 262 247 L 272.5 250 L 287.5 258 L 294.5 260 L 319.5 274 L 339 287 Q 337.9 289.7 340.5 289 L 350 295.5 L 347.5 299 Q 345.3 298.3 346 300.5 L 334.5 310 L 300.5 331 Q 292.2 341.6 281 348 Q 282.1 350.7 279.5 350 L 276 352 L 274.5 355 L 270 357 L 267 361.5 L 267 366.5 L 268 369 Q 270.1 370.6 275.5 370 L 303.5 345 L 305 345 L 307.5 341 Q 321.3 329.8 338.5 322 L 368 298.5 L 369 293.5 L 367 290.5 L 366 270.5 L 365 269.5 L 365 152.5 L 360.5 146 Q 355.4 145.4 354 148.5 L 353 150.5 L 353 267.5 L 354 268.5 L 354 283 L 326.5 264 L 301.5 250 L 292.5 247 L 277.5 239 L 268.5 236 Q 261.4 236.7 258 235 L 257.5 233 L 249.5 233 L 242.5 229 L 240 230 L 240 185.5 L 236.5 181 L 232.5 180 Q 230.6 183.6 224.5 183 L 216 180.5 L 218 180 Q 219.1 177.3 216.5 178 L 207.5 174 L 199 173 L 198.5 171 L 191.5 171 L 190.5 170 L 178.5 170 L 170 168.5 L 171 167.5 L 171 159.5 L 167 151 L 162 147.5 Q 162.7 141.8 160 139.5 L 163 132.5 L 164 120.5 L 160 99 Q 156.7 100.3 158 95.5 L 152.5 85 Q 149.9 85.8 151 82.5 L 145.5 74 L 142 71.5 L 138.5 66 L 133 62.5 L 131.5 60 L 122 56 Q 123.3 53 119.5 54 Q 114.1 50.4 103.5 52 L 98 54 Q 99.1 56.7 96.5 56 L 87 61.5 L 86.5 63 L 84 53 Q 81 54.3 82 50.5 L 77 39 Q 74.3 40.1 75 37.5 L 69.5 30 L 67 28.5 L 67 26.5 L 62.5 22 L 59.5 20 Q 57 15.2 51 15 L 49.5 12 L 39.5 9 L 29.5 9 L 19 13 Q 20.1 15.7 17.5 15 L 9 20.5 L 7.5 23 L 4 25.5 L 1 32.5 L 0.5 38 L 0 0 Z M 196 9 Q 183 11 175 18 Q 164 26 161 42 L 161 59 L 167 74 Q 175 86 193 89 L 213 89 L 222 86 L 220 72 L 212 74 Q 195 76 188 69 Q 182 64 180 56 L 180 43 L 186 30 L 199 24 L 212 24 L 220 26 L 223 12 Q 213 7 196 9 Z M 253 10 L 238 63 L 230 86 L 231 88 L 249 88 L 254 70 L 255 68 L 276 68 L 281 87 L 283 88 L 301 88 L 278 12 L 277 10 L 253 10 Z M 315 10 L 314 14 L 314 29 L 313 30 L 311 76 L 310 77 L 310 88 L 327 88 L 330 29 L 337 62 L 344 84 L 345 87 L 359 87 L 371 50 L 377 28 L 378 84 L 379 88 L 397 88 L 396 87 L 393 16 L 392 15 Q 392 10 392 10 L 368 10 L 354 58 Q 355 62 352 61 L 347 37 L 339 12 L 339 10 L 315 10 Z "></path><path fill="rgb(0,0,0)" stroke="rgb(0,0,0)" stroke-width="1" opacity="0" d="M 264.5 25 L 273 54 L 257.5 54 L 257 52.5 Q 262.2 40.2 264.5 25 Z "></path><path fill="rgb(0,0,0)" stroke="rgb(0,0,0)" stroke-width="1" opacity="0.8235294117647058" d="M 195.5 9 L 198 9.5 L 195.5 10 L 195.5 9 Z "></path><path fill="rgb(0,0,0)" stroke="rgb(0,0,0)" stroke-width="1" opacity="0.8235294117647058" d="M 210.5 9 L 214 9.5 L 210.5 10 L 210.5 9 Z "></path><path fill="rgb(0,0,0)" stroke="rgb(0,0,0)" stroke-width="1" opacity="0.8235294117647058" d="M 222.5 12 L 223 14.5 L 222 14.5 L 222.5 12 Z "></path><path fill="rgb(0,0,0)" stroke="rgb(0,0,0)" stroke-width="1" opacity="0.8235294117647058" d="M 314.5 13 L 315 19.5 L 314 19.5 L 314.5 13 Z "></path><path fill="rgb(0,0,0)" stroke="rgb(0,0,0)" stroke-width="1" opacity="0.8235294117647058" d="M 392.5 15 L 393 22.5 L 392 22.5 L 392.5 15 Z "></path><path fill="rgb(0,0,0)" stroke="rgb(0,0,0)" stroke-width="1" opacity="0.8235294117647058" d="M 174.5 18 L 169.5 24 L 174.5 18 Z "></path><path fill="rgb(0,0,0)" stroke="rgb(0,0,0)" stroke-width="1" opacity="0.8235294117647058" d="M 201.5 23 L 208 23.5 L 201.5 24 L 201.5 23 Z "></path><path fill="rgb(0,0,0)" stroke="rgb(0,0,0)" stroke-width="1" opacity="0.8235294117647058" d="M 264.5 24 L 266 26.5 L 265 26.5 L 264.5 24 Z "></path><path fill="rgb(0,0,0)" stroke="rgb(0,0,0)" stroke-width="1" opacity="0.8235294117647058" d="M 189.5 27 L 187.5 30 L 189.5 27 Z "></path><path fill="rgb(0,0,0)" stroke="rgb(0,0,0)" stroke-width="1" opacity="0.8235294117647058" d="M 313.5 29 L 314 35.5 L 313 35.5 L 313.5 29 Z "></path><path fill="rgb(0,0,0)" stroke="rgb(0,0,0)" stroke-width="1" opacity="0.8235294117647058" d="M 185.5 31 L 184.5 33 L 185.5 31 Z "></path><path fill="rgb(0,0,0)" stroke="rgb(0,0,0)" stroke-width="1" opacity="0.8235294117647058" d="M 393.5 33 L 394 40.5 L 393 40.5 L 393.5 33 Z "></path><path fill="rgb(0,0,0)" stroke="rgb(0,0,0)" stroke-width="1" opacity="0.8235294117647058" d="M 328.5 38 L 329 48.5 L 328 48.5 L 328.5 38 Z "></path><path fill="rgb(0,0,0)" stroke="rgb(0,0,0)" stroke-width="1" opacity="0.8235294117647058" d="M 161.5 41 L 162 44.5 L 161 44.5 L 161.5 41 Z "></path><path fill="rgb(0,0,0)" stroke="rgb(0,0,0)" stroke-width="1" opacity="0.8235294117647058" d="M 377.5 42 L 378 57.5 L 377 57.5 L 377.5 42 Z "></path><path fill="rgb(0,0,0)" stroke="rgb(0,0,0)" stroke-width="1" opacity="0.8235294117647058" d="M 312.5 44 L 313 51.5 L 312 51.5 L 312.5 44 Z "></path><path fill="rgb(0,0,0)" stroke="rgb(0,0,0)" stroke-width="1" opacity="0.8235294117647058" d="M 179.5 46 L 180 52.5 L 179 52.5 L 179.5 46 Z "></path><path fill="rgb(0,0,0)" stroke="rgb(0,0,0)" stroke-width="1" opacity="0.8235294117647058" d="M 394.5 51 L 395 59.5 L 394 59.5 L 394.5 51 Z "></path><path fill="rgb(0,0,0)" stroke="rgb(0,0,0)" stroke-width="1" opacity="0.8235294117647058" d="M 256.5 54 L 274 54.5 L 256.5 55 L 256.5 54 Z "></path><path fill="rgb(0,0,0)" stroke="rgb(0,0,0)" stroke-width="1" opacity="0.8235294117647058" d="M 161.5 56 L 162 58.5 L 161 58.5 L 161.5 56 Z "></path><path fill="rgb(0,0,0)" stroke="rgb(0,0,0)" stroke-width="1" opacity="0.8235294117647058" d="M 351.5 56 L 352 58.5 L 351 58.5 L 351.5 56 Z "></path><path fill="rgb(0,0,0)" stroke="rgb(0,0,0)" stroke-width="1" opacity="0.8235294117647058" d="M 311.5 60 L 312 66.5 L 311 66.5 L 311.5 60 Z "></path><path fill="rgb(0,0,0)" stroke="rgb(0,0,0)" stroke-width="1" opacity="0.8235294117647058" d="M 327.5 60 L 328 69.5 L 327 69.5 L 327.5 60 Z "></path><path fill="rgb(0,0,0)" stroke="rgb(0,0,0)" stroke-width="1" opacity="0.8235294117647058" d="M 352 61 Q 355 60 354 63 Q 351 64 352 61 Z "></path><path fill="rgb(0,0,0)" stroke="rgb(0,0,0)" stroke-width="1" opacity="0.8235294117647058" d="M 183.5 64 L 184.5 66 L 183.5 64 Z "></path><path fill="rgb(0,0,0)" stroke="rgb(0,0,0)" stroke-width="1" opacity="0.8235294117647058" d="M 188.5 69 L 189.5 71 L 188.5 69 Z "></path><path fill="rgb(0,0,0)" stroke="rgb(0,0,0)" stroke-width="1" opacity="0.8235294117647058" d="M 395.5 69 L 396 77.5 L 395 77.5 L 395.5 69 Z "></path><path fill="rgb(0,0,0)" stroke="rgb(0,0,0)" stroke-width="1" opacity="0.8235294117647058" d="M 378.5 71 L 379 83.5 L 378 83.5 L 378.5 71 Z "></path><path fill="rgb(0,0,0)" stroke="rgb(0,0,0)" stroke-width="1" opacity="0.8235294117647058" d="M 167.5 73 L 168.5 75 L 167.5 73 Z "></path><path fill="rgb(0,0,0)" stroke="rgb(0,0,0)" stroke-width="1" opacity="0.8235294117647058" d="M 212.5 73 L 215 73.5 L 212.5 74 L 212.5 73 Z "></path><path fill="rgb(0,0,0)" stroke="rgb(0,0,0)" stroke-width="1" opacity="0.8235294117647058" d="M 201.5 74 L 208 74.5 L 201.5 75 L 201.5 74 Z "></path><path fill="rgb(0,0,0)" stroke="rgb(0,0,0)" stroke-width="1" opacity="0.8235294117647058" d="M 310.5 76 L 311 82.5 L 310 82.5 L 310.5 76 Z "></path><path fill="rgb(0,0,0)" stroke="rgb(0,0,0)" stroke-width="1" opacity="0.8235294117647058" d="M 326.5 81 L 327 87.5 L 326 87.5 L 326.5 81 Z "></path><path fill="rgb(0,0,0)" stroke="rgb(0,0,0)" stroke-width="1" opacity="0.8235294117647058" d="M 215.5 87 L 218 87.5 L 215.5 88 L 215.5 87 Z "></path><path fill="rgb(0,0,0)" stroke="rgb(0,0,0)" stroke-width="1" opacity="0.8235294117647058" d="M 192.5 88 L 196 88.5 L 192.5 89 L 192.5 88 Z "></path><path fill="rgb(0,0,0)" stroke="rgb(0,0,0)" stroke-width="1" opacity="0.8235294117647058" d="M 209.5 88 L 213 88.5 L 209.5 89 L 209.5 88 Z "></path><path fill="rgb(0,0,0)" stroke="rgb(0,0,0)" stroke-width="1" opacity="0.996078431372549" d="M 198.5 9 L 209.5 9 L 222 12 L 220 24.5 L 218.5 26 L 213.5 24 L 201.5 23 L 189.5 27 L 184 32.5 L 180 40.5 L 179 52.5 L 183 64.5 L 189.5 71 Q 196.1 75.4 207.5 75 Q 209 72.5 214.5 74 L 218.5 72 L 222 86 L 208.5 89 L 196.5 89 L 183.5 86 Q 174.5 82.5 169 75.5 Q 160.1 65.4 161 45.5 L 165 30.5 L 176.5 17 L 185.5 12 L 198.5 9 Z "></path><path fill="rgb(0,0,0)" stroke="rgb(0,0,0)" stroke-width="1" opacity="0.996078431372549" d="M 30.5 10 L 39 10.5 L 30.5 11 L 30.5 10 Z "></path><path fill="rgb(0,0,0)" stroke="rgb(0,0,0)" stroke-width="1" opacity="0.996078431372549" d="M 254 10 L 276.5 10 L 277 11.5 L 301 88 L 282.5 88 L 282 85.5 L 277 68 L 254.5 68 L 253 69.5 L 249 86.5 L 247.5 88 L 230 87.5 L 254 10 Z M 265 24 L 257 54 L 257 55 L 274 55 L 268 37 L 266 26 L 265 24 Z "></path><path fill="rgb(0,0,0)" stroke="rgb(0,0,0)" stroke-width="1" opacity="0.996078431372549" d="M 315 10 L 338.5 10 L 339 13.5 Q 348 36.2 352 63 Q 355.3 64.3 354 59.5 L 361 33.5 L 369 10 L 392 10 L 392 22.5 L 393 23.5 L 393 40.5 L 394 41.5 L 394 59.5 L 395 60.5 L 395 77.5 L 396 78.5 L 396 88 L 379 88 L 379 71.5 L 378 70.5 L 378 42.5 L 377 41.5 L 376.5 27 L 363 73.5 L 357.5 87 L 345.5 87 L 345 85.5 L 334 48.5 L 329.5 27 L 329 37.5 L 328 38.5 L 327 80.5 L 326 81.5 L 326 88 L 310.5 88 Q 309.5 88 310 83.5 L 311 82.5 L 311 67.5 L 312 66.5 L 312 52.5 L 313 51.5 L 313 36.5 L 314 35.5 L 314 20.5 L 315 19.5 L 315 10 Z "></path><path fill="rgb(0,0,0)" stroke="rgb(0,0,0)" stroke-width="1" opacity="0.996078431372549" d="M 26.5 11 L 29 11.5 L 26.5 12 L 26.5 11 Z "></path><path fill="rgb(0,0,0)" stroke="rgb(0,0,0)" stroke-width="1" opacity="0.996078431372549" d="M 40.5 11 L 46 12.5 L 44.5 13 L 40.5 12 L 40.5 11 Z "></path><path fill="rgb(0,0,0)" stroke="rgb(0,0,0)" stroke-width="1" opacity="0.996078431372549" d="M 22.5 13 L 23 14.5 L 16.5 18 L 17.5 16 L 22 15 L 22.5 13 Z "></path><path fill="rgb(0,0,0)" stroke="rgb(0,0,0)" stroke-width="1" opacity="0.996078431372549" d="M 47 13 Q 50 12 49 15 Q 46 16 47 13 Z "></path><path fill="rgb(0,0,0)" stroke="rgb(0,0,0)" stroke-width="1" opacity="0.996078431372549" d="M 50.5 15 L 59 20.5 L 61.5 24 L 66 27.5 L 68.5 31 L 71 32.5 L 75 42 L 77 42.5 L 75.5 43 L 70 34.5 L 70 32 L 65 28.5 L 62.5 25 L 58 21.5 L 56.5 19 Q 50.9 18.2 50.5 15 Z "></path><path fill="rgb(0,0,0)" stroke="rgb(0,0,0)" stroke-width="1" opacity="0.996078431372549" d="M 78.5 46 L 80 49.5 L 79 49.5 L 78.5 46 Z "></path><path fill="rgb(0,0,0)" stroke="rgb(0,0,0)" stroke-width="1" opacity="0.996078431372549" d="M 81.5 53 L 82 55.5 L 81 55.5 L 81.5 53 Z "></path><path fill="rgb(0,0,0)" stroke="rgb(0,0,0)" stroke-width="1" opacity="0.996078431372549" d="M 105.5 53 L 114 53.5 L 105.5 54 L 105.5 53 Z "></path><path fill="rgb(0,0,0)" stroke="rgb(0,0,0)" stroke-width="1" opacity="0.996078431372549" d="M 101 54 Q 104 53 103 56 Q 100 57 101 54 Z "></path><path fill="rgb(0,0,0)" stroke="rgb(0,0,0)" stroke-width="1" opacity="0.996078431372549" d="M 115 54 L 119 54 Q 117.9 56.7 120.5 56 L 120.5 57 L 115 56 L 115 54 Z "></path><path fill="rgb(0,0,0)" stroke="rgb(0,0,0)" stroke-width="1" opacity="0.996078431372549" d="M 82 57 Q 85 56 84 59 Q 81 60 82 57 Z "></path><path fill="rgb(0,0,0)" stroke="rgb(0,0,0)" stroke-width="1" opacity="0.996078431372549" d="M 96.5 57 L 98 57.5 L 91.5 61 L 92.5 59 L 96.5 57 Z "></path><path fill="rgb(0,0,0)" stroke="rgb(0,0,0)" stroke-width="1" opacity="0.996078431372549" d="M 125.5 58 L 129 60.5 L 127.5 60 L 125.5 58 Z "></path><path fill="rgb(0,0,0)" stroke="rgb(0,0,0)" stroke-width="1" opacity="0.996078431372549" d="M 84.5 60 L 85 62.5 L 84 62.5 L 84.5 60 Z "></path><path fill="rgb(0,0,0)" stroke="rgb(0,0,0)" stroke-width="1" opacity="0.996078431372549" d="M 133.5 64 L 139 68 L 144.5 75 Q 147.1 74.2 146 77.5 L 147.5 80 L 144 78 L 144 75.5 L 138.5 70 Q 136.3 70.8 137 68.5 L 133.5 64 Z "></path><path fill="rgb(0,0,0)" stroke="rgb(0,0,0)" stroke-width="1" opacity="0.996078431372549" d="M 148.5 81 L 151 85.5 L 149 84.5 L 148.5 81 Z "></path><path fill="rgb(0,0,0)" stroke="rgb(0,0,0)" stroke-width="1" opacity="0.996078431372549" d="M 151.5 87 L 154 88.5 L 156 94.5 L 155 94.5 L 153 88 L 151.5 87 Z "></path><path fill="rgb(0,0,0)" stroke="rgb(0,0,0)" stroke-width="1" opacity="0.996078431372549" d="M 156.5 97 L 158 102 Q 161.7 100.8 160 106 Q 156.7 107.3 158 102.5 L 156.5 97 Z "></path><path fill="rgb(0,0,0)" stroke="rgb(0,0,0)" stroke-width="1" opacity="0.996078431372549" d="M 18.5 99 L 17.5 101 L 18.5 99 Z "></path><path fill="rgb(0,0,0)" stroke="rgb(0,0,0)" stroke-width="1" opacity="0.996078431372549" d="M 10.5 104 L 9.5 106 L 10.5 104 Z "></path><path fill="rgb(0,0,0)" stroke="rgb(0,0,0)" stroke-width="1" opacity="0.996078431372549" d="M 160.5 107 L 161 110.5 L 160 110.5 L 160.5 107 Z "></path><path fill="rgb(0,0,0)" stroke="rgb(0,0,0)" stroke-width="1" opacity="0.996078431372549" d="M 161.5 113 L 162 118.5 L 161 118.5 L 161.5 113 Z "></path><path fill="rgb(0,0,0)" stroke="rgb(0,0,0)" stroke-width="1" opacity="0.996078431372549" d="M 161.5 127 L 162 131.5 L 161 131.5 L 161.5 127 Z "></path><path fill="rgb(0,0,0)" stroke="rgb(0,0,0)" stroke-width="1" opacity="0.996078431372549" d="M 160.5 133 L 161 135.5 L 160 139 Q 157.3 137.9 158 140.5 L 157 140.5 L 158 136 Q 161.1 137.1 160.5 133 Z "></path><path fill="rgb(0,0,0)" stroke="rgb(0,0,0)" stroke-width="1" opacity="0.996078431372549" d="M 158.5 142 L 161 143.5 L 160.5 146 L 160 143 L 158.5 142 Z "></path><path fill="rgb(0,0,0)" stroke="rgb(0,0,0)" stroke-width="1" opacity="0.996078431372549" d="M 121.5 237 L 120.5 239 L 121.5 237 Z "></path><path fill="rgb(0,0,0)" stroke="rgb(0,0,0)" stroke-width="1" opacity="0.996078431372549" d="M 115.5 240 L 116 241.5 L 113.5 243 L 113.5 242 Q 116 242.7 115.5 240 Z "></path><path fill="rgb(99,101,98)" stroke="rgb(99,101,98)" stroke-width="1" opacity="1" d="M 31.5 9 L 37 9.5 L 31.5 10 L 31.5 9 Z "></path><path fill="rgb(99,101,98)" stroke="rgb(99,101,98)" stroke-width="1" opacity="1" d="M 40.5 10 L 43 10.5 L 40.5 11 L 40.5 10 Z "></path><path fill="rgb(99,101,98)" stroke="rgb(99,101,98)" stroke-width="1" opacity="1" d="M 58.5 19 L 60 21.5 L 59 21.5 L 58.5 19 Z "></path><path fill="rgb(99,101,98)" stroke="rgb(99,101,98)" stroke-width="1" opacity="1" d="M 9.5 20 L 10 21.5 L 5.5 25 L 6.5 23 L 9 21.5 L 9.5 20 Z "></path><path fill="rgb(99,101,98)" stroke="rgb(99,101,98)" stroke-width="1" opacity="1" d="M 67.5 29 L 70 30.5 L 68.5 31 L 67.5 29 Z "></path><path fill="rgb(99,101,98)" stroke="rgb(99,101,98)" stroke-width="1" opacity="1" d="M 106.5 52 L 112 52.5 L 106.5 53 L 106.5 52 Z "></path><path fill="rgb(99,101,98)" stroke="rgb(99,101,98)" stroke-width="1" opacity="1" d="M 115.5 53 L 118 53.5 L 115.5 54 L 115.5 53 Z "></path><path fill="rgb(99,101,98)" stroke="rgb(99,101,98)" stroke-width="1" opacity="1" d="M 82 54 Q 85 53 84 56 Q 81 57 82 54 Z "></path><path fill="rgb(99,101,98)" stroke="rgb(99,101,98)" stroke-width="1" opacity="1" d="M 128.5 59 L 130 63 L 133 63.5 L 129 64 L 128.5 59 Z "></path><path fill="rgb(99,101,98)" stroke="rgb(99,101,98)" stroke-width="1" opacity="1" d="M 85.5 60 L 86.5 63 L 87.5 61 L 88 62.5 Q 86.5 65.5 85 62.5 L 85.5 60 Z "></path><path fill="rgb(99,101,98)" stroke="rgb(99,101,98)" stroke-width="1" opacity="1" d="M 3.5 61 L 4 63.5 L 3 63.5 L 3.5 61 Z "></path><path fill="rgb(99,101,98)" stroke="rgb(99,101,98)" stroke-width="1" opacity="1" d="M 142.5 72 L 143.5 74 L 142.5 72 Z "></path><path fill="rgb(99,101,98)" stroke="rgb(99,101,98)" stroke-width="1" opacity="1" d="M 74.5 93 L 75 95 L 77 95.5 L 77 102.5 L 78.5 107 L 79.5 105 L 80.5 107 Q 77.5 106.1 79 110.5 Q 82.8 113.2 82 119 L 85 120.5 L 89 130 Q 91.7 128.9 91 131.5 L 96 139 Q 98.7 137.9 98 140.5 L 103 144.5 Q 102.3 146.8 104.5 146 L 107.5 150 L 101.5 147 L 100 147.5 L 100 145.5 Q 100.8 143.3 98.5 144 L 87 139 L 85.5 136 L 75 132 Q 76.1 129.3 73.5 130 L 64 124.5 Q 64.8 121.9 61.5 123 Q 57.5 118.6 51 118 Q 52.1 115.3 49.5 116 L 43 112.5 L 45.5 112 Q 49.9 115.1 58.5 114 L 66 110.5 L 68.5 107 L 72 104.5 L 74.5 93 Z "></path><path fill="rgb(99,101,98)" stroke="rgb(99,101,98)" stroke-width="1" opacity="1" d="M 22.5 95 L 25 99.5 L 23 100 Q 24.3 97 20.5 98 L 19 98.5 L 22 97 L 22.5 95 Z "></path><path fill="rgb(99,101,98)" stroke="rgb(99,101,98)" stroke-width="1" opacity="1" d="M 27 102 Q 30.3 100.9 29 105 Q 25.7 106.1 27 102 Z "></path><path fill="rgb(99,101,98)" stroke="rgb(99,101,98)" stroke-width="1" opacity="1" d="M 6.5 105 L 8 105.5 L 5.5 107 L 6.5 105 Z "></path><path fill="rgb(99,101,98)" stroke="rgb(99,101,98)" stroke-width="1" opacity="1" d="M 3.5 107 Q 4.6 109.8 8 109 Q 6.9 111.7 9.5 111 L 19 116 Q 17.8 119 21.5 118 L 31 123.5 Q 30.3 125.8 32.5 125 L 44 130 Q 42.9 132.7 45.5 132 L 56 137 Q 54.9 139.7 57.5 139 L 68 144 Q 66.9 146.7 69.5 146 L 80 151 Q 78.9 153.7 81.5 153 L 91 157 L 92.5 160 L 102 164 Q 100.8 167 104.5 166 L 113 171.5 L 113 242.5 L 114 243.5 L 112 243.5 Q 112.8 246.1 109.5 245 L 106 242.5 L 105.5 240 L 105 242 L 103 242 Q 104.1 239.3 101.5 240 L 99.5 237 L 97.5 237 L 92 234.5 L 91.5 232 L 89.5 233 L 84 229.5 Q 84.8 227.3 82.5 228 L 80.5 228 L 77.5 226 L 69.5 221 L 67 221 L 66.5 218 L 64.5 218 L 61 217 L 60.5 215 L 58.5 215 L 54 214 L 52.5 211 L 45 207.5 Q 45.8 205.3 43.5 206 L 37 203 L 36.5 201 L 34.5 202 L 32 201 L 30.5 197 L 28.5 197 L 23 194.5 L 22.5 192 L 22 194 L 20 194 Q 21.1 191.3 18.5 192 L 9 186.5 Q 9.8 183.9 6.5 185 L 2 181.5 L 2 111.5 L 1 109.5 L 3.5 107 Z M 51 151 L 51 173 L 62 178 Q 64 177 63 180 L 74 185 L 78 185 L 87 190 L 88 194 L 100 199 L 100 181 L 99 179 L 89 173 Q 86 174 87 171 L 77 166 Q 74 167 75 164 L 65 159 Q 62 160 63 157 L 53 153 Q 54 150 51 151 Z "></path><path fill="rgb(99,101,98)" stroke="rgb(99,101,98)" stroke-width="1" opacity="1" d="M 161.5 108 L 162 110.5 L 161 110.5 L 161.5 108 Z "></path><path fill="rgb(99,101,98)" stroke="rgb(99,101,98)" stroke-width="1" opacity="1" d="M 39.5 111 Q 41.8 110.3 41 112.5 L 39.5 111 Z "></path><path fill="rgb(99,101,98)" stroke="rgb(99,101,98)" stroke-width="1" opacity="1" d="M 162.5 114 L 163 117.5 L 162 117.5 L 162.5 114 Z "></path><path fill="rgb(99,101,98)" stroke="rgb(99,101,98)" stroke-width="1" opacity="1" d="M 61.5 125 L 64 126.5 L 62.5 126 L 61.5 125 Z "></path><path fill="rgb(99,101,98)" stroke="rgb(99,101,98)" stroke-width="1" opacity="1" d="M 162.5 127 L 163 129.5 L 162 129.5 L 162.5 127 Z "></path><path fill="rgb(99,101,98)" stroke="rgb(99,101,98)" stroke-width="1" opacity="1" d="M 158.5 141 L 161 142.5 L 159.5 142 L 158.5 141 Z "></path><path fill="rgb(99,101,98)" stroke="rgb(99,101,98)" stroke-width="1" opacity="1" d="M 155 144 Q 158 143 157 146 Q 154 147 155 144 Z "></path><path fill="rgb(99,101,98)" stroke="rgb(99,101,98)" stroke-width="1" opacity="1" d="M 161.5 144 L 162 187 Q 167.4 187.3 170.5 191 L 173.5 191 L 182.5 185 L 183 187 Q 185.7 188.1 185 185.5 Q 182.8 184.3 185.5 183 L 187 183.5 L 185 184.5 L 187.5 185 L 188.5 182 L 190.5 183 L 190.5 181 L 193.5 182 L 193.5 181 L 192 180.5 L 194 180 L 194.5 178 L 195 180 Q 197.7 181.1 197 178.5 L 196.5 177 L 198.5 178 L 202.5 177 L 202.5 178 Q 199.9 177.3 201 180 L 205 180 Q 203.9 176.7 208 178 Q 209.3 181 205.5 180 L 205.5 181 L 211.5 180 L 211.5 181 L 210 181.5 L 214.5 182 L 216.5 181 L 216.5 182 L 215 182.5 L 218.5 183 L 221.5 182 L 221.5 183 L 219 183.5 L 223.5 184 L 226.5 183 L 229.5 182 L 231 182.5 L 231 181 L 236 181 L 237.5 184 L 239 184.5 L 239 236.5 L 236 238.5 L 236 240.5 Q 236.8 243.1 233.5 242 Q 229.4 246.4 223 247 L 221.5 250 L 211 254 Q 212.1 256.7 209.5 256 L 199 261 Q 200.1 263.7 197.5 263 Q 193.5 267.2 187 268 Q 188.1 270.7 185.5 270 L 177 274.5 Q 177.8 276.8 175.5 276 L 164 281 L 162.5 284 L 154.5 287 L 153.5 285 L 150.5 286 Q 147.7 284.7 150 283.5 L 149.5 281 L 148.5 283 L 148 277.5 L 148 275.5 L 146.5 272 L 144.5 273 L 143 269.5 L 141.5 266 Q 140.3 268.3 139 265.5 L 139 263.5 Q 140.1 260.2 137.5 261 L 134 259.5 L 135 257.5 L 134 256.5 L 133.5 239 L 132 239.5 L 134 236.5 L 132 232.5 L 134 232.5 L 134 231 L 130 231 L 129.5 235 L 129 231.5 L 134 229.5 L 132 228.5 L 133 226 L 130.5 226 L 126 221.5 L 125 209.5 L 130 195 Q 133 196.3 132 192.5 L 139 187 L 141.5 183 Q 145.9 179.9 154.5 181 L 160.5 184 L 161.5 144 Z M 230 191 L 228 194 L 217 199 Q 214 198 215 201 L 205 206 Q 202 205 203 208 L 195 212 Q 191 211 192 214 L 183 219 Q 180 218 181 221 L 170 226 Q 167 225 168 228 L 159 232 L 156 236 L 156 277 L 159 276 Q 161 277 160 274 L 169 270 Q 171 271 170 268 L 181 264 L 182 261 Q 188 260 193 256 Q 196 257 195 254 L 205 249 Q 207 250 206 247 L 217 243 L 218 240 L 228 236 Q 227 228 231 226 L 231 192 L 230 191 Z M 171 192 Q 170 195 173 194 Q 174 191 171 192 Z M 134 221 L 133 225 L 134 225 L 134 221 Z "></path><path fill="rgb(99,101,98)" stroke="rgb(99,101,98)" stroke-width="1" opacity="1" d="M 113 147 L 116 148.5 L 117 150.5 L 113 151 L 113 147 Z "></path><path fill="rgb(99,101,98)" stroke="rgb(99,101,98)" stroke-width="1" opacity="1" d="M 148.5 148 Q 151.1 147.3 150 150 L 143.5 151 L 143.5 150 Q 147.8 150.8 148.5 148 Z "></path><path fill="rgb(99,101,98)" stroke="rgb(99,101,98)" stroke-width="1" opacity="1" d="M 127.5 235 L 126.5 237 L 127.5 235 Z "></path><path fill="rgb(99,101,98)" stroke="rgb(99,101,98)" stroke-width="1" opacity="1" d="M 119.5 239 L 119 240.5 L 118.5 242 L 118 240.5 L 119.5 239 Z "></path><path fill="rgb(99,101,98)" stroke="rgb(99,101,98)" stroke-width="1" opacity="1" d="M 362.5 291 L 366 292.5 L 363 297 Q 356.6 298.1 353 295.5 L 357.5 295 L 360.5 296 L 362.5 291 Z "></path><path fill="rgb(67,117,47)" stroke="rgb(67,117,47)" stroke-width="1" opacity="0.9803921568627451" d="M 22.5 98 L 23 100 L 27 101.5 Q 25.5 105.9 28.5 105 L 31 104 Q 29.9 106.7 32.5 106 L 34 109 L 36.5 108 L 39 109 L 40.5 113 L 42.5 112 L 51 116 Q 49.9 118.7 52.5 118 L 64 123 L 65.5 126 L 75 130 Q 73.8 133 77.5 132 L 87 137.5 Q 86.3 139.8 88.5 139 L 100 144 L 101.5 147 L 111.5 151 L 138.5 152 L 150 150 L 151.5 147 L 157 146 L 156 143.5 Q 157.3 140.8 158.5 143 Q 161.1 142.2 160 145.5 L 161 146.5 L 161 183 Q 156.5 183.8 154.5 181 L 146.5 181 L 139 185.5 Q 139.8 187.8 137.5 187 L 132 192.5 L 132 195 Q 129.3 193.9 130 196.5 Q 124.1 203.6 125 217.5 L 126 221.5 L 130.5 226 Q 133.8 224.9 133 227.5 L 132.5 229 L 136 231.5 L 134.5 235 L 134 233.5 L 135 231.5 Q 134.3 229.3 130.5 230 L 128 235 Q 125.3 233.9 126 236.5 L 124.5 236 Q 122.3 235.3 123 237.5 Q 121.3 235.9 119.5 239 Q 116.5 238.2 118 242 L 116 242 L 115.5 240 L 115 242 L 113 241.5 L 113 171.5 L 110.5 169 L 102 166 Q 103.1 163.3 100.5 164 L 91 158.5 Q 91.8 155.9 88.5 157 Q 85.4 153.3 80 153 Q 81.1 150.3 78.5 151 L 68 146 Q 69.1 143.3 66.5 144 Q 62.5 139.8 56 139 Q 57.1 136.3 54.5 137 L 44 132 Q 45.3 129 41.5 130 Q 37.5 125.6 31 125 L 29.5 122 L 19 118 Q 20.1 115.3 17.5 116 L 8 111 L 8 109 Q 3.9 110.3 5 107 Q 8.8 108.5 8 105.5 Q 9.8 107.1 11.5 104 L 13 104 Q 11.5 100.3 14.5 101 L 16 101.5 L 16.5 100 Q 18 102.5 19.5 99 L 22.5 98 Z "></path><path fill="rgb(67,117,47)" stroke="rgb(67,117,47)" stroke-width="1" opacity="0.9803921568627451" d="M 357.5 146 Q 363.3 145.3 364 149.5 L 365 152.5 L 365 269.5 L 366 270.5 L 367 290.5 L 363.5 292 L 356 286.5 L 354 283.5 L 354 268.5 L 353 267.5 L 353 150.5 L 355.5 147 L 357.5 146 Z "></path><path fill="rgb(67,117,47)" stroke="rgb(67,117,47)" stroke-width="1" opacity="0.9803921568627451" d="M 197.5 177 L 199 177.5 L 197 178 Q 198.1 180.7 195.5 180 L 187.5 185 L 185 185 Q 186 188 183 187 Q 181.9 184.3 184.5 185 L 195 179.5 Q 194.3 177.3 196.5 178 L 197.5 177 Z "></path><path fill="rgb(67,117,47)" stroke="rgb(67,117,47)" stroke-width="1" opacity="0.9803921568627451" d="M 201 178 Q 206.3 176.8 205.5 180 L 209.5 180 L 224 183.5 L 219.5 184 L 214.5 182 L 201 180 L 201 178 Z "></path><path fill="rgb(67,117,47)" stroke="rgb(67,117,47)" stroke-width="1" opacity="0.9803921568627451" d="M 236.5 182 L 237.5 184 L 236.5 182 Z "></path><path fill="rgb(67,117,47)" stroke="rgb(67,117,47)" stroke-width="1" opacity="0.9803921568627451" d="M 171 192 Q 174 191 173 194 Q 170 195 171 192 Z "></path><path fill="rgb(67,117,47)" stroke="rgb(67,117,47)" stroke-width="1" opacity="0.9803921568627451" d="M 136.5 212 L 137 213.5 L 134 215.5 L 136.5 212 Z "></path><path fill="rgb(67,117,47)" stroke="rgb(67,117,47)" stroke-width="1" opacity="0.9803921568627451" d="M 133.5 221 L 134 224.5 L 133 224.5 L 133.5 221 Z "></path><path fill="rgb(67,117,47)" stroke="rgb(67,117,47)" stroke-width="1" opacity="0.9803921568627451" d="M 236.5 238 L 235.5 240 L 236.5 238 Z "></path><path fill="rgb(67,117,47)" stroke="rgb(67,117,47)" stroke-width="1" opacity="0.9803921568627451" d="M 133.5 240 L 134 256.5 L 137.5 261 Q 140.1 260.2 139 263.5 L 144.5 271 L 148 273.5 L 149 276.5 L 147 275.5 L 146 272 L 142 269.5 L 138.5 264 L 136 262.5 Q 136.5 258 133 257.5 L 133.5 240 Z "></path><path fill="rgb(67,117,47)" stroke="rgb(67,117,47)" stroke-width="1" opacity="0.9803921568627451" d="M 149.5 281 L 151 284.5 L 149 283.5 L 149.5 281 Z "></path><path fill="rgb(26,150,220)" stroke="rgb(26,150,220)" stroke-width="1" opacity="0.9725490196078431" d="M 229.5 191 L 231 191.5 L 231 225.5 Q 226.5 228.3 228 236 L 218 240 L 216.5 243 L 206 247 Q 207.1 249.7 204.5 249 L 195 254 Q 196.3 257 192.5 256 Q 188.4 260.4 182 261 L 180.5 264 L 170 268 Q 171.1 270.7 168.5 270 L 160 274 Q 161.1 276.7 158.5 276 L 156 277 L 156 235.5 L 158.5 232 L 168 227.5 Q 167.3 225.3 169.5 226 L 181 221 Q 179.9 218.3 182.5 219 L 192 214 Q 190.8 211 194.5 212 L 203 208 Q 201.9 205.3 204.5 206 L 215 201 Q 213.9 198.3 216.5 199 L 228 194 L 229.5 191 Z "></path><path fill="rgb(26,150,220)" stroke="rgb(26,150,220)" stroke-width="1" opacity="0.9725490196078431" d="M 263 236 L 268.5 236 L 277.5 239 L 292.5 247 L 301.5 250 Q 330.9 264.6 355 284.5 L 360.5 291 Q 363.5 290.1 362 294.5 L 358.5 296 L 353.5 295 L 350.5 296 L 339 289 Q 340.1 286.3 337.5 287 Q 318.1 271.4 294.5 260 L 287.5 258 L 272.5 250 L 262 247 L 260 243.5 L 260 240.5 L 261 238 Q 264 239 263 236 Z "></path><path fill="rgb(210,210,209)" stroke="rgb(210,210,209)" stroke-width="1" opacity="1" d="M 37.5 9 L 40 9.5 L 37.5 10 L 37.5 9 Z "></path><path fill="rgb(210,210,209)" stroke="rgb(210,210,209)" stroke-width="1" opacity="1" d="M 54.5 16 L 58 18.5 L 55.5 17 L 54.5 16 Z "></path><path fill="rgb(210,210,209)" stroke="rgb(210,210,209)" stroke-width="1" opacity="1" d="M 11.5 18 L 10.5 20 L 11.5 18 Z "></path><path fill="rgb(210,210,209)" stroke="rgb(210,210,209)" stroke-width="1" opacity="1" d="M 60.5 20 L 61 22 L 67 26.5 L 62.5 23 L 60 21.5 L 60.5 20 Z "></path><path fill="rgb(210,210,209)" stroke="rgb(210,210,209)" stroke-width="1" opacity="1" d="M 70.5 31 L 71.5 33 L 70.5 31 Z "></path><path fill="rgb(210,210,209)" stroke="rgb(210,210,209)" stroke-width="1" opacity="1" d="M 1.5 32 L 2 35.5 L 1 35.5 L 1.5 32 Z "></path><path fill="rgb(210,210,209)" stroke="rgb(210,210,209)" stroke-width="1" opacity="1" d="M 73.5 36 L 74.5 38 L 73.5 36 Z "></path><path fill="rgb(210,210,209)" stroke="rgb(210,210,209)" stroke-width="1" opacity="1" d="M 0.5 38 L 1 49.5 L 0 49.5 L 0.5 38 Z "></path><path fill="rgb(210,210,209)" stroke="rgb(210,210,209)" stroke-width="1" opacity="1" d="M 77.5 42 L 78.5 44 L 77.5 42 Z "></path><path fill="rgb(210,210,209)" stroke="rgb(210,210,209)" stroke-width="1" opacity="1" d="M 103.5 52 L 106 52.5 L 103.5 53 L 103.5 52 Z "></path><path fill="rgb(210,210,209)" stroke="rgb(210,210,209)" stroke-width="1" opacity="1" d="M 112.5 52 L 115 52.5 L 112.5 53 L 112.5 52 Z "></path><path fill="rgb(210,210,209)" stroke="rgb(210,210,209)" stroke-width="1" opacity="1" d="M 1.5 53 L 2 56.5 L 1 56.5 L 1.5 53 Z "></path><path fill="rgb(210,210,209)" stroke="rgb(210,210,209)" stroke-width="1" opacity="1" d="M 129.5 59 L 133 61.5 L 134 63.5 L 132.5 63 Q 128.8 64.3 130 60.5 L 129.5 59 Z "></path><path fill="rgb(210,210,209)" stroke="rgb(210,210,209)" stroke-width="1" opacity="1" d="M 135.5 64 L 141 68.5 L 142 70.5 L 140 69.5 L 138.5 67 L 135.5 64 Z "></path><path fill="rgb(210,210,209)" stroke="rgb(210,210,209)" stroke-width="1" opacity="1" d="M 6 72 Q 9 71 8 74 Q 5 75 6 72 Z "></path><path fill="rgb(210,210,209)" stroke="rgb(210,210,209)" stroke-width="1" opacity="1" d="M 144.5 74 L 147 75.5 L 148 77.5 L 146 76.5 Q 146.8 74.3 144.5 75 L 144.5 74 Z "></path><path fill="rgb(210,210,209)" stroke="rgb(210,210,209)" stroke-width="1" opacity="1" d="M 9.5 78 L 10.5 80 L 9.5 78 Z "></path><path fill="rgb(210,210,209)" stroke="rgb(210,210,209)" stroke-width="1" opacity="1" d="M 148.5 79 L 149.5 81 L 148.5 79 Z "></path><path fill="rgb(210,210,209)" stroke="rgb(210,210,209)" stroke-width="1" opacity="1" d="M 12.5 84 L 15 85.5 L 13.5 86 L 12.5 84 Z "></path><path fill="rgb(210,210,209)" stroke="rgb(210,210,209)" stroke-width="1" opacity="1" d="M 15.5 87 L 16.5 89 L 15.5 87 Z "></path><path fill="rgb(210,210,209)" stroke="rgb(210,210,209)" stroke-width="1" opacity="1" d="M 18.5 92 L 22 94.5 L 20.5 95 L 18.5 92 Z "></path><path fill="rgb(210,210,209)" stroke="rgb(210,210,209)" stroke-width="1" opacity="1" d="M 157.5 95 L 158 97.5 L 157 97.5 L 157.5 95 Z "></path><path fill="rgb(210,210,209)" stroke="rgb(210,210,209)" stroke-width="1" opacity="1" d="M 13.5 100 L 15 100.5 L 12.5 102 L 13.5 100 Z "></path><path fill="rgb(210,210,209)" stroke="rgb(210,210,209)" stroke-width="1" opacity="1" d="M 2.5 107 L 1.5 109 L 2.5 107 Z "></path><path fill="rgb(210,210,209)" stroke="rgb(210,210,209)" stroke-width="1" opacity="1" d="M 1.5 111 L 2 181.5 L 4 183.5 L 1 181.5 L 1.5 111 Z "></path><path fill="rgb(210,210,209)" stroke="rgb(210,210,209)" stroke-width="1" opacity="1" d="M 162.5 111 L 163 113.5 L 162 113.5 L 162.5 111 Z "></path><path fill="rgb(210,210,209)" stroke="rgb(210,210,209)" stroke-width="1" opacity="1" d="M 163.5 120 L 164 125.5 L 163 125.5 L 163.5 120 Z "></path><path fill="rgb(210,210,209)" stroke="rgb(210,210,209)" stroke-width="1" opacity="1" d="M 162.5 130 L 163 132.5 L 162 132.5 L 162.5 130 Z "></path><path fill="rgb(210,210,209)" stroke="rgb(210,210,209)" stroke-width="1" opacity="1" d="M 158.5 140 L 161 141.5 L 159.5 141 L 158.5 140 Z "></path><path fill="rgb(210,210,209)" stroke="rgb(210,210,209)" stroke-width="1" opacity="1" d="M 162.5 148 L 167 151 L 171 159.5 L 171 167.5 L 170.5 169 L 199 171 Q 197.7 174.7 203.5 173 L 218 178 Q 219.1 180.7 216.5 180 L 212.5 181 L 208 180 Q 209.3 176.3 203.5 178 Q 202 175.5 196.5 177 L 194 178 Q 195.1 180.7 192.5 180 L 173.5 191 L 170.5 191 Q 167.4 187.3 162 187 L 162.5 148 Z "></path><path fill="rgb(210,210,209)" stroke="rgb(210,210,209)" stroke-width="1" opacity="1" d="M 51 151 Q 53.7 149.9 53 152.5 L 63 157 Q 61.9 159.7 64.5 159 L 75 164 Q 73.9 166.7 76.5 166 L 87 171 Q 85.9 173.7 88.5 173 L 99 178.5 L 100 180.5 L 100 199 L 88 193.5 L 87 190 L 77.5 185 L 73.5 185 L 63 180 Q 64.1 177.3 61.5 178 L 51 173 L 51 151 Z "></path><path fill="rgb(210,210,209)" stroke="rgb(210,210,209)" stroke-width="1" opacity="1" d="M 232.5 180 L 235 180.5 L 232.5 181 L 232.5 180 Z "></path><path fill="rgb(210,210,209)" stroke="rgb(210,210,209)" stroke-width="1" opacity="1" d="M 217.5 181 L 220 181.5 L 217.5 182 L 217.5 181 Z "></path><path fill="rgb(210,210,209)" stroke="rgb(210,210,209)" stroke-width="1" opacity="1" d="M 236.5 181 L 238.5 184 L 236.5 181 Z "></path><path fill="rgb(210,210,209)" stroke="rgb(210,210,209)" stroke-width="1" opacity="1" d="M 5.5 184 L 9 185 L 10 187.5 L 8.5 187 Q 5.2 188.1 6 185.5 L 5.5 184 Z "></path><path fill="rgb(210,210,209)" stroke="rgb(210,210,209)" stroke-width="1" opacity="1" d="M 239.5 185 L 240 230 L 242.5 229 Q 247.2 234.6 258 233 Q 256.8 236 260.5 235 L 263 236 Q 264.1 238.7 261.5 238 L 258 240 Q 259.1 242.7 256.5 242 L 245 247 Q 246.1 249.7 243.5 249 L 241.5 251 L 232 254 L 230.5 257 L 220 261 Q 221.1 263.7 218.5 263 L 208 268 Q 209.3 271 205.5 270 Q 202.4 273.7 197 274 Q 198.1 276.7 195.5 276 L 186.5 281 L 183 281 Q 184.5 284.7 181.5 284 L 175.5 287 L 160.5 287 L 158.5 286 L 155.5 287 L 155.5 286 Q 161.3 285.8 164 282.5 Q 163.2 279.9 166.5 281 Q 170.5 276.8 177 276 L 178.5 273 L 187 270 Q 185.9 267.3 188.5 268 L 199 263 Q 197.9 260.3 200.5 261 L 211 256 Q 209.9 253.3 212.5 254 L 223 248.5 Q 222.3 246.3 224.5 247 L 236 242 L 239 236.5 L 239.5 185 Z "></path><path fill="rgb(210,210,209)" stroke="rgb(210,210,209)" stroke-width="1" opacity="1" d="M 13.5 189 L 16 190.5 L 14.5 190 L 13.5 189 Z "></path><path fill="rgb(210,210,209)" stroke="rgb(210,210,209)" stroke-width="1" opacity="1" d="M 22.5 194 L 23.5 196 L 22.5 194 Z "></path><path fill="rgb(210,210,209)" stroke="rgb(210,210,209)" stroke-width="1" opacity="1" d="M 30.5 198 L 32 200.5 L 31 200.5 L 30.5 198 Z "></path><path fill="rgb(210,210,209)" stroke="rgb(210,210,209)" stroke-width="1" opacity="1" d="M 36.5 202 L 40 204.5 L 38.5 204 L 36.5 202 Z "></path><path fill="rgb(210,210,209)" stroke="rgb(210,210,209)" stroke-width="1" opacity="1" d="M 44.5 206 L 46 208.5 L 44 207.5 L 44.5 206 Z "></path><path fill="rgb(210,210,209)" stroke="rgb(210,210,209)" stroke-width="1" opacity="1" d="M 52.5 211 L 54 213.5 L 53 213.5 L 52.5 211 Z "></path><path fill="rgb(210,210,209)" stroke="rgb(210,210,209)" stroke-width="1" opacity="1" d="M 60.5 216 L 63 217.5 L 61.5 218 L 60.5 216 Z "></path><path fill="rgb(210,210,209)" stroke="rgb(210,210,209)" stroke-width="1" opacity="1" d="M 66.5 219 L 67 221 L 71 222.5 L 69.5 222 L 66 220.5 L 66.5 219 Z "></path><path fill="rgb(210,210,209)" stroke="rgb(210,210,209)" stroke-width="1" opacity="1" d="M 74.5 224 L 77 225.5 L 75.5 226 L 74.5 224 Z "></path><path fill="rgb(210,210,209)" stroke="rgb(210,210,209)" stroke-width="1" opacity="1" d="M 82.5 229 L 85 230.5 L 83.5 230 L 82.5 229 Z "></path><path fill="rgb(210,210,209)" stroke="rgb(210,210,209)" stroke-width="1" opacity="1" d="M 130 231 L 134 231 L 134 232.5 L 133 235.5 L 134 237.5 L 132 238.5 L 132 233.5 Q 129.3 234.1 130 231 Z "></path><path fill="rgb(210,210,209)" stroke="rgb(210,210,209)" stroke-width="1" opacity="1" d="M 88.5 232 L 92 233 L 93 235.5 L 91.5 235 Q 88.2 236.1 89 233.5 L 88.5 232 Z "></path><path fill="rgb(210,210,209)" stroke="rgb(210,210,209)" stroke-width="1" opacity="1" d="M 128.5 235 L 130 237.5 L 129 237.5 L 128.5 235 Z "></path><path fill="rgb(210,210,209)" stroke="rgb(210,210,209)" stroke-width="1" opacity="1" d="M 96.5 237 L 101 239.5 L 99.5 239 Q 95.8 238.8 96.5 237 Z "></path><path fill="rgb(210,210,209)" stroke="rgb(210,210,209)" stroke-width="1" opacity="1" d="M 132.5 240 L 133 257.5 L 134 258.5 L 132 257.5 L 132.5 240 Z "></path><path fill="rgb(210,210,209)" stroke="rgb(210,210,209)" stroke-width="1" opacity="1" d="M 105.5 242 L 106.5 244 L 105.5 242 Z "></path><path fill="rgb(210,210,209)" stroke="rgb(210,210,209)" stroke-width="1" opacity="1" d="M 135.5 261 L 137.5 264 L 139 264.5 L 137.5 265 Q 133.9 263.9 135.5 261 Z "></path><path fill="rgb(210,210,209)" stroke="rgb(210,210,209)" stroke-width="1" opacity="1" d="M 140.5 267 L 143 270.5 L 141 269.5 L 140.5 267 Z "></path><path fill="rgb(210,210,209)" stroke="rgb(210,210,209)" stroke-width="1" opacity="1" d="M 144.5 273 L 147 274.5 L 148 276.5 L 146 275.5 Q 146.8 273.3 144.5 274 L 144.5 273 Z "></path><path fill="rgb(210,210,209)" stroke="rgb(210,210,209)" stroke-width="1" opacity="1" d="M 151.5 286 L 154 286.5 L 151.5 287 L 151.5 286 Z "></path><path fill="rgb(254,0,42)" stroke="rgb(254,0,42)" stroke-width="1" opacity="0.9137254901960784" d="M 366 291 Q 368.7 289.9 368 292.5 L 369 296.5 L 365.5 301 L 363.5 301 L 338.5 322 L 318.5 333 L 305 343.5 Q 305.8 345.8 303.5 345 L 275.5 370 L 270.5 370 L 268 369 Q 266.4 366.9 267 361.5 L 270 357 L 276 353.5 Q 275.3 351.3 277.5 352 L 281 350 Q 279.9 347.3 282.5 348 L 300.5 331 L 334.5 310 L 346 300.5 Q 345.3 298.3 347.5 299 Q 348.7 294.8 355.5 296 L 356.5 297 L 363 297 L 366 291 Z "></path></svg>