<svg width="400" height="400" version="1.1" xmlns="http://www.w3.org/2000/svg" desc="Created with imagetracer.js version 1.2.5"><path fill="rgb(0,0,0)" stroke="rgb(0,0,0)" stroke-width="1" opacity="0" d="M 0 0 L 160.5 0 L 161 2 L 157 4 L 157 10 L 155 10.5 L 155 15.5 L 154 16.5 L 154 27 L 152 27 Q 153.7 32.2 150 31 L 150 37 L 152 37 L 152 41 Q 155 39.8 154 43.5 L 155 46 Q 158.7 44.8 157 50 L 161 50 L 161 52 L 165 54 L 165 60 L 169 62 L 169 66 L 173 68 L 173 81 Q 169.3 79.8 171 85 Q 174 84 173 87 Q 167.7 85.8 168.5 89 L 163 89 L 162.5 91 L 157 91 L 157 93 Q 150.7 91.5 151.5 95 L 146.5 95 L 140 96 L 139.5 98 L 127.5 98 Q 128.3 101.3 123 100 L 123 102 L 117.5 102 L 117 104 L 111 104 L 111 106 L 107 106 L 107 108 Q 104.3 106.9 105 109.5 L 104 112 L 102 112 L 102 116 L 100 116 Q 101 119 98 118 L 98 121 L 96 121 Q 97.3 126.3 94 125.5 L 94 131 L 92 131.5 Q 93.4 140.3 90 139.5 L 90 158 L 92 158 L 92 164 L 90 164 L 90 168 L 88 168 L 88 172 L 86.5 172 L 84 173 L 84 177 L 80 179 L 80 182.5 L 79 187 L 75 189 L 75 193 L 73 193 L 73 197 L 71 197 Q 72.3 201.1 69 200 L 69 203.5 Q 65.8 202.7 67 208 L 65 208 L 65 210 L 63 210 L 63 212 L 61 212 L 61 214 L 59 214 L 59 216 L 57 216 L 57 218 L 55 218 L 55 220 Q 52.3 218.9 53 221.5 L 50 223 L 50 225 L 46 227 L 46 231 L 42 233 L 42 237 L 38 239 L 38 243 L 36 243 L 36 247 L 34.5 247 L 32 248 L 32 252 L 28 254 L 28 257.5 L 27 260 L 23 262 L 23 266 L 21 266 L 21 268 L 19 268 L 19 270 L 17 270 L 15 274 L 11.5 274 L 9 275 L 9 277 L 7 277 L 7 279 L 5 279 L 5 281 Q 2.3 279.9 3 282.5 L 2 285 L 0 284.5 L 0 0 Z "></path><path fill="rgb(0,0,0)" stroke="rgb(0,0,0)" stroke-width="1" opacity="0" d="M 250 0 L 400 0 L 400 268 L 396 268 Q 397 265 394 266 L 394 262 L 392 262 L 392 260 L 388 258 L 388 254 Q 385.3 255.1 386 252.5 L 385 248 L 381 247 L 381 243 L 379 243 L 379 239.5 Q 375.8 240.3 377 235 L 373 233 L 373 229 L 371 229 L 371 227 L 369 227 L 369 225 L 365 223 L 365 220 Q 362 221 363 218 L 360 218 L 360 216 L 358 216 L 358 214 L 356 214 L 356 212 L 352 210 L 352 206 L 350 206 Q 351.7 200.8 348 202 L 348 197 L 346 197 L 346 191 Q 342.3 192.2 344 187 L 340 185 L 340 181 L 338 181 L 338 177 L 336 177 L 336 173 L 334.5 173 Q 332 171.8 333 168 L 331 168 Q 332.3 162.7 329 163.5 L 329 127.5 L 327 127 L 327 121 L 325 121 Q 326.3 116.9 323 118 L 323 114.5 Q 319.8 115.3 321 110 L 319 110 L 319 108 L 317 108 L 315 104 Q 309.7 105.3 310.5 102 L 306 102 L 306 100 L 298.5 100 L 297.5 98 L 290.5 98 Q 291.5 94.5 284.5 96 L 283.5 95 L 273 95 L 273 93 L 265 93 L 265 91 L 259 91 L 259 89 Q 252.7 90.5 253.5 87 L 248 87 L 248 85 Q 251.7 86.2 250 81 L 246 81 Q 247 78 244 79 Q 245.3 73.7 242 74.5 L 242 68 L 244 68 L 244 66 L 248 64 Q 246.8 58.7 250 59.5 L 250 54 L 254 52 L 254 48 L 258 46 L 258 37.5 Q 260.8 35.7 259 29.5 L 258 28.5 L 258 19 L 256 19 L 256 14 L 254 14 Q 255.7 8.8 252 10 L 252 2.5 Q 249.3 3.1 250 0 Z "></path><path fill="rgb(0,0,0)" stroke="rgb(0,0,0)" stroke-width="1" opacity="0" d="M 130 181 L 134 183 Q 132.3 188.2 136 187 L 136 193 L 138 193 L 138 198 L 140 198 Q 138.3 203.2 142 202 L 142 207.5 L 144 208 L 144 214 L 146 214 L 146 220 L 148 220 L 148 225 L 150 225 L 150 239 L 148 239 L 148 245 L 146 245 L 146 250 L 144 250 L 144 256 L 142 256 L 142 262 L 140 262 L 140 268 L 138 268.5 L 138 274 L 136 274 Q 137.3 278.1 134 277 L 134 283 L 132 283 L 132 289 L 130 289 L 130 299.5 L 129 300.5 L 129 320 L 127 320 L 127 326.5 L 125 327.5 L 125 338.5 L 123 339.5 L 123 376 L 125 376.5 L 125 384.5 L 127 385.5 L 127 392.5 L 129 393.5 L 129 400 L 0 400 L 0 331 Q 3 332 2 329 L 5 329 L 5 325 L 6.5 325 L 9 324 Q 8 321 11 322 L 11 318 L 13 318 L 13 314 L 15 314 L 15 310 L 17 310 L 17 306 L 19 306 L 19 304 L 21 304 L 21 302 L 23 302 Q 21.9 299.3 24.5 300 L 28 299 L 30 295 L 34 295 L 34 293 L 36 293 L 38 289 L 42 289 L 42 287 L 44 287 L 44 285 L 48 283 L 48 281 L 52 281 L 52 279.5 L 53 277 L 55 277 Q 53.9 274.3 56.5 275 L 59 274 L 61 270 L 65 270 L 65 268 L 67 268 L 67 266 L 69 266 L 69 264 L 71 264 L 71 262 L 73 262 L 73 260 L 75 260 L 75 258 L 77 258 L 77 256 Q 79.7 257.1 79 254.5 L 80 252 L 82 252 L 82 250 L 86 248 L 86 245 L 88 245 L 88 243 L 90 243 L 90 241 L 92 241 L 92 239 L 96 237 L 96 233 L 98 233 L 98 231 L 100 231 L 100 229 L 102 229 L 102 227 Q 104.7 228.1 104 225.5 L 105 223 L 109 222 Q 108 219 111 220 L 111 216 L 113 216 L 113 212 L 115 212 L 115 208 L 119 206 L 119 202 L 121 202 L 121 198 L 122.5 198 L 125 197 L 125 193 L 127 193 Q 125.8 187.7 129 188.5 L 129 185.5 L 130 181 Z "></path><path fill="rgb(0,0,0)" stroke="rgb(0,0,0)" stroke-width="1" opacity="0" d="M 286 185 L 290 185 Q 289 188 292 187 L 292 191 L 296 193 L 296 197 L 298 197 Q 296.7 201.1 300 200 L 300 204 L 302 204 L 302 207.5 Q 305.3 206.7 304 212 L 308 214 L 308 217.5 L 309 220 L 311 220 Q 309.7 224.1 313 223 L 313 227 L 315 227 L 315 229 L 317 229 L 317 231 L 321 233 L 321 237 L 323 237 L 323 239 L 325 239 L 325 241 L 327 241 L 327 243 L 329 243 L 329 245 L 333 247 L 333 249.5 L 334 252 L 336 252 L 336 254 L 338 254 L 338 256 L 340 256 L 340 258 L 342 258 L 344 262 L 346 262 L 346 264 L 350 264 L 350 266 L 352 266 L 352 268 L 354 268 L 354 270 L 356 270 L 358 274 L 360.5 274 L 363 275 L 363 277 L 365 277 L 365 279 L 367 279 L 369 283 L 373 283 L 373 285 L 375 285 L 377 289 L 381 289 L 381 291 L 383 291 L 385 295 L 388 295 L 388 297 L 390 297 Q 388.9 299.7 391.5 299 L 394 300 L 394 302 L 396 302 L 396 304 L 398 304 Q 397.3 307.1 400 306.5 L 400 400 L 309.5 400 L 309 399.5 L 309 393 L 311 393 L 311 385.5 L 313 384.5 L 313 377.5 L 315 376.5 L 315 368.5 L 317 367.5 L 317 343 L 315 342.5 L 315 331.5 Q 311.8 332.4 313 324.5 L 311 323.5 L 311 306.5 L 309 305.5 L 309 297.5 L 308 296.5 L 308 289 L 306 289 Q 307.3 283.7 304 284.5 L 304 279 L 302 279 L 302 275 L 300 275 Q 301.3 270.9 298 272 L 298 268 L 296 268 L 296 264 L 294 264 L 294 260 L 292 260 L 292 256 L 290 256 L 290 252 L 288 252 L 288 248 L 286 248 L 286 245 Q 283.3 246.1 284 243.5 L 283 239 L 281 239 Q 282.3 233.7 279 234.5 L 279 220 L 281 220 L 281 212.5 L 283 211.5 L 283 202.5 L 284 201.5 L 284 195 L 286 194.5 L 286 185 Z "></path><path fill="rgb(0,0,0)" stroke="rgb(0,0,0)" stroke-width="1" opacity="0" d="M 217.5 351 Q 222.9 350.4 223 351.5 L 223 400 L 217 399.5 L 219 399 L 219 352.5 L 217.5 352 L 217.5 351 Z "></path><path fill="rgb(5,242,251)" stroke="rgb(5,242,251)" stroke-width="1" opacity="0.984313725490196" d="M 163 0 L 248 0 Q 246.8 5.3 250 4.5 L 250 10 L 252 10 Q 250.7 15.3 254 14.5 L 254 19 L 256 19.5 L 256 28.5 L 258 29.5 L 258 37 L 256 37.5 L 256 46 L 252 48 L 252 52 L 248 52 L 248 59.5 Q 244.8 58.7 246 64 L 244 64 L 244 66 L 240 68 L 240 75 L 242 75 L 242 78.5 Q 245.3 77.7 244 83 L 240 81 L 240 75 L 238 74.5 L 238 68 L 242 66 L 242 60 Q 239 59 240 62 L 236 62 L 236 64 L 232 64 L 232 67.5 Q 230.8 70 227 69 L 227 71 L 221 71 L 221 73 L 215 73 L 214.5 75 L 207 75 L 207 73 L 196.5 73 L 196 71 Q 190.7 72.3 191.5 69 L 188.5 69 L 186 68 L 186 66 L 181.5 66 Q 182.3 62.8 177 64 L 177 56.5 Q 173.8 57.3 175 52 L 173 52 L 173 48 Q 170 49 171 46 L 167 46 Q 168.1 43.3 165.5 44 L 161.5 43 L 161.5 44 Q 164.1 43.3 163 46 L 165 46 L 165 48 L 169 48 Q 168 51 171 50 L 171 60 L 173 60 L 173 64 L 175 64 L 175 66 L 177 66 Q 176.3 69.1 179 68.5 L 179 81 Q 176 80 177 83 L 173 83 Q 172.3 79.9 175 80.5 L 175 68 Q 171.3 69.2 173 64 L 169 62 L 169 58.5 Q 165.8 59.3 167 54 L 165 54 L 165 52 L 163 52 L 163 50 L 161 50 L 161 48 L 159 48 L 157 44 L 155 44 L 155 41.5 L 154 37 L 152 37 L 152 31 Q 155.3 32.3 154 27.5 L 155 26.5 L 155 16 L 157 15.5 L 157 8 L 159 8 L 159 4 L 161 4 L 163 0 Z M 242 54 L 242 60 L 244 60 L 244 54 L 242 54 Z "></path><path fill="rgb(5,242,251)" stroke="rgb(5,242,251)" stroke-width="1" opacity="0.984313725490196" d="M 286 98 Q 289 97 288 100 Q 285 101 286 98 Z "></path><path fill="rgb(5,242,251)" stroke="rgb(5,242,251)" stroke-width="1" opacity="0.984313725490196" d="M 140 100 Q 143 99 142 102 L 146 102 L 146 104 L 148 104 L 148 106 L 150 106 L 150 108 L 154 110 L 154 113.5 L 155 120 L 157 120.5 L 157 127 Q 153 125.6 155 132.5 L 154 135 Q 150.3 133.8 152 139 L 150 139 L 150 141 L 146 143 L 146 141 L 150 139 L 150 135 L 154 133 L 154 127.5 Q 156.5 126 155 120.5 L 154 114 Q 150.3 115.2 152 110 L 150 110 L 150 108 L 148 108 L 146 104 L 142 104 L 140 100 Z "></path><path fill="rgb(5,242,251)" stroke="rgb(5,242,251)" stroke-width="1" opacity="0.984313725490196" d="M 279 102 Q 282 101 281 104 Q 278 103 279 106 L 275 106 L 275 108 L 271 110 L 271 114 L 269 114 Q 270.7 119.2 267 118 L 267 131 L 269 131 L 269 135 L 273 137 L 273 141 Q 276 140 275 143 L 271 141 L 271 137 L 267 135 Q 268.7 129.8 265 131 L 265 118 L 267 118 L 267 114.5 Q 270.3 115.3 269 110 L 271 110 L 271 108 L 273 108 L 275 104 L 279 104 L 279 102 Z "></path><path fill="rgb(5,242,251)" stroke="rgb(5,242,251)" stroke-width="1" opacity="0.984313725490196" d="M 142 143 Q 145 142 144 145 L 140 146 L 140 148 L 136 148 Q 137 151 134 150 L 136 146 L 139.5 146 L 142 145 L 142 143 Z "></path><path fill="rgb(5,242,251)" stroke="rgb(5,242,251)" stroke-width="1" opacity="0.984313725490196" d="M 277 143 L 279 143 Q 277.9 145.7 280.5 145 L 283 146 Q 284 149 281 148 Q 282.1 145.3 279.5 146 L 277 145 L 277 143 Z "></path><path fill="rgb(5,242,251)" stroke="rgb(5,242,251)" stroke-width="1" opacity="0.984313725490196" d="M 284 148 Q 287 147 286 150 L 290 150 Q 289 153 292 152 L 292 172 L 290 171.5 L 290 152.5 L 286 152 L 284 148 Z "></path><path fill="rgb(5,242,251)" stroke="rgb(5,242,251)" stroke-width="1" opacity="0.984313725490196" d="M 130 150 L 132 150 L 132 156 L 130 156 L 130 150 Z "></path><path fill="rgb(5,242,251)" stroke="rgb(5,242,251)" stroke-width="1" opacity="0.984313725490196" d="M 130 162 L 132 162.5 L 132 177 L 130 176.5 L 130 162 Z "></path><path fill="rgb(5,242,251)" stroke="rgb(5,242,251)" stroke-width="1" opacity="0.984313725490196" d="M 288 173 L 290 173.5 L 290 181 L 288 180.5 L 288 173 Z "></path><path fill="rgb(5,242,251)" stroke="rgb(5,242,251)" stroke-width="1" opacity="0.984313725490196" d="M 304 210 Q 307 209 306 212 Q 303 213 304 210 Z "></path><path fill="rgb(5,242,251)" stroke="rgb(5,242,251)" stroke-width="1" opacity="0.984313725490196" d="M 138 316 Q 143.2 314.3 142 318 Q 136.8 319.7 138 316 Z "></path><path fill="rgb(5,242,251)" stroke="rgb(5,242,251)" stroke-width="1" opacity="0.984313725490196" d="M 296 316 Q 301.2 314.3 300 318 Q 294.8 319.7 296 316 Z "></path><path fill="rgb(5,242,251)" stroke="rgb(5,242,251)" stroke-width="1" opacity="0.984313725490196" d="M 148 318 Q 153.2 316.3 152 320 Q 146.8 321.7 148 318 Z "></path><path fill="rgb(5,242,251)" stroke="rgb(5,242,251)" stroke-width="1" opacity="0.984313725490196" d="M 286 318 Q 291.2 316.3 290 320 Q 284.8 321.7 286 318 Z "></path><path fill="rgb(5,242,251)" stroke="rgb(5,242,251)" stroke-width="1" opacity="0.984313725490196" d="M 155 320 Q 160.2 318.3 159 322 Q 153.8 323.7 155 320 Z "></path><path fill="rgb(5,242,251)" stroke="rgb(5,242,251)" stroke-width="1" opacity="0.984313725490196" d="M 279 320 Q 284.2 318.3 283 322 Q 277.8 323.7 279 320 Z "></path><path fill="rgb(5,242,251)" stroke="rgb(5,242,251)" stroke-width="1" opacity="0.984313725490196" d="M 163 322 Q 166 321 165 324 Q 162 325 163 322 Z "></path><path fill="rgb(5,242,251)" stroke="rgb(5,242,251)" stroke-width="1" opacity="0.984313725490196" d="M 273 322 Q 278.2 320.3 277 324 Q 271.8 325.7 273 322 Z "></path><path fill="rgb(5,242,251)" stroke="rgb(5,242,251)" stroke-width="1" opacity="0.984313725490196" d="M 173 325 Q 178.2 323.3 177 327 Q 171.8 328.7 173 325 Z "></path><path fill="rgb(5,242,251)" stroke="rgb(5,242,251)" stroke-width="1" opacity="0.984313725490196" d="M 261 325 Q 266.2 323.3 265 327 Q 259.8 328.7 261 325 Z "></path><path fill="rgb(5,242,251)" stroke="rgb(5,242,251)" stroke-width="1" opacity="0.984313725490196" d="M 179 327 Q 182 326 181 329 Q 178 330 179 327 Z "></path><path fill="rgb(5,242,251)" stroke="rgb(5,242,251)" stroke-width="1" opacity="0.984313725490196" d="M 182 329 L 185.5 329 Q 184.7 332.3 190 331 L 192 335 Q 189 336 190 333 L 186 333 L 186 331 L 182 331 L 182 329 Z "></path><path fill="rgb(5,242,251)" stroke="rgb(5,242,251)" stroke-width="1" opacity="0.984313725490196" d="M 254 329 Q 257 328 256 331 Q 253 332 254 329 Z "></path><path fill="rgb(5,242,251)" stroke="rgb(5,242,251)" stroke-width="1" opacity="0.984313725490196" d="M 250 331 Q 253 330 252 333 Q 249 334 250 331 Z "></path><path fill="rgb(5,242,251)" stroke="rgb(5,242,251)" stroke-width="1" opacity="0.984313725490196" d="M 246 333 Q 249 332 248 335 Q 245 336 246 333 Z "></path><path fill="rgb(5,242,251)" stroke="rgb(5,242,251)" stroke-width="1" opacity="0.984313725490196" d="M 194 335 Q 197 334 196 337 Q 193 338 194 335 Z "></path><path fill="rgb(5,242,251)" stroke="rgb(5,242,251)" stroke-width="1" opacity="0.984313725490196" d="M 242 335 Q 245 334 244 337 Q 241 336 242 339 L 238 339 Q 239 342 236 341 L 238 337 Q 243.2 338.7 242 335 Z "></path><path fill="rgb(5,242,251)" stroke="rgb(5,242,251)" stroke-width="1" opacity="0.984313725490196" d="M 198 337 L 200 337 L 202 341 L 200 341 L 198 337 Z "></path><path fill="rgb(5,242,251)" stroke="rgb(5,242,251)" stroke-width="1" opacity="0.984313725490196" d="M 204 341 Q 206.7 339.9 206 342.5 L 207 344.5 L 206 344.5 Q 206.7 341.9 204 343 L 204 341 Z "></path><path fill="rgb(5,242,251)" stroke="rgb(5,242,251)" stroke-width="1" opacity="0.984313725490196" d="M 232 341 Q 235 340 234 343 Q 231.3 341.9 232 344.5 L 231 347 L 227 347 Q 228 350 225 349 L 227 345 L 231 345 L 231 343.5 L 232 341 Z "></path><path fill="rgb(5,242,251)" stroke="rgb(5,242,251)" stroke-width="1" opacity="0.984313725490196" d="M 209 345 L 211 345 L 211 347 L 213 347 L 215 351 L 213 351 L 213 349 L 211 349 L 209 345 Z "></path><path fill="rgb(243,51,27)" stroke="rgb(243,51,27)" stroke-width="1" opacity="0.9803921568627451" d="M 165 44 L 167 44 L 169 48 L 167 48 L 165 44 Z "></path><path fill="rgb(243,51,27)" stroke="rgb(243,51,27)" stroke-width="1" opacity="0.9803921568627451" d="M 130 316 Q 133.1 315.3 132.5 318 L 143.5 318 L 144.5 320 L 153.5 320 Q 152.7 323.5 159 322 L 159 324 L 164.5 324 L 171 325 L 171 327 Q 176.2 325.3 175 329 L 181 329 L 181 331 Q 185.1 329.7 184 333 L 188 333 L 188 335 L 191.5 335 Q 190.7 338.2 196 337 L 198 341 L 202 341 L 202 343 Q 205 342 204 345 L 207 345 L 209 349 L 213 349 Q 211.9 351.7 214.5 351 L 217 352 L 217 361.5 L 219 362.5 L 219 377 L 217 377.5 L 217 399.5 L 216.5 400 L 130 400 L 129 385 L 127 385 L 127 377.5 L 125 376.5 L 125 366.5 L 123 365.5 L 123 351 Q 126 352 125 349 Q 122 350 123 347 L 125 346.5 L 125 337.5 L 127 336.5 L 127 327.5 L 129 326.5 L 129 318.5 L 130 316 Z "></path><path fill="rgb(243,51,27)" stroke="rgb(243,51,27)" stroke-width="1" opacity="0.9803921568627451" d="M 306 316 L 309 316 Q 307.3 321.2 311 320 L 311 330.5 L 313 331 L 313 340.5 L 315 341.5 L 315 368 L 313 368.5 L 313 376.5 L 311 377.5 L 311 386.5 Q 307.5 385.5 309 392.5 L 308 393.5 L 308 400 L 225 400 Q 226 395.8 223 396.5 L 223 358 L 225 357.5 L 225 351 L 227 351 L 229 347 L 232 347 L 232 345 L 234 345 L 236 341 L 239.5 341 Q 238.7 337.8 244 339 L 246 335 L 250 335 L 250 333 L 253.5 333 Q 252.7 329.8 258 331 L 258 329 Q 262.1 330.3 261 327 L 267 327 L 267.5 325 L 272.5 325 L 279 324 L 279 322 L 285.5 322 L 286.5 320 Q 295.3 321.4 294.5 318 L 305.5 318 L 306 316 Z "></path><path fill="rgb(110,44,140)" stroke="rgb(110,44,140)" stroke-width="1" opacity="0.9921568627450981" d="M 175 83 Q 178.7 81.8 177 87 L 173 89 Q 172 86 175 87 L 175 83 Z "></path><path fill="rgb(110,44,140)" stroke="rgb(110,44,140)" stroke-width="1" opacity="0.9921568627450981" d="M 246 87 Q 251.2 85.3 250 89 Q 244.8 90.7 246 87 Z "></path><path fill="rgb(110,44,140)" stroke="rgb(110,44,140)" stroke-width="1" opacity="0.9921568627450981" d="M 167 89 Q 172.2 87.3 171 91 Q 165.8 92.7 167 89 Z "></path><path fill="rgb(110,44,140)" stroke="rgb(110,44,140)" stroke-width="1" opacity="0.9921568627450981" d="M 252 89 Q 257.2 87.3 256 91 Q 250.8 92.7 252 89 Z "></path><path fill="rgb(110,44,140)" stroke="rgb(110,44,140)" stroke-width="1" opacity="0.9921568627450981" d="M 163 91 Q 166 90 165 93 Q 162 94 163 91 Z "></path><path fill="rgb(110,44,140)" stroke="rgb(110,44,140)" stroke-width="1" opacity="0.9921568627450981" d="M 157 93 Q 160 92 159 95 Q 156 96 157 93 Z "></path><path fill="rgb(110,44,140)" stroke="rgb(110,44,140)" stroke-width="1" opacity="0.9921568627450981" d="M 263 93 Q 266 92 265 95 Q 262 96 263 93 Z "></path><path fill="rgb(110,44,140)" stroke="rgb(110,44,140)" stroke-width="1" opacity="0.9921568627450981" d="M 152.5 95 L 155 95.5 L 152.5 96 L 152.5 95 Z "></path><path fill="rgb(110,44,140)" stroke="rgb(110,44,140)" stroke-width="1" opacity="0.9921568627450981" d="M 269.5 95 L 275 95.5 L 269.5 96 L 269.5 95 Z "></path><path fill="rgb(110,44,140)" stroke="rgb(110,44,140)" stroke-width="1" opacity="0.9921568627450981" d="M 144 96 Q 149.2 94.3 148 98 Q 142.8 99.7 144 96 Z "></path><path fill="rgb(110,44,140)" stroke="rgb(110,44,140)" stroke-width="1" opacity="0.9921568627450981" d="M 281 96 L 286 96 L 286 98 L 281 98 L 281 96 Z "></path><path fill="rgb(110,44,140)" stroke="rgb(110,44,140)" stroke-width="1" opacity="0.9921568627450981" d="M 92 137 Q 95 136 94 139 Q 91 140 92 137 Z "></path><path fill="rgb(110,44,140)" stroke="rgb(110,44,140)" stroke-width="1" opacity="0.9921568627450981" d="M 336 179 Q 339 178 338 181 Q 335 182 336 179 Z "></path><path fill="rgb(110,44,140)" stroke="rgb(110,44,140)" stroke-width="1" opacity="0.9921568627450981" d="M 284 183 Q 287.7 181.8 286 187 Q 282.3 188.2 284 183 Z "></path><path fill="rgb(110,44,140)" stroke="rgb(110,44,140)" stroke-width="1" opacity="0.9921568627450981" d="M 127 185 Q 130 184 129 187 Q 126 188 127 185 Z "></path><path fill="rgb(110,44,140)" stroke="rgb(110,44,140)" stroke-width="1" opacity="0.9921568627450981" d="M 136 185 Q 139.7 183.8 138 189 Q 134.3 190.2 136 185 Z "></path><path fill="rgb(110,44,140)" stroke="rgb(110,44,140)" stroke-width="1" opacity="0.9921568627450981" d="M 138 191 Q 141.7 189.8 140 195 Q 136.3 196.2 138 191 Z "></path><path fill="rgb(110,44,140)" stroke="rgb(110,44,140)" stroke-width="1" opacity="0.9921568627450981" d="M 283.5 191 L 284 194.5 L 283 194.5 L 283.5 191 Z "></path><path fill="rgb(110,44,140)" stroke="rgb(110,44,140)" stroke-width="1" opacity="0.9921568627450981" d="M 281 198 L 283 198 L 283 204 L 281 204 L 281 198 Z "></path><path fill="rgb(110,44,140)" stroke="rgb(110,44,140)" stroke-width="1" opacity="0.9921568627450981" d="M 142 200 L 144 200 L 144 203.5 Q 147.3 202.7 146 208 L 144 208 L 144 204.5 Q 140.8 205.3 142 200 Z "></path><path fill="rgb(110,44,140)" stroke="rgb(110,44,140)" stroke-width="1" opacity="0.9921568627450981" d="M 281 206 Q 284 205 283 208 L 281 208 L 281 214 L 279 214 L 279 208.5 Q 281.8 209.1 281 206 Z "></path><path fill="rgb(110,44,140)" stroke="rgb(110,44,140)" stroke-width="1" opacity="0.9921568627450981" d="M 350 208 Q 353 207 352 210 Q 349 211 350 208 Z "></path><path fill="rgb(110,44,140)" stroke="rgb(110,44,140)" stroke-width="1" opacity="0.9921568627450981" d="M 146 210 Q 149.7 208.8 148 214 Q 144.3 215.2 146 210 Z "></path><path fill="rgb(110,44,140)" stroke="rgb(110,44,140)" stroke-width="1" opacity="0.9921568627450981" d="M 148 216 Q 151.7 214.8 150 220 Q 146.3 221.2 148 216 Z "></path><path fill="rgb(110,44,140)" stroke="rgb(110,44,140)" stroke-width="1" opacity="0.9921568627450981" d="M 277 216 L 279 216 L 281 220 L 279 220.5 L 279 236.5 L 277 237 L 277 216 Z "></path><path fill="rgb(110,44,140)" stroke="rgb(110,44,140)" stroke-width="1" opacity="0.9921568627450981" d="M 150 222 L 152 222.5 L 152 241 L 150 240.5 L 150 222 Z "></path><path fill="rgb(110,44,140)" stroke="rgb(110,44,140)" stroke-width="1" opacity="0.9921568627450981" d="M 279 239 Q 282 238 281 241 Q 278 242 279 239 Z "></path><path fill="rgb(110,44,140)" stroke="rgb(110,44,140)" stroke-width="1" opacity="0.9921568627450981" d="M 377 241 Q 380 240 379 243 Q 376 244 377 241 Z "></path><path fill="rgb(110,44,140)" stroke="rgb(110,44,140)" stroke-width="1" opacity="0.9921568627450981" d="M 281 243 Q 283.7 241.9 283 244.5 L 284 246.5 L 283 246.5 Q 283.7 243.9 281 245 L 281 243 Z "></path><path fill="rgb(110,44,140)" stroke="rgb(110,44,140)" stroke-width="1" opacity="0.9921568627450981" d="M 148 245 Q 151.3 243.9 150 248 Q 146.7 249.1 148 245 Z "></path><path fill="rgb(110,44,140)" stroke="rgb(110,44,140)" stroke-width="1" opacity="0.9921568627450981" d="M 284 248 Q 287 247 286 250 Q 283 251 284 248 Z "></path><path fill="rgb(110,44,140)" stroke="rgb(110,44,140)" stroke-width="1" opacity="0.9921568627450981" d="M 334 248 Q 337 247 336 250 Q 333 251 334 248 Z "></path><path fill="rgb(110,44,140)" stroke="rgb(110,44,140)" stroke-width="1" opacity="0.9921568627450981" d="M 146 250 Q 149 249 148 252 Q 145 253 146 250 Z "></path><path fill="rgb(110,44,140)" stroke="rgb(110,44,140)" stroke-width="1" opacity="0.9921568627450981" d="M 286 252 Q 289 251 288 254 Q 285 255 286 252 Z "></path><path fill="rgb(110,44,140)" stroke="rgb(110,44,140)" stroke-width="1" opacity="0.9921568627450981" d="M 144 254 Q 147.7 252.8 146 258 Q 142.3 259.2 144 254 Z "></path><path fill="rgb(110,44,140)" stroke="rgb(110,44,140)" stroke-width="1" opacity="0.9921568627450981" d="M 288 256 Q 291 255 290 258 Q 287 259 288 256 Z "></path><path fill="rgb(110,44,140)" stroke="rgb(110,44,140)" stroke-width="1" opacity="0.9921568627450981" d="M 142 260 Q 145.7 258.8 144 264 Q 140.3 265.2 142 260 Z "></path><path fill="rgb(110,44,140)" stroke="rgb(110,44,140)" stroke-width="1" opacity="0.9921568627450981" d="M 290 260 Q 293 259 292 262 Q 289 263 290 260 Z "></path><path fill="rgb(110,44,140)" stroke="rgb(110,44,140)" stroke-width="1" opacity="0.9921568627450981" d="M 25 262 Q 28 261 27 264 Q 24 265 25 262 Z "></path><path fill="rgb(110,44,140)" stroke="rgb(110,44,140)" stroke-width="1" opacity="0.9921568627450981" d="M 292 264 Q 295 263 294 266 Q 291 267 292 264 Z "></path><path fill="rgb(110,44,140)" stroke="rgb(110,44,140)" stroke-width="1" opacity="0.9921568627450981" d="M 392 264 Q 395 263 394 266 Q 391 267 392 264 Z "></path><path fill="rgb(110,44,140)" stroke="rgb(110,44,140)" stroke-width="1" opacity="0.9921568627450981" d="M 140 266 Q 143.7 264.8 142 270 Q 138.3 271.2 140 266 Z "></path><path fill="rgb(110,44,140)" stroke="rgb(110,44,140)" stroke-width="1" opacity="0.9921568627450981" d="M 294 268 Q 297 267 296 270 Q 293 271 294 268 Z "></path><path fill="rgb(110,44,140)" stroke="rgb(110,44,140)" stroke-width="1" opacity="0.9921568627450981" d="M 138 272 Q 141.3 270.9 140 275 Q 136.7 276.1 138 272 Z "></path><path fill="rgb(110,44,140)" stroke="rgb(110,44,140)" stroke-width="1" opacity="0.9921568627450981" d="M 296 272 Q 299 271 298 274 Q 295 275 296 272 Z "></path><path fill="rgb(110,44,140)" stroke="rgb(110,44,140)" stroke-width="1" opacity="0.9921568627450981" d="M 298 275 Q 301 274 300 277 Q 297 278 298 275 Z "></path><path fill="rgb(110,44,140)" stroke="rgb(110,44,140)" stroke-width="1" opacity="0.9921568627450981" d="M 136 277 Q 139.7 275.8 138 281 Q 134.3 282.2 136 277 Z "></path><path fill="rgb(110,44,140)" stroke="rgb(110,44,140)" stroke-width="1" opacity="0.9921568627450981" d="M 300 279 Q 303 278 302 281 Q 299 282 300 279 Z "></path><path fill="rgb(110,44,140)" stroke="rgb(110,44,140)" stroke-width="1" opacity="0.9921568627450981" d="M 3 283 Q 6 282 5 285 Q 2 286 3 283 Z "></path><path fill="rgb(110,44,140)" stroke="rgb(110,44,140)" stroke-width="1" opacity="0.9921568627450981" d="M 134 283 Q 137.7 281.8 136 287 Q 132.3 288.2 134 283 Z "></path><path fill="rgb(110,44,140)" stroke="rgb(110,44,140)" stroke-width="1" opacity="0.9921568627450981" d="M 302 283 Q 305.7 281.8 304 287 Q 300.3 288.2 302 283 Z "></path><path fill="rgb(110,44,140)" stroke="rgb(110,44,140)" stroke-width="1" opacity="0.9921568627450981" d="M 379 287 Q 382 286 381 289 Q 378 290 379 287 Z "></path><path fill="rgb(110,44,140)" stroke="rgb(110,44,140)" stroke-width="1" opacity="0.9921568627450981" d="M 132 289 Q 135.7 287.8 134 293 Q 130.3 294.2 132 289 Z "></path><path fill="rgb(110,44,140)" stroke="rgb(110,44,140)" stroke-width="1" opacity="0.9921568627450981" d="M 304 289 Q 307.7 287.8 306 293 Q 302.3 294.2 304 289 Z "></path><path fill="rgb(110,44,140)" stroke="rgb(110,44,140)" stroke-width="1" opacity="0.9921568627450981" d="M 306 295 Q 309.7 293.8 308 299 Q 304.3 300.2 306 295 Z "></path><path fill="rgb(110,44,140)" stroke="rgb(110,44,140)" stroke-width="1" opacity="0.9921568627450981" d="M 25 297 Q 28 296 27 299 Q 24 300 25 297 Z "></path><path fill="rgb(110,44,140)" stroke="rgb(110,44,140)" stroke-width="1" opacity="0.9921568627450981" d="M 130 297 L 132 297.5 L 132 314 L 130 313.5 L 130 297 Z "></path><path fill="rgb(110,44,140)" stroke="rgb(110,44,140)" stroke-width="1" opacity="0.9921568627450981" d="M 308.5 302 L 309 308 Q 312.7 306.8 311 312 Q 308.3 310.9 309 313.5 L 308 313.5 L 308.5 302 Z "></path><path fill="rgb(5,137,83)" stroke="rgb(5,137,83)" stroke-width="1" opacity="0.984313725490196" d="M 173 62 L 175 62 L 175 64 L 177 64 L 179 68 L 177 68 L 177 66 L 175 66 L 173 62 Z "></path><path fill="rgb(5,137,83)" stroke="rgb(5,137,83)" stroke-width="1" opacity="0.984313725490196" d="M 236 62 Q 239 61 238 64 Q 235 65 236 62 Z "></path><path fill="rgb(5,137,83)" stroke="rgb(5,137,83)" stroke-width="1" opacity="0.984313725490196" d="M 232 64 Q 235 63 234 66 Q 231 67 232 64 Z "></path><path fill="rgb(5,137,83)" stroke="rgb(5,137,83)" stroke-width="1" opacity="0.984313725490196" d="M 240 64 Q 243 63 242 66 Q 239 67 240 64 Z "></path><path fill="rgb(5,137,83)" stroke="rgb(5,137,83)" stroke-width="1" opacity="0.984313725490196" d="M 132 98 L 136 100 L 136 104 L 121.5 104 L 121 102 L 127 102 L 127 100 L 132 100 L 132 98 Z "></path><path fill="rgb(5,137,83)" stroke="rgb(5,137,83)" stroke-width="1" opacity="0.984313725490196" d="M 292 98 Q 295.1 97.3 294.5 100 L 300 100 L 300 102 L 306 102 L 306 104 L 311 104 L 311 106 L 315 106 L 315 108 L 317 108 L 317 110 L 321 112 L 321 118 L 323 118 Q 321.7 122.1 325 121 L 325 127 L 327 127 L 327 133 L 329 133.5 L 329 148 L 327 148.5 L 327 164 L 329 164 L 329 168 L 331 168 L 331 172 L 332.5 172 Q 335 173.2 334 177 L 336 177 L 336 181 L 340 183 L 340 187 L 342 187 Q 340.3 192.2 344 191 L 344 197 L 346 197 Q 344.7 201.1 348 200 L 348 205.5 Q 351.3 204.7 350 210 L 352 210 L 352 212 L 354 212 L 354 214 L 356 214 L 356 216 L 358 216 L 358 218 Q 360.7 216.9 360 219.5 L 361 222 L 365 223 L 365 225 L 367 225 L 367 227 L 371 229 L 371 233 L 375 235 L 375 238.5 Q 378.3 237.7 377 243 L 381 245 L 381 248 L 383 248 L 383 252 Q 385.7 250.9 385 253.5 L 386 258 L 388 258 L 388 260 L 392 262 L 392 266 L 394 266 L 396 270 L 400 270.5 L 400 304 L 398 304 L 398 302 L 396 302 Q 397.1 299.3 394.5 300 L 392 299 L 392 297 L 390 297 L 388 293 L 385 293 L 385 291 L 383 291 L 381 287 L 377 287 L 377 285 L 375 285 L 373 281 L 369 281 L 369 279 L 367 279 L 367 277 L 365 277 Q 366.1 274.3 363.5 275 L 361 274 L 361 272 L 358 272 L 358 270 L 356 270 L 356 268 L 354 268 L 354 266 L 352 266 L 350 262 L 346 262 L 346 260 L 344 260 L 344 258 L 342 258 L 342 256 L 340 256 L 338 252 L 336 252 L 336 248 L 334.5 248 L 333 245 L 331 245 L 331 243 L 329 243 L 329 241 L 327 241 L 327 239 L 323 237 L 323 233 L 321 233 L 321 231 L 319 231 L 319 229 L 315 227 L 315 223 L 313 223 L 313 220 L 309 218 L 309 214.5 L 308 212 L 306 212 L 306 208 L 304 208 L 304 204.5 Q 300.8 205.3 302 200 L 300 200 Q 301.3 195.9 298 197 L 298 193 L 294 191 L 294 187 L 292 187 L 292 183 Q 289 184 290 181 L 292 180.5 L 292 168.5 L 294 167.5 L 294 152 Q 291 153 292 150 L 288 150 L 286 146 L 283.5 146 L 281 145 Q 282.2 141.3 277 143 L 277 141 L 273 139 L 273 135 L 269 133 L 269 116 L 271 116 L 271 112 L 273 112 L 273 110 L 275 110 L 277 106 L 281 106 L 283 102 L 288 102 L 288 100 Q 293.2 101.7 292 98 Z "></path><path fill="rgb(5,137,83)" stroke="rgb(5,137,83)" stroke-width="1" opacity="0.984313725490196" d="M 138 102 Q 141 101 140 104 Q 137 105 138 102 Z "></path><path fill="rgb(5,137,83)" stroke="rgb(5,137,83)" stroke-width="1" opacity="0.984313725490196" d="M 115 104 Q 120.2 102.3 119 106 Q 113.8 107.7 115 104 Z "></path><path fill="rgb(5,137,83)" stroke="rgb(5,137,83)" stroke-width="1" opacity="0.984313725490196" d="M 142 104 L 144 104 L 144 106 L 146 106 L 146 108 L 148 108 L 148 110 L 152 112 L 152 118 L 154 118.5 L 154 129 L 152 129 Q 153.3 123.7 150 124.5 L 150 112 Q 147 113 148 110 L 144 110 L 144 106 Q 141 107 142 104 Z "></path><path fill="rgb(5,137,83)" stroke="rgb(5,137,83)" stroke-width="1" opacity="0.984313725490196" d="M 111 106 Q 114 105 113 108 L 109 110 L 109 114 L 104 114 L 105 110 Q 108 111 107 108 L 111 108 L 111 106 Z "></path><path fill="rgb(5,137,83)" stroke="rgb(5,137,83)" stroke-width="1" opacity="0.984313725490196" d="M 100 118 L 104 120 L 104 129 L 96 129 L 96 125 L 98 125 L 98 121 Q 101.3 122.1 100 118 Z "></path><path fill="rgb(5,137,83)" stroke="rgb(5,137,83)" stroke-width="1" opacity="0.984313725490196" d="M 94 131 L 96 131.5 L 96 139 L 94 139.5 L 94 154 L 96 154.5 L 96 166 L 94 166.5 L 94 175 L 86 175 Q 84.9 172.3 87.5 173 L 90 172 Q 88.8 166.7 92 167.5 L 92 139.5 L 94 138.5 L 94 131 Z "></path><path fill="rgb(5,137,83)" stroke="rgb(5,137,83)" stroke-width="1" opacity="0.984313725490196" d="M 150 131 Q 153 130 152 133 Q 149 134 150 131 Z "></path><path fill="rgb(5,137,83)" stroke="rgb(5,137,83)" stroke-width="1" opacity="0.984313725490196" d="M 142 135 L 149.5 135 L 150 137 L 148 137 L 148 139 L 146 139 L 146 141 L 142 143 L 142 135 Z "></path><path fill="rgb(5,137,83)" stroke="rgb(5,137,83)" stroke-width="1" opacity="0.984313725490196" d="M 127 150 Q 130 149 129 152 Q 126 153 127 150 Z "></path><path fill="rgb(5,137,83)" stroke="rgb(5,137,83)" stroke-width="1" opacity="0.984313725490196" d="M 127 154 L 129 154.5 L 129 166 L 127 165.5 L 127 154 Z "></path><path fill="rgb(5,137,83)" stroke="rgb(5,137,83)" stroke-width="1" opacity="0.984313725490196" d="M 127 170 Q 130.7 168.7 129 174.5 Q 131.3 175.7 130 180.5 L 129 185 L 127 185 L 127 191 L 123 193 L 123 197 L 121.5 197 L 119 198 L 119 193 Q 122 194 121 191 L 119 191 L 119 185 L 127 185 L 127 177.5 Q 129.8 178.1 129 175 L 127 175 L 127 170 Z "></path><path fill="rgb(5,137,83)" stroke="rgb(5,137,83)" stroke-width="1" opacity="0.984313725490196" d="M 84 177 Q 87 176 86 179 Q 83 178 84 181 Q 87 180 86 183 L 82 183 Q 83 186 80 185 Q 79 182 82 183 L 82 179 Q 85 180 84 177 Z "></path><path fill="rgb(5,137,83)" stroke="rgb(5,137,83)" stroke-width="1" opacity="0.984313725490196" d="M 79.5 187 L 80 190.5 L 79 197 L 73.5 198 L 73.5 197 L 75 197 L 75 193 L 77 193 L 77 189 Q 79.8 190 79.5 187 Z "></path><path fill="rgb(5,137,83)" stroke="rgb(5,137,83)" stroke-width="1" opacity="0.984313725490196" d="M 71 200 L 73 200 L 73 206 Q 67.8 207.7 69 204 Q 72.7 205.2 71 200 Z "></path><path fill="rgb(5,137,83)" stroke="rgb(5,137,83)" stroke-width="1" opacity="0.984313725490196" d="M 117 200 Q 120 199 119 202 Q 115.3 200.8 117 206 L 113 208 L 113 202 Q 118.2 203.7 117 200 Z "></path><path fill="rgb(5,137,83)" stroke="rgb(5,137,83)" stroke-width="1" opacity="0.984313725490196" d="M 67 208 Q 70 207 69 210 L 65 212 L 65 216 L 61 216 L 61 220 L 57 220 Q 58.1 222.7 55.5 222 L 53 223 L 52 229 L 50 229 L 50 231 L 46 233 L 46 237 Q 49.7 235.8 48 241 L 42 241 Q 43 244 40 243 L 40 248 Q 37 247 38 250 L 34 250 Q 32.9 247.3 35.5 248 L 38 247 L 38 243.5 Q 41.3 244.3 40 239 L 44 237 L 44 233 L 48 231 L 48 227 L 50 227 L 50 225 Q 52.7 226.1 52 223.5 L 55 222 L 55 220 L 57 220 L 57 218 L 59 218 L 59 216 L 61 216 L 61 214 L 63 214 L 63 212 L 67 210 L 67 208 Z "></path><path fill="rgb(5,137,83)" stroke="rgb(5,137,83)" stroke-width="1" opacity="0.984313725490196" d="M 111 210 Q 114 209 113 212 Q 110 213 111 210 Z "></path><path fill="rgb(5,137,83)" stroke="rgb(5,137,83)" stroke-width="1" opacity="0.984313725490196" d="M 109 214 Q 112 213 111 216 L 109 216 L 109 220 L 107 220 Q 108.1 222.7 105.5 222 L 104 222.5 L 105 216 Q 110.2 217.7 109 214 Z "></path><path fill="rgb(5,137,83)" stroke="rgb(5,137,83)" stroke-width="1" opacity="0.984313725490196" d="M 98 225 Q 103.2 223.3 102 227 L 100 227 L 100 229 L 98 229 L 98 231 L 94 233 L 94 237 L 92 237 L 92 239 L 90 239 L 90 241 L 88 241 L 88 243 L 84 245 L 84 248 L 82 248 L 82 250 Q 79.3 248.9 80 251.5 L 79 254 L 77 254 L 77 256 L 75 256 L 75 258 L 73 258 L 73 260 L 71 260 L 71 262 L 69 262 L 69 264 L 67 264 L 67 266 L 63 268 Q 62 265 65 266 L 65 262 L 69 262 L 69 260 L 73 258 L 73 254.5 Q 76.3 255.3 75 250 L 80 250 Q 78.7 245.9 82 247 L 82 243 L 86 243 Q 85 240 88 241 L 88 235.5 Q 91.2 236.3 90 231 L 96 231 L 96 227 Q 99 228 98 225 Z "></path><path fill="rgb(5,137,83)" stroke="rgb(5,137,83)" stroke-width="1" opacity="0.984313725490196" d="M 32 252 Q 35 251 34 254 L 30 256 L 32 252 Z "></path><path fill="rgb(5,137,83)" stroke="rgb(5,137,83)" stroke-width="1" opacity="0.984313725490196" d="M 28 258 L 30 258 L 30 260 L 32 260 L 34 264 Q 30.9 263.3 31.5 266 L 25 266 L 25 270 L 21 270 Q 22 273 19 272 L 19 270 L 21 270 L 21 268 L 23 268 L 23 266 L 27 264 L 27 260.5 L 28 258 Z "></path><path fill="rgb(5,137,83)" stroke="rgb(5,137,83)" stroke-width="1" opacity="0.984313725490196" d="M 57 268 Q 62.2 266.3 61 270 L 59 270 L 59 272 L 57 272 Q 58.1 274.7 55.5 274 L 53 275 L 52 279 Q 48.3 280.2 50 275 L 55 274 Q 54 271 57 272 L 57 268 Z "></path><path fill="rgb(5,137,83)" stroke="rgb(5,137,83)" stroke-width="1" opacity="0.984313725490196" d="M 13.5 274 L 17 274 L 17 281 L 7 281 Q 8.7 286.2 5 285 L 5 281 L 7 281 L 7 279 L 9 279 L 9 277 L 11 277 Q 9.9 274.3 12.5 275 L 13.5 274 Z "></path><path fill="rgb(5,137,83)" stroke="rgb(5,137,83)" stroke-width="1" opacity="0.984313725490196" d="M 46 279 Q 49 278 48 281 L 46 281 L 46 283 L 44 283 L 44 285 L 40 287 Q 39 284 42 285 L 42 281 Q 47.2 282.7 46 279 Z "></path><path fill="rgb(5,137,83)" stroke="rgb(5,137,83)" stroke-width="1" opacity="0.984313725490196" d="M 0 287 Q 3.7 285.8 2 291 Q -1.7 292.2 0 287 Z "></path><path fill="rgb(5,137,83)" stroke="rgb(5,137,83)" stroke-width="1" opacity="0.984313725490196" d="M 34 287 Q 39.2 285.3 38 289 L 36 289 L 36 291 L 32 293 Q 31 290 34 291 L 34 287 Z "></path><path fill="rgb(5,137,83)" stroke="rgb(5,137,83)" stroke-width="1" opacity="0.984313725490196" d="M 28 293 Q 31 292 30 295 Q 27.3 293.9 28 296.5 L 27 296.5 L 28 293 Z "></path><path fill="rgb(5,137,83)" stroke="rgb(5,137,83)" stroke-width="1" opacity="0.984313725490196" d="M 21 297 Q 26.2 295.3 25 299 L 21 300 L 21 302 L 19 302 L 19 304 L 15 306 Q 16.2 311.3 13 310.5 L 13 316 L 9 318 L 9 322 L 7 322 Q 8.1 324.7 5.5 324 L 3 325 L 2 329 Q -1 330 0 327 Q 2.7 328.1 2 325.5 L 3 324.5 L 3 318 Q 6.1 318.8 5.5 316 L 11 316 L 11 302 Q 16.3 303.2 15.5 300 L 18.5 300 L 21 299 L 21 297 Z "></path><path fill="rgb(0,251,1)" stroke="rgb(0,251,1)" stroke-width="1" opacity="0.996078431372549" d="M 136 102 Q 139 101 138 104 L 142 104 Q 141 107 144 106 L 144 110 L 148 110 Q 147 113 150 112 L 150 124.5 L 152 125 L 152 131 Q 148.3 129.8 150 135 L 142 135 L 142 143 Q 139 142 140 145 L 136.5 145 L 134 146 L 134 148 L 130 148 L 130 150 Q 125.9 148.7 127 152 Q 130 151 129 154 L 127 154.5 L 127 166 Q 130.7 164.8 129 170 L 127 170 L 127 175 Q 130 174 129 177 L 127 177.5 L 127 185 L 119 185 L 119 191 Q 122 190 121 193 L 119 193.5 L 119 200 Q 116 199 117 202 L 113 202 L 113 209.5 Q 109.8 208.7 111 214 Q 108 213 109 216 L 105 216 L 105 217.5 L 104 218.5 L 104 225 L 98 225 Q 99 228 96 227 L 96 231 L 90 231 Q 91.2 236.3 88 235.5 L 88 241 Q 85 240 86 243 L 82 243 L 82 247 Q 78.7 245.9 80 250 L 75 250 L 75 253.5 Q 71.8 252.7 73 258 L 71 258 L 69 262 L 65 262 L 65 266 Q 62 265 63 268 L 57 268 L 57 272 Q 54 271 55 274 L 52.5 274 L 50 275 L 50 279 L 46.5 279 Q 47.3 282.3 42 281 L 42 285 Q 39 284 40 287 L 34 287 L 34 291 Q 31 290 32 293 L 28 293 L 28 294.5 L 27 297 L 21.5 297 L 21 299 L 19.5 299 L 15 300 L 15 302 L 11 302.5 L 11 316 L 5.5 316 Q 6.1 318.8 3 318 L 3 324.5 L 2 327 L 0 326.5 L 0 291 Q 3.3 292.3 2 287.5 L 3 285 L 7 285 L 7.5 281 L 17 281 L 17 272 L 20.5 272 Q 19.7 268.8 25 270 L 25 266 L 32 266 L 34 262 L 30 260 L 30 256 L 34 254 L 34 250 L 38 250 Q 37 247 40 248 L 40 243 Q 43 244 42 241 L 48 241 L 48 237 Q 44.3 238.2 46 233 L 48 233 L 48 231 L 52 229 L 52 225.5 L 53 223 L 57 222 Q 55.8 218.3 61 220 L 61 216 L 65 216 L 65 212 L 69 210 L 69 206 L 73 206 L 73 198.5 L 74.5 198 L 79 197 L 80 185 Q 83 186 82 183 L 86 183 L 86 181 Q 83 182 84 179 Q 87.7 180.2 86 175 L 94 175 L 94 166.5 L 96 165.5 L 96 154 L 94 153.5 L 94 139 L 96 138.5 L 96 129 L 104 129 L 104 120 Q 100.3 121.2 102 116 Q 105 117 104 114 L 109 114 L 109 110 L 111 110 L 113 106 L 119 106 L 119.5 104 L 135.5 104 L 136 102 Z "></path><path fill="rgb(110,43,140)" stroke="rgb(110,43,140)" stroke-width="1" opacity="1" d="M 161.5 43 L 165 43 L 165 46 Q 168 45 167 48 L 165 48 L 165 46 L 163 46 Q 164.1 43.3 161.5 44 L 161.5 43 Z "></path><path fill="rgb(110,43,140)" stroke="rgb(110,43,140)" stroke-width="1" opacity="1" d="M 169 46 L 173 48 L 173 52 L 175 52 Q 173.3 57.2 177 56 L 177 64 L 181 64 L 181 66 L 186 66 Q 184.9 68.7 187.5 68 L 192 69 L 192 71 Q 197.3 69.8 196.5 73 L 205.5 73 L 206.5 75 L 215 75 L 215 73 L 220.5 73 L 221 71 L 226.5 71 Q 225.5 68 230.5 69 L 232 66 Q 235 67 234 64 L 238 64 L 238 62 L 242 60 L 242 54 L 244 54 L 244 60 L 242 60 L 242 64 L 240 64 Q 241.3 69.3 238 68.5 L 238 75 L 240 75 L 240 84.5 Q 242.8 83.9 242 87 Q 247.3 85.8 246.5 89 L 252 89 L 252.5 91 L 258 91 L 258 93 Q 264.3 91.5 263.5 95 L 268.5 95 L 269.5 96 L 281 96 L 281 98 Q 285.1 96.7 284 100 Q 279.9 98.7 281 102 L 277 102 L 275 106 L 271 106 L 271 110 L 267 112 Q 268.7 117.2 265 116 L 265 122.5 Q 262.3 121.9 263 125 L 265 125 L 265 132.5 Q 268.3 131.7 267 137 L 269 137 L 269 139 L 271 139 L 271 141 L 273 141 L 273 143 L 275 143 Q 273.9 145.7 276.5 145 L 279 146 L 279 148 L 283 148 L 283 150 L 286 150 L 286 152 L 290 154 L 290 164 L 288 164.5 L 288 178.5 Q 284.8 177.7 286 183 L 284 183 L 284 190.5 L 283 191.5 L 283 198 L 281 198 L 281 207.5 L 279 208 L 279 215.5 L 277 216.5 L 277 237 L 279 237 L 279 241 L 281 241 L 281 245 Q 283.7 243.9 283 246.5 L 284 250 L 286 250 L 286 254 L 288 254 L 288 258 L 290 258 L 290 262 L 292 262 L 292 266 L 294 266 L 294 269.5 Q 297.3 268.7 296 274 L 298 274 Q 296.7 278.1 300 277 L 300 281 L 302 281 L 302 287 L 304 287 L 304 293 L 306 293 L 306 299 L 308 299.5 L 308 314 L 302 314 L 301.5 316 L 290.5 316 L 290 318 L 283.5 318 L 282.5 320 L 275.5 320 L 275 322 L 269.5 322 Q 270.5 325 265.5 324 L 259 325 L 259 327 Q 254.9 325.7 256 329 L 252 329 L 252 331 L 248 331 L 248 333 L 244 333 L 244 335 L 240.5 335 Q 241.3 338.2 236 337 L 236 339 L 234 339 L 232 343 L 229 343 L 227 347 Q 221.7 345.8 222.5 349 L 215 349 Q 216.2 345.3 211 347 L 211 345 L 209 345 L 207 341 L 204 341 L 202 337 L 198 337 L 198 335 L 194 335 L 194 333 L 190 333 L 190 331 L 186.5 331 Q 187.3 327.8 182 329 L 182 327 Q 177.9 328.3 179 325 L 175.5 325 L 169 324 L 169 322 L 163 322 L 162.5 320 L 155.5 320 L 155 318 L 148.5 318 L 147.5 316 L 136.5 316 Q 137.3 312.8 132 314 L 132 293 L 134 293 L 134 287.5 L 136 287 L 136 281 L 138 281 L 138 275 L 140 275 Q 138.5 268.7 142 269.5 L 142 264 L 144 263.5 L 144 258 L 146 257.5 L 146 252 L 148 252 Q 146.8 246.7 150 247.5 L 150 241 L 152 240.5 L 152 222 L 150 222 L 150 216.5 L 148 216 L 148 210 L 146 210 L 146 204 L 144 204 L 144 200 L 142 200 Q 143.3 195.9 140 197 L 140 191.5 L 138 191 L 138 185 L 136 185 Q 137.3 179.7 134 180.5 Q 135.4 171.7 132 172.5 L 132 152 Q 135 153 134 150 L 138 150 L 140 146 L 143.5 146 L 146 145 L 146 143 L 148 143 L 148 141 L 150 141 L 150 139 L 152 139 L 152 137 Q 154.7 138.1 154 135.5 L 155 131 L 157 130.5 L 157 116 Q 153.7 117.3 155 112.5 L 154 108 L 152 108 L 150 104 L 146 104 L 144 100 L 140 100 L 140 98 L 147.5 98 Q 146.6 94.8 154.5 96 L 159 95 L 159 93 L 164.5 93 L 165 91 L 171 91 L 171 89 L 175 89 Q 174 86 177 87 L 177 81 L 179 80.5 L 179 66 L 177 66 L 177 64 L 175 64 L 175 62 L 171 60 L 171 50.5 Q 167.7 51.3 169 46 Z "></path><path fill="rgb(110,43,140)" stroke="rgb(110,43,140)" stroke-width="1" opacity="1" d="M 136 100 Q 139 99 138 102 Q 135 103 136 100 Z "></path><path fill="rgb(110,43,140)" stroke="rgb(110,43,140)" stroke-width="1" opacity="1" d="M 286 100 Q 289 99 288 102 Q 285 103 286 100 Z "></path><path fill="rgb(110,43,140)" stroke="rgb(110,43,140)" stroke-width="1" opacity="1" d="M 140 102 Q 143 101 142 104 Q 139 105 140 102 Z "></path><path fill="rgb(110,43,140)" stroke="rgb(110,43,140)" stroke-width="1" opacity="1" d="M 279 104 Q 282 103 281 106 Q 278 107 279 104 Z "></path><path fill="rgb(110,43,140)" stroke="rgb(110,43,140)" stroke-width="1" opacity="1" d="M 152 116 Q 155 115 154 118 Q 151 119 152 116 Z "></path><path fill="rgb(110,43,140)" stroke="rgb(110,43,140)" stroke-width="1" opacity="1" d="M 267 121 L 269 121.5 L 269 129 L 267 128.5 L 267 121 Z "></path><path fill="rgb(110,43,140)" stroke="rgb(110,43,140)" stroke-width="1" opacity="1" d="M 152 129 Q 155 128 154 131 Q 151 132 152 129 Z "></path><path fill="rgb(110,43,140)" stroke="rgb(110,43,140)" stroke-width="1" opacity="1" d="M 150 133 Q 153 132 152 135 Q 149 136 150 133 Z "></path><path fill="rgb(110,43,140)" stroke="rgb(110,43,140)" stroke-width="1" opacity="1" d="M 271 135 Q 274 134 273 137 Q 270 138 271 135 Z "></path><path fill="rgb(110,43,140)" stroke="rgb(110,43,140)" stroke-width="1" opacity="1" d="M 140 143 Q 143 142 142 145 Q 139 146 140 143 Z "></path><path fill="rgb(110,43,140)" stroke="rgb(110,43,140)" stroke-width="1" opacity="1" d="M 279 143 Q 282 142 281 145 Q 278 146 279 143 Z "></path><path fill="rgb(110,43,140)" stroke="rgb(110,43,140)" stroke-width="1" opacity="1" d="M 134 146 Q 137 145 136 148 Q 133 149 134 146 Z "></path><path fill="rgb(110,43,140)" stroke="rgb(110,43,140)" stroke-width="1" opacity="1" d="M 284 146 Q 287 145 286 148 Q 283 149 284 146 Z "></path><path fill="rgb(110,43,140)" stroke="rgb(110,43,140)" stroke-width="1" opacity="1" d="M 130 148 Q 133 147 132 150 Q 129.3 148.9 130 151.5 L 129 151.5 L 130 148 Z "></path><path fill="rgb(110,43,140)" stroke="rgb(110,43,140)" stroke-width="1" opacity="1" d="M 292 152 L 294 152.5 L 294 168 L 292 167.5 L 292 152 Z "></path><path fill="rgb(110,43,140)" stroke="rgb(110,43,140)" stroke-width="1" opacity="1" d="M 129.5 172 L 130 174.5 L 129 174.5 L 129.5 172 Z "></path><path fill="rgb(110,43,140)" stroke="rgb(110,43,140)" stroke-width="1" opacity="1" d="M 290 177 Q 293.7 175.8 292 181 Q 288.3 182.2 290 177 Z "></path><path fill="rgb(110,43,140)" stroke="rgb(110,43,140)" stroke-width="1" opacity="1" d="M 175 327 Q 178 326 177 329 Q 174 330 175 327 Z "></path><path fill="rgb(110,43,140)" stroke="rgb(110,43,140)" stroke-width="1" opacity="1" d="M 242 337 Q 245 336 244 339 Q 241 340 242 337 Z "></path><path fill="rgb(194,201,211)" stroke="rgb(194,201,211)" stroke-width="1" opacity="0.4980392156862745" d="M 161 0 Q 164 -1 163 2 L 159 4 Q 160.7 9.2 157 8 L 157 4 L 159 4 L 161 0 Z "></path><path fill="rgb(194,201,211)" stroke="rgb(194,201,211)" stroke-width="1" opacity="0.4980392156862745" d="M 248 0 L 252 2 L 252 10 L 254 10 Q 252.3 15.2 256 14 L 256 19 L 258 19 L 258 28.5 Q 260.8 30.3 259 36.5 L 258 37.5 L 258 46 L 254 48 L 254 52 L 250 54 L 250 59.5 Q 246.8 58.7 248 64 L 246 64 L 246 66 L 242 68 L 242 75 L 244 75 L 244 79 Q 247 78 246 81 L 250 81 L 250 85 Q 246.9 84.3 247.5 87 L 242 87 Q 243 84 240 85 L 240 81 L 244 83 L 244 79 L 242 79 Q 243.3 73.7 240 74.5 L 240 68 L 242 68 L 242 66 L 246 64 Q 244.8 58.7 248 59.5 L 248 52 L 252 52 L 252 48 L 256 46 L 256 37.5 L 258 36.5 L 258 29 L 256 29 L 256 19.5 L 254 19 L 254 14.5 Q 250.7 15.3 252 10 L 250 10 L 250 4.5 Q 246.8 5.3 248 0 Z "></path><path fill="rgb(194,201,211)" stroke="rgb(194,201,211)" stroke-width="1" opacity="0.4980392156862745" d="M 155 10 L 157 10 L 157 16 L 155 16.5 L 155 26.5 L 154 31 L 152 31 L 152 37 Q 155.3 35.7 154 40.5 L 155 44 L 157 44 L 157 46 L 159 46 L 159 48 L 161 48 L 161 50 L 163 50 L 165 54 L 167 54 L 167 57.5 Q 170.3 56.7 169 62 L 173 64 Q 171.8 69.3 175 68.5 L 175 81 Q 172 80 173 83 Q 176.7 81.8 175 87 Q 172 86 173 89 L 169 89 L 169 87 Q 174.2 88.7 173 85 Q 169.3 86.2 171 81 L 173 80.5 L 173 68 L 169 66 L 169 62 L 165 60 L 165 54 L 163 54 L 161 50 L 157 50 L 157 46 Q 154.3 47.1 155 44.5 L 154 41 L 152 41 Q 153.7 35.8 150 37 L 150 31 L 152 31 Q 150.8 25.7 154 26.5 L 154 16.5 L 155 10 Z "></path><path fill="rgb(194,201,211)" stroke="rgb(194,201,211)" stroke-width="1" opacity="0.4980392156862745" d="M 250 87 Q 255.2 85.3 254 89 Q 248.8 90.7 250 87 Z "></path><path fill="rgb(194,201,211)" stroke="rgb(194,201,211)" stroke-width="1" opacity="0.4980392156862745" d="M 163 89 Q 168.2 87.3 167 91 Q 161.7 89.8 162.5 93 L 157 93 L 156.5 95 L 152.5 95 Q 151.3 97.3 146.5 96 L 146.5 95 L 152 95 L 152 93 Q 158.3 94.5 157.5 91 L 163 91 L 163 89 Z "></path><path fill="rgb(194,201,211)" stroke="rgb(194,201,211)" stroke-width="1" opacity="0.4980392156862745" d="M 256 89 Q 260.3 88 259.5 91 L 265 91 L 265.5 93 L 273 93 L 273 95 L 265.5 95 L 265 93 L 259 93 L 259 91 Q 254.9 92.3 256 89 Z "></path><path fill="rgb(194,201,211)" stroke="rgb(194,201,211)" stroke-width="1" opacity="0.4980392156862745" d="M 275.5 95 L 284 95.5 L 275.5 96 L 275.5 95 Z "></path><path fill="rgb(194,201,211)" stroke="rgb(194,201,211)" stroke-width="1" opacity="0.4980392156862745" d="M 140 96 Q 145.2 94.3 144 98 L 140 98 Q 141.7 103.2 138 102 L 138 100 Q 132.8 101.7 134 98 L 140 98 L 140 96 Z "></path><path fill="rgb(194,201,211)" stroke="rgb(194,201,211)" stroke-width="1" opacity="0.4980392156862745" d="M 286 96 L 290 96 L 292 100 L 288 100 Q 289 97 286 98 Q 287.7 103.2 284 102 L 284 98 Q 287 99 286 96 Z "></path><path fill="rgb(194,201,211)" stroke="rgb(194,201,211)" stroke-width="1" opacity="0.4980392156862745" d="M 127 98 L 132 98 L 132 100 L 127.5 100 Q 128.3 103.3 123 102 L 123 100 Q 128.2 101.7 127 98 Z "></path><path fill="rgb(194,201,211)" stroke="rgb(194,201,211)" stroke-width="1" opacity="0.4980392156862745" d="M 294 98 Q 299.2 96.3 298 100 Q 292.8 101.7 294 98 Z "></path><path fill="rgb(194,201,211)" stroke="rgb(194,201,211)" stroke-width="1" opacity="0.4980392156862745" d="M 142 100 Q 145 99 144 102 Q 141 103 142 100 Z "></path><path fill="rgb(194,201,211)" stroke="rgb(194,201,211)" stroke-width="1" opacity="0.4980392156862745" d="M 281 100 Q 284.7 98.8 283 104 Q 279.3 105.2 281 100 Z "></path><path fill="rgb(194,201,211)" stroke="rgb(194,201,211)" stroke-width="1" opacity="0.4980392156862745" d="M 300 100 L 305.5 100 L 306 102 L 310.5 102 Q 309.7 105.3 315 104 L 315 106 L 317 106 L 317 108 L 319 108 L 321 112 L 319 112 L 319 110 L 317 110 L 315 106 Q 309.7 107.2 310.5 104 L 306 104 L 305.5 102 L 300 102 L 300 100 Z "></path><path fill="rgb(194,201,211)" stroke="rgb(194,201,211)" stroke-width="1" opacity="0.4980392156862745" d="M 117 102 Q 122.2 100.3 121 104 Q 115.8 105.7 117 102 Z "></path><path fill="rgb(194,201,211)" stroke="rgb(194,201,211)" stroke-width="1" opacity="0.4980392156862745" d="M 277 102 Q 280 101 279 104 Q 276 105 277 102 Z "></path><path fill="rgb(194,201,211)" stroke="rgb(194,201,211)" stroke-width="1" opacity="0.4980392156862745" d="M 111 104 Q 116.2 102.3 115 106 L 111.5 106 Q 112.3 109.3 107 108 L 107 110 Q 104.3 108.9 105 111.5 L 104 116 L 102 116 Q 103 119 100 118 L 100 121 L 98 121 Q 99.3 126.3 96 125.5 L 96 131 L 94 131.5 L 94 137 L 92 137 L 92 131.5 L 94 131 L 94 125 L 96 125 L 96 121 L 98 121 L 98 118 L 102 116 L 102 112 Q 104.7 113.1 104 110.5 L 105 108 Q 108 109 107 106 L 111 106 L 111 104 Z "></path><path fill="rgb(194,201,211)" stroke="rgb(194,201,211)" stroke-width="1" opacity="0.4980392156862745" d="M 144 104 L 148 106 Q 147 103 150 104 L 150 106 L 152 106 L 154 110 L 150 112 L 150 110 L 148 110 L 148 108 L 146 108 L 144 104 Z M 148 106 Q 147 109 150 108 Q 151 105 148 106 Z M 150 108 Q 149 111 152 110 Q 153 107 150 108 Z "></path><path fill="rgb(194,201,211)" stroke="rgb(194,201,211)" stroke-width="1" opacity="0.4980392156862745" d="M 271 106 L 275 108 Q 274 105 277 106 L 277 108 L 275 108 L 275 110 L 271 112 L 273 108 Q 270 109 271 106 Z "></path><path fill="rgb(194,201,211)" stroke="rgb(194,201,211)" stroke-width="1" opacity="0.4980392156862745" d="M 154.5 112 L 155 113.5 L 154 116 Q 151 117 152 114 Q 154.8 115 154.5 112 Z "></path><path fill="rgb(194,201,211)" stroke="rgb(194,201,211)" stroke-width="1" opacity="0.4980392156862745" d="M 267 112 L 269 112 L 271 116 L 269 116 L 267 112 Z "></path><path fill="rgb(194,201,211)" stroke="rgb(194,201,211)" stroke-width="1" opacity="0.4980392156862745" d="M 321 114 L 323 114 L 323 118 L 325 118 Q 323.7 122.1 327 121 L 327 126.5 L 329 127 L 329 133 L 327 133 L 327 127 L 325 127 L 325 121 L 323 121 Q 324.3 116.9 321 118 L 321 114 Z "></path><path fill="rgb(194,201,211)" stroke="rgb(194,201,211)" stroke-width="1" opacity="0.4980392156862745" d="M 155 116 Q 158.7 114.8 157 120 L 155 120.5 L 155 127 Q 158.7 125.8 157 131 Q 153.7 132.3 155 127.5 Q 152.5 126 154 120.5 L 155 116 Z "></path><path fill="rgb(194,201,211)" stroke="rgb(194,201,211)" stroke-width="1" opacity="0.4980392156862745" d="M 265 116 L 269 118 L 269 121 L 267 121 L 267 118 Q 264 119 265 116 Z "></path><path fill="rgb(194,201,211)" stroke="rgb(194,201,211)" stroke-width="1" opacity="0.4980392156862745" d="M 263 123 Q 266 122 265 125 Q 262 126 263 123 Z "></path><path fill="rgb(194,201,211)" stroke="rgb(194,201,211)" stroke-width="1" opacity="0.4980392156862745" d="M 267 129 Q 270 128 269 131 L 265 133 L 267 129 Z "></path><path fill="rgb(194,201,211)" stroke="rgb(194,201,211)" stroke-width="1" opacity="0.4980392156862745" d="M 152 131 Q 154.7 129.9 154 132.5 L 155 134.5 L 154 137 Q 151 138 152 135 Q 155 136 154 133 Q 151 134 152 131 Z "></path><path fill="rgb(194,201,211)" stroke="rgb(194,201,211)" stroke-width="1" opacity="0.4980392156862745" d="M 269 133 Q 272 132 271 135 Q 268 134 269 137 Q 272 136 271 139 L 269 139 L 267 135 Q 270 136 269 133 Z "></path><path fill="rgb(194,201,211)" stroke="rgb(194,201,211)" stroke-width="1" opacity="0.4980392156862745" d="M 148 137 Q 151 136 150 139 L 146 141 L 146 145 L 144.5 145 L 142.5 146 L 142.5 145 L 144 145 L 144 141 L 146 141 L 148 137 Z "></path><path fill="rgb(194,201,211)" stroke="rgb(194,201,211)" stroke-width="1" opacity="0.4980392156862745" d="M 90 139 L 92 139.5 L 92 158 L 90 157.5 L 90 139 Z "></path><path fill="rgb(194,201,211)" stroke="rgb(194,201,211)" stroke-width="1" opacity="0.4980392156862745" d="M 273 139 L 277 141 L 277 145 L 278.5 145 L 280.5 146 L 282.5 145 Q 284.8 145.8 284 149.5 L 283 149.5 Q 284.3 144.7 281 146 Q 282 149 279 148 Q 280.1 145.3 277.5 146 L 275 145 L 275 141 Q 272 142 273 139 Z "></path><path fill="rgb(194,201,211)" stroke="rgb(194,201,211)" stroke-width="1" opacity="0.4980392156862745" d="M 132 148 Q 135.7 146.8 134 152 Q 130.3 153.2 132 148 Z "></path><path fill="rgb(194,201,211)" stroke="rgb(194,201,211)" stroke-width="1" opacity="0.4980392156862745" d="M 136 148 Q 139 147 138 150 Q 135 151 136 148 Z "></path><path fill="rgb(194,201,211)" stroke="rgb(194,201,211)" stroke-width="1" opacity="0.4980392156862745" d="M 286 148 Q 289 147 288 150 Q 285 151 286 148 Z "></path><path fill="rgb(194,201,211)" stroke="rgb(194,201,211)" stroke-width="1" opacity="0.4980392156862745" d="M 327 148 L 329 148.5 L 329 163.5 L 331 164 Q 329.8 169.3 333 168.5 L 333 171.5 L 336 173 L 336 177 Q 339 176 338 179 L 334 177 L 334 173.5 L 331 172 L 331 168 L 329 168 Q 330.3 162.7 327 163.5 L 327 148 Z "></path><path fill="rgb(194,201,211)" stroke="rgb(194,201,211)" stroke-width="1" opacity="0.4980392156862745" d="M 290 150 Q 293 149 292 152 L 288 154 L 290 150 Z "></path><path fill="rgb(194,201,211)" stroke="rgb(194,201,211)" stroke-width="1" opacity="0.4980392156862745" d="M 129.5 152 L 130 156 L 132 156 L 132 162 L 130 162.5 L 130 171.5 L 129 171.5 L 129.5 152 Z "></path><path fill="rgb(194,201,211)" stroke="rgb(194,201,211)" stroke-width="1" opacity="0.4980392156862745" d="M 90 164 Q 93.7 162.8 92 168 L 90 168 L 90 172 L 88.5 172 L 86 173 L 86 177 L 82 179 Q 83.3 184.3 80 183.5 L 80 186.5 L 79 189 L 77 189 L 77 192.5 Q 73.8 191.7 75 197 L 73 197 Q 74.3 201.1 71 200 L 71 203.5 Q 67.7 202.7 69 208 L 67 208 L 67 210 L 65 210 L 65 212 L 63 212 L 63 214 L 61 214 L 61 216 L 59 216 L 59 218 L 57 218 L 57 220 L 55 220 Q 56.1 222.7 53.5 222 L 52 225 L 48 227 L 48 231 L 44 233 L 44 237 L 40 239 L 40 243 L 38 243 L 38 247 L 36.5 247 L 34 248 L 34 252 L 30 254 L 30 258 Q 27.3 256.9 28 259.5 L 27 262 Q 23.3 260.8 25 266 L 23 266 L 23 268 L 21 268 L 21 270 L 19 270 L 19 272 L 15 274 L 15 272 L 17 272 L 17 270 L 19 270 L 19 268 L 23 266 L 23 262 L 25 262 L 25 260 Q 27.7 261.1 27 258.5 L 28 254 L 32 252 L 32 248 L 33.5 248 L 36 247 L 36 243.5 Q 39.3 244.3 38 239 L 42 237 L 42 233 L 46 231 L 46 227 L 48 227 L 48 225 L 50 225 Q 48.9 222.3 51.5 223 L 53 220 L 55 220 L 55 218 L 57 218 L 57 216 L 59 216 L 59 214 L 61 214 L 61 212 L 63 212 L 65 208 L 67 208 L 67 204 L 69 204 L 69 200 L 71 200 Q 69.7 195.9 73 197 L 73 193.5 Q 76.3 194.3 75 189 L 79 187 L 79 183.5 L 80 179 L 84 177 L 84 173 L 85.5 173 L 88 172 L 88 168.5 Q 91.2 169.3 90 164 Z "></path><path fill="rgb(194,201,211)" stroke="rgb(194,201,211)" stroke-width="1" opacity="0.4980392156862745" d="M 288 164 L 290 164 L 290 171.5 Q 293.5 170.7 292 177 L 290 177 Q 291.7 171.8 288 173 L 288 164 Z "></path><path fill="rgb(194,201,211)" stroke="rgb(194,201,211)" stroke-width="1" opacity="0.4980392156862745" d="M 132 173 L 134 173.5 L 134 180.5 L 136 181 L 136 187 Q 132.3 188.2 134 183 L 130 181 L 130 177 Q 133.7 178.2 132 173 Z "></path><path fill="rgb(194,201,211)" stroke="rgb(194,201,211)" stroke-width="1" opacity="0.4980392156862745" d="M 286 179 L 288 179 L 288 181 L 292 183 L 292 186.5 Q 295.3 185.7 294 191 L 298 193 L 298 197 L 300 197 Q 298.7 201.1 302 200 L 302 204 L 304 204 L 304 208 Q 307 207 306 210 L 302 208 L 302 204 L 300 204 L 300 200 L 298 200 Q 299.3 195.9 296 197 L 296 193 L 292 191 L 292 187 Q 289 188 290 185 L 286 185 L 286 179 Z "></path><path fill="rgb(194,201,211)" stroke="rgb(194,201,211)" stroke-width="1" opacity="0.4980392156862745" d="M 338 181 Q 341 180 340 183 Q 337 184 338 181 Z "></path><path fill="rgb(194,201,211)" stroke="rgb(194,201,211)" stroke-width="1" opacity="0.4980392156862745" d="M 340 185 L 344 187 L 344 191 L 346 191 L 346 196.5 Q 349 195.8 348 200 L 346 200 Q 347.3 195.9 344 197 L 344 191 L 342 191 L 342 187 Q 339 188 340 185 Z "></path><path fill="rgb(194,201,211)" stroke="rgb(194,201,211)" stroke-width="1" opacity="0.4980392156862745" d="M 127 187 Q 130 186 129 189 Q 126 190 127 187 Z "></path><path fill="rgb(194,201,211)" stroke="rgb(194,201,211)" stroke-width="1" opacity="0.4980392156862745" d="M 284 187 L 286 187.5 L 286 195 Q 282.5 193.9 284 201.5 L 283 201.5 L 284 187 Z "></path><path fill="rgb(194,201,211)" stroke="rgb(194,201,211)" stroke-width="1" opacity="0.4980392156862745" d="M 136 189 Q 139.7 187.8 138 193 Q 134.3 194.2 136 189 Z "></path><path fill="rgb(194,201,211)" stroke="rgb(194,201,211)" stroke-width="1" opacity="0.4980392156862745" d="M 125 191 Q 128 190 127 193 L 125 193 L 125 197 L 123.5 197 L 121 198 L 121 201.5 Q 117.8 200.7 119 206 L 115 208 L 115 212 L 113 212 L 113 215.5 Q 109.8 214.7 111 220 L 109 220 Q 110.1 222.7 107.5 222 L 105 223 L 104 227 L 102 227 L 102 229 L 100 229 L 100 231 L 96 233 L 96 237 L 94 237 L 94 239 L 92 239 L 92 241 L 90 241 L 90 243 L 86 245 L 86 248 L 84 248 L 84 250 L 82 250 L 82 252 Q 79.3 250.9 80 253.5 L 79 256 L 77 256 L 77 258 L 75 258 L 75 260 L 73 260 L 73 262 L 71 262 L 71 264 L 69 264 L 69 266 L 67 266 L 65 270 L 61 270 L 61 272 L 59 272 Q 60.1 274.7 57.5 274 L 55 275 L 55 277 Q 52.3 275.9 53 278.5 L 52 281 L 48 281 L 48 283 L 46 283 L 46 285 L 42 287 L 42 289 L 38 289 L 38 291 L 36 291 L 34 295 L 30 295 L 30 297 Q 27.3 295.9 28 298.5 L 27 298.5 L 28 295 Q 31 296 30 293 L 34 293 L 34 291 L 36 291 L 38 287 L 42 287 L 42 285 L 44 285 L 44 283 L 48 281 L 48 279 L 52 279 L 52 277.5 L 53 275 L 57 274 L 57 272 L 59 272 L 61 268 L 65 268 L 65 266 L 67 266 L 67 264 L 69 264 L 69 262 L 71 262 L 71 260 L 73 260 L 73 258 L 75 258 L 75 256 L 77 256 L 77 254 Q 79.7 255.1 79 252.5 L 80 250 L 82 250 Q 81 247 84 248 L 84 245 L 86 245 L 86 243 L 88 243 L 88 241 L 90 241 L 90 239 L 94 237 L 94 233 L 96 233 L 96 231 L 98 231 L 98 229 L 100 229 L 100 227 L 102 227 L 102 225 Q 104.7 226.1 104 223.5 L 107 222 Q 106 219 109 220 L 109 216 L 111 216 L 111 212 L 113 212 L 113 208 L 117 206 L 117 202 L 119 202 L 119 198 L 120.5 198 L 123 197 L 123 193 Q 126 194 125 191 Z "></path><path fill="rgb(194,201,211)" stroke="rgb(194,201,211)" stroke-width="1" opacity="0.4980392156862745" d="M 138 195 L 140 195 Q 138.7 199.1 142 198 L 142 202 L 140 202 L 140 198 Q 136.7 199.1 138 195 Z "></path><path fill="rgb(194,201,211)" stroke="rgb(194,201,211)" stroke-width="1" opacity="0.4980392156862745" d="M 348 202 L 350 202 L 350 206 Q 353 205 352 208 L 348 206 L 348 202 Z "></path><path fill="rgb(194,201,211)" stroke="rgb(194,201,211)" stroke-width="1" opacity="0.4980392156862745" d="M 142 204 L 144 204 Q 142.3 209.2 146 208 L 146 213.5 L 148 214 L 148 219.5 Q 151.5 218.7 150 225 L 148 225 L 148 220 L 146 220 L 146 214.5 L 144 214 L 144 208.5 Q 140.8 209.3 142 204 Z "></path><path fill="rgb(194,201,211)" stroke="rgb(194,201,211)" stroke-width="1" opacity="0.4980392156862745" d="M 281 204 Q 284 203 283 206 Q 280 207 281 204 Z "></path><path fill="rgb(194,201,211)" stroke="rgb(194,201,211)" stroke-width="1" opacity="0.4980392156862745" d="M 281 208 Q 284.7 206.8 283 212 Q 279.3 213.2 281 208 Z "></path><path fill="rgb(194,201,211)" stroke="rgb(194,201,211)" stroke-width="1" opacity="0.4980392156862745" d="M 352 210 L 354 210 L 354 212 L 356 212 L 356 214 L 358 214 L 360 218 L 363 218 Q 362 221 365 220 L 365 223 L 367 223 L 367 225 L 369 225 L 369 227 L 373 229 L 373 233 L 377 235 L 377 239 Q 380 238 379 241 L 375 239 L 375 235 L 371 233 L 371 229 L 369 229 L 369 227 L 367 227 L 367 225 L 365 225 Q 366.1 222.3 363.5 223 L 361 222 L 360 218 L 358 218 L 358 216 L 356 216 L 356 214 L 354 214 L 352 210 Z "></path><path fill="rgb(194,201,211)" stroke="rgb(194,201,211)" stroke-width="1" opacity="0.4980392156862745" d="M 306 212 Q 308.7 210.9 308 213.5 L 309 218 L 313 220 Q 311.7 224.1 315 223 L 315 227 L 317 227 L 317 229 L 319 229 L 319 231 L 323 233 L 323 237 L 325 237 L 325 239 L 327 239 L 327 241 L 329 241 L 329 243 L 331 243 L 331 245 Q 333.7 243.9 333 246.5 L 334 250 L 336 250 L 336 252 L 338 252 L 338 254 L 340 254 L 340 256 L 342 256 L 344 260 L 346 260 L 346 262 L 350 262 L 350 264 L 352 264 L 352 266 L 354 266 L 354 268 L 356 268 L 356 270 L 358 270 L 360 274 L 358 274 L 358 272 L 356 272 L 356 270 L 354 270 L 354 268 L 352 268 L 350 264 L 346 264 L 346 262 L 344 262 L 344 260 L 342 260 L 342 258 L 340 258 L 340 256 L 338 256 L 338 254 L 336 254 L 336 252 Q 333.3 253.1 334 250.5 L 333 247 L 331 247 L 331 245 L 329 245 L 329 243 L 327 243 L 327 241 L 325 241 L 325 239 L 321 237 L 321 233 L 319 233 L 319 231 L 317 231 L 317 229 L 313 227 L 313 223 L 311 223 L 311 220 Q 308.3 221.1 309 218.5 L 308 214 Q 305 215 306 212 Z "></path><path fill="rgb(194,201,211)" stroke="rgb(194,201,211)" stroke-width="1" opacity="0.4980392156862745" d="M 279 214 Q 282.7 212.8 281 218 Q 277.3 219.2 279 214 Z "></path><path fill="rgb(194,201,211)" stroke="rgb(194,201,211)" stroke-width="1" opacity="0.4980392156862745" d="M 279 235 L 281 235 Q 279.8 240.3 283 239.5 L 283 242.5 L 284 245 L 286 245 Q 284.7 249.1 288 248 L 288 252 L 290 252 L 290 256 L 292 256 L 292 260 L 294 260 L 294 264 L 296 264 L 296 267.5 Q 299.3 266.7 298 272 L 300 272 Q 298.7 276.1 302 275 L 302 278.5 Q 305.3 277.7 304 283 L 302 283 L 302 279.5 Q 298.8 280.3 300 275 L 298 275 Q 299.3 270.9 296 272 L 296 268 L 294 268 L 294 264 L 292 264 L 292 260 L 290 260 L 290 256 L 288 256 L 288 252 L 286 252 L 286 248 Q 283 249.3 284 245.5 L 283 243 L 281 243 L 281 239.5 Q 277.8 240.3 279 235 Z "></path><path fill="rgb(194,201,211)" stroke="rgb(194,201,211)" stroke-width="1" opacity="0.4980392156862745" d="M 148 239 L 150 239 L 150 245 L 148 245 L 148 250 L 146 250 Q 147.7 255.2 144 254 Q 142.8 248.7 146 249.5 L 146 245 L 148 244.5 L 148 239 Z "></path><path fill="rgb(194,201,211)" stroke="rgb(194,201,211)" stroke-width="1" opacity="0.4980392156862745" d="M 379 243 Q 382 242 381 245 Q 378 246 379 243 Z "></path><path fill="rgb(194,201,211)" stroke="rgb(194,201,211)" stroke-width="1" opacity="0.4980392156862745" d="M 381.5 247 L 385 248 L 386 254 L 388 254 L 388 258 L 390 258 L 390 260 L 392 260 L 394 264 L 392 264 L 392 262 L 390 262 L 390 260 L 386 258 L 386 254.5 L 385 252 L 383 252 L 383 248 L 381.5 248 L 381.5 247 Z "></path><path fill="rgb(194,201,211)" stroke="rgb(194,201,211)" stroke-width="1" opacity="0.4980392156862745" d="M 142 256 Q 145.7 254.8 144 260 Q 140.3 261.2 142 256 Z "></path><path fill="rgb(194,201,211)" stroke="rgb(194,201,211)" stroke-width="1" opacity="0.4980392156862745" d="M 140 262 Q 143.7 260.8 142 266 Q 138.3 267.2 140 262 Z "></path><path fill="rgb(194,201,211)" stroke="rgb(194,201,211)" stroke-width="1" opacity="0.4980392156862745" d="M 394 266 Q 397 265 396 268 L 400 268 L 400 270 L 396 270 L 394 266 Z "></path><path fill="rgb(194,201,211)" stroke="rgb(194,201,211)" stroke-width="1" opacity="0.4980392156862745" d="M 138 268 Q 141.7 266.8 140 272 Q 136.3 273.2 138 268 Z "></path><path fill="rgb(194,201,211)" stroke="rgb(194,201,211)" stroke-width="1" opacity="0.4980392156862745" d="M 11.5 274 L 13 274.5 L 11 275 L 11 277 L 9 277 L 9 279 L 7 279 L 5 283 L 3 283 L 3 287 L 0 287 L 0 285 Q 2.7 286.1 2 283.5 L 3 281 L 5 281 L 5 279 L 7 279 L 7 277 L 9 277 Q 7.9 274.3 10.5 275 L 11.5 274 Z "></path><path fill="rgb(194,201,211)" stroke="rgb(194,201,211)" stroke-width="1" opacity="0.4980392156862745" d="M 136 274 Q 139.3 272.9 138 277 L 136 277 L 136 283 L 134 283 L 134 289 L 132 289.5 L 132 297 L 130 297 L 130 289.5 L 132 289 L 132 283.5 L 134 283 L 134 277.5 Q 137 278.3 136 274 Z "></path><path fill="rgb(194,201,211)" stroke="rgb(194,201,211)" stroke-width="1" opacity="0.4980392156862745" d="M 361.5 274 L 365 275 L 365 277 L 367 277 L 369 281 L 373 281 L 373 283 L 375 283 L 375 285 L 377 285 L 379 289 L 377 289 L 377 287 L 375 287 L 373 283 L 369 283 L 369 281 L 367 281 L 367 279 L 365 279 L 365 277 L 363 277 Q 364.1 274.3 361.5 275 L 361.5 274 Z "></path><path fill="rgb(194,201,211)" stroke="rgb(194,201,211)" stroke-width="1" opacity="0.4980392156862745" d="M 304 285 L 306 285 Q 304.3 290.2 308 289 L 308 295 L 306 295 L 306 289.5 Q 302.8 290.3 304 285 Z "></path><path fill="rgb(194,201,211)" stroke="rgb(194,201,211)" stroke-width="1" opacity="0.4980392156862745" d="M 381 289 L 383 289 L 385 293 L 388 293 L 388 295 L 390 295 L 390 297 L 392 297 Q 390.9 299.7 393.5 299 L 396 300 L 396 302 L 398 302 L 400 306 L 398 306 L 398 304 L 396 304 L 396 302 L 394 302 Q 395.1 299.3 392.5 300 L 390 299 L 390 297 Q 387 298 388 295 L 385 295 L 385 293 L 383 293 L 381 289 Z "></path><path fill="rgb(194,201,211)" stroke="rgb(194,201,211)" stroke-width="1" opacity="0.4980392156862745" d="M 308.5 297 L 309 301.5 L 308 301.5 L 308.5 297 Z "></path><path fill="rgb(194,201,211)" stroke="rgb(194,201,211)" stroke-width="1" opacity="0.4980392156862745" d="M 23.5 299 L 25 299.5 L 23 300 L 23 302 L 21 302 L 21 304 L 17 306 L 17 309.5 Q 13.8 308.7 15 314 L 13 314 L 13 310.5 Q 16.2 311.3 15 306 L 17 306 L 17 304 L 19 304 L 19 302 L 21 302 Q 19.9 299.3 22.5 300 L 23.5 299 Z "></path><path fill="rgb(194,201,211)" stroke="rgb(194,201,211)" stroke-width="1" opacity="0.4980392156862745" d="M 129.5 300 L 130 314 L 136 314 L 138 318 L 132.5 318 Q 133.1 315.3 130 316 L 129.5 318 L 129.5 300 Z "></path><path fill="rgb(194,201,211)" stroke="rgb(194,201,211)" stroke-width="1" opacity="0.4980392156862745" d="M 309 306 Q 312 305 311 308 Q 308 309 309 306 Z "></path><path fill="rgb(194,201,211)" stroke="rgb(194,201,211)" stroke-width="1" opacity="0.4980392156862745" d="M 309 312 L 311 312.5 L 311 320 Q 307.3 321.2 309 316 L 306 316 L 306 318 L 300 318 L 302 314 L 308.5 314 L 309 312 Z "></path><path fill="rgb(194,201,211)" stroke="rgb(194,201,211)" stroke-width="1" opacity="0.4980392156862745" d="M 11 316 Q 14 315 13 318 L 11 318 L 11 322 L 9 322 Q 10.1 324.7 7.5 324 L 5 325 L 5 329 L 2 329 Q 3 332 0 331 L 0 329 Q 2.7 330.1 2 327.5 L 3 325 L 7 324 Q 6 321 9 322 L 9 318 Q 12 319 11 316 Z "></path><path fill="rgb(194,201,211)" stroke="rgb(194,201,211)" stroke-width="1" opacity="0.4980392156862745" d="M 142 316 L 148 316 L 148 320 L 144 320 L 142 316 Z "></path><path fill="rgb(194,201,211)" stroke="rgb(194,201,211)" stroke-width="1" opacity="0.4980392156862745" d="M 290 316 L 296 316 L 296 318 Q 293 317 294 320 L 290 320 L 290 316 Z "></path><path fill="rgb(194,201,211)" stroke="rgb(194,201,211)" stroke-width="1" opacity="0.4980392156862745" d="M 152 318 Q 156.5 316.3 155 321.5 L 154 321.5 Q 154.7 318.9 152 320 L 152 318 Z "></path><path fill="rgb(194,201,211)" stroke="rgb(194,201,211)" stroke-width="1" opacity="0.4980392156862745" d="M 283 318 Q 287.9 316.4 286 322 Q 281.1 323.6 283 318 Z "></path><path fill="rgb(194,201,211)" stroke="rgb(194,201,211)" stroke-width="1" opacity="0.4980392156862745" d="M 127 320 L 129 320.5 L 129 327 L 127 327.5 L 127 337 L 125 337 L 125 327.5 L 127 326.5 L 127 320 Z "></path><path fill="rgb(194,201,211)" stroke="rgb(194,201,211)" stroke-width="1" opacity="0.4980392156862745" d="M 159 320 Q 165 318 163 324 Q 157 326 159 320 Z "></path><path fill="rgb(194,201,211)" stroke="rgb(194,201,211)" stroke-width="1" opacity="0.4980392156862745" d="M 275 320 Q 281 318 279 324 L 277 324 L 275 320 Z "></path><path fill="rgb(194,201,211)" stroke="rgb(194,201,211)" stroke-width="1" opacity="0.4980392156862745" d="M 165 322 Q 170.6 320.1 169 325 Q 163.4 326.9 165 322 Z "></path><path fill="rgb(194,201,211)" stroke="rgb(194,201,211)" stroke-width="1" opacity="0.4980392156862745" d="M 269 322 Q 274.6 320.1 273 325 Q 267.4 326.9 269 322 Z "></path><path fill="rgb(194,201,211)" stroke="rgb(194,201,211)" stroke-width="1" opacity="0.4980392156862745" d="M 171 324 L 175 324.5 L 173 325 Q 174 328 171 327 L 171 324 Z "></path><path fill="rgb(194,201,211)" stroke="rgb(194,201,211)" stroke-width="1" opacity="0.4980392156862745" d="M 265 324 Q 268.3 322.9 267 327 Q 263.7 328.1 265 324 Z "></path><path fill="rgb(194,201,211)" stroke="rgb(194,201,211)" stroke-width="1" opacity="0.4980392156862745" d="M 311 324 L 313 324 L 313 330.5 L 315 331.5 L 315 341 L 313 340.5 L 313 331.5 L 311 330.5 L 311 324 Z "></path><path fill="rgb(194,201,211)" stroke="rgb(194,201,211)" stroke-width="1" opacity="0.4980392156862745" d="M 177 325 Q 180.7 323.8 179 329 Q 175.3 330.2 177 325 Z "></path><path fill="rgb(194,201,211)" stroke="rgb(194,201,211)" stroke-width="1" opacity="0.4980392156862745" d="M 259 325 Q 262.7 323.8 261 329 Q 257.3 330.2 259 325 Z "></path><path fill="rgb(194,201,211)" stroke="rgb(194,201,211)" stroke-width="1" opacity="0.4980392156862745" d="M 181.5 327 L 182 330.5 L 181 330.5 L 181.5 327 Z "></path><path fill="rgb(194,201,211)" stroke="rgb(194,201,211)" stroke-width="1" opacity="0.4980392156862745" d="M 256 327 Q 259.7 325.8 258 331 Q 254.3 332.2 256 327 Z "></path><path fill="rgb(194,201,211)" stroke="rgb(194,201,211)" stroke-width="1" opacity="0.4980392156862745" d="M 252 329 Q 255.7 327.8 254 333 Q 250.3 334.2 252 329 Z "></path><path fill="rgb(194,201,211)" stroke="rgb(194,201,211)" stroke-width="1" opacity="0.4980392156862745" d="M 184 331 Q 187 330 186 333 Q 183 334 184 331 Z "></path><path fill="rgb(194,201,211)" stroke="rgb(194,201,211)" stroke-width="1" opacity="0.4980392156862745" d="M 248 331 Q 251.7 329.8 250 335 Q 246.3 336.2 248 331 Z "></path><path fill="rgb(194,201,211)" stroke="rgb(194,201,211)" stroke-width="1" opacity="0.4980392156862745" d="M 188 333 Q 191 332 190 335 Q 187 336 188 333 Z "></path><path fill="rgb(194,201,211)" stroke="rgb(194,201,211)" stroke-width="1" opacity="0.4980392156862745" d="M 192 333 Q 195.7 331.8 194 337 Q 190.3 338.2 192 333 Z "></path><path fill="rgb(194,201,211)" stroke="rgb(194,201,211)" stroke-width="1" opacity="0.4980392156862745" d="M 244 333 Q 247.7 331.8 246 337 Q 242.3 338.2 244 333 Z "></path><path fill="rgb(194,201,211)" stroke="rgb(194,201,211)" stroke-width="1" opacity="0.4980392156862745" d="M 196 335 L 198 335 Q 196.3 340.2 200 339 Q 199 336 202 337 Q 201 340 204 339 L 204 343 L 206 343 L 206.5 341 L 207 343 L 209 343 L 209 347 Q 212 346 211 349 L 207 347 L 207 343.5 L 206 343.5 Q 206.7 346.1 204 345 Q 205 342 202 343 L 202 339 L 200 339 Q 201 342 198 341 Q 199 338 196 339 L 196 335 Z "></path><path fill="rgb(194,201,211)" stroke="rgb(194,201,211)" stroke-width="1" opacity="0.4980392156862745" d="M 240 335 Q 243 334 242 337 Q 239 338 240 335 Z "></path><path fill="rgb(194,201,211)" stroke="rgb(194,201,211)" stroke-width="1" opacity="0.4980392156862745" d="M 236 337 L 238 337 L 240 341 L 236 339 L 236 343 L 232 345 Q 231 342 234 343 L 234 339 Q 237 340 236 337 Z "></path><path fill="rgb(194,201,211)" stroke="rgb(194,201,211)" stroke-width="1" opacity="0.4980392156862745" d="M 123 339 L 125 339.5 L 125 347 L 123 346.5 L 123 339 Z "></path><path fill="rgb(194,201,211)" stroke="rgb(194,201,211)" stroke-width="1" opacity="0.4980392156862745" d="M 229 343 Q 232 342 231 345 Q 228 346 229 343 Z "></path><path fill="rgb(194,201,211)" stroke="rgb(194,201,211)" stroke-width="1" opacity="0.4980392156862745" d="M 315 343 L 317 343.5 L 317 368 L 315 368 L 315 376.5 L 313 377.5 L 313 385 L 311 385 L 311 377.5 L 313 376.5 L 313 368.5 L 315 367.5 L 315 343 Z "></path><path fill="rgb(194,201,211)" stroke="rgb(194,201,211)" stroke-width="1" opacity="0.4980392156862745" d="M 213 347 Q 216.1 346.3 215.5 349 L 223 349 Q 222 346 225 347 Q 224 350 227 349 Q 226 346 229 347 L 229 349 L 225 351 L 225 357.5 L 223 358 L 223 351 L 217.5 351 L 217.5 352 L 219 352.5 L 219 362 L 217 361.5 L 217 352 L 215 352 L 215 349 Q 212 350 213 347 Z "></path><path fill="rgb(194,201,211)" stroke="rgb(194,201,211)" stroke-width="1" opacity="0.4980392156862745" d="M 123 349 Q 126 348 125 351 Q 122 352 123 349 Z "></path><path fill="rgb(194,201,211)" stroke="rgb(194,201,211)" stroke-width="1" opacity="0.4980392156862745" d="M 123 366 L 125 366.5 L 125 376 L 123 375.5 L 123 366 Z "></path><path fill="rgb(194,201,211)" stroke="rgb(194,201,211)" stroke-width="1" opacity="0.4980392156862745" d="M 125 377 L 127 377.5 L 127 384.5 L 129 385.5 L 129 393 L 127 392.5 L 127 385.5 L 125 384.5 L 125 377 Z "></path><path fill="rgb(194,201,211)" stroke="rgb(194,201,211)" stroke-width="1" opacity="0.4980392156862745" d="M 217 377 L 219 377.5 L 219 399 L 217 398.5 L 217 377 Z "></path><path fill="rgb(194,201,211)" stroke="rgb(194,201,211)" stroke-width="1" opacity="0.4980392156862745" d="M 309 387 L 311 387 L 311 393 Q 307.5 391.9 309 399.5 L 308 399.5 L 309 387 Z "></path><path fill="rgb(194,201,211)" stroke="rgb(194,201,211)" stroke-width="1" opacity="0.4980392156862745" d="M 129.5 395 L 130 399.5 L 129 399.5 L 129.5 395 Z "></path><path fill="rgb(194,201,211)" stroke="rgb(194,201,211)" stroke-width="1" opacity="0.4980392156862745" d="M 223 397 Q 226.3 395.9 225 400 Q 221.7 401.1 223 397 Z "></path></svg>