<svg width="400" height="400" version="1.1" xmlns="http://www.w3.org/2000/svg" desc="Created with imagetracer.js version 1.2.5"><path fill="rgb(0,0,0)" stroke="rgb(0,0,0)" stroke-width="1" opacity="0" d="M 0 0 L 324 0.5 L 318.5 8 L 213.5 30 L 151 30 L 151 32.5 L 147 37.5 L 134.5 50 L 119 62 L 117.5 65 L 114 66 L 111.5 70 L 98 80.5 L 98 82 Q 94.2 80.5 95 83.5 L 90 87.5 L 88.5 90 L 86 91.5 Q 86.8 93.8 84.5 93 L 81 98 L 78 99.5 L 76.5 102 L 74 103.5 L 72.5 106 L 70 107.5 L 68.5 110 L 66 111.5 L 62 118 L 58 120.5 Q 58.8 122.8 56.5 122 L 54 126 L 38 138 L 35.5 142 Q 32.9 141.2 34 144.5 L 25 151 L 22.5 155 Q 20.3 154.3 21 156.5 L 17 159 L 16 163 L 5.5 167 L 0.5 171 L 0 0 Z "></path><path fill="rgb(0,0,0)" stroke="rgb(0,0,0)" stroke-width="1" opacity="0" d="M 299.5 23 Q 304.3 21.7 303 25 L 301.5 25 L 264.5 58 L 254 65 Q 255.1 67.7 252.5 67 L 239 79.5 L 237.5 82 L 236 82 L 236 84 Q 233.3 82.9 234 85.5 L 225.5 94 L 224 94 L 224 95.5 L 203.5 117 Q 201.3 116.3 202 118.5 L 195 124.5 L 193.5 127 L 177 141.5 L 171.5 148 L 155 163.5 L 153.5 166 Q 139.1 169.1 132 179.5 L 127 187.5 L 126 193 L 93.5 193 L 92.5 192 L 68 191.5 L 70 191 Q 68.9 188.3 71.5 189 L 76.5 183 Q 78.8 183.8 78 181.5 L 82 179 Q 80.9 176.3 83.5 177 L 88 174 L 93.5 167 Q 96.1 167.7 95 165 L 97 165 L 97 163.5 L 106 155.5 L 112.5 147 Q 115.1 147.7 114 145 L 116 145 L 116 143.5 L 121 139.5 L 123 136.5 L 128 132.5 Q 127.3 130.3 129.5 131 L 143 119.5 Q 142.3 117.3 144.5 118 L 147 117 L 148.5 114 L 151 112.5 L 152.5 110 Q 155.8 111.1 155 108.5 L 171 95.5 Q 170.3 93.3 172.5 94 L 175 90 L 179 89 L 180.5 86 L 183 84.5 L 184.5 82 L 187 80.5 L 191 74 L 194 72.5 L 195 69.5 L 204 59.5 L 207 53 L 212 49.5 L 217.5 40 L 284.5 27 L 299.5 23 Z "></path><path fill="rgb(0,0,0)" stroke="rgb(0,0,0)" stroke-width="1" opacity="0" d="M 399.5 24 L 400 371.5 L 399 371.5 L 394.5 366 Q 392.3 366.8 393 364.5 L 382.5 353 L 379.5 352 L 366.5 339 L 271 258.5 Q 271.8 256.3 269.5 257 L 239 227.5 Q 239.8 225.3 237.5 226 L 229 218.5 Q 229.8 216.3 227.5 217 L 216 206.5 L 223.5 198 L 226 196.5 L 235.5 186 L 238 184.5 Q 237.3 182.3 239.5 183 L 245 179 L 252.5 170 L 259.5 164 L 278.5 143 Q 280.8 143.8 280 141.5 L 286 136.5 L 291.5 130 L 295 127.5 Q 294.3 125.3 296.5 126 Q 308.7 112.6 324 103 L 325.5 100 Q 349.5 82 370 60.5 L 391 35.5 L 393 29 L 399.5 24 Z "></path><path fill="rgb(0,0,0)" stroke="rgb(0,0,0)" stroke-width="1" opacity="0" d="M 74.5 203 L 125 204 L 125 210.5 L 131 223.5 L 160.5 255 L 185.5 276 L 228.5 318 L 281 362.5 L 279.5 363 L 234.5 351 L 220 336.5 L 217.5 333 Q 215.3 333.8 216 331.5 L 212 329 L 209.5 325 L 207 323.5 Q 207.8 321.3 205.5 322 L 203 317 L 197.5 313 L 195 313 L 195 311.5 L 185.5 302 L 179 297.5 Q 179.8 295.3 177.5 296 L 151 273.5 Q 151.8 270.9 148.5 272 L 145.5 268 L 143 266.5 Q 143.8 264.3 141.5 265 L 127 254 Q 128.1 251.3 125.5 252 L 123 251 L 121.5 248 L 119 246.5 L 117.5 244 L 114 242.5 L 112.5 240 L 109 237.5 L 109 236 Q 105.3 237.5 106 234.5 L 102 232 L 99.5 228 Q 97.3 228.8 98 226.5 L 83 212.5 Q 83.8 210.3 81.5 211 L 75 205.5 L 74.5 203 Z "></path><path fill="rgb(0,0,0)" stroke="rgb(0,0,0)" stroke-width="1" opacity="0" d="M 0.5 213 L 1 215 L 5 217.5 L 7 221.5 L 21.5 236 L 25 238.5 Q 24.2 241.1 27.5 240 L 30.5 244 L 38 249.5 L 39.5 252 Q 42.8 250.9 42 253.5 L 46 256 L 48.5 260 Q 50.8 259.3 50 261.5 L 54 264 L 56.5 268 Q 58.8 267.3 58 269.5 L 62 272 L 64.5 276 L 86 294.5 Q 85.3 296.8 87.5 296 L 90 297 L 91.5 300 Q 94.8 298.9 94 301.5 L 110 314.5 L 111.5 317 L 123 325 Q 121.9 327.7 124.5 327 L 147 345 L 149.5 349 L 151 349 L 151.5 351 L 193.5 351 L 301.5 380 L 324 399.5 L 0 400 L 0.5 213 Z "></path><path fill="rgb(0,254,133)" stroke="rgb(0,254,133)" stroke-width="1" opacity="0.6078431372549019" d="M 151.5 32 L 151 33.5 L 151 35.5 L 147 41 L 143 43.5 Q 143.8 45.8 141.5 45 L 139 49 L 135 51.5 Q 135.8 54.1 132.5 53 L 129.5 57 L 106 76.5 Q 106.8 79.1 103.5 78 L 100.5 82 Q 97.2 80.9 98 83.5 L 69 111.5 L 67.5 114 Q 65.3 113.3 66 115.5 L 62 118 L 59.5 122 Q 57.3 121.3 58 123.5 L 54 126 L 51.5 130 Q 49.3 129.3 50 131.5 L 14.5 165 L 14 163 L 17 161.5 Q 15.9 158.2 18.5 159 L 21 155 L 25 152.5 Q 24.2 149.9 27.5 151 L 30.5 147 L 34 144.5 L 39.5 138 L 42 136.5 L 43.5 134 Q 46.8 135.1 46 132.5 L 50 130 L 52.5 126 Q 54.8 126.8 54 124.5 L 58 122 L 60.5 118 Q 62.8 118.8 62 116.5 L 66 114 L 67 110 L 70 108.5 L 71.5 106 L 74 104.5 L 75.5 102 L 78 100.5 L 79.5 98 L 82 96.5 L 83.5 94 L 86 92.5 L 87.5 90 L 90 88.5 L 91.5 86 L 98 82 Q 96.9 79.3 99.5 80 L 110 72 Q 108.9 69.3 111.5 70 L 114 66 Q 117.8 66.8 119 63.5 Q 118.2 60.9 121.5 62 L 125.5 57 L 148 36.5 L 151.5 32 Z "></path><path fill="rgb(0,254,133)" stroke="rgb(0,254,133)" stroke-width="1" opacity="0.6078431372549019" d="M 215.5 40 L 217 40.5 L 216 45 Q 213.3 43.9 214 46.5 L 209.5 52 L 207 53.5 L 202 62 Q 199 60.8 200 64.5 L 188.5 78 Q 186.3 77.3 187 79.5 L 186 82 L 183 83.5 L 181.5 86 L 175 90 L 172.5 94 L 164 100 Q 165.1 102.7 162.5 102 L 155 108.5 Q 155.8 111.1 152.5 110 L 149.5 114 L 147 115.5 Q 147.8 117.8 145.5 117 L 143 118 Q 144.1 120.7 141.5 120 L 133 126 L 133 128 L 131 128 Q 132.1 130.7 129.5 130 L 127 134 L 123 136.5 Q 123.8 138.8 121.5 138 L 119 142 L 114 145.5 Q 114.8 147.8 112.5 147 L 101 161 L 82 177 Q 83.1 179.7 80.5 179 L 78 183 L 74 185.5 Q 74.8 187.8 72.5 187 L 70 191 L 66.5 192 L 82.5 175 L 86 172.5 Q 85.3 170.3 87.5 171 L 90 167 L 94 164.5 Q 93.3 162.3 95.5 163 L 98 159 L 102 156.5 Q 101.3 154.3 103.5 155 L 106 151 L 109 149.5 L 114 142 L 131 128 Q 129.9 125.3 132.5 126 L 135 122 L 139 120.5 L 140.5 118 Q 143.8 119.1 143 116.5 L 167 96.5 L 168.5 94 L 175 90 L 177.5 86 Q 179.8 86.8 179 84.5 L 183 82 L 185.5 78 Q 187.8 78.8 187 76.5 L 195 66 Q 197.7 67.1 197 64.5 L 210 47.5 L 212 41 L 215.5 40 Z "></path><path fill="rgb(0,254,133)" stroke="rgb(0,254,133)" stroke-width="1" opacity="0.6078431372549019" d="M 71.5 203 Q 74.8 201.9 74 204.5 L 98 226.5 L 99.5 229 Q 101.8 228.3 101 230.5 L 106 234.5 Q 105.3 236.8 107.5 236 L 110 240 L 114 241.5 L 115.5 244 L 123 249.5 Q 122.3 251.8 124.5 251 L 127 252 L 129.5 256 L 143 266.5 Q 142.2 269.1 145.5 268 L 148.5 272 Q 151.8 270.9 151 273.5 L 155 276 Q 153.9 278.7 156.5 278 L 179 296 L 180.5 299 L 195 311.5 Q 195.8 313.8 193.5 313 L 189.5 308 Q 186.2 309.1 187 306.5 L 183 304 L 180.5 300 L 167 289.5 Q 167.8 286.9 164.5 288 L 161.5 284 Q 158.2 285.1 159 282.5 L 135 262.5 Q 135.8 260.3 133.5 261 L 131 260 L 129.5 257 L 106 237.5 Q 106.8 235.3 104.5 236 L 102 232 L 98 229.5 L 98 228 Q 94.2 229.5 95 226.5 L 92.5 223 L 90 221.5 Q 90.8 219.3 88.5 220 L 86 219 L 83.5 215 Q 81.3 215.8 82 213.5 L 78 211 Q 79.1 208.3 76.5 209 L 71.5 203 Z "></path><path fill="rgb(0,254,133)" stroke="rgb(0,254,133)" stroke-width="1" opacity="0.6078431372549019" d="M 3.5 215 L 9 219.5 L 11.5 223 Q 14.1 222.2 13 225.5 L 17 228 L 19.5 232 L 42 250.5 Q 41.3 252.8 43.5 252 L 46 256 L 50 258.5 Q 49.3 260.8 51.5 260 L 54 264 Q 57.8 262.5 57 265.5 L 58 268 L 62 269.5 L 63.5 272 L 66 273.5 L 67.5 276 L 70 277.5 L 71.5 280 L 78 284 L 80.5 288 L 94 298.5 Q 93.3 300.8 95.5 300 L 98 301 L 99.5 304 L 114 315 Q 112.9 317.7 115.5 317 L 123 323.5 Q 122.2 326.1 125.5 325 L 128.5 329 Q 131.8 327.9 131 330.5 L 147 343.5 Q 146.3 345.8 148.5 345 L 155 350.5 L 152.5 351 L 147 346.5 Q 147.8 344.3 145.5 345 L 143 341 L 140.5 341 L 135 337 L 133.5 334 L 119 322.5 Q 119.8 319.9 116.5 321 L 114 317 L 110 316 L 108.5 313 L 94 301.5 Q 94.8 299.3 92.5 300 L 90 299 L 88.5 296 L 62 274 Q 63.1 271.3 60.5 272 L 58 268 L 54 265.5 L 54 264 L 52 264 L 52 262 L 50 262 Q 51.1 259.3 48.5 260 L 46 256 L 42 253.5 Q 42.8 251.3 40.5 252 L 34 246.5 Q 34.8 244.3 32.5 245 L 29 242.5 L 27.5 240 Q 24.2 241.1 25 238.5 L 7 221.5 L 3.5 215 Z "></path><path fill="rgb(0,254,133)" stroke="rgb(0,254,133)" stroke-width="1" opacity="0.6078431372549019" d="M 205 322 Q 207.7 320.9 207 323.5 L 211 326 L 213.5 330 L 216 331.5 L 227 345 L 230 346.5 Q 229.3 348.8 231.5 348 L 232.5 350 Q 228.5 350.5 228 347.5 L 226.5 345 L 224 343.5 L 222.5 341 L 220 339.5 L 218.5 337 L 216 335.5 L 214.5 333 L 212 331.5 L 210.5 329 L 208 327.5 L 205 322 Z "></path><path fill="rgb(17,155,251)" stroke="rgb(17,155,251)" stroke-width="1" opacity="0.09019607843137255" d="M 324.5 0 L 325 1.5 L 320.5 8 L 319 7.5 L 324.5 0 Z "></path><path fill="rgb(17,155,251)" stroke="rgb(17,155,251)" stroke-width="1" opacity="0.09019607843137255" d="M 399.5 20 L 400 23.5 L 393 29 Q 392.4 35.5 388 39.5 L 357.5 73 L 324 101.5 Q 324.8 103.8 322.5 103 L 295 126 L 292.5 130 L 286 135.5 L 282.5 140 L 280 141.5 Q 280.8 143.8 278.5 143 L 259.5 164 L 252.5 170 L 245 179 L 238 183 L 236.5 186 L 226 195.5 L 224.5 198 L 216 205.5 L 220.5 211 L 229 217 L 230.5 220 L 239 226 L 240.5 229 L 269.5 257 L 271 257 L 272.5 260 L 366.5 339 L 391 361.5 L 393 366 L 399 370.5 L 400 372.5 L 394.5 368 Q 392.3 368.8 393 366.5 L 381.5 354 L 377.5 352 L 359.5 335 L 281.5 270 Q 249.3 236.7 214 206.5 L 236.5 183 L 264 157.5 L 294.5 125 Q 332.5 95 367 61.5 L 399.5 20 Z "></path><path fill="rgb(17,155,251)" stroke="rgb(17,155,251)" stroke-width="1" opacity="0.09019607843137255" d="M 305.5 22 L 307 22.5 L 253.5 68 L 219 102.5 L 193.5 129 L 180 140.5 L 170.5 151 L 158 162.5 L 154.5 167 Q 141.3 169.8 134 178.5 L 126.5 193 L 126 190.5 Q 130.4 178.9 139.5 172 L 155 164.5 L 170.5 148 L 177 142.5 L 186.5 132 L 195 125.5 L 197.5 122 L 202 118.5 Q 201.3 116.3 203.5 117 L 224 95.5 L 224 94 L 225.5 94 L 234 85.5 Q 233.3 82.9 236 84 L 236 82 L 237.5 82 L 240.5 78 L 254 67 Q 252.9 64.3 255.5 65 L 301.5 25 L 303 25 Q 301.9 22.3 304.5 23 L 305.5 22 Z "></path><path fill="rgb(17,155,251)" stroke="rgb(17,155,251)" stroke-width="1" opacity="0.09019607843137255" d="M 122.5 60 L 121.5 62 L 122.5 60 Z "></path><path fill="rgb(17,155,251)" stroke="rgb(17,155,251)" stroke-width="1" opacity="0.09019607843137255" d="M 193.5 72 L 192.5 74 L 193.5 72 Z "></path><path fill="rgb(17,155,251)" stroke="rgb(17,155,251)" stroke-width="1" opacity="0.09019607843137255" d="M 170.5 95 L 169.5 97 L 170.5 95 Z "></path><path fill="rgb(17,155,251)" stroke="rgb(17,155,251)" stroke-width="1" opacity="0.09019607843137255" d="M 41.5 136 L 40.5 138 L 41.5 136 Z "></path><path fill="rgb(17,155,251)" stroke="rgb(17,155,251)" stroke-width="1" opacity="0.09019607843137255" d="M 120.5 139 L 119.5 141 L 120.5 139 Z "></path><path fill="rgb(17,155,251)" stroke="rgb(17,155,251)" stroke-width="1" opacity="0.09019607843137255" d="M 28.5 149 L 27.5 151 L 28.5 149 Z "></path><path fill="rgb(17,155,251)" stroke="rgb(17,155,251)" stroke-width="1" opacity="0.09019607843137255" d="M 105.5 155 L 101.5 160 L 105.5 155 Z "></path><path fill="rgb(17,155,251)" stroke="rgb(17,155,251)" stroke-width="1" opacity="0.09019607843137255" d="M 72.5 187 L 71.5 189 L 72.5 187 Z "></path><path fill="rgb(17,155,251)" stroke="rgb(17,155,251)" stroke-width="1" opacity="0.09019607843137255" d="M 125.5 204 L 127 213.5 Q 130.9 223.6 138.5 230 L 143 233.5 Q 150.3 245.7 161.5 254 L 186.5 275 L 238.5 325 L 285 363.5 L 283.5 364 L 228.5 318 L 185.5 276 Q 163 259 144 238.5 L 142 234.5 L 129 220.5 L 125 210.5 L 125.5 204 Z "></path><path fill="rgb(17,155,251)" stroke="rgb(17,155,251)" stroke-width="1" opacity="0.09019607843137255" d="M 117.5 244 L 118.5 246 L 117.5 244 Z "></path><path fill="rgb(17,155,251)" stroke="rgb(17,155,251)" stroke-width="1" opacity="0.09019607843137255" d="M 38.5 250 L 39.5 252 L 38.5 250 Z "></path><path fill="rgb(17,155,251)" stroke="rgb(17,155,251)" stroke-width="1" opacity="0.09019607843137255" d="M 128.5 254 L 129.5 256 L 128.5 254 Z "></path><path fill="rgb(17,155,251)" stroke="rgb(17,155,251)" stroke-width="1" opacity="0.09019607843137255" d="M 63.5 274 L 64.5 276 L 63.5 274 Z "></path><path fill="rgb(17,155,251)" stroke="rgb(17,155,251)" stroke-width="1" opacity="0.09019607843137255" d="M 159.5 280 L 161.5 283 L 159.5 280 Z "></path><path fill="rgb(17,155,251)" stroke="rgb(17,155,251)" stroke-width="1" opacity="0.09019607843137255" d="M 73.5 283 L 74.5 285 L 73.5 283 Z "></path><path fill="rgb(17,155,251)" stroke="rgb(17,155,251)" stroke-width="1" opacity="0.09019607843137255" d="M 217.5 333 L 219.5 336 L 217.5 333 Z "></path><path fill="rgb(17,155,251)" stroke="rgb(17,155,251)" stroke-width="1" opacity="0.09019607843137255" d="M 133.5 334 L 134.5 336 L 133.5 334 Z "></path><path fill="rgb(17,155,251)" stroke="rgb(17,155,251)" stroke-width="1" opacity="0.09019607843137255" d="M 304.5 381 Q 316.8 388.7 326 399.5 L 324.5 400 L 308.5 386 L 304.5 381 Z "></path><path fill="rgb(214,7,253)" stroke="rgb(214,7,253)" stroke-width="1" opacity="0.996078431372549" d="M 360.5 0 Q 366.6 -1.3 366 1.5 L 368 9 L 311.5 20 L 303.5 23 L 289.5 25 L 284.5 27 L 240.5 35 L 220.5 40 L 213.5 40 L 177.5 48 L 175 38 L 212.5 31 L 214.5 29 L 253.5 22 L 258.5 20 L 302.5 12 L 317.5 8 L 324.5 8 L 360.5 0 Z "></path><path fill="rgb(214,7,253)" stroke="rgb(214,7,253)" stroke-width="1" opacity="0.996078431372549" d="M 22 192 L 65.5 193 L 66.5 192 L 92.5 192 L 93.5 193 L 168 194 L 168 204 L 141.5 204 L 140.5 203 L 125.5 203 L 124.5 204 L 97.5 204 L 96.5 203 L 68.5 203 L 67.5 202 L 22 202 L 22 192 Z "></path><path fill="rgb(214,7,253)" stroke="rgb(214,7,253)" stroke-width="1" opacity="0.996078431372549" d="M 174 336 L 182.5 337 L 232.5 351 L 234.5 351 L 267.5 359 L 295.5 368 L 365 386 L 363 395 L 354.5 394 L 304.5 380 L 299.5 380 L 295.5 378 L 194.5 352 L 189.5 349 L 172 345 L 174 336 Z "></path><path fill="rgb(0,254,134)" stroke="rgb(0,254,134)" stroke-width="1" opacity="0.996078431372549" d="M 204.5 30 L 205.5 32 Q 202.7 32.7 204.5 30 Z "></path><path fill="rgb(0,254,134)" stroke="rgb(0,254,134)" stroke-width="1" opacity="0.996078431372549" d="M 150.5 36 L 150 37.5 L 149.5 41 L 149 37.5 L 150.5 36 Z "></path><path fill="rgb(0,254,134)" stroke="rgb(0,254,134)" stroke-width="1" opacity="0.996078431372549" d="M 207.5 42 L 210 45.5 L 208 45.5 Q 209.3 52.8 204.5 54 L 205 52.5 L 207.5 42 Z "></path><path fill="rgb(0,254,134)" stroke="rgb(0,254,134)" stroke-width="1" opacity="0.996078431372549" d="M 194.5 66 L 195 67.5 L 192.5 70 L 182.5 73 L 184.5 70 L 188.5 70 L 194.5 66 Z "></path><path fill="rgb(0,254,134)" stroke="rgb(0,254,134)" stroke-width="1" opacity="0.996078431372549" d="M 177.5 71 L 181 72.5 L 179.5 73 L 177.5 71 Z "></path><path fill="rgb(0,254,134)" stroke="rgb(0,254,134)" stroke-width="1" opacity="0.996078431372549" d="M 17.5 163 L 27.5 163 L 29 164.5 L 27.5 164 L 17.5 164 L 17.5 163 Z "></path><path fill="rgb(0,254,134)" stroke="rgb(0,254,134)" stroke-width="1" opacity="0.996078431372549" d="M 87.5 169 L 86.5 171 L 87.5 169 Z "></path><path fill="rgb(0,254,134)" stroke="rgb(0,254,134)" stroke-width="1" opacity="0.996078431372549" d="M 39.5 202 L 53 202.5 L 39.5 203 L 39.5 202 Z "></path><path fill="rgb(0,254,134)" stroke="rgb(0,254,134)" stroke-width="1" opacity="0.996078431372549" d="M 70.5 204 L 71.5 206 L 70.5 204 Z "></path><path fill="rgb(0,254,134)" stroke="rgb(0,254,134)" stroke-width="1" opacity="0.996078431372549" d="M 7.5 217 L 9.5 219 L 12.5 219 L 14.5 221 L 23.5 224 L 25.5 223 L 24.5 225 L 13.5 222 Q 12.3 224.2 11 221.5 Q 11.8 219.3 9.5 220 L 7.5 217 Z "></path><path fill="rgb(0,254,134)" stroke="rgb(0,254,134)" stroke-width="1" opacity="0.996078431372549" d="M 179.5 308 Q 188.9 306.6 192 311.5 L 190.5 311 Q 186.9 308.1 179.5 309 L 179.5 308 Z "></path><path fill="rgb(0,254,134)" stroke="rgb(0,254,134)" stroke-width="1" opacity="0.996078431372549" d="M 122.5 322 L 123.5 324 L 122.5 322 Z "></path><path fill="rgb(0,254,134)" stroke="rgb(0,254,134)" stroke-width="1" opacity="0.996078431372549" d="M 127.5 326 L 128.5 328 Q 125.7 328.7 127.5 326 Z "></path><path fill="rgb(0,254,134)" stroke="rgb(0,254,134)" stroke-width="1" opacity="0.996078431372549" d="M 208.5 329 L 210 335.5 L 209 335.5 L 208.5 329 Z "></path><path fill="rgb(0,254,134)" stroke="rgb(0,254,134)" stroke-width="1" opacity="0.996078431372549" d="M 152.5 343 Q 155.1 342.2 154 345.5 L 155 348.5 L 153 347.5 L 152.5 343 Z "></path><path fill="rgb(0,132,255)" stroke="rgb(0,132,255)" stroke-width="1" opacity="0.9882352941176471" d="M 389 0 L 396.5 0 L 397 1.5 L 398 2.5 L 398 15.5 Q 395.9 24.4 390.5 30 L 390 28.5 L 392 24.5 L 393 14.5 Q 390.5 13 392 7.5 L 389 0 Z "></path><path fill="rgb(0,132,255)" stroke="rgb(0,132,255)" stroke-width="1" opacity="0.9882352941176471" d="M 314.5 20 L 317 20.5 L 314 22 L 311.5 27 L 307 28.5 L 308 31 L 302 33 L 301 37 L 298 37.5 L 300 38.5 L 297.5 40 L 297.5 38 L 294.5 40 L 293.5 43 L 292 43.5 L 292.5 45 L 289.5 44 L 288 45.5 L 290 48.5 L 286 48.5 L 285.5 50 Q 284.3 47.8 283 50.5 L 281.5 53 L 279.5 52 L 279 55 L 277 55.5 L 278 57.5 L 277 57.5 L 276.5 56 L 270 61.5 L 267.5 65 Q 265.3 64.3 266 66.5 L 266.5 68 L 264.5 67 L 263 70 Q 259.3 68.5 260 71.5 L 260.5 73 L 256 73 Q 257.1 75.7 254.5 75 L 255.5 78 L 253.5 77 L 248.5 83 L 246 83.5 L 246.5 85 L 243 86 Q 244.5 89.8 241.5 89 Q 240.3 86.8 239 89.5 L 239 92 Q 236.3 90.9 237 93.5 L 236 96 L 230 98 L 231 100.5 L 228 102 L 227.5 105 L 226.5 103 L 226 106 Q 222.3 104.5 223 107.5 L 222.5 110 L 220 108.5 L 216.5 116 Q 215.3 113.7 214 116.5 L 214.5 118 L 212.5 119 L 211 118.5 L 206.5 125 L 205 124.5 L 204.5 127 L 203 126.5 L 201.5 129 L 198 130.5 L 200 131.5 L 198.5 132 L 197 131.5 L 195.5 135 L 194 135 L 194 137 Q 191.3 135.9 192 138.5 L 190.5 142 L 189.5 139 L 189 141 L 186 142.5 L 186.5 144 L 185 144.5 L 185.5 146 Q 184 143.5 182.5 147 L 180 147.5 L 181 150 L 177 151.5 L 177.5 153 Q 176.3 150.8 175 153.5 L 176 156 L 173.5 155 L 173 156.5 L 173.5 158 L 171 159.5 L 170.5 161 L 169 160.5 L 170 162.5 L 168.5 162 L 166 163.5 L 168 164.5 L 164 165.5 L 164.5 167 L 162.5 166 Q 161.3 168.3 156.5 167 L 183.5 139 L 203.5 120 L 205 120 L 206.5 117 L 215 109.5 L 236.5 86 L 308.5 22 L 314.5 20 Z "></path><path fill="rgb(0,132,255)" stroke="rgb(0,132,255)" stroke-width="1" opacity="0.9882352941176471" d="M 378.5 44 L 379 45.5 L 352.5 74 L 300.5 118 L 265 153.5 L 246.5 173 L 213 204.5 L 212 206.5 Q 246.4 235.6 277.5 268 L 356.5 334 L 373 349.5 L 371.5 350 L 361 347.5 L 362.5 345 L 354 340.5 L 354.5 339 L 350 336.5 L 350.5 335 L 348.5 334 L 347 334.5 L 346.5 333 L 344 334.5 Q 343.3 332.3 345.5 333 L 346.5 331 L 344.5 330 L 343 330.5 L 340.5 327 L 338 325.5 L 338.5 324 L 335 324 L 335 322 L 333 322 Q 334.1 319.3 331.5 320 Q 329.8 316.9 328 318.5 L 329 317.5 L 326 314.5 L 325.5 313 L 322 313.5 L 322.5 312 Q 319.2 313.1 320 310.5 L 318.5 308 Q 317.3 310.3 316 307.5 Q 316.8 305.3 314.5 306 L 311.5 302 L 308.5 300 L 307 300.5 L 308 298.5 L 305 298 L 301.5 293 L 300 293.5 L 299.5 292 L 297.5 293 L 297.5 292 L 299 291.5 L 296.5 291 L 295 291.5 L 296 289.5 L 293 288 Q 294.1 284.7 290 286 L 290 283.5 L 287.5 285 L 285 283.5 L 286.5 283 L 288 283.5 L 286.5 281 Q 283.2 282.1 284 279.5 L 280 277.5 Q 282.3 276.3 279.5 275 Q 276.5 275.7 278 272 L 275.5 272 Q 274.3 274.3 273 271.5 L 270.5 266 L 269 266.5 Q 269.8 264.3 267.5 265 L 264 262.5 Q 266.3 261.2 263.5 260 L 262 260.5 L 263 258 L 259.5 259 L 259 257.5 L 259.5 256 Q 257.3 256.8 258 254.5 L 257 254.5 L 256.5 256 L 256 254.5 L 256.5 253 L 252 251 L 251.5 248 L 249.5 249 L 249 246.5 L 248.5 245 L 247 245.5 L 246.5 244 L 244.5 245 L 244.5 244 L 246 243.5 L 244 243 Q 245.1 240.3 242.5 241 L 240 240 L 239.5 237 L 238.5 239 L 237.5 236 Q 235.3 236.8 236 234.5 L 234 234.5 Q 235.5 230.1 232.5 231 L 231 230.5 L 230.5 232 L 230 230.5 Q 232.8 228.8 228.5 227 L 226 226.5 L 226.5 225 L 223.5 223 L 222 223.5 L 220.5 220 L 217.5 218 L 213 214.5 L 212.5 216 L 210 212.5 L 210.5 211 L 209 210.5 L 211 206.5 L 210 203.5 Q 210.3 197.8 213.5 195 L 216 196 L 217.5 193 Q 219.8 193.8 219 191.5 L 223 190 L 224.5 186 Q 228.9 187.5 228 184.5 L 227.5 183 L 230 182.5 L 229.5 181 Q 230.8 183.3 232 180.5 L 231.5 179 L 236 177.5 L 235.5 176 L 237 175.5 L 236.5 174 L 238 174.5 L 239.5 171 L 242 169.5 Q 241.3 167.3 243.5 168 L 246 167 L 245 163 L 248.5 164 L 248.5 162 L 251.5 163 L 252.5 160 L 254 159.5 L 254 157.5 L 255.5 154 L 258.5 155 L 258 153.5 Q 257.3 151.3 259.5 152 L 261 152.5 L 260 150.5 L 265 147.5 L 264.5 146 L 266 146.5 L 266.5 143 L 267.5 145 L 271 143 L 270 140.5 L 272.5 137 L 272.5 139 L 278 134.5 Q 277.2 131.9 280.5 133 L 286.5 125 L 289 123.5 Q 288.3 121.3 290.5 122 L 293 120.5 L 292.5 119 L 296 117.5 L 297.5 115 L 301 113.5 Q 298.7 112.3 301.5 111 L 303 111.5 L 304 108 L 307 108 L 307 104 L 311 104 L 311 102.5 L 316 99.5 L 315 97.5 L 316 97.5 L 316.5 99 L 319 97.5 L 317.5 95 L 320 96.5 L 320 95 L 323 95 L 323 93 L 325 93 Q 323.9 90.3 326.5 91 L 326.5 90 L 325 89.5 L 328 89 L 329.5 86 L 329.5 88 Q 332.5 88.9 331 84.5 L 333 84.5 Q 332.3 82.3 334.5 83 L 335.5 80 L 338.5 81 L 338 79.5 L 338.5 77 L 340.5 78 L 342 75 Q 345.8 76.5 345 73.5 L 346 71 L 350 68.5 L 349 66.5 L 352 67.5 L 351 65.5 L 355 64.5 L 354 62.5 L 355 62.5 L 355.5 64 L 356 62 L 358 61.5 L 356.5 59 L 360 58.5 L 359.5 57 Q 362.8 58.1 362 55.5 L 365 53.5 L 364.5 52 L 366.5 53 L 366.5 51 L 378.5 44 Z M 249 325 L 250 327 Q 251 324 249 325 Z "></path><path fill="rgb(0,132,255)" stroke="rgb(0,132,255)" stroke-width="1" opacity="0.9882352941176471" d="M 227.5 228 L 228.5 230 L 226.5 230 L 225 229.5 L 227.5 228 Z "></path><path fill="rgb(0,132,255)" stroke="rgb(0,132,255)" stroke-width="1" opacity="0.9882352941176471" d="M 144.5 233 L 154.5 239 Q 155.8 236.8 157 239.5 L 159 242.5 L 161 242.5 L 165.5 248 L 168 248.5 Q 165.3 250.2 169.5 252 L 171 252.5 L 170 255 L 173 256.5 L 173.5 258 L 174.5 256 L 177.5 260 L 176 259.5 Q 175.2 262.1 178.5 261 L 181 259.5 L 180 262.5 L 182.5 265 L 188 267.5 L 187 270 L 190.5 272 L 192 271.5 Q 189.7 272.8 192.5 274 Q 194.8 273.3 194 275.5 L 202 282.5 Q 201.2 285.1 204.5 284 L 206.5 287 L 208 286.5 L 208 288.5 L 208.5 290 L 209.5 288 L 211.5 292 L 213.5 291 L 214 293.5 Q 213.3 295.8 215.5 295 L 221 299 L 221 301 L 223 301 L 223 303 Q 225.7 301.9 225 304.5 Q 227.6 309.3 233 310 L 236.5 315 L 238.5 314 L 238 315.5 L 242.5 320 L 245 320.5 L 243 321.5 L 248.5 324 L 250 323.5 L 253 330 L 258.5 332 L 260 331.5 L 258 334.5 L 262 336.5 L 261.5 338 L 267 340.5 L 267.5 342 Q 269.3 339.3 271 343.5 L 272.5 346 L 274 345.5 L 273.5 347 L 277 348 L 277.5 351 L 279 350.5 L 278.5 352 L 281 352.5 L 280.5 354 L 284 353 Q 283 356.8 285.5 358 L 286 356 L 289 357.5 Q 286.8 358.8 289.5 360 L 291 359.5 L 291 361.5 Q 290.2 364.1 293.5 363 L 294.5 366 L 297.5 365 L 297.5 368 L 286.5 364 L 240.5 325 L 149 239.5 L 144.5 233 Z "></path><path fill="rgb(0,132,255)" stroke="rgb(0,132,255)" stroke-width="1" opacity="0.9882352941176471" d="M 172.5 253 L 173.5 255 L 172.5 253 Z "></path><path fill="rgb(0,132,255)" stroke="rgb(0,132,255)" stroke-width="1" opacity="0.9882352941176471" d="M 254.5 327 L 255.5 329 Q 252.7 329.7 254.5 327 Z "></path><path fill="rgb(0,132,255)" stroke="rgb(0,132,255)" stroke-width="1" opacity="0.9882352941176471" d="M 393.5 369 L 400 375.5 L 400 382.5 L 398 381.5 L 398.5 380 L 396.5 381 L 397 377.5 L 395 375.5 L 393.5 369 Z "></path><path fill="rgb(0,132,255)" stroke="rgb(0,132,255)" stroke-width="1" opacity="0.9882352941176471" d="M 309.5 382 L 318 384 L 318.5 386 Q 319.8 383.8 321 386.5 L 323.5 390 L 325 389.5 L 330 399.5 L 328.5 400 L 311.5 385 L 309.5 382 Z "></path><path fill="rgb(0,255,135)" stroke="rgb(0,255,135)" stroke-width="1" opacity="1" d="M 205.5 30 L 209 30.5 L 205.5 31 L 205.5 30 Z "></path><path fill="rgb(0,255,135)" stroke="rgb(0,255,135)" stroke-width="1" opacity="1" d="M 148.5 38 L 150 42.5 L 150 46.5 L 149 48.5 L 151 49 L 152 55.5 L 156.5 62 L 159 63.5 L 160.5 66 L 162.5 66 L 167.5 70 L 178.5 72 L 182.5 71 L 182.5 73 L 185 72.5 L 184.5 71 L 187.5 72 L 191.5 70 L 191 71.5 L 187.5 76 L 186 76.5 L 186.5 78 L 183 80.5 Q 183.8 82.8 181.5 82 L 179 86 L 175 88.5 Q 175.8 90.8 173.5 90 L 167 95.5 L 165.5 98 L 164 97.5 L 160.5 102 L 152.5 109 L 151 108.5 L 149.5 111 L 147 111.5 Q 149.3 112.8 146.5 114 L 142 116.5 L 142.5 118 L 139 119.5 L 137.5 122 Q 134.2 120.9 135 123.5 L 131 126 Q 132.1 128.7 129.5 128 L 115.5 142 L 114 142 L 107.5 151 L 105 152.5 L 103.5 155 Q 101.3 154.3 102 156.5 L 98 159 L 95.5 163 Q 93.3 162.3 94 164.5 L 90 167 L 87.5 171 L 86 170.5 Q 86.5 174.5 83.5 175 L 76 180 L 76 182 Q 73.3 180.9 74 183.5 L 65.5 192 L 63.5 192 L 54.5 192 L 54 189.5 Q 56.5 188 53 186.5 L 53 183.5 L 47.5 174 L 46 174.5 L 43.5 171 L 37.5 167 L 34.5 167 L 28.5 164 L 27 164.5 L 27.5 163 L 18 162.5 L 37.5 143 L 39 143 Q 37.8 140 41.5 141 L 41 139.5 L 46.5 134 L 50 131.5 Q 49.3 129.3 51.5 130 L 54 126 L 58 123.5 Q 57.3 121.3 59.5 122 L 62 118 L 66 115.5 Q 65.3 113.3 67.5 114 L 84.5 96 Q 87.1 96.7 86 94 L 88.5 94 L 88 92.5 L 94.5 86 L 98 83.5 Q 97.2 80.9 100.5 82 L 103.5 78 Q 104.8 80.3 106 77.5 L 108.5 74 L 131 55.5 L 132.5 53 Q 135.8 54.1 135 51.5 L 139 49 L 141.5 45 Q 143.8 45.8 143 43.5 L 147 41 L 148.5 38 Z "></path><path fill="rgb(0,255,135)" stroke="rgb(0,255,135)" stroke-width="1" opacity="1" d="M 211.5 41 L 212 43.5 L 208.5 49 L 208 45.5 L 209 43.5 L 208.5 42 L 211.5 41 Z "></path><path fill="rgb(0,255,135)" stroke="rgb(0,255,135)" stroke-width="1" opacity="1" d="M 52 203 L 70.5 203 L 78 209 L 78.5 212 L 80 211.5 L 80 213 L 82 213 Q 80.9 215.7 83.5 215 L 86 219 L 90 220 L 91.5 223 L 94 224.5 L 95 228 Q 98.8 226.5 98 229.5 L 100.5 233 L 102 232.5 L 104.5 236 Q 106.8 235.3 106 237.5 L 123 252.5 L 123.5 254 L 124.5 253 L 128.5 257 L 131 258.5 Q 130.3 260.8 132.5 260 L 135 261 L 136.5 264 L 145 270.5 Q 144.3 272.8 146.5 272 L 159 282.5 Q 158.2 285.1 161.5 284 L 164.5 288 L 167 288.5 L 166.5 290 L 183 302.5 Q 182.3 304.8 184.5 304 L 187 308 L 191 309.5 L 189.5 309 L 179.5 308 L 163 315 Q 164.1 317.7 161.5 317 L 155 325.5 L 154 332.5 L 152 334.5 L 153 339.5 L 152 341.5 L 153 344.5 Q 152.3 348.8 155 349.5 L 153.5 349 L 131 330.5 Q 131.8 327.9 128.5 329 L 127.5 326 L 123 324.5 Q 125.2 323.3 122.5 322 L 114 317 Q 115.1 314.3 112.5 315 L 107 308 L 104.5 308 L 98 302.5 Q 98.8 300.3 96.5 301 L 94 300 L 92.5 297 L 86 293 Q 87.1 290.3 84.5 291 L 78 285.5 Q 78.8 283.3 76.5 284 L 70 278.5 L 68.5 276 L 66 274.5 L 64.5 272 L 62 270.5 L 60.5 268 Q 57.2 269.1 58 266.5 L 57 264 Q 53.2 265.5 54 262.5 L 50 260 L 47.5 256 Q 45.3 256.8 46 254.5 L 42 252 L 40.5 249 L 37.5 247 L 31 241.5 Q 31.8 239.3 29.5 240 L 25 236.5 Q 25.8 234.3 23.5 235 L 17 229.5 Q 17.8 227.3 15.5 228 Q 12.3 226.7 12.5 222 Q 10.8 224.8 9 220.5 L 11 220 L 11.5 222 Q 13 219.5 14.5 223 L 21.5 224 L 23.5 223 L 23.5 224 L 22 224.5 L 24.5 225 L 29.5 222 Q 31 224.5 32.5 221 Q 41.1 219.1 46 213.5 L 47.5 211 L 50 209.5 L 52 203 Z "></path><path fill="rgb(0,255,135)" stroke="rgb(0,255,135)" stroke-width="1" opacity="1" d="M 208.5 328 L 212 330.5 L 213.5 333 L 216 334.5 L 217.5 337 L 220 338.5 L 221.5 341 L 224 342.5 L 225.5 345 L 228 346.5 L 229 348.5 L 226.5 349 L 208 343.5 L 210 332.5 L 208.5 328 Z "></path><path fill="rgb(0,251,255)" stroke="rgb(0,251,255)" stroke-width="1" opacity="0.9921568627450981" d="M 325 0 L 358 0.5 L 323 7 L 325 0 Z "></path><path fill="rgb(0,251,255)" stroke="rgb(0,251,255)" stroke-width="1" opacity="0.9921568627450981" d="M 367 0 L 388.5 0 L 389 1.5 L 392 7.5 L 393 18.5 L 389 32.5 L 379.5 44 L 364.5 51 L 350.5 51 Q 335.4 47.6 328 36.5 L 323 26.5 L 322 19.5 L 327.5 17 L 356.5 12 L 368 9 L 367 0 Z "></path><path fill="rgb(0,251,255)" stroke="rgb(0,251,255)" stroke-width="1" opacity="0.9921568627450981" d="M 153.5 167 L 168.5 167 L 177.5 169 Q 190.1 173.4 197 183.5 L 202 194.5 L 203 208.5 Q 199.8 225.3 187.5 233 Q 178.2 240.7 160.5 240 Q 143.8 236.2 134 225.5 L 127 213.5 L 126 204 L 167.5 204 L 168 203.5 L 168 194 L 127 193 Q 129.4 181.6 137.5 175 L 153.5 167 Z "></path><path fill="rgb(0,251,255)" stroke="rgb(0,251,255)" stroke-width="1" opacity="0.9921568627450981" d="M 355.5 348 Q 380.8 347.2 390 362.5 L 396 376.5 L 396 389.5 L 391.5 400 L 330.5 400 L 329 398.5 L 326 390.5 L 326 386.5 L 327.5 387 L 363 396 L 365 386.5 L 363.5 385 L 327 376 Q 329.5 362.3 339.5 355 Q 345.9 349.9 355.5 348 Z "></path><path fill="rgb(10,126,255)" stroke="rgb(10,126,255)" stroke-width="1" opacity="0.9882352941176471" d="M 316.5 19 L 319 19.5 L 316.5 20 L 316.5 19 Z "></path><path fill="rgb(10,126,255)" stroke="rgb(10,126,255)" stroke-width="1" opacity="0.9882352941176471" d="M 311.5 20 L 314 20.5 L 311.5 21 L 311.5 20 Z "></path><path fill="rgb(10,126,255)" stroke="rgb(10,126,255)" stroke-width="1" opacity="0.9882352941176471" d="M 49.5 192 L 65 192.5 L 49.5 193 L 49.5 192 Z "></path><path fill="rgb(10,126,255)" stroke="rgb(10,126,255)" stroke-width="1" opacity="0.9882352941176471" d="M 127.5 193 L 151 193.5 L 127.5 194 L 127.5 193 Z "></path><path fill="rgb(10,126,255)" stroke="rgb(10,126,255)" stroke-width="1" opacity="0.9882352941176471" d="M 53.5 202 L 68 202.5 L 53.5 203 L 53.5 202 Z "></path><path fill="rgb(10,126,255)" stroke="rgb(10,126,255)" stroke-width="1" opacity="0.9882352941176471" d="M 126.5 203 L 141 203.5 L 126.5 204 L 126.5 203 Z "></path><path fill="rgb(10,126,255)" stroke="rgb(10,126,255)" stroke-width="1" opacity="0.9882352941176471" d="M 360.5 395 L 363 395.5 L 360.5 396 L 360.5 395 Z "></path><path fill="rgb(0,254,16)" stroke="rgb(0,254,16)" stroke-width="1" opacity="0.9882352941176471" d="M 151 30 L 203.5 30 L 204 32 L 175 38 L 176 46.5 L 177.5 48 L 207 42 L 204 56.5 L 200 61.5 L 200.5 63 L 199.5 62 L 195.5 66 L 188.5 70 L 172.5 71 L 167.5 70 L 159 64.5 L 157.5 62 L 155 60.5 L 150 48.5 L 150 37.5 L 152 32.5 L 151 30 Z "></path><path fill="rgb(0,254,16)" stroke="rgb(0,254,16)" stroke-width="1" opacity="0.9882352941176471" d="M 203.5 59 L 202.5 61 L 203.5 59 Z "></path><path fill="rgb(0,254,16)" stroke="rgb(0,254,16)" stroke-width="1" opacity="0.9882352941176471" d="M 12.5 164 L 14.5 165 L 15.5 164 L 26.5 164 L 37.5 167 L 46 173.5 Q 45.3 175.8 47.5 175 L 53 183.5 L 54 192 L 22.5 192 L 22 192.5 L 22 202 L 52 203 L 52 205.5 L 48.5 211 L 46 212.5 L 44.5 215 L 31.5 222 L 21.5 223 L 14.5 221 L 12.5 219 L 9.5 219 L 4.5 215 L 1 215 L 0 212.5 L 0 171.5 L 5.5 167 L 12.5 164 Z "></path><path fill="rgb(0,254,16)" stroke="rgb(0,254,16)" stroke-width="1" opacity="0.9882352941176471" d="M 176.5 309 L 185.5 309 L 193.5 313 L 197.5 313 L 204 319.5 L 208 327.5 L 209 342.5 L 206.5 344 L 174 335 L 172 344.5 L 173.5 346 L 192 350.5 L 156.5 351 L 153 342.5 L 153 333.5 L 155 325.5 L 161.5 317 L 164.5 315 L 176.5 309 Z "></path><path fill="rgb(3,131,253)" stroke="rgb(3,131,253)" stroke-width="1" opacity="0.7764705882352941" d="M 397 0 L 400 0.5 L 400 19.5 L 374 53.5 L 358.5 70 L 304.5 116 L 273 146.5 L 257.5 164 L 214 205.5 L 220.5 213 L 240.5 230 L 281.5 270 L 359.5 335 L 377 351.5 L 374.5 350 L 277.5 268 Q 246.4 235.6 212 206.5 L 230.5 187 L 265 154.5 L 300.5 118 Q 337 90 369 57.5 L 394 25.5 L 398 15.5 L 398 2.5 L 397 0 Z "></path><path fill="rgb(3,131,253)" stroke="rgb(3,131,253)" stroke-width="1" opacity="0.7764705882352941" d="M 322.5 6 L 321.5 8 L 322.5 6 Z "></path><path fill="rgb(3,131,253)" stroke="rgb(3,131,253)" stroke-width="1" opacity="0.7764705882352941" d="M 308.5 21 L 310 21.5 L 255.5 68 L 229 93.5 L 207.5 117 L 205 118.5 Q 205.8 120.8 203.5 120 L 155.5 167 L 158 163.5 L 169.5 151 L 180 141.5 L 183.5 137 Q 203.2 122.2 219 103.5 L 253.5 68 L 308.5 21 Z "></path><path fill="rgb(3,131,253)" stroke="rgb(3,131,253)" stroke-width="1" opacity="0.7764705882352941" d="M 141.5 231 L 164.5 255 Q 200.6 284.4 232.5 318 L 288 364.5 L 286.5 365 L 238.5 325 L 186.5 275 Q 165.1 258.9 147 239.5 L 141.5 231 Z "></path><path fill="rgb(3,131,253)" stroke="rgb(3,131,253)" stroke-width="1" opacity="0.7764705882352941" d="M 391.5 365 L 392.5 367 L 391.5 365 Z "></path><path fill="rgb(3,131,253)" stroke="rgb(3,131,253)" stroke-width="1" opacity="0.7764705882352941" d="M 393.5 368 L 400 373.5 L 399.5 375 L 393.5 368 Z "></path><path fill="rgb(3,131,253)" stroke="rgb(3,131,253)" stroke-width="1" opacity="0.7764705882352941" d="M 306.5 381 L 328 399.5 L 326.5 400 L 309.5 385 L 306.5 381 Z "></path><path fill="rgb(0,132,255)" stroke="rgb(0,132,255)" stroke-width="1" opacity="1" d="M 319.5 19 Q 323.7 17.7 322 22.5 Q 325.5 37.4 336.5 45 L 350.5 51 L 364.5 51 L 367.5 50 L 367.5 51 L 366 51.5 L 366.5 53 L 363 54.5 L 363.5 56 L 362 55.5 Q 362.8 58.1 359.5 57 L 359.5 59 L 356 59.5 L 359 60.5 L 356 62 L 354.5 65 L 351 65.5 L 352 67.5 L 350 67.5 L 347.5 71 Q 345.3 70.3 346 72.5 L 345 75 Q 341.2 73.5 342 76.5 L 339.5 78 L 338 77.5 L 339 80.5 L 333 83 L 332.5 85 L 331 84.5 Q 332.5 88.9 329.5 88 L 328 87.5 Q 328.8 90.1 325.5 89 L 325.5 90 L 327 90.5 L 325 91 L 325 93 Q 322 92 323 95 L 320 95 L 320 96.5 L 311 102.5 L 311 104 L 307 104 L 307 108 Q 303.2 106.5 304 109.5 L 302.5 112 Q 301.3 109.7 300 112.5 L 300.5 114 L 296 116.5 L 294.5 119 L 292 119.5 L 292.5 121 L 289 122 L 287.5 125 L 282 129.5 L 280.5 133 Q 277.2 131.9 278 134.5 L 272.5 139 L 271 138.5 L 270 140.5 L 271 143 L 267.5 145 L 266.5 143 Q 266.7 147.7 263.5 149 L 260 150.5 L 261 152.5 L 259.5 152 Q 257.3 151.3 258 153.5 L 258.5 155 Q 255.2 153.9 256 156.5 L 255 156.5 L 254.5 155 L 253 158.5 L 253.5 160 L 251 161.5 L 251.5 163 L 248.5 162 L 248.5 164 L 246 165.5 Q 246.8 167.8 244.5 167 L 242 168 L 240.5 171 L 239 171.5 L 239.5 173 L 238 172.5 L 236.5 176 L 235 176.5 L 235.5 178 L 231 179.5 Q 233.7 181.3 229.5 183 L 227 183.5 L 228 186 Q 224.2 185 223 187.5 Q 224.3 191.3 220.5 190 L 219 193 L 216 194.5 Q 216.8 196.8 214.5 196 L 213 195.5 L 214 197.5 L 211 198.5 L 210 203.5 L 210 207.5 L 209 210.5 L 219 218 Q 217.9 220.7 220.5 220 L 222.5 224 L 225 223 Q 223.9 225.7 226.5 225 L 226.5 227 L 228.5 227 L 234 231 L 234.5 235 L 236 234.5 Q 235.3 236.8 237.5 236 L 238.5 239 L 239.5 237 L 240 240 L 244 241 Q 242.9 243.7 245.5 243 L 247.5 246 L 249 245.5 L 250 247.5 L 249.5 249 L 251.5 248 L 252 251 L 258 254.5 Q 257.3 256.8 259.5 256 L 259 257.5 L 259.5 259 L 263 258 L 265 261.5 L 264.5 263 L 269 265 L 269.5 267 Q 270.7 264.8 272 267.5 L 272.5 269 L 274 268.5 L 273 271.5 L 275.5 272 L 278 272 Q 276.5 275.7 279.5 275 L 283.5 279 Q 284.7 276.8 286 279.5 L 284 279.5 Q 283.2 282.1 286.5 281 L 288.5 284 L 290 283.5 L 290 286 L 293 286 Q 291.9 288.7 294.5 288 L 297 288.5 L 296 291 L 300 292.5 L 300.5 294 L 301.5 293 L 305 296.5 Q 304.2 299.1 307.5 298 L 307 299.5 L 307.5 301 Q 309 298.5 310.5 302 L 313 303.5 L 313.5 305 L 315 304.5 L 314.5 306 Q 316.8 305.3 316 307.5 L 319 308.5 L 320 312 L 323.5 313 Q 324.8 310.8 326 313.5 L 331.5 320 Q 334.1 319.3 333 322 L 335 322 L 335 324 L 338.5 324 L 339.5 327 L 343 329.5 L 343.5 331 L 345.5 331 L 348 332.5 L 347 334.5 L 349.5 335 L 351 335.5 L 350.5 337 L 355 339.5 L 354.5 341 L 363 345.5 L 360.5 348 Q 349.1 348.1 342.5 353 L 333 361.5 L 327 375 L 301.5 369 L 297 366.5 L 297.5 365 L 294.5 366 L 293.5 363 Q 290.2 364.1 291 361.5 L 288 358.5 Q 290.3 357.3 287.5 356 Q 285.3 355.3 286 357.5 L 284 356.5 Q 285.5 352.1 282.5 353 L 282.5 355 L 280 353.5 L 280.5 352 L 277 350.5 Q 278.1 347.2 275.5 348 L 271 344.5 L 268.5 341 L 267 341.5 L 266.5 340 L 265 340.5 L 265.5 339 L 261 337.5 L 261.5 336 L 257 333.5 L 259 333.5 Q 259.8 330.9 256.5 332 L 253 330 L 251.5 327 Q 249.7 329.7 248 325.5 L 250 325 L 249.5 323 L 247.5 323 L 243 321.5 L 245 320.5 L 242.5 320 L 233 311.5 Q 233.8 309.3 231.5 310 L 225 304.5 L 225 303 L 223 303 L 223 301 L 221 301 Q 222.1 298.3 219.5 299 L 214 295 L 213 292.5 L 213.5 291 L 211.5 292 L 209.5 288 L 208.5 290 L 204.5 284 Q 201.2 285.1 202 282.5 L 194 275.5 Q 194.8 273.3 192.5 274 L 187 270 L 188 267.5 Q 181.8 265.8 178.5 261 L 176 261 L 177 258.5 L 174 256.5 L 175 258.5 L 173 257.5 L 171.5 255 Q 169.3 255.8 170 253.5 L 170.5 252 L 167 249.5 L 167.5 248 L 165.5 248 L 161 243.5 L 160.5 242 L 159 242.5 Q 159.7 239.9 157 241 L 157 239 Q 161.5 241 170.5 240 Q 188.4 236.4 197 223.5 Q 203.8 215.8 203 200.5 L 201 191.5 L 197 183.5 L 187.5 174 L 177.5 169 L 169.5 168 L 166.5 166 Q 165.3 168.3 164 165.5 L 168 164.5 L 166 163.5 L 169 162 L 169.5 160 L 171 160.5 L 172 158.5 L 171.5 157 L 173.5 158 L 173 156.5 L 173.5 155 L 176 156 L 175 153.5 L 179 150.5 L 178.5 149 L 181 150 L 180 147.5 L 187 143.5 Q 184.8 142.3 187.5 141 Q 189.8 141.8 189 139.5 L 190 139.5 L 190.5 142 L 192 137 L 194 137 Q 192.9 134.3 195.5 135 L 199.5 129 L 203 127.5 L 203.5 126 L 205 126.5 L 205.5 124 Q 206.7 126.2 208 123.5 L 207.5 122 L 209 122.5 L 212.5 117 L 214.5 118 L 214 114.5 L 215.5 113 L 216.5 116 L 220.5 108 Q 221.8 110.3 223 107.5 Q 222.2 104.5 226 106 L 226 103.5 L 227 103.5 L 227.5 105 L 228 102 L 230 101.5 L 230 99.5 Q 229.3 97.3 231.5 98 Q 232.6 95.2 236 96 L 235 93.5 L 237 93.5 Q 236.3 90.9 239 92 L 239 89.5 Q 240.3 86.8 241.5 89 L 243 89 Q 241.5 85.2 244.5 86 L 247 84.5 L 246.5 83 L 250 81.5 L 253.5 77 L 255.5 78 L 254.5 75 Q 257.1 75.7 256 73 L 260.5 73 L 260 71.5 L 260 70 Q 263.8 71.5 263 68.5 L 262.5 67 L 264.5 67 L 267.5 65 L 267.5 63 Q 268.8 65.3 270 62.5 L 272.5 59 L 279 55 L 279.5 52 L 281.5 53 L 284.5 49 L 286 49.5 L 289.5 44 Q 291 46.5 292.5 43 L 294 42.5 Q 291.8 41.3 294.5 40 L 297.5 38 L 301 37 L 302 33 L 305 32.5 L 304.5 31 L 306.5 31 Q 308.8 31.8 308 29.5 L 307.5 28 L 313 25.5 L 312 23.5 L 314 23.5 Q 313.3 21.3 315.5 22 L 319.5 19 Z M 245 163 L 245 165 L 247 164 L 245 163 Z M 286 283 L 287 285 L 288 285 L 286 283 Z M 255 327 Q 253 330 256 329 L 255 327 Z M 344 333 L 344 335 L 346 334 L 344 333 Z "></path><path fill="rgb(0,132,255)" stroke="rgb(0,132,255)" stroke-width="1" opacity="1" d="M 154.5 238 L 155.5 240 L 154.5 238 Z "></path><path fill="rgb(0,132,255)" stroke="rgb(0,132,255)" stroke-width="1" opacity="1" d="M 396.5 379 L 399 380.5 Q 396.5 382 400 383.5 L 400 400 L 392.5 400 L 393 398.5 L 396 389.5 L 396 381.5 L 397 380.5 L 396.5 379 Z "></path><path fill="rgb(0,132,255)" stroke="rgb(0,132,255)" stroke-width="1" opacity="1" d="M 318.5 385 L 320.5 385 L 326 386 L 327 392.5 L 326 392.5 L 324.5 389 Q 322.8 391.8 321 387.5 L 320.5 386 Q 318.7 388.5 318.5 385 Z "></path></svg>