<svg width="400" height="400" version="1.1" xmlns="http://www.w3.org/2000/svg" desc="Created with imagetracer.js version 1.2.5"><path fill="rgb(0,0,0)" stroke="rgb(0,0,0)" stroke-width="1" opacity="0" d="M 0 0 L 399.5 0 L 400 0.5 L 400 12 L 385.5 15 L 383 14 Q 384.4 18 377.5 16 L 376.5 17 L 367.5 17 L 357.5 19 L 354.5 18 L 350 19 L 349.5 21 L 342.5 21 L 327.5 24 L 323.5 23 L 322.5 24 L 310 25 Q 311.1 28.5 303.5 27 L 299.5 28 L 296.5 27 L 295.5 28 L 281.5 29 L 272.5 31 L 267 30 Q 268.4 34 261.5 32 L 244.5 35 L 243.5 34 L 227.5 34 L 226.5 35 L 220 35 Q 221.1 37.7 218.5 37 L 214.5 36 L 213.5 37 L 206.5 37 L 200.5 39 L 190.5 40 L 185.5 39 L 184.5 40 L 177 40 L 176.5 42 L 169.5 42 Q 168.2 44.2 163.5 43 L 161.5 43 L 154.5 43 L 153.5 44 L 136.5 46 L 133 45 Q 134.1 48.5 126.5 47 L 112 50 L 112 64.5 L 111 67.5 L 112 68.5 L 113 82 L 115 82.5 L 115 91.5 L 114 95.5 Q 116.9 99.4 116 106 L 91 101 Q 92.1 97.5 84.5 99 L 75.5 96 L 70 96 L 69.5 94 L 59.5 94 Q 54.9 91.3 48 92 Q 49.3 88.7 44.5 90 L 30 87 Q 31.4 83.3 25.5 85 L 0 78 L 0 0 Z "></path><path fill="rgb(0,0,0)" stroke="rgb(0,0,0)" stroke-width="1" opacity="0" d="M 150.5 263 L 154 277.5 L 153 281 L 156 281.5 L 155 283.5 L 158 292.5 L 158 302.5 L 159 308 Q 161.7 306.9 161 309.5 L 160 310.5 L 160 320.5 L 163 329.5 L 163 336.5 L 163 338.5 L 164 358 Q 168 356.6 166 363.5 L 165 365.5 L 166.5 367 L 174.5 368 L 181.5 366 L 190 366 Q 188.9 362.5 196.5 364 L 200.5 363 L 203.5 364 L 204.5 363 L 226.5 361 L 227.5 362 L 237.5 362 L 238.5 361 L 250 361 Q 248.8 358 252.5 359 Q 254 361.5 259.5 360 L 260.5 359 L 277.5 358 L 282.5 359 L 283.5 358 L 302.5 357 Q 303.8 359.3 308.5 358 L 309.5 357 L 320 357 L 320.5 355 L 328.5 355 L 331.5 356 L 332.5 355 L 352.5 355 L 355.5 356 L 356.5 355 L 378.5 353 L 381 354 L 381.5 352 L 391.5 352 L 399.5 350 L 400 400 L 0.5 400 L 0 399.5 L 0 309 L 2.5 310 L 16 310 L 16.5 312 L 31.5 312 Q 36.4 314.9 44 314 L 44 316 L 50.5 316 L 51.5 318 L 67.5 318 L 68.5 319 L 79 319 L 79.5 321 L 92.5 321 L 93.5 322 L 108.5 322 L 109.5 323 L 129 323 L 131 313 Q 134 314.3 133 310.5 L 136 301 Q 138.7 302.1 138 299.5 Q 140.9 295.6 140 289 Q 143 290.3 142 286.5 L 145 276 Q 147.7 277.1 147 274.5 L 150.5 263 Z "></path><path fill="rgb(45,108,219)" stroke="rgb(45,108,219)" stroke-width="1" opacity="0.9372549019607843" d="M 124 108 Q 127 107 126 110 Q 123 111 124 108 Z "></path><path fill="rgb(45,108,219)" stroke="rgb(45,108,219)" stroke-width="1" opacity="0.9372549019607843" d="M 136 111 Q 140.1 109.7 139 113 Q 134.9 114.3 136 111 Z "></path><path fill="rgb(45,108,219)" stroke="rgb(45,108,219)" stroke-width="1" opacity="0.9372549019607843" d="M 140 113 Q 143 112 142 115 Q 139 116 140 113 Z "></path><path fill="rgb(45,108,219)" stroke="rgb(45,108,219)" stroke-width="1" opacity="0.9372549019607843" d="M 144.5 115 L 147 115.5 L 144.5 116 L 144.5 115 Z "></path><path fill="rgb(45,108,219)" stroke="rgb(45,108,219)" stroke-width="1" opacity="0.9372549019607843" d="M 180.5 122 L 181 124.5 L 180 124.5 L 180.5 122 Z "></path><path fill="rgb(45,108,219)" stroke="rgb(45,108,219)" stroke-width="1" opacity="0.9372549019607843" d="M 198.5 129 L 197.5 131 L 198.5 129 Z "></path><path fill="rgb(45,108,219)" stroke="rgb(45,108,219)" stroke-width="1" opacity="0.9372549019607843" d="M 196.5 132 L 197 133.5 L 195 134.5 L 196.5 132 Z "></path><path fill="rgb(45,108,219)" stroke="rgb(45,108,219)" stroke-width="1" opacity="0.9372549019607843" d="M 193 137 Q 196 136 195 139 Q 192 140 193 137 Z "></path><path fill="rgb(45,108,219)" stroke="rgb(45,108,219)" stroke-width="1" opacity="0.9372549019607843" d="M 183 160 Q 186.3 158.9 185 163 L 181.5 164 L 181.5 163 Q 184.5 163.7 183 160 Z "></path><path fill="rgb(45,108,219)" stroke="rgb(45,108,219)" stroke-width="1" opacity="0.9372549019607843" d="M 178 169 Q 181 168 180 171 Q 177 172 178 169 Z "></path><path fill="rgb(45,108,219)" stroke="rgb(45,108,219)" stroke-width="1" opacity="0.9372549019607843" d="M 177.5 172 L 178 173.5 L 176.5 176 L 176 174.5 L 177.5 172 Z "></path><path fill="rgb(45,108,219)" stroke="rgb(45,108,219)" stroke-width="1" opacity="0.9372549019607843" d="M 173.5 182 L 174 185.5 L 172.5 188 L 172 186.5 L 173.5 182 Z "></path><path fill="rgb(45,108,219)" stroke="rgb(45,108,219)" stroke-width="1" opacity="0.9372549019607843" d="M 168 192 Q 172.1 190.7 171 194 Q 166.9 195.3 168 192 Z "></path><path fill="rgb(45,108,219)" stroke="rgb(45,108,219)" stroke-width="1" opacity="0.9372549019607843" d="M 164 205 Q 167 204 166 207 Q 163 208 164 205 Z "></path><path fill="rgb(45,108,219)" stroke="rgb(45,108,219)" stroke-width="1" opacity="0.9372549019607843" d="M 159 225 Q 162 224 161 227 Q 158 228 159 225 Z "></path><path fill="rgb(45,108,219)" stroke="rgb(45,108,219)" stroke-width="1" opacity="0.9372549019607843" d="M 157 228 Q 160 227 159 230 Q 156 231 157 228 Z "></path><path fill="rgb(0,132,255)" stroke="rgb(0,132,255)" stroke-width="1" opacity="0.996078431372549" d="M 387 15 Q 390 14 389 17 Q 386 18 387 15 Z "></path><path fill="rgb(0,132,255)" stroke="rgb(0,132,255)" stroke-width="1" opacity="0.996078431372549" d="M 380.5 16 Q 384.3 15 383 18 L 380.5 16 Z "></path><path fill="rgb(0,132,255)" stroke="rgb(0,132,255)" stroke-width="1" opacity="0.996078431372549" d="M 352 19 Q 357.6 17.1 356 22 L 352 20.5 L 352 19 Z "></path><path fill="rgb(0,132,255)" stroke="rgb(0,132,255)" stroke-width="1" opacity="0.996078431372549" d="M 347.5 21 L 350 21.5 L 347.5 22 L 347.5 21 Z "></path><path fill="rgb(0,132,255)" stroke="rgb(0,132,255)" stroke-width="1" opacity="0.996078431372549" d="M 340.5 22 L 343 22.5 L 340.5 23 L 340.5 22 Z "></path><path fill="rgb(0,132,255)" stroke="rgb(0,132,255)" stroke-width="1" opacity="0.996078431372549" d="M 333.5 23 L 336 23.5 L 333.5 24 L 333.5 23 Z "></path><path fill="rgb(0,132,255)" stroke="rgb(0,132,255)" stroke-width="1" opacity="0.996078431372549" d="M 314 25 Q 318.1 23.7 317 27 Q 312.9 28.3 314 25 Z "></path><path fill="rgb(0,132,255)" stroke="rgb(0,132,255)" stroke-width="1" opacity="0.996078431372549" d="M 307.5 27 L 310 27.5 L 307.5 28 L 307.5 27 Z "></path><path fill="rgb(0,132,255)" stroke="rgb(0,132,255)" stroke-width="1" opacity="0.996078431372549" d="M 273 31 Q 276 30 275 33 Q 272 34 273 31 Z "></path><path fill="rgb(0,132,255)" stroke="rgb(0,132,255)" stroke-width="1" opacity="0.996078431372549" d="M 265.5 32 L 268 32.5 L 265.5 33 L 265.5 32 Z "></path><path fill="rgb(0,132,255)" stroke="rgb(0,132,255)" stroke-width="1" opacity="0.996078431372549" d="M 234.5 34 L 237 34.5 L 234.5 35 L 234.5 34 Z "></path><path fill="rgb(0,132,255)" stroke="rgb(0,132,255)" stroke-width="1" opacity="0.996078431372549" d="M 253.5 34 L 256 34.5 L 253.5 35 L 253.5 34 Z "></path><path fill="rgb(0,132,255)" stroke="rgb(0,132,255)" stroke-width="1" opacity="0.996078431372549" d="M 224 35 Q 228.1 33.7 227 37 Q 222.9 38.3 224 35 Z "></path><path fill="rgb(0,132,255)" stroke="rgb(0,132,255)" stroke-width="1" opacity="0.996078431372549" d="M 211.5 37 L 215 37.5 L 211.5 38 L 211.5 37 Z "></path><path fill="rgb(0,132,255)" stroke="rgb(0,132,255)" stroke-width="1" opacity="0.996078431372549" d="M 205.5 38 L 208 38.5 L 205.5 39 L 205.5 38 Z "></path><path fill="rgb(0,132,255)" stroke="rgb(0,132,255)" stroke-width="1" opacity="0.996078431372549" d="M 198.5 39 L 201 39.5 L 198.5 40 L 198.5 39 Z "></path><path fill="rgb(0,132,255)" stroke="rgb(0,132,255)" stroke-width="1" opacity="0.996078431372549" d="M 183 40 Q 188.2 38.3 187 42 Q 181.8 43.7 183 40 Z "></path><path fill="rgb(0,132,255)" stroke="rgb(0,132,255)" stroke-width="1" opacity="0.996078431372549" d="M 174.5 42 L 178 42.5 L 174.5 43 L 174.5 42 Z "></path><path fill="rgb(0,132,255)" stroke="rgb(0,132,255)" stroke-width="1" opacity="0.996078431372549" d="M 160.5 43 L 163 44.5 L 161.5 45 L 160.5 43 Z "></path><path fill="rgb(0,132,255)" stroke="rgb(0,132,255)" stroke-width="1" opacity="0.996078431372549" d="M 152.5 44 L 155 44.5 L 152.5 45 L 152.5 44 Z "></path><path fill="rgb(0,132,255)" stroke="rgb(0,132,255)" stroke-width="1" opacity="0.996078431372549" d="M 146.5 45 L 151 46 Q 152.1 49.3 148 48 Q 149 45 146 46 L 147 48.5 Q 144.7 52.4 139 52 L 139 55 Q 136.3 53.9 137 56.5 L 139 56.5 L 135 59 L 134.5 57 L 131.5 63 L 129.5 62 L 130 63.5 L 129 69 Q 124.9 67.7 126 71 L 129 71.5 L 125 73.5 L 124 77.5 L 125 79.5 L 124 82 Q 121.3 80.9 122 83.5 L 124 83.5 L 123.5 86 L 122 85.5 Q 123.5 89.9 120.5 89 L 120.5 90 L 122.5 91 L 124 90.5 L 121.5 94 Q 118.9 93.3 120 96 Q 123.7 97.5 123 94.5 L 125 93.5 L 122 97.5 Q 123.3 100.3 124.5 98 L 128 98.5 L 124 99 L 125 103 Q 129.5 101.3 128 106.5 L 124.5 108 L 122.5 108 L 119.5 106 Q 118.3 108.3 117 105.5 L 115 93.5 Q 117.3 92.2 116 87.5 L 115 86.5 L 115 77 Q 111.5 78.1 113 70.5 L 112 67.5 L 113 66.5 L 113 55.5 L 112 51 L 133.5 47 L 139 48 Q 137.9 44.5 145.5 46 L 146.5 45 Z M 124 101 L 121 105 L 123 107 L 125 104 L 124 101 Z "></path><path fill="rgb(0,132,255)" stroke="rgb(0,132,255)" stroke-width="1" opacity="0.996078431372549" d="M 233.5 118 L 236 119.5 L 234.5 120 L 233.5 118 Z "></path><path fill="rgb(0,132,255)" stroke="rgb(0,132,255)" stroke-width="1" opacity="0.996078431372549" d="M 226.5 119 L 229 120.5 Q 228.3 123.1 231 122 Q 230 119 233 120 Q 234.1 122.7 231.5 122 L 227.5 124 L 228 122.5 L 227.5 120 L 227 122 Q 222.4 120.8 221 123.5 L 221.5 125 L 219 123.5 L 222 121.5 Q 221.1 118.5 225.5 120 L 226.5 119 Z "></path><path fill="rgb(0,132,255)" stroke="rgb(0,132,255)" stroke-width="1" opacity="0.996078431372549" d="M 244.5 119 L 247 119.5 L 244.5 120 L 244.5 119 Z "></path><path fill="rgb(0,132,255)" stroke="rgb(0,132,255)" stroke-width="1" opacity="0.996078431372549" d="M 218.5 120 L 219 121.5 L 216.5 123 L 216.5 122 Q 219 122.7 218.5 120 Z "></path><path fill="rgb(0,132,255)" stroke="rgb(0,132,255)" stroke-width="1" opacity="0.996078431372549" d="M 237.5 122 L 238.5 124 Q 235.7 124.7 237.5 122 Z "></path><path fill="rgb(0,132,255)" stroke="rgb(0,132,255)" stroke-width="1" opacity="0.996078431372549" d="M 229.5 125 Q 231.8 125.8 231 129.5 L 229 128.5 L 230 126.5 L 228 127.5 L 227.5 130 L 227 126 L 229.5 125 Z "></path><path fill="rgb(0,132,255)" stroke="rgb(0,132,255)" stroke-width="1" opacity="0.996078431372549" d="M 230 139 Q 233 138 232 141 Q 229 142 230 139 Z "></path><path fill="rgb(0,132,255)" stroke="rgb(0,132,255)" stroke-width="1" opacity="0.996078431372549" d="M 229 155 Q 232 154 231 157 Q 228 158 229 155 Z "></path><path fill="rgb(0,132,255)" stroke="rgb(0,132,255)" stroke-width="1" opacity="0.996078431372549" d="M 264 164 Q 267 163 266 166 Q 263 167 264 164 Z "></path><path fill="rgb(0,132,255)" stroke="rgb(0,132,255)" stroke-width="1" opacity="0.996078431372549" d="M 228.5 172 L 229 174 L 231 174.5 L 229.5 175 L 228.5 172 Z "></path><path fill="rgb(0,132,255)" stroke="rgb(0,132,255)" stroke-width="1" opacity="0.996078431372549" d="M 261.5 179 L 262.5 181 L 261.5 179 Z "></path><path fill="rgb(0,132,255)" stroke="rgb(0,132,255)" stroke-width="1" opacity="0.996078431372549" d="M 260.5 182 Q 263.9 181.1 262 186.5 L 261 186.5 L 260.5 183 L 259 183.5 L 260.5 182 Z "></path><path fill="rgb(0,132,255)" stroke="rgb(0,132,255)" stroke-width="1" opacity="0.996078431372549" d="M 270 185 Q 273 184 272 187 Q 269 188 270 185 Z "></path><path fill="rgb(0,132,255)" stroke="rgb(0,132,255)" stroke-width="1" opacity="0.996078431372549" d="M 262 192 Q 265 191 264 194 Q 261 195 262 192 Z "></path><path fill="rgb(0,132,255)" stroke="rgb(0,132,255)" stroke-width="1" opacity="0.996078431372549" d="M 267.5 195 L 270 196.5 L 268.5 197 L 267.5 195 Z "></path><path fill="rgb(0,132,255)" stroke="rgb(0,132,255)" stroke-width="1" opacity="0.996078431372549" d="M 255 198 Q 258 197 257 200 Q 254 201 255 198 Z "></path><path fill="rgb(0,132,255)" stroke="rgb(0,132,255)" stroke-width="1" opacity="0.996078431372549" d="M 262 198 Q 265 197 264 200 Q 261 201 262 198 Z "></path><path fill="rgb(0,132,255)" stroke="rgb(0,132,255)" stroke-width="1" opacity="0.996078431372549" d="M 239.5 199 L 240 201.5 L 239 201.5 L 239.5 199 Z "></path><path fill="rgb(0,132,255)" stroke="rgb(0,132,255)" stroke-width="1" opacity="0.996078431372549" d="M 264.5 202 Q 266.8 201.3 266 203.5 L 264.5 202 Z "></path><path fill="rgb(0,132,255)" stroke="rgb(0,132,255)" stroke-width="1" opacity="0.996078431372549" d="M 260.5 212 L 261 214.5 L 260 214.5 L 260.5 212 Z "></path><path fill="rgb(0,132,255)" stroke="rgb(0,132,255)" stroke-width="1" opacity="0.996078431372549" d="M 257.5 217 L 258.5 219 L 257.5 217 Z "></path><path fill="rgb(0,132,255)" stroke="rgb(0,132,255)" stroke-width="1" opacity="0.996078431372549" d="M 254 224 Q 257 223 256 226 Q 253 227 254 224 Z "></path><path fill="rgb(0,132,255)" stroke="rgb(0,132,255)" stroke-width="1" opacity="0.996078431372549" d="M 232.5 230 Q 234.8 229.3 234 231.5 L 232.5 230 Z "></path><path fill="rgb(0,132,255)" stroke="rgb(0,132,255)" stroke-width="1" opacity="0.996078431372549" d="M 153.5 270 L 154 272.5 L 153 272.5 L 153.5 270 Z "></path><path fill="rgb(0,132,255)" stroke="rgb(0,132,255)" stroke-width="1" opacity="0.996078431372549" d="M 154 275 Q 157 274 156 277 Q 153 278 154 275 Z "></path><path fill="rgb(0,132,255)" stroke="rgb(0,132,255)" stroke-width="1" opacity="0.996078431372549" d="M 156 283 L 158 283.5 L 156 284.5 L 156 283 Z "></path><path fill="rgb(0,132,255)" stroke="rgb(0,132,255)" stroke-width="1" opacity="0.996078431372549" d="M 159 302 Q 162 301 161 304 Q 158 305 159 302 Z "></path><path fill="rgb(0,132,255)" stroke="rgb(0,132,255)" stroke-width="1" opacity="0.996078431372549" d="M 161.5 308 L 162 310.5 L 160 311.5 L 161.5 308 Z "></path><path fill="rgb(0,132,255)" stroke="rgb(0,132,255)" stroke-width="1" opacity="0.996078431372549" d="M 161.5 320 L 162 322.5 L 161 322.5 L 161.5 320 Z "></path><path fill="rgb(0,132,255)" stroke="rgb(0,132,255)" stroke-width="1" opacity="0.996078431372549" d="M 163.5 329 L 164 331.5 L 163 331.5 L 163.5 329 Z "></path><path fill="rgb(0,132,255)" stroke="rgb(0,132,255)" stroke-width="1" opacity="0.996078431372549" d="M 164.5 337 L 165 338.5 L 163 339.5 L 164.5 337 Z "></path><path fill="rgb(0,132,255)" stroke="rgb(0,132,255)" stroke-width="1" opacity="0.996078431372549" d="M 166.5 350 L 167 352 Q 169.7 350.9 169 353.5 Q 170.2 356.8 174 356 Q 172.8 359 176.5 358 L 183.5 362 Q 189.6 360.9 192 363.5 L 184 364 L 183.5 366 L 176.5 366 L 174.5 367 L 169 366 Q 170.3 361.9 167 363 L 167 359.5 L 166 358.5 L 166.5 350 Z "></path><path fill="rgb(0,132,255)" stroke="rgb(0,132,255)" stroke-width="1" opacity="0.996078431372549" d="M 381.5 350 L 386 351.5 L 381 352 L 381.5 350 Z "></path><path fill="rgb(0,132,255)" stroke="rgb(0,132,255)" stroke-width="1" opacity="0.996078431372549" d="M 391.5 350 L 394 350.5 L 391.5 351 L 391.5 350 Z "></path><path fill="rgb(0,132,255)" stroke="rgb(0,132,255)" stroke-width="1" opacity="0.996078431372549" d="M 373 351 Q 378.2 349.3 377 353 Q 371.8 354.7 373 351 Z "></path><path fill="rgb(0,132,255)" stroke="rgb(0,132,255)" stroke-width="1" opacity="0.996078431372549" d="M 354.5 353 L 358 354.5 L 354 355 L 354.5 353 Z "></path><path fill="rgb(0,132,255)" stroke="rgb(0,132,255)" stroke-width="1" opacity="0.996078431372549" d="M 363.5 353 L 367 353.5 L 363.5 354 L 363.5 353 Z "></path><path fill="rgb(0,132,255)" stroke="rgb(0,132,255)" stroke-width="1" opacity="0.996078431372549" d="M 320.5 354 L 325 354.5 L 320.5 355 L 320.5 354 Z "></path><path fill="rgb(0,132,255)" stroke="rgb(0,132,255)" stroke-width="1" opacity="0.996078431372549" d="M 343.5 354 L 347 354.5 L 343.5 355 L 343.5 354 Z "></path><path fill="rgb(0,132,255)" stroke="rgb(0,132,255)" stroke-width="1" opacity="0.996078431372549" d="M 309 355 Q 314.2 353.3 313 357 Q 307.8 358.7 309 355 Z "></path><path fill="rgb(0,132,255)" stroke="rgb(0,132,255)" stroke-width="1" opacity="0.996078431372549" d="M 295.5 356 L 300 356.5 L 295.5 357 L 295.5 356 Z "></path><path fill="rgb(0,132,255)" stroke="rgb(0,132,255)" stroke-width="1" opacity="0.996078431372549" d="M 272.5 357 L 275 357.5 L 272.5 358 L 272.5 357 Z "></path><path fill="rgb(0,132,255)" stroke="rgb(0,132,255)" stroke-width="1" opacity="0.996078431372549" d="M 282.5 357 L 288 357.5 L 282.5 358 L 282.5 357 Z "></path><path fill="rgb(0,132,255)" stroke="rgb(0,132,255)" stroke-width="1" opacity="0.996078431372549" d="M 250.5 358 L 253 358.5 L 250.5 359 L 250.5 358 Z "></path><path fill="rgb(0,132,255)" stroke="rgb(0,132,255)" stroke-width="1" opacity="0.996078431372549" d="M 260.5 358 L 266 358.5 L 260.5 359 L 260.5 358 Z "></path><path fill="rgb(0,132,255)" stroke="rgb(0,132,255)" stroke-width="1" opacity="0.996078431372549" d="M 237 359 L 243 359 L 243 361 L 237 361 L 237 359 Z "></path><path fill="rgb(0,132,255)" stroke="rgb(0,132,255)" stroke-width="1" opacity="0.996078431372549" d="M 223.5 360 Q 228.3 359.3 230 361.5 L 227.5 362 L 223.5 361 L 223.5 360 Z "></path><path fill="rgb(0,132,255)" stroke="rgb(0,132,255)" stroke-width="1" opacity="0.996078431372549" d="M 203.5 361 L 208 362.5 L 203 363 L 203.5 361 Z "></path><path fill="rgb(0,132,255)" stroke="rgb(0,132,255)" stroke-width="1" opacity="0.996078431372549" d="M 211.5 361 L 217 361.5 L 211.5 362 L 211.5 361 Z "></path><path fill="rgb(0,132,255)" stroke="rgb(0,132,255)" stroke-width="1" opacity="1" d="M 398.5 13 L 400 13.5 L 400 349 L 390.5 351 L 382.5 351 L 380.5 351 Q 371.7 349.6 372.5 353 L 363.5 353 Q 361.8 355.7 355.5 354 L 353.5 354 L 330.5 355 L 329.5 354 L 320.5 354 L 319.5 355 L 309 355 Q 310.4 358.7 304.5 357 L 303.5 356 L 295.5 356 L 294.5 357 Q 285 355.5 279.5 358 Q 278 355.5 272.5 357 L 271.5 358 L 254.5 359 L 250.5 358 L 249.5 359 L 237 359 L 236.5 361 L 228.5 361 L 223.5 360 L 222.5 361 L 204.5 362 L 203 361.5 L 202.5 363 L 197.5 362 Q 196 364.5 190.5 363 Q 189 360.5 183.5 362 Q 180.3 358 174 358 Q 175.3 355 171.5 356 L 169 352 Q 166.3 353.1 167 350.5 L 166 347 L 164 346.5 L 164 339.5 L 165 337.5 L 161 319.5 L 161 311.5 L 162 308.5 L 161 302 Q 157.7 303.3 159 298.5 L 158 297.5 L 157 284.5 L 157 282.5 L 156 275 Q 152.3 276.4 154 270.5 L 152 266.5 L 151 257.5 L 154 248.5 L 154 243 Q 157.3 244.3 156 239.5 L 157 238.5 L 157 230 L 159 230 Q 157.7 225.9 161 227 L 161 223.5 L 163 218.5 L 164 207 Q 167 208.3 166 204.5 Q 169.2 201 168 194 Q 172.1 195.7 171 191.5 L 178 171 Q 181.3 172.3 180 167.5 L 181 164 L 185 163 L 187 152 Q 190 153.3 189 149.5 L 191 140 L 195 139 L 195 135.5 L 199 129.5 L 199 127 L 181 125 L 181 122 L 173.5 122 L 163 120 Q 164.3 116.7 159.5 118 L 142 115 L 142 113 Q 137.9 114.3 139 111 L 130.5 111 L 126 110 L 128 106.5 L 128 103 L 124 104.5 L 123 106.5 L 123.5 108 Q 122 104.5 120.5 107 L 119 106.5 L 121 106 L 124 99.5 Q 120.9 97.8 122.5 96 Q 118.8 97 120 94 L 123 92.5 L 121.5 90 L 120 89.5 L 122 89 L 123 84.5 L 122 82 Q 124.7 83.1 124 80.5 L 125 78.5 L 124 76.5 L 126.5 72 L 129 71.5 L 126 71 Q 124.9 67.7 129 69 L 129 65.5 L 130 63.5 L 129.5 62 L 131.5 63 L 134.5 57 L 135 59 L 138 57.5 L 137 55 Q 140.3 56.1 139 52 L 141.5 52 L 147 48.5 L 146 46 Q 149 45 148 48 L 151 48 Q 152.1 45.3 149.5 46 L 149.5 45 L 160.5 44 L 162.5 45 L 169.5 43 L 187 42 Q 185.9 39.3 188.5 40 L 192.5 41 L 215.5 37 L 219.5 38 L 220.5 37 L 227 37 L 227.5 35 L 236.5 35 Q 238 32.5 243.5 34 L 244.5 35 L 255.5 35 L 268.5 32 L 275 33 Q 273.9 29.5 281.5 31 L 297.5 28 L 302.5 29 L 303.5 28 L 317 27 Q 315.6 23 322.5 25 L 325.5 24 L 329.5 25 L 352.5 21 L 356 22 Q 354.6 18.3 360.5 20 L 373.5 17 L 380.5 17 L 382.5 18 L 389 17 Q 387.6 13.3 393.5 15 L 398.5 13 Z M 125 98 L 125 99 L 128 99 L 125 98 Z M 227 119 L 222 120 L 222 122 L 227 122 L 228 120 L 227 119 Z M 245 119 L 245 120 L 247 120 L 245 119 Z M 229 120 L 228 123 L 231 123 L 229 122 L 229 120 Z M 231 120 Q 230 123 233 122 Q 234 119 231 120 Z M 238 122 Q 236 125 239 124 L 238 122 Z M 227 126 L 228 130 L 229 127 L 227 126 Z M 231 126 L 229 129 L 231 130 L 231 126 Z M 230 139 Q 229 142 232 141 Q 233 138 230 139 Z M 229 155 Q 228 158 231 157 Q 232 154 229 155 Z M 264 164 Q 263 167 266 166 Q 267 163 264 164 Z M 261 182 L 261 187 L 262 187 Q 264 181 261 182 Z M 270 185 Q 269 188 272 187 Q 273 184 270 185 Z M 262 192 Q 261 195 264 194 Q 265 191 262 192 Z M 268 195 L 269 197 L 270 197 L 268 195 Z M 255 198 Q 254 201 257 200 Q 258 197 255 198 Z M 262 198 Q 261 201 264 200 Q 265 197 262 198 Z M 240 199 L 239 202 L 240 202 L 240 199 Z M 265 202 L 266 204 Q 267 201 265 202 Z M 261 212 L 260 215 L 261 215 L 261 212 Z M 254 224 Q 253 227 256 226 Q 257 223 254 224 Z M 233 230 L 234 232 Q 235 229 233 230 Z "></path><path fill="rgb(248,3,60)" stroke="rgb(248,3,60)" stroke-width="1" opacity="0.9686274509803922" d="M 122 108 Q 125 107 124 110 Q 121 111 122 108 Z "></path><path fill="rgb(248,3,60)" stroke="rgb(248,3,60)" stroke-width="1" opacity="0.9686274509803922" d="M 134 111 Q 137 110 136 113 Q 133 114 134 111 Z "></path><path fill="rgb(248,3,60)" stroke="rgb(248,3,60)" stroke-width="1" opacity="0.9686274509803922" d="M 154.5 117 L 157 117.5 L 154.5 118 L 154.5 117 Z "></path><path fill="rgb(248,3,60)" stroke="rgb(248,3,60)" stroke-width="1" opacity="0.9686274509803922" d="M 159 118 Q 163.1 116.7 162 120 Q 157.9 121.3 159 118 Z "></path><path fill="rgb(248,3,60)" stroke="rgb(248,3,60)" stroke-width="1" opacity="0.9686274509803922" d="M 163.5 120 L 166 120.5 L 163.5 121 L 163.5 120 Z "></path><path fill="rgb(248,3,60)" stroke="rgb(248,3,60)" stroke-width="1" opacity="0.9686274509803922" d="M 168.5 121 L 171 121.5 L 168.5 122 L 168.5 121 Z "></path><path fill="rgb(248,3,60)" stroke="rgb(248,3,60)" stroke-width="1" opacity="0.9686274509803922" d="M 177 122 Q 181.5 120.5 180 125 Q 175.5 126.5 177 122 Z "></path><path fill="rgb(248,3,60)" stroke="rgb(248,3,60)" stroke-width="1" opacity="0.9686274509803922" d="M 183.5 125 L 186 125.5 L 183.5 126 L 183.5 125 Z "></path><path fill="rgb(248,3,60)" stroke="rgb(248,3,60)" stroke-width="1" opacity="0.9686274509803922" d="M 187.5 126 L 191 126.5 L 187.5 127 L 187.5 126 Z "></path><path fill="rgb(248,3,60)" stroke="rgb(248,3,60)" stroke-width="1" opacity="0.9686274509803922" d="M 193.5 127 L 197 127.5 L 193.5 128 L 193.5 127 Z "></path><path fill="rgb(248,3,60)" stroke="rgb(248,3,60)" stroke-width="1" opacity="0.9686274509803922" d="M 198.5 128 L 197.5 130 L 198.5 128 Z "></path><path fill="rgb(248,3,60)" stroke="rgb(248,3,60)" stroke-width="1" opacity="0.9686274509803922" d="M 193 135 Q 196 134 195 137 Q 192 138 193 135 Z "></path><path fill="rgb(248,3,60)" stroke="rgb(248,3,60)" stroke-width="1" opacity="0.9686274509803922" d="M 190.5 143 L 191 144.5 L 189.5 147 L 189 145.5 L 190.5 143 Z "></path><path fill="rgb(248,3,60)" stroke="rgb(248,3,60)" stroke-width="1" opacity="0.9686274509803922" d="M 187 149 Q 190 148 189 151 Q 186 152 187 149 Z "></path><path fill="rgb(248,3,60)" stroke="rgb(248,3,60)" stroke-width="1" opacity="0.9686274509803922" d="M 168.5 191 L 171 191.5 L 168.5 192 L 168.5 191 Z "></path><path fill="rgb(248,3,60)" stroke="rgb(248,3,60)" stroke-width="1" opacity="0.9686274509803922" d="M 163.5 207 L 164 209.5 L 163 209.5 L 163.5 207 Z "></path><path fill="rgb(248,3,60)" stroke="rgb(248,3,60)" stroke-width="1" opacity="0.9686274509803922" d="M 162.5 215 L 163 217.5 L 162 217.5 L 162.5 215 Z "></path><path fill="rgb(248,3,60)" stroke="rgb(248,3,60)" stroke-width="1" opacity="0.9686274509803922" d="M 154 239 Q 157.3 237.9 156 242 Q 152.7 243.1 154 239 Z "></path><path fill="rgb(248,3,60)" stroke="rgb(248,3,60)" stroke-width="1" opacity="0.9686274509803922" d="M 153.5 243 L 154 246.5 L 153 246.5 L 153.5 243 Z "></path><path fill="rgb(255,0,55)" stroke="rgb(255,0,55)" stroke-width="1" opacity="1" d="M 0 79 L 21.5 85 L 26 85 Q 24.7 88.3 29.5 87 L 45 90 Q 43.6 94 50.5 92 Q 56.4 95.7 67 94 Q 65.7 97.3 70.5 96 L 88 99 Q 86.7 102.3 91.5 101 L 122 108 Q 120.7 111.3 125.5 110 L 126.5 111 L 134 111 L 134 113 L 138.5 113 L 139 115 L 141.5 115 L 147.5 117 L 159 118 Q 157.7 121.3 162.5 120 Q 168.1 123.1 177 122 Q 175.2 127.3 182.5 125 L 187.5 127 L 198 128.5 L 194.5 135 L 193 135 L 193 139 L 191 139 L 191 142.5 Q 188.2 144.5 189 149 Q 186 147.8 187 151.5 L 185 159 L 183 159 L 183 163 L 181.5 163 Q 179 164.2 180 168 Q 177 166.8 178 170.5 L 173 181.5 L 173 185.5 L 171 191 Q 165.8 189.2 168 196.5 L 166 204 Q 163 202.8 164 206.5 L 161 224 L 159 224 Q 160.3 228.1 157 227 L 157 234.5 L 156 239 Q 152.7 237.7 154 242.5 L 147 274 Q 144 272.8 145 276.5 L 142 287 Q 138.5 285.9 140 293.5 Q 137 294.8 138 299 Q 135 297.8 136 301.5 L 134 304.5 L 133 312 L 130 313.5 Q 130.7 319.7 127.5 322 L 102.5 322 L 101.5 321 L 88 321 L 87.5 319 L 76.5 319 L 75.5 318 L 55 318 L 55 316 L 48.5 316 Q 49.5 312.5 42.5 314 Q 34.8 310.6 23 312 L 22.5 310 L 11.5 310 L 10.5 309 L 0 309 L 0 79 Z "></path><path fill="rgb(254,0,54)" stroke="rgb(254,0,54)" stroke-width="1" opacity="0.27058823529411763" d="M 7.5 80 L 17 82.5 L 13.5 83 L 7.5 81 L 7.5 80 Z "></path><path fill="rgb(254,0,54)" stroke="rgb(254,0,54)" stroke-width="1" opacity="0.27058823529411763" d="M 21.5 84 L 25 84.5 L 21.5 85 L 21.5 84 Z "></path><path fill="rgb(254,0,54)" stroke="rgb(254,0,54)" stroke-width="1" opacity="0.27058823529411763" d="M 26 85 Q 31.3 83.8 30.5 87 L 33.5 87 L 33.5 88 L 26 87 L 26 85 Z "></path><path fill="rgb(254,0,54)" stroke="rgb(254,0,54)" stroke-width="1" opacity="0.27058823529411763" d="M 41.5 89 L 44 89.5 L 41.5 90 L 41.5 89 Z "></path><path fill="rgb(254,0,54)" stroke="rgb(254,0,54)" stroke-width="1" opacity="0.27058823529411763" d="M 45 90 Q 49.1 88.7 48 92 Q 43.9 93.3 45 90 Z "></path><path fill="rgb(254,0,54)" stroke="rgb(254,0,54)" stroke-width="1" opacity="0.27058823529411763" d="M 51.5 92 L 54 92.5 L 51.5 93 L 51.5 92 Z "></path><path fill="rgb(254,0,54)" stroke="rgb(254,0,54)" stroke-width="1" opacity="0.27058823529411763" d="M 55.5 93 L 59 93.5 L 55.5 94 L 55.5 93 Z "></path><path fill="rgb(254,0,54)" stroke="rgb(254,0,54)" stroke-width="1" opacity="0.27058823529411763" d="M 67 94 Q 71.1 92.7 70 96 Q 65.9 97.3 67 94 Z "></path><path fill="rgb(254,0,54)" stroke="rgb(254,0,54)" stroke-width="1" opacity="0.27058823529411763" d="M 71.5 96 L 76 96.5 L 71.5 97 L 71.5 96 Z "></path><path fill="rgb(254,0,54)" stroke="rgb(254,0,54)" stroke-width="1" opacity="0.27058823529411763" d="M 77.5 97 L 80 97.5 L 77.5 98 L 77.5 97 Z "></path><path fill="rgb(254,0,54)" stroke="rgb(254,0,54)" stroke-width="1" opacity="0.27058823529411763" d="M 88 99 Q 92.1 97.7 91 101 Q 86.9 102.3 88 99 Z "></path><path fill="rgb(254,0,54)" stroke="rgb(254,0,54)" stroke-width="1" opacity="0.27058823529411763" d="M 92.5 101 L 95 101.5 L 92.5 102 L 92.5 101 Z "></path><path fill="rgb(254,0,54)" stroke="rgb(254,0,54)" stroke-width="1" opacity="0.27058823529411763" d="M 96.5 102 L 100 102.5 L 96.5 103 L 96.5 102 Z "></path><path fill="rgb(254,0,54)" stroke="rgb(254,0,54)" stroke-width="1" opacity="0.27058823529411763" d="M 101.5 103 L 109 104.5 L 105.5 105 L 101.5 104 L 101.5 103 Z "></path><path fill="rgb(254,0,54)" stroke="rgb(254,0,54)" stroke-width="1" opacity="0.27058823529411763" d="M 111.5 105 L 114 105.5 L 111.5 106 L 111.5 105 Z "></path><path fill="rgb(254,0,54)" stroke="rgb(254,0,54)" stroke-width="1" opacity="0.27058823529411763" d="M 149.5 263 L 150 265.5 L 149 265.5 L 149.5 263 Z "></path><path fill="rgb(254,0,54)" stroke="rgb(254,0,54)" stroke-width="1" opacity="0.27058823529411763" d="M 148.5 267 L 149 270.5 L 147 276 Q 144 277 145 274 Q 148 275.3 147 271.5 L 148.5 267 Z "></path><path fill="rgb(254,0,54)" stroke="rgb(254,0,54)" stroke-width="1" opacity="0.27058823529411763" d="M 143.5 280 L 144 282.5 L 143 282.5 L 143.5 280 Z "></path><path fill="rgb(254,0,54)" stroke="rgb(254,0,54)" stroke-width="1" opacity="0.27058823529411763" d="M 140 287 Q 143 286 142 289 Q 139 290 140 287 Z "></path><path fill="rgb(254,0,54)" stroke="rgb(254,0,54)" stroke-width="1" opacity="0.27058823529411763" d="M 139.5 294 L 139 295.5 L 138 301 Q 135 302 136 299 Q 139.3 300.3 138 295.5 L 139.5 294 Z "></path><path fill="rgb(254,0,54)" stroke="rgb(254,0,54)" stroke-width="1" opacity="0.27058823529411763" d="M 135.5 302 L 136 303.5 L 134.5 307 L 134 304.5 L 135.5 302 Z "></path><path fill="rgb(254,0,54)" stroke="rgb(254,0,54)" stroke-width="1" opacity="0.27058823529411763" d="M 2.5 309 L 11 309.5 L 2.5 310 L 2.5 309 Z "></path><path fill="rgb(254,0,54)" stroke="rgb(254,0,54)" stroke-width="1" opacity="0.27058823529411763" d="M 16 310 L 22.5 310 L 23 312 L 16.5 312 L 16 310 Z "></path><path fill="rgb(254,0,54)" stroke="rgb(254,0,54)" stroke-width="1" opacity="0.27058823529411763" d="M 32.5 312 L 36 312.5 L 32.5 313 L 32.5 312 Z "></path><path fill="rgb(254,0,54)" stroke="rgb(254,0,54)" stroke-width="1" opacity="0.27058823529411763" d="M 131.5 312 L 133 312.5 L 131 313 L 130.5 316 L 130 313.5 L 131.5 312 Z "></path><path fill="rgb(254,0,54)" stroke="rgb(254,0,54)" stroke-width="1" opacity="0.27058823529411763" d="M 37.5 313 L 42 313.5 L 37.5 314 L 37.5 313 Z "></path><path fill="rgb(254,0,54)" stroke="rgb(254,0,54)" stroke-width="1" opacity="0.27058823529411763" d="M 44 314 Q 49.2 312.3 48 316 Q 42.8 317.7 44 314 Z "></path><path fill="rgb(254,0,54)" stroke="rgb(254,0,54)" stroke-width="1" opacity="0.27058823529411763" d="M 51 316 Q 56.2 314.3 55 318 Q 49.8 319.7 51 316 Z "></path><path fill="rgb(254,0,54)" stroke="rgb(254,0,54)" stroke-width="1" opacity="0.27058823529411763" d="M 68.5 318 L 76 318.5 L 68.5 319 L 68.5 318 Z "></path><path fill="rgb(254,0,54)" stroke="rgb(254,0,54)" stroke-width="1" opacity="0.27058823529411763" d="M 79 319 L 87.5 319 L 88 321 L 79.5 321 L 79 319 Z "></path><path fill="rgb(254,0,54)" stroke="rgb(254,0,54)" stroke-width="1" opacity="0.27058823529411763" d="M 93.5 321 L 102 321.5 L 93.5 322 L 93.5 321 Z "></path><path fill="rgb(254,0,54)" stroke="rgb(254,0,54)" stroke-width="1" opacity="0.27058823529411763" d="M 128.5 321 L 129 323 L 109 322.5 L 127.5 322 L 128.5 321 Z "></path><path fill="rgb(0,135,255)" stroke="rgb(0,135,255)" stroke-width="1" opacity="0.2784313725490196" d="M 396.5 12 L 400 12.5 L 393.5 14 L 393.5 13 L 396.5 12 Z "></path><path fill="rgb(0,135,255)" stroke="rgb(0,135,255)" stroke-width="1" opacity="0.2784313725490196" d="M 383 14 L 387 15 Q 388.2 18.7 383 17 L 383 14 Z "></path><path fill="rgb(0,135,255)" stroke="rgb(0,135,255)" stroke-width="1" opacity="0.2784313725490196" d="M 388.5 14 L 392 14.5 L 388.5 15 L 388.5 14 Z "></path><path fill="rgb(0,135,255)" stroke="rgb(0,135,255)" stroke-width="1" opacity="0.2784313725490196" d="M 377.5 16 L 380 16.5 L 377.5 17 L 377.5 16 Z "></path><path fill="rgb(0,135,255)" stroke="rgb(0,135,255)" stroke-width="1" opacity="0.2784313725490196" d="M 367.5 17 L 371 17.5 L 367.5 18 L 367.5 17 Z "></path><path fill="rgb(0,135,255)" stroke="rgb(0,135,255)" stroke-width="1" opacity="0.2784313725490196" d="M 354.5 18 L 359 19.5 L 356.5 20 L 354.5 18 Z "></path><path fill="rgb(0,135,255)" stroke="rgb(0,135,255)" stroke-width="1" opacity="0.2784313725490196" d="M 361.5 18 L 366 18.5 L 361.5 19 L 361.5 18 Z "></path><path fill="rgb(0,135,255)" stroke="rgb(0,135,255)" stroke-width="1" opacity="0.2784313725490196" d="M 350 19 Q 353 18 352 21 Q 349 22 350 19 Z "></path><path fill="rgb(0,135,255)" stroke="rgb(0,135,255)" stroke-width="1" opacity="0.2784313725490196" d="M 342.5 21 L 347 21.5 L 342.5 22 L 342.5 21 Z "></path><path fill="rgb(0,135,255)" stroke="rgb(0,135,255)" stroke-width="1" opacity="0.2784313725490196" d="M 336.5 22 L 340 22.5 L 336.5 23 L 336.5 22 Z "></path><path fill="rgb(0,135,255)" stroke="rgb(0,135,255)" stroke-width="1" opacity="0.2784313725490196" d="M 323.5 23 Q 327.3 22.3 328 24.5 L 326.5 25 L 323.5 24 L 323.5 23 Z "></path><path fill="rgb(0,135,255)" stroke="rgb(0,135,255)" stroke-width="1" opacity="0.2784313725490196" d="M 329.5 23 L 333 23.5 L 329.5 24 L 329.5 23 Z "></path><path fill="rgb(0,135,255)" stroke="rgb(0,135,255)" stroke-width="1" opacity="0.2784313725490196" d="M 316.5 24 L 321 24.5 L 316.5 25 L 316.5 24 Z "></path><path fill="rgb(0,135,255)" stroke="rgb(0,135,255)" stroke-width="1" opacity="0.2784313725490196" d="M 310 25 Q 315.2 23.3 314 27 Q 308.8 28.7 310 25 Z "></path><path fill="rgb(0,135,255)" stroke="rgb(0,135,255)" stroke-width="1" opacity="0.2784313725490196" d="M 296.5 27 L 301 28.5 L 298.5 29 L 296.5 27 Z "></path><path fill="rgb(0,135,255)" stroke="rgb(0,135,255)" stroke-width="1" opacity="0.2784313725490196" d="M 303.5 27 L 307 27.5 L 303.5 28 L 303.5 27 Z "></path><path fill="rgb(0,135,255)" stroke="rgb(0,135,255)" stroke-width="1" opacity="0.2784313725490196" d="M 289.5 28 L 294 28.5 L 289.5 29 L 289.5 28 Z "></path><path fill="rgb(0,135,255)" stroke="rgb(0,135,255)" stroke-width="1" opacity="0.2784313725490196" d="M 281.5 29 L 286 29.5 L 281.5 30 L 281.5 29 Z "></path><path fill="rgb(0,135,255)" stroke="rgb(0,135,255)" stroke-width="1" opacity="0.2784313725490196" d="M 267 30 Q 271.6 28.8 273 31.5 Q 273.9 34.5 269.5 33 L 267 32 L 267 30 Z "></path><path fill="rgb(0,135,255)" stroke="rgb(0,135,255)" stroke-width="1" opacity="0.2784313725490196" d="M 275.5 30 L 280 30.5 L 275.5 31 L 275.5 30 Z "></path><path fill="rgb(0,135,255)" stroke="rgb(0,135,255)" stroke-width="1" opacity="0.2784313725490196" d="M 261.5 32 L 265 32.5 L 261.5 33 L 261.5 32 Z "></path><path fill="rgb(0,135,255)" stroke="rgb(0,135,255)" stroke-width="1" opacity="0.2784313725490196" d="M 255.5 33 L 260 33.5 L 255.5 34 L 255.5 33 Z "></path><path fill="rgb(0,135,255)" stroke="rgb(0,135,255)" stroke-width="1" opacity="0.2784313725490196" d="M 227.5 34 L 234 34.5 L 227.5 35 L 227.5 34 Z "></path><path fill="rgb(0,135,255)" stroke="rgb(0,135,255)" stroke-width="1" opacity="0.2784313725490196" d="M 246.5 34 L 253 34.5 L 246.5 35 L 246.5 34 Z "></path><path fill="rgb(0,135,255)" stroke="rgb(0,135,255)" stroke-width="1" opacity="0.2784313725490196" d="M 220 35 Q 225.2 33.3 224 37 Q 218.8 38.7 220 35 Z "></path><path fill="rgb(0,135,255)" stroke="rgb(0,135,255)" stroke-width="1" opacity="0.2784313725490196" d="M 214.5 36 Q 219.3 34.7 218 38 Q 213.8 38 214.5 36 Z "></path><path fill="rgb(0,135,255)" stroke="rgb(0,135,255)" stroke-width="1" opacity="0.2784313725490196" d="M 206.5 37 L 211 37.5 L 206.5 38 L 206.5 37 Z "></path><path fill="rgb(0,135,255)" stroke="rgb(0,135,255)" stroke-width="1" opacity="0.2784313725490196" d="M 201.5 38 L 205 38.5 L 201.5 39 L 201.5 38 Z "></path><path fill="rgb(0,135,255)" stroke="rgb(0,135,255)" stroke-width="1" opacity="0.2784313725490196" d="M 185.5 39 Q 190 38 191 40.5 L 189.5 41 L 185.5 40 L 185.5 39 Z "></path><path fill="rgb(0,135,255)" stroke="rgb(0,135,255)" stroke-width="1" opacity="0.2784313725490196" d="M 194.5 39 L 198 39.5 L 194.5 40 L 194.5 39 Z "></path><path fill="rgb(0,135,255)" stroke="rgb(0,135,255)" stroke-width="1" opacity="0.2784313725490196" d="M 177 40 L 183 40 L 183 42 L 177 42 L 177 40 Z "></path><path fill="rgb(0,135,255)" stroke="rgb(0,135,255)" stroke-width="1" opacity="0.2784313725490196" d="M 162.5 42 L 167 43.5 L 162 44 L 162.5 42 Z "></path><path fill="rgb(0,135,255)" stroke="rgb(0,135,255)" stroke-width="1" opacity="0.2784313725490196" d="M 169.5 42 L 174 42.5 L 169.5 43 L 169.5 42 Z "></path><path fill="rgb(0,135,255)" stroke="rgb(0,135,255)" stroke-width="1" opacity="0.2784313725490196" d="M 154.5 43 L 160 43.5 L 154.5 44 L 154.5 43 Z "></path><path fill="rgb(0,135,255)" stroke="rgb(0,135,255)" stroke-width="1" opacity="0.2784313725490196" d="M 147.5 44 L 152 44.5 L 147.5 45 L 147.5 44 Z "></path><path fill="rgb(0,135,255)" stroke="rgb(0,135,255)" stroke-width="1" opacity="0.2784313725490196" d="M 133 45 L 139 46 Q 140.3 49.7 134.5 48 L 133 45 Z "></path><path fill="rgb(0,135,255)" stroke="rgb(0,135,255)" stroke-width="1" opacity="0.2784313725490196" d="M 141.5 45 L 146 45.5 L 141.5 46 L 141.5 45 Z "></path><path fill="rgb(0,135,255)" stroke="rgb(0,135,255)" stroke-width="1" opacity="0.2784313725490196" d="M 126.5 47 L 131 47.5 L 126.5 48 L 126.5 47 Z "></path><path fill="rgb(0,135,255)" stroke="rgb(0,135,255)" stroke-width="1" opacity="0.2784313725490196" d="M 121.5 48 L 125 48.5 L 121.5 49 L 121.5 48 Z "></path><path fill="rgb(0,135,255)" stroke="rgb(0,135,255)" stroke-width="1" opacity="0.2784313725490196" d="M 114.5 49 L 120 49.5 L 112.5 51 L 112.5 50 L 114.5 49 Z "></path><path fill="rgb(0,135,255)" stroke="rgb(0,135,255)" stroke-width="1" opacity="0.2784313725490196" d="M 112.5 55 L 113 66.5 L 111 67.5 L 112.5 55 Z "></path><path fill="rgb(0,135,255)" stroke="rgb(0,135,255)" stroke-width="1" opacity="0.2784313725490196" d="M 112.5 70 L 113 74.5 L 112 74.5 L 112.5 70 Z "></path><path fill="rgb(0,135,255)" stroke="rgb(0,135,255)" stroke-width="1" opacity="0.2784313725490196" d="M 113 77 L 115 77 L 115 82 L 113 82 L 113 77 Z "></path><path fill="rgb(0,135,255)" stroke="rgb(0,135,255)" stroke-width="1" opacity="0.2784313725490196" d="M 115.5 87 L 116 92.5 L 114.5 96 L 114 92.5 L 115.5 87 Z "></path><path fill="rgb(0,135,255)" stroke="rgb(0,135,255)" stroke-width="1" opacity="0.2784313725490196" d="M 115.5 97 L 116 99.5 L 115 99.5 L 115.5 97 Z "></path><path fill="rgb(0,135,255)" stroke="rgb(0,135,255)" stroke-width="1" opacity="0.2784313725490196" d="M 116.5 103 L 117 105.5 L 116 105.5 L 116.5 103 Z "></path><path fill="rgb(0,135,255)" stroke="rgb(0,135,255)" stroke-width="1" opacity="0.2784313725490196" d="M 151.5 264 L 153 270.5 L 152 270.5 L 151.5 264 Z "></path><path fill="rgb(0,135,255)" stroke="rgb(0,135,255)" stroke-width="1" opacity="0.2784313725490196" d="M 153.5 273 L 154 275.5 L 153 275.5 L 153.5 273 Z "></path><path fill="rgb(0,135,255)" stroke="rgb(0,135,255)" stroke-width="1" opacity="0.2784313725490196" d="M 154.5 277 Q 157.5 276.1 156 280.5 L 157 282.5 L 155 283.5 L 156 281.5 L 153 281 L 154.5 277 Z "></path><path fill="rgb(0,135,255)" stroke="rgb(0,135,255)" stroke-width="1" opacity="0.2784313725490196" d="M 156.5 285 L 157 288.5 L 156 288.5 L 156.5 285 Z "></path><path fill="rgb(0,135,255)" stroke="rgb(0,135,255)" stroke-width="1" opacity="0.2784313725490196" d="M 158.5 300 L 159 302.5 L 158 302.5 L 158.5 300 Z "></path><path fill="rgb(0,135,255)" stroke="rgb(0,135,255)" stroke-width="1" opacity="0.2784313725490196" d="M 159 304 Q 162.7 302.8 161 308 Q 157.3 309.2 159 304 Z "></path><path fill="rgb(0,135,255)" stroke="rgb(0,135,255)" stroke-width="1" opacity="0.2784313725490196" d="M 160.5 312 L 161 320.5 L 160 320.5 L 160.5 312 Z "></path><path fill="rgb(0,135,255)" stroke="rgb(0,135,255)" stroke-width="1" opacity="0.2784313725490196" d="M 161.5 323 L 163 328.5 L 162 328.5 L 161.5 323 Z "></path><path fill="rgb(0,135,255)" stroke="rgb(0,135,255)" stroke-width="1" opacity="0.2784313725490196" d="M 163.5 332 L 164 338 L 162 337.5 L 163.5 332 Z "></path><path fill="rgb(0,135,255)" stroke="rgb(0,135,255)" stroke-width="1" opacity="0.2784313725490196" d="M 163.5 340 L 164 346.5 L 163 346.5 L 163.5 340 Z "></path><path fill="rgb(0,135,255)" stroke="rgb(0,135,255)" stroke-width="1" opacity="0.2784313725490196" d="M 164 348 L 166 348.5 L 166 358 L 164 357.5 L 164 348 Z "></path><path fill="rgb(0,135,255)" stroke="rgb(0,135,255)" stroke-width="1" opacity="0.2784313725490196" d="M 394.5 350 L 399 350.5 L 394.5 351 L 394.5 350 Z "></path><path fill="rgb(0,135,255)" stroke="rgb(0,135,255)" stroke-width="1" opacity="0.2784313725490196" d="M 377 351 Q 382.6 349.1 381 354 L 377 353 L 377 351 Z "></path><path fill="rgb(0,135,255)" stroke="rgb(0,135,255)" stroke-width="1" opacity="0.2784313725490196" d="M 386.5 351 L 392 351.5 L 386.5 352 L 386.5 351 Z "></path><path fill="rgb(0,135,255)" stroke="rgb(0,135,255)" stroke-width="1" opacity="0.2784313725490196" d="M 367.5 353 L 374 353.5 L 367.5 354 L 367.5 353 Z "></path><path fill="rgb(0,135,255)" stroke="rgb(0,135,255)" stroke-width="1" opacity="0.2784313725490196" d="M 325.5 354 Q 330.3 353.3 332 355.5 L 329.5 356 L 325.5 355 L 325.5 354 Z "></path><path fill="rgb(0,135,255)" stroke="rgb(0,135,255)" stroke-width="1" opacity="0.2784313725490196" d="M 347.5 354 Q 353.6 352.9 356 355.5 L 353.5 356 Q 352.3 353.8 347.5 355 L 347.5 354 Z "></path><path fill="rgb(0,135,255)" stroke="rgb(0,135,255)" stroke-width="1" opacity="0.2784313725490196" d="M 358.5 354 L 364 354.5 L 358.5 355 L 358.5 354 Z "></path><path fill="rgb(0,135,255)" stroke="rgb(0,135,255)" stroke-width="1" opacity="0.2784313725490196" d="M 313 355 L 319.5 355 L 320 357 L 313.5 357 L 313 355 Z "></path><path fill="rgb(0,135,255)" stroke="rgb(0,135,255)" stroke-width="1" opacity="0.2784313725490196" d="M 300.5 356 L 309 357.5 L 303.5 358 L 300.5 357 L 300.5 356 Z "></path><path fill="rgb(0,135,255)" stroke="rgb(0,135,255)" stroke-width="1" opacity="0.2784313725490196" d="M 275.5 357 L 283 358.5 L 278.5 359 L 275.5 358 L 275.5 357 Z "></path><path fill="rgb(0,135,255)" stroke="rgb(0,135,255)" stroke-width="1" opacity="0.2784313725490196" d="M 288.5 357 L 295 357.5 L 288.5 358 L 288.5 357 Z "></path><path fill="rgb(0,135,255)" stroke="rgb(0,135,255)" stroke-width="1" opacity="0.2784313725490196" d="M 253.5 358 L 260 359.5 L 253 360 L 253.5 358 Z "></path><path fill="rgb(0,135,255)" stroke="rgb(0,135,255)" stroke-width="1" opacity="0.2784313725490196" d="M 266.5 358 L 272 358.5 L 266.5 359 L 266.5 358 Z "></path><path fill="rgb(0,135,255)" stroke="rgb(0,135,255)" stroke-width="1" opacity="0.2784313725490196" d="M 166.5 359 L 167 363 Q 170.3 361.9 169 366 L 173.5 366 L 174.5 368 L 166.5 367 L 165 365.5 L 166.5 359 Z "></path><path fill="rgb(0,135,255)" stroke="rgb(0,135,255)" stroke-width="1" opacity="0.2784313725490196" d="M 243 359 L 249.5 359 L 250 361 L 243.5 361 L 243 359 Z "></path><path fill="rgb(0,135,255)" stroke="rgb(0,135,255)" stroke-width="1" opacity="0.2784313725490196" d="M 217.5 361 L 224 361.5 L 217.5 362 L 217.5 361 Z "></path><path fill="rgb(0,135,255)" stroke="rgb(0,135,255)" stroke-width="1" opacity="0.2784313725490196" d="M 230.5 361 L 238 361.5 L 230.5 362 L 230.5 361 Z "></path><path fill="rgb(0,135,255)" stroke="rgb(0,135,255)" stroke-width="1" opacity="0.2784313725490196" d="M 199.5 362 L 204 363.5 L 201.5 364 L 199.5 362 Z "></path><path fill="rgb(0,135,255)" stroke="rgb(0,135,255)" stroke-width="1" opacity="0.2784313725490196" d="M 208.5 362 L 212 362.5 L 208.5 363 L 208.5 362 Z "></path><path fill="rgb(0,135,255)" stroke="rgb(0,135,255)" stroke-width="1" opacity="0.2784313725490196" d="M 192.5 363 L 197 363.5 L 192.5 364 L 192.5 363 Z "></path><path fill="rgb(0,135,255)" stroke="rgb(0,135,255)" stroke-width="1" opacity="0.2784313725490196" d="M 184 364 L 190 364 L 190 366 L 184 366 L 184 364 Z "></path><path fill="rgb(0,135,255)" stroke="rgb(0,135,255)" stroke-width="1" opacity="0.2784313725490196" d="M 176.5 366 L 181 366.5 L 176.5 367 L 176.5 366 Z "></path></svg>