<svg width="400" height="400" version="1.1" xmlns="http://www.w3.org/2000/svg" desc="Created with imagetracer.js version 1.2.5"><path fill="rgb(11,4,230)" stroke="rgb(11,4,230)" stroke-width="1" opacity="0.12941176470588237" d="M 398.5 21 L 400 21.5 L 400 29 L 385.5 29 L 382.5 30 L 380.5 30 L 374.5 30 L 355 36 Q 354 30.4 358.5 29 L 398.5 21 Z "></path><path fill="rgb(11,4,230)" stroke="rgb(11,4,230)" stroke-width="1" opacity="0.12941176470588237" d="M 398.5 32 Q 400.8 31.3 400 33.5 L 398.5 35 L 377.5 41 L 365.5 48 L 357.5 51 L 353.5 51 L 354.5 49 L 381.5 37 L 398.5 32 Z "></path><path fill="rgb(11,4,230)" stroke="rgb(11,4,230)" stroke-width="1" opacity="0.12941176470588237" d="M 344.5 36 L 346 39 L 343.5 40 L 342 37 L 344.5 36 Z "></path><path fill="rgb(11,4,230)" stroke="rgb(11,4,230)" stroke-width="1" opacity="0.12941176470588237" d="M 318.5 50 Q 321.5 51.5 318.5 53 L 295.5 66 L 296 64.5 L 297.5 62 L 318.5 50 Z "></path><path fill="rgb(11,4,230)" stroke="rgb(11,4,230)" stroke-width="1" opacity="0.12941176470588237" d="M 325.5 60 L 328 66 L 323.5 66 L 315 70 Q 316.5 73.8 313.5 73 L 300.5 79 L 294.5 84 Q 291 82 295.5 80 L 302.5 74 L 310.5 72 L 313 69.5 Q 312.5 65.5 315.5 65 L 325.5 60 Z "></path><path fill="rgb(11,4,230)" stroke="rgb(11,4,230)" stroke-width="1" opacity="0.12941176470588237" d="M 285.5 72 L 288 72.5 Q 273.7 81.2 263 93.5 L 258 103.5 L 257 114.5 L 254 121.5 L 254 127.5 L 252 135.5 L 252 155.5 L 258 168.5 L 278 197.5 L 276.5 199 L 273 195.5 L 260 176.5 L 252 161.5 L 250 155.5 L 250 136.5 L 251 135.5 L 252 120.5 L 255 113.5 L 255 105.5 L 258 96.5 L 272.5 81 L 280.5 77 L 285.5 72 Z "></path><path fill="rgb(11,4,230)" stroke="rgb(11,4,230)" stroke-width="1" opacity="0.12941176470588237" d="M 276.5 97 Q 277.1 102.9 282 104.5 L 279 106.5 Q 279.8 108.8 277.5 108 L 276 111 Q 273 109.8 274 113.5 Q 269.4 121.4 271 135.5 L 273 140.5 L 274 150.5 L 278 161.5 Q 284.8 178.7 294 192 L 290 189.5 L 278 171.5 L 267 150.5 L 263 138.5 L 263 122.5 Q 265.9 105.9 276.5 97 Z "></path><path fill="rgb(11,4,230)" stroke="rgb(11,4,230)" stroke-width="1" opacity="0.12941176470588237" d="M 290.5 220 L 293 223.5 L 297 236.5 L 298 248.5 L 297 250.5 L 298 252.5 L 297 253.5 L 297 265.5 L 294.5 272 L 293 269.5 L 295 265.5 L 295 246.5 L 296 241.5 L 289 221.5 L 290.5 220 Z "></path><path fill="rgb(11,4,230)" stroke="rgb(11,4,230)" stroke-width="1" opacity="0.12941176470588237" d="M 304.5 220 Q 309.3 220.3 311 223.5 L 314 229.5 L 315 240.5 L 311 253.5 L 308.5 257 L 308 254.5 L 309 250.5 L 308 249.5 L 307 229.5 L 304.5 220 Z "></path><path fill="rgb(11,4,230)" stroke="rgb(11,4,230)" stroke-width="1" opacity="0.12941176470588237" d="M 287.5 283 Q 290.1 282.2 289 285.5 L 286 292.5 L 270.5 312 L 261.5 319 Q 247.5 323 238.5 332 L 202.5 339 L 200.5 339 Q 194.3 337.3 192.5 340 L 167.5 340 L 166 336 L 168.5 335 L 195.5 332 L 196.5 331 L 214.5 330 L 244.5 324 L 248.5 321 L 260.5 317 L 274 305.5 L 280 295 Q 282.7 296.1 282 293.5 L 287 286.5 L 286 284.5 L 287.5 283 Z "></path><path fill="rgb(11,4,230)" stroke="rgb(11,4,230)" stroke-width="1" opacity="0.12941176470588237" d="M 311.5 283 Q 313.8 282.3 313 284.5 L 298 306.5 L 290.5 314 Q 288.3 313.3 289 315.5 L 283.5 321 L 263.5 331 L 258.5 332 L 248.5 338 L 218.5 344 L 189.5 344 L 188.5 345 L 170.5 345 L 168 346 L 169.5 343 L 217.5 342 L 247.5 336 L 257.5 330 L 281.5 320 L 294 307.5 L 299 298.5 L 303 285 L 311.5 283 Z "></path><path fill="rgb(11,4,230)" stroke="rgb(11,4,230)" stroke-width="1" opacity="0.12941176470588237" d="M 138.5 338 Q 141.5 337.2 140 341 L 127.5 341 L 126.5 342 L 115.5 343 L 116.5 341 L 119.5 342 L 126.5 339 L 137.5 339 L 138.5 338 Z "></path><path fill="rgb(11,4,230)" stroke="rgb(11,4,230)" stroke-width="1" opacity="0.12941176470588237" d="M 88.5 341 L 101.5 341 L 103 342.5 Q 93.1 341.6 88 345.5 L 88.5 347 L 116.5 347 L 116.5 348 Q 111.8 346.8 110.5 349 L 81.5 349 L 78 348 Q 77.3 344.2 80.5 343 L 88.5 341 Z "></path><path fill="rgb(11,4,230)" stroke="rgb(11,4,230)" stroke-width="1" opacity="0.12941176470588237" d="M 137.5 346 Q 143.3 344.3 142 348 Q 136.8 349.8 127.5 349 L 126.5 347 L 136.5 347 L 137.5 346 Z "></path><path fill="rgb(3,155,79)" stroke="rgb(3,155,79)" stroke-width="1" opacity="0.996078431372549" d="M 281.5 29 L 282 39 L 294.5 34 L 316.5 33 L 326.5 36 L 336 44.5 L 344 62 Q 347.5 60.9 346 68.5 L 344 67.5 L 344 64.5 L 338 49.5 L 328.5 39 L 323.5 36 L 314.5 34 L 302.5 34 L 288.5 37 L 282.5 41 L 281 39.5 L 281.5 29 Z "></path><path fill="rgb(3,155,79)" stroke="rgb(3,155,79)" stroke-width="1" opacity="0.996078431372549" d="M 276.5 33 L 277 43.5 L 276 43.5 L 276.5 33 Z "></path><path fill="rgb(3,155,79)" stroke="rgb(3,155,79)" stroke-width="1" opacity="0.996078431372549" d="M 354.5 33 L 355 36.5 L 354 36.5 L 354.5 33 Z "></path><path fill="rgb(3,155,79)" stroke="rgb(3,155,79)" stroke-width="1" opacity="0.996078431372549" d="M 346.5 37 L 348 42 Q 343.9 43.2 346.5 37 Z "></path><path fill="rgb(3,155,79)" stroke="rgb(3,155,79)" stroke-width="1" opacity="0.996078431372549" d="M 304.5 38 L 311.5 38 L 321.5 40 L 332 48.5 Q 339.7 61.3 344 77.5 L 344 85.5 L 342 90 L 338.5 91 L 335.5 90 Q 331.6 96.1 324 98.5 L 321.5 102 L 310.5 103 L 302.5 101 L 291.5 93 L 289.5 93 L 288 97 L 300.5 105 Q 306.1 108.1 315 107 L 315 109.5 Q 307.9 116.9 305 128.5 Q 306.3 133.3 304 134.5 L 304 152.5 L 305 157.5 L 308.5 163 L 309.5 161 Q 309.2 171.8 314 177.5 L 338 205.5 Q 341 209.5 340 217.5 L 339 220.5 L 342.5 226 L 343.5 217 L 344 231.5 L 342 230.5 L 337 218.5 Q 340.3 217.3 339 211.5 L 336 204.5 L 314 179.5 Q 308.3 171.7 306 160.5 L 302.5 157 L 299 158.5 L 308 178.5 L 322.5 197 Q 324.8 196.3 324 198.5 Q 328.9 200.7 328 207 L 330.5 208 L 331 206.5 L 330.5 205 L 333 210.5 L 329.5 212 L 314.5 203 L 292.5 203 L 281.5 208 L 266 221.5 Q 266.7 224.1 264 223 L 265.5 215 L 266.5 220 Q 275.5 210 287.5 203 L 291.5 202 L 314.5 202 L 327 208 Q 327 202.2 323.5 199 L 318 200 L 319 194.5 L 306 177.5 L 298 157.5 Q 299.2 154.3 303 155 L 303 132.5 L 304 127.5 L 309 115.5 L 313 110.5 L 313 108 Q 294.1 107.6 286 95.5 Q 286.5 91.5 291.5 92 L 303.5 100 L 317.5 102 L 323 99.5 L 325.5 96 Q 331.1 95.6 333 91.5 L 334.5 89 L 336.5 88 L 341 89 Q 343.4 85.1 342 75.5 L 332 50.5 L 324.5 43 L 316.5 40 L 308.5 40 L 307.5 39 L 291.5 42 L 283 47 Q 280.8 50.7 282 59 L 286 61.5 L 284.5 64 L 282 65.5 L 281.5 69 L 281 65.5 L 285 62.5 L 281 59.5 Q 280 50.5 282 46 L 290.5 41 L 304.5 38 Z "></path><path fill="rgb(3,155,79)" stroke="rgb(3,155,79)" stroke-width="1" opacity="0.996078431372549" d="M 352 39 Q 356 37.6 354 44.5 L 353 44.5 L 352 39 Z "></path><path fill="rgb(3,155,79)" stroke="rgb(3,155,79)" stroke-width="1" opacity="0.996078431372549" d="M 275.5 45 L 276 47.5 Q 271.4 50.4 271 57.5 L 272 60 L 258.5 63 L 240.5 72 L 225 86.5 L 217 100.5 L 215 107.5 L 215 115.5 L 214 116.5 L 214 145.5 L 219 166.5 L 233 194.5 L 242.5 207 Q 246.9 205.5 246 208.5 L 250 219.5 L 255.5 226 L 258 227.5 Q 258.8 231.3 256.5 232 L 253 234.5 L 253 237.5 L 258 242.5 L 258 244.5 L 256 243.5 L 252 238.5 L 252 234.5 L 257 228.5 L 252 224.5 Q 246.6 217.5 245 208 Q 240.1 208.1 238 204.5 L 232 195.5 L 216 161.5 L 213 147.5 L 213 112.5 L 215 102.5 L 218 95.5 Q 224.6 82.6 235.5 74 L 260.5 61 L 270 59 L 270 54.5 L 275.5 45 Z "></path><path fill="rgb(3,155,79)" stroke="rgb(3,155,79)" stroke-width="1" opacity="0.996078431372549" d="M 346.5 47 L 347 58.5 L 346 58.5 L 346.5 47 Z "></path><path fill="rgb(3,155,79)" stroke="rgb(3,155,79)" stroke-width="1" opacity="0.996078431372549" d="M 275.5 56 Q 278.3 57.3 276 58.5 Q 276.7 61.1 274 60 L 275.5 56 Z "></path><path fill="rgb(3,155,79)" stroke="rgb(3,155,79)" stroke-width="1" opacity="0.996078431372549" d="M 351.5 56 L 352 62.5 L 351 62.5 L 351.5 56 Z "></path><path fill="rgb(3,155,79)" stroke="rgb(3,155,79)" stroke-width="1" opacity="0.996078431372549" d="M 37.5 57 Q 43 55.5 44.5 58 L 79 58.5 L 44.5 59 Q 43 56.5 37.5 58 L 37.5 57 Z "></path><path fill="rgb(3,155,79)" stroke="rgb(3,155,79)" stroke-width="1" opacity="0.996078431372549" d="M 82.5 57 L 126 57.5 L 82.5 58 L 82.5 57 Z "></path><path fill="rgb(3,155,79)" stroke="rgb(3,155,79)" stroke-width="1" opacity="0.996078431372549" d="M 161.5 57 L 163 58.5 L 160 61.5 L 161 62.5 L 165 76.5 L 166 95.5 Q 164.3 106.8 156.5 112 Q 152.8 112.8 152 110.5 L 160 96.5 L 160 79.5 L 157 67.5 L 153.5 62 L 150 60.5 L 151.5 61 Q 155.5 60.5 156 63.5 L 161 79.5 L 161 96.5 L 159 102.5 L 153 111 Q 158.6 112 160 107.5 L 165 95.5 L 165 83.5 L 162 68.5 L 159 61.5 Q 163.3 59.3 161.5 57 Z "></path><path fill="rgb(3,155,79)" stroke="rgb(3,155,79)" stroke-width="1" opacity="0.996078431372549" d="M 140.5 61 L 149 61.5 L 140 62 L 138.5 65 L 32.5 65 L 31 66.5 L 32 105.5 L 33.5 107 L 144.5 106 L 146 109.5 L 141.5 112 L 66.5 112 L 65.5 113 L 63.5 113 L 35.5 113 L 32.5 114 L 32.5 113 L 35.5 112 L 62.5 112 L 63.5 111 L 141.5 111 L 145 110 L 143.5 107 L 32.5 108 L 31 106.5 L 30 65.5 L 31.5 64 L 137.5 64 L 140.5 61 Z "></path><path fill="rgb(3,155,79)" stroke="rgb(3,155,79)" stroke-width="1" opacity="0.996078431372549" d="M 275.5 63 L 277 68.5 L 276 68.5 L 274.5 65 L 263.5 67 L 244.5 76 L 229 90.5 L 221 106.5 L 219 133.5 L 220 134.5 L 220 147.5 L 225 166.5 L 240 195.5 L 251.5 209 Q 254.5 208.1 253 212.5 L 257.5 220 Q 259.8 220.8 259 218.5 L 260 218.5 Q 260.8 222.3 258.5 223 Q 252.9 219.1 252 210.5 L 244.5 202 L 242 200.5 L 236 191.5 L 224 167.5 L 221 158.5 L 218 141.5 L 218 121.5 L 219 120.5 L 219 110.5 L 221 102.5 Q 227.3 87.3 239.5 78 L 262.5 66 L 271.5 65 L 275.5 63 Z "></path><path fill="rgb(3,155,79)" stroke="rgb(3,155,79)" stroke-width="1" opacity="0.996078431372549" d="M 350.5 80 L 351 86.5 L 350 86.5 L 350.5 80 Z "></path><path fill="rgb(3,155,79)" stroke="rgb(3,155,79)" stroke-width="1" opacity="0.996078431372549" d="M 349.5 90 L 350 94.5 L 349 94.5 L 349.5 90 Z "></path><path fill="rgb(3,155,79)" stroke="rgb(3,155,79)" stroke-width="1" opacity="0.996078431372549" d="M 20.5 93 L 23 99.5 L 23 103.5 L 22 103.5 L 20.5 93 Z "></path><path fill="rgb(3,155,79)" stroke="rgb(3,155,79)" stroke-width="1" opacity="0.996078431372549" d="M 348.5 96 L 349 100.5 L 348 100.5 L 348.5 96 Z "></path><path fill="rgb(3,155,79)" stroke="rgb(3,155,79)" stroke-width="1" opacity="0.996078431372549" d="M 341.5 97 Q 344.1 96.3 343 99 Q 327.6 103.1 318 114.5 L 310 131.5 L 308.5 144 L 308 136.5 L 311 124.5 L 315 116.5 L 322.5 108 L 341.5 97 Z "></path><path fill="rgb(3,155,79)" stroke="rgb(3,155,79)" stroke-width="1" opacity="0.996078431372549" d="M 342.5 103 L 343 107.5 L 342 107.5 L 342.5 103 Z "></path><path fill="rgb(3,155,79)" stroke="rgb(3,155,79)" stroke-width="1" opacity="0.996078431372549" d="M 23.5 105 L 24 113.5 L 23 113.5 L 23.5 105 Z "></path><path fill="rgb(3,155,79)" stroke="rgb(3,155,79)" stroke-width="1" opacity="0.996078431372549" d="M 308.5 152 L 309 157.5 L 308 157.5 L 308.5 152 Z "></path><path fill="rgb(3,155,79)" stroke="rgb(3,155,79)" stroke-width="1" opacity="0.996078431372549" d="M 261.5 204 L 262 206.5 L 261 206.5 L 261.5 204 Z "></path><path fill="rgb(3,155,79)" stroke="rgb(3,155,79)" stroke-width="1" opacity="0.996078431372549" d="M 295.5 207 L 302.5 207 Q 306 210.5 312.5 211 L 320 217.5 L 325 228.5 L 326 239.5 L 321 258.5 L 317.5 263 L 311 267 L 310.5 271 L 310 267.5 L 319 259.5 L 324 244.5 L 324 235.5 L 325 234.5 L 321 221.5 L 313.5 213 L 303.5 209 L 291.5 209 L 285.5 212 L 273 223.5 L 274 232.5 L 271 235.5 L 271 245.5 Q 274.3 258.2 283.5 265 Q 286.1 264.2 285 267.5 L 284 267.5 Q 284.8 265.3 282.5 266 Q 272 257.5 269 241.5 Q 271.5 240 270 234.5 Q 273.5 234 273 229.5 L 271 225.5 L 276.5 218 Q 283.1 209.6 295.5 207 Z "></path><path fill="rgb(3,155,79)" stroke="rgb(3,155,79)" stroke-width="1" opacity="0.996078431372549" d="M 344.5 207 L 345 211.5 L 344 211.5 L 344.5 207 Z "></path><path fill="rgb(3,155,79)" stroke="rgb(3,155,79)" stroke-width="1" opacity="0.996078431372549" d="M 266.5 208 L 267 210.5 L 266 210.5 L 266.5 208 Z "></path><path fill="rgb(3,155,79)" stroke="rgb(3,155,79)" stroke-width="1" opacity="0.996078431372549" d="M 260.5 212 L 261 215.5 L 260 215.5 L 260.5 212 Z "></path><path fill="rgb(3,155,79)" stroke="rgb(3,155,79)" stroke-width="1" opacity="0.996078431372549" d="M 323.5 213 L 333 220.5 L 339 232.5 L 341 243.5 L 340 248.5 L 342 254.5 L 342 265.5 L 343 267.5 L 342 268.5 L 341 284.5 L 338 292.5 L 327 310.5 L 312.5 326 L 284.5 347 L 262.5 357 L 216.5 370 L 194.5 373 L 190.5 375 L 184.5 375 L 177.5 377 L 162.5 378 L 161.5 379 Q 158.5 377.5 160 371.5 L 161 371.5 L 161 377 L 168.5 377 L 169.5 376 L 176.5 376 L 183.5 374 L 189.5 374 L 193.5 372 L 215.5 369 L 226.5 365 L 259.5 357 L 291.5 341 Q 308.4 329.4 322 314.5 L 327 308.5 L 339 287.5 L 341 278.5 L 341 255.5 Q 337.7 248.3 339 236.5 L 337 230.5 Q 334.2 221.8 327.5 217 L 327 219.5 L 331 229.5 L 331 243.5 L 327 254.5 L 326 261.5 L 316.5 271 L 308.5 274 L 309.5 272 L 314.5 271 L 324 262.5 L 330 242.5 L 330 229.5 L 323 214.5 L 323.5 213 Z "></path><path fill="rgb(3,155,79)" stroke="rgb(3,155,79)" stroke-width="1" opacity="0.996078431372549" d="M 348.5 226 L 349 247.5 L 348 247.5 L 348.5 226 Z "></path><path fill="rgb(3,155,79)" stroke="rgb(3,155,79)" stroke-width="1" opacity="0.996078431372549" d="M 263 231 L 266 232.5 L 265 242 L 263 241.5 L 263 231 Z "></path><path fill="rgb(3,155,79)" stroke="rgb(3,155,79)" stroke-width="1" opacity="0.996078431372549" d="M 262 247 L 264 247.5 L 264 256.5 Q 256 281.5 237.5 296 L 223.5 303 L 199.5 309 L 165 309 L 165.5 299 L 166 306.5 L 167.5 308 Q 216.8 311.3 242 290.5 Q 254.2 278.7 261 261.5 L 260 258.5 L 262 247 Z M 263 250 L 262 256 L 263 256 L 263 250 Z "></path><path fill="rgb(3,155,79)" stroke="rgb(3,155,79)" stroke-width="1" opacity="0.996078431372549" d="M 256.5 248 L 257 250.5 L 256 250.5 L 256.5 248 Z "></path><path fill="rgb(3,155,79)" stroke="rgb(3,155,79)" stroke-width="1" opacity="0.996078431372549" d="M 255.5 255 Q 254.9 259.6 257.5 261 L 259 261.5 L 257.5 262 Q 253.5 260.5 255.5 255 Z "></path><path fill="rgb(3,155,79)" stroke="rgb(3,155,79)" stroke-width="1" opacity="0.996078431372549" d="M 268 257 L 271 258.5 L 279.5 269 L 282.5 271 L 284 270.5 L 283.5 273 L 273 264.5 L 269.5 259 Q 263.5 275 254 287.5 L 241.5 300 L 223.5 309 L 207.5 313 L 202.5 314 L 166.5 314 L 165 315.5 L 164.5 323 L 164 314.5 L 165.5 313 L 201.5 313 L 222.5 308 Q 243.1 301.6 254 285.5 L 266 265.5 L 268 257 Z "></path><path fill="rgb(3,155,79)" stroke="rgb(3,155,79)" stroke-width="1" opacity="0.996078431372549" d="M 349.5 257 L 350 274.5 L 348 285.5 L 341.5 302 L 342 300.5 L 348 281.5 L 348 271.5 L 349 270.5 L 348 269.5 L 348 258.5 L 349.5 257 Z "></path><path fill="rgb(3,155,79)" stroke="rgb(3,155,79)" stroke-width="1" opacity="0.996078431372549" d="M 160.5 298 L 161 303.5 L 160 303.5 L 160.5 298 Z "></path><path fill="rgb(3,155,79)" stroke="rgb(3,155,79)" stroke-width="1" opacity="0.996078431372549" d="M 115.5 303 L 116 305.5 L 115 305.5 L 115.5 303 Z "></path><path fill="rgb(3,155,79)" stroke="rgb(3,155,79)" stroke-width="1" opacity="0.996078431372549" d="M 340.5 303 L 340 304.5 L 337.5 310 L 337 308.5 L 340.5 303 Z "></path><path fill="rgb(3,155,79)" stroke="rgb(3,155,79)" stroke-width="1" opacity="0.996078431372549" d="M 130.5 305 L 158.5 307 L 160 306.5 L 159.5 308 L 146.5 308 L 138.5 306 L 130.5 306 Q 127.6 310.6 120.5 311 L 117 314.5 Q 113.7 319.4 115 328 Q 121.4 330.3 119 322.5 L 122.5 315 L 128.5 313 L 133.5 313 Q 139.6 314.4 142 319.5 L 152 340.5 L 153 359.5 Q 150.1 368.6 143.5 374 L 140.5 375 Q 127.6 369.4 120 358.5 L 119 355.5 L 121 356.5 L 126.5 364 L 136.5 372 L 142.5 373 L 151 361.5 L 152 348.5 Q 149.5 347 151 341.5 L 147 330.5 L 137.5 316 L 131.5 314 Q 130.2 316.2 125.5 315 L 122 317.5 L 120 327.5 L 117.5 330 L 114 327.5 Q 112.6 315.6 118.5 311 L 130.5 305 Z M 145 313 L 155 332 L 159 343 L 159 315 L 158 313 L 145 313 Z "></path><path fill="rgb(3,155,79)" stroke="rgb(3,155,79)" stroke-width="1" opacity="0.996078431372549" d="M 110.5 307 L 111.5 309 L 110.5 307 Z "></path><path fill="rgb(3,155,79)" stroke="rgb(3,155,79)" stroke-width="1" opacity="0.996078431372549" d="M 114.5 307 L 113.5 309 L 114.5 307 Z "></path><path fill="rgb(3,155,79)" stroke="rgb(3,155,79)" stroke-width="1" opacity="0.996078431372549" d="M 333.5 308 L 334 310.5 L 332 315.5 L 336 313.5 L 330.5 320 L 328.5 321 L 329 319.5 L 328.5 317 L 316.5 330 L 288.5 351 L 267.5 361 L 242.5 369 L 226.5 372 L 223.5 374 L 209.5 376 L 209.5 375 L 218.5 374 L 229.5 370 L 252.5 365 L 282.5 353 Q 306.4 338.9 325 319.5 L 333.5 308 Z "></path><path fill="rgb(3,155,79)" stroke="rgb(3,155,79)" stroke-width="1" opacity="0.996078431372549" d="M 143 312 L 158.5 312 L 160 313.5 L 160 342.5 L 157.5 353 L 157 342.5 L 154 332.5 L 143 312 Z "></path><path fill="rgb(3,155,79)" stroke="rgb(3,155,79)" stroke-width="1" opacity="0.996078431372549" d="M 112.5 331 Q 117.3 329.7 116 333 L 111 334 L 112.5 331 Z "></path><path fill="rgb(3,155,79)" stroke="rgb(3,155,79)" stroke-width="1" opacity="0.996078431372549" d="M 164.5 334 L 165 345.5 L 164 345.5 L 164.5 334 Z "></path><path fill="rgb(3,155,79)" stroke="rgb(3,155,79)" stroke-width="1" opacity="0.996078431372549" d="M 163.5 348 L 164 350.5 L 163 350.5 L 163.5 348 Z "></path><path fill="rgb(3,155,79)" stroke="rgb(3,155,79)" stroke-width="1" opacity="0.996078431372549" d="M 162.5 353 L 163 356.5 L 162 356.5 L 162.5 353 Z "></path><path fill="rgb(3,155,79)" stroke="rgb(3,155,79)" stroke-width="1" opacity="0.996078431372549" d="M 114 356 L 118 356.5 L 115 357.5 L 116 360.5 L 128.5 373 L 135 377.5 Q 135.7 380.1 133 379 L 133 383 L 143.5 383 Q 146.8 386.8 155 385 Q 156.1 387.7 153.5 387 Q 151.8 384.3 145.5 386 L 141.5 384 L 133.5 384 L 131 381.5 L 132 376 Q 122.3 371.8 116 362.5 L 114 356 Z "></path><path fill="rgb(3,155,79)" stroke="rgb(3,155,79)" stroke-width="1" opacity="0.996078431372549" d="M 161.5 362 L 162 366.5 L 161 366.5 L 161.5 362 Z "></path><path fill="rgb(3,155,79)" stroke="rgb(3,155,79)" stroke-width="1" opacity="0.996078431372549" d="M 155.5 364 L 156 372.5 L 155 372.5 Q 156 368.8 153 370 L 149 376.5 L 152.5 378 L 154.5 375 L 155 379 L 147.5 379 L 146 377.5 Q 152.5 372.5 155.5 364 Z "></path><path fill="rgb(3,155,79)" stroke="rgb(3,155,79)" stroke-width="1" opacity="0.996078431372549" d="M 202.5 376 L 206 376.5 L 202.5 377 L 202.5 376 Z "></path><path fill="rgb(3,155,79)" stroke="rgb(3,155,79)" stroke-width="1" opacity="0.996078431372549" d="M 196.5 377 L 199 377.5 L 196.5 378 L 196.5 377 Z "></path><path fill="rgb(3,155,79)" stroke="rgb(3,155,79)" stroke-width="1" opacity="0.996078431372549" d="M 193.5 378 L 195 378.5 L 188.5 382 L 190.5 379 L 193.5 378 Z "></path><path fill="rgb(3,155,79)" stroke="rgb(3,155,79)" stroke-width="1" opacity="0.996078431372549" d="M 186.5 382 L 186 383.5 L 184.5 386 L 161.5 386 L 159 387 L 159.5 385 L 184.5 385 L 185 383.5 L 186.5 382 Z "></path><path fill="rgb(15,44,26)" stroke="rgb(15,44,26)" stroke-width="1" opacity="0.9882352941176471" d="M 282 28 L 284 28 L 284 35.5 L 285.5 36 L 293.5 33 L 310.5 31 L 325.5 34 L 334 40.5 Q 340.4 46.6 343.5 56 L 345 51.5 L 345.5 39 L 347 46.5 L 346 47.5 L 346 62 Q 343.3 63.1 344 60.5 Q 339.9 47.1 330.5 39 Q 320.9 30.6 300.5 33 L 287.5 36 L 282 39 L 282 28 Z "></path><path fill="rgb(15,44,26)" stroke="rgb(15,44,26)" stroke-width="1" opacity="0.9882352941176471" d="M 275.5 33 L 276 44.5 L 270 54.5 L 270 59 L 260.5 61 L 239.5 71 L 225 84.5 Q 217.5 93.5 214 106.5 Q 215.3 111.2 213 112.5 L 213 147.5 L 218 167.5 L 232 195.5 L 240.5 207 L 245 208 Q 247 219.8 254.5 227 L 257 228.5 L 252 234.5 L 252 238.5 Q 256.8 240.7 257 247.5 L 256 248.5 L 255 259.5 L 258.5 262 L 261 261 Q 253.9 280.2 239.5 293 L 227.5 300 L 207.5 306 L 197.5 308 L 167.5 308 Q 164.3 306.3 166 299.5 L 168 298.5 L 168 305.5 L 168.5 306 L 201.5 306 L 226.5 299 Q 236.6 295.1 243 287.5 Q 252.4 277.9 258 264.5 L 254 261.5 L 253 258.5 L 254 257.5 L 255 243.5 L 250 235.5 L 255 228.5 L 251 225.5 Q 246.1 220.4 245 211.5 L 242.5 209 L 237 205.5 L 231 196.5 L 215 162.5 L 212 149.5 L 211 121.5 L 212 120.5 L 213 104.5 L 215 98.5 Q 221.9 82.9 234.5 73 L 259.5 60 L 268 58 Q 268.9 50.5 274 45.5 L 274 34.5 L 275.5 33 Z "></path><path fill="rgb(15,44,26)" stroke="rgb(15,44,26)" stroke-width="1" opacity="0.9882352941176471" d="M 354.5 37 L 355 41.5 L 354 41.5 L 354.5 37 Z "></path><path fill="rgb(15,44,26)" stroke="rgb(15,44,26)" stroke-width="1" opacity="0.9882352941176471" d="M 307.5 39 L 308.5 40 L 320.5 41 Q 328 44 332 50.5 L 342 75.5 L 342 86.5 L 341 89 L 336.5 88 L 333 90.5 L 329.5 95 Q 324.8 95.3 323 98.5 L 321.5 101 L 314.5 102 L 303.5 100 L 290 91.5 L 292.5 91 Q 297.8 97.7 307.5 100 L 320.5 100 L 323 95 Q 329.5 95.3 332 90.5 L 334.5 87 L 338.5 88 L 341 85.5 L 341 76.5 L 331 51.5 L 323.5 44 Q 316.3 39.2 302.5 41 L 292.5 43 L 284 49.5 L 284 57.5 Q 288 58.9 287 64 L 284 65.5 Q 284.7 71.7 280.5 73 L 275 72 L 274 67 Q 249 71.3 234 86.5 Q 225.8 94.7 222 107.5 L 222 115.5 L 221 116.5 L 221 145.5 L 226 165.5 L 239 191.5 L 247 202.5 L 242 198.5 L 223 160.5 L 220 147.5 L 219 123.5 L 220 122.5 L 220 111.5 L 223 100.5 Q 229.7 86.7 241.5 78 L 263.5 67 L 274.5 65 L 277 71 L 281 71 L 281 69.5 L 283.5 64 L 286 62.5 L 283.5 59 L 282 58.5 L 282 49.5 L 283 47 L 291.5 42 L 307.5 39 Z "></path><path fill="rgb(15,44,26)" stroke="rgb(15,44,26)" stroke-width="1" opacity="0.9882352941176471" d="M 353.5 45 L 354 49.5 L 353 49.5 L 353.5 45 Z "></path><path fill="rgb(15,44,26)" stroke="rgb(15,44,26)" stroke-width="1" opacity="0.9882352941176471" d="M 44.5 57 L 82 57.5 L 44.5 58 L 44.5 57 Z "></path><path fill="rgb(15,44,26)" stroke="rgb(15,44,26)" stroke-width="1" opacity="0.9882352941176471" d="M 162.5 57 Q 165.1 56.2 164 59.5 Q 161.3 60.3 162 64.5 L 164 67.5 L 166 76.5 L 167 95.5 L 165 102.5 L 159 112 L 153.5 114 Q 150.3 113.3 151 108.5 Q 162 101.5 159 80.5 L 154 63 L 141.5 63 L 141 64.5 L 137.5 67 L 95.5 67 L 94.5 66 L 81.5 66 L 80.5 67 L 52.5 67 L 51.5 66 L 33 66 L 33 104.5 L 34.5 106 L 85.5 106 L 86.5 105 L 88.5 105 L 145.5 105 L 147 106.5 Q 148 111 145.5 112 L 127 113.5 L 169 196 L 188 188 L 211 286.5 L 203 279.5 L 143 210.5 L 161 200.5 L 118 116.5 L 123 113.5 L 69.5 113 L 68.5 114 L 35.5 114 L 35.5 113 L 63.5 113 L 64.5 112 L 66.5 112 L 141.5 112 L 146 109.5 L 144.5 106 L 33.5 107 L 32 105.5 L 31 66.5 L 32.5 65 L 138.5 65 L 140 63.5 L 140.5 62 L 148.5 62 L 150.5 61 L 155 63.5 L 160 79.5 L 160 96.5 L 152 110.5 Q 152.8 112.8 156.5 112 Q 167.8 104.3 166 83.5 L 163 67.5 L 160 61.5 Q 164.3 59.3 162.5 57 Z "></path><path fill="rgb(15,44,26)" stroke="rgb(15,44,26)" stroke-width="1" opacity="0.9882352941176471" d="M 352.5 58 L 353 84.5 L 352 85.5 L 350 106 Q 346.3 107.3 348 101.5 L 351 86.5 L 351 63.5 L 352.5 58 Z "></path><path fill="rgb(15,44,26)" stroke="rgb(15,44,26)" stroke-width="1" opacity="0.9882352941176471" d="M 287.5 93 L 286 95.5 L 291.5 101 L 305.5 108 L 313 108 L 313 110.5 L 309 115.5 L 304 127.5 L 303 132.5 L 303 155 Q 299.2 154.3 298 157.5 L 306 177.5 L 319 195.5 L 318 195.5 L 304 176.5 L 302 168.5 L 297 160.5 L 297 156.5 L 302 152.5 L 301 137.5 L 303 126.5 L 311 110.5 L 309.5 109 L 304.5 109 L 296.5 106 L 285 96.5 L 287.5 93 Z "></path><path fill="rgb(15,44,26)" stroke="rgb(15,44,26)" stroke-width="1" opacity="0.9882352941176471" d="M 20.5 97 L 23 104.5 L 23 110.5 L 22 110.5 Q 22.6 104.4 20 101.5 L 20.5 97 Z "></path><path fill="rgb(15,44,26)" stroke="rgb(15,44,26)" stroke-width="1" opacity="0.9882352941176471" d="M 340.5 99 Q 344.7 97.7 343 102.5 L 342 109 Q 339.3 110.1 340 107.5 L 341 101 L 336.5 102 L 321 112.5 L 314 123.5 L 309.5 141 L 309 137.5 L 312 125.5 L 316 117.5 L 324.5 108 L 340.5 99 Z "></path><path fill="rgb(15,44,26)" stroke="rgb(15,44,26)" stroke-width="1" opacity="0.9882352941176471" d="M 308.5 144 L 309 151.5 L 308 151.5 L 308.5 144 Z "></path><path fill="rgb(15,44,26)" stroke="rgb(15,44,26)" stroke-width="1" opacity="0.9882352941176471" d="M 309.5 157 L 310 160.5 L 309 160.5 L 309.5 157 Z "></path><path fill="rgb(15,44,26)" stroke="rgb(15,44,26)" stroke-width="1" opacity="0.9882352941176471" d="M 310.5 163 L 313 173.5 Q 323.3 189.2 337 201.5 L 341.5 212 L 343 208.5 L 343.5 198 Q 346.8 199.8 345 206.5 L 344 207.5 L 342.5 226 L 339 218.5 Q 341.8 216.8 340 210.5 L 336 202.5 L 314 177.5 L 310 168.5 L 310.5 163 Z M 322 200 L 318 202 L 325 205 L 324 202 L 322 200 Z "></path><path fill="rgb(15,44,26)" stroke="rgb(15,44,26)" stroke-width="1" opacity="0.9882352941176471" d="M 318.5 197 L 318 198.5 Q 317.3 200.8 319.5 200 L 323.5 199 Q 327 202.2 327 208 L 314.5 202 L 291.5 202 L 283.5 205 L 266.5 220 L 266 211.5 L 268.5 206 L 269 208.5 Q 266.5 210 268 215.5 L 270.5 214 L 286.5 202 L 296.5 200 L 309.5 200 L 310.5 201 L 317 201 L 318.5 197 Z "></path><path fill="rgb(15,44,26)" stroke="rgb(15,44,26)" stroke-width="1" opacity="0.9882352941176471" d="M 259.5 202 L 261 203.5 L 261 211.5 L 259 220 L 256 218.5 L 253 212.5 L 253 209 L 247 204.5 L 251.5 208 L 255 210.5 Q 254.4 215.6 257.5 217 L 259 213.5 L 259.5 202 Z "></path><path fill="rgb(15,44,26)" stroke="rgb(15,44,26)" stroke-width="1" opacity="0.9882352941176471" d="M 291.5 209 L 303.5 209 L 313.5 213 L 319 218.5 Q 323.5 225 325 234.5 L 324 235.5 L 324 244.5 L 320 257.5 L 314.5 264 L 310 267.5 Q 311 272.5 308 273.5 L 310.5 274 Q 320.6 270.1 326 261.5 L 327 254.5 L 331 243.5 L 331 229.5 L 327 217.5 L 333 222.5 L 339 236.5 Q 337.7 248.3 341 255.5 L 341 278.5 L 339 287.5 L 327 308.5 L 310.5 326 L 285.5 345 L 259.5 357 L 226.5 365 L 215.5 369 L 193.5 372 L 189.5 374 L 183.5 374 L 176.5 376 L 161 377 L 162 357.5 L 165 345.5 L 165.5 336 L 167 343.5 L 164 355.5 L 164 364.5 L 162 374.5 L 165.5 376 L 180.5 373 L 187.5 373 L 196.5 370 L 214.5 368 L 265.5 353 L 290.5 340 Q 308.7 327.7 323 311.5 L 336 291.5 L 339 283.5 Q 337.8 278.8 340 277.5 L 340 255.5 L 338 248.5 L 338 237.5 L 330.5 222 L 330 224.5 L 332 227.5 L 333 238.5 L 327 262.5 L 317.5 272 Q 312.8 275.8 304.5 276 L 305.5 274 L 309 271.5 Q 308.1 264.6 312.5 263 L 318 258.5 L 323 242.5 L 323 230.5 L 319 220.5 L 312.5 214 L 305.5 212 L 303.5 210 L 292.5 210 L 286.5 213 L 274 224.5 L 276 231.5 L 272 236.5 L 272 244.5 L 281 262 L 286 265.5 L 285.5 267 L 285 265 L 277 258.5 L 271 245.5 L 271 235.5 Q 274.8 234.7 274 229.5 Q 271.8 228.2 273 223.5 L 285.5 212 L 291.5 209 Z "></path><path fill="rgb(15,44,26)" stroke="rgb(15,44,26)" stroke-width="1" opacity="0.9882352941176471" d="M 349.5 220 L 351 222.5 L 351 277.5 Q 348.9 290.4 343.5 300 L 343 298.5 L 349 281.5 L 350 257.5 L 349 256.5 L 349.5 220 Z "></path><path fill="rgb(15,44,26)" stroke="rgb(15,44,26)" stroke-width="1" opacity="0.9882352941176471" d="M 262.5 250 L 263 255.5 L 262 255.5 L 262.5 250 Z "></path><path fill="rgb(15,44,26)" stroke="rgb(15,44,26)" stroke-width="1" opacity="0.9882352941176471" d="M 269.5 259 L 278.5 270 L 283.5 273 L 284.5 268 L 286 275 Q 277.9 273.4 273 266.5 L 269.5 262 Q 260.5 286 242.5 301 L 224.5 310 L 213.5 312 L 209.5 314 L 204.5 314 L 198.5 316 L 167 316 L 166.5 324 Q 163.3 322.3 165 315.5 L 166.5 314 L 202.5 314 L 223.5 309 Q 243.1 302.6 254 287.5 Q 263.5 275 269.5 259 Z "></path><path fill="rgb(15,44,26)" stroke="rgb(15,44,26)" stroke-width="1" opacity="0.9882352941176471" d="M 158.5 297 Q 161.8 298.8 160 305.5 Q 158.3 308.8 151.5 307 L 150.5 306 L 130.5 305 L 117 312.5 Q 112.8 317.3 114 327.5 L 117.5 330 L 120 327.5 L 121 319.5 L 123.5 316 L 131.5 314 L 137.5 316 L 140 318.5 Q 147.2 328.3 151 341.5 L 152 357.5 Q 149.6 367.6 142.5 373 L 136.5 372 L 124 361.5 L 120 354.5 L 122 355.5 Q 123.4 361.6 128.5 364 L 137.5 371 L 141.5 372 L 150 360.5 L 150 342.5 Q 145.7 327.3 136.5 317 Q 133.3 314.7 126.5 316 L 123 318.5 L 122 326.5 L 118 333 L 109 336 Q 109.3 330.6 113 327.5 L 112 322.5 L 113 317.5 L 117 310 Q 125.4 308.2 131.5 303 L 136.5 303 L 142.5 305 L 158 305 L 158.5 297 Z M 113 331 L 111 334 L 116 333 Q 117 330 113 331 Z "></path><path fill="rgb(15,44,26)" stroke="rgb(15,44,26)" stroke-width="1" opacity="0.9882352941176471" d="M 117.5 301 L 118 304.5 L 114.5 311 Q 109 312 108 308.5 Q 109.8 305.3 111.5 309 L 115 307.5 L 117.5 301 Z "></path><path fill="rgb(15,44,26)" stroke="rgb(15,44,26)" stroke-width="1" opacity="0.9882352941176471" d="M 342.5 301 L 341.5 303 L 342.5 301 Z "></path><path fill="rgb(15,44,26)" stroke="rgb(15,44,26)" stroke-width="1" opacity="0.9882352941176471" d="M 145 313 L 157.5 313 L 159 314.5 L 158.5 343 L 155 331.5 L 145 313 Z M 148 315 L 156 332 L 157 332 L 157 315 L 148 315 Z "></path><path fill="rgb(15,44,26)" stroke="rgb(15,44,26)" stroke-width="1" opacity="0.9882352941176471" d="M 335.5 314 L 332.5 318 L 335.5 314 Z "></path><path fill="rgb(15,44,26)" stroke="rgb(15,44,26)" stroke-width="1" opacity="0.9882352941176471" d="M 328.5 317 L 330 320.5 L 319.5 335 L 318 334.5 L 323 326.5 L 319.5 329 L 295.5 348 L 281.5 356 L 254.5 367 L 220.5 375 L 220.5 374 L 256.5 365 L 280.5 355 L 297.5 345 L 323 323.5 L 328.5 317 Z "></path><path fill="rgb(15,44,26)" stroke="rgb(15,44,26)" stroke-width="1" opacity="0.9882352941176471" d="M 116.5 355 L 119 355.5 L 116.5 356 L 116.5 355 Z "></path><path fill="rgb(15,44,26)" stroke="rgb(15,44,26)" stroke-width="1" opacity="0.9882352941176471" d="M 112.5 356 Q 115.1 355.2 114 358.5 Q 118 368 126.5 373 L 132 376 L 131 381.5 L 133.5 384 L 141.5 384 L 145.5 386 Q 153.5 385 157.5 388 L 161.5 386 L 184.5 386 L 185.5 385 L 183.5 388 L 160.5 388 L 156.5 390 L 153.5 388 Q 146.5 389 143.5 386 L 133.5 386 L 130 382.5 Q 131.3 375.3 126.5 374 L 115 363.5 L 112.5 356 Z "></path><path fill="rgb(15,44,26)" stroke="rgb(15,44,26)" stroke-width="1" opacity="0.9882352941176471" d="M 153 370 Q 156.7 368.6 155 374.5 L 152.5 378 L 149 376.5 L 153 370 Z "></path><path fill="rgb(15,44,26)" stroke="rgb(15,44,26)" stroke-width="1" opacity="0.9882352941176471" d="M 214.5 375 L 219 375.5 L 214.5 376 L 214.5 375 Z "></path><path fill="rgb(15,44,26)" stroke="rgb(15,44,26)" stroke-width="1" opacity="0.9882352941176471" d="M 206.5 376 L 213 376.5 L 206.5 377 L 206.5 376 Z "></path><path fill="rgb(15,44,26)" stroke="rgb(15,44,26)" stroke-width="1" opacity="0.9882352941176471" d="M 199.5 377 L 203 377.5 L 199.5 378 L 199.5 377 Z "></path><path fill="rgb(15,44,26)" stroke="rgb(15,44,26)" stroke-width="1" opacity="0.9882352941176471" d="M 195.5 378 L 198 378.5 L 192.5 381 L 193.5 379 L 195.5 378 Z "></path><path fill="rgb(15,44,26)" stroke="rgb(15,44,26)" stroke-width="1" opacity="0.9882352941176471" d="M 187.5 382 L 186.5 384 L 187.5 382 Z "></path><path fill="rgb(0,0,0)" stroke="rgb(0,0,0)" stroke-width="1" opacity="0.00392156862745098" d="M 302.5 23 L 315 23.5 L 302.5 24 L 302.5 23 Z "></path><path fill="rgb(0,0,0)" stroke="rgb(0,0,0)" stroke-width="1" opacity="0.00392156862745098" d="M 296.5 24 L 299 24.5 L 296.5 25 L 296.5 24 Z "></path><path fill="rgb(0,0,0)" stroke="rgb(0,0,0)" stroke-width="1" opacity="0.00392156862745098" d="M 290.5 25 L 293 25.5 L 290.5 26 L 290.5 25 Z "></path><path fill="rgb(0,0,0)" stroke="rgb(0,0,0)" stroke-width="1" opacity="0.00392156862745098" d="M 307.5 48 L 312 48.5 L 307.5 49 L 307.5 48 Z "></path><path fill="rgb(0,0,0)" stroke="rgb(0,0,0)" stroke-width="1" opacity="0.00392156862745098" d="M 21.5 49 L 36 49.5 L 21.5 50 L 21.5 49 Z "></path><path fill="rgb(0,0,0)" stroke="rgb(0,0,0)" stroke-width="1" opacity="0.00392156862745098" d="M 130.5 49 L 161 49.5 L 130.5 50 L 130.5 49 Z "></path><path fill="rgb(0,0,0)" stroke="rgb(0,0,0)" stroke-width="1" opacity="0.00392156862745098" d="M 301.5 49 L 304 49.5 L 301.5 50 L 301.5 49 Z "></path><path fill="rgb(0,0,0)" stroke="rgb(0,0,0)" stroke-width="1" opacity="0.00392156862745098" d="M 171.5 57 L 172 61.5 L 171 61.5 L 171.5 57 Z "></path><path fill="rgb(0,0,0)" stroke="rgb(0,0,0)" stroke-width="1" opacity="0.00392156862745098" d="M 12.5 58 L 13 92.5 L 12 92.5 L 12.5 58 Z "></path><path fill="rgb(0,0,0)" stroke="rgb(0,0,0)" stroke-width="1" opacity="0.00392156862745098" d="M 295.5 59 L 296 64.5 L 295 64.5 L 295.5 59 Z "></path><path fill="rgb(0,0,0)" stroke="rgb(0,0,0)" stroke-width="1" opacity="0.00392156862745098" d="M 40 73 L 43 73.5 L 41 74 L 41 98 L 70.5 98 L 70.5 99 L 40 99 L 40 73 Z "></path><path fill="rgb(0,0,0)" stroke="rgb(0,0,0)" stroke-width="1" opacity="0.00392156862745098" d="M 86.5 73 L 89 73.5 L 86.5 74 L 86.5 73 Z "></path><path fill="rgb(0,0,0)" stroke="rgb(0,0,0)" stroke-width="1" opacity="0.00392156862745098" d="M 46.5 74 L 83 74.5 L 46.5 75 L 46.5 74 Z "></path><path fill="rgb(0,0,0)" stroke="rgb(0,0,0)" stroke-width="1" opacity="0.00392156862745098" d="M 92.5 74 L 140 74.5 L 92.5 75 L 92.5 74 Z "></path><path fill="rgb(0,0,0)" stroke="rgb(0,0,0)" stroke-width="1" opacity="0.00392156862745098" d="M 268.5 75 L 271 75.5 L 268.5 76 L 268.5 75 Z "></path><path fill="rgb(0,0,0)" stroke="rgb(0,0,0)" stroke-width="1" opacity="0.00392156862745098" d="M 173.5 76 L 174 78.5 L 173 78.5 L 173.5 76 Z "></path><path fill="rgb(0,0,0)" stroke="rgb(0,0,0)" stroke-width="1" opacity="0.00392156862745098" d="M 358.5 76 L 359 86.5 L 358 86.5 L 358.5 76 Z "></path><path fill="rgb(0,0,0)" stroke="rgb(0,0,0)" stroke-width="1" opacity="0.00392156862745098" d="M 174.5 82 L 175 95.5 L 174 95.5 L 174.5 82 Z "></path><path fill="rgb(0,0,0)" stroke="rgb(0,0,0)" stroke-width="1" opacity="0.00392156862745098" d="M 151.5 83 L 152 92.5 L 151 92.5 L 151.5 83 Z "></path><path fill="rgb(0,0,0)" stroke="rgb(0,0,0)" stroke-width="1" opacity="0.00392156862745098" d="M 312.5 92 L 315 92.5 L 312.5 93 L 312.5 92 Z "></path><path fill="rgb(0,0,0)" stroke="rgb(0,0,0)" stroke-width="1" opacity="0.00392156862745098" d="M 359.5 92 L 360 94.5 L 359 94.5 L 359.5 92 Z "></path><path fill="rgb(0,0,0)" stroke="rgb(0,0,0)" stroke-width="1" opacity="0.00392156862745098" d="M 89.5 97 L 106 97.5 L 89.5 98 L 89.5 97 Z "></path><path fill="rgb(0,0,0)" stroke="rgb(0,0,0)" stroke-width="1" opacity="0.00392156862745098" d="M 109.5 97 L 146 97.5 L 109.5 98 L 109.5 97 Z "></path><path fill="rgb(0,0,0)" stroke="rgb(0,0,0)" stroke-width="1" opacity="0.00392156862745098" d="M 13.5 101 L 14 106.5 L 13 106.5 L 13.5 101 Z "></path><path fill="rgb(0,0,0)" stroke="rgb(0,0,0)" stroke-width="1" opacity="0.00392156862745098" d="M 204.5 107 L 205 115.5 L 204 115.5 L 204.5 107 Z "></path><path fill="rgb(0,0,0)" stroke="rgb(0,0,0)" stroke-width="1" opacity="0.00392156862745098" d="M 229.5 111 L 230 118.5 L 229 118.5 L 229.5 111 Z "></path><path fill="rgb(0,0,0)" stroke="rgb(0,0,0)" stroke-width="1" opacity="0.00392156862745098" d="M 203.5 119 L 204 142.5 L 203 142.5 L 203.5 119 Z "></path><path fill="rgb(0,0,0)" stroke="rgb(0,0,0)" stroke-width="1" opacity="0.00392156862745098" d="M 66.5 120 L 119 120.5 L 66.5 121 L 66.5 120 Z "></path><path fill="rgb(0,0,0)" stroke="rgb(0,0,0)" stroke-width="1" opacity="0.00392156862745098" d="M 131.5 120 L 146 120.5 L 131.5 121 L 131.5 120 Z "></path><path fill="rgb(0,0,0)" stroke="rgb(0,0,0)" stroke-width="1" opacity="0.00392156862745098" d="M 151.5 120 L 154 120.5 L 151.5 121 L 151.5 120 Z "></path><path fill="rgb(0,0,0)" stroke="rgb(0,0,0)" stroke-width="1" opacity="0.00392156862745098" d="M 155.5 120 L 158 120.5 L 155.5 121 L 155.5 120 Z "></path><path fill="rgb(0,0,0)" stroke="rgb(0,0,0)" stroke-width="1" opacity="0.00392156862745098" d="M 24.5 121 L 32 121.5 L 24.5 122 L 24.5 121 Z "></path><path fill="rgb(0,0,0)" stroke="rgb(0,0,0)" stroke-width="1" opacity="0.00392156862745098" d="M 228.5 122 L 229 138.5 L 228 138.5 L 228.5 122 Z "></path><path fill="rgb(0,0,0)" stroke="rgb(0,0,0)" stroke-width="1" opacity="0.00392156862745098" d="M 350.5 122 L 348.5 125 L 350.5 122 Z "></path><path fill="rgb(0,0,0)" stroke="rgb(0,0,0)" stroke-width="1" opacity="0.00392156862745098" d="M 343.5 125 L 346 125.5 L 343.5 126 L 343.5 125 Z "></path><path fill="rgb(0,0,0)" stroke="rgb(0,0,0)" stroke-width="1" opacity="0.00392156862745098" d="M 294.5 127 L 295 131.5 L 294 131.5 L 294.5 127 Z "></path><path fill="rgb(0,0,0)" stroke="rgb(0,0,0)" stroke-width="1" opacity="0.00392156862745098" d="M 293.5 135 L 294 147.5 L 293 147.5 L 293.5 135 Z "></path><path fill="rgb(0,0,0)" stroke="rgb(0,0,0)" stroke-width="1" opacity="0.00392156862745098" d="M 229.5 142 L 230 146.5 L 229 146.5 L 229.5 142 Z "></path><path fill="rgb(0,0,0)" stroke="rgb(0,0,0)" stroke-width="1" opacity="0.00392156862745098" d="M 316.5 143 L 317 155.5 L 316 155.5 L 316.5 143 Z "></path><path fill="rgb(0,0,0)" stroke="rgb(0,0,0)" stroke-width="1" opacity="0.00392156862745098" d="M 204.5 146 L 205 150.5 L 204 150.5 L 204.5 146 Z "></path><path fill="rgb(0,0,0)" stroke="rgb(0,0,0)" stroke-width="1" opacity="0.00392156862745098" d="M 146.5 150 L 151 157.5 L 149 156.5 L 146.5 150 Z "></path><path fill="rgb(0,0,0)" stroke="rgb(0,0,0)" stroke-width="1" opacity="0.00392156862745098" d="M 288.5 155 L 289 160.5 L 288 160.5 L 288.5 155 Z "></path><path fill="rgb(0,0,0)" stroke="rgb(0,0,0)" stroke-width="1" opacity="0.00392156862745098" d="M 137.5 156 L 142 163.5 L 140 162.5 L 137.5 156 Z "></path><path fill="rgb(0,0,0)" stroke="rgb(0,0,0)" stroke-width="1" opacity="0.00392156862745098" d="M 187.5 187 L 189 189.5 L 188 189.5 L 187.5 187 Z "></path><path fill="rgb(0,0,0)" stroke="rgb(0,0,0)" stroke-width="1" opacity="0.00392156862745098" d="M 294.5 192 L 306 192.5 L 294.5 193 L 294.5 192 Z "></path><path fill="rgb(0,0,0)" stroke="rgb(0,0,0)" stroke-width="1" opacity="0.00392156862745098" d="M 168.5 193 L 170 195.5 L 169 195.5 L 168.5 193 Z "></path><path fill="rgb(0,0,0)" stroke="rgb(0,0,0)" stroke-width="1" opacity="0.00392156862745098" d="M 159.5 199 Q 162.5 200.5 159.5 202 L 159.5 199 Z "></path><path fill="rgb(0,0,0)" stroke="rgb(0,0,0)" stroke-width="1" opacity="0.00392156862745098" d="M 151.5 205 L 150.5 207 L 143.5 210 L 143.5 209 L 151.5 205 Z "></path><path fill="rgb(0,0,0)" stroke="rgb(0,0,0)" stroke-width="1" opacity="0.00392156862745098" d="M 143.5 211 L 147.5 216 L 143.5 211 Z "></path><path fill="rgb(0,0,0)" stroke="rgb(0,0,0)" stroke-width="1" opacity="0.00392156862745098" d="M 149.5 218 L 154.5 224 L 149.5 218 Z "></path><path fill="rgb(0,0,0)" stroke="rgb(0,0,0)" stroke-width="1" opacity="0.00392156862745098" d="M 156.5 226 L 161.5 232 L 156.5 226 Z "></path><path fill="rgb(0,0,0)" stroke="rgb(0,0,0)" stroke-width="1" opacity="0.00392156862745098" d="M 283.5 228 L 284 233.5 L 283 233.5 L 283.5 228 Z "></path><path fill="rgb(0,0,0)" stroke="rgb(0,0,0)" stroke-width="1" opacity="0.00392156862745098" d="M 242.5 233 L 243 238.5 L 242 238.5 L 242.5 233 Z "></path><path fill="rgb(0,0,0)" stroke="rgb(0,0,0)" stroke-width="1" opacity="0.00392156862745098" d="M 163.5 234 L 168.5 240 L 163.5 234 Z "></path><path fill="rgb(0,0,0)" stroke="rgb(0,0,0)" stroke-width="1" opacity="0.00392156862745098" d="M 315.5 234 L 316 237.5 L 315 237.5 L 315.5 234 Z "></path><path fill="rgb(0,0,0)" stroke="rgb(0,0,0)" stroke-width="1" opacity="0.00392156862745098" d="M 170.5 242 L 175.5 248 L 170.5 242 Z "></path><path fill="rgb(0,0,0)" stroke="rgb(0,0,0)" stroke-width="1" opacity="0.00392156862745098" d="M 357.5 244 L 358 254.5 L 357 254.5 L 357.5 244 Z "></path><path fill="rgb(0,0,0)" stroke="rgb(0,0,0)" stroke-width="1" opacity="0.00392156862745098" d="M 177.5 250 L 182.5 256 L 177.5 250 Z "></path><path fill="rgb(0,0,0)" stroke="rgb(0,0,0)" stroke-width="1" opacity="0.00392156862745098" d="M 183.5 257 L 188.5 263 L 183.5 257 Z "></path><path fill="rgb(0,0,0)" stroke="rgb(0,0,0)" stroke-width="1" opacity="0.00392156862745098" d="M 358.5 258 L 359 280.5 L 358 280.5 L 358.5 258 Z "></path><path fill="rgb(0,0,0)" stroke="rgb(0,0,0)" stroke-width="1" opacity="0.00392156862745098" d="M 190.5 265 L 195.5 271 L 190.5 265 Z "></path><path fill="rgb(0,0,0)" stroke="rgb(0,0,0)" stroke-width="1" opacity="0.00392156862745098" d="M 332.5 269 L 333 272.5 L 332 272.5 L 332.5 269 Z "></path><path fill="rgb(0,0,0)" stroke="rgb(0,0,0)" stroke-width="1" opacity="0.00392156862745098" d="M 197.5 273 L 202.5 279 L 197.5 273 Z "></path><path fill="rgb(0,0,0)" stroke="rgb(0,0,0)" stroke-width="1" opacity="0.00392156862745098" d="M 118.5 274 L 119 276.5 L 118 276.5 L 118.5 274 Z "></path><path fill="rgb(0,0,0)" stroke="rgb(0,0,0)" stroke-width="1" opacity="0.00392156862745098" d="M 331.5 276 L 332 278.5 L 331 278.5 L 331.5 276 Z "></path><path fill="rgb(0,0,0)" stroke="rgb(0,0,0)" stroke-width="1" opacity="0.00392156862745098" d="M 204.5 281 L 210.5 288 L 204.5 281 Z "></path><path fill="rgb(0,0,0)" stroke="rgb(0,0,0)" stroke-width="1" opacity="0.00392156862745098" d="M 212.5 294 L 215 294.5 L 212.5 295 L 212.5 294 Z "></path><path fill="rgb(0,0,0)" stroke="rgb(0,0,0)" stroke-width="1" opacity="0.00392156862745098" d="M 128.5 295 L 138 295.5 L 128.5 296 L 128.5 295 Z "></path><path fill="rgb(0,0,0)" stroke="rgb(0,0,0)" stroke-width="1" opacity="0.00392156862745098" d="M 141.5 296 L 144 296.5 L 141.5 297 L 141.5 296 Z "></path><path fill="rgb(0,0,0)" stroke="rgb(0,0,0)" stroke-width="1" opacity="0.00392156862745098" d="M 147.5 297 L 158 297.5 L 147.5 298 L 147.5 297 Z "></path><path fill="rgb(0,0,0)" stroke="rgb(0,0,0)" stroke-width="1" opacity="0.00392156862745098" d="M 168.5 298 L 197 298.5 L 168.5 299 L 168.5 298 Z "></path><path fill="rgb(0,0,0)" stroke="rgb(0,0,0)" stroke-width="1" opacity="0.00392156862745098" d="M 106.5 306 L 107 308.5 L 106 308.5 L 106.5 306 Z "></path><path fill="rgb(0,0,0)" stroke="rgb(0,0,0)" stroke-width="1" opacity="0.00392156862745098" d="M 104.5 319 L 105 325.5 L 104 325.5 L 104.5 319 Z "></path><path fill="rgb(0,0,0)" stroke="rgb(0,0,0)" stroke-width="1" opacity="0.00392156862745098" d="M 217.5 319 L 220 319.5 L 217.5 320 L 217.5 319 Z "></path><path fill="rgb(0,0,0)" stroke="rgb(0,0,0)" stroke-width="1" opacity="0.00392156862745098" d="M 130.5 323 L 130 324.5 L 129.5 330 L 129 324.5 L 130.5 323 Z "></path><path fill="rgb(0,0,0)" stroke="rgb(0,0,0)" stroke-width="1" opacity="0.00392156862745098" d="M 167.5 323 L 203 323.5 L 167.5 324 L 167.5 323 Z "></path><path fill="rgb(0,0,0)" stroke="rgb(0,0,0)" stroke-width="1" opacity="0.00392156862745098" d="M 101.5 332 L 102 338.5 L 101 338.5 L 101.5 332 Z "></path><path fill="rgb(0,0,0)" stroke="rgb(0,0,0)" stroke-width="1" opacity="0.00392156862745098" d="M 314.5 344 L 317 344.5 L 314.5 345 L 314.5 344 Z "></path><path fill="rgb(0,0,0)" stroke="rgb(0,0,0)" stroke-width="1" opacity="0.00392156862745098" d="M 167.5 345 L 168 361.5 L 167 361.5 L 167.5 345 Z "></path><path fill="rgb(0,0,0)" stroke="rgb(0,0,0)" stroke-width="1" opacity="0.00392156862745098" d="M 142.5 347 L 143 356.5 L 142 356.5 L 142.5 347 Z "></path><path fill="rgb(0,0,0)" stroke="rgb(0,0,0)" stroke-width="1" opacity="0.00392156862745098" d="M 111.5 348 L 114 348.5 L 111.5 349 L 111.5 348 Z "></path><path fill="rgb(0,0,0)" stroke="rgb(0,0,0)" stroke-width="1" opacity="0.00392156862745098" d="M 234.5 353 L 237 353.5 L 234.5 354 L 234.5 353 Z "></path><path fill="rgb(0,0,0)" stroke="rgb(0,0,0)" stroke-width="1" opacity="0.00392156862745098" d="M 104.5 355 L 105 358.5 L 104 358.5 L 104.5 355 Z "></path><path fill="rgb(0,0,0)" stroke="rgb(0,0,0)" stroke-width="1" opacity="0.00392156862745098" d="M 207.5 360 L 210 360.5 L 207.5 361 L 207.5 360 Z "></path><path fill="rgb(0,0,0)" stroke="rgb(0,0,0)" stroke-width="1" opacity="0.00392156862745098" d="M 201.5 361 L 204 361.5 L 201.5 362 L 201.5 361 Z "></path><path fill="rgb(0,0,0)" stroke="rgb(0,0,0)" stroke-width="1" opacity="0.00392156862745098" d="M 194.5 362 L 198 362.5 L 194.5 363 L 194.5 362 Z "></path><path fill="rgb(0,0,0)" stroke="rgb(0,0,0)" stroke-width="1" opacity="0.00392156862745098" d="M 178.5 365 L 183 365.5 L 178.5 366 L 178.5 365 Z "></path><path fill="rgb(0,0,0)" stroke="rgb(0,0,0)" stroke-width="1" opacity="0.00392156862745098" d="M 172.5 366 L 175 366.5 L 172.5 367 L 172.5 366 Z "></path><path fill="rgb(0,0,0)" stroke="rgb(0,0,0)" stroke-width="1" opacity="0.00392156862745098" d="M 166.5 367 L 169 367.5 L 166.5 368 L 166.5 367 Z "></path><path fill="rgb(0,0,0)" stroke="rgb(0,0,0)" stroke-width="1" opacity="0.00392156862745098" d="M 121.5 381 L 122 383.5 L 121 383.5 L 121.5 381 Z "></path><path fill="rgb(0,0,0)" stroke="rgb(0,0,0)" stroke-width="1" opacity="0.00392156862745098" d="M 215.5 383 L 219 383.5 L 215.5 384 L 215.5 383 Z "></path><path fill="rgb(0,0,0)" stroke="rgb(0,0,0)" stroke-width="1" opacity="0.00392156862745098" d="M 205.5 384 L 212 384.5 L 205.5 385 L 205.5 384 Z "></path><path fill="rgb(0,0,0)" stroke="rgb(0,0,0)" stroke-width="1" opacity="0.00392156862745098" d="M 131.5 393 L 140 393.5 L 131.5 394 L 131.5 393 Z "></path><path fill="rgb(0,0,0)" stroke="rgb(0,0,0)" stroke-width="1" opacity="0.00392156862745098" d="M 144.5 395 L 186 395.5 L 144.5 396 L 144.5 395 Z "></path><path fill="rgb(0,0,0)" stroke="rgb(0,0,0)" stroke-width="1" opacity="0" d="M 0 0 L 399.5 0 L 400 0.5 L 400 21 L 382.5 25 L 366.5 27 L 357.5 30 L 357 11.5 L 354.5 6 L 345.5 6 L 344 7.5 Q 342.8 12.3 345 13.5 L 345 35.5 L 341.5 38 L 337.5 33 Q 326.2 21.8 302.5 23 L 301.5 24 L 290.5 25 L 285 27 L 285 6 L 273 6 L 273 35.5 L 271.5 36 Q 264.1 42.4 261 52 L 255.5 53 L 233.5 64 L 216 80.5 L 208 94.5 L 204 107.5 L 203 142.5 L 204 143.5 L 205 155.5 L 210 172.5 L 226 203.5 L 236.5 216 Q 238.8 215.3 238 217.5 L 244 229.5 Q 241.2 232.2 242 238.5 Q 243.3 244.3 247.5 247 L 253 251.5 L 252 259.5 L 246 268.5 L 245 272.5 L 233.5 286 L 222.5 292 L 199.5 298 L 169 298 L 169 275.5 L 165.5 272 Q 158.3 270.8 157 275.5 L 157 297 L 144.5 297 L 137.5 295 L 128.5 295 L 121.5 300 L 119 300 L 118 265.5 L 114.5 261 Q 107.3 259.8 106 264.5 L 106 274.5 L 107 275.5 L 107 305.5 L 106 308.5 L 107 311.5 L 104 319.5 L 104 326.5 L 101 332.5 L 101 338.5 L 102 341 L 82.5 342 L 78 345.5 Q 76.8 349.3 80.5 348 L 81.5 349 L 108 349.5 Q 103.7 351.7 104 358.5 Q 109.3 372.7 121 380.5 Q 121.1 388.9 126.5 392 Q 131.2 395.3 140.5 394 L 144.5 396 L 185.5 396 L 192 391.5 L 193.5 388 L 202.5 385 L 211.5 385 L 212.5 384 L 223.5 383 L 227.5 381 L 240.5 379 L 267.5 371 L 291.5 360 L 313.5 344 L 316.5 345 Q 324.5 342.5 329 336.5 L 333 327.5 L 344 315.5 L 347 307.5 Q 352 303.5 354 296.5 L 359 280.5 L 359 258.5 L 358 257.5 L 357 239.5 L 352 226.5 L 352 217.5 L 354 206.5 L 354 178.5 Q 352.8 173.7 345.5 175 L 342 178.5 L 341.5 195 Q 328.8 184.2 320 169.5 L 317 158.5 L 317 140.5 L 321 127.5 L 328.5 116 L 330.5 116 L 338.5 110 L 339 121.5 L 340 124 L 345.5 126 L 351 122.5 L 351 105.5 L 352.5 105 Q 359 101.5 360 92.5 L 358 87.5 L 359 86.5 L 359 76.5 L 355 64.5 L 355 51 L 365.5 48 L 377.5 41 L 399.5 34 L 400 400 L 0 400 L 0 0 Z M 22 49 L 18 50 L 13 55 L 12 59 L 12 93 L 13 94 L 13 107 L 16 117 Q 19 121 25 122 Q 31 124 33 121 L 120 121 L 160 201 L 143 209 L 143 212 L 204 282 L 211 288 L 211 284 L 201 245 L 189 189 L 188 187 L 171 196 L 132 122 L 146 121 L 147 120 L 152 121 L 161 120 Q 172 112 175 96 L 175 83 L 171 67 L 172 62 L 171 55 L 168 51 L 161 49 L 131 49 L 130 50 L 37 50 L 36 49 L 22 49 Z "></path><path fill="rgb(0,0,0)" stroke="rgb(0,0,0)" stroke-width="1" opacity="0" d="M 304.5 49 Q 313.5 47.5 318 50.5 L 296.5 63 Q 296.4 56.1 292 53.5 L 294.5 51 L 304.5 49 Z "></path><path fill="rgb(0,0,0)" stroke="rgb(0,0,0)" stroke-width="1" opacity="0" d="M 323.5 66 L 329 66 L 329 68.5 L 333 79 Q 328.3 79.5 326 83.5 L 324.5 86 Q 317.7 86.7 315.5 92 L 309.5 92 Q 300.6 89.9 296 83.5 L 307.5 75 L 315 73 Q 313.5 69.3 316.5 70 L 323.5 66 Z "></path><path fill="rgb(0,0,0)" stroke="rgb(0,0,0)" stroke-width="1" opacity="0" d="M 147.5 70 Q 152.9 79.1 151 95.5 L 149.5 99 L 145.5 97 L 109.5 97 L 105.5 97 L 89.5 97 L 88.5 98 L 86.5 98 L 82.5 97 L 79.5 98 L 77.5 97 L 75.5 98 L 73.5 98 L 41 98 L 41 74 L 46.5 75 L 82.5 75 L 83.5 74 L 91.5 74 L 92.5 75 L 139.5 75 L 147.5 70 Z "></path><path fill="rgb(0,0,0)" stroke="rgb(0,0,0)" stroke-width="1" opacity="0" d="M 271.5 75 L 277 78.5 Q 268.1 82.6 263 90.5 L 258 96.5 L 255 105.5 L 255 113.5 L 252 120.5 L 251 135.5 L 250 136.5 L 250 155.5 L 257 171.5 L 276 200 L 270.5 204 Q 271.5 196 266.5 194 Q 259.3 192.8 258 197.5 L 257.5 202 L 253 199.5 L 252 195.5 L 246 187.5 L 233 161.5 L 229 141.5 L 229 119.5 L 230 118.5 Q 228.8 110.3 231 105.5 L 238 93.5 L 244.5 87 L 257.5 80 L 262.5 79 L 265.5 76 Q 270.3 77.2 271.5 75 Z "></path><path fill="rgb(0,0,0)" stroke="rgb(0,0,0)" stroke-width="1" opacity="0" d="M 280.5 105 L 282.5 105 L 292.5 113 L 299 115.5 L 294 127.5 L 293 148.5 Q 287.2 151.2 288 160.5 Q 294.5 168.5 297 180.5 L 305 192 L 294.5 192 L 294 190.5 L 288 182.5 L 275 153.5 L 273 140.5 L 271 135.5 L 271 122.5 Q 273.5 121 272 115.5 Q 274.8 114.4 274 111 Q 276.7 112.1 276 109.5 L 279 108 L 280.5 105 Z "></path><path fill="rgb(0,0,0)" stroke="rgb(0,0,0)" stroke-width="1" opacity="0" d="M 288.5 222 L 291 225.5 Q 291.6 235.4 296 241.5 L 296 245.5 L 295 246.5 L 294.5 264 Q 294 258.5 289.5 257 L 286 256 L 281 245.5 L 280 239.5 Q 284.9 236.9 284 228.5 L 283 226.5 L 288.5 222 Z "></path><path fill="rgb(0,0,0)" stroke="rgb(0,0,0)" stroke-width="1" opacity="0" d="M 314.5 231 L 315 235.5 L 314 235.5 L 314.5 231 Z "></path><path fill="rgb(0,0,0)" stroke="rgb(0,0,0)" stroke-width="1" opacity="0" d="M 331.5 270 L 332 275.5 L 330 285.5 L 319 303.5 L 304.5 319 L 280.5 337 L 256.5 348 Q 246.5 349 239.5 353 L 234.5 353 L 212.5 360 L 194.5 362 L 185.5 365 L 178.5 365 L 166 367 L 168 361.5 L 168 346 L 170.5 345 L 188.5 345 L 189.5 344 L 218.5 344 L 248.5 338 L 258.5 332 L 263.5 331 L 283.5 321 L 289 315.5 Q 288.3 313.3 290.5 314 L 298 306.5 L 314.5 282 L 321.5 279 L 331.5 270 Z "></path><path fill="rgb(0,0,0)" stroke="rgb(0,0,0)" stroke-width="1" opacity="0" d="M 271.5 276 L 286 284.5 L 287 286.5 L 282 295 Q 279.3 293.9 280 296.5 L 268.5 311 L 260.5 317 L 248.5 321 L 244.5 324 L 214.5 330 L 196.5 331 L 183.5 334 L 168 335 L 168 324.5 L 168.5 324 L 202.5 324 L 228.5 317 L 243.5 310 L 261 293.5 L 267 285.5 L 271.5 276 Z "></path><path fill="rgb(0,0,0)" stroke="rgb(0,0,0)" stroke-width="1" opacity="0" d="M 130 324 Q 133.8 322.5 133 325.5 L 140 337.5 L 137.5 339 L 126.5 339 L 124.5 340 L 126 337.5 L 130 329.5 L 130 324 Z "></path><path fill="rgb(0,0,0)" stroke="rgb(0,0,0)" stroke-width="1" opacity="0" d="M 138.5 348 L 142 348 L 142 359 L 140 359.5 Q 142.3 360.8 139.5 362 L 130 354.5 L 128 349.5 L 137.5 349 L 138.5 348 Z "></path><path fill="rgb(1,0,53)" stroke="rgb(1,0,53)" stroke-width="1" opacity="0.9725490196078431" d="M 299.5 24 L 317.5 24 L 326.5 26 Q 335.4 29.6 341 36.5 L 343.5 40 L 345 39.5 Q 346.5 50 343.5 56 Q 340 45.5 332.5 39 L 322.5 33 L 305.5 31 L 304.5 32 L 293.5 33 L 284 36 L 284 28.5 L 285.5 27 L 299.5 24 Z "></path><path fill="rgb(1,0,53)" stroke="rgb(1,0,53)" stroke-width="1" opacity="0.9725490196078431" d="M 381.5 29 L 384.5 30 L 385.5 29 L 400 29 Q 401.5 32.8 398.5 32 L 381.5 37 Q 369 45.1 354 49 L 355 36 L 363.5 33 L 381.5 29 Z "></path><path fill="rgb(1,0,53)" stroke="rgb(1,0,53)" stroke-width="1" opacity="0.9725490196078431" d="M 273.5 35 L 274 45.5 Q 268.9 50.5 268 58 L 259.5 60 L 240.5 69 L 224 83.5 Q 216.8 92.3 213 104.5 L 212 120.5 L 211 121.5 L 211 138.5 L 212 139.5 L 212 149.5 L 217 168.5 L 231 196.5 L 239.5 208 L 245 211.5 Q 246.3 221.7 252.5 227 L 255 228.5 L 250 236.5 L 255 243.5 L 255 248.5 L 253.5 252 L 244 243.5 L 243 241.5 L 243 230.5 L 244 228.5 Q 238.9 223.5 238 216 L 230 209.5 L 223 198.5 L 208 166.5 L 204 145.5 L 204 116.5 L 205 115.5 L 205 104.5 L 209 92.5 L 216 80.5 L 230.5 66 Q 243.9 56.7 261 52 Q 264.1 42.4 271.5 36 L 273.5 35 Z "></path><path fill="rgb(1,0,53)" stroke="rgb(1,0,53)" stroke-width="1" opacity="0.9725490196078431" d="M 302.5 41 Q 324.5 38.5 331 51.5 L 341 76.5 L 341 85.5 Q 339.2 89.8 337.5 87 Q 332.8 86.3 332 89.5 L 328.5 94 L 323 95 L 320.5 100 L 307.5 100 L 301.5 98 L 292.5 91 L 290.5 91 L 285 95.5 L 290.5 102 L 296.5 106 L 304.5 109 L 309.5 109 L 311 110.5 L 303 126.5 L 301 137.5 L 301 147.5 L 302 152.5 L 297 156.5 L 297 160.5 L 302 168.5 L 304 176.5 L 319 196.5 Q 316.3 197.6 317 201 L 310.5 201 L 309.5 200 L 296.5 200 Q 295 202.5 289.5 201 L 282.5 204 L 268.5 216 L 268 209.5 L 269 205.5 L 274.5 200 L 278 197.5 L 263 176.5 L 254 160.5 L 252 155.5 L 252 135.5 L 259 100.5 Q 264.1 89.6 273.5 83 L 281 77.5 L 273.5 77 Q 272.8 74.3 268.5 75 L 262.5 79 L 257.5 80 L 247.5 85 L 238 93.5 L 229 111.5 L 228 138.5 L 233 161.5 L 246 187.5 L 255.5 202 L 259 202.5 L 259 213.5 L 257.5 217 Q 254.4 215.6 255 210.5 L 252.5 208 L 247 203.5 L 239 191.5 L 224 159.5 L 221 145.5 L 221 116.5 L 224 101.5 L 236.5 84 Q 251.1 70.9 274 67 L 275 72 L 280.5 73 L 283 70.5 L 285.5 64 Q 288.5 64.9 287 60.5 Q 282 58.5 284 49.5 L 292.5 43 L 302.5 41 Z M 308 48 L 297 50 L 292 54 L 295 57 L 295 66 L 320 52 Q 316 48 308 48 Z M 326 60 L 316 65 Q 312 65 313 70 L 311 72 L 303 74 L 293 83 L 306 91 L 313 93 L 315 93 L 321 87 L 325 87 L 326 84 Q 328 79 333 79 L 328 64 L 326 60 Z M 287 71 L 283 75 L 286 75 Q 290 73 287 71 Z M 277 97 Q 266 106 263 123 L 263 139 L 267 151 L 278 172 L 290 190 L 295 193 L 306 193 L 297 181 L 293 169 L 289 164 L 289 153 L 294 148 L 295 125 L 299 116 L 288 110 L 277 100 L 277 97 Z "></path><path fill="rgb(1,0,53)" stroke="rgb(1,0,53)" stroke-width="1" opacity="0.9725490196078431" d="M 18.5 50 L 163.5 50 L 167.5 51 L 171 54.5 L 171 68.5 L 174 79.5 L 174 98.5 Q 171.1 113.1 160.5 120 Q 155.8 118.7 154.5 121 L 153.5 120 L 130 120 L 127 113.5 L 142.5 113 L 147 110.5 Q 148 106 145.5 105 L 88.5 105 L 87.5 106 L 85.5 106 L 34.5 106 L 33 104.5 L 33 66 L 51.5 66 L 52.5 67 L 80.5 67 L 81.5 66 L 94.5 66 L 95.5 67 L 137.5 67 L 141 64.5 L 141.5 63 L 154 63 L 159 80.5 L 159 95.5 Q 157.2 104.2 151 108.5 L 151 111.5 Q 151.5 114.5 155.5 114 L 159 112 L 166 99.5 L 167 83.5 L 162 61.5 Q 164.8 60.4 164 57 L 20.5 57 L 20 57.5 L 20 101.5 L 23 114 L 122.5 113 L 122.5 114 L 118 116.5 L 119 120 L 66.5 120 L 65.5 121 L 63.5 121 L 21.5 121 L 16 116.5 L 13 100.5 L 13 55.5 L 16.5 51 L 18.5 50 Z M 147 70 L 143 74 L 90 74 L 89 73 L 86 74 L 44 74 L 43 73 L 40 74 L 40 99 L 71 99 L 72 98 L 149 98 L 150 99 L 152 93 L 152 84 L 149 72 L 147 70 Z "></path><path fill="rgb(1,0,53)" stroke="rgb(1,0,53)" stroke-width="1" opacity="0.9725490196078431" d="M 353.5 61 L 358 73.5 L 359 97.5 L 352.5 105 L 350 105 L 350 99.5 L 353 84.5 L 353.5 61 Z "></path><path fill="rgb(1,0,53)" stroke="rgb(1,0,53)" stroke-width="1" opacity="0.9725490196078431" d="M 338.5 101 L 341 101 L 341 106.5 L 340 110 L 327 117.5 L 321 127.5 L 319 136.5 L 317 139.5 L 316 155.5 L 321 171.5 Q 329.9 185.1 342 195.5 L 343 197.5 L 343 208.5 L 341.5 212 L 337 201.5 Q 322.4 188.6 312 171.5 L 309 156.5 L 309 141.5 L 314 123.5 L 323.5 110 L 338.5 101 Z "></path><path fill="rgb(1,0,53)" stroke="rgb(1,0,53)" stroke-width="1" opacity="0.9725490196078431" d="M 321.5 200 L 324 201.5 L 325 205 L 318 201.5 L 321.5 200 Z "></path><path fill="rgb(1,0,53)" stroke="rgb(1,0,53)" stroke-width="1" opacity="0.9725490196078431" d="M 292.5 210 L 303.5 210 L 305.5 212 L 312.5 214 L 319 220.5 L 323 230.5 L 323 242.5 L 319 252.5 L 319 256.5 L 313.5 263 L 310 265.5 L 309 271.5 L 306.5 274 L 304 275.5 L 307.5 276 Q 320.8 272.8 327 262.5 L 328 255.5 L 332 245.5 L 333 232.5 L 330 222.5 L 332 223.5 L 338 237.5 L 338 248.5 L 340 255.5 L 340 277.5 L 336 291.5 L 326 307.5 L 308.5 326 L 284.5 344 L 260.5 355 L 214.5 368 L 196.5 370 L 187.5 373 L 180.5 373 L 174.5 375 L 163.5 376 L 162 373.5 L 163 372.5 L 164 355.5 L 167 340 L 192.5 340 L 201.5 338 L 203.5 338 L 238.5 332 L 247.5 325 L 264.5 317 L 276 306.5 Q 279.4 297.9 286 292.5 L 289 283 L 282.5 283 L 271.5 276 Q 262.6 295.6 246.5 308 L 228.5 317 L 205.5 323 L 167 323 L 167 316.5 L 167.5 316 L 198.5 316 L 221.5 311 L 229.5 308 Q 245 302 254 289.5 Q 263.6 277.6 269.5 262 L 276.5 270 L 286 275 Q 284.4 272.9 285 267.5 L 286 265.5 L 281 262 L 273 247.5 L 272 236.5 L 276 230.5 Q 273.4 229.1 274 224.5 L 286.5 213 L 292.5 210 Z M 291 220 L 286 224 L 283 227 L 283 237 L 280 240 L 280 244 L 286 256 Q 291 257 294 262 Q 296 268 293 270 L 295 272 L 297 266 L 297 254 L 298 253 L 297 251 L 298 249 L 297 237 L 293 224 L 291 220 Z M 305 220 L 307 230 L 308 250 L 309 251 L 308 255 L 309 257 L 311 254 L 316 238 Q 315 229 311 224 Q 309 220 305 220 Z M 333 269 L 317 282 L 303 285 L 299 299 L 294 308 L 282 320 L 258 330 L 248 336 L 218 342 L 170 343 L 167 346 L 167 365 L 166 368 L 176 366 L 183 366 L 192 363 L 210 361 L 221 357 Q 227 357 232 354 L 237 354 L 257 348 L 281 337 L 305 319 L 319 304 Q 322 294 329 288 L 333 273 L 333 269 Z "></path><path fill="rgb(1,0,53)" stroke="rgb(1,0,53)" stroke-width="1" opacity="0.9725490196078431" d="M 351.5 225 L 354 229.5 L 357 241.5 L 358 283.5 L 352 301.5 Q 346 306.5 344 315.5 L 333 327.5 L 329 336.5 L 324.5 341 L 319.5 344 L 311.5 345 L 306.5 350 L 291.5 360 L 267.5 371 L 243.5 378 L 230.5 380 L 226.5 382 L 215.5 383 L 214.5 384 L 205.5 384 L 200.5 385 L 195.5 388 L 192 388 Q 193 393.6 188.5 395 L 141.5 395 L 139.5 393 L 128.5 393 L 123 388.5 L 122 381.5 L 106 364.5 L 105 352.5 L 108.5 349 Q 114.3 349.8 117 347.5 L 88 347 L 89.5 344 L 103 342.5 L 102 341.5 L 102 329.5 L 105 325.5 Q 103.6 314.1 108.5 309 Q 109.5 312 114.5 311 L 119.5 300 L 121.5 300 L 125.5 296 L 140.5 296 Q 147.5 299.2 158 298 L 158 305 L 142.5 305 L 136.5 303 L 131.5 303 Q 125.4 308.2 117 310 L 113 317.5 L 112 326.5 L 113 328.5 Q 109 330.8 109 336 L 118 333 L 122 326.5 Q 120.8 319.3 124.5 317 Q 127.7 314.7 134.5 316 L 139 319.5 Q 146.2 329.3 150 342.5 L 150 360.5 L 141.5 372 L 134.5 369 L 123 358.5 L 120.5 354 L 112 356.5 L 115 363.5 L 125.5 374 L 130 377.5 Q 128.8 384.8 133.5 386 L 143.5 386 L 157.5 390 L 160.5 388 L 183.5 388 L 186 385.5 L 188.5 382 L 198.5 378 L 223.5 375 L 230.5 372 L 243.5 370 L 268.5 362 L 295.5 348 L 323 325.5 L 323.5 324 L 324 325.5 L 318 334.5 L 319.5 335 L 323 331.5 L 326 324.5 L 336 314.5 Q 338.9 304.9 345 298.5 L 349 286.5 L 351 277.5 L 351.5 225 Z M 131 323 L 129 325 L 129 333 Q 126 333 126 338 L 120 342 L 117 341 L 116 343 L 127 342 L 128 341 L 140 341 L 140 338 L 133 324 L 131 323 Z M 138 346 L 137 347 L 126 348 Q 130 348 129 354 L 140 362 Q 145 358 143 348 Q 142 345 138 346 Z "></path><path fill="rgb(1,0,53)" stroke="rgb(1,0,53)" stroke-width="1" opacity="0.9725490196078431" d="M 253.5 254 L 254 257.5 L 254 259.5 L 255.5 263 L 258 264.5 Q 251 281 238.5 292 L 226.5 299 L 206.5 305 L 201.5 306 L 168 306 L 168 299.5 L 168.5 299 L 196.5 299 L 222.5 292 L 233.5 286 L 241 278.5 L 251 261.5 L 253.5 254 Z "></path><path fill="rgb(1,0,53)" stroke="rgb(1,0,53)" stroke-width="1" opacity="0.9725490196078431" d="M 147.5 315 L 157 315 L 157 331.5 L 156 331.5 L 147.5 315 Z "></path><path fill="rgb(103,247,0)" stroke="rgb(103,247,0)" stroke-width="1" opacity="0.6784313725490196" d="M 274.5 6 L 283.5 6 L 285 7.5 L 285 27.5 L 282.5 28 L 281 29.5 L 281 39.5 L 282 42.5 L 281 45.5 L 282 48.5 L 281 49.5 L 281 59.5 L 282 61.5 L 282 63.5 L 281 69.5 L 279.5 71 L 277 69.5 L 276 58.5 L 276 56.5 L 277 47.5 L 276 44.5 L 277 43.5 L 277 33 L 273.5 35 L 273 7.5 L 274.5 6 Z "></path><path fill="rgb(103,247,0)" stroke="rgb(103,247,0)" stroke-width="1" opacity="0.6784313725490196" d="M 345 6 L 354.5 6 L 355 7.5 L 357 13.5 L 357 30.5 L 353 34.5 L 352 51 L 355 51.5 L 355 61.5 L 353 60.5 L 351.5 56 L 351 76.5 L 350 78.5 L 350 80.5 L 350 89.5 Q 346.9 96.1 348 106 L 350.5 105 L 351 121.5 Q 349.7 126.2 342.5 125 Q 336.8 121.7 339 110.5 L 343 107.5 L 343 96.5 L 346 82.5 L 346 59.5 L 347 58.5 L 347 42.5 L 348 37 L 345 36.5 L 345 12.5 L 344 8.5 L 345 6 Z "></path><path fill="rgb(103,247,0)" stroke="rgb(103,247,0)" stroke-width="1" opacity="0.6784313725490196" d="M 346.5 175 Q 351.6 174.4 353 177.5 L 354 179.5 L 354 204.5 L 353 205.5 L 351.5 225 L 349.5 220 L 348 226.5 L 348 247.5 L 349 248.5 L 349 257.5 Q 346.5 259 348 264.5 L 345.5 267 Q 341.3 265.3 343 257.5 L 344 256.5 L 344 233.5 L 344 231.5 L 345 199.5 L 342 196.5 L 342 179.5 L 344.5 176 L 346.5 175 Z "></path><path fill="rgb(103,247,0)" stroke="rgb(103,247,0)" stroke-width="1" opacity="0.6784313725490196" d="M 262.5 194 Q 267.6 193.4 269 196.5 L 270 204.5 L 266 208.5 L 264 229.5 L 263 230.5 L 263 243.5 L 260 261 L 256 259.5 L 256 251.5 L 258 244.5 L 258 230.5 L 259 229.5 L 259 222.5 L 260 221.5 L 262 204.5 L 258 202 Q 257.2 197 260.5 195 L 262.5 194 Z "></path><path fill="rgb(103,247,0)" stroke="rgb(103,247,0)" stroke-width="1" opacity="0.6784313725490196" d="M 110.5 261 Q 115.6 260.4 117 263.5 L 118 265.5 L 118 276.5 L 119 277.5 L 119 301 L 115 303.5 Q 115.8 308.3 112.5 309 L 109.5 307 L 107.5 310 L 106 265.5 L 108.5 262 L 110.5 261 Z "></path><path fill="rgb(103,247,0)" stroke="rgb(103,247,0)" stroke-width="1" opacity="0.6784313725490196" d="M 161.5 272 Q 166.6 271.4 168 274.5 L 169 276.5 L 169 298 L 165 299 L 164 323 L 168 324 L 168 335.5 L 165 336 L 164.5 334 L 164 347.5 L 162 353.5 L 162 361.5 L 160 371.5 L 160 383.5 L 159 387 L 155 386.5 L 155 373.5 L 156 372.5 L 157 353.5 L 160 342.5 L 160 304.5 L 161 298 L 157 297 L 157 276.5 L 159.5 273 L 161.5 272 Z "></path><path fill="rgb(0,240,133)" stroke="rgb(0,240,133)" stroke-width="1" opacity="0.996078431372549" d="M 302.5 34 L 314.5 34 L 323.5 36 L 336 46.5 L 342 58.5 L 344 67.5 L 346 69.5 L 346 82.5 L 345 83.5 L 344 95.5 L 342.5 97 L 322.5 108 L 318 112.5 L 309 130.5 Q 310.3 135.3 308 136.5 L 308 157.5 L 309 162.5 L 307 162.5 Q 308.6 172.9 314 179.5 L 336 204.5 L 339 211.5 L 339 216.5 Q 335.5 218 338 219.5 L 344 233.5 L 344 256.5 Q 341.2 258.3 343 264.5 L 345.5 267 L 348 265.5 L 349 270.5 L 348 271.5 L 348 281.5 L 342 300.5 L 336 312.5 L 332.5 316 L 332 314.5 L 334 308.5 L 333 308.5 Q 325.3 320.8 314.5 330 L 289.5 349 L 266.5 360 L 252.5 365 L 229.5 370 L 218.5 374 L 196.5 377 Q 188.9 378.4 185 383.5 L 184.5 385 L 159.5 385 L 160 383.5 L 160.5 378 L 162.5 378 L 177.5 377 L 184.5 375 L 190.5 375 L 194.5 373 L 216.5 370 L 262.5 357 L 284.5 347 L 293.5 341 L 321 317.5 L 327 310.5 L 338 292.5 L 341 284.5 L 343 266.5 L 342 265.5 L 342 254.5 L 340 244.5 L 341 242.5 L 337 227.5 L 328.5 216 L 323.5 213 L 323 214.5 L 330 229.5 L 330 242.5 L 326 253.5 L 325 260.5 L 318.5 268 L 310.5 272 L 311 270.5 Q 309.5 266.1 312.5 267 L 319 261.5 L 325 244.5 L 326 232.5 L 320 217.5 L 315.5 213 L 302.5 207 L 295.5 207 L 286.5 210 L 272 222.5 L 271 227.5 L 273 231.5 L 270 234.5 Q 271.5 240 269 241.5 Q 272 257.5 282.5 266 Q 285.5 265.1 284 269.5 Q 282.3 272.8 280.5 269 L 273 262.5 L 269.5 257 Q 267.3 256.3 268 258.5 L 266 265.5 L 254 285.5 L 239.5 300 L 225.5 307 L 201.5 313 L 165 313 L 165.5 309 L 199.5 309 L 220.5 304 L 234.5 298 L 250 283.5 L 262 263.5 Q 265.1 256.9 264 247 Q 261 248.3 262 244.5 L 263 242 Q 267 243.4 265 236.5 L 266 232.5 L 263 230.5 L 264 229.5 L 264 223 Q 266.7 224.1 266 221.5 L 281.5 208 L 288.5 204 L 292.5 203 L 314.5 203 L 331.5 212 L 333 208.5 L 331.5 206 L 330.5 208 L 328 207 L 328 203.5 L 324 197 L 321.5 196 L 320 196.5 L 320 194.5 L 308 178.5 L 299 158.5 L 302.5 157 L 306 159.5 Q 302 150 304 134.5 L 307 122.5 L 314 111.5 L 315 107 Q 306.1 108.1 300.5 105 L 288 97 L 289.5 93 L 291.5 93 L 302.5 101 L 310.5 103 L 318.5 103 L 324 99.5 L 325.5 97 L 329.5 96 L 335.5 90 L 337.5 90 L 339.5 91 L 342 90 Q 345.1 86.4 344 77.5 L 334 51.5 L 326.5 43 L 317.5 39 L 304.5 38 L 290.5 41 L 283.5 46 L 281 46 L 282 41 L 288.5 37 L 302.5 34 Z "></path><path fill="rgb(0,240,133)" stroke="rgb(0,240,133)" stroke-width="1" opacity="0.996078431372549" d="M 353.5 34 L 354 38.5 L 353 38.5 L 353.5 34 Z "></path><path fill="rgb(0,240,133)" stroke="rgb(0,240,133)" stroke-width="1" opacity="0.996078431372549" d="M 352.5 41 L 353 50.5 L 352 50.5 L 352.5 41 Z "></path><path fill="rgb(0,240,133)" stroke="rgb(0,240,133)" stroke-width="1" opacity="0.996078431372549" d="M 276.5 47 L 277 51.5 L 274 60 Q 277 58.8 276 62.5 L 271.5 65 L 262.5 66 L 242.5 76 L 229 88.5 L 220 105.5 L 219 120.5 L 218 121.5 L 218 141.5 L 221 158.5 L 224 167.5 L 236 191.5 L 243.5 202 L 246 203.5 L 252 210.5 Q 253 219.5 259 223.5 L 259 229.5 L 258 229.5 L 256.5 226 L 252 222.5 L 249 217.5 L 246 207 Q 239.6 208 238 202.5 L 217 160.5 L 214 145.5 L 214 116.5 L 215 115.5 L 216 103.5 L 220 94.5 Q 226.6 82.1 237.5 74 L 258.5 63 L 272 60 L 271 54.5 L 276.5 47 Z "></path><path fill="rgb(0,240,133)" stroke="rgb(0,240,133)" stroke-width="1" opacity="0.996078431372549" d="M 21.5 57 L 36.5 57 L 44.5 59 L 78.5 59 L 79.5 58 L 160.5 57 Q 164.3 59.2 159 61.5 L 164 76.5 L 165 95.5 Q 163.3 105.8 156.5 111 Q 152.1 112.5 153 109.5 L 159 102.5 L 161 96.5 L 161 79.5 L 158 67.5 L 153.5 61 L 150.5 60 L 149.5 61 L 140.5 61 L 137.5 64 L 31.5 64 L 30 65.5 L 31 106.5 L 32.5 108 L 143.5 107 L 145 110 L 141.5 111 L 63.5 111 L 62.5 112 L 35.5 112 Q 31.6 115.3 24 114 L 23 99.5 L 20 92.5 L 20 58.5 L 21.5 57 Z "></path><path fill="rgb(0,240,133)" stroke="rgb(0,240,133)" stroke-width="1" opacity="0.996078431372549" d="M 282.5 61 L 285 62.5 L 282.5 64 Q 279.5 62.5 282.5 61 Z "></path><path fill="rgb(0,240,133)" stroke="rgb(0,240,133)" stroke-width="1" opacity="0.996078431372549" d="M 257.5 231 L 258 241.5 L 253 237.5 Q 252.3 232.8 255.5 232 L 257.5 231 Z "></path><path fill="rgb(0,240,133)" stroke="rgb(0,240,133)" stroke-width="1" opacity="0.996078431372549" d="M 130.5 306 L 138.5 306 L 146.5 308 L 160 308 L 159.5 313 L 158.5 312 L 143 312 L 154 332.5 L 157 342.5 L 157 362.5 L 146 377.5 L 147.5 379 L 155 379 L 155 385 L 146.5 385 L 143.5 383 L 133 383 L 133 379 Q 135.7 380.1 135 377.5 L 116 360.5 L 115 357.5 L 118.5 356 L 131.5 370 L 140.5 375 L 146 371.5 L 153 359.5 L 153 345.5 Q 149.2 325.3 136.5 314 L 128.5 313 L 121 316.5 Q 118.3 321.1 119 328 L 115 328 L 115 319.5 Q 116.3 313.8 120.5 311 Q 127.6 310.6 130.5 306 Z "></path></svg>