<svg width="400" height="400" version="1.1" xmlns="http://www.w3.org/2000/svg" desc="Created with imagetracer.js version 1.2.5"><path fill="rgb(0,237,91)" stroke="rgb(0,237,91)" stroke-width="1" opacity="0.403921568627451" d="M 178.5 0 L 181 0.5 L 177 3 Q 178.1 5.7 175.5 5 L 173 6 L 171.5 9 L 168.5 11 L 166 12 Q 167.1 14.7 164.5 14 L 163 17 L 159 18 Q 160.1 20.7 157.5 20 L 152 24 Q 153.1 26.7 150.5 26 L 142 32.5 Q 142.8 34.8 140.5 34 L 138 35 Q 139.1 37.7 136.5 37 L 121.5 49 L 117 51 Q 118.1 53.7 115.5 53 L 104.5 61 L 102 61 Q 103.3 64 99.5 63 L 94 66 L 94 68 L 91 68 Q 92.1 70.7 89.5 70 L 84 73 Q 85.3 76 81.5 75 L 80 78 L 72 81 Q 73.1 83.7 70.5 83 L 69 86 L 65 87 Q 66.1 89.7 63.5 89 L 60.5 93 L 57.5 95 L 51 104.5 Q 53.5 106 50 107.5 Q 51.3 112.3 49 113.5 L 50 116.5 L 49 119.5 L 51 124.5 L 50 127.5 L 51 130.5 L 51 132.5 L 52 136.5 L 51 140.5 L 52 142.5 L 51 144.5 L 52 147.5 L 51 149.5 L 52 151.5 L 45 161.5 L 45 163.5 L 44 165.5 L 45 168.5 L 44 170.5 L 46 179 L 48 179 L 48 182 Q 50.7 180.9 50 183.5 L 51 186.5 L 50 190.5 L 51 193.5 L 50 195.5 L 50 197.5 L 51 201.5 L 50 204.5 L 50 206.5 Q 51.5 212 49 213.5 L 50 216.5 L 49 218.5 L 50 220.5 L 49 223.5 L 50 225.5 L 49 227.5 L 50 230.5 L 50 232.5 L 49 236.5 L 50 239.5 L 49 241.5 L 50 243.5 L 49 245.5 L 50 249.5 L 50 251.5 L 50 262.5 L 49 263.5 L 50 266.5 L 49 268.5 L 49 270.5 L 50 274.5 L 49 277.5 L 49 279.5 L 49 290.5 L 48 291.5 L 49 293.5 L 48 295.5 L 49 298.5 L 48 300.5 L 49 302.5 L 48 304.5 L 49 307.5 L 49 309.5 L 48 314.5 L 49 316.5 L 48 318.5 L 49 320.5 L 48 323.5 L 49 326.5 L 49 328.5 L 48 331.5 L 49 333.5 L 48 336.5 L 49 338.5 L 48 339.5 L 48 349.5 L 47 350.5 L 48 352.5 L 47 354.5 L 47 356.5 L 46 360.5 L 47 362.5 L 46 364.5 L 47 368.5 L 47 370.5 Q 47.4 380.6 52.5 386 Q 54.8 385.3 54 387.5 L 57 389 L 59.5 393 Q 61 390.5 62.5 394 L 64.5 395 L 66.5 395 L 74.5 397 L 76.5 397 L 83.5 398 L 85.5 397 L 92.5 399 L 95.5 398 L 97.5 399 L 99.5 398 L 101.5 399 L 103.5 399 L 108.5 398 L 111.5 399 L 113.5 399 L 119 399.5 L 90.5 400 L 88.5 400 L 85.5 399 L 82.5 400 L 80.5 399 L 78.5 399 L 75.5 398 L 73.5 399 L 70.5 397 L 68.5 398 L 66.5 397 Q 65 399.5 63.5 396 L 60.5 396 L 51 388.5 L 45 378.5 L 45 370.5 L 44 369.5 L 45 366.5 L 45 364.5 L 44 359.5 L 46 354.5 Q 44.3 346.3 47 342.5 L 46 339.5 L 46 337.5 L 47 334.5 L 46 332.5 L 47 328.5 L 47 326.5 L 46 323.5 L 47 320.5 L 46 318.5 L 47 315.5 L 47 313.5 L 46 308.5 L 47 306.5 L 47 304.5 L 46 299.5 L 47 297.5 L 47 295.5 L 46 292.5 L 48 283.5 L 47 279.5 L 47 277.5 L 48 274.5 L 47 272.5 L 48 270.5 L 47 267.5 L 48 265.5 L 47 263.5 L 48 262.5 L 48 251.5 L 48 249.5 L 47 246.5 L 48 243.5 L 47 240.5 L 48 238.5 L 47 236.5 Q 49.7 234.8 48 228.5 L 48 226.5 L 47 223.5 L 48 220.5 L 47 218.5 L 48 215.5 L 48 213.5 L 47 209.5 L 49 205.5 L 48 202.5 L 48 200.5 L 49 197.5 L 48 195.5 L 49 192.5 L 48 190.5 L 49 187.5 L 48 183 Q 45.3 184.1 46 181.5 L 42 174.5 Q 43.8 168.3 41 166.5 L 43 162.5 L 42 160.5 L 49 151.5 L 50 147.5 L 49 144.5 L 50 141.5 L 49 140.5 L 49 128.5 L 48 126.5 L 49 124.5 L 47 118.5 L 48 116.5 L 47 111.5 L 47 109.5 L 50 100 Q 52.7 101.1 52 98.5 L 56 93 L 58 93 Q 56.9 90.3 59.5 91 L 62 90 L 66.5 84 L 69.5 82 L 72 81 Q 70.9 78.3 73.5 79 L 79 76 Q 77.8 73 81.5 74 L 83 71 Q 86.8 72.5 86 69.5 L 90 68 Q 88.8 65 92.5 66 L 106.5 56 L 107.5 57 L 110.5 54 Q 113.1 54.7 112 52 L 114.5 52 L 116 49 L 120.5 46 L 123 46 Q 121.8 43 125.5 44 L 127 41 L 131.5 38 L 134 38 L 135.5 35 Q 138.8 36.1 138 33.5 L 151 24 Q 149.9 21.3 152.5 22 L 155 21 Q 153.9 18.3 156.5 19 L 158 16 L 162 15 Q 160.9 12.3 163.5 13 L 169 8.5 Q 168.3 6.3 170.5 7 L 173 6 Q 171.9 3.3 174.5 4 L 178.5 0 Z "></path><path fill="rgb(0,237,91)" stroke="rgb(0,237,91)" stroke-width="1" opacity="0.403921568627451" d="M 399.5 100 L 400 107.5 L 398 118.5 L 396 122.5 L 394 136.5 Q 391.4 143.9 385.5 148 L 379.5 151 L 370.5 152 L 360.5 150 Q 357.8 153.7 352 153 Q 353.3 156.3 348.5 155 Q 345.7 158.8 340 158 Q 341.3 161.3 336.5 160 L 331.5 163 L 329 163 L 328.5 165 L 324.5 165 Q 322.4 168.9 317 168 Q 318.4 171.7 312.5 170 L 308.5 173 L 304.5 173 L 288.5 181 L 285 181 Q 286.3 184.3 281.5 183 Q 280.4 185.8 277 185 L 277 191.5 L 276 192.5 L 277 194.5 L 274 207.5 L 274 209.5 L 273 216.5 L 273 218.5 L 271 226.5 L 272 229.5 L 271 232.5 L 270 235.5 L 271 237.5 L 269 240.5 L 270 242.5 L 268 245.5 L 268 247.5 Q 269 253.5 266 255.5 L 266 257.5 L 265 260.5 L 265 262.5 L 264 264.5 L 265 266.5 L 253 295.5 L 253 297.5 L 250 306.5 L 250 308.5 L 249 310.5 L 249 312.5 L 248 322.5 L 246 325.5 L 246 327.5 L 245 330.5 L 245 332.5 L 242 342.5 L 242 347.5 L 240 350.5 L 241 352.5 L 239 355.5 L 239 357.5 L 238 360.5 L 239 363.5 L 239 365.5 L 238 369.5 L 239 370.5 L 239 379.5 L 237 383.5 L 237.5 385 Q 235.3 384.3 236 386.5 L 230.5 393 Q 226.8 392 228 395 L 224 395 L 224 396.5 L 222.5 396 L 215.5 399 L 211.5 398 L 208.5 399 L 207 398.5 L 206.5 400 L 203.5 399 L 200.5 400 L 198.5 399 L 195.5 400 L 193.5 400 L 189.5 399 L 185.5 400 L 183.5 400 L 180.5 399 L 177.5 400 L 175.5 399 L 173.5 400 L 171.5 399 L 169.5 400 L 165.5 399 L 163.5 399 L 161.5 398 L 158.5 399 L 156.5 399 L 152.5 400 L 148.5 399 L 146.5 399 L 141.5 400 L 139.5 399 L 136.5 400 L 134.5 400 L 128 399.5 L 135.5 397 L 137.5 398 L 140.5 397 L 142.5 398 L 145.5 397 L 147.5 397 L 155.5 397 L 156.5 396 L 165.5 398 L 168.5 397 L 170.5 397 L 174.5 398 L 176.5 398 L 179.5 397 Q 181.3 399.7 187.5 398 L 189.5 398 L 193.5 397 L 196.5 398 L 199.5 397 L 201.5 398 L 206.5 396 L 210.5 397 L 227 392 Q 225.9 389.3 228.5 390 L 230 387 Q 232.7 388.1 232 385.5 L 237 375.5 L 236 373.5 L 237 371.5 L 237 369.5 L 236 364.5 L 237 362.5 L 237 360.5 L 238 356.5 L 238 354.5 L 239 352.5 L 238 350.5 L 241 343.5 L 243 330.5 L 245 327.5 L 245 325.5 L 246 322.5 L 246 320.5 L 247 317.5 L 247 315.5 Q 246.3 309.8 249 307.5 L 249 305.5 L 250 303.5 L 250 301.5 L 254 286.5 L 257 281.5 L 256 280.5 L 259 277.5 L 259 275.5 L 264 261.5 L 264 259.5 L 265 257.5 L 265 255.5 L 266 251.5 L 266 249.5 L 267 247.5 L 266 245.5 L 268 242.5 L 267 240.5 L 270 232.5 L 269 230.5 L 270 227.5 L 270 225.5 L 273 208.5 L 272 206.5 L 273 204.5 L 273 202.5 L 274 199.5 L 274 197.5 L 275 194.5 L 275 192.5 L 276 183 L 284 181 Q 282.7 177.7 287.5 179 Q 290.3 175.2 296 176 Q 294.7 172.7 299.5 174 L 304.5 171 L 307.5 171 L 312.5 168 L 322.5 165 L 324.5 163 L 327.5 163 L 329.5 161 L 335 160 L 335 158 L 339.5 158 L 340 156 L 342.5 156 L 347.5 153 L 351 153 Q 349.7 149.7 354.5 151 Q 358 147.5 364.5 147 L 373.5 149 L 384.5 145 L 388 141.5 L 393 131.5 L 397 113.5 L 398 101.5 L 399.5 100 Z "></path><path fill="rgb(0,223,111)" stroke="rgb(0,223,111)" stroke-width="1" opacity="0.996078431372549" d="M 366.5 0 L 368 0.5 L 362.5 3 L 346.5 3 L 335.5 7 L 335.5 6 L 346.5 2 L 362.5 2 L 366.5 0 Z "></path><path fill="rgb(0,223,111)" stroke="rgb(0,223,111)" stroke-width="1" opacity="0.996078431372549" d="M 333.5 7 L 332.5 9 Q 322.5 13 316.5 21 L 300.5 26 Q 293.8 28.3 290 33.5 Q 286.3 37.3 286 44.5 L 281.5 49 L 279 48.5 L 282 48 Q 281 45 284 46 L 284 41.5 Q 286.2 33.1 292.5 29 Q 302.9 22.9 316.5 20 Q 322.9 11.4 333.5 7 Z "></path><path fill="rgb(0,223,111)" stroke="rgb(0,223,111)" stroke-width="1" opacity="0.996078431372549" d="M 399.5 43 L 398.5 45 L 397 44.5 L 399.5 43 Z "></path><path fill="rgb(0,223,111)" stroke="rgb(0,223,111)" stroke-width="1" opacity="0.996078431372549" d="M 394.5 45 L 396 45.5 L 392.5 47 L 392.5 46 L 394.5 45 Z "></path><path fill="rgb(0,223,111)" stroke="rgb(0,223,111)" stroke-width="1" opacity="0.996078431372549" d="M 386.5 49 L 381.5 55 L 376 59.5 L 367.5 69 Q 361.5 73.5 352.5 75 L 335.5 75 L 324 72 Q 325.3 75 321.5 74 L 319 75.5 Q 318.3 73.3 320.5 74 L 323 73 Q 321.7 69.7 326.5 71 Q 335.9 76.1 352.5 74 Q 365.7 71.2 373 62.5 L 378.5 55 L 386.5 49 Z "></path><path fill="rgb(0,223,111)" stroke="rgb(0,223,111)" stroke-width="1" opacity="0.996078431372549" d="M 272.5 52 L 275 52.5 L 272 53 Q 273.3 56 269.5 55 L 259.5 61 L 260.5 59 L 272.5 52 Z "></path><path fill="rgb(0,223,111)" stroke="rgb(0,223,111)" stroke-width="1" opacity="0.996078431372549" d="M 256.5 61 L 258 61.5 L 255.5 63 L 256.5 61 Z "></path><path fill="rgb(0,223,111)" stroke="rgb(0,223,111)" stroke-width="1" opacity="0.996078431372549" d="M 252.5 63 L 254 63.5 L 248.5 67 L 248 65 Q 251.4 65.8 252.5 63 Z "></path><path fill="rgb(0,223,111)" stroke="rgb(0,223,111)" stroke-width="1" opacity="0.996078431372549" d="M 244 67 L 247 67.5 L 245 68 Q 246.3 71 242.5 70 L 242.5 69 Q 245.1 69.7 244 67 Z "></path><path fill="rgb(0,223,111)" stroke="rgb(0,223,111)" stroke-width="1" opacity="0.996078431372549" d="M 238.5 71 L 241 71.5 L 235.5 74 L 235.5 73 L 238.5 71 Z "></path><path fill="rgb(0,223,111)" stroke="rgb(0,223,111)" stroke-width="1" opacity="0.996078431372549" d="M 233.5 74 L 234 76 L 232 75.5 L 233.5 74 Z "></path><path fill="rgb(0,223,111)" stroke="rgb(0,223,111)" stroke-width="1" opacity="0.996078431372549" d="M 229.5 76 L 231 76.5 L 228.5 78 L 229.5 76 Z "></path><path fill="rgb(0,223,111)" stroke="rgb(0,223,111)" stroke-width="1" opacity="0.996078431372549" d="M 226.5 78 L 225.5 80 L 214.5 85 L 214.5 84 L 226.5 78 Z "></path><path fill="rgb(0,223,111)" stroke="rgb(0,223,111)" stroke-width="1" opacity="0.996078431372549" d="M 308.5 81 L 309 83 L 301.5 86 L 301.5 85 L 303.5 85 L 308.5 81 Z "></path><path fill="rgb(0,223,111)" stroke="rgb(0,223,111)" stroke-width="1" opacity="0.996078431372549" d="M 210.5 86 L 213 86.5 L 209.5 88 L 210.5 86 Z "></path><path fill="rgb(0,223,111)" stroke="rgb(0,223,111)" stroke-width="1" opacity="0.996078431372549" d="M 298.5 87 L 301 87.5 L 298 88 Q 299.3 91 295.5 90 L 295.5 89 L 298.5 87 Z "></path><path fill="rgb(0,223,111)" stroke="rgb(0,223,111)" stroke-width="1" opacity="0.996078431372549" d="M 206.5 88 L 208 88.5 L 204.5 90 L 204.5 89 L 206.5 88 Z "></path><path fill="rgb(0,223,111)" stroke="rgb(0,223,111)" stroke-width="1" opacity="0.996078431372549" d="M 293.5 90 L 294 92 L 291.5 92 L 285.5 96 L 286.5 94 L 293.5 90 Z "></path><path fill="rgb(0,223,111)" stroke="rgb(0,223,111)" stroke-width="1" opacity="0.996078431372549" d="M 199.5 91 L 203 91.5 L 199.5 92 L 199.5 91 Z "></path><path fill="rgb(0,223,111)" stroke="rgb(0,223,111)" stroke-width="1" opacity="0.996078431372549" d="M 196.5 93 L 199 93.5 L 184.5 101 L 184.5 100 L 187 100 Q 185.8 97 189.5 98 L 196.5 93 Z "></path><path fill="rgb(0,223,111)" stroke="rgb(0,223,111)" stroke-width="1" opacity="0.996078431372549" d="M 282.5 96 L 284 96.5 L 281.5 98 L 282.5 96 Z "></path><path fill="rgb(0,223,111)" stroke="rgb(0,223,111)" stroke-width="1" opacity="0.996078431372549" d="M 278.5 98 L 280 98.5 L 274.5 102 L 274 100 Q 277.4 100.8 278.5 98 Z "></path><path fill="rgb(0,223,111)" stroke="rgb(0,223,111)" stroke-width="1" opacity="0.996078431372549" d="M 181.5 102 L 184 102.5 L 181.5 103 L 181.5 102 Z "></path><path fill="rgb(0,223,111)" stroke="rgb(0,223,111)" stroke-width="1" opacity="0.996078431372549" d="M 270 102 L 273 102.5 L 270.5 104 L 270 102 Z "></path><path fill="rgb(0,223,111)" stroke="rgb(0,223,111)" stroke-width="1" opacity="0.996078431372549" d="M 177.5 104 L 180 104.5 L 171.5 109 L 172.5 107 L 177.5 104 Z "></path><path fill="rgb(0,223,111)" stroke="rgb(0,223,111)" stroke-width="1" opacity="0.996078431372549" d="M 263 106 L 267 106.5 L 261.5 109 L 261.5 108 Q 264.1 108.7 263 106 Z "></path><path fill="rgb(0,223,111)" stroke="rgb(0,223,111)" stroke-width="1" opacity="0.996078431372549" d="M 159.5 109 L 163.5 110 L 165 109.5 L 162.5 111 L 160.5 110 L 152 112 Q 153.3 115 149.5 114 L 147 118 Q 144.3 116.9 145 119.5 L 143 121.5 L 135.5 142 L 135 140.5 L 136 137.5 L 145 116 L 152.5 111 L 159.5 109 Z "></path><path fill="rgb(0,223,111)" stroke="rgb(0,223,111)" stroke-width="1" opacity="0.996078431372549" d="M 169.5 109 L 168.5 111 L 166 110.5 L 169.5 109 Z "></path><path fill="rgb(0,223,111)" stroke="rgb(0,223,111)" stroke-width="1" opacity="0.996078431372549" d="M 259.5 109 L 260 111 L 254.5 113 L 255.5 111 L 259.5 109 Z "></path><path fill="rgb(0,223,111)" stroke="rgb(0,223,111)" stroke-width="1" opacity="0.996078431372549" d="M 252.5 113 L 251.5 115 L 247.5 117 L 248.5 115 L 252.5 113 Z "></path><path fill="rgb(0,223,111)" stroke="rgb(0,223,111)" stroke-width="1" opacity="0.996078431372549" d="M 244.5 117 L 246 117.5 L 240.5 120 L 240.5 119 L 244.5 117 Z "></path><path fill="rgb(0,223,111)" stroke="rgb(0,223,111)" stroke-width="1" opacity="0.996078431372549" d="M 236 121 L 239 121.5 L 232.5 125 L 232 123 Q 237.2 124.7 236 121 Z "></path><path fill="rgb(0,223,111)" stroke="rgb(0,223,111)" stroke-width="1" opacity="0.996078431372549" d="M 229.5 125 L 231 125.5 L 222.5 129 L 222.5 128 L 229.5 125 Z "></path><path fill="rgb(0,223,111)" stroke="rgb(0,223,111)" stroke-width="1" opacity="0.996078431372549" d="M 218.5 130 L 221 130.5 L 218.5 131 L 218.5 130 Z "></path><path fill="rgb(0,223,111)" stroke="rgb(0,223,111)" stroke-width="1" opacity="0.996078431372549" d="M 215.5 132 L 217 132.5 L 213.5 135 L 213 133 L 215.5 132 Z "></path><path fill="rgb(0,223,111)" stroke="rgb(0,223,111)" stroke-width="1" opacity="0.996078431372549" d="M 206.5 137 L 209 137.5 L 206.5 138 L 206.5 137 Z "></path><path fill="rgb(0,223,111)" stroke="rgb(0,223,111)" stroke-width="1" opacity="0.996078431372549" d="M 203.5 139 L 206 139.5 L 200.5 142 L 200.5 141 L 203.5 139 Z "></path><path fill="rgb(0,223,111)" stroke="rgb(0,223,111)" stroke-width="1" opacity="0.996078431372549" d="M 198.5 142 L 199 144 L 196.5 144 L 190.5 148 L 192.5 145 L 198.5 142 Z "></path><path fill="rgb(0,223,111)" stroke="rgb(0,223,111)" stroke-width="1" opacity="0.996078431372549" d="M 135.5 143 L 136 145.5 L 134.5 148 L 134 146.5 L 135.5 143 Z "></path><path fill="rgb(0,223,111)" stroke="rgb(0,223,111)" stroke-width="1" opacity="0.996078431372549" d="M 187.5 148 L 189 148.5 L 183.5 151 L 183.5 150 L 187.5 148 Z "></path><path fill="rgb(0,223,111)" stroke="rgb(0,223,111)" stroke-width="1" opacity="0.996078431372549" d="M 133.5 151 L 134 154.5 L 132 157.5 L 132.5 159 Q 129.8 157.8 132 156.5 L 133.5 151 Z "></path><path fill="rgb(0,223,111)" stroke="rgb(0,223,111)" stroke-width="1" opacity="0.996078431372549" d="M 179.5 152 L 182 152.5 L 179.5 153 L 179.5 152 Z "></path><path fill="rgb(0,223,111)" stroke="rgb(0,223,111)" stroke-width="1" opacity="0.996078431372549" d="M 177.5 154 L 179 154.5 L 176 160.5 L 176 162.5 L 174.5 166 L 174 164.5 L 176 161.5 L 176 159.5 L 177 156.5 Q 174.8 155.3 177.5 154 Z "></path><path fill="rgb(0,223,111)" stroke="rgb(0,223,111)" stroke-width="1" opacity="0.996078431372549" d="M 131.5 160 L 132 161.5 L 131 164.5 L 130.5 166 L 130 164.5 L 131 161.5 L 131.5 160 Z "></path><path fill="rgb(0,223,111)" stroke="rgb(0,223,111)" stroke-width="1" opacity="0.996078431372549" d="M 129.5 167 L 130 169.5 L 128 172.5 L 126 181.5 L 127 183.5 L 125.5 186 L 125 184.5 L 125 182.5 L 129.5 167 Z "></path><path fill="rgb(0,223,111)" stroke="rgb(0,223,111)" stroke-width="1" opacity="0.996078431372549" d="M 172.5 174 L 173 176.5 L 171 179.5 L 171.5 181 Q 169.3 181.8 170 179.5 L 172.5 174 Z "></path><path fill="rgb(0,223,111)" stroke="rgb(0,223,111)" stroke-width="1" opacity="0.996078431372549" d="M 170.5 182 L 170 183.5 L 169.5 187 Q 166.8 185.8 169 184.5 L 170.5 182 Z "></path><path fill="rgb(0,223,111)" stroke="rgb(0,223,111)" stroke-width="1" opacity="0.996078431372549" d="M 124.5 187 Q 126.8 186.3 126 188.5 L 124.5 187 Z "></path><path fill="rgb(0,223,111)" stroke="rgb(0,223,111)" stroke-width="1" opacity="0.996078431372549" d="M 168.5 188 L 169 189.5 L 169 191.5 L 168 194.5 L 168 196.5 L 167.5 202 L 167 196.5 L 167 194.5 L 168 191.5 L 168 189.5 L 168.5 188 Z "></path><path fill="rgb(0,223,111)" stroke="rgb(0,223,111)" stroke-width="1" opacity="0.996078431372549" d="M 124.5 190 L 125 192.5 L 124 192.5 L 124.5 190 Z "></path><path fill="rgb(0,223,111)" stroke="rgb(0,223,111)" stroke-width="1" opacity="0.996078431372549" d="M 123.5 200 L 125 203.5 L 124 205.5 L 124.5 207 L 123 204.5 L 124 202.5 L 123.5 200 Z "></path><path fill="rgb(0,223,111)" stroke="rgb(0,223,111)" stroke-width="1" opacity="0.996078431372549" d="M 166.5 203 L 168 205.5 L 166.5 210 L 166 206.5 L 167 204.5 L 166.5 203 Z "></path><path fill="rgb(0,223,111)" stroke="rgb(0,223,111)" stroke-width="1" opacity="0.996078431372549" d="M 123.5 208 L 125 210.5 L 123.5 215 L 123.5 208 Z "></path><path fill="rgb(0,223,111)" stroke="rgb(0,223,111)" stroke-width="1" opacity="0.996078431372549" d="M 166.5 211 L 167 213.5 L 166 213.5 L 166.5 211 Z "></path><path fill="rgb(0,223,111)" stroke="rgb(0,223,111)" stroke-width="1" opacity="0.996078431372549" d="M 166.5 215 L 167 221.5 L 167 223.5 L 166 226.5 L 166 228.5 L 165 232.5 L 166 234.5 L 165 236.5 L 165 238.5 L 164.5 244 L 164 238.5 L 164 236.5 L 165 233.5 L 165 231.5 L 166 227.5 L 165 225.5 L 166 223.5 L 166 221.5 L 166.5 215 Z "></path><path fill="rgb(0,223,111)" stroke="rgb(0,223,111)" stroke-width="1" opacity="0.996078431372549" d="M 122.5 219 L 124 221.5 L 123 223.5 L 123.5 225 Q 120.9 225.8 122 222.5 L 123 220.5 L 122.5 219 Z "></path><path fill="rgb(0,223,111)" stroke="rgb(0,223,111)" stroke-width="1" opacity="0.996078431372549" d="M 122.5 226 L 123 230.5 L 121 229.5 L 122.5 226 Z "></path><path fill="rgb(0,223,111)" stroke="rgb(0,223,111)" stroke-width="1" opacity="0.996078431372549" d="M 121.5 232 L 122 234.5 L 121 234.5 L 121.5 232 Z "></path><path fill="rgb(0,223,111)" stroke="rgb(0,223,111)" stroke-width="1" opacity="0.996078431372549" d="M 121.5 239 L 122 240.5 L 121 242.5 L 121.5 244 L 120 241.5 L 121.5 239 Z "></path><path fill="rgb(0,223,111)" stroke="rgb(0,223,111)" stroke-width="1" opacity="0.996078431372549" d="M 120.5 245 L 121 249.5 L 119.5 252 L 119 250.5 L 120.5 245 Z "></path><path fill="rgb(0,223,111)" stroke="rgb(0,223,111)" stroke-width="1" opacity="0.996078431372549" d="M 163.5 245 L 164.5 247 L 163.5 245 Z "></path><path fill="rgb(0,223,111)" stroke="rgb(0,223,111)" stroke-width="1" opacity="0.996078431372549" d="M 163.5 248 L 164 250.5 L 163 250.5 L 163.5 248 Z "></path><path fill="rgb(0,223,111)" stroke="rgb(0,223,111)" stroke-width="1" opacity="0.996078431372549" d="M 163.5 252 L 164 253.5 L 162.5 258 L 162 254.5 L 163.5 252 Z "></path><path fill="rgb(0,223,111)" stroke="rgb(0,223,111)" stroke-width="1" opacity="0.996078431372549" d="M 119.5 253 L 120 255.5 L 117.5 263 L 117 260.5 L 119.5 253 Z "></path><path fill="rgb(0,223,111)" stroke="rgb(0,223,111)" stroke-width="1" opacity="0.996078431372549" d="M 161.5 260 Q 164.3 261.2 162 262.5 L 161 264.5 L 161.5 266 Q 158.7 264.8 161 263.5 L 162 261.5 L 161.5 260 Z "></path><path fill="rgb(0,223,111)" stroke="rgb(0,223,111)" stroke-width="1" opacity="0.996078431372549" d="M 117.5 264 L 118 265.5 L 117 268.5 L 116.5 270 L 116 266.5 L 117.5 264 Z "></path><path fill="rgb(0,223,111)" stroke="rgb(0,223,111)" stroke-width="1" opacity="0.996078431372549" d="M 160.5 268 L 161 269.5 L 160 272.5 L 159.5 274 L 159 272.5 L 160 269.5 L 160.5 268 Z "></path><path fill="rgb(0,223,111)" stroke="rgb(0,223,111)" stroke-width="1" opacity="0.996078431372549" d="M 115.5 274 L 116 275.5 L 115.5 278 Q 112.8 276.8 115 275.5 L 115.5 274 Z "></path><path fill="rgb(0,223,111)" stroke="rgb(0,223,111)" stroke-width="1" opacity="0.996078431372549" d="M 158.5 278 L 159 281.5 L 157 285.5 L 157 287.5 L 156.5 292 L 156 287.5 L 157 284.5 L 158.5 278 Z "></path><path fill="rgb(0,223,111)" stroke="rgb(0,223,111)" stroke-width="1" opacity="0.996078431372549" d="M 114.5 279 L 115 280.5 L 114 283.5 L 113.5 285 L 113 283.5 L 114 280.5 L 114.5 279 Z "></path><path fill="rgb(0,223,111)" stroke="rgb(0,223,111)" stroke-width="1" opacity="0.996078431372549" d="M 112.5 286 L 113 289.5 L 112 289.5 L 112.5 286 Z "></path><path fill="rgb(0,223,111)" stroke="rgb(0,223,111)" stroke-width="1" opacity="0.996078431372549" d="M 111.5 291 Q 114.3 292.3 112 293.5 L 111 296.5 L 111.5 298 Q 108.8 296.8 111 295.5 L 112 292.5 L 111.5 291 Z "></path><path fill="rgb(0,223,111)" stroke="rgb(0,223,111)" stroke-width="1" opacity="0.996078431372549" d="M 155.5 293 L 156 296.5 L 155 301 L 153 300.5 L 155.5 293 Z "></path><path fill="rgb(0,223,111)" stroke="rgb(0,223,111)" stroke-width="1" opacity="0.996078431372549" d="M 110.5 299 L 111 302.5 L 109 301.5 L 110.5 299 Z "></path><path fill="rgb(0,223,111)" stroke="rgb(0,223,111)" stroke-width="1" opacity="0.996078431372549" d="M 153.5 302 L 154 306.5 L 153 308.5 L 153.5 310 Q 150.9 310.8 152 307.5 L 153.5 302 Z "></path><path fill="rgb(0,223,111)" stroke="rgb(0,223,111)" stroke-width="1" opacity="0.996078431372549" d="M 109.5 305 L 110 309.5 L 109 312.5 L 108.5 318 L 108 312.5 L 109 309.5 L 109.5 305 Z "></path><path fill="rgb(0,223,111)" stroke="rgb(0,223,111)" stroke-width="1" opacity="0.996078431372549" d="M 152.5 314 L 153 315.5 L 151.5 318 L 151 316.5 L 152.5 314 Z "></path><path fill="rgb(0,223,111)" stroke="rgb(0,223,111)" stroke-width="1" opacity="0.996078431372549" d="M 107.5 319 Q 110.3 320.3 108 321.5 L 107 325.5 L 107.5 327 Q 104.8 325.8 107 324.5 L 107.5 319 Z "></path><path fill="rgb(0,223,111)" stroke="rgb(0,223,111)" stroke-width="1" opacity="0.996078431372549" d="M 151.5 320 L 152 321.5 L 150.5 324 L 150 322.5 L 151.5 320 Z "></path><path fill="rgb(0,223,111)" stroke="rgb(0,223,111)" stroke-width="1" opacity="0.996078431372549" d="M 106.5 328 L 107 333.5 L 106 336.5 L 105.5 338 L 105 336.5 L 106 333.5 L 106.5 328 Z "></path><path fill="rgb(0,223,111)" stroke="rgb(0,223,111)" stroke-width="1" opacity="0.996078431372549" d="M 149.5 328 Q 152.1 327.2 151 330.5 L 149.5 333 L 149 331.5 L 150 329.5 L 149.5 328 Z "></path><path fill="rgb(0,223,111)" stroke="rgb(0,223,111)" stroke-width="1" opacity="0.996078431372549" d="M 148 337 Q 151 335.8 150 339.5 L 148 342.5 L 149 344.5 L 147 351.5 L 148 353.5 L 147 353.5 L 146 351.5 L 148 343.5 L 148 341.5 L 149 339.5 L 148 337 Z "></path><path fill="rgb(0,223,111)" stroke="rgb(0,223,111)" stroke-width="1" opacity="0.996078431372549" d="M 104 339 Q 107 338 106 341 Q 103 342 104 339 Z "></path><path fill="rgb(0,223,111)" stroke="rgb(0,223,111)" stroke-width="1" opacity="0.996078431372549" d="M 104.5 342 L 105 346.5 L 104 346.5 L 104.5 342 Z "></path><path fill="rgb(0,223,111)" stroke="rgb(0,223,111)" stroke-width="1" opacity="0.996078431372549" d="M 103.5 348 L 105 350.5 L 104 350.5 L 103.5 348 Z "></path><path fill="rgb(0,223,111)" stroke="rgb(0,223,111)" stroke-width="1" opacity="0.996078431372549" d="M 103.5 352 L 105 354.5 L 103 357.5 L 103 359.5 Q 98.8 363.3 100 372.5 L 103 381.5 L 103 385.5 L 107 392.5 L 106 392.5 L 102 386.5 L 101 379 Q 97 380.4 99 373.5 L 98 371.5 L 99 369.5 L 98 367.5 L 99 362.5 L 104 354.5 L 103.5 352 Z "></path><path fill="rgb(0,223,111)" stroke="rgb(0,223,111)" stroke-width="1" opacity="0.996078431372549" d="M 146.5 355 L 148 357.5 L 146 356.5 L 146.5 355 Z "></path><path fill="rgb(0,223,111)" stroke="rgb(0,223,111)" stroke-width="1" opacity="0.996078431372549" d="M 146.5 360 Q 149.9 363.6 148 372.5 L 145.5 378 L 145 376.5 L 146 373.5 L 147 371.5 L 147 369.5 L 146 365.5 L 147 362.5 L 146.5 360 Z "></path><path fill="rgb(0,223,111)" stroke="rgb(0,223,111)" stroke-width="1" opacity="0.996078431372549" d="M 144.5 379 L 146 381.5 L 144 384.5 L 144.5 386 Q 141.8 384.7 144 383.5 L 145 381.5 L 144.5 379 Z "></path><path fill="rgb(0,223,111)" stroke="rgb(0,223,111)" stroke-width="1" opacity="0.996078431372549" d="M 143.5 387 L 142 389.5 L 141.5 391 L 141 389.5 L 143.5 387 Z "></path><path fill="rgb(0,223,111)" stroke="rgb(0,223,111)" stroke-width="1" opacity="0.996078431372549" d="M 140.5 392 L 139.5 394 L 136.5 396 L 133.5 398 L 134.5 396 L 140.5 392 Z "></path><path fill="rgb(0,223,111)" stroke="rgb(0,223,111)" stroke-width="1" opacity="0.996078431372549" d="M 108.5 393 L 111 396.5 L 108 394.5 L 108.5 393 Z "></path><path fill="rgb(0,223,111)" stroke="rgb(0,223,111)" stroke-width="1" opacity="0.996078431372549" d="M 112.5 396 L 114.5 399 L 112.5 396 Z "></path><path fill="rgb(0,143,224)" stroke="rgb(0,143,224)" stroke-width="1" opacity="1" d="M 369.5 0 L 372 0.5 L 364 3 L 365.5 6 L 370 9.5 L 377 26.5 L 375 25.5 L 371 18.5 L 370 13.5 L 363.5 6 L 361 4.5 Q 360.3 2.3 362.5 3 L 369.5 0 Z "></path><path fill="rgb(0,143,224)" stroke="rgb(0,143,224)" stroke-width="1" opacity="1" d="M 313.5 22 L 316 22.5 L 312.5 24 Q 303.3 24.8 299 30.5 L 296 38.5 L 292.5 42 L 290 43.5 L 290 45 L 287 45 Q 288.1 47.7 285.5 47 L 283 48 L 283 50 L 280 50 Q 281.1 52.7 278.5 52 L 262.5 61 L 260 61 Q 261.3 64 257.5 63 Q 256.4 65.8 253 65 Q 254.3 68 250.5 67 L 234 76 L 234 78 L 230 78 L 230 80 L 226 80 Q 227.3 83 223.5 82 L 194.5 98 L 188 100 L 188 102 L 185 102 Q 186.3 105 182.5 104 L 170.5 112 L 169.5 110 L 181.5 103 L 184 103 Q 182.8 100 186.5 101 Q 198.1 91.3 214 87 L 214 85 L 218 85 L 218 83 L 222 83 Q 220.8 80 224.5 81 L 242.5 70 L 245 70 L 245 68 L 249 68 Q 247.9 65.3 250.5 66 L 266.5 58 L 276.5 51 L 279 51 Q 277.8 48 281.5 49 L 286 45.5 L 290 34.5 L 295.5 29 L 313.5 22 Z "></path><path fill="rgb(0,143,224)" stroke="rgb(0,143,224)" stroke-width="1" opacity="1" d="M 313.5 25 L 313 26.5 Q 314.3 31.3 311 30 L 313.5 25 Z "></path><path fill="rgb(0,143,224)" stroke="rgb(0,143,224)" stroke-width="1" opacity="1" d="M 316.5 26 L 318 26.5 L 314.5 28 L 314.5 27 L 316.5 26 Z "></path><path fill="rgb(0,143,224)" stroke="rgb(0,143,224)" stroke-width="1" opacity="1" d="M 316.5 29 Q 318.8 28.3 318 30.5 L 316.5 29 Z "></path><path fill="rgb(0,143,224)" stroke="rgb(0,143,224)" stroke-width="1" opacity="1" d="M 378.5 30 L 380 34.5 L 379 34.5 L 378.5 30 Z "></path><path fill="rgb(0,143,224)" stroke="rgb(0,143,224)" stroke-width="1" opacity="1" d="M 316.5 33 L 318 34.5 L 319 40.5 L 318 40.5 L 316.5 33 Z "></path><path fill="rgb(0,143,224)" stroke="rgb(0,143,224)" stroke-width="1" opacity="1" d="M 380.5 36 L 381 48.5 L 380 48.5 L 380.5 36 Z "></path><path fill="rgb(0,143,224)" stroke="rgb(0,143,224)" stroke-width="1" opacity="1" d="M 398.5 42 L 400 42.5 L 388.5 48 L 389.5 46 L 398.5 42 Z "></path><path fill="rgb(0,143,224)" stroke="rgb(0,143,224)" stroke-width="1" opacity="1" d="M 322.5 46 Q 324.8 45.3 324 47.5 L 324.5 49 Q 322.3 49.8 323 47.5 L 322.5 46 Z "></path><path fill="rgb(0,143,224)" stroke="rgb(0,143,224)" stroke-width="1" opacity="1" d="M 386.5 48 L 384.5 51 L 379 54 L 379.5 50 L 382.5 51 L 386.5 48 Z "></path><path fill="rgb(0,143,224)" stroke="rgb(0,143,224)" stroke-width="1" opacity="1" d="M 326.5 49 L 329.5 52 L 331.5 52 L 333.5 53 L 335.5 53 L 337 53.5 L 333.5 54 L 330.5 52 L 329.5 53 L 326.5 49 Z "></path><path fill="rgb(0,143,224)" stroke="rgb(0,143,224)" stroke-width="1" opacity="1" d="M 343.5 52 L 348 52.5 L 340.5 54 L 340.5 53 L 343.5 52 Z "></path><path fill="rgb(0,143,224)" stroke="rgb(0,143,224)" stroke-width="1" opacity="1" d="M 341.5 59 L 342 61 L 340 60.5 L 341.5 59 Z "></path><path fill="rgb(0,143,224)" stroke="rgb(0,143,224)" stroke-width="1" opacity="1" d="M 338.5 61 L 336.5 64 L 334 63.5 L 338.5 61 Z "></path><path fill="rgb(0,143,224)" stroke="rgb(0,143,224)" stroke-width="1" opacity="1" d="M 330.5 66 L 331 68 Q 321.1 70.8 314.5 78 L 312 78 Q 313.3 81 309.5 80 Q 305.4 85.4 297.5 87 L 297.5 86 L 305.5 81 L 308 81 L 308 79 L 311 79 L 311 77 L 315 77 L 315 75.5 L 319 74 Q 317.8 71 321.5 72 Q 322.6 69.3 326 70 Q 324.8 67 328.5 68 L 330.5 66 Z "></path><path fill="rgb(0,143,224)" stroke="rgb(0,143,224)" stroke-width="1" opacity="1" d="M 293 88 L 297 88.5 L 270.5 102 L 234.5 123 L 224.5 128 L 221.5 128 L 221.5 127 L 243.5 117 L 252.5 111 L 255 111 Q 253.8 108 257.5 109 Q 258.6 106.3 262 107 Q 260.8 104 264.5 105 L 279.5 96 L 282 96 Q 280.8 93 284.5 94 L 290.5 90 L 293 90 L 293 88 Z "></path><path fill="rgb(0,143,224)" stroke="rgb(0,143,224)" stroke-width="1" opacity="1" d="M 172.5 112 L 176 114.5 L 174.5 115 L 172.5 112 Z "></path><path fill="rgb(0,143,224)" stroke="rgb(0,143,224)" stroke-width="1" opacity="1" d="M 177.5 115 L 179 118.5 L 178 118.5 L 177.5 115 Z "></path><path fill="rgb(0,143,224)" stroke="rgb(0,143,224)" stroke-width="1" opacity="1" d="M 182.5 122 L 184 130.5 L 183 130.5 L 182.5 122 Z "></path><path fill="rgb(0,143,224)" stroke="rgb(0,143,224)" stroke-width="1" opacity="1" d="M 218.5 129 L 221 129.5 L 218.5 130 L 218.5 129 Z "></path><path fill="rgb(0,143,224)" stroke="rgb(0,143,224)" stroke-width="1" opacity="1" d="M 213 131 L 217 131.5 L 209 135 L 209 137 Q 204.9 135.7 206 139 L 202.5 139 L 202.5 138 L 205 138 Q 203.9 135.3 206.5 136 L 210.5 133 L 213 133 L 213 131 Z "></path><path fill="rgb(0,143,224)" stroke="rgb(0,143,224)" stroke-width="1" opacity="1" d="M 139 132 Q 142.7 130.7 141 136.5 L 142 140.5 L 141 140.5 L 140.5 137 L 137 142.5 L 137 144.5 L 136.5 146 L 136 141.5 L 138 138.5 L 137 136.5 Q 139.8 135.4 139 132 Z "></path><path fill="rgb(0,143,224)" stroke="rgb(0,143,224)" stroke-width="1" opacity="1" d="M 183.5 133 L 184 136.5 L 183 136.5 L 183.5 133 Z "></path><path fill="rgb(0,143,224)" stroke="rgb(0,143,224)" stroke-width="1" opacity="1" d="M 182.5 138 L 183 140.5 L 180 142.5 L 182.5 138 Z "></path><path fill="rgb(0,143,224)" stroke="rgb(0,143,224)" stroke-width="1" opacity="1" d="M 198 140 L 202 140.5 Q 192 143.5 185.5 150 L 179 152 Q 180.1 154.7 177.5 154 L 176 154.5 L 191.5 144 L 198 142 L 198 140 Z "></path><path fill="rgb(0,143,224)" stroke="rgb(0,143,224)" stroke-width="1" opacity="1" d="M 145.5 144 L 147 147.5 L 146 147.5 L 145.5 144 Z "></path><path fill="rgb(0,143,224)" stroke="rgb(0,143,224)" stroke-width="1" opacity="1" d="M 179.5 144 L 179 145.5 Q 179.8 147.8 177.5 147 L 179.5 144 Z "></path><path fill="rgb(0,143,224)" stroke="rgb(0,143,224)" stroke-width="1" opacity="1" d="M 135.5 147 Q 138.3 148.3 136 149.5 L 135 151.5 L 135 153.5 L 134 156.5 L 134 158.5 L 133 164.5 L 131 166.5 L 131 168.5 L 130 171.5 L 130 173.5 L 127 186.5 L 127 188.5 L 126 191.5 L 126.5 193 L 125 190.5 L 127 182.5 L 127 180.5 L 128 178.5 L 128 176.5 L 129 173.5 L 129 171.5 L 131 167.5 L 131 165.5 L 132 163.5 L 132 161.5 L 133 158.5 Q 130.5 157 134 155.5 L 135 152.5 L 135 150.5 L 136 148.5 L 135.5 147 Z "></path><path fill="rgb(0,143,224)" stroke="rgb(0,143,224)" stroke-width="1" opacity="1" d="M 148.5 148 L 152 150 L 151.5 152 L 148.5 148 Z "></path><path fill="rgb(0,143,224)" stroke="rgb(0,143,224)" stroke-width="1" opacity="1" d="M 175.5 148 L 177 148.5 L 173.5 151 L 175.5 148 Z "></path><path fill="rgb(0,143,224)" stroke="rgb(0,143,224)" stroke-width="1" opacity="1" d="M 153.5 151 L 158 152.5 Q 156.8 155.3 155.5 153 L 153.5 151 Z "></path><path fill="rgb(0,143,224)" stroke="rgb(0,143,224)" stroke-width="1" opacity="1" d="M 170.5 151 L 169.5 153 L 163.5 154 L 163.5 153 L 170.5 151 Z "></path><path fill="rgb(0,143,224)" stroke="rgb(0,143,224)" stroke-width="1" opacity="1" d="M 175 156 L 177 156.5 L 175 160.5 Q 177.3 161.7 174.5 163 L 174 159.5 L 175 156 Z "></path><path fill="rgb(0,143,224)" stroke="rgb(0,143,224)" stroke-width="1" opacity="1" d="M 173.5 164 L 174 167.5 L 172.5 170 L 172 168.5 L 173.5 164 Z "></path><path fill="rgb(0,143,224)" stroke="rgb(0,143,224)" stroke-width="1" opacity="1" d="M 171.5 171 Q 173.8 170.3 173 172.5 L 171 175.5 L 171 177.5 L 167 190.5 L 167 192.5 Q 168.5 198 166 199.5 L 167 201.5 L 166 203.5 L 167 205.5 L 166 206.5 L 166 217.5 L 165 218.5 L 166 220.5 L 165 222.5 L 166 224.5 L 165 226.5 L 165 228.5 L 164 232.5 L 165 234.5 L 163 241.5 L 164 243.5 L 163 245.5 L 163 247.5 L 162 251.5 L 162 253.5 L 161 260.5 L 161 262.5 L 160 264.5 L 160 266.5 L 159 270.5 L 159 272.5 L 158 275.5 L 158 277.5 L 157 279.5 L 158 281.5 L 156 285.5 L 156 287.5 L 155 289.5 L 156 291.5 L 154 294.5 L 154 296.5 L 153 300.5 L 153 302.5 L 152 304.5 L 153 306.5 L 151 313.5 L 151 315.5 L 150 319.5 L 151 321.5 L 149 328.5 L 149 330.5 L 149 336.5 L 147 342.5 L 147.5 344 Q 144.9 344.8 146 341.5 L 148 334.5 L 147 332.5 L 149 329.5 L 149 327.5 Q 147.5 322 150 320.5 L 150 318.5 L 151 314.5 L 150 312.5 L 152 305.5 L 152 303.5 L 153 301.5 L 152 299.5 L 154 295.5 L 154 293.5 L 155 291.5 L 154 288.5 L 157 280.5 L 157 278.5 L 158 276.5 L 157 274.5 L 161 257.5 L 161 255.5 L 162 252.5 L 161 250.5 L 162 248.5 L 162 246.5 L 163 242.5 L 163 240.5 Q 161.5 235 164 233.5 L 163 231.5 L 164 229.5 L 164 227.5 L 165 223.5 L 164 221.5 L 165 219.5 L 164 217.5 L 165 215.5 L 164 213.5 L 165 212.5 Q 163.3 204.3 166 200.5 L 166 198.5 Q 164.5 193 167 191.5 L 167 189.5 L 170 174.5 L 172 172.5 L 171.5 171 Z "></path><path fill="rgb(0,143,224)" stroke="rgb(0,143,224)" stroke-width="1" opacity="1" d="M 125.5 194 L 127 197.5 L 125 204.5 L 126 207.5 L 125 209.5 L 126 211.5 L 125 212.5 L 125 222.5 L 124 223.5 L 125 225.5 L 124 227.5 L 125 229.5 L 123 233.5 L 123 235.5 Q 124.5 241 122 242.5 L 123 244.5 L 121 251.5 L 121 253.5 L 120 257.5 L 120 259.5 L 119 261.5 L 119 263.5 Q 119.9 268.9 117.5 271 L 117 268.5 L 118 265.5 L 119 262.5 L 119 260.5 L 122 243.5 L 122 241.5 Q 120.5 236 123 234.5 L 122 232.5 L 124 224.5 L 123 222.5 L 124 220.5 L 124 218.5 Q 122.2 212.3 125 210.5 L 124 208.5 L 125 206.5 L 124 204.5 L 125 201.5 L 125 199.5 L 125.5 194 Z "></path><path fill="rgb(0,143,224)" stroke="rgb(0,143,224)" stroke-width="1" opacity="1" d="M 116.5 274 L 117 278.5 L 114.5 288 Q 111.8 286.8 114 285.5 L 115 282.5 L 115 280.5 L 116 277.5 L 116 275.5 L 116.5 274 Z "></path><path fill="rgb(0,143,224)" stroke="rgb(0,143,224)" stroke-width="1" opacity="1" d="M 113.5 289 L 114 293.5 L 112 300.5 L 112 302.5 L 111 305.5 L 111.5 307 Q 108.9 307.8 110 304.5 L 112 297.5 L 112 295.5 L 113 292.5 L 113 290.5 L 113.5 289 Z "></path><path fill="rgb(0,143,224)" stroke="rgb(0,143,224)" stroke-width="1" opacity="1" d="M 110.5 308 L 111 312.5 L 110 314.5 L 110 316.5 L 109 319.5 L 110 321.5 L 109 323.5 L 109 325.5 L 108 329.5 L 108 331.5 L 107.5 333 L 107 331.5 L 107 329.5 L 108 326.5 L 108 324.5 L 109 320.5 L 109 318.5 L 110 311.5 L 110 309.5 L 110.5 308 Z "></path><path fill="rgb(0,143,224)" stroke="rgb(0,143,224)" stroke-width="1" opacity="1" d="M 106.5 334 Q 109.1 333.2 108 336.5 L 107 338.5 L 107 340.5 L 106 343.5 L 106 345.5 L 105.5 355 L 104 352.5 L 105 349.5 L 105 347.5 L 105 342.5 L 107 335.5 L 106.5 334 Z "></path><path fill="rgb(0,143,224)" stroke="rgb(0,143,224)" stroke-width="1" opacity="1" d="M 146.5 345 L 147 350.5 L 147 352.5 L 146.5 354 L 145 350.5 L 146.5 345 Z "></path><path fill="rgb(0,143,224)" stroke="rgb(0,143,224)" stroke-width="1" opacity="1" d="M 145.5 355 L 147 358.5 L 146 361.5 L 147 363.5 L 146 365.5 L 146 367.5 Q 147.9 372.9 144.5 372 Q 142 371 143 366.5 L 145 364.5 Q 143.8 359.8 146 358.5 L 145.5 355 Z "></path><path fill="rgb(0,143,224)" stroke="rgb(0,143,224)" stroke-width="1" opacity="1" d="M 104.5 356 L 106 358.5 L 105 361.5 L 106.5 364 L 112 359.5 L 110.5 362 L 105 366.5 Q 105.8 368.8 103.5 368 Q 100.6 369.6 101.5 375 L 100 372.5 L 104.5 356 Z "></path><path fill="rgb(0,143,224)" stroke="rgb(0,143,224)" stroke-width="1" opacity="1" d="M 119.5 356 L 122 356.5 L 114.5 359 L 115.5 357 L 119.5 356 Z "></path><path fill="rgb(0,143,224)" stroke="rgb(0,143,224)" stroke-width="1" opacity="1" d="M 125.5 356 L 131 357.5 L 127.5 358 L 125.5 356 Z "></path><path fill="rgb(0,143,224)" stroke="rgb(0,143,224)" stroke-width="1" opacity="1" d="M 132.5 358 L 136 360.5 L 134.5 360 L 132.5 358 Z "></path><path fill="rgb(0,143,224)" stroke="rgb(0,143,224)" stroke-width="1" opacity="1" d="M 137.5 361 L 139 363.5 L 138 363.5 L 137.5 361 Z "></path><path fill="rgb(0,143,224)" stroke="rgb(0,143,224)" stroke-width="1" opacity="1" d="M 140.5 363 L 142 366.5 L 140 365.5 L 140.5 363 Z "></path><path fill="rgb(0,236,90)" stroke="rgb(0,236,90)" stroke-width="1" opacity="1" d="M 187.5 0 L 191.5 0 L 196.5 1 L 197.5 0 L 213.5 0 L 215.5 0 L 362.5 0 L 363 2 L 346.5 2 L 338.5 4 L 324.5 12 L 316.5 20 L 295.5 27 L 287 34.5 Q 283.3 38.7 284 46 Q 281 45 282 48 L 279 48 L 279 50 L 276.5 50 L 258.5 61 L 248 65 L 248 67 L 244 67 Q 245.1 69.7 242.5 69 L 216.5 84 L 214 84 Q 215.3 87.3 210.5 86 L 202.5 91 L 199 91 Q 200.3 94 196.5 93 L 189.5 98 L 187 98 L 187 100 L 184 100 Q 185.3 103 181.5 102 L 170.5 109 L 165.5 110 L 163.5 110 L 159.5 109 L 152.5 111 L 145 116 L 135 138.5 L 135 140.5 L 134 147.5 L 134 149.5 L 131 157.5 L 132 159.5 L 130 162.5 L 130 164.5 L 125 182.5 L 125 184.5 L 124 187.5 L 125 189.5 L 124 192.5 L 124 194.5 L 123 201.5 L 124 203.5 L 123 205.5 L 124 207.5 L 123 208.5 L 123 218.5 L 122 219.5 L 123 221.5 L 122 224.5 L 122 226.5 L 121 229.5 L 122 231.5 L 121 234.5 L 121 236.5 L 120 242.5 L 121 244.5 L 117 262.5 L 117 264.5 L 115 272.5 L 115 274.5 L 114 276.5 L 115 278.5 L 113 281.5 L 113 283.5 L 111 291.5 L 111 293.5 L 110 296.5 L 111 298.5 L 109 301.5 L 110 304.5 L 108 310.5 L 108 312.5 L 108 318.5 L 106 325.5 L 107 327.5 L 105 334.5 L 105 336.5 L 104 340.5 L 104 342.5 L 103 350.5 L 103 352.5 L 104 354.5 L 99 362.5 L 98 368.5 L 99 370.5 L 98 372.5 L 99 379 Q 102 377.8 101 381.5 L 102 386.5 L 106 392.5 Q 104 395.5 98.5 395 L 94.5 395 Q 89 393.5 87.5 396 L 83.5 393 L 82.5 395 L 74.5 389 L 72.5 392 L 70.5 389 L 73 390 L 74 387.5 L 68.5 387 L 67 387.5 L 66.5 384 L 65.5 387 L 64 384.5 L 65 382.5 L 63.5 381 L 61 381.5 L 60.5 383 L 60 381.5 L 60 379.5 Q 60.8 377.3 58.5 378 L 57 378.5 L 58 376.5 L 57.5 375 L 59 374.5 L 56.5 370 L 56 371.5 L 57 373.5 L 56 373.5 L 55.5 372 L 54 372.5 L 54 370.5 L 55 367.5 L 53 366.5 L 55 366 Q 56.1 363.3 53.5 364 L 52 364.5 L 52.5 362 L 56 361.5 L 54 361 Q 55.1 358.3 52.5 359 L 52 356.5 L 53 354.5 L 52 352.5 L 53 351.5 L 51.5 349 L 54 350.5 L 52 345.5 L 54 343.5 Q 50 341.5 54 339.5 L 54 337 Q 56.7 338.1 56 335.5 L 54.5 334 L 52 335.5 Q 55.5 335 55 330.5 L 54 330.5 L 53.5 332 L 52 327.5 Q 55.5 326 53 324.5 L 54 321.5 Q 50.5 320 53 318.5 L 53 315 Q 55.7 316.1 55 313.5 L 53 313.5 Q 51.5 309.1 54.5 310 L 54.5 308 L 56 307.5 Q 54.5 304.5 53 307.5 L 52.5 309 L 52 307.5 L 54 305.5 L 52.5 303 Q 55.5 303.9 54 299.5 L 53 297.5 L 53.5 294 L 52 293.5 L 54 293 L 56 286.5 L 52 285.5 L 55 280.5 L 53 279.5 L 54 277 Q 56.7 278.1 56 275.5 L 53 274.5 L 57 272.5 L 54 271.5 L 55 270.5 L 53.5 268 L 55 267.5 L 53.5 265 L 55 265.5 L 56 263.5 L 54 263 L 55 260.5 L 54 257.5 L 53 253.5 L 57 252.5 Q 55.8 249.8 54.5 252 L 53 251.5 L 56 249.5 L 55 244 L 53 243.5 L 55.5 242 L 57 242.5 L 54.5 239 L 53 238.5 L 56 237.5 L 54 233.5 L 55 232.5 Q 55.8 230.3 53.5 231 L 52 231.5 L 53.5 229 L 56 227.5 L 57 224.5 L 55.5 224 Q 54.3 226.3 53 223.5 L 55 219.5 L 54 213 Q 57.8 214.5 57 211.5 L 55.5 212 Q 52.9 212.8 54 209.5 L 55 206.5 L 54 204.5 L 56 204.5 L 54 201.5 L 56 198.5 L 54 198.5 Q 53.3 196.3 55.5 197 L 57 194 L 55 193.5 L 55 191.5 L 54 186 L 52 185.5 L 52 178.5 L 51 176.5 L 53 172.5 L 52 169.5 L 52 167.5 L 53 163.5 L 52 160.5 L 52 158.5 L 53 151.5 L 54.5 150 Q 57.5 150.9 56 146.5 L 57 144 L 55 143.5 L 57 143 L 59 139.5 L 57.5 139 Q 55.7 141.8 54 137.5 L 56 134.5 L 54.5 130 L 56 129.5 L 55 127.5 L 55.5 126 L 54 125.5 L 56 121.5 L 55 119.5 L 56.5 118 L 59 119.5 L 57.5 117 L 55 115.5 L 57 115 L 58 112.5 L 57.5 111 L 59 110.5 L 58.5 109 L 61 110.5 L 62 108.5 L 59 107.5 L 63.5 99 L 63 100.5 L 63.5 102 L 66 101 L 65 96.5 L 67.5 94 L 70 95.5 L 69 93.5 L 71 92.5 Q 68.8 91.3 71.5 90 Q 73.8 90.8 73 88.5 L 71 88.5 L 74 86.5 L 73.5 88 L 76 87.5 Q 73.8 86.3 76.5 85 L 78 85.5 L 77.5 87 L 80 85.5 L 79 83 L 81.5 84 L 82 82.5 L 81 80.5 L 84 80.5 L 83 82.5 L 85 81.5 L 86 78.5 L 85.5 77 L 87.5 78 L 88.5 75 L 89 77 L 92 75.5 L 91.5 74 Q 93 76.5 94.5 73 L 96 73.5 L 95.5 75 Q 98.1 75.8 97 72.5 L 98.5 69 L 100 69.5 Q 98.9 66.2 101.5 67 L 103.5 68 L 105 67.5 L 105.5 69 Q 108 67.8 107 64 L 110 63.5 L 108 63 L 108.5 61 L 110 61.5 Q 109.2 58.9 112.5 60 L 115.5 57 L 123 54 L 123.5 52 L 124.5 54 Q 126.8 49.7 129 51.5 Q 127.5 47.1 130.5 48 Q 131.8 50.3 133 47.5 L 134.5 45 Q 137.5 45.7 136 42 L 138.5 42 L 140 42.5 Q 139.3 40.3 141.5 41 L 142.5 38 L 145 36.5 L 144.5 35 Q 146.8 35.8 146 33.5 L 148.5 33 L 154 31 L 155.5 27 L 156 29.5 L 156.5 31 L 157.5 25 L 159.5 26 L 159.5 24 L 162.5 26 L 162 24.5 L 161 21.5 L 162 21.5 Q 161.3 23.8 163.5 23 L 164 20.5 L 164.5 19 L 165.5 22 L 166 18 L 169 17.5 Q 166.8 16.3 169.5 15 L 169.5 17 L 172 15.5 Q 171.3 13.3 173.5 14 L 175 14.5 L 176.5 11 L 178.5 12 L 181 11 L 182 8.5 L 182 6.5 L 183.5 4 L 185.5 5 L 186.5 3 L 188.5 4 L 190 1.5 L 186 1.5 L 187.5 0 Z M 162 27 L 162 29 L 164 28 L 162 27 Z M 155 33 L 155 35 L 157 34 L 155 33 Z M 146 35 L 147 38 L 148 36 L 150 37 Q 151 33 146 35 Z M 135 46 L 134 48 L 137 48 L 135 46 Z M 127 53 L 126 56 L 127 56 L 127 53 Z M 123 55 L 121 58 Q 120 60 123 59 L 123 55 Z M 116 58 L 117 60 Q 118 57 116 58 Z M 111 62 L 111 64 Q 110 66 113 65 L 112 64 Q 113 61 111 62 Z M 100 70 L 100 72 L 102 71 L 100 70 Z M 74 96 L 73 98 L 75 97 L 74 96 Z M 69 97 L 68 99 L 70 98 L 69 97 Z M 63 103 L 61 107 L 64 107 L 64 105 L 63 103 Z M 62 116 L 62 119 L 60 120 L 63 120 L 62 116 Z M 341 116 L 341 118 L 343 119 Q 344 115 341 116 Z M 57 119 Q 55 122 58 121 L 57 119 Z M 333 119 L 330 122 L 331 124 L 333 121 L 333 119 Z M 60 120 L 59 123 L 60 123 L 60 120 Z M 327 122 L 328 125 L 329 123 L 327 122 Z M 323 125 L 321 127 L 323 127 L 324 128 L 323 125 Z M 319 127 Q 319 131 321 128 L 319 127 Z M 312 128 L 312 131 L 314 130 L 312 128 Z M 317 129 L 316 132 L 317 132 L 317 129 Z M 306 133 L 306 134 L 308 134 L 306 133 Z M 349 143 L 346 144 L 348 147 L 349 145 L 349 143 Z M 261 151 L 258 153 L 261 153 L 261 151 Z M 263 152 L 263 153 L 265 153 L 263 152 Z M 297 153 L 297 155 L 299 154 L 297 153 Z M 259 154 L 259 155 L 261 155 L 259 154 Z M 307 156 L 306 159 L 307 159 L 307 156 Z M 307 162 L 308 166 L 309 164 L 307 162 Z M 290 169 L 288 171 L 290 172 L 290 169 Z M 281 171 L 280 173 L 282 174 L 281 171 Z M 288 171 L 286 173 L 288 173 L 288 171 Z M 264 206 L 263 209 L 265 209 L 264 206 Z M 57 228 L 55 231 L 57 231 L 57 228 Z M 261 237 L 260 240 L 261 240 L 261 237 Z M 259 243 L 257 245 L 259 245 L 259 243 Z M 61 255 L 61 258 L 62 258 Q 63 254 61 255 Z M 255 258 L 255 260 L 257 259 L 255 258 Z M 57 262 L 57 263 L 59 263 L 57 262 Z M 211 283 L 210 286 L 211 286 L 211 283 Z M 57 290 Q 55 293 58 292 L 57 290 Z M 202 305 L 200 307 L 202 307 L 202 305 Z M 58 307 L 57 310 L 58 310 L 58 307 Z M 214 313 L 213 316 L 214 316 L 214 313 Z M 238 317 L 238 320 Q 241 319 238 317 Z M 213 323 L 211 325 L 214 325 L 213 323 Z M 54 327 L 53 330 L 54 330 L 54 327 Z M 197 329 L 197 330 L 199 330 L 197 329 Z M 234 331 L 233 334 L 234 334 L 234 331 Z M 163 332 L 159 335 L 156 335 L 155 338 L 156 341 L 154 342 L 156 342 L 157 343 Q 156 340 159 341 L 160 342 L 159 340 L 161 340 L 163 339 L 164 335 L 163 332 Z M 214 337 L 214 339 L 216 338 L 214 337 Z M 156 345 L 157 347 Q 158 344 156 345 Z M 232 346 L 230 348 L 232 348 L 232 346 Z M 203 349 L 203 351 L 205 350 L 203 349 Z M 55 350 L 55 352 L 57 351 L 55 350 Z M 195 350 L 193 356 L 196 355 Q 197 351 195 350 Z M 203 352 Q 202 355 205 354 Q 206 351 203 352 Z M 56 353 L 55 356 L 56 356 L 56 353 Z M 190 354 Q 188 357 191 356 L 190 354 Z M 230 360 L 230 362 L 232 361 L 230 360 Z M 60 371 Q 57 375 61 374 L 60 371 Z M 228 373 L 226 376 L 228 375 L 228 373 Z M 62 374 L 64 377 L 64 376 L 62 374 Z M 216 383 L 215 386 L 216 386 L 216 383 Z M 71 384 L 69 386 L 71 386 L 71 384 Z M 188 384 L 188 386 L 190 385 L 188 384 Z M 153 388 L 154 390 Q 155 387 153 388 Z M 194 388 L 192 390 L 194 390 L 194 388 Z M 169 389 Q 167 392 170 391 L 169 389 Z "></path><path fill="rgb(0,236,90)" stroke="rgb(0,236,90)" stroke-width="1" opacity="1" d="M 178 7 Q 181.3 5.9 180 10 Q 176.7 11.1 178 7 Z "></path><path fill="rgb(0,236,90)" stroke="rgb(0,236,90)" stroke-width="1" opacity="1" d="M 399.5 44 L 400 55.5 L 399 57.5 L 400 58.5 L 400 95.5 L 396.5 100 L 395 99.5 L 393.5 102 L 391 102.5 L 395 104 L 394.5 106 L 392.5 105 L 392 107.5 L 394 109.5 L 393 110.5 L 392.5 112 L 390 111 L 390 113 Q 392.7 111.9 392 114.5 L 392 116.5 L 391 119.5 L 392 120.5 L 390 124.5 L 389 127.5 L 389.5 129 L 385 129.5 L 387 130 L 388 132.5 L 385.5 133 Q 384.3 130.8 383 133.5 Q 385.3 134.8 382.5 136 L 380.5 137 L 380.5 135 L 377.5 137 L 377.5 139 L 375.5 139 Q 373.3 139.8 374 137.5 L 374.5 136 L 371 138.5 L 371.5 140 L 369.5 139 L 369 142.5 L 369.5 144 L 359.5 145 L 357.5 145 L 350 146 L 348.5 149 L 346.5 150 L 345.5 147 L 344.5 151 L 342.5 148 L 341 150.5 L 341.5 152 Q 339.3 152.8 340 150.5 L 339 150.5 L 336.5 154 L 335.5 153 L 332.5 156 L 329.5 155 L 328.5 157 L 326 155.5 L 327 157.5 Q 325.3 155.9 323.5 159 L 319.5 161 L 319 159.5 L 319.5 158 Q 317.3 157.3 318 159.5 L 316 159.5 L 316.5 162 L 318 161.5 L 315.5 163 L 314 162.5 Q 314.7 165.1 312 164 L 311.5 162 L 307.5 167 L 305.5 166 L 301.5 168 L 300 167.5 L 301 165.5 L 298.5 167 L 297.5 166 L 296 166.5 L 298 169.5 L 295.5 168 L 294 168.5 L 295 171.5 L 292.5 173 L 290 172 L 289.5 174 Q 288.3 171.8 287 174.5 L 286.5 176 L 283.5 174 L 281.5 177 L 279 175.5 L 277.5 179 Q 274.5 178.1 276 182.5 L 273 187 Q 270.3 185.9 271 188.5 L 269 192.5 Q 272.5 194 270 195.5 L 269.5 197 L 268 196.5 L 267 200.5 L 269 201 L 269 203 L 264 203 L 264 204.5 L 265.5 204 L 268 204.5 L 265 206.5 L 268 207.5 L 266.5 212 L 265.5 210 L 264 213 Q 268.1 211.7 267 215 Q 264.3 213.9 265 216.5 L 264.5 220 L 267 221.5 L 265 221.5 L 264 223.5 L 266 224.5 L 264 227.5 L 264.5 229 Q 262.3 228.3 263 230.5 L 261 235.5 L 264 239.5 L 262.5 243 L 261 242.5 L 263 245.5 L 261 248.5 L 261.5 250 L 259 250.5 L 261 251.5 L 257 253.5 L 260 255.5 L 258 256.5 L 260 257.5 L 259 259.5 L 259 261.5 Q 259.8 264.1 256.5 263 L 256.5 264 L 258 264.5 L 255.5 268 L 254.5 266 L 254 269 L 256 269.5 L 254 270 L 253 274 L 255 274.5 L 253 278.5 L 253.5 280 Q 251.3 279.3 252 281.5 L 252.5 283 Q 250.3 282.3 251 284.5 L 249 288.5 L 249.5 290 L 247 291.5 L 249 292.5 L 247 293.5 L 248 296 Q 245 294.8 246 298.5 L 245 300.5 L 246 302.5 L 244 302.5 L 245 306.5 L 243 309.5 L 243 311.5 Q 243.8 313.8 241.5 313 L 242 314.5 Q 243.3 320.6 240.5 320 L 240.5 321 L 242 321.5 Q 238.9 323.3 240.5 325 L 238 326.5 L 239.5 329 L 237 328 L 239 331.5 L 237.5 332 L 236 331.5 L 236 333 Q 239.7 331.5 239 334.5 L 236 338.5 L 237 342 Q 234.3 340.9 235 343.5 L 235.5 347 Q 233.3 346.3 234 348.5 L 235 350.5 L 232 352.5 L 234 353 L 233 355.5 L 234 358.5 L 234 360.5 L 233 362.5 Q 235.5 364 232 365.5 L 231 368.5 Q 233.7 370.3 229.5 372 L 228 371.5 L 229 374.5 L 226.5 378 L 225.5 376 L 225 378.5 Q 227.8 380.3 223.5 382 L 222 382.5 Q 224.2 383.8 221.5 385 L 217 384 L 213.5 390 L 212 390.5 L 212.5 392 L 211.5 389 L 207.5 387 L 206.5 389 Q 209.1 388.2 208 391.5 L 206.5 391 Q 204.3 390.3 205 392.5 L 203.5 392 L 201.5 393 L 199.5 393 L 195.5 391 L 193 392 L 192.5 394 L 189 392 L 188.5 394 L 188 391 L 184.5 393 L 180 392 L 179.5 390 L 176.5 393 L 174 391.5 L 172.5 394 L 171 393.5 L 171.5 392 L 166.5 391 L 164.5 395 L 164 393 L 158 394 Q 156.9 391.3 159.5 392 L 159.5 391 L 155.5 390 L 151 393.5 L 152 391.5 L 150 391 L 149.5 393 L 147 392.5 L 147.5 391 L 141.5 392 L 141.5 391 L 143 390.5 Q 140.5 389 144 387.5 L 145 385.5 L 145 383.5 L 146 380.5 L 145 378.5 Q 149.7 373.7 148 362.5 L 147 358.5 L 148 356.5 L 147 354.5 L 148 352.5 L 148 350.5 L 149 343.5 L 149 341.5 L 150 337.5 L 150 335.5 L 151 328.5 L 151 326.5 L 153 314.5 L 153 312.5 L 154 309.5 L 153 307.5 L 158 286.5 L 158 284.5 L 160 275.5 L 160 273.5 L 161 271.5 L 161 269.5 L 162 265.5 L 162 263.5 L 163 261.5 L 162 258.5 L 164 252.5 L 164 250.5 L 165 246.5 L 164 244.5 L 166 237.5 L 165 235.5 L 166 233.5 L 166 231.5 L 167 227.5 L 166 225.5 L 167 223.5 L 167 221.5 L 167 206.5 L 168 204.5 L 167 202.5 L 169 195.5 L 168 193.5 L 169 191.5 L 169 189.5 Q 169 183.5 172 180.5 L 172 178.5 L 175 164.5 L 177 161.5 L 177 159.5 L 179 153 L 181.5 153 L 196.5 144 L 199 144 Q 197.8 141 201.5 142 Q 202.6 139.3 206 140 Q 204.8 137 208.5 138 L 217 133 L 217 131 Q 222.3 132.3 221.5 129 L 224.5 129 L 253.5 113 L 260 111 Q 258.8 108 262.5 109 Q 263.6 106.3 267 107 Q 265.9 104.3 268.5 105 L 291.5 92 L 294 92 L 294 90 L 298 90 L 298 88 L 301 88 Q 299.8 85 303.5 86 L 309 83 L 309 81 Q 312.8 82.5 312 79.5 L 313 79.5 L 314.5 82 L 317 81.5 L 320 77.5 L 318 76.5 L 324 74 Q 322.8 71 326.5 72 Q 335.9 77.1 352.5 75 Q 368.3 71.8 376 60.5 L 379.5 56 L 387 51 Q 385.9 48.3 388.5 49 L 399.5 44 Z "></path><path fill="rgb(0,236,90)" stroke="rgb(0,236,90)" stroke-width="1" opacity="1" d="M 104.5 64 L 105 66 L 103 65.5 L 104.5 64 Z "></path><path fill="rgb(0,236,90)" stroke="rgb(0,236,90)" stroke-width="1" opacity="1" d="M 264.5 230 L 265 233 L 263 232.5 L 264.5 230 Z "></path><path fill="rgb(0,236,90)" stroke="rgb(0,236,90)" stroke-width="1" opacity="1" d="M 263.5 234 L 264.5 236 L 263.5 234 Z "></path><path fill="rgb(0,236,90)" stroke="rgb(0,236,90)" stroke-width="1" opacity="1" d="M 218 385 L 220 385.5 L 218 386.5 L 218 385 Z "></path><path fill="rgb(0,236,90)" stroke="rgb(0,236,90)" stroke-width="1" opacity="1" d="M 155.5 392 L 154.5 394 L 155.5 392 Z "></path><path fill="rgb(0,130,235)" stroke="rgb(0,130,235)" stroke-width="1" opacity="1" d="M 372.5 0 L 400 0 L 400 42 Q 389.7 44.5 382.5 51 L 380 51 L 381 48.5 L 381 36.5 L 374 21.5 L 373 14.5 L 366.5 6 L 364 4.5 Q 363.2 1.9 366.5 3 L 372.5 0 Z "></path><path fill="rgb(0,130,235)" stroke="rgb(0,130,235)" stroke-width="1" opacity="1" d="M 313.5 23 L 314 24.5 L 311 30 Q 314 31 313 28 L 316.5 28 L 317 30.5 L 316 33.5 L 318 40.5 L 323 49 Q 328.1 48.3 329.5 53 L 331.5 53 L 338.5 54 L 340.5 54 L 348 53 L 349 55.5 L 336.5 63 L 334 63 Q 335.1 65.7 332.5 65 Q 330.6 68.6 326 68 Q 327.3 71 323.5 70 Q 322.4 72.8 319 72 Q 320.3 75 316.5 74 L 315 77 L 311 77 L 311 79 L 308 79 Q 309.3 82 305.5 81 L 297 86 L 297 88 L 293 88 Q 294.3 91 290.5 90 L 284.5 94 L 282 94 Q 283.3 97 279.5 96 Q 272.3 102.5 262 105 Q 263.3 108 259.5 107 Q 258.4 109.8 255 109 Q 256.3 112 252.5 111 L 243.5 117 L 223.5 127 L 221 127 Q 222.3 130 218.5 129 Q 217.3 132 213 131 Q 214.3 134 210.5 133 L 205 136 L 205 138 Q 200.9 136.7 202 140 L 198 140 Q 199.3 143 195.5 142 L 179.5 151 L 176 154.5 L 171 171.5 Q 173.5 173 170 174.5 L 170 178.5 L 166 190.5 L 166 192.5 Q 167.5 198 165 199.5 L 166 201.5 L 165 202.5 Q 166.7 210.7 164 214.5 L 165 216.5 L 164 218.5 L 165 220.5 L 164 222.5 L 164 224.5 L 163 228.5 L 164 230.5 L 163 232.5 L 163 234.5 Q 164.5 240 162 241.5 L 163 243.5 L 161 247.5 L 162 249.5 L 161 251.5 L 161 253.5 L 160 256.5 L 161 258.5 L 157 275.5 L 157 277.5 L 156 279.5 L 157 281.5 Q 154 284.5 154 290.5 L 154 292.5 L 153 294.5 L 153 296.5 L 152 300.5 L 152 302.5 L 151 304.5 L 152 306.5 L 150 313.5 L 150 315.5 L 149 319.5 L 149 321.5 Q 150.5 327 148 328.5 L 148 330.5 L 147 333.5 L 148 335.5 L 146 343.5 L 146 345.5 L 145 351.5 L 146 354.5 L 145 357.5 L 145 359.5 Q 146.3 365.8 142.5 367 L 140.5 363 L 139 363.5 L 137.5 361 Q 133 356.5 124.5 356 L 122.5 357 L 119.5 356 L 111.5 359 L 106.5 364 L 105 359.5 L 105 357.5 L 106 345.5 L 107 344.5 L 106 342.5 L 108 339.5 L 107 337.5 L 108 334.5 L 108 332.5 L 109 330.5 L 108 328.5 L 110 324.5 L 109 322.5 L 110 320.5 L 110 318.5 L 111 315.5 L 110 313.5 L 112 306.5 L 111 304.5 L 113 301.5 L 113 299.5 L 114 288.5 L 118 272.5 L 118 270.5 L 120 262.5 L 120 260.5 L 121 258.5 L 121 256.5 L 122 252.5 L 122 250.5 L 123 243.5 L 123 241.5 Q 121.5 236 124 234.5 L 124 232.5 L 125 228.5 L 124 226.5 L 125 224.5 L 125 222.5 Q 123.3 214.3 126 210.5 L 125 208.5 L 126 205.5 L 126 203.5 Q 124.7 198.8 127 197.5 L 126 193.5 L 126 191.5 L 128 187.5 L 127 184.5 Q 129.6 181.6 129 175.5 L 131 172.5 L 131 170.5 L 132 167.5 Q 129.5 166 133 164.5 Q 132.2 159.2 135 157.5 L 135 155.5 L 136 152.5 L 136 150.5 L 137 148.5 L 136 146.5 L 138 143.5 Q 135.5 142 139 140.5 L 140.5 137 L 141 141 L 143 141 L 143 145 L 144.5 145 L 146 148 L 151.5 152 Q 153 149.5 154.5 153 L 156.5 154 L 158.5 153 L 160.5 154 L 162.5 153 L 165.5 154 L 177 149 L 177 147 Q 179.7 148.1 179 145.5 L 183 140.5 L 184 127.5 L 182.5 122 L 181 122.5 L 181 119 Q 178.3 120.1 179 117.5 L 178 115 L 171 111.5 L 182.5 104 L 185 104 L 185 102 L 188 102 Q 186.8 99 190.5 100 Q 206.6 88.9 226 82 L 226 80 L 230 80 L 230 78 L 234 78 Q 232.9 75.3 235.5 76 L 246.5 69 L 253 67 Q 251.8 64 255.5 65 Q 256.6 62.3 260 63 Q 258.8 60 262.5 61 L 280 52 L 280 50 L 283 50 Q 281.9 47.3 284.5 48 L 287 47 L 287 45 Q 290.8 46.5 290 43.5 L 296 38.5 Q 297.2 30.7 302.5 27 L 313.5 23 Z "></path><path fill="rgb(0,236,90)" stroke="rgb(0,236,90)" stroke-width="1" opacity="0.9803921568627451" d="M 181.5 0 L 186 0.5 L 181 3.5 L 179.5 6 Q 176.9 5.3 178 8 L 175.5 8 L 171 11 Q 172.7 15.1 168.5 14 L 162 19 L 160 23 L 157 23 Q 158.1 25.7 155.5 25 L 150 29.5 Q 150.8 31.8 148.5 31 L 146 32 Q 147.1 34.7 144.5 34 L 133.5 43 L 132 42.5 L 129.5 46 Q 126.9 45.3 128 48 L 124 48 L 124 49.5 L 121 51 Q 122.3 54 118.5 53 L 115.5 57 L 110 58 Q 111.1 60.7 108.5 60 L 107 63 L 104 63 Q 105.1 65.7 102.5 65 L 99 66 Q 100.1 68.7 97.5 68 L 85 76 L 85 78 L 81 78 Q 82.1 80.7 79.5 80 L 77 81 L 75.5 84 Q 72.2 82.9 73 85.5 L 67 89 L 64.5 93 Q 62.3 92.3 63 94.5 L 62.5 97 Q 59.9 96.2 61 99.5 L 58 101.5 L 60 102.5 L 58 103 L 57 106.5 L 57.5 108 L 56 108.5 L 56.5 110 Q 53.5 109.1 55 113.5 L 53 115.5 L 52 120.5 L 53 124.5 L 52 126.5 L 54 132.5 L 53 135.5 L 55 144.5 L 51 158.5 L 52 160.5 L 51 162.5 L 52 164.5 L 51 167.5 L 51 171.5 L 51 181.5 L 54 191.5 L 53 193.5 L 54 195.5 L 52 199.5 L 53 201.5 L 53 205.5 L 52 207.5 L 53 210.5 L 52 212.5 L 52 214.5 L 53 218.5 L 52 221.5 L 53 223.5 L 52.5 226 L 51 226.5 L 53 227.5 Q 50.3 229.3 52 235.5 L 52 237.5 Q 50.9 240.8 53.5 240 L 53 241.5 L 52 244.5 L 53 246.5 Q 50.5 248 52 253.5 L 53 255.5 L 52 259.5 L 52 261.5 Q 50.8 266.2 53 267.5 L 51 272.5 L 53 273.5 L 51 276.5 L 52 278.5 L 51 281.5 L 52 283.5 L 51 285.5 L 51 287.5 Q 49.9 290.8 52.5 290 L 52 291.5 L 51 295.5 L 51 297.5 L 52 300.5 L 51 303.5 L 52 305.5 Q 49.5 307 51 312.5 L 52 315.5 L 52 317.5 L 51 322.5 L 51 324.5 Q 49.3 330.8 52 332.5 L 51 335.5 L 51 337.5 L 50 345.5 L 50 347.5 L 51 350.5 L 49 354.5 L 50 357.5 L 50 359.5 Q 48.8 364.2 51 365.5 L 50 368.5 L 54 375.5 L 53.5 377 Q 56.1 376.3 55 379 L 57 379 L 57 383 L 58.5 383 L 61.5 387 L 62.5 385 L 67.5 391 L 68.5 390 L 71.5 393 L 75 392 Q 73.9 394.7 76.5 394 L 78.5 394 L 92.5 397 L 101.5 395 L 110.5 397 Q 112.3 394.2 114 398.5 L 111.5 399 L 107.5 398 L 103.5 399 L 101.5 399 L 98.5 398 L 96.5 399 L 93.5 398 L 91.5 398 L 84.5 397 L 82.5 398 L 75.5 396 L 72.5 397 L 65.5 394 L 63.5 394 L 60.5 392 Q 58.7 394.8 57 390.5 Q 57.8 388.3 55.5 389 L 54 386 L 51 384.5 L 46 369.5 L 47 365.5 L 46 363.5 L 47 361.5 L 47 359.5 L 48 355.5 L 47 353.5 L 48 351.5 L 48 349.5 Q 46.3 341.3 49 337.5 L 48 334.5 L 49 332.5 L 49 330.5 L 48 327.5 L 49 324.5 L 48 321.5 L 49 319.5 L 48 317.5 L 49 315.5 L 48 313.5 L 49 309.5 L 49 307.5 L 48 303.5 L 49 301.5 L 48 299.5 L 49 296.5 L 48 294.5 L 49 292.5 L 49 290.5 L 49 279.5 L 50 278.5 L 49 275.5 L 50 273.5 L 49 270.5 L 49 268.5 L 50 264.5 L 50 262.5 L 50 251.5 L 49 250.5 L 50 246.5 L 49 244.5 L 50 242.5 L 49 240.5 L 50 237.5 L 50 235.5 L 49 231.5 L 50 228.5 L 49 226.5 L 50 224.5 L 49 221.5 L 50 219.5 L 49 217.5 L 50 214.5 L 50 212.5 Q 48.5 207 51 205.5 L 50 202.5 L 50 200.5 L 51 196.5 L 50 194.5 L 51 191.5 L 51 189.5 L 50 185.5 L 50 183.5 Q 50.7 180.9 48 182 L 48 179 L 46 179 L 46 175.5 L 44 169.5 L 45 166.5 L 45 164.5 L 46 162.5 L 46 160.5 L 52 150.5 L 51 148.5 L 52 145.5 L 51 143.5 L 52 141.5 L 51 137.5 L 51 135.5 L 50 131.5 L 51 128.5 L 50 125.5 L 50 123.5 L 49 117.5 L 50 114.5 L 50 112.5 Q 48.7 106.8 52 105.5 Q 49.5 104 53 102.5 L 57.5 95 L 60.5 93 L 63.5 89 L 66.5 87 L 69 86 L 70.5 83 Q 73.1 83.7 72 81 L 74.5 81 Q 75.7 77.3 80 78 L 81.5 75 L 84 75 Q 82.9 72.3 85.5 73 L 91 70 L 91 68 L 94 68 Q 92.9 65.3 95.5 66 L 99.5 63 L 102 63 Q 100.8 60 104.5 61 Q 109.3 54.5 117 53 Q 115.9 50.3 118.5 51 L 134.5 38 L 138 37 Q 136.9 34.3 139.5 35 L 142 34 L 143.5 31 L 152 26 Q 150.9 23.3 153.5 24 L 159 20 Q 157.9 17.3 160.5 18 L 163 17 L 164.5 14 L 167.5 12 L 170 11 Q 168.9 8.3 171.5 9 L 173 6 L 177 5 Q 175.9 2.3 178.5 3 L 181.5 0 Z "></path><path fill="rgb(0,236,90)" stroke="rgb(0,236,90)" stroke-width="1" opacity="0.9803921568627451" d="M 316.5 78 L 317 80 L 314 79.5 L 316.5 78 Z "></path><path fill="rgb(0,236,90)" stroke="rgb(0,236,90)" stroke-width="1" opacity="0.9803921568627451" d="M 399.5 98 L 400 99.5 L 398 101.5 L 397 113.5 L 392 134.5 L 384.5 145 Q 379.5 149 370.5 149 L 363.5 147 L 354.5 151 L 351 151 Q 352.3 154.3 347.5 153 Q 345.3 156.5 340 156 L 340 158 L 335.5 158 L 335 160 L 332.5 160 L 327.5 163 L 317.5 166 L 315.5 168 L 312.5 168 L 299.5 174 L 296 174 Q 297.3 177.3 292.5 176 Q 289.7 179.7 284 179 Q 285.3 182.3 280.5 181 Q 279.4 183.8 276 183 L 274 193.5 L 275 195.5 L 273 198.5 L 273 200.5 L 272 203.5 L 273 205.5 L 272 207.5 L 272 209.5 L 271 220.5 L 269 226.5 L 270 229.5 L 269 231.5 L 269 233.5 L 267 241.5 L 267 243.5 L 266 246.5 L 266 248.5 L 265 250.5 L 266 252.5 L 264 256.5 L 264 258.5 L 263 260.5 L 263 262.5 L 258 276.5 L 259 277.5 L 256 280.5 L 257 281.5 L 254 286.5 L 254 289.5 L 249 302.5 L 249 304.5 L 248 306.5 L 248 308.5 L 246 316.5 L 247 318.5 L 245 321.5 L 245 323.5 L 244 326.5 L 244 328.5 L 241 343.5 L 238 351.5 L 238 353.5 L 237 355.5 L 238 357.5 L 236 361.5 L 237 363.5 L 236 365.5 L 237 369.5 L 237 371.5 L 236 374.5 L 236 376.5 L 235 381.5 L 232 387 Q 229.3 385.9 230 388.5 L 227 390 Q 228.3 393 224.5 392 L 222.5 394 L 207.5 397 L 205.5 397 L 200.5 398 L 197.5 397 L 194.5 398 L 192.5 398 L 188.5 397 Q 186.7 399.7 180.5 398 L 178.5 398 L 175.5 397 L 172.5 398 L 170.5 397 L 168.5 397 L 165.5 398 L 156.5 396 L 146.5 398 L 143.5 397 L 141.5 398 L 138.5 397 L 136 398 L 136 396 Q 138.7 397.1 138 394.5 L 139.5 395 L 143.5 394 L 145.5 395 L 149.5 394 L 151.5 394 L 156.5 395 L 158.5 395 L 161.5 394 Q 163 396.5 168.5 395 L 170.5 395 L 174.5 394 L 178.5 396 Q 180 393.5 185.5 395 L 187.5 396 L 190.5 395 L 192.5 395 L 194.5 396 L 197.5 394 L 200.5 395 L 202.5 394 L 204.5 395 L 214 393 L 214.5 390 Q 216 392.5 217.5 389 L 219.5 390 L 221.5 387 L 225 385.5 Q 223.9 382.2 226.5 383 L 231 373 L 233 372.5 L 233 370.5 L 236 357.5 L 234 356.5 L 236 352.5 L 235 350.5 L 237 346.5 L 238 343.5 Q 235.5 342 239 340.5 L 240 338.5 L 239 334 Q 242.7 335.4 241 329.5 L 242 326.5 L 241 323.5 L 243 321.5 Q 242.2 316.2 245 314.5 L 245 312.5 L 246 309.5 L 246 307.5 L 248 297.5 L 250 294.5 L 250 292.5 L 254 283.5 L 254 281.5 L 255 279.5 Q 252.5 278 256 276.5 L 257 273.5 L 257 271.5 L 260 262.5 L 259.5 261 L 262 259.5 L 261 256.5 L 263 253.5 L 263 251.5 L 264 247.5 Q 261.5 246 265 244.5 L 264 241.5 L 266 235.5 L 266 233.5 L 269 219.5 L 268 217.5 L 270 209.5 Q 267.5 208 271 206.5 L 272 195.5 L 271 193.5 L 273 190.5 L 273 188.5 Q 273.9 181.3 279.5 179 L 284 179 L 284 177 Q 287.8 178.5 287 175.5 Q 288.8 177.1 290.5 174 L 299 172 Q 297.7 168.7 302.5 170 L 309.5 166 Q 311 168.5 312.5 165 Q 315.8 166.1 315 163.5 L 319 163.5 Q 318.1 160.5 322.5 162 L 328 160 L 328.5 158 L 330.5 159 L 336.5 155 Q 337.8 157.2 339 154.5 L 339.5 153 L 343 154 Q 341.7 150.7 346.5 152 Q 348.8 147.9 355 149 Q 353.8 146 357.5 147 Q 359 144.5 364.5 146 L 370 143.5 L 369.5 142 L 374.5 141 L 377 142 Q 375.9 139.3 378.5 140 L 379.5 141 L 382.5 138 L 390 131.5 L 392 125.5 L 392 123.5 L 392 119.5 L 395 110.5 L 394 108.5 L 396 103.5 L 395 102.5 L 399.5 98 Z "></path><path fill="rgb(0,236,90)" stroke="rgb(0,236,90)" stroke-width="1" opacity="0.9803921568627451" d="M 158 335 L 161.5 336 L 163 335.5 L 162 338 Q 157.9 336.7 159 340 L 155.5 340 L 156 338.5 Q 155.3 335.9 158 337 L 158 335 Z "></path><path fill="rgb(0,197,228)" stroke="rgb(0,197,228)" stroke-width="1" opacity="0.996078431372549" d="M 346.5 3 L 360.5 3 L 361 4.5 L 368 10.5 L 380 35.5 L 380 49.5 L 379 53.5 L 379.5 55 L 376 57.5 L 369.5 66 Q 362.9 71.9 352.5 74 L 335.5 74 L 326 70.5 L 331 68 L 331 66 L 334 66 Q 332.8 63 336.5 64 Q 337.8 60.3 342 61 L 342 59 L 345 59 Q 343.8 56 347.5 57 Q 350.3 55.8 348 54.5 Q 349.4 49.9 343.5 52 L 337.5 54 L 334.5 52 L 332.5 52 L 330.5 51 L 329.5 52 L 326.5 49 L 324 47.5 Q 324.7 44.5 321 46 L 321 43.5 L 319 41.5 L 317 31.5 L 318 29.5 L 317 27.5 L 317.5 26 L 313.5 28 L 313 26.5 L 316 22.5 L 315.5 21 L 334.5 7 L 346.5 3 Z "></path><path fill="rgb(0,197,228)" stroke="rgb(0,197,228)" stroke-width="1" opacity="0.996078431372549" d="M 294.5 29 L 290.5 34 L 294.5 29 Z "></path><path fill="rgb(0,197,228)" stroke="rgb(0,197,228)" stroke-width="1" opacity="0.996078431372549" d="M 289.5 35 L 289 36.5 L 286.5 44 L 286 42.5 L 289.5 35 Z "></path><path fill="rgb(0,197,228)" stroke="rgb(0,197,228)" stroke-width="1" opacity="0.996078431372549" d="M 285.5 45 L 284.5 47 L 285.5 45 Z "></path><path fill="rgb(0,197,228)" stroke="rgb(0,197,228)" stroke-width="1" opacity="0.996078431372549" d="M 160.5 110 L 163.5 111 L 165.5 110 L 177 115 L 178 119 Q 180.7 117.9 180 120.5 L 182 123.5 L 184 132.5 L 182 140.5 L 177 148 L 169.5 152 L 158.5 153 L 147 148 L 145.5 144 L 144 144.5 L 142 140.5 L 140 129.5 L 145 118 Q 147.7 119.1 147 116.5 Q 148.2 113.3 152 114 Q 150.7 110.7 155.5 112 L 160.5 110 Z "></path><path fill="rgb(0,197,228)" stroke="rgb(0,197,228)" stroke-width="1" opacity="0.996078431372549" d="M 151.5 318 L 152 320 L 150 319.5 L 151.5 318 Z "></path><path fill="rgb(0,197,228)" stroke="rgb(0,197,228)" stroke-width="1" opacity="0.996078431372549" d="M 124.5 356 Q 126.2 358.8 131.5 358 L 138 362.5 L 140 365.5 L 143 367 Q 142 370.8 144.5 372 L 146.5 371 L 146 372.5 L 145 374.5 L 145 376.5 L 144 380.5 L 144 382.5 L 143 384.5 L 144 386.5 L 139.5 393 L 127.5 400 L 119.5 400 L 116.5 398 L 115.5 399 L 112.5 396 L 107 393 L 103 385.5 L 101 375.5 Q 103.3 374.3 102 369.5 L 103.5 368 Q 105.8 368.8 105 366.5 L 112 360.5 Q 111.1 357.5 115.5 359 L 124.5 356 Z "></path><path fill="rgb(0,197,228)" stroke="rgb(0,197,228)" stroke-width="1" opacity="0.996078431372549" d="M 102.5 361 L 103 362.5 Q 100.3 365.8 100.5 372 L 100 365.5 L 102.5 361 Z "></path><path fill="rgb(0,197,228)" stroke="rgb(0,197,228)" stroke-width="1" opacity="0.996078431372549" d="M 146.5 367 L 147 369.5 L 146 369.5 L 146.5 367 Z "></path><path fill="rgb(0,0,0)" stroke="rgb(0,0,0)" stroke-width="1" opacity="0" d="M 0 0 L 178 0.5 L 173 4 Q 174.1 6.7 171.5 6 L 169 7 L 165.5 12 L 162 13 Q 163.1 15.7 160.5 15 L 158 16 L 156.5 19 L 153.5 21 L 151 22 Q 152.1 24.7 149.5 24 L 138 33.5 Q 138.8 36.1 135.5 35 L 134 38 L 131.5 38 L 127 41 L 125.5 44 L 123 44 Q 124.3 47 120.5 46 L 116 49 L 114.5 52 L 112 52 Q 113.1 54.7 110.5 54 L 103.5 59 L 101.5 59 L 92.5 66 L 90 66 Q 91.3 69 87.5 68 L 86 71 Q 82.3 69.5 83 72.5 L 79 74 Q 80.1 76.7 77.5 76 L 72 79 Q 73.1 81.7 70.5 81 L 68 82 Q 69.1 84.7 66.5 84 L 62 90 L 58 91 L 58 93 Q 55.3 91.9 56 94.5 L 52 100 Q 49.3 98.9 50 101.5 L 47 109.5 L 47 111.5 L 48 117.5 L 47 119.5 L 49 125.5 L 48 127.5 L 49 128.5 Q 47.5 138 50 143.5 L 49 146.5 L 50 148.5 L 42 161.5 L 42 163.5 L 41 166.5 Q 43.8 168.3 42 174.5 L 46 183 Q 49.3 181.7 48 186.5 L 49 189.5 L 48 191.5 L 49 194.5 L 48 196.5 L 49 198.5 L 48 200.5 L 48 202.5 L 49 205.5 L 47 209.5 L 48 213.5 L 48 215.5 L 47 219.5 L 48 222.5 L 48 224.5 L 47 227.5 Q 49.7 229.3 48 235.5 L 47 237.5 L 48 239.5 L 47 242.5 L 48 245.5 L 48 247.5 L 47 250.5 L 48 251.5 L 48 262.5 L 47 264.5 L 48 266.5 L 47 269.5 L 48 271.5 L 47 273.5 L 48 275.5 L 47 277.5 L 47 279.5 L 48 283.5 L 46 292.5 L 47 295.5 L 47 297.5 L 46 300.5 L 47 304.5 L 47 306.5 L 46 310.5 L 47 313.5 L 47 315.5 L 46 319.5 L 47 322.5 L 47 324.5 L 46 327.5 L 47 331.5 L 46 333.5 L 47 335.5 L 46 337.5 L 46 339.5 L 47 343.5 L 46 344.5 L 46 354.5 L 44 360.5 L 45 364.5 L 45 366.5 L 44 369.5 L 45 370.5 L 45.5 379 L 47 378.5 L 47 380.5 Q 49.1 387.9 54.5 392 L 65.5 398 L 67.5 397 L 69.5 398 L 71.5 397 L 74.5 399 L 76.5 399 L 79 399.5 L 0 400 L 0 0 Z "></path><path fill="rgb(0,0,0)" stroke="rgb(0,0,0)" stroke-width="1" opacity="0" d="M 399.5 108 L 400 400 L 207.5 400 L 207 398.5 L 208.5 399 L 214.5 398 L 216.5 398 Q 221.1 398.6 222.5 396 L 224 396.5 L 224 395 L 228 395 Q 226.8 392 230.5 393 Q 235.3 390.4 236 385 L 238 384.5 L 237 382.5 Q 240.8 379.3 239 370.5 L 238 368.5 L 239 365.5 L 239 363.5 L 238 359.5 L 240 356.5 L 240 354.5 L 241 351.5 L 241 349.5 L 244 334.5 L 246 331.5 L 246 329.5 L 247 326.5 L 247 324.5 L 250 311.5 L 250 309.5 L 251 307.5 L 251 305.5 Q 251 299.5 254 296.5 L 254 294.5 L 256 286.5 L 259 282.5 L 259 279.5 L 265 265.5 L 265 263.5 L 266 261.5 L 266 259.5 L 267 256.5 L 267 254.5 L 269 246.5 L 269 244.5 L 270 241.5 L 270 239.5 L 271 236.5 L 271 234.5 L 272 231.5 L 272 229.5 L 271 226.5 Q 273.3 225.3 272 220.5 L 274 217.5 L 273 215.5 L 275 208.5 L 274 205.5 L 277 193.5 L 277 191.5 L 277 185 L 279.5 185 Q 280.8 182 285 183 Q 283.7 179.7 288.5 181 L 296.5 176 L 300.5 176 L 312.5 170 L 317 170 Q 315.7 166.7 320.5 168 Q 322.8 163.9 329 165 Q 327.8 162 331.5 163 L 336.5 160 L 339.5 160 Q 338.5 157 343.5 158 Q 346.3 154.3 352 155 Q 350.7 151.7 355.5 153 Q 357.4 149.4 363.5 150 L 373.5 152 Q 374.7 149.8 379.5 151 L 385.5 148 L 391 142.5 L 394 136.5 L 399.5 108 Z "></path><path fill="rgb(0,0,0)" stroke="rgb(0,0,0)" stroke-width="1" opacity="0" d="M 157.5 398 L 160.5 399 L 162.5 399 L 164 399.5 L 153.5 400 L 153.5 399 L 157.5 398 Z "></path><path fill="rgb(0,0,0)" stroke="rgb(0,0,0)" stroke-width="1" opacity="0" d="M 144.5 399 L 147 399.5 L 144.5 400 L 144.5 399 Z "></path><path fill="rgb(0,0,0)" stroke="rgb(0,0,0)" stroke-width="1" opacity="0" d="M 148.5 399 L 152 399.5 L 148.5 400 L 148.5 399 Z "></path><path fill="rgb(0,0,0)" stroke="rgb(0,0,0)" stroke-width="1" opacity="0" d="M 165.5 399 L 169 399.5 L 165.5 400 L 165.5 399 Z "></path><path fill="rgb(0,0,0)" stroke="rgb(0,0,0)" stroke-width="1" opacity="0" d="M 203.5 399 L 206 399.5 L 203.5 400 L 203.5 399 Z "></path><path fill="rgb(0,236,90)" stroke="rgb(0,236,90)" stroke-width="1" opacity="0.996078431372549" d="M 186.5 0 L 191 0.5 L 188.5 4 L 186.5 3 L 185.5 5 L 183.5 4 L 181 7.5 L 182.5 10 L 181 9.5 Q 181.8 11.8 179.5 11 L 178.5 13 L 180 13.5 L 178.5 14 L 177.5 11 L 175 12.5 L 173 16.5 L 175.5 20 L 172.5 17 L 170.5 17 L 166 18 L 165.5 22 L 164.5 19 L 163 21.5 L 163.5 23 Q 161.3 22.3 162 24.5 L 162.5 26 L 160.5 25 L 158.5 26 L 157 25.5 Q 155.8 30.2 158 31.5 L 155 32.5 L 157 33.5 L 155 34.5 L 154.5 33 L 153 33.5 L 156 29.5 L 154 28.5 Q 155.1 31.8 152.5 31 L 147.5 34 L 146.5 32 L 151 30.5 Q 148.8 29.3 151.5 28 L 157 25 L 157 23 Q 160.7 24.5 160 21.5 L 161 21.5 L 161.5 23 L 162 19 L 168.5 14 L 171 14 Q 169.5 10.2 172.5 11 Q 173.8 7.3 178 8 Q 177 11 180 10 Q 181.5 6.2 178.5 7 L 178.5 6 L 181 4.5 L 182.5 2 L 184.5 3 L 186.5 0 Z M 172 14 L 172 16 L 174 15 L 172 14 Z "></path><path fill="rgb(0,236,90)" stroke="rgb(0,236,90)" stroke-width="1" opacity="0.996078431372549" d="M 179.5 17 Q 182.5 18.5 179.5 20 L 179.5 17 Z "></path><path fill="rgb(0,236,90)" stroke="rgb(0,236,90)" stroke-width="1" opacity="0.996078431372549" d="M 162 27 L 164 27.5 L 162 28.5 L 162 27 Z "></path><path fill="rgb(0,236,90)" stroke="rgb(0,236,90)" stroke-width="1" opacity="0.996078431372549" d="M 144.5 34 L 150 35 Q 151.1 37.7 148.5 37 L 147 36.5 L 146.5 38 L 146 35 L 144 35.5 Q 146.3 36.8 143.5 38 L 142 38.5 L 143 41.5 L 142.5 43 L 142 41 Q 139.3 39.9 140 42.5 L 138 43.5 L 138.5 42 L 136 42 Q 137.5 45.7 134.5 45 L 135.5 47 L 137 47.5 L 134 48 L 133.5 46 L 131.5 49 L 129 48 L 128.5 52 Q 127.3 49.8 126 52.5 L 127 55.5 L 125 56.5 L 126 53.5 L 123 55.5 Q 124.5 59.9 121.5 59 L 119.5 60 L 119.5 59 Q 121.8 59.8 121 57.5 L 123 54.5 L 121.5 54 L 116.5 57 L 117 55.5 L 118.5 53 L 121 53 Q 119.9 50.3 122.5 51 L 124 48 L 128 48 Q 126.9 45.3 129.5 46 L 132.5 42 L 133.5 44 L 136.5 40 L 144.5 34 Z "></path><path fill="rgb(0,236,90)" stroke="rgb(0,236,90)" stroke-width="1" opacity="0.996078431372549" d="M 155.5 36 L 154.5 38 L 155.5 36 Z "></path><path fill="rgb(0,236,90)" stroke="rgb(0,236,90)" stroke-width="1" opacity="0.996078431372549" d="M 174.5 37 L 174 38.5 L 173.5 40 L 173 38.5 L 174.5 37 Z "></path><path fill="rgb(0,236,90)" stroke="rgb(0,236,90)" stroke-width="1" opacity="0.996078431372549" d="M 386.5 50 L 387.5 52 L 386.5 50 Z "></path><path fill="rgb(0,236,90)" stroke="rgb(0,236,90)" stroke-width="1" opacity="0.996078431372549" d="M 114.5 57 L 117 58 L 116.5 60 Q 114.8 56.3 113 59.5 Q 115.5 61 112 62.5 L 112.5 64 L 114 63.5 L 110.5 66 L 111 64.5 L 110.5 63 L 107 64 Q 108 67.8 105.5 69 L 104.5 67 L 102.5 68 L 100 67 Q 98.5 70.7 101.5 70 L 103.5 69 L 103.5 70 L 100.5 72 L 98.5 69 L 98 71.5 L 98.5 73 L 97 72.5 Q 98.1 75.8 95.5 75 L 94 75.5 L 95.5 73 L 89 77 L 88.5 75 L 87.5 78 L 85 79.5 L 84 82.5 L 85.5 85 Q 84.3 82.8 83 85.5 L 82.5 87 L 82 85.5 Q 85.5 84 83 82.5 L 81.5 80 L 81 81.5 L 82 83.5 L 77.5 87 L 77.5 85 L 75 86.5 L 75.5 88 L 73 88 Q 74.1 90.7 71.5 90 L 70.5 93 L 69 93.5 L 70 95.5 L 66.5 95 L 65 96.5 L 66 101 L 64 101.5 L 64.5 103 L 62.5 100 L 62 102.5 L 65 105.5 L 64.5 108 L 61.5 107 L 61 109.5 L 60.5 111 L 58.5 111 L 57 111.5 L 59 114.5 L 58 114.5 L 57.5 113 L 57 115 L 55 115.5 L 57.5 117 L 59 116.5 L 59 118.5 L 59.5 120 L 62 118.5 L 61 116.5 L 63 117.5 L 63 120 Q 58.9 118.3 60 122.5 L 59 122.5 L 58.5 120 L 55 122.5 L 54 125.5 L 56 126.5 L 55 128.5 L 55.5 130 L 54 130.5 L 58 133.5 L 55 135.5 L 56 137.5 Q 53.7 138.8 56.5 140 L 58.5 139 L 59.5 141 Q 58.3 138.8 57 141.5 Q 57.8 143.8 55.5 143 L 55.5 144 Q 57.8 143.3 57 145.5 L 56 150 L 53.5 151 L 54 149.5 L 55 144.5 Q 52.8 143.2 54 138.5 Q 56.5 137 53 135.5 L 54 132.5 L 52 125.5 L 53 121.5 L 53 119.5 L 53 115.5 Q 56 114.3 55 110 L 57 109.5 L 56.5 108 L 58 107.5 L 57 105.5 L 58 103 L 60 102.5 L 58 101.5 L 61 99.5 Q 59.9 96.2 62.5 97 L 63 94.5 Q 62.3 92.3 64.5 93 L 67 89 L 73 85.5 Q 72.2 82.9 75.5 84 L 77 81 L 81 80 Q 79.9 77.3 82.5 78 L 84.5 78 L 86 77.5 L 85.5 76 L 93.5 70 L 99 68 Q 97.8 65 101.5 66 L 103.5 66 Q 105.8 66.8 105 64.5 L 104.5 63 Q 107.8 64.1 107 61.5 L 110 60 Q 108.7 56.7 113.5 58 L 114.5 57 Z M 110 60 L 110 62 L 113 61 L 110 60 Z M 109 61 Q 107 64 110 63 L 109 61 Z M 79 83 L 79 85 L 81 84 L 79 83 Z M 62 103 L 60 107 L 62 106 L 62 103 Z "></path><path fill="rgb(0,236,90)" stroke="rgb(0,236,90)" stroke-width="1" opacity="0.996078431372549" d="M 396.5 58 L 395.5 60 L 396.5 58 Z "></path><path fill="rgb(0,236,90)" stroke="rgb(0,236,90)" stroke-width="1" opacity="0.996078431372549" d="M 316.5 77 L 320 77.5 L 316.5 82 L 312 81.5 L 313.5 79 L 317 80 L 316.5 78 L 315 78.5 L 316.5 77 Z "></path><path fill="rgb(0,236,90)" stroke="rgb(0,236,90)" stroke-width="1" opacity="0.996078431372549" d="M 90.5 78 L 90 79.5 L 89.5 81 L 89 79.5 L 90.5 78 Z "></path><path fill="rgb(0,236,90)" stroke="rgb(0,236,90)" stroke-width="1" opacity="0.996078431372549" d="M 88.5 90 L 87.5 92 L 88.5 90 Z "></path><path fill="rgb(0,236,90)" stroke="rgb(0,236,90)" stroke-width="1" opacity="0.996078431372549" d="M 73.5 93 L 76 93.5 Q 73.9 96.8 73.5 93 Z "></path><path fill="rgb(0,236,90)" stroke="rgb(0,236,90)" stroke-width="1" opacity="0.996078431372549" d="M 73.5 96 L 76 97.5 L 73.5 98 L 72 97.5 L 73.5 96 Z "></path><path fill="rgb(0,236,90)" stroke="rgb(0,236,90)" stroke-width="1" opacity="0.996078431372549" d="M 399.5 96 L 400 97.5 L 395 102.5 L 396 103.5 L 395.5 105 L 391.5 103 L 390 103.5 L 394 101.5 L 393.5 100 L 395 100.5 L 395.5 99 Q 397.3 101.8 399 97.5 L 399.5 96 Z "></path><path fill="rgb(0,236,90)" stroke="rgb(0,236,90)" stroke-width="1" opacity="0.996078431372549" d="M 68.5 97 L 71 98.5 L 68.5 99 L 67 98.5 L 68.5 97 Z "></path><path fill="rgb(0,236,90)" stroke="rgb(0,236,90)" stroke-width="1" opacity="0.996078431372549" d="M 392.5 105 L 395 106.5 L 393.5 109 L 392 107.5 L 392.5 105 Z "></path><path fill="rgb(0,236,90)" stroke="rgb(0,236,90)" stroke-width="1" opacity="0.996078431372549" d="M 393 110 L 395 110.5 L 391.5 120 L 391 118.5 L 392 116.5 L 390 116.5 L 392 113 Q 389 114 390 111 L 392.5 112 L 393 110 Z "></path><path fill="rgb(0,236,90)" stroke="rgb(0,236,90)" stroke-width="1" opacity="0.996078431372549" d="M 345.5 114 Q 348.5 115.5 345.5 117 L 345.5 114 Z "></path><path fill="rgb(0,236,90)" stroke="rgb(0,236,90)" stroke-width="1" opacity="0.996078431372549" d="M 343.5 115 L 343 116.5 L 342.5 119 L 341 116 L 343.5 115 Z "></path><path fill="rgb(0,236,90)" stroke="rgb(0,236,90)" stroke-width="1" opacity="0.996078431372549" d="M 332.5 119 L 333 120.5 L 330.5 124 L 330 121.5 L 332.5 119 Z "></path><path fill="rgb(0,236,90)" stroke="rgb(0,236,90)" stroke-width="1" opacity="0.996078431372549" d="M 337.5 119 L 338.5 121 L 337.5 119 Z "></path><path fill="rgb(0,236,90)" stroke="rgb(0,236,90)" stroke-width="1" opacity="0.996078431372549" d="M 391.5 121 L 392 123.5 L 391 126.5 L 390 131.5 L 383.5 138 L 379.5 141 L 377 140 Q 378.1 142.7 375.5 142 L 373.5 141 L 369 142 L 368 138.5 L 370.5 140 L 372 139.5 L 369.5 136 Q 370.8 138.3 372 135.5 L 371.5 134 L 375 136.5 L 374 139 L 377 137.5 L 376.5 136 L 379 137 L 378 134.5 L 379.5 135 L 382.5 136 Q 380.8 134 384.5 132 L 387.5 133 L 387 131.5 Q 387.8 129.3 385.5 130 L 385.5 129 L 390 128.5 L 389 126.5 L 391 123.5 Q 388.8 122.2 391.5 121 Z "></path><path fill="rgb(0,236,90)" stroke="rgb(0,236,90)" stroke-width="1" opacity="0.996078431372549" d="M 327 122 L 329 122.5 L 326.5 126 L 327 124.5 L 327 122 Z "></path><path fill="rgb(0,236,90)" stroke="rgb(0,236,90)" stroke-width="1" opacity="0.996078431372549" d="M 332.5 123 L 333 124.5 L 331 125.5 L 332.5 123 Z "></path><path fill="rgb(0,236,90)" stroke="rgb(0,236,90)" stroke-width="1" opacity="0.996078431372549" d="M 322.5 125 L 324 127.5 L 322.5 127 L 319.5 129 Q 318.3 126.8 317 129.5 L 316.5 132 L 315 127.5 L 316 127.5 L 316.5 129 L 322.5 125 Z "></path><path fill="rgb(0,236,90)" stroke="rgb(0,236,90)" stroke-width="1" opacity="0.996078431372549" d="M 311.5 128 L 315 130.5 L 313.5 130 L 311.5 131 L 311.5 128 Z "></path><path fill="rgb(0,236,90)" stroke="rgb(0,236,90)" stroke-width="1" opacity="0.996078431372549" d="M 304.5 132 L 308 133.5 L 305.5 134 L 303 133.5 L 304.5 132 Z "></path><path fill="rgb(0,236,90)" stroke="rgb(0,236,90)" stroke-width="1" opacity="0.996078431372549" d="M 297.5 135 L 296.5 137 L 297.5 135 Z "></path><path fill="rgb(0,236,90)" stroke="rgb(0,236,90)" stroke-width="1" opacity="0.996078431372549" d="M 59.5 136 L 58.5 138 L 59.5 136 Z "></path><path fill="rgb(0,236,90)" stroke="rgb(0,236,90)" stroke-width="1" opacity="0.996078431372549" d="M 295.5 138 L 294.5 140 L 295.5 138 Z "></path><path fill="rgb(0,236,90)" stroke="rgb(0,236,90)" stroke-width="1" opacity="0.996078431372549" d="M 349.5 142 L 349 143.5 L 347.5 147 L 346 144 L 349.5 142 Z "></path><path fill="rgb(0,236,90)" stroke="rgb(0,236,90)" stroke-width="1" opacity="0.996078431372549" d="M 358.5 144 L 365 145.5 L 355 147 Q 356.4 150.7 350.5 149 Q 348.4 152.9 343 152 Q 344.3 155 340.5 154 L 339 153.5 L 337.5 156 Q 336 153.5 334.5 157 L 329.5 159 L 328 158.5 Q 328.8 160.8 326.5 160 L 319 162 L 318.5 164 L 316 163.5 L 316 161.5 L 316.5 159 L 318 159.5 Q 317.3 157.3 319.5 158 L 319 159.5 L 319.5 161 L 326 156.5 L 325 154.5 L 329 156.5 L 329.5 155 L 332.5 156 L 332.5 155 L 331 154.5 L 332.5 154 Q 333.8 156.3 335 153.5 L 334.5 152 Q 336.8 156.3 339 151.5 L 339.5 150 L 340 152 L 342 151.5 L 341 149.5 Q 342.5 146.5 344 149.5 L 344.5 151 L 345.5 147 L 348.5 149 L 350 146 Q 355.5 146.8 358.5 144 Z "></path><path fill="rgb(0,236,90)" stroke="rgb(0,236,90)" stroke-width="1" opacity="0.996078431372549" d="M 261.5 150 L 263 150.5 L 261 151 Q 262.3 154 258.5 153 L 258.5 152 L 261.5 150 Z "></path><path fill="rgb(0,236,90)" stroke="rgb(0,236,90)" stroke-width="1" opacity="0.996078431372549" d="M 266.5 151 L 267.5 153 L 266.5 151 Z "></path><path fill="rgb(0,236,90)" stroke="rgb(0,236,90)" stroke-width="1" opacity="0.996078431372549" d="M 52.5 152 L 53 156.5 L 52 156.5 L 52.5 152 Z "></path><path fill="rgb(0,236,90)" stroke="rgb(0,236,90)" stroke-width="1" opacity="0.996078431372549" d="M 262.5 152 L 265 152.5 L 262.5 153 L 262.5 152 Z "></path><path fill="rgb(0,236,90)" stroke="rgb(0,236,90)" stroke-width="1" opacity="0.996078431372549" d="M 297 153 L 299 153.5 L 296 155.5 L 297 153 Z "></path><path fill="rgb(0,236,90)" stroke="rgb(0,236,90)" stroke-width="1" opacity="0.996078431372549" d="M 258.5 154 L 261 154.5 L 258.5 155 L 258.5 154 Z "></path><path fill="rgb(0,236,90)" stroke="rgb(0,236,90)" stroke-width="1" opacity="0.996078431372549" d="M 318.5 154 Q 321.5 155.5 318.5 157 L 318.5 154 Z "></path><path fill="rgb(0,236,90)" stroke="rgb(0,236,90)" stroke-width="1" opacity="0.996078431372549" d="M 306.5 156 L 307 158.5 L 306 158.5 L 306.5 156 Z "></path><path fill="rgb(0,236,90)" stroke="rgb(0,236,90)" stroke-width="1" opacity="0.996078431372549" d="M 51.5 158 L 52.5 160 L 51.5 158 Z "></path><path fill="rgb(0,236,90)" stroke="rgb(0,236,90)" stroke-width="1" opacity="0.996078431372549" d="M 51.5 161 L 53 164.5 L 52 167.5 L 52 169.5 L 53 172.5 L 51.5 176 L 50 170.5 Q 53.5 169 51 167.5 L 52 163.5 L 51.5 161 Z "></path><path fill="rgb(0,236,90)" stroke="rgb(0,236,90)" stroke-width="1" opacity="0.996078431372549" d="M 312.5 161 L 312 162.5 Q 311.3 165.1 314 164 L 314.5 162 L 315 165 Q 311.6 164.3 310.5 167 Q 309 164.5 307.5 168 L 299 170 Q 300.3 173.3 295.5 172 L 293.5 172 L 292 172.5 L 292.5 174 L 288.5 176 L 287.5 173 L 285 174.5 L 286.5 177 L 284 177 L 283.5 179 L 279.5 179 L 276 181.5 Q 274.9 178.2 277.5 179 L 281 173.5 L 280 171.5 L 282 172.5 L 280 175.5 L 282 176.5 L 283.5 174 L 289 169.5 L 288.5 168 L 291 168.5 L 290 172 L 293.5 171 L 295 171.5 L 294.5 169 L 293 169.5 L 295.5 168 L 297 168.5 L 296 166.5 L 298.5 165 L 301 165.5 L 300 167.5 L 301.5 168 Q 304.3 166.8 302 165.5 L 302.5 164 L 304.5 167 L 306.5 167 L 308 166.5 L 306 162.5 L 307.5 162 Q 310.3 163.3 308 164.5 L 308.5 166 L 312.5 161 Z M 289 171 L 288 173 L 290 174 L 289 171 Z "></path><path fill="rgb(0,236,90)" stroke="rgb(0,236,90)" stroke-width="1" opacity="0.996078431372549" d="M 51.5 178 L 52 181.5 L 51 181.5 L 51.5 178 Z "></path><path fill="rgb(0,236,90)" stroke="rgb(0,236,90)" stroke-width="1" opacity="0.996078431372549" d="M 53.5 186 L 56 192.5 L 55.5 194 Q 57.8 193.3 57 195.5 L 54 197 L 54.5 199 L 56 198.5 L 54 201.5 L 56 204.5 L 54 207.5 L 54 209.5 Q 52.9 212.8 55.5 212 L 55.5 210 L 57 213 Q 52.1 211.2 54 217.5 L 55 219.5 L 53.5 223 L 52 219.5 L 53 217.5 L 52 214.5 L 52 212.5 L 53 208.5 L 53 206.5 Q 52.3 204.3 54.5 205 L 54.5 204 L 52 202.5 L 53 200.5 L 53 198.5 L 54 194.5 L 53 192.5 L 54 190.5 L 53.5 186 Z "></path><path fill="rgb(0,236,90)" stroke="rgb(0,236,90)" stroke-width="1" opacity="0.996078431372549" d="M 271 187 Q 273.7 185.9 273 188.5 L 272 191.5 L 270 194.5 L 272 195 Q 270.2 198.8 271 206.5 L 269 208.5 L 270 210.5 L 268 218.5 L 268 220.5 L 268 225.5 L 265 234.5 L 266 236.5 L 264 242.5 L 265 244.5 L 263 248.5 L 262 252.5 L 262 254.5 L 261 258.5 Q 263.3 259.8 260.5 261 L 259 258.5 L 259.5 257 L 258 256.5 L 260 255.5 L 255 251.5 L 257.5 253 L 261 251.5 L 258 249.5 L 258.5 248 L 259 250 L 262 249.5 L 260 246.5 L 263 245.5 Q 263.8 243.3 261.5 244 L 260 244.5 L 261.5 242 L 263 242.5 L 264 238.5 L 262 238.5 Q 264.5 237 261 235.5 L 263 229 L 265 228.5 L 264 226.5 L 265.5 224 L 264 223.5 L 266 220.5 L 264.5 220 L 263 220.5 L 265 216.5 Q 264.3 213.9 267 215 L 267 213 Q 263.3 214.5 264 211.5 L 266 210.5 L 266.5 212 L 268 207.5 L 265 206.5 L 268 204.5 L 265.5 204 L 264 204.5 L 264 203 L 269 203 L 269 201 L 266 199.5 L 268 199.5 L 268.5 196 L 270 196.5 L 269 194.5 L 270 191.5 L 271 187 Z M 265 230 L 263 233 L 265 233 L 265 230 Z "></path><path fill="rgb(0,236,90)" stroke="rgb(0,236,90)" stroke-width="1" opacity="0.996078431372549" d="M 57.5 202 L 58.5 204 L 57.5 202 Z "></path><path fill="rgb(0,236,90)" stroke="rgb(0,236,90)" stroke-width="1" opacity="0.996078431372549" d="M 263.5 206 L 265 208.5 L 263 209 L 263.5 206 Z "></path><path fill="rgb(0,236,90)" stroke="rgb(0,236,90)" stroke-width="1" opacity="0.996078431372549" d="M 57.5 216 L 59 218.5 L 57 217.5 L 57.5 216 Z "></path><path fill="rgb(0,236,90)" stroke="rgb(0,236,90)" stroke-width="1" opacity="0.996078431372549" d="M 258.5 221 L 260.5 224 L 258.5 221 Z "></path><path fill="rgb(0,236,90)" stroke="rgb(0,236,90)" stroke-width="1" opacity="0.996078431372549" d="M 52.5 224 L 54.5 225 L 56.5 224 L 56 225.5 L 57 231 Q 54.3 229.9 55 232.5 L 54 233.5 L 56 235.5 L 55.5 238 L 53 238.5 L 56.5 241 L 57.5 239 L 58 240.5 L 56.5 243 L 54.5 243 L 53 243.5 L 55 244 L 56 249.5 Q 53.7 250.8 56.5 252 L 58 251.5 L 53 253.5 L 55 258.5 L 54 261.5 Q 53.3 263.8 55.5 263 L 58.5 262 L 58.5 263 L 55 264.5 L 54 266.5 L 54.5 268 L 53 268.5 Q 55 272.2 57 270.5 L 56.5 273 L 53 274.5 L 56 275.5 L 54 278.5 L 53.5 280 L 55 280.5 L 52 285.5 L 55.5 286 L 55.5 284 Q 58.8 285.8 55 287.5 L 54 292.5 Q 56.5 294 53 295.5 L 54.5 298 L 53 297.5 L 54.5 303 L 56 302.5 Q 54.8 305.3 53.5 303 L 52 303.5 L 55.5 308 L 54 308.5 L 54.5 310 Q 51.5 309.1 53 313.5 L 55 313.5 L 56 315.5 L 55 317.5 L 55.5 319 L 54 316.5 L 54.5 315 Q 51.5 314.1 53 318.5 L 53 322.5 L 54 325.5 L 54 327.5 L 55 332.5 Q 52.5 334 56 335.5 Q 56.7 338.1 54 337 L 54 339.5 L 54 343.5 L 52 345.5 L 54 350.5 L 52 353.5 L 52 355.5 L 52.5 357 L 55 356 L 56 352.5 L 55 350 L 57 350.5 L 56 351.5 L 57.5 354 L 56 353.5 Q 54.9 356.8 57.5 356 L 57.5 357 L 55.5 356 L 52 358.5 L 53.5 359 L 55 358.5 L 54 361 L 56.5 360 L 55.5 362 L 52 362.5 L 55 364 L 56 366.5 L 54 370.5 L 56 371.5 L 55 369.5 L 57.5 368 L 57.5 369 L 56 369.5 L 58.5 374 L 59.5 371 L 61 374 L 64 375.5 L 63.5 377 L 59.5 374 L 57 375.5 L 58 378 Q 60.7 376.9 60 379.5 L 62.5 382 L 66 381.5 L 64 384.5 L 65.5 387 L 67.5 383 Q 69.3 386.1 71 384.5 Q 71.8 386.8 69.5 386 L 67 384.5 L 67.5 388 Q 68.8 385.7 73.5 387 L 73 388.5 L 73.5 390 Q 75 387.5 76.5 391 L 80 393.5 L 77.5 395 L 75 394 Q 76.1 391.3 73.5 392 L 71.5 393 L 68.5 390 L 67.5 391 L 63 386.5 L 62.5 385 L 61.5 387 L 58.5 383 L 57 383 L 57 379 L 55 379 Q 56.1 376.3 53.5 377 L 54 375.5 L 50 366.5 L 50 364.5 Q 51.3 359.8 49 358.5 L 50 355.5 L 50 353.5 L 51 350.5 L 50 347.5 L 50 345.5 L 52 336.5 L 51 333.5 L 51 331.5 Q 49.3 325.2 52 323.5 L 52 321.5 L 53 319.5 L 51 316.5 L 52 313.5 Q 49.5 312 51 306.5 L 52 304.5 L 50 304.5 L 52 300.5 L 51 297.5 L 51 295.5 Q 50.2 292.9 53.5 294 L 53.5 293 Q 51.3 293.8 52 291.5 L 52.5 290 Q 49.9 290.8 51 287.5 L 51 285.5 L 52 282.5 L 51 279.5 L 52 277.5 L 52 275.5 L 53 273.5 L 51 272.5 L 53 267.5 Q 50.8 266.2 52 261.5 L 52 259.5 L 53 254.5 Q 50.5 253 52 247.5 L 53 245.5 L 52 243.5 L 54 240.5 L 52 240 L 53 236.5 L 52 232.5 L 56 229.5 L 55.5 228 L 52.5 230 L 52 228.5 L 52.5 227 L 51 226.5 L 53 225.5 L 52.5 224 Z M 53 327 L 52 330 L 53 330 L 53 327 Z M 72 390 L 73 392 Q 74 389 72 390 Z "></path><path fill="rgb(0,236,90)" stroke="rgb(0,236,90)" stroke-width="1" opacity="0.996078431372549" d="M 65.5 226 L 64.5 228 L 65.5 226 Z "></path><path fill="rgb(0,236,90)" stroke="rgb(0,236,90)" stroke-width="1" opacity="0.996078431372549" d="M 260.5 237 L 261 239.5 L 259 240.5 L 260.5 237 Z "></path><path fill="rgb(0,236,90)" stroke="rgb(0,236,90)" stroke-width="1" opacity="0.996078431372549" d="M 258.5 243 L 259 245 L 257 244.5 L 258.5 243 Z "></path><path fill="rgb(0,236,90)" stroke="rgb(0,236,90)" stroke-width="1" opacity="0.996078431372549" d="M 60.5 255 Q 63.1 254.2 62 257.5 L 61 257.5 L 60.5 255 Z "></path><path fill="rgb(0,236,90)" stroke="rgb(0,236,90)" stroke-width="1" opacity="0.996078431372549" d="M 249.5 255 L 250.5 257 L 249.5 255 Z "></path><path fill="rgb(0,236,90)" stroke="rgb(0,236,90)" stroke-width="1" opacity="0.996078431372549" d="M 255 258 L 257 258.5 L 256.5 260 L 258 260.5 L 256.5 261 L 255 258 Z "></path><path fill="rgb(0,236,90)" stroke="rgb(0,236,90)" stroke-width="1" opacity="0.996078431372549" d="M 259.5 262 L 260 263.5 L 256 272.5 L 257 274.5 L 254 278.5 L 254 280.5 Q 254.7 283.1 252 282 Q 250.9 279.3 253.5 280 L 253 278.5 L 255 274.5 L 253 274 L 254 270 L 256 269.5 L 254 269 L 254.5 266 L 255.5 268 L 258 264.5 L 256 263.5 L 259.5 262 Z "></path><path fill="rgb(0,236,90)" stroke="rgb(0,236,90)" stroke-width="1" opacity="0.996078431372549" d="M 66.5 263 L 67.5 265 L 66.5 263 Z "></path><path fill="rgb(0,236,90)" stroke="rgb(0,236,90)" stroke-width="1" opacity="0.996078431372549" d="M 251.5 266 L 252.5 268 L 251.5 266 Z "></path><path fill="rgb(0,236,90)" stroke="rgb(0,236,90)" stroke-width="1" opacity="0.996078431372549" d="M 58.5 269 L 59.5 271 L 58.5 269 Z "></path><path fill="rgb(0,236,90)" stroke="rgb(0,236,90)" stroke-width="1" opacity="0.996078431372549" d="M 228.5 275 L 228 276.5 L 227.5 278 L 227 276.5 L 228.5 275 Z "></path><path fill="rgb(0,236,90)" stroke="rgb(0,236,90)" stroke-width="1" opacity="0.996078431372549" d="M 248.5 280 L 251 281.5 L 249.5 282 L 248.5 280 Z "></path><path fill="rgb(0,236,90)" stroke="rgb(0,236,90)" stroke-width="1" opacity="0.996078431372549" d="M 210.5 283 L 211 285.5 L 209 286.5 L 210.5 283 Z "></path><path fill="rgb(0,236,90)" stroke="rgb(0,236,90)" stroke-width="1" opacity="0.996078431372549" d="M 249.5 283 L 250.5 285 L 251 283 L 254 283.5 L 249 293.5 L 249 295.5 Q 249.8 297.8 247.5 297 L 248 298.5 L 247 305.5 L 245 308.5 L 246 310.5 L 244 313.5 L 245 315.5 Q 242 316.5 243 321.5 L 240.5 324 L 239 321.5 L 242 320 Q 243.5 314.2 240 312.5 L 244 307.5 L 243.5 306 L 245 306.5 L 244 302.5 L 246 302.5 L 245 299.5 L 246 296.5 Q 243.2 294.8 247.5 293 L 249 292.5 L 247 291.5 L 250 289.5 L 249 287.5 L 250 285.5 L 249.5 283 Z M 248 294 L 246 296 L 248 296 L 248 294 Z M 243 311 L 241 313 L 243 313 L 243 311 Z M 240 321 L 240 323 L 242 322 L 240 321 Z "></path><path fill="rgb(0,236,90)" stroke="rgb(0,236,90)" stroke-width="1" opacity="0.996078431372549" d="M 57.5 289 L 57.5 292 Q 55.3 292.8 56 290.5 L 57.5 289 Z "></path><path fill="rgb(0,236,90)" stroke="rgb(0,236,90)" stroke-width="1" opacity="0.996078431372549" d="M 57.5 295 L 56.5 297 L 57.5 295 Z "></path><path fill="rgb(0,236,90)" stroke="rgb(0,236,90)" stroke-width="1" opacity="0.996078431372549" d="M 243.5 300 L 242.5 302 L 243.5 300 Z "></path><path fill="rgb(0,236,90)" stroke="rgb(0,236,90)" stroke-width="1" opacity="0.996078431372549" d="M 220.5 302 L 223 303.5 L 221.5 304 L 220.5 302 Z "></path><path fill="rgb(0,236,90)" stroke="rgb(0,236,90)" stroke-width="1" opacity="0.996078431372549" d="M 201.5 305 L 202 307 L 200 306.5 L 201.5 305 Z "></path><path fill="rgb(0,236,90)" stroke="rgb(0,236,90)" stroke-width="1" opacity="0.996078431372549" d="M 57.5 307 L 58 309.5 L 56 310.5 L 57.5 307 Z "></path><path fill="rgb(0,236,90)" stroke="rgb(0,236,90)" stroke-width="1" opacity="0.996078431372549" d="M 185.5 309 L 184.5 311 L 185.5 309 Z "></path><path fill="rgb(0,236,90)" stroke="rgb(0,236,90)" stroke-width="1" opacity="0.996078431372549" d="M 192.5 311 L 191.5 313 L 192.5 311 Z "></path><path fill="rgb(0,236,90)" stroke="rgb(0,236,90)" stroke-width="1" opacity="0.996078431372549" d="M 235.5 311 L 237 311.5 L 234.5 313 L 235.5 311 Z "></path><path fill="rgb(0,236,90)" stroke="rgb(0,236,90)" stroke-width="1" opacity="0.996078431372549" d="M 204.5 313 L 203.5 315 L 204.5 313 Z "></path><path fill="rgb(0,236,90)" stroke="rgb(0,236,90)" stroke-width="1" opacity="0.996078431372549" d="M 213.5 313 L 214 315.5 L 213 315.5 L 213.5 313 Z "></path><path fill="rgb(0,236,90)" stroke="rgb(0,236,90)" stroke-width="1" opacity="0.996078431372549" d="M 200.5 314 L 201.5 316 L 200.5 314 Z "></path><path fill="rgb(0,236,90)" stroke="rgb(0,236,90)" stroke-width="1" opacity="0.996078431372549" d="M 237.5 317 Q 240.5 318.5 237.5 320 L 237.5 317 Z "></path><path fill="rgb(0,236,90)" stroke="rgb(0,236,90)" stroke-width="1" opacity="0.996078431372549" d="M 212.5 323 L 213.5 325 L 211 325.5 L 212 327.5 L 211 327.5 L 210 325.5 L 212.5 323 Z "></path><path fill="rgb(0,236,90)" stroke="rgb(0,236,90)" stroke-width="1" opacity="0.996078431372549" d="M 236.5 325 L 238.5 326 L 242 325 L 241 327.5 L 241 329.5 Q 242.9 334.9 239.5 334 L 236.5 333 L 234.5 336 L 233 331.5 L 234 331.5 L 234.5 334 L 236 331.5 L 235.5 330 L 238.5 332 L 237 329.5 Q 236.3 327.3 238.5 328 L 237.5 326 L 236.5 325 Z "></path><path fill="rgb(0,236,90)" stroke="rgb(0,236,90)" stroke-width="1" opacity="0.996078431372549" d="M 196.5 329 L 199 329.5 L 196.5 330 L 196.5 329 Z "></path><path fill="rgb(0,236,90)" stroke="rgb(0,236,90)" stroke-width="1" opacity="0.996078431372549" d="M 229.5 330 L 232 333.5 L 230 332.5 L 229.5 330 Z "></path><path fill="rgb(0,236,90)" stroke="rgb(0,236,90)" stroke-width="1" opacity="0.996078431372549" d="M 159.5 332 L 161.5 333 Q 162.8 330.8 164 333.5 Q 164.8 335.8 162.5 335 L 163 336.5 Q 164.1 339.8 161.5 339 L 157.5 344 L 154 341.5 L 160 339.5 L 159.5 338 Q 162.8 339.1 162 336.5 L 159 334.5 L 159.5 332 Z M 157 341 L 157 343 L 159 342 L 157 341 Z "></path><path fill="rgb(0,236,90)" stroke="rgb(0,236,90)" stroke-width="1" opacity="0.996078431372549" d="M 153.5 334 L 154.5 336 L 153.5 334 Z "></path><path fill="rgb(0,236,90)" stroke="rgb(0,236,90)" stroke-width="1" opacity="0.996078431372549" d="M 156 335 Q 159 334 158 337 Q 155.3 335.9 156 338.5 L 155 338.5 L 156 335 Z "></path><path fill="rgb(0,236,90)" stroke="rgb(0,236,90)" stroke-width="1" opacity="0.996078431372549" d="M 238.5 335 L 240 338.5 L 237 342.5 L 238 344.5 L 236 347.5 Q 238.3 348.7 235.5 350 L 233 346.5 L 234.5 347 L 236 346.5 Q 232.5 345 235 343.5 Q 234.3 340.9 237 342 L 237 339.5 L 237 337.5 L 238.5 335 Z "></path><path fill="rgb(0,236,90)" stroke="rgb(0,236,90)" stroke-width="1" opacity="0.996078431372549" d="M 197.5 337 L 199 339.5 L 197 338.5 L 197.5 337 Z "></path><path fill="rgb(0,236,90)" stroke="rgb(0,236,90)" stroke-width="1" opacity="0.996078431372549" d="M 209.5 337 L 209 338.5 L 208.5 340 L 208 338.5 L 209.5 337 Z "></path><path fill="rgb(0,236,90)" stroke="rgb(0,236,90)" stroke-width="1" opacity="0.996078431372549" d="M 214 337 L 216 337.5 L 214 338.5 L 214 337 Z "></path><path fill="rgb(0,236,90)" stroke="rgb(0,236,90)" stroke-width="1" opacity="0.996078431372549" d="M 155.5 345 Q 157.8 344.3 157 346.5 L 154 348.5 Q 157.1 346.7 155.5 345 Z "></path><path fill="rgb(0,236,90)" stroke="rgb(0,236,90)" stroke-width="1" opacity="0.996078431372549" d="M 203.5 345 L 208 347.5 L 206.5 348 L 204.5 348 L 203 347.5 L 205 346.5 L 203.5 345 Z "></path><path fill="rgb(0,236,90)" stroke="rgb(0,236,90)" stroke-width="1" opacity="0.996078431372549" d="M 194.5 346 L 197 346.5 L 195.5 349 L 194.5 346 Z "></path><path fill="rgb(0,236,90)" stroke="rgb(0,236,90)" stroke-width="1" opacity="0.996078431372549" d="M 231.5 346 L 233 348.5 L 231.5 348 L 230 347.5 L 231.5 346 Z "></path><path fill="rgb(0,236,90)" stroke="rgb(0,236,90)" stroke-width="1" opacity="0.996078431372549" d="M 161.5 348 L 160.5 350 L 161.5 348 Z "></path><path fill="rgb(0,236,90)" stroke="rgb(0,236,90)" stroke-width="1" opacity="0.996078431372549" d="M 203 349 L 205 349.5 L 203 350.5 L 203 349 Z "></path><path fill="rgb(0,236,90)" stroke="rgb(0,236,90)" stroke-width="1" opacity="0.996078431372549" d="M 194.5 350 Q 196.8 350.8 196 354.5 L 193 356 L 192 351.5 L 194 351.5 L 194.5 350 Z "></path><path fill="rgb(0,236,90)" stroke="rgb(0,236,90)" stroke-width="1" opacity="0.996078431372549" d="M 233.5 350 Q 236.5 350.5 236 354.5 L 233.5 356 L 232.5 354 L 234 354.5 Q 234.8 352.3 232.5 353 L 232.5 352 L 234 351.5 L 233.5 350 Z "></path><path fill="rgb(0,236,90)" stroke="rgb(0,236,90)" stroke-width="1" opacity="0.996078431372549" d="M 190.5 351 L 192 353.5 L 190 352.5 L 190.5 351 Z "></path><path fill="rgb(0,236,90)" stroke="rgb(0,236,90)" stroke-width="1" opacity="0.996078431372549" d="M 201.5 352 L 202.5 354 L 203 352 Q 206 351 205 354 L 202.5 355 L 201.5 352 Z "></path><path fill="rgb(0,236,90)" stroke="rgb(0,236,90)" stroke-width="1" opacity="0.996078431372549" d="M 184.5 353 L 183.5 355 L 184.5 353 Z "></path><path fill="rgb(0,236,90)" stroke="rgb(0,236,90)" stroke-width="1" opacity="0.996078431372549" d="M 189.5 354 L 190.5 356 Q 187.7 356.7 189.5 354 Z "></path><path fill="rgb(0,236,90)" stroke="rgb(0,236,90)" stroke-width="1" opacity="0.996078431372549" d="M 234 357 L 236 357.5 Q 233.2 359.2 235 365.5 L 232 371.5 L 232.5 373 Q 230.3 372.3 231 374.5 L 226.5 383 Q 223.9 382.2 225 385.5 L 220 388.5 L 219.5 390 L 217.5 389 Q 215.7 392.1 214 390.5 Q 215.3 394.7 210.5 393 L 203.5 395 L 201.5 394 L 198.5 395 L 196.5 394 Q 195 397.5 193.5 395 L 191.5 396 L 188.5 395 L 186.5 396 L 181.5 394 L 178.5 396 L 174.5 394 L 170.5 395 L 168.5 395 Q 164.1 396.5 165 393.5 L 164 393.5 Q 164.8 395.8 162.5 395 L 160.5 394 L 158.5 395 L 156.5 395 Q 152.8 395.8 152 393.5 Q 152.5 389.5 157.5 390 L 160 391.5 L 158 392 Q 156.9 394.7 159.5 394 L 164.5 392 L 166 392.5 L 165 390.5 L 167.5 392 L 172 392.5 L 171.5 394 L 174 392.5 L 174.5 391 L 175.5 392 L 177.5 390 L 180 390.5 Q 179.1 393.5 183.5 392 Q 185 394.5 186.5 391 Q 189.1 390.2 188 393.5 L 189 393.5 Q 188.3 391.3 190.5 392 L 192 391.5 Q 189.7 392.8 192.5 394 L 193 392 L 195.5 391 L 199.5 393 L 202.5 392 L 204.5 393 L 205 391 L 207.5 392 L 208 389 L 205 387.5 L 209 386.5 Q 206.8 387.8 209.5 389 L 213.5 390 L 216 386.5 L 215 383.5 L 216 383.5 L 216.5 386 L 217 384 Q 220.8 385 222 382.5 L 221.5 379 L 223.5 379 Q 226.1 379.8 225 376.5 L 227 373.5 L 226 371.5 L 227 371.5 L 227.5 373 L 229.5 370 L 229.5 372 Q 231.8 372.8 231 370.5 L 231 368.5 L 233 364.5 L 231.5 361 L 230 361.5 Q 229.3 359.3 231.5 360 L 234 361.5 L 233 359.5 L 234 357 Z M 224 380 L 223 382 L 225 381 L 224 380 Z M 218 385 L 218 387 L 220 386 L 218 385 Z "></path><path fill="rgb(0,236,90)" stroke="rgb(0,236,90)" stroke-width="1" opacity="0.996078431372549" d="M 62.5 366 L 61.5 368 L 62.5 366 Z "></path><path fill="rgb(0,236,90)" stroke="rgb(0,236,90)" stroke-width="1" opacity="0.996078431372549" d="M 189.5 374 L 191 376.5 L 189 375.5 L 189.5 374 Z "></path><path fill="rgb(0,236,90)" stroke="rgb(0,236,90)" stroke-width="1" opacity="0.996078431372549" d="M 173.5 384 L 174.5 386 L 173.5 384 Z "></path><path fill="rgb(0,236,90)" stroke="rgb(0,236,90)" stroke-width="1" opacity="0.996078431372549" d="M 188 384 L 191 385.5 Q 189.5 388.5 188 385.5 L 188 384 Z "></path><path fill="rgb(0,236,90)" stroke="rgb(0,236,90)" stroke-width="1" opacity="0.996078431372549" d="M 213.5 385 L 214 386.5 L 211.5 388 L 211.5 387 Q 214 387.7 213.5 385 Z "></path><path fill="rgb(0,236,90)" stroke="rgb(0,236,90)" stroke-width="1" opacity="0.996078431372549" d="M 160.5 386 L 161.5 388 L 160.5 386 Z "></path><path fill="rgb(0,236,90)" stroke="rgb(0,236,90)" stroke-width="1" opacity="0.996078431372549" d="M 198.5 386 L 199.5 388 L 198.5 386 Z "></path><path fill="rgb(0,236,90)" stroke="rgb(0,236,90)" stroke-width="1" opacity="0.996078431372549" d="M 145.5 388 L 146.5 390 L 145.5 388 Z "></path><path fill="rgb(0,236,90)" stroke="rgb(0,236,90)" stroke-width="1" opacity="0.996078431372549" d="M 152.5 388 Q 154.8 387.3 154 389.5 L 150.5 395 L 146.5 394 L 144 395 L 143.5 393 L 139.5 395 L 141.5 392 L 147.5 391 L 150 392.5 Q 149.3 390.3 151.5 391 L 152.5 388 Z "></path><path fill="rgb(0,236,90)" stroke="rgb(0,236,90)" stroke-width="1" opacity="0.996078431372549" d="M 193.5 388 L 194 390 L 192 389.5 L 193.5 388 Z "></path><path fill="rgb(0,236,90)" stroke="rgb(0,236,90)" stroke-width="1" opacity="0.996078431372549" d="M 168.5 389 L 169.5 391 Q 166.7 391.7 168.5 389 Z "></path><path fill="rgb(0,236,90)" stroke="rgb(0,236,90)" stroke-width="1" opacity="0.996078431372549" d="M 83.5 393 L 87 395.5 L 85.5 396 L 83 395 L 83.5 393 Z "></path><path fill="rgb(0,236,90)" stroke="rgb(0,236,90)" stroke-width="1" opacity="0.996078431372549" d="M 105.5 393 Q 108.8 391.9 108 394.5 L 108.5 396 Q 100.9 397.5 102 394 L 105.5 393 Z "></path><path fill="rgb(0,236,90)" stroke="rgb(0,236,90)" stroke-width="1" opacity="0.996078431372549" d="M 97.5 394 L 101 395.5 L 96.5 396 L 97.5 394 Z "></path><path fill="rgb(0,236,90)" stroke="rgb(0,236,90)" stroke-width="1" opacity="0.996078431372549" d="M 88.5 395 L 95 395.5 L 92.5 397 L 88.5 396 L 88.5 395 Z "></path></svg>