<svg width="400" height="400" version="1.1" xmlns="http://www.w3.org/2000/svg" desc="Created with imagetracer.js version 1.2.5"><path fill="rgb(0,0,0)" stroke="rgb(0,0,0)" stroke-width="1" opacity="0" d="M 0 0 L 227 0.5 L 225 1 Q 226.1 3.7 223.5 3 L 213 6 L 213 8 Q 210.3 6.9 211 9.5 L 210.5 11 L 237.5 0 L 241.5 0 L 233.5 9 L 202 37.5 L 193.5 48 L 173.5 67 L 172 67 Q 173.1 69.7 170.5 69 L 118 116.5 Q 118.8 118.8 116.5 118 L 107 126 Q 108.1 128.7 105.5 128 L 73 158.5 Q 70.2 161.2 71 167.5 L 55.5 183 Q 41.8 190.8 32 202.5 Q 18.7 217.2 11 237.5 L 5 261.5 L 4 280.5 L 5 281.5 L 5 291.5 L 8 305.5 L 15 325.5 L 17 327.5 L 15 328 L 16 332.5 L 15 335.5 L 16 337.5 L 14 340.5 L 17 346.5 L 16 349.5 L 18 351.5 L 19 355.5 Q 16.5 357 20 358.5 L 21 365 L 24 366.5 Q 23.3 369.1 26 368 L 26 370.5 L 29 375 L 38 379 L 38 381 L 41 381 Q 39.5 384.8 42.5 384 L 44.5 383 L 55.5 387 L 57.5 386 L 63 387 L 63.5 389 L 71.5 389 L 75.5 387 L 78 388 Q 76.7 384.7 81.5 386 L 83.5 386 L 85.5 385 L 88 386.5 Q 87.2 383.9 90.5 385 L 101.5 388 L 120.5 389 L 121.5 388 L 131.5 388 L 152.5 383 L 174.5 372 L 179.5 371 L 181.5 372 L 185.5 370 L 188 371 Q 186.7 367.7 191.5 369 L 199 364.5 L 199 363 L 201 363 Q 199.9 360.3 202.5 361 L 205 357 L 210 353.5 Q 209.3 351.3 211.5 352 L 215 347 L 217 347 Q 215.9 344.3 218.5 345 L 221 341 L 226 337.5 Q 225.3 335.3 227.5 336 L 231 331 L 237 327.5 L 239 324.5 L 242 320 L 247 316.5 Q 246.3 314.3 248.5 315 L 252 310 L 254 310 Q 252.9 307.3 255.5 308 L 258 304 L 263 300.5 Q 262.3 298.3 264.5 299 L 268 294 L 270 294 Q 268.9 291.3 271.5 292 L 274.5 288 L 276 288.5 L 279 283 L 284 279.5 Q 283.3 277.3 285.5 278 L 290 272 L 295 268.5 Q 294.3 266.3 296.5 267 L 300 262 L 305 258.5 L 305 257 L 307 257 Q 305.9 254.3 308.5 255 L 311 251 L 316 247.5 Q 315.3 245.3 317.5 246 L 321 241 L 323 241 Q 321.9 238.3 324.5 239 L 327 235 L 332 231.5 Q 331.3 229.3 333.5 230 L 337 225 L 339 225 Q 337.9 222.3 340.5 223 L 342.5 222 L 344 222.5 L 345 219 L 348 219 L 348 217 L 351 217 Q 349.8 214 353.5 215 L 357 212.5 L 359 209.5 L 361 209.5 Q 360.2 206.5 364 208 L 364 206 L 366.5 206 L 370 205 Q 368.9 202.3 371.5 203 L 373 200 L 376 200 Q 374.8 197 378.5 198 L 380.5 197 L 382 197.5 L 383 194 Q 385.7 195.1 385 192.5 L 390 188.5 Q 389.3 186.3 391.5 187 L 393 183 L 397 182 L 397 178 Q 400 179.3 399 175.5 L 400 175.5 L 400 400 L 0 400 L 0 0 Z M 208 11 L 208 12 L 210 12 L 208 11 Z "></path><path fill="rgb(0,0,0)" stroke="rgb(0,0,0)" stroke-width="1" opacity="0" d="M 302.5 0 L 311 0.5 L 307.5 2 L 302.5 1 L 302.5 0 Z "></path><path fill="rgb(0,0,0)" stroke="rgb(0,0,0)" stroke-width="1" opacity="0" d="M 345.5 0 L 400 0 L 400 72.5 L 399 72.5 L 398 63.5 L 396 61.5 L 390 43 Q 387.3 44.1 388 41.5 L 385 34 Q 382.3 35.1 383 32.5 L 374 18 L 368 14.5 Q 368.8 12.3 366.5 13 L 362 11 L 362 9 L 360 9 Q 361.1 6.3 358.5 7 L 354 6 L 354 4 L 350 4 Q 351.3 1 347.5 2 L 345.5 0 Z "></path><path fill="rgb(148,148,148)" stroke="rgb(148,148,148)" stroke-width="1" opacity="0.25882352941176473" d="M 311.5 0 L 336.5 0 L 344.5 3 L 360.5 12 L 376 26.5 Q 391.7 46.3 399 74.5 Q 397.5 80 400 81.5 L 400 151.5 L 398.5 151 L 394.5 149 L 391 151.5 L 397 131.5 L 399 110.5 L 398 109.5 L 397 91.5 L 388 63.5 Q 377.9 42.6 361.5 28 L 340.5 13 L 327.5 7 L 310 1.5 L 311.5 0 Z "></path><path fill="rgb(148,148,148)" stroke="rgb(148,148,148)" stroke-width="1" opacity="0.25882352941176473" d="M 171.5 69 L 163.5 78 L 77 156.5 L 72.5 167 Q 69.8 165.8 72 164.5 L 71 162.5 L 78.5 153 L 80 153 L 80 151 L 82 151 L 82 149 Q 84.7 150.1 84 147.5 L 90 143.5 L 91.5 141 Q 93.8 141.8 93 139.5 L 104 130.5 L 105.5 128 L 108.5 126 L 118 117.5 L 119.5 115 L 125 112 Q 123.9 109.3 126.5 110 L 137 100.5 L 139.5 97 L 149 89.5 Q 148.3 87.3 150.5 88 L 160 79.5 Q 159.3 77.3 161.5 78 L 171.5 69 Z "></path><path fill="rgb(148,148,148)" stroke="rgb(148,148,148)" stroke-width="1" opacity="0.25882352941176473" d="M 278.5 78 L 281 79.5 Q 278.9 87.4 272.5 91 L 272 89.5 L 273 84.5 L 278.5 78 Z "></path><path fill="rgb(148,148,148)" stroke="rgb(148,148,148)" stroke-width="1" opacity="0.25882352941176473" d="M 288.5 260 L 283.5 266 L 288.5 260 Z "></path><path fill="rgb(148,148,148)" stroke="rgb(148,148,148)" stroke-width="1" opacity="0.25882352941176473" d="M 279.5 270 L 270.5 280 L 279.5 270 Z "></path><path fill="rgb(148,148,148)" stroke="rgb(148,148,148)" stroke-width="1" opacity="0.25882352941176473" d="M 267.5 283 L 259 292.5 L 247.5 305 L 258 293.5 L 267.5 283 Z "></path><path fill="rgb(148,148,148)" stroke="rgb(148,148,148)" stroke-width="1" opacity="0.25882352941176473" d="M 246.5 306 L 237.5 316 L 230.5 319 L 230.5 318 Q 241.3 314.8 246.5 306 Z "></path><path fill="rgb(143,143,143)" stroke="rgb(143,143,143)" stroke-width="1" opacity="0.8823529411764706" d="M 262.5 40 L 263 43.5 L 262 45.5 L 264 45.5 L 214.5 91 L 215 89.5 L 216 84 L 217.5 84 L 252 51.5 L 259 41 L 262.5 40 Z "></path><path fill="rgb(143,143,143)" stroke="rgb(143,143,143)" stroke-width="1" opacity="0.8823529411764706" d="M 256.5 42 L 249 50.5 L 244.5 56 L 239 59 L 237.5 62 Q 235.3 61.3 236 63.5 L 224 72 L 221.5 76 L 220 75.5 Q 226.5 63.5 236.5 55 L 256.5 42 Z "></path><path fill="rgb(143,143,143)" stroke="rgb(143,143,143)" stroke-width="1" opacity="0.8823529411764706" d="M 191.5 52 L 190 54.5 L 187 60.5 L 75.5 173 L 74 165.5 L 96.5 143 L 98 143 L 100.5 139 L 191.5 52 Z "></path><path fill="rgb(143,143,143)" stroke="rgb(143,143,143)" stroke-width="1" opacity="0.8823529411764706" d="M 287.5 75 L 291 75.5 L 284.5 78 L 285.5 76 L 287.5 75 Z "></path><path fill="rgb(143,143,143)" stroke="rgb(143,143,143)" stroke-width="1" opacity="0.8823529411764706" d="M 293.5 75 Q 298.6 74.4 300 77.5 L 298.5 77 L 293.5 76 L 293.5 75 Z "></path><path fill="rgb(143,143,143)" stroke="rgb(143,143,143)" stroke-width="1" opacity="0.8823529411764706" d="M 177.5 84 L 178 86.5 L 175 95.5 L 176 97.5 Q 173.3 95.6 170.5 101 L 125.5 143 L 124 143 L 121 147.5 L 122.5 148 L 135 136.5 Q 134.3 134.3 136.5 135 L 150 122.5 L 154.5 117 L 160 114 L 165.5 107 L 171 104 L 174.5 99 L 175 116 L 172.5 116 Q 166.9 123.2 159 127 L 157.5 130 L 155 131.5 Q 155.8 133.8 153.5 133 L 144 140 L 142.5 143 Q 136.4 144.4 134 149.5 Q 134.8 151.8 132.5 151 L 130 152 L 127.5 156 Q 125.3 155.3 126 157.5 L 121.5 165 L 103.5 165 L 95.5 167 L 103 158.5 L 127.5 133 L 177.5 84 Z M 120 148 Q 114 153 111 162 Q 109 163 112 164 L 115 162 Q 115 154 121 150 Q 122 147 120 148 Z "></path><path fill="rgb(143,143,143)" stroke="rgb(143,143,143)" stroke-width="1" opacity="0.8823529411764706" d="M 305.5 88 L 306 91.5 L 305 91.5 L 305.5 88 Z "></path><path fill="rgb(143,143,143)" stroke="rgb(143,143,143)" stroke-width="1" opacity="0.8823529411764706" d="M 302.5 98 L 300.5 101 L 302.5 98 Z "></path><path fill="rgb(143,143,143)" stroke="rgb(143,143,143)" stroke-width="1" opacity="0.8823529411764706" d="M 319.5 153 L 318.5 155 L 319.5 153 Z "></path><path fill="rgb(143,143,143)" stroke="rgb(143,143,143)" stroke-width="1" opacity="0.8823529411764706" d="M 300.5 162 L 299.5 164 L 300.5 162 Z "></path><path fill="rgb(143,143,143)" stroke="rgb(143,143,143)" stroke-width="1" opacity="0.8823529411764706" d="M 294.5 167 L 293 169.5 Q 293.8 171.8 291.5 171 Q 290.3 173.3 289 170.5 Q 290.3 167.8 291.5 170 L 294.5 167 Z "></path><path fill="rgb(143,143,143)" stroke="rgb(143,143,143)" stroke-width="1" opacity="0.8823529411764706" d="M 287.5 173 L 285.5 176 L 287.5 173 Z "></path><path fill="rgb(143,143,143)" stroke="rgb(143,143,143)" stroke-width="1" opacity="0.8823529411764706" d="M 280.5 176 L 278.5 179 L 280.5 176 Z "></path><path fill="rgb(143,143,143)" stroke="rgb(143,143,143)" stroke-width="1" opacity="0.8823529411764706" d="M 183.5 177 L 186 177.5 L 178.5 182 L 180.5 179 L 183.5 177 Z "></path><path fill="rgb(143,143,143)" stroke="rgb(143,143,143)" stroke-width="1" opacity="0.8823529411764706" d="M 284.5 177 L 286 177.5 L 282 180.5 L 279 186 L 277 185.5 L 284.5 177 Z "></path><path fill="rgb(143,143,143)" stroke="rgb(143,143,143)" stroke-width="1" opacity="0.8823529411764706" d="M 283.5 183 L 282.5 185 L 283.5 183 Z "></path><path fill="rgb(143,143,143)" stroke="rgb(143,143,143)" stroke-width="1" opacity="0.8823529411764706" d="M 208.5 191 L 210.5 194 L 208.5 191 Z "></path><path fill="rgb(143,143,143)" stroke="rgb(143,143,143)" stroke-width="1" opacity="0.8823529411764706" d="M 204.5 196 L 205 197.5 L 200.5 203 L 203 199.5 L 204.5 196 Z "></path><path fill="rgb(143,143,143)" stroke="rgb(143,143,143)" stroke-width="1" opacity="0.8823529411764706" d="M 242.5 214 L 243 215.5 L 242.5 217 L 247.5 216 L 248 218 L 238.5 226 L 235.5 226 L 234 222.5 L 237.5 218 L 242.5 214 Z "></path><path fill="rgb(143,143,143)" stroke="rgb(143,143,143)" stroke-width="1" opacity="0.8823529411764706" d="M 328.5 215 L 324.5 220 L 328.5 215 Z "></path><path fill="rgb(143,143,143)" stroke="rgb(143,143,143)" stroke-width="1" opacity="0.8823529411764706" d="M 322.5 221 L 323 222.5 L 269.5 279 L 267 280.5 Q 267.8 282.8 265.5 282 L 264 285 L 262 285.5 L 262.5 287 Q 261.2 284.8 260 287.5 L 260.5 289 Q 259 286.5 257.5 290 L 255.5 291 L 256.5 289 L 261 285.5 L 322.5 221 Z "></path><path fill="rgb(143,143,143)" stroke="rgb(143,143,143)" stroke-width="1" opacity="0.8823529411764706" d="M 253 292 L 255 292.5 L 253 293.5 L 253 292 Z "></path><path fill="rgb(143,143,143)" stroke="rgb(143,143,143)" stroke-width="1" opacity="0.8823529411764706" d="M 251.5 294 L 252 295.5 L 250 296.5 L 251.5 294 Z "></path><path fill="rgb(143,143,143)" stroke="rgb(143,143,143)" stroke-width="1" opacity="0.8823529411764706" d="M 248.5 298 L 246.5 301 L 248.5 298 Z "></path><path fill="rgb(143,143,143)" stroke="rgb(143,143,143)" stroke-width="1" opacity="0.8823529411764706" d="M 243.5 303 L 242.5 305 L 243.5 303 Z "></path><path fill="rgb(143,143,143)" stroke="rgb(143,143,143)" stroke-width="1" opacity="0.8823529411764706" d="M 240.5 306 L 236 311.5 L 234.5 314 Q 222 320 214.5 331 L 215 329.5 L 221.5 315 L 228.5 317 L 240.5 306 Z "></path><path fill="rgb(146,147,147)" stroke="rgb(146,147,147)" stroke-width="1" opacity="0.8823529411764706" d="M 286.5 36 L 287.5 37 L 298.5 37 L 307.5 39 Q 320.9 42.6 330 50.5 L 305 76.5 L 312 80 Q 310.9 82.7 313.5 82 L 338.5 57 L 341 59.5 Q 351.1 69.9 357 84.5 L 361 99.5 L 361 119 L 352.5 120 L 340.5 127 Q 320.6 149.1 297 167.5 L 297 169 Q 293.3 167.5 294 170.5 L 291 172 L 289.5 175 L 287 176.5 L 286.5 178 Q 282.7 175.7 288 173.5 L 299 158.5 L 278 178.5 L 272.5 185 L 265.5 184 L 254.5 180 L 235 166.5 L 280.5 119 L 303 98.5 Q 306.5 95 306 87.5 L 311 81 L 296.5 75 L 287.5 75 Q 284.9 78.4 277.5 77 L 272 82.5 Q 269.3 84.8 270 90.5 L 263 101.5 L 226.5 138 L 218 144 L 212 123.5 L 212 103.5 L 278.5 37 Q 284.8 38.8 286.5 36 Z M 349 91 L 347 94 L 349 93 L 349 91 Z M 346 96 L 344 99 L 346 98 L 346 96 Z M 293 169 L 291 171 L 293 171 L 293 169 Z "></path><path fill="rgb(146,147,147)" stroke="rgb(146,147,147)" stroke-width="1" opacity="0.8823529411764706" d="M 269.5 38 L 271 38.5 L 262.5 46 L 262 44.5 L 263 40 L 269.5 38 Z "></path><path fill="rgb(146,147,147)" stroke="rgb(146,147,147)" stroke-width="1" opacity="0.8823529411764706" d="M 257.5 42 L 259 42.5 L 243.5 60 Q 228.7 70.2 217.5 84 L 217 82.5 L 220 76 L 224 73.5 Q 223.3 71.3 225.5 72 L 236 63.5 Q 235.3 61.3 237.5 62 L 239 59 L 249 51.5 L 257.5 42 Z "></path><path fill="rgb(146,147,147)" stroke="rgb(146,147,147)" stroke-width="1" opacity="0.8823529411764706" d="M 261.5 47 L 260.5 49 L 261.5 47 Z "></path><path fill="rgb(146,147,147)" stroke="rgb(146,147,147)" stroke-width="1" opacity="0.8823529411764706" d="M 243.5 64 L 240.5 68 L 243.5 64 Z "></path><path fill="rgb(146,147,147)" stroke="rgb(146,147,147)" stroke-width="1" opacity="0.8823529411764706" d="M 221.5 85 L 219.5 88 L 221.5 85 Z "></path><path fill="rgb(146,147,147)" stroke="rgb(146,147,147)" stroke-width="1" opacity="0.8823529411764706" d="M 216.5 89 L 214.5 92 L 216.5 89 Z "></path><path fill="rgb(146,147,147)" stroke="rgb(146,147,147)" stroke-width="1" opacity="0.8823529411764706" d="M 174.5 97 L 175 98.5 L 171 104 L 160 112.5 Q 160.8 114.8 158.5 114 L 150 121.5 L 148.5 124 L 135 135 L 133.5 138 L 121 148 L 116 156.5 L 115 162 L 111.5 164 Q 108.8 162.8 111 161.5 Q 113.5 153 119.5 148 L 124 144.5 Q 123.3 142.3 125.5 143 L 174.5 97 Z "></path><path fill="rgb(146,147,147)" stroke="rgb(146,147,147)" stroke-width="1" opacity="0.8823529411764706" d="M 172.5 116 L 175 116.5 L 175 125.5 L 176 130 L 174.5 130 L 141 162.5 L 143 167.5 L 141.5 167 L 122 164.5 L 126 156 L 130 153.5 Q 129.3 151.3 131.5 152 L 134 151 L 139.5 144 L 144 141.5 Q 143.3 139.3 145.5 140 Q 149 134.7 155 133 L 156.5 130 L 159 128.5 Q 158.3 126.3 160.5 127 L 172.5 116 Z "></path><path fill="rgb(146,147,147)" stroke="rgb(146,147,147)" stroke-width="1" opacity="0.8823529411764706" d="M 119.5 120 L 101.5 139 L 119.5 120 Z "></path><path fill="rgb(146,147,147)" stroke="rgb(146,147,147)" stroke-width="1" opacity="0.8823529411764706" d="M 177.5 138 Q 182.1 157.4 192 171.5 L 186.5 177 L 183.5 177 L 178 181.5 L 177.5 183 Q 164.6 172.9 146 168.5 L 177.5 138 Z "></path><path fill="rgb(146,147,147)" stroke="rgb(146,147,147)" stroke-width="1" opacity="0.8823529411764706" d="M 283.5 179 L 284 181 L 282 180.5 L 283.5 179 Z "></path><path fill="rgb(146,147,147)" stroke="rgb(146,147,147)" stroke-width="1" opacity="0.8823529411764706" d="M 281.5 182 L 279.5 185 L 281.5 182 Z "></path><path fill="rgb(146,147,147)" stroke="rgb(146,147,147)" stroke-width="1" opacity="0.8823529411764706" d="M 207.5 194 Q 211.9 192.5 211 195.5 L 202.5 205 L 201 202.5 L 207.5 194 Z "></path><path fill="rgb(146,147,147)" stroke="rgb(146,147,147)" stroke-width="1" opacity="0.8823529411764706" d="M 219.5 202 L 242 214.5 L 235 219.5 L 234.5 221 L 233.5 218 L 218.5 230 L 209 212.5 L 219.5 202 Z "></path><path fill="rgb(146,147,147)" stroke="rgb(146,147,147)" stroke-width="1" opacity="0.8823529411764706" d="M 106.5 256 L 102.5 261 L 106.5 256 Z "></path><path fill="rgb(146,147,147)" stroke="rgb(146,147,147)" stroke-width="1" opacity="0.8823529411764706" d="M 268.5 279 L 267.5 281 L 268.5 279 Z "></path><path fill="rgb(146,147,147)" stroke="rgb(146,147,147)" stroke-width="1" opacity="0.8823529411764706" d="M 265.5 282 L 264.5 284 L 265.5 282 Z "></path><path fill="rgb(146,147,147)" stroke="rgb(146,147,147)" stroke-width="1" opacity="0.8823529411764706" d="M 262.5 285 L 260 288.5 L 239.5 311 L 236.5 312 L 241 306.5 Q 240.3 304.3 242.5 305 L 245.5 301 L 249 298.5 Q 248.3 296.3 250.5 297 L 252 294 L 255 292.5 L 256.5 290 L 262.5 285 Z "></path><path fill="rgb(140,140,140)" stroke="rgb(140,140,140)" stroke-width="1" opacity="0.9921568627450981" d="M 276.5 5 Q 284.1 3.9 287 7.5 L 267.5 10 L 267.5 9 L 276.5 5 Z "></path><path fill="rgb(140,140,140)" stroke="rgb(140,140,140)" stroke-width="1" opacity="0.9921568627450981" d="M 293.5 8 L 298 8.5 L 293.5 9 L 293.5 8 Z "></path><path fill="rgb(140,140,140)" stroke="rgb(140,140,140)" stroke-width="1" opacity="0.9921568627450981" d="M 302.5 9 L 306 9.5 L 302.5 10 L 302.5 9 Z "></path><path fill="rgb(140,140,140)" stroke="rgb(140,140,140)" stroke-width="1" opacity="0.9921568627450981" d="M 314.5 9 L 331.5 9 L 341.5 14 Q 359.9 24.6 373 40.5 L 379 48.5 L 388 68.5 L 391 79.5 L 391 86.5 L 396 94.5 L 396 104.5 Q 391.2 110.7 393 123.5 L 394 124.5 L 395 138.5 L 391 151.5 L 355.5 189 L 342 201.5 L 329.5 215 L 323 219.5 L 323.5 221 L 322.5 220 L 304 238.5 Q 306.3 239.7 303.5 241 L 302.5 240 L 299 243.5 L 299.5 245 L 298.5 244 L 291 251.5 L 291.5 253 L 290.5 252 L 284 258.5 Q 284.8 260.8 282.5 260 L 278.5 265 L 275.5 267 L 274 270 Q 271.3 268.9 272 271.5 L 269 273 Q 270.1 275.7 267.5 275 L 264 280 L 260 282.5 Q 260.8 284.8 258.5 284 L 254.5 289 L 250 292.5 Q 250.8 294.8 248.5 294 L 243.5 300 L 240.5 302 L 231 310.5 L 233 311.5 L 230 313.5 L 229 317 L 222 316 L 218 309.5 L 218 301.5 L 222 293.5 L 219 291.5 Q 215.4 317.4 202.5 334 L 203 332.5 Q 208.3 312.3 217 295.5 L 217 289.5 L 219 287.5 Q 217.5 280 220 276.5 L 218 275.5 L 216.5 285 L 214 275.5 L 214 269.5 L 212 265.5 L 209 250.5 L 211 238 Q 213.7 236.9 213 239.5 L 215.5 246 L 216 242.5 L 206 218.5 L 198 208.5 L 198 204.5 L 200.5 203 Q 214.4 217.6 222 238.5 L 227 256.5 L 228 276.5 L 229 277.5 L 228 278.5 L 228 289.5 L 229 289.5 L 249.5 268 Q 251.8 268.8 251 266.5 L 268 249.5 L 268 248 L 273 244.5 L 293 223.5 L 266.5 222 Q 263.6 219.4 257.5 220 L 247 215.5 L 250.5 211 L 245.5 215 L 243.5 215 Q 222.4 206.1 208 190.5 L 230.5 168 L 234.5 166 Q 245.3 177.2 261.5 183 L 272.5 186 L 289.5 187 L 290.5 186 L 304.5 185 L 318.5 180 Q 331.5 173.5 341 163.5 Q 351.1 153.1 357 138.5 L 361 124.5 L 362 105.5 L 359 89.5 L 352 73.5 Q 344.8 61.8 334.5 53 Q 323.6 43.9 308.5 39 L 292.5 36 L 280.5 36 L 264.5 39 L 250.5 45 Q 238.5 51.5 230 61.5 Q 220.4 71.9 215 86.5 L 212 97.5 L 211 117.5 L 214 133.5 L 219 145.5 L 199 164.5 L 212 151.5 L 212 149.5 Q 203.2 135.3 202.5 113 L 185 131.5 Q 188.9 151.1 198 165.5 L 192.5 171 L 190 168.5 L 181 149.5 L 177 134.5 L 175 124.5 L 175 98.5 L 178 82.5 L 168.5 91 L 87 167.5 L 90.5 168 L 103.5 165 L 129.5 165 L 139 167.5 L 132 173.5 L 135 174.5 L 132.5 175 L 131.5 174 L 116.5 173 L 114 174 L 111 178.5 L 111 181.5 L 113 185 L 160.5 202 L 163 200.5 Q 162.5 204.5 157.5 204 L 148.5 199 L 136.5 195 L 125.5 193 L 108.5 193 L 107.5 194 L 96.5 195 L 81.5 201 L 84.5 197 L 94 192 Q 95.3 189 91.5 190 L 90.5 189 L 79.5 189 L 77.5 189 L 61.5 194 L 55.5 194 L 57.5 191 L 75.5 181 L 83 179 Q 84.3 176 80.5 177 L 76 173.5 L 81.5 166 L 186 62.5 L 194.5 49 L 228.5 18 L 235.5 14 L 243.5 14 L 246 15 Q 247.1 17.7 244.5 17 L 236 21 L 237 32.5 Q 231.2 44.7 220.5 52 L 215.5 56 L 187 83.5 L 184 96.5 L 183 116.5 L 184.5 121 L 199.5 105 L 186.5 116 L 204 97.5 L 207 83.5 L 214 68.5 Q 222.1 55.6 233.5 46 Q 245.3 36.3 261.5 31 L 276.5 28 L 297.5 28 L 307.5 30 L 321.5 35 L 337.5 45 Q 338 39.5 342.5 38 L 348 45 L 343 48.5 Q 355 60.5 363 76.5 L 369 94.5 L 370 114.5 L 371.5 116 L 377 119 L 381 127 L 385 124.5 L 389 118.5 L 390 105.5 L 386 83.5 L 377 61.5 Q 367.9 44.7 353.5 33 Q 342.6 23.4 328.5 17 L 307 10.5 L 314.5 9 Z M 112 167 L 106 173 L 116 173 L 113 170 Q 114 166 112 167 Z M 228 172 L 215 186 Q 225 197 241 204 L 244 204 L 260 192 L 246 185 L 228 172 Z M 253 209 L 251 211 L 253 211 L 253 209 Z "></path><path fill="rgb(140,140,140)" stroke="rgb(140,140,140)" stroke-width="1" opacity="0.9921568627450981" d="M 140.5 168 L 154.5 171 L 177 182 L 176.5 184 L 168.5 184 L 162 178.5 L 160.5 176 L 149.5 179 L 149.5 177 L 146.5 178 L 146.5 176 L 142 172.5 L 140.5 168 Z "></path><path fill="rgb(140,140,140)" stroke="rgb(140,140,140)" stroke-width="1" opacity="0.9921568627450981" d="M 53.5 194 L 52.5 196 L 53.5 194 Z "></path><path fill="rgb(140,140,140)" stroke="rgb(140,140,140)" stroke-width="1" opacity="0.9921568627450981" d="M 49.5 197 L 45.5 202 L 49.5 197 Z "></path><path fill="rgb(140,140,140)" stroke="rgb(140,140,140)" stroke-width="1" opacity="0.9921568627450981" d="M 73.5 204 L 72.5 206 L 73.5 204 Z "></path><path fill="rgb(140,140,140)" stroke="rgb(140,140,140)" stroke-width="1" opacity="0.9921568627450981" d="M 41.5 205 L 37.5 210 L 41.5 205 Z "></path><path fill="rgb(140,140,140)" stroke="rgb(140,140,140)" stroke-width="1" opacity="0.9921568627450981" d="M 61.5 205 L 66.5 209 L 68 208.5 L 57 217 L 44 234.5 L 37 249.5 L 34 260.5 L 32.5 280 L 30 266.5 L 30 264.5 L 31 256.5 L 35 246.5 L 50 223.5 L 57 209.5 L 61.5 205 Z "></path><path fill="rgb(140,140,140)" stroke="rgb(140,140,140)" stroke-width="1" opacity="0.9921568627450981" d="M 70.5 206 L 69.5 208 L 70.5 206 Z "></path><path fill="rgb(140,140,140)" stroke="rgb(140,140,140)" stroke-width="1" opacity="0.9921568627450981" d="M 192.5 206 L 195.5 210 L 192.5 206 Z "></path><path fill="rgb(140,140,140)" stroke="rgb(140,140,140)" stroke-width="1" opacity="0.9921568627450981" d="M 34.5 213 L 33.5 215 L 34.5 213 Z "></path><path fill="rgb(140,140,140)" stroke="rgb(140,140,140)" stroke-width="1" opacity="0.9921568627450981" d="M 198.5 213 L 199.5 215 L 198.5 213 Z "></path><path fill="rgb(140,140,140)" stroke="rgb(140,140,140)" stroke-width="1" opacity="0.9921568627450981" d="M 181.5 217 L 187 225 Q 189.7 223.9 189 226.5 L 195 235.5 L 195 239.5 L 201 253.5 L 201 255.5 L 199.5 268 Q 196 237 178 220.5 L 181.5 217 Z "></path><path fill="rgb(140,140,140)" stroke="rgb(140,140,140)" stroke-width="1" opacity="0.9921568627450981" d="M 204.5 222 L 205.5 224 L 204.5 222 Z "></path><path fill="rgb(140,140,140)" stroke="rgb(140,140,140)" stroke-width="1" opacity="0.9921568627450981" d="M 13.5 265 L 14 269.5 L 13 269.5 L 13.5 265 Z "></path><path fill="rgb(140,140,140)" stroke="rgb(140,140,140)" stroke-width="1" opacity="0.9921568627450981" d="M 13.5 283 L 14 287.5 L 13 287.5 L 13.5 283 Z "></path><path fill="rgb(140,140,140)" stroke="rgb(140,140,140)" stroke-width="1" opacity="0.9921568627450981" d="M 33.5 285 L 34 288.5 L 33 288.5 L 33.5 285 Z "></path><path fill="rgb(140,140,140)" stroke="rgb(140,140,140)" stroke-width="1" opacity="0.9921568627450981" d="M 199.5 285 L 200 288.5 L 199 288.5 L 199.5 285 Z "></path><path fill="rgb(140,140,140)" stroke="rgb(140,140,140)" stroke-width="1" opacity="0.9921568627450981" d="M 197.5 296 L 198 298.5 L 197 298.5 L 197.5 296 Z "></path><path fill="rgb(140,140,140)" stroke="rgb(140,140,140)" stroke-width="1" opacity="0.9921568627450981" d="M 191.5 313 L 192 314.5 L 177 343.5 Q 177.6 349.7 175 352 L 165.5 354 L 151.5 360 L 132.5 363 L 123.5 367 L 104.5 367 L 80.5 362 L 78.5 362 L 67.5 362 L 56.5 359 L 57.5 362 Q 53.8 360 55.5 358 L 53.5 359 L 38 344.5 L 46 350.5 Q 41.6 345.3 43 334.5 L 45 325.5 L 42 315.5 L 43 315.5 Q 49.5 329.5 60.5 339 Q 73.5 351 92.5 357 L 106.5 360 L 125.5 360 L 140.5 357 L 148.5 354 Q 165.4 346.9 177 334.5 Q 185.9 325.4 191.5 313 Z "></path><path fill="rgb(140,140,140)" stroke="rgb(140,140,140)" stroke-width="1" opacity="0.9921568627450981" d="M 31.5 335 L 32.5 337 L 31.5 335 Z "></path><path fill="rgb(140,140,140)" stroke="rgb(140,140,140)" stroke-width="1" opacity="0.9921568627450981" d="M 201.5 335 L 199.5 338 L 201.5 335 Z "></path><path fill="rgb(140,140,140)" stroke="rgb(140,140,140)" stroke-width="1" opacity="0.9921568627450981" d="M 33.5 338 L 35.5 341 L 33.5 338 Z "></path><path fill="rgb(140,140,140)" stroke="rgb(140,140,140)" stroke-width="1" opacity="0.9921568627450981" d="M 198.5 339 L 196.5 342 L 198.5 339 Z "></path><path fill="rgb(140,140,140)" stroke="rgb(140,140,140)" stroke-width="1" opacity="0.9921568627450981" d="M 194.5 344 L 184.5 355 L 194.5 344 Z "></path><path fill="rgb(140,140,140)" stroke="rgb(140,140,140)" stroke-width="1" opacity="0.9921568627450981" d="M 180.5 357 L 178.5 360 L 180.5 357 Z "></path><path fill="rgb(140,140,140)" stroke="rgb(140,140,140)" stroke-width="1" opacity="0.9921568627450981" d="M 176.5 360 L 175.5 362 L 176.5 360 Z "></path><path fill="rgb(140,140,140)" stroke="rgb(140,140,140)" stroke-width="1" opacity="0.9921568627450981" d="M 59.5 362 L 60.5 364 L 59.5 362 Z "></path><path fill="rgb(140,140,140)" stroke="rgb(140,140,140)" stroke-width="1" opacity="0.9921568627450981" d="M 62.5 364 L 63.5 366 L 62.5 364 Z "></path><path fill="rgb(140,140,140)" stroke="rgb(140,140,140)" stroke-width="1" opacity="0.9921568627450981" d="M 98.5 378 L 101 378.5 L 98.5 379 L 98.5 378 Z "></path><path fill="rgb(140,140,140)" stroke="rgb(140,140,140)" stroke-width="1" opacity="0.9921568627450981" d="M 105.5 379 L 110 379.5 L 105.5 380 L 105.5 379 Z "></path><path fill="rgb(140,140,140)" stroke="rgb(140,140,140)" stroke-width="1" opacity="0.9921568627450981" d="M 123.5 379 L 128 379.5 L 123.5 380 L 123.5 379 Z "></path><path fill="rgb(147,147,147)" stroke="rgb(147,147,147)" stroke-width="1" opacity="0.9490196078431372" d="M 279.5 8 L 301.5 9 L 311.5 11 L 328.5 17 Q 351.5 28 367 46.5 L 382 71.5 L 388 90.5 L 390 114.5 L 389 118.5 L 382.5 127 Q 380.3 127.8 381 125.5 L 377 119 L 370 114.5 L 369 94.5 L 363 76.5 Q 355 60.5 343 48.5 L 348 45 L 342.5 38 Q 338 39.5 337.5 45 Q 325.2 34.8 307.5 30 L 297.5 28 L 276.5 28 L 261.5 31 L 243.5 39 Q 231 46.5 222 57.5 Q 208 72.5 204 97.5 L 191 110.5 L 192.5 111 L 202.5 102 L 184.5 121 Q 181.9 116.1 183 107.5 L 184 106.5 L 184 96.5 L 187 83.5 L 199.5 71 L 215.5 56 L 217 56 L 217 54 L 219 54 Q 217.9 51.3 220.5 52 L 236 35.5 L 237 25.5 L 236 21 L 257.5 12 L 279.5 8 Z "></path><path fill="rgb(147,147,147)" stroke="rgb(147,147,147)" stroke-width="1" opacity="0.9490196078431372" d="M 280.5 36 L 286 36.5 L 280.5 37 L 280.5 36 Z "></path><path fill="rgb(147,147,147)" stroke="rgb(147,147,147)" stroke-width="1" opacity="0.9490196078431372" d="M 287.5 36 L 293 36.5 L 287.5 37 L 287.5 36 Z "></path><path fill="rgb(147,147,147)" stroke="rgb(147,147,147)" stroke-width="1" opacity="0.9490196078431372" d="M 272.5 37 L 278 37.5 L 212 102.5 Q 211 91.1 218.5 88 L 272.5 37 Z "></path><path fill="rgb(147,147,147)" stroke="rgb(147,147,147)" stroke-width="1" opacity="0.9490196078431372" d="M 330.5 50 L 338 56.5 L 313.5 82 L 310.5 80 L 305 76.5 L 330.5 50 Z "></path><path fill="rgb(147,147,147)" stroke="rgb(147,147,147)" stroke-width="1" opacity="0.9490196078431372" d="M 341.5 60 L 343.5 63 L 341.5 60 Z "></path><path fill="rgb(147,147,147)" stroke="rgb(147,147,147)" stroke-width="1" opacity="0.9490196078431372" d="M 185.5 62 L 82.5 166 L 185.5 62 Z "></path><path fill="rgb(147,147,147)" stroke="rgb(147,147,147)" stroke-width="1" opacity="0.9490196078431372" d="M 346.5 66 L 347.5 68 L 346.5 66 Z "></path><path fill="rgb(147,147,147)" stroke="rgb(147,147,147)" stroke-width="1" opacity="0.9490196078431372" d="M 178.5 81 L 178 82.5 L 128.5 133 L 103 157.5 L 94.5 167 L 85.5 169 L 85.5 168 L 89.5 166 Q 132.4 121.9 178.5 81 Z "></path><path fill="rgb(147,147,147)" stroke="rgb(147,147,147)" stroke-width="1" opacity="0.9490196078431372" d="M 297.5 102 L 281.5 119 L 297.5 102 Z "></path><path fill="rgb(147,147,147)" stroke="rgb(147,147,147)" stroke-width="1" opacity="0.9490196078431372" d="M 361.5 105 L 362 116.5 L 361 116.5 L 361.5 105 Z "></path><path fill="rgb(147,147,147)" stroke="rgb(147,147,147)" stroke-width="1" opacity="0.9490196078431372" d="M 211.5 106 L 212 117.5 L 211 117.5 L 211.5 106 Z "></path><path fill="rgb(147,147,147)" stroke="rgb(147,147,147)" stroke-width="1" opacity="0.9490196078431372" d="M 202.5 113 L 204 128.5 L 212 151.5 L 198.5 165 L 197 163.5 Q 188.3 149.7 185 130.5 L 202.5 113 Z "></path><path fill="rgb(147,147,147)" stroke="rgb(147,147,147)" stroke-width="1" opacity="0.9490196078431372" d="M 355.5 119 Q 363.8 116.3 361 124.5 Q 355.1 150.6 338.5 166 Q 328.5 176.5 313.5 182 L 299.5 186 L 281.5 187 L 279 185.5 L 282 181 Q 284.7 182.1 284 179.5 L 287 178 L 288.5 175 L 291 173.5 Q 290.3 171.3 292.5 172 L 294 169 Q 297.7 170.5 297 167.5 Q 320.6 149.1 340.5 127 L 355.5 119 Z "></path><path fill="rgb(147,147,147)" stroke="rgb(147,147,147)" stroke-width="1" opacity="0.9490196078431372" d="M 174.5 130 Q 179.1 128.7 177 134.5 L 178 137.5 L 145.5 169 L 142 166.5 L 141 162.5 L 174.5 130 Z "></path><path fill="rgb(147,147,147)" stroke="rgb(147,147,147)" stroke-width="1" opacity="0.9490196078431372" d="M 225.5 138 L 219.5 145 L 225.5 138 Z "></path><path fill="rgb(147,147,147)" stroke="rgb(147,147,147)" stroke-width="1" opacity="0.9490196078431372" d="M 236.5 167 L 237.5 169 L 236.5 167 Z "></path><path fill="rgb(147,147,147)" stroke="rgb(147,147,147)" stroke-width="1" opacity="0.9490196078431372" d="M 241.5 171 L 242.5 173 L 241.5 171 Z "></path><path fill="rgb(147,147,147)" stroke="rgb(147,147,147)" stroke-width="1" opacity="0.9490196078431372" d="M 227.5 172 L 245.5 185 L 260 191.5 L 243.5 204 L 240.5 204 Q 225.3 197.2 215 185.5 L 227.5 172 Z "></path><path fill="rgb(147,147,147)" stroke="rgb(147,147,147)" stroke-width="1" opacity="0.9490196078431372" d="M 116.5 173 Q 152.4 174.1 173 190.5 L 163.5 200 L 158.5 202 L 148.5 197 L 119.5 188 L 113 185 L 111 181.5 L 111 178.5 L 114 174 L 116.5 173 Z "></path><path fill="rgb(147,147,147)" stroke="rgb(147,147,147)" stroke-width="1" opacity="0.9490196078431372" d="M 76.5 189 L 78.5 190 L 79.5 189 L 90.5 189 L 94 190 Q 95.1 192.7 92.5 192 L 80.5 201 L 65.5 209 L 61.5 205 L 57 209.5 L 50 223.5 L 33 250.5 L 30 264.5 L 30 266.5 L 31 275.5 L 33 280.5 L 34 293.5 Q 36.3 305.7 42 314.5 L 45 326.5 L 43 334.5 L 43 343.5 Q 44.4 350.1 49 353.5 L 36 341.5 Q 23.3 326.7 17 305.5 L 14 292.5 L 13 270.5 L 14 269.5 L 15 255.5 L 20 238.5 Q 28.9 216.9 44.5 202 L 54.5 194 L 61.5 194 L 76.5 189 Z "></path><path fill="rgb(147,147,147)" stroke="rgb(147,147,147)" stroke-width="1" opacity="0.9490196078431372" d="M 211.5 194 L 222 202.5 L 220.5 202 L 208.5 213 L 203 204.5 L 211.5 194 Z "></path><path fill="rgb(147,147,147)" stroke="rgb(147,147,147)" stroke-width="1" opacity="0.9490196078431372" d="M 191.5 207 L 198 212.5 Q 206.6 223.4 212 237.5 L 209 250.5 L 212 265.5 L 214 269.5 L 214 275.5 L 216.5 285 L 218.5 275 L 220 277.5 L 219 278.5 L 219 287.5 L 217 289.5 L 217 295.5 Q 208.6 311.1 204 330.5 Q 195.2 346.2 181.5 357 Q 166.7 369.7 145.5 376 L 132.5 379 L 110.5 380 L 109.5 379 L 95.5 378 L 81.5 374 Q 64.9 368.1 53 357.5 L 54.5 358 L 61.5 361 L 78.5 362 L 79.5 363 L 81.5 363 L 88.5 363 L 104.5 367 L 123.5 367 L 132.5 363 L 151.5 360 L 165.5 354 L 175 352 Q 177.6 349.7 177 343.5 Q 190 323.5 198 298.5 L 200 288.5 L 200 258.5 L 201 255.5 L 201 253.5 L 195 239.5 L 195 235.5 L 189 225 Q 186.3 226.1 187 223.5 L 182 216.5 L 191.5 207 Z "></path><path fill="rgb(147,147,147)" stroke="rgb(147,147,147)" stroke-width="1" opacity="0.9490196078431372" d="M 236.5 216 L 239 216.5 L 235 219.5 L 236.5 216 Z "></path><path fill="rgb(147,147,147)" stroke="rgb(147,147,147)" stroke-width="1" opacity="0.9490196078431372" d="M 248.5 217 L 266.5 222 L 293 223.5 L 269.5 248 Q 267.3 247.3 268 249.5 L 251 266.5 L 251 268 L 249.5 268 L 229 288.5 L 228.5 290 L 228 278.5 L 228 276.5 L 227 256.5 L 219 229.5 L 233.5 218 L 235 223.5 Q 232.8 224.8 235.5 226 L 238.5 226 L 248.5 217 Z "></path><path fill="rgb(147,147,147)" stroke="rgb(147,147,147)" stroke-width="1" opacity="0.9490196078431372" d="M 323.5 219 L 322 221.5 L 305.5 239 L 303 240.5 L 300.5 244 Q 298.3 243.3 299 245.5 L 257.5 289 L 255 290.5 L 251 295.5 L 229.5 316 L 230 314.5 L 231 312.5 Q 228.2 310.7 232.5 309 L 242 302 Q 240.9 299.3 243.5 300 L 248.5 294 Q 250.8 294.8 250 292.5 L 256 287.5 L 258.5 284 Q 260.8 284.8 260 282.5 L 264 280 L 267.5 275 L 270.5 273 L 272 270 Q 274.7 271.1 274 268.5 L 277 267 Q 275.9 264.3 278.5 265 L 282.5 260 Q 284.8 260.8 284 258.5 L 323.5 219 Z "></path><path fill="rgb(142,145,145)" stroke="rgb(142,145,145)" stroke-width="1" opacity="0.7215686274509804" d="M 361.5 28 L 362.5 30 L 361.5 28 Z "></path><path fill="rgb(142,145,145)" stroke="rgb(142,145,145)" stroke-width="1" opacity="0.7215686274509804" d="M 171.5 70 L 170.5 72 L 171.5 70 Z "></path><path fill="rgb(142,145,145)" stroke="rgb(142,145,145)" stroke-width="1" opacity="0.7215686274509804" d="M 277.5 77 L 284 77.5 L 280 80.5 Q 282.3 79.3 279.5 78 L 277 79.5 L 273 84.5 L 272 90.5 L 279 85.5 L 263 100.5 L 267 96.5 L 272 82.5 L 277.5 77 Z "></path><path fill="rgb(142,145,145)" stroke="rgb(142,145,145)" stroke-width="1" opacity="0.7215686274509804" d="M 300.5 77 L 303.5 77 L 311 81 L 305.5 88 L 305 84.5 L 300.5 77 Z "></path><path fill="rgb(142,145,145)" stroke="rgb(142,145,145)" stroke-width="1" opacity="0.7215686274509804" d="M 162.5 78 L 150.5 91 L 162.5 78 Z "></path><path fill="rgb(142,145,145)" stroke="rgb(142,145,145)" stroke-width="1" opacity="0.7215686274509804" d="M 350.5 88 L 350 89.5 L 343.5 101 L 343 99.5 L 350.5 88 Z "></path><path fill="rgb(142,145,145)" stroke="rgb(142,145,145)" stroke-width="1" opacity="0.7215686274509804" d="M 147.5 92 L 120.5 120 L 74.5 165 L 74 162.5 L 80.5 153 L 147.5 92 Z "></path><path fill="rgb(142,145,145)" stroke="rgb(142,145,145)" stroke-width="1" opacity="0.7215686274509804" d="M 253.5 146 L 243 157.5 L 235.5 166 L 234 165.5 L 253.5 146 Z "></path><path fill="rgb(142,145,145)" stroke="rgb(142,145,145)" stroke-width="1" opacity="0.7215686274509804" d="M 301.5 155 L 299 158.5 L 276.5 186 L 274.5 185 L 273 185.5 L 301.5 155 Z "></path><path fill="rgb(142,145,145)" stroke="rgb(142,145,145)" stroke-width="1" opacity="0.7215686274509804" d="M 207.5 191 L 209.5 194 L 205.5 196 L 205 193.5 L 207.5 191 Z "></path><path fill="rgb(142,145,145)" stroke="rgb(142,145,145)" stroke-width="1" opacity="0.7215686274509804" d="M 243.5 215 L 247 216.5 L 242.5 217 L 243.5 215 Z "></path><path fill="rgb(142,145,145)" stroke="rgb(142,145,145)" stroke-width="1" opacity="0.7215686274509804" d="M 326.5 218 L 323.5 222 L 326.5 218 Z "></path><path fill="rgb(142,145,145)" stroke="rgb(142,145,145)" stroke-width="1" opacity="0.7215686274509804" d="M 140.5 222 L 107.5 256 L 140.5 222 Z "></path><path fill="rgb(142,145,145)" stroke="rgb(142,145,145)" stroke-width="1" opacity="0.7215686274509804" d="M 317.5 228 L 311.5 235 L 317.5 228 Z "></path><path fill="rgb(142,145,145)" stroke="rgb(142,145,145)" stroke-width="1" opacity="0.7215686274509804" d="M 302.5 244 L 294.5 253 L 302.5 244 Z "></path><path fill="rgb(142,145,145)" stroke="rgb(142,145,145)" stroke-width="1" opacity="0.7215686274509804" d="M 290.5 257 L 281 267.5 L 237.5 315 L 229.5 318 L 230.5 316 Q 241.5 311.5 248 302.5 L 261 287 Q 263.7 288.1 263 285.5 L 290.5 257 Z "></path><path fill="rgb(142,145,145)" stroke="rgb(142,145,145)" stroke-width="1" opacity="0.7215686274509804" d="M 220.5 325 L 213.5 333 L 220.5 325 Z "></path><path fill="rgb(44,203,64)" stroke="rgb(44,203,64)" stroke-width="1" opacity="0.9921568627450981" d="M 288.5 76 Q 299.8 74.7 303 81.5 Q 306.2 84.8 305 92.5 L 302 96.5 L 303 97.5 L 299.5 101 L 297.5 101 L 289.5 102 L 282 97.5 Q 278 94 279 85.5 L 285.5 77 L 288.5 76 Z "></path><path fill="rgb(44,203,64)" stroke="rgb(44,203,64)" stroke-width="1" opacity="0.9921568627450981" d="M 186.5 177 L 197.5 180 L 203 185.5 L 205 194.5 L 200.5 202 Q 197.7 205.7 190.5 205 Q 182.4 203.6 179 197.5 L 176 187.5 L 182.5 179 L 186.5 177 Z "></path><path fill="rgb(44,203,64)" stroke="rgb(44,203,64)" stroke-width="1" opacity="0.9921568627450981" d="M 92.5 270 Q 93.8 272.3 98.5 271 L 106 276.5 Q 109.2 279.8 108 287.5 Q 106.6 293.6 101.5 296 Q 100 293.5 98.5 297 Q 87.6 297.4 84 290.5 Q 81.4 287.6 82 281.5 Q 83.5 275 88.5 272 L 92.5 270 Z "></path><path fill="rgb(124,124,124)" stroke="rgb(124,124,124)" stroke-width="1" opacity="0.6784313725490196" d="M 367.5 34 L 368.5 36 L 367.5 34 Z "></path><path fill="rgb(124,124,124)" stroke="rgb(124,124,124)" stroke-width="1" opacity="0.6784313725490196" d="M 192.5 50 L 185.5 58 L 192.5 50 Z "></path><path fill="rgb(124,124,124)" stroke="rgb(124,124,124)" stroke-width="1" opacity="0.6784313725490196" d="M 180.5 61 L 172.5 70 L 180.5 61 Z "></path><path fill="rgb(124,124,124)" stroke="rgb(124,124,124)" stroke-width="1" opacity="0.6784313725490196" d="M 73.5 166 L 73 167.5 L 75 172.5 L 73 171.5 L 72 167.5 L 73.5 166 Z "></path><path fill="rgb(124,124,124)" stroke="rgb(124,124,124)" stroke-width="1" opacity="0.6784313725490196" d="M 276.5 183 L 274.5 186 L 276.5 183 Z "></path><path fill="rgb(124,124,124)" stroke="rgb(124,124,124)" stroke-width="1" opacity="0.6784313725490196" d="M 151.5 211 L 141.5 222 L 151.5 211 Z "></path><path fill="rgb(124,124,124)" stroke="rgb(124,124,124)" stroke-width="1" opacity="0.6784313725490196" d="M 334.5 212 L 303.5 244 L 318 228.5 L 329.5 215 L 334.5 212 Z "></path><path fill="rgb(124,124,124)" stroke="rgb(124,124,124)" stroke-width="1" opacity="0.6784313725490196" d="M 66.5 221 L 66 222.5 L 63.5 227 Q 59.3 225.9 61 230 L 63 230.5 L 61 231 L 59 236.5 L 59.5 238 Q 58.3 235.8 57 238.5 L 60.5 239 L 62 238.5 L 60 241.5 L 62 242 L 64.5 246 L 69.5 247 L 81.5 238 Q 90.4 236.9 95.5 232 L 109.5 229 L 114.5 230 L 117.5 228 L 125.5 230 L 127.5 230 L 131 231.5 L 92.5 270 Q 85.3 270.9 83 276.5 L 82 287.5 L 87.5 295 L 96.5 298 L 98.5 297 Q 100 299.5 101.5 296 L 107 292.5 Q 108.6 285.6 114.5 283 L 131.5 267 L 115 284.5 L 114 288.5 L 103 302 Q 100.3 300.9 101 303.5 L 97.5 307 Q 96.3 304.8 95 307.5 Q 97.8 309.3 93.5 311 L 88 313 Q 89.1 315.7 86.5 315 L 85 314.5 Q 85.8 316.8 83.5 316 L 81.5 318 L 65.5 321 L 58.5 324 Q 48.7 313.3 44 297.5 L 42 288.5 L 42 264.5 Q 47.5 236 66.5 221 Z "></path><path fill="rgb(124,124,124)" stroke="rgb(124,124,124)" stroke-width="1" opacity="0.6784313725490196" d="M 299.5 248 L 298.5 250 L 299.5 248 Z "></path><path fill="rgb(124,124,124)" stroke="rgb(124,124,124)" stroke-width="1" opacity="0.6784313725490196" d="M 296.5 251 L 291.5 257 L 296.5 251 Z "></path><path fill="rgb(124,124,124)" stroke="rgb(124,124,124)" stroke-width="1" opacity="0.6784313725490196" d="M 282.5 266 L 281.5 268 L 282.5 266 Z "></path><path fill="rgb(124,124,124)" stroke="rgb(124,124,124)" stroke-width="1" opacity="0.6784313725490196" d="M 189.5 276 L 191 276.5 L 191 288.5 L 190 288.5 L 189.5 277 L 188 277.5 L 189.5 276 Z "></path><path fill="rgb(124,124,124)" stroke="rgb(124,124,124)" stroke-width="1" opacity="0.6784313725490196" d="M 189.5 290 L 188.5 292 L 189.5 290 Z "></path><path fill="rgb(124,124,124)" stroke="rgb(124,124,124)" stroke-width="1" opacity="0.6784313725490196" d="M 228.5 318 L 230 318.5 L 212.5 335 L 221 325.5 L 223 322.5 L 228.5 318 Z "></path><path fill="rgb(107,108,107)" stroke="rgb(107,108,107)" stroke-width="1" opacity="0.9921568627450981" d="M 275.5 0 L 298.5 0 L 317.5 4 L 329 8.5 L 306.5 10 L 297.5 8 L 287.5 8 Q 284.6 3.9 276.5 5 L 269.5 9 Q 256.3 10.8 246.5 16 Q 243.6 12.4 235.5 14 L 228.5 18 L 194.5 49 L 197 45.5 L 200 40.5 L 215.5 25 Q 227 15.5 241.5 9 L 255.5 4 L 275.5 0 Z "></path><path fill="rgb(107,108,107)" stroke="rgb(107,108,107)" stroke-width="1" opacity="0.9921568627450981" d="M 379.5 50 Q 389.1 62.9 394 80.5 L 398 100.5 L 398 122.5 L 395.5 135 L 393 123.5 L 393 111.5 Q 397.5 106 396 94.5 L 391 86.5 L 391 79.5 L 389 71.5 L 379.5 50 Z "></path><path fill="rgb(107,108,107)" stroke="rgb(107,108,107)" stroke-width="1" opacity="0.9921568627450981" d="M 389.5 153 L 389 154.5 Q 378.7 181.7 357.5 198 Q 346 207.5 331.5 214 L 342 202.5 L 354.5 189 L 364 180.5 Q 374.5 164.5 389.5 153 Z "></path><path fill="rgb(107,108,107)" stroke="rgb(107,108,107)" stroke-width="1" opacity="0.9921568627450981" d="M 111.5 167 Q 114.1 166.2 113 169.5 L 115.5 173 L 106 172.5 L 111.5 167 Z "></path><path fill="rgb(107,108,107)" stroke="rgb(107,108,107)" stroke-width="1" opacity="0.9921568627450981" d="M 139.5 167 L 145.5 176 L 147 176.5 L 144.5 177 L 132 173.5 L 139.5 167 Z "></path><path fill="rgb(107,108,107)" stroke="rgb(107,108,107)" stroke-width="1" opacity="0.9921568627450981" d="M 73.5 173 L 83 177 Q 84.3 180 80.5 179 Q 53.9 189.4 37 209.5 Q 22.9 225.9 16 249.5 L 13 265.5 L 13 287.5 L 16 303.5 Q 20 318 27 329.5 Q 35.9 344.1 48.5 355 Q 65 370 89.5 377 L 105.5 380 L 127.5 380 L 143.5 377 Q 158 373 169.5 366 Q 184.1 357.1 195 344.5 Q 213.7 324.2 219.5 291 Q 222.5 291.5 222 295.5 Q 216.4 298.9 218 309.5 L 222 314.5 Q 210.4 344.4 187.5 363 Q 171 377 147.5 384 L 127.5 388 L 105.5 388 L 85.5 384 L 61.5 374 Q 43.1 363.4 30 347.5 Q 16 331 9 307.5 L 5 288.5 L 5 264.5 L 9 245.5 L 19 221.5 Q 29.6 203.1 45.5 190 Q 57.6 179.6 73.5 173 Z "></path><path fill="rgb(107,108,107)" stroke="rgb(107,108,107)" stroke-width="1" opacity="0.9921568627450981" d="M 158.5 176 L 162 177.5 L 166.5 183 Q 169.7 185.3 176.5 184 L 178 183.5 L 173.5 190 L 151 178.5 L 158.5 176 Z "></path><path fill="rgb(107,108,107)" stroke="rgb(107,108,107)" stroke-width="1" opacity="0.9921568627450981" d="M 108.5 193 L 125.5 193 L 136.5 195 Q 149.3 198.3 159 204.5 L 153.5 210 L 151.5 210 L 134.5 203 L 122.5 202 L 121.5 201 L 111.5 201 L 94.5 204 L 80.5 210 Q 68 217 59 227.5 Q 50.2 237.7 45 251.5 L 42 263.5 L 41 281.5 L 44 298.5 L 50 312.5 Q 57 325 67.5 334 Q 77.7 342.8 91.5 348 L 103.5 351 L 120.5 352 L 121.5 351 L 134.5 350 L 146.5 346 Q 163.1 338.6 174 325.5 Q 182.8 315.3 188 301.5 L 191 290.5 L 192 271.5 L 191 270.5 L 191 262.5 L 186 246.5 L 173 225.5 L 178.5 221 Q 200.6 241.4 200 284.5 L 194 308.5 Q 186.8 325.3 174.5 337 Q 162 349.5 143.5 356 L 125.5 360 L 106.5 360 Q 72.4 354.1 54 332.5 Q 41.9 319.1 36 299.5 L 33 284.5 L 33 267.5 L 36 252.5 L 39 244.5 L 44 234.5 L 57 217 L 74.5 204 L 84.5 199 L 96.5 195 L 107.5 194 L 108.5 193 Z "></path><path fill="rgb(107,108,107)" stroke="rgb(107,108,107)" stroke-width="1" opacity="0.9921568627450981" d="M 199.5 202 L 198 204.5 Q 197.3 210.2 200 212.5 L 208 222.5 L 209 227.5 L 215 239.5 L 216 245.5 L 215 245.5 Q 212.1 232.9 206 223.5 L 193 205 Q 197.5 205.2 199.5 202 Z "></path><path fill="rgb(107,108,107)" stroke="rgb(107,108,107)" stroke-width="1" opacity="0.9921568627450981" d="M 252.5 209 L 253 211 L 246.5 216 L 246 214.5 L 252.5 209 Z "></path><path fill="rgb(3,212,243)" stroke="rgb(3,212,243)" stroke-width="1" opacity="0.9921568627450981" d="M 278.5 86 Q 278.5 96 284.5 100 Q 287.8 102.7 294.5 102 L 298.5 100 L 299 102 L 297.5 102 L 204.5 194 Q 205.1 182.9 197.5 180 Q 193.6 177.1 187 178 L 187 176.5 L 198.5 165 L 278.5 86 Z "></path><path fill="rgb(3,212,243)" stroke="rgb(3,212,243)" stroke-width="1" opacity="0.9921568627450981" d="M 303.5 95 L 304 97 L 302 96.5 L 303.5 95 Z "></path><path fill="rgb(3,212,243)" stroke="rgb(3,212,243)" stroke-width="1" opacity="0.9921568627450981" d="M 175.5 188 Q 178.3 187.4 177 193.5 L 184.5 203 L 193 205.5 L 107.5 290 L 107 288.5 Q 109.8 286.7 108 280.5 L 102.5 273 Q 99.3 270 93 271 L 93 269.5 L 101.5 261 L 175.5 188 Z "></path><path fill="rgb(3,212,243)" stroke="rgb(3,212,243)" stroke-width="1" opacity="0.9921568627450981" d="M 100.5 295 L 101 297 L 99 296.5 L 100.5 295 Z "></path><path fill="rgb(116,116,116)" stroke="rgb(116,116,116)" stroke-width="1" opacity="0.050980392156862744" d="M 244.5 0 Q 256.9 -1.9 264 1.5 L 236.5 11 L 222.5 20 L 228.5 13 L 244.5 0 Z "></path><path fill="rgb(116,116,116)" stroke="rgb(116,116,116)" stroke-width="1" opacity="0.050980392156862744" d="M 337.5 0 L 344.5 0 L 350 2 L 350 4 Q 355.3 2.7 354.5 6 L 357.5 6 L 360 7 L 360 9 L 362 9 Q 360.9 11.7 363.5 11 L 368 13 L 370.5 17 L 374 18 L 375 21.5 L 382 29.5 L 383 34 Q 385.7 32.9 385 35.5 L 388 43 Q 391 41.8 390 45.5 Q 394.8 51.7 396 61.5 L 398 63.5 L 400 73.5 L 400 80.5 L 399 80.5 L 399 74.5 L 397 67.5 L 387 43.5 L 376 26.5 L 364.5 15 L 344.5 3 L 337.5 1 L 337.5 0 Z "></path><path fill="rgb(116,116,116)" stroke="rgb(116,116,116)" stroke-width="1" opacity="0.050980392156862744" d="M 224.5 4 L 226 4.5 L 220.5 7 L 221.5 5 L 224.5 4 Z "></path><path fill="rgb(116,116,116)" stroke="rgb(116,116,116)" stroke-width="1" opacity="0.050980392156862744" d="M 194.5 47 L 193.5 49 L 194.5 47 Z "></path><path fill="rgb(116,116,116)" stroke="rgb(116,116,116)" stroke-width="1" opacity="0.050980392156862744" d="M 188.5 52 L 172.5 69 L 188.5 52 Z "></path><path fill="rgb(116,116,116)" stroke="rgb(116,116,116)" stroke-width="1" opacity="0.050980392156862744" d="M 159.5 79 L 158.5 81 L 159.5 79 Z "></path><path fill="rgb(116,116,116)" stroke="rgb(116,116,116)" stroke-width="1" opacity="0.050980392156862744" d="M 148.5 89 L 146.5 92 L 148.5 89 Z "></path><path fill="rgb(116,116,116)" stroke="rgb(116,116,116)" stroke-width="1" opacity="0.050980392156862744" d="M 136.5 100 L 135.5 102 L 136.5 100 Z "></path><path fill="rgb(116,116,116)" stroke="rgb(116,116,116)" stroke-width="1" opacity="0.050980392156862744" d="M 398.5 110 L 399 112.5 L 398 112.5 L 398.5 110 Z "></path><path fill="rgb(116,116,116)" stroke="rgb(116,116,116)" stroke-width="1" opacity="0.050980392156862744" d="M 116.5 118 L 111.5 124 L 116.5 118 Z "></path><path fill="rgb(116,116,116)" stroke="rgb(116,116,116)" stroke-width="1" opacity="0.050980392156862744" d="M 103.5 130 L 101.5 133 L 103.5 130 Z "></path><path fill="rgb(116,116,116)" stroke="rgb(116,116,116)" stroke-width="1" opacity="0.050980392156862744" d="M 89.5 143 L 88.5 145 L 89.5 143 Z "></path><path fill="rgb(116,116,116)" stroke="rgb(116,116,116)" stroke-width="1" opacity="0.050980392156862744" d="M 394.5 149 L 400 152.5 L 400 160.5 L 398 167.5 L 394 173.5 L 393 178.5 L 387 186 L 385 186 Q 386.1 188.7 383.5 188 L 379 191 L 379 193 L 377 193 Q 378.1 195.7 375.5 195 Q 371.1 200.4 364 202 Q 365.1 204.7 362.5 204 Q 360.8 207.1 359 205.5 Q 359.8 207.8 357.5 207 L 348 214 L 345.5 218 Q 341.5 217.5 341 220.5 L 339.5 223 L 335 225 Q 336.1 227.7 333.5 227 L 332 230 L 328 232.5 L 326.5 235 L 321 239.5 L 319.5 242 L 318 242 Q 319.5 245.8 316.5 245 L 311 249.5 Q 311.8 251.8 309.5 251 L 308 255 L 303 257 Q 304.1 259.7 301.5 259 L 298.5 263 L 297 263 Q 298.5 266.7 295.5 266 L 290 270.5 L 288 273.5 L 287 276 L 282 278 Q 283.1 280.7 280.5 280 L 278 285 L 276 285 Q 277.1 287.7 274.5 287 L 271 289 Q 272.1 291.7 269.5 291 L 264.5 298 L 261 300.5 L 261 302 L 258 302 Q 259.1 304.7 256.5 304 L 252 310 L 247 313.5 Q 247.8 315.8 245.5 315 L 242 320 L 239 321.5 L 232.5 329 Q 230.3 328.3 231 330.5 L 226 334.5 Q 226.8 336.8 224.5 336 L 221 341 L 215 345.5 Q 215.8 347.8 213.5 347 L 210 352 L 205 355.5 Q 205.8 357.8 203.5 357 L 197.5 363 L 195.5 363 L 187.5 369 L 185.5 368 L 181.5 370 L 180.5 368 Q 192.3 360.8 201 350.5 Q 212.1 332.1 228.5 319 L 231.5 319 L 237.5 316 L 247 306.5 L 300 247.5 L 335.5 212 Q 356.8 202.3 371 185.5 Q 383.1 172.1 390 153.5 L 394.5 149 Z "></path><path fill="rgb(116,116,116)" stroke="rgb(116,116,116)" stroke-width="1" opacity="0.050980392156862744" d="M 71.5 166 L 72 167.5 L 58 180.5 L 71.5 166 Z "></path><path fill="rgb(116,116,116)" stroke="rgb(116,116,116)" stroke-width="1" opacity="0.050980392156862744" d="M 4.5 272 L 5 280.5 L 4 280.5 L 4.5 272 Z "></path><path fill="rgb(116,116,116)" stroke="rgb(116,116,116)" stroke-width="1" opacity="0.050980392156862744" d="M 19.5 332 Q 28.5 349 42.5 361 Q 58.3 375.2 81 382.5 L 77.5 383 L 76 382.5 Q 76.8 384.8 74.5 384 L 70.5 383 L 68.5 384 L 65.5 383 L 63.5 384 L 59.5 382 L 56.5 383 L 41.5 376 L 39 377 L 39 374 L 36 374 Q 37.1 371.3 34.5 372 L 28 367.5 L 21 352.5 L 18 336.5 L 19.5 332 Z "></path><path fill="rgb(116,116,116)" stroke="rgb(116,116,116)" stroke-width="1" opacity="0.050980392156862744" d="M 112.5 388 L 121 388.5 L 112.5 389 L 112.5 388 Z "></path><path fill="rgb(117,118,117)" stroke="rgb(117,118,117)" stroke-width="1" opacity="0.7686274509803922" d="M 184.5 58 L 183.5 60 L 184.5 58 Z "></path><path fill="rgb(117,118,117)" stroke="rgb(117,118,117)" stroke-width="1" opacity="0.7686274509803922" d="M 301.5 79 L 302.5 81 L 301.5 79 Z "></path><path fill="rgb(117,118,117)" stroke="rgb(117,118,117)" stroke-width="1" opacity="0.7686274509803922" d="M 73.5 167 L 74 168.5 L 72 169.5 L 73.5 167 Z "></path><path fill="rgb(117,118,117)" stroke="rgb(117,118,117)" stroke-width="1" opacity="0.7686274509803922" d="M 179.5 181 L 178.5 183 L 179.5 181 Z "></path><path fill="rgb(117,118,117)" stroke="rgb(117,118,117)" stroke-width="1" opacity="0.7686274509803922" d="M 365.5 190 L 364.5 192 L 365.5 190 Z "></path><path fill="rgb(117,118,117)" stroke="rgb(117,118,117)" stroke-width="1" opacity="0.7686274509803922" d="M 172.5 226 L 173.5 228 L 172.5 226 Z "></path><path fill="rgb(117,118,117)" stroke="rgb(117,118,117)" stroke-width="1" opacity="0.7686274509803922" d="M 56.5 231 L 55.5 233 L 56.5 231 Z "></path><path fill="rgb(117,118,117)" stroke="rgb(117,118,117)" stroke-width="1" opacity="0.7686274509803922" d="M 175.5 231 L 178 232.5 Q 181.6 234.4 181 240.5 L 80 341.5 L 80.5 343 L 71 336.5 L 175.5 231 Z "></path><path fill="rgb(117,118,117)" stroke="rgb(117,118,117)" stroke-width="1" opacity="0.7686274509803922" d="M 41.5 271 L 42 281.5 L 41 281.5 L 41.5 271 Z "></path><path fill="rgb(117,118,117)" stroke="rgb(117,118,117)" stroke-width="1" opacity="0.7686274509803922" d="M 87.5 272 L 84.5 276 L 87.5 272 Z "></path><path fill="rgb(117,118,117)" stroke="rgb(117,118,117)" stroke-width="1" opacity="0.7686274509803922" d="M 191.5 274 L 192 281.5 L 191 281.5 L 191.5 274 Z "></path><path fill="rgb(117,118,117)" stroke="rgb(117,118,117)" stroke-width="1" opacity="0.7686274509803922" d="M 189.5 277 L 191 290.5 L 188 291.5 L 129.5 351 L 111.5 352 L 111.5 351 L 114.5 351 L 189.5 277 Z "></path><path fill="rgb(117,118,117)" stroke="rgb(117,118,117)" stroke-width="1" opacity="0.7686274509803922" d="M 106.5 291 L 103.5 295 L 106.5 291 Z "></path><path fill="rgb(117,118,117)" stroke="rgb(117,118,117)" stroke-width="1" opacity="0.7686274509803922" d="M 85.5 292 L 87.5 295 L 85.5 292 Z "></path><path fill="rgb(117,118,117)" stroke="rgb(117,118,117)" stroke-width="1" opacity="0.7686274509803922" d="M 55.5 320 L 56.5 322 L 55.5 320 Z "></path><path fill="rgb(117,118,117)" stroke="rgb(117,118,117)" stroke-width="1" opacity="0.7686274509803922" d="M 59.5 325 L 67.5 334 L 59.5 325 Z "></path><path fill="rgb(117,118,117)" stroke="rgb(117,118,117)" stroke-width="1" opacity="0.7686274509803922" d="M 173.5 325 L 172.5 327 L 173.5 325 Z "></path><path fill="rgb(117,118,117)" stroke="rgb(117,118,117)" stroke-width="1" opacity="0.7686274509803922" d="M 166.5 332 L 165.5 334 L 166.5 332 Z "></path><path fill="rgb(117,118,117)" stroke="rgb(117,118,117)" stroke-width="1" opacity="0.7686274509803922" d="M 37.5 355 L 38.5 357 L 37.5 355 Z "></path><path fill="rgb(117,118,117)" stroke="rgb(117,118,117)" stroke-width="1" opacity="0.7686274509803922" d="M 195.5 355 L 194.5 357 L 195.5 355 Z "></path><path fill="rgb(113,113,113)" stroke="rgb(113,113,113)" stroke-width="1" opacity="0.6392156862745098" d="M 217.5 23 L 216.5 25 L 217.5 23 Z "></path><path fill="rgb(113,113,113)" stroke="rgb(113,113,113)" stroke-width="1" opacity="0.6392156862745098" d="M 211.5 28 L 203.5 37 L 211.5 28 Z "></path><path fill="rgb(113,113,113)" stroke="rgb(113,113,113)" stroke-width="1" opacity="0.6392156862745098" d="M 199.5 41 L 198.5 43 L 199.5 41 Z "></path><path fill="rgb(113,113,113)" stroke="rgb(113,113,113)" stroke-width="1" opacity="0.6392156862745098" d="M 192.5 49 L 183.5 59 L 192.5 49 Z "></path><path fill="rgb(113,113,113)" stroke="rgb(113,113,113)" stroke-width="1" opacity="0.6392156862745098" d="M 283.5 78 L 281.5 81 L 283.5 78 Z "></path><path fill="rgb(113,113,113)" stroke="rgb(113,113,113)" stroke-width="1" opacity="0.6392156862745098" d="M 71.5 168 L 74 172.5 L 60.5 180 L 71.5 168 Z "></path><path fill="rgb(113,113,113)" stroke="rgb(113,113,113)" stroke-width="1" opacity="0.6392156862745098" d="M 374.5 180 L 373.5 182 L 374.5 180 Z "></path><path fill="rgb(113,113,113)" stroke="rgb(113,113,113)" stroke-width="1" opacity="0.6392156862745098" d="M 51.5 185 L 50.5 187 L 51.5 185 Z "></path><path fill="rgb(113,113,113)" stroke="rgb(113,113,113)" stroke-width="1" opacity="0.6392156862745098" d="M 370.5 185 L 366.5 190 L 370.5 185 Z "></path><path fill="rgb(113,113,113)" stroke="rgb(113,113,113)" stroke-width="1" opacity="0.6392156862745098" d="M 47.5 188 L 46.5 190 L 47.5 188 Z "></path><path fill="rgb(113,113,113)" stroke="rgb(113,113,113)" stroke-width="1" opacity="0.6392156862745098" d="M 363.5 192 L 360.5 196 L 363.5 192 Z "></path><path fill="rgb(113,113,113)" stroke="rgb(113,113,113)" stroke-width="1" opacity="0.6392156862745098" d="M 41.5 193 L 33.5 202 L 41.5 193 Z "></path><path fill="rgb(113,113,113)" stroke="rgb(113,113,113)" stroke-width="1" opacity="0.6392156862745098" d="M 113.5 201 L 134.5 203 L 152 210.5 L 131.5 231 L 129.5 231 L 126.5 229 L 124.5 229 L 116.5 228 Q 115.5 231 110.5 230 L 108.5 229 L 99.5 232 L 95.5 232 L 77.5 240 L 71.5 246 L 66.5 247 L 62 243.5 Q 62.8 241.3 60.5 242 L 61 240.5 Q 61.9 237.5 57.5 239 L 59 236.5 L 61 231 L 63 230.5 L 61 230 L 60 226.5 Q 69.9 214.9 84.5 208 L 98.5 203 L 112.5 202 L 113.5 201 Z M 66 222 L 61 227 L 64 227 L 66 224 L 66 222 Z "></path><path fill="rgb(113,113,113)" stroke="rgb(113,113,113)" stroke-width="1" opacity="0.6392156862745098" d="M 29.5 206 L 28.5 208 L 29.5 206 Z "></path><path fill="rgb(113,113,113)" stroke="rgb(113,113,113)" stroke-width="1" opacity="0.6392156862745098" d="M 26.5 210 L 25.5 212 L 26.5 210 Z "></path><path fill="rgb(113,113,113)" stroke="rgb(113,113,113)" stroke-width="1" opacity="0.6392156862745098" d="M 171.5 227 L 176 230.5 L 70.5 336 L 59 324.5 L 65.5 321 L 81.5 318 L 85 316 L 85.5 314 L 88 315 Q 86.8 312 90.5 313 L 96 308.5 Q 93.7 307.3 96.5 306 L 97.5 307 L 101 303.5 L 103 300.5 L 114 288.5 L 115 284.5 L 171.5 227 Z "></path><path fill="rgb(113,113,113)" stroke="rgb(113,113,113)" stroke-width="1" opacity="0.6392156862745098" d="M 181.5 240 Q 183.8 239.3 183 241.5 L 189 254.5 L 192 273.5 L 191 276 L 189.5 276 L 114.5 351 L 104.5 351 L 89.5 347 L 80 341.5 L 181.5 240 Z "></path><path fill="rgb(113,113,113)" stroke="rgb(113,113,113)" stroke-width="1" opacity="0.6392156862745098" d="M 189.5 291 L 190 294.5 Q 183.6 318.1 167.5 332 Q 154.2 345.7 131.5 350 L 189.5 291 Z "></path><path fill="rgb(113,113,113)" stroke="rgb(113,113,113)" stroke-width="1" opacity="0.6392156862745098" d="M 106.5 292 L 105.5 294 L 106.5 292 Z "></path><path fill="rgb(113,113,113)" stroke="rgb(113,113,113)" stroke-width="1" opacity="0.6392156862745098" d="M 25.5 341 L 26.5 343 L 25.5 341 Z "></path><path fill="rgb(113,113,113)" stroke="rgb(113,113,113)" stroke-width="1" opacity="0.6392156862745098" d="M 28.5 345 L 29.5 347 L 28.5 345 Z "></path><path fill="rgb(113,113,113)" stroke="rgb(113,113,113)" stroke-width="1" opacity="0.6392156862745098" d="M 204.5 345 L 203.5 347 L 204.5 345 Z "></path><path fill="rgb(113,113,113)" stroke="rgb(113,113,113)" stroke-width="1" opacity="0.6392156862745098" d="M 32.5 350 L 36.5 355 L 32.5 350 Z "></path><path fill="rgb(113,113,113)" stroke="rgb(113,113,113)" stroke-width="1" opacity="0.6392156862745098" d="M 200.5 350 L 196.5 355 L 200.5 350 Z "></path><path fill="rgb(113,113,113)" stroke="rgb(113,113,113)" stroke-width="1" opacity="0.6392156862745098" d="M 39.5 357 L 42.5 361 L 39.5 357 Z "></path><path fill="rgb(113,113,113)" stroke="rgb(113,113,113)" stroke-width="1" opacity="0.6392156862745098" d="M 193.5 357 L 191.5 360 L 193.5 357 Z "></path><path fill="rgb(113,113,113)" stroke="rgb(113,113,113)" stroke-width="1" opacity="0.6392156862745098" d="M 46.5 363 L 47.5 365 L 46.5 363 Z "></path><path fill="rgb(113,113,113)" stroke="rgb(113,113,113)" stroke-width="1" opacity="0.6392156862745098" d="M 182.5 366 L 181.5 368 L 182.5 366 Z "></path><path fill="rgb(0,0,0)" stroke="rgb(0,0,0)" stroke-width="1" opacity="0.00392156862745098" d="M 227.5 0 L 237 0.5 L 231.5 3 L 230 2.5 Q 230.8 4.8 228.5 4 L 226.5 5 L 224.5 4 L 224.5 6 L 221.5 5 L 221.5 6 L 223 6.5 L 221.5 7 L 220 6.5 L 219.5 8 L 217.5 7 L 217.5 9 L 215.5 8 L 215 10 L 207.5 12 L 207.5 11 L 211 9.5 Q 210.3 6.9 213 8 L 213 6 L 215.5 6 L 218.5 4 L 225 3 Q 223.9 0.3 226.5 1 L 227.5 0 Z "></path><path fill="rgb(0,0,0)" stroke="rgb(0,0,0)" stroke-width="1" opacity="0.00392156862745098" d="M 242.5 0 L 244 0.5 L 239.5 4 L 242.5 0 Z "></path><path fill="rgb(0,0,0)" stroke="rgb(0,0,0)" stroke-width="1" opacity="0.00392156862745098" d="M 260.5 0 L 271 0.5 L 264.5 2 L 260.5 1 L 260.5 0 Z "></path><path fill="rgb(0,0,0)" stroke="rgb(0,0,0)" stroke-width="1" opacity="0.00392156862745098" d="M 232.5 9 L 229.5 13 L 232.5 9 Z "></path><path fill="rgb(0,0,0)" stroke="rgb(0,0,0)" stroke-width="1" opacity="0.00392156862745098" d="M 192.5 48 L 189.5 52 L 192.5 48 Z "></path><path fill="rgb(0,0,0)" stroke="rgb(0,0,0)" stroke-width="1" opacity="0.00392156862745098" d="M 399.5 161 L 400 174.5 L 399 178 L 397 178 L 397 182 L 395.5 182 L 393 183 L 391.5 187 Q 389.3 186.3 390 188.5 L 385 192.5 L 383 195.5 L 381.5 198 L 379.5 197 L 376 198 L 376 200 Q 372.3 198.5 373 201.5 L 370 203 Q 371.3 206 367.5 205 L 364 206 L 364 208 Q 360.3 206.5 361 209.5 L 359 209.5 L 357 212.5 L 351 215 L 351 217 L 348 217 L 348 219 Q 344.3 217.5 345 220.5 L 343.5 223 L 341.5 222 L 340 222.5 L 343.5 218 Q 347.5 218.5 348 215.5 Q 347.3 213.3 349.5 214 Q 352.5 207.9 359 207 L 359.5 205 Q 361 207.5 362.5 204 L 365.5 202 L 377 195 L 377 193 L 379 193 Q 377.9 190.3 380.5 191 L 385 188 L 385 186 Q 387.7 187.1 387 184.5 L 393 178.5 L 399.5 161 Z "></path><path fill="rgb(0,0,0)" stroke="rgb(0,0,0)" stroke-width="1" opacity="0.00392156862745098" d="M 338.5 223 L 339 225 Q 336.3 223.9 337 226.5 L 332 230 L 328.5 235 Q 326.3 234.3 327 236.5 L 323 239 L 323 241 Q 320.3 239.9 321 242.5 L 316 246 L 312.5 251 Q 310.3 250.3 311 252.5 L 308 254.5 L 309.5 251 Q 311.8 251.8 311 249.5 Q 313.3 245.4 318 245 Q 316.5 241.3 319.5 242 L 325.5 235 L 328 233.5 L 330.5 230 Q 332.8 230.8 332 228.5 L 335 227 Q 333.9 224.3 336.5 225 L 338.5 223 Z "></path><path fill="rgb(0,0,0)" stroke="rgb(0,0,0)" stroke-width="1" opacity="0.00392156862745098" d="M 306.5 255 L 307 257 Q 304.3 255.9 305 258.5 L 300 262 L 296.5 267 Q 294.3 266.3 295 268.5 L 290 272 L 285.5 278 Q 283.3 277.3 284 279.5 L 279 283 L 275.5 289 L 274 288.5 L 271.5 292 L 270 292 L 270 294 Q 267.3 292.9 268 295.5 L 263 299 L 259.5 304 Q 257.3 303.3 258 305.5 L 254 308 L 254 310 Q 251.3 308.9 252 311.5 L 247 315 L 243.5 320 Q 241.3 319.3 242 321.5 L 239 326 Q 236.3 324.9 237 327.5 L 231 331 L 227.5 336 Q 225.3 335.3 226 337.5 L 221 341 L 218.5 345 L 217 345 L 217 347 Q 214.3 345.9 215 348.5 L 210 352 L 206.5 357 Q 204.3 356.3 205 358.5 L 201 361 L 201 363 Q 198.3 361.9 199 364.5 L 196.5 367 L 188 369 Q 189.1 371.7 186.5 371 L 184.5 370 L 180.5 372 L 178.5 371 L 176.5 372 L 177.5 370 L 180.5 369 L 182.5 369 L 186.5 368 Q 188 370.5 189.5 367 L 191.5 367 L 205 357 L 208.5 352 Q 210.8 352.8 210 350.5 L 215 347 L 219.5 341 Q 221.8 341.8 221 339.5 L 226 336 L 228.5 332 L 231 330.5 Q 230.3 328.3 232.5 329 L 240.5 320 Q 242.8 320.8 242 318.5 L 247 315 L 250.5 310 Q 252.8 310.8 252 308.5 L 258 304 L 258 302 Q 261.7 303.5 261 300.5 L 266 296.5 L 269.5 291 L 272.5 289 L 276 287 L 276 285 Q 278.7 286.1 278 283.5 L 280.5 280 L 283.5 278 L 287 276 L 288 272 Q 290.7 273.1 290 270.5 Q 292.3 266.4 297 266 Q 295.5 262.2 298.5 263 L 301.5 259 L 304.5 257 L 306.5 255 Z "></path><path fill="rgb(0,0,0)" stroke="rgb(0,0,0)" stroke-width="1" opacity="0.00392156862745098" d="M 15 328 L 18 329.5 L 19 335.5 L 19 337.5 L 19 345.5 L 22 355.5 L 30.5 370 L 36 372 L 36 374 L 39 374 Q 37.5 377.7 40.5 377 L 42.5 377 L 57.5 383 L 59.5 382 L 63.5 384 L 67.5 383 L 69.5 384 L 73.5 383 L 76 384 L 76.5 382 Q 78 384.5 83.5 383 L 88 385.5 L 87.5 387 Q 86 383.5 84.5 386 L 82.5 385 L 78 386 Q 79.1 388.7 76.5 388 L 74.5 387 Q 71.2 390.8 63 389 Q 64.3 385.3 58.5 387 L 56.5 386 L 53.5 387 L 43.5 383 L 41 384 L 41 381 L 38 381 Q 39.1 378.3 36.5 379 L 29 375 L 26 370.5 L 26 368 Q 23.3 369.1 24 366.5 L 21 365 Q 22.1 358.8 18 356.5 L 19 353.5 L 16 349.5 L 16 345.5 L 14 340.5 L 16 336.5 L 15 333.5 L 16 331.5 L 15 328 Z "></path></svg>