<svg width="400" height="400" version="1.1" xmlns="http://www.w3.org/2000/svg" desc="Created with imagetracer.js version 1.2.5"><path fill="rgb(2,204,222)" stroke="rgb(2,204,222)" stroke-width="1" opacity="0.9921568627450981" d="M 251.5 15 L 270 15.5 L 264.5 17 L 243.5 17 L 242.5 18 L 212.5 19 L 213.5 17 L 250.5 16 L 251.5 15 Z "></path><path fill="rgb(2,204,222)" stroke="rgb(2,204,222)" stroke-width="1" opacity="0.9921568627450981" d="M 264.5 149 L 279 149.5 L 277.5 151 L 260.5 151 L 259.5 152 L 257.5 152 L 247.5 152 L 242 153 L 242.5 151 L 249.5 151 L 250.5 150 L 263.5 150 L 264.5 149 Z "></path><path fill="rgb(2,204,222)" stroke="rgb(2,204,222)" stroke-width="1" opacity="0.9921568627450981" d="M 230.5 151 L 241 151.5 L 227 154 Q 225.8 151 229.5 152 L 230.5 151 Z "></path><path fill="rgb(2,204,222)" stroke="rgb(2,204,222)" stroke-width="1" opacity="0.9921568627450981" d="M 199.5 197 L 210.5 197 L 217.5 201 L 240 207 Q 241.3 210 237.5 209 Q 223.1 205.4 211.5 199 L 201.5 198 L 186.5 204 L 186.5 203 L 190.5 200 L 199.5 197 Z "></path><path fill="rgb(2,204,222)" stroke="rgb(2,204,222)" stroke-width="1" opacity="0.9921568627450981" d="M 202.5 360 L 258 374.5 L 254.5 375 Q 246.5 371.5 235.5 371 L 231.5 369 L 227.5 369 L 225.5 367 Q 218.5 367 214.5 364 L 206.5 363 L 202.5 361 L 202.5 360 Z "></path><path fill="rgb(0,0,0)" stroke="rgb(0,0,0)" stroke-width="1" opacity="0" d="M 0 0 L 118 0.5 L 111.5 7 L 106.5 7 L 90.5 17 L 86.5 18 L 65 37.5 L 51 59.5 L 49 74.5 L 49 76.5 Q 48.8 91.8 56 99.5 Q 53.5 101 57 102.5 L 61 110.5 L 76.5 130 L 94.5 146 L 115.5 159 L 136.5 169 L 146 175 Q 147.1 177.7 144.5 177 Q 142.3 180.7 135.5 180 L 128.5 185 L 91.5 203 L 76 215.5 Q 71.9 225.9 63 231.5 L 50 252.5 L 43 268.5 L 41 283.5 L 41 285.5 L 42 287.5 L 41 290.5 L 43 304.5 L 46 311.5 L 46 313.5 L 52 325.5 L 75.5 352 Q 87.3 363.5 103 370 Q 101.9 372.7 104.5 372 L 133.5 388 L 150.5 393 L 167.5 395 L 168.5 396 Q 170.2 393.3 172 397.5 L 171.5 400 L 0 400 L 0 0 Z "></path><path fill="rgb(0,0,0)" stroke="rgb(0,0,0)" stroke-width="1" opacity="0" d="M 365.5 0 L 399.5 0 L 400 0.5 L 400 400 L 285 399.5 L 311 399 L 312 396.5 L 311 392.5 L 302.5 384 L 289.5 378 L 285.5 378 L 277.5 375 L 259.5 373 L 255 369.5 L 244 353.5 L 242 347.5 L 228 328.5 Q 230.5 327 227 325.5 L 211 304.5 L 211 302.5 L 202 285.5 L 201 280.5 L 201 278.5 L 202 273.5 L 201 271.5 L 203 268.5 L 202 265.5 L 208 244.5 L 225.5 221 L 235.5 213 L 240.5 211 L 254.5 216 L 274.5 220 L 278.5 220 L 289.5 220 L 290.5 219 L 299.5 221 L 308.5 219 L 310.5 220 L 317.5 218 L 319.5 218 L 324.5 218 L 337.5 215 L 339.5 215 L 351.5 213 L 362.5 209 L 375 199.5 L 378 193.5 L 379 184.5 Q 376.8 183.3 378 178.5 L 371.5 169 L 366.5 165 L 361.5 161 L 352.5 157 L 337.5 153 L 328.5 153 L 319.5 150 L 304.5 148 L 302.5 148 Q 288.1 149.9 279 146.5 L 281 136.5 L 281 125.5 L 280 123.5 L 281 122.5 L 281 108.5 Q 278.8 107.2 280 102.5 L 281 97.5 L 278 81.5 L 278 74.5 L 277 73.5 L 277 48.5 L 270 19.5 L 275.5 17 L 277.5 18 L 280.5 17 L 295.5 17 L 297.5 16 L 299.5 17 L 308.5 15 L 310.5 15 L 319.5 15 L 328.5 13 L 330.5 14 L 337.5 12 L 343.5 12 L 356.5 8 L 365.5 0 Z "></path><path fill="rgb(0,0,0)" stroke="rgb(0,0,0)" stroke-width="1" opacity="0" d="M 210.5 20 L 212.5 20 L 215 22.5 L 219 29.5 L 223 41.5 L 223 43.5 L 233 76.5 L 233 78.5 L 237 96.5 L 237 110.5 L 237 112.5 L 236 115.5 L 237 118.5 L 235 122.5 L 234 136.5 L 229 148.5 L 226.5 151 L 221.5 151 L 210.5 156 L 206.5 156 Q 198.5 151 187.5 149 L 180.5 144 L 170.5 141 L 158.5 133 L 139.5 123 L 137 123 Q 138.1 120.3 135.5 121 L 125.5 116 L 104.5 97 L 103 97 L 97 89.5 L 91 78.5 Q 93.3 77.3 92 72.5 L 102.5 60 L 105.5 58 L 124.5 44 L 138.5 41 L 145 34.5 Q 144.3 32.3 146.5 33 L 161.5 27 L 191.5 21 L 193.5 22 L 194.5 21 L 209.5 21 L 210.5 20 Z "></path><path fill="rgb(0,0,0)" stroke="rgb(0,0,0)" stroke-width="1" opacity="0" d="M 178.5 207 L 180.5 208 L 182.5 207 L 179 211.5 Q 169.3 225.3 164 243.5 L 161 256.5 L 161 277.5 L 160 279.5 L 161 283.5 Q 158.5 285 160 290.5 L 165 303.5 L 171 313.5 L 171 316.5 L 175 325.5 L 198 357 L 186.5 355 L 184.5 355 L 174.5 355 L 152.5 351 L 111.5 327 L 98 316 L 98 314 Q 95.3 315.1 96 312.5 L 89 306.5 L 85 300.5 L 86 298.5 L 84 295.5 L 84 287.5 L 83 286.5 L 85 275.5 L 99.5 253 L 106 247.5 L 111.5 240 L 120.5 235 L 125.5 234 L 133.5 228 L 149.5 220 L 151.5 220 L 167.5 212 L 174.5 210 L 178.5 207 Z "></path><path fill="rgb(43,235,0)" stroke="rgb(43,235,0)" stroke-width="1" opacity="0.9411764705882353" d="M 265.5 16 Q 270 15 271 17.5 L 270 19.5 L 277 48.5 L 277 73.5 L 278 74.5 L 281 101.5 Q 278.8 102.8 280 107.5 L 281 108.5 L 281 122.5 L 280 124.5 L 281 125.5 L 281 136.5 L 280 137.5 L 280 145.5 L 277.5 149 L 250.5 150 L 241.5 152 L 240.5 151 L 230.5 151 L 228 152 L 234 136.5 L 235 122.5 L 237 116.5 L 237 114.5 L 236 111.5 L 237 110.5 L 237 96.5 L 235 85.5 L 232 77.5 L 233 75.5 L 222 42.5 L 222 40.5 Q 220.2 27.8 213 20.5 L 214.5 19 Q 220 20.5 221.5 18 L 242.5 18 L 243.5 17 L 264.5 17 L 265.5 16 Z "></path><path fill="rgb(43,235,0)" stroke="rgb(43,235,0)" stroke-width="1" opacity="0.9411764705882353" d="M 201.5 198 L 211.5 199 L 224.5 205 L 236.5 208 L 239 210.5 L 223 223.5 L 208 244.5 L 202 265.5 L 202 269.5 L 201 272.5 L 202 274.5 L 201 278.5 L 202 281.5 L 202 285.5 L 212 303.5 L 211 304.5 L 214 307.5 L 229 327.5 L 228 328.5 L 231 331.5 L 257 373 L 226.5 367 L 220.5 364 L 202.5 360 L 198 356.5 L 175 325.5 Q 171.5 321 171 313.5 L 161 293.5 L 160 284.5 L 161 280.5 L 160 278.5 L 161 277.5 L 161 256.5 L 167 234.5 L 179 211.5 L 186.5 204 L 201.5 198 Z "></path><path fill="rgb(0,207,238)" stroke="rgb(0,207,238)" stroke-width="1" opacity="0.36470588235294116" d="M 118.5 0 L 121 0.5 L 115 5.5 Q 115.8 8.1 112.5 7 L 118.5 0 Z "></path><path fill="rgb(0,207,238)" stroke="rgb(0,207,238)" stroke-width="1" opacity="0.36470588235294116" d="M 360.5 0 L 365 0.5 L 356.5 8 L 343.5 12 L 337.5 12 L 329.5 14 L 327.5 14 L 310.5 15 L 309.5 16 L 307.5 15 L 298.5 17 L 296.5 16 L 295.5 17 L 280.5 17 L 279.5 18 L 277.5 18 L 275.5 17 L 271.5 18 L 270.5 16 L 298.5 15 L 299.5 14 L 309.5 14 L 310.5 13 L 337.5 11 L 350.5 8 L 359 2.5 L 360.5 0 Z "></path><path fill="rgb(0,207,238)" stroke="rgb(0,207,238)" stroke-width="1" opacity="0.36470588235294116" d="M 106.5 7 L 110 7.5 L 92.5 18 L 88.5 19 L 71 34.5 L 68.5 38 L 65 40.5 L 53 60.5 L 51 71.5 L 51 80.5 L 53 90.5 L 57 97.5 Q 54.5 99 58 100.5 L 64 111.5 L 81.5 132 L 105.5 151 L 150 175 Q 151.1 177.7 148.5 177 L 93.5 204 Q 83.2 209.7 76 218.5 L 66 230.5 L 48 259.5 L 44 272.5 L 43 291.5 L 44 292.5 L 44 300.5 L 47 309.5 L 47 311.5 L 55 326.5 L 77.5 351 L 88.5 360 L 128.5 384 L 142.5 389 L 169 394 L 168.5 396 L 167.5 395 L 150.5 393 L 133.5 388 L 103 372 Q 104.1 369.3 101.5 370 Q 81.3 359.7 67 343.5 L 52 325.5 L 45 312.5 L 45 310.5 L 41 290.5 L 41 286.5 L 42 284.5 L 41 281.5 L 42 280.5 L 43 268.5 L 50 252.5 L 63 231.5 L 73 221.5 Q 75.9 213.4 82.5 209 Q 103.5 195 128.5 185 L 133.5 181 Q 141.5 180.3 146 177 Q 147.1 174.3 144.5 175 L 136.5 169 L 115.5 159 L 94.5 146 L 74 127.5 L 55 100.5 L 55 98.5 Q 48.8 90.7 49 76.5 L 49 74.5 L 51 59.5 L 57 48.5 L 66.5 36 L 86.5 18 L 90.5 17 L 106.5 7 Z "></path><path fill="rgb(0,207,238)" stroke="rgb(0,207,238)" stroke-width="1" opacity="0.36470588235294116" d="M 194.5 19 L 214 19.5 L 211.5 21 L 209.5 21 L 194.5 21 L 192.5 22 L 190.5 22 L 182.5 22 Q 179.8 24.8 173.5 24 L 145 33 L 138.5 41 L 124.5 44 L 104 58 Q 105.1 60.7 102.5 60 L 92 72.5 Q 93.3 77.3 91 78.5 L 97 89.5 L 103 97 L 104.5 97 L 125.5 116 L 137 121 Q 135.8 124 139.5 123 L 158.5 133 L 168.5 140 Q 180.3 142.2 187.5 149 Q 198.5 151 206.5 156 L 210.5 156 L 215.5 153 L 227.5 150 L 228 152 L 207.5 158 L 168.5 142 L 154.5 133 L 137 125 Q 138.1 122.3 135.5 123 Q 123.1 117.9 114 109.5 L 112.5 107 L 98 93.5 L 90 79.5 L 90 73.5 Q 93.6 64.6 100.5 59 L 116.5 47 L 140.5 36 L 150.5 29 L 178.5 21 L 193.5 20 L 194.5 19 Z "></path><path fill="rgb(0,207,238)" stroke="rgb(0,207,238)" stroke-width="1" opacity="0.36470588235294116" d="M 279.5 147 L 284.5 148 L 302.5 148 L 303.5 149 L 305.5 148 L 306.5 149 L 319.5 150 L 328.5 153 L 337.5 153 L 352.5 157 L 368 165 L 368 167 L 370 167 Q 368.9 169.7 371.5 169 L 378 178.5 L 379 187.5 Q 376.8 188.7 378 193.5 L 375 199.5 L 370.5 204 L 362.5 209 L 338.5 216 L 334.5 215 L 318.5 219 L 316.5 219 L 309.5 220 L 307.5 220 L 297.5 221 L 290.5 219 L 289.5 220 L 278.5 220 L 274.5 220 L 254.5 216 L 241.5 212 L 238 209.5 L 241.5 209 L 267.5 217 L 299.5 219 L 300.5 218 L 318.5 217 L 330.5 214 L 338.5 214 L 347.5 212 L 363.5 206 L 372 199.5 L 376 189.5 L 376 182.5 Q 374.3 173.3 367.5 169 Q 365.3 169.8 366 167.5 L 347.5 157 L 329.5 155 L 312.5 151 L 287.5 150 L 286.5 149 L 278 148.5 L 279.5 147 Z "></path><path fill="rgb(0,207,238)" stroke="rgb(0,207,238)" stroke-width="1" opacity="0.36470588235294116" d="M 184.5 204 L 186 204.5 Q 183.9 208.1 179 208 Q 177.9 205.3 180.5 206 L 184.5 204 Z "></path><path fill="rgb(0,207,238)" stroke="rgb(0,207,238)" stroke-width="1" opacity="0.36470588235294116" d="M 177.5 206 L 178 207.5 L 150.5 221 L 148.5 221 L 133.5 228 L 125.5 234 L 120.5 235 L 111.5 240 L 107 244.5 Q 105.6 250.6 100.5 253 L 97 255.5 L 85 275.5 L 83 286.5 L 84 287.5 L 84 295.5 L 86 299.5 Q 83.5 301 87 302.5 L 92.5 310 L 96 312.5 L 96 314 L 98 314 Q 96.9 316.7 99.5 316 L 111.5 327 L 152 350.5 L 150.5 351 L 127.5 339 L 103 322.5 L 93.5 312 L 87 306.5 L 82 294.5 L 82 279.5 Q 88.3 263.3 98.5 251 L 104 246.5 L 111.5 238 L 120.5 233 L 122.5 233 L 147.5 219 L 149.5 219 L 177.5 206 Z "></path><path fill="rgb(0,207,238)" stroke="rgb(0,207,238)" stroke-width="1" opacity="0.36470588235294116" d="M 153.5 351 L 166.5 354 L 184.5 355 L 185.5 356 L 187.5 356 L 198.5 357 L 202 359.5 L 199.5 360 L 193.5 358 L 175.5 357 L 174.5 356 L 156.5 354 L 153.5 351 Z "></path><path fill="rgb(0,207,238)" stroke="rgb(0,207,238)" stroke-width="1" opacity="0.36470588235294116" d="M 257.5 372 L 264.5 374 L 277.5 375 L 292.5 379 Q 304.4 383.1 311 392.5 L 312 396.5 L 311 399 L 307 397.5 Q 306.4 387.6 299.5 384 L 277.5 377 L 264.5 376 L 256 373.5 L 257.5 372 Z "></path><path fill="rgb(0,207,238)" stroke="rgb(0,207,238)" stroke-width="1" opacity="0.36470588235294116" d="M 170.5 395 L 177 396 Q 179.1 402.4 172 400 L 170.5 395 Z "></path><path fill="rgb(0,207,238)" stroke="rgb(0,207,238)" stroke-width="1" opacity="0.36470588235294116" d="M 280.5 399 L 285 399.5 L 280.5 400 L 280.5 399 Z "></path><path fill="rgb(0,202,236)" stroke="rgb(0,202,236)" stroke-width="1" opacity="0.996078431372549" d="M 121.5 0 L 133 0.5 L 132.5 2 L 135.5 0 L 138 0.5 L 133.5 3 L 131.5 4 Q 129.7 1.2 128 5.5 L 127.5 8 L 125.5 8 L 115 7 L 117.5 3 L 121.5 0 Z "></path><path fill="rgb(0,202,236)" stroke="rgb(0,202,236)" stroke-width="1" opacity="0.996078431372549" d="M 155.5 0 L 154.5 2 L 155.5 0 Z "></path><path fill="rgb(0,202,236)" stroke="rgb(0,202,236)" stroke-width="1" opacity="0.996078431372549" d="M 326.5 0 L 327.5 2 Q 324.7 2.7 326.5 0 Z "></path><path fill="rgb(0,202,236)" stroke="rgb(0,202,236)" stroke-width="1" opacity="0.996078431372549" d="M 342.5 0 L 360 0.5 L 357.5 4 L 350.5 8 L 337.5 11 L 310.5 13 L 309.5 14 L 299.5 14 L 298.5 15 L 270.5 16 L 269 13 L 271 12.5 L 270.5 11 Q 273.1 11.8 272 8.5 L 273 8.5 Q 271.6 13.1 277.5 11 L 276.5 8 L 280 10.5 L 280.5 9 L 281.5 12 L 285 11 L 286.5 8 L 286 9.5 L 286.5 11 L 288.5 10 L 290 10.5 L 289 8.5 L 291 9.5 L 291.5 11 Q 295.8 9.3 293 7.5 L 293.5 6 L 295 8.5 L 294.5 10 L 298.5 11 L 301.5 10 L 303 10.5 Q 303.8 8.3 301.5 9 L 300.5 7 L 306.5 10 L 307 7 L 309 7.5 L 308 9.5 L 309.5 9 L 313.5 6 L 313 7.5 Q 312.2 10.5 316 9 L 316.5 7 L 319 8.5 L 320.5 6 L 322 6.5 L 322.5 5 L 324.5 8 L 326.5 8 L 329.5 7 L 331.5 7 L 333 6.5 L 331 5.5 L 335.5 5 Q 336.8 7.3 338 4.5 Q 335.8 3.3 338.5 2 Q 340.8 1.3 340 3.5 L 339 5.5 L 341 4.5 L 341.5 2 L 343 2.5 L 342.5 0 Z "></path><path fill="rgb(0,202,236)" stroke="rgb(0,202,236)" stroke-width="1" opacity="0.996078431372549" d="M 313.5 2 L 315 2.5 L 312.5 4 L 313.5 2 Z "></path><path fill="rgb(0,202,236)" stroke="rgb(0,202,236)" stroke-width="1" opacity="0.996078431372549" d="M 317.5 3 L 319 5.5 L 317 4.5 L 317.5 3 Z "></path><path fill="rgb(0,202,236)" stroke="rgb(0,202,236)" stroke-width="1" opacity="0.996078431372549" d="M 301.5 5 L 302.5 7 L 301.5 5 Z "></path><path fill="rgb(0,202,236)" stroke="rgb(0,202,236)" stroke-width="1" opacity="0.996078431372549" d="M 298.5 6 L 298 7.5 L 297.5 9 L 297 7.5 L 298.5 6 Z "></path><path fill="rgb(0,202,236)" stroke="rgb(0,202,236)" stroke-width="1" opacity="0.996078431372549" d="M 110.5 7 L 114 7.5 L 111 12 L 107.5 14 L 106 13.5 L 107 17 L 105 16.5 L 105.5 15 Q 103.3 14.3 104 16.5 Q 102.7 19.2 101.5 17 L 99 18.5 L 102 19 L 101.5 22 L 101 20 L 99 20.5 Q 101.2 21.8 98.5 23 L 95.5 25 L 93 24.5 L 93.5 23 L 90 24.5 L 90 26.5 L 89.5 28 Q 87.8 24.3 86 27.5 L 86.5 29 L 84.5 28 L 84.5 30 L 83 29.5 L 81.5 34 L 80 33.5 L 79 36.5 L 80 37.5 Q 76.9 39.3 78.5 41 L 75.5 39 L 75 41 L 71 40 L 72 43.5 L 70 43.5 L 69 48 L 67 48.5 L 70 49 L 70.5 47 L 71 48.5 L 66 51.5 L 68 53.5 L 67 58.5 Q 67.8 60.8 65.5 60 L 63 59.5 L 67 57.5 L 62 56 L 60 59.5 L 62 60.5 L 61 62.5 L 61.5 64 L 60 63.5 L 61 65.5 L 59 66.5 L 62 67.5 L 59 68.5 L 60 70.5 L 58 70.5 L 57 73.5 L 57 75.5 L 57.5 77 L 59 76.5 L 57.5 79 L 56 79.5 L 58 80 Q 56.3 85.2 60 84 L 59 81.5 L 59.5 79 Q 63.8 80.8 61 82.5 L 59 85.5 L 59.5 87 L 58 87.5 L 60 88 Q 59 93.1 63 94.5 L 61 94.5 Q 59.9 97.8 62.5 97 Q 63.7 94.8 65 97.5 L 63 98.5 L 63.5 100 L 62 99.5 L 64 104 L 66 103.5 L 65.5 102 L 67.5 102 L 70 103.5 L 68.5 103 L 67 103.5 L 68 105.5 L 67.5 107 L 70.5 105 L 72 104.5 L 72 106.5 L 71.5 108 L 69 107 L 69.5 111 L 72.5 110 L 72.5 111 L 71 111.5 L 75 114.5 L 74.5 116 L 76.5 117 L 78 116.5 Q 78.8 118.8 76.5 118 L 77 119.5 L 78.5 122 L 81 120.5 L 80.5 122 L 83 122.5 L 81.5 125 L 83 125.5 L 82.5 127 Q 85.8 125.9 85 128.5 L 87.5 129 L 89.5 128 L 89.5 130 L 91.5 129 L 91.5 132 L 90 132.5 L 95.5 136 Q 96.8 133.7 98 136.5 Q 97.5 140.5 100.5 141 L 103.5 140 L 103.5 141 L 101 141.5 L 104 143.5 Q 103.3 145.8 105.5 145 L 108 143.5 L 106.5 146 L 109.5 145 L 111.5 148 L 114 146.5 L 113.5 150 L 117 150 Q 115.9 152.7 118.5 152 L 119.5 155 L 122 154 L 122.5 157 L 123.5 154 Q 125.5 157.2 130 157 Q 129 160 132 159 L 132 161.5 L 133 161.5 Q 132.2 158.5 136 160 L 136 162 Q 138.7 160.9 138 163.5 L 140 164.5 L 140.5 162 L 141.5 164 L 144 163 Q 142.9 165.7 145.5 165 L 148.5 169 Q 149.8 166.8 151 169.5 L 151.5 171 L 153 170.5 L 153.5 172 L 155.5 168 L 155 169.5 Q 154.3 171.8 156.5 171 L 157.5 173 L 155.5 173 L 154 173.5 L 156 176.5 L 155 176.5 L 154.5 175 L 154 178 Q 158.1 176.3 157 180.5 L 156 180.5 Q 156.7 177.9 154 179 L 151.5 184 L 152 182.5 L 151.5 181 Q 149.6 184.6 144.5 185 L 143 184.5 L 142 186.5 L 143 188.5 L 141 187.5 L 140.5 186 L 137.5 187 L 136 187.5 L 137 189.5 L 134 191.5 L 136 188.5 L 134.5 189 L 128.5 193 L 127.5 190 L 125 194.5 L 125.5 196 L 122.5 194 L 122 195.5 L 123.5 198 L 119.5 196 L 116 198.5 L 116.5 200 L 115 199.5 Q 115.8 201.8 113.5 201 L 114 199.5 L 113.5 198 L 110 200 L 108.5 204 L 108 202.5 L 109 200 L 106 201.5 L 106.5 203 L 103 203 L 103 205 L 101 205 Q 102.1 207.7 99.5 207 L 98.5 210 L 97 209.5 L 96.5 213 L 95.5 210 Q 92.9 209.2 94 212.5 L 96 215.5 L 93.5 214 L 89.5 215 L 87 213.5 L 85 217.5 L 87 218 L 88 220.5 L 85 221 L 84.5 219 L 81 221.5 L 81.5 223 L 76 224 L 73 228.5 L 75 229.5 L 73 230 L 73 234 L 71.5 234 L 69 234.5 L 69.5 239 L 70 237 L 72.5 236 L 72 237.5 Q 72.8 239.8 70.5 239 Q 69.2 241.3 68 238.5 L 67.5 237 L 67 241 L 64.5 240 Q 61.8 241.3 64 242.5 L 64.5 244 L 66 243.5 L 63 245.5 L 63.5 244 L 61 245.5 L 63 248.5 Q 61.8 251.3 60.5 249 Q 56.8 247.8 58 251.5 L 58 253.5 L 60 257.5 L 56.5 260 L 57.5 258 L 59 257.5 Q 57 253 55 256.5 Q 57.2 257.8 54.5 259 L 52 259.5 L 54 260 L 52 264.5 Q 54.5 266 51 267.5 L 51.5 269 L 53 268.5 L 51 271.5 L 52.5 273 L 55 271.5 L 53.5 275 L 51 273.5 L 51 277 Q 48.3 275.9 49 278.5 L 51 278.5 L 50 280.5 L 53 284.5 L 51 284.5 L 52 286.5 L 51 288.5 Q 53.3 289.8 50.5 291 L 49 291.5 L 50 293.5 L 49 294.5 L 50.5 297 L 49 297.5 L 55 299.5 L 53.5 302 L 52.5 300 L 50 303.5 L 51 305.5 L 50.5 307 L 52 307.5 L 50 308.5 L 54.5 311 Q 56.7 305.8 59 309.5 L 57.5 309 L 52 314.5 L 53.5 315 L 55 314.5 L 55.5 320 L 57 319.5 L 59.5 323 L 61 322.5 Q 60.3 324.8 62.5 324 Q 63.7 321.8 65 324.5 L 63 324.5 L 64 326.5 L 63.5 328 L 65.5 329 Q 66.8 326.7 68 329.5 L 64 330.5 L 69 332.5 Q 65.2 334.3 68.5 336 L 70.5 335 Q 74.2 337 72.5 339 Q 74.8 338.3 74 340.5 L 77.5 343 L 79 342.5 Q 78.2 345.1 81.5 344 L 82 346.5 L 82.5 349 L 83.5 346 L 85 349 L 83 349.5 L 85.5 351 L 86.5 349 L 88 354 L 90.5 353 L 90.5 355 L 92.5 354 L 93 356 L 98 359.5 L 98.5 361 L 100 360.5 L 100.5 363 L 105 359.5 L 106 361.5 L 104.5 362 Q 103.3 359.8 102 362.5 L 102.5 364 L 104 363.5 L 104.5 365 L 105 363 L 107 363.5 L 106.5 365 L 109.5 366 L 111 365.5 L 110 368.5 Q 111.2 371.3 112.5 369 L 114 369.5 L 113.5 371 L 116.5 370 L 117.5 373 L 119.5 370 L 120 373 L 125 373.5 L 121 374.5 L 124.5 376 L 127 375 L 127.5 377 L 130.5 375 L 130 376.5 L 131.5 381 L 132.5 379 L 134 379.5 Q 134.8 377.3 132.5 378 L 132.5 377 L 136 378 Q 134.9 380.7 137.5 380 L 139 379.5 Q 138.3 381.8 140.5 381 L 143 379.5 L 142 384 Q 144.7 385.1 144 382.5 L 145 382.5 L 145.5 384 L 149 383.5 Q 146.8 384.7 149.5 386 L 150.5 384 L 152.5 385 L 154.5 385 L 156.5 384 L 157.5 387 L 159.5 387 L 162.5 388 L 164 387.5 Q 163.3 389.8 165.5 389 L 167.5 386 L 170 386.5 Q 167.3 388.2 171.5 390 L 175 389 L 175.5 392 Q 177 389.5 178.5 393 L 190.5 397 L 196.5 397 L 198 398.5 L 197.5 400 L 177 400 Q 179.1 394.8 174.5 396 L 166.5 393 L 154.5 392 L 142.5 389 L 128.5 384 L 85.5 358 L 62 335.5 Q 52.4 324.6 46 310.5 L 47 308.5 L 44 300.5 L 43 280.5 L 44 279.5 L 45 268.5 L 51 253.5 L 66 230.5 L 84.5 210 L 108.5 196 L 138.5 181 L 141.5 181 L 150 177 Q 151.1 174.3 148.5 175 L 96.5 145 L 73 123.5 L 56 98.5 L 56 96.5 L 52 87.5 L 51 71.5 L 53 60.5 L 58 50.5 L 67.5 38 L 71 35.5 L 78.5 27 L 88.5 19 L 92.5 18 L 110.5 7 Z M 97 20 L 94 22 L 97 23 L 99 22 L 97 20 Z M 77 35 L 76 37 L 76 39 L 78 39 L 77 35 Z M 65 52 L 66 54 Q 67 51 65 52 Z M 64 53 L 62 55 L 65 55 L 64 53 Z M 145 166 L 145 168 Q 144 170 147 169 L 146 168 Q 147 165 145 166 Z M 49 284 L 48 286 L 48 288 L 49 290 L 51 290 L 50 288 Q 53 286 49 284 Z M 91 314 L 89 316 L 91 317 L 91 314 Z M 168 388 L 168 391 L 169 391 Q 170 387 168 388 Z "></path><path fill="rgb(0,202,236)" stroke="rgb(0,202,236)" stroke-width="1" opacity="0.996078431372549" d="M 223.5 7 L 223.5 10 Q 220.5 8.5 223.5 7 Z "></path><path fill="rgb(0,202,236)" stroke="rgb(0,202,236)" stroke-width="1" opacity="0.996078431372549" d="M 248.5 8 L 249.5 10 Q 246.7 10.7 248.5 8 Z "></path><path fill="rgb(0,202,236)" stroke="rgb(0,202,236)" stroke-width="1" opacity="0.996078431372549" d="M 261.5 8 L 264 9.5 L 262.5 10 L 261.5 8 Z "></path><path fill="rgb(0,202,236)" stroke="rgb(0,202,236)" stroke-width="1" opacity="0.996078431372549" d="M 206.5 11 L 207.5 13 Q 208.7 10.8 210 13.5 L 211.5 16 Q 213.8 15.3 213 17.5 L 211.5 19 L 194.5 19 L 193.5 20 L 178.5 21 L 150.5 29 L 140.5 36 L 116.5 47 L 97 62.5 L 90 73.5 L 90 79.5 Q 97.4 96.6 111.5 107 L 114 108.5 L 115.5 111 Q 124.8 119 137 123 Q 135.9 125.7 138.5 125 L 168.5 142 L 201.5 156 L 210.5 158 L 226.5 152 L 227 154.5 L 222.5 159 L 221 158.5 L 219.5 161 L 217.5 160 L 216 160.5 L 216.5 159 L 209.5 160 L 206.5 159 L 199.5 157 L 199 159 Q 196.3 160.1 197 157.5 L 195.5 158 Q 193.3 157.3 194 159.5 L 193 159.5 Q 193.8 157.3 191.5 158 L 191.5 157 L 193.5 158 L 194 155.5 L 192.5 156 L 190.5 155 L 188 156 L 186.5 153 L 182.5 155 L 182 153.5 L 183 151.5 L 180 151.5 L 179.5 155 Q 180.1 150.4 177.5 149 L 174.5 147 L 172.5 151 L 171 149.5 L 171.5 146 Q 166.1 144.1 167 147.5 L 166 147.5 L 165 144 L 161 143 L 160.5 141 L 159.5 143 L 158.5 140 L 155.5 141 L 153.5 139 L 150 139.5 L 151 137 L 148.5 138 L 146.5 135 L 146 137 L 144 136.5 L 145.5 134 Q 142.2 132.9 143 135.5 L 142 135.5 L 141 130 Q 137.6 130.8 136.5 128 L 135.5 131 L 133 130.5 L 134.5 128 Q 131.9 128.8 133 125.5 Q 130.7 127.2 128.5 123 L 127.5 124 L 124 124.5 Q 126.2 125.8 123.5 127 L 121 126.5 L 124 123.5 L 122 119.5 L 121.5 118 L 120.5 120 L 119.5 118 L 118.5 121 L 117 119.5 L 118.5 117 Q 113.7 118.7 115 114.5 L 112.5 114 Q 109.9 114.8 111 111.5 L 109 108 Q 106.3 106.9 107 109.5 L 105 108.5 L 106 106.5 L 105 104 Q 101.2 103.3 100 106.5 L 99.5 108 L 98.5 106 L 101 104.5 L 98 100.5 L 98.5 99 Q 94.1 100.5 95 97.5 L 96.5 95 L 94.5 94 L 93 94.5 L 94 92.5 L 90.5 91 L 89 91.5 L 91 87 Q 88 88.3 89 84.5 L 89 82.5 L 88.5 81 L 86.5 82 L 88 79.5 Q 89.1 76.2 86.5 77 L 85 77.5 L 88 76 Q 86.7 69 91 66.5 L 89 66 L 89.5 64 Q 91.3 66.8 93 62.5 Q 92.3 59.9 95 61 L 95 59 L 93 58.5 L 94.5 58 L 96 58.5 Q 94.5 54.1 97.5 55 L 99.5 56 L 101 52.5 L 100.5 49 L 102.5 49 L 104 49.5 L 102 50.5 L 105.5 51 L 106.5 48 L 110.5 46 L 112 46.5 L 113.5 42 L 114.5 44 L 118.5 41 Q 119.8 43.3 121 40.5 Q 120.3 38.3 122.5 39 L 125.5 40 L 149.5 28 L 152.5 28 L 155.5 26 L 184.5 17 Q 186 19.5 187.5 16 L 190.5 17 L 191.5 15 L 192.5 17 L 193.5 15 L 195.5 15 L 198.5 13 L 198.5 15 L 201.5 13 Q 203 16.5 204.5 14 Q 207.4 14.7 206.5 11 Z "></path><path fill="rgb(0,202,236)" stroke="rgb(0,202,236)" stroke-width="1" opacity="0.996078431372549" d="M 103.5 20 L 104 22.5 L 103 22.5 L 103.5 20 Z "></path><path fill="rgb(0,202,236)" stroke="rgb(0,202,236)" stroke-width="1" opacity="0.996078431372549" d="M 104.5 26 L 103.5 28 L 104.5 26 Z "></path><path fill="rgb(0,202,236)" stroke="rgb(0,202,236)" stroke-width="1" opacity="0.996078431372549" d="M 109.5 29 L 110.5 31 L 109.5 29 Z "></path><path fill="rgb(0,202,236)" stroke="rgb(0,202,236)" stroke-width="1" opacity="0.996078431372549" d="M 109.5 40 L 112 41.5 L 110.5 41 L 109.5 40 Z "></path><path fill="rgb(0,202,236)" stroke="rgb(0,202,236)" stroke-width="1" opacity="0.996078431372549" d="M 72.5 46 L 75 46.5 L 74 49 L 72 48.5 L 72.5 46 Z "></path><path fill="rgb(0,202,236)" stroke="rgb(0,202,236)" stroke-width="1" opacity="0.996078431372549" d="M 77.5 60 L 76.5 62 L 77.5 60 Z "></path><path fill="rgb(0,202,236)" stroke="rgb(0,202,236)" stroke-width="1" opacity="0.996078431372549" d="M 59.5 72 L 60.5 74 L 59.5 72 Z "></path><path fill="rgb(0,202,236)" stroke="rgb(0,202,236)" stroke-width="1" opacity="0.996078431372549" d="M 61.5 78 L 62.5 80 L 61.5 78 Z "></path><path fill="rgb(0,202,236)" stroke="rgb(0,202,236)" stroke-width="1" opacity="0.996078431372549" d="M 61.5 85 L 63 87.5 L 61 88.5 L 61 86.5 L 61.5 85 Z "></path><path fill="rgb(0,202,236)" stroke="rgb(0,202,236)" stroke-width="1" opacity="0.996078431372549" d="M 90.5 93 L 91.5 95 L 90.5 93 Z "></path><path fill="rgb(0,202,236)" stroke="rgb(0,202,236)" stroke-width="1" opacity="0.996078431372549" d="M 70.5 95 L 70.5 98 Q 67.5 96.5 70.5 95 Z "></path><path fill="rgb(0,202,236)" stroke="rgb(0,202,236)" stroke-width="1" opacity="0.996078431372549" d="M 66.5 98 L 67 100.5 L 65 99.5 L 66.5 98 Z "></path><path fill="rgb(0,202,236)" stroke="rgb(0,202,236)" stroke-width="1" opacity="0.996078431372549" d="M 102.5 106 L 103.5 108 L 102.5 106 Z "></path><path fill="rgb(0,202,236)" stroke="rgb(0,202,236)" stroke-width="1" opacity="0.996078431372549" d="M 77.5 107 L 76.5 109 L 77.5 107 Z "></path><path fill="rgb(0,202,236)" stroke="rgb(0,202,236)" stroke-width="1" opacity="0.996078431372549" d="M 93.5 116 L 92.5 118 L 93.5 116 Z "></path><path fill="rgb(0,202,236)" stroke="rgb(0,202,236)" stroke-width="1" opacity="0.996078431372549" d="M 114.5 118 L 115.5 120 L 113 119.5 L 114.5 118 Z "></path><path fill="rgb(0,202,236)" stroke="rgb(0,202,236)" stroke-width="1" opacity="0.996078431372549" d="M 87.5 125 L 86.5 127 L 87.5 125 Z "></path><path fill="rgb(0,202,236)" stroke="rgb(0,202,236)" stroke-width="1" opacity="0.996078431372549" d="M 128.5 125 Q 131.5 126.5 128.5 128 L 128.5 125 Z "></path><path fill="rgb(0,202,236)" stroke="rgb(0,202,236)" stroke-width="1" opacity="0.996078431372549" d="M 92.5 126 L 93.5 128 L 92.5 126 Z "></path><path fill="rgb(0,202,236)" stroke="rgb(0,202,236)" stroke-width="1" opacity="0.996078431372549" d="M 139.5 131 L 141 133.5 L 139 132.5 L 139.5 131 Z "></path><path fill="rgb(0,202,236)" stroke="rgb(0,202,236)" stroke-width="1" opacity="0.996078431372549" d="M 103 135 L 105 135.5 L 103 136.5 L 103 135 Z "></path><path fill="rgb(0,202,236)" stroke="rgb(0,202,236)" stroke-width="1" opacity="0.996078431372549" d="M 115.5 139 L 116.5 141 L 115.5 139 Z "></path><path fill="rgb(0,202,236)" stroke="rgb(0,202,236)" stroke-width="1" opacity="0.996078431372549" d="M 110.5 142 L 109.5 144 L 110.5 142 Z "></path><path fill="rgb(0,202,236)" stroke="rgb(0,202,236)" stroke-width="1" opacity="0.996078431372549" d="M 155.5 142 L 156.5 144 L 155.5 142 Z "></path><path fill="rgb(0,202,236)" stroke="rgb(0,202,236)" stroke-width="1" opacity="0.996078431372549" d="M 114.5 144 L 115.5 146 L 114.5 144 Z "></path><path fill="rgb(0,202,236)" stroke="rgb(0,202,236)" stroke-width="1" opacity="0.996078431372549" d="M 122.5 145 L 123.5 147 L 122.5 145 Z "></path><path fill="rgb(0,202,236)" stroke="rgb(0,202,236)" stroke-width="1" opacity="0.996078431372549" d="M 121.5 147 L 120.5 149 L 121.5 147 Z "></path><path fill="rgb(0,202,236)" stroke="rgb(0,202,236)" stroke-width="1" opacity="0.996078431372549" d="M 163.5 148 Q 165.8 147.3 165 149.5 L 163.5 148 Z "></path><path fill="rgb(0,202,236)" stroke="rgb(0,202,236)" stroke-width="1" opacity="0.996078431372549" d="M 168.5 148 L 169.5 150 L 168.5 148 Z "></path><path fill="rgb(0,202,236)" stroke="rgb(0,202,236)" stroke-width="1" opacity="0.996078431372549" d="M 279.5 149 L 312.5 151 L 329.5 155 L 347.5 157 L 366 167.5 Q 365.3 169.8 367.5 169 Q 376.9 174.1 376 189.5 Q 374.5 198.5 368.5 203 L 359.5 208 L 343.5 213 L 330.5 214 L 310.5 218 L 294.5 219 L 293.5 218 L 267.5 217 L 240 209 Q 238.5 205.2 241.5 206 L 244.5 205 L 246 205.5 Q 245.3 203.3 247.5 204 L 247.5 206 L 250.5 205 L 252.5 205 Q 255.5 204.2 254 208 L 252 208.5 L 256.5 209 L 256.5 208 L 255 207.5 L 257.5 207 L 259 210 L 267 209 L 267.5 211 L 268.5 208 L 269 211 Q 271.7 212.1 271 209.5 L 270 206.5 L 271 206.5 L 274 210.5 L 272 210.5 L 272.5 213 L 278.5 210 Q 280.3 213.1 282 211.5 L 283.5 214 L 285 213.5 L 284 212.5 Q 287.1 210.8 285.5 209 Q 288.5 208.1 287 212.5 L 292.5 216 L 293 214 Q 290.3 215.1 291 212.5 L 290.5 211 L 296.5 215 L 299 214.5 L 298 211 L 300.5 212 L 301.5 210 L 303.5 214 L 304.5 211 L 305.5 213 L 307.5 212 L 307.5 213 L 306 213.5 L 309 214 Q 307.8 211 311.5 212 L 310.5 209 L 313.5 211 L 315.5 210 L 318.5 212 L 320.5 208 Q 324.9 206.5 324 209.5 L 322.5 209 L 320 209.5 L 322 210.5 Q 319.8 211.7 322.5 213 L 323 211 L 330 209.5 L 329.5 208 Q 331.8 207.3 331 209.5 L 332.5 212 L 335 211 L 334 205 Q 338.2 204.2 339.5 208 L 342.5 207 L 344.5 208 L 346 205.5 L 345.5 204 L 347.5 207 L 350.5 202 L 350 203.5 L 350.5 205 L 359 199.5 L 358.5 198 L 362 199 L 363 196.5 L 361 196 L 361.5 193 L 362 195 L 365 194.5 L 362.5 191 Q 363.8 193.3 365 190.5 L 364 188.5 L 365 188.5 L 365.5 190 Q 368.3 188.8 366 187.5 L 365.5 185 L 364 185.5 Q 363.3 183.3 365.5 184 L 367 184.5 Q 367.8 180.8 365.5 180 L 364 179.5 L 365.5 177 L 360 175 L 361 171.5 L 359.5 170 L 357 171.5 L 357 169.5 L 355.5 166 L 351.5 168 L 349 167.5 L 352.5 166 L 355 164.5 L 353.5 164 L 351.5 165 L 348.5 164 Q 345.9 164.8 347 161.5 L 346 161.5 Q 346.8 164.1 343.5 163 L 342 163.5 Q 342.8 161.3 340.5 162 L 340.5 164 L 337.5 160 L 335 160.5 L 335.5 162 L 334.5 159 L 332 159.5 L 333 161.5 L 331.5 161 L 329 159.5 L 327.5 157 L 325.5 157 Q 320.3 156.8 318.5 160 L 315.5 158 L 314 158.5 Q 316.3 157.3 313.5 156 L 310.5 157 L 306.5 156 L 306.5 159 Q 308.8 159.8 308 157.5 L 309 157.5 Q 310.3 161.3 306.5 160 L 304 158.5 L 306 155.5 L 303.5 155 L 303.5 157 Q 301.8 153.3 300 156.5 L 299.5 158 L 299 156 L 293 154.5 L 293.5 153 L 290 154.5 L 292 155.5 L 289.5 156 L 283.5 154 L 281.5 155 L 281.5 153 Q 279.3 152.3 280 154.5 L 279 154.5 L 278.5 153 L 277.5 155 L 277 151.5 L 279.5 149 Z M 335 206 L 335 209 L 337 208 Q 338 205 335 206 Z M 279 211 Q 277 214 280 213 L 279 211 Z "></path><path fill="rgb(0,202,236)" stroke="rgb(0,202,236)" stroke-width="1" opacity="0.996078431372549" d="M 121.5 150 L 123.5 153 Q 119.1 154.1 121.5 150 Z "></path><path fill="rgb(0,202,236)" stroke="rgb(0,202,236)" stroke-width="1" opacity="0.996078431372549" d="M 173.5 152 L 175.5 152 L 178 152.5 L 174.5 154 L 173.5 152 Z "></path><path fill="rgb(0,202,236)" stroke="rgb(0,202,236)" stroke-width="1" opacity="0.996078431372549" d="M 130.5 154 L 132.5 157 L 130.5 154 Z "></path><path fill="rgb(0,202,236)" stroke="rgb(0,202,236)" stroke-width="1" opacity="0.996078431372549" d="M 293.5 156 L 294.5 158 L 293.5 156 Z "></path><path fill="rgb(0,202,236)" stroke="rgb(0,202,236)" stroke-width="1" opacity="0.996078431372549" d="M 134.5 157 L 133.5 159 L 134.5 157 Z "></path><path fill="rgb(0,202,236)" stroke="rgb(0,202,236)" stroke-width="1" opacity="0.996078431372549" d="M 285.5 157 L 288 157.5 L 285.5 158 L 285.5 157 Z "></path><path fill="rgb(0,202,236)" stroke="rgb(0,202,236)" stroke-width="1" opacity="0.996078431372549" d="M 185.5 159 L 184.5 161 L 185.5 159 Z "></path><path fill="rgb(0,202,236)" stroke="rgb(0,202,236)" stroke-width="1" opacity="0.996078431372549" d="M 310.5 159 L 311.5 161 L 310.5 159 Z "></path><path fill="rgb(0,202,236)" stroke="rgb(0,202,236)" stroke-width="1" opacity="0.996078431372549" d="M 342.5 165 L 343.5 167 L 342.5 165 Z "></path><path fill="rgb(0,202,236)" stroke="rgb(0,202,236)" stroke-width="1" opacity="0.996078431372549" d="M 347.5 165 L 346.5 167 L 345 166.5 L 347.5 165 Z "></path><path fill="rgb(0,202,236)" stroke="rgb(0,202,236)" stroke-width="1" opacity="0.996078431372549" d="M 311.5 167 L 310.5 169 L 311.5 167 Z "></path><path fill="rgb(0,202,236)" stroke="rgb(0,202,236)" stroke-width="1" opacity="0.996078431372549" d="M 318.5 169 L 319.5 171 L 318.5 169 Z "></path><path fill="rgb(0,202,236)" stroke="rgb(0,202,236)" stroke-width="1" opacity="0.996078431372549" d="M 306.5 171 L 307.5 173 L 306.5 171 Z "></path><path fill="rgb(0,202,236)" stroke="rgb(0,202,236)" stroke-width="1" opacity="0.996078431372549" d="M 289.5 177 L 288.5 179 L 289.5 177 Z "></path><path fill="rgb(0,202,236)" stroke="rgb(0,202,236)" stroke-width="1" opacity="0.996078431372549" d="M 158.5 180 L 161 180.5 L 158 182.5 L 158.5 180 Z "></path><path fill="rgb(0,202,236)" stroke="rgb(0,202,236)" stroke-width="1" opacity="0.996078431372549" d="M 363.5 182 L 366 182.5 L 363.5 183 L 363.5 182 Z "></path><path fill="rgb(0,202,236)" stroke="rgb(0,202,236)" stroke-width="1" opacity="0.996078431372549" d="M 157.5 184 L 158.5 186 L 157.5 184 Z "></path><path fill="rgb(0,202,236)" stroke="rgb(0,202,236)" stroke-width="1" opacity="0.996078431372549" d="M 147.5 185 L 150 185.5 L 147.5 186 L 147.5 185 Z "></path><path fill="rgb(0,202,236)" stroke="rgb(0,202,236)" stroke-width="1" opacity="0.996078431372549" d="M 155.5 186 L 154.5 188 L 155.5 186 Z "></path><path fill="rgb(0,202,236)" stroke="rgb(0,202,236)" stroke-width="1" opacity="0.996078431372549" d="M 360.5 186 L 359.5 188 L 360.5 186 Z "></path><path fill="rgb(0,202,236)" stroke="rgb(0,202,236)" stroke-width="1" opacity="0.996078431372549" d="M 139.5 189 L 140.5 191 L 139.5 189 Z "></path><path fill="rgb(0,202,236)" stroke="rgb(0,202,236)" stroke-width="1" opacity="0.996078431372549" d="M 186.5 192 L 187 194 L 185 193.5 L 186.5 192 Z "></path><path fill="rgb(0,202,236)" stroke="rgb(0,202,236)" stroke-width="1" opacity="0.996078431372549" d="M 182.5 194 L 186 196 L 186.5 200 L 189 198.5 L 188.5 197 L 192 198 Q 193.1 200.7 190.5 200 L 187.5 203 L 178.5 207 L 176.5 207 Q 161.1 212.1 148.5 220 L 146.5 220 Q 132.5 225.5 121.5 234 L 119.5 234 Q 109.5 237.5 104 245.5 L 99.5 251 L 97 252.5 L 83 276.5 L 82 279.5 L 82 294.5 L 85 303.5 L 92.5 312 L 103 321.5 L 104.5 324 L 127.5 339 L 156.5 354 L 174.5 356 L 175.5 357 L 193.5 358 L 201.5 360 L 205 362.5 L 206 367.5 L 204 368 L 203.5 366 L 202.5 368 L 201.5 366 L 200 366.5 L 200.5 365 L 197.5 364 L 196.5 365 L 193 362.5 Q 193.8 364.8 191.5 364 L 189.5 364 L 185.5 362 L 182 364.5 L 182 362.5 L 181.5 361 L 180.5 363 L 177.5 362 L 176 362.5 Q 177.1 359.2 174.5 360 L 175 361.5 L 174.5 363 L 172.5 360 L 170.5 359 L 170 361 Q 167.3 362.1 168 359.5 L 167 359.5 L 166.5 361 L 165.5 359 L 163 360 L 162.5 358 L 161 358.5 L 159.5 356 L 159 358 Q 156.3 359.1 157 356.5 Q 155.5 353.5 154 356.5 L 155.5 359 Q 153.3 359.8 154 357.5 L 150.5 355 L 149.5 357 L 149 355.5 L 149.5 354 L 147.5 355 L 145.5 353 L 142 353.5 Q 144.5 352 141 350.5 Q 141.8 348.3 139.5 349 L 138.5 350 L 135.5 347 Q 133.3 346.3 134 348.5 L 131 348.5 L 134 346.5 L 131.5 345 L 128.5 349 L 127.5 347 Q 128.8 349.3 130 346.5 Q 130.8 344.3 128.5 345 L 126.5 342 L 125.5 344 L 123.5 341 L 121 342.5 L 121.5 344 L 120 341.5 L 121 338.5 L 120 338.5 L 119.5 340 Q 117.8 336.9 116 338.5 Q 119.7 336.8 116.5 335 L 116 337 L 113.5 336 L 112.5 338 L 112 336 L 110 335.5 L 111.5 335 L 113 335.5 Q 113.8 333.3 111.5 334 L 109 333.5 L 108.5 332 L 107 332.5 L 107 330.5 L 106.5 329 L 105.5 330 L 102.5 327 L 99.5 328 L 99 325.5 Q 101.2 324.3 98.5 323 L 95 325.5 L 97.5 322 L 93 319.5 L 95 318.5 L 91.5 317 Q 89.8 319.8 88 315.5 L 89 312.5 L 87.5 311 L 86.5 314 L 83.5 310 Q 85.8 309.3 85 311.5 L 87 310.5 L 81.5 301 L 80 301.5 L 81 298 L 79 298.5 L 79.5 300 L 77.5 297 Q 79.8 297.8 79 295.5 Q 81.5 294 78 292.5 Q 77.3 290.3 79.5 291 L 79 289.5 L 77 284.5 L 80 277.5 Q 77.5 276 81 274.5 L 82 272.5 L 80 272 L 79 268.5 L 80 268.5 L 81.5 271 L 83 270.5 L 82 267.5 L 84 267.5 Q 84.8 265.3 82.5 266 L 80 264.5 L 81.5 264 L 85 265 L 87.5 259 Q 89.8 259.8 89 257.5 L 89.5 255 L 91 255.5 L 92 253.5 L 91.5 252 Q 92.8 254.3 94 251.5 L 93.5 250 L 95 249.5 Q 92.8 248.3 95.5 247 L 97.5 248 L 97 246.5 L 96 243.5 L 100 243.5 L 99 241.5 L 100.5 242 Q 103.1 242.7 102 240 L 104.5 240 L 108 238.5 L 107.5 237 L 110 235.5 L 110.5 234 L 112 234.5 Q 111.3 232.3 113.5 233 Q 115.5 230.2 120 231 L 121 227 L 115 222.5 L 117.5 224 L 120.5 226 L 124.5 227 L 124.5 225 L 126.5 224 L 129 225.5 L 128 223.5 L 130 222.5 Q 127.7 223.8 130.5 225 L 133 223.5 L 131.5 221 L 133 221.5 L 133.5 220 L 136 221 L 136.5 219 Q 137.7 221.2 139 218.5 Q 138.3 215.9 141 217 L 141 214.5 L 142 214.5 Q 140.9 217.8 143.5 217 Q 147.2 215 145.5 213 Q 147.3 216.8 149 213.5 L 149.5 211 L 150 214 L 154 214 L 154 212.5 L 153.5 211 Q 156.8 212.1 156 209.5 L 154.5 210 L 153 209.5 L 155.5 208 L 159.5 211 L 163 208.5 L 162.5 207 L 165 208.5 L 166.5 205 Q 170.9 206.5 170 203.5 L 172 203.5 L 172.5 202 L 173 204 L 175 203.5 L 174 201.5 L 177.5 204 L 179 202.5 Q 178.3 200.3 180.5 201 L 180.5 199 L 182.5 200 Q 187 198 183.5 196 L 182 196.5 L 182.5 194 Z "></path><path fill="rgb(0,202,236)" stroke="rgb(0,202,236)" stroke-width="1" opacity="0.996078431372549" d="M 118.5 198 L 120 200.5 L 118 199.5 L 118.5 198 Z "></path><path fill="rgb(0,202,236)" stroke="rgb(0,202,236)" stroke-width="1" opacity="0.996078431372549" d="M 268.5 201 Q 271.5 202.5 268.5 204 L 268.5 201 Z "></path><path fill="rgb(0,202,236)" stroke="rgb(0,202,236)" stroke-width="1" opacity="0.996078431372549" d="M 116.5 202 L 114.5 205 L 116.5 202 Z "></path><path fill="rgb(0,202,236)" stroke="rgb(0,202,236)" stroke-width="1" opacity="0.996078431372549" d="M 325.5 203 L 326.5 205 L 325.5 203 Z "></path><path fill="rgb(0,202,236)" stroke="rgb(0,202,236)" stroke-width="1" opacity="0.996078431372549" d="M 318.5 205 L 319 206.5 L 317 207.5 L 318.5 205 Z "></path><path fill="rgb(0,202,236)" stroke="rgb(0,202,236)" stroke-width="1" opacity="0.996078431372549" d="M 287.5 207 L 290 207.5 L 288.5 210 L 287.5 207 Z "></path><path fill="rgb(0,202,236)" stroke="rgb(0,202,236)" stroke-width="1" opacity="0.996078431372549" d="M 298.5 207 L 298 208.5 L 297.5 210 L 297 208.5 L 298.5 207 Z "></path><path fill="rgb(0,202,236)" stroke="rgb(0,202,236)" stroke-width="1" opacity="0.996078431372549" d="M 136.5 215 Q 139.5 216.5 136.5 218 L 136.5 215 Z "></path><path fill="rgb(0,202,236)" stroke="rgb(0,202,236)" stroke-width="1" opacity="0.996078431372549" d="M 77.5 226 L 81 227.5 L 80.5 229 L 79.5 227 Q 77.8 230.8 76 227.5 L 77.5 226 Z "></path><path fill="rgb(0,202,236)" stroke="rgb(0,202,236)" stroke-width="1" opacity="0.996078431372549" d="M 111.5 226 L 113 228.5 L 112 228.5 L 111.5 226 Z "></path><path fill="rgb(0,202,236)" stroke="rgb(0,202,236)" stroke-width="1" opacity="0.996078431372549" d="M 116.5 226 L 115.5 228 L 116.5 226 Z "></path><path fill="rgb(0,202,236)" stroke="rgb(0,202,236)" stroke-width="1" opacity="0.996078431372549" d="M 77.5 230 L 78.5 232 L 77.5 230 Z "></path><path fill="rgb(0,202,236)" stroke="rgb(0,202,236)" stroke-width="1" opacity="0.996078431372549" d="M 104.5 233 L 105 235.5 L 104 235.5 L 104.5 233 Z "></path><path fill="rgb(0,202,236)" stroke="rgb(0,202,236)" stroke-width="1" opacity="0.996078431372549" d="M 73.5 239 L 76 239.5 Q 73.9 242.8 73.5 239 Z "></path><path fill="rgb(0,202,236)" stroke="rgb(0,202,236)" stroke-width="1" opacity="0.996078431372549" d="M 84.5 240 L 83.5 242 L 84.5 240 Z "></path><path fill="rgb(0,202,236)" stroke="rgb(0,202,236)" stroke-width="1" opacity="0.996078431372549" d="M 86.5 256 L 87.5 258 L 86.5 256 Z "></path><path fill="rgb(0,202,236)" stroke="rgb(0,202,236)" stroke-width="1" opacity="0.996078431372549" d="M 55.5 262 L 58 262.5 L 56.5 264 L 54 263.5 L 55.5 262 Z "></path><path fill="rgb(0,202,236)" stroke="rgb(0,202,236)" stroke-width="1" opacity="0.996078431372549" d="M 56.5 265 L 58 267.5 L 57 267.5 L 56.5 266 L 54.5 267 L 54.5 266 L 56.5 265 Z "></path><path fill="rgb(0,202,236)" stroke="rgb(0,202,236)" stroke-width="1" opacity="0.996078431372549" d="M 52.5 277 L 54 279.5 L 52 278.5 L 52.5 277 Z "></path><path fill="rgb(0,202,236)" stroke="rgb(0,202,236)" stroke-width="1" opacity="0.996078431372549" d="M 55.5 281 L 56.5 283 L 55.5 281 Z "></path><path fill="rgb(0,202,236)" stroke="rgb(0,202,236)" stroke-width="1" opacity="0.996078431372549" d="M 55.5 284 L 54.5 286 L 55.5 284 Z "></path><path fill="rgb(0,202,236)" stroke="rgb(0,202,236)" stroke-width="1" opacity="0.996078431372549" d="M 58.5 284 L 57.5 286 L 58.5 284 Z "></path><path fill="rgb(0,202,236)" stroke="rgb(0,202,236)" stroke-width="1" opacity="0.996078431372549" d="M 60.5 302 L 59.5 304 L 60.5 302 Z "></path><path fill="rgb(0,202,236)" stroke="rgb(0,202,236)" stroke-width="1" opacity="0.996078431372549" d="M 63.5 303 L 64.5 305 L 63.5 303 Z "></path><path fill="rgb(0,202,236)" stroke="rgb(0,202,236)" stroke-width="1" opacity="0.996078431372549" d="M 55.5 304 Q 58.3 305.3 56 306.5 Q 56.8 309.1 53.5 308 L 53.5 307 L 56 305.5 L 55.5 304 Z "></path><path fill="rgb(0,202,236)" stroke="rgb(0,202,236)" stroke-width="1" opacity="0.996078431372549" d="M 56.5 313 L 58 315.5 L 57 315.5 L 56.5 313 Z "></path><path fill="rgb(0,202,236)" stroke="rgb(0,202,236)" stroke-width="1" opacity="0.996078431372549" d="M 60.5 313 L 59.5 315 L 60.5 313 Z "></path><path fill="rgb(0,202,236)" stroke="rgb(0,202,236)" stroke-width="1" opacity="0.996078431372549" d="M 86.5 315 L 85.5 317 L 86.5 315 Z "></path><path fill="rgb(0,202,236)" stroke="rgb(0,202,236)" stroke-width="1" opacity="0.996078431372549" d="M 63.5 320 L 62.5 322 L 63.5 320 Z "></path><path fill="rgb(0,202,236)" stroke="rgb(0,202,236)" stroke-width="1" opacity="0.996078431372549" d="M 102.5 329 L 101.5 331 L 102.5 329 Z "></path><path fill="rgb(0,202,236)" stroke="rgb(0,202,236)" stroke-width="1" opacity="0.996078431372549" d="M 87.5 330 L 86.5 332 L 87.5 330 Z "></path><path fill="rgb(0,202,236)" stroke="rgb(0,202,236)" stroke-width="1" opacity="0.996078431372549" d="M 78.5 338 L 79 339.5 L 77 340.5 L 78.5 338 Z "></path><path fill="rgb(0,202,236)" stroke="rgb(0,202,236)" stroke-width="1" opacity="0.996078431372549" d="M 85.5 345 L 86.5 347 L 85.5 345 Z "></path><path fill="rgb(0,202,236)" stroke="rgb(0,202,236)" stroke-width="1" opacity="0.996078431372549" d="M 134.5 350 L 133.5 352 L 134.5 350 Z "></path><path fill="rgb(0,202,236)" stroke="rgb(0,202,236)" stroke-width="1" opacity="0.996078431372549" d="M 95.5 354 L 98 355.5 L 96.5 356 L 95.5 354 Z "></path><path fill="rgb(0,202,236)" stroke="rgb(0,202,236)" stroke-width="1" opacity="0.996078431372549" d="M 107.5 359 L 110 359.5 Q 107.9 362.8 107.5 359 Z "></path><path fill="rgb(0,202,236)" stroke="rgb(0,202,236)" stroke-width="1" opacity="0.996078431372549" d="M 140.5 359 L 141.5 361 L 140.5 359 Z "></path><path fill="rgb(0,202,236)" stroke="rgb(0,202,236)" stroke-width="1" opacity="0.996078431372549" d="M 186.5 364 L 187 366 L 185 365.5 L 186.5 364 Z "></path><path fill="rgb(0,202,236)" stroke="rgb(0,202,236)" stroke-width="1" opacity="0.996078431372549" d="M 193.5 365 L 192.5 367 L 193.5 365 Z "></path><path fill="rgb(0,202,236)" stroke="rgb(0,202,236)" stroke-width="1" opacity="0.996078431372549" d="M 121.5 367 L 122.5 369 L 121.5 367 Z "></path><path fill="rgb(0,202,236)" stroke="rgb(0,202,236)" stroke-width="1" opacity="0.996078431372549" d="M 128.5 369 L 127.5 371 L 128.5 369 Z "></path><path fill="rgb(0,202,236)" stroke="rgb(0,202,236)" stroke-width="1" opacity="0.996078431372549" d="M 258.5 374 L 289.5 380 Q 299.9 382.1 305 389.5 L 308 398.5 L 290.5 399 L 288.5 398 L 287 398.5 L 286.5 396 Q 285 398.5 283.5 395 L 281.5 396 L 281 394 Q 284.4 394.8 285.5 392 L 286 393.5 L 285.5 395 L 289 394.5 L 285 387.5 L 286 385.5 L 284.5 383 L 282.5 386 L 280.5 383 Q 278.3 382.3 279 384.5 L 280 386.5 L 279.5 389 L 277.5 390 L 278 388.5 L 279 385 L 277 384.5 L 277.5 383 L 274.5 385 L 275 383.5 Q 275.9 380.5 271.5 382 L 268.5 381 L 266.5 380 L 264.5 381 L 263.5 380 L 261 381.5 L 260.5 378 L 259.5 379 L 256 375.5 L 258.5 374 Z "></path><path fill="rgb(0,202,236)" stroke="rgb(0,202,236)" stroke-width="1" opacity="0.996078431372549" d="M 159.5 381 L 160 382.5 L 158 383.5 L 159.5 381 Z "></path><path fill="rgb(0,202,236)" stroke="rgb(0,202,236)" stroke-width="1" opacity="0.996078431372549" d="M 177.5 382 L 176.5 384 L 177.5 382 Z "></path><path fill="rgb(0,202,236)" stroke="rgb(0,202,236)" stroke-width="1" opacity="0.996078431372549" d="M 267.5 382 L 268.5 384 L 265 383.5 L 267.5 382 Z "></path><path fill="rgb(0,202,236)" stroke="rgb(0,202,236)" stroke-width="1" opacity="0.996078431372549" d="M 164.5 384 Q 166.8 383.3 166 385.5 L 164.5 384 Z "></path><path fill="rgb(0,202,236)" stroke="rgb(0,202,236)" stroke-width="1" opacity="0.996078431372549" d="M 283.5 387 L 285 389.5 L 282 389.5 L 283.5 387 Z "></path><path fill="rgb(0,202,236)" stroke="rgb(0,202,236)" stroke-width="1" opacity="0.996078431372549" d="M 280.5 391 L 281.5 393 L 279.5 394 L 280 392.5 L 280.5 391 Z "></path><path fill="rgb(0,202,236)" stroke="rgb(0,202,236)" stroke-width="1" opacity="0.996078431372549" d="M 204.5 398 L 205.5 400 L 204.5 398 Z "></path><path fill="rgb(0,202,236)" stroke="rgb(0,202,236)" stroke-width="1" opacity="0.996078431372549" d="M 265.5 398 L 280 399.5 L 269.5 400 L 267.5 400 L 265.5 398 Z "></path><path fill="rgb(0,203,236)" stroke="rgb(0,203,236)" stroke-width="1" opacity="1" d="M 133.5 0 L 135.5 1 L 138.5 0 L 154.5 0 L 155.5 1 L 156.5 0 L 198.5 0 L 200.5 0 L 209.5 0 L 210.5 1 L 211.5 0 L 284.5 0 L 286.5 0 L 294.5 0 L 295.5 1 L 296.5 0 L 306.5 0 L 308.5 0 L 310.5 1 L 311.5 0 L 318 0 L 318.5 2 L 319 0 L 325.5 0 L 326 2 L 327.5 2 L 327.5 0 L 339.5 0 L 340.5 1 Q 341.8 -1.3 343 1.5 L 342.5 3 L 341 2.5 L 339.5 6 L 339 4.5 L 340 2 L 337 3.5 L 337.5 7 Q 336.5 4 331.5 5 L 331.5 6 L 333 6.5 L 330.5 8 L 328.5 7 L 326.5 8 L 325.5 7 L 322 9.5 Q 324.3 8.3 321.5 7 L 319 7.5 L 318.5 9 L 316 7.5 Q 316.8 10.1 313.5 9 L 312 9.5 L 313 7.5 L 310.5 9 L 308.5 10 L 308 8.5 L 308.5 7 Q 305.9 6.2 307 9.5 L 305.5 9 L 301.5 8 L 301.5 9 Q 303.8 8.3 303 10.5 L 301.5 10 L 298.5 11 L 293.5 9 Q 291 14.5 288.5 10 L 287 10.5 L 287.5 12 L 285.5 9 L 285 11 L 281.5 12 L 280.5 9 L 278.5 12 L 273 11 L 272.5 8 L 272 11 L 270 11.5 L 270.5 13 L 269 13 L 268.5 15 L 251.5 15 L 250.5 16 L 213.5 17 L 210 14.5 L 209.5 13 Q 208.3 15.3 207 12.5 L 206.5 11 L 206 13.5 L 206.5 15 L 204.5 14 Q 203 16.5 201.5 13 L 198.5 15 L 196.5 15 L 194.5 16 L 193 15.5 L 192.5 17 L 191.5 15 L 190.5 17 L 187.5 16 Q 186 19.5 184.5 17 L 155.5 26 L 152.5 28 L 149.5 28 L 141.5 33 L 123.5 40 L 121 39 L 119.5 42 L 117.5 42 L 114.5 44 L 113.5 42 L 113 44.5 L 113.5 46 L 112 45.5 L 111.5 47 L 109.5 46 L 108.5 49 L 106.5 48 L 105.5 51 L 102 51.5 L 103.5 54 L 101 52.5 L 99.5 56 L 98 56.5 L 98.5 58 L 97.5 55 Q 94.5 54.1 96 58.5 L 95 61 Q 92.3 59.9 93 62.5 Q 91 66.2 89 64.5 Q 88.3 66.8 90.5 66 L 90 67.5 Q 86.8 70 88 76 L 86 76.5 L 88 77 Q 88.8 80.4 86 81.5 L 87.5 82 L 89 81.5 L 88 83.5 L 89 87 L 91 87 Q 89.9 89.7 92.5 89 L 92.5 90 L 90.5 89 L 90 91 L 94 92.5 L 95.5 95 L 97 95.5 L 96.5 98 L 95 97.5 Q 94.1 100.5 98.5 99 Q 96.7 101.2 101 103.5 L 101.5 105 L 105 104 L 107.5 108 Q 109.8 107.3 109 109.5 Q 111.8 110.6 111 114 L 113.5 113 L 115 117 Q 118.8 116 120 118.5 L 120.5 120 L 121.5 118 L 124.5 122 L 126 122.5 L 124 123.5 L 127.5 124 L 128.5 123 Q 130.8 127.3 133 125.5 Q 131.9 128.8 134.5 128 L 135.5 131 L 136.5 128 Q 137.6 130.7 141 130 L 142.5 136 L 143 134 L 146.5 135 L 148 134.5 L 147 136.5 L 149.5 137 Q 151.8 136.3 151 138.5 L 152.5 140 L 155 138.5 Q 152.8 139.8 155.5 141 Q 157.3 137.3 159 140.5 L 159.5 143 L 160.5 141 L 161 143 L 165 144 L 166.5 148 L 167 146 Q 172.1 144.7 173.5 148 Q 175 145.5 176.5 149 L 178.5 150 L 180 149.5 L 179 154.5 L 180 154.5 L 180.5 151 L 183 151.5 L 182 154.5 L 183.5 154 L 186.5 153 L 188 156 L 190.5 155 L 192.5 156 L 194 155.5 Q 192.9 158.8 195.5 158 L 197 157.5 Q 196.3 160.1 199 159 L 199.5 157 L 207.5 160 L 209.5 160 L 216.5 159 L 219.5 161 L 221.5 158 L 222.5 159 L 227.5 154 L 241.5 152 L 246.5 153 L 247.5 152 L 257.5 152 L 258.5 151 L 260.5 151 L 276.5 151 L 277 154.5 L 278 154.5 L 278.5 153 L 279.5 155 L 280 153 L 282 153.5 L 281.5 155 L 284.5 154 L 291.5 156 L 291.5 155 L 290 154.5 L 293.5 153 L 293.5 155 L 299 156 L 299.5 158 L 301 155.5 L 300.5 154 Q 302 157.5 303.5 155 L 312.5 157 L 313.5 156 L 316.5 159 L 318 158.5 Q 315.8 157.3 318.5 156 L 320 156.5 L 318 157.5 Q 319.3 160.3 320.5 158 L 325.5 157 L 329 158.5 L 329.5 160 L 330.5 158 L 331 159.5 L 330.5 161 L 332.5 162 L 333 160.5 L 332.5 159 L 335.5 158 L 335.5 160 L 339 161.5 L 339.5 163 L 342.5 161 L 342 162.5 L 342.5 164 L 346 163 L 346.5 161 L 347 164 L 349.5 163 L 352 163.5 L 351.5 165 L 354.5 164 L 353.5 166 L 352 166.5 L 354.5 167 L 357 165.5 L 357 167.5 L 357.5 170 L 358.5 168 L 361 171.5 L 360 175 L 362 174.5 Q 359.8 173.3 362.5 172 L 363.5 175 L 365 175.5 L 363 176.5 L 366 177.5 L 364.5 180 L 366.5 179 L 367 181.5 L 366 187.5 L 366 191.5 L 365.5 193 L 364.5 191 L 363 192.5 L 364.5 195 Q 361.2 196.1 362 193.5 L 361 193.5 Q 359.9 196.8 362.5 196 L 362 197.5 Q 362.8 200.1 359.5 199 L 352 203.5 Q 354.7 205.3 350.5 207 L 349 206.5 L 351 205.5 L 349.5 203 L 347.5 207 L 346.5 205 L 344.5 208 L 342.5 207 L 339.5 208 L 337 206.5 L 338 208.5 L 335 209.5 Q 335.8 211.8 333.5 211 L 332 211.5 L 331 208 L 329 208.5 L 329.5 210 L 323 211 L 322.5 213 L 321.5 210 L 317.5 212 L 315.5 212 L 311.5 214 L 311.5 212 L 309 212 Q 310.3 215 306.5 214 L 304.5 211 L 303.5 214 L 301.5 210 L 300.5 212 L 298 211 L 299 214.5 L 296.5 215 L 293 214 L 292.5 216 L 290.5 215 L 289 215.5 L 289.5 214 L 287.5 213 L 286.5 215 L 285.5 213 L 283.5 214 L 281 213.5 L 282 211.5 L 279.5 213 Q 277.3 213.8 278 211.5 L 276.5 212 L 272.5 213 L 272 210.5 Q 274.5 209 271 207.5 L 270.5 206 L 270 208.5 L 271 211 L 268.5 212 L 267 209 L 259 210 L 257.5 207 L 255 207.5 L 257 208.5 L 252.5 209 L 250 208.5 Q 253.8 206.8 250.5 205 L 247.5 206 L 247.5 204 Q 245.3 203.3 246 205.5 L 244.5 205 L 236.5 207 L 217.5 201 L 210.5 197 L 199.5 197 L 192.5 200 L 192 198 L 186.5 200 L 186 196 L 184 196.5 L 185 197.5 Q 181.9 199.3 183.5 201 L 180.5 199 L 180.5 201 Q 178.3 200.3 179 202.5 L 177.5 204 L 174 201.5 L 176 204.5 L 174.5 204 Q 172.3 204.8 173 202.5 L 172 202.5 L 171.5 204 L 170 203.5 Q 170.9 206.5 166.5 205 L 166.5 207 L 165 206.5 L 164.5 209 L 162.5 209 L 159.5 211 L 157 210.5 L 157.5 209 Q 154.9 208.3 156 211 L 153.5 211 L 154 212.5 Q 154.9 215.5 150.5 214 L 143.5 217 L 141.5 218 L 139 217 L 137.5 220 L 136 219.5 Q 136.8 221.8 134.5 221 L 133 220.5 L 134 222.5 L 130.5 225 L 129 224.5 L 128.5 226 L 125.5 225 L 124 225.5 L 125.5 228 L 121 227 L 120 231 L 112 233 L 111.5 235 L 110 234.5 L 108.5 237 L 107 237.5 L 107.5 239 L 102 240 L 102 242 Q 99.3 240.9 100 243.5 L 97 244.5 L 98 247.5 L 93 250.5 L 94 251.5 L 91 254.5 L 89 259 L 86 260.5 L 85 265 L 82 265.5 L 84 266 L 83.5 268 L 82 267.5 L 82.5 270 L 84 269.5 L 81.5 271 L 80 270.5 Q 79.3 272.8 81.5 272 L 81 273.5 L 79 276.5 L 80 278.5 L 79 280.5 L 79.5 282 L 78 281.5 L 79 285.5 L 79 287.5 L 80 290.5 L 78 291 L 80 294.5 L 79 297 L 77 297.5 Q 78.3 300.3 79.5 298 Q 82.1 297.2 81 300.5 Q 83.3 308.2 89 312.5 Q 86.8 313.8 89.5 315 L 91 314.5 Q 89.9 317.8 92.5 317 L 96 319.5 Q 93.7 320.7 96.5 322 L 101 325.5 L 99 325.5 L 99.5 328 L 102.5 327 L 107 329.5 L 109.5 334 L 111.5 334 Q 113.8 333.3 113 335.5 L 116 337 L 116.5 335 L 119.5 340 L 120.5 338 L 121 340.5 L 120 342.5 L 121.5 342 L 123.5 341 L 125.5 344 L 126.5 342 L 128.5 345 Q 130.8 344.3 130 346.5 L 131 346.5 L 131.5 345 L 138.5 350 L 141 349 L 141.5 351 L 143 350.5 Q 140.8 351.8 143.5 353 L 147 352.5 Q 144.8 353.8 147.5 355 L 149.5 354 L 153.5 357 Q 155.2 353.3 157 356.5 Q 156.3 359.1 159 358 L 159.5 356 L 161.5 359 L 163 358.5 Q 162.3 360.8 164.5 360 L 166 359.5 L 166.5 361 L 167.5 359 L 168 361 Q 170.7 362.1 170 359.5 L 171.5 360 L 173.5 361 L 176 360 L 176.5 363 L 179.5 362 L 181 362.5 L 181.5 361 L 183.5 364 L 186.5 362 L 189.5 364 L 189.5 362 L 192 362.5 L 191.5 364 Q 193.8 364.8 193 362.5 L 196.5 365 L 197.5 364 L 201.5 366 Q 202.8 363.8 204 366.5 Q 203.3 368.8 205.5 368 L 205 366.5 L 205.5 362 L 225.5 367 L 227.5 369 L 253.5 374 L 259.5 379 L 261 378.5 L 261.5 382 L 262.5 379 L 265.5 381 L 267.5 381 L 269.5 382 L 271.5 382 Q 275.9 380.5 275 383.5 L 274.5 385 L 277.5 383 L 277.5 385 L 280.5 383 L 282.5 386 L 284 383.5 L 283.5 382 L 286 386.5 L 286 388.5 L 286.5 391 Q 289.3 389.8 287 388.5 L 287.5 387 L 289 389.5 L 287 392.5 L 288.5 392 L 290 392.5 L 288 393.5 L 288.5 395 L 285 394.5 L 286 392.5 L 283.5 394 Q 280.2 392.9 281 395.5 L 282.5 395 L 285.5 397 L 287 396.5 L 286.5 399 L 284.5 399 L 282.5 398 L 281.5 399 L 273.5 399 Q 271.7 396.2 265.5 398 L 265.5 400 Q 263.3 400.8 264 398.5 L 263 398.5 Q 263.7 401.1 261 400 L 260.5 398 L 260 400 L 239.5 400 L 238.5 399 L 237.5 400 L 212.5 400 L 210.5 400 L 205.5 399 L 204.5 400 L 198 400 L 197.5 398 L 196 398.5 L 196.5 397 Q 183.3 397.2 176.5 391 L 175 391.5 Q 176.3 387.8 172.5 389 L 171.5 390 L 169 388.5 L 168.5 391 L 167.5 389 L 165.5 389 Q 163.3 389.8 164 387.5 L 162.5 388 L 160.5 389 L 160.5 387 L 158.5 386 Q 157 388.5 155.5 385 L 152.5 387 L 152.5 385 L 150.5 384 L 149.5 386 L 145 383.5 L 144.5 382 L 144 384 Q 140.7 385.3 142 380.5 L 140.5 381 Q 138.3 381.8 139 379.5 L 137.5 380 Q 134.9 380.7 136 378 L 134 378 L 133.5 380 L 132 379.5 L 131.5 381 L 130 376 L 126.5 378 L 127 376.5 Q 127.8 374.3 125.5 375 L 123.5 375 L 121 374.5 L 125 373.5 L 120 373 L 119.5 370 L 117.5 373 L 116.5 370 L 113.5 371 L 113.5 369 L 111.5 370 L 110 367.5 L 111 365.5 L 108 366.5 L 108.5 365 L 106 364.5 L 106.5 363 Q 104.3 362.3 105 364.5 L 104 364.5 L 103.5 363 L 102 363.5 L 101.5 362 L 100 362.5 L 99.5 360 L 98 360.5 L 96.5 358 L 94.5 358 L 93 357.5 L 95 356.5 L 93 356 L 92.5 354 L 90.5 355 L 88 354 L 87.5 351 L 85 352.5 Q 87.3 351.3 84.5 350 L 82 348.5 L 81 345.5 L 81.5 344 Q 78.2 345.1 79 342.5 L 76 343.5 L 76.5 342 L 74.5 341 L 73 341.5 L 74 339 L 72 338.5 Q 74.7 336.7 70.5 335 L 68.5 336 L 67 334.5 L 68.5 332 L 63 329.5 L 64.5 330 L 68 329.5 L 64.5 328 L 62 326.5 L 63 324 Q 60.3 325.1 61 322.5 Q 59 324.2 57 320.5 L 56.5 319 L 55 319.5 L 54.5 314 L 52.5 315 L 53.5 310 L 50 308.5 L 52 307.5 L 50 306.5 L 51 304.5 L 51 302.5 L 52 300.5 L 49.5 297 L 51 296.5 Q 47.5 295 50 293.5 L 49 291.5 L 51 290.5 L 49 290 L 48 287.5 L 48 285.5 L 48.5 284 L 51 285.5 L 48 281.5 L 51 282.5 L 50 280.5 L 51 278.5 L 49 278.5 Q 48.3 275.9 51 277 L 51 273.5 L 53 269.5 L 52.5 268 L 49 270.5 L 53 265.5 L 53 263.5 L 54 260 L 52 259.5 L 56 257.5 Q 53.7 256.3 56.5 255 L 58 255.5 L 57 252.5 L 58 249 L 61 248.5 L 59 247.5 L 61 247 L 62 244.5 L 61.5 243 L 64 244 L 63 241.5 L 66 239.5 L 65.5 241 Q 68.5 241.9 67 237.5 L 68 237.5 L 68.5 239 L 70 233.5 L 69.5 232 L 72 232.5 L 71.5 234 L 73 234 L 73 230 L 74.5 230 L 74.5 229 L 73 228.5 L 76 224 L 82 222.5 L 79 221.5 Q 80.8 217.2 82.5 220 L 84.5 219 L 85 221 L 88 220.5 L 87 218 L 85 217.5 L 87.5 213 Q 89 216.5 90.5 214 L 94.5 215 L 95 213.5 L 94 210 L 96 210.5 Q 93.7 211.7 96.5 213 Q 96.3 208.8 99 207.5 L 98.5 206 L 101 207 L 103 203 L 106.5 203 L 107.5 200 Q 109.8 199.3 109 201.5 L 110 201.5 Q 109.3 199.3 111.5 200 L 114 198.5 L 113 200.5 L 115 201 L 117.5 197 L 120.5 196 L 122.5 197 L 122 195.5 L 123.5 193 L 123.5 195 L 127 192.5 L 127.5 190 L 128.5 193 L 131 191.5 L 130.5 190 Q 132 192.5 133.5 189 L 135 188.5 L 134.5 187 L 136.5 187 L 138.5 186 Q 139.8 188.3 141 185.5 L 142.5 183 L 145.5 185 L 145.5 183 L 148.5 184 L 148.5 183 L 147 182.5 L 148.5 182 L 149.5 183 Q 151.8 178.8 154 180.5 Q 153.3 177.9 156 179 L 156.5 181 L 157 178 Q 152.9 179.7 154 175.5 L 154.5 173 L 157 171.5 L 155 171 L 154.5 169 L 153.5 172 L 152.5 170 L 151 170.5 L 149.5 168 L 148 168.5 L 146.5 166 L 146 167.5 L 146.5 169 Q 144.3 169.8 145 167.5 Q 141.5 166 144 164.5 Q 144.8 162.3 142.5 163 L 141 163.5 L 140.5 162 L 139.5 165 L 138 162 Q 135.3 160.9 136 163.5 L 135 163.5 L 134 161.5 L 136 161.5 Q 136.7 158.5 133 160 L 132.5 162 L 132 159 L 130 159 Q 131.1 156.3 128.5 157 L 125.5 156 L 125.5 157 L 127 157.5 L 125.5 158 L 123.5 154 L 122.5 157 L 122 154 L 119.5 155 L 118.5 152 Q 115.9 152.7 117 150 L 113.5 150 L 111 149.5 L 111 147.5 L 109.5 145 L 106.5 146 L 104 145 L 102.5 142 L 100.5 143 Q 102.2 141 98.5 139 L 97 139.5 L 98 136.5 L 97 136.5 L 96.5 138 L 93.5 134 L 90 132.5 L 92 131.5 L 86.5 128 L 85 128.5 Q 85.8 125.9 82.5 127 L 82.5 125 L 80.5 124 L 79 124.5 L 83 122.5 L 79.5 121 Q 78.3 123.3 77 120.5 L 76 118.5 L 78 118 L 77.5 116 L 75.5 116 L 74 115.5 Q 76.2 114.3 73.5 113 L 72.5 115 L 72 113.5 L 72.5 112 L 71 111.5 L 73 110.5 L 70.5 110 L 69 110.5 Q 70.5 106.1 67.5 107 L 66.5 105 L 68 105.5 L 66.5 103 L 64 104 L 62 99.5 L 65 97.5 Q 63.7 94.8 62.5 97 Q 59.9 97.8 61 94.5 L 60 91.5 Q 61.5 87.1 58.5 88 L 58.5 87 L 60 86.5 L 59.5 84 L 58 84 L 58 80 L 56.5 80 L 56.5 79 L 59 77.5 L 58.5 76 L 57 76.5 L 58 74.5 L 57 72.5 L 59 68 L 57 67.5 L 59 66.5 L 58.5 65 L 60.5 66 L 60 64.5 L 62 60.5 L 59 58.5 L 62 57.5 L 61 55.5 L 66 51.5 L 64.5 49 Q 65.8 51.3 67 48.5 L 66.5 47 L 69 48 L 68 45.5 L 70 45.5 L 70.5 43 L 72 43.5 L 71 40 L 73.5 39 L 73.5 41 Q 75.8 41.8 75 39.5 Q 78.5 38 76 36.5 L 76.5 35 L 78.5 39 Q 81.3 37.8 79 36.5 L 80.5 33 L 82 33.5 L 84.5 28 L 87.5 26 L 90 27.5 L 89 25.5 L 89.5 23 L 91.5 24 L 93.5 23 Q 95.3 26.8 97 23.5 L 94 21.5 L 96.5 20 L 98.5 21 L 101 20 L 101.5 22 L 102 19 L 99 18.5 L 102.5 16 L 104 16.5 L 106 13.5 Q 107.8 15.1 109.5 12 Q 111.8 12.8 111 10.5 Q 112.5 5.5 120.5 7 L 125.5 8 L 125.5 6 L 128 7.5 L 128 5.5 L 133.5 0 Z M 294 6 L 293 8 L 295 9 L 294 6 Z M 249 8 Q 247 11 250 10 L 249 8 Z M 197 13 L 197 15 L 199 14 L 197 13 Z M 107 15 L 105 17 L 107 17 L 107 15 Z M 104 20 L 103 23 L 104 23 L 104 20 Z M 77 39 L 78 41 L 79 41 L 77 39 Z M 74 47 L 72 49 L 74 49 L 74 47 Z M 68 49 Q 68 53 70 50 L 68 49 Z M 67 52 L 65 55 L 67 55 Q 70 54 67 52 Z M 63 55 L 63 56 L 65 56 L 63 55 Z M 67 58 L 65 60 L 67 60 L 67 58 Z M 60 67 Q 60 71 62 68 L 60 67 Z M 61 80 L 59 82 L 61 84 L 61 83 Q 63 81 61 80 Z M 67 98 L 65 100 L 67 101 L 67 98 Z M 69 105 L 69 107 L 72 108 L 72 107 L 69 105 Z M 99 106 L 100 108 Q 101 105 99 106 Z M 106 107 L 105 109 L 107 110 L 106 107 Z M 103 135 L 103 137 L 105 136 L 103 135 Z M 146 135 L 144 137 L 146 137 L 146 135 Z M 102 140 L 102 141 L 104 141 L 102 140 Z M 164 148 L 165 150 Q 166 147 164 148 Z M 122 150 Q 119 154 124 153 L 122 150 Z M 176 152 Q 176 156 178 153 L 176 152 Z M 306 156 L 304 159 L 306 159 Q 309 158 306 156 Z M 286 157 L 286 158 L 288 158 L 286 157 Z M 309 157 L 308 159 L 306 160 L 309 160 L 309 157 Z M 364 182 L 364 183 L 366 183 L 364 182 Z M 364 184 L 364 186 L 366 185 L 364 184 Z M 148 185 L 148 186 L 150 186 L 148 185 Z M 142 186 L 141 188 L 143 189 L 142 186 Z M 187 192 L 185 194 L 187 194 L 187 192 Z M 253 205 L 252 208 L 254 208 Q 255 204 253 205 Z M 319 205 L 317 208 L 319 207 L 319 205 Z M 334 205 L 335 209 L 335 206 L 337 206 L 334 205 Z M 269 208 L 268 211 L 269 211 L 269 208 Z M 321 208 Q 320 210 323 209 L 324 210 Q 325 207 321 208 Z M 286 209 L 285 212 L 287 213 Q 288 208 286 209 Z M 311 209 L 313 212 L 314 212 L 311 209 Z M 150 211 L 149 214 L 150 214 L 150 211 Z M 292 212 Q 290 215 293 214 L 292 212 Z M 142 214 L 141 217 L 142 217 L 142 214 Z M 118 224 L 119 226 Q 120 223 118 224 Z M 105 233 L 104 236 L 105 236 L 105 233 Z M 70 237 Q 69 240 72 239 Q 73 236 70 237 Z M 54 272 L 52 274 L 54 275 L 54 272 Z M 56 306 L 53 308 L 56 308 L 56 306 Z M 84 310 L 85 312 Q 86 309 84 310 Z M 87 311 L 85 313 L 87 314 L 87 311 Z M 85 347 L 83 349 L 85 349 L 85 347 Z M 133 347 L 134 349 Q 135 346 133 347 Z M 155 357 Q 153 360 156 359 L 155 357 Z M 105 359 Q 102 361 105 362 L 106 362 L 105 359 Z M 187 364 L 185 366 L 187 366 L 187 364 Z M 268 382 L 265 384 L 269 384 L 268 382 Z M 165 384 L 166 386 Q 167 383 165 384 Z M 168 386 Q 166 389 169 388 L 168 386 Z M 279 387 Q 277 390 280 389 L 279 387 Z M 281 391 Q 279 394 282 393 L 281 391 Z "></path><path fill="rgb(0,203,236)" stroke="rgb(0,203,236)" stroke-width="1" opacity="1" d="M 74.5 36 L 73.5 38 L 74.5 36 Z "></path><path fill="rgb(0,203,236)" stroke="rgb(0,203,236)" stroke-width="1" opacity="1" d="M 87.5 130 L 88.5 132 L 87.5 130 Z "></path><path fill="rgb(0,203,236)" stroke="rgb(0,203,236)" stroke-width="1" opacity="1" d="M 361.5 169 L 362.5 171 L 361.5 169 Z "></path><path fill="rgb(0,203,236)" stroke="rgb(0,203,236)" stroke-width="1" opacity="1" d="M 265.5 210 L 264.5 212 L 265.5 210 Z "></path></svg>