<svg width="400" height="400" version="1.1" xmlns="http://www.w3.org/2000/svg" desc="Created with imagetracer.js version 1.2.5"><path fill="rgb(0,208,135)" stroke="rgb(0,208,135)" stroke-width="1" opacity="1" d="M 92 0 L 101.5 0 L 102 0.5 L 102 98 L 289 98 L 289 0.5 L 289.5 0 L 299 0 L 299 98 L 399.5 98 L 400 98.5 L 400 108 L 299 108 L 299 281 L 399.5 281 L 400 281.5 L 400 291 L 299 291 L 299 399.5 L 298.5 400 L 289 400 L 289 291 L 102 291 L 102 399.5 L 101.5 400 L 92 400 L 92 291 L 0.5 291 L 0 290.5 L 0 281 L 92 281 L 92 108 L 0.5 108 L 0 107.5 L 0 98 L 92 98 L 92 0 Z M 102 108 L 102 281 L 289 281 L 289 108 L 102 108 Z "></path><path fill="rgb(0,0,0)" stroke="rgb(0,0,0)" stroke-width="1" opacity="0" d="M 0 0 L 92 0 L 92 98 L 0 98 L 0 0 Z "></path><path fill="rgb(0,0,0)" stroke="rgb(0,0,0)" stroke-width="1" opacity="0" d="M 102 0 L 289 0 L 289 98 L 102 98 L 102 0 Z "></path><path fill="rgb(0,0,0)" stroke="rgb(0,0,0)" stroke-width="1" opacity="0" d="M 299 0 L 400 0 L 400 98 L 299 98 L 299 0 Z "></path><path fill="rgb(0,0,0)" stroke="rgb(0,0,0)" stroke-width="1" opacity="0" d="M 0 108 L 92 108 L 92 281 L 0 281 L 0 108 Z "></path><path fill="rgb(0,0,0)" stroke="rgb(0,0,0)" stroke-width="1" opacity="0" d="M 102 108 L 289 108 L 289 281 L 102 281 L 102 108 Z "></path><path fill="rgb(0,0,0)" stroke="rgb(0,0,0)" stroke-width="1" opacity="0" d="M 299 108 L 400 108 L 400 281 L 299 281 L 299 108 Z "></path><path fill="rgb(0,0,0)" stroke="rgb(0,0,0)" stroke-width="1" opacity="0" d="M 0 291 L 92 291 L 92 400 L 0 400 L 0 291 Z "></path><path fill="rgb(0,0,0)" stroke="rgb(0,0,0)" stroke-width="1" opacity="0" d="M 102 291 L 289 291 L 289 400 L 102 400 L 102 291 Z "></path><path fill="rgb(0,0,0)" stroke="rgb(0,0,0)" stroke-width="1" opacity="0" d="M 299 291 L 400 291 L 400 400 L 299 400 L 299 291 Z "></path></svg>