<svg width="400" height="400" version="1.1" xmlns="http://www.w3.org/2000/svg" desc="Created with imagetracer.js version 1.2.5"><path fill="rgb(0,0,0)" stroke="rgb(0,0,0)" stroke-width="1" opacity="0" d="M 0 0 L 400 0 L 400 171.5 L 399 171.5 Q 398.4 165.2 393.5 163 L 388.5 162 L 378 153.5 L 372 143.5 L 372 137.5 L 368 123.5 L 368 107.5 L 369 106.5 L 369 92.5 L 368 91.5 L 368 58.5 L 369 54.5 L 368 51.5 L 369 50.5 L 369 37.5 Q 366.9 30.1 361.5 26 L 354.5 23 L 336.5 23 L 334.5 24 L 329.5 23 L 325.5 24 L 322.5 23 L 321.5 24 L 265.5 24 L 264.5 25 Q 263 22.5 257.5 24 L 255.5 24 L 248.5 25 Q 247.2 22.7 242.5 24 Q 234.9 25.9 231 31.5 Q 226.8 36.3 228 46.5 L 229 47.5 L 230 79.5 L 231 81.5 L 230 84.5 L 231 85.5 L 232 116.5 Q 227.7 119.7 228 127.5 L 230 137.5 Q 227 142.5 228 151.5 L 221.5 159 L 208 166.5 Q 204.8 169.8 206 177.5 L 209.5 183 Q 212.5 186 218.5 186 L 221.5 185 L 230.5 187 L 232.5 187 L 236.5 186 L 240.5 187 L 242.5 187 L 246.5 186 L 247.5 187 L 255.5 187 L 263 182.5 Q 269.4 177.9 268 165.5 L 267 164.5 L 267 142.5 L 266 141.5 L 266 120.5 L 265 116.5 L 266 113.5 L 265 112.5 Q 266.6 100.4 264 92.5 L 264 90.5 L 263 58 L 274.5 57 L 277.5 58 L 278.5 57 L 335 57 L 335 84.5 L 334 88.5 L 335 91.5 L 334 92.5 L 334 147.5 L 333 151.5 L 334 154.5 Q 331.3 156.3 333 162.5 L 333 164.5 L 334 168.5 L 333 172.5 Q 334.8 180.7 340.5 185 Q 342.8 187.7 348.5 187 L 359.5 185 L 362.5 186 L 364.5 185 L 367.5 186 L 369.5 185 L 372.5 186 L 374.5 185 L 377.5 186 L 379.5 186 Q 393.5 187.5 398 179.5 L 399.5 174 L 400 400 L 0 400 L 0 0 Z M 63 7 L 52 9 L 45 13 L 39 20 Q 40 24 37 23 L 37 41 L 39 41 L 39 90 L 40 91 L 39 149 Q 37 156 31 161 Q 27 167 20 169 Q 15 172 14 179 L 18 194 L 26 199 L 37 198 L 38 197 L 59 197 L 60 198 L 69 198 L 76 194 Q 82 190 84 182 L 82 127 L 81 126 L 82 123 L 81 120 L 81 99 L 80 98 L 81 79 L 95 101 Q 94 103 97 102 L 111 123 Q 110 125 113 124 L 128 146 L 128 159 L 114 166 L 104 176 L 102 181 Q 102 187 105 190 L 111 193 Q 120 194 126 191 L 151 191 L 152 192 L 156 191 L 160 192 L 162 192 Q 176 193 184 187 L 191 177 L 191 167 L 176 144 L 173 142 L 145 101 L 135 89 L 128 77 L 91 28 L 84 16 L 73 7 L 63 7 Z M 351 216 L 350 217 L 265 219 L 264 220 L 262 219 L 257 220 L 254 219 L 245 221 L 236 232 L 236 248 L 237 249 L 238 270 L 239 271 L 239 285 L 241 295 L 242 330 L 243 331 L 243 345 L 244 346 L 241 361 L 242 373 Q 246 379 254 381 L 261 381 L 267 378 L 306 378 L 307 379 L 346 379 L 347 378 L 367 378 L 371 376 Q 376 372 378 366 L 376 350 L 373 344 Q 369 339 363 337 L 341 339 L 340 340 L 318 341 L 317 342 L 305 342 L 304 343 L 292 343 L 297 337 L 301 334 L 317 315 Q 316 312 319 313 L 347 280 L 351 277 L 362 263 L 365 261 L 367 257 L 370 255 L 378 246 L 378 230 L 372 223 L 362 216 Q 356 215 355 217 L 351 216 Z M 161 218 L 155 220 L 146 220 L 145 221 L 142 220 L 138 221 L 135 220 L 130 221 L 120 219 L 111 219 Q 108 222 101 221 L 99 221 Q 94 220 93 222 L 91 221 L 86 222 L 85 221 L 69 221 L 68 220 L 65 221 L 62 220 L 57 221 L 54 220 L 49 221 L 47 220 L 42 221 L 39 220 Q 30 220 26 224 L 16 241 Q 14 251 17 257 L 30 271 Q 32 270 31 273 L 42 283 L 57 294 L 80 316 L 83 321 L 87 323 L 90 328 L 94 330 L 96 334 L 101 337 L 111 349 L 139 376 L 154 387 L 160 387 L 165 383 Q 173 384 178 381 Q 183 377 185 371 L 185 366 L 182 359 L 178 355 L 175 351 L 172 349 Q 169 350 170 348 L 168 346 L 164 341 L 161 340 L 159 338 L 89 275 L 87 272 L 79 266 L 76 263 L 73 260 Q 70 261 71 259 L 71 257 L 72 258 L 92 258 L 93 259 L 96 258 L 100 259 L 102 259 L 107 258 L 108 259 L 121 260 L 151 272 L 153 275 L 160 291 L 166 294 L 175 293 Q 180 291 181 285 L 180 275 L 180 273 L 179 265 L 179 263 L 178 255 L 178 253 L 176 244 L 178 237 L 178 232 L 176 227 Q 172 218 161 218 Z "></path><path fill="rgb(0,0,0)" stroke="rgb(0,0,0)" stroke-width="1" opacity="0" d="M 317.5 249 L 332 249.5 L 319 265 L 316 266.5 L 308.5 276 L 306 277.5 L 303.5 282 L 300 284.5 L 299 288 L 295 290.5 L 274.5 315 L 273 308.5 L 273 300.5 L 272 299.5 L 270 255.5 L 269 251 L 285.5 251 L 286.5 250 L 316.5 250 L 317.5 249 Z "></path><path fill="rgb(0,46,255)" stroke="rgb(0,46,255)" stroke-width="1" opacity="0.8980392156862745" d="M 63.5 9 L 74.5 10 L 84 18.5 L 88 24.5 L 85 22.5 L 77.5 13 Q 73.3 8.7 63.5 10 L 63.5 9 Z "></path><path fill="rgb(0,46,255)" stroke="rgb(0,46,255)" stroke-width="1" opacity="0.8980392156862745" d="M 54.5 10 L 62 10.5 L 54.5 11 L 54.5 10 Z "></path><path fill="rgb(0,46,255)" stroke="rgb(0,46,255)" stroke-width="1" opacity="0.8980392156862745" d="M 51.5 11 L 53 11.5 Q 45.9 13.4 42 18.5 L 40.5 23 L 40 20.5 L 45.5 14 L 51.5 11 Z "></path><path fill="rgb(0,46,255)" stroke="rgb(0,46,255)" stroke-width="1" opacity="0.8980392156862745" d="M 39.5 24 L 40 32.5 L 39 32.5 L 39.5 24 Z "></path><path fill="rgb(0,46,255)" stroke="rgb(0,46,255)" stroke-width="1" opacity="0.8980392156862745" d="M 275.5 25 L 278 25.5 L 275.5 26 L 275.5 25 Z "></path><path fill="rgb(0,46,255)" stroke="rgb(0,46,255)" stroke-width="1" opacity="0.8980392156862745" d="M 282.5 25 L 286 25.5 L 282.5 26 L 282.5 25 Z "></path><path fill="rgb(0,46,255)" stroke="rgb(0,46,255)" stroke-width="1" opacity="0.8980392156862745" d="M 290.5 25 L 295 25.5 L 290.5 26 L 290.5 25 Z "></path><path fill="rgb(0,46,255)" stroke="rgb(0,46,255)" stroke-width="1" opacity="0.8980392156862745" d="M 297.5 25 L 356 25.5 L 297.5 26 L 297.5 25 Z "></path><path fill="rgb(0,46,255)" stroke="rgb(0,46,255)" stroke-width="1" opacity="0.8980392156862745" d="M 88.5 26 L 104 46.5 L 100 43.5 L 88.5 26 Z "></path><path fill="rgb(0,46,255)" stroke="rgb(0,46,255)" stroke-width="1" opacity="0.8980392156862745" d="M 240.5 26 L 264 26.5 L 240.5 27 L 232.5 33 L 236.5 28 L 240.5 26 Z "></path><path fill="rgb(0,46,255)" stroke="rgb(0,46,255)" stroke-width="1" opacity="0.8980392156862745" d="M 357.5 26 L 365 31.5 L 360.5 28 Q 356.7 27.7 357.5 26 Z "></path><path fill="rgb(0,46,255)" stroke="rgb(0,46,255)" stroke-width="1" opacity="0.8980392156862745" d="M 365.5 33 L 367 38.5 L 366 38.5 L 365.5 33 Z "></path><path fill="rgb(0,46,255)" stroke="rgb(0,46,255)" stroke-width="1" opacity="0.8980392156862745" d="M 230.5 36 L 231 38.5 L 230 38.5 L 230.5 36 Z "></path><path fill="rgb(0,46,255)" stroke="rgb(0,46,255)" stroke-width="1" opacity="0.8980392156862745" d="M 229.5 40 L 230 44.5 L 229 44.5 L 229.5 40 Z "></path><path fill="rgb(0,46,255)" stroke="rgb(0,46,255)" stroke-width="1" opacity="0.8980392156862745" d="M 366.5 43 L 367 46.5 L 366 46.5 L 366.5 43 Z "></path><path fill="rgb(0,46,255)" stroke="rgb(0,46,255)" stroke-width="1" opacity="0.8980392156862745" d="M 230.5 47 L 231 56.5 L 230 56.5 L 230.5 47 Z "></path><path fill="rgb(0,46,255)" stroke="rgb(0,46,255)" stroke-width="1" opacity="0.8980392156862745" d="M 104.5 48 L 114 60.5 L 110 57.5 L 104.5 48 Z "></path><path fill="rgb(0,46,255)" stroke="rgb(0,46,255)" stroke-width="1" opacity="0.8980392156862745" d="M 366.5 48 L 367 92.5 L 366 92.5 L 366.5 48 Z "></path><path fill="rgb(0,46,255)" stroke="rgb(0,46,255)" stroke-width="1" opacity="0.8980392156862745" d="M 40.5 49 L 41 78.5 L 40 78.5 L 40.5 49 Z "></path><path fill="rgb(0,46,255)" stroke="rgb(0,46,255)" stroke-width="1" opacity="0.8980392156862745" d="M 295.5 55 L 298 55.5 L 295.5 56 L 295.5 55 Z "></path><path fill="rgb(0,46,255)" stroke="rgb(0,46,255)" stroke-width="1" opacity="0.8980392156862745" d="M 302.5 55 L 307 55.5 L 302.5 56 L 302.5 55 Z "></path><path fill="rgb(0,46,255)" stroke="rgb(0,46,255)" stroke-width="1" opacity="0.8980392156862745" d="M 309.5 55 L 335.5 55 L 337 56.5 L 336.5 87 L 336 56 L 309.5 56 L 309.5 55 Z "></path><path fill="rgb(0,46,255)" stroke="rgb(0,46,255)" stroke-width="1" opacity="0.8980392156862745" d="M 261.5 56 L 263 56.5 L 260.5 58 L 261.5 56 Z "></path><path fill="rgb(0,46,255)" stroke="rgb(0,46,255)" stroke-width="1" opacity="0.8980392156862745" d="M 114.5 62 L 115.5 64 L 114.5 62 Z "></path><path fill="rgb(0,46,255)" stroke="rgb(0,46,255)" stroke-width="1" opacity="0.8980392156862745" d="M 261.5 64 L 262 77.5 L 261 77.5 L 261.5 64 Z "></path><path fill="rgb(0,46,255)" stroke="rgb(0,46,255)" stroke-width="1" opacity="0.8980392156862745" d="M 116.5 65 L 121 70.5 L 118 68.5 L 116.5 65 Z "></path><path fill="rgb(0,46,255)" stroke="rgb(0,46,255)" stroke-width="1" opacity="0.8980392156862745" d="M 231.5 68 L 232 78.5 L 231 78.5 L 231.5 68 Z "></path><path fill="rgb(0,46,255)" stroke="rgb(0,46,255)" stroke-width="1" opacity="0.8980392156862745" d="M 77.5 72 L 82 77.5 L 78 75.5 L 77.5 89 L 77.5 72 Z "></path><path fill="rgb(0,46,255)" stroke="rgb(0,46,255)" stroke-width="1" opacity="0.8980392156862745" d="M 121.5 72 L 149 109.5 L 147 108.5 L 121.5 72 Z "></path><path fill="rgb(0,46,255)" stroke="rgb(0,46,255)" stroke-width="1" opacity="0.8980392156862745" d="M 82.5 79 L 87 84.5 L 84 82.5 L 82.5 79 Z "></path><path fill="rgb(0,46,255)" stroke="rgb(0,46,255)" stroke-width="1" opacity="0.8980392156862745" d="M 262.5 81 L 263 99.5 L 262 99.5 L 262.5 81 Z "></path><path fill="rgb(0,46,255)" stroke="rgb(0,46,255)" stroke-width="1" opacity="0.8980392156862745" d="M 232.5 85 L 233 100.5 L 232 100.5 L 232.5 85 Z "></path><path fill="rgb(0,46,255)" stroke="rgb(0,46,255)" stroke-width="1" opacity="0.8980392156862745" d="M 87.5 86 L 105 109.5 L 101 106.5 L 87.5 86 Z "></path><path fill="rgb(0,46,255)" stroke="rgb(0,46,255)" stroke-width="1" opacity="0.8980392156862745" d="M 336.5 88 L 337 93.5 L 336 93.5 L 336.5 88 Z "></path><path fill="rgb(0,46,255)" stroke="rgb(0,46,255)" stroke-width="1" opacity="0.8980392156862745" d="M 78.5 91 L 79 110.5 L 80 113.5 L 78 114.5 L 78.5 91 Z "></path><path fill="rgb(0,46,255)" stroke="rgb(0,46,255)" stroke-width="1" opacity="0.8980392156862745" d="M 367.5 95 L 368 102.5 L 367 102.5 L 367.5 95 Z "></path><path fill="rgb(0,46,255)" stroke="rgb(0,46,255)" stroke-width="1" opacity="0.8980392156862745" d="M 263.5 104 L 264 118.5 L 263 118.5 L 263.5 104 Z "></path><path fill="rgb(0,46,255)" stroke="rgb(0,46,255)" stroke-width="1" opacity="0.8980392156862745" d="M 233.5 108 L 234 117.5 L 233 117.5 L 233.5 108 Z "></path><path fill="rgb(0,46,255)" stroke="rgb(0,46,255)" stroke-width="1" opacity="0.8980392156862745" d="M 366.5 108 L 367 123.5 L 366 123.5 L 366.5 108 Z "></path><path fill="rgb(0,46,255)" stroke="rgb(0,46,255)" stroke-width="1" opacity="0.8980392156862745" d="M 335.5 109 L 336 112.5 L 335 112.5 L 335.5 109 Z "></path><path fill="rgb(0,46,255)" stroke="rgb(0,46,255)" stroke-width="1" opacity="0.8980392156862745" d="M 105.5 111 L 125 137.5 L 122 135.5 L 105.5 111 Z "></path><path fill="rgb(0,46,255)" stroke="rgb(0,46,255)" stroke-width="1" opacity="0.8980392156862745" d="M 149.5 111 L 157 120.5 L 154 118.5 L 149.5 111 Z "></path><path fill="rgb(0,46,255)" stroke="rgb(0,46,255)" stroke-width="1" opacity="0.8980392156862745" d="M 335.5 116 L 336 153.5 L 335 153.5 L 335.5 116 Z "></path><path fill="rgb(0,46,255)" stroke="rgb(0,46,255)" stroke-width="1" opacity="0.8980392156862745" d="M 79.5 117 L 80 136.5 L 81 137.5 L 81 161.5 L 80 161.5 L 79.5 117 Z "></path><path fill="rgb(0,46,255)" stroke="rgb(0,46,255)" stroke-width="1" opacity="0.8980392156862745" d="M 232.5 119 L 232 120.5 L 230.5 130 L 230 122.5 L 232.5 119 Z "></path><path fill="rgb(0,46,255)" stroke="rgb(0,46,255)" stroke-width="1" opacity="0.8980392156862745" d="M 41.5 120 L 42 128.5 L 41 128.5 L 41.5 120 Z "></path><path fill="rgb(0,46,255)" stroke="rgb(0,46,255)" stroke-width="1" opacity="0.8980392156862745" d="M 264.5 121 L 265 137.5 L 264 137.5 L 264.5 121 Z "></path><path fill="rgb(0,46,255)" stroke="rgb(0,46,255)" stroke-width="1" opacity="0.8980392156862745" d="M 157.5 122 L 163 128.5 L 159 125.5 L 157.5 122 Z "></path><path fill="rgb(0,46,255)" stroke="rgb(0,46,255)" stroke-width="1" opacity="0.8980392156862745" d="M 163.5 130 L 164.5 132 L 163.5 130 Z "></path><path fill="rgb(0,46,255)" stroke="rgb(0,46,255)" stroke-width="1" opacity="0.8980392156862745" d="M 368.5 131 L 369 133.5 L 368 133.5 L 368.5 131 Z "></path><path fill="rgb(0,46,255)" stroke="rgb(0,46,255)" stroke-width="1" opacity="0.8980392156862745" d="M 165.5 133 L 182 155.5 L 180 154.5 L 166 135.5 L 165.5 133 Z "></path><path fill="rgb(0,46,255)" stroke="rgb(0,46,255)" stroke-width="1" opacity="0.8980392156862745" d="M 369.5 136 L 370 138.5 L 369 138.5 L 369.5 136 Z "></path><path fill="rgb(0,46,255)" stroke="rgb(0,46,255)" stroke-width="1" opacity="0.8980392156862745" d="M 125.5 139 L 130 145.5 L 129 145.5 L 125.5 139 Z "></path><path fill="rgb(0,46,255)" stroke="rgb(0,46,255)" stroke-width="1" opacity="0.8980392156862745" d="M 230.5 140 L 231 146.5 L 230 146.5 L 230.5 140 Z "></path><path fill="rgb(0,46,255)" stroke="rgb(0,46,255)" stroke-width="1" opacity="0.8980392156862745" d="M 40.5 143 L 41 150.5 L 39.5 153 L 39 151.5 L 40.5 143 Z "></path><path fill="rgb(0,46,255)" stroke="rgb(0,46,255)" stroke-width="1" opacity="0.8980392156862745" d="M 265.5 144 L 266 158.5 L 265 158.5 L 265.5 144 Z "></path><path fill="rgb(0,46,255)" stroke="rgb(0,46,255)" stroke-width="1" opacity="0.8980392156862745" d="M 371.5 145 Q 374.6 154.9 382.5 160 L 385 161.5 L 383.5 161 L 374 152.5 L 371.5 145 Z "></path><path fill="rgb(0,46,255)" stroke="rgb(0,46,255)" stroke-width="1" opacity="0.8980392156862745" d="M 229.5 149 L 230 151.5 L 229 151.5 L 229.5 149 Z "></path><path fill="rgb(0,46,255)" stroke="rgb(0,46,255)" stroke-width="1" opacity="0.8980392156862745" d="M 38.5 154 L 37.5 156 L 38.5 154 Z "></path><path fill="rgb(0,46,255)" stroke="rgb(0,46,255)" stroke-width="1" opacity="0.8980392156862745" d="M 227.5 155 L 227 156.5 L 225.5 159 L 226 157.5 L 227.5 155 Z "></path><path fill="rgb(0,46,255)" stroke="rgb(0,46,255)" stroke-width="1" opacity="0.8980392156862745" d="M 36.5 157 L 25.5 169 L 36.5 157 Z "></path><path fill="rgb(0,46,255)" stroke="rgb(0,46,255)" stroke-width="1" opacity="0.8980392156862745" d="M 182.5 157 Q 190 162 189 175.5 L 182.5 186 L 175.5 189 L 175.5 188 Q 183.5 187 186 180.5 Q 189.1 176.1 188 167.5 L 182.5 157 Z "></path><path fill="rgb(0,46,255)" stroke="rgb(0,46,255)" stroke-width="1" opacity="0.8980392156862745" d="M 223.5 159 L 222.5 161 L 223.5 159 Z "></path><path fill="rgb(0,46,255)" stroke="rgb(0,46,255)" stroke-width="1" opacity="0.8980392156862745" d="M 220.5 161 L 219.5 163 L 210 168.5 L 208.5 172 L 208 170.5 L 211.5 166 L 220.5 161 Z "></path><path fill="rgb(0,46,255)" stroke="rgb(0,46,255)" stroke-width="1" opacity="0.8980392156862745" d="M 122.5 163 L 124 163.5 L 114.5 169 L 115.5 167 L 122.5 163 Z "></path><path fill="rgb(0,46,255)" stroke="rgb(0,46,255)" stroke-width="1" opacity="0.8980392156862745" d="M 81.5 164 L 82 182.5 L 75.5 192 Q 70.5 197.5 58.5 196 L 58.5 195 L 67.5 195 L 78 188.5 L 81 182.5 L 81.5 164 Z "></path><path fill="rgb(0,46,255)" stroke="rgb(0,46,255)" stroke-width="1" opacity="0.8980392156862745" d="M 390.5 164 L 393 165.5 L 391.5 165 L 390.5 164 Z "></path><path fill="rgb(0,46,255)" stroke="rgb(0,46,255)" stroke-width="1" opacity="0.8980392156862745" d="M 266.5 166 L 267 172.5 L 266 172.5 L 266.5 166 Z "></path><path fill="rgb(0,46,255)" stroke="rgb(0,46,255)" stroke-width="1" opacity="0.8980392156862745" d="M 394.5 166 L 397 170.5 L 396 170.5 L 394.5 166 Z "></path><path fill="rgb(0,46,255)" stroke="rgb(0,46,255)" stroke-width="1" opacity="0.8980392156862745" d="M 23.5 169 L 22.5 171 L 23.5 169 Z "></path><path fill="rgb(0,46,255)" stroke="rgb(0,46,255)" stroke-width="1" opacity="0.8980392156862745" d="M 20.5 171 L 19 173.5 L 17.5 177 L 17 175.5 L 20.5 171 Z "></path><path fill="rgb(0,46,255)" stroke="rgb(0,46,255)" stroke-width="1" opacity="0.8980392156862745" d="M 111.5 171 L 109.5 174 L 107 175.5 Q 104.3 177.8 105 183.5 L 109 189.5 L 105 186.5 L 104 179.5 L 108.5 173 L 111.5 171 Z "></path><path fill="rgb(0,46,255)" stroke="rgb(0,46,255)" stroke-width="1" opacity="0.8980392156862745" d="M 335.5 171 L 336 173.5 L 335 173.5 L 335.5 171 Z "></path><path fill="rgb(0,46,255)" stroke="rgb(0,46,255)" stroke-width="1" opacity="0.8980392156862745" d="M 265.5 174 L 266 175.5 L 263.5 179 L 264 177.5 L 265.5 174 Z "></path><path fill="rgb(0,46,255)" stroke="rgb(0,46,255)" stroke-width="1" opacity="0.8980392156862745" d="M 208.5 176 L 211.5 181 Q 215.4 184.1 223 183.5 L 215.5 184 L 209 179.5 L 208.5 176 Z "></path><path fill="rgb(0,46,255)" stroke="rgb(0,46,255)" stroke-width="1" opacity="0.8980392156862745" d="M 396.5 176 L 397 177.5 L 393.5 182 L 395 179.5 L 396.5 176 Z "></path><path fill="rgb(0,46,255)" stroke="rgb(0,46,255)" stroke-width="1" opacity="0.8980392156862745" d="M 16.5 178 L 18 183.5 L 17 183.5 L 16.5 178 Z "></path><path fill="rgb(0,46,255)" stroke="rgb(0,46,255)" stroke-width="1" opacity="0.8980392156862745" d="M 338.5 179 Q 341.3 185.2 351 184.5 L 344.5 185 L 339 182 L 338.5 179 Z "></path><path fill="rgb(0,46,255)" stroke="rgb(0,46,255)" stroke-width="1" opacity="0.8980392156862745" d="M 262.5 180 L 260.5 183 L 262.5 180 Z "></path><path fill="rgb(0,46,255)" stroke="rgb(0,46,255)" stroke-width="1" opacity="0.8980392156862745" d="M 354.5 183 L 379 183.5 L 354.5 184 L 354.5 183 Z "></path><path fill="rgb(0,46,255)" stroke="rgb(0,46,255)" stroke-width="1" opacity="0.8980392156862745" d="M 225.5 184 L 249 184.5 L 225.5 185 L 225.5 184 Z "></path><path fill="rgb(0,46,255)" stroke="rgb(0,46,255)" stroke-width="1" opacity="0.8980392156862745" d="M 123.5 189 L 126 189.5 L 123.5 190 L 123.5 189 Z "></path><path fill="rgb(0,46,255)" stroke="rgb(0,46,255)" stroke-width="1" opacity="0.8980392156862745" d="M 151.5 189 L 166 189.5 L 151.5 190 L 151.5 189 Z "></path><path fill="rgb(0,46,255)" stroke="rgb(0,46,255)" stroke-width="1" opacity="0.8980392156862745" d="M 171.5 189 L 174 189.5 L 171.5 190 L 171.5 189 Z "></path><path fill="rgb(0,46,255)" stroke="rgb(0,46,255)" stroke-width="1" opacity="0.8980392156862745" d="M 119.5 190 L 122 190.5 L 119.5 191 L 119.5 190 Z "></path><path fill="rgb(0,46,255)" stroke="rgb(0,46,255)" stroke-width="1" opacity="0.8980392156862745" d="M 19.5 192 L 24 195.5 L 22.5 196 L 19.5 192 Z "></path><path fill="rgb(0,46,255)" stroke="rgb(0,46,255)" stroke-width="1" opacity="0.8980392156862745" d="M 35.5 195 L 39 195.5 L 35.5 196 L 35.5 195 Z "></path><path fill="rgb(0,46,255)" stroke="rgb(0,46,255)" stroke-width="1" opacity="0.8980392156862745" d="M 25.5 196 L 33 196.5 L 25.5 197 L 25.5 196 Z "></path><path fill="rgb(0,46,255)" stroke="rgb(0,46,255)" stroke-width="1" opacity="0.8980392156862745" d="M 356.5 217 L 360 217.5 L 356.5 218 L 356.5 217 Z "></path><path fill="rgb(0,46,255)" stroke="rgb(0,46,255)" stroke-width="1" opacity="0.8980392156862745" d="M 326.5 218 L 342 218.5 L 326.5 219 L 326.5 218 Z "></path><path fill="rgb(0,46,255)" stroke="rgb(0,46,255)" stroke-width="1" opacity="0.8980392156862745" d="M 345.5 218 L 348 218.5 L 345.5 219 L 345.5 218 Z "></path><path fill="rgb(0,46,255)" stroke="rgb(0,46,255)" stroke-width="1" opacity="0.8980392156862745" d="M 296.5 219 L 317 219.5 L 296.5 220 L 296.5 219 Z "></path><path fill="rgb(0,46,255)" stroke="rgb(0,46,255)" stroke-width="1" opacity="0.8980392156862745" d="M 112.5 220 L 119 220.5 L 112.5 221 L 112.5 220 Z "></path><path fill="rgb(0,46,255)" stroke="rgb(0,46,255)" stroke-width="1" opacity="0.8980392156862745" d="M 156.5 220 L 159 220.5 L 156.5 221 L 156.5 220 Z "></path><path fill="rgb(0,46,255)" stroke="rgb(0,46,255)" stroke-width="1" opacity="0.8980392156862745" d="M 265.5 220 L 287 220.5 L 265.5 221 L 265.5 220 Z "></path><path fill="rgb(0,46,255)" stroke="rgb(0,46,255)" stroke-width="1" opacity="0.8980392156862745" d="M 367.5 220 L 371.5 225 L 367.5 220 Z "></path><path fill="rgb(0,46,255)" stroke="rgb(0,46,255)" stroke-width="1" opacity="0.8980392156862745" d="M 149.5 221 L 155 221.5 L 149.5 222 L 149.5 221 Z "></path><path fill="rgb(0,46,255)" stroke="rgb(0,46,255)" stroke-width="1" opacity="0.8980392156862745" d="M 248.5 221 L 257 221.5 L 246.5 223 L 246.5 222 L 248.5 221 Z "></path><path fill="rgb(0,46,255)" stroke="rgb(0,46,255)" stroke-width="1" opacity="0.8980392156862745" d="M 32.5 222 L 51 222.5 L 32.5 223 L 27 226.5 L 22.5 234 L 23 232.5 L 28.5 224 L 32.5 222 Z "></path><path fill="rgb(0,46,255)" stroke="rgb(0,46,255)" stroke-width="1" opacity="0.8980392156862745" d="M 52.5 222 L 83 222.5 L 52.5 223 L 52.5 222 Z "></path><path fill="rgb(0,46,255)" stroke="rgb(0,46,255)" stroke-width="1" opacity="0.8980392156862745" d="M 125.5 222 L 132 222.5 L 125.5 223 L 125.5 222 Z "></path><path fill="rgb(0,46,255)" stroke="rgb(0,46,255)" stroke-width="1" opacity="0.8980392156862745" d="M 133.5 222 L 147 222.5 L 133.5 223 L 133.5 222 Z "></path><path fill="rgb(0,46,255)" stroke="rgb(0,46,255)" stroke-width="1" opacity="0.8980392156862745" d="M 170.5 222 L 173.5 226 L 170.5 222 Z "></path><path fill="rgb(0,46,255)" stroke="rgb(0,46,255)" stroke-width="1" opacity="0.8980392156862745" d="M 244.5 223 L 240 228.5 L 239.5 230 L 239 228.5 L 244.5 223 Z "></path><path fill="rgb(0,46,255)" stroke="rgb(0,46,255)" stroke-width="1" opacity="0.8980392156862745" d="M 373.5 227 L 377 231.5 L 376 231.5 L 373.5 227 Z "></path><path fill="rgb(0,46,255)" stroke="rgb(0,46,255)" stroke-width="1" opacity="0.8980392156862745" d="M 238.5 231 L 239 233.5 L 238 233.5 L 238.5 231 Z "></path><path fill="rgb(0,46,255)" stroke="rgb(0,46,255)" stroke-width="1" opacity="0.8980392156862745" d="M 176.5 232 L 177 235.5 L 176 235.5 L 176.5 232 Z "></path><path fill="rgb(0,46,255)" stroke="rgb(0,46,255)" stroke-width="1" opacity="0.8980392156862745" d="M 377.5 233 L 378 235.5 L 377 235.5 L 377.5 233 Z "></path><path fill="rgb(0,46,255)" stroke="rgb(0,46,255)" stroke-width="1" opacity="0.8980392156862745" d="M 21.5 235 L 20 237.5 L 18.5 242 L 18 239.5 L 21.5 235 Z "></path><path fill="rgb(0,46,255)" stroke="rgb(0,46,255)" stroke-width="1" opacity="0.8980392156862745" d="M 377.5 239 L 378 241.5 L 377 241.5 L 377.5 239 Z "></path><path fill="rgb(0,46,255)" stroke="rgb(0,46,255)" stroke-width="1" opacity="0.8980392156862745" d="M 376.5 243 L 377 244.5 L 373 247.5 L 376.5 243 Z "></path><path fill="rgb(0,46,255)" stroke="rgb(0,46,255)" stroke-width="1" opacity="0.8980392156862745" d="M 238.5 245 L 239 254.5 L 238 254.5 L 238.5 245 Z "></path><path fill="rgb(0,46,255)" stroke="rgb(0,46,255)" stroke-width="1" opacity="0.8980392156862745" d="M 325.5 247 L 334.5 247 L 335 248.5 L 330 252.5 L 333.5 248 L 325.5 248 L 325.5 247 Z "></path><path fill="rgb(0,46,255)" stroke="rgb(0,46,255)" stroke-width="1" opacity="0.8980392156862745" d="M 175.5 248 L 176 253.5 L 175 253.5 L 175.5 248 Z "></path><path fill="rgb(0,46,255)" stroke="rgb(0,46,255)" stroke-width="1" opacity="0.8980392156862745" d="M 294.5 248 L 297 248.5 L 294.5 249 L 294.5 248 Z "></path><path fill="rgb(0,46,255)" stroke="rgb(0,46,255)" stroke-width="1" opacity="0.8980392156862745" d="M 298.5 248 L 315 248.5 L 298.5 249 L 298.5 248 Z "></path><path fill="rgb(0,46,255)" stroke="rgb(0,46,255)" stroke-width="1" opacity="0.8980392156862745" d="M 269.5 249 L 285 249.5 L 269.5 250 L 269.5 249 Z "></path><path fill="rgb(0,46,255)" stroke="rgb(0,46,255)" stroke-width="1" opacity="0.8980392156862745" d="M 267.5 250 L 268 252.5 L 267 252.5 L 267.5 250 Z "></path><path fill="rgb(0,46,255)" stroke="rgb(0,46,255)" stroke-width="1" opacity="0.8980392156862745" d="M 371.5 250 L 366.5 256 L 371.5 250 Z "></path><path fill="rgb(0,46,255)" stroke="rgb(0,46,255)" stroke-width="1" opacity="0.8980392156862745" d="M 18.5 253 L 20 255.5 L 18 254.5 L 18.5 253 Z "></path><path fill="rgb(0,46,255)" stroke="rgb(0,46,255)" stroke-width="1" opacity="0.8980392156862745" d="M 328.5 255 L 321.5 263 L 328.5 255 Z "></path><path fill="rgb(0,46,255)" stroke="rgb(0,46,255)" stroke-width="1" opacity="0.8980392156862745" d="M 66.5 256 Q 68.8 255.3 68 257.5 L 71.5 262 L 66.5 256 Z "></path><path fill="rgb(0,46,255)" stroke="rgb(0,46,255)" stroke-width="1" opacity="0.8980392156862745" d="M 72.5 256 L 75 256.5 L 72.5 257 L 72.5 256 Z "></path><path fill="rgb(0,46,255)" stroke="rgb(0,46,255)" stroke-width="1" opacity="0.8980392156862745" d="M 79.5 256 L 84 256.5 L 79.5 257 L 79.5 256 Z "></path><path fill="rgb(0,46,255)" stroke="rgb(0,46,255)" stroke-width="1" opacity="0.8980392156862745" d="M 85.5 256 L 94 256.5 L 85.5 257 L 85.5 256 Z "></path><path fill="rgb(0,46,255)" stroke="rgb(0,46,255)" stroke-width="1" opacity="0.8980392156862745" d="M 20.5 257 L 34 271.5 L 28 266.5 L 20.5 257 Z "></path><path fill="rgb(0,46,255)" stroke="rgb(0,46,255)" stroke-width="1" opacity="0.8980392156862745" d="M 108.5 257 L 118 257.5 L 108.5 258 L 108.5 257 Z "></path><path fill="rgb(0,46,255)" stroke="rgb(0,46,255)" stroke-width="1" opacity="0.8980392156862745" d="M 268.5 257 L 269 268.5 L 268 268.5 L 268.5 257 Z "></path><path fill="rgb(0,46,255)" stroke="rgb(0,46,255)" stroke-width="1" opacity="0.8980392156862745" d="M 365.5 257 L 359.5 264 L 365.5 257 Z "></path><path fill="rgb(0,46,255)" stroke="rgb(0,46,255)" stroke-width="1" opacity="0.8980392156862745" d="M 123.5 259 L 130 261.5 L 128.5 262 L 123.5 260 L 123.5 259 Z "></path><path fill="rgb(0,46,255)" stroke="rgb(0,46,255)" stroke-width="1" opacity="0.8980392156862745" d="M 176.5 259 L 177 264.5 L 176 264.5 L 176.5 259 Z "></path><path fill="rgb(0,46,255)" stroke="rgb(0,46,255)" stroke-width="1" opacity="0.8980392156862745" d="M 239.5 260 L 240 268.5 L 239 268.5 L 239.5 260 Z "></path><path fill="rgb(0,46,255)" stroke="rgb(0,46,255)" stroke-width="1" opacity="0.8980392156862745" d="M 73.5 262 L 80.5 270 L 73.5 262 Z "></path><path fill="rgb(0,46,255)" stroke="rgb(0,46,255)" stroke-width="1" opacity="0.8980392156862745" d="M 320.5 264 L 315.5 270 L 320.5 264 Z "></path><path fill="rgb(0,46,255)" stroke="rgb(0,46,255)" stroke-width="1" opacity="0.8980392156862745" d="M 358.5 265 L 351.5 273 L 358.5 265 Z "></path><path fill="rgb(0,46,255)" stroke="rgb(0,46,255)" stroke-width="1" opacity="0.8980392156862745" d="M 147.5 268 L 155 273.5 L 157 277.5 L 156 277.5 L 150.5 270 Q 146.7 269.8 147.5 268 Z "></path><path fill="rgb(0,46,255)" stroke="rgb(0,46,255)" stroke-width="1" opacity="0.8980392156862745" d="M 177.5 269 L 178 274.5 L 177 274.5 L 177.5 269 Z "></path><path fill="rgb(0,46,255)" stroke="rgb(0,46,255)" stroke-width="1" opacity="0.8980392156862745" d="M 83.5 271 L 88.5 277 L 83.5 271 Z "></path><path fill="rgb(0,46,255)" stroke="rgb(0,46,255)" stroke-width="1" opacity="0.8980392156862745" d="M 314.5 271 L 308 278.5 L 301.5 286 L 307 279.5 L 314.5 271 Z "></path><path fill="rgb(0,46,255)" stroke="rgb(0,46,255)" stroke-width="1" opacity="0.8980392156862745" d="M 269.5 272 L 270 283.5 L 269 283.5 L 269.5 272 Z "></path><path fill="rgb(0,46,255)" stroke="rgb(0,46,255)" stroke-width="1" opacity="0.8980392156862745" d="M 35.5 273 L 48 284.5 L 45.5 283 L 35.5 273 Z "></path><path fill="rgb(0,46,255)" stroke="rgb(0,46,255)" stroke-width="1" opacity="0.8980392156862745" d="M 350.5 274 L 345.5 280 L 350.5 274 Z "></path><path fill="rgb(0,46,255)" stroke="rgb(0,46,255)" stroke-width="1" opacity="0.8980392156862745" d="M 240.5 275 L 241 282.5 L 240 282.5 L 240.5 275 Z "></path><path fill="rgb(0,46,255)" stroke="rgb(0,46,255)" stroke-width="1" opacity="0.8980392156862745" d="M 178.5 278 L 179 284.5 L 174.5 291 L 171.5 292 L 171.5 291 L 176 288.5 Q 179 285 178.5 278 Z "></path><path fill="rgb(0,46,255)" stroke="rgb(0,46,255)" stroke-width="1" opacity="0.8980392156862745" d="M 94.5 281 L 99.5 287 L 94.5 281 Z "></path><path fill="rgb(0,46,255)" stroke="rgb(0,46,255)" stroke-width="1" opacity="0.8980392156862745" d="M 344.5 281 L 338.5 288 L 344.5 281 Z "></path><path fill="rgb(0,46,255)" stroke="rgb(0,46,255)" stroke-width="1" opacity="0.8980392156862745" d="M 159.5 284 L 163.5 290 L 167 291.5 L 165.5 292 L 160 287.5 L 159.5 284 Z "></path><path fill="rgb(0,46,255)" stroke="rgb(0,46,255)" stroke-width="1" opacity="0.8980392156862745" d="M 49.5 285 L 71.5 306 L 73 306 L 76.5 311 L 120 353.5 L 78.5 313 L 52.5 289 L 49.5 285 Z "></path><path fill="rgb(0,46,255)" stroke="rgb(0,46,255)" stroke-width="1" opacity="0.8980392156862745" d="M 241.5 285 L 242 297.5 L 241 297.5 L 241.5 285 Z "></path><path fill="rgb(0,46,255)" stroke="rgb(0,46,255)" stroke-width="1" opacity="0.8980392156862745" d="M 270.5 286 L 271 294.5 L 270 294.5 L 270.5 286 Z "></path><path fill="rgb(0,46,255)" stroke="rgb(0,46,255)" stroke-width="1" opacity="0.8980392156862745" d="M 300.5 287 L 294.5 294 L 300.5 287 Z "></path><path fill="rgb(0,46,255)" stroke="rgb(0,46,255)" stroke-width="1" opacity="0.8980392156862745" d="M 102.5 288 L 110.5 297 L 102.5 288 Z "></path><path fill="rgb(0,46,255)" stroke="rgb(0,46,255)" stroke-width="1" opacity="0.8980392156862745" d="M 335.5 291 L 330 297.5 L 322.5 306 L 329 298.5 L 335.5 291 Z "></path><path fill="rgb(0,46,255)" stroke="rgb(0,46,255)" stroke-width="1" opacity="0.8980392156862745" d="M 112.5 297 L 119.5 305 L 112.5 297 Z "></path><path fill="rgb(0,46,255)" stroke="rgb(0,46,255)" stroke-width="1" opacity="0.8980392156862745" d="M 291.5 297 L 286.5 303 L 291.5 297 Z "></path><path fill="rgb(0,46,255)" stroke="rgb(0,46,255)" stroke-width="1" opacity="0.8980392156862745" d="M 242.5 300 L 243 309.5 L 242 309.5 L 242.5 300 Z "></path><path fill="rgb(0,46,255)" stroke="rgb(0,46,255)" stroke-width="1" opacity="0.8980392156862745" d="M 271.5 301 L 272 308.5 L 271 308.5 L 271.5 301 Z "></path><path fill="rgb(0,46,255)" stroke="rgb(0,46,255)" stroke-width="1" opacity="0.8980392156862745" d="M 285.5 304 L 280.5 310 L 285.5 304 Z "></path><path fill="rgb(0,46,255)" stroke="rgb(0,46,255)" stroke-width="1" opacity="0.8980392156862745" d="M 122.5 306 L 128.5 313 L 122.5 306 Z "></path><path fill="rgb(0,46,255)" stroke="rgb(0,46,255)" stroke-width="1" opacity="0.8980392156862745" d="M 320.5 308 L 315.5 314 L 320.5 308 Z "></path><path fill="rgb(0,46,255)" stroke="rgb(0,46,255)" stroke-width="1" opacity="0.8980392156862745" d="M 243.5 313 L 244 322.5 L 243 322.5 L 243.5 313 Z "></path><path fill="rgb(0,46,255)" stroke="rgb(0,46,255)" stroke-width="1" opacity="0.8980392156862745" d="M 272.5 314 L 273.5 317 L 277 314.5 L 272 318 L 272.5 314 Z "></path><path fill="rgb(0,46,255)" stroke="rgb(0,46,255)" stroke-width="1" opacity="0.8980392156862745" d="M 314.5 315 L 309.5 321 L 314.5 315 Z "></path><path fill="rgb(0,46,255)" stroke="rgb(0,46,255)" stroke-width="1" opacity="0.8980392156862745" d="M 133.5 316 L 139.5 323 L 133.5 316 Z "></path><path fill="rgb(0,46,255)" stroke="rgb(0,46,255)" stroke-width="1" opacity="0.8980392156862745" d="M 142.5 324 L 160 340.5 L 151.5 333 L 142.5 324 Z "></path><path fill="rgb(0,46,255)" stroke="rgb(0,46,255)" stroke-width="1" opacity="0.8980392156862745" d="M 306.5 324 L 301.5 330 L 306.5 324 Z "></path><path fill="rgb(0,46,255)" stroke="rgb(0,46,255)" stroke-width="1" opacity="0.8980392156862745" d="M 244.5 328 L 245 337.5 L 244 337.5 L 244.5 328 Z "></path><path fill="rgb(0,46,255)" stroke="rgb(0,46,255)" stroke-width="1" opacity="0.8980392156862745" d="M 300.5 331 L 294.5 338 L 300.5 331 Z "></path><path fill="rgb(0,46,255)" stroke="rgb(0,46,255)" stroke-width="1" opacity="0.8980392156862745" d="M 293.5 339 L 290.5 344 L 306 344.5 L 289 345 L 293.5 339 Z "></path><path fill="rgb(0,46,255)" stroke="rgb(0,46,255)" stroke-width="1" opacity="0.8980392156862745" d="M 350.5 339 L 358 339.5 L 350.5 340 L 350.5 339 Z "></path><path fill="rgb(0,46,255)" stroke="rgb(0,46,255)" stroke-width="1" opacity="0.8980392156862745" d="M 361.5 339 L 365 339.5 L 361.5 340 L 361.5 339 Z "></path><path fill="rgb(0,46,255)" stroke="rgb(0,46,255)" stroke-width="1" opacity="0.8980392156862745" d="M 340.5 340 L 346 340.5 L 340.5 341 L 340.5 340 Z "></path><path fill="rgb(0,46,255)" stroke="rgb(0,46,255)" stroke-width="1" opacity="0.8980392156862745" d="M 161.5 341 L 170.5 351 L 161.5 341 Z "></path><path fill="rgb(0,46,255)" stroke="rgb(0,46,255)" stroke-width="1" opacity="0.8980392156862745" d="M 328.5 341 L 335 341.5 L 328.5 342 L 328.5 341 Z "></path><path fill="rgb(0,46,255)" stroke="rgb(0,46,255)" stroke-width="1" opacity="0.8980392156862745" d="M 368.5 341 L 371.5 345 L 368.5 341 Z "></path><path fill="rgb(0,46,255)" stroke="rgb(0,46,255)" stroke-width="1" opacity="0.8980392156862745" d="M 319.5 342 L 326 342.5 L 319.5 343 L 319.5 342 Z "></path><path fill="rgb(0,46,255)" stroke="rgb(0,46,255)" stroke-width="1" opacity="0.8980392156862745" d="M 245.5 343 L 246 349.5 L 245 349.5 L 245.5 343 Z "></path><path fill="rgb(0,46,255)" stroke="rgb(0,46,255)" stroke-width="1" opacity="0.8980392156862745" d="M 308.5 343 L 316 343.5 L 308.5 344 L 308.5 343 Z "></path><path fill="rgb(0,46,255)" stroke="rgb(0,46,255)" stroke-width="1" opacity="0.8980392156862745" d="M 372.5 346 L 374 349.5 L 373 349.5 L 372.5 346 Z "></path><path fill="rgb(0,46,255)" stroke="rgb(0,46,255)" stroke-width="1" opacity="0.8980392156862745" d="M 172.5 351 L 177.5 357 L 172.5 351 Z "></path><path fill="rgb(0,46,255)" stroke="rgb(0,46,255)" stroke-width="1" opacity="0.8980392156862745" d="M 374.5 351 L 375 355.5 L 374 355.5 L 374.5 351 Z "></path><path fill="rgb(0,46,255)" stroke="rgb(0,46,255)" stroke-width="1" opacity="0.8980392156862745" d="M 120.5 355 L 128.5 364 L 120.5 355 Z "></path><path fill="rgb(0,46,255)" stroke="rgb(0,46,255)" stroke-width="1" opacity="0.8980392156862745" d="M 243.5 355 L 244 358.5 L 243 358.5 L 243.5 355 Z "></path><path fill="rgb(0,46,255)" stroke="rgb(0,46,255)" stroke-width="1" opacity="0.8980392156862745" d="M 375.5 357 L 376 359.5 L 375 359.5 L 375.5 357 Z "></path><path fill="rgb(0,46,255)" stroke="rgb(0,46,255)" stroke-width="1" opacity="0.8980392156862745" d="M 179.5 358 L 180.5 360 L 179.5 358 Z "></path><path fill="rgb(0,46,255)" stroke="rgb(0,46,255)" stroke-width="1" opacity="0.8980392156862745" d="M 242.5 361 L 244 370.5 L 243 370.5 Q 240.6 367.2 242.5 361 Z "></path><path fill="rgb(0,46,255)" stroke="rgb(0,46,255)" stroke-width="1" opacity="0.8980392156862745" d="M 182.5 363 L 183 365.5 L 182 365.5 L 182.5 363 Z "></path><path fill="rgb(0,46,255)" stroke="rgb(0,46,255)" stroke-width="1" opacity="0.8980392156862745" d="M 130.5 364 L 133.5 368 L 130.5 364 Z "></path><path fill="rgb(0,46,255)" stroke="rgb(0,46,255)" stroke-width="1" opacity="0.8980392156862745" d="M 375.5 364 L 376 366.5 L 375 366.5 L 375.5 364 Z "></path><path fill="rgb(0,46,255)" stroke="rgb(0,46,255)" stroke-width="1" opacity="0.8980392156862745" d="M 182.5 369 L 183 371.5 L 182 371.5 L 182.5 369 Z "></path><path fill="rgb(0,46,255)" stroke="rgb(0,46,255)" stroke-width="1" opacity="0.8980392156862745" d="M 136.5 370 L 150 382.5 L 147.5 381 L 136.5 370 Z "></path><path fill="rgb(0,46,255)" stroke="rgb(0,46,255)" stroke-width="1" opacity="0.8980392156862745" d="M 373.5 370 L 369.5 375 L 366.5 376 L 366.5 375 L 373.5 370 Z "></path><path fill="rgb(0,46,255)" stroke="rgb(0,46,255)" stroke-width="1" opacity="0.8980392156862745" d="M 244.5 372 L 253 378.5 L 251.5 379 L 244.5 372 Z "></path><path fill="rgb(0,46,255)" stroke="rgb(0,46,255)" stroke-width="1" opacity="0.8980392156862745" d="M 181.5 373 L 182 374.5 L 180 375.5 L 181.5 373 Z "></path><path fill="rgb(0,46,255)" stroke="rgb(0,46,255)" stroke-width="1" opacity="0.8980392156862745" d="M 273.5 376 L 306 376.5 L 273.5 377 L 273.5 376 Z "></path><path fill="rgb(0,46,255)" stroke="rgb(0,46,255)" stroke-width="1" opacity="0.8980392156862745" d="M 348.5 376 L 351 376.5 L 348.5 377 L 348.5 376 Z "></path><path fill="rgb(0,46,255)" stroke="rgb(0,46,255)" stroke-width="1" opacity="0.8980392156862745" d="M 360.5 376 L 365 376.5 L 360.5 377 L 360.5 376 Z "></path><path fill="rgb(0,46,255)" stroke="rgb(0,46,255)" stroke-width="1" opacity="0.8980392156862745" d="M 308.5 377 L 345 377.5 L 308.5 378 L 308.5 377 Z "></path><path fill="rgb(0,46,255)" stroke="rgb(0,46,255)" stroke-width="1" opacity="0.8980392156862745" d="M 177.5 378 L 176.5 380 L 177.5 378 Z "></path><path fill="rgb(0,46,255)" stroke="rgb(0,46,255)" stroke-width="1" opacity="0.8980392156862745" d="M 255.5 379 L 259 379.5 L 255.5 380 L 255.5 379 Z "></path><path fill="rgb(0,46,255)" stroke="rgb(0,46,255)" stroke-width="1" opacity="0.8980392156862745" d="M 163.5 381 L 173 381.5 L 163.5 382 L 161.5 384 L 163.5 381 Z "></path><path fill="rgb(0,46,255)" stroke="rgb(0,46,255)" stroke-width="1" opacity="0.8980392156862745" d="M 151.5 383 L 154 384.5 L 152.5 385 L 151.5 383 Z "></path><path fill="rgb(0,44,255)" stroke="rgb(0,44,255)" stroke-width="1" opacity="0.25882352941176473" d="M 62.5 7 L 72.5 7 L 84 15.5 L 91 27.5 L 128 76.5 L 135 88.5 L 145 100.5 L 173 142 L 176 143.5 L 191 166.5 L 191 176.5 L 183.5 187 Q 176.1 193.1 161.5 192 L 159.5 192 L 155.5 191 L 151.5 192 L 150.5 191 L 125.5 191 Q 120.4 194.4 110.5 193 L 105 189.5 Q 102 186.5 102 180.5 L 104 175.5 L 113.5 166 L 128 158.5 L 128 145.5 L 112.5 124 Q 110.3 124.8 111 122.5 L 96.5 102 Q 94.3 102.8 95 100.5 L 80.5 79 L 80 97.5 L 81 98.5 L 81 119.5 L 82 122.5 L 81 125.5 L 82 126.5 L 84 181.5 Q 82.4 190.4 75.5 194 L 68.5 198 L 59.5 198 L 58.5 197 L 37.5 197 L 36.5 198 L 25.5 199 L 18 193.5 L 14 178.5 Q 14.9 171.9 19.5 169 Q 27.4 166.9 31 160.5 Q 36.8 156.3 39 148.5 L 40 90.5 L 39 89.5 L 39 41 L 37 40.5 L 37 23 Q 40.3 24.3 39 19.5 L 44.5 13 L 51.5 9 L 62.5 7 Z M 64 9 L 63 10 L 55 10 L 46 14 Q 40 17 39 25 L 39 33 L 40 34 L 40 79 L 41 80 L 41 133 L 40 134 L 41 136 L 40 139 L 41 141 L 40 151 L 37 157 L 25 169 L 21 171 L 16 179 L 19 193 L 26 197 L 33 197 L 40 195 L 58 195 L 59 196 Q 71 198 76 192 L 82 183 L 81 138 L 80 137 L 80 118 L 79 117 L 80 114 L 79 111 L 79 92 L 78 91 L 79 75 L 130 147 L 130 159 L 129 161 Q 116 164 109 173 L 104 180 L 105 187 L 111 191 Q 121 193 127 189 L 151 189 L 152 190 L 174 190 L 183 186 L 189 176 Q 190 165 186 161 L 84 19 L 75 10 L 64 9 Z "></path><path fill="rgb(0,44,255)" stroke="rgb(0,44,255)" stroke-width="1" opacity="0.25882352941176473" d="M 322.5 23 L 328.5 24 L 333.5 23 L 335.5 24 L 336.5 23 L 354.5 23 Q 361.4 24.6 365 29.5 Q 371.2 35.8 369 50.5 L 368 53.5 L 369 57.5 L 368 58.5 L 368 91.5 L 369 92.5 L 369 106.5 L 368 107.5 L 368 123.5 L 372 137.5 L 372 143.5 L 375 149.5 L 381.5 157 L 388.5 162 L 393.5 163 L 398 167.5 L 400 173.5 Q 399.1 180.1 394.5 183 Q 390 187.5 379.5 186 L 377.5 186 L 373.5 185 L 370.5 186 L 368.5 185 L 365.5 186 L 363.5 185 L 360.5 186 L 358.5 185 L 357.5 186 L 344.5 187 L 337 181.5 Q 333.5 177 333 169.5 L 333 167.5 L 334 163.5 Q 331.3 161.8 333 155.5 L 334 152.5 L 333 148.5 L 334 147.5 L 334 92.5 L 335 89.5 L 334 85.5 L 335 84.5 L 335 57 L 278.5 57 L 275.5 58 L 272.5 57 L 271.5 58 L 263 58 L 264 90.5 L 265 91.5 L 264 95.5 L 265 96.5 L 265 112.5 L 266 115.5 L 265 119.5 L 266 120.5 L 266 141.5 L 267 142.5 L 268 173.5 Q 265.9 180.9 260.5 185 Q 256.1 188.1 247.5 187 L 245.5 187 L 241.5 186 L 237.5 187 L 235.5 187 L 231.5 186 L 227.5 187 L 219.5 185 L 215.5 186 L 208 181.5 Q 204.8 178.2 206 170.5 L 209.5 165 L 218.5 161 L 227 153.5 Q 229.3 150.3 228 143.5 L 230 137.5 L 229 136.5 L 228 123.5 L 232 116.5 L 232 102.5 L 231 101.5 L 231 85.5 L 230 82.5 L 231 80.5 L 230 79.5 L 230 63.5 L 229 62.5 L 228 38.5 Q 229.8 30.9 235.5 27 L 242.5 24 L 247.5 24 L 249.5 25 Q 250.8 22.7 255.5 24 L 257.5 24 Q 263 22.5 264.5 25 L 265.5 24 L 321.5 24 L 322.5 23 Z M 276 25 L 275 26 L 241 26 L 237 28 Q 230 32 229 41 L 230 57 L 231 58 L 230 60 L 231 62 L 231 79 L 232 80 L 232 101 L 233 102 L 233 119 L 230 123 Q 228 129 231 131 L 230 149 L 226 158 L 212 166 L 208 171 L 209 180 L 216 184 L 225 184 L 226 185 L 257 185 L 261 183 L 267 173 Q 269 167 266 166 L 266 145 L 265 144 L 265 122 L 264 121 L 264 105 L 263 104 L 263 82 L 262 81 L 262 65 L 261 64 L 261 57 L 264 56 L 269 57 L 270 56 L 336 56 L 336 109 L 335 110 L 336 114 L 335 117 L 335 174 L 339 182 L 345 185 Q 350 187 352 184 L 390 184 L 394 182 L 397 178 Q 398 171 396 168 L 383 160 Q 375 155 371 145 L 369 132 L 367 127 L 367 104 L 368 103 Q 370 96 367 95 L 367 36 L 365 32 Q 362 27 356 25 L 298 25 L 297 26 L 295 25 L 290 26 L 286 25 L 282 26 L 276 25 Z "></path><path fill="rgb(0,44,255)" stroke="rgb(0,44,255)" stroke-width="1" opacity="0.25882352941176473" d="M 350.5 216 L 354.5 217 Q 356 214.5 361.5 216 L 372 222.5 L 378 229.5 L 378 232.5 L 377 232.5 L 377 230.5 L 367.5 220 Q 363.5 217 356.5 217 L 355.5 218 L 326.5 218 L 325.5 219 L 296.5 219 L 295.5 220 L 248.5 221 L 239 228.5 L 238 231.5 L 238 254.5 L 239 255.5 L 241 293.5 L 240 293.5 L 239 270.5 L 238 269.5 L 237 248.5 L 236 247.5 L 236 231.5 L 244.5 221 L 253.5 219 L 256.5 220 L 261.5 219 L 263.5 220 L 264.5 219 L 349.5 217 L 350.5 216 Z "></path><path fill="rgb(0,44,255)" stroke="rgb(0,44,255)" stroke-width="1" opacity="0.25882352941176473" d="M 160.5 218 Q 172.1 218.4 176 226.5 L 178 231.5 L 178 236.5 L 176 243.5 L 178 252.5 L 178 254.5 L 179 262.5 L 179 264.5 L 180 272.5 L 180 274.5 L 181 284.5 Q 179.6 290.6 174.5 293 L 165.5 294 L 160 291 L 153 274.5 L 150.5 272 L 120.5 260 L 107.5 259 L 106.5 258 L 101.5 259 L 99.5 259 L 95.5 258 L 92.5 259 L 91.5 258 L 71 258 Q 69.9 260.7 72.5 260 L 76 262.5 L 78.5 266 L 87 272 L 88.5 275 L 159 337.5 L 160.5 340 L 164 341 L 167.5 346 L 170 347.5 Q 169.3 349.8 171.5 349 L 175 351 L 177.5 355 L 182 358.5 L 185 365.5 L 185 370.5 Q 182.8 377.3 177.5 381 Q 173.1 384.1 164.5 383 L 159.5 387 L 153.5 387 L 138.5 376 L 111 348.5 L 100.5 337 L 96 333.5 L 93.5 330 L 90 327.5 L 86.5 323 L 83 320.5 L 79.5 316 L 56.5 294 L 41.5 283 L 31 272.5 Q 31.8 270.3 29.5 271 L 17 256.5 Q 14.4 250.6 16 240.5 L 26 224 Q 30 220.2 38.5 220 L 41.5 221 L 46.5 220 L 48.5 221 L 53.5 220 L 56.5 221 L 61.5 220 L 64.5 221 L 67.5 220 L 68.5 221 L 84.5 221 L 85.5 222 L 90.5 221 L 92.5 222 Q 93.8 219.8 98.5 221 L 100.5 221 Q 107.9 222.4 110.5 219 L 119.5 219 L 129.5 221 L 134.5 220 L 137.5 221 L 141.5 220 L 144.5 221 L 145.5 220 L 154.5 220 L 160.5 218 Z M 162 219 L 149 222 L 123 222 L 119 220 Q 110 219 106 223 L 84 223 L 83 222 L 33 222 L 29 224 L 18 240 L 18 255 L 28 267 L 79 313 L 120 356 L 147 381 L 153 385 L 160 385 L 164 382 Q 173 384 177 380 Q 182 378 183 372 Q 184 363 181 360 L 73 262 L 68 256 L 73 257 L 76 256 L 80 257 L 85 256 L 86 257 L 119 258 L 143 266 L 151 270 Q 158 276 160 288 L 166 292 L 175 291 L 179 285 L 177 260 L 176 259 L 176 249 L 175 248 Q 174 240 177 236 L 174 226 Q 170 220 162 219 Z "></path><path fill="rgb(0,44,255)" stroke="rgb(0,44,255)" stroke-width="1" opacity="0.25882352941176473" d="M 377.5 242 L 378 245.5 L 369.5 255 L 367 256.5 L 364.5 261 L 362 262.5 L 350.5 277 L 347 279.5 L 318.5 313 Q 316.3 312.3 317 314.5 L 301 334 L 297 336.5 L 292 342.5 L 303.5 343 L 304.5 342 L 316.5 342 L 317.5 341 L 339.5 340 L 340.5 339 L 362.5 337 Q 369.4 338.6 373 343.5 L 376 349.5 L 378 365.5 Q 375.8 372.3 370.5 376 L 366.5 378 L 346.5 378 L 345.5 379 L 306.5 379 L 305.5 378 L 266.5 378 L 260.5 381 L 253.5 381 Q 245.6 378.9 242 372.5 L 241 360.5 L 244 345.5 L 243 344.5 L 243 330.5 L 242 329.5 L 242 310.5 L 243 310.5 L 245 350.5 L 243 355.5 L 242 368.5 L 249.5 378 L 258.5 380 L 266.5 377 L 307.5 377 L 308.5 378 L 344.5 378 L 345.5 377 L 364.5 377 Q 371 375.5 374 370.5 Q 377.5 366.5 376 357.5 L 374 347.5 L 368.5 341 L 364.5 339 L 350.5 339 L 349.5 340 L 328.5 341 L 327.5 342 L 308.5 343 L 307.5 344 L 290.5 344 L 294 339.5 L 372 250.5 L 377.5 242 Z "></path><path fill="rgb(0,44,255)" stroke="rgb(0,44,255)" stroke-width="1" opacity="0.25882352941176473" d="M 315.5 248 L 334 248.5 L 294 293.5 L 294 295 Q 291.3 293.9 292 296.5 L 273.5 317 L 272 313.5 L 271 286.5 L 270 285.5 L 270 272.5 L 269 271.5 L 269 257.5 L 268 256.5 L 268 250 L 284.5 250 L 285.5 249 L 314.5 249 L 315.5 248 Z M 318 249 L 317 250 L 287 250 L 286 251 L 269 251 L 270 256 L 272 300 L 273 301 L 273 309 L 275 315 L 295 291 L 299 288 L 300 285 L 304 282 L 306 278 L 309 276 L 316 267 L 319 265 L 332 250 L 318 249 Z "></path><path fill="rgb(0,44,255)" stroke="rgb(0,44,255)" stroke-width="1" opacity="0.25882352941176473" d="M 241.5 298 L 242 308.5 L 241 308.5 L 241.5 298 Z "></path><path fill="rgb(0,47,255)" stroke="rgb(0,47,255)" stroke-width="1" opacity="1" d="M 62.5 10 L 74.5 11 L 83 18.5 L 185 160.5 Q 189.2 165.3 188 175.5 Q 185.9 183.4 179.5 187 L 170.5 190 L 166.5 190 L 165.5 189 L 123.5 189 Q 119.9 191.9 112.5 191 L 106 186.5 L 105 179.5 L 108.5 174 L 112 171.5 L 113.5 169 L 130 161 L 130 144.5 L 77.5 72 L 77 88.5 L 78 89.5 L 78 114.5 L 79 115.5 L 81 182.5 L 75.5 191 L 67.5 195 L 35.5 195 L 34.5 196 L 24.5 196 L 19 191.5 L 17 177.5 L 21.5 171 L 25.5 169 L 37 157.5 L 41 150.5 L 42 120.5 L 41 119.5 L 41 49.5 L 40 44.5 L 40 42.5 L 40 23.5 Q 41.3 17.8 45.5 15 L 53.5 11 L 61.5 11 L 62.5 10 Z "></path><path fill="rgb(0,47,255)" stroke="rgb(0,47,255)" stroke-width="1" opacity="1" d="M 264.5 26 L 356.5 26 L 365 32.5 L 367 42.5 L 366 46.5 L 366 48.5 L 366 92.5 L 367 93.5 L 367 107.5 L 366 108.5 L 366 123.5 L 371 146.5 Q 374.6 155.9 382.5 161 L 395 167.5 Q 397.7 169.8 397 175.5 L 392.5 182 Q 388.1 185.1 379.5 184 L 378.5 183 L 354.5 183 L 353.5 184 L 344.5 184 L 338 178.5 Q 332.8 170.2 335 154.5 L 336 153.5 L 336 94.5 Q 338.2 93.3 337 88.5 L 337 86.5 L 337 56.5 L 335.5 55 L 309.5 55 L 307.5 56 L 302.5 55 L 298.5 56 L 295.5 55 Q 294.3 57.3 289.5 56 L 287.5 55 L 286.5 56 L 261.5 56 L 260 57.5 L 261 58.5 L 261 77.5 L 262 78.5 L 262 99.5 L 263 100.5 L 263 118.5 L 264 119.5 L 266 173.5 L 259.5 183 Q 256.2 185.7 249.5 185 L 248.5 184 L 223.5 184 Q 221.8 181.3 215.5 183 L 210 179.5 L 208 172.5 L 211.5 167 L 227 157.5 L 231 146.5 L 231 122.5 Q 235.7 118.7 234 108.5 L 233 107.5 L 233 85.5 L 232 84.5 L 232 68.5 L 231 65.5 L 232 63.5 L 231 62.5 L 230 39.5 Q 231.1 32.1 236.5 29 L 240.5 27 L 263.5 27 L 264.5 26 Z "></path><path fill="rgb(0,47,255)" stroke="rgb(0,47,255)" stroke-width="1" opacity="1" d="M 342.5 218 L 347.5 219 L 348.5 218 L 361.5 218 Q 369.4 220.1 373 226.5 Q 377.7 230.3 378 238.5 L 373 248.5 L 294 337.5 L 289 345 L 305.5 345 L 306.5 344 L 315.5 344 L 316.5 343 L 325.5 343 L 326.5 342 L 360.5 339 L 367.5 341 L 372 345.5 L 374 350.5 L 376 363.5 Q 374.9 370.9 369.5 374 L 365.5 376 L 351.5 377 L 348.5 376 L 347.5 377 L 306.5 377 L 305.5 376 L 273.5 376 L 272.5 377 L 264.5 377 L 260.5 379 L 253.5 379 L 244 371.5 L 243 359.5 L 246 349.5 L 246 343.5 L 245 342.5 L 244 313.5 L 243 312.5 L 243 300.5 L 242 299.5 L 242 285.5 L 240 274.5 L 238 234.5 Q 239.4 226.4 245.5 223 L 256.5 222 L 257.5 221 L 316.5 220 L 317.5 219 L 341.5 219 L 342.5 218 Z M 326 247 L 325 248 L 299 248 L 297 248 L 294 249 L 270 249 L 267 250 L 268 254 L 269 284 L 270 285 L 270 295 L 271 296 L 271 309 L 272 310 L 272 318 L 274 318 L 335 249 L 335 247 L 326 247 Z "></path><path fill="rgb(0,47,255)" stroke="rgb(0,47,255)" stroke-width="1" opacity="1" d="M 159.5 220 Q 170.4 219.6 174 226.5 Q 176.9 230.1 176 237.5 L 174 242.5 L 175 243.5 L 178 284.5 L 174.5 290 L 167.5 292 L 161 287.5 L 157 276.5 L 150.5 269 L 117.5 257 L 66.5 256 L 71.5 262 L 170.5 351 L 179 357 Q 182.5 360.8 183 368.5 L 178.5 378 L 173.5 381 L 163.5 381 Q 161.3 385.3 154.5 385 Q 142.5 378.5 134 368.5 L 130.5 364 L 120 354.5 L 77.5 311 L 73 307.5 Q 73.8 305.3 71.5 306 L 53.5 288 L 34 273 Q 28.8 263.6 20 256.5 Q 16.3 252.2 18 242.5 L 28.5 225 L 32.5 223 L 50.5 223 L 51.5 222 L 52.5 223 L 107.5 223 Q 111.2 219.7 119.5 221 L 125.5 223 L 131.5 223 L 133.5 223 L 146.5 223 L 159.5 220 Z "></path></svg>