<svg width="400" height="400" version="1.1" xmlns="http://www.w3.org/2000/svg" desc="Created with imagetracer.js version 1.2.5"><path fill="rgb(0,0,0)" stroke="rgb(0,0,0)" stroke-width="1" opacity="0.17254901960784313" d="M 179.5 0 L 182 1.5 L 181.5 3 L 181 1 L 179.5 0 Z "></path><path fill="rgb(0,0,0)" stroke="rgb(0,0,0)" stroke-width="1" opacity="0.17254901960784313" d="M 190.5 0 L 192 4 Q 195.3 2.7 194 7.5 L 195 11 Q 198 9.8 197 13.5 L 199 20 Q 201.7 18.9 201 21.5 L 204 29.5 L 203 29.5 L 201 22 Q 198.3 23.1 199 20.5 L 197 14 Q 194 15.3 195 11.5 L 194 8 Q 191.3 9.1 192 6.5 L 190.5 0 Z "></path><path fill="rgb(0,0,0)" stroke="rgb(0,0,0)" stroke-width="1" opacity="0.17254901960784313" d="M 182.5 4 L 186 14.5 L 185 14.5 L 182 6.5 L 182.5 4 Z "></path><path fill="rgb(0,0,0)" stroke="rgb(0,0,0)" stroke-width="1" opacity="0.17254901960784313" d="M 243.5 6 Q 248.8 4.8 250 7.5 L 252 16 Q 254.7 14.9 254 17.5 L 258 28.5 L 257 28.5 L 254 18 Q 251.3 19.1 252 16.5 L 250 9.5 L 247.5 7 Q 242.1 5.1 243 8.5 L 241.5 13 L 241 8.5 L 243.5 6 Z "></path><path fill="rgb(0,0,0)" stroke="rgb(0,0,0)" stroke-width="1" opacity="0.17254901960784313" d="M 186 16 Q 188.7 14.9 188 17.5 L 192 29 Q 195.3 27.7 194 32.5 L 195 36 Q 198 35 197 38 Q 194.3 39.1 195 36.5 L 194 33 Q 190.7 34.3 192 29.5 L 188 18 Q 185 19 186 16 Z "></path><path fill="rgb(0,0,0)" stroke="rgb(0,0,0)" stroke-width="1" opacity="0.17254901960784313" d="M 243.5 17 L 245 22 Q 248 21 247 24 Q 244.3 25.1 245 22.5 Q 242 20.7 243.5 17 Z "></path><path fill="rgb(0,0,0)" stroke="rgb(0,0,0)" stroke-width="1" opacity="0.17254901960784313" d="M 247.5 26 L 251 36.5 L 250 36.5 L 247.5 26 Z "></path><path fill="rgb(0,0,0)" stroke="rgb(0,0,0)" stroke-width="1" opacity="0.17254901960784313" d="M 258.5 30 L 259 33 Q 262.3 31.7 261 36.5 L 265 42.5 L 265 49 Q 268.3 47.7 267 52.5 L 272 67 Q 274.7 65.9 274 68.5 L 279.5 81 L 285 84.5 Q 284.3 87.1 287 86 L 287 89 Q 284 90.3 285 86.5 L 284 84 L 279 83 L 274 69 Q 271.3 70.1 272 67.5 L 267 53 Q 263.7 54.3 265 49.5 Q 262.8 48.3 264 43.5 Q 260.4 41.6 261 37 Q 257.7 38.3 259 33.5 L 258.5 30 Z "></path><path fill="rgb(0,0,0)" stroke="rgb(0,0,0)" stroke-width="1" opacity="0.17254901960784313" d="M 204.5 31 L 206 36.5 L 205 36.5 L 204.5 31 Z "></path><path fill="rgb(0,0,0)" stroke="rgb(0,0,0)" stroke-width="1" opacity="0.17254901960784313" d="M 206 38 Q 209 36.8 208 40.5 L 211 45.5 L 210 45.5 L 208 41 Q 204.7 42.1 206 38 Z "></path><path fill="rgb(0,0,0)" stroke="rgb(0,0,0)" stroke-width="1" opacity="0.17254901960784313" d="M 251.5 38 L 252 42 L 243 41.5 L 251 41 L 251.5 38 Z "></path><path fill="rgb(0,0,0)" stroke="rgb(0,0,0)" stroke-width="1" opacity="0.17254901960784313" d="M 197.5 40 L 199 44 Q 202 42.8 201 46.5 L 206.5 54 L 209 54.5 L 206.5 55 L 204 54 L 204 51.5 L 201 47 Q 198 48.3 199 44.5 L 197.5 40 Z "></path><path fill="rgb(0,0,0)" stroke="rgb(0,0,0)" stroke-width="1" opacity="0.17254901960784313" d="M 229.5 42 L 241 42.5 L 221.5 44 L 221.5 43 Q 227.7 44.8 229.5 42 Z "></path><path fill="rgb(0,0,0)" stroke="rgb(0,0,0)" stroke-width="1" opacity="0.17254901960784313" d="M 214 44 L 219 44 L 219 46 L 214 46 L 214 44 Z "></path><path fill="rgb(0,0,0)" stroke="rgb(0,0,0)" stroke-width="1" opacity="0.17254901960784313" d="M 4.5 49 L 9 49.5 L 4.5 50 L 4.5 49 Z "></path><path fill="rgb(0,0,0)" stroke="rgb(0,0,0)" stroke-width="1" opacity="0.17254901960784313" d="M 10.5 50 L 16 50.5 L 10.5 51 L 10.5 50 Z "></path><path fill="rgb(0,0,0)" stroke="rgb(0,0,0)" stroke-width="1" opacity="0.17254901960784313" d="M 242.5 50 L 254 50.5 L 242.5 51 L 242.5 50 Z "></path><path fill="rgb(0,0,0)" stroke="rgb(0,0,0)" stroke-width="1" opacity="0.17254901960784313" d="M 255.5 50 Q 258.5 49.1 257 53.5 L 258 55.5 L 257 55.5 L 255.5 50 Z "></path><path fill="rgb(0,0,0)" stroke="rgb(0,0,0)" stroke-width="1" opacity="0.17254901960784313" d="M 17 51 L 23 51 L 23.5 53 L 30.5 53 L 30.5 54 L 17 53 L 17 51 Z "></path><path fill="rgb(0,0,0)" stroke="rgb(0,0,0)" stroke-width="1" opacity="0.17254901960784313" d="M 230 51 L 238.5 51 L 239 53 L 230.5 53 L 230 51 Z "></path><path fill="rgb(0,0,0)" stroke="rgb(0,0,0)" stroke-width="1" opacity="0.17254901960784313" d="M 219.5 53 L 228 53.5 L 210.5 56 L 210.5 55 L 219.5 53 Z "></path><path fill="rgb(0,0,0)" stroke="rgb(0,0,0)" stroke-width="1" opacity="0.17254901960784313" d="M 32.5 54 L 38 54.5 L 32.5 55 L 32.5 54 Z "></path><path fill="rgb(0,0,0)" stroke="rgb(0,0,0)" stroke-width="1" opacity="0.17254901960784313" d="M 39.5 55 L 45 55.5 L 39.5 56 L 39.5 55 Z "></path><path fill="rgb(0,0,0)" stroke="rgb(0,0,0)" stroke-width="1" opacity="0.17254901960784313" d="M 46.5 56 L 50 57.5 L 52 62.5 L 50 61.5 L 49 57 Q 45.7 57.8 46.5 56 Z "></path><path fill="rgb(0,0,0)" stroke="rgb(0,0,0)" stroke-width="1" opacity="0.17254901960784313" d="M 0 57 Q 4.1 55.7 3 59 Q -1.1 60.3 0 57 Z "></path><path fill="rgb(0,0,0)" stroke="rgb(0,0,0)" stroke-width="1" opacity="0.17254901960784313" d="M 258.5 57 L 259 60 Q 262 59 261 62 Q 258.3 63.1 259 60.5 L 258.5 57 Z "></path><path fill="rgb(0,0,0)" stroke="rgb(0,0,0)" stroke-width="1" opacity="0.17254901960784313" d="M 4.5 59 L 23 61.5 L 17.5 62 L 16.5 61 L 4.5 60 L 4.5 59 Z "></path><path fill="rgb(0,0,0)" stroke="rgb(0,0,0)" stroke-width="1" opacity="0.17254901960784313" d="M 25.5 62 L 31 62.5 L 25.5 63 L 25.5 62 Z "></path><path fill="rgb(0,0,0)" stroke="rgb(0,0,0)" stroke-width="1" opacity="0.17254901960784313" d="M 32.5 63 L 39 63.5 L 32.5 64 L 32.5 63 Z "></path><path fill="rgb(0,0,0)" stroke="rgb(0,0,0)" stroke-width="1" opacity="0.17254901960784313" d="M 261.5 63 L 265 72.5 L 264 72.5 L 261 65.5 L 261.5 63 Z "></path><path fill="rgb(0,0,0)" stroke="rgb(0,0,0)" stroke-width="1" opacity="0.17254901960784313" d="M 40 64 Q 42.7 62.9 42 65.5 L 43 66.5 L 43 92.5 L 42 92.5 L 42 66.5 Q 39.3 67.1 40 64 Z "></path><path fill="rgb(0,0,0)" stroke="rgb(0,0,0)" stroke-width="1" opacity="0.17254901960784313" d="M 51.5 68 L 52 93.5 L 51 93.5 L 51.5 68 Z "></path><path fill="rgb(0,0,0)" stroke="rgb(0,0,0)" stroke-width="1" opacity="0.17254901960784313" d="M 265 74 Q 268 72.8 267 76.5 L 269 80.5 L 267 79.5 Q 268 75.8 265 77 L 265 74 Z "></path><path fill="rgb(0,0,0)" stroke="rgb(0,0,0)" stroke-width="1" opacity="0.17254901960784313" d="M 269.5 82 L 272.5 87 Q 275.1 86.3 274 89 L 270 90.5 L 268.5 93 L 265.5 94 L 265.5 93 L 269 92 L 272 87.5 L 269.5 82 Z "></path><path fill="rgb(0,0,0)" stroke="rgb(0,0,0)" stroke-width="1" opacity="0.17254901960784313" d="M 285 90 Q 288.7 88.8 287 94 L 278 97 L 276.5 100 L 267 104 Q 268 107 265 106 Q 263.9 103.3 266.5 104 L 277 99 L 278.5 96 Q 283.3 95.8 285 92.5 L 285 90 Z "></path><path fill="rgb(0,0,0)" stroke="rgb(0,0,0)" stroke-width="1" opacity="0.17254901960784313" d="M 263.5 94 L 262.5 96 L 263.5 94 Z "></path><path fill="rgb(0,0,0)" stroke="rgb(0,0,0)" stroke-width="1" opacity="0.17254901960784313" d="M 43.5 96 L 44 106 L 37.5 106 L 37 104 L 43 104 L 43.5 96 Z "></path><path fill="rgb(0,0,0)" stroke="rgb(0,0,0)" stroke-width="1" opacity="0.17254901960784313" d="M 259.5 96 L 261 96.5 L 259 97 Q 260.1 99.7 257.5 99 L 256 99.5 L 257 97 L 259.5 96 Z "></path><path fill="rgb(0,0,0)" stroke="rgb(0,0,0)" stroke-width="1" opacity="0.17254901960784313" d="M 52.5 99 L 53 101 L 56 101.5 L 52 102 L 52.5 99 Z "></path><path fill="rgb(0,0,0)" stroke="rgb(0,0,0)" stroke-width="1" opacity="0.17254901960784313" d="M 9.5 100 L 17 101.5 L 12.5 102 L 9.5 101 L 4.5 104 L 5 102.5 Q 4.1 99.5 8.5 101 L 9.5 100 Z "></path><path fill="rgb(0,0,0)" stroke="rgb(0,0,0)" stroke-width="1" opacity="0.17254901960784313" d="M 19.5 102 L 25 102.5 L 19.5 103 L 19.5 102 Z "></path><path fill="rgb(0,0,0)" stroke="rgb(0,0,0)" stroke-width="1" opacity="0.17254901960784313" d="M 57.5 102 L 70.5 102 L 71.5 103 L 83 103.5 L 71.5 104 L 70.5 103 L 57.5 103 L 57.5 102 Z "></path><path fill="rgb(0,0,0)" stroke="rgb(0,0,0)" stroke-width="1" opacity="0.17254901960784313" d="M 249.5 102 L 248.5 104 Q 245.9 103.3 247 106 L 244.5 106 L 237.5 109 L 237.5 108 L 244 106 Q 242.8 103 246.5 104 L 249.5 102 Z "></path><path fill="rgb(0,0,0)" stroke="rgb(0,0,0)" stroke-width="1" opacity="0.17254901960784313" d="M 27.5 103 L 36 103.5 L 27.5 104 L 27.5 103 Z "></path><path fill="rgb(0,0,0)" stroke="rgb(0,0,0)" stroke-width="1" opacity="0.17254901960784313" d="M 84 104 L 95.5 104 L 96 106 L 84.5 106 L 84 104 Z "></path><path fill="rgb(0,0,0)" stroke="rgb(0,0,0)" stroke-width="1" opacity="0.17254901960784313" d="M 3.5 106 L 4 109.5 L 3 109.5 L 3.5 106 Z "></path><path fill="rgb(0,0,0)" stroke="rgb(0,0,0)" stroke-width="1" opacity="0.17254901960784313" d="M 98.5 106 L 111 106.5 L 98.5 107 L 98.5 106 Z "></path><path fill="rgb(0,0,0)" stroke="rgb(0,0,0)" stroke-width="1" opacity="0.17254901960784313" d="M 112.5 107 Q 119.8 105.8 122 109.5 L 120.5 110 Q 119 106.5 112.5 108 L 112.5 107 Z "></path><path fill="rgb(0,0,0)" stroke="rgb(0,0,0)" stroke-width="1" opacity="0.17254901960784313" d="M 261.5 107 L 260.5 109 L 257 110 L 255.5 113 L 248 117.5 L 248 119 Q 244.2 117.5 245 120.5 L 240.5 124 L 237 124 L 234.5 128 L 229 130.5 L 228.5 134 L 228 130.5 L 236 126 L 237.5 123 L 240.5 123 L 244 121 L 245 117 L 247.5 117 Q 250.4 112.8 256 112 L 257.5 109 L 261.5 107 Z "></path><path fill="rgb(0,0,0)" stroke="rgb(0,0,0)" stroke-width="1" opacity="0.17254901960784313" d="M 234.5 109 L 236 109.5 L 235 112 L 221 117 L 221 119 L 218 119 Q 219.1 121.7 216.5 121 L 214 123.5 L 214 133 L 212 132.5 L 212 123 L 216 120.5 Q 215.3 117.9 218 119 L 218 117 L 220.5 117 L 232 112 Q 230.9 109.3 233.5 110 L 234.5 109 Z "></path><path fill="rgb(0,0,0)" stroke="rgb(0,0,0)" stroke-width="1" opacity="0.17254901960784313" d="M 12 110 L 18 110 L 18 112 L 12 112 L 12 114.5 L 11 114.5 L 12 110 Z "></path><path fill="rgb(0,0,0)" stroke="rgb(0,0,0)" stroke-width="1" opacity="0.17254901960784313" d="M 123 110 Q 125.7 108.9 125 111.5 L 128 113 L 129 116.5 L 128 116.5 L 126 113.5 L 123 112 L 123 110 Z "></path><path fill="rgb(0,0,0)" stroke="rgb(0,0,0)" stroke-width="1" opacity="0.17254901960784313" d="M 1 112 Q 4.7 110.8 3 116 Q -0.7 117.2 1 112 Z "></path><path fill="rgb(0,0,0)" stroke="rgb(0,0,0)" stroke-width="1" opacity="0.17254901960784313" d="M 19.5 112 L 26 112.5 L 19.5 113 L 19.5 112 Z "></path><path fill="rgb(0,0,0)" stroke="rgb(0,0,0)" stroke-width="1" opacity="0.17254901960784313" d="M 27.5 113 L 36 113.5 L 27.5 114 L 27.5 113 Z "></path><path fill="rgb(0,0,0)" stroke="rgb(0,0,0)" stroke-width="1" opacity="0.17254901960784313" d="M 37.5 114 L 47 114.5 L 37.5 115 L 37.5 114 Z "></path><path fill="rgb(0,0,0)" stroke="rgb(0,0,0)" stroke-width="1" opacity="0.17254901960784313" d="M 49.5 115 L 87 115.5 L 49.5 116 L 49.5 115 Z "></path><path fill="rgb(0,0,0)" stroke="rgb(0,0,0)" stroke-width="1" opacity="0.17254901960784313" d="M 92.5 116 L 112 116.5 L 92.5 117 L 92.5 116 Z "></path><path fill="rgb(0,0,0)" stroke="rgb(0,0,0)" stroke-width="1" opacity="0.17254901960784313" d="M 0.5 117 L 1 122.5 L 0 122.5 L 0.5 117 Z "></path><path fill="rgb(0,0,0)" stroke="rgb(0,0,0)" stroke-width="1" opacity="0.17254901960784313" d="M 10.5 117 L 11 122.5 L 10 122.5 L 10.5 117 Z "></path><path fill="rgb(0,0,0)" stroke="rgb(0,0,0)" stroke-width="1" opacity="0.17254901960784313" d="M 113 117 Q 115.7 115.9 115 118.5 L 116 121.5 L 115 121.5 L 115 119 Q 112 120 113 117 Z "></path><path fill="rgb(0,0,0)" stroke="rgb(0,0,0)" stroke-width="1" opacity="0.17254901960784313" d="M 129.5 119 L 132 126.5 L 131 126.5 L 129.5 119 Z "></path><path fill="rgb(0,0,0)" stroke="rgb(0,0,0)" stroke-width="1" opacity="0.17254901960784313" d="M 9.5 124 L 10 127.5 L 9 127.5 L 9.5 124 Z "></path><path fill="rgb(0,0,0)" stroke="rgb(0,0,0)" stroke-width="1" opacity="0.17254901960784313" d="M 132.5 128 L 133 130 Q 136 128.8 135 132.5 L 140 143.5 L 140 147 Q 142.7 145.9 142 148.5 L 144 153.5 L 143 153.5 L 142 149 Q 139.3 150.1 140 147.5 L 135 133 Q 132 134.3 133 130.5 L 132.5 128 Z "></path><path fill="rgb(0,0,0)" stroke="rgb(0,0,0)" stroke-width="1" opacity="0.17254901960784313" d="M 7 129 Q 10.7 127.8 9 133 Q 5.7 131.7 7 136.5 L 4.5 147 L 4 142.5 L 7 129 Z "></path><path fill="rgb(0,0,0)" stroke="rgb(0,0,0)" stroke-width="1" opacity="0.17254901960784313" d="M 120 135 Q 122.7 133.9 122 136.5 L 124 141.5 L 123 141.5 L 122 137 Q 119 138 120 135 Z "></path><path fill="rgb(0,0,0)" stroke="rgb(0,0,0)" stroke-width="1" opacity="0.17254901960784313" d="M 229.5 135 L 230 138.5 L 229 138.5 L 229.5 135 Z "></path><path fill="rgb(0,0,0)" stroke="rgb(0,0,0)" stroke-width="1" opacity="0.17254901960784313" d="M 215.5 137 L 216 142.5 L 215 142.5 L 215.5 137 Z "></path><path fill="rgb(0,0,0)" stroke="rgb(0,0,0)" stroke-width="1" opacity="0.17254901960784313" d="M 230.5 140 L 232 146.5 L 231 146.5 L 230.5 140 Z "></path><path fill="rgb(0,0,0)" stroke="rgb(0,0,0)" stroke-width="1" opacity="0.17254901960784313" d="M 124.5 143 L 126 147.5 L 125 147.5 L 124.5 143 Z "></path><path fill="rgb(0,0,0)" stroke="rgb(0,0,0)" stroke-width="1" opacity="0.17254901960784313" d="M 216.5 145 L 217 148.5 L 216 148.5 L 216.5 145 Z "></path><path fill="rgb(0,0,0)" stroke="rgb(0,0,0)" stroke-width="1" opacity="0.17254901960784313" d="M 3.5 148 L 4 152.5 L 3 157 Q -0.3 155.7 1 160.5 L 0 160.5 L 1 153 L 3 153 L 3.5 148 Z "></path><path fill="rgb(0,0,0)" stroke="rgb(0,0,0)" stroke-width="1" opacity="0.17254901960784313" d="M 232 148 Q 235.7 146.8 234 152 Q 230.3 153.2 232 148 Z "></path><path fill="rgb(0,0,0)" stroke="rgb(0,0,0)" stroke-width="1" opacity="0.17254901960784313" d="M 126 149 Q 129 147.8 128 151.5 L 129 153.5 L 128 153.5 Q 128.7 150.9 126 152 L 126 149 Z "></path><path fill="rgb(0,0,0)" stroke="rgb(0,0,0)" stroke-width="1" opacity="0.17254901960784313" d="M 217.5 150 L 218 153.5 L 217 153.5 L 217.5 150 Z "></path><path fill="rgb(0,0,0)" stroke="rgb(0,0,0)" stroke-width="1" opacity="0.17254901960784313" d="M 234.5 153 L 236 159.5 L 235 159.5 L 234.5 153 Z "></path><path fill="rgb(0,0,0)" stroke="rgb(0,0,0)" stroke-width="1" opacity="0.17254901960784313" d="M 129.5 155 L 132 164.5 L 131 164.5 L 129.5 155 Z "></path><path fill="rgb(0,0,0)" stroke="rgb(0,0,0)" stroke-width="1" opacity="0.17254901960784313" d="M 144.5 155 L 146 160 Q 149 158.8 148 162.5 L 151 172 L 153 172 L 153 175 Q 155.7 173.9 155 176.5 L 159 188 Q 162.3 186.7 161 191.5 L 163.5 195 L 168 195.5 L 163.5 196 L 161 192 Q 157.7 193.3 159 188.5 L 155 177 L 151 175 L 151 172.5 L 148 166.5 L 148 163 Q 145 164.3 146 160.5 L 144.5 155 Z "></path><path fill="rgb(0,0,0)" stroke="rgb(0,0,0)" stroke-width="1" opacity="0.17254901960784313" d="M 218.5 156 L 219 160.5 L 218 160.5 L 218.5 156 Z "></path><path fill="rgb(0,0,0)" stroke="rgb(0,0,0)" stroke-width="1" opacity="0.17254901960784313" d="M 236.5 161 L 237 165.5 L 236 165.5 L 236.5 161 Z "></path><path fill="rgb(0,0,0)" stroke="rgb(0,0,0)" stroke-width="1" opacity="0.17254901960784313" d="M 219 163 Q 222.7 161.8 221 167 Q 217.3 168.2 219 163 Z "></path><path fill="rgb(0,0,0)" stroke="rgb(0,0,0)" stroke-width="1" opacity="0.17254901960784313" d="M 132.5 166 L 133 168 Q 136.3 166.7 135 171.5 L 137 176.5 L 136 176.5 L 135 172 Q 131.7 173.3 133 168.5 L 132.5 166 Z "></path><path fill="rgb(0,0,0)" stroke="rgb(0,0,0)" stroke-width="1" opacity="0.17254901960784313" d="M 237 167 L 239 167 Q 237.7 171.1 241 170 L 241 174.5 L 243 182.5 L 242 182.5 L 241 175 L 239 175 L 239 170.5 Q 236 171.3 237 167 Z "></path><path fill="rgb(0,0,0)" stroke="rgb(0,0,0)" stroke-width="1" opacity="0.17254901960784313" d="M 221.5 169 L 222 172.5 L 221 172.5 L 221.5 169 Z "></path><path fill="rgb(0,0,0)" stroke="rgb(0,0,0)" stroke-width="1" opacity="0.17254901960784313" d="M 222.5 174 L 224 180.5 L 223 180.5 L 222.5 174 Z "></path><path fill="rgb(0,0,0)" stroke="rgb(0,0,0)" stroke-width="1" opacity="0.17254901960784313" d="M 137.5 179 L 140 187.5 L 139 187.5 L 137.5 179 Z "></path><path fill="rgb(0,0,0)" stroke="rgb(0,0,0)" stroke-width="1" opacity="0.17254901960784313" d="M 224.5 182 L 226 188.5 L 225 188.5 L 224.5 182 Z "></path><path fill="rgb(0,0,0)" stroke="rgb(0,0,0)" stroke-width="1" opacity="0.17254901960784313" d="M 244.5 188 L 245 191.5 L 244 191.5 L 244.5 188 Z "></path><path fill="rgb(0,0,0)" stroke="rgb(0,0,0)" stroke-width="1" opacity="0.17254901960784313" d="M 140 189 Q 143 187.8 142 191.5 L 146 200.5 L 144 199.5 L 142 192 Q 138.7 193.1 140 189 Z "></path><path fill="rgb(0,0,0)" stroke="rgb(0,0,0)" stroke-width="1" opacity="0.17254901960784313" d="M 226 190 Q 229.3 188.9 228 193 Q 224.7 194.1 226 190 Z "></path><path fill="rgb(0,0,0)" stroke="rgb(0,0,0)" stroke-width="1" opacity="0.17254901960784313" d="M 245 193 Q 248.3 191.9 247 196 Q 243.7 197.1 245 193 Z "></path><path fill="rgb(0,0,0)" stroke="rgb(0,0,0)" stroke-width="1" opacity="0.17254901960784313" d="M 228.5 194 L 229 197.5 L 228 197.5 L 228.5 194 Z "></path><path fill="rgb(0,0,0)" stroke="rgb(0,0,0)" stroke-width="1" opacity="0.17254901960784313" d="M 169 196 Q 174.2 194.3 173 198 Q 167.8 199.7 169 196 Z "></path><path fill="rgb(0,0,0)" stroke="rgb(0,0,0)" stroke-width="1" opacity="0.17254901960784313" d="M 176.5 198 L 181 198.5 L 176.5 199 L 176.5 198 Z "></path><path fill="rgb(0,0,0)" stroke="rgb(0,0,0)" stroke-width="1" opacity="0.17254901960784313" d="M 182.5 199 L 188 199.5 L 182.5 200 L 182.5 199 Z "></path><path fill="rgb(0,0,0)" stroke="rgb(0,0,0)" stroke-width="1" opacity="0.17254901960784313" d="M 229.5 199 L 230 202.5 L 229 202.5 L 229.5 199 Z "></path><path fill="rgb(0,0,0)" stroke="rgb(0,0,0)" stroke-width="1" opacity="0.17254901960784313" d="M 189.5 200 L 192 200.5 L 189.5 201 L 189.5 200 Z "></path><path fill="rgb(0,0,0)" stroke="rgb(0,0,0)" stroke-width="1" opacity="0.17254901960784313" d="M 195.5 201 L 202 201.5 L 195.5 202 L 195.5 201 Z "></path><path fill="rgb(0,0,0)" stroke="rgb(0,0,0)" stroke-width="1" opacity="0.17254901960784313" d="M 248.5 201 L 249 204.5 L 248 204.5 L 248.5 201 Z "></path><path fill="rgb(0,0,0)" stroke="rgb(0,0,0)" stroke-width="1" opacity="0.17254901960784313" d="M 146.5 202 L 149 203.5 Q 148.3 208.3 151.5 209 L 156 210 Q 154.7 213.7 160.5 212 L 160.5 213 L 153 212 Q 154.1 209.3 151.5 210 Q 147 208.6 148 203 L 146.5 202 Z "></path><path fill="rgb(0,0,0)" stroke="rgb(0,0,0)" stroke-width="1" opacity="0.17254901960784313" d="M 203.5 202 L 208 202.5 L 203.5 203 L 203.5 202 Z "></path><path fill="rgb(0,0,0)" stroke="rgb(0,0,0)" stroke-width="1" opacity="0.17254901960784313" d="M 210 203 L 216 203 L 216 205 L 210 205 L 210 203 Z "></path><path fill="rgb(0,0,0)" stroke="rgb(0,0,0)" stroke-width="1" opacity="0.17254901960784313" d="M 217 205 L 222 205 L 222 207 L 217 207 L 217 205 Z "></path><path fill="rgb(0,0,0)" stroke="rgb(0,0,0)" stroke-width="1" opacity="0.17254901960784313" d="M 230.5 205 L 231 208 L 224 207.5 L 230 207 L 230.5 205 Z "></path><path fill="rgb(0,0,0)" stroke="rgb(0,0,0)" stroke-width="1" opacity="0.17254901960784313" d="M 249.5 207 L 250 210 Q 255.2 208.3 254 212 L 250 212 L 250 210.5 L 249.5 207 Z "></path><path fill="rgb(0,0,0)" stroke="rgb(0,0,0)" stroke-width="1" opacity="0.17254901960784313" d="M 335.5 209 L 342 210 Q 341.3 213.4 344 214.5 L 344 233.5 L 343 233.5 L 343 214.5 L 340 210 L 335 210 L 335 211.5 L 334 212.5 L 333.5 223 L 333 212.5 L 335.5 209 Z "></path><path fill="rgb(0,0,0)" stroke="rgb(0,0,0)" stroke-width="1" opacity="0.17254901960784313" d="M 255.5 212 L 261 212.5 L 255.5 213 L 255.5 212 Z "></path><path fill="rgb(0,0,0)" stroke="rgb(0,0,0)" stroke-width="1" opacity="0.17254901960784313" d="M 162.5 213 Q 169.5 211.5 169 214.5 L 166 216 L 166 218.5 L 160.5 226 L 159 225.5 L 161 225 L 166.5 215 L 168 214.5 L 162.5 214 L 162.5 213 Z "></path><path fill="rgb(0,0,0)" stroke="rgb(0,0,0)" stroke-width="1" opacity="0.17254901960784313" d="M 262.5 213 L 269 213.5 L 262.5 214 L 262.5 213 Z "></path><path fill="rgb(0,0,0)" stroke="rgb(0,0,0)" stroke-width="1" opacity="0.17254901960784313" d="M 270.5 214 L 276 214.5 L 270.5 215 L 270.5 214 Z "></path><path fill="rgb(0,0,0)" stroke="rgb(0,0,0)" stroke-width="1" opacity="0.17254901960784313" d="M 278.5 215 L 287 215.5 L 278.5 216 L 278.5 215 Z "></path><path fill="rgb(0,0,0)" stroke="rgb(0,0,0)" stroke-width="1" opacity="0.17254901960784313" d="M 25 216 L 30.5 216 L 31 217.5 L 38 223.5 L 40.5 227 L 44 229.5 L 47.5 234 L 52 236.5 L 53.5 239 L 58 241.5 L 60.5 246 L 64 247.5 L 65 251 Q 70 251.5 72.5 256 L 75 256 L 80.5 263 L 83.5 265 Q 84.9 269.8 90 269 L 93.5 274 Q 97.5 273.5 98 276.5 L 100.5 280 Q 104.5 279.5 105 282.5 L 106.5 285 L 111.5 286 L 115 284 L 115 281.5 L 120.5 274 L 125 270.5 L 126.5 267 L 130 264.5 L 133 258 Q 135.7 259.1 135 256.5 L 140 249 Q 142.7 250.1 142 247.5 L 143 247.5 L 142 251 L 139 252.5 L 135 260 L 131 262.5 Q 131.5 267.5 127.5 268 Q 124.9 267.2 126 270.5 L 120 275 L 120 277.5 L 114.5 285 L 109.5 287 L 104 283.5 Q 104.8 281.3 102.5 282 L 97 277.5 Q 97.8 275.3 95.5 276 L 89.5 271 L 87 271 L 83.5 266 L 80 265 L 75.5 259 L 72 257.5 L 68.5 253 L 64 250.5 L 64 249 L 62 249 Q 63.1 246.3 60.5 247 L 57 241 L 50 238 L 48.5 235 L 43 230.5 L 41.5 228 L 37 224.5 L 35.5 222 L 30.5 218 L 26.5 218 Q 23.8 219.3 25 224.5 L 31 229.5 L 34.5 234 L 38 236.5 L 40.5 240 L 45 242.5 Q 45.8 246.3 43.5 247 Q 40.9 246.3 42 249 L 40 249 L 40 250.5 L 38 251.5 L 40 247 L 44 246 Q 44.8 242.2 41.5 241 L 37 237.5 L 35.5 235 L 30 230.5 L 28.5 228 L 23 225 L 23 218.5 Q 25.8 219.1 25 216 Z "></path><path fill="rgb(0,0,0)" stroke="rgb(0,0,0)" stroke-width="1" opacity="0.17254901960784313" d="M 189.5 216 L 190 217.5 L 183.5 223 L 186.5 219 L 189 217.5 L 189.5 216 Z "></path><path fill="rgb(0,0,0)" stroke="rgb(0,0,0)" stroke-width="1" opacity="0.17254901960784313" d="M 191 216 L 197 216 L 197 218 L 191 218 L 191 216 Z "></path><path fill="rgb(0,0,0)" stroke="rgb(0,0,0)" stroke-width="1" opacity="0.17254901960784313" d="M 288 216 L 296.5 216 L 297 218 L 299.5 218 L 307 222.5 L 305.5 223 L 296.5 218 L 288 218 L 288 216 Z "></path><path fill="rgb(0,0,0)" stroke="rgb(0,0,0)" stroke-width="1" opacity="0.17254901960784313" d="M 199.5 218 L 204 218.5 L 199.5 219 L 199.5 218 Z "></path><path fill="rgb(0,0,0)" stroke="rgb(0,0,0)" stroke-width="1" opacity="0.17254901960784313" d="M 206.5 219 L 211 219.5 L 206.5 220 L 206.5 219 Z "></path><path fill="rgb(0,0,0)" stroke="rgb(0,0,0)" stroke-width="1" opacity="0.17254901960784313" d="M 214.5 220 L 218 220.5 L 214.5 221 L 214.5 220 Z "></path><path fill="rgb(0,0,0)" stroke="rgb(0,0,0)" stroke-width="1" opacity="0.17254901960784313" d="M 221.5 221 L 225 221.5 L 221.5 222 L 221.5 221 Z "></path><path fill="rgb(0,0,0)" stroke="rgb(0,0,0)" stroke-width="1" opacity="0.17254901960784313" d="M 228.5 222 L 232 222.5 L 228.5 223 L 228.5 222 Z "></path><path fill="rgb(0,0,0)" stroke="rgb(0,0,0)" stroke-width="1" opacity="0.17254901960784313" d="M 235 223 Q 240.2 221.3 239 225 Q 233.8 226.7 235 223 Z "></path><path fill="rgb(0,0,0)" stroke="rgb(0,0,0)" stroke-width="1" opacity="0.17254901960784313" d="M 182.5 225 L 180.5 228 L 178.5 229 L 179.5 227 L 182.5 225 Z "></path><path fill="rgb(0,0,0)" stroke="rgb(0,0,0)" stroke-width="1" opacity="0.17254901960784313" d="M 242.5 225 L 247 225.5 L 242.5 226 L 242.5 225 Z "></path><path fill="rgb(0,0,0)" stroke="rgb(0,0,0)" stroke-width="1" opacity="0.17254901960784313" d="M 249.5 226 L 254 226.5 L 249.5 227 L 249.5 226 Z "></path><path fill="rgb(0,0,0)" stroke="rgb(0,0,0)" stroke-width="1" opacity="0.17254901960784313" d="M 158.5 227 L 157 229.5 L 156.5 231 L 156 229.5 L 158.5 227 Z "></path><path fill="rgb(0,0,0)" stroke="rgb(0,0,0)" stroke-width="1" opacity="0.17254901960784313" d="M 256.5 227 L 261 227.5 L 256.5 228 L 256.5 227 Z "></path><path fill="rgb(0,0,0)" stroke="rgb(0,0,0)" stroke-width="1" opacity="0.17254901960784313" d="M 263.5 228 L 268 228.5 L 263.5 229 L 263.5 228 Z "></path><path fill="rgb(0,0,0)" stroke="rgb(0,0,0)" stroke-width="1" opacity="0.17254901960784313" d="M 334.5 228 L 335 234.5 L 334 234.5 L 334.5 228 Z "></path><path fill="rgb(0,0,0)" stroke="rgb(0,0,0)" stroke-width="1" opacity="0.17254901960784313" d="M 270 229 L 275 229 L 275 231 L 270 231 L 270 229 Z "></path><path fill="rgb(0,0,0)" stroke="rgb(0,0,0)" stroke-width="1" opacity="0.17254901960784313" d="M 177.5 231 L 175 234.5 L 173 237.5 L 168 243.5 L 168 246 L 165 247.5 L 160.5 255 L 158 256.5 Q 158.5 261.5 154.5 262 L 151 263 Q 151.8 267.7 147.5 269 Q 145.3 268.3 146 270.5 L 141.5 276 Q 139.3 275.3 140 277.5 L 135 282.5 L 135 285 L 129 289.5 L 128 294 L 124 296.5 L 121.5 300 L 119 299.5 L 123 297.5 L 126 293.5 L 126 291 Q 128.7 292.1 128 289.5 L 133 284.5 L 133 282 L 139 277.5 L 140.5 275 Q 142.8 275.8 142 273.5 L 146.5 268 L 149 266.5 L 151.5 262 L 156 259.5 L 159.5 254 Q 161.8 254.8 161 252.5 L 166 245.5 L 166 243 L 170 240.5 L 173 234 L 177.5 231 Z "></path><path fill="rgb(0,0,0)" stroke="rgb(0,0,0)" stroke-width="1" opacity="0.17254901960784313" d="M 277.5 231 L 283 231.5 L 277.5 232 L 277.5 231 Z "></path><path fill="rgb(0,0,0)" stroke="rgb(0,0,0)" stroke-width="1" opacity="0.17254901960784313" d="M 310.5 231 L 311.5 233 L 310.5 231 Z "></path><path fill="rgb(0,0,0)" stroke="rgb(0,0,0)" stroke-width="1" opacity="0.17254901960784313" d="M 155.5 232 L 154.5 234 L 151.5 235 L 151.5 234 L 155.5 232 Z "></path><path fill="rgb(0,0,0)" stroke="rgb(0,0,0)" stroke-width="1" opacity="0.17254901960784313" d="M 285.5 232 L 290 232.5 L 285.5 233 L 285.5 232 Z "></path><path fill="rgb(0,0,0)" stroke="rgb(0,0,0)" stroke-width="1" opacity="0.17254901960784313" d="M 291.5 233 Q 297 232 298 235.5 L 295.5 234 Q 290.5 235 291.5 233 Z "></path><path fill="rgb(0,0,0)" stroke="rgb(0,0,0)" stroke-width="1" opacity="0.17254901960784313" d="M 312.5 234 L 315 235.5 L 316 238.5 L 314 237.5 Q 315.1 234.2 312.5 235 L 312.5 234 Z "></path><path fill="rgb(0,0,0)" stroke="rgb(0,0,0)" stroke-width="1" opacity="0.17254901960784313" d="M 150.5 236 L 151 237.5 L 148 239.5 L 150.5 236 Z "></path><path fill="rgb(0,0,0)" stroke="rgb(0,0,0)" stroke-width="1" opacity="0.17254901960784313" d="M 344.5 238 L 345 245.5 L 344 245.5 L 344.5 238 Z "></path><path fill="rgb(0,0,0)" stroke="rgb(0,0,0)" stroke-width="1" opacity="0.17254901960784313" d="M 300.5 240 L 304 246.5 L 302 245.5 L 300.5 240 Z "></path><path fill="rgb(0,0,0)" stroke="rgb(0,0,0)" stroke-width="1" opacity="0.17254901960784313" d="M 316.5 240 L 317.5 242 L 316.5 240 Z "></path><path fill="rgb(0,0,0)" stroke="rgb(0,0,0)" stroke-width="1" opacity="0.17254901960784313" d="M 333.5 240 L 334 266.5 L 332.5 266 Q 329.9 266.8 331 263.5 L 330.5 262 L 333 263 L 333.5 240 Z "></path><path fill="rgb(0,0,0)" stroke="rgb(0,0,0)" stroke-width="1" opacity="0.17254901960784313" d="M 146.5 241 L 148 241.5 L 145 243.5 L 143.5 246 L 144 244.5 L 146.5 241 Z "></path><path fill="rgb(0,0,0)" stroke="rgb(0,0,0)" stroke-width="1" opacity="0.17254901960784313" d="M 318 243 Q 321 242 320 245 Q 317 246 318 243 Z "></path><path fill="rgb(0,0,0)" stroke="rgb(0,0,0)" stroke-width="1" opacity="0.17254901960784313" d="M 345 251 L 347 251.5 L 347 258 L 345 257.5 L 345 251 Z "></path><path fill="rgb(0,0,0)" stroke="rgb(0,0,0)" stroke-width="1" opacity="0.17254901960784313" d="M 36.5 252 L 35.5 254 L 31 256.5 Q 31.8 258.8 29.5 258 L 26.5 260 L 27.5 258 L 30.5 256 L 36.5 252 Z "></path><path fill="rgb(0,0,0)" stroke="rgb(0,0,0)" stroke-width="1" opacity="0.17254901960784313" d="M 51.5 252 L 59 256.5 L 60.5 259 L 65.5 263 L 69 263 L 73.5 269 L 76.5 271 Q 79 275.4 84 276 L 87.5 281 L 91 282 L 93.5 286 L 99 289.5 L 100 293 L 109 296 Q 107.9 298.7 110.5 298 L 110.5 299 L 106 298 Q 107.1 295.3 104.5 296 L 99 292.5 L 98 289 L 89 283.5 Q 89.8 281.3 87.5 282 L 82 278 Q 83.1 275.3 80.5 276 L 73 271 L 69.5 266 L 65 265 L 61.5 260 L 57 258 L 54.5 254 L 51.5 253 Q 50.3 256.8 46 256 L 44.5 259 L 37 263.5 Q 37.8 266.1 34.5 265 L 29 269.5 Q 29.8 272.1 26.5 271 L 17 276.5 Q 17.8 279.1 14.5 278 L 10.5 281 L 11.5 279 L 14 277.5 Q 13.2 274.9 16.5 276 L 26 270.5 L 27.5 268 L 34 264.5 Q 33.2 261.9 36.5 263 L 39.5 260 L 45 258 L 46.5 255 Q 51 255.5 51.5 252 Z "></path><path fill="rgb(0,0,0)" stroke="rgb(0,0,0)" stroke-width="1" opacity="0.17254901960784313" d="M 305.5 252 L 308 253.5 L 312 262.5 L 310 261.5 L 307 253 L 305.5 252 Z "></path><path fill="rgb(0,0,0)" stroke="rgb(0,0,0)" stroke-width="1" opacity="0.17254901960784313" d="M 323.5 253 L 327 254.5 L 325.5 255 L 323.5 253 Z "></path><path fill="rgb(0,0,0)" stroke="rgb(0,0,0)" stroke-width="1" opacity="0.17254901960784313" d="M 328.5 259 L 329.5 261 L 328.5 259 Z "></path><path fill="rgb(0,0,0)" stroke="rgb(0,0,0)" stroke-width="1" opacity="0.17254901960784313" d="M 23.5 260 L 25 260.5 L 19 263.5 L 17.5 266 L 11 269.5 Q 11.8 271.8 9.5 271 L 0.5 276 L 1.5 274 L 9 271 Q 7.9 268.3 10.5 269 L 18 265 L 20.5 261 L 23.5 260 Z "></path><path fill="rgb(0,0,0)" stroke="rgb(0,0,0)" stroke-width="1" opacity="0.17254901960784313" d="M 347.5 261 L 348 268.5 L 347 268.5 L 347.5 261 Z "></path><path fill="rgb(0,0,0)" stroke="rgb(0,0,0)" stroke-width="1" opacity="0.17254901960784313" d="M 316.5 272 L 318 275 Q 321 273.8 320 277.5 L 323 285 L 325 285 L 325 287 Q 327.7 285.9 327 288.5 L 331 300 Q 333.7 298.9 333 301.5 L 334 304.5 L 333 304.5 L 333 302 Q 330.3 303.1 331 300.5 L 327 292.5 L 327 289 L 325 289 L 325 287 Q 322.3 288.1 323 285.5 L 320 278 Q 317 279.3 318 275.5 L 316.5 272 Z "></path><path fill="rgb(0,0,0)" stroke="rgb(0,0,0)" stroke-width="1" opacity="0.17254901960784313" d="M 348.5 272 L 349 279.5 L 348 279.5 L 348.5 272 Z "></path><path fill="rgb(0,0,0)" stroke="rgb(0,0,0)" stroke-width="1" opacity="0.17254901960784313" d="M 7.5 281 L 9 281.5 L 7 282 Q 8.1 284.7 5.5 284 L 4 284.5 L 5 282 L 7.5 281 Z "></path><path fill="rgb(0,0,0)" stroke="rgb(0,0,0)" stroke-width="1" opacity="0.17254901960784313" d="M 349.5 282 L 351 292 L 357 296.5 L 358 300 L 361 301.5 L 365 311 L 368 312.5 L 371 320 L 374 321.5 L 378 331 Q 380.7 329.9 380 332.5 L 384.5 339 L 389 342.5 Q 393.1 350.9 400 356.5 L 400 358.5 L 396 355.5 L 385.5 341 L 382 338.5 L 379.5 334 Q 377.3 334.8 378 332.5 L 372.5 324 Q 369.9 324.8 371 321.5 L 366.5 314 Q 364.3 314.8 365 312.5 L 360 304.5 L 360 302 L 356 299.5 L 352.5 294 L 350 292.5 L 349.5 282 Z "></path><path fill="rgb(0,0,0)" stroke="rgb(0,0,0)" stroke-width="1" opacity="0.17254901960784313" d="M 1.5 285 L 3 285.5 L 0.5 287 L 1.5 285 Z "></path><path fill="rgb(0,0,0)" stroke="rgb(0,0,0)" stroke-width="1" opacity="0.17254901960784313" d="M 112.5 299 L 118 300.5 L 115.5 301 L 112.5 300 L 112.5 299 Z "></path><path fill="rgb(0,0,0)" stroke="rgb(0,0,0)" stroke-width="1" opacity="0.17254901960784313" d="M 335.5 309 L 338 315 Q 341 313.8 340 317.5 L 345 329 Q 347.7 327.9 347 330.5 L 347.5 332 L 345 331 L 340 318 Q 337 319.3 338 315.5 L 335 311.5 L 335.5 309 Z "></path><path fill="rgb(0,0,0)" stroke="rgb(0,0,0)" stroke-width="1" opacity="0.17254901960784313" d="M 348.5 333 L 350 336.5 L 349 336.5 L 348.5 333 Z "></path><path fill="rgb(0,0,0)" stroke="rgb(0,0,0)" stroke-width="1" opacity="0.17254901960784313" d="M 350.5 338 L 353 339 L 374 383.5 L 378.5 389 L 392 399.5 L 388.5 400 L 374 387.5 L 365 370.5 L 352.5 341 Q 350.3 341.8 351 339.5 L 350.5 338 Z "></path><path fill="rgb(0,0,0)" stroke="rgb(0,0,0)" stroke-width="1" opacity="0" d="M 0 0 L 178.5 0 L 181 1 L 186 18 Q 189 16.8 188 20.5 L 192 29.5 L 192 33 Q 195 31.8 194 35.5 L 195 38 Q 198.3 36.7 197 41.5 L 199 47 Q 201.7 45.9 201 48.5 Q 204.8 49.7 204 54 L 211.5 56 L 219.5 54 L 239 53 L 239.5 51 L 253.5 51 Q 254.8 48.8 256 51.5 L 259 62 Q 262.3 60.7 261 65.5 Q 265 69.8 265 77 Q 268 75.8 267 79.5 L 272 87.5 L 269 92 L 257 97 L 255.5 100 L 244 104 Q 245.1 106.7 242.5 106 L 232 110 Q 233.1 112.7 230.5 112 L 223.5 116 L 218 117 L 218 119 Q 215.3 117.9 216 120.5 L 212 123 L 212 132.5 L 214 133 L 214 135.5 L 218 154.5 L 219 167 Q 223 165.6 221 172.5 L 226 193 Q 229.7 191.7 228 197.5 L 230 207 L 222.5 207 L 222 205 L 216 205 L 215.5 203 L 208.5 203 L 201.5 201 L 192.5 201 L 187.5 199 L 173 198 Q 174.3 194.3 168.5 196 L 162 193.5 L 161 188 Q 158.3 189.1 159 186.5 L 155 175 L 153 175 L 153 172 Q 150 173.3 151 169.5 L 149 166.5 L 148 160 Q 145 161.3 146 157.5 L 142 147 Q 138.7 148.3 140 143.5 L 137 138.5 L 135 130 Q 132.3 131.1 133 128.5 L 128 113 L 125 111.5 Q 125.8 108.9 122.5 110 L 118.5 107 L 96 106 L 95.5 104 L 83.5 104 L 82.5 103 L 56.5 102 L 53 101 L 52 98.5 L 52 68.5 L 51 67.5 L 51 65.5 L 52 62.5 L 48.5 56 L 23 53 Q 24.1 49.5 16.5 51 L 8.5 49 L 1.5 49 L 0 47.5 L 0 0 Z "></path><path fill="rgb(0,0,0)" stroke="rgb(0,0,0)" stroke-width="1" opacity="0" d="M 191 0 L 400 0 L 400 355.5 L 394 350.5 L 385.5 339 L 383 337.5 L 380 331 Q 377.3 332.1 378 329.5 L 372.5 320 Q 370.3 320.8 371 318.5 L 366.5 311 Q 363.9 311.8 365 308.5 L 359.5 300 Q 357.3 300.8 358 298.5 L 352.5 292 Q 349.9 292.8 351 289.5 L 349 281.5 L 347 251 L 345 250.5 L 345 238.5 L 344 237.5 L 344 214.5 Q 341.3 213.4 342 210 L 335.5 209 Q 330.9 212.4 333 222.5 L 334 223.5 L 334 237.5 L 333 240.5 L 333 262.5 L 331.5 263 Q 327.4 259.8 327 254 L 323 253 L 320 243 Q 317.3 244.1 318 241.5 L 313.5 234 Q 311.3 234.8 312 232.5 L 307 224.5 L 307 222 L 297 218 L 296.5 216 L 287.5 216 L 286.5 215 L 276.5 215 L 268.5 213 L 254 212 Q 255.2 208.3 250 210 L 250 207.5 L 247 193 Q 243.3 194.3 245 188.5 L 243 184.5 L 241 170 L 239 170 Q 240.3 165.9 237 167 L 237 161.5 L 234 152.5 L 234 148 Q 230.3 149.3 232 143.5 L 230 139.5 L 229 130.5 L 237 125.5 Q 236.1 122.5 240.5 124 L 245 120.5 L 245 119 Q 248.7 120.5 248 117.5 L 257 111.5 Q 256.3 109.3 258.5 110 L 264.5 106 L 267 106 Q 265.9 103.3 268.5 104 L 278 98.5 Q 277.2 95.9 280.5 97 L 287 94 L 287 86.5 L 285 86 L 285 84.5 L 278 79.5 L 274 67 Q 271 68.3 272 64.5 L 267 52.5 L 267 49 Q 263.5 50.1 265 42.5 Q 260.4 39.9 261 33 Q 258 34.3 259 30.5 L 254 16 Q 251 17.3 252 13.5 L 248.5 6 Q 242.3 4.8 241 8.5 L 241 12.5 L 245 24 Q 248.3 22.7 247 27.5 L 251 37.5 L 251 41 L 243.5 41 L 242.5 42 L 229.5 42 L 228.5 43 L 214 44 Q 215.1 47.3 211 46 L 208 38 Q 205 39.3 206 35.5 L 201 20 Q 198 21.3 199 17.5 L 197 11 Q 194 12.3 195 8.5 L 194 4 Q 191.3 5.1 192 2.5 L 191 0 Z "></path><path fill="rgb(0,0,0)" stroke="rgb(0,0,0)" stroke-width="1" opacity="0" d="M 0 59 L 17.5 62 L 40 64 Q 39.3 67.1 42 66.5 L 42 92.5 L 43 93.5 L 43 104 L 17.5 102 L 9.5 100 L 5 101 Q 2.3 104.9 3 112 Q -0.7 110.7 1 116.5 L 0 116.5 L 0 59 Z "></path><path fill="rgb(0,0,0)" stroke="rgb(0,0,0)" stroke-width="1" opacity="0" d="M 12 112 L 26.5 113 L 27.5 114 L 36.5 114 L 37.5 115 L 48.5 115 L 49.5 116 L 91.5 116 L 92.5 117 L 113 117 Q 112 120 115 119 L 115 121.5 L 119 130.5 L 120 137 Q 123 135.8 122 139.5 L 126 148.5 L 126 152 Q 128.7 150.9 128 153.5 L 133 172 Q 136 170.8 135 174.5 L 137 177.5 L 137 181.5 L 140 192 Q 143 190.8 142 194.5 L 146 203 Q 149.3 201.7 148 206.5 L 153 210 Q 151.8 213 155.5 212 L 168 214.5 L 165 216.5 L 161 225 Q 158.3 223.9 159 226.5 L 154.5 233 L 151 234 L 148 241 L 144 243.5 L 142 249 Q 139.3 247.9 140 250.5 L 135 258 Q 132.3 256.9 133 259.5 L 127.5 267 L 125 268.5 Q 125.5 273.5 121.5 274 L 119 275.5 L 119 277.5 L 115 281.5 L 115 284 L 109.5 286 L 105 283.5 L 102.5 280 Q 98.5 280.5 98 277.5 L 95.5 274 Q 90.5 274.5 90 270.5 Q 90.8 267.9 87.5 269 L 82 265 Q 83.1 262.3 80.5 263 L 75 256 L 72.5 256 Q 70 251.5 65 251 L 62.5 246 L 59 244.5 L 56.5 240 L 52 237.5 L 50.5 235 L 44 230.5 L 41.5 227 L 38 224.5 L 35.5 221 L 31 217.5 L 30.5 216 L 25 216 Q 25.8 219.1 23 218.5 L 23 225 L 30 229.5 L 34.5 235 L 37 236.5 L 40.5 241 L 44 243.5 Q 45.1 246.8 42.5 246 L 40 247 L 37.5 252 L 29 256 Q 30.1 258.7 27.5 258 L 18 263.5 Q 18.8 265.8 16.5 265 L 9 269 Q 10.1 271.7 7.5 271 L 0.5 275 L 0 161.5 L 1 157 Q 4.3 158.3 3 153.5 L 7 133 Q 10.7 134.3 9 128.5 L 12 112 Z "></path><path fill="rgb(0,0,0)" stroke="rgb(0,0,0)" stroke-width="1" opacity="0" d="M 190.5 216 L 191 218 L 235 223 Q 233.9 226.5 241.5 225 L 242.5 226 L 270 229 Q 268.9 232.5 276.5 231 L 277.5 232 L 295.5 234 L 298 236.5 L 298 239 Q 300.7 237.9 300 240.5 L 304 247.5 L 305 253 Q 307.7 251.9 307 254.5 L 312 263.5 L 312 266 Q 314.7 264.9 314 267.5 L 318 278 Q 320.7 276.9 320 279.5 L 323 287 L 327 289 L 327 292.5 L 331 302 Q 334 300.8 333 304.5 L 338 318 Q 340.7 316.9 340 319.5 L 345 331 L 348 332.5 L 351 341 L 354 342.5 L 356 350.5 Q 362.4 358.6 365 370.5 L 372 384.5 L 377.5 391 L 388 399.5 L 0 400 L 0 287.5 L 1.5 286 L 7 284 Q 5.9 281.3 8.5 282 L 14.5 278 L 17 278 L 18.5 275 L 29 271 L 31.5 267 L 37 265 L 38.5 262 L 46 257.5 Q 45.2 254.9 48.5 256 L 52.5 253 L 57 256.5 Q 56.3 258.8 58.5 258 L 65 263.5 Q 64.3 265.8 66.5 265 L 73 269.5 Q 72.3 271.8 74.5 271 L 82 276 Q 80.9 278.7 83.5 278 L 89 282 L 90.5 285 L 98 289 L 100.5 294 L 106 296 Q 104.8 299 108.5 298 L 117.5 301 L 121.5 300 L 124 297.5 L 126.5 294 Q 129.1 294.8 128 291.5 L 133.5 285 Q 136.1 285.8 135 282.5 L 140 276 L 144 273.5 L 146 269 L 151 265.5 Q 149.9 262.2 152.5 263 L 158 258.5 L 159.5 255 L 162 253.5 L 166.5 246 Q 169.1 246.8 168 243.5 L 173 236 Q 175.7 237.1 175 234.5 L 179.5 228 L 183 225.5 Q 182.5 220.5 186.5 220 L 190 217.5 L 190.5 216 Z "></path><path fill="rgb(0,0,0)" stroke="rgb(0,0,0)" stroke-width="1" opacity="0.9529411764705882" d="M 181.5 0 L 189.5 0 L 190 1.5 L 192 8 Q 195 6.8 194 10.5 L 195 14 Q 198 12.8 197 16.5 L 199 22 Q 202.3 20.7 201 25.5 L 204 30.5 L 206 41 Q 208.7 39.9 208 42.5 L 210 46 L 218.5 46 L 219.5 44 L 228.5 44 L 229.5 43 L 252 42 L 247 22 Q 244.3 23.1 245 20.5 L 242 13.5 L 242 9.5 L 243 7 Q 248.5 5.8 250 9.5 L 252 18 Q 255 16.8 254 20.5 L 258 29.5 L 259 37 Q 262 35.8 261 39.5 L 264 43.5 L 265 53 Q 268 51.8 267 55.5 L 272 69 Q 274.7 67.9 274 70.5 L 279 83 L 284 84 L 285 89 L 287 89.5 L 285 90 Q 285.8 93.8 282.5 95 L 277 97.5 Q 277.8 99.8 275.5 99 L 265 104 Q 266.1 106.7 263.5 106 L 256 110.5 Q 256.8 112.8 254.5 112 L 247.5 117 L 245 117 L 244 121 L 236 124.5 Q 236.8 126.8 234.5 126 L 228 130.5 L 232 152 Q 235.3 150.7 234 155.5 L 236 160.5 L 237 170 L 239 170 L 239 174.5 Q 242 173.5 241 178.5 L 245 196 Q 248.3 194.7 247 199.5 L 250 212 L 262.5 214 L 269.5 214 L 270.5 215 L 277.5 215 L 278.5 216 L 288 216 L 288.5 218 L 296.5 218 L 307 223 L 312 235 Q 315 233.8 314 237.5 L 318 242.5 L 318 245 L 321 246.5 L 323 254 L 327 255 L 331 266 L 333.5 267 L 335 228.5 L 334 227.5 L 334 212.5 L 335 210 L 340 210 L 340 211.5 L 343 214.5 L 343 233.5 L 344 234.5 L 345 258 L 347 258.5 L 347 268.5 L 348 269.5 L 349 288.5 L 351.5 294 L 355 296.5 L 358.5 302 Q 361.1 301.2 360 304.5 Q 364.6 307.8 365 314 L 368 315.5 L 371 324 L 374 325.5 L 378 334 L 381 335.5 L 384.5 341 L 387 342.5 L 400 359.5 L 400 400 L 392.5 400 L 377 387.5 L 353 339 L 350 337.5 L 347 329 Q 344.3 330.1 345 327.5 L 340 315 Q 337.3 316.1 338 313.5 L 336 311.5 L 333 300 Q 330.3 301.1 331 298.5 L 327 287 L 323 285 L 323 282.5 L 320 275 Q 317.3 276.1 318 273.5 L 314 265 Q 311 266.3 312 262.5 L 306.5 252 Q 303.9 252.8 305 249.5 L 300 238 Q 297 239.3 298 235.5 L 295.5 233 L 275 231 Q 276.1 227.5 268.5 229 L 246.5 225 L 239 225 Q 240.1 221.5 232.5 223 L 231.5 222 L 197 218 L 196.5 216 L 189 216 L 187.5 219 L 183 222.5 Q 183.5 226.5 180.5 227 L 178 228.5 Q 178.5 233.5 174.5 234 Q 172.3 233.3 173 235.5 L 167.5 243 Q 164.9 242.2 166 245.5 L 161 254 L 157 256.5 L 154.5 261 L 150 263.5 L 147.5 268 L 145 269.5 L 142 275 L 139 276.5 L 134.5 282 Q 131.9 281.2 133 284.5 L 128 291 Q 125 289.8 126 293.5 L 121.5 299 L 115.5 300 L 109 298 Q 110.3 295 106.5 296 Q 104.6 292.4 100 293 L 97.5 288 L 91 283.5 Q 91.8 281.3 89.5 282 L 84 277.5 Q 84.8 275.3 82.5 276 L 75 271 Q 76.1 268.3 73.5 269 L 69 263 L 65.5 263 L 59 257.5 L 57.5 255 L 51.5 252 L 45 256.5 Q 45.8 258.8 43.5 258 L 36.5 263 L 34 263 L 32.5 266 L 26 269.5 L 24.5 272 L 14 276 L 12.5 279 L 5 282 L 3.5 285 L 0.5 286 L 0 276.5 L 11 271 L 12.5 268 L 19 264.5 L 20.5 262 L 31 258 L 32.5 255 L 40 250.5 L 40 249 L 42 249 Q 40.9 246.3 43.5 247 Q 45.8 246.3 45 242.5 L 38 237.5 L 35.5 234 L 31 230.5 L 28.5 227 L 25 224.5 Q 23.8 219.3 26.5 218 L 30.5 218 L 37 223.5 L 40.5 228 L 43 229.5 L 47.5 235 L 50 236.5 Q 49.3 238.8 51.5 238 L 57 241 L 60.5 247 Q 63.1 246.3 62 249 L 64 249 L 64 250.5 L 72 256.5 L 73.5 259 L 75.5 259 L 80 263.5 Q 79.3 265.8 81.5 265 L 87 269.5 Q 86.2 272.1 89.5 271 Q 92 275.4 97 276 L 100.5 281 L 104 282 L 106.5 286 L 111.5 287 L 116 283.5 L 120 277.5 L 120 275 L 126 270.5 Q 124.9 267.2 127.5 268 L 133.5 260 Q 135.8 260.8 135 258.5 L 140.5 251 Q 142.8 251.8 142 249.5 L 146.5 242 Q 148.8 242.8 148 240.5 Q 151.8 239.2 151 235 L 156 232.5 L 159 226 L 162 224.5 L 166 218.5 L 166 216 L 169 214.5 L 168.5 213 L 161.5 213 L 156 212 Q 157.3 209 153.5 210 L 149 206.5 Q 149.8 202.8 147.5 202 Q 145.3 202.8 146 200.5 L 142 189 Q 139 190.3 140 186.5 L 135 168 Q 132.3 169.1 133 166.5 L 128 149 Q 125 150.3 126 146.5 L 122 135 Q 119 136.3 120 132.5 L 115 117 L 111.5 116 L 87.5 116 L 86.5 115 L 47.5 115 L 46.5 114 L 36.5 114 L 35.5 113 L 18 112 L 18 110 L 12 110 L 10 117.5 L 9 129 Q 5.7 127.7 7 132.5 L 5 137.5 L 3 153 Q -0.3 151.7 1 156.5 L 0 156.5 L 0 123.5 L 1 122.5 L 1 116 Q 5 117.4 3 110.5 Q 5.3 109.3 4 104.5 L 6.5 102 L 11.5 101 L 27.5 104 L 37 104 L 37.5 106 L 44 106 L 44 96.5 L 43 95.5 L 43 66.5 L 42 64 L 3 59 L 3 57 L 0 56.5 L 0 49 L 17 51 Q 15.6 55 22.5 53 L 23.5 54 L 31.5 54 L 49 57 L 51 62.5 L 51 93.5 L 52 94.5 L 52 102 L 57.5 103 L 84 104 L 84.5 106 L 97.5 106 L 98.5 107 L 118.5 108 Q 119.6 110.8 123 110 Q 121.9 112.7 124.5 112 L 126 115 Q 128.7 113.9 128 116.5 L 133 133 Q 135.7 131.9 135 134.5 L 140 149 Q 143 147.8 142 151.5 L 146 163 Q 149.3 161.7 148 166.5 L 151 175 L 155 177 L 155 179.5 L 159 188.5 L 159 192 Q 161.7 190.9 161 193.5 Q 162.7 197.5 169 196 Q 167.9 199.5 175.5 198 L 195.5 202 L 210 203 L 210 205 L 216.5 205 L 217.5 207 L 223.5 207 L 224.5 208 L 231 208 L 228 190 Q 224.7 191.3 226 186.5 L 222 173.5 L 221 163 Q 217.5 164.1 219 156.5 L 216 144.5 L 216 137.5 L 214 133.5 L 214 123.5 L 218 121 L 218 119 L 221 119 Q 219.8 116 223.5 117 L 225.5 115 L 235 112 L 236.5 109 L 247 106 Q 245.9 103.3 248.5 104 Q 252.5 99.8 259 99 Q 257.9 96.3 260.5 97 L 270 91.5 L 271.5 89 Q 275.3 90 274 87 L 271 85.5 L 267 74 Q 263.7 75.3 265 70.5 Q 261.3 66.5 261 60 Q 258 61.3 259 57.5 L 257 50 L 230 51 L 229.5 53 L 219.5 53 L 209.5 55 L 205 52.5 L 201 46.5 L 201 44 Q 198.3 45.1 199 42.5 Q 196.2 40.5 197 36 Q 194 37.3 195 33.5 L 194 29 Q 191.3 30.1 192 27.5 L 188 16 Q 185 17.3 186 13.5 L 181.5 0 Z "></path></svg>