<svg width="400" height="400" version="1.1" xmlns="http://www.w3.org/2000/svg" desc="Created with imagetracer.js version 1.2.5"><path fill="rgb(0,0,0)" stroke="rgb(0,0,0)" stroke-width="1" opacity="0" d="M 0 0 L 400 0 L 400 333.5 L 396 330.5 Q 395.3 328.3 397.5 329 L 399 325.5 Q 386.2 311.9 378 295 Q 375 296.3 376 292.5 Q 373.3 291.4 374 288 L 370 285.5 L 364 276.5 L 364.5 275 Q 362.3 275.8 363 273.5 L 359 269.5 Q 361.2 268.3 358.5 267 Q 356.3 267.8 357 265.5 L 352 259 Q 343.8 261.4 339 268.5 Q 339.5 272.5 336.5 273 L 332 276.5 Q 332.5 280.5 329.5 281 Q 323.3 280.7 320.5 277 L 318.5 277 L 242 243 L 242 236.5 L 243 235.5 L 243 216.5 L 244 214.5 Q 240.8 213.3 242 207.5 L 243 205.5 Q 241 202.2 236 203 L 237 197.5 L 233.5 195 L 220.5 191 L 218.5 189 L 212.5 188 Q 207.6 183.5 200 183 L 199 102 L 219.5 98 L 228 91.5 L 230 88.5 L 229 83.5 L 227 81.5 Q 230.5 80 228 78.5 L 228 74.5 L 226 70.5 L 214 54.5 L 214 52 Q 211.3 53.1 212 50.5 L 206 42.5 L 206 40 L 202 37.5 L 189.5 16 L 188 16.5 L 183.5 8 Q 177 12 174.5 20 L 173.5 19 L 170 22.5 L 160 41.5 L 136 77.5 L 136 84.5 L 139 89 Q 143.7 88.3 145 92.5 Q 144.2 95.1 147.5 94 L 149.5 96 L 160.5 100 L 167 100 L 167 184.5 L 168 187.5 L 144 204 L 142.5 207 L 141 207 L 141 211 L 139.5 211 L 134 215 L 136 256.5 L 80.5 301 L 72.5 305 L 64 298.5 Q 64.7 295.9 62 297 L 62 295 L 59.5 295 L 50.5 290 L 46.5 290 L 42 291 Q 43.1 293.7 40.5 293 L 29.5 306 Q 27.3 305.3 28 307.5 L 26 309.5 L 26 315.5 L 24 317.5 L 24 321.5 L 21 327.5 L 21 330.5 L 19 332.5 L 19 338.5 L 15 346.5 L 15 350.5 L 13 352.5 L 10 364.5 L 6 372.5 L 9.5 374 L 13 373 L 12 377.5 L 15.5 379 L 19.5 377 L 21.5 377 L 24 377.5 Q 21.7 378.8 24.5 380 L 30.5 378 L 32.5 378 L 93.5 373 L 99 368.5 Q 102 365.5 101 358.5 L 100 357.5 L 100 349.5 L 96 339.5 Q 98.5 338 95 336.5 L 94 332.5 L 106.5 322 L 108.5 322 L 115.5 315 L 120 313 Q 118.9 310.3 121.5 311 L 123 308 Q 126 309 125 306 L 127.5 306 L 130 305 L 130 303 Q 132.7 304.1 132 301.5 L 158.5 280 L 194.5 298 L 196 295 L 205.5 299 L 221.5 282 L 223.5 282 L 232.5 273 L 247.5 281 L 255.5 283 L 275.5 294 L 279.5 294 L 299.5 305 L 302.5 305 L 308.5 309 L 314 310 Q 314.8 313.4 312 314.5 L 312 320.5 L 310 322.5 L 310 328.5 L 308 331.5 Q 310.3 332.8 309 337.5 L 310.5 339 L 315 340 L 316.5 344 L 325.5 345 L 327.5 345 L 336.5 346 L 339.5 345 L 342.5 344 L 344.5 345 L 349.5 343 L 366.5 341 L 368.5 341 L 377.5 339 L 398.5 338 L 399.5 337 L 400 400 L 0 400 L 0 0 Z "></path><path fill="rgb(146,206,80)" stroke="rgb(146,206,80)" stroke-width="1" opacity="0.9725490196078431" d="M 183.5 8 L 188.5 17 Q 189.8 14.7 191 17.5 L 193 23.5 L 215 61 L 211 58.5 Q 211.5 53.5 207.5 53 L 207 54.5 L 219 73.5 L 219 75.5 L 226 84.5 L 228 91.5 L 224.5 95 L 218.5 98 L 215.5 98 L 213.5 100 L 199 102 L 199 130.5 L 200 131.5 L 200 182.5 L 199 183.5 L 199 196.5 L 196.5 199 L 193.5 201 L 187 197.5 L 185 189.5 L 185 183.5 L 183.5 182 L 179.5 181 L 175.5 182 Q 173.1 186.5 168 187 L 167 184.5 L 167 100 L 160.5 100 L 145 94 L 141.5 89 Q 138.2 90.1 139 87.5 L 136 83.5 L 142.5 73 L 143.5 75 L 145 72 L 148 70.5 L 160 48.5 Q 158.5 45.5 157 48.5 L 154.5 52 L 156 49.5 L 170 22.5 L 173.5 19 L 175 19.5 Q 177.1 11.6 183.5 8 Z M 164 40 L 162 42 L 164 42 L 164 40 Z M 162 42 L 159 47 L 161 47 L 162 45 Q 164 43 162 42 Z M 204 47 L 205 52 L 207 53 Q 207 48 204 47 Z M 168 52 L 166 55 L 168 54 L 168 52 Z M 162 58 L 162 62 L 164 61 Q 165 57 162 58 Z M 169 61 L 167 64 L 169 63 L 169 61 Z M 160 62 L 159 66 L 152 75 L 153 80 L 162 64 Q 163 61 160 62 Z M 163 67 L 163 71 L 165 70 Q 166 66 163 67 Z M 161 71 L 160 75 L 153 84 L 154 89 L 163 73 Q 164 70 161 71 Z "></path><path fill="rgb(146,206,80)" stroke="rgb(146,206,80)" stroke-width="1" opacity="0.9725490196078431" d="M 215.5 62 L 218 66 L 215 64.5 L 215.5 62 Z "></path><path fill="rgb(146,206,80)" stroke="rgb(146,206,80)" stroke-width="1" opacity="0.9725490196078431" d="M 219.5 68 L 221 71 Q 217.5 72.1 219.5 68 Z "></path><path fill="rgb(146,206,80)" stroke="rgb(146,206,80)" stroke-width="1" opacity="0.9725490196078431" d="M 223.5 74 L 225 76.5 L 223 75.5 L 223.5 74 Z "></path><path fill="rgb(146,206,80)" stroke="rgb(146,206,80)" stroke-width="1" opacity="0.9725490196078431" d="M 193.5 209 L 199 212.5 L 199 237.5 L 200 238.5 Q 198.8 241.8 195 241 Q 196.1 243.7 193.5 243 L 188 241 L 188 233.5 L 187 232.5 L 187 215.5 L 193.5 209 Z "></path><path fill="rgb(146,206,80)" stroke="rgb(146,206,80)" stroke-width="1" opacity="0.9725490196078431" d="M 193 249 L 195 249 Q 193.9 251.7 196.5 251 L 221.5 263 L 227.5 258 Q 229.8 261.7 236 261.5 L 236 263.5 L 236 268.5 L 223.5 282 L 221.5 282 L 204.5 299 L 196.5 295 Q 194 300.5 191.5 296 L 161.5 281 L 159 281 L 162 276.5 L 162 269.5 L 167.5 264 L 174.5 266 L 183 259.5 L 186.5 255 L 188.5 255 L 193 250.5 L 193 249 Z "></path><path fill="rgb(61,127,245)" stroke="rgb(61,127,245)" stroke-width="1" opacity="1" d="M 176.5 182 L 185 183 L 184 189.5 L 186 191.5 Q 184.7 196.3 187 197.5 L 185 198.5 L 193 201.5 L 193 208.5 L 187.5 214 L 167 229.5 Q 164.5 233 166 240.5 L 167 241.5 L 167 264.5 Q 166.3 268.8 160.5 268 L 154 263.5 Q 156.7 259.7 155 251.5 L 153 249.5 L 152.5 240 L 151.5 250 L 147.5 247 L 147 249 L 140.5 254 L 138 254 L 138 245.5 L 136 243.5 L 136 217.5 L 135 216.5 L 142 212 L 142.5 224 L 143 209.5 Q 140.8 208.3 143.5 207 L 145 207.5 L 145 220.5 L 146 220.5 L 146 206.5 L 145 205.5 L 155 198.5 Q 154.2 195.9 157.5 197 L 176.5 182 Z M 157 208 L 157 209 L 159 209 L 157 208 Z M 152 214 L 151 237 L 153 239 L 153 224 L 153 222 L 152 214 Z M 158 217 L 158 218 L 160 218 L 158 217 Z M 147 233 L 146 235 L 146 237 L 147 247 L 148 245 L 148 235 L 147 233 Z M 144 236 L 143 238 L 143 240 L 144 250 L 145 248 L 145 238 L 144 236 Z "></path><path fill="rgb(61,127,245)" stroke="rgb(61,127,245)" stroke-width="1" opacity="1" d="M 197.5 241 L 200.5 241 L 207.5 245 L 212.5 246 L 226 253.5 Q 227.3 259.8 223.5 261 L 217.5 260 L 195 248.5 Q 193.5 241.5 196.5 242 L 197.5 241 Z "></path><path fill="rgb(61,127,245)" stroke="rgb(61,127,245)" stroke-width="1" opacity="1" d="M 242 245 L 255.5 250 L 257.5 252 L 260.5 252 L 273.5 259 L 276.5 259 L 286.5 265 L 294.5 267 L 306.5 274 L 310.5 274 L 328.5 283 L 343 267.5 L 345 263 L 351 266.5 L 353 269.5 Q 350.8 270.7 353.5 272 L 357 274.5 Q 358.5 278.9 355.5 278 L 353 279.5 L 358 283.5 L 369 296.5 L 370 300 Q 372.7 298.9 372 301.5 L 388.5 322 L 389 320.5 L 371 293.5 L 376 297.5 L 398 328 Q 393.8 329 392.5 326 L 392 327.5 L 399 337 L 375.5 337 L 374.5 338 Q 367 336.5 363.5 339 L 361.5 338 L 360.5 339 L 344.5 339 L 343.5 340 L 333.5 340 L 328 341 L 327 335.5 L 328 330 Q 324.7 331.3 326 326.5 L 327 321.5 L 326 321.5 L 326 324 L 321 324 L 319.5 319 L 319 322.5 L 320 324.5 L 318.5 327 L 317.5 325 L 317 329.5 Q 318.7 333.5 325 332 L 324.5 334 L 316.5 334 L 311 335 L 310 329.5 Q 312.3 328.3 311 323.5 L 313 320.5 L 313 315.5 L 316 310.5 Q 312.9 308.8 314.5 307 L 312.5 306 L 312 308 L 309.5 308 L 294 299.5 L 297 297.5 L 295.5 297 L 293.5 298 L 292 297.5 L 291.5 299 L 290.5 297 L 293 295.5 L 291.5 295 L 286.5 297 L 270 288.5 L 273 286.5 L 271.5 286 L 266.5 288 L 246 277.5 L 249 275.5 L 246.5 274 L 246.5 276 L 242.5 277 L 234 272.5 L 236 271.5 L 235 269.5 L 237 269.5 L 236 262.5 L 243 257.5 L 241 257 L 242 250 L 244 249.5 L 242 249 L 242 245 Z M 245 250 L 246 252 L 249 252 L 245 250 Z M 260 257 L 260 258 L 262 258 L 260 257 Z M 246 259 L 247 261 L 250 261 L 246 259 Z M 264 259 L 264 260 L 266 260 L 264 259 Z M 268 260 L 269 262 L 270 262 L 268 260 Z M 276 264 L 276 265 L 278 265 L 276 264 Z M 261 266 L 261 267 L 263 267 L 261 266 Z M 280 266 L 280 267 L 282 267 L 280 266 Z M 265 268 L 265 269 L 267 269 L 265 268 Z M 269 269 L 270 271 L 271 271 L 269 269 Z M 239 271 L 237 273 L 242 275 L 245 274 L 239 271 Z M 292 271 L 293 273 L 295 273 L 292 271 Z M 277 273 L 277 274 L 279 274 L 277 273 Z M 296 273 L 296 274 L 298 274 L 296 273 Z M 281 275 L 281 276 L 283 276 L 281 275 Z M 251 276 L 248 278 L 251 279 L 253 278 L 251 276 Z M 255 278 L 253 280 L 256 281 L 255 280 L 257 279 L 255 278 Z M 309 279 L 309 280 L 311 280 L 309 279 Z M 259 280 L 259 281 L 261 281 L 259 280 Z M 293 280 L 294 282 L 296 282 L 293 280 Z M 313 281 L 313 282 L 316 282 L 313 281 Z M 263 282 L 262 284 L 265 283 L 263 282 Z M 297 282 L 297 283 L 299 283 L 297 282 Z M 268 284 L 266 285 L 266 286 L 269 285 L 268 284 Z M 325 286 L 325 287 L 329 289 L 331 289 Q 330 285 325 286 Z M 276 288 L 275 290 L 277 289 L 276 288 Z M 310 288 L 310 289 L 312 289 L 310 288 Z M 279 289 L 279 290 L 281 290 L 279 289 Z M 314 290 L 314 291 L 317 291 L 314 290 Z M 283 291 L 280 293 Q 284 292 286 295 L 289 294 L 283 291 Z M 326 295 L 326 296 L 330 298 L 333 298 L 329 295 L 326 295 Z M 298 298 L 297 300 L 301 299 L 298 298 Z M 303 300 L 303 301 L 305 301 L 303 300 Z M 307 302 L 304 304 Q 308 303 310 306 L 313 305 L 307 302 Z M 323 309 L 323 310 L 325 310 L 323 309 Z M 327 311 L 327 312 L 329 312 L 327 311 Z M 317 322 L 316 325 L 317 325 L 317 322 Z M 391 323 L 390 325 L 392 326 L 391 323 Z "></path><path fill="rgb(165,70,45)" stroke="rgb(165,70,45)" stroke-width="1" opacity="0.9803921568627451" d="M 196.5 28 L 197.5 30 L 196.5 28 Z "></path><path fill="rgb(165,70,45)" stroke="rgb(165,70,45)" stroke-width="1" opacity="0.9803921568627451" d="M 198.5 31 L 204.5 40 Q 207.1 39.2 206 42.5 L 212 52 Q 215 50.8 214 54.5 L 226 70.5 L 229 79.5 Q 225 81.5 229 83.5 L 230 88.5 Q 228.5 91.5 227 88.5 L 226 84.5 L 219 75.5 L 219 73.5 L 202 46.5 L 207 50.5 L 207 52.5 L 213.5 61 Q 215.8 61.8 215 59.5 L 202 39.5 L 198.5 31 Z M 216 62 L 215 65 L 218 66 L 216 62 Z M 220 68 Q 217 72 221 71 L 220 68 Z M 224 74 L 223 76 L 225 77 L 224 74 Z "></path><path fill="rgb(165,70,45)" stroke="rgb(165,70,45)" stroke-width="1" opacity="0.9803921568627451" d="M 164.5 37 Q 167.8 38.8 164 40.5 Q 164.8 42.8 162.5 42 L 162 44.5 L 160.5 47 L 159 47.5 Q 161.5 49 158 50.5 L 146.5 72 Q 144.3 71.3 145 73.5 L 143 74.5 L 142.5 73 L 136.5 83 L 136 77.5 Q 143.2 70.9 146 61 L 149 59.5 L 157.5 45 L 157 46.5 L 157.5 48 L 165 38.5 L 164.5 37 Z "></path><path fill="rgb(165,70,45)" stroke="rgb(165,70,45)" stroke-width="1" opacity="0.9803921568627451" d="M 197.5 37 L 198.5 39 L 197.5 37 Z "></path><path fill="rgb(165,70,45)" stroke="rgb(165,70,45)" stroke-width="1" opacity="0.9803921568627451" d="M 161.5 38 L 162 39.5 L 160 40.5 L 161.5 38 Z "></path><path fill="rgb(165,70,45)" stroke="rgb(165,70,45)" stroke-width="1" opacity="0.9803921568627451" d="M 200.5 42 L 202 44.5 L 201 44.5 L 200.5 42 Z "></path><path fill="rgb(165,70,45)" stroke="rgb(165,70,45)" stroke-width="1" opacity="0.9803921568627451" d="M 171.5 46 L 170 48.5 L 169.5 50 L 169 48.5 L 171.5 46 Z "></path><path fill="rgb(165,70,45)" stroke="rgb(165,70,45)" stroke-width="1" opacity="0.9803921568627451" d="M 168.5 51 L 168 52.5 L 166.5 55 L 166 53.5 L 168.5 51 Z "></path><path fill="rgb(165,70,45)" stroke="rgb(165,70,45)" stroke-width="1" opacity="0.9803921568627451" d="M 172.5 55 L 171 57.5 L 170.5 59 L 170 57.5 L 172.5 55 Z "></path><path fill="rgb(165,70,45)" stroke="rgb(165,70,45)" stroke-width="1" opacity="0.9803921568627451" d="M 165.5 56 L 164 58.5 L 152.5 80 L 152 74.5 L 159 65.5 L 160 62 L 162 62 L 162 58 L 163.5 58 L 165.5 56 Z "></path><path fill="rgb(165,70,45)" stroke="rgb(165,70,45)" stroke-width="1" opacity="0.9803921568627451" d="M 169.5 60 L 169 61.5 L 167.5 64 L 167 62.5 L 169.5 60 Z "></path><path fill="rgb(165,70,45)" stroke="rgb(165,70,45)" stroke-width="1" opacity="0.9803921568627451" d="M 166.5 65 L 165 67.5 L 153.5 89 L 153 83.5 L 160 74.5 L 161 71 L 163 71 L 163 67 L 164.5 67 L 166.5 65 Z "></path><path fill="rgb(165,70,45)" stroke="rgb(165,70,45)" stroke-width="1" opacity="0.9803921568627451" d="M 199 183 L 205.5 184 L 237 197.5 L 236 203 Q 241 202.2 243 205.5 L 242 212.5 L 244 215.5 L 243 216.5 L 242 252.5 L 240 256.5 L 241 259 Q 237.6 258.3 236.5 261 L 231.5 261 L 227 257.5 L 228 254.5 L 224.5 250 L 212.5 244 L 209.5 244 L 199 237.5 L 199 212.5 L 197.5 211 L 194 209.5 Q 195.7 203.3 193 201.5 L 199 196.5 L 199 183 Z "></path><path fill="rgb(165,70,45)" stroke="rgb(165,70,45)" stroke-width="1" opacity="0.9803921568627451" d="M 187.5 241 L 194 243.5 L 194 248.5 L 188.5 255 Q 183.5 254.5 183 258.5 L 180.5 262 L 174.5 266 L 171.5 266 L 168 263.5 L 169 261.5 L 168 257.5 L 169 255 L 175.5 250 L 178 250 L 178 248 L 180 248 Q 178.9 245.3 181.5 246 L 187.5 241 Z "></path><path fill="rgb(165,70,45)" stroke="rgb(165,70,45)" stroke-width="1" opacity="0.9803921568627451" d="M 147.5 248 L 153 252.5 L 152 254.5 Q 154.8 256.2 154 261.5 L 153 263.5 Q 156.1 268.1 162 269 L 162 276.5 L 156.5 282 L 148.5 289 L 146.5 289 L 138.5 297 L 135.5 298 L 127.5 306 L 125 306 L 125 308 Q 122.3 306.9 123 309.5 L 120 311 Q 121.1 313.7 118.5 313 L 94 332.5 L 100 349.5 L 101 364.5 L 97.5 370 L 93.5 373 L 30.5 378 L 24.5 380 L 23.5 378 L 26.5 379 L 28.5 377 L 33.5 377 Q 35.2 374.2 40.5 375 L 80.5 362 Q 82 364.5 83.5 361 L 98 357 Q 98.8 351.5 96 348.5 L 97 343.5 L 92.5 334 L 90.5 335 L 90 333 L 85 329.5 L 85 327.5 L 81 323.5 Q 84.5 323 84 318.5 L 73.5 306 L 60.5 296 L 55.5 294 Q 53 295.2 54 299 L 61 301 L 60 306 Q 57.3 304.9 58 307.5 L 63 310.5 Q 60.3 311.6 61 315 L 59 315 Q 60.3 320.3 57 319.5 L 57 322.5 L 34 362.5 L 31 365.5 L 31 367.5 L 26 374.5 L 26 377 Q 18.4 376.1 13.5 379 L 12.5 377 L 15.5 378 L 17.5 376 Q 24 377 26 373.5 L 27 371.5 L 22.5 371 L 19.5 372 Q 15.8 371.3 15 373.5 Q 16 377.3 13 376 Q 14.7 371.9 10.5 373 L 7.5 374 L 6.5 372 L 9.5 373 L 11.5 371 L 16.5 371 Q 17.9 368.4 22.5 369 L 25.5 370 Q 30 367 30 359.5 L 28 360.5 L 25.5 365 Q 24.3 362.7 19.5 364 L 17.5 365 L 18.5 363 Q 23.8 364.3 25 361.5 L 22.5 361 L 20.5 362 L 21.5 360 Q 26.9 361.9 26 358.5 L 28 356.5 L 29 349.5 L 31 347.5 L 31 343.5 L 33 341.5 L 33 337.5 Q 35.8 336.4 35 333 Q 32 331.8 33 335.5 L 24 348.5 L 24 350.5 L 19 357.5 L 19 360 Q 15.3 361.5 16 358.5 L 14 359.5 L 14.5 362 L 16 361.5 Q 16.8 363.8 14.5 363 Q 13.3 360.7 12 363.5 L 9 371 Q 6.3 372.1 7 369.5 L 10 364.5 L 13 352.5 L 15 350.5 L 15 346.5 L 19 338.5 L 19 332.5 L 21 330.5 L 21 327.5 L 24 321.5 L 24 317.5 L 26 315.5 L 26 309.5 L 28 306 L 32 303.5 L 40.5 293 Q 43.1 293.7 42 291 L 45.5 291 L 49.5 290 L 54.5 293 L 57.5 293 L 72.5 305 L 74.5 305 L 104.5 281 L 106.5 281 L 129.5 261 L 131.5 261 L 139.5 254 L 141.5 254 L 147.5 248 Z "></path><path fill="rgb(165,70,45)" stroke="rgb(165,70,45)" stroke-width="1" opacity="0.9803921568627451" d="M 24.5 366 L 25 368 L 23 367.5 L 24.5 366 Z "></path><path fill="rgb(241,91,58)" stroke="rgb(241,91,58)" stroke-width="1" opacity="1" d="M 55.5 294 Q 62.3 295.7 65.5 301 L 67.5 301 L 78 310.5 L 78 312.5 L 84 318.5 L 84 320.5 L 81 323.5 L 85 327.5 Q 84.5 332.5 88.5 333 Q 90.8 332.3 90 334.5 L 91.5 334 L 94 335.5 L 97 343.5 L 97 347.5 L 96 349.5 Q 99 351.8 98 357 L 83.5 361 L 81.5 363 L 79.5 363 L 40.5 375 L 36.5 375 L 33.5 377 L 28.5 377 Q 27.4 379.8 24 379 Q 23 376 26 377 L 26 374.5 L 24.5 375 L 17.5 376 Q 16.4 378.8 13 378 Q 12 375 15 376 L 15 373 L 13 372.5 L 14.5 372 L 16.5 372 L 20.5 371 L 22.5 371 L 27 371.5 L 26 373.5 L 28 372.5 L 31 365.5 L 54 328.5 L 57 322.5 L 57 319 L 59 319 L 59 315 Q 62 316.3 61 312.5 L 62.5 310 Q 58.5 310.5 58 307.5 Q 57.3 304.9 60 306 L 60 303.5 L 61 301 L 54 299 Q 53 295.2 55.5 294 Z M 16 361 L 14 363 L 16 363 L 16 361 Z M 25 366 L 23 368 L 25 368 L 25 366 Z "></path><path fill="rgb(241,91,58)" stroke="rgb(241,91,58)" stroke-width="1" opacity="1" d="M 33 333 Q 36 331.8 35 335.5 L 33 337.5 L 33 341.5 L 31 343.5 L 31 347.5 L 29 349.5 Q 29 356.8 26 360 Q 21.4 358.8 20 361.5 L 21.5 362 L 24.5 361 L 23.5 363 Q 18.3 361.8 17 364.5 L 18.5 365 Q 19.8 362.7 24.5 364 Q 25.8 366.3 27 363.5 L 29.5 359 L 30 361.5 L 28 367.5 L 25.5 370 L 19.5 369 L 16.5 371 L 11.5 371 Q 10.4 373.8 7 373 Q 6 370 9 371 L 9 368.5 L 15.5 358 L 16 360 Q 20.1 361.7 19 357.5 L 33 335.5 L 33 333 Z "></path><path fill="rgb(67,101,177)" stroke="rgb(67,101,177)" stroke-width="1" opacity="0.9411764705882353" d="M 148.5 59 L 147.5 61 L 148.5 59 Z "></path><path fill="rgb(67,101,177)" stroke="rgb(67,101,177)" stroke-width="1" opacity="0.9411764705882353" d="M 175.5 182 L 172.5 186 L 175.5 182 Z "></path><path fill="rgb(67,101,177)" stroke="rgb(67,101,177)" stroke-width="1" opacity="0.9411764705882353" d="M 170.5 186 L 169.5 188 Q 162.1 191.1 157.5 197 L 155 197 L 152.5 201 L 150.5 201 L 145 205.5 L 146 206.5 L 146 220.5 L 145 220.5 L 145 207.5 L 143.5 207 Q 140.8 208.3 143 209.5 L 142.5 224 L 142 212 L 135 216.5 L 136 217.5 L 136 243.5 L 138 245.5 L 138 253.5 L 139 254.5 L 136 256.5 L 134 215 L 141 211 L 141 207 L 142.5 207 L 144 204 L 170.5 186 Z "></path><path fill="rgb(67,101,177)" stroke="rgb(67,101,177)" stroke-width="1" opacity="0.9411764705882353" d="M 184.5 189 L 185.5 191 L 184.5 189 Z "></path><path fill="rgb(67,101,177)" stroke="rgb(67,101,177)" stroke-width="1" opacity="0.9411764705882353" d="M 181.5 190 L 178.5 194 L 181.5 190 Z "></path><path fill="rgb(67,101,177)" stroke="rgb(67,101,177)" stroke-width="1" opacity="0.9411764705882353" d="M 176.5 194 L 175.5 196 L 171.5 199 L 174.5 195 L 176.5 194 Z "></path><path fill="rgb(67,101,177)" stroke="rgb(67,101,177)" stroke-width="1" opacity="0.9411764705882353" d="M 185.5 198 L 188 198.5 L 185.5 199 L 185.5 198 Z "></path><path fill="rgb(67,101,177)" stroke="rgb(67,101,177)" stroke-width="1" opacity="0.9411764705882353" d="M 182.5 199 L 179.5 203 L 182.5 199 Z "></path><path fill="rgb(67,101,177)" stroke="rgb(67,101,177)" stroke-width="1" opacity="0.9411764705882353" d="M 189.5 199 L 193 200.5 L 191.5 200 Q 188.5 200.5 189.5 199 Z "></path><path fill="rgb(67,101,177)" stroke="rgb(67,101,177)" stroke-width="1" opacity="0.9411764705882353" d="M 193.5 202 L 194 208.5 L 187 215.5 L 187 232.5 Q 189.8 234.3 188 240.5 L 180 246 L 178 250 L 175.5 250 L 169 255 L 168 260.5 L 169 262.5 L 167 263.5 L 166 231.5 L 171.5 225 Q 177.3 223.7 179.5 219 L 181.5 219 L 193 208.5 L 193.5 202 Z "></path><path fill="rgb(67,101,177)" stroke="rgb(67,101,177)" stroke-width="1" opacity="0.9411764705882353" d="M 164.5 203 L 163.5 205 L 162 204.5 L 164.5 203 Z "></path><path fill="rgb(67,101,177)" stroke="rgb(67,101,177)" stroke-width="1" opacity="0.9411764705882353" d="M 177.5 203 L 176.5 205 L 172.5 208 L 175.5 204 L 177.5 203 Z "></path><path fill="rgb(67,101,177)" stroke="rgb(67,101,177)" stroke-width="1" opacity="0.9411764705882353" d="M 160.5 206 L 158.5 209 Q 154 208.5 153.5 212 L 156.5 208 L 160.5 206 Z "></path><path fill="rgb(67,101,177)" stroke="rgb(67,101,177)" stroke-width="1" opacity="0.9411764705882353" d="M 165.5 212 L 164.5 214 L 163 213.5 L 165.5 212 Z "></path><path fill="rgb(67,101,177)" stroke="rgb(67,101,177)" stroke-width="1" opacity="0.9411764705882353" d="M 151.5 214 L 153 221.5 L 153 223.5 L 152.5 239 L 151 236.5 L 151.5 214 Z "></path><path fill="rgb(67,101,177)" stroke="rgb(67,101,177)" stroke-width="1" opacity="0.9411764705882353" d="M 161.5 215 L 159.5 218 Q 155 217.5 154.5 221 L 157.5 217 L 161.5 215 Z "></path><path fill="rgb(67,101,177)" stroke="rgb(67,101,177)" stroke-width="1" opacity="0.9411764705882353" d="M 146.5 233 L 148 234.5 L 148 244.5 L 147 246.5 L 151.5 250 L 152.5 240 L 153 249.5 L 155 251.5 L 155 261.5 L 154 263.5 Q 156.9 267.6 163 268.5 L 160.5 269 L 153 263.5 L 154 257.5 L 152 254.5 L 153 252.5 L 146 246.5 L 146 236.5 L 147 235.5 L 146.5 233 Z "></path><path fill="rgb(67,101,177)" stroke="rgb(67,101,177)" stroke-width="1" opacity="0.9411764705882353" d="M 143.5 236 L 145 237.5 L 145 247.5 L 144 249.5 L 146 249.5 L 141 253.5 L 144 250.5 L 143 249.5 L 143 239.5 L 144 238.5 L 143.5 236 Z "></path><path fill="rgb(67,101,177)" stroke="rgb(67,101,177)" stroke-width="1" opacity="0.9411764705882353" d="M 199.5 239 L 209.5 244 L 212.5 244 L 227 252.5 L 228 255.5 L 223.5 262 L 221.5 263 L 195 251 Q 193.4 248.9 194 243.5 L 195 243.5 Q 193.8 248.8 196.5 250 L 206.5 255 L 211.5 256 L 217.5 260 L 223.5 261 Q 227.3 259.8 226 253.5 L 212.5 246 L 198 240.5 L 199.5 239 Z "></path><path fill="rgb(67,101,177)" stroke="rgb(67,101,177)" stroke-width="1" opacity="0.9411764705882353" d="M 242 243 L 252.5 248 L 255.5 248 L 267.5 255 L 275.5 257 L 283.5 262 L 295.5 266 L 301.5 270 L 304.5 270 L 319.5 278 L 321.5 278 L 329.5 281 L 335.5 273 L 339 270.5 L 339 268.5 L 345.5 262 L 352 259 L 357 267 L 361 269.5 L 360 270.5 L 363 273.5 Q 362.3 275.8 364.5 275 L 367 277.5 L 367 279.5 L 372.5 288 Q 375.1 287.2 374 290.5 Q 376.8 291.6 376 295 Q 378.7 293.9 378 296.5 L 399 325.5 L 399 327.5 L 396 329 L 400 334.5 L 400 336.5 L 398.5 338 L 377.5 339 L 367.5 342 L 362.5 341 L 343.5 345 L 341.5 344 L 338.5 346 L 336.5 346 Q 329.1 347.4 326.5 344 Q 324.7 346.7 318.5 345 L 315 342.5 Q 316.3 338.8 312.5 340 L 309 337.5 L 308 330.5 L 310 328.5 L 310 322.5 L 312 320.5 L 312 314.5 Q 314.8 313.4 314 310 L 308.5 309 L 302.5 305 L 299.5 305 L 279.5 294 L 275.5 294 L 255.5 283 L 247.5 281 L 232 272.5 Q 234 268 236 271.5 L 234 272.5 L 236.5 273 Q 239.8 271.3 236 269.5 L 236.5 264 Q 235.6 269.4 238.5 271 L 245 273.5 Q 242.7 274.8 245.5 276 L 247 275.5 L 246.5 274 L 249 275.5 L 248.5 277 L 251.5 276 Q 254.5 277.5 251.5 279 L 250 279.5 L 253.5 281 L 254.5 278 L 269 284.5 Q 266.8 285.8 269.5 287 L 271 286.5 L 270.5 285 L 273 286.5 L 272.5 288 L 274.5 287 L 277 288.5 L 276.5 290 L 280.5 289 L 316 306.5 L 314 308.5 Q 317.5 310 315 311.5 Q 312.2 314.2 313 320.5 L 311 323.5 L 310 332.5 L 311 335 L 325 334 Q 326.4 330 319.5 332 L 317 329.5 L 316 322.5 L 317 322.5 L 318.5 327 L 320 323.5 L 319 319.5 L 320 319.5 L 321 324 L 326 324 L 326 321.5 L 327 321.5 L 326 330 Q 329.7 328.6 328 334.5 L 327 338.5 L 328 341 L 333.5 340 L 343.5 340 L 344.5 339 L 360.5 339 L 362.5 338 L 364.5 339 L 375.5 337 L 399 337 L 372 300 Q 369.3 301.1 370 298.5 L 355.5 281 L 353 279.5 L 357 278 Q 358 273.3 354.5 272 L 352 270.5 Q 354.5 269 351 267.5 L 348.5 264 L 345 263 Q 343 269.6 337 273.5 L 337.5 275 Q 336.2 272.8 335 275.5 Q 337.3 276.8 334.5 278 L 333 277.5 L 328.5 283 L 310.5 274 L 306.5 274 L 294.5 267 L 286.5 265 L 276.5 259 L 273.5 259 L 260.5 252 L 257.5 252 L 255.5 250 L 242 245 L 242 243 Z M 238 273 L 239 275 L 241 275 L 238 273 Z M 242 275 L 243 277 L 245 277 L 242 275 Z M 247 277 L 248 279 L 250 279 L 247 277 Z M 256 279 L 256 281 L 254 282 L 258 283 L 258 281 L 256 279 Z M 259 281 L 260 283 L 258 284 L 267 288 L 269 288 L 262 284 L 262 283 L 259 281 Z M 271 288 L 272 290 L 274 290 L 271 288 Z M 275 290 L 276 292 L 278 292 L 275 290 Z M 279 290 L 281 292 L 282 292 L 279 290 Z M 281 293 L 281 294 L 287 297 L 289 297 L 284 293 L 281 293 Z M 372 293 L 371 295 L 374 300 L 392 326 Q 393 329 398 328 Q 386 309 372 293 Z M 291 297 L 292 299 Q 293 296 291 297 Z M 295 299 L 296 301 L 298 301 L 295 299 Z M 299 299 L 298 302 L 300 303 L 302 303 L 300 302 L 302 301 L 299 299 Z M 303 301 L 303 304 L 306 303 L 303 301 Z M 305 304 L 306 306 L 310 308 Q 313 309 312 306 L 305 304 Z "></path><path fill="rgb(67,101,177)" stroke="rgb(67,101,177)" stroke-width="1" opacity="0.9411764705882353" d="M 242.5 249 L 252 253.5 L 250.5 253 L 245.5 252 L 242.5 249 Z "></path><path fill="rgb(67,101,177)" stroke="rgb(67,101,177)" stroke-width="1" opacity="0.9411764705882353" d="M 253.5 254 L 256 255.5 L 254.5 255 L 253.5 254 Z "></path><path fill="rgb(67,101,177)" stroke="rgb(67,101,177)" stroke-width="1" opacity="0.9411764705882353" d="M 240.5 255 L 241 257 L 253 262.5 L 251.5 262 Q 245.3 261.7 242.5 258 L 235.5 263 L 238.5 259 Q 241.8 260.1 241 257.5 L 240.5 255 Z "></path><path fill="rgb(67,101,177)" stroke="rgb(67,101,177)" stroke-width="1" opacity="0.9411764705882353" d="M 257.5 256 L 266 259.5 L 263.5 260 L 257.5 257 L 257.5 256 Z "></path><path fill="rgb(67,101,177)" stroke="rgb(67,101,177)" stroke-width="1" opacity="0.9411764705882353" d="M 267.5 260 L 270 261.5 L 268.5 262 L 267.5 260 Z "></path><path fill="rgb(67,101,177)" stroke="rgb(67,101,177)" stroke-width="1" opacity="0.9411764705882353" d="M 271.5 262 L 274 263.5 L 272.5 264 L 271.5 262 Z "></path><path fill="rgb(67,101,177)" stroke="rgb(67,101,177)" stroke-width="1" opacity="0.9411764705882353" d="M 254.5 263 L 257 264.5 L 255.5 264 L 254.5 263 Z "></path><path fill="rgb(67,101,177)" stroke="rgb(67,101,177)" stroke-width="1" opacity="0.9411764705882353" d="M 275.5 264 L 282 266.5 L 279.5 267 L 275.5 265 L 275.5 264 Z "></path><path fill="rgb(67,101,177)" stroke="rgb(67,101,177)" stroke-width="1" opacity="0.9411764705882353" d="M 258.5 265 L 267 268.5 L 264.5 269 L 258.5 266 L 258.5 265 Z "></path><path fill="rgb(67,101,177)" stroke="rgb(67,101,177)" stroke-width="1" opacity="0.9411764705882353" d="M 283.5 267 L 286 268.5 L 284.5 268 L 283.5 267 Z "></path><path fill="rgb(67,101,177)" stroke="rgb(67,101,177)" stroke-width="1" opacity="0.9411764705882353" d="M 268.5 269 L 271 270.5 L 269.5 271 L 268.5 269 Z "></path><path fill="rgb(67,101,177)" stroke="rgb(67,101,177)" stroke-width="1" opacity="0.9411764705882353" d="M 287.5 269 L 290 270.5 L 288.5 271 L 287.5 269 Z "></path><path fill="rgb(67,101,177)" stroke="rgb(67,101,177)" stroke-width="1" opacity="0.9411764705882353" d="M 272.5 271 L 275 272.5 L 273.5 273 L 272.5 271 Z "></path><path fill="rgb(67,101,177)" stroke="rgb(67,101,177)" stroke-width="1" opacity="0.9411764705882353" d="M 291.5 271 L 300 274.5 L 298.5 275 L 292.5 273 L 291.5 271 Z "></path><path fill="rgb(67,101,177)" stroke="rgb(67,101,177)" stroke-width="1" opacity="0.9411764705882353" d="M 350.5 271 L 351 272.5 L 349 273.5 L 350.5 271 Z "></path><path fill="rgb(67,101,177)" stroke="rgb(67,101,177)" stroke-width="1" opacity="0.9411764705882353" d="M 276.5 273 L 283 275.5 L 280.5 276 L 276.5 274 L 276.5 273 Z "></path><path fill="rgb(67,101,177)" stroke="rgb(67,101,177)" stroke-width="1" opacity="0.9411764705882353" d="M 301.5 275 L 304 276.5 L 302.5 277 L 301.5 275 Z "></path><path fill="rgb(67,101,177)" stroke="rgb(67,101,177)" stroke-width="1" opacity="0.9411764705882353" d="M 284.5 276 L 287 277.5 L 285.5 277 L 284.5 276 Z "></path><path fill="rgb(67,101,177)" stroke="rgb(67,101,177)" stroke-width="1" opacity="0.9411764705882353" d="M 305.5 277 L 316 281.5 L 312.5 282 L 306.5 279 L 305.5 277 Z "></path><path fill="rgb(67,101,177)" stroke="rgb(67,101,177)" stroke-width="1" opacity="0.9411764705882353" d="M 288.5 278 L 291 279.5 L 289.5 280 L 288.5 278 Z "></path><path fill="rgb(67,101,177)" stroke="rgb(67,101,177)" stroke-width="1" opacity="0.9411764705882353" d="M 292.5 280 L 301 283.5 L 299.5 284 L 293.5 282 L 292.5 280 Z "></path><path fill="rgb(67,101,177)" stroke="rgb(67,101,177)" stroke-width="1" opacity="0.9411764705882353" d="M 351.5 281 L 350.5 283 L 351.5 281 Z "></path><path fill="rgb(67,101,177)" stroke="rgb(67,101,177)" stroke-width="1" opacity="0.9411764705882353" d="M 317.5 282 L 320 283.5 L 318.5 284 L 317.5 282 Z "></path><path fill="rgb(67,101,177)" stroke="rgb(67,101,177)" stroke-width="1" opacity="0.9411764705882353" d="M 331.5 282 L 330.5 284 L 331.5 282 Z "></path><path fill="rgb(67,101,177)" stroke="rgb(67,101,177)" stroke-width="1" opacity="0.9411764705882353" d="M 302.5 284 L 305 285.5 L 303.5 286 L 302.5 284 Z "></path><path fill="rgb(67,101,177)" stroke="rgb(67,101,177)" stroke-width="1" opacity="0.9411764705882353" d="M 321.5 284 L 331 288.5 L 328.5 289 L 322.5 286 L 321.5 284 Z "></path><path fill="rgb(67,101,177)" stroke="rgb(67,101,177)" stroke-width="1" opacity="0.9411764705882353" d="M 306.5 286 L 317 290.5 L 313.5 291 L 307.5 288 L 306.5 286 Z "></path><path fill="rgb(67,101,177)" stroke="rgb(67,101,177)" stroke-width="1" opacity="0.9411764705882353" d="M 332.5 289 L 335 290.5 L 333.5 290 L 332.5 289 Z "></path><path fill="rgb(67,101,177)" stroke="rgb(67,101,177)" stroke-width="1" opacity="0.9411764705882353" d="M 318.5 291 L 321 292.5 L 319.5 293 L 318.5 291 Z "></path><path fill="rgb(67,101,177)" stroke="rgb(67,101,177)" stroke-width="1" opacity="0.9411764705882353" d="M 322.5 293 L 336 299.5 L 334.5 299 L 323.5 295 L 322.5 293 Z "></path><path fill="rgb(67,101,177)" stroke="rgb(67,101,177)" stroke-width="1" opacity="0.9411764705882353" d="M 195.5 296 L 194.5 298 L 195.5 296 Z "></path><path fill="rgb(67,101,177)" stroke="rgb(67,101,177)" stroke-width="1" opacity="0.9411764705882353" d="M 206.5 297 L 205.5 299 L 206.5 297 Z "></path><path fill="rgb(67,101,177)" stroke="rgb(67,101,177)" stroke-width="1" opacity="0.9411764705882353" d="M 318.5 307 L 319.5 309 L 318.5 307 Z "></path><path fill="rgb(67,101,177)" stroke="rgb(67,101,177)" stroke-width="1" opacity="0.9411764705882353" d="M 322.5 309 L 332 313.5 L 330.5 314 L 322.5 310 L 322.5 309 Z "></path></svg>