<svg width="400" height="400" version="1.1" xmlns="http://www.w3.org/2000/svg" desc="Created with imagetracer.js version 1.2.5"><path fill="rgb(115,81,247)" stroke="rgb(115,81,247)" stroke-width="1" opacity="0.9529411764705882" d="M 182.5 37 L 217.5 37 L 240.5 41 L 267.5 50 L 286.5 61 L 289 61 L 290.5 64 Q 306.8 73.2 319 86.5 L 332 102.5 L 337 111 Q 340 109.8 339 113.5 Q 358.1 140.6 362 182 L 364 182.5 L 364 218 L 362 218.5 L 362 225.5 L 358 244.5 L 353 259.5 L 344 279.5 L 339 286.5 L 339 289 Q 336.3 287.9 337 290.5 L 313.5 319 L 297.5 332 L 289 337 Q 290.3 340 286.5 339 Q 259.4 358.1 218 362 L 217.5 364 L 182 364 L 181.5 362 L 174.5 362 L 155.5 358 L 140.5 353 L 120.5 344 L 113.5 339 L 111 339 Q 112.1 336.3 109.5 337 L 81 313.5 L 68 297.5 L 63 289 Q 60 290.3 61 286.5 L 50 267.5 L 41 240.5 L 37 217.5 L 37 182.5 L 41 159.5 L 47 140.5 L 56 120.5 L 61 113.5 L 61 111 Q 63.7 112.1 63 109.5 L 86.5 81 L 111 62.5 Q 110.2 59.9 113.5 61 L 120.5 56 L 140.5 47 L 159.5 41 L 182.5 37 Z M 199 52 L 198 53 L 186 53 L 185 54 L 168 56 L 141 65 Q 117 76 99 92 Q 77 112 65 141 L 56 168 L 54 178 L 54 185 L 53 186 L 53 198 L 52 199 L 54 223 L 61 250 Q 72 279 91 301 Q 111 322 141 335 L 168 344 L 178 346 L 185 346 L 186 347 L 198 347 L 199 348 L 223 346 L 250 339 Q 280 328 302 308 Q 323 288 335 260 L 344 233 L 347 216 L 347 203 L 348 202 L 346 178 L 339 151 Q 328 121 309 100 Q 289 78 260 65 L 233 56 L 216 54 L 215 53 Q 204 55 199 52 Z "></path><path fill="rgb(115,81,247)" stroke="rgb(115,81,247)" stroke-width="1" opacity="0.9529411764705882" d="M 191.5 100 L 219.5 101 L 227.5 104 L 238.5 106 L 249 111 Q 247.9 113.7 250.5 113 L 264 121 L 266.5 125 L 275 132.5 L 277.5 136 Q 279.8 135.3 279 137.5 L 284 143.5 L 287 151 Q 289.7 149.9 289 152.5 L 294 161.5 L 296 172.5 L 298 175.5 L 299 191 L 301 191.5 L 301 209 L 299 209.5 L 299 219.5 L 296 227.5 L 294 238.5 L 289 249 Q 286.3 247.9 287 250.5 L 279 264 L 275 266.5 L 267.5 275 L 264 277.5 Q 264.8 279.8 262.5 279 L 256.5 284 L 249 287 Q 250.1 289.7 247.5 289 L 238.5 294 L 227.5 296 L 224.5 298 L 209 299 L 208.5 301 L 191 301 L 190.5 299 L 180.5 299 L 172.5 296 L 161.5 294 L 151 289 Q 152.1 286.3 149.5 287 L 136 279 L 133.5 275 L 125 267.5 L 122.5 264 Q 120.3 264.8 121 262.5 L 116 256.5 L 113 249 Q 110.3 250.1 111 247.5 L 106 238.5 L 104 227.5 L 101 219.5 L 100 191.5 L 101 190.5 L 102 175.5 L 104 172.5 L 106 161.5 L 111 151 Q 113.7 152.1 113 149.5 L 121 136 L 125 133.5 L 132.5 125 L 136 122.5 Q 135.3 120.3 137.5 121 L 143.5 116 L 151 113 Q 149.9 110.3 152.5 111 L 161.5 106 L 172.5 104 L 175.5 102 L 190.5 101 L 191.5 100 Z M 199 113 L 198 114 L 188 114 L 184 116 L 175 117 Q 158 123 145 133 L 143 136 L 138 138 L 136 142 Q 137 144 135 143 L 120 167 L 114 188 L 114 198 L 113 199 L 114 213 L 116 217 L 117 226 Q 123 243 133 256 L 136 257 L 138 262 L 142 264 Q 144 263 143 266 L 167 280 L 188 286 L 198 286 L 199 287 L 213 286 L 217 284 L 226 283 Q 243 277 256 267 L 257 264 L 262 262 L 264 259 Q 263 256 266 257 L 280 234 L 286 213 L 286 203 L 287 202 L 286 188 L 284 184 L 283 175 Q 277 158 267 145 L 264 143 L 262 138 L 259 136 Q 256 137 257 135 Q 244 123 226 117 L 217 116 L 213 114 L 199 113 Z "></path><path fill="rgb(0,0,0)" stroke="rgb(0,0,0)" stroke-width="1" opacity="0" d="M 0 0 L 400 0 L 400 400 L 0 400 L 0 0 Z M 183 37 L 160 41 L 141 47 L 121 56 L 114 61 Q 110 60 111 63 L 87 81 L 63 110 Q 64 112 61 111 L 61 114 L 56 121 L 47 141 L 41 160 L 37 183 L 37 218 L 41 241 L 50 268 L 61 287 Q 60 290 63 289 L 68 298 L 81 314 L 110 337 Q 112 336 111 339 L 114 339 L 121 344 L 141 353 L 156 358 L 175 362 L 182 362 L 182 364 L 218 364 L 218 362 Q 259 358 287 339 Q 290 340 289 337 L 298 332 L 314 319 L 337 291 Q 336 288 339 289 L 339 287 L 344 280 L 353 260 L 358 245 L 362 226 L 362 219 L 364 218 L 364 183 L 362 182 Q 358 141 339 114 Q 340 110 337 111 L 332 103 L 319 87 Q 307 73 291 64 L 289 61 L 287 61 L 268 50 L 241 41 L 218 37 L 183 37 Z "></path><path fill="rgb(0,0,0)" stroke="rgb(0,0,0)" stroke-width="1" opacity="0" d="M 198.5 52 Q 204.4 54.6 214.5 53 L 215.5 54 L 232.5 56 L 259.5 65 Q 288.7 77.8 309 99.5 Q 328.2 120.8 339 150.5 L 346 177.5 L 348 201.5 L 347 202.5 L 347 215.5 L 344 232.5 L 335 259.5 Q 322.6 288.1 301.5 308 Q 279.7 327.7 249.5 339 L 222.5 346 L 198.5 348 L 197.5 347 L 185.5 347 L 184.5 346 L 177.5 346 L 167.5 344 L 140.5 335 Q 111.3 322.2 91 300.5 Q 71.8 279.2 61 249.5 L 54 222.5 L 52 198.5 L 53 197.5 L 53 185.5 L 54 184.5 L 54 177.5 L 56 167.5 L 65 140.5 Q 77.5 112 98.5 92 Q 116.5 75.5 140.5 65 L 167.5 56 L 184.5 54 L 185.5 53 L 197.5 53 L 198.5 52 Z M 192 100 L 191 101 L 176 102 L 173 104 L 162 106 L 153 111 Q 150 110 151 113 L 144 116 L 138 121 Q 135 120 136 123 L 133 125 L 125 134 L 121 136 L 113 150 Q 114 152 111 151 L 106 162 L 104 173 L 102 176 L 101 191 L 100 192 L 101 220 L 104 228 L 106 239 L 111 248 Q 110 250 113 249 L 116 257 L 121 263 Q 120 265 123 264 L 125 268 L 134 275 L 136 279 L 150 287 Q 152 286 151 289 L 162 294 L 173 296 L 181 299 L 191 299 L 191 301 L 209 301 L 209 299 L 225 298 L 228 296 L 239 294 L 248 289 Q 250 290 249 287 L 257 284 L 263 279 Q 265 280 264 278 L 268 275 L 275 267 L 279 264 L 287 251 Q 286 248 289 249 L 294 239 L 296 228 L 299 220 L 299 210 L 301 209 L 301 192 L 299 191 L 298 176 L 296 173 L 294 162 L 289 153 Q 290 150 287 151 L 284 144 L 279 138 Q 280 135 278 136 L 275 133 L 267 125 L 264 121 L 251 113 Q 248 114 249 111 L 239 106 L 228 104 L 220 101 L 192 100 Z "></path><path fill="rgb(0,0,0)" stroke="rgb(0,0,0)" stroke-width="1" opacity="0" d="M 198.5 113 L 212.5 114 L 216.5 116 L 225.5 117 Q 243.7 123.3 257 134.5 Q 256.3 136.8 258.5 136 L 262 138 L 264 143 L 267 144.5 Q 277 157.5 283 174.5 L 284 183.5 L 286 187.5 L 287 201.5 L 286 202.5 L 286 212.5 L 280 233.5 L 265.5 257 Q 263.3 256.3 264 258.5 L 262 262 L 257 264 L 255.5 267 Q 242.5 277 225.5 283 L 216.5 284 L 212.5 286 L 198.5 287 L 197.5 286 L 187.5 286 L 166.5 280 L 143 265.5 Q 143.8 263.3 141.5 264 L 138 262 L 136 257 L 133 255.5 Q 123 242.5 117 225.5 L 116 216.5 L 114 212.5 L 113 198.5 L 114 197.5 L 114 187.5 L 120 166.5 L 134.5 143 Q 136.8 143.8 136 141.5 L 138 138 L 143 136 L 144.5 133 Q 157.5 123 174.5 117 L 183.5 116 L 187.5 114 L 197.5 114 L 198.5 113 Z "></path></svg>