<svg width="400" height="400" version="1.1" xmlns="http://www.w3.org/2000/svg" desc="Created with imagetracer.js version 1.2.5"><path fill="rgb(255,0,42)" stroke="rgb(255,0,42)" stroke-width="1" opacity="0.9098039215686274" d="M 88.5 29 L 103.5 29 L 112.5 32 L 125 41.5 Q 131.6 48.4 135 58.5 Q 137.3 65.2 136 75.5 Q 133 88.5 124.5 96 L 110.5 104 Q 103.8 106.3 93.5 105 L 82.5 101 L 67 87.5 L 60 72.5 L 60 58.5 Q 63 44.5 72.5 37 Q 78.4 30.9 88.5 29 Z "></path><path fill="rgb(255,0,42)" stroke="rgb(255,0,42)" stroke-width="1" opacity="0.9098039215686274" d="M 190.5 245 L 202.5 245 L 210.5 247 L 224 256.5 Q 234.5 266 233 287.5 Q 230.2 302.7 220.5 311 Q 211.2 321.7 189.5 320 Q 175.5 317 168 307.5 L 161 294.5 Q 158.6 287.4 160 276.5 Q 163.4 262.4 172.5 254 Q 179.5 247.5 190.5 245 Z "></path><path fill="rgb(0,0,0)" stroke="rgb(0,0,0)" stroke-width="1" opacity="0" d="M 0 0 L 400 0 L 400 361.5 L 399 361.5 L 376 312.5 L 357 278.5 L 328 234.5 L 302 202 L 299 200.5 L 286.5 187 L 284 185.5 L 282.5 183 L 263.5 168 L 244.5 157 L 213.5 146 L 191.5 142 L 189.5 142 L 172.5 142 L 171.5 143 L 169.5 142 L 167.5 142 L 156.5 144 L 154.5 144 L 150.5 144 L 141.5 147 L 139.5 147 L 114.5 150 L 107.5 152 L 92.5 152 L 81.5 154 L 79.5 153 L 77.5 153 L 72.5 154 L 56.5 150 L 29.5 138 Q 14.9 131.1 5 119.5 L 0 112.5 L 0 0 Z M 89 29 Q 78 31 73 37 Q 63 45 60 59 L 60 73 L 67 88 L 83 101 L 94 105 Q 104 106 111 104 L 125 96 Q 133 89 136 76 Q 137 65 135 59 Q 132 48 125 42 L 113 32 L 104 29 L 89 29 Z M 191 245 Q 179 247 173 254 Q 163 262 160 277 Q 159 287 161 295 L 168 308 Q 176 317 190 320 Q 211 322 221 311 Q 230 303 233 288 Q 234 266 224 257 L 211 247 L 203 245 L 191 245 Z "></path><path fill="rgb(0,0,0)" stroke="rgb(0,0,0)" stroke-width="1" opacity="0" d="M 0.5 182 Q 21.8 195.2 48.5 203 L 69.5 207 L 86.5 207 L 87.5 206 L 100.5 206 L 101.5 205 L 103.5 206 L 132.5 201 L 146.5 200 L 167.5 195 L 168.5 196 L 176.5 196 L 180.5 196 L 182.5 195 L 183.5 196 L 193.5 196 L 219.5 204 L 227.5 208 L 247 222 L 248.5 225 L 251.5 227 L 261 236.5 L 279 260.5 L 287 268.5 L 302 290.5 L 332 342.5 L 335 352.5 L 360 399.5 L 0 400 L 0.5 182 Z "></path><path fill="rgb(0,161,255)" stroke="rgb(0,161,255)" stroke-width="1" opacity="0.9882352941176471" d="M 0.5 117 L 10.5 128 L 24.5 138 L 52.5 151 L 71.5 156 L 87.5 156 L 88.5 155 L 102.5 155 L 103.5 154 L 111.5 154 L 118.5 152 L 132.5 151 L 162.5 145 L 192.5 145 L 193.5 146 L 200.5 146 L 210.5 148 L 227.5 153 L 250.5 163 Q 279.7 180.3 301 205.5 L 329 240.5 L 360 288.5 L 400 367.5 L 400 371.5 L 399 371.5 L 398 368 L 396 368 Q 397.5 364.3 394.5 365 Q 396.2 362.7 392 360.5 L 389.5 355 L 388 355.5 L 388 353.5 L 387.5 350 L 386 350.5 L 387 349.5 L 384 346.5 L 385 343.5 L 383.5 342 L 382 342.5 L 382 340.5 L 381 338.5 L 381.5 337 L 379 335.5 L 379 333.5 L 376.5 328 Q 373.5 328.9 375 324.5 L 372 323.5 Q 375.8 321.8 372.5 320 L 371 320.5 L 371 316.5 L 366.5 307 L 364.5 308 L 363.5 306 L 365.5 307 L 365 305.5 L 362 298 Q 359 299.3 360 295.5 L 358 295.5 L 358 293.5 Q 358.7 290.9 356 292 L 356 289.5 L 353 286.5 L 354 285.5 L 353.5 284 L 352 284.5 Q 352.8 280.8 350.5 280 L 349 279.5 Q 351.5 278 348 276.5 L 345 272.5 L 345.5 271 Q 343.3 271.8 344 269.5 L 343 267 Q 340.3 268.1 341 265.5 Q 343.3 264.3 340.5 263 L 337.5 261 L 337.5 260 L 339 259.5 L 336.5 258 L 335 258.5 L 336 256.5 L 329.5 247 Q 327.3 247.8 328 245.5 L 325.5 242 Q 323.3 242.8 324 240.5 L 323 238 L 320 236.5 L 320.5 235 L 318 233.5 L 318 231.5 L 317.5 230 L 316.5 232 L 315.5 228 L 314 228.5 L 314 226 Q 310.2 227.5 311 224.5 L 306 218.5 L 306 216 L 303 214.5 L 302 212.5 L 302.5 211 L 300.5 210 Q 299.3 212.3 298 209.5 L 298.5 208 L 294 204.5 L 292 200 Q 289.3 201.1 290 198.5 L 288 198.5 L 286 195.5 L 282 193 L 282 191 Q 279.3 192.1 280 189.5 L 278 189.5 L 279 187 L 276.5 188 L 275.5 185 L 273.5 188 L 274 186.5 L 275 184.5 L 273.5 184 L 272 184.5 L 273 182.5 L 271 182.5 Q 271.8 180.3 269.5 181 L 266 179 Q 267.1 176.3 264.5 177 L 261.5 176 L 260 176 Q 261.5 172.3 258.5 173 L 257 173.5 L 256.5 171 L 255.5 173 L 255 171 Q 252.3 172.1 253 169.5 L 247.5 167 L 246 167.5 L 246.5 166 L 243 165 Q 244.1 162.3 241.5 163 L 236.5 160 Q 235 162.5 233.5 159 L 229.5 158 L 227.5 159 L 226.5 156 Q 224.3 155.3 225 157.5 L 224 157.5 Q 224.8 155.3 222.5 156 L 221 156.5 Q 223.3 155.3 220.5 154 L 217.5 153 L 213.5 154 L 205.5 150 L 204.5 152 L 199.5 150 L 195.5 151 L 193.5 150 L 192 150.5 L 192.5 149 Q 185 150 182 148 L 183 150.5 L 181 149.5 L 180.5 148 L 178.5 148 L 174.5 150 L 171.5 149 L 167.5 149 L 164.5 150 L 162 149 L 161.5 151 L 157.5 150 L 155.5 150 L 153.5 151 L 151.5 150 L 149.5 151 L 148.5 150 L 146.5 152 L 142.5 152 L 135.5 153 L 134 152.5 L 133.5 155 L 129.5 154 L 126.5 155 L 124.5 154 L 122.5 155 Q 121 152.5 119.5 156 L 116.5 155 L 112.5 157 L 110.5 157 Q 105 155.5 103.5 158 L 101.5 158 L 99.5 157 L 96.5 158 L 93.5 159 L 91.5 158 L 84 159.5 L 83.5 161 L 81.5 158 L 79.5 159 L 76.5 158 L 75 158.5 L 74.5 157 L 70.5 158 L 68.5 157 L 66.5 157 L 61.5 156 L 59.5 156 Q 56.2 157.1 57 154.5 L 55 154.5 L 54.5 153 L 51 154 Q 52.1 151.3 49.5 152 L 48 152.5 L 47.5 151 Q 46 153.5 44.5 150 L 37 148 L 36.5 146 L 34 147.5 Q 36.3 146.2 33.5 145 L 30 145 L 30 143 L 27 143 Q 28.1 140.3 25.5 141 L 23 140.5 L 22.5 139 L 21 139.5 L 21 138 Q 17.2 139.5 18 136.5 L 14 133.5 L 13.5 132 L 11.5 132 L 5 126.5 L 3 123.5 L 1 123.5 Q 3.5 122 0 120.5 L 0.5 117 Z "></path><path fill="rgb(0,161,255)" stroke="rgb(0,161,255)" stroke-width="1" opacity="0.9882352941176471" d="M 0.5 173 L 1 177 L 4.5 178 L 6.5 178 L 15 182.5 Q 14.1 185.5 18.5 184 L 20.5 185 L 22 184.5 L 23.5 187 L 26.5 189 L 28.5 189 L 31 188.5 L 30.5 187 L 33 191 L 37.5 192 Q 38.8 189.7 40 192.5 L 39.5 194 L 41.5 193 L 44.5 196 L 45.5 195 L 47.5 194 L 48 196 L 51.5 195 L 51.5 197 L 53.5 196 L 56 197.5 L 56.5 196 L 57 198 L 59.5 197 L 60.5 198 L 63 196.5 L 64.5 200 L 65.5 198 L 70 200 L 70.5 198 L 72.5 201 L 73.5 199 L 82 201 L 82.5 198 L 83.5 201 L 87.5 199 L 88.5 201 L 89.5 199 L 92 200.5 L 92.5 199 L 97.5 200 L 100.5 199 L 102.5 200 L 103 198.5 L 102.5 197 L 107.5 200 L 111.5 198 L 113.5 198 L 119.5 197 L 121.5 198 Q 123 195.5 128.5 197 L 133 195 L 133.5 197 Q 135.8 192.7 138 194.5 L 138.5 193 L 142.5 193 L 147.5 194 Q 149 190.5 150.5 193 L 159.5 191 L 161.5 192 L 168.5 190 L 170.5 191 L 174.5 189 L 176.5 191 Q 178 187.5 179.5 190 L 183.5 189 L 183.5 191 L 186.5 190 L 191.5 192 L 195.5 192 L 198.5 193 L 200.5 193 L 210.5 196 L 212 195.5 Q 211.2 198.1 214.5 197 L 216 196.5 L 216.5 198 Q 218 195.5 219.5 199 L 221.5 198 L 221 199.5 L 221.5 201 L 222.5 200 L 228.5 204 L 229.5 203 L 231 203.5 L 230.5 205 L 233.5 205 Q 235.8 209.7 241.5 211 L 243 210.5 L 242 211.5 L 245.5 215 L 249 217.5 L 249.5 219 L 251 218.5 L 250.5 220 L 253 220.5 L 252.5 222 L 256 223.5 L 258.5 227 Q 260.8 226.3 260 228.5 L 261 231 L 263 231 L 263 233 L 265 233 L 265 235 L 267 235 Q 265.9 237.7 268.5 237 Q 272.2 239 270.5 241 L 273 242.5 L 275.5 247 Q 276.8 244.8 278 247.5 L 279 252 Q 282.8 251 284 253.5 Q 281.5 255 285 256.5 L 287 263 Q 291.1 261.3 290 265.5 L 293 267 L 294 272 L 297 273.5 Q 296.3 275.8 298.5 275 L 300 278.5 Q 299.3 280.8 301.5 280 L 304 282.5 L 304 284.5 Q 303.5 288.5 306.5 289 Q 308.8 288.3 308 290.5 L 310 290.5 L 309 293 L 312 293.5 L 310 294.5 L 314 301 Q 317 299.8 316 303.5 L 319 304.5 L 318 305.5 L 320 309.5 L 323.5 316 L 325 315.5 L 324 317.5 L 325.5 321 L 327 320.5 L 326 321.5 L 329 324.5 L 330.5 329 L 332 328.5 L 331 333 L 334 334.5 L 334.5 338 L 336 337.5 Q 333.5 339 337 340.5 L 340.5 349 L 342 349.5 L 341 351.5 L 344 353.5 L 343 357 L 345 356.5 L 344.5 355 L 346 356.5 Q 342.5 358 345 359.5 L 346 364 L 348.5 363 L 348 364.5 L 349.5 369 Q 350.8 366.8 352 369.5 Q 351.3 373.8 354 374.5 L 354 376.5 L 354.5 379 L 356 378.5 L 356 380.5 L 360 386.5 L 360 388.5 Q 359.3 390.8 361.5 390 L 366.5 396 Q 368.8 395.3 368 397.5 L 369 400 Q 363.6 401.5 362 398.5 Q 344.3 369.2 331 335.5 L 306 292.5 Q 280.6 251.4 246.5 219 Q 232.9 206.1 213.5 199 L 189.5 193 L 166.5 193 L 148.5 197 L 115.5 201 L 114.5 202 L 107.5 202 L 106.5 203 L 67.5 204 L 66.5 203 L 55.5 202 L 35.5 196 L 10.5 185 L 0 178.5 L 0.5 173 Z "></path><path fill="rgb(0,161,255)" stroke="rgb(0,161,255)" stroke-width="1" opacity="0.9882352941176471" d="M 399.5 391 L 398.5 393 L 399.5 391 Z "></path><path fill="rgb(0,161,255)" stroke="rgb(0,161,255)" stroke-width="1" opacity="0.9882352941176471" d="M 397.5 397 L 398 398.5 Q 396.5 401.5 395 398.5 L 397 398.5 L 397.5 397 Z "></path><path fill="rgb(0,161,255)" stroke="rgb(0,161,255)" stroke-width="1" opacity="0.9882352941176471" d="M 399.5 397 L 400 399.5 L 399 399.5 L 399.5 397 Z "></path><path fill="rgb(0,161,255)" stroke="rgb(0,161,255)" stroke-width="1" opacity="1" d="M 0.5 121 L 3 125 Q 5.7 123.9 5 126.5 L 12.5 133 L 14 132.5 L 15.5 135 L 18 136.5 L 18 138 Q 21.8 136.5 21 139.5 L 23 139.5 L 23.5 141 L 25.5 141 Q 28.1 140.3 27 143 L 30 143 L 30 145 L 33.5 145 Q 35.3 148.1 37 146.5 Q 36.2 149.1 39.5 148 L 46.5 152 L 48 151.5 L 48.5 153 L 51 152 Q 49.8 155 53.5 154 L 55 153.5 L 55.5 155 L 57 154.5 Q 56.2 157.1 59.5 156 L 61.5 156 L 67.5 158 L 69.5 157 L 73.5 158 L 75 157.5 L 75.5 159 L 78.5 158 L 80.5 159 Q 81.7 156.8 83 159.5 L 83.5 161 L 84.5 159 L 85.5 160 L 87.5 158 L 91.5 158 L 93.5 159 L 97.5 157 L 100.5 158 L 102.5 157 L 104.5 157 Q 110 158.5 111.5 156 L 113.5 156 L 116.5 155 L 119.5 156 Q 121 152.5 122.5 155 L 124.5 154 L 126.5 155 L 129.5 154 L 133.5 155 L 134.5 152 L 137.5 153 L 143.5 151 L 149.5 151 L 153.5 149 L 155.5 150 L 157.5 150 L 161.5 151 L 162 149 L 164.5 150 L 167.5 149 L 171.5 149 L 175.5 150 L 175.5 148 L 177.5 148 L 179.5 149 L 181 148.5 L 181.5 150 L 182 148 Q 185 150 192.5 149 Q 193.9 151.6 198.5 151 L 200.5 151 L 204.5 152 L 205.5 150 L 213.5 154 L 216.5 154 L 218.5 154 L 224 156 L 224.5 158 L 225 156 L 228 157.5 L 227.5 159 L 230.5 158 L 235.5 161 L 237.5 161 L 243 163 Q 241.9 165.7 244.5 165 L 253 169.5 L 255 172.5 L 256 172.5 L 256.5 171 L 257.5 174 L 260 173 Q 258.5 176.8 261.5 176 Q 263 173.5 264.5 177 L 267.5 179 L 271 181 L 271.5 183 L 273 182.5 Q 272.3 184.8 274.5 184 L 279 187 L 280 191 L 282 191 Q 280.9 193.7 283.5 193 L 286 197 Q 288.7 195.9 288 198.5 L 290 198.5 L 292 201.5 L 297.5 208 L 303 211.5 L 303 213.5 L 304.5 216 Q 307.1 215.2 306 218.5 Q 310.4 221 311 226 Q 315.1 224.3 314 228.5 L 316 228.5 L 316.5 232 L 317.5 230 L 319 232.5 Q 316.8 233.7 319.5 235 L 321 235.5 Q 318.8 236.7 321.5 238 Q 323.8 237.3 323 239.5 L 324 242 L 327 243.5 L 328 247 L 331 248.5 L 337.5 259 L 339 259.5 L 337 260.5 L 339 261 Q 337.9 263.7 340.5 263 Q 343.3 264.3 341 265.5 L 343 268.5 L 344 271 L 346 271.5 L 345 272.5 L 348 275.5 L 350 278.5 L 349.5 280 L 352 281.5 L 352.5 285 L 354 284.5 L 355 286.5 Q 352.5 288 356 289.5 L 356 292 Q 358.7 290.9 358 293.5 Q 360.8 294.6 360 298 Q 363 296.8 362 300.5 L 372 317.5 L 371 318.5 L 375 324.5 Q 373.5 328.9 376.5 328 L 380 334.5 Q 377.8 335.8 380.5 337 L 382 337.5 L 382 339.5 L 385 343.5 L 384 346.5 L 388 350.5 Q 389.2 359.3 395 363.5 L 394.5 365 L 396 365 L 396 368 Q 398.7 366.9 398 369.5 L 400 372.5 L 400 390.5 L 400 392.5 L 399 400 L 396.5 399 L 395.5 400 L 369 400 L 368 396 L 364 393.5 L 361.5 390 Q 359.3 390.8 360 388.5 L 358 384.5 L 353 375.5 Q 355.5 374 352 372.5 Q 352.8 368.8 350.5 368 L 349 368.5 L 348 364 Q 345 365.3 346 361.5 L 344 358.5 L 344.5 357 Q 341.9 357.8 343 354.5 L 343.5 353 L 341 351.5 L 342 349.5 L 339 347.5 L 339 344.5 L 335.5 339 L 334 339.5 L 334 337.5 Q 334.8 333.8 332.5 333 Q 329.5 333.9 331 329.5 L 318 307.5 L 319 306.5 L 316 303.5 L 316 301 Q 313.3 302.1 314 299.5 L 310 294.5 L 312 293.5 L 309 293 L 308 289 L 304 286.5 L 302 282.5 Q 304.3 281.3 301.5 280 Q 299.3 280.8 300 278.5 L 298.5 275 Q 296.3 275.8 297 273.5 L 294 272 L 293 267 L 290 265.5 L 290 263 Q 286.3 264.5 287 261.5 L 282 253.5 L 282.5 252 Q 277.7 253.7 279 249.5 L 277.5 247 Q 276.3 249.2 275 246.5 L 271.5 241 L 270 240.5 Q 272.8 238.8 268.5 237 L 267 237 L 267 235 L 265 235 L 265 233 L 263 233 L 263 231 Q 260.3 232.1 261 229.5 L 260 227 L 256 224.5 L 254.5 222 L 252 221.5 L 252.5 220 L 249 218.5 L 246.5 215 L 233.5 205 L 230 204.5 L 230.5 203 L 228.5 204 L 225.5 201 L 224.5 202 Q 222.8 198.9 221 200.5 Q 221.8 198.3 219.5 199 Q 217.8 195.9 216 197.5 L 215.5 196 L 212 197 L 211.5 195 L 209.5 195 L 205.5 195 L 199.5 192 L 197.5 192 L 194.5 191 L 190.5 191 L 186.5 190 L 183.5 191 L 178.5 189 L 176.5 191 L 173.5 190 L 169.5 191 L 167.5 191 L 160.5 192 L 158.5 192 L 150.5 193 Q 149 190.5 147.5 194 L 142.5 193 L 140.5 195 L 138 193.5 L 136.5 196 L 135.5 195 L 133 196.5 Q 133.8 194.3 131.5 195 L 128.5 197 L 120.5 198 L 118.5 197 L 112.5 199 L 109.5 198 Q 107.5 202 105.5 198 Q 102.2 196.9 103 199.5 L 101.5 199 L 99.5 200 L 97.5 200 L 92.5 199 L 91.5 201 L 89 199.5 L 88.5 201 L 87.5 199 L 83.5 201 L 82.5 198 L 82 201 L 73.5 199 L 72.5 201 L 70.5 198 L 70 200 L 65.5 198 L 64.5 200 L 63.5 198 L 62 198.5 L 63 196.5 L 59.5 199 L 58.5 198 Q 56.3 198.8 57 196.5 L 56 196.5 L 55.5 198 Q 54 194.5 52.5 197 L 48 196 L 47.5 194 L 44.5 196 L 41.5 193 L 40.5 194 L 33 191 L 32.5 189 L 31.5 191 L 31 189 L 27.5 188 Q 26 190.5 24.5 187 L 22 185.5 L 21.5 184 L 19.5 185 L 15 184 L 13.5 181 L 10.5 181 L 5.5 177 L 3.5 177 Q -0.7 178.3 1 173.5 L 0 172.5 L 0.5 121 Z "></path><path fill="rgb(0,160,255)" stroke="rgb(0,160,255)" stroke-width="1" opacity="0.7843137254901961" d="M 0.5 116 L 8.5 125 Q 32.8 145.7 69 154.5 L 65.5 155 Q 42.9 148.6 24.5 138 Q 10.6 130.4 1 118.5 L 0.5 116 Z "></path><path fill="rgb(0,160,255)" stroke="rgb(0,160,255)" stroke-width="1" opacity="0.7843137254901961" d="M 161.5 144 L 193.5 144 Q 195.3 146.8 201.5 145 L 221.5 150 L 230 153.5 L 228.5 154 L 214.5 149 L 200.5 146 Q 194.3 147.8 192.5 145 L 162.5 145 L 145.5 148 L 145.5 147 L 161.5 144 Z "></path><path fill="rgb(0,160,255)" stroke="rgb(0,160,255)" stroke-width="1" opacity="0.7843137254901961" d="M 139.5 148 L 144 148.5 L 132.5 151 L 119.5 152 L 119.5 151 L 132.5 150 L 139.5 148 Z "></path><path fill="rgb(0,160,255)" stroke="rgb(0,160,255)" stroke-width="1" opacity="0.7843137254901961" d="M 111.5 152 L 118 152.5 L 104.5 154 L 104.5 153 Q 110 154.5 111.5 152 Z "></path><path fill="rgb(0,160,255)" stroke="rgb(0,160,255)" stroke-width="1" opacity="0.7843137254901961" d="M 88.5 154 L 103 154.5 L 88.5 155 L 87.5 156 L 71.5 156 L 71.5 155 L 87.5 155 L 88.5 154 Z "></path><path fill="rgb(0,160,255)" stroke="rgb(0,160,255)" stroke-width="1" opacity="0.7843137254901961" d="M 231.5 154 L 238.5 156 L 263.5 170 Q 282.5 183.5 298 200.5 L 326 234.5 L 347 265.5 L 376 315.5 L 386 338.5 L 384 337.5 Q 345.1 247.4 279.5 184 L 255.5 166 L 231.5 155 L 231.5 154 Z "></path><path fill="rgb(0,160,255)" stroke="rgb(0,160,255)" stroke-width="1" opacity="0.7843137254901961" d="M 0.5 179 Q 21.6 191.9 47.5 200 L 67.5 204 L 90 204.5 L 65.5 205 L 54.5 203 L 32.5 196 L 0 181 L 0.5 179 Z "></path><path fill="rgb(0,160,255)" stroke="rgb(0,160,255)" stroke-width="1" opacity="0.7843137254901961" d="M 166.5 193 L 190 193.5 L 166.5 194 L 166.5 193 Z "></path><path fill="rgb(0,160,255)" stroke="rgb(0,160,255)" stroke-width="1" opacity="0.7843137254901961" d="M 159.5 194 L 164 194.5 L 143.5 199 L 136.5 199 L 114.5 203 L 91.5 204 L 91.5 203 L 114.5 202 L 115.5 201 L 148.5 197 L 159.5 194 Z "></path><path fill="rgb(0,160,255)" stroke="rgb(0,160,255)" stroke-width="1" opacity="0.7843137254901961" d="M 191.5 194 L 196 194.5 L 191.5 195 L 191.5 194 Z "></path><path fill="rgb(0,160,255)" stroke="rgb(0,160,255)" stroke-width="1" opacity="0.7843137254901961" d="M 197.5 195 L 200 195.5 L 197.5 196 L 197.5 195 Z "></path><path fill="rgb(0,160,255)" stroke="rgb(0,160,255)" stroke-width="1" opacity="0.7843137254901961" d="M 201.5 196 L 207 197.5 L 204.5 198 L 201.5 197 L 201.5 196 Z "></path><path fill="rgb(0,160,255)" stroke="rgb(0,160,255)" stroke-width="1" opacity="0.7843137254901961" d="M 211.5 199 L 218.5 201 L 236.5 211 L 265 237.5 Q 292.4 268.6 314 305.5 L 331 335.5 Q 344.5 370 363 399.5 L 360 397.5 Q 343.5 369.5 331 337.5 L 303 289.5 L 288 267.5 L 272 247.5 L 247.5 221 L 230.5 208 L 211.5 200 L 211.5 199 Z "></path><path fill="rgb(0,160,255)" stroke="rgb(0,160,255)" stroke-width="1" opacity="0.7843137254901961" d="M 386.5 340 L 400 366.5 L 399 366.5 L 386 341.5 L 386.5 340 Z "></path><path fill="rgb(0,170,255)" stroke="rgb(0,170,255)" stroke-width="1" opacity="0.1450980392156863" d="M 0.5 113 L 7.5 122 Q 33 145 72.5 154 L 77.5 153 L 79.5 153 L 81.5 154 L 92.5 152 L 107.5 152 L 114.5 150 L 134.5 148 L 140.5 146 L 142.5 146 L 146.5 146 L 155.5 143 L 157.5 143 L 167.5 142 L 169.5 142 L 171.5 143 L 172.5 142 L 189.5 142 L 192.5 143 L 199.5 143 L 213.5 146 L 244.5 157 Q 266.9 168.1 284 184.5 L 285.5 187 L 299 199.5 L 300.5 202 Q 302.8 201.3 302 203.5 L 328 234.5 L 357 278.5 L 376 312.5 L 400 364.5 L 399 364.5 Q 385.8 341.7 376 315.5 L 347 265.5 L 326 234.5 L 298 200.5 L 286.5 189 Q 263 164.5 227.5 152 L 206.5 146 L 194.5 145 L 193.5 144 L 161.5 144 L 144.5 148 L 104.5 153 L 103.5 154 L 69.5 155 L 52.5 150 L 24.5 137 Q 12.2 129.8 3 119.5 L 0 115.5 L 0.5 113 Z "></path><path fill="rgb(0,170,255)" stroke="rgb(0,170,255)" stroke-width="1" opacity="0.1450980392156863" d="M 0.5 181 L 27.5 194 L 54.5 203 L 65.5 205 L 89.5 205 L 90.5 204 L 106.5 204 L 107.5 203 L 135.5 200 L 136.5 199 L 143.5 199 L 164.5 194 L 190.5 194 Q 213.5 198 230.5 208 Q 248.8 220.2 263 236.5 L 288 267.5 L 316 310.5 L 334 343.5 L 336 350.5 L 348 375.5 L 362 399.5 L 360.5 400 L 335 352.5 L 332 342.5 L 302 290.5 L 287 268.5 L 279 260.5 L 261 236.5 L 251.5 227 L 248.5 225 L 247 222 L 227.5 208 L 219.5 204 L 193.5 196 L 183.5 196 L 182.5 195 L 180.5 196 L 176.5 196 L 168.5 196 L 167.5 195 L 146.5 200 L 132.5 201 L 131.5 202 L 102.5 206 L 100.5 206 L 69.5 207 L 48.5 203 L 30.5 197 L 10.5 188 L 1.5 183 L 0.5 181 Z "></path></svg>