<svg width="400" height="400" version="1.1" xmlns="http://www.w3.org/2000/svg" desc="Created with imagetracer.js version 1.2.5"><path fill="rgb(154,154,154)" stroke="rgb(154,154,154)" stroke-width="1" opacity="1" d="M 185 0 L 218.5 0 L 219 0.5 L 219 190 L 399.5 190 L 400 190.5 L 400 224 L 219 224 L 219 399.5 L 218.5 400 L 185 400 L 185 224 L 0.5 224 L 0 223.5 L 0 190 L 185 190 L 185 0 Z "></path><path fill="rgb(64,238,242)" stroke="rgb(64,238,242)" stroke-width="1" opacity="1" d="M 0 0 L 185 0 L 185 190 L 0 190 L 0 0 Z "></path><path fill="rgb(64,238,242)" stroke="rgb(64,238,242)" stroke-width="1" opacity="1" d="M 219 0 L 400 0 L 400 190 L 219 190 L 219 0 Z "></path><path fill="rgb(64,238,242)" stroke="rgb(64,238,242)" stroke-width="1" opacity="1" d="M 0 224 L 185 224 L 185 400 L 0 400 L 0 224 Z "></path><path fill="rgb(64,238,242)" stroke="rgb(64,238,242)" stroke-width="1" opacity="1" d="M 219 224 L 400 224 L 400 400 L 219 400 L 219 224 Z "></path></svg>