<svg width="400" height="400" version="1.1" xmlns="http://www.w3.org/2000/svg" desc="Created with imagetracer.js version 1.2.5"><path fill="rgb(2,0,1)" stroke="rgb(2,0,1)" stroke-width="1" opacity="0.17647058823529413" d="M 193.5 13 Q 199.2 12.3 201.5 15 L 216.5 15 L 219.5 16 L 235 28.5 L 236.5 31 L 242.5 32 L 247 35.5 L 248 40.5 L 251.5 44 L 254.5 44 L 261 48.5 L 262 51.5 L 271.5 62 L 280 66.5 L 281 70.5 Q 279.3 73.8 277.5 70 Q 269.1 66.4 264 59.5 L 262.5 57 Q 260.3 57.8 261 55.5 L 255.5 49 L 246 44.5 L 243 37 L 235.5 35 L 220.5 21 L 212.5 18 L 207.5 18 L 206.5 19 L 198.5 19 L 195.5 18 Q 190.5 24.5 183 27 L 182 33.5 L 176 44.5 L 175 59.5 L 179 69.5 L 185.5 77 L 192.5 79 L 218 98.5 L 223.5 106 L 245.5 121 L 251 126.5 L 253 130.5 L 251 130.5 L 250.5 132 L 248.5 129 L 247 129.5 L 245 125 L 232.5 118 L 225.5 111 Q 219.8 109.8 217 105.5 L 216 102.5 L 208.5 95 Q 198.1 89.9 190.5 82 L 182.5 80 L 177 74.5 L 172 63.5 L 172 44.5 L 178 30.5 L 177 27.5 L 180.5 22 L 185.5 21 L 188 18.5 L 191.5 14 L 193.5 13 Z "></path><path fill="rgb(2,0,1)" stroke="rgb(2,0,1)" stroke-width="1" opacity="0.17647058823529413" d="M 312.5 97 L 323 106.5 L 326 112 Q 332.3 113.5 336 118.5 L 339.5 125 L 346 130.5 L 347 133.5 L 360 146.5 L 366.5 158 L 369 159.5 L 377 168.5 L 379 183.5 L 385 191.5 L 387 198.5 L 385 206.5 Q 388.5 210.5 387 219.5 L 385 223.5 L 381 243.5 L 375.5 250 L 373 251.5 L 367.5 259 L 365 260.5 L 360.5 267 L 347.5 270 L 337.5 277 L 330.5 277 L 328.5 276 L 320.5 280 L 314.5 280 L 313.5 279 L 302.5 279 L 301.5 280 L 290.5 280 L 284.5 278 L 261.5 278 L 253.5 275 L 247.5 275 L 238.5 272 Q 231.7 272.9 229 271 L 229.5 268 L 238.5 268 L 247.5 271 L 258.5 272 L 262.5 274 L 284.5 274 Q 290.3 277.3 300.5 276 L 301.5 275 L 311.5 275 Q 312.8 277.3 317.5 276 L 324.5 273 L 336.5 272 Q 343.5 266 354.5 264 Q 364 260 369 251.5 L 377 242.5 L 381 223.5 L 383 219.5 L 383 210.5 L 381 203.5 L 383 197.5 Q 381 190.5 376 186.5 L 375 178.5 L 372 169.5 L 361 157.5 L 358 150.5 L 347 139.5 L 329.5 118 L 322 112.5 L 311.5 101 L 309 99.5 L 312 98.5 L 312.5 97 Z "></path><path fill="rgb(2,0,1)" stroke="rgb(2,0,1)" stroke-width="1" opacity="0.17647058823529413" d="M 275.5 153 L 281 156.5 L 288.5 166 L 302 178.5 L 312 193.5 L 313 200.5 Q 311.8 203 308 202 Q 309.1 204.7 306.5 204 L 300.5 209 L 276.5 209 L 271.5 207 L 264.5 207 L 256.5 205 L 253 202.5 L 254.5 203 L 261.5 201 L 265.5 203 Q 273.2 201.8 276.5 205 L 299.5 205 L 302 204 L 304.5 199 L 308 198 L 308 194.5 L 305 189.5 L 294.5 176 L 279 162.5 L 278 157.5 L 275.5 153 Z "></path><path fill="rgb(2,0,1)" stroke="rgb(2,0,1)" stroke-width="1" opacity="0.17647058823529413" d="M 120.5 181 Q 126.7 181.3 129.5 185 L 155.5 186 L 163.5 188 L 181.5 189 Q 183 186.5 188.5 188 L 191.5 190 L 203.5 193 L 208.5 196 L 218.5 196 L 220.5 193 L 222 193.5 Q 221.3 189.8 223.5 189 L 224.5 192 L 226 191.5 L 226 200 L 216.5 200 L 213.5 201 L 187.5 193 L 184.5 194 L 182.5 193 L 178.5 194 L 173.5 192 Q 163.3 193.3 157.5 190 L 128.5 189 Q 126.5 186 120.5 187 L 114.5 193 L 101.5 195 L 89.5 202 L 85 206.5 L 83 212.5 Q 78.3 214.7 77 220.5 L 76 235.5 Q 78.6 238.4 78 244.5 L 83 256.5 L 83 268.5 L 84 271 Q 90.6 272.1 94 277.5 L 99 287.5 L 100 295.5 L 104.5 301 Q 112.3 302.7 117 307.5 L 131.5 325 Q 133.8 324.3 133 326.5 L 143.5 339 L 150 343 L 152 347.5 L 148.5 347 L 145 346 Q 146.1 343.3 143.5 344 L 136 337.5 L 128.5 327 L 124 323.5 L 122 319.5 L 110.5 308 Q 101.6 305.9 97 299.5 L 95 294.5 L 94 285.5 L 88.5 277 Q 81.9 276.1 79 271.5 L 78 264.5 Q 80.7 262.8 79 256.5 L 73 240.5 L 72 226.5 L 74 215.5 L 80 209.5 Q 81.1 202.1 86.5 199 L 98.5 192 L 111.5 190 L 115 186.5 L 118.5 182 L 120.5 181 Z "></path><path fill="rgb(2,0,1)" stroke="rgb(2,0,1)" stroke-width="1" opacity="0.17647058823529413" d="M 211.5 181 Q 216.3 181.3 218 184.5 L 219 188.5 L 215.5 193 L 211.5 194 L 207 190.5 L 206 186.5 L 209.5 182 L 211.5 181 Z "></path><path fill="rgb(2,0,1)" stroke="rgb(2,0,1)" stroke-width="1" opacity="0.17647058823529413" d="M 162.5 258 Q 169.9 257.1 173.5 260 L 185.5 260 L 194 264.5 Q 194.7 267.1 192 266 L 192 268.5 L 191 268.5 L 188.5 265 L 185.5 264 L 172 264 L 174 269.5 L 174 273.5 L 178.5 280 L 182 282.5 Q 181 287.5 184 288.5 L 182.5 288 L 178 286 L 172 278.5 L 168 267.5 L 161 259.5 L 162.5 258 Z "></path><path fill="rgb(2,0,1)" stroke="rgb(2,0,1)" stroke-width="1" opacity="0.17647058823529413" d="M 206.5 312 L 211 313 L 223.5 331 L 233 338.5 L 237.5 346 L 247.5 351 L 252 355.5 L 254 364 L 264 369.5 L 268 381.5 L 272.5 386 Q 279.1 386.4 282 390.5 L 283 400 Q 276.6 402.3 279 394.5 L 278 392 Q 269.5 390.3 265 383.5 L 259.5 372 L 249 363.5 Q 248.6 356.9 244.5 354 Q 235.4 351.5 231 344.5 Q 229.4 337.6 223.5 335 L 218 330.5 L 206 314.5 L 206.5 312 Z "></path><path fill="rgb(2,0,1)" stroke="rgb(2,0,1)" stroke-width="1" opacity="0.17647058823529413" d="M 84.5 340 Q 90.1 339.9 92 343.5 L 94.5 349 Q 101.7 349.3 105.5 353 L 110.5 353 L 118.5 356 L 123.5 356 Q 125.5 353 131.5 354 L 137.5 359 L 147 363 Q 145.9 365.7 148.5 365 L 150 364.5 L 146.5 367 L 130.5 359 L 127.5 359 L 126.5 360 L 118.5 360 L 92.5 353 L 85.5 349 L 83.5 351 L 75.5 352 L 74.5 351 L 64.5 351 L 63.5 350 L 49.5 350 L 46.5 351 Q 40.8 350.3 38.5 353 L 31.5 353 L 20.5 356 L 19.5 355 L 11.5 355 L 0.5 363 L 0 356 L 9.5 351 L 16.5 350 L 17.5 351 L 25.5 351 Q 29.9 347.9 38.5 349 L 46.5 346 L 63.5 346 L 64.5 347 L 76.5 348 L 79 347 L 81.5 341 L 84.5 340 Z "></path><path fill="rgb(0,0,0)" stroke="rgb(0,0,0)" stroke-width="1" opacity="0" d="M 0 0 L 400 0 L 400 400 L 283.5 400 L 283 399.5 L 283 392.5 L 279.5 388 Q 271.3 387.3 268 381.5 L 266 373.5 L 262.5 368 L 254 364 L 252 355.5 L 247.5 351 Q 239.2 349.3 235 343.5 Q 233.5 337 228.5 334 L 221 328.5 L 211 314.5 L 211 312 L 213.5 313 L 214 308 Q 217 309 216 306 L 219 306 L 219 301.5 Q 222.5 302.3 221 296 L 224 296 Q 223 293 226 294 L 226 286 L 229 286 Q 228 283 231 284 L 231 276 Q 234.7 277.5 234 274.5 L 234.5 273 L 231 272.5 L 238.5 272 L 247.5 275 L 257.5 276 L 261.5 278 L 284.5 278 Q 290.6 281.4 301.5 280 L 302.5 279 L 313.5 279 Q 315 281.5 320.5 280 L 329.5 276 Q 331.3 278.8 337.5 277 L 347.5 270 L 358.5 268 L 363 264.5 L 366.5 259 L 371 255.5 L 374.5 250 L 379 246.5 L 382 240.5 L 384 227.5 L 387 219.5 L 387 210.5 L 385 203.5 L 387 196.5 L 379 183.5 L 377 168.5 L 367.5 158 L 365 156.5 L 360 146.5 L 340.5 125 L 338 123.5 Q 336.8 117.8 332.5 115 L 326 112 Q 323.1 104.8 316.5 100 Q 314.3 100.8 315 98.5 L 317 98.5 L 317 94 L 320 94 L 320 89 L 322 89 L 322 84 L 325 83.5 Q 323.6 74.7 327 75.5 L 327 64 L 330 64 Q 329 61 332 62 L 332 57 L 335 57 Q 333.5 50.7 337 51.5 L 337 44 L 340 44 Q 339 41 342 42 L 342 37 L 340 37 L 340 27.5 L 337 27 L 337 20.5 Q 334 21.3 335 17 Q 330.8 18 331.5 15 L 327 15 L 326.5 12 L 317 12 L 317 15 L 310.5 15 Q 311.3 18.5 305 17 L 305 20 Q 302 19 303 22 L 300 22 Q 301 26.3 298 25.5 L 298 30 L 295 30 L 295 36.5 Q 291.5 35.7 293 42 L 290 42 Q 291 45 288 44 L 288 49 L 283 49 L 283 56.5 L 280 57 L 280 61.5 L 279 63.5 L 280 65.5 L 278.5 65 Q 271.9 64.1 269 59.5 L 258.5 46 L 251.5 44 L 248 40.5 Q 248.7 34.3 244.5 33 L 238.5 32 L 235 29.5 L 230.5 24 Q 225.4 17.6 216.5 15 L 201.5 15 Q 199.2 12.3 193.5 13 L 188 17.5 L 185.5 21 Q 179.3 20.3 178 24.5 L 177 29.5 L 178 32.5 L 172 44.5 L 172 63.5 Q 174.6 74.4 182.5 80 L 190.5 82 Q 198.1 89.9 208.5 95 L 216 102.5 L 220.5 109 L 225.5 111 Q 233.1 120.5 245 125 L 247 128.5 L 244.5 130 L 243 129.5 L 243 143 L 241 143 L 241 148 L 238 148 L 238 155 L 236 155 Q 237.3 159.1 234 158 L 234 165 L 231 165 L 231 168 Q 228 167 229 170 L 226 170 L 226 174.5 Q 222.5 173.7 224 180 L 221 180 L 221 192.5 L 218.5 196 L 208.5 196 L 203.5 193 L 194.5 191 L 188.5 188 L 182.5 188 Q 180.8 190.8 174.5 189 L 173.5 188 L 163.5 188 L 155.5 186 L 129.5 185 Q 126.7 181.3 120.5 181 L 115 185.5 L 111.5 190 L 98.5 192 L 83 202.5 L 80 209.5 L 74 215.5 L 72 226.5 L 72 234.5 L 74 244.5 L 79 256.5 L 79 263.5 L 78 268.5 L 82.5 275 L 90 278.5 L 94 285.5 L 96 297.5 L 101.5 304 Q 115.2 308.3 122 319.5 L 127.5 327 L 132 330.5 L 140.5 342 L 145 344 L 145 346 Q 147.7 344.9 147 347.5 L 142 346.5 L 142 359.5 L 143.5 360 L 144.5 362 Q 136.4 359.6 131.5 354 L 126.5 354 Q 124.5 357 118.5 356 L 115.5 354 L 105.5 353 L 93 347.5 Q 92.8 342.8 89.5 341 L 84.5 340 L 80 342.5 L 79 347 L 73.5 348 L 63.5 346 L 46.5 346 L 38.5 349 L 17.5 351 L 13.5 350 L 0 356 L 0 0 Z M 212 181 L 210 182 L 206 187 L 207 191 L 212 194 L 216 193 L 219 189 L 218 185 Q 216 181 212 181 Z "></path><path fill="rgb(0,0,0)" stroke="rgb(0,0,0)" stroke-width="1" opacity="0" d="M 278.5 161 L 284.5 168 L 299 180.5 L 308 194.5 L 308 198 L 303 200.5 L 302 204 L 299.5 205 L 276.5 205 L 272.5 203 Q 265.4 204 262 201.5 L 266 200 L 266 195.5 Q 269.5 196.3 268 190 L 271 189.5 L 271 183 L 273 183 Q 271.7 178.9 275 180 L 275 175 L 278 175 L 278 170 Q 280.7 171.1 280 168.5 L 278 165.5 L 278 163.5 L 278.5 161 Z "></path><path fill="rgb(0,0,0)" stroke="rgb(0,0,0)" stroke-width="1" opacity="0" d="M 172 264 L 185.5 264 L 189 265 L 188.5 268 L 187.5 266 L 185.5 266 L 184 266.5 L 184 274 L 182 274.5 L 182 281.5 L 179.5 280 L 176 277.5 L 172 264 Z "></path><path fill="rgb(0,239,138)" stroke="rgb(0,239,138)" stroke-width="1" opacity="1" d="M 204 22 L 206 22 L 206.5 25 L 219 25 Q 218 28 221 27 L 221 32 L 229 32 L 229 37 Q 232 36 231 39 L 236 39 Q 235 43.3 238 42.5 L 238 47 L 242.5 47 Q 241.7 50.5 248 49 L 248 54 L 251 54 L 251 57 Q 254 56 253 59 L 258 59 Q 256.5 63.5 261 62 L 261 67 L 266 67 L 268 71 L 271 71 L 271 74 L 275 76 L 275 81 L 271 81 Q 272.1 77.7 268 79 L 268 74 L 263 74 L 263 71 L 258 71 L 256 67 L 253 67 L 253 64 L 246 64 L 246 59 L 241.5 59 Q 242.3 56 238 57 Q 239.2 60.7 234 59 L 234 62 L 226 62 Q 227 65 224 64 L 224 67 Q 227 66 226 69 L 229 69 L 229 74 L 226 74.5 L 226 86 L 229 86 L 229 89 Q 232 88 231 91 L 234 91 L 234 95.5 Q 237 94.8 236 99 Q 239 98 238 101 L 241 101 L 241 104 Q 244 103 243 106 L 246 106 L 246 109 Q 249 108 248 111 L 253 111 L 253 116 L 256 116 L 256 121 L 253 121 Q 254 124 251 123 Q 252.1 119.7 248 121 L 248 116 L 243 116 L 243 113 Q 240 114 241 111 Q 236.9 112.3 238 109 L 234 109 L 234 104 L 229 104 L 229 101 L 226 101 Q 227 98 224 99 L 224 96 L 221 96 Q 222 93 219 94 L 219 91 Q 214.8 92 215.5 89 L 211 89 L 211 86 Q 208 87 209 84 L 206 84 L 206 81 L 201 81 Q 202 78 199 79 L 199 74 L 192 74 L 192 71 L 189 71 L 187 67 L 184 67 L 184 64 Q 181 65 182 62 L 179 62 L 179 57 Q 183.5 58.5 182 54 L 179 54 L 179 49 L 182 49 L 182 44 L 184 44 L 184 39 L 187 39 L 187 34 L 192 34 L 192 32 L 197 32 L 197 30 Q 192.5 31.5 194 27 L 198.5 27 Q 197.7 23.5 204 25 L 204 22 Z M 209 27 L 209 30 L 200 30 L 199 34 L 194 34 L 194 37 Q 191 36 192 39 L 189 39 Q 191 45 187 45 L 187 49 L 184 49 L 184 57 L 187 57 L 187 62 Q 190 61 189 64 L 192 64 L 192 67 Q 195 66 194 69 L 201 69 L 202 67 L 209 67 L 209 64 Q 212 65 211 62 L 216 62 L 216 59 L 219 59 Q 218 56 221 57 L 221 49 L 224 49 L 224 38 L 221 37 L 221 32 Q 218 33 219 30 L 214 30 L 214 27 L 209 27 Z M 226 37 Q 225 40 229 39 Q 230 36 226 37 Z M 219 67 Q 218 70 221 69 Q 222 66 219 67 Z "></path><path fill="rgb(0,239,138)" stroke="rgb(0,239,138)" stroke-width="1" opacity="1" d="M 305 104 L 308 104 L 308 106 L 310 106 L 310 109 Q 313 108 312 111 L 315 111 Q 314 114 317 113 L 317 118 L 322 118 L 322 121 L 325 121 Q 324 124 327 123 L 327 126 L 330 126 Q 329 129 332 128 L 332 131 L 335 131 L 335 136 Q 338 135 337 138 L 340 138 Q 339 142.3 342 141.5 L 342 146 Q 346.3 145 345.5 148 L 350 148 Q 349 151 352 150 L 352 155 L 354 155 L 354 160 L 357 160 L 357 163 Q 360 162 359 165 L 362 165 L 362 169.5 Q 365.5 168.7 364 175 L 367 175 Q 365.7 179.1 369 178 L 369 187 L 372 187 L 372 191.5 Q 375.5 190.7 374 197 L 377 197.5 L 377 216.5 Q 380 215.8 379 220 Q 375.3 218.8 377 224 L 374 224 L 374 229 Q 378.5 227.5 377 232 L 374 232 L 374 236.5 Q 370.5 235.7 372 242 L 369 242 Q 370 245 367 244 L 367 247 L 364 247 Q 365 250 362 249 L 362 252 L 357 252 Q 358.1 255.3 354 254 L 354 257 L 350 257 L 350 262 L 342.5 262 L 342 264 L 335.5 264 L 335 266 L 327.5 266 L 327 269 L 322 269 Q 323.3 264.9 320 266 L 320 269 L 310.5 269 Q 311.1 271.8 308 271 L 308 269 L 303 269 L 302.5 271 L 288 271 L 287.5 269 L 268.5 269 L 268 266 L 266 266 Q 267.5 270.5 263 269 L 262.5 266 L 253 266 Q 254.3 270.1 251 269 L 251 266 L 243.5 266 L 243 264 L 238 264 Q 239 261 236 262 L 236 264 L 231 264 L 231 259 Q 235.1 260.3 234 257 L 243 257 L 243.5 259 L 270.5 259 L 271.5 262 L 310 262 L 310 259 Q 316.3 260.5 315.5 257 L 327 257 L 327 254 L 330 254 Q 329 251 332 252 L 332 249 L 340 249 L 340 247 L 345 247 L 345 244 Q 348 245 347 242 L 352 242 Q 351 237.8 354 238.5 L 354 234 L 357 233.5 L 357 224 L 354 224 L 352 220 L 354 220 L 354 215 L 359 215 Q 357.5 210.5 362 212 Q 360.5 205.7 364 206.5 L 364 200 Q 368.5 201.5 367 197 L 364 196.5 L 364 183.5 Q 360.5 184.3 362 178 L 359 178 L 359 173 Q 355.7 174.1 357 170 L 354 170 L 354 163.5 Q 351 164.3 352 160 Q 349 161 350 158 L 347 158 L 347 153.5 Q 343.5 154.3 345 148 L 342 148 Q 343 145 340 146 L 340 143 L 337 143 Q 338 140 335 141 L 335 138 L 332 138 Q 333 135 330 136 L 330 133 L 327 133 Q 328 130 325 131 L 325 126 L 322 126 L 322 121 L 317 121 L 317 118 Q 314 119 315 116 L 312 116 L 312 113 L 310 113 L 308 109 L 305 109 L 305 104 Z "></path><path fill="rgb(0,239,138)" stroke="rgb(0,239,138)" stroke-width="1" opacity="1" d="M 283 143 Q 286.3 141.9 285 146 L 288 146 L 290 150 L 293 150 L 293 153 Q 296 152 295 155 L 298 155 L 298 158 Q 301 157 300 160 L 303 160 L 303 163 Q 306 162 305 165 L 308 165 Q 307 169.3 310 168.5 L 310 173 Q 313 172 312 175 L 315 175 L 315 178 Q 318 177 317 180 L 320 180 L 320 185 Q 323 184 322 187 L 325 187 L 325 190 Q 328 189 327 192 L 330 192 L 330 195 L 335 195 L 335 197 L 340 197 L 340 200 L 345 200 Q 344 203 347 202 L 347 205 Q 351.1 203.7 350 207 L 354 207 L 354 212 L 347 212 L 347 215 L 342 215 L 342 220 L 337 220 L 337 217 L 332 217 L 332 220 L 325.5 220 L 324.5 222 L 293 222 L 292.5 220 L 271.5 220 L 270.5 217 L 248.5 217 Q 249.3 213.5 243 215 L 243 212 Q 247.3 213 246.5 210 L 261 210 L 261.5 212 L 282.5 212 L 283 215 L 288 215 Q 286.7 210.9 290 212 L 290.5 215 L 300 215 Q 298.5 210.5 303 212 L 303.5 215 L 317 215 L 317 212 Q 321.3 213 320.5 210 L 325 210 L 325 207 L 322 207 L 322 202 L 320 202 L 320 197 L 317 197 L 317 192 Q 314 193 315 190 L 312 190 L 312 185 L 308 183 L 308 178 L 305 178 L 305 175 Q 302 176 303 173 L 300 173 L 300 170 Q 297 171 298 168 L 295 168 L 295 163 Q 291.7 164.1 293 160 L 288 160 L 288 155 L 285 155 Q 286 152 283 153 L 283 150 L 280 150 L 280 146 Q 284.5 147.5 283 143 Z "></path><path fill="rgb(0,239,138)" stroke="rgb(0,239,138)" stroke-width="1" opacity="1" d="M 125 192 L 130 192 L 130.5 195 L 147 195 Q 145.5 190.5 150 192 L 150 195 L 161.5 195 L 162.5 197 L 179 197 L 179 200 L 184 200 L 184 205 L 179 205 L 178.5 202 L 162.5 202 L 161.5 200 L 140.5 200 L 140 197 L 135 197 L 135 200 L 130 200 L 130 197 L 125 197 L 125 200 L 115.5 200 Q 116.1 202.7 113 202 Q 114.1 198.7 110 200 Q 111 203 108 202 L 108 205 Q 103.8 204 104.5 207 L 100 207 L 100 210 Q 97 209 98 212 L 95 212 Q 96.3 216.1 93 215 L 93 227 Q 96.3 228.1 95 224 L 98 224 Q 97 228.3 100 227.5 Q 99.3 233.8 100.5 234 L 112.5 234 L 113.5 237 L 131.5 237 L 132.5 239 L 142 239 L 142.5 242 L 159.5 242 L 160.5 244 L 173.5 244 L 174.5 247 L 183.5 247 L 184.5 249 L 197 249 L 197 252 Q 202.2 250.3 201 254 L 199 254 L 199 257 Q 196 256 197 259 L 192 259 L 191.5 257 L 179 257 L 178.5 254 L 167.5 254 L 166.5 252 L 150.5 252 L 150 249 L 147 249 L 147 257 L 150 257 Q 149 260 152 259 L 152 264 L 156.5 264 Q 155.8 267 160 266 L 160 271 L 162 271 L 162 274 Q 165 273 164 276 L 167 276 Q 166 280.3 169 279.5 L 169 284 L 172 284 Q 171 287 174 286 L 174 289 L 177 289 Q 176 292 179 291 L 179 294 L 177 294 L 177 299 L 174 299 L 174 296 Q 171 297 172 294 L 169 294 L 169 291 Q 166 292 167 289 L 164 289 L 164 286 L 160 284 L 160 281 L 157 281 Q 158 278 155 279 L 155 276 Q 150.9 277.3 152 274 L 137.5 274 L 137 271 L 132 271 L 132 274 Q 129 273 130 276 L 127 276 L 127 279 Q 124 278 125 281 L 122 281 L 122 285.5 Q 118.5 284.7 120 291 L 122 291 L 122 296 Q 126.5 294.5 125 299 Q 128 298 127 301 L 130 301 L 130 306 Q 133 305 132 308 L 135 308 Q 133.7 312.1 137 311 L 137 316 L 140 316 Q 139 319 142 318 L 142 321 L 145 321 Q 144 324 147 323 L 147 326 L 150 326 L 150 331 Q 153 330 152 333 L 155 333 L 155 340 L 152 340 L 150 336 L 147 336 Q 148 331.8 145 332.5 L 145 328 L 140 328 L 140 323 L 135.5 323 Q 136.3 320 132 321 L 132 313 L 127 313 Q 128 310 125 311 L 125 306 Q 117.5 308.5 120 301 L 115.5 301 Q 116.3 297.5 110 299 L 110 296 Q 114.1 297.3 113 294 L 110 294 L 110 289.5 Q 107 290.3 108 286 L 105 286 Q 106 283 103 284 L 103 279 L 100 279 Q 101.3 274.9 98 276 L 98 271 L 95 271 L 95 266 Q 92 267 93 264 L 90 264 L 90 257.5 L 88 256.5 L 88 249.5 L 85 249 L 85 244.5 Q 81.5 245.3 83 239 Q 86 240 85 237 L 83 237 L 83 229.5 Q 79.5 230.3 81 224 L 83 224 L 83 220 Q 86.3 221.1 85 217 L 88 217 Q 87 214 90 215 L 90 205 L 98 205 L 98 202 Q 101 203 100 200 L 103 200 Q 101.7 195.9 105 197 L 105 200 L 110 200 L 110.5 197 L 122 197 Q 120.9 193.7 125 195 L 125 192 Z "></path><path fill="rgb(0,239,138)" stroke="rgb(0,239,138)" stroke-width="1" opacity="1" d="M 187 202 L 203.5 202 L 204 205 L 209 205 Q 208 208 211 207 L 211 205 L 216 205 L 216.5 207 L 231 207 L 231 210 Q 235.1 208.7 234 212 L 229.5 212 Q 230.3 209 226 210 L 226 212 L 221 212 L 221 210 L 214 210 Q 215.5 205.5 211 207 Q 212.3 211.1 209 210 L 208.5 207 L 192 207 L 192 205 L 187 205 L 187 202 Z "></path><path fill="rgb(0,239,138)" stroke="rgb(0,239,138)" stroke-width="1" opacity="1" d="M 152 254 Q 156.5 252.5 155 257 Q 150.5 258.5 152 254 Z "></path><path fill="rgb(0,239,138)" stroke="rgb(0,239,138)" stroke-width="1" opacity="1" d="M 201 321 L 206 321 L 206 326 L 209 326 Q 208 329 211 328 L 211 331 L 214 331 L 214 336 Q 217 335 216 338 L 221 338 L 221 343 L 224 343 Q 223 346 226 345 L 226 348 Q 230.3 347 229.5 350 L 234 350 L 234 355 L 236 355 L 236 359.5 Q 239 358.8 238 363 Q 242.3 362 241.5 365 L 246 365 Q 245 369.3 248 368.5 L 248 373 L 251 373 L 253 377 L 256 377 Q 255 381.3 258 380.5 L 258 385 L 261 385 Q 260 388 263 387 L 263 392 L 266 392 L 266 395 Q 269 394 268 397 L 271 397 L 271 400 L 238.5 400 L 238 397 L 241 397 Q 240 394 243 395 L 243 392 L 246 392 Q 245 389 248 390 L 248 382 Q 245 383 246 380 L 243 380 L 243 373 L 238 373 L 238 368 L 236 368 L 236 365 Q 233 366 234 363 L 231 363 L 231 358.5 Q 228 359.3 229 355 L 226 355 Q 227 352 224 353 L 224 350 L 221 350 Q 222 347 219 348 L 219 345 L 216 345 L 216 340 L 214 340 L 214 338 L 211 338 Q 212 335 209 336 L 209 333 L 206 333 Q 207 330 204 331 L 204 328 L 201 328 L 201 321 Z "></path><path fill="rgb(0,239,138)" stroke="rgb(0,239,138)" stroke-width="1" opacity="1" d="M 48 355 L 62.5 355 L 63 358 L 66 358 L 66.5 355 L 78 355 L 78.5 358 L 89.5 358 L 90.5 360 L 100 360 Q 98.9 356.7 103 358 L 103 360 L 108 360 L 108 363 L 113 363 L 113 365 L 124.5 365 L 125.5 368 L 136.5 368 L 137 370 L 142 370 Q 140.5 374.5 145 373 Q 143.7 368.9 147 370 L 147 376.5 L 145 377 L 144.5 375 L 132.5 375 L 131.5 373 L 125 373 L 125 370 L 118.5 370 L 117.5 368 L 105.5 368 L 105 365 L 98.5 365 L 97.5 363 L 78.5 363 L 77.5 360 L 44.5 360 L 44 358 Q 49.6 359.9 48 355 Z "></path><path fill="rgb(0,239,138)" stroke="rgb(0,239,138)" stroke-width="1" opacity="1" d="M 31 358 L 40.5 358 L 41 360 Q 37.7 358.9 39 363 L 31.5 363 Q 32.1 365.8 29 365 L 29 360 Q 32 361 31 358 Z "></path><path fill="rgb(0,239,138)" stroke="rgb(0,239,138)" stroke-width="1" opacity="1" d="M 24 360 L 26 360 L 26 365 Q 22.7 363.9 24 368 L 21 368 L 21 365 L 16 365 L 16 370 L 9 370 L 9 373 Q 6 372 7 375 L 2 375 Q 3 378 0 377 Q -1 374 2 375 L 2 370 Q 8.3 371.5 7.5 368 L 14 368 L 14 365 Q 17 366 16 363 L 24 363 L 24 360 Z "></path><path fill="rgb(0,239,138)" stroke="rgb(0,239,138)" stroke-width="1" opacity="1" d="M 182 365 Q 185.3 363.9 184 368 L 187 368 Q 186 371 189 370 L 189 373 L 192 373 Q 191 376 194 375 L 194 380 L 197 380 L 197 382 L 199 382 L 199 385 Q 202 384 201 387 L 204 387 L 204 390 L 209 390 Q 208 393 211 392 L 211 395 L 218.5 395 L 219.5 397 L 226 397 L 226 400 L 201.5 400 L 201 397 L 194.5 397 Q 195.3 393.5 189 395 L 189 392 L 182.5 392 L 181.5 390 L 174 390 L 174 387 Q 171 388 172 385 L 169 385 L 169 382 L 173.5 382 Q 172.8 379 177 380 L 177 382 L 182 382 L 182 385 L 186.5 385 Q 185.7 388.5 192 387 L 192 382 L 189 382 Q 190 379 187 380 L 187 377 L 184 377 L 184 373 Q 180.7 374.1 182 370 L 179 370 L 179 368 Q 183.5 369.5 182 365 Z "></path><path fill="rgb(251,0,200)" stroke="rgb(251,0,200)" stroke-width="1" opacity="0.12156862745098039" d="M 317 12 L 326.5 12 L 327 15 L 331.5 15 Q 330.8 18 335 17 Q 334 21.3 337 20.5 L 337 27 L 340 27.5 L 340 36.5 Q 343.5 35.7 342 42 Q 339 41 340 44 L 337 44 L 337 51.5 Q 333.5 50.7 335 57 L 332 57 L 332 62 Q 329 61 330 64 L 327 64 L 327 75.5 Q 323.6 74.7 325 83.5 L 322 84 L 322 89 L 320 89 L 320 94 L 317 94 L 317 98.5 L 312 97.5 L 311.5 99 L 308 97.5 L 308 91.5 L 310 91 L 310 84.5 L 312 83.5 L 312 76 L 315 76 Q 313.5 69.7 317 70.5 L 317 64 L 320 64 L 320 59 L 322 59 L 322 54 L 325 54 L 325 49.5 Q 328.5 50.3 327 44 L 330 44 L 330 30 L 327 30 L 327 27 Q 323.9 27.8 324.5 25 L 312 25 L 312 27 L 310 27 L 310 30 Q 307 29 308 32 L 305 32 L 305 36.5 Q 301.5 35.7 303 42 L 300 42 L 300 46.5 Q 296.5 45.7 298 52 L 295 52 L 295 57 L 293 57 L 293 62 L 290 62 L 290 66.5 Q 287 65.5 288 70.5 L 286.5 70 L 283 71 L 282.5 73 L 280 69.5 L 279 62.5 L 280 57 L 283 57 L 283 49 L 288 49 L 288 44 Q 291 45 290 42 L 293 42 Q 291.5 35.7 295 36.5 L 295 30 L 298 30 L 298 25.5 Q 301 26.3 300 22 L 303 22 Q 302 19 305 20 L 305 17 Q 311.3 18.5 310.5 15 L 317 15 L 317 12 Z "></path><path fill="rgb(251,0,200)" stroke="rgb(251,0,200)" stroke-width="1" opacity="0.12156862745098039" d="M 243.5 129 L 245.5 130 L 249 129.5 L 250.5 132 L 251.5 130 L 253 132.5 L 253 145.5 L 249.5 153 Q 246.9 152.3 248 155 L 246 155 L 246 159.5 L 245 163 L 243 163 L 243 169.5 Q 240 168.5 241 173.5 L 238 175 L 238 178 Q 235.3 176.9 236 179.5 L 234 185 L 231 185 Q 232 188 229 187 L 229 190 L 226.5 190 L 224 191.5 L 223.5 189 L 221.5 194 L 221 180 L 224 180 L 224 175.5 Q 227.5 176.3 226 170 L 229 170 Q 228 167 231 168 L 231 165 L 234 165 L 234 158 L 236 158 Q 234.7 153.9 238 155 L 238 148 L 241 148 Q 239.5 141.7 243 142.5 L 243.5 129 Z "></path><path fill="rgb(251,0,200)" stroke="rgb(251,0,200)" stroke-width="1" opacity="0.12156862745098039" d="M 273 154 Q 276.8 152.5 276 155.5 L 278 157.5 Q 276.5 163 279 164.5 L 279 166.5 L 280 170 L 278 170 L 278 175 L 275 175 L 275 180 L 273 180 Q 274.3 184.1 271 183 L 271 189.5 L 268 190 L 268 194.5 Q 264.5 193.7 266 200 L 263.5 200 L 260.5 202 L 254 203 L 253 200.5 L 255 200 L 258 188.5 L 261 185.5 Q 261.8 178.3 266 174.5 L 268 163 Q 272.9 164.8 271 158.5 Q 273.7 157.4 273 154 Z "></path><path fill="rgb(251,0,200)" stroke="rgb(251,0,200)" stroke-width="1" opacity="0.12156862745098039" d="M 184 266 L 186.5 267 L 188 266.5 L 188.5 268 L 189.5 266 L 191.5 269 L 192 266 Q 195 264.8 194 268.5 L 191 270.5 L 192 272.5 L 191 276 L 189 276 L 189 283.5 L 187 284 L 187 288 L 185.5 288 L 182 286.5 L 182 274.5 L 184 273.5 L 184 266 Z "></path><path fill="rgb(251,0,200)" stroke="rgb(251,0,200)" stroke-width="1" opacity="0.12156862745098039" d="M 226.5 269 L 229 269 L 231 273 L 234.5 273 L 234 274.5 Q 234.7 277.5 231 276 L 231 284 Q 228 283 229 286 L 226 286 L 226 294 Q 223 293 224 296 L 221 296 L 221 300.5 Q 217.5 299.7 219 306 L 216 306 Q 217 309 214 308 L 214 312.5 L 212.5 312 L 207.5 313 Q 204.5 311.4 206 306 L 209 304.5 Q 208 299.5 211 300.5 L 211 296 L 214 296 L 214 291 L 216 291 L 216 286 L 217.5 286 Q 220 284.8 219 281 Q 222 282.3 221 278.5 L 222 276 L 224 276 L 224 270.5 L 225.5 270 L 226.5 269 Z "></path><path fill="rgb(251,0,200)" stroke="rgb(251,0,200)" stroke-width="1" opacity="0.12156862745098039" d="M 142.5 346 L 144.5 348 L 147.5 347 L 149.5 348 Q 150.8 345.7 152 348.5 L 152 361.5 L 148.5 365 L 147 365 L 147 363 Q 144.3 364.1 145 361.5 L 142 360 L 142.5 346 Z "></path><path fill="rgb(250,2,195)" stroke="rgb(250,2,195)" stroke-width="1" opacity="0.9333333333333333" d="M 312 25 L 324.5 25 Q 323.9 27.8 327 27 L 327 30 L 330 30 L 330 44 L 327 44 L 327 48.5 Q 323.5 47.7 325 54 L 322 54 L 322 58.5 Q 318.5 57.7 320 64 L 317 64 L 317 70.5 Q 313.5 69.7 315 76 L 312 76 L 312 83.5 L 310 84.5 L 310 90.5 Q 306.8 89.6 308 97.5 Q 310.3 98.7 307.5 100 L 305.5 99 L 305 104 Q 302 103 303 106 L 300 106 L 300 109 Q 297 108 298 111 L 295 111 L 295 115.5 Q 291.5 114.7 293 121 L 290 121 L 290 127.5 Q 286.5 126.7 288 133 L 285 133 L 285 137.5 Q 281.5 136.7 283 143 L 280 143 L 280 148 L 275 148 L 275 151.5 Q 277.3 152.8 274.5 154 Q 271.9 153.2 273 156.5 Q 269.8 158 271 163 Q 266.1 161.2 268 167.5 L 261 185.5 L 258 188.5 L 255 200 L 253 200.5 L 253 202.5 L 253 205 L 248 205 L 248 210 L 243 210 Q 244 213 241 212 L 240.5 210 L 231 210 L 231 202.5 L 229 202 L 229 200.5 L 227.5 201 L 226 200.5 L 226 190 L 229 190 L 229 187 Q 232 188 231 185 L 234 185 L 234 182.5 L 236 178 L 238 178 Q 236.5 174.2 239.5 175 Q 242 173.8 241 170 L 243 170 L 243 163.5 L 245 163 L 245 160.5 L 246 155 L 248 155 Q 246.9 152.3 249.5 153 L 253 145.5 L 253 132.5 L 253 130.5 L 253 128 Q 257.1 129.3 256 126 L 253 126 L 253 121 L 256 121 Q 254.7 116.9 258 118 L 258 111 L 261 111 L 261 106 L 263 106 L 263 101 L 266 101 L 266 96.5 Q 269.5 97.3 268 91 L 271 91 Q 270 88 273 89 L 273 84.5 Q 276.5 85.3 275 79 L 280 79 L 280 76.5 L 280.5 74 L 282 73.5 L 280.5 71 L 283 72.5 Q 282.3 70.3 284.5 71 L 286.5 70 L 288 70.5 Q 287 65.5 290 66.5 L 290 62 L 293 62 L 293 57 L 295 57 L 295 52 L 298 52 L 298 47.5 Q 301.5 48.3 300 42 L 303 42 L 303 37.5 Q 306.5 38.3 305 32 L 308 32 L 308 30 L 310 30 L 310 27 Q 313 28 312 25 Z "></path><path fill="rgb(250,2,195)" stroke="rgb(250,2,195)" stroke-width="1" opacity="0.9333333333333333" d="M 214 239 L 223.5 239 L 224 242 L 229 242 Q 227.5 248.3 231 247.5 L 231 262 Q 228 261 229 264 L 226 264 L 226 268 L 229 268.5 L 224 270 L 224 275.5 L 222 276 L 222 277.5 L 221 281 Q 217.7 279.7 219 284.5 L 216 286 L 216 291 L 214 291 L 214 296 L 211 296 L 211 300.5 Q 208 299.5 209 304.5 L 206 306 L 206 312.5 L 204 313.5 L 204 321 L 201 321 Q 202 324 199 323 L 199 327.5 Q 195.5 326.7 197 333 L 194 333 L 194 337.5 Q 190.5 336.7 192 343 L 189 343 L 189 347.5 Q 185.5 346.7 187 353 L 184 353 L 184 357.5 Q 180.5 356.7 182 363 L 179 363 Q 180.5 369.3 177 368.5 L 177 375 L 174 375 Q 175 378 172 377 L 172 382 L 167 382 L 167 385 L 152 385 Q 153.5 378.7 150 379.5 L 150 373 Q 145.5 374.5 147 370 L 150 370 L 150 363.5 L 152 361.5 L 152.5 345 L 155 346.5 L 155 338.5 Q 158.5 339.3 157 333 L 160 333 L 160 328.5 Q 163.5 329.3 162 323 Q 165 324 164 321 L 167 321 L 167 316 L 169 316 L 169 311 L 172 311 L 172 306.5 Q 175.5 307.3 174 301 L 177 301 L 177 296.5 Q 180.5 297.3 179 291 L 182.5 291 L 182.5 289 Q 184.8 289.8 184 287.5 L 185.5 288 L 187 288 L 187 284 L 189 284 L 189 276.5 L 191 276 L 191 274.5 L 194 268.5 L 194.5 264 L 197 265 Q 195.9 262.3 198.5 263 L 198.5 262 Q 195.5 262.7 197 259 L 199 259 L 199 254 Q 202 255 201 252 L 204 252 Q 202.7 247.9 206 249 L 206 244 Q 210.3 245 209.5 242 L 214 242 L 214 239 Z "></path><path fill="rgb(54,254,204)" stroke="rgb(54,254,204)" stroke-width="1" opacity="1" d="M 204 30 Q 207 29 206 32 Q 203 33 204 30 Z "></path><path fill="rgb(54,254,204)" stroke="rgb(54,254,204)" stroke-width="1" opacity="1" d="M 197 34 Q 200.3 32.9 199 37 Q 195.7 38.1 197 34 Z "></path><path fill="rgb(54,254,204)" stroke="rgb(54,254,204)" stroke-width="1" opacity="1" d="M 211 34 L 214 34 L 214 38.5 Q 217.5 37.7 216 44 Q 212.7 42.9 214 47 L 211 47 L 211 42 Q 215.5 43.5 214 39 L 211 39 L 211 34 Z "></path><path fill="rgb(54,254,204)" stroke="rgb(54,254,204)" stroke-width="1" opacity="1" d="M 189 42 Q 193.1 40.7 192 44 Q 187.9 45.3 189 42 Z "></path><path fill="rgb(54,254,204)" stroke="rgb(54,254,204)" stroke-width="1" opacity="1" d="M 197 47 Q 202.2 45.3 201 49 Q 195.8 50.7 197 47 Z "></path><path fill="rgb(54,254,204)" stroke="rgb(54,254,204)" stroke-width="1" opacity="1" d="M 194 57 Q 198.1 55.7 197 59 Q 192.9 60.3 194 57 Z "></path><path fill="rgb(54,254,204)" stroke="rgb(54,254,204)" stroke-width="1" opacity="1" d="M 216 57 Q 220.1 55.7 219 59 Q 214.9 60.3 216 57 Z "></path><path fill="rgb(54,254,204)" stroke="rgb(54,254,204)" stroke-width="1" opacity="1" d="M 211 59 Q 215.5 57.5 214 62 Q 209.5 63.5 211 59 Z "></path><path fill="rgb(54,254,204)" stroke="rgb(54,254,204)" stroke-width="1" opacity="1" d="M 204 64 Q 207.3 62.9 206 67 Q 202.7 68.1 204 64 Z "></path><path fill="rgb(54,254,204)" stroke="rgb(54,254,204)" stroke-width="1" opacity="1" d="M 251 76 Q 254.3 74.9 253 79 L 256 79 Q 255 82 258 81 L 258 84 L 265.5 84 Q 264.9 86.7 268 86 L 268 96 L 266 95.5 L 266 86 L 258 86 L 258 89 L 261 89 Q 260 92 263 91 L 263 94 L 256 94 L 256 101 Q 259.3 99.9 258 104 Q 255 103 256 106 L 261 106 Q 260 103 263 104 Q 264 107 261 106 L 261 109 L 258 109 Q 259 112 256 111 L 256 109 L 253 109 Q 254.3 104.9 251 106 L 251 101 L 253 100.5 L 253 94 Q 249.7 95.1 251 91 L 248 91 Q 249 88 246 89 L 246 86 L 248 86 L 248 81 Q 245 82 246 79 L 251 79 L 251 76 Z "></path><path fill="rgb(54,254,204)" stroke="rgb(54,254,204)" stroke-width="1" opacity="1" d="M 263 99 Q 267.1 97.7 266 101 Q 261.9 102.3 263 99 Z "></path><path fill="rgb(54,254,204)" stroke="rgb(54,254,204)" stroke-width="1" opacity="1" d="M 293 116 L 298 116 Q 297 119 300 118 L 300 121 L 303 121 Q 302 124 305 123 L 305 126 L 308 126 L 308 128 L 310 128 L 310 131 Q 313 130 312 133 L 315 133 L 315 136 Q 318 135 317 138 L 320 138 L 320 141 Q 323 140 322 143 L 325 143 L 325 148 L 330 148 Q 329 151 332 150 L 332 153 L 335 153 L 335 158 Q 338 157 337 160 L 340 160 L 340 163 L 337 163 L 337 160 Q 334 161 335 158 L 332 158 Q 333 153.8 330 154.5 L 330 150 L 325.5 150 Q 326.3 147 322 148 L 322 143 Q 319 144 320 141 L 317 141 L 317 138 Q 314 139 315 136 L 312 136 L 312 133 L 308 131 L 308 128 Q 303.8 129 304.5 126 L 300 126 L 300 121 L 295 121 L 295 118 Q 292 119 293 116 Z M 320 155 Q 318 163 325 160 Q 326 157 322 158 L 322 155 L 320 155 Z "></path><path fill="rgb(54,254,204)" stroke="rgb(54,254,204)" stroke-width="1" opacity="1" d="M 290 121 Q 294.1 119.7 293 123 Q 288.9 124.3 290 121 Z "></path><path fill="rgb(54,254,204)" stroke="rgb(54,254,204)" stroke-width="1" opacity="1" d="M 288 128 Q 291.3 126.9 290 131 L 295 131 L 295 133 L 288 133 L 288 128 Z "></path><path fill="rgb(54,254,204)" stroke="rgb(54,254,204)" stroke-width="1" opacity="1" d="M 285 136 L 288 136 Q 287 139 290 138 L 290 141 L 293 141 Q 292 144 295 143 L 295 146 L 298 146 L 300 150 L 303 150 L 303 153 Q 306 152 305 155 L 308 155 L 308 160 L 305 160 L 305 155 Q 302 156 303 153 L 300 153 L 300 150 Q 297 151 298 148 L 295 148 Q 296 145 293 146 L 293 143 L 290 143 Q 291 140 288 141 L 288 138 Q 283.9 139.3 285 136 Z "></path><path fill="rgb(54,254,204)" stroke="rgb(54,254,204)" stroke-width="1" opacity="1" d="M 315 153 L 321.5 153 Q 320.7 156.5 327 155 L 327 163 L 320 163 L 320 160 L 315 160 Q 316.1 156.7 312 158 L 312 155 Q 316.1 156.3 315 153 Z "></path><path fill="rgb(54,254,204)" stroke="rgb(54,254,204)" stroke-width="1" opacity="1" d="M 310 163 Q 313.1 162.3 312.5 165 L 322 165 L 322.5 168 L 330 168 L 330 165 L 337 165 Q 335.5 169.5 340 168 Q 338.7 163.9 342 165 L 342 180 L 335 180 L 335 173 L 330 173 L 330 170 L 322.5 170 Q 323.1 167.2 320 168 L 320 175 L 317 175 Q 318 172 315 173 L 315 168 L 312 168 L 312 165 Q 309 166 310 163 Z "></path><path fill="rgb(54,254,204)" stroke="rgb(54,254,204)" stroke-width="1" opacity="1" d="M 152 205 L 157 205 L 157 207 Q 153.7 205.9 155 210 Q 158 209 157 212 L 162 212 Q 161 209 164 210 L 164 205 L 169 205 Q 170 208 167 207 L 167 212 L 174 212 L 174 205 L 177 205 L 177 207 L 182 207 L 182 210 L 191.5 210 Q 190.9 212.8 194 212 L 194.5 210 L 204 210 L 204.5 212 L 216 212 L 216 215 L 209.5 215 L 209 217 L 211 217.5 L 211 224 L 206 224 L 206 222 L 201.5 222 Q 202.3 218.8 197 220 L 197 215 Q 200.3 216.1 199 212 L 194 212 Q 195.3 216.1 192 215 L 191.5 212 L 177 212 Q 176 216.3 179 215.5 L 179 220 L 174 220 L 174 217 L 169 217 Q 170 214 167 215 L 167 212 L 162 212 Q 163 216.3 160 215.5 L 160 220 L 155 220 L 155 215 L 145.5 215 L 145 212 L 152 212 L 152 205 Z "></path><path fill="rgb(54,254,204)" stroke="rgb(54,254,204)" stroke-width="1" opacity="1" d="M 125 207 L 130 207 L 130.5 210 L 141.5 210 L 142 212 L 137 212 L 137 220 Q 141.9 218.4 140 224 L 132.5 224 Q 133.1 221.3 130 222 L 130 224 L 125 224 L 125 222 L 120 222 Q 121 219 118 220 L 118 217 L 113 217 L 113 212 L 120 212 L 120 215 Q 117 214 118 217 Q 123.6 215.1 122 220 L 127 220 L 127 215 Q 119.5 217.5 122 210 Q 126.5 211.5 125 207 Z "></path><path fill="rgb(54,254,204)" stroke="rgb(54,254,204)" stroke-width="1" opacity="1" d="M 219 212 Q 222.3 210.9 221 215 Q 217.7 216.1 219 212 Z "></path><path fill="rgb(54,254,204)" stroke="rgb(54,254,204)" stroke-width="1" opacity="1" d="M 226 215 L 235.5 215 L 236.5 217 L 245.5 217 L 246 220 L 251 220 L 251 222 L 246.5 222 Q 247.3 218.5 241 220 L 241 222 L 238 222 Q 239 225 236 224 L 236 227 L 231 227 L 231 220 L 234 220 Q 233 223 236 222 L 236 217 L 226.5 217 L 226 215 Z "></path><path fill="rgb(54,254,204)" stroke="rgb(54,254,204)" stroke-width="1" opacity="1" d="M 142 217 Q 146.5 215.5 145 220 Q 140.5 221.5 142 217 Z "></path><path fill="rgb(54,254,204)" stroke="rgb(54,254,204)" stroke-width="1" opacity="1" d="M 167 220 Q 170 219 169 222 L 172 222 L 172 227 L 169 227 Q 170 230 167 229 L 167 239 L 176.5 239 L 177 242 L 167 242 L 167 239 Q 162.9 240.3 164 237 L 160 237 L 160 234 L 152.5 234 L 152 232 L 155 232 L 155 227 L 150 227 Q 151.1 230.3 147 229 L 147 232 Q 151.1 230.7 150 234 L 147 234 Q 148 231 145 232 L 145 227 Q 140.5 228.5 142 224 Q 146.5 222.5 145 227 L 150 227 L 150 222 L 152 222 L 152 224 L 155 224 Q 153.7 228.1 157 227 Q 155.5 222.5 160 224 L 160 232 L 164 232 L 164 227.5 Q 161 228.3 162 224 Q 165 225 164 222 L 167 222 L 167 220 Z "></path><path fill="rgb(54,254,204)" stroke="rgb(54,254,204)" stroke-width="1" opacity="1" d="M 258 220 L 261 220 Q 259.3 225.2 263 224 L 263.5 222 L 275 222 Q 276 225 273 224 L 273 227 L 278 227 L 278 222 L 280 222 L 280 224 L 285 224 L 285 229 Q 289.5 227.5 288 232 L 297.5 232 L 298 234 L 283.5 234 L 283 237 Q 289.3 235.5 288.5 239 L 295 239 L 295 242 L 300 242 L 300 244 L 295 244 Q 296 241 293 242 Q 294.1 245.3 290 244 L 289.5 247 L 275 247 L 275 252 L 273 252 Q 274 247.8 271 248.5 L 271 244 L 268 244 Q 269 241 266 242 L 266 249 L 263 249 L 263 244 Q 260 245 261 242 L 256 242 Q 257.5 237.5 253 239 L 253 242 Q 250 241 251 244 L 248 244 L 248 249 L 258 249 L 258 254 Q 255 255 256 252 L 251 252 Q 252.1 255.3 248 254 Q 249 251 246 252 L 246 249 L 241 249 L 240.5 252 L 231 252 L 231 247 L 229 247 L 229 242 Q 224.5 243.5 226 239 L 214 239 L 214 242 L 209 242 Q 210.1 245.3 206 244 L 206 247 L 197 247 Q 196 242.8 199 243.5 L 199 232.5 L 201 232 Q 199.9 235.3 204 234 L 204 237 Q 207 236 206 239 L 214 239 Q 213 236 216 237 L 216 234 L 226 234 L 226.5 237 L 238 237 Q 236.5 232.5 241 234 L 241 239 L 238 239.5 L 238 247 L 246 247 Q 245 242.8 248 243.5 L 248 237 L 256 237 L 256.5 239 L 267.5 239 L 268 242 L 273 242 L 273 234 Q 270 235 271 232 L 268 232 Q 269 235 266 234 L 266 237 L 263 237 Q 260.5 229.5 268 232 L 268 224 L 266 224 L 265.5 227 L 258 227 Q 259 230 256 229 L 256 232 L 251.5 232 Q 252.3 235.5 246 234 Q 247.1 230.7 243 232 L 243 229 Q 240 230 241 227 Q 244.3 228.1 243 224 L 248 224 L 248 229 L 251 229 L 251 224 L 258 224 L 258 220 Z M 280 232 Q 279 235 283 234 Q 284 231 280 232 Z M 278 239 L 278 242 L 283 242 L 283 239 L 278 239 Z "></path><path fill="rgb(54,254,204)" stroke="rgb(54,254,204)" stroke-width="1" opacity="1" d="M 187 224 Q 190.3 222.9 189 227 Q 185.7 228.1 187 224 Z "></path><path fill="rgb(54,254,204)" stroke="rgb(54,254,204)" stroke-width="1" opacity="1" d="M 137 229 Q 141.5 227.5 140 232 Q 135.5 233.5 137 229 Z "></path><path fill="rgb(54,254,204)" stroke="rgb(54,254,204)" stroke-width="1" opacity="1" d="M 174 232 L 181.5 232 L 182 234 L 174.5 234 L 174 237 L 172 237 L 172 234 Q 175 235 174 232 Z "></path><path fill="rgb(54,254,204)" stroke="rgb(54,254,204)" stroke-width="1" opacity="1" d="M 300 234 L 305 234 Q 303.5 238.5 308 237 L 308 234 L 315 234 Q 314 238.3 317 237.5 L 317 242 Q 314 241 315 244 L 310 244 Q 311.3 248.1 308 247 L 308 244 Q 303.9 245.3 305 242 L 312 242 L 312 239 L 305 239 L 305 237 L 300 237 L 300 234 Z "></path><path fill="rgb(54,254,204)" stroke="rgb(54,254,204)" stroke-width="1" opacity="1" d="M 182 242 L 187 242 L 187 244 L 182 244 L 182 242 Z "></path><path fill="rgb(54,254,204)" stroke="rgb(54,254,204)" stroke-width="1" opacity="1" d="M 192 244 Q 195.3 242.9 194 247 Q 190.7 248.1 192 244 Z "></path><path fill="rgb(54,254,204)" stroke="rgb(54,254,204)" stroke-width="1" opacity="1" d="M 142 294 L 152 294 Q 150.9 297.3 155 296 L 155 299 Q 158 298 157 301 L 162 301 Q 161.3 304.1 164 303.5 L 164 311 Q 171.5 308.5 169 316 L 167 316 L 167 321 L 164 321 Q 165 324 162 323 L 162 327.5 Q 159 326.8 160 331 L 157 331 L 157 328 L 152 328 L 152 323 Q 149 324 150 321 L 152 320.5 L 152 306 L 150 306 L 150 311 L 145 311 L 145 308 L 142 307.5 L 142 294 Z M 145 296 L 145 299 Q 148 298 147 301 L 152 301 L 152 296 L 145 296 Z M 157 303 L 157 321 L 155 321 Q 154 324 157 323 L 157 326 L 160 326 Q 159 322 162 323 L 162 318 L 164 318 L 164 312 Q 161 312 162 306 Q 159 307 160 303 L 157 303 Z "></path><path fill="rgb(54,254,204)" stroke="rgb(54,254,204)" stroke-width="1" opacity="1" d="M 199 336 L 204 336 L 206 340 L 201 340 L 201 343 L 204 343 Q 203 346 206 345 L 206 348 L 199 348 L 198.5 345 L 189.5 345 L 189 343 L 192 343 L 192 340 Q 195 341 194 338 L 199 338 L 199 336 Z "></path><path fill="rgb(54,254,204)" stroke="rgb(54,254,204)" stroke-width="1" opacity="1" d="M 187 348 L 189 348 L 189 353 L 192 353 Q 191 356 194 355 L 194 358 L 197 358 L 197 363 Q 200 362 199 365 L 204 365 L 204 370 L 209 370 L 209 373 L 214 373 L 216 377 L 219 377 L 219 370.5 L 216 370 L 216 363 L 209 363 Q 210.1 366.3 206 365 L 206 358 Q 202.7 359.1 204 355 L 201 355 L 201 350 L 206 350 Q 204.5 354.5 209 353 L 209 350 Q 212 351 211 348 L 214 348 L 214 358 Q 217 357 216 360 L 219 360 L 219 364.5 Q 222.5 363.7 221 370 L 224 370 L 224 375 L 226 375 L 226 385 L 216 385 L 216 382 Q 213 383 214 380 L 211 380 L 211 375 L 206.5 375 Q 207.3 371.5 201 373 Q 199.9 376.3 204 375 L 204 380 L 199 380 L 199 377 Q 196 378 197 375 L 194 375 L 194 373 L 197 373 L 197 365 L 194 365 Q 195 362 192 363 L 192 360 L 189 360 L 189 355 L 184 355 L 184 353 L 187 353 L 187 348 Z M 197 373 Q 196 376 199 375 Q 200 372 197 373 Z "></path><path fill="rgb(54,254,204)" stroke="rgb(54,254,204)" stroke-width="1" opacity="1" d="M 184 360 L 187 360 L 187 363 Q 190 362 189 365 Q 186 366 187 363 L 184 363 L 184 360 Z "></path><path fill="rgb(54,254,204)" stroke="rgb(54,254,204)" stroke-width="1" opacity="1" d="M 58 363 L 63 363 Q 61.9 366.3 66 365 L 66 368 L 71 368 L 71 370 L 68 370 L 68 373 Q 65 372 66 375 Q 69 374 68 377 Q 65 378 66 375 L 63 375 L 63 370 Q 67.1 371.3 66 368 Q 61.5 369.5 63 365 L 58 365 L 58 363 Z "></path><path fill="rgb(54,254,204)" stroke="rgb(54,254,204)" stroke-width="1" opacity="1" d="M 76 365 L 81 365 Q 79.7 369.1 83 368 L 83 365 L 88 365 L 88 368 Q 91 367 90 370 Q 86.7 368.9 88 373 L 92.5 373 Q 91.7 376.5 98 375 L 98 368 L 103 368 L 103.5 370 L 110 370 L 110 373 L 121.5 373 L 122 377 L 127 377 Q 125.9 373.7 130 375 L 130.5 377 L 137 377 L 137 380 Q 141.1 378.7 140 382 L 147 382 L 147 385 L 151.5 385 Q 150.8 388 155 387 Q 154 384 157 385 L 157 390 Q 154 389 155 392 L 160 392 Q 159 389 162 390 Q 162.8 393.1 160 392.5 L 160 400 L 155 400 L 155 397 L 150 397 L 150 395 L 140 395 L 140 392 Q 135.8 393 136.5 390 L 132 390 L 132 387 Q 128.9 387.8 129.5 385 L 118.5 385 L 117.5 382 L 105.5 382 Q 106.1 379.3 103 380 L 102.5 377 L 88.5 377 L 87.5 375 L 71.5 375 L 71 373 L 80.5 373 L 81 370 L 78 370 Q 79 367 76 368 L 76 365 Z M 132 380 Q 130 388 137 385 Q 140 378 132 380 Z M 142 385 Q 141 388 145 387 Q 146 384 142 385 Z M 147 387 L 147 390 L 152 390 L 152 387 L 147 387 Z "></path><path fill="rgb(54,254,204)" stroke="rgb(54,254,204)" stroke-width="1" opacity="1" d="M 34 370 L 41 370 L 41 373 L 47.5 373 L 48.5 375 L 56 375 Q 53.5 367.5 61 370 L 61 373 L 58 373 L 58 375 Q 54.9 374.3 55.5 377 L 39 377 L 38.5 375 L 26 375 L 26 377 L 21 377 L 21 380 L 25.5 380 Q 24.7 383.5 31 382 Q 29.9 378.7 34 380 Q 33 383 36 382 L 36 387 L 41 387 L 41.5 385 L 48 385 Q 46.9 388.3 51 387 Q 50 384 53 385 L 53 382 L 66 382 L 65.5 385 L 53 385 L 53 392 L 58 392 L 58 395 L 51.5 395 L 50.5 397 L 41 397 L 40.5 395 L 31 395 L 31 390.5 Q 27.5 391.3 29 385 L 21 385 L 20.5 387 L 9 387 Q 10 384 7 385 L 7 382 Q 10 383 9 380 L 14 380 L 14 377 Q 17 378 16 375 L 25.5 375 Q 24.7 371.6 33.5 373 L 34 370 Z M 16 380 Q 15 383 19 382 Q 20 379 16 380 Z M 44 390 Q 43 393 46 392 Q 47 389 44 390 Z "></path><path fill="rgb(54,254,204)" stroke="rgb(54,254,204)" stroke-width="1" opacity="1" d="M 78 382 L 81 382 L 81 385 L 85 385 Q 83.9 388.3 88 387 L 88 390 L 83 390 L 83 387 L 78 387 L 78 382 Z "></path><path fill="rgb(54,254,204)" stroke="rgb(54,254,204)" stroke-width="1" opacity="1" d="M 68 387 Q 72.5 385.5 71 390 Q 66.5 391.5 68 387 Z "></path><path fill="rgb(54,254,204)" stroke="rgb(54,254,204)" stroke-width="1" opacity="1" d="M 164 390 L 167 390.5 L 167 400 L 164 399.5 L 164 390 Z "></path><path fill="rgb(54,254,204)" stroke="rgb(54,254,204)" stroke-width="1" opacity="1" d="M 61 392 L 66 392 L 66 395 Q 69 394 68 397 L 73 397 L 73 400 L 68 400 L 67.5 397 L 61 397 L 61 392 Z "></path><path fill="rgb(54,254,204)" stroke="rgb(54,254,204)" stroke-width="1" opacity="1" d="M 172 395 Q 179.5 392.5 177 400 Q 169.5 402.5 172 395 Z "></path><path fill="rgb(54,254,204)" stroke="rgb(54,254,204)" stroke-width="1" opacity="1" d="M 78 397 L 83 397 L 83 400 L 78 400 L 78 397 Z "></path><path fill="rgb(3,20,10)" stroke="rgb(3,20,10)" stroke-width="1" opacity="0.9058823529411765" d="M 195.5 18 L 206.5 19 Q 207.7 16.8 212.5 18 Q 227.8 22.7 235.5 35 L 243 37 L 247.5 46 L 257 50.5 L 261 57 L 264 58.5 L 270.5 66 L 282 73.5 L 280 74.5 L 280 76.5 L 280 79 L 275 79 L 275 76 L 271 74 L 271 71 L 268 71 L 266 67 L 261 67 L 261 62 Q 256.5 63.5 258 59 L 253 59 Q 254 56 251 57 L 251 54 L 248 54 L 248 49 L 243.5 49 Q 244.3 45.5 238 47 L 238 42.5 Q 235 43.3 236 39 L 231 39 Q 232 36 229 37 Q 230.1 40.3 226 39 Q 224.9 35.7 229 37 L 229 32 L 221 32 L 221 27 Q 218 28 219 25 L 206.5 25 L 206 22 L 204 22 L 204 25 L 199.5 25 Q 200.3 28.5 194 27 L 194 30 Q 198.1 28.7 197 32 L 192.5 32 Q 193.3 35.5 187 34 L 187 39 L 184 39 L 184 44 L 182 44 L 182 49 L 179 49 L 179 54 Q 183.5 52.5 182 57 L 179 57 L 179 62 L 182 62 Q 181 65 184 64 L 184 67 L 187 67 L 189 71 L 192 71 L 192 74 L 199 74 L 199 79 Q 202 78 201 81 L 206 81 L 206 84 L 209 84 Q 208 87 211 86 L 211 89 L 215.5 89 Q 214.8 92 219 91 L 219 94 Q 222 93 221 96 L 224 96 L 224 99 Q 227 98 226 101 L 229 101 L 229 104 L 234 104 L 234 109 L 238 109 Q 236.9 112.3 241 111 Q 240 114 243 113 L 243 116 L 248 116 L 248 121 L 251 121 Q 250 124 253 123 L 253 126 Q 257.1 124.7 256 128 Q 252.3 126.5 253 129.5 L 252 129.5 Q 250.6 123.4 245.5 121 L 236.5 116 L 220 102.5 L 215.5 96 L 192.5 79 L 185.5 77 L 181 72.5 L 176 62.5 L 175 54.5 L 176 53.5 L 176 44.5 L 182 33.5 L 183 27 Q 190.5 24.5 195.5 18 Z "></path><path fill="rgb(3,20,10)" stroke="rgb(3,20,10)" stroke-width="1" opacity="0.9058823529411765" d="M 305.5 99 L 307.5 100 Q 309 97.5 310.5 101 L 322 111.5 L 326.5 117 L 333 121.5 L 347 139.5 L 358 150.5 L 361 157.5 L 372 169.5 L 375 178.5 L 376 186.5 Q 381.4 190.6 383 198.5 L 381 206.5 Q 384.5 210.5 383 219.5 L 381 223.5 L 377 242.5 L 358.5 262 L 342.5 268 L 336.5 272 L 330.5 272 L 317.5 276 L 312.5 276 L 311.5 275 L 301.5 275 L 300.5 276 L 290.5 276 L 284.5 274 L 262.5 274 L 258.5 272 L 252.5 272 L 238.5 268 L 226 268 L 226 264 L 229 264 Q 228 261 231 262 L 231 264 L 236 264 Q 235 261 238 262 L 238 264 L 243 264 L 243 266 L 251 266 Q 249.7 270.1 253 269 L 253.5 266 L 263 266 Q 261.5 270.5 266 269 Q 264.7 264.9 268 266 L 268.5 269 L 287.5 269 L 288.5 271 L 303 271 L 303 269 L 308 269 Q 307 272 310 271 L 310.5 269 L 320 269 Q 318.7 264.9 322 266 L 322 269 L 327 269 L 327 266 L 334.5 266 L 335 264 L 341.5 264 L 342.5 262 L 350 262 L 350 257 L 354 257 L 354 254 Q 358.1 255.3 357 252 L 362 252 L 362 249 Q 365 250 364 247 L 367 247 L 367 244 Q 370 245 369 242 L 372 242 L 372 237 L 374 237 L 374 232 Q 378.5 233.5 377 229 L 374 229 L 374 224 L 377 224 L 377 220 Q 380.3 221.1 379 217 L 377 216.5 L 377 197.5 L 374 197 L 374 192.5 Q 370.5 193.3 372 187 L 369 187 L 369 178 Q 365.7 179.1 367 175 L 364 175 L 364 170.5 Q 360.5 171.3 362 165 L 359 165 Q 360 162 357 163 L 357 160 L 354 160 L 354 155 L 352 155 L 352 150 Q 349 151 350 148 L 345.5 148 Q 346.3 145 342 146 L 342 141 Q 338.7 142.1 340 138 L 337 138 Q 338 135 335 136 L 335 131 L 332 131 L 332 128 Q 329 129 330 126 L 327 126 L 327 123 Q 324 124 325 121 L 322 121 L 322 118 L 317 118 L 317 113 Q 314 114 315 111 L 312 111 L 312 109 L 310 109 L 310 106 Q 307 107 308 104 L 305 104 L 305.5 99 Z "></path><path fill="rgb(3,20,10)" stroke="rgb(3,20,10)" stroke-width="1" opacity="0.9058823529411765" d="M 275 148 L 279.5 148 Q 278.8 151 283 150 L 283 153 Q 286 152 285 155 L 288 155 L 288 160 L 293 160 Q 291.7 164.1 295 163 L 295 168 L 298 168 Q 297 171 300 170 L 300 173 L 303 173 Q 302 176 305 175 L 305 178 L 308 178 L 308 183 L 312 185 L 312 190 L 315 190 Q 314 193 317 192 L 317 197 L 320 197 Q 318.5 203.3 322 202.5 L 322 210 Q 319 209 320 212 L 317 212 L 316.5 215 L 303 215 Q 304.5 210.5 300 212 L 299.5 215 L 290 215 Q 291.3 210.9 288 212 L 288 215 L 283 215 L 282.5 212 L 261.5 212 L 260.5 210 L 248.5 210 L 248 205 L 253 205 L 253 203.5 L 254.5 204 L 276.5 209 L 300.5 209 L 308 204 Q 306.7 200.7 311.5 202 Q 314.3 200.8 313 195.5 Q 304.1 177.9 289.5 166 L 283 160.5 L 279.5 155 L 275 151.5 L 275 148 Z "></path><path fill="rgb(3,20,10)" stroke="rgb(3,20,10)" stroke-width="1" opacity="0.9058823529411765" d="M 120.5 187 Q 126.5 186 128.5 189 L 157.5 190 L 163.5 192 L 173.5 192 L 181.5 194 L 183.5 193 L 186.5 194 L 188.5 194 L 215.5 201 L 216.5 200 L 225.5 200 L 227.5 201 L 229 200.5 Q 228.3 203.1 231 202 L 231 207 L 216.5 207 Q 217.3 203.5 211 205 Q 212 208 209 207 L 209 205 L 204 205 L 203.5 202 L 184.5 202 Q 185.3 198.5 179 200 L 178.5 197 L 162.5 197 L 161.5 195 L 150 195 Q 151.5 190.5 147 192 L 146.5 195 L 130 195 L 130 192 L 125 192 L 125 195 Q 120.9 193.7 122 197 L 110.5 197 L 110 200 L 105 200 Q 106.3 195.9 103 197 L 103 200 L 100 200 Q 101 203 98 202 L 98 205 L 90 205 L 90 215 Q 87 214 88 217 L 85 217 Q 86.3 221.1 83 220 Q 84.3 225.3 81 224.5 L 81 229 L 83 229 L 83 236.5 Q 85.8 235.9 85 239 L 83 239 L 83 244 L 85 244 L 85 249 L 88 249 L 88 256.5 L 90 257.5 L 90 264 L 93 264 Q 92 267 95 266 L 95 271 L 98 271 L 98 276 Q 101.3 274.9 100 279 L 103 279 L 103 284 Q 106 283 105 286 L 108 286 Q 106.7 290.1 110 289 L 110 299 L 114.5 299 Q 113.7 302.5 120 301 L 120 306 Q 127.5 303.5 125 311 Q 128 310 127 313 L 132 313 L 132 321 Q 136.3 320 135.5 323 L 140 323 L 140 328 L 145 328 L 145 332.5 Q 148 331.8 147 336 L 150 336 L 152 340 L 155 340 L 155 346.5 L 150 344.5 Q 150.8 342.3 148.5 343 L 140 335.5 L 133 325 L 127 320.5 L 115.5 306 L 104.5 301 L 101 297.5 Q 99.4 281.1 89.5 273 L 84 271 L 83 268.5 L 83 256.5 L 78 244.5 Q 78.6 238.4 76 235.5 L 76 227.5 L 78 217.5 L 83 212.5 Q 84.1 205.1 89.5 202 L 101.5 195 L 112.5 194 L 120.5 187 Z "></path><path fill="rgb(3,20,10)" stroke="rgb(3,20,10)" stroke-width="1" opacity="0.9058823529411765" d="M 155 252 L 166.5 252 L 167.5 254 L 178.5 254 L 179.5 257 L 191.5 257 Q 190.7 260.5 197 259 Q 195.5 262.7 198.5 262 L 198.5 263 L 195.5 265 L 185.5 260 L 173.5 260 Q 169.9 257.1 162.5 258 L 161 260.5 L 168 267.5 L 172 278.5 L 178 286 L 183 288.5 L 182.5 291 L 177 291 Q 178.1 287.7 174 289 L 174 286 Q 171 287 172 284 L 169 284 L 169 279 Q 165.7 280.1 167 276 L 164 276 Q 165 273 162 274 Q 163 269.8 160 270.5 L 160 266 Q 155.8 267 156.5 264 L 152 264 L 152 257 L 155 257 L 155 252 Z "></path><path fill="rgb(3,20,10)" stroke="rgb(3,20,10)" stroke-width="1" opacity="0.9058823529411765" d="M 204 313 Q 206.7 311.9 206 314.5 L 222.5 335 L 230 341.5 Q 231.6 348.4 237.5 351 L 247 356.5 Q 248.2 366.3 255.5 370 L 261 373.5 Q 263.1 383.9 270.5 389 L 278 392 L 279 400 L 271 400 L 271 397 L 268 397 Q 269 394 266 395 L 266 392 L 263 392 L 263 387 Q 260 388 261 385 L 258 385 L 258 380.5 Q 255 381.3 256 377 L 253 377 L 251 373 L 248 373 L 248 368.5 Q 245 369.3 246 365 L 241.5 365 Q 242.3 362 238 363 Q 239 358.8 236 359.5 L 236 355 L 234 355 L 234 350 L 229.5 350 Q 230.3 347 226 348 L 226 345 Q 223 346 224 343 L 221 343 L 221 338 L 216 338 Q 217 335 214 336 L 214 331 L 211 331 L 211 328 Q 208 329 209 326 L 206 326 Q 207.5 319.7 204 320.5 L 204 313 Z "></path><path fill="rgb(3,20,10)" stroke="rgb(3,20,10)" stroke-width="1" opacity="0.9058823529411765" d="M 199 323 Q 202.3 321.9 201 326 Q 197.7 327.1 199 323 Z "></path><path fill="rgb(3,20,10)" stroke="rgb(3,20,10)" stroke-width="1" opacity="0.9058823529411765" d="M 85.5 349 L 89.5 352 L 99.5 354 L 105.5 357 L 110.5 357 L 118.5 360 L 126.5 360 L 130.5 359 L 146.5 367 L 149.5 365 L 150 370 L 145 370 Q 146.5 374.5 142 373 L 142 370 L 137 370 L 137 368 L 125.5 368 L 124.5 365 L 113.5 365 Q 114.3 361.5 108 363 L 108 360 L 103.5 360 Q 104.3 357 100 358 L 99.5 360 L 90 360 L 89.5 358 L 78 358 L 77.5 355 L 66 355 Q 67.5 359.5 63 358 L 62.5 355 L 48 355 L 48 358 L 44 358 Q 45.1 361.3 41 360 L 40.5 358 L 31 358 Q 32 361 29 360 L 29 363 L 26 363 Q 27.3 358.9 24 360 L 24 363 L 16 363 Q 17 366 14 365 L 14 368 L 7.5 368 Q 8.3 371.5 2 370 L 2 375 L 0 375 L 0 363.5 L 1.5 362 L 11.5 355 L 19.5 355 L 23.5 356 L 27.5 354 L 38.5 353 L 47.5 350 L 49.5 350 L 63.5 350 L 64.5 351 L 79.5 352 L 85.5 349 Z "></path><path fill="rgb(3,20,10)" stroke="rgb(3,20,10)" stroke-width="1" opacity="0.9058823529411765" d="M 147 373 Q 151.1 371.7 150 375 Q 145.9 376.3 147 373 Z "></path><path fill="rgb(21,254,190)" stroke="rgb(21,254,190)" stroke-width="1" opacity="1" d="M 209 27 L 214 27 L 214 30 L 209 30 L 209 27 Z "></path><path fill="rgb(21,254,190)" stroke="rgb(21,254,190)" stroke-width="1" opacity="1" d="M 199 30 Q 202 29 201 32 Q 198 33 199 30 Z "></path><path fill="rgb(21,254,190)" stroke="rgb(21,254,190)" stroke-width="1" opacity="1" d="M 216 30 L 219 30 L 221 34 Q 218 35 219 32 L 216 32 L 216 30 Z "></path><path fill="rgb(21,254,190)" stroke="rgb(21,254,190)" stroke-width="1" opacity="1" d="M 194 34 Q 198.5 32.5 197 37 Q 192.5 38.5 194 34 Z "></path><path fill="rgb(21,254,190)" stroke="rgb(21,254,190)" stroke-width="1" opacity="1" d="M 221 37 Q 225.1 35.7 224 39 Q 219.9 40.3 221 37 Z "></path><path fill="rgb(21,254,190)" stroke="rgb(21,254,190)" stroke-width="1" opacity="1" d="M 189 39 Q 193.5 37.5 192 42 Q 187.5 43.5 189 39 Z "></path><path fill="rgb(21,254,190)" stroke="rgb(21,254,190)" stroke-width="1" opacity="1" d="M 187 44 Q 190.3 42.9 189 47 Q 185.7 48.1 187 44 Z "></path><path fill="rgb(21,254,190)" stroke="rgb(21,254,190)" stroke-width="1" opacity="1" d="M 221 47 Q 225.1 45.7 224 49 Q 219.9 50.3 221 47 Z "></path><path fill="rgb(21,254,190)" stroke="rgb(21,254,190)" stroke-width="1" opacity="1" d="M 184 49 L 187 49 L 187 57 L 184 57 L 184 49 Z "></path><path fill="rgb(21,254,190)" stroke="rgb(21,254,190)" stroke-width="1" opacity="1" d="M 219 54 Q 222.3 52.9 221 57 Q 217.7 58.1 219 54 Z "></path><path fill="rgb(21,254,190)" stroke="rgb(21,254,190)" stroke-width="1" opacity="1" d="M 238 57 Q 242.3 56 241.5 59 L 246 59 L 246 64 L 253 64 L 253 67 L 256 67 L 258 71 L 263 71 L 263 74 L 268 74 L 268 79 Q 272.1 77.7 271 81 L 275 81 L 275 84 L 273 84 L 273 89 L 271 89 L 271 84 Q 266.5 85.5 268 81 L 261 81 Q 262.1 77.7 258 79 L 258 76 Q 255 77 256 74 L 248 74 Q 250.5 66.5 243 69 Q 244 72 241 71 L 241 74 Q 236.9 72.7 238 76 L 241 76 L 241 81 L 238 81 L 238 86 L 241 86 L 241 91 Q 244.3 89.9 243 94 L 246 94 L 246 104 Q 249 103 248 106 L 251 106 L 251 109 L 253 109 L 253 111 L 256 111 Q 255 114 258 113 L 258 118 Q 255 119 256 116 L 253 116 L 253 111 L 248 111 Q 249 108 246 109 L 246 106 L 243 106 Q 244 103 241 104 L 241 101 L 238 101 Q 239 98 236 99 Q 237 94.8 234 95.5 L 234 91 L 231 91 Q 232 88 229 89 L 229 86 L 226 86 L 226 74 L 229 74 L 229 69 L 226 69 Q 227 66 224 67 L 224 64 Q 227.1 64.8 226.5 62 L 234 62 L 234 59 Q 239.2 60.7 238 57 Z "></path><path fill="rgb(21,254,190)" stroke="rgb(21,254,190)" stroke-width="1" opacity="1" d="M 187 59 Q 190.3 57.9 189 62 L 192 62 Q 191 65 194 64 L 194 67 L 200.5 67 L 201 69 L 194 69 Q 195 66 192 67 L 192 64 L 189 64 Q 190 61 187 62 L 187 59 Z "></path><path fill="rgb(21,254,190)" stroke="rgb(21,254,190)" stroke-width="1" opacity="1" d="M 214 59 Q 217.3 57.9 216 62 Q 212.7 63.1 214 59 Z "></path><path fill="rgb(21,254,190)" stroke="rgb(21,254,190)" stroke-width="1" opacity="1" d="M 206 64 Q 210.5 62.5 209 67 Q 204.5 68.5 206 64 Z "></path><path fill="rgb(21,254,190)" stroke="rgb(21,254,190)" stroke-width="1" opacity="1" d="M 219 67 Q 222 66 221 69 Q 218 70 219 67 Z "></path><path fill="rgb(21,254,190)" stroke="rgb(21,254,190)" stroke-width="1" opacity="1" d="M 303 104 L 305 104 L 305 109 L 308 109 L 308 111 L 312 113 L 312 116 L 315 116 Q 314 119 317 118 L 317 121 L 322 121 L 322 126 L 325 126 L 325 131 Q 328 130 327 133 L 330 133 L 330 136 Q 333 135 332 138 L 335 138 L 335 141 Q 338 140 337 143 L 340 143 L 340 146 Q 343 145 342 148 L 345 148 L 345 152.5 Q 348.5 151.7 347 158 L 350 158 Q 349 161 352 160 Q 351 164.3 354 163.5 L 354 170 L 357 170 Q 356 174.3 359 173.5 L 359 178 L 362 178 Q 360.5 184.3 364 183.5 L 364 196.5 L 367 197 L 367 200 L 364 200 L 364 206.5 Q 360.5 205.7 362 212 Q 357.5 210.5 359 215 L 354 215 L 354 220 Q 351 219 352 222 Q 355 221 354 224 L 357 224 L 357 234 L 354 234 L 354 238.5 Q 351 237.8 352 242 L 347 242 Q 348 245 345 244 L 345 247 L 340 247 L 340 249 L 332 249 L 332 252 Q 329 251 330 254 L 327 254 L 326.5 257 L 315.5 257 Q 316.3 260.5 310 259 L 309.5 262 L 271 262 L 270.5 259 L 243.5 259 L 242.5 257 L 234 257 Q 235.1 260.3 231 259 L 231.5 254 L 248 254 L 248.5 257 L 266 257 L 266 254 L 275 254 L 275 257 L 279.5 257 Q 278.8 260 283 259 Q 282 256 285 257 L 285 254 Q 291.3 255.5 290.5 252 L 298 252 L 298.5 249 L 311.5 249 L 312.5 247 L 324.5 247 L 325 244 L 332 244 L 332 239 L 335 239 L 335 234 Q 330.8 235 331.5 232 L 322 232 L 322 227 L 320 227 Q 321.1 230.3 317 229 L 317 227 L 312 227 L 311.5 224 L 288.5 224 L 287.5 222 L 275.5 222 L 275 220 L 292.5 220 L 293.5 222 L 325 222 L 325 220 L 331.5 220 L 332 217 L 337 217 L 337 220 L 342 220 L 342 215 L 347 215 L 347.5 212 L 354 212 L 354 207 L 350 207 Q 351.1 203.7 347 205 L 347 202 Q 344 203 345 200 L 340 200 L 340 197 L 335.5 197 Q 336.3 193.5 330 195 L 330 192 L 327 192 Q 328 189 325 190 L 325 187 L 322 187 Q 323 184 320 185 L 320 180 L 317 180 Q 318 177 315 178 L 315 175 L 312 175 Q 313 172 310 173 L 310 168.5 Q 307 169.3 308 165 L 305 165 Q 306 162 303 163 L 303 160 L 300 160 Q 301 157 298 158 L 298 155 L 295 155 Q 296 152 293 153 L 293 150 L 290 150 L 288 146 L 285 146 Q 286.3 141.9 283 143 Q 284.5 147.5 280 146 Q 278.5 141.5 283 143 L 283 138 L 285 138 L 285 141 L 288 141 Q 287 144 290 143 L 290 146 L 293 146 L 295 150 L 298 150 L 298 153 Q 301 152 300 155 L 303 155 Q 302 159.3 305 158.5 L 305 163 L 308 163 Q 307 166 310 165 L 310 168 L 312 168 L 312 173 Q 316.3 172 315.5 175 L 320 175 L 320 178 Q 323 177 322 180 L 327 180 L 327 183 L 336.5 183 Q 335.7 186.5 342 185 L 342 187 L 347 187 L 347 185 L 350 184.5 L 350 170 L 347 170 Q 348 167 345 168 L 345 160 L 342 160 Q 343 157 340 158 L 340 153 L 337 153 L 337 148 Q 334 149 335 146 L 332 146 Q 333.3 141.9 330 143 L 330 138 Q 325.8 139 326.5 136 L 320 136 L 320 133 L 317 133 Q 318 130 315 131 L 315 126 Q 310.5 127.5 312 123 Q 316.1 124.3 315 121 L 312 121 Q 313.3 116.9 310 118 Q 311.3 122.1 308 121 L 308 111 L 303 111 Q 304.1 114.3 300 113 L 298 109 L 300 109 L 300 106 Q 304.1 107.3 303 104 Z "></path><path fill="rgb(21,254,190)" stroke="rgb(21,254,190)" stroke-width="1" opacity="1" d="M 125 197 L 130 197 L 130 200 L 135 200 L 135 197 L 140 197 L 140 202 L 135 202 L 135 205 L 140 205 L 140 207 L 132.5 207 Q 133.3 203.5 127 205 L 127 202 L 122 202 L 122 207 L 113 207 L 113 210 L 110 210 Q 111 213 108 212 L 108 217 Q 111.3 215.9 110 220 L 113 220 L 115 224 L 118 224 L 118 227 L 122 229 L 122 232 L 131.5 232 L 132.5 234 L 140 234 L 140 237 L 146.5 237 L 147.5 239 L 155 239 Q 154 236 157 237 L 157 239 L 162 239 L 162.5 242 L 173.5 242 L 174.5 244 L 186.5 244 L 187 247 L 193.5 247 L 194 249 L 184.5 249 L 183.5 247 L 174.5 247 L 173.5 244 L 160.5 244 L 159.5 242 L 142.5 242 L 142 239 L 132.5 239 L 131.5 237 L 113.5 237 L 112.5 234 L 100.5 234 L 100 233.5 L 100 227 Q 96.7 228.1 98 224 L 95 224 Q 96.3 228.1 93 227 L 93 215.5 Q 96 216.3 95 212 L 98 212 Q 97 209 100 210 L 100 207 L 104.5 207 Q 103.8 204 108 205 L 108 202 Q 111 203 110 200 L 113 200 Q 112 203 115 202 L 115.5 200 L 125 200 L 125 197 Z "></path><path fill="rgb(21,254,190)" stroke="rgb(21,254,190)" stroke-width="1" opacity="1" d="M 142 200 L 161.5 200 L 162 205 L 160 205 L 159.5 202 L 142.5 202 L 142 200 Z "></path><path fill="rgb(21,254,190)" stroke="rgb(21,254,190)" stroke-width="1" opacity="1" d="M 167 202 L 178.5 202 L 179 205 L 184 205 Q 182.5 200.5 187 202 L 187 205 L 192 205 L 192 207 L 179.5 207 L 178.5 205 L 167.5 205 L 167 202 Z "></path><path fill="rgb(21,254,190)" stroke="rgb(21,254,190)" stroke-width="1" opacity="1" d="M 197 207 L 208.5 207 L 209 210 L 211 210 Q 209.5 205.5 214 207 L 214 210 L 220.5 210 L 221 212 L 209.5 212 L 208.5 210 L 197.5 210 L 197 207 Z "></path><path fill="rgb(21,254,190)" stroke="rgb(21,254,190)" stroke-width="1" opacity="1" d="M 322 207 Q 326.5 205.5 325 210 Q 320.5 211.5 322 207 Z "></path><path fill="rgb(21,254,190)" stroke="rgb(21,254,190)" stroke-width="1" opacity="1" d="M 226 210 Q 230.3 209 229.5 212 L 234 212 L 234.5 210 L 241 210 Q 240 213 243 212 Q 241.9 208.7 246 210 Q 247.1 213.3 243 212 L 243 215 L 248 215 L 248 217 L 241.5 217 L 240.5 215 L 226 215 L 226 210 Z "></path><path fill="rgb(21,254,190)" stroke="rgb(21,254,190)" stroke-width="1" opacity="1" d="M 258 217 L 270.5 217 L 271 220 L 258.5 220 L 258 217 Z "></path><path fill="rgb(21,254,190)" stroke="rgb(21,254,190)" stroke-width="1" opacity="1" d="M 197 247 Q 200 246 199 249 L 204 249 L 204 252 L 197 252 L 197 247 Z "></path><path fill="rgb(21,254,190)" stroke="rgb(21,254,190)" stroke-width="1" opacity="1" d="M 147 249 L 150 249 L 150 256.5 Q 152.8 255.9 152 259 Q 149 260 150 257 L 147 257 L 147 249 Z "></path><path fill="rgb(21,254,190)" stroke="rgb(21,254,190)" stroke-width="1" opacity="1" d="M 152 252 Q 156.1 250.7 155 254 Q 150.9 255.3 152 252 Z "></path><path fill="rgb(21,254,190)" stroke="rgb(21,254,190)" stroke-width="1" opacity="1" d="M 197 257 Q 200 256 199 259 Q 196 260 197 257 Z "></path><path fill="rgb(21,254,190)" stroke="rgb(21,254,190)" stroke-width="1" opacity="1" d="M 132 271 L 137 271 L 137.5 274 L 152 274 Q 150.9 277.3 155 276 L 155 279 Q 158 278 157 281 L 160 281 L 160 284 L 164 286 L 164 289 L 167 289 Q 166 292 169 291 L 169 294 L 172 294 Q 171 297 174 296 L 174 299 Q 178.1 297.7 177 301 L 174 301 Q 175 304 172 303 L 172 306 L 167 306 L 167 301 Q 162.9 302.3 164 299 L 160 299 L 160 296 L 157 296 Q 158 293 155 294 L 155 291 L 152 291 Q 153 288 150 289 L 150 284 L 145 284 Q 146.1 287.3 142 286 L 142 284 L 137 284 Q 137.8 287.1 135 286.5 L 135 294 Q 138 293 137 296 L 135 296.5 L 135 303 L 137 303 L 137 308 L 140 308 L 140 312.5 Q 143 311.8 142 316 L 145 316 Q 144 319 147 318 L 147 323 L 150 323 L 150 326 Q 153 325 152 328 L 155 328 L 155 332.5 Q 158.5 331.7 157 338 L 155 338 L 155 333 L 152 333 Q 153 330 150 331 L 150 326 L 147 326 L 147 323 Q 144 324 145 321 L 142 321 L 142 318 Q 139 319 140 316 L 137 316 L 137 311 Q 133.7 312.1 135 308 L 132 308 Q 133 305 130 306 L 130 301 L 127 301 Q 128 298 125 299 L 125 296 L 122 296 L 122 291.5 Q 118.5 292.3 120 286 L 122 286 L 122 281 L 125 281 Q 124 278 127 279 L 127 276 L 130 276 Q 129 273 132 274 L 132 271 Z "></path><path fill="rgb(21,254,190)" stroke="rgb(21,254,190)" stroke-width="1" opacity="1" d="M 110 294 Q 114.1 292.7 113 296 Q 108.9 297.3 110 294 Z "></path><path fill="rgb(21,254,190)" stroke="rgb(21,254,190)" stroke-width="1" opacity="1" d="M 177 294 Q 180 293 179 296 Q 176 297 177 294 Z "></path><path fill="rgb(21,254,190)" stroke="rgb(21,254,190)" stroke-width="1" opacity="1" d="M 199 326 Q 202 325 201 328 L 204 328 L 204 331 Q 207 330 206 333 L 209 333 L 209 336 L 211 336 L 211 338 L 214 338 Q 213 341 216 340 L 216 345 L 219 345 L 219 348 Q 222 347 221 350 L 224 350 L 224 353 Q 227 352 226 355 L 229 355 Q 228 359.3 231 358.5 L 231 363 L 234 363 Q 233 366 236 365 L 236 368 L 238 368 L 238 373 L 243 373 L 243 380 L 246 380 Q 245.3 383.1 248 382.5 L 248 390 Q 245 389 246 392 L 243 392 L 243 395 Q 240 394 241 397 L 238 397 L 238 400 L 226 400 L 226 397 L 219.5 397 L 218.5 395 L 211 395 L 211 392 Q 208 393 209 390 L 204 390 L 204 387 L 201 387 L 201 385 L 199 385 L 199 382 Q 196 383 197 380 L 194 380 L 194 377 L 197 377 L 197 380 Q 200 379 199 382 L 204 382 L 204 385 Q 207 384 206 387 L 209 387 L 209 390 Q 212 389 211 392 L 225.5 392 L 226 395 L 231 395 L 231 392 L 234 392 Q 233 389 236 390 L 236 385 L 234 384.5 L 234 373 L 231 373 L 231 368 L 229 368 L 229 363 L 226 363 L 226 358 Q 222.7 359.1 224 355 L 221 355 L 221 350 Q 218 351 219 348 L 216 348 L 216 345 Q 213 346 214 343 L 211 343 L 211 338 L 206 338 Q 207 335 204 336 L 204 333 L 201 333 L 201 328 Q 198 329 199 326 Z "></path><path fill="rgb(21,254,190)" stroke="rgb(21,254,190)" stroke-width="1" opacity="1" d="M 39 360 L 77.5 360 L 78.5 363 L 98 363 L 98 368 L 95 368 L 94.5 365 L 78.5 365 L 77.5 363 L 71 363 Q 72.1 366.3 68 365 L 67.5 363 L 51 363 L 51 368 Q 54 367 53 370 Q 49.9 370.8 50.5 368 L 29 368 L 29 370 L 21.5 370 L 21 373 L 16.5 373 Q 17.3 376.5 11 375 Q 12 378 9 377 L 9 380 L 4 380 Q 4.8 383.1 2 382.5 L 2 390 L 11 390 Q 9.9 393.3 14 392 L 14 395 L 11 395 L 11 400 L 0 400 L 0 377 Q 3 378 2 375 L 7 375 Q 6 372 9 373 L 9 370 L 16 370 L 16 365 L 21 365 Q 19.5 369.5 24 368 L 24 365 Q 27 366 26 363 L 29 363 Q 28 366 31 365 L 31.5 363 L 39 363 L 39 360 Z "></path><path fill="rgb(21,254,190)" stroke="rgb(21,254,190)" stroke-width="1" opacity="1" d="M 182 360 Q 185.3 358.9 184 363 L 187 363 L 187 368 Q 190 367 189 370 L 192 370 L 192 373 Q 195 372 194 375 Q 191 376 192 373 L 189 373 L 189 370 Q 186 371 187 368 L 184 368 Q 185.3 363.9 182 365 L 182 368 Q 177.9 366.7 179 370 L 182 370 Q 180.7 374.1 184 373 L 184 377 L 187 377 L 187 380 Q 190 379 189 382 L 192 382 L 192 387 L 187 387 L 187 380 Q 182.5 381.5 184 377 L 179 377 L 179 380 L 182 380 Q 181 383 184 382 L 184 385 Q 180.7 386.1 182 382 L 177.5 382 Q 178.3 379 174 380 Q 175 383 172 382 L 172 377 Q 175 378 174 375 L 177 375 L 177 368 L 179 368 L 179 363 Q 183.5 364.5 182 360 Z M 177 375 Q 176 378 179 377 Q 180 374 177 375 Z "></path><path fill="rgb(21,254,190)" stroke="rgb(21,254,190)" stroke-width="1" opacity="1" d="M 100 365 L 105 365 L 105.5 368 L 117.5 368 L 118.5 370 L 125 370 L 125 373 L 118 373 L 117.5 370 L 105.5 370 Q 106.3 366.5 100 368 L 100 365 Z "></path><path fill="rgb(21,254,190)" stroke="rgb(21,254,190)" stroke-width="1" opacity="1" d="M 127 373 L 132 373 L 132 375 L 127 375 L 127 373 Z "></path><path fill="rgb(21,254,190)" stroke="rgb(21,254,190)" stroke-width="1" opacity="1" d="M 135 375 L 144.5 375 Q 143.9 377.8 147 377 Q 145.9 373.7 150 375 L 150 380 Q 153 379 152 382 L 145 382 L 145 380 L 140 380 L 140 377 L 135 377 L 135 375 Z "></path><path fill="rgb(21,254,190)" stroke="rgb(21,254,190)" stroke-width="1" opacity="1" d="M 167 382 Q 170.3 380.9 169 385 L 172 385 Q 171 388 174 387 L 174 392 Q 171 393 172 390 L 167 390 L 167 387 L 162 387 L 162 385 L 167 385 L 167 382 Z "></path><path fill="rgb(21,254,190)" stroke="rgb(21,254,190)" stroke-width="1" opacity="1" d="M 179 390 Q 183.3 389 182.5 392 L 189 392 L 189 395 L 194 395 L 194 397 L 201 397 L 201 400 L 192 400 L 192 397 Q 187.8 398 188.5 395 L 182 395 L 182 392 Q 177.9 393.3 179 390 Z "></path><path fill="rgb(21,254,190)" stroke="rgb(21,254,190)" stroke-width="1" opacity="1" d="M 16 397 L 45.5 397 L 46 400 L 16.5 400 L 16 397 Z "></path><path fill="rgb(21,254,190)" stroke="rgb(21,254,190)" stroke-width="1" opacity="1" d="M 51 397 L 60.5 397 L 61 400 L 51.5 400 L 51 397 Z "></path><path fill="rgb(71,255,209)" stroke="rgb(71,255,209)" stroke-width="1" opacity="1" d="M 209 30 L 216 30 L 216 32 L 219 32 Q 218 35 221 34 L 221 43.5 L 224 44 L 224 47 L 221 47 L 221 51.5 Q 217.5 50.7 219 57 L 216 57 Q 217 60 214 59 L 214 52 L 209 52 L 209 56.5 Q 212.5 55.7 211 62 Q 208 61 209 64 L 204 64 L 203.5 67 L 194 67 Q 195 62.8 192 63.5 L 192 59 L 187 59 L 187 54 L 189 54 L 189 44.5 L 192 44 L 192 39 Q 195 40 194 37 L 199 37 L 199 32 L 208.5 32 L 209 30 Z M 204 34 Q 206 39 201 37 Q 199 45 206 42 L 206 35 L 204 34 Z M 211 34 L 211 47 L 214 47 L 214 49 L 216 49 L 216 44 L 219 44 L 219 39 L 216 39 Q 217 36 214 37 L 214 34 L 211 34 Z M 197 39 Q 196 43 199 42 Q 200 38 197 39 Z M 197 44 Q 199 49 194 47 Q 193 50 197 49 L 197 52 L 201 52 Q 200 55 204 54 L 204 49 L 201 49 Q 202 46 199 47 L 199 44 L 197 44 Z M 194 54 L 194 62 L 197 62 Q 196 65 199 64 L 199 57 Q 196 58 197 54 L 194 54 Z M 204 54 Q 206 59 201 57 L 201 59 L 204 59 Q 203 63 206 62 L 206 55 L 204 54 Z "></path><path fill="rgb(71,255,209)" stroke="rgb(71,255,209)" stroke-width="1" opacity="1" d="M 258 96 L 263 96 L 263 99 Q 260 98 261 101 L 258 101 L 258 96 Z "></path><path fill="rgb(71,255,209)" stroke="rgb(71,255,209)" stroke-width="1" opacity="1" d="M 295 121 L 298 121 L 298 125.5 Q 301.5 124.7 300 131 Q 296.7 132.1 298 128 L 293 128 L 293 123 Q 296 124 295 121 Z "></path><path fill="rgb(71,255,209)" stroke="rgb(71,255,209)" stroke-width="1" opacity="1" d="M 303 131 L 308 131 Q 307 134 310 133 L 310 138 Q 307 139 308 136 L 305 136 L 305 133 Q 302 134 303 131 Z "></path><path fill="rgb(71,255,209)" stroke="rgb(71,255,209)" stroke-width="1" opacity="1" d="M 288 136 L 294.5 136 Q 293.7 139.5 300 138 L 300 141 L 303 141 Q 302 144 305 143 L 305 146 Q 302 145 303 148 L 300 148 Q 301 145 298 146 L 298 143 L 293 143 L 293 138 L 288 138 L 288 136 Z "></path><path fill="rgb(71,255,209)" stroke="rgb(71,255,209)" stroke-width="1" opacity="1" d="M 315 141 Q 318 140 317 143 L 320 143 L 320 146 L 322 146 L 322 148 L 325 148 Q 324 151 327 150 L 327 153 L 322 153 L 321.5 150 L 315 150 L 315 141 Z "></path><path fill="rgb(71,255,209)" stroke="rgb(71,255,209)" stroke-width="1" opacity="1" d="M 305 150 L 312 150 L 312 153 Q 309 152 310 155 L 305 155 L 305 150 Z "></path><path fill="rgb(71,255,209)" stroke="rgb(71,255,209)" stroke-width="1" opacity="1" d="M 308 158 Q 311 157 310 160 L 315 160 L 315 163 L 310 163 L 310 160 Q 307 161 308 158 Z "></path><path fill="rgb(71,255,209)" stroke="rgb(71,255,209)" stroke-width="1" opacity="1" d="M 332 160 L 335 160 L 335 163 Q 338 162 337 165 Q 334 166 335 163 L 332 163 L 332 160 Z "></path><path fill="rgb(71,255,209)" stroke="rgb(71,255,209)" stroke-width="1" opacity="1" d="M 140 215 Q 143 214 142 217 Q 139 218 140 215 Z "></path><path fill="rgb(71,255,209)" stroke="rgb(71,255,209)" stroke-width="1" opacity="1" d="M 147 215 L 150 215 Q 149 218 152 217 L 152 220 Q 149 219 150 222 L 147 222 L 147 224 L 142 224 L 142 222 L 147 222 L 147 215 Z "></path><path fill="rgb(71,255,209)" stroke="rgb(71,255,209)" stroke-width="1" opacity="1" d="M 162 215 Q 165 214 164 217 Q 161 218 162 215 Z "></path><path fill="rgb(71,255,209)" stroke="rgb(71,255,209)" stroke-width="1" opacity="1" d="M 214 215 Q 217 214 216 217 Q 213 218 214 215 Z "></path><path fill="rgb(71,255,209)" stroke="rgb(71,255,209)" stroke-width="1" opacity="1" d="M 221 215 Q 225.1 213.7 224 217 Q 219.9 218.3 221 215 Z "></path><path fill="rgb(71,255,209)" stroke="rgb(71,255,209)" stroke-width="1" opacity="1" d="M 174 220 L 177 220 L 177 227 L 174 227 L 174 220 Z "></path><path fill="rgb(71,255,209)" stroke="rgb(71,255,209)" stroke-width="1" opacity="1" d="M 251 220 L 256 220 L 256 222 L 251 222 L 251 220 Z "></path><path fill="rgb(71,255,209)" stroke="rgb(71,255,209)" stroke-width="1" opacity="1" d="M 194 222 Q 198.3 221 197.5 224 L 206 224 Q 204.5 228.5 209 227 L 209 234 L 204 234 Q 205.1 230.7 201 232 L 201 229 L 197 229 Q 198.1 225.7 194 227 L 194 222 Z "></path><path fill="rgb(71,255,209)" stroke="rgb(71,255,209)" stroke-width="1" opacity="1" d="M 219 227 L 225.5 227 L 226.5 229 L 234 229 L 234 232 Q 237 231 236 234 L 226.5 234 L 225.5 232 L 219 232 L 219 227 Z "></path><path fill="rgb(71,255,209)" stroke="rgb(71,255,209)" stroke-width="1" opacity="1" d="M 261 227 L 266 227 L 266 229 L 263 229 Q 264.3 233.1 261 232 L 261 237 L 256 237 L 256 232 L 258 232 L 258 229 Q 262.1 230.3 261 227 Z "></path><path fill="rgb(71,255,209)" stroke="rgb(71,255,209)" stroke-width="1" opacity="1" d="M 150 229 Q 153.3 227.9 152 232 Q 148.7 233.1 150 229 Z "></path><path fill="rgb(71,255,209)" stroke="rgb(71,255,209)" stroke-width="1" opacity="1" d="M 187 234 L 194 234 L 194 239 Q 191 240 192 237 L 187 237 L 187 234 Z "></path><path fill="rgb(71,255,209)" stroke="rgb(71,255,209)" stroke-width="1" opacity="1" d="M 268 234 L 271 234 L 271 239 L 268 239 L 268 234 Z "></path><path fill="rgb(71,255,209)" stroke="rgb(71,255,209)" stroke-width="1" opacity="1" d="M 295 237 L 303 237 Q 302 240 305 239 L 305 242 L 298 242 L 298 239 Q 293.9 240.3 295 237 Z "></path><path fill="rgb(71,255,209)" stroke="rgb(71,255,209)" stroke-width="1" opacity="1" d="M 243 239 L 246 239 L 246 244 L 241 244 L 241 242 Q 244.3 243.1 243 239 Z "></path><path fill="rgb(71,255,209)" stroke="rgb(71,255,209)" stroke-width="1" opacity="1" d="M 189 348 L 197 348 L 197 353 L 201 355 L 201 358 L 204 358 L 204 363 L 199 363 Q 200 358.8 197 359.5 L 197 353 L 192 353 L 192 350 Q 187.9 351.3 189 348 Z "></path><path fill="rgb(71,255,209)" stroke="rgb(71,255,209)" stroke-width="1" opacity="1" d="M 192 365 Q 195.3 363.9 194 368 Q 190.7 369.1 192 365 Z "></path><path fill="rgb(71,255,209)" stroke="rgb(71,255,209)" stroke-width="1" opacity="1" d="M 209 365 Q 216.5 362.5 214 370 Q 206.5 372.5 209 365 Z "></path><path fill="rgb(71,255,209)" stroke="rgb(71,255,209)" stroke-width="1" opacity="1" d="M 34 375 Q 37 374 36 377 L 39 377 L 39.5 380 L 53 380 L 53 377 L 61 377 L 61 380 L 53 380 Q 54 383 51 382 L 51 385 L 39 385 L 39 382 Q 34.9 383.3 36 380 L 26.5 380 L 26 377 L 33.5 377 L 34 375 Z "></path><path fill="rgb(71,255,209)" stroke="rgb(71,255,209)" stroke-width="1" opacity="1" d="M 71 377 Q 74.3 375.9 73 380 Q 69.7 381.1 71 377 Z "></path><path fill="rgb(71,255,209)" stroke="rgb(71,255,209)" stroke-width="1" opacity="1" d="M 78 377 L 88 377 Q 87 381.3 90 380.5 L 90 387 Q 87 388 88 385 L 85 385 L 85 382 L 81 382 Q 82.1 378.7 78 380 L 78 377 Z "></path><path fill="rgb(71,255,209)" stroke="rgb(71,255,209)" stroke-width="1" opacity="1" d="M 73 385 Q 77.1 383.7 76 387 Q 71.9 388.3 73 385 Z "></path><path fill="rgb(71,255,209)" stroke="rgb(71,255,209)" stroke-width="1" opacity="1" d="M 100 385 L 103 385 Q 102 388 105 387 L 105 392 L 100 392 L 100 385 Z "></path><path fill="rgb(71,255,209)" stroke="rgb(71,255,209)" stroke-width="1" opacity="1" d="M 56 387 L 63 387 L 63 390 Q 60 389 61 392 L 56 392 L 56 387 Z "></path><path fill="rgb(71,255,209)" stroke="rgb(71,255,209)" stroke-width="1" opacity="1" d="M 66 390 Q 69 389 68 392 L 73 392 L 73 395 Q 77.1 393.7 76 397 L 71.5 397 Q 72.3 393.5 66 395 L 66 390 Z "></path><path fill="rgb(71,255,209)" stroke="rgb(71,255,209)" stroke-width="1" opacity="1" d="M 78 390 Q 82.3 389 81.5 392 L 88 392 L 88 395 Q 91 394 90 397 L 83.5 397 Q 84.3 393.5 78 395 L 78 390 Z "></path><path fill="rgb(71,255,209)" stroke="rgb(71,255,209)" stroke-width="1" opacity="1" d="M 127 395 L 130 395 L 130 400 L 127 400 L 127 395 Z "></path><path fill="rgb(71,255,209)" stroke="rgb(71,255,209)" stroke-width="1" opacity="1" d="M 93 397 Q 96.3 395.9 95 400 Q 91.7 401.1 93 397 Z "></path><path fill="rgb(42,254,200)" stroke="rgb(42,254,200)" stroke-width="1" opacity="1" d="M 201 30 Q 205.1 28.7 204 32 Q 199.9 33.3 201 30 Z "></path><path fill="rgb(42,254,200)" stroke="rgb(42,254,200)" stroke-width="1" opacity="1" d="M 192 37 Q 195 36 194 39 Q 191 40 192 37 Z "></path><path fill="rgb(42,254,200)" stroke="rgb(42,254,200)" stroke-width="1" opacity="1" d="M 221 39 Q 225.5 37.5 224 42 Q 219.5 43.5 221 39 Z "></path><path fill="rgb(42,254,200)" stroke="rgb(42,254,200)" stroke-width="1" opacity="1" d="M 214 44 Q 217.3 42.9 216 47 Q 212.7 48.1 214 44 Z "></path><path fill="rgb(42,254,200)" stroke="rgb(42,254,200)" stroke-width="1" opacity="1" d="M 187 47 Q 190 46 189 49 Q 186 50 187 47 Z "></path><path fill="rgb(42,254,200)" stroke="rgb(42,254,200)" stroke-width="1" opacity="1" d="M 219 52 Q 222 51 221 54 Q 218 55 219 52 Z "></path><path fill="rgb(42,254,200)" stroke="rgb(42,254,200)" stroke-width="1" opacity="1" d="M 197 62 Q 200 61 199 64 Q 196 65 197 62 Z "></path><path fill="rgb(42,254,200)" stroke="rgb(42,254,200)" stroke-width="1" opacity="1" d="M 243 69 Q 250.5 66.5 248 74 L 256 74 Q 255 77 258 76 L 258 79 Q 262.1 77.7 261 81 L 268 81 Q 266.5 85.5 271 84 L 271 91 L 268 91 L 268 86 Q 265 87 266 84 L 258 84 L 258 81 Q 255 82 256 79 L 253 79 Q 254.3 74.9 251 76 L 251 79 L 246 79 L 246 81 L 248 81 L 248 86 Q 244.7 84.9 246 89 Q 249 88 248 91 L 251 91 Q 249.7 95.1 253 94 L 253 101 L 251 101 L 251 106 Q 254.3 104.9 253 109 L 256 109 Q 255 112 258 111 Q 256.9 107.7 261 109 L 261 111 L 258 111 Q 259 114 256 113 L 256 111 L 253 111 Q 254 108 251 109 L 251 106 L 248 106 Q 249 103 246 104 L 246 94 L 243 94 Q 244.3 89.9 241 91 L 241 86 L 238 86 L 238 81 L 241 81 L 241 76 Q 236.9 77.3 238 74 L 241 74 L 241 71 Q 244 72 243 69 Z "></path><path fill="rgb(42,254,200)" stroke="rgb(42,254,200)" stroke-width="1" opacity="1" d="M 295 111 L 299.5 111 Q 298.8 114 303 113 L 303 111 L 308 111 L 308 120.5 L 310 121 Q 308.7 116.9 312 118 L 312 121 Q 316.1 119.7 315 123 Q 310.5 121.5 312 126 L 315 126 L 315 131 Q 318 130 317 133 L 320 133 L 320 136 L 326.5 136 Q 325.8 139 330 138 L 330 143 Q 333.3 141.9 332 146 L 335 146 Q 334 149 337 148 L 337 153 L 340 153 L 340 158 Q 343 157 342 160 L 345 160 L 345 168 L 350 170.5 L 350 185 Q 345.8 184 346.5 187 L 342 187 L 342 185 L 337 185 L 337 183 L 327.5 183 L 327 180 L 322 180 Q 322.8 176.9 320 177.5 L 320 168 Q 323.1 167.3 322.5 170 L 330 170 L 330 173 L 335 173 L 335 180 L 342 180 L 342 165.5 Q 338.5 166.3 340 160 L 337 160 Q 338 157 335 158 L 335 153 L 332 153 L 332 150 Q 329 151 330 148 L 325 148 L 325 143 L 322 143 Q 323 140 320 141 L 320 138 L 317 138 Q 318 135 315 136 L 315 133 L 312 133 L 312 131 L 310 131 L 310 128 Q 307 129 308 126 L 305 126 L 305 123 Q 302 124 303 121 L 300 121 L 300 118 Q 297 119 298 116 L 295 116 L 295 111 Z "></path><path fill="rgb(42,254,200)" stroke="rgb(42,254,200)" stroke-width="1" opacity="1" d="M 285 138 L 288 138 L 288 141 Q 291 140 290 143 L 293 143 L 293 146 L 295 146 L 295 148 L 298 148 Q 297 151 300 150 L 300 153 L 303 153 Q 302 156 305 155 L 305 158 Q 301.7 159.1 303 155 L 300 155 Q 301 152 298 153 L 298 150 L 295 150 L 293 146 L 290 146 L 290 143 Q 287 144 288 141 L 285 141 L 285 138 Z "></path><path fill="rgb(42,254,200)" stroke="rgb(42,254,200)" stroke-width="1" opacity="1" d="M 320 155 L 322 155 L 322 158 Q 326.1 156.7 325 160 Q 317.5 162.5 320 155 Z "></path><path fill="rgb(42,254,200)" stroke="rgb(42,254,200)" stroke-width="1" opacity="1" d="M 305 160 L 308 160 L 308 163 L 312 165 L 312 168 L 315 168 L 315 173 Q 318 172 317 175 Q 314 176 315 173 L 312 173 L 312 168 L 310 168 L 310 165 Q 307 166 308 163 L 305 163 L 305 160 Z "></path><path fill="rgb(42,254,200)" stroke="rgb(42,254,200)" stroke-width="1" opacity="1" d="M 140 200 Q 143.1 199.3 142.5 202 L 159.5 202 L 160 205 L 162 205 L 162 202 L 167 202 L 167 205 L 164 205 L 164 210 Q 161 209 162 212 L 157 212 Q 158 209 155 210 L 155 207 Q 158 208 157 205 L 152 205 L 152 212 L 142 212 L 141.5 210 L 130.5 210 L 130 207 L 125 207 L 125 210 Q 120.9 208.7 122 212 L 113 212 L 113 217 L 118 217 L 118 220 Q 121 219 120 222 L 124.5 222 Q 123.7 225.5 130 224 Q 129 221 132 222 L 132.5 224 L 142 224 L 142 227 L 145 227 L 145 232 Q 148 231 147 234 L 160 234 L 160 237 L 164 237 Q 162.9 240.3 167 239 L 167 242 L 162 242 L 162 239 L 157 239 Q 158 236 155 237 L 154.5 239 L 147 239 L 146.5 237 L 140 237 L 139.5 234 Q 130.7 235.4 131.5 232 L 122 232 L 122 229 L 118 227 L 118 224 L 115 224 L 113 220 L 110 220 Q 111 215.8 108 216.5 L 108 212 Q 111 213 110 210 L 113 210 L 113 207 L 122 207 Q 119.5 199.5 127 202 L 127 205 L 132 205 L 132 207 L 140 207 L 140 205 L 135 205 L 135 202 L 140 202 L 140 200 Z M 137 229 Q 136 234 140 232 Q 142 228 137 229 Z "></path><path fill="rgb(42,254,200)" stroke="rgb(42,254,200)" stroke-width="1" opacity="1" d="M 169 205 L 174 205 L 174 212 L 167 212 L 167 207 Q 170 208 169 205 Z "></path><path fill="rgb(42,254,200)" stroke="rgb(42,254,200)" stroke-width="1" opacity="1" d="M 177 205 Q 180 204 179 207 Q 176 208 177 205 Z "></path><path fill="rgb(42,254,200)" stroke="rgb(42,254,200)" stroke-width="1" opacity="1" d="M 182 207 L 196.5 207 L 197 210 L 182.5 210 L 182 207 Z "></path><path fill="rgb(42,254,200)" stroke="rgb(42,254,200)" stroke-width="1" opacity="1" d="M 206 210 Q 210.1 208.7 209 212 Q 204.9 213.3 206 210 Z "></path><path fill="rgb(42,254,200)" stroke="rgb(42,254,200)" stroke-width="1" opacity="1" d="M 221 212 L 226 212 L 226 215 L 221 215 L 221 212 Z "></path><path fill="rgb(42,254,200)" stroke="rgb(42,254,200)" stroke-width="1" opacity="1" d="M 236 215 L 241 215 L 241 217 L 236 217 L 236 215 Z "></path><path fill="rgb(42,254,200)" stroke="rgb(42,254,200)" stroke-width="1" opacity="1" d="M 246 217 L 257.5 217 L 258 220 L 246.5 220 L 246 217 Z "></path><path fill="rgb(42,254,200)" stroke="rgb(42,254,200)" stroke-width="1" opacity="1" d="M 234 220 Q 237 219 236 222 Q 233 223 234 220 Z "></path><path fill="rgb(42,254,200)" stroke="rgb(42,254,200)" stroke-width="1" opacity="1" d="M 261 220 L 275 220 Q 273.9 223.3 278 222 L 278 227 L 273 227 L 273 224 Q 276 225 275 222 L 263.5 222 Q 264.1 224.8 261 224 L 261 220 Z "></path><path fill="rgb(42,254,200)" stroke="rgb(42,254,200)" stroke-width="1" opacity="1" d="M 280 222 L 287.5 222 L 288.5 224 L 311.5 224 L 312 227 L 316.5 227 Q 315.8 230 320 229 Q 319 226 322 227 L 322 232 L 332 232 Q 330.9 235.3 335 234 L 335 239 L 332 239 L 332 244 L 325 244 L 325 247 L 312.5 247 L 311.5 249 L 298.5 249 L 298 252 L 290 252 L 290 254 L 285 254 L 285 257 Q 282 256 283 259 L 280 259 L 280 257 L 275 257 L 275 254 L 266 254 L 265.5 257 L 248 257 L 247.5 254 L 231.5 254 L 231 252 L 240.5 252 L 241 249 L 246 249 L 246 252 Q 249 251 248 254 L 258 254 L 258 249 L 248 249 L 248 244 L 251 244 Q 250 241 253 242 L 253 239 L 256 239 L 256 242 L 261 242 Q 260 245 263 244 L 263 249 L 266 249 L 266 242.5 L 268 242 Q 266.9 245.3 271 244 L 271 248.5 Q 274 247.8 273 252 L 275 252 L 275 247 L 289.5 247 L 290 244 L 293 244 Q 292 241 295 242 L 295.5 244 L 307.5 244 L 308 247 L 310 247 L 310 244 L 315 244 Q 314 241 317 242 L 317 237 Q 313.7 238.1 315 234 L 308 234 Q 309.5 238.5 305 237 L 305 234 L 298.5 234 L 297.5 232 L 288 232 Q 289.5 227.5 285 229 L 285 224 L 280 224 L 280 222 Z "></path><path fill="rgb(42,254,200)" stroke="rgb(42,254,200)" stroke-width="1" opacity="1" d="M 266 224 Q 269.3 222.9 268 227 Q 264.7 228.1 266 224 Z "></path><path fill="rgb(42,254,200)" stroke="rgb(42,254,200)" stroke-width="1" opacity="1" d="M 224 239 Q 227.3 237.9 226 242 Q 222.7 243.1 224 239 Z "></path><path fill="rgb(42,254,200)" stroke="rgb(42,254,200)" stroke-width="1" opacity="1" d="M 174 242 L 181.5 242 L 182 244 L 174.5 244 L 174 242 Z "></path><path fill="rgb(42,254,200)" stroke="rgb(42,254,200)" stroke-width="1" opacity="1" d="M 187 244 L 192 244 L 192 247 L 187 247 L 187 244 Z "></path><path fill="rgb(42,254,200)" stroke="rgb(42,254,200)" stroke-width="1" opacity="1" d="M 194 247 Q 198.1 245.7 197 249 Q 192.9 250.3 194 247 Z "></path><path fill="rgb(42,254,200)" stroke="rgb(42,254,200)" stroke-width="1" opacity="1" d="M 199 247 L 205.5 247 L 206 249 L 199.5 249 L 199 247 Z "></path><path fill="rgb(42,254,200)" stroke="rgb(42,254,200)" stroke-width="1" opacity="1" d="M 150 252 L 152 252 L 152 257 L 150 257 L 150 252 Z "></path><path fill="rgb(42,254,200)" stroke="rgb(42,254,200)" stroke-width="1" opacity="1" d="M 137 284 L 141.5 284 Q 140.8 287 145 286 L 145 284 L 150 284 L 150 289 Q 153 288 152 291 L 155 291 L 155 294 Q 158 293 157 296 L 160 296 L 160 299 L 164 299 Q 162.9 302.3 167 301 L 167 306 L 172 306 Q 170.7 301.9 174 303 Q 175 307.3 172 306.5 L 172 311 L 164 311 L 164 303.5 Q 161.3 304.1 162 301 L 157 301 Q 158 298 155 299 L 155 296 Q 150.9 297.3 152 294 L 142 294 L 142 308 Q 146.5 306.5 145 311 L 150 311 L 150 306 L 152 306 L 152 320.5 Q 149.3 319.9 150 323 Q 153.3 321.9 152 326 Q 148.7 327.1 150 323 L 147 323 L 147 318 Q 144 319 145 316 L 142 316 Q 143.3 311.9 140 313 L 140 308 L 137 308 Q 138.5 301.7 135 302.5 L 135 296 Q 138 297 137 294 L 135 293.5 L 135 286 Q 138 287 137 284 Z "></path><path fill="rgb(42,254,200)" stroke="rgb(42,254,200)" stroke-width="1" opacity="1" d="M 155 328 Q 158.3 326.9 157 331 L 160 331 L 160 333 Q 152.5 335.5 155 328 Z "></path><path fill="rgb(42,254,200)" stroke="rgb(42,254,200)" stroke-width="1" opacity="1" d="M 197 328 L 201 328 L 201 333 L 204 333 L 204 336 Q 207 335 206 338 L 211 338 L 211 343 L 214 343 Q 213 346 216 345 L 216 348 L 219 348 Q 218 351 221 350 L 221 355 L 224 355 Q 222.7 359.1 226 358 L 226 363 L 229 363 L 229 367.5 Q 232.5 366.7 231 373 L 234 373 L 234 384.5 Q 237.5 383.7 236 390 Q 233 389 234 392 L 231 392 L 231 395 L 226 395 L 225.5 392 L 211 392 Q 212 389 209 390 L 209 387 L 206 387 Q 207 384 204 385 L 204 382 L 199 382 Q 200 379 197 380 L 197 377 Q 192.9 378.3 194 375 L 197 375 Q 196 378 199 377 L 199 380 L 204 380 L 204 375 Q 199.9 376.3 201 373 L 205.5 373 Q 204.7 376.5 211 375 L 211 380 L 214 380 Q 213 383 216 382 L 216 385 L 226 385 L 226 375.5 Q 222.5 376.3 224 370 L 221 370 L 221 365.5 Q 217.5 366.3 219 360 L 216 360 Q 217 357 214 358 L 214 348 L 206 348 L 206 345 Q 203 346 204 343 L 201 343 L 201 340 L 206 340 L 206 338 Q 203 339 204 336 L 199 336 L 199 338 L 194 338 Q 195 341 192 340 Q 191 337 194 338 L 194 333 L 197 333 L 197 328 Z "></path><path fill="rgb(42,254,200)" stroke="rgb(42,254,200)" stroke-width="1" opacity="1" d="M 182 358 Q 185 357 184 360 Q 181 361 182 358 Z "></path><path fill="rgb(42,254,200)" stroke="rgb(42,254,200)" stroke-width="1" opacity="1" d="M 51 363 L 57.5 363 Q 56.7 366.5 63 365 L 63 363 L 68 363 Q 66.9 366.3 71 365 L 71.5 363 L 78 363 Q 79 366 76 365 L 76 368 Q 79 367 78 370 L 81 370 L 81 373 L 71 373 Q 73.5 365.5 66 368 L 66 370 L 63 370 Q 64.3 374.1 61 373 L 61 370 L 56 370 L 56 375 L 48 375 L 47.5 373 L 41 373 L 41 370 L 34 370 L 33.5 373 Q 24.7 371.6 25.5 375 L 16 375 Q 17 378 14 377 L 14 380 L 9 380 Q 10 383 7 382 L 7 385 Q 10.1 384.3 9.5 387 L 21 387 L 21.5 385 L 29 385 L 29 389.5 Q 32.5 388.7 31 395 L 40.5 395 L 41 397 L 16.5 397 L 16 400 L 11 400 L 11 395 Q 15.5 396.5 14 392 Q 9.8 393 10.5 390 L 2 390 L 2 382 Q 5 383 4 380 L 9 380 L 9 377 Q 12 378 11 375 L 15.5 375 Q 14.7 371.5 21 373 L 21 370 L 28.5 370 L 29.5 368 L 50.5 368 L 51 363 Z M 63 365 Q 62 370 66 368 Q 68 364 63 365 Z M 51 368 Q 50 371 53 370 Q 54 367 51 368 Z "></path><path fill="rgb(42,254,200)" stroke="rgb(42,254,200)" stroke-width="1" opacity="1" d="M 81 365 Q 84.3 363.9 83 368 Q 79.7 369.1 81 365 Z "></path><path fill="rgb(42,254,200)" stroke="rgb(42,254,200)" stroke-width="1" opacity="1" d="M 88 365 L 95 365 Q 93.5 369.5 98 368 Q 96.7 363.9 100 365 Q 101 369.3 98 368.5 L 98 375 L 93 375 L 93 373 L 88 373 L 88 370 Q 91 371 90 368 Q 86.7 369.1 88 365 Z "></path><path fill="rgb(42,254,200)" stroke="rgb(42,254,200)" stroke-width="1" opacity="1" d="M 187 365 Q 190.3 363.9 189 368 L 192 368 Q 191 371 194 370 L 194 373 Q 190.7 374.1 192 370 L 189 370 Q 190 367 187 368 L 187 365 Z "></path><path fill="rgb(42,254,200)" stroke="rgb(42,254,200)" stroke-width="1" opacity="1" d="M 103 368 Q 106 367 105 370 Q 102 371 103 368 Z "></path><path fill="rgb(42,254,200)" stroke="rgb(42,254,200)" stroke-width="1" opacity="1" d="M 110 370 L 118 370 L 118 373 L 110 373 L 110 370 Z "></path><path fill="rgb(42,254,200)" stroke="rgb(42,254,200)" stroke-width="1" opacity="1" d="M 122 373 L 127 373 L 127 375 L 122 375 L 122 373 Z "></path><path fill="rgb(42,254,200)" stroke="rgb(42,254,200)" stroke-width="1" opacity="1" d="M 130 375 L 135 375 L 135 377 L 130 377 L 130 375 Z "></path><path fill="rgb(42,254,200)" stroke="rgb(42,254,200)" stroke-width="1" opacity="1" d="M 177 375 Q 180 374 179 377 L 184 377 Q 182.5 381.5 187 380 L 187 385 L 184 385 L 184 382 Q 181 383 182 380 L 179 380 L 179 377 Q 176 378 177 375 Z "></path><path fill="rgb(42,254,200)" stroke="rgb(42,254,200)" stroke-width="1" opacity="1" d="M 137 377 Q 141.5 375.5 140 380 L 145 380 L 145 382 L 140 382 Q 141.1 378.7 137 380 L 137 377 Z "></path><path fill="rgb(42,254,200)" stroke="rgb(42,254,200)" stroke-width="1" opacity="1" d="M 147 382 L 152 382 L 152 385 L 147 385 L 147 382 Z "></path><path fill="rgb(42,254,200)" stroke="rgb(42,254,200)" stroke-width="1" opacity="1" d="M 157 385 L 161.5 385 Q 160.7 388.5 167 387 L 167 390 L 172 390 Q 171 393 174 392 L 174 390 L 179 390 Q 177.9 393.3 182 392 L 182 395 L 188.5 395 Q 187.8 398 192 397 L 192 400 L 177.5 400 L 177 395 L 172 395 Q 174.5 402.5 167 400 L 167 390 L 160 390 L 160 392 L 155 392 Q 154 389 157 390 L 157 385 Z "></path><path fill="rgb(42,254,200)" stroke="rgb(42,254,200)" stroke-width="1" opacity="1" d="M 44 390 Q 47 389 46 392 Q 43 393 44 390 Z "></path><path fill="rgb(42,254,200)" stroke="rgb(42,254,200)" stroke-width="1" opacity="1" d="M 51 395 L 60.5 395 L 61.5 397 L 68 397 L 68 400 L 61 400 L 60.5 397 L 51 397 L 51 400 L 46 400 L 46 397 L 51 397 L 51 395 Z "></path><path fill="rgb(62,255,206)" stroke="rgb(62,255,206)" stroke-width="1" opacity="1" d="M 206 30 Q 210.1 28.7 209 32 Q 204.9 33.3 206 30 Z "></path><path fill="rgb(62,255,206)" stroke="rgb(62,255,206)" stroke-width="1" opacity="1" d="M 204 34 L 206 34.5 L 206 42 Q 198.5 44.5 201 37 Q 205.5 38.5 204 34 Z "></path><path fill="rgb(62,255,206)" stroke="rgb(62,255,206)" stroke-width="1" opacity="1" d="M 214 37 Q 217 36 216 39 L 219 39 L 219 44 L 216 44 L 216 39 L 214 39 Q 215.5 43.5 211 42 L 211 39 Q 215.1 40.3 214 37 Z "></path><path fill="rgb(62,255,206)" stroke="rgb(62,255,206)" stroke-width="1" opacity="1" d="M 197 39 Q 200.3 37.9 199 42 Q 195.7 43.1 197 39 Z "></path><path fill="rgb(62,255,206)" stroke="rgb(62,255,206)" stroke-width="1" opacity="1" d="M 221 42 Q 225.1 40.7 224 44 Q 219.9 45.3 221 42 Z "></path><path fill="rgb(62,255,206)" stroke="rgb(62,255,206)" stroke-width="1" opacity="1" d="M 197 44 Q 200.3 42.9 199 47 Q 196 46 197 49 L 204 49 Q 202.5 55.3 206 54.5 L 206 62 Q 202.7 63.1 204 59 L 201 59 L 201 57 Q 205.5 58.5 204 54 Q 199.9 55.3 201 52 L 197 52 L 197 49 Q 192.9 50.3 194 47 Q 198.5 48.5 197 44 Z "></path><path fill="rgb(62,255,206)" stroke="rgb(62,255,206)" stroke-width="1" opacity="1" d="M 214 47 Q 217 46 216 49 Q 213 50 214 47 Z "></path><path fill="rgb(62,255,206)" stroke="rgb(62,255,206)" stroke-width="1" opacity="1" d="M 187 49 L 189 49 L 189 54 L 187 54 L 187 49 Z "></path><path fill="rgb(62,255,206)" stroke="rgb(62,255,206)" stroke-width="1" opacity="1" d="M 209 52 L 214 52 L 214 59 L 211 59 Q 212 56 209 57 L 209 52 Z "></path><path fill="rgb(62,255,206)" stroke="rgb(62,255,206)" stroke-width="1" opacity="1" d="M 194 54 L 197 54 Q 195.7 58.1 199 57 L 199 62 L 194 62 L 194 59 Q 198.1 60.3 197 57 Q 192.5 58.5 194 54 Z "></path><path fill="rgb(62,255,206)" stroke="rgb(62,255,206)" stroke-width="1" opacity="1" d="M 189 59 Q 193.5 57.5 192 62 Q 187.5 63.5 189 59 Z "></path><path fill="rgb(62,255,206)" stroke="rgb(62,255,206)" stroke-width="1" opacity="1" d="M 209 62 Q 212 61 211 64 Q 208 65 209 62 Z "></path><path fill="rgb(62,255,206)" stroke="rgb(62,255,206)" stroke-width="1" opacity="1" d="M 258 86 L 266 86 L 266 99 L 263 99 L 263 104 Q 260 103 261 106 L 256 106 Q 255 103 258 104 L 258 101 L 256 100.5 L 256 94 L 263 94 L 263 91 Q 260 92 261 89 L 258 89 L 258 86 Z M 258 96 L 258 101 L 261 101 Q 260 98 263 99 L 263 96 L 258 96 Z "></path><path fill="rgb(62,255,206)" stroke="rgb(62,255,206)" stroke-width="1" opacity="1" d="M 293 118 L 295 118 L 295 123 L 293 123 L 293 128 L 298 128 Q 296.7 132.1 300 131 L 300 126.5 Q 296.5 127.3 298 121 L 300 121 L 300 126 L 304.5 126 Q 303.8 129 308 128 L 308 131 L 312 133 L 312 136 L 315 136 Q 314 139 317 138 L 317 141 L 320 141 Q 319 144 322 143 L 322 146 Q 318.7 147.1 320 143 L 317 143 Q 318 140 315 141 L 315 150 L 321.5 150 L 322 153 L 327 153 Q 325.5 148.5 330 150 L 330 155 Q 333.3 153.9 332 158 L 335 158 Q 334 161 337 160 L 337 163 L 340 163 L 340 168 L 337 168 L 337 163 L 335 163 L 335 165 L 330 165 L 330 168 L 322 168 L 322 165 L 312.5 165 L 312 163 Q 316.5 164.5 315 160 L 310 160 Q 311.3 164.1 308 163 L 308 160 Q 311 161 310 158 Q 306.7 159.1 308 155 L 312 153 L 312 150 L 305 150 Q 306.3 154.1 303 153 L 303 150 L 300 150 L 298 146 L 295 146 L 295 143 L 298 143 L 298 146 Q 301 145 300 148 L 303 148 Q 302 145 305 146 L 305 143 Q 302 144 303 141 L 300 141 L 300 138 L 295 138 L 295 136 L 285 136 L 285 133 L 294.5 133 L 295 131 L 290 131 L 290 123 L 293 123 L 293 118 Z M 303 131 Q 302 134 305 133 L 305 136 L 308 136 Q 307 139 310 138 L 310 133 Q 307 134 308 131 L 303 131 Z M 315 153 Q 316 156 312 155 L 312 158 Q 316 157 315 160 L 320 160 L 320 163 L 327 163 L 327 155 Q 321 157 322 153 L 315 153 Z M 332 160 Q 331 165 335 163 Q 337 159 332 160 Z "></path><path fill="rgb(62,255,206)" stroke="rgb(62,255,206)" stroke-width="1" opacity="1" d="M 290 138 Q 294.5 136.5 293 141 Q 288.5 142.5 290 138 Z "></path><path fill="rgb(62,255,206)" stroke="rgb(62,255,206)" stroke-width="1" opacity="1" d="M 192 210 Q 195 209 194 212 L 199 212 L 199 215 L 197 215 L 197 220 Q 202.3 218.8 201.5 222 L 206 222 L 206 224 L 211 224 L 211 217.5 Q 208.3 218.1 209 215 L 214 215 Q 213 218 216 217 L 216 212 L 219 212 L 219 215 Q 222 214 221 217 L 224 217 Q 223 214 226 215 L 226.5 217 L 236 217 L 236 220 L 231 220 L 231 227 L 236 227 L 236 224 Q 239 225 238 222 Q 242.3 223 241.5 220 L 246 220 L 246.5 222 L 256 222 Q 255 219 258 220 L 258 224 L 251 224 L 251 229 L 248 229 Q 250.5 221.5 243 224 L 243 227 Q 240 226 241 229 L 243 229 L 243 232 Q 247.1 230.7 246 234 L 251 234 L 251 232 L 256 232 L 256 229 Q 259 230 258 227 L 261 227 Q 262.1 230.3 258 229 L 258 232 L 256 232 L 256 237 L 261 237 L 261 232.5 Q 264 233.3 263 229 L 266 229 Q 265 226 268 227 L 268 232 L 271 232 Q 270 235 273 234 L 273 242 L 268 242 L 267.5 239 L 256.5 239 L 255.5 237 L 248 237 L 248 243.5 Q 245 242.8 246 247 L 238 247 L 238 239.5 L 241 239 L 241 234 L 238 234 L 237.5 237 L 226 237 L 225.5 234 L 216 234 L 216 237 Q 213 236 214 239 L 206 239 Q 207 236 204 237 L 204 234 L 201 234 Q 202 231 199 232 L 199 244 Q 195.7 242.9 197 247 L 194 247 L 194 244 L 187.5 244 L 186.5 242 L 177.5 242 L 176.5 239 L 167 239 L 167 229 Q 170 230 169 227 L 172 227 L 172 222 L 169 222 Q 170 219 167 220 L 167 222 L 164 222 Q 165 225 162 224 L 162 227 L 164 227 L 164 232 L 160 232 L 160 224 L 157 224 Q 158 228.3 155 227.5 L 155 232 L 152 232 Q 153 235 150 234 Q 151.1 230.7 147 232 L 147 229 Q 151.1 230.3 150 227 L 145 227 L 145 224 Q 148 225 147 222 L 142 222 Q 143 225 140 224 L 140 220 L 137 219.5 L 137 212 L 145 212 Q 144 216.3 147 215.5 L 147 222 L 150 222 Q 149 219 152 220 L 152 217 Q 149 218 150 215 L 155 215 Q 152.5 222.5 160 220 L 160 215.5 Q 163 216.3 162 212 L 167 212 L 167 215 Q 170 214 169 217 L 174 217 L 174 226.5 L 177 227 L 177 220.5 Q 180.5 221.3 179 215 Q 175.7 216.1 177 212 L 191.5 212 L 192 210 Z M 192 212 Q 191 216 194 215 Q 195 211 192 212 Z M 140 215 Q 139 218 142 217 Q 143 214 140 215 Z M 162 215 Q 161 218 164 217 Q 165 214 162 215 Z M 142 217 Q 141 222 145 220 Q 147 216 142 217 Z M 150 222 Q 148 230 155 227 L 155 224 L 152 224 Q 153 221 150 222 Z M 194 222 L 194 227 Q 198 226 197 229 L 201 229 L 201 232 Q 205 231 204 234 L 209 234 L 209 227 Q 205 229 206 224 L 198 224 Q 198 221 194 222 Z M 187 224 Q 186 228 189 227 Q 190 223 187 224 Z M 219 227 L 219 232 L 226 232 L 227 234 L 236 234 Q 237 231 234 232 L 234 229 L 227 229 L 226 227 L 219 227 Z M 150 229 Q 149 233 152 232 Q 153 228 150 229 Z M 174 232 L 175 234 L 182 234 L 182 232 L 174 232 Z M 263 232 L 263 237 L 266 237 Q 265 233 268 234 L 268 232 L 263 232 Z M 172 234 Q 171 238 174 237 Q 175 233 172 234 Z M 187 234 L 187 237 L 192 237 Q 191 240 194 239 L 194 234 L 187 234 Z M 268 234 L 268 239 L 271 239 L 271 234 L 268 234 Z M 243 239 Q 244 243 241 242 L 241 244 L 246 244 L 246 239 L 243 239 Z "></path><path fill="rgb(62,255,206)" stroke="rgb(62,255,206)" stroke-width="1" opacity="1" d="M 204 210 Q 207 209 206 212 Q 203 213 204 210 Z "></path><path fill="rgb(62,255,206)" stroke="rgb(62,255,206)" stroke-width="1" opacity="1" d="M 120 212 Q 123.3 210.9 122 215 L 127 215 L 127 220 L 122 220 L 122 217 Q 116.8 218.7 118 215 Q 121.3 216.1 120 212 Z "></path><path fill="rgb(62,255,206)" stroke="rgb(62,255,206)" stroke-width="1" opacity="1" d="M 280 232 Q 284.3 231 283.5 234 L 299.5 234 L 300 237 L 295 237 L 295 239 Q 299.5 237.5 298 242 Q 293.5 243.5 295 239 L 288.5 239 Q 289.3 235.5 283 237 L 283 234 Q 278.9 235.3 280 232 Z "></path><path fill="rgb(62,255,206)" stroke="rgb(62,255,206)" stroke-width="1" opacity="1" d="M 303 237 Q 306.1 236.3 305.5 239 L 312 239 L 312 242 L 305.5 242 Q 306.3 245.5 300 244 L 300 242 L 305 242 L 305 239 Q 302 240 303 237 Z "></path><path fill="rgb(62,255,206)" stroke="rgb(62,255,206)" stroke-width="1" opacity="1" d="M 278 239 L 283 239 L 283 242 L 278 242 L 278 239 Z "></path><path fill="rgb(62,255,206)" stroke="rgb(62,255,206)" stroke-width="1" opacity="1" d="M 251 252 L 256 252 L 256 254 L 251 254 L 251 252 Z "></path><path fill="rgb(62,255,206)" stroke="rgb(62,255,206)" stroke-width="1" opacity="1" d="M 145 296 L 152 296 L 152 301 L 147 301 Q 148 298 145 299 L 145 296 Z "></path><path fill="rgb(62,255,206)" stroke="rgb(62,255,206)" stroke-width="1" opacity="1" d="M 157 303 L 160 303 Q 158.7 307.1 162 306 Q 160.5 312.3 164 311.5 L 164 318 L 162 318 L 162 322.5 Q 159 321.8 160 326 L 157 326 L 157 323 Q 154 324 155 321 L 157 320.5 L 157 303 Z "></path><path fill="rgb(62,255,206)" stroke="rgb(62,255,206)" stroke-width="1" opacity="1" d="M 189 345 L 198.5 345 L 199 348 L 210.5 348 L 211 350 Q 207.7 348.9 209 353 L 206 353 L 206 350 L 201 350 L 201 355 L 204 355 Q 202.7 359.1 206 358 L 206 365 L 209 365 L 209.5 363 L 216 363 L 216 369.5 L 219 370 L 219 377 L 216 377 L 214 373 L 209 373 L 209 370 L 204 370 L 204 365 L 199 365 Q 200 362 197 363 L 197 360 Q 200.3 358.9 199 363 L 204 363 L 204 358 L 201 358 L 201 355 L 197 353 L 197 358 L 194 358 L 194 355 Q 191 356 192 353 L 189 353 L 189 350 Q 193.5 348.5 192 353 L 197 353 L 197 348 L 189 348 L 189 345 Z M 192 365 Q 191 369 194 368 Q 195 364 192 365 Z M 209 365 Q 207 373 214 370 Q 217 363 209 365 Z "></path><path fill="rgb(62,255,206)" stroke="rgb(62,255,206)" stroke-width="1" opacity="1" d="M 184 355 L 189 355 L 189 360 L 192 360 L 192 363 Q 195 362 194 365 L 197 365 L 197 372.5 Q 199.8 371.9 199 375 Q 196 376 197 373 L 194 373 L 194 370 Q 191 371 192 368 L 189 368 L 189 363 Q 185.7 364.1 187 360 L 184 360 L 184 355 Z "></path><path fill="rgb(62,255,206)" stroke="rgb(62,255,206)" stroke-width="1" opacity="1" d="M 68 370 L 71 370 L 71.5 375 L 87.5 375 L 88.5 377 L 102.5 377 L 103 380 Q 106.1 379.3 105.5 382 L 117.5 382 L 118.5 385 L 129.5 385 Q 128.9 387.8 132 387 L 132 390 L 136.5 390 Q 135.8 393 140 392 L 140 395 L 150 395 L 150 397 L 155 397 L 155 400 L 130.5 400 L 130 395 L 127 395 L 126.5 400 L 95 400 Q 96.3 395.9 93 397 L 92.5 400 L 83 400 L 83 397 L 78 397 L 78 400 L 73 400 L 73 397 Q 77.1 398.3 76 395 L 73 395 L 73 392 L 68 392 Q 69 389 66 390 L 66 392 L 61 392 Q 62.5 396.5 58 395 L 58 392 L 61 392 Q 60 389 63 390 L 63 387 L 56 387 L 56 392 L 53 392 L 53 385.5 L 51 385 Q 52.1 388.3 48 387 Q 46.9 383.7 51 385 L 51 382 Q 54 383 53 380 L 39.5 380 L 39 377 Q 34.9 378.3 36 375 Q 40.3 374 39.5 377 L 52.5 377 L 53 380 L 61 380 L 61 377 L 56 377 L 56 375 Q 59 376 58 373 L 63 373 Q 61.9 376.3 66 375 Q 65 372 68 373 L 68 370 Z M 66 375 Q 65 378 68 377 Q 69 374 66 375 Z M 71 377 Q 70 381 73 380 Q 74 376 71 377 Z M 78 377 L 78 380 Q 82 379 81 382 L 85 382 L 85 385 L 88 385 Q 87 388 90 387 L 90 381 Q 87 381 88 377 L 78 377 Z M 53 382 L 54 385 L 66 385 L 66 382 L 53 382 Z M 78 382 L 78 387 L 83 387 L 83 390 L 88 390 L 88 387 Q 84 388 85 385 L 81 385 L 81 382 L 78 382 Z M 73 385 Q 72 388 76 387 Q 77 384 73 385 Z M 100 385 L 100 392 L 105 392 L 105 387 Q 102 388 103 385 L 100 385 Z M 68 387 Q 67 392 71 390 Q 73 386 68 387 Z M 78 390 L 78 395 Q 84 394 84 397 L 90 397 Q 91 394 88 395 L 88 392 L 82 392 Q 82 389 78 390 Z "></path><path fill="rgb(62,255,206)" stroke="rgb(62,255,206)" stroke-width="1" opacity="1" d="M 26 375 L 33.5 375 L 34 377 L 26 377 L 26 380 L 31 380 L 31 382 L 26.5 382 Q 27.3 378.5 21 380 L 21 377 L 26 377 L 26 375 Z "></path><path fill="rgb(62,255,206)" stroke="rgb(62,255,206)" stroke-width="1" opacity="1" d="M 122 375 L 127 375 L 127 377 L 122 377 L 122 375 Z "></path><path fill="rgb(62,255,206)" stroke="rgb(62,255,206)" stroke-width="1" opacity="1" d="M 16 380 Q 20.1 378.7 19 382 Q 14.9 383.3 16 380 Z "></path><path fill="rgb(62,255,206)" stroke="rgb(62,255,206)" stroke-width="1" opacity="1" d="M 34 380 Q 37 379 36 382 L 39 382 L 39 385 Q 42 384 41 387 L 36 387 L 36 382 Q 33 383 34 380 Z "></path><path fill="rgb(62,255,206)" stroke="rgb(62,255,206)" stroke-width="1" opacity="1" d="M 132 380 Q 139.5 377.5 137 385 Q 129.5 387.5 132 380 Z "></path><path fill="rgb(62,255,206)" stroke="rgb(62,255,206)" stroke-width="1" opacity="1" d="M 142 385 Q 146.1 383.7 145 387 Q 140.9 388.3 142 385 Z "></path><path fill="rgb(62,255,206)" stroke="rgb(62,255,206)" stroke-width="1" opacity="1" d="M 152 385 Q 156.1 383.7 155 387 Q 150.5 385.5 152 390 L 147 390 L 147 387 L 152 387 L 152 385 Z "></path><path fill="rgb(62,255,206)" stroke="rgb(62,255,206)" stroke-width="1" opacity="1" d="M 162 390 L 164 390.5 L 164 400 L 160 400 L 160 392 Q 163 393 162 390 Z "></path><path fill="rgb(62,255,206)" stroke="rgb(62,255,206)" stroke-width="1" opacity="1" d="M 68 395 Q 72.1 393.7 71 397 Q 66.9 398.3 68 395 Z "></path></svg>