<svg width="400" height="400" version="1.1" xmlns="http://www.w3.org/2000/svg" desc="Created with imagetracer.js version 1.2.5"><path fill="rgb(0,0,0)" stroke="rgb(0,0,0)" stroke-width="1" opacity="0" d="M 0 0 L 400 0 L 400 400 L 0 400 L 0 0 Z M 306 40 L 306 42 L 206 65 L 202 65 L 193 68 L 153 76 L 144 79 L 104 87 L 95 90 L 55 98 L 28 105 L 25 105 L 25 111 L 119 90 L 123 90 L 150 83 L 154 83 L 159 81 L 163 81 L 168 79 L 172 79 L 208 70 L 212 70 L 217 68 L 221 68 L 257 59 L 261 59 L 266 57 L 270 57 L 306 48 L 310 48 L 311 48 L 311 152 L 308 155 L 300 172 Q 301 174 298 173 L 298 176 L 271 228 Q 272 230 269 229 L 268 234 L 242 284 Q 243 286 240 285 L 237 293 Q 236 301 239 305 L 298 191 Q 297 188 300 189 L 301 185 L 316 156 L 318 154 L 397 154 L 397 42 Q 394 43 395 40 L 306 40 Z M 305 81 L 238 115 L 235 113 L 225 93 Q 226 90 224 91 L 216 111 L 216 114 L 202 156 L 225 164 L 265 176 Q 266 180 268 177 L 256 154 L 256 150 L 259 150 L 304 126 L 306 126 L 306 82 L 305 81 Z M 90 121 Q 88 123 84 122 L 81 124 L 74 124 L 70 126 L 61 126 L 57 129 L 46 131 L 39 134 L 38 138 L 35 140 Q 36 142 33 141 L 30 148 Q 31 150 28 149 L 22 164 Q 24 170 20 169 L 20 174 L 17 180 L 15 192 L 15 194 L 12 202 L 12 211 L 10 213 L 11 215 L 10 226 L 9 227 L 10 239 L 17 255 L 17 259 L 20 263 L 20 267 L 22 269 Q 20 275 24 274 L 27 285 L 30 289 L 40 314 L 51 334 Q 50 336 53 335 L 53 338 L 61 347 Q 64 346 63 349 L 66 350 Q 69 349 68 352 L 114 374 L 132 378 L 134 380 L 140 380 L 142 382 L 149 384 L 155 384 L 163 387 L 161 385 L 165 382 L 176 366 Q 175 363 178 364 L 189 313 L 191 306 L 193 304 L 193 299 L 195 297 L 198 277 L 201 270 L 201 263 L 203 260 L 204 250 L 206 247 Q 205 241 207 240 L 206 221 Q 203 215 203 207 L 201 204 L 201 199 L 199 197 L 198 191 L 193 181 L 193 178 L 185 163 Q 186 160 183 161 L 180 156 Q 181 153 178 154 L 178 151 L 177 151 L 172 145 Q 169 146 170 143 L 168 143 L 168 141 L 157 136 L 150 131 L 131 124 L 124 124 L 116 121 L 90 121 Z M 220 195 L 221 197 Q 222 194 220 195 Z "></path><path fill="rgb(0,0,0)" stroke="rgb(0,0,0)" stroke-width="1" opacity="0" d="M 317 45 L 391 45 L 391 149 L 317 149 L 317 45 Z "></path><path fill="rgb(0,0,0)" stroke="rgb(0,0,0)" stroke-width="1" opacity="0" d="M 74 224 L 87.5 227 L 106.5 227 L 112.5 229 L 124.5 230 L 128.5 232 L 143.5 232 Q 147.9 235.1 156.5 234 L 160 237.5 L 160 239 L 164 239 L 165 234 L 178 232 Q 176.8 229 180.5 230 L 194.5 226 L 196 227.5 L 196 244.5 L 193.5 251 L 190 252 Q 191.3 255.3 186.5 254 L 183 257.5 L 183 277.5 L 182 278.5 L 181 293.5 L 178 297.5 L 173 315.5 L 170 319.5 Q 171 324.5 168 325.5 L 168 331.5 Q 164.8 333.3 165 338.5 L 169 344.5 L 168 347 Q 165.3 345.9 166 348.5 L 161.5 355 Q 159.3 354.3 160 356.5 L 157.5 355 L 155 355 Q 156.1 352.3 153.5 353 L 147.5 349 L 145 349 Q 146.3 345.7 141.5 347 L 139.5 345 L 118 337 L 118 322.5 L 120 316.5 L 120 290.5 L 122 282.5 L 122 257 L 115.5 257 L 112.5 255 Q 107 256.5 105.5 254 L 98.5 254 L 88 251 L 87 247 Q 83.7 248.3 85 243.5 L 80 232 L 78 232 L 78 229 Q 75.3 230.1 76 227.5 L 74 224 Z "></path><path fill="rgb(0,101,172)" stroke="rgb(0,101,172)" stroke-width="1" opacity="0.5411764705882353" d="M 306.5 40 L 307 43 L 125.5 84 L 121.5 84 L 112.5 87 L 72.5 95 L 63.5 98 L 32.5 104 L 27 106.5 Q 25.5 110.9 28.5 110 L 33.5 108 L 55.5 104 L 64.5 101 L 104.5 93 L 113.5 90 L 153.5 82 L 162.5 79 L 166.5 79 L 312 46 L 312 152.5 L 237.5 295 L 237 292.5 L 240 285 Q 242.7 286.1 242 283.5 L 268 233.5 L 269 229 Q 271.7 230.1 271 227.5 L 298 175.5 L 298 173 Q 300.7 174.1 300 171.5 L 308 154.5 L 311 151.5 L 311 47.5 L 309.5 48 L 305.5 48 L 269.5 57 L 265.5 57 L 260.5 59 L 256.5 59 L 220.5 68 L 216.5 68 L 211.5 70 L 207.5 70 L 171.5 79 L 167.5 79 L 162.5 81 L 158.5 81 L 153.5 83 L 149.5 83 L 122.5 90 L 118.5 90 L 25 111 L 25 105 L 27.5 105 L 54.5 98 L 94.5 90 L 103.5 87 L 143.5 79 L 152.5 76 L 192.5 68 L 201.5 65 L 205.5 65 L 306 42 L 306.5 40 Z "></path><path fill="rgb(0,101,172)" stroke="rgb(0,101,172)" stroke-width="1" opacity="0.5411764705882353" d="M 316.5 45 L 317 148.5 L 316 148.5 L 316.5 45 Z "></path><path fill="rgb(0,101,172)" stroke="rgb(0,101,172)" stroke-width="1" opacity="0.5411764705882353" d="M 391.5 45 L 392 148.5 L 391 148.5 L 391.5 45 Z "></path><path fill="rgb(0,101,172)" stroke="rgb(0,101,172)" stroke-width="1" opacity="0.5411764705882353" d="M 395 151 Q 398.3 149.9 397 154 Q 393.7 155.1 395 151 Z "></path><path fill="rgb(0,101,172)" stroke="rgb(0,101,172)" stroke-width="1" opacity="0.5411764705882353" d="M 315.5 154 L 317 154.5 L 301 184.5 L 300 189 Q 297.3 187.9 298 190.5 L 238.5 305 L 237 298.5 L 238 298.5 L 238.5 302 L 315.5 154 Z "></path><path fill="rgb(0,101,172)" stroke="rgb(0,101,172)" stroke-width="1" opacity="0.5411764705882353" d="M 219.5 195 Q 221.8 194.3 221 196.5 L 219.5 195 Z "></path><path fill="rgb(202,235,240)" stroke="rgb(202,235,240)" stroke-width="1" opacity="1" d="M 96.5 121 L 108.5 121 L 112.5 123 L 115 122 L 115.5 124 L 118 123.5 Q 117.3 120.9 120 122 Q 118.8 125 122.5 124 L 124.5 125 L 126.5 125 L 133 128.5 Q 131.3 130.8 126.5 130 L 125.5 129 Q 115 130.5 109 127.5 L 110.5 126 L 117 125.5 Q 114.6 122.9 108.5 124 L 105.5 122 L 96.5 122 L 96.5 121 Z M 119 127 L 119 128 L 122 128 L 119 127 Z "></path><path fill="rgb(202,235,240)" stroke="rgb(202,235,240)" stroke-width="1" opacity="1" d="M 87.5 122 L 93 122.5 Q 90.3 124.8 84.5 124 L 84.5 123 L 87.5 122 Z "></path><path fill="rgb(202,235,240)" stroke="rgb(202,235,240)" stroke-width="1" opacity="1" d="M 134.5 129 L 148.5 134 L 153 134 Q 151.8 137 155.5 136 L 159.5 141 L 157.5 141 L 143.5 135 L 145 137.5 Q 145.9 140.9 140.5 139 L 137.5 138 L 137.5 139 L 140.5 141 L 143 140 L 145 145 L 149.5 146 L 155.5 151 L 156.5 149 L 160 153.5 L 159.5 156 L 153.5 151 L 153 152.5 L 156 157.5 L 152.5 155 L 150 156.5 L 151 158.5 L 145 153.5 L 145 151 Q 142 152 143 149 L 140 149 L 140 147.5 L 138 144.5 L 138.5 141 L 135.5 141 L 128 134.5 L 131.5 134 Q 135 137.5 142.5 137 L 142.5 136 L 140 135.5 L 141 133.5 L 139.5 134 L 137 132.5 L 135.5 130 Q 133.3 129.3 134 131.5 L 132 130.5 L 134.5 129 Z M 142 143 Q 139 145 142 146 L 143 146 L 142 143 Z "></path><path fill="rgb(202,235,240)" stroke="rgb(202,235,240)" stroke-width="1" opacity="1" d="M 153.5 142 L 155.5 145 L 153.5 144 L 151.5 145 L 151.5 144 Q 154 144.7 153.5 142 Z "></path><path fill="rgb(202,235,240)" stroke="rgb(202,235,240)" stroke-width="1" opacity="1" d="M 72.5 143 L 74 143.5 L 69.5 149 L 67.5 148 L 66 148.5 L 72.5 143 Z "></path><path fill="rgb(202,235,240)" stroke="rgb(202,235,240)" stroke-width="1" opacity="1" d="M 153.5 146 L 154.5 148 L 153.5 146 Z "></path><path fill="rgb(202,235,240)" stroke="rgb(202,235,240)" stroke-width="1" opacity="1" d="M 77.5 150 L 80 154 L 89 153 L 89.5 151 L 90 152.5 L 87 154 Q 85.9 157.5 93.5 156 L 95.5 157 L 100.5 156 L 103 157 L 103 159 L 108 159 L 108 160.5 L 108 162.5 Q 107.3 164.8 109.5 164 L 109.5 165 L 106.5 166 L 105 165.5 L 105.5 168 L 109.5 166 Q 112.8 164.9 112 167.5 L 114 171.5 L 113 174 L 116.5 174 L 122.5 171 L 126 177 Q 129.7 175.7 128 181.5 L 120.5 189 L 114 190 Q 115 193 112 192 L 112 196 L 110.5 196 L 103.5 199 L 103 196.5 L 107 191.5 L 103 189.5 L 105 188.5 L 102.5 188 L 97.5 194 Q 93.8 195 95 192 L 98 190.5 Q 98.9 187.1 93.5 189 L 91 190 Q 92.1 192.7 89.5 192 L 86.5 188 L 84.5 188 Q 77.5 189.5 78 186.5 Q 81.7 185.2 81 181 Q 76.4 179.8 75 182.5 Q 76.7 188.3 73 187 L 75 181.5 L 72.5 180 L 70 181 Q 71.7 185.1 67.5 184 Q 65 182.8 66 179 Q 61.9 180.7 63 176.5 L 62.5 174 L 54.5 171 L 53 174 Q 56 172.8 55 176.5 L 52 178 L 53 174 Q 49.3 175.2 51 170 L 55 169 Q 54.3 165.2 57.5 164 Q 59 167.5 60.5 165 L 64 162.5 Q 62.5 159.5 56.5 161 L 54.5 161 L 45.5 163 L 42 166.5 L 40.5 169 Q 38.3 168.3 39 170.5 L 38 170.5 L 39.5 168 Q 41.8 168.8 41 166.5 L 39.5 164 L 34 171 Q 31.3 169.9 32 172.5 L 30 173.5 L 35 166.5 L 33.5 166 L 29.5 170 L 28.5 169 L 24.5 170 L 25.5 168 Q 28.1 168.7 27 166 L 29.5 166 L 32 162.5 L 29.5 164 L 25.5 166 L 24 163.5 L 26.5 163 L 31.5 161 Q 32.8 163.3 34 160.5 L 34 159 L 38 159 Q 37 156 40 157 L 38 163 L 40.5 162 L 42.5 165 L 46.5 159 L 62.5 159 L 63 156 L 65.5 156 L 67.5 155 L 70.5 156 L 77.5 150 Z M 69 158 L 65 159 L 67 162 L 70 160 Q 71 157 69 158 Z M 71 163 L 69 166 L 72 164 L 71 163 Z M 64 165 L 63 167 L 62 166 Q 59 165 60 168 L 63 169 Q 67 167 64 165 Z M 69 168 L 64 173 L 65 175 L 70 174 L 70 169 L 69 168 Z "></path><path fill="rgb(202,235,240)" stroke="rgb(202,235,240)" stroke-width="1" opacity="1" d="M 34.5 156 L 33.5 158 L 34.5 156 Z "></path><path fill="rgb(202,235,240)" stroke="rgb(202,235,240)" stroke-width="1" opacity="1" d="M 167.5 171 L 168 173 L 170 173.5 L 168.5 174 L 167.5 171 Z "></path><path fill="rgb(202,235,240)" stroke="rgb(202,235,240)" stroke-width="1" opacity="1" d="M 24 172 L 28 172.5 L 24 175.5 L 24 172 Z "></path><path fill="rgb(202,235,240)" stroke="rgb(202,235,240)" stroke-width="1" opacity="1" d="M 29.5 175 L 32 175.5 L 28 178 L 29.5 175 Z "></path><path fill="rgb(202,235,240)" stroke="rgb(202,235,240)" stroke-width="1" opacity="1" d="M 36 176 Q 38.7 174.9 38 177.5 L 36 178.5 L 36 176 Z "></path><path fill="rgb(202,235,240)" stroke="rgb(202,235,240)" stroke-width="1" opacity="1" d="M 172 176 L 174 176.5 L 172 177.5 L 172 176 Z "></path><path fill="rgb(202,235,240)" stroke="rgb(202,235,240)" stroke-width="1" opacity="1" d="M 157.5 178 L 161 180.5 Q 158.7 181.8 161.5 183 Q 163.8 183.8 163 181.5 L 164 179.5 L 163.5 178 L 166 183.5 L 165 184.5 L 165 194 L 167 193.5 L 166.5 192 Q 171.8 190.8 173 193.5 L 176.5 200 L 178 199.5 L 177 200.5 L 180.5 205 L 179 204.5 L 183 216.5 L 182 219.5 L 184 224 Q 181.3 222.9 182 225.5 L 181 228 L 178.5 227 Q 176 234.3 165 232 L 163.5 237 L 162 232.5 L 163 227.5 L 161.5 228 L 160 227.5 L 163 225.5 L 162 220.5 L 160 218.5 L 159 201.5 L 156 188.5 Q 158.2 187.3 157 182.5 L 155 179.5 L 157.5 178 Z M 160 189 L 160 192 Q 159 196 164 194 L 160 189 Z M 179 212 L 177 214 L 178 217 L 181 218 L 180 216 Q 181 211 179 212 Z "></path><path fill="rgb(202,235,240)" stroke="rgb(202,235,240)" stroke-width="1" opacity="1" d="M 174.5 178 L 177 181.5 L 176 184 Q 173.3 185.1 174 182.5 L 173 179.5 L 174.5 178 Z "></path><path fill="rgb(202,235,240)" stroke="rgb(202,235,240)" stroke-width="1" opacity="1" d="M 130 181 Q 134.1 179.3 133 183.5 L 130 190 Q 127.3 188.9 128 191.5 Q 126 196 124 192.5 L 125 190.5 L 124 188.5 L 127.5 184 Q 131.7 185.1 130 181 Z "></path><path fill="rgb(202,235,240)" stroke="rgb(202,235,240)" stroke-width="1" opacity="1" d="M 134.5 181 L 138 183.5 Q 137.3 185.8 139.5 185 L 141 185.5 L 141.5 184 L 142 186 L 146.5 185 L 155 191.5 L 156 193.5 L 156 197.5 L 157 200.5 L 156 200.5 L 155 197 L 153 197 Q 154.1 194.3 151.5 195 L 150 192 L 143.5 190 L 141.5 190 L 138 188.5 L 134 182.5 L 134.5 181 Z "></path><path fill="rgb(202,235,240)" stroke="rgb(202,235,240)" stroke-width="1" opacity="1" d="M 178.5 185 L 182 187.5 L 181 189.5 L 183 193.5 L 180 191.5 Q 176.9 189.5 178.5 185 Z "></path><path fill="rgb(202,235,240)" stroke="rgb(202,235,240)" stroke-width="1" opacity="1" d="M 90 209 L 93 209.5 L 92 212 Q 88.7 213.1 90 209 Z "></path><path fill="rgb(202,235,240)" stroke="rgb(202,235,240)" stroke-width="1" opacity="1" d="M 11 212 L 13 212.5 L 11.5 217 L 11 212 Z "></path><path fill="rgb(202,235,240)" stroke="rgb(202,235,240)" stroke-width="1" opacity="1" d="M 93.5 219 L 95.5 219 L 98 219.5 L 94 222.5 L 94.5 224 Q 92.3 224.8 93 222.5 L 93 220.5 L 93.5 219 Z "></path><path fill="rgb(202,235,240)" stroke="rgb(202,235,240)" stroke-width="1" opacity="1" d="M 57.5 222 L 58.5 224 Q 55.7 224.7 57.5 222 Z "></path><path fill="rgb(202,235,240)" stroke="rgb(202,235,240)" stroke-width="1" opacity="1" d="M 63.5 222 L 64 223.5 L 62.5 226 L 62 223.5 L 63.5 222 Z "></path><path fill="rgb(202,235,240)" stroke="rgb(202,235,240)" stroke-width="1" opacity="1" d="M 102.5 222 L 105 223.5 L 103.5 224 L 102.5 222 Z "></path><path fill="rgb(202,235,240)" stroke="rgb(202,235,240)" stroke-width="1" opacity="1" d="M 199.5 222 L 201 225 Q 197.5 226.1 199.5 222 Z "></path><path fill="rgb(202,235,240)" stroke="rgb(202,235,240)" stroke-width="1" opacity="1" d="M 11.5 224 L 12 228.5 L 10.5 232 L 10 227.5 L 11.5 224 Z "></path><path fill="rgb(202,235,240)" stroke="rgb(202,235,240)" stroke-width="1" opacity="1" d="M 70 224 Q 74.1 222.3 73 226.5 L 73.5 228 L 70 226 L 70 224 Z "></path><path fill="rgb(202,235,240)" stroke="rgb(202,235,240)" stroke-width="1" opacity="1" d="M 200.5 230 L 201 233.5 L 200 233.5 L 200.5 230 Z "></path><path fill="rgb(202,235,240)" stroke="rgb(202,235,240)" stroke-width="1" opacity="1" d="M 150.5 231 L 153 231.5 L 150.5 232 L 150.5 231 Z "></path><path fill="rgb(202,235,240)" stroke="rgb(202,235,240)" stroke-width="1" opacity="1" d="M 79.5 235 L 81 238.5 L 80 238.5 Q 80.8 236.3 78.5 237 L 79.5 235 Z "></path><path fill="rgb(202,235,240)" stroke="rgb(202,235,240)" stroke-width="1" opacity="1" d="M 200.5 239 L 201 241.5 L 199.5 244 L 199 240.5 L 200.5 239 Z "></path><path fill="rgb(202,235,240)" stroke="rgb(202,235,240)" stroke-width="1" opacity="1" d="M 16.5 248 L 17 251 Q 14.3 252.1 15 249.5 L 16.5 248 Z "></path><path fill="rgb(202,235,240)" stroke="rgb(202,235,240)" stroke-width="1" opacity="1" d="M 20.5 262 L 22 264.5 L 20 263.5 L 20.5 262 Z "></path><path fill="rgb(202,235,240)" stroke="rgb(202,235,240)" stroke-width="1" opacity="1" d="M 23.5 270 L 24.5 272 Q 21.7 272.7 23.5 270 Z "></path><path fill="rgb(202,235,240)" stroke="rgb(202,235,240)" stroke-width="1" opacity="1" d="M 162.5 358 L 161.5 360 L 162.5 358 Z "></path><path fill="rgb(111,150,160)" stroke="rgb(111,150,160)" stroke-width="1" opacity="1" d="M 93 121 L 100 122.5 L 93 123 L 93 121 Z "></path><path fill="rgb(111,150,160)" stroke="rgb(111,150,160)" stroke-width="1" opacity="1" d="M 110.5 121 L 113 121.5 Q 113.7 124.5 110 123 L 110.5 121 Z "></path><path fill="rgb(111,150,160)" stroke="rgb(111,150,160)" stroke-width="1" opacity="1" d="M 115 122 Q 118.7 120.5 118 123.5 L 115 124.5 L 117 125.5 L 115.5 126 L 113 124.5 L 115 124 L 115 122 Z "></path><path fill="rgb(111,150,160)" stroke="rgb(111,150,160)" stroke-width="1" opacity="1" d="M 126.5 124 Q 129.4 126.6 135.5 126 L 150 132 Q 151.1 134.7 148.5 134 Q 144.2 130.3 136.5 130 L 137 131.5 L 138.5 134 L 140 133.5 L 139.5 132 L 141 134.5 L 138 136.5 Q 140.8 134.8 136.5 133 Q 132.3 134.1 134 130 L 136 129.5 L 126.5 125 L 126.5 124 Z "></path><path fill="rgb(111,150,160)" stroke="rgb(111,150,160)" stroke-width="1" opacity="1" d="M 90.5 125 L 93 125.5 L 90.5 126 L 90.5 125 Z "></path><path fill="rgb(111,150,160)" stroke="rgb(111,150,160)" stroke-width="1" opacity="1" d="M 68.5 126 L 70 126.5 L 67.5 128 L 68.5 126 Z "></path><path fill="rgb(111,150,160)" stroke="rgb(111,150,160)" stroke-width="1" opacity="1" d="M 108 126 L 110 126.5 L 108 127.5 L 108 126 Z "></path><path fill="rgb(111,150,160)" stroke="rgb(111,150,160)" stroke-width="1" opacity="1" d="M 118.5 127 L 122 127.5 L 118.5 128 L 118.5 127 Z "></path><path fill="rgb(111,150,160)" stroke="rgb(111,150,160)" stroke-width="1" opacity="1" d="M 110.5 128 L 113 128.5 L 110.5 129 L 110.5 128 Z "></path><path fill="rgb(111,150,160)" stroke="rgb(111,150,160)" stroke-width="1" opacity="1" d="M 124.5 129 L 128.5 131 L 131.5 129 L 133 131.5 L 130.5 133 L 125.5 131 L 124.5 129 Z "></path><path fill="rgb(111,150,160)" stroke="rgb(111,150,160)" stroke-width="1" opacity="1" d="M 153.5 134 L 154.5 136 Q 151.7 136.7 153.5 134 Z "></path><path fill="rgb(111,150,160)" stroke="rgb(111,150,160)" stroke-width="1" opacity="1" d="M 143.5 135 L 157.5 141 L 156.5 139 L 155 138.5 L 157 137.5 L 156.5 136 L 168 142 L 168 144 L 170 144 Q 168.9 146.7 171.5 146 L 173 149 L 175 149 Q 173.5 152.7 176.5 152 Q 181.8 156.8 184 164.5 L 182 165.5 L 184 170.5 Q 181.3 172.3 185.5 174 L 186.5 172 L 189 172.5 L 186 174.5 L 188.5 179 L 189.5 174 Q 192.3 175.3 190 176.5 L 191.5 179 Q 193.8 178.3 193 180.5 L 191 180.5 L 192 184 L 195 185.5 L 201 204 L 199 203.5 L 199.5 202 Q 197.3 202.8 198 200.5 L 196.5 197 L 196 200.5 L 198 204.5 L 197 207 L 199.5 206 L 198 208.5 L 197.5 212 L 197 209 L 195 209.5 L 197 214.5 L 196 217.5 L 198 222.5 Q 196.8 225 193 224 Q 194.1 226.7 191.5 226 L 190 225.5 Q 190.9 228.5 186.5 227 L 183.5 228 L 175.5 231 L 178.5 227 L 181 228 L 182 224.5 L 181.5 221 L 183 221.5 L 182 217.5 L 183 214.5 L 179 204.5 L 180 203.5 L 175 198.5 L 171.5 192 L 166 192.5 L 166.5 194 L 165 193.5 L 165 184.5 L 165 182.5 L 164.5 179 L 163 183 L 160 181.5 Q 162.3 180.3 159.5 179 L 157.5 178 L 154 179 L 155.5 176 L 157.5 176 L 162.5 180 L 163.5 178 Q 160.9 178.8 162 175.5 L 160.5 173 L 158.5 174 L 159 172.5 L 158.5 170 L 157 170.5 L 158 169.5 L 156.5 167 L 161.5 169 L 161.5 168 Q 159.3 168.8 160 166.5 L 157.5 163 L 156.5 166 L 154.5 161 L 153 161.5 L 154.5 164 L 152 162.5 L 154 159.5 L 152.5 159 L 151 159.5 L 150 156.5 L 150.5 154 L 155.5 158 L 156 156.5 L 153 151.5 L 156.5 154 L 158.5 155 Q 162.2 152.7 157 150.5 L 156.5 149 L 154 150 L 155 147.5 Q 153.5 144.5 152 147.5 L 152.5 149 L 151 146 L 148.5 145 L 146.5 145 Q 144.3 145.8 145 143.5 L 143.5 141 L 146 141.5 L 145.5 143 L 148.5 144 L 148 142.5 L 147 140.5 L 147.5 139 L 145.5 140 L 144.5 137 L 143 137.5 L 143.5 135 Z M 154 142 Q 152 145 155 144 L 154 142 Z M 151 144 L 151 145 L 153 145 L 151 144 Z M 160 155 L 160 156 L 162 156 L 160 155 Z M 163 156 L 162 159 L 163 159 L 163 156 Z M 164 159 L 165 161 Q 166 158 164 159 Z M 180 164 L 180 166 L 182 165 L 180 164 Z M 182 167 L 181 170 L 183 170 L 182 167 Z M 172 176 L 172 178 L 174 177 L 172 176 Z M 182 176 Q 182 180 180 179 L 181 181 L 183 180 L 182 176 Z M 175 178 L 173 180 L 174 183 Q 173 185 176 184 L 177 182 L 175 178 Z M 184 181 L 186 185 L 186 183 L 184 181 Z M 184 184 L 182 186 L 184 186 L 185 187 L 184 184 Z M 179 185 Q 177 189 180 192 L 183 194 L 181 190 L 182 188 L 179 185 Z M 194 205 L 195 207 Q 196 204 194 205 Z M 184 222 L 182 224 L 184 224 L 184 222 Z "></path><path fill="rgb(111,150,160)" stroke="rgb(111,150,160)" stroke-width="1" opacity="1" d="M 137.5 138 L 141 139.5 L 140.5 141 L 137.5 138 Z "></path><path fill="rgb(111,150,160)" stroke="rgb(111,150,160)" stroke-width="1" opacity="1" d="M 78.5 140 L 80 140.5 L 78 141 L 77.5 144 L 76.5 143 L 73 146.5 L 73.5 149 Q 78.3 149.8 80 147.5 L 77 145.5 L 78.5 146 L 81.5 148 L 83 147.5 Q 81.7 151.7 86.5 150 L 89 151 L 89.5 153 L 90 151 L 94.5 149 L 96.5 149 L 99.5 151 L 98.5 154 Q 107.5 156 109.5 151 L 110 154 L 106 155.5 L 108.5 157 L 110 156.5 L 110 159 L 113 159 L 113 164 L 114.5 164 L 114.5 162 Q 116 165.5 117.5 163 L 120 163 Q 119 160 122 161 L 123 164.5 L 120 166 Q 118.7 169.3 123.5 168 L 126.5 166 L 126 167.5 Q 126.8 169.8 124.5 169 L 125.5 171 L 130 172.5 L 128 173.5 L 130 174 L 130.5 176 L 131.5 173 L 132 176.5 L 131 179 L 136 179 L 136 181 Q 138.7 179.9 138 182.5 Q 139.8 185.8 141.5 182 L 145.5 183 L 147 182.5 L 148.5 185 L 150 184.5 Q 149.3 188.3 151.5 189 L 155 190.5 L 153.5 190 L 151.5 190 L 146.5 185 L 142 186 L 141.5 184 L 140.5 186 L 138 185 L 136.5 182 L 134.5 181 L 134 182.5 L 139.5 190 L 142.5 191 L 145.5 190 L 146.5 192 L 142.5 193 L 139.5 192 L 137 190.5 Q 138.1 187.2 135.5 188 L 132.5 189 L 130 188.5 L 132.5 184 Q 135.3 185.2 133 186.5 Q 132.3 189.1 135 188 L 135 184.5 L 133 181 L 130 181 Q 131.7 185.1 127.5 184 L 124 189.5 L 124 191.5 L 125.5 194 L 128 190 Q 130.7 188.9 130 191.5 L 127.5 198 L 126 197.5 L 124 202.5 L 125.5 203 L 130 202 Q 131.1 204.7 128.5 204 L 125.5 205 L 124 204.5 L 118 213.5 L 118 217 L 113.5 219 L 113.5 218 L 116 216.5 L 115 209 L 118 207.5 Q 118.8 205.3 116.5 206 L 113 204.5 L 115 204 L 115.5 202 L 118 203 L 118.5 201 L 120 201.5 L 120 199 Q 123 200.3 122 196.5 Q 124.2 195.3 121.5 194 Q 120.2 197.7 116 197 Q 117.4 201 110.5 199 L 105 201 Q 106.3 204 102.5 203 Q 101.2 205.3 100 202.5 L 98.5 199 L 97.5 201 L 97 199 Q 93.6 199.8 92.5 197 L 89.5 199 Q 87.5 195.8 83 196 L 81.5 193 L 78 192 Q 79.3 189 75.5 190 L 73 191 L 70.5 187 Q 64.7 187.8 63 184.5 L 64 181.5 L 57.5 178 L 55.5 179 L 51.5 179 Q 49.3 179.8 50 177.5 L 52 176.5 Q 51.3 178.8 53.5 178 L 55 174 Q 52.3 175.1 53 172.5 Q 54.3 169.8 55.5 172 Q 61 171.5 63 174.5 L 63 176.5 Q 61.9 180.7 66 179 L 66 182.5 L 70 184 Q 68.5 180.3 71.5 181 L 73.5 181 L 75.5 182 L 81 181 L 81 183.5 L 78 188 L 84.5 188 L 85.5 189 Q 86.8 186.8 88 189.5 L 89.5 192 L 92.5 190 L 98 189 L 96.5 192 Q 93.9 191.3 95 194 Q 98.8 194.8 100 191.5 L 102.5 188 L 105 188.5 L 103 189.5 L 107 191.5 Q 103.4 193.3 103 198.5 L 104.5 198 L 112 196 L 112 192 Q 115 193 114 190 L 116.5 190 L 120.5 189 L 128 181.5 L 128 177 Q 125.3 178.1 126 175.5 L 122.5 171 L 116.5 174 L 113 174 L 114 169.5 L 112 166 Q 108.6 165.3 107.5 168 L 105 167.5 Q 106.1 164.2 103.5 165 L 103.5 164 L 105.5 165 L 107.5 165 L 110 164.5 L 107 161.5 L 108 160.5 L 108 159 L 103 159 Q 104.1 156.3 101.5 157 L 96.5 156 L 94.5 157 L 93.5 156 L 87 156 Q 85.9 153.3 88.5 154 L 88.5 153 L 80 154 L 77.5 150 L 70.5 156 L 68.5 156 L 66.5 155 L 63 156 L 62.5 159 L 48 159 Q 46.9 156.3 49.5 157 L 49.5 156 Q 47.3 156.8 48 154.5 L 50 154.5 Q 49.3 152.3 51.5 153 L 53 152.5 Q 54.3 156.3 50.5 155 L 50.5 156 Q 54.3 156.8 55 154.5 L 55 152.5 L 56 149 L 61.5 146 L 61.5 147 Q 58.9 146.3 60 149 L 58 149 L 58 150.5 L 57 153 L 60.5 151 L 62 155 L 60 155.5 L 62.5 156 L 65 151.5 Q 62.8 150.3 65.5 149 L 67 148.5 L 65.5 146 L 67 146.5 Q 66.3 144.3 68.5 145 L 68.5 147 L 70.5 148 L 71.5 145 L 73 145.5 L 75.5 141 L 78.5 140 Z M 70 149 Q 69 152 73 151 Q 74 148 70 149 Z M 75 182 L 73 185 Q 72 188 75 187 L 75 182 Z "></path><path fill="rgb(111,150,160)" stroke="rgb(111,150,160)" stroke-width="1" opacity="1" d="M 137 141 L 140 142.5 Q 138.5 145.5 137 142.5 L 137 141 Z "></path><path fill="rgb(111,150,160)" stroke="rgb(111,150,160)" stroke-width="1" opacity="1" d="M 141.5 143 L 143 145.5 L 141.5 146 Q 138.5 144.5 141.5 143 Z "></path><path fill="rgb(111,150,160)" stroke="rgb(111,150,160)" stroke-width="1" opacity="1" d="M 53.5 146 L 56 146.5 L 55 149 L 50 151 L 53.5 146 Z "></path><path fill="rgb(111,150,160)" stroke="rgb(111,150,160)" stroke-width="1" opacity="1" d="M 38.5 152 L 39 154 L 37 153.5 L 38.5 152 Z "></path><path fill="rgb(111,150,160)" stroke="rgb(111,150,160)" stroke-width="1" opacity="1" d="M 28.5 153 L 30 156 L 32.5 157 L 34 156.5 L 32 162.5 L 29.5 166 L 27 166 Q 28.1 168.7 25.5 168 L 26.5 170 L 28.5 169 Q 31.5 170.5 28.5 172 L 23.5 171 L 22 171.5 L 25 169.5 L 22 167.5 L 27.5 164 Q 31.5 164.5 32 161.5 L 31 159 L 28 160.5 L 30 161.5 L 25.5 164 L 26 162.5 L 25.5 161 L 24 161.5 L 27.5 156 L 27 157.5 L 27.5 159 Q 31.7 157.2 29 155.5 L 28.5 153 Z "></path><path fill="rgb(111,150,160)" stroke="rgb(111,150,160)" stroke-width="1" opacity="1" d="M 40.5 154 L 41 155.5 L 38 157 Q 39.1 159.7 36.5 159 L 38.5 156 Q 41 156.7 40.5 154 Z "></path><path fill="rgb(111,150,160)" stroke="rgb(111,150,160)" stroke-width="1" opacity="1" d="M 68.5 158 Q 70.8 157.3 70 159.5 L 66.5 162 L 65 159 L 68.5 158 Z "></path><path fill="rgb(111,150,160)" stroke="rgb(111,150,160)" stroke-width="1" opacity="1" d="M 39.5 159 L 39.5 161 Q 42.1 161.7 41 159 L 43 159 L 42 161.5 L 48.5 163 Q 49.9 160.4 54.5 161 L 56.5 161 Q 62.5 159.5 64 162.5 L 60 165.5 L 62.5 167 L 63.5 165 L 65 168.5 L 64.5 170 L 63.5 168 L 61.5 168 Q 59.3 168.8 60 166.5 L 57.5 164 L 55 165.5 L 56.5 163 L 51 163.5 L 51.5 165 L 48.5 164 L 48.5 165 L 51.5 167 L 55 168.5 L 51 170 L 50.5 172 L 48.5 171 L 47 171.5 L 47 169 Q 43.2 170.5 44 167.5 L 45 165.5 L 41 166.5 L 42 170.5 L 40.5 174 L 38.5 169 L 38 171 L 35 172.5 L 34.5 174 L 34 172.5 L 39 166.5 Q 36.8 165.3 39.5 164 L 39.5 166 L 42 164.5 L 40.5 162 L 39 162.5 L 38 160.5 L 39.5 159 Z "></path><path fill="rgb(111,150,160)" stroke="rgb(111,150,160)" stroke-width="1" opacity="1" d="M 115.5 159 L 114.5 161 L 115.5 159 Z "></path><path fill="rgb(111,150,160)" stroke="rgb(111,150,160)" stroke-width="1" opacity="1" d="M 70.5 163 L 72 163.5 L 68.5 166 L 70.5 163 Z "></path><path fill="rgb(111,150,160)" stroke="rgb(111,150,160)" stroke-width="1" opacity="1" d="M 33.5 166 L 35 166.5 L 31.5 169 L 33.5 166 Z "></path><path fill="rgb(111,150,160)" stroke="rgb(111,150,160)" stroke-width="1" opacity="1" d="M 35.5 168 L 34.5 170 L 35.5 168 Z "></path><path fill="rgb(111,150,160)" stroke="rgb(111,150,160)" stroke-width="1" opacity="1" d="M 68.5 168 L 70 168.5 L 70 174 L 64.5 175 L 64 172.5 L 68.5 168 Z "></path><path fill="rgb(111,150,160)" stroke="rgb(111,150,160)" stroke-width="1" opacity="1" d="M 185.5 168 Q 187.8 167.3 187 169.5 L 187.5 171 L 185.5 168 Z "></path><path fill="rgb(111,150,160)" stroke="rgb(111,150,160)" stroke-width="1" opacity="1" d="M 32.5 171 L 33 172.5 L 33 174.5 L 30.5 178 L 31.5 175 L 28.5 176 L 29.5 174 L 31 173.5 L 30.5 172 L 32 172.5 L 32.5 171 Z "></path><path fill="rgb(111,150,160)" stroke="rgb(111,150,160)" stroke-width="1" opacity="1" d="M 85.5 171 L 87 171.5 L 85 172 L 84.5 174 L 84 172.5 L 85.5 171 Z "></path><path fill="rgb(111,150,160)" stroke="rgb(111,150,160)" stroke-width="1" opacity="1" d="M 21.5 173 L 24 173.5 Q 25 177.3 22 176 L 21.5 173 Z "></path><path fill="rgb(111,150,160)" stroke="rgb(111,150,160)" stroke-width="1" opacity="1" d="M 27.5 173 L 25.5 176 L 27.5 173 Z "></path><path fill="rgb(111,150,160)" stroke="rgb(111,150,160)" stroke-width="1" opacity="1" d="M 135.5 174 L 136 177 L 138 177.5 L 135 178 L 135.5 174 Z "></path><path fill="rgb(111,150,160)" stroke="rgb(111,150,160)" stroke-width="1" opacity="1" d="M 35.5 178 L 34.5 180 L 35.5 178 Z "></path><path fill="rgb(111,150,160)" stroke="rgb(111,150,160)" stroke-width="1" opacity="1" d="M 155.5 180 Q 158.1 182.5 157 188 L 155 187.5 L 155 185.5 L 155.5 180 Z "></path><path fill="rgb(111,150,160)" stroke="rgb(111,150,160)" stroke-width="1" opacity="1" d="M 159.5 189 L 163.5 194 Q 158.7 195.7 160 191.5 L 159.5 189 Z "></path><path fill="rgb(111,150,160)" stroke="rgb(111,150,160)" stroke-width="1" opacity="1" d="M 57 193 Q 59.7 191.9 59 194.5 L 57 195.5 L 57 193 Z "></path><path fill="rgb(111,150,160)" stroke="rgb(111,150,160)" stroke-width="1" opacity="1" d="M 150.5 194 L 153 195 Q 151.9 197.7 154.5 197 Q 155.8 194.8 157 197.5 L 155 197.5 L 156 201 Q 159.8 199.5 159 202.5 L 157 203.5 L 157.5 202 L 155 202.5 L 155.5 204 L 154 200.5 Q 154.7 197.9 152 199 L 152 197 L 150 197 L 150.5 194 Z "></path><path fill="rgb(111,150,160)" stroke="rgb(111,150,160)" stroke-width="1" opacity="1" d="M 148.5 201 L 151 201.5 Q 148.9 204.8 148.5 201 Z "></path><path fill="rgb(111,150,160)" stroke="rgb(111,150,160)" stroke-width="1" opacity="1" d="M 59.5 203 L 58.5 205 L 59.5 203 Z "></path><path fill="rgb(111,150,160)" stroke="rgb(111,150,160)" stroke-width="1" opacity="1" d="M 88.5 204 L 87.5 206 L 88.5 204 Z "></path><path fill="rgb(111,150,160)" stroke="rgb(111,150,160)" stroke-width="1" opacity="1" d="M 156.5 206 L 159 207.5 L 160 210.5 L 159 212.5 L 160 216.5 L 159 216.5 L 158 207 L 156.5 206 Z "></path><path fill="rgb(111,150,160)" stroke="rgb(111,150,160)" stroke-width="1" opacity="1" d="M 90.5 207 L 93 207.5 Q 92.3 209.8 94.5 209 L 92.5 212 L 92 210.5 L 92.5 209 L 90 209 Q 91.7 214.2 88 213 L 90.5 207 Z "></path><path fill="rgb(111,150,160)" stroke="rgb(111,150,160)" stroke-width="1" opacity="1" d="M 110.5 208 L 113 208.5 L 110.5 209 L 110.5 208 Z "></path><path fill="rgb(111,150,160)" stroke="rgb(111,150,160)" stroke-width="1" opacity="1" d="M 147.5 209 L 153.5 209 L 157 211 L 157 214.5 L 153.5 219 L 151 218 L 150.5 220 L 147 218.5 L 147.5 217 L 145 215.5 L 147.5 209 Z "></path><path fill="rgb(111,150,160)" stroke="rgb(111,150,160)" stroke-width="1" opacity="1" d="M 106.5 210 L 107.5 212 L 105 211.5 L 106.5 210 Z "></path><path fill="rgb(111,150,160)" stroke="rgb(111,150,160)" stroke-width="1" opacity="1" d="M 100 211 L 103 211.5 L 100 213.5 L 101.5 216 L 106 218.5 L 104.5 218 Q 101.9 217.3 103 220 L 105.5 221 L 109 218.5 L 108 222 L 106 222.5 L 106 224.5 L 105.5 226 L 102.5 225 L 99 223.5 L 98.5 221 L 97.5 224 L 93.5 222 L 92 222.5 Q 92.8 220.3 90.5 221 L 88.5 224 L 87.5 222 Q 89.8 222.8 89 220.5 L 94 217 L 95.5 214 L 97 213.5 L 96.5 212 L 99.5 213 L 100 211 Z M 94 219 L 95 222 L 98 220 L 96 219 L 94 219 Z "></path><path fill="rgb(111,150,160)" stroke="rgb(111,150,160)" stroke-width="1" opacity="1" d="M 134.5 211 L 133.5 213 L 132 212.5 L 134.5 211 Z "></path><path fill="rgb(111,150,160)" stroke="rgb(111,150,160)" stroke-width="1" opacity="1" d="M 176.5 211 L 180 212 L 181 218 L 178 216.5 L 177 213.5 L 177.5 212 L 176.5 211 Z "></path><path fill="rgb(111,150,160)" stroke="rgb(111,150,160)" stroke-width="1" opacity="1" d="M 198.5 213 L 201 220.5 L 200 220.5 L 198.5 213 Z "></path><path fill="rgb(111,150,160)" stroke="rgb(111,150,160)" stroke-width="1" opacity="1" d="M 63 214 Q 65.7 212.9 65 215.5 L 63 216.5 L 63 214 Z "></path><path fill="rgb(111,150,160)" stroke="rgb(111,150,160)" stroke-width="1" opacity="1" d="M 68.5 214 Q 74.6 212.2 72 219.5 L 73 221.5 L 71.5 221 Q 69.3 221.8 70 219.5 L 69 219.5 Q 69.8 221.8 67.5 221 L 68 219.5 Q 67.3 217.3 69.5 218 L 71 218.5 L 69 215.5 L 68.5 214 Z "></path><path fill="rgb(111,150,160)" stroke="rgb(111,150,160)" stroke-width="1" opacity="1" d="M 13.5 215 L 14 216.5 L 11.5 218 L 13.5 215 Z "></path><path fill="rgb(111,150,160)" stroke="rgb(111,150,160)" stroke-width="1" opacity="1" d="M 82.5 216 L 87 217 L 87 221 L 85.5 221 L 82.5 222 L 80.5 222 L 79 222.5 L 79.5 224 Q 77.3 224.8 78 222.5 L 83 219 L 82.5 216 Z "></path><path fill="rgb(111,150,160)" stroke="rgb(111,150,160)" stroke-width="1" opacity="1" d="M 58.5 220 L 60 223.5 L 60 225.5 Q 61.3 230.8 58.5 232 L 57.5 230 L 55 231.5 L 55 229.5 L 56.5 222 L 57 224 L 59 223.5 L 58.5 220 Z M 58 225 L 57 228 L 59 229 L 58 225 Z "></path><path fill="rgb(111,150,160)" stroke="rgb(111,150,160)" stroke-width="1" opacity="1" d="M 63.5 220 L 64 221.5 L 62 225.5 L 63 225.5 L 63.5 224 L 64 225.5 L 62.5 228 L 61 223.5 L 63.5 220 Z "></path><path fill="rgb(111,150,160)" stroke="rgb(111,150,160)" stroke-width="1" opacity="1" d="M 147 220 Q 150 219 149 222 Q 146 223 147 220 Z "></path><path fill="rgb(111,150,160)" stroke="rgb(111,150,160)" stroke-width="1" opacity="1" d="M 160 220 L 162 220.5 L 160 221.5 L 160 220 Z "></path><path fill="rgb(111,150,160)" stroke="rgb(111,150,160)" stroke-width="1" opacity="1" d="M 11.5 222 L 12 224 L 10 223.5 L 11.5 222 Z "></path><path fill="rgb(111,150,160)" stroke="rgb(111,150,160)" stroke-width="1" opacity="1" d="M 144.5 222 L 145.5 224 L 147.5 224 L 149.5 225 L 153 224 L 152 226.5 L 152.5 228 L 150 227 L 149 230.5 L 149.5 232 L 146.5 231 L 145 231.5 L 144.5 229 L 141.5 231 L 138.5 230 L 137 230.5 Q 138.8 226.2 140.5 229 Q 143.8 230.1 143 227.5 L 143 225.5 L 144.5 222 Z "></path><path fill="rgb(111,150,160)" stroke="rgb(111,150,160)" stroke-width="1" opacity="1" d="M 159.5 223 L 162 223.5 L 159.5 224 L 159.5 223 Z "></path><path fill="rgb(111,150,160)" stroke="rgb(111,150,160)" stroke-width="1" opacity="1" d="M 91.5 224 L 94 224.5 Q 91.9 227.8 91.5 224 Z "></path><path fill="rgb(111,150,160)" stroke="rgb(111,150,160)" stroke-width="1" opacity="1" d="M 114.5 224 L 113.5 226 L 109.5 227 L 107 226.5 L 108.5 225 Q 113.2 226.3 114.5 224 Z "></path><path fill="rgb(111,150,160)" stroke="rgb(111,150,160)" stroke-width="1" opacity="1" d="M 126.5 224 L 127.5 226 Q 124.7 226.7 126.5 224 Z "></path><path fill="rgb(111,150,160)" stroke="rgb(111,150,160)" stroke-width="1" opacity="1" d="M 161 225 L 163 225.5 L 163 227.5 L 162 234 L 159 232.5 L 162 231.5 L 161 229.5 L 162 227.5 L 161 225 Z "></path><path fill="rgb(111,150,160)" stroke="rgb(111,150,160)" stroke-width="1" opacity="1" d="M 200.5 225 L 201 227.5 L 200 227.5 L 200.5 225 Z "></path><path fill="rgb(111,150,160)" stroke="rgb(111,150,160)" stroke-width="1" opacity="1" d="M 120.5 226 L 124 227.5 L 122.5 227 Q 119.5 227.5 120.5 226 Z "></path><path fill="rgb(111,150,160)" stroke="rgb(111,150,160)" stroke-width="1" opacity="1" d="M 125 227 Q 128.8 226 130 228.5 L 128.5 229 L 126.5 229 Q 123.9 229.7 125 227 Z "></path><path fill="rgb(111,150,160)" stroke="rgb(111,150,160)" stroke-width="1" opacity="1" d="M 49.5 231 L 50 233.5 L 49 233.5 L 49.5 231 Z "></path><path fill="rgb(111,150,160)" stroke="rgb(111,150,160)" stroke-width="1" opacity="1" d="M 157.5 231 L 156.5 233 L 157.5 231 Z "></path><path fill="rgb(111,150,160)" stroke="rgb(111,150,160)" stroke-width="1" opacity="1" d="M 76.5 232 Q 79.1 231.3 78 234 L 75 233.5 L 76.5 232 Z "></path><path fill="rgb(111,150,160)" stroke="rgb(111,150,160)" stroke-width="1" opacity="1" d="M 70.5 236 L 71 239 L 69 238.5 L 70.5 236 Z "></path><path fill="rgb(111,150,160)" stroke="rgb(111,150,160)" stroke-width="1" opacity="1" d="M 200.5 237 L 201.5 239 L 199.5 240 L 200 238.5 L 200.5 237 Z "></path><path fill="rgb(111,150,160)" stroke="rgb(111,150,160)" stroke-width="1" opacity="1" d="M 12.5 238 Q 15.5 239.5 12.5 241 L 12.5 238 Z "></path><path fill="rgb(111,150,160)" stroke="rgb(111,150,160)" stroke-width="1" opacity="1" d="M 81.5 239 Q 83.8 238.3 83 240.5 L 81.5 239 Z "></path><path fill="rgb(111,150,160)" stroke="rgb(111,150,160)" stroke-width="1" opacity="1" d="M 15 247 L 17 247.5 L 15 248.5 L 15 247 Z "></path><path fill="rgb(111,150,160)" stroke="rgb(111,150,160)" stroke-width="1" opacity="1" d="M 16.5 251 L 19 255 Q 22.7 253.5 22 256.5 L 20 256.5 L 18.5 259 L 19 257.5 L 16.5 251 Z "></path><path fill="rgb(111,150,160)" stroke="rgb(111,150,160)" stroke-width="1" opacity="1" d="M 191.5 254 L 190.5 256 L 188 255.5 L 191.5 254 Z "></path><path fill="rgb(111,150,160)" stroke="rgb(111,150,160)" stroke-width="1" opacity="1" d="M 120 260 L 122 260.5 L 120 261.5 L 120 260 Z "></path><path fill="rgb(111,150,160)" stroke="rgb(111,150,160)" stroke-width="1" opacity="1" d="M 189 262 Q 191.7 260.9 191 263.5 L 189 264.5 L 189 262 Z "></path><path fill="rgb(111,150,160)" stroke="rgb(111,150,160)" stroke-width="1" opacity="1" d="M 20.5 264 L 21.5 266 L 20.5 264 Z "></path><path fill="rgb(111,150,160)" stroke="rgb(111,150,160)" stroke-width="1" opacity="1" d="M 189.5 268 L 192 269 Q 192.8 272.4 190 273.5 Q 192.3 274.8 191 279.5 L 188.5 287 L 187.5 285 L 186.5 293 L 186 282 Q 189 283.3 188 279.5 L 188 277.5 Q 187.1 271.1 189.5 268 Z "></path><path fill="rgb(111,150,160)" stroke="rgb(111,150,160)" stroke-width="1" opacity="1" d="M 185.5 294 L 186 297.5 L 185 297.5 L 185.5 294 Z "></path><path fill="rgb(111,150,160)" stroke="rgb(111,150,160)" stroke-width="1" opacity="1" d="M 180.5 295 L 181 297.5 L 180 299.5 L 180 301.5 L 178 305.5 L 180 310.5 L 180 312.5 L 177 329.5 L 178 331.5 L 175 332.5 L 173.5 336 L 172.5 335 L 170 336.5 L 172 333.5 L 174 333.5 L 173 329.5 L 175 322.5 L 172 324.5 L 170.5 328 L 170 325.5 L 170 322.5 L 173 317.5 L 173 314.5 L 180.5 295 Z M 178 311 L 176 313 L 177 315 L 175 318 L 176 322 L 179 316 L 178 311 Z "></path><path fill="rgb(111,150,160)" stroke="rgb(111,150,160)" stroke-width="1" opacity="1" d="M 169.5 333 L 168.5 335 L 169.5 333 Z "></path><path fill="rgb(111,150,160)" stroke="rgb(111,150,160)" stroke-width="1" opacity="1" d="M 177.5 335 L 180 335.5 L 176.5 337 L 175 336.5 L 177.5 335 Z "></path><path fill="rgb(111,150,160)" stroke="rgb(111,150,160)" stroke-width="1" opacity="1" d="M 119.5 338 L 120.5 340 L 119.5 338 Z "></path><path fill="rgb(111,150,160)" stroke="rgb(111,150,160)" stroke-width="1" opacity="1" d="M 129.5 342 L 132 343.5 L 131.5 345 L 129.5 342 Z "></path><path fill="rgb(111,150,160)" stroke="rgb(111,150,160)" stroke-width="1" opacity="1" d="M 175 342 Q 177.7 340.9 177 343.5 L 171.5 358 L 170 358 L 170 354 Q 172.7 355.1 172 352.5 L 174 348.5 L 172 348.5 L 173.5 343 L 175 343.5 L 175 342 Z "></path><path fill="rgb(111,150,160)" stroke="rgb(111,150,160)" stroke-width="1" opacity="1" d="M 133.5 344 L 138 345.5 Q 136.7 348.3 135.5 346 L 133.5 344 Z "></path><path fill="rgb(111,150,160)" stroke="rgb(111,150,160)" stroke-width="1" opacity="1" d="M 147.5 350 L 148.5 352 L 146 351.5 L 147.5 350 Z "></path><path fill="rgb(111,150,160)" stroke="rgb(111,150,160)" stroke-width="1" opacity="1" d="M 168.5 351 L 170 351.5 L 168 356.5 L 168 358.5 L 168.5 362 L 169.5 359 L 170.5 361 L 172 360.5 L 170.5 364 L 169.5 362 L 169 364.5 Q 171.5 366 170 371.5 Q 167 372.8 168 377 L 165 378.5 Q 165.7 381.1 163 380 L 163 382 L 160.5 382 L 159 382.5 Q 162.5 381 160 379.5 Q 159.1 372.1 163 369.5 L 163 362 Q 166.3 363.3 165 358.5 L 167 354.5 Q 164.3 352.8 168.5 351 Z "></path><path fill="rgb(111,150,160)" stroke="rgb(111,150,160)" stroke-width="1" opacity="1" d="M 161.5 357 L 163 359.5 L 161 358.5 L 161.5 357 Z "></path><path fill="rgb(0,1,1)" stroke="rgb(0,1,1)" stroke-width="1" opacity="0.9803921568627451" d="M 304.5 81 L 306 81.5 L 306 126 L 303.5 126 L 258.5 150 L 256 150 L 256 153.5 L 268 176.5 Q 266.3 179.8 264.5 176 L 224.5 164 L 202 155.5 L 216 113.5 L 216 110.5 L 223.5 91 Q 225.8 90.3 225 92.5 L 235 112.5 L 237.5 115 L 304.5 81 Z "></path><path fill="rgb(0,1,1)" stroke="rgb(0,1,1)" stroke-width="1" opacity="0.9803921568627451" d="M 149.5 131 L 153 133.5 L 151.5 134 L 149.5 131 Z "></path><path fill="rgb(0,1,1)" stroke="rgb(0,1,1)" stroke-width="1" opacity="0.9803921568627451" d="M 42.5 132 L 41.5 134 L 42.5 132 Z "></path><path fill="rgb(0,1,1)" stroke="rgb(0,1,1)" stroke-width="1" opacity="0.9803921568627451" d="M 36.5 138 L 35.5 140 L 36.5 138 Z "></path><path fill="rgb(0,1,1)" stroke="rgb(0,1,1)" stroke-width="1" opacity="0.9803921568627451" d="M 33.5 141 L 34 142.5 L 32 143.5 L 33.5 141 Z "></path><path fill="rgb(0,1,1)" stroke="rgb(0,1,1)" stroke-width="1" opacity="0.9803921568627451" d="M 23.5 161 L 24 162.5 L 22 163.5 L 23.5 161 Z "></path><path fill="rgb(0,1,1)" stroke="rgb(0,1,1)" stroke-width="1" opacity="0.9803921568627451" d="M 186.5 165 L 188 167.5 L 187 167.5 L 186.5 165 Z "></path><path fill="rgb(0,1,1)" stroke="rgb(0,1,1)" stroke-width="1" opacity="0.9803921568627451" d="M 191.5 176 L 192.5 178 L 191.5 176 Z "></path><path fill="rgb(0,1,1)" stroke="rgb(0,1,1)" stroke-width="1" opacity="0.9803921568627451" d="M 14.5 198 L 13.5 200 L 14.5 198 Z "></path><path fill="rgb(0,1,1)" stroke="rgb(0,1,1)" stroke-width="1" opacity="0.9803921568627451" d="M 12.5 201 L 13 203.5 L 12 203.5 L 12.5 201 Z "></path><path fill="rgb(0,1,1)" stroke="rgb(0,1,1)" stroke-width="1" opacity="0.9803921568627451" d="M 11.5 211 L 11 212.5 L 10.5 214 L 10 212.5 L 11.5 211 Z "></path><path fill="rgb(0,1,1)" stroke="rgb(0,1,1)" stroke-width="1" opacity="0.9803921568627451" d="M 10.5 219 L 11 221.5 L 10 221.5 L 10.5 219 Z "></path><path fill="rgb(0,1,1)" stroke="rgb(0,1,1)" stroke-width="1" opacity="0.9803921568627451" d="M 72.5 223 L 76 227.5 L 73 225.5 L 72.5 223 Z "></path><path fill="rgb(0,1,1)" stroke="rgb(0,1,1)" stroke-width="1" opacity="0.9803921568627451" d="M 198.5 223 L 199 225.5 L 198 225.5 L 198.5 223 Z "></path><path fill="rgb(0,1,1)" stroke="rgb(0,1,1)" stroke-width="1" opacity="0.9803921568627451" d="M 195.5 224 L 196 226.5 L 194 225.5 L 195.5 224 Z "></path><path fill="rgb(0,1,1)" stroke="rgb(0,1,1)" stroke-width="1" opacity="0.9803921568627451" d="M 87.5 226 L 92 226.5 L 87.5 227 L 87.5 226 Z "></path><path fill="rgb(0,1,1)" stroke="rgb(0,1,1)" stroke-width="1" opacity="0.9803921568627451" d="M 9.5 230 L 10 233.5 L 9 233.5 L 9.5 230 Z "></path><path fill="rgb(0,1,1)" stroke="rgb(0,1,1)" stroke-width="1" opacity="0.9803921568627451" d="M 125.5 230 L 131 231.5 L 128.5 232 L 125.5 231 L 125.5 230 Z "></path><path fill="rgb(0,1,1)" stroke="rgb(0,1,1)" stroke-width="1" opacity="0.9803921568627451" d="M 144.5 232 L 147 232.5 L 144.5 233 L 144.5 232 Z "></path><path fill="rgb(0,1,1)" stroke="rgb(0,1,1)" stroke-width="1" opacity="0.9803921568627451" d="M 157.5 234 L 158.5 236 L 157.5 234 Z "></path><path fill="rgb(0,1,1)" stroke="rgb(0,1,1)" stroke-width="1" opacity="0.9803921568627451" d="M 10.5 237 L 12 240.5 L 11 240.5 L 10.5 237 Z "></path><path fill="rgb(0,1,1)" stroke="rgb(0,1,1)" stroke-width="1" opacity="0.9803921568627451" d="M 81.5 237 L 82.5 239 L 81.5 237 Z "></path><path fill="rgb(0,1,1)" stroke="rgb(0,1,1)" stroke-width="1" opacity="0.9803921568627451" d="M 12.5 243 L 14 246.5 L 13 246.5 L 12.5 243 Z "></path><path fill="rgb(0,1,1)" stroke="rgb(0,1,1)" stroke-width="1" opacity="0.9803921568627451" d="M 205.5 244 L 206 246.5 L 205 246.5 L 205.5 244 Z "></path><path fill="rgb(0,1,1)" stroke="rgb(0,1,1)" stroke-width="1" opacity="0.9803921568627451" d="M 112.5 255 L 115 256.5 L 113.5 257 L 112.5 255 Z "></path><path fill="rgb(0,1,1)" stroke="rgb(0,1,1)" stroke-width="1" opacity="0.9803921568627451" d="M 202.5 258 L 203 259.5 L 201.5 262 L 201 260.5 L 202.5 258 Z "></path><path fill="rgb(0,1,1)" stroke="rgb(0,1,1)" stroke-width="1" opacity="0.9803921568627451" d="M 18.5 260 L 19.5 262 L 18.5 260 Z "></path><path fill="rgb(0,1,1)" stroke="rgb(0,1,1)" stroke-width="1" opacity="0.9803921568627451" d="M 184 260 L 186 260.5 L 186 269 Q 183.3 270.1 184 267.5 L 185 265.5 L 184 260 Z "></path><path fill="rgb(0,1,1)" stroke="rgb(0,1,1)" stroke-width="1" opacity="0.9803921568627451" d="M 20.5 266 L 21.5 268 L 20.5 266 Z "></path><path fill="rgb(0,1,1)" stroke="rgb(0,1,1)" stroke-width="1" opacity="0.9803921568627451" d="M 200.5 269 L 200 270.5 L 199.5 272 L 199 270.5 L 200.5 269 Z "></path><path fill="rgb(0,1,1)" stroke="rgb(0,1,1)" stroke-width="1" opacity="0.9803921568627451" d="M 184.5 270 L 185 273.5 L 184 273.5 L 184.5 270 Z "></path><path fill="rgb(0,1,1)" stroke="rgb(0,1,1)" stroke-width="1" opacity="0.9803921568627451" d="M 22.5 272 L 23.5 274 Q 20.7 274.7 22.5 272 Z "></path><path fill="rgb(0,1,1)" stroke="rgb(0,1,1)" stroke-width="1" opacity="0.9803921568627451" d="M 185.5 277 L 186 279.5 L 183.5 285 L 182 278.5 L 183 278.5 L 183.5 280 L 185.5 277 Z "></path><path fill="rgb(0,1,1)" stroke="rgb(0,1,1)" stroke-width="1" opacity="0.9803921568627451" d="M 121.5 278 L 122 282.5 L 121 282.5 L 121.5 278 Z "></path><path fill="rgb(0,1,1)" stroke="rgb(0,1,1)" stroke-width="1" opacity="0.9803921568627451" d="M 197.5 279 L 198 281.5 L 197 281.5 L 197.5 279 Z "></path><path fill="rgb(0,1,1)" stroke="rgb(0,1,1)" stroke-width="1" opacity="0.9803921568627451" d="M 118.5 283 L 121 284 L 120.5 286 L 118 285 L 118.5 283 Z "></path><path fill="rgb(0,1,1)" stroke="rgb(0,1,1)" stroke-width="1" opacity="0.9803921568627451" d="M 28.5 286 L 29.5 288 L 28.5 286 Z "></path><path fill="rgb(0,1,1)" stroke="rgb(0,1,1)" stroke-width="1" opacity="0.9803921568627451" d="M 120.5 287 L 121 289.5 L 120 289.5 L 120.5 287 Z "></path><path fill="rgb(0,1,1)" stroke="rgb(0,1,1)" stroke-width="1" opacity="0.9803921568627451" d="M 181.5 287 L 184 290.5 L 182.5 293 Q 180 291 181.5 287 Z "></path><path fill="rgb(0,1,1)" stroke="rgb(0,1,1)" stroke-width="1" opacity="0.9803921568627451" d="M 117.5 289 Q 119.8 288.3 119 290.5 L 119.5 292 L 117.5 289 Z "></path><path fill="rgb(0,1,1)" stroke="rgb(0,1,1)" stroke-width="1" opacity="0.9803921568627451" d="M 194.5 294 L 195 296.5 L 193 297.5 L 194.5 294 Z "></path><path fill="rgb(0,1,1)" stroke="rgb(0,1,1)" stroke-width="1" opacity="0.9803921568627451" d="M 179.5 295 L 180 296.5 L 178.5 299 L 178 297.5 L 179.5 295 Z "></path><path fill="rgb(0,1,1)" stroke="rgb(0,1,1)" stroke-width="1" opacity="0.9803921568627451" d="M 182.5 295 L 184 298.5 L 182.5 304 L 182.5 295 Z "></path><path fill="rgb(0,1,1)" stroke="rgb(0,1,1)" stroke-width="1" opacity="0.9803921568627451" d="M 116 303 Q 119 301.8 118 305.5 L 116 304.5 L 116 303 Z "></path><path fill="rgb(0,1,1)" stroke="rgb(0,1,1)" stroke-width="1" opacity="0.9803921568627451" d="M 192.5 303 L 191.5 305 L 192.5 303 Z "></path><path fill="rgb(0,1,1)" stroke="rgb(0,1,1)" stroke-width="1" opacity="0.9803921568627451" d="M 36.5 304 L 38 306.5 L 37 306.5 L 36.5 304 Z "></path><path fill="rgb(0,1,1)" stroke="rgb(0,1,1)" stroke-width="1" opacity="0.9803921568627451" d="M 119.5 313 L 120 316.5 L 119 316.5 L 119.5 313 Z "></path><path fill="rgb(0,1,1)" stroke="rgb(0,1,1)" stroke-width="1" opacity="0.9803921568627451" d="M 171.5 318 L 170.5 320 L 171.5 318 Z "></path><path fill="rgb(0,1,1)" stroke="rgb(0,1,1)" stroke-width="1" opacity="0.9803921568627451" d="M 43.5 319 L 44.5 321 L 43.5 319 Z "></path><path fill="rgb(0,1,1)" stroke="rgb(0,1,1)" stroke-width="1" opacity="0.9803921568627451" d="M 118.5 319 L 119 321.5 L 118 321.5 L 118.5 319 Z "></path><path fill="rgb(0,1,1)" stroke="rgb(0,1,1)" stroke-width="1" opacity="0.9803921568627451" d="M 180.5 319 L 181 324.5 L 179.5 329 L 179 322.5 L 180.5 319 Z "></path><path fill="rgb(0,1,1)" stroke="rgb(0,1,1)" stroke-width="1" opacity="0.9803921568627451" d="M 169.5 324 L 170 325.5 L 168 326.5 L 169.5 324 Z "></path><path fill="rgb(0,1,1)" stroke="rgb(0,1,1)" stroke-width="1" opacity="0.9803921568627451" d="M 178 330 Q 181 328.8 180 332.5 L 178 331.5 L 178 330 Z "></path><path fill="rgb(0,1,1)" stroke="rgb(0,1,1)" stroke-width="1" opacity="0.9803921568627451" d="M 167.5 332 L 167 333.5 L 166.5 335 L 166 333.5 L 167.5 332 Z "></path><path fill="rgb(0,1,1)" stroke="rgb(0,1,1)" stroke-width="1" opacity="0.9803921568627451" d="M 184.5 333 L 185 334.5 L 183.5 337 L 183 335.5 L 184.5 333 Z "></path><path fill="rgb(0,1,1)" stroke="rgb(0,1,1)" stroke-width="1" opacity="0.9803921568627451" d="M 165.5 336 L 168 340.5 L 165 338.5 L 165.5 336 Z "></path><path fill="rgb(0,1,1)" stroke="rgb(0,1,1)" stroke-width="1" opacity="0.9803921568627451" d="M 53.5 337 L 54.5 339 L 53 338.5 L 52.5 340 L 52 338.5 L 53.5 337 Z "></path><path fill="rgb(0,1,1)" stroke="rgb(0,1,1)" stroke-width="1" opacity="0.9803921568627451" d="M 127.5 340 L 130 341.5 L 128.5 342 L 127.5 340 Z "></path><path fill="rgb(0,1,1)" stroke="rgb(0,1,1)" stroke-width="1" opacity="0.9803921568627451" d="M 134.5 343 L 137 344.5 L 135.5 345 L 134.5 343 Z "></path><path fill="rgb(0,1,1)" stroke="rgb(0,1,1)" stroke-width="1" opacity="0.9803921568627451" d="M 168.5 343 L 169.5 345 L 168.5 343 Z "></path><path fill="rgb(0,1,1)" stroke="rgb(0,1,1)" stroke-width="1" opacity="0.9803921568627451" d="M 139.5 345 L 140.5 347 L 139.5 345 Z "></path><path fill="rgb(0,1,1)" stroke="rgb(0,1,1)" stroke-width="1" opacity="0.9803921568627451" d="M 149.5 350 L 150.5 352 L 149.5 350 Z "></path><path fill="rgb(0,1,1)" stroke="rgb(0,1,1)" stroke-width="1" opacity="0.9803921568627451" d="M 68.5 351 L 74 354.5 L 72.5 354 Q 67.8 353.2 68.5 351 Z "></path><path fill="rgb(0,1,1)" stroke="rgb(0,1,1)" stroke-width="1" opacity="0.9803921568627451" d="M 80.5 357 Q 82.8 356.3 82 358.5 L 80.5 357 Z "></path><path fill="rgb(0,1,1)" stroke="rgb(0,1,1)" stroke-width="1" opacity="0.9803921568627451" d="M 172.5 371 L 170.5 374 L 172.5 371 Z "></path><path fill="rgb(0,1,1)" stroke="rgb(0,1,1)" stroke-width="1" opacity="0.9803921568627451" d="M 112.5 372 L 115 373.5 L 113.5 374 L 112.5 372 Z "></path><path fill="rgb(0,1,1)" stroke="rgb(0,1,1)" stroke-width="1" opacity="0.9803921568627451" d="M 169.5 375 L 166.5 379 L 169.5 375 Z "></path><path fill="rgb(0,1,1)" stroke="rgb(0,1,1)" stroke-width="1" opacity="0.9803921568627451" d="M 132.5 378 L 135 379.5 L 133.5 380 L 132.5 378 Z "></path><path fill="rgb(0,1,1)" stroke="rgb(0,1,1)" stroke-width="1" opacity="0.9803921568627451" d="M 140.5 380 L 141.5 382 L 140.5 380 Z "></path><path fill="rgb(0,1,1)" stroke="rgb(0,1,1)" stroke-width="1" opacity="0.9803921568627451" d="M 148.5 383 L 151 383.5 L 148.5 384 L 148.5 383 Z "></path><path fill="rgb(0,1,1)" stroke="rgb(0,1,1)" stroke-width="1" opacity="0.9803921568627451" d="M 160 383 L 162 383.5 L 160 384.5 L 160 383 Z "></path><path fill="rgb(47,99,128)" stroke="rgb(47,99,128)" stroke-width="1" opacity="0.996078431372549" d="M 307 40 L 393.5 40 Q 392.8 43 397 42 L 397 151 L 395 151 L 394.5 154 L 315.5 154 L 238.5 302 L 237 295.5 L 312 152.5 L 312 46 L 27 110 Q 26 106.2 28.5 105 L 307 43 L 307 40 Z M 316 45 L 316 149 L 392 149 L 392 45 L 316 45 Z M 74 126 Q 74 130 76 127 L 74 126 Z M 54 134 L 53 137 L 54 137 L 54 134 Z M 48 140 L 46 141 L 44 141 Q 41 142 43 144 L 40 145 L 43 146 L 45 145 L 45 143 L 47 144 L 49 141 L 48 140 Z M 37 144 Q 35 147 38 146 L 37 144 Z M 40 145 Q 40 148 38 147 L 36 150 L 39 148 L 41 149 L 40 145 Z M 50 146 L 48 149 L 50 149 L 50 146 Z M 54 146 L 50 151 L 55 149 L 56 147 L 54 146 Z M 60 147 L 58 149 L 60 149 L 60 147 Z M 34 150 L 33 153 L 35 153 L 34 150 Z M 39 152 L 37 154 L 39 154 L 39 152 Z M 53 152 L 50 153 Q 49 156 53 155 L 53 152 Z M 29 154 L 29 156 L 31 155 L 29 154 Z M 49 154 Q 47 157 50 156 L 49 154 Z M 36 176 Q 37 179 35 178 Q 33 175 31 180 L 32 182 Q 33 178 38 179 Q 39 175 36 176 Z M 43 176 L 43 181 Q 44 183 46 181 Q 48 182 47 179 L 44 178 L 46 178 Q 47 175 43 176 Z "></path><path fill="rgb(47,99,128)" stroke="rgb(47,99,128)" stroke-width="1" opacity="0.996078431372549" d="M 100.5 122 L 107 123 L 106.5 125 L 104.5 125 L 102.5 126 L 99.5 125 L 96.5 126 L 94.5 126 L 91 124.5 Q 92.5 121.5 98.5 123 Q 99.8 125.3 104.5 124 L 104.5 123 Q 99.5 124 100.5 122 Z "></path><path fill="rgb(47,99,128)" stroke="rgb(47,99,128)" stroke-width="1" opacity="0.996078431372549" d="M 75.5 124 L 77.5 125 L 83 124 L 81.5 128 L 78.5 127 L 73.5 130 L 69.5 128 L 67.5 131 L 63.5 130 L 62.5 133 L 60.5 132 L 60.5 134 Q 56 133 55 135.5 L 56.5 139 L 66.5 138 L 65.5 140 L 63 141.5 Q 62.3 143.8 64.5 143 L 68.5 141 L 71.5 143 L 76 139.5 L 73.5 143 L 68.5 145 L 67 144.5 L 64 150.5 L 65 152.5 L 62.5 156 L 60 155.5 L 62 155 L 60.5 151 L 59.5 154 L 57 153 L 58 149 Q 55.3 147.9 56 150.5 L 54 153.5 L 55.5 156 L 53.5 156 L 48 157 Q 49.1 160.3 45 159 L 45 162 L 42.5 162 L 43 160.5 Q 43.7 157.9 41 159 L 41 161 Q 38.3 159.9 39 162.5 L 38 162.5 Q 40.8 160.5 40 156 L 34 159 Q 35.1 161.7 32.5 161 L 34 158.5 L 35 156.5 L 33.5 156 L 31 161 L 28 160.5 L 31 159 L 32 156.5 L 30.5 156 L 27.5 158 L 25 157.5 L 28.5 152 L 30 152.5 Q 28.5 148.1 31.5 149 L 33 149.5 Q 32.3 147.3 34.5 148 L 33.5 146 L 31 147.5 L 40 140.5 L 38.5 140 L 33.5 144 L 36 140.5 L 36.5 139 L 38 139.5 Q 37.3 137.3 39.5 138 Q 42.3 136.7 40 135.5 Q 39.3 133.3 41.5 134 L 56.5 129 L 58.5 130 L 58.5 128 L 60 128.5 Q 59.3 126.3 61.5 127 L 63.5 127 L 67.5 126 L 69.5 127 L 75.5 124 Z "></path><path fill="rgb(47,99,128)" stroke="rgb(47,99,128)" stroke-width="1" opacity="0.996078431372549" d="M 108.5 124 L 110.5 125 L 112.5 124 L 115 125.5 L 110.5 126 L 108.5 124 Z "></path><path fill="rgb(47,99,128)" stroke="rgb(47,99,128)" stroke-width="1" opacity="0.996078431372549" d="M 105.5 126 Q 108.8 124.9 108 127.5 L 106.5 127 L 105.5 126 Z "></path><path fill="rgb(47,99,128)" stroke="rgb(47,99,128)" stroke-width="1" opacity="0.996078431372549" d="M 109.5 128 L 114 130.5 L 108.5 131 L 107.5 130 L 104.5 133 L 101 134 L 101.5 132 L 103.5 132 L 106 130.5 L 105.5 129 L 109.5 128 Z "></path><path fill="rgb(47,99,128)" stroke="rgb(47,99,128)" stroke-width="1" opacity="0.996078431372549" d="M 123.5 129 L 124.5 131 L 123.5 129 Z "></path><path fill="rgb(47,99,128)" stroke="rgb(47,99,128)" stroke-width="1" opacity="0.996078431372549" d="M 116.5 130 L 119 131.5 L 115.5 132 L 116.5 130 Z "></path><path fill="rgb(47,99,128)" stroke="rgb(47,99,128)" stroke-width="1" opacity="0.996078431372549" d="M 97 132 L 100 132.5 L 98 133.5 Q 100.3 134.8 97.5 136 L 95 135.5 L 97 135 L 97 132 Z "></path><path fill="rgb(47,99,128)" stroke="rgb(47,99,128)" stroke-width="1" opacity="0.996078431372549" d="M 128.5 132 L 130.5 133 L 134 132 L 134.5 134 L 136.5 133 L 141 136.5 L 139.5 137 L 129.5 134 L 128.5 132 Z "></path><path fill="rgb(47,99,128)" stroke="rgb(47,99,128)" stroke-width="1" opacity="0.996078431372549" d="M 125.5 134 L 126 136.5 L 125 136.5 L 125.5 134 Z "></path><path fill="rgb(47,99,128)" stroke="rgb(47,99,128)" stroke-width="1" opacity="0.996078431372549" d="M 127.5 134 L 132 137.5 L 129.5 138 L 127 135.5 L 127.5 134 Z "></path><path fill="rgb(47,99,128)" stroke="rgb(47,99,128)" stroke-width="1" opacity="0.996078431372549" d="M 157.5 136 L 158.5 138 L 157.5 136 Z "></path><path fill="rgb(47,99,128)" stroke="rgb(47,99,128)" stroke-width="1" opacity="0.996078431372549" d="M 78.5 139 L 78.5 141 L 82.5 140 L 86.5 143 L 87.5 140 L 89.5 141 L 91 140.5 L 88 145.5 L 89.5 146 L 95 145.5 Q 93.9 148.8 96.5 148 L 97.5 145 L 99 145.5 Q 98.3 143.3 100.5 144 L 100 145.5 L 100.5 147 L 103 145.5 Q 100.8 144.3 103.5 143 L 104.5 145 Q 106.3 142.3 108 146.5 L 103 148.5 L 110.5 149 L 110.5 147 Q 112 149.5 113.5 146 L 115 146.5 L 113 147 L 111 150.5 L 112 155 L 110 155.5 L 113 156 L 113.5 159 L 114.5 157 L 115.5 160 L 121 156.5 L 120.5 155 L 124.5 154 L 125.5 157 L 127.5 157 Q 129.8 156.3 129 158.5 L 129.5 160 L 128 159.5 L 128.5 162 L 130.5 161 L 132.5 161 L 134.5 162 L 137 161 Q 138.1 164.3 134 163 L 134 165.5 L 135 167.5 Q 132.8 168.8 135.5 170 L 138 168.5 L 136 165.5 L 139 165.5 L 138.5 167 L 141 168.5 L 140 170.5 L 140.5 172 L 138 173.5 L 139 176.5 L 137.5 176 Q 135.3 176.8 136 174.5 L 135 174.5 Q 133.5 178.9 136.5 178 L 140 180 L 140.5 176 L 141 178 L 145.5 179 L 148 177.5 L 147 180.5 Q 148.3 183.3 149.5 181 L 151 181 L 151 185 Q 154 183.8 153 187.5 L 153.5 189 L 150 187.5 L 149.5 184 Q 148.3 186.3 147 183.5 L 146.5 182 L 144.5 182 Q 140.3 181.3 139.5 184 L 138 181 L 136 180.5 L 136.5 179 Q 130.4 180.3 131 177.5 L 132 173.5 L 131 173.5 L 130.5 176 L 130 174 L 128 173.5 L 130 172.5 L 124 169.5 L 126 169 L 127 166.5 L 125.5 166 Q 124.3 169 120 168 Q 118.9 165.3 121.5 166 Q 124.2 164.8 122 163.5 Q 123 159.8 120 161 Q 121.3 164 117.5 163 L 114.5 164 L 113 164 L 113 159 Q 108.9 160.7 110 156.5 L 107.5 156 L 105.5 157 L 106.5 155 L 110 154 L 109.5 151 Q 107.5 156 98.5 154 L 99.5 151 L 97.5 152 L 98 150.5 Q 98.8 148.3 96.5 149 L 94.5 149 Q 92.8 151.8 87.5 151 L 83 150 L 82.5 147 L 79.5 148 L 73 149 Q 74.1 152.3 70 151 Q 68.8 148 72.5 149 Q 75.3 147.8 73 146.5 L 76.5 143 L 78 143.5 L 77 140.5 L 78.5 139 Z M 81 142 Q 79 145 82 144 L 81 142 Z M 142 179 Q 142 183 144 180 L 142 179 Z "></path><path fill="rgb(47,99,128)" stroke="rgb(47,99,128)" stroke-width="1" opacity="0.996078431372549" d="M 141.5 139 Q 146.3 137.7 145 141 Q 140.8 141 141.5 139 Z "></path><path fill="rgb(47,99,128)" stroke="rgb(47,99,128)" stroke-width="1" opacity="0.996078431372549" d="M 146.5 140 L 149 143.5 L 147.5 144 L 145 142.5 L 146.5 140 Z "></path><path fill="rgb(47,99,128)" stroke="rgb(47,99,128)" stroke-width="1" opacity="0.996078431372549" d="M 108.5 141 L 109.5 143 L 108.5 141 Z "></path><path fill="rgb(47,99,128)" stroke="rgb(47,99,128)" stroke-width="1" opacity="0.996078431372549" d="M 152.5 147 Q 154.8 146.3 154 148.5 L 152.5 147 Z "></path><path fill="rgb(47,99,128)" stroke="rgb(47,99,128)" stroke-width="1" opacity="0.996078431372549" d="M 141.5 149 L 144.5 153 L 141.5 149 Z "></path><path fill="rgb(47,99,128)" stroke="rgb(47,99,128)" stroke-width="1" opacity="0.996078431372549" d="M 175.5 151 L 178 152.5 L 176.5 152 L 175.5 151 Z "></path><path fill="rgb(47,99,128)" stroke="rgb(47,99,128)" stroke-width="1" opacity="0.996078431372549" d="M 128.5 152 L 129 154 L 131 154.5 L 129.5 155 L 128.5 152 Z "></path><path fill="rgb(47,99,128)" stroke="rgb(47,99,128)" stroke-width="1" opacity="0.996078431372549" d="M 178.5 154 L 180.5 157 L 178.5 154 Z "></path><path fill="rgb(47,99,128)" stroke="rgb(47,99,128)" stroke-width="1" opacity="0.996078431372549" d="M 160.5 155 L 163 156.5 L 163 159 Q 165.7 157.9 165 160.5 L 162 158.5 Q 163.1 155.2 160.5 156 L 160.5 155 Z "></path><path fill="rgb(47,99,128)" stroke="rgb(47,99,128)" stroke-width="1" opacity="0.996078431372549" d="M 141.5 156 L 143 158.5 L 141.5 158 L 140 157.5 L 141.5 156 Z "></path><path fill="rgb(47,99,128)" stroke="rgb(47,99,128)" stroke-width="1" opacity="0.996078431372549" d="M 25.5 159 Q 28.3 160.2 26 161.5 Q 26.8 163.8 24.5 163 L 25.5 159 Z "></path><path fill="rgb(47,99,128)" stroke="rgb(47,99,128)" stroke-width="1" opacity="0.996078431372549" d="M 150.5 159 L 153 159.5 Q 152.3 161.8 154.5 161 L 156.5 166 L 157.5 163 L 160 168 L 162 168.5 L 159.5 169 L 156.5 167 L 159 170.5 L 158 171.5 Q 156.9 174.8 159.5 174 L 161 173.5 L 163 179.5 L 161.5 179 L 155.5 176 L 153 177 L 153.5 172 L 154.5 175 L 158 170.5 L 154 164.5 Q 156.8 162.8 152.5 161 L 151.5 163 L 150.5 159 Z "></path><path fill="rgb(47,99,128)" stroke="rgb(47,99,128)" stroke-width="1" opacity="0.996078431372549" d="M 178.5 159 L 179.5 161 L 178.5 159 Z "></path><path fill="rgb(47,99,128)" stroke="rgb(47,99,128)" stroke-width="1" opacity="0.996078431372549" d="M 180.5 162 L 180.5 164 L 183.5 165 L 183 163.5 L 183.5 162 L 188 169.5 L 187.5 171 L 189 171.5 L 188.5 173 L 191 174.5 L 189 174.5 L 190 180.5 L 189 180.5 Q 187.6 174.4 183 171.5 L 184 169.5 L 181 168.5 L 181.5 167 L 182.5 169 L 183 166.5 L 180 165.5 L 179 163.5 L 180.5 162 Z M 186 168 L 187 170 Q 188 167 186 168 Z M 187 172 Q 185 175 188 174 L 187 172 Z "></path><path fill="rgb(47,99,128)" stroke="rgb(47,99,128)" stroke-width="1" opacity="0.996078431372549" d="M 51.5 163 L 57 163.5 Q 54.3 164.6 55 168 L 50 167 Q 51.1 164.3 48.5 165 L 48.5 164 L 51.5 163 Z "></path><path fill="rgb(47,99,128)" stroke="rgb(47,99,128)" stroke-width="1" opacity="0.996078431372549" d="M 22.5 164 L 25 164.5 L 22 166.5 L 22.5 164 Z "></path><path fill="rgb(47,99,128)" stroke="rgb(47,99,128)" stroke-width="1" opacity="0.996078431372549" d="M 44.5 165 L 45 166.5 L 44 169 Q 48.1 167.3 47 171.5 L 48.5 171 L 51 172.5 L 51.5 175 L 53 174.5 Q 53.8 176.8 51.5 176 L 50 179 L 53 180.5 L 50 181 L 49.5 185 L 48 184.5 L 47.5 186 L 45.5 186 L 42 185 L 41.5 187 L 41 185.5 L 42 182.5 L 40 179.5 L 41 176 Q 37.7 174.7 39 179.5 L 36.5 183 L 35.5 180 L 33 183.5 L 33.5 185 Q 31.3 185.8 32 183.5 L 31 183.5 L 30.5 185 L 28.5 181 L 27 180.5 L 29 179.5 L 25.5 179 L 22 181.5 Q 24.3 180.3 21.5 179 Q 19.3 179.8 20 177.5 L 20 175.5 L 20 171 L 22 171 Q 20.7 166.9 24 168 L 23 170.5 L 25 171.5 L 22 176 L 25.5 177 L 30 169 Q 32.7 167.9 32 170.5 Q 28 172.8 28 178 Q 31.8 178.8 33 175.5 L 32 173.5 L 37.5 166 L 38 167.5 L 36 170.5 L 40 172.5 L 40.5 174 L 42 170.5 Q 41.3 165.8 44.5 165 Z M 24 177 L 25 179 Q 26 176 24 177 Z "></path><path fill="rgb(47,99,128)" stroke="rgb(47,99,128)" stroke-width="1" opacity="0.996078431372549" d="M 151.5 165 L 152.5 167 L 151.5 165 Z "></path><path fill="rgb(47,99,128)" stroke="rgb(47,99,128)" stroke-width="1" opacity="0.996078431372549" d="M 150.5 167 L 151.5 169 Q 148.7 169.7 150.5 167 Z "></path><path fill="rgb(47,99,128)" stroke="rgb(47,99,128)" stroke-width="1" opacity="0.996078431372549" d="M 163.5 172 L 164 174.5 L 163.5 176 L 162 173.5 L 163.5 172 Z "></path><path fill="rgb(47,99,128)" stroke="rgb(47,99,128)" stroke-width="1" opacity="0.996078431372549" d="M 180.5 174 L 183 179.5 L 180.5 181 L 179.5 179 Q 182.1 179.8 181 176.5 L 180.5 174 Z "></path><path fill="rgb(47,99,128)" stroke="rgb(47,99,128)" stroke-width="1" opacity="0.996078431372549" d="M 190.5 176 L 192 178.5 L 190 177.5 L 190.5 176 Z "></path><path fill="rgb(47,99,128)" stroke="rgb(47,99,128)" stroke-width="1" opacity="0.996078431372549" d="M 54.5 178 L 56.5 179 L 58.5 178 L 64 181.5 L 63 184.5 Q 64.7 187.8 70.5 187 L 73 189.5 Q 72.3 191.8 74.5 191 L 78 190 Q 76.9 192.7 79.5 192 L 83 194.5 Q 82.3 196.8 84.5 196 L 90.5 199 Q 92.5 195 94.5 199 Q 97.8 197.9 97 200.5 L 98 200.5 L 98.5 199 L 101.5 204 L 105 203 Q 103.9 200.3 106.5 201 Q 109.8 198 116 199 Q 114.8 196 118.5 197 Q 120.8 191.8 123 195.5 L 122 199 Q 119 197.8 120 201.5 L 118 201.5 Q 118.8 203.8 116.5 203 L 115 202.5 Q 115.8 204.8 113.5 204 L 113.5 205 L 118 206 L 116.5 209 Q 113.1 208.1 115 213.5 L 116 217 Q 119.3 218.3 118 213.5 L 124.5 204 L 127.5 205 L 130 204 Q 131.3 200.7 126.5 202 L 124.5 203 L 125 201.5 L 126.5 197 L 128 197.5 L 131.5 188 L 134.5 189 L 134.5 188 Q 132.3 188.8 133 186.5 L 133 184.5 L 133.5 183 Q 136 184.2 135 188 Q 138 186.8 137 190.5 L 140.5 193 L 143.5 192 Q 148.8 190.8 150 193.5 L 150 197 L 152 197 L 152 199 Q 154.7 197.9 154 200.5 L 159 203.5 L 158.5 205 L 157.5 203 L 156 206.5 L 157.5 207 L 159 206.5 Q 156.8 207.7 158 212.5 L 159 212.5 L 159.5 211 L 160 212.5 L 159 216.5 L 161 219.5 L 159 223.5 L 161 226.5 L 159 226.5 Q 158.2 229.1 161.5 228 L 161 229.5 L 162 231.5 L 159 232.5 L 162 234.5 L 160.5 235 L 157.5 233 L 156.5 234 Q 154.8 230.9 153 232.5 Q 154.1 229.2 151.5 230 L 149.5 231 L 150 229.5 Q 148.9 226.2 151.5 227 L 151.5 225 L 153 225.5 Q 153.8 222.9 150.5 224 L 148.5 224 L 146.5 223 L 145 223.5 L 144.5 222 L 142 226.5 L 143 229 L 139.5 228 L 136.5 230 L 134.5 230 L 131.5 229 L 130 229.5 L 128.5 227 L 125 227 Q 126.1 229.7 123.5 229 L 122.5 226 L 120 226.5 L 120.5 228 L 118.5 227 L 118.5 229 L 113.5 227 L 112 227.5 Q 111.3 225.3 113.5 226 L 113.5 225 L 108 225.5 L 108.5 227 L 106 225.5 L 107 223.5 L 106.5 222 Q 108.8 222.8 108 220.5 L 109 218.5 L 104 221.5 L 104.5 220 Q 101.9 220.7 103 218 L 105 217.5 L 100 214.5 L 98.5 212 L 96 212.5 L 97.5 215 L 95.5 214 L 94 217 L 89 220.5 L 89.5 222 L 92 221 L 93 223.5 L 84.5 225 L 84.5 224 L 86 223.5 L 84 220.5 L 85.5 221 L 87 221 L 87 217 L 83 217 Q 84.1 219.7 81.5 219 Q 77.8 221 79.5 223 L 77.5 223 L 75 221.5 L 74.5 220 Q 73.3 222.3 72 219.5 L 72 214 Q 66.4 216.2 68 210.5 L 70 209.5 L 69 211.5 L 71 212 L 72 207.5 L 72 205.5 L 74 198.5 L 73 198.5 L 72.5 200 L 69.5 199 L 70 200.5 L 69.5 203 L 67 202.5 L 67.5 201 L 65.5 202 L 64.5 199 L 63.5 201 L 62.5 199 Q 59.8 200.3 62 201.5 Q 61.3 203.8 63.5 203 L 63.5 205 L 66 206.5 L 67 208.5 L 64.5 209 L 63 209.5 L 65 210 L 65.5 214 L 67 213.5 L 69 216.5 L 69.5 218 Q 67.3 217.3 68 219.5 L 67.5 221 L 72 221.5 L 65 222 L 66 224.5 L 63 231 Q 58.9 229.3 60 233.5 L 61.5 233 L 63 233.5 L 61 234.5 L 62 237 L 56.5 239 L 56 237 L 54 236.5 L 55.5 236 Q 56.8 238.3 58 235.5 L 57.5 234 L 59 233.5 L 55.5 231 L 55 232.5 L 56 234.5 L 54.5 234 L 53 234 L 53 238 L 49.5 238 L 48 234 Q 51 235.3 50 231.5 L 49 229 L 51 228.5 L 50.5 227 L 53 228.5 Q 52.3 225.9 55 227 L 55 223.5 L 56 223.5 L 55 229.5 L 58 230.5 L 58.5 232 Q 61.3 230.8 60 225.5 L 60 223.5 L 58.5 220 L 58 222 Q 54.2 223.5 55 220.5 L 54.5 219 L 56.5 220 L 57 218.5 L 56 215 Q 58.7 216.1 58 213.5 L 55 209.5 L 56.5 210 L 58 209.5 L 57.5 208 Q 60.3 209.3 58 210.5 L 58.5 212 L 61 210.5 L 60.5 214 Q 63.8 215.1 63 212.5 Q 65.5 211 62 209.5 L 61.5 208 L 60 208.5 L 58.5 206 L 55 204.5 L 57.5 201 L 60 202 L 61 197.5 L 60.5 196 Q 62.3 199.8 64 196.5 L 63.5 195 L 62 195.5 L 63 193.5 L 62 190.5 L 63 187.5 L 62 187.5 Q 62.9 190.5 58.5 189 L 56.5 186 L 56 188.5 L 57.5 191 L 56 190.5 L 55.5 192 L 53 191.5 L 53.5 188 L 55 188.5 L 56 185.5 L 54 181 L 56 180.5 L 54.5 178 Z M 61 184 Q 59 187 62 186 L 61 184 Z M 70 193 L 71 196 L 72 194 L 70 193 Z M 72 196 L 73 198 Q 74 195 72 196 Z M 78 196 L 79 202 L 82 200 L 83 203 L 83 199 L 80 198 Q 81 195 78 196 Z M 62 204 L 61 207 L 63 208 L 62 204 Z M 81 204 L 80 206 L 82 207 L 81 204 Z M 91 207 L 88 213 L 93 212 L 95 209 Q 92 210 93 208 L 91 207 Z M 79 208 L 78 210 L 77 209 L 76 212 Q 73 211 74 216 L 74 217 L 77 216 Q 79 217 78 215 L 81 216 L 82 216 L 79 208 Z M 111 208 L 111 209 L 113 209 L 111 208 Z M 148 209 L 145 216 L 148 217 L 147 219 L 151 220 L 151 218 L 154 219 L 157 215 L 157 211 L 154 209 L 148 209 Z M 105 210 L 105 212 L 107 211 L 105 210 Z M 100 211 L 101 213 L 103 212 L 100 211 Z M 63 214 L 63 217 L 65 216 Q 66 213 63 214 Z M 59 215 L 57 218 L 59 217 L 59 215 Z M 67 215 L 65 217 L 66 218 L 68 217 L 67 215 Z M 79 217 L 75 220 L 76 222 Q 79 223 78 220 L 80 220 Q 81 216 79 217 Z M 64 220 L 61 224 L 63 228 L 64 226 L 64 220 Z M 147 220 Q 146 223 149 222 Q 150 219 147 220 Z M 88 222 L 89 224 Q 90 221 88 222 Z M 127 224 Q 125 227 128 226 L 127 224 Z M 51 234 L 49 236 L 51 236 L 51 234 Z M 74 235 L 75 237 Q 76 234 74 235 Z "></path><path fill="rgb(47,99,128)" stroke="rgb(47,99,128)" stroke-width="1" opacity="0.996078431372549" d="M 154.5 179 L 155 181.5 L 154 181.5 L 154.5 179 Z "></path><path fill="rgb(47,99,128)" stroke="rgb(47,99,128)" stroke-width="1" opacity="0.996078431372549" d="M 191.5 180 L 195 184.5 L 193.5 184 Q 191.3 184.8 192 182.5 L 191.5 180 Z "></path><path fill="rgb(47,99,128)" stroke="rgb(47,99,128)" stroke-width="1" opacity="0.996078431372549" d="M 183.5 181 L 186 182.5 L 184.5 187 L 182 185.5 L 184 182.5 L 183.5 181 Z "></path><path fill="rgb(47,99,128)" stroke="rgb(47,99,128)" stroke-width="1" opacity="0.996078431372549" d="M 187.5 184 L 189 186.5 L 186 186.5 L 187.5 184 Z "></path><path fill="rgb(47,99,128)" stroke="rgb(47,99,128)" stroke-width="1" opacity="0.996078431372549" d="M 39.5 186 L 38.5 188 L 39.5 186 Z "></path><path fill="rgb(47,99,128)" stroke="rgb(47,99,128)" stroke-width="1" opacity="0.996078431372549" d="M 45.5 187 L 45 188.5 L 44.5 192 L 44 188.5 L 45.5 187 Z "></path><path fill="rgb(47,99,128)" stroke="rgb(47,99,128)" stroke-width="1" opacity="0.996078431372549" d="M 48.5 187 L 47.5 189 L 48.5 187 Z "></path><path fill="rgb(47,99,128)" stroke="rgb(47,99,128)" stroke-width="1" opacity="0.996078431372549" d="M 50.5 188 L 52 188.5 L 49.5 190 L 50.5 188 Z "></path><path fill="rgb(47,99,128)" stroke="rgb(47,99,128)" stroke-width="1" opacity="0.996078431372549" d="M 188.5 188 L 187.5 190 L 188.5 188 Z "></path><path fill="rgb(47,99,128)" stroke="rgb(47,99,128)" stroke-width="1" opacity="0.996078431372549" d="M 41.5 190 Q 44.5 189.1 43 193.5 L 45 193.5 L 42 195 L 41 197.5 L 42.5 200 L 38.5 198 L 37 200.5 L 37.5 202 L 36.5 201 L 34 202.5 L 35.5 199 L 37 198.5 Q 34.5 197 38 195.5 L 40 192.5 L 39.5 191 L 41.5 192 L 41.5 190 Z M 42 193 L 41 194 Q 38 193 39 196 L 39 197 L 42 195 L 42 193 Z "></path><path fill="rgb(47,99,128)" stroke="rgb(47,99,128)" stroke-width="1" opacity="0.996078431372549" d="M 57.5 192 L 59 192.5 L 56.5 194 L 57.5 192 Z "></path><path fill="rgb(47,99,128)" stroke="rgb(47,99,128)" stroke-width="1" opacity="0.996078431372549" d="M 155.5 192 Q 158.5 191.1 157 195.5 L 156 195.5 L 155.5 192 Z "></path><path fill="rgb(47,99,128)" stroke="rgb(47,99,128)" stroke-width="1" opacity="0.996078431372549" d="M 54.5 193 L 55 195 L 57 195.5 L 57 197.5 L 58 199.5 L 55.5 201 L 54 200.5 L 55 202.5 L 53.5 202 Q 49.3 203.1 51 199 L 55 196.5 L 54.5 193 Z M 56 197 L 54 199 L 56 199 L 56 197 Z "></path><path fill="rgb(47,99,128)" stroke="rgb(47,99,128)" stroke-width="1" opacity="0.996078431372549" d="M 60.5 193 L 59 195.5 L 58.5 197 L 58 195.5 L 60.5 193 Z "></path><path fill="rgb(47,99,128)" stroke="rgb(47,99,128)" stroke-width="1" opacity="0.996078431372549" d="M 194.5 193 L 196 195.5 L 194 194.5 L 194.5 193 Z "></path><path fill="rgb(47,99,128)" stroke="rgb(47,99,128)" stroke-width="1" opacity="0.996078431372549" d="M 15.5 197 L 16.5 199 Q 13.7 199.7 15.5 197 Z "></path><path fill="rgb(47,99,128)" stroke="rgb(47,99,128)" stroke-width="1" opacity="0.996078431372549" d="M 157.5 197 L 158 199 L 156 198.5 L 157.5 197 Z "></path><path fill="rgb(47,99,128)" stroke="rgb(47,99,128)" stroke-width="1" opacity="0.996078431372549" d="M 196.5 197 L 198 202 Q 200.7 203.1 200 200.5 L 199.5 199 Q 202.1 198.2 201 201.5 L 199.5 204 Q 202.1 203.2 201 206.5 L 203 209.5 Q 202.3 215.6 204 218 L 202 218.5 L 205 219 L 206 229.5 L 205 232.5 L 206 235.5 L 205.5 239 L 203 238 Q 204.7 243.2 201 242 L 202 238.5 L 200.5 230 L 199 230.5 L 199.5 228 L 201 228.5 L 201 222 L 198.5 222 L 196 215.5 L 196 213.5 L 195.5 210 Q 194.3 212.3 193 209.5 L 195.5 209 Q 198.1 208.2 197 211.5 L 198 211.5 L 199 207.5 L 197 207 L 198 204.5 Q 195 201.8 196.5 197 Z M 199 213 L 198 216 L 199 216 L 199 213 Z M 200 216 L 200 221 L 201 221 L 200 216 Z "></path><path fill="rgb(47,99,128)" stroke="rgb(47,99,128)" stroke-width="1" opacity="0.996078431372549" d="M 45.5 198 L 48 198.5 L 46 202 L 43.5 203 L 45.5 198 Z "></path><path fill="rgb(47,99,128)" stroke="rgb(47,99,128)" stroke-width="1" opacity="0.996078431372549" d="M 52.5 203 L 54 206.5 L 53 206.5 L 52.5 203 Z "></path><path fill="rgb(47,99,128)" stroke="rgb(47,99,128)" stroke-width="1" opacity="0.996078431372549" d="M 39.5 204 L 40.5 206 L 39.5 204 Z "></path><path fill="rgb(47,99,128)" stroke="rgb(47,99,128)" stroke-width="1" opacity="0.996078431372549" d="M 193.5 205 Q 195.8 204.3 195 206.5 L 195.5 208 L 193.5 205 Z "></path><path fill="rgb(47,99,128)" stroke="rgb(47,99,128)" stroke-width="1" opacity="0.996078431372549" d="M 46.5 207 L 47.5 211 Q 43 209 46.5 207 Z "></path><path fill="rgb(47,99,128)" stroke="rgb(47,99,128)" stroke-width="1" opacity="0.996078431372549" d="M 48.5 208 L 51 209.5 L 49.5 210 L 48.5 208 Z "></path><path fill="rgb(47,99,128)" stroke="rgb(47,99,128)" stroke-width="1" opacity="0.996078431372549" d="M 14.5 209 L 15 213.5 L 15 215.5 L 13 218.5 L 14.5 221 L 17 219.5 L 18 226.5 L 16 229.5 L 16.5 231 L 15 231.5 L 15.5 233 L 14 233.5 L 17 234 Q 16 231 19 232 L 16.5 238 L 14.5 235 L 14 236.5 L 14.5 238 L 11 236.5 L 14 234.5 L 12 234 L 11 231.5 L 13 227.5 L 12.5 224 L 15 223.5 L 13.5 221 L 10.5 223 L 11 221.5 Q 9.5 217.1 12.5 218 L 14 215.5 L 12 215.5 L 14.5 209 Z "></path><path fill="rgb(47,99,128)" stroke="rgb(47,99,128)" stroke-width="1" opacity="0.996078431372549" d="M 40.5 210 L 42 210.5 L 42 212.5 Q 43.5 216.9 40.5 216 L 39.5 219 Q 36.5 219.5 38 212.5 L 40.5 210 Z "></path><path fill="rgb(47,99,128)" stroke="rgb(47,99,128)" stroke-width="1" opacity="0.996078431372549" d="M 17.5 211 L 19.5 212 L 21 211.5 L 20 215.5 L 20 217.5 Q 18.5 221.9 21.5 221 L 21.5 222 L 19.5 221 L 18 221.5 L 17.5 217 L 16 217.5 L 17 214.5 L 16 212.5 L 17.5 211 Z "></path><path fill="rgb(47,99,128)" stroke="rgb(47,99,128)" stroke-width="1" opacity="0.996078431372549" d="M 22.5 214 Q 25.5 214.5 25 218.5 L 23 217.5 L 22.5 214 Z "></path><path fill="rgb(47,99,128)" stroke="rgb(47,99,128)" stroke-width="1" opacity="0.996078431372549" d="M 51 215 L 53 215.5 L 52.5 218 Q 49.5 218.7 51 215 Z "></path><path fill="rgb(47,99,128)" stroke="rgb(47,99,128)" stroke-width="1" opacity="0.996078431372549" d="M 21.5 218 L 22.5 220 Q 19.7 220.7 21.5 218 Z "></path><path fill="rgb(47,99,128)" stroke="rgb(47,99,128)" stroke-width="1" opacity="0.996078431372549" d="M 98.5 221 L 99 223.5 L 97 222.5 L 98.5 221 Z "></path><path fill="rgb(47,99,128)" stroke="rgb(47,99,128)" stroke-width="1" opacity="0.996078431372549" d="M 196.5 222 L 198 225.5 L 197 225.5 L 196.5 222 Z "></path><path fill="rgb(47,99,128)" stroke="rgb(47,99,128)" stroke-width="1" opacity="0.996078431372549" d="M 40.5 223 L 43 223.5 L 40.5 224 L 40.5 223 Z "></path><path fill="rgb(47,99,128)" stroke="rgb(47,99,128)" stroke-width="1" opacity="0.996078431372549" d="M 67.5 224 L 68.5 226 L 67.5 224 Z "></path><path fill="rgb(47,99,128)" stroke="rgb(47,99,128)" stroke-width="1" opacity="0.996078431372549" d="M 57.5 225 L 59 228.5 L 57 227.5 L 57.5 225 Z "></path><path fill="rgb(47,99,128)" stroke="rgb(47,99,128)" stroke-width="1" opacity="0.996078431372549" d="M 100.5 225 L 103 225.5 L 100.5 226 L 100.5 225 Z "></path><path fill="rgb(47,99,128)" stroke="rgb(47,99,128)" stroke-width="1" opacity="0.996078431372549" d="M 21.5 226 L 22 229 L 20 228.5 L 21.5 226 Z "></path><path fill="rgb(47,99,128)" stroke="rgb(47,99,128)" stroke-width="1" opacity="0.996078431372549" d="M 36.5 226 Q 40 228 35.5 230 L 35 227.5 L 36.5 226 Z "></path><path fill="rgb(47,99,128)" stroke="rgb(47,99,128)" stroke-width="1" opacity="0.996078431372549" d="M 68.5 227 L 72 230.5 L 70 232.5 Q 69.3 235.1 72 234 L 72.5 232 L 73.5 234 L 75.5 230 L 77 231.5 L 75.5 234 L 78 234 L 78 238 L 79.5 238 L 82 238.5 Q 79.5 240 83 241.5 L 84 244.5 L 82 243.5 Q 83.3 239.3 78.5 241 L 72.5 238 L 69 240.5 L 71 236.5 L 70 236.5 L 68.5 239 L 68 237.5 L 70 234.5 L 68 231.5 L 70 231.5 L 69.5 229 L 67.5 230 L 68 228.5 L 68.5 227 Z "></path><path fill="rgb(47,99,128)" stroke="rgb(47,99,128)" stroke-width="1" opacity="0.996078431372549" d="M 71.5 227 L 73.5 228 L 75 227.5 Q 75.8 229.8 73.5 229 L 71.5 227 Z "></path><path fill="rgb(47,99,128)" stroke="rgb(47,99,128)" stroke-width="1" opacity="0.996078431372549" d="M 39 229 Q 42.3 227.9 41 232 Q 37.7 233.1 39 229 Z "></path><path fill="rgb(47,99,128)" stroke="rgb(47,99,128)" stroke-width="1" opacity="0.996078431372549" d="M 139.5 230 L 143 231.5 L 141.5 232 L 139.5 230 Z "></path><path fill="rgb(47,99,128)" stroke="rgb(47,99,128)" stroke-width="1" opacity="0.996078431372549" d="M 176.5 230 L 175.5 232 L 174 231.5 L 176.5 230 Z "></path><path fill="rgb(47,99,128)" stroke="rgb(47,99,128)" stroke-width="1" opacity="0.996078431372549" d="M 166.5 232 L 168 232.5 L 165.5 234 L 166.5 232 Z "></path><path fill="rgb(47,99,128)" stroke="rgb(47,99,128)" stroke-width="1" opacity="0.996078431372549" d="M 44.5 233 L 45.5 235 L 44.5 233 Z "></path><path fill="rgb(47,99,128)" stroke="rgb(47,99,128)" stroke-width="1" opacity="0.996078431372549" d="M 18.5 238 L 20 241.5 L 18.5 245 L 18 243 L 15 241.5 L 16.5 242 L 19 241.5 L 18.5 238 Z "></path><path fill="rgb(47,99,128)" stroke="rgb(47,99,128)" stroke-width="1" opacity="0.996078431372549" d="M 13.5 240 L 15 243.5 L 13 242.5 L 13.5 240 Z "></path><path fill="rgb(47,99,128)" stroke="rgb(47,99,128)" stroke-width="1" opacity="0.996078431372549" d="M 200.5 243 L 201 247 Q 198 246 199 249 L 201 249.5 L 201 251.5 L 199 257.5 Q 199.8 265.2 198 269 L 194.5 267 L 192.5 271 L 192 269 L 189.5 268 L 187 277.5 L 189 278.5 L 188 282 Q 185 283.3 186 279.5 L 186 277.5 L 187 273.5 L 186 270.5 L 187 269.5 L 187 260.5 L 187 258.5 L 188 256.5 L 186.5 256 L 185 256.5 Q 184.2 253.9 187.5 255 L 189.5 254 L 189.5 255 L 188 255.5 L 190.5 256 Q 193.3 254.8 191 253.5 Q 190.3 251.3 192.5 252 Q 194.3 255.8 196 252.5 L 194 251.5 L 195.5 250 L 198 250.5 L 197.5 252 Q 200.1 252.8 199 249.5 L 198 245 Q 200.8 246 200.5 243 Z M 197 253 L 195 258 Q 196 262 193 261 L 194 265 L 195 263 L 195 267 L 197 268 L 196 266 L 198 262 Q 200 255 197 253 Z M 189 262 L 189 265 L 191 264 Q 192 261 189 262 Z "></path><path fill="rgb(47,99,128)" stroke="rgb(47,99,128)" stroke-width="1" opacity="0.996078431372549" d="M 17.5 246 L 18 251.5 L 16 252.5 L 17.5 246 Z "></path><path fill="rgb(47,99,128)" stroke="rgb(47,99,128)" stroke-width="1" opacity="0.996078431372549" d="M 17.5 254 L 19.5 258 L 20.5 256 L 21 257.5 L 18 259.5 L 18.5 258 Q 15 258.8 17.5 254 Z "></path><path fill="rgb(47,99,128)" stroke="rgb(47,99,128)" stroke-width="1" opacity="0.996078431372549" d="M 98.5 254 Q 105.5 252.5 105 255.5 L 106.5 255 Q 111.3 253.7 110 257 Q 105 258.3 103.5 255 L 98.5 255 L 98.5 254 Z "></path><path fill="rgb(47,99,128)" stroke="rgb(47,99,128)" stroke-width="1" opacity="0.996078431372549" d="M 39.5 255 L 40.5 257 L 39.5 255 Z "></path><path fill="rgb(47,99,128)" stroke="rgb(47,99,128)" stroke-width="1" opacity="0.996078431372549" d="M 119.5 257 L 121.5 260 Q 119.3 260.8 120 258.5 L 119.5 257 Z "></path><path fill="rgb(47,99,128)" stroke="rgb(47,99,128)" stroke-width="1" opacity="0.996078431372549" d="M 120 262 L 122 262.5 L 120.5 266 L 120 262 Z "></path><path fill="rgb(47,99,128)" stroke="rgb(47,99,128)" stroke-width="1" opacity="0.996078431372549" d="M 20.5 265 L 21.5 267 L 20.5 265 Z "></path><path fill="rgb(47,99,128)" stroke="rgb(47,99,128)" stroke-width="1" opacity="0.996078431372549" d="M 23.5 269 L 24.5 271 L 22 270.5 L 23.5 269 Z "></path><path fill="rgb(47,99,128)" stroke="rgb(47,99,128)" stroke-width="1" opacity="0.996078431372549" d="M 30.5 269 L 31.5 271 L 30.5 269 Z "></path><path fill="rgb(47,99,128)" stroke="rgb(47,99,128)" stroke-width="1" opacity="0.996078431372549" d="M 195.5 270 L 196 273.5 L 195 273.5 L 195.5 270 Z "></path><path fill="rgb(47,99,128)" stroke="rgb(47,99,128)" stroke-width="1" opacity="0.996078431372549" d="M 120.5 271 L 121 274.5 L 120 274.5 L 120.5 271 Z "></path><path fill="rgb(47,99,128)" stroke="rgb(47,99,128)" stroke-width="1" opacity="0.996078431372549" d="M 191.5 272 L 192 274 L 190 273.5 L 191.5 272 Z "></path><path fill="rgb(47,99,128)" stroke="rgb(47,99,128)" stroke-width="1" opacity="0.996078431372549" d="M 103.5 273 L 104.5 275 L 103.5 273 Z "></path><path fill="rgb(47,99,128)" stroke="rgb(47,99,128)" stroke-width="1" opacity="0.996078431372549" d="M 32.5 274 L 33 277.5 L 31 278.5 L 32.5 274 Z "></path><path fill="rgb(47,99,128)" stroke="rgb(47,99,128)" stroke-width="1" opacity="0.996078431372549" d="M 32.5 281 L 34 283.5 L 33 283.5 L 32.5 281 Z "></path><path fill="rgb(47,99,128)" stroke="rgb(47,99,128)" stroke-width="1" opacity="0.996078431372549" d="M 35.5 282 L 38 286.5 L 36.5 287 Q 33.8 285.8 35.5 282 Z "></path><path fill="rgb(47,99,128)" stroke="rgb(47,99,128)" stroke-width="1" opacity="0.996078431372549" d="M 191.5 283 L 192.5 285 Q 189.7 285.7 191.5 283 Z "></path><path fill="rgb(47,99,128)" stroke="rgb(47,99,128)" stroke-width="1" opacity="0.996078431372549" d="M 187.5 285 L 189.5 290 L 191 289.5 L 190 293.5 L 190.5 295 L 189 292.5 L 189.5 291 Q 186.5 290.1 188 294.5 L 186 298.5 L 184.5 304 L 184 302.5 L 187 296.5 Q 184.4 295.1 185 290.5 L 186 290.5 L 186.5 293 L 187.5 285 Z "></path><path fill="rgb(47,99,128)" stroke="rgb(47,99,128)" stroke-width="1" opacity="0.996078431372549" d="M 50.5 286 L 53 287.5 L 51.5 288 L 50.5 286 Z "></path><path fill="rgb(47,99,128)" stroke="rgb(47,99,128)" stroke-width="1" opacity="0.996078431372549" d="M 35.5 291 L 37 293.5 L 35 292.5 L 35.5 291 Z "></path><path fill="rgb(47,99,128)" stroke="rgb(47,99,128)" stroke-width="1" opacity="0.996078431372549" d="M 51.5 293 L 53 297 Q 49.2 298.2 51.5 293 Z "></path><path fill="rgb(47,99,128)" stroke="rgb(47,99,128)" stroke-width="1" opacity="0.996078431372549" d="M 48.5 297 L 49 302.5 L 48 302.5 L 48.5 297 Z "></path><path fill="rgb(47,99,128)" stroke="rgb(47,99,128)" stroke-width="1" opacity="0.996078431372549" d="M 177.5 303 L 176.5 305 L 177.5 303 Z "></path><path fill="rgb(47,99,128)" stroke="rgb(47,99,128)" stroke-width="1" opacity="0.996078431372549" d="M 179.5 303 L 181 307.5 L 179 308.5 L 180 305.5 L 178 305.5 L 179.5 303 Z "></path><path fill="rgb(47,99,128)" stroke="rgb(47,99,128)" stroke-width="1" opacity="0.996078431372549" d="M 180.5 310 L 181 312 L 179 311.5 L 180.5 310 Z "></path><path fill="rgb(47,99,128)" stroke="rgb(47,99,128)" stroke-width="1" opacity="0.996078431372549" d="M 185.5 310 L 186 312.5 L 185 312.5 L 185.5 310 Z "></path><path fill="rgb(47,99,128)" stroke="rgb(47,99,128)" stroke-width="1" opacity="0.996078431372549" d="M 177.5 311 L 179 316 L 175.5 318 L 176 316.5 L 177 314.5 L 176 312.5 L 177.5 311 Z "></path><path fill="rgb(47,99,128)" stroke="rgb(47,99,128)" stroke-width="1" opacity="0.996078431372549" d="M 177.5 318 L 176.5 320 L 177.5 318 Z "></path><path fill="rgb(47,99,128)" stroke="rgb(47,99,128)" stroke-width="1" opacity="0.996078431372549" d="M 183.5 319 L 183 320.5 L 182.5 322 L 182 320.5 L 183.5 319 Z "></path><path fill="rgb(47,99,128)" stroke="rgb(47,99,128)" stroke-width="1" opacity="0.996078431372549" d="M 178.5 320 L 179 323.5 L 178 323.5 L 178.5 320 Z "></path><path fill="rgb(47,99,128)" stroke="rgb(47,99,128)" stroke-width="1" opacity="0.996078431372549" d="M 173.5 323 L 175 325.5 L 173.5 329 L 172 324.5 L 173.5 323 Z "></path><path fill="rgb(47,99,128)" stroke="rgb(47,99,128)" stroke-width="1" opacity="0.996078431372549" d="M 170.5 326 Q 173.3 327.3 171 328.5 Q 172.1 331.8 169.5 331 L 168 328.5 L 170.5 326 Z "></path><path fill="rgb(47,99,128)" stroke="rgb(47,99,128)" stroke-width="1" opacity="0.996078431372549" d="M 177.5 329 L 177 330.5 L 179 335.5 L 179 337.5 L 178.5 339 L 175.5 335 L 175 337 Q 172 335.8 173 339.5 L 171.5 342 L 169.5 339 L 168.5 341 L 167 337.5 L 168 337.5 L 168.5 339 Q 173.3 336.5 171.5 334 Q 173.3 337.8 175 334.5 L 177.5 329 Z M 177 334 L 178 336 Q 179 333 177 334 Z "></path><path fill="rgb(47,99,128)" stroke="rgb(47,99,128)" stroke-width="1" opacity="0.996078431372549" d="M 173.5 331 L 174 333.5 L 172 332.5 L 173.5 331 Z "></path><path fill="rgb(47,99,128)" stroke="rgb(47,99,128)" stroke-width="1" opacity="0.996078431372549" d="M 168 332 L 170 332.5 L 168.5 336 L 166 335.5 L 168 332 Z "></path><path fill="rgb(47,99,128)" stroke="rgb(47,99,128)" stroke-width="1" opacity="0.996078431372549" d="M 123.5 340 L 126 340.5 Q 123.9 343.8 123.5 340 Z "></path><path fill="rgb(47,99,128)" stroke="rgb(47,99,128)" stroke-width="1" opacity="0.996078431372549" d="M 177.5 340 L 178 342.5 L 176.5 342 L 175 341.5 L 177.5 340 Z "></path><path fill="rgb(47,99,128)" stroke="rgb(47,99,128)" stroke-width="1" opacity="0.996078431372549" d="M 132.5 343 L 133.5 345 L 135 344.5 L 134.5 346 L 136 346.5 L 134.5 347 L 132 346 L 132.5 343 Z "></path><path fill="rgb(47,99,128)" stroke="rgb(47,99,128)" stroke-width="1" opacity="0.996078431372549" d="M 171.5 345 L 172.5 349 L 174 348.5 L 175 350.5 L 173 350.5 L 172 354 Q 168.3 352.8 170 358 L 172.5 357 L 173 358.5 L 170 360.5 L 169.5 359 L 169 361.5 L 170.5 364 L 171.5 362 L 172 363.5 L 168.5 366 L 169 364.5 L 168 358.5 L 169 355.5 L 170 351.5 L 169 350.5 L 171 346.5 L 171.5 345 Z "></path><path fill="rgb(47,99,128)" stroke="rgb(47,99,128)" stroke-width="1" opacity="0.996078431372549" d="M 138.5 346 L 139.5 348 L 142.5 347 L 145 350.5 L 143 349.5 Q 143.8 346.9 140.5 348 L 140.5 349 L 142 349.5 L 140.5 350 L 137 347.5 L 138.5 346 Z "></path><path fill="rgb(47,99,128)" stroke="rgb(47,99,128)" stroke-width="1" opacity="0.996078431372549" d="M 166.5 352 L 166.5 355 Q 163.5 353.5 166.5 352 Z "></path><path fill="rgb(47,99,128)" stroke="rgb(47,99,128)" stroke-width="1" opacity="0.996078431372549" d="M 165.5 356 L 166 357.5 L 164 360.5 L 164.5 362 L 163 362 L 163 357 L 165.5 356 Z "></path><path fill="rgb(47,99,128)" stroke="rgb(47,99,128)" stroke-width="1" opacity="0.996078431372549" d="M 94.5 362 L 95 364 L 97 364.5 L 95.5 365 L 94.5 362 Z "></path><path fill="rgb(47,99,128)" stroke="rgb(47,99,128)" stroke-width="1" opacity="0.996078431372549" d="M 160.5 368 L 161.5 370 L 162.5 368 L 164 371.5 L 163 371.5 L 162.5 370 L 160.5 374 L 160 372.5 L 161 370.5 L 160.5 368 Z "></path><path fill="rgb(47,99,128)" stroke="rgb(47,99,128)" stroke-width="1" opacity="0.996078431372549" d="M 169.5 372 L 169 373.5 L 168.5 375 L 168 373.5 L 169.5 372 Z "></path><path fill="rgb(47,99,128)" stroke="rgb(47,99,128)" stroke-width="1" opacity="0.996078431372549" d="M 160.5 380 L 159 382.5 L 160 383.5 L 159.5 385 L 158 382.5 L 160.5 380 Z "></path><path fill="rgb(46,56,57)" stroke="rgb(46,56,57)" stroke-width="1" opacity="1" d="M 90.5 121 L 93 121.5 L 90.5 122 L 90.5 121 Z "></path><path fill="rgb(46,56,57)" stroke="rgb(46,56,57)" stroke-width="1" opacity="1" d="M 84.5 122 L 84.5 124 L 91 124.5 L 88 125.5 L 94.5 126 L 97.5 125 L 100.5 126 L 103.5 125 L 105 124.5 L 99 123.5 L 104.5 123 L 108.5 125 L 110 125.5 L 105 126.5 L 109 128.5 L 105 129.5 L 108.5 131 L 114 130.5 L 112 129.5 L 118.5 129 L 120.5 129 L 129 133.5 L 125 134 L 125.5 137 L 126.5 135 L 129.5 138 L 131.5 138 L 137 142.5 L 146.5 157 L 148 156.5 L 148 159 Q 150.7 157.9 150 160.5 L 151 163 L 154 164.5 L 157 169.5 L 157 172.5 L 154 174.5 L 153.5 172 L 153 176.5 L 155 182.5 L 155 187.5 L 157 191.5 L 155 192 L 153 185 L 151 185 L 151 181 L 149.5 181 Q 148.3 183.3 147 180.5 L 146.5 178 L 142.5 181 L 141.5 179 L 144 178.5 L 141 178 Q 142.1 174.7 138 176 L 138 173.5 L 141 171.5 L 139 168.5 L 139.5 167 L 136.5 165 L 136 166.5 Q 139.8 168.3 136.5 170 L 134 168.5 L 136 167.5 L 133 162.5 L 133.5 161 L 129 161.5 L 131 162.5 L 128.5 164 L 128 161.5 L 129 157 L 126.5 156 L 123 156.5 L 124.5 154 L 120 155.5 L 120.5 157 Q 116.8 156 118 159 L 115 159 L 114.5 157 L 113.5 159 L 113 157.5 L 113.5 156 L 110 155.5 L 112 155 L 111 150.5 L 113 147.5 L 110.5 149 L 103 148.5 L 108 146.5 L 104 144.5 L 104.5 143 L 99 144 L 97.5 147 Q 94.2 148.1 95 145.5 L 89.5 146 L 88 145.5 L 88.5 143 L 90 143.5 Q 91.1 140.2 88.5 141 L 86 140 L 87 142.5 L 84.5 144 L 83.5 141 L 82.5 143 L 82 141 L 78.5 139 L 75.5 141 L 74.5 140 L 71.5 143 L 70.5 142 L 66.5 141 L 63 143 L 64.5 140 L 67 138.5 L 63.5 138 Q 62 140.5 56.5 139 L 54 138.5 L 56.5 134 L 61 133.5 L 60.5 132 L 62 131.5 Q 59.8 130.3 62.5 129 L 67.5 131 L 69.5 128 L 73.5 130 Q 76.5 128.5 73.5 127 L 71.5 128 L 71.5 127 L 73 126.5 L 72.5 125 L 76 126.5 L 75.5 128 L 78.5 127 L 81.5 128 L 83 124.5 L 82.5 123 L 84.5 122 Z M 117 130 L 116 132 L 119 132 L 117 130 Z M 97 132 L 97 135 L 95 136 L 98 136 Q 100 135 98 134 L 100 133 L 97 132 Z M 102 132 Q 100 135 103 134 L 102 132 Z M 92 133 L 92 134 L 94 134 L 92 133 Z M 142 156 L 140 158 L 142 158 L 142 156 Z M 136 161 L 134 163 L 137 163 Q 138 160 136 161 Z M 152 165 L 153 167 Q 154 164 152 165 Z M 151 167 Q 149 170 152 169 L 151 167 Z "></path><path fill="rgb(46,56,57)" stroke="rgb(46,56,57)" stroke-width="1" opacity="1" d="M 60.5 126 L 64 126.5 Q 62.8 129.3 61.5 127 L 60.5 126 Z "></path><path fill="rgb(46,56,57)" stroke="rgb(46,56,57)" stroke-width="1" opacity="1" d="M 137.5 126 L 138.5 128 L 137.5 126 Z "></path><path fill="rgb(46,56,57)" stroke="rgb(46,56,57)" stroke-width="1" opacity="1" d="M 46.5 134 L 45.5 136 L 46.5 134 Z "></path><path fill="rgb(46,56,57)" stroke="rgb(46,56,57)" stroke-width="1" opacity="1" d="M 53.5 134 L 54 136.5 L 53 136.5 L 53.5 134 Z "></path><path fill="rgb(46,56,57)" stroke="rgb(46,56,57)" stroke-width="1" opacity="1" d="M 38 136 L 41 136.5 L 37.5 139 L 38 137.5 L 38 136 Z "></path><path fill="rgb(46,56,57)" stroke="rgb(46,56,57)" stroke-width="1" opacity="1" d="M 159.5 137 L 160.5 139 L 159.5 137 Z "></path><path fill="rgb(46,56,57)" stroke="rgb(46,56,57)" stroke-width="1" opacity="1" d="M 43.5 139 L 46.5 141 L 48.5 140 L 48 141.5 L 46.5 144 L 44.5 143 L 44.5 145 L 42.5 146 L 40.5 145 L 41 146.5 Q 42.1 149.8 39.5 149 Q 38 152.5 36.5 150 L 35 149.5 L 39 147 L 40.5 144 L 43 143.5 L 42 142.5 Q 45.1 140.8 43.5 139 Z "></path><path fill="rgb(46,56,57)" stroke="rgb(46,56,57)" stroke-width="1" opacity="1" d="M 38.5 140 L 41 141.5 L 37.5 143 L 36 143.5 L 37.5 146 Q 35.3 146.8 36 144.5 L 34.5 145 L 33 145.5 L 34.5 148 Q 32.3 147.3 33 149.5 L 33.5 151 L 31 146.5 L 32 144 L 35 142.5 L 34.5 141 L 36.5 141 L 38.5 140 Z "></path><path fill="rgb(46,56,57)" stroke="rgb(46,56,57)" stroke-width="1" opacity="1" d="M 50.5 145 L 50 146.5 Q 51.1 149.8 48.5 149 L 49 147.5 L 50.5 145 Z "></path><path fill="rgb(46,56,57)" stroke="rgb(46,56,57)" stroke-width="1" opacity="1" d="M 100 145 L 103 145.5 L 100.5 147 L 100 145 Z "></path><path fill="rgb(46,56,57)" stroke="rgb(46,56,57)" stroke-width="1" opacity="1" d="M 30.5 148 L 30 149.5 L 27.5 153 L 27 151 Q 29.7 152.1 29 149.5 L 30.5 148 Z "></path><path fill="rgb(46,56,57)" stroke="rgb(46,56,57)" stroke-width="1" opacity="1" d="M 35.5 151 L 34.5 153 L 33 152.5 L 35.5 151 Z "></path><path fill="rgb(46,56,57)" stroke="rgb(46,56,57)" stroke-width="1" opacity="1" d="M 26.5 154 L 27 155.5 L 25 156.5 L 26.5 154 Z "></path><path fill="rgb(46,56,57)" stroke="rgb(46,56,57)" stroke-width="1" opacity="1" d="M 183.5 161 L 184.5 163 L 183.5 161 Z "></path><path fill="rgb(46,56,57)" stroke="rgb(46,56,57)" stroke-width="1" opacity="1" d="M 38.5 166 L 39 167.5 L 37 168.5 L 38.5 166 Z "></path><path fill="rgb(46,56,57)" stroke="rgb(46,56,57)" stroke-width="1" opacity="1" d="M 18.5 176 L 20 179 L 25.5 176 L 25 177.5 Q 24.1 180.5 28.5 179 L 28.5 180 L 27 180.5 L 30 182.5 L 30.5 185 L 32 182.5 L 31 179.5 Q 33 175 35 178.5 Q 29.7 180.8 33.5 183 L 35.5 180 L 36.5 183 Q 39.8 181 39 176 Q 42 174.8 41 178.5 L 40 180.5 Q 41.5 183.5 43 180.5 Q 41.1 174.2 46 176 L 45 178.5 L 47 179 Q 45.9 181.7 48.5 181 L 48.5 182 L 45.5 181 Q 43.8 184.1 42 182.5 Q 40.9 185.8 43.5 185 L 45.5 184 L 48 185.5 L 48.5 184 L 50 184.5 L 50 181 L 53 181 Q 52 178 55 179 L 54 182.5 L 56.5 186 L 58.5 185 L 58.5 186 Q 56.3 185.3 57 187.5 Q 58.7 191.8 60.5 189 Q 62.8 189.8 62 187.5 L 63 187.5 L 62 192.5 L 63 194.5 L 62.5 196 L 66 197.5 L 64.5 198 L 61 197.5 L 60 202 Q 57 203.3 58 199.5 L 56.5 197 L 55.5 199 L 54.5 197 Q 51 199 55.5 201 L 57 200.5 L 58 203.5 L 55 204.5 L 60 207 L 60.5 209 Q 63.3 207.8 61 206.5 L 61.5 204 Q 62.8 206.3 64 203.5 L 62 203 L 61 200.5 L 63 199.5 L 63.5 201 L 64.5 199 L 65.5 202 L 71.5 199 L 73 199.5 L 70.5 196 L 69 196.5 L 70 193 L 73 194.5 L 71 194.5 L 73 197.5 L 74 200.5 L 71 206.5 L 72 208.5 L 69.5 212 L 70 210.5 L 69.5 209 L 67 215.5 L 67.5 217 L 65.5 218 L 65 216.5 L 67 213.5 L 65 213.5 Q 66.5 209.1 63.5 210 L 63 212.5 Q 63.8 215.1 60.5 214 L 59.5 211 L 58 211.5 Q 58.8 209.3 56.5 210 L 55 209.5 Q 53.9 212.8 56.5 212 L 59 216.5 L 56.5 220 L 54.5 219 L 55 220.5 L 56 222.5 L 55 227 Q 52.3 225.9 53 228.5 L 50 227.5 L 48 238 L 53 238 L 53 234 L 54.5 234 L 56 234.5 L 55 232.5 L 57.5 232 L 58.5 234 L 57 234.5 Q 59.5 236 56 237.5 L 56.5 239 L 62 237 L 60 231 Q 63.7 232.5 63 229.5 L 66 224.5 L 65 222 L 69 222 L 69 223.5 L 70 223.5 Q 69.2 220.9 72.5 222 L 75 221 Q 76.5 224.8 73.5 224 L 71.5 224 Q 68.9 223.3 70 226 L 72 226.5 L 71.5 228 Q 74.1 227.3 73 230 L 75 230 L 75 232.5 L 73 233.5 L 72.5 232 L 72 234 L 69 235.5 L 68 239 L 70.5 240 L 74.5 239 L 82 241 L 82 243.5 L 85.5 249 Q 86.8 246.8 88 249.5 Q 85.2 251.2 89.5 253 L 93 252 Q 91.8 255 95.5 254 L 98 253 Q 96.6 257 103.5 255 Q 105 258.5 111.5 257 L 113.5 257 Q 118.2 255.8 119.5 258 Q 120.8 255.8 122 258.5 L 120 258.5 L 120 266.5 L 122 267.5 L 122 277.5 L 121 284 L 118.5 283 L 118 285 L 121 286.5 L 119 291.5 L 120 292.5 L 120 312.5 L 118 319.5 L 118 332.5 L 117 333.5 L 118 337 L 120 337.5 L 118 338.5 L 120.5 340 L 123 339 L 124.5 342 L 128.5 342 Q 130.5 346.5 136.5 347 Q 138.3 343.3 140 346.5 L 139 348.5 L 144.5 351 L 145 349.5 L 143.5 347 L 147 349 L 147.5 351 Q 149 348.5 150.5 352 L 158 355 L 158.5 358 L 163 355 L 163 352 Q 165.7 353.1 165 350.5 L 168 345 L 170 344.5 L 168 341.5 L 170 340.5 Q 169.3 343.1 172 342 L 173 337 L 178 337.5 L 176 338.5 L 179 339 L 180 335.5 Q 178.8 332.8 177.5 335 L 175.5 336 L 176.5 334 Q 178.8 334.8 178 332.5 L 180 332.5 L 180 330 L 178 329.5 L 178 324.5 L 179 324.5 L 179.5 329 L 181 319.5 L 180 319.5 L 179.5 322 L 179 319.5 L 180 318.5 L 180 312 L 182 311.5 L 180 308.5 L 181 305.5 L 180 305.5 L 179.5 307 L 179 305.5 Q 182 302.5 181 295.5 Q 178.8 294.3 181.5 293 Q 183.8 293.8 183 291.5 L 184 289.5 Q 180.5 288 182 281.5 L 183 281.5 L 183.5 285 L 185.5 280 L 186 287.5 L 185 290.5 L 185.5 302 L 187 297.5 Q 184.5 296 188 294.5 Q 186.5 290.1 189.5 291 L 191 291.5 L 190.5 289 L 189 289.5 L 191 281.5 L 191 274.5 L 195 266.5 L 195 263.5 L 194 263.5 L 193.5 265 L 193 261 Q 196.3 262.3 195 257.5 L 196.5 253 Q 199.8 254.8 198 261.5 L 195 267.5 L 198 269 Q 199.8 265.2 199 257.5 L 201 251.5 L 200.5 249 Q 197.9 248.2 199 251.5 L 198 251.5 L 197.5 249 L 196.5 251 L 195 247.5 L 197 238.5 L 196 234.5 L 196 232.5 L 196.5 224 L 197 226 L 200 227.5 L 200 231.5 L 199 233.5 L 200 235.5 L 200 237.5 L 198 248.5 L 199 248.5 Q 198.3 245.9 201 247 L 201 242 L 203 242 L 203 238 L 204.5 238 Q 207 239 206 243.5 L 203 252.5 L 203 257.5 L 201 260.5 L 201 268.5 L 198 274.5 L 196 289.5 L 193 297.5 L 193 302.5 L 191 304.5 L 185 332.5 L 183 335.5 L 183 340.5 L 178 357.5 L 178 361.5 L 168.5 376 L 169 374.5 L 170 365.5 L 172 363.5 L 174 351.5 L 178 340 L 175 341.5 L 171 346.5 L 170.5 351 Q 169 348.5 167.5 352 L 165 353.5 L 166 355.5 L 162.5 358 L 160.5 357 L 161 358.5 L 161 360 L 163 360.5 L 163 367.5 L 160 372.5 L 159 378.5 L 160 380.5 Q 156.5 382 159 383.5 L 160 385.5 L 158.5 385 L 152.5 383 L 148.5 383 L 142 381.5 L 142.5 380 L 137.5 379 L 136.5 380 L 134.5 378 L 133.5 379 L 129.5 377 L 118 375 L 116.5 372 L 115.5 374 Q 113.3 371 108 372 Q 109.3 368.3 103.5 370 L 102.5 367 L 100.5 368 L 97 366 Q 98.1 363.3 95.5 364 L 94.5 365 L 90.5 361 L 89.5 362 L 88 361.5 L 88.5 360 L 82 358.5 L 82.5 357 L 80.5 356 L 78 357 Q 79.3 353.7 74.5 355 L 58 344.5 L 58 342 Q 55.3 343.1 56 340.5 Q 49.8 333.5 47 324 L 45 323.5 L 45 321.5 L 38 308.5 L 38 305.5 L 31 292.5 L 31 289.5 L 26 281.5 L 26 277 Q 22.7 278.3 24 273.5 L 25 270.5 L 22 269 L 23 264.5 L 22 262 L 19 260.5 L 21 259.5 Q 18.5 258 22 256.5 Q 22.8 253.9 19.5 255 L 19.5 253 Q 16.5 253.5 18 246.5 L 16 246.5 Q 16.8 244.3 14.5 245 L 12 241.5 L 13 241.5 L 13.5 243 L 14 239.5 L 11 238.5 L 10 234.5 L 11.5 232 L 12 234 L 17 231.5 L 16 226.5 L 18 226.5 L 16.5 219 L 14 222.5 L 14.5 224 Q 11.2 225.1 12 222.5 L 14 219.5 Q 11.5 218 15 216.5 L 14.5 209 L 12.5 212 L 12 207.5 L 13 205 Q 17.1 206.7 16 202.5 L 15 202.5 Q 15.7 205.1 13 204 Q 12 200.2 14.5 199 L 17 198.5 L 14 197.5 L 18.5 176 Z M 24 178 Q 21 180 24 181 Q 27 180 24 178 Z M 33 183 Q 31 186 34 185 L 33 183 Z M 56 186 L 55 189 L 54 188 L 53 192 L 56 192 L 57 190 L 56 186 Z M 45 188 L 44 191 L 42 190 L 42 192 L 41 192 L 39 192 Q 38 195 41 194 L 42 194 Q 41 196 44 195 L 43 194 Q 42 191 45 192 L 45 188 Z M 58 192 Q 55 193 57 195 L 55 195 L 55 193 L 54 196 Q 55 198 57 196 L 59 197 L 59 196 L 59 194 Q 60 191 58 192 Z M 42 195 L 39 197 Q 37 195 36 198 Q 37 200 39 198 L 42 199 L 42 197 L 42 195 Z M 36 199 Q 31 201 35 203 L 38 202 L 37 201 Q 38 198 36 199 Z M 51 199 L 51 202 Q 55 203 54 201 L 51 199 Z M 46 200 L 44 202 L 46 202 L 46 200 Z M 70 200 L 68 202 L 70 203 L 70 200 Z M 54 204 L 53 207 L 54 207 L 54 204 Z M 63 205 L 62 209 L 63 210 L 65 209 L 66 207 L 63 205 Z M 41 210 L 38 213 Q 36 219 40 219 L 41 216 Q 43 217 42 213 L 42 211 L 41 210 Z M 18 211 L 16 213 L 19 222 Q 21 221 20 218 L 20 216 L 21 212 L 20 212 L 18 211 Z M 23 214 L 23 218 L 25 219 Q 26 214 23 214 Z M 51 215 Q 49 219 53 218 L 53 216 L 51 215 Z M 56 215 L 55 218 L 57 218 L 58 216 L 56 215 Z M 22 218 Q 20 221 23 220 L 22 218 Z M 41 223 L 41 224 L 43 224 L 41 223 Z M 22 226 L 20 229 L 22 229 L 22 226 Z M 37 226 L 35 228 L 36 230 Q 40 228 37 226 Z M 69 227 L 67 230 L 69 230 Q 72 229 69 227 Z M 39 229 Q 38 233 41 232 Q 42 228 39 229 Z M 71 229 L 71 232 Q 74 231 71 229 Z M 17 232 L 17 234 L 14 235 Q 15 237 17 235 L 16 237 L 17 238 L 19 234 Q 20 231 17 232 Z M 11 235 L 11 237 L 15 238 L 14 237 Q 15 233 11 235 Z M 19 238 L 18 241 L 20 242 L 19 238 Z M 17 242 L 17 243 Q 19 242 18 245 L 20 244 L 17 242 Z M 196 270 L 195 274 L 196 274 L 196 270 Z M 121 271 L 120 275 L 121 275 L 121 271 Z M 33 274 L 32 278 L 33 278 L 33 274 Z M 36 282 Q 34 286 37 287 L 38 287 L 36 282 Z M 192 283 Q 190 286 193 285 L 192 283 Z M 118 289 L 119 291 Q 120 288 118 289 Z M 36 291 L 35 293 L 37 294 L 36 291 Z M 52 293 Q 49 298 53 297 L 52 293 Z M 183 295 L 183 304 L 184 299 L 183 295 Z M 49 297 L 48 303 L 49 303 L 49 297 Z M 116 303 L 116 305 L 118 306 Q 119 302 116 303 Z M 186 310 L 185 313 L 186 313 L 186 310 Z M 139 346 L 137 348 L 139 348 L 139 346 Z M 94 362 L 95 364 Q 96 361 94 362 Z "></path><path fill="rgb(46,56,57)" stroke="rgb(46,56,57)" stroke-width="1" opacity="1" d="M 138.5 177 Q 141.5 176.2 140 180 L 137.5 179 L 136 179.5 L 138.5 177 Z "></path><path fill="rgb(46,56,57)" stroke="rgb(46,56,57)" stroke-width="1" opacity="1" d="M 191.5 177 L 192.5 179 L 191.5 177 Z "></path><path fill="rgb(46,56,57)" stroke="rgb(46,56,57)" stroke-width="1" opacity="1" d="M 60.5 184 L 61.5 186 Q 58.7 186.7 60.5 184 Z "></path><path fill="rgb(46,56,57)" stroke="rgb(46,56,57)" stroke-width="1" opacity="1" d="M 78 196 Q 80.7 194.9 80 197.5 L 83 199 L 82.5 203 L 81.5 200 L 79 201.5 L 78 196 Z "></path><path fill="rgb(46,56,57)" stroke="rgb(46,56,57)" stroke-width="1" opacity="1" d="M 75.5 203 L 76.5 205 L 75.5 203 Z "></path><path fill="rgb(46,56,57)" stroke="rgb(46,56,57)" stroke-width="1" opacity="1" d="M 79.5 203 L 81 205.5 L 80 205.5 L 79.5 203 Z "></path><path fill="rgb(46,56,57)" stroke="rgb(46,56,57)" stroke-width="1" opacity="1" d="M 201.5 205 L 203 208.5 L 202 208.5 L 201.5 205 Z "></path><path fill="rgb(46,56,57)" stroke="rgb(46,56,57)" stroke-width="1" opacity="1" d="M 78.5 208 L 79.5 210 L 81 209.5 L 80 212.5 L 82 212.5 L 81 214.5 L 81.5 216 L 78.5 214 L 78 216 L 76 216.5 Q 77.3 219.3 78.5 217 Q 81.1 216.2 80 219.5 L 78 219.5 Q 79 223.3 76 222 L 75 219.5 L 77 218.5 L 73 216.5 L 74 212 L 76 211.5 Q 73.8 210.2 76.5 209 L 78 209.5 L 78.5 208 Z "></path><path fill="rgb(46,56,57)" stroke="rgb(46,56,57)" stroke-width="1" opacity="1" d="M 145.5 208 L 144.5 210 L 143 209.5 L 145.5 208 Z "></path><path fill="rgb(46,56,57)" stroke="rgb(46,56,57)" stroke-width="1" opacity="1" d="M 203.5 212 L 204 215.5 L 203 215.5 L 203.5 212 Z "></path><path fill="rgb(46,56,57)" stroke="rgb(46,56,57)" stroke-width="1" opacity="1" d="M 204.5 217 L 205 219 L 202 218.5 L 204.5 217 Z "></path><path fill="rgb(46,56,57)" stroke="rgb(46,56,57)" stroke-width="1" opacity="1" d="M 80.5 222 L 81.5 224 L 82 222 L 86 223.5 L 84 224.5 L 88.5 225 L 91 224 L 90.5 226 L 83.5 226 L 80 225 L 80.5 222 Z "></path><path fill="rgb(46,56,57)" stroke="rgb(46,56,57)" stroke-width="1" opacity="1" d="M 94.5 224 Q 101.5 222.5 100.5 226 L 106.5 226 L 106.5 227 L 92 226.5 L 94.5 224 Z "></path><path fill="rgb(46,56,57)" stroke="rgb(46,56,57)" stroke-width="1" opacity="1" d="M 194.5 224 L 192.5 227 L 191 226.5 L 194.5 224 Z "></path><path fill="rgb(46,56,57)" stroke="rgb(46,56,57)" stroke-width="1" opacity="1" d="M 108.5 227 L 112 227.5 L 108.5 228 L 108.5 227 Z "></path><path fill="rgb(46,56,57)" stroke="rgb(46,56,57)" stroke-width="1" opacity="1" d="M 114.5 227 L 117.5 228 L 119.5 227 L 123.5 229 Q 129 227.5 130.5 230 L 132.5 230 L 135.5 229 L 139.5 231 L 141 231.5 L 131.5 232 Q 128.2 228.8 120.5 230 L 118.5 228 L 113.5 229 L 114.5 227 Z "></path><path fill="rgb(46,56,57)" stroke="rgb(46,56,57)" stroke-width="1" opacity="1" d="M 206.5 228 L 207 237.5 L 206 237.5 L 205.5 235 L 203.5 236 L 203.5 235 L 206 233.5 L 205 230.5 L 206.5 228 Z "></path><path fill="rgb(46,56,57)" stroke="rgb(46,56,57)" stroke-width="1" opacity="1" d="M 77.5 230 L 80 235 Q 77 236.3 78 232.5 L 77.5 230 Z "></path><path fill="rgb(46,56,57)" stroke="rgb(46,56,57)" stroke-width="1" opacity="1" d="M 177.5 230 L 176.5 232 L 177.5 230 Z "></path><path fill="rgb(46,56,57)" stroke="rgb(46,56,57)" stroke-width="1" opacity="1" d="M 147.5 232 Q 152.3 230.8 153.5 233 Q 154.8 230.8 156 233.5 L 150.5 234 L 147.5 233 L 147.5 232 Z "></path><path fill="rgb(46,56,57)" stroke="rgb(46,56,57)" stroke-width="1" opacity="1" d="M 157.5 233 L 162 235 L 164 238.5 L 161.5 239 L 157.5 233 Z "></path><path fill="rgb(46,56,57)" stroke="rgb(46,56,57)" stroke-width="1" opacity="1" d="M 166.5 233 L 170 233.5 L 166.5 234 L 166.5 233 Z "></path><path fill="rgb(46,56,57)" stroke="rgb(46,56,57)" stroke-width="1" opacity="1" d="M 50.5 234 L 52 236.5 L 50.5 236 L 49 235.5 L 50.5 234 Z "></path><path fill="rgb(46,56,57)" stroke="rgb(46,56,57)" stroke-width="1" opacity="1" d="M 74.5 235 L 75 236.5 L 73 237.5 L 74.5 235 Z "></path><path fill="rgb(46,56,57)" stroke="rgb(46,56,57)" stroke-width="1" opacity="1" d="M 193.5 251 L 194.5 253 Q 191.7 253.7 193.5 251 Z "></path><path fill="rgb(46,56,57)" stroke="rgb(46,56,57)" stroke-width="1" opacity="1" d="M 183 257 L 187 257 L 187 258.5 L 187 260.5 L 186 272.5 L 186 274.5 L 183.5 280 L 183 257 Z M 184 260 L 185 266 L 184 268 Q 183 270 186 269 L 186 261 L 184 260 Z M 185 270 L 184 274 L 185 274 L 185 270 Z "></path><path fill="rgb(46,56,57)" stroke="rgb(46,56,57)" stroke-width="1" opacity="1" d="M 177.5 316 L 178 317.5 L 173 326.5 L 173 331.5 L 167.5 340 L 166 336.5 L 167 336.5 L 167.5 339 L 170 332.5 L 169.5 331 Q 172.1 331.8 171 328.5 L 175 321.5 L 175 318.5 L 177.5 316 Z "></path><path fill="rgb(46,56,57)" stroke="rgb(46,56,57)" stroke-width="1" opacity="1" d="M 171.5 319 L 171 320.5 L 170.5 322 L 170 320.5 L 171.5 319 Z "></path><path fill="rgb(46,56,57)" stroke="rgb(46,56,57)" stroke-width="1" opacity="1" d="M 169.5 326 L 168.5 328 L 169.5 326 Z "></path><path fill="rgb(46,56,57)" stroke="rgb(46,56,57)" stroke-width="1" opacity="1" d="M 165.5 379 L 164.5 381 L 163 380.5 L 165.5 379 Z "></path><path fill="rgb(46,56,57)" stroke="rgb(46,56,57)" stroke-width="1" opacity="1" d="M 160.5 382 L 163 382.5 L 160.5 383 L 160.5 382 Z "></path></svg>