<svg width="400" height="400" version="1.1" xmlns="http://www.w3.org/2000/svg" desc="Created with imagetracer.js version 1.2.5"><path fill="rgb(0,0,0)" stroke="rgb(0,0,0)" stroke-width="1" opacity="0" d="M 0 0 L 400 0 L 400 400 L 0.5 400 L 0 399.5 L 0 361 Q 3 359.8 2 363.5 L 8 378 L 14 382.5 L 16.5 386 L 24 391.5 Q 23.2 394.1 26.5 393 Q 36.2 401.8 57.5 399 L 67.5 396 L 72 392.5 Q 71.3 389.9 74 391 L 74 389 Q 77.8 390.5 77 387.5 Q 79.3 386.3 78 381.5 L 71 375.5 L 67.5 370 L 65 369.5 L 69 366.5 L 74.5 360 L 77 358.5 L 78.5 356 L 86 351 L 92.5 343 Q 94.8 343.8 94 341.5 L 103 333.5 L 108.5 327 L 111 325.5 L 116.5 318 L 119 316.5 L 123.5 311 Q 126.8 309.9 126 312.5 L 131.5 319 Q 133.8 318.3 133 320.5 Q 135.3 323.7 141.5 323 L 146 320.5 L 150.5 314 L 157 308.5 L 158.5 306 L 160.5 305 L 162 309 L 164 309 L 166 313 L 169 313 L 169 315 Q 171.7 313.9 171 316.5 L 174 321 L 181 324 Q 179.9 326.7 182.5 326 L 191.5 329 L 210.5 329 L 220 326 L 221.5 323 L 227 321 L 231 314.5 L 232 306.5 L 225.5 298 L 219 292.5 L 217.5 290 L 210 283.5 Q 210.8 281.3 208.5 282 L 202 274 L 194 267.5 L 194 265 Q 191 266 192 263 L 198 258.5 L 200.5 255 L 206 250.5 L 208.5 247 L 214 242.5 L 216.5 239 L 223 233.5 L 224.5 231 L 231 225.5 L 233.5 222 L 239 220 Q 238 217 241 218 L 241 215 L 244 215 L 244 212 Q 246.7 213.1 246 210.5 L 248 207 Q 251 208 250 205 L 253 205 L 253 203 L 257 201 L 257 198 L 260 198 L 260 196 L 264 194 L 264 191 Q 267 192 266 189 L 269 189 L 269 187 L 273 185 L 273 182 L 276 182 L 276 180 L 278 180 L 278 178 L 282 176 L 282 173 L 285 173 L 285 171 L 289 169 L 289 166 L 292 166 Q 290.9 162.7 295 164 L 295 161 L 299 159 L 299 156 L 302 156 L 302 154 L 306 152 L 306 149 Q 309 150 308 147 L 311 147 L 311 145 L 315 143 L 315 140 L 318 140 L 318 138 L 320 138 L 320 136 L 324 134 L 324 131 L 327 131 L 327 129 L 331 127 L 331 124 Q 334 125 333 122 L 336 122 L 336 120 L 340 118 L 340 115 L 344 115 L 344 113 L 348 111 L 348 107.5 L 356 100.5 L 358.5 97 L 364 92.5 L 366 88 L 369 86.5 L 374.5 77 Q 377.1 77.8 376 74.5 L 383 59.5 L 383 54 Q 386 55.3 385 51.5 L 391 27 Q 394.7 28.4 393 22.5 L 394 20 Q 397.3 21.3 396 16.5 L 397 15.5 L 397 7.5 L 393.5 5 L 381.5 5 L 377.5 7 L 370 8 Q 371.4 11.7 365.5 10 L 361.5 12 L 341 16 Q 342.1 18.7 339.5 18 L 324 24 Q 325.1 26.7 322.5 26 L 312 32.5 L 310.5 35 L 308.5 35 L 302 41.5 Q 302.8 43.8 300.5 43 L 294 51 L 287 55.5 L 285 60 L 277 66.5 L 275.5 69 L 269 74.5 L 267.5 77 L 261 82.5 L 259.5 85 L 252 91.5 Q 252.8 93.8 250.5 93 L 244 101 L 235 107.5 Q 236.1 110.8 233.5 110 L 225.5 119 L 219 124.5 L 217.5 127 L 211 132.5 L 209.5 135 L 202 141.5 Q 202.8 143.8 200.5 143 L 194 151 L 186 157.5 Q 186.8 160.1 183.5 159 L 175.5 169 L 169 174.5 L 167.5 177 L 161 182.5 L 159.5 185 L 152 191.5 Q 152.8 193.8 150.5 193 L 144 201 L 136.5 207 L 134.5 207 L 127 200.5 L 125.5 198 L 119 192.5 L 117.5 190 L 110 183.5 Q 110.8 181.3 108.5 182 L 102 174 L 95.5 169 L 88.5 168 L 84.5 169 L 81 172.5 L 80 176 L 77 177.5 L 76 181 L 73 182.5 L 71 190.5 L 71 208.5 L 74 219 Q 76.7 217.9 76 220.5 L 78 224 Q 80.7 222.9 80 225.5 L 88 232.5 L 92.5 238 L 95 239.5 L 92 241 L 85.5 249 Q 83.3 248.3 84 250.5 L 78 255 Q 76.4 257.1 77 262.5 L 81 265.5 Q 80.5 270.5 84.5 271 L 89 274.5 Q 89.5 279.5 85.5 280 L 82 282.5 L 79.5 286 L 72 291.5 L 67.5 297 L 64 299.5 L 59.5 305 L 56 307.5 L 51.5 313 L 48 315.5 L 43.5 322 L 40 324.5 L 35.5 330 L 32 332.5 Q 32.7 335.1 30 334 L 26.5 329 Q 21.5 329.5 21 325.5 L 19.5 323 L 13.5 322 L 9.5 327 L 6 329.5 L 2 341 L 0 340.5 L 0 0 Z "></path><path fill="rgb(168,164,160)" stroke="rgb(168,164,160)" stroke-width="1" opacity="0.984313725490196" d="M 381.5 5 L 393.5 5 L 397 7.5 Q 398.5 13 396 14.5 L 396 16.5 Q 397.1 19.8 394.5 19 L 393 22.5 L 393 26.5 L 391 27 L 391 29.5 L 385 54 Q 382 52.8 383 56.5 L 376 77 L 373 78.5 L 367.5 88 Q 365.3 87.3 366 89.5 L 359.5 97 L 356 99.5 L 351.5 105 L 348 107.5 L 348 109.5 L 343.5 114 Q 339.5 113.5 339 116.5 L 334.5 122 L 331 124.5 L 325.5 131 L 323 132.5 L 320 138 Q 317 137 318 140 L 315 140 L 315 143 L 313 143 L 311 147 L 308 147 Q 309 150 306 149 L 306 152 L 304 152 L 302 156 L 299 156 L 299 159 L 295 161 L 295 164 L 292 164 Q 293.1 167.3 289 166 L 289 169 L 287 169 L 285 173 L 282 173 L 282 176 L 280 176 L 280 178 L 278 178 L 276 182 L 273 182 Q 274.5 185.8 271.5 185 L 264 191.5 L 259.5 197 L 256 199.5 L 251.5 205 L 248 207.5 L 243.5 213 Q 241.3 212.3 242 214.5 L 237.5 220 L 231 224.5 L 225.5 231 L 223 232.5 L 217.5 239 L 214 241.5 L 209.5 247 L 206 249.5 L 201.5 255 L 198 257.5 L 193.5 263 L 191.5 264 L 186 257 L 183.5 257 L 177 250.5 L 175.5 248 L 169 242.5 L 169 240.5 L 174.5 235 L 177 233.5 L 183.5 226 Q 186.8 227.1 186 224.5 L 194 218 Q 195.5 212.4 200.5 209 Q 202.8 209.8 202 207.5 L 210 201 L 216.5 193 Q 218.8 193.8 218 191.5 L 227 183.5 L 233.5 176 Q 235.8 176.8 235 174.5 L 244 168 L 250.5 159 Q 252.8 159.8 252 157.5 L 260 151 L 266.5 143 Q 268.8 143.8 268 141.5 L 277 133.5 L 283.5 126 Q 285.8 126.8 285 124.5 Q 288.4 119.5 294 118 L 298 111.5 L 298 107.5 L 294.5 103 L 287.5 103 L 282 107.5 L 282 109.5 L 275.5 116 Q 273.3 115.3 274 117.5 L 266 124 L 259.5 132 Q 257.3 131.3 258 133.5 L 249 141.5 L 243.5 148 L 241 149.5 L 237.5 154 L 232 157.5 L 225.5 166 Q 223.3 165.3 224 167.5 L 216 174 L 209.5 182 Q 207.3 181.3 208 183.5 L 199 191.5 L 193.5 198 L 191 199.5 L 185.5 206 L 182 207.5 L 175.5 216 Q 173.3 215.3 174 217.5 L 166 224 L 160 231.5 L 160 233.5 L 168 240.5 L 166.5 241 L 158 234 L 158 231.5 L 152 224 L 144 217.5 Q 144.8 215.3 142.5 216 L 136 207.5 L 144 201 L 150.5 193 Q 152.8 193.8 152 191.5 L 161 183.5 L 166.5 177 L 169 175.5 L 174.5 169 L 177 167.5 L 183.5 159 Q 186.8 160.1 186 157.5 L 194 151 L 200.5 143 Q 202.8 143.8 202 141.5 L 211 133.5 L 216.5 127 L 219 125.5 L 224.5 119 L 227 117.5 L 233.5 110 Q 236.1 110.8 235 107.5 L 244 101 L 250.5 93 Q 252.8 93.8 252 91.5 L 261 83.5 L 266.5 77 L 269 75.5 L 274.5 69 L 277 67.5 L 283.5 60 Q 285.8 60.8 285 58.5 L 289.5 53 L 294 51 L 300.5 43 Q 302.8 43.8 302 41.5 Q 305.2 35.7 312 33.5 L 313.5 31 L 324 26 Q 322.9 23.3 325.5 24 L 341 18 Q 339.6 14.3 345.5 16 L 349.5 14 L 370 10 Q 368.8 7 372.5 8 L 381.5 5 Z "></path><path fill="rgb(223,223,222)" stroke="rgb(223,223,222)" stroke-width="1" opacity="0.9803921568627451" d="M 394.5 19 L 396 19.5 L 393.5 21 L 394.5 19 Z "></path><path fill="rgb(223,223,222)" stroke="rgb(223,223,222)" stroke-width="1" opacity="0.9803921568627451" d="M 382.5 57 L 383 59.5 L 382 59.5 L 382.5 57 Z "></path><path fill="rgb(223,223,222)" stroke="rgb(223,223,222)" stroke-width="1" opacity="0.9803921568627451" d="M 287.5 103 Q 295.3 101.3 297 105.5 L 298 111.5 L 294 118 Q 288.4 119.5 285 124.5 Q 285.8 126.8 283.5 126 L 275.5 135 L 268 141.5 Q 268.8 143.8 266.5 143 L 260 151 L 252 157.5 Q 252.8 159.8 250.5 159 L 244 168 L 235 174.5 Q 235.8 176.8 233.5 176 L 225.5 185 L 218 191.5 Q 218.8 193.8 216.5 193 L 210 201 L 202 207.5 Q 202.8 209.8 200.5 209 Q 195.5 212.4 194 218 L 186 224.5 Q 186.8 227.1 183.5 226 L 175.5 235 L 168.5 241 L 160 233.5 L 160 231.5 L 166 224 L 174 217.5 Q 173.3 215.3 175.5 216 L 183.5 206 L 185.5 206 L 191 200.5 L 192.5 198 L 199 192.5 L 200.5 190 L 208 183.5 Q 207.3 181.3 209.5 182 L 216 174 L 224 167.5 Q 223.3 165.3 225.5 166 L 233.5 156 L 241 150.5 L 242.5 148 L 249 142.5 L 250.5 140 L 258 133.5 Q 257.3 131.3 259.5 132 L 266 124 L 274 117.5 Q 273.3 115.3 275.5 116 Q 281.3 112.8 283.5 106 L 287.5 103 Z "></path><path fill="rgb(223,223,222)" stroke="rgb(223,223,222)" stroke-width="1" opacity="0.9803921568627451" d="M 341.5 114 L 344 114.5 L 341.5 115 L 341.5 114 Z "></path><path fill="rgb(223,223,222)" stroke="rgb(223,223,222)" stroke-width="1" opacity="0.9803921568627451" d="M 242 213 Q 245 212 244 215 Q 241 216 242 213 Z "></path><path fill="rgb(46,69,116)" stroke="rgb(46,69,116)" stroke-width="1" opacity="0.9803921568627451" d="M 88.5 168 L 95.5 169 L 102 174 L 108.5 182 Q 110.8 181.3 110 183.5 L 119 191.5 L 124.5 198 L 127 199.5 L 131.5 205 L 134 206.5 Q 132.9 209.8 135.5 209 Q 140.5 212.4 142 218 L 150 224.5 Q 149.3 226.8 151.5 226 L 158 234 L 168 241 L 174.5 249 Q 176.8 248.3 176 250.5 L 183 259 L 185.5 259 L 191.5 265 L 194 265 L 194 267.5 L 200.5 274 Q 202.8 273.3 202 275.5 L 210 282 L 216.5 290 L 219 291.5 L 224.5 298 L 227 299.5 L 232 306.5 L 232 311.5 L 227 321 L 224.5 321 L 220 324.5 Q 220.8 326.8 218.5 326 L 210.5 329 L 191.5 329 L 181 326 Q 182.1 323.3 179.5 324 L 174 321 L 167.5 312 L 163 308.5 L 159.5 304 L 155 300.5 L 151.5 296 L 147 292.5 L 143.5 288 L 138 283.5 L 135.5 280 L 129 275.5 L 125.5 271 L 121 267.5 Q 121.5 262.5 117.5 262 L 113 258.5 L 109.5 254 L 105 250.5 L 101.5 246 L 97 242.5 L 93.5 238 L 88 233.5 L 85.5 230 L 80 225.5 L 78 222.5 L 76 219 Q 73 220.3 74 216.5 L 71 208.5 L 71 190.5 L 74 181 Q 76.7 182.1 76 179.5 L 78.5 176 Q 80.8 176.8 80 174.5 L 83.5 170 L 88.5 168 Z "></path><path fill="rgb(46,69,116)" stroke="rgb(46,69,116)" stroke-width="1" opacity="0.9803921568627451" d="M 89.5 276 L 97 282.5 L 100.5 287 L 106 291.5 L 108.5 295 L 114 299.5 L 116.5 303 L 122 307.5 L 123 311.5 L 117.5 318 L 115 319.5 L 109.5 327 L 103 332.5 L 101.5 335 L 94 341.5 Q 94.8 343.8 92.5 343 L 86 351 L 77 357.5 L 75.5 360 L 69 365.5 L 67.5 368 L 64.5 369 L 59.5 363 L 54 358.5 L 51.5 355 L 46 350.5 L 43.5 347 L 38 342.5 L 35.5 339 L 31 335.5 L 34.5 330 L 40 325.5 L 42.5 322 L 45 320.5 L 50.5 313 L 56 308.5 L 58.5 305 L 64 300.5 L 66.5 297 L 72 292.5 L 74.5 289 L 82 283.5 L 84.5 280 L 89.5 276 Z "></path><path fill="rgb(71,82,136)" stroke="rgb(71,82,136)" stroke-width="1" opacity="0.9647058823529412" d="M 134 207 Q 136.7 205.9 136 208.5 L 142.5 216 Q 144.8 215.3 144 217.5 L 152 224 L 158 231.5 L 151.5 226 Q 149.3 226.8 150 224.5 L 142 218 Q 140.5 212.4 135.5 209 Q 132.9 209.7 134 207 Z "></path><path fill="rgb(71,82,136)" stroke="rgb(71,82,136)" stroke-width="1" opacity="0.9647058823529412" d="M 94.5 240 L 97 241.5 L 100.5 246 L 105 249.5 L 108.5 254 L 113 257.5 L 116.5 262 L 121 265.5 Q 120.5 270.5 124.5 271 L 129 274.5 L 131.5 278 L 138 282.5 L 142.5 288 L 147 291.5 L 150.5 296 L 155 299.5 L 158.5 304 Q 161.1 303.3 160 306 L 157 307.5 L 151.5 314 L 149 315.5 L 144.5 322 L 137.5 323 L 133 320.5 Q 133.8 318.3 131.5 319 L 126 311 Q 122.2 312.5 123 309.5 L 117.5 303 L 114 300.5 L 109.5 295 L 106 292.5 L 101.5 287 L 97 283.5 L 93.5 279 L 89 275.5 L 85.5 271 L 81 267.5 L 79.5 264 L 77 262.5 Q 76.4 257.1 78 255 L 84 250.5 Q 83.3 248.3 85.5 249 L 92 241 L 94.5 240 Z "></path><path fill="rgb(71,82,136)" stroke="rgb(71,82,136)" stroke-width="1" opacity="0.9647058823529412" d="M 168.5 241 L 174.5 248 L 177 249.5 L 183.5 257 Q 186.8 255.9 186 258.5 L 191.5 265 L 185.5 259 L 183 259 L 176 249 L 168 242.5 L 168.5 241 Z "></path><path fill="rgb(71,82,136)" stroke="rgb(71,82,136)" stroke-width="1" opacity="0.9647058823529412" d="M 13.5 322 Q 19.3 321.2 21 324.5 L 24.5 329 Q 29.5 328.5 30 332.5 L 34.5 339 L 38 341.5 L 42.5 347 L 46 349.5 L 50.5 355 L 54 357.5 L 58.5 363 L 62 365.5 L 65.5 370 Q 69.5 369.5 70 372.5 L 74.5 379 L 78 381.5 Q 79.3 387.8 75.5 389 Q 72.9 388.3 74 391 L 72 391 L 72 392.5 L 62.5 398 L 57.5 399 L 39.5 399 L 34.5 398 L 26.5 393 L 24 393 L 22.5 390 L 14 383.5 L 9.5 378 Q 7.3 378.8 8 376.5 L 3 367.5 L 2 361 L 0 360.5 L 0 341 Q 3 342.3 2 338.5 L 8.5 327 L 11 325.5 L 13.5 322 Z "></path></svg>