<svg width="400" height="400" version="1.1" xmlns="http://www.w3.org/2000/svg" desc="Created with imagetracer.js version 1.2.5"><path fill="rgb(0,0,0)" stroke="rgb(0,0,0)" stroke-width="1" opacity="0" d="M 0 0 L 400 0 L 400 400 L 0 400 L 0 0 Z M 306 40 L 306 42 L 206 65 L 202 65 L 193 68 L 153 76 L 144 79 L 104 87 L 95 90 L 55 98 L 28 105 L 25 105 L 25 111 L 119 90 L 123 90 L 150 83 L 154 83 L 159 81 L 163 81 L 168 79 L 172 79 L 208 70 L 212 70 L 217 68 L 221 68 L 257 59 L 261 59 L 266 57 L 270 57 L 306 48 L 310 48 L 311 48 L 311 152 L 308 155 L 300 172 Q 301 174 298 173 L 298 176 L 271 228 Q 272 230 269 229 L 268 234 L 242 284 Q 243 286 240 285 L 237 293 Q 236 301 239 305 L 298 191 Q 297 188 300 189 L 301 185 L 316 156 L 318 154 L 397 154 L 397 42 Q 394 43 395 40 L 306 40 Z M 305 81 L 238 115 L 235 113 L 225 93 Q 226 90 224 91 L 216 111 L 216 114 L 202 156 L 231 166 L 265 176 Q 266 180 268 177 L 256 154 L 256 150 L 259 150 L 304 126 L 306 126 L 306 82 L 305 81 Z M 6 115 L 5 118 L 5 126 L 10 140 L 10 145 L 15 157 L 15 160 L 18 165 Q 17 168 20 167 Q 22 174 27 179 L 32 182 L 39 192 L 43 194 Q 45 193 44 196 L 50 200 L 53 205 Q 52 208 56 206 L 56 208 L 61 211 L 65 218 L 73 223 L 76 229 L 84 235 Q 86 234 85 237 L 91 241 L 94 247 L 96 246 L 106 259 L 108 258 L 113 266 L 117 268 L 118 271 L 120 270 L 121 273 L 131 282 L 132 282 L 137 290 L 139 290 L 147 299 L 146 303 L 143 305 L 141 308 L 137 311 L 132 317 Q 129 316 130 319 L 124 323 L 120 331 Q 120 337 125 339 Q 127 338 126 341 L 135 345 Q 151 348 158 341 Q 160 342 159 339 L 163 337 Q 166 338 164 334 L 166 334 L 171 329 L 173 329 L 182 341 L 188 341 L 188 340 L 191 338 L 197 332 L 200 336 Q 199 338 202 337 L 212 349 Q 211 351 214 350 L 217 355 L 228 363 L 229 366 L 232 367 L 235 372 L 238 374 L 237 374 L 234 378 L 231 380 L 228 384 L 231 388 Q 233 387 232 390 L 244 395 L 256 395 L 267 390 Q 269 391 268 389 L 272 386 L 274 383 L 279 379 L 283 369 L 283 353 Q 280 351 281 347 L 275 340 L 271 340 L 269 343 L 263 348 L 260 346 L 252 337 Q 249 338 250 335 L 249 335 L 248 334 L 245 332 L 244 328 L 240 325 Q 237 326 238 322 L 235 321 L 233 319 L 226 313 Q 227 310 225 311 L 221 306 L 225 304 Q 227 305 226 303 L 229 301 L 230 298 L 228 292 Q 225 293 226 290 L 223 289 L 221 286 L 217 283 L 226 275 L 232 267 L 234 260 Q 236 242 228 236 L 222 231 Q 216 231 214 235 Q 211 234 212 237 L 208 240 L 206 243 L 200 247 L 199 250 Q 196 249 197 252 L 195 252 L 195 254 L 189 259 L 184 255 L 182 253 L 178 249 L 176 247 L 173 244 L 167 237 Q 164 238 165 236 L 161 232 L 157 227 L 154 224 Q 151 225 152 223 L 149 220 L 147 218 L 143 214 L 141 212 L 137 208 L 132 202 Q 129 203 130 201 L 125 196 L 123 194 L 119 191 L 118 188 L 113 184 L 111 182 L 108 179 L 106 177 L 102 173 L 100 171 L 96 167 L 94 165 L 90 161 L 88 159 L 82 154 L 82 151 Q 79 152 80 149 L 78 149 L 76 147 L 70 142 Q 71 139 68 140 L 68 138 L 66 137 Q 63 138 64 136 L 58 132 L 56 129 L 53 129 L 51 127 L 42 125 L 36 122 L 21 119 L 21 117 Q 14 119 15 115 L 6 115 Z M 220 195 L 221 197 Q 222 194 220 195 Z "></path><path fill="rgb(0,0,0)" stroke="rgb(0,0,0)" stroke-width="1" opacity="0" d="M 317 45 L 391 45 L 391 149 L 317 149 L 317 45 Z "></path><path fill="rgb(10,95,161)" stroke="rgb(10,95,161)" stroke-width="1" opacity="0.4470588235294118" d="M 306.5 40 L 307 43 L 291.5 46 L 291.5 45 L 306 42 L 306.5 40 Z "></path><path fill="rgb(10,95,161)" stroke="rgb(10,95,161)" stroke-width="1" opacity="0.4470588235294118" d="M 316.5 45 L 317 148.5 L 316 148.5 L 316.5 45 Z "></path><path fill="rgb(10,95,161)" stroke="rgb(10,95,161)" stroke-width="1" opacity="0.4470588235294118" d="M 391.5 45 L 392 148.5 L 391 148.5 L 391.5 45 Z "></path><path fill="rgb(10,95,161)" stroke="rgb(10,95,161)" stroke-width="1" opacity="0.4470588235294118" d="M 286.5 46 L 290 46.5 L 282.5 48 L 282.5 47 L 286.5 46 Z "></path><path fill="rgb(10,95,161)" stroke="rgb(10,95,161)" stroke-width="1" opacity="0.4470588235294118" d="M 310.5 46 L 312 47.5 L 312 151.5 L 237.5 295 L 237 292.5 L 240 285 Q 242.7 286.1 242 283.5 L 268 233.5 L 269 229 Q 271.7 230.1 271 227.5 L 298 175.5 L 298 173 Q 300.7 174.1 300 171.5 L 308 154.5 L 311 151.5 L 311 47.5 L 309.5 48 L 306 47.5 L 310.5 46 Z "></path><path fill="rgb(10,95,161)" stroke="rgb(10,95,161)" stroke-width="1" opacity="0.4470588235294118" d="M 277.5 48 L 281 48.5 L 273.5 50 L 273.5 49 L 277.5 48 Z "></path><path fill="rgb(10,95,161)" stroke="rgb(10,95,161)" stroke-width="1" opacity="0.4470588235294118" d="M 301.5 48 L 305 48.5 L 297.5 50 L 297.5 49 L 301.5 48 Z "></path><path fill="rgb(10,95,161)" stroke="rgb(10,95,161)" stroke-width="1" opacity="0.4470588235294118" d="M 268.5 50 L 272 50.5 L 242.5 57 L 242.5 56 L 268.5 50 Z "></path><path fill="rgb(10,95,161)" stroke="rgb(10,95,161)" stroke-width="1" opacity="0.4470588235294118" d="M 292.5 50 L 296 50.5 L 288.5 52 L 288.5 51 L 292.5 50 Z "></path><path fill="rgb(10,95,161)" stroke="rgb(10,95,161)" stroke-width="1" opacity="0.4470588235294118" d="M 283.5 52 L 287 52.5 L 279.5 54 L 279.5 53 L 283.5 52 Z "></path><path fill="rgb(10,95,161)" stroke="rgb(10,95,161)" stroke-width="1" opacity="0.4470588235294118" d="M 274.5 54 L 278 54.5 L 257.5 59 L 257.5 58 L 274.5 54 Z "></path><path fill="rgb(10,95,161)" stroke="rgb(10,95,161)" stroke-width="1" opacity="0.4470588235294118" d="M 237.5 57 L 241 57.5 L 233.5 59 L 233.5 58 L 237.5 57 Z "></path><path fill="rgb(10,95,161)" stroke="rgb(10,95,161)" stroke-width="1" opacity="0.4470588235294118" d="M 228.5 59 L 232 59.5 L 224.5 61 L 224.5 60 L 228.5 59 Z "></path><path fill="rgb(10,95,161)" stroke="rgb(10,95,161)" stroke-width="1" opacity="0.4470588235294118" d="M 252.5 59 L 256 59.5 L 248.5 61 L 248.5 60 L 252.5 59 Z "></path><path fill="rgb(10,95,161)" stroke="rgb(10,95,161)" stroke-width="1" opacity="0.4470588235294118" d="M 219.5 61 L 223 61.5 L 193.5 68 L 193.5 67 L 219.5 61 Z "></path><path fill="rgb(10,95,161)" stroke="rgb(10,95,161)" stroke-width="1" opacity="0.4470588235294118" d="M 243.5 61 L 247 61.5 L 239.5 63 L 239.5 62 L 243.5 61 Z "></path><path fill="rgb(10,95,161)" stroke="rgb(10,95,161)" stroke-width="1" opacity="0.4470588235294118" d="M 234.5 63 L 238 63.5 L 230.5 65 L 230.5 64 L 234.5 63 Z "></path><path fill="rgb(10,95,161)" stroke="rgb(10,95,161)" stroke-width="1" opacity="0.4470588235294118" d="M 225.5 65 L 229 65.5 L 208.5 70 L 208.5 69 L 225.5 65 Z "></path><path fill="rgb(10,95,161)" stroke="rgb(10,95,161)" stroke-width="1" opacity="0.4470588235294118" d="M 188.5 68 L 192 68.5 L 184.5 70 L 184.5 69 L 188.5 68 Z "></path><path fill="rgb(10,95,161)" stroke="rgb(10,95,161)" stroke-width="1" opacity="0.4470588235294118" d="M 179.5 70 L 183 70.5 L 175.5 72 L 175.5 71 L 179.5 70 Z "></path><path fill="rgb(10,95,161)" stroke="rgb(10,95,161)" stroke-width="1" opacity="0.4470588235294118" d="M 203.5 70 L 207 70.5 L 199.5 72 L 199.5 71 L 203.5 70 Z "></path><path fill="rgb(10,95,161)" stroke="rgb(10,95,161)" stroke-width="1" opacity="0.4470588235294118" d="M 170.5 72 L 174 72.5 L 144.5 79 L 144.5 78 L 170.5 72 Z "></path><path fill="rgb(10,95,161)" stroke="rgb(10,95,161)" stroke-width="1" opacity="0.4470588235294118" d="M 194.5 72 L 198 72.5 L 190.5 74 L 190.5 73 L 194.5 72 Z "></path><path fill="rgb(10,95,161)" stroke="rgb(10,95,161)" stroke-width="1" opacity="0.4470588235294118" d="M 185.5 74 L 189 74.5 L 181.5 76 L 181.5 75 L 185.5 74 Z "></path><path fill="rgb(10,95,161)" stroke="rgb(10,95,161)" stroke-width="1" opacity="0.4470588235294118" d="M 176.5 76 L 180 76.5 L 159.5 81 L 159.5 80 L 176.5 76 Z "></path><path fill="rgb(10,95,161)" stroke="rgb(10,95,161)" stroke-width="1" opacity="0.4470588235294118" d="M 139.5 79 L 143 79.5 L 135.5 81 L 135.5 80 L 139.5 79 Z "></path><path fill="rgb(10,95,161)" stroke="rgb(10,95,161)" stroke-width="1" opacity="0.4470588235294118" d="M 130.5 81 L 134 81.5 L 126.5 83 L 126.5 82 L 130.5 81 Z "></path><path fill="rgb(10,95,161)" stroke="rgb(10,95,161)" stroke-width="1" opacity="0.4470588235294118" d="M 154.5 81 L 158 81.5 L 150.5 83 L 150.5 82 L 154.5 81 Z "></path><path fill="rgb(10,95,161)" stroke="rgb(10,95,161)" stroke-width="1" opacity="0.4470588235294118" d="M 121.5 83 L 125 83.5 L 95.5 90 L 95.5 89 L 121.5 83 Z "></path><path fill="rgb(10,95,161)" stroke="rgb(10,95,161)" stroke-width="1" opacity="0.4470588235294118" d="M 145.5 83 L 149 83.5 L 141.5 85 L 141.5 84 L 145.5 83 Z "></path><path fill="rgb(10,95,161)" stroke="rgb(10,95,161)" stroke-width="1" opacity="0.4470588235294118" d="M 136.5 85 L 140 85.5 L 132.5 87 L 132.5 86 L 136.5 85 Z "></path><path fill="rgb(10,95,161)" stroke="rgb(10,95,161)" stroke-width="1" opacity="0.4470588235294118" d="M 127.5 87 L 131 87.5 L 110.5 92 L 110.5 91 L 127.5 87 Z "></path><path fill="rgb(10,95,161)" stroke="rgb(10,95,161)" stroke-width="1" opacity="0.4470588235294118" d="M 90.5 90 L 94 90.5 L 86.5 92 L 86.5 91 L 90.5 90 Z "></path><path fill="rgb(10,95,161)" stroke="rgb(10,95,161)" stroke-width="1" opacity="0.4470588235294118" d="M 81.5 92 L 85 92.5 L 77.5 94 L 77.5 93 L 81.5 92 Z "></path><path fill="rgb(10,95,161)" stroke="rgb(10,95,161)" stroke-width="1" opacity="0.4470588235294118" d="M 105.5 92 L 109 92.5 L 101.5 94 L 101.5 93 L 105.5 92 Z "></path><path fill="rgb(10,95,161)" stroke="rgb(10,95,161)" stroke-width="1" opacity="0.4470588235294118" d="M 72.5 94 L 76 94.5 L 46.5 101 L 46.5 100 L 72.5 94 Z "></path><path fill="rgb(10,95,161)" stroke="rgb(10,95,161)" stroke-width="1" opacity="0.4470588235294118" d="M 96.5 94 L 100 94.5 L 92.5 96 L 92.5 95 L 96.5 94 Z "></path><path fill="rgb(10,95,161)" stroke="rgb(10,95,161)" stroke-width="1" opacity="0.4470588235294118" d="M 87.5 96 L 91 96.5 L 83.5 98 L 83.5 97 L 87.5 96 Z "></path><path fill="rgb(10,95,161)" stroke="rgb(10,95,161)" stroke-width="1" opacity="0.4470588235294118" d="M 78.5 98 L 82 98.5 L 61.5 103 L 61.5 102 L 78.5 98 Z "></path><path fill="rgb(10,95,161)" stroke="rgb(10,95,161)" stroke-width="1" opacity="0.4470588235294118" d="M 41.5 101 L 45 101.5 L 37.5 103 L 37.5 102 L 41.5 101 Z "></path><path fill="rgb(10,95,161)" stroke="rgb(10,95,161)" stroke-width="1" opacity="0.4470588235294118" d="M 32.5 103 L 36 103.5 L 28.5 105 L 28.5 104 L 32.5 103 Z "></path><path fill="rgb(10,95,161)" stroke="rgb(10,95,161)" stroke-width="1" opacity="0.4470588235294118" d="M 56.5 103 L 60 103.5 L 52.5 105 L 52.5 104 L 56.5 103 Z "></path><path fill="rgb(10,95,161)" stroke="rgb(10,95,161)" stroke-width="1" opacity="0.4470588235294118" d="M 25 105 L 27 105.5 L 27 107.5 Q 25.9 110.8 28.5 110 L 32.5 109 L 32.5 110 L 25 111 L 25 105 Z "></path><path fill="rgb(10,95,161)" stroke="rgb(10,95,161)" stroke-width="1" opacity="0.4470588235294118" d="M 47.5 105 L 51 105.5 L 43.5 107 L 43.5 106 L 47.5 105 Z "></path><path fill="rgb(10,95,161)" stroke="rgb(10,95,161)" stroke-width="1" opacity="0.4470588235294118" d="M 38.5 107 L 42 107.5 L 34.5 109 L 34.5 108 L 38.5 107 Z "></path><path fill="rgb(10,95,161)" stroke="rgb(10,95,161)" stroke-width="1" opacity="0.4470588235294118" d="M 395 151 Q 398.3 149.9 397 154 Q 393.7 155.1 395 151 Z "></path><path fill="rgb(10,95,161)" stroke="rgb(10,95,161)" stroke-width="1" opacity="0.4470588235294118" d="M 315 154 L 317 154.5 L 301 184.5 L 300 189 Q 297.3 187.9 298 190.5 L 238.5 305 L 237 298.5 L 238 298.5 L 238.5 302 L 315 154 Z "></path><path fill="rgb(10,95,161)" stroke="rgb(10,95,161)" stroke-width="1" opacity="0.4470588235294118" d="M 219.5 195 Q 221.8 194.3 221 196.5 L 219.5 195 Z "></path><path fill="rgb(10,95,161)" stroke="rgb(10,95,161)" stroke-width="1" opacity="0.4470588235294118" d="M 218.5 231 L 222 231.5 L 218.5 232 L 218.5 231 Z "></path><path fill="rgb(10,95,161)" stroke="rgb(10,95,161)" stroke-width="1" opacity="0.4470588235294118" d="M 216.5 232 L 215.5 234 L 216.5 232 Z "></path><path fill="rgb(10,95,161)" stroke="rgb(10,95,161)" stroke-width="1" opacity="0.4470588235294118" d="M 225.5 233 L 227.5 236 L 225.5 233 Z "></path><path fill="rgb(10,95,161)" stroke="rgb(10,95,161)" stroke-width="1" opacity="0.4470588235294118" d="M 228.5 237 L 231.5 241 Q 229.3 241.8 230 239.5 L 228.5 237 Z "></path><path fill="rgb(10,95,161)" stroke="rgb(10,95,161)" stroke-width="1" opacity="0.4470588235294118" d="M 207.5 240 L 209 240.5 L 206.5 242 L 207.5 240 Z "></path><path fill="rgb(10,95,161)" stroke="rgb(10,95,161)" stroke-width="1" opacity="0.4470588235294118" d="M 233.5 246 L 234 249.5 L 233 249.5 L 233.5 246 Z "></path><path fill="rgb(10,95,161)" stroke="rgb(10,95,161)" stroke-width="1" opacity="0.4470588235294118" d="M 197.5 250 L 198 251.5 L 195.5 253 L 195.5 252 Q 198 252.7 197.5 250 Z "></path><path fill="rgb(10,95,161)" stroke="rgb(10,95,161)" stroke-width="1" opacity="0.4470588235294118" d="M 194.5 254 L 190.5 259 L 188.5 260 L 189.5 258 L 194.5 254 Z "></path><path fill="rgb(10,95,161)" stroke="rgb(10,95,161)" stroke-width="1" opacity="0.4470588235294118" d="M 233.5 257 L 234 259.5 L 233 259.5 L 233.5 257 Z "></path><path fill="rgb(10,95,161)" stroke="rgb(10,95,161)" stroke-width="1" opacity="0.4470588235294118" d="M 231.5 266 L 230.5 268 L 231.5 266 Z "></path><path fill="rgb(10,95,161)" stroke="rgb(10,95,161)" stroke-width="1" opacity="0.4470588235294118" d="M 229.5 269 L 226.5 273 L 229.5 269 Z "></path><path fill="rgb(10,95,161)" stroke="rgb(10,95,161)" stroke-width="1" opacity="0.4470588235294118" d="M 224.5 274 L 226 274.5 L 221.5 278 L 224.5 274 Z "></path><path fill="rgb(10,95,161)" stroke="rgb(10,95,161)" stroke-width="1" opacity="0.4470588235294118" d="M 218.5 280 L 217.5 282 L 218.5 280 Z "></path><path fill="rgb(10,95,161)" stroke="rgb(10,95,161)" stroke-width="1" opacity="0.4470588235294118" d="M 217.5 283 L 221 285.5 L 219.5 285 L 217.5 283 Z "></path><path fill="rgb(10,95,161)" stroke="rgb(10,95,161)" stroke-width="1" opacity="0.4470588235294118" d="M 222.5 287 L 224.5 290 L 226 290.5 L 224.5 291 Q 220.9 289.9 222.5 287 Z "></path><path fill="rgb(10,95,161)" stroke="rgb(10,95,161)" stroke-width="1" opacity="0.4470588235294118" d="M 227.5 292 L 228.5 294 L 227.5 292 Z "></path><path fill="rgb(10,95,161)" stroke="rgb(10,95,161)" stroke-width="1" opacity="0.4470588235294118" d="M 229.5 295 L 230 297.5 L 229 297.5 L 229.5 295 Z "></path><path fill="rgb(10,95,161)" stroke="rgb(10,95,161)" stroke-width="1" opacity="0.4470588235294118" d="M 147 299 L 149 299.5 L 143.5 306 Q 141.3 305.3 142 307.5 L 136 312 L 131.5 318 L 130 317.5 L 135 313.5 L 136.5 311 L 141 307.5 L 142.5 305 L 146 302.5 L 147 299 Z "></path><path fill="rgb(10,95,161)" stroke="rgb(10,95,161)" stroke-width="1" opacity="0.4470588235294118" d="M 228.5 299 L 226.5 302 L 228.5 299 Z "></path><path fill="rgb(10,95,161)" stroke="rgb(10,95,161)" stroke-width="1" opacity="0.4470588235294118" d="M 224.5 303 L 226 303.5 L 222.5 306 L 224.5 303 Z "></path><path fill="rgb(10,95,161)" stroke="rgb(10,95,161)" stroke-width="1" opacity="0.4470588235294118" d="M 221.5 308 L 226 311 L 228 314.5 L 221.5 308 Z "></path><path fill="rgb(10,95,161)" stroke="rgb(10,95,161)" stroke-width="1" opacity="0.4470588235294118" d="M 230.5 316 L 232.5 319 L 230.5 316 Z "></path><path fill="rgb(10,95,161)" stroke="rgb(10,95,161)" stroke-width="1" opacity="0.4470588235294118" d="M 129.5 319 L 121.5 328 L 124 324.5 Q 123.3 322.3 125.5 323 L 129.5 319 Z "></path><path fill="rgb(10,95,161)" stroke="rgb(10,95,161)" stroke-width="1" opacity="0.4470588235294118" d="M 235.5 321 L 238 322 L 237.5 324 L 235.5 321 Z "></path><path fill="rgb(10,95,161)" stroke="rgb(10,95,161)" stroke-width="1" opacity="0.4470588235294118" d="M 239.5 325 L 244 328 L 245 330.5 L 243.5 330 Q 241.3 330.8 242 328.5 L 239.5 325 Z "></path><path fill="rgb(10,95,161)" stroke="rgb(10,95,161)" stroke-width="1" opacity="0.4470588235294118" d="M 170.5 328 L 172 328.5 L 169.5 330 L 170.5 328 Z "></path><path fill="rgb(10,95,161)" stroke="rgb(10,95,161)" stroke-width="1" opacity="0.4470588235294118" d="M 120.5 330 L 121 332.5 L 120 332.5 L 120.5 330 Z "></path><path fill="rgb(10,95,161)" stroke="rgb(10,95,161)" stroke-width="1" opacity="0.4470588235294118" d="M 173.5 330 L 179 334 L 183.5 340 L 188 340.5 L 182 341 L 173.5 330 Z "></path><path fill="rgb(10,95,161)" stroke="rgb(10,95,161)" stroke-width="1" opacity="0.4470588235294118" d="M 166.5 332 L 165.5 334 L 166.5 332 Z "></path><path fill="rgb(10,95,161)" stroke="rgb(10,95,161)" stroke-width="1" opacity="0.4470588235294118" d="M 195.5 332 L 192.5 336 L 195.5 332 Z "></path><path fill="rgb(10,95,161)" stroke="rgb(10,95,161)" stroke-width="1" opacity="0.4470588235294118" d="M 197.5 332 L 199.5 335 L 197.5 332 Z "></path><path fill="rgb(10,95,161)" stroke="rgb(10,95,161)" stroke-width="1" opacity="0.4470588235294118" d="M 246.5 332 L 247.5 334 L 246.5 332 Z "></path><path fill="rgb(10,95,161)" stroke="rgb(10,95,161)" stroke-width="1" opacity="0.4470588235294118" d="M 121.5 334 L 124.5 338 L 126 338.5 L 124.5 339 L 121 335.5 L 121.5 334 Z "></path><path fill="rgb(10,95,161)" stroke="rgb(10,95,161)" stroke-width="1" opacity="0.4470588235294118" d="M 249.5 334 L 250 336 L 248 335.5 L 249.5 334 Z "></path><path fill="rgb(10,95,161)" stroke="rgb(10,95,161)" stroke-width="1" opacity="0.4470588235294118" d="M 163.5 335 L 164 337 L 159.5 339 L 159.5 338 L 163.5 335 Z "></path><path fill="rgb(10,95,161)" stroke="rgb(10,95,161)" stroke-width="1" opacity="0.4470588235294118" d="M 200.5 336 L 204 338.5 L 201.5 337 L 200.5 336 Z "></path><path fill="rgb(10,95,161)" stroke="rgb(10,95,161)" stroke-width="1" opacity="0.4470588235294118" d="M 251.5 337 L 254 340.5 L 252 339.5 L 251.5 337 Z "></path><path fill="rgb(10,95,161)" stroke="rgb(10,95,161)" stroke-width="1" opacity="0.4470588235294118" d="M 126.5 340 L 130 342.5 L 127.5 341 L 126.5 340 Z "></path><path fill="rgb(10,95,161)" stroke="rgb(10,95,161)" stroke-width="1" opacity="0.4470588235294118" d="M 204.5 340 L 211.5 348 L 204.5 340 Z "></path><path fill="rgb(10,95,161)" stroke="rgb(10,95,161)" stroke-width="1" opacity="0.4470588235294118" d="M 270.5 340 L 273 340.5 L 270 341 L 266.5 346 L 265 345.5 L 269 342.5 L 270.5 340 Z "></path><path fill="rgb(10,95,161)" stroke="rgb(10,95,161)" stroke-width="1" opacity="0.4470588235294118" d="M 156.5 341 L 155.5 343 L 151.5 344 L 151.5 343 L 156.5 341 Z "></path><path fill="rgb(10,95,161)" stroke="rgb(10,95,161)" stroke-width="1" opacity="0.4470588235294118" d="M 255.5 342 L 261 346 Q 259.9 348.7 262.5 348 L 264 347.5 L 261.5 349 L 255.5 342 Z "></path><path fill="rgb(10,95,161)" stroke="rgb(10,95,161)" stroke-width="1" opacity="0.4470588235294118" d="M 276.5 342 L 281 346.5 L 281 348.5 L 280 348.5 L 280 346.5 L 276.5 342 Z "></path><path fill="rgb(10,95,161)" stroke="rgb(10,95,161)" stroke-width="1" opacity="0.4470588235294118" d="M 134.5 344 L 138 344.5 L 134.5 345 L 134.5 344 Z "></path><path fill="rgb(10,95,161)" stroke="rgb(10,95,161)" stroke-width="1" opacity="0.4470588235294118" d="M 147.5 344 L 150 344.5 L 147.5 345 L 147.5 344 Z "></path><path fill="rgb(10,95,161)" stroke="rgb(10,95,161)" stroke-width="1" opacity="0.4470588235294118" d="M 212.5 349 L 218 353.5 Q 217.3 355.8 219.5 355 L 222.5 359 L 217 354.5 L 213.5 350 L 212.5 349 Z "></path><path fill="rgb(10,95,161)" stroke="rgb(10,95,161)" stroke-width="1" opacity="0.4470588235294118" d="M 282.5 352 L 283 354.5 L 282 354.5 L 282.5 352 Z "></path><path fill="rgb(10,95,161)" stroke="rgb(10,95,161)" stroke-width="1" opacity="0.4470588235294118" d="M 224.5 360 L 226.5 363 L 224.5 360 Z "></path><path fill="rgb(10,95,161)" stroke="rgb(10,95,161)" stroke-width="1" opacity="0.4470588235294118" d="M 228.5 363 L 230 366 L 235 369.5 L 231.5 367 L 229 365.5 L 228.5 363 Z "></path><path fill="rgb(10,95,161)" stroke="rgb(10,95,161)" stroke-width="1" opacity="0.4470588235294118" d="M 279.5 375 L 279 376.5 Q 280.1 379.8 277.5 379 L 271.5 386 L 268 388.5 L 267.5 390 L 267 388.5 L 273 384 L 279.5 375 Z "></path><path fill="rgb(10,95,161)" stroke="rgb(10,95,161)" stroke-width="1" opacity="0.4470588235294118" d="M 234.5 376 L 235 377.5 L 230 381 L 229.5 383 L 229 381.5 L 234 377.5 L 234.5 376 Z "></path><path fill="rgb(10,95,161)" stroke="rgb(10,95,161)" stroke-width="1" opacity="0.4470588235294118" d="M 229.5 385 L 230 387 L 233 388.5 Q 232.3 390.8 234.5 390 L 237 391.5 L 235.5 392 L 232 389.5 Q 232.8 387.3 230.5 388 L 229.5 385 Z "></path><path fill="rgb(10,95,161)" stroke="rgb(10,95,161)" stroke-width="1" opacity="0.4470588235294118" d="M 262.5 391 L 261.5 393 L 257.5 394 L 257.5 393 L 262.5 391 Z "></path><path fill="rgb(10,95,161)" stroke="rgb(10,95,161)" stroke-width="1" opacity="0.4470588235294118" d="M 243.5 394 L 246 394.5 L 243.5 395 L 243.5 394 Z "></path><path fill="rgb(10,95,161)" stroke="rgb(10,95,161)" stroke-width="1" opacity="0.4470588235294118" d="M 253.5 394 L 256 394.5 L 253.5 395 L 253.5 394 Z "></path><path fill="rgb(174,173,168)" stroke="rgb(174,173,168)" stroke-width="1" opacity="0.9607843137254902" d="M 11.5 115 L 14 115.5 L 11.5 116 L 11.5 115 Z "></path><path fill="rgb(174,173,168)" stroke="rgb(174,173,168)" stroke-width="1" opacity="0.9607843137254902" d="M 5.5 117 L 18.5 130 L 20 130 L 24.5 136 Q 26.8 135.3 26 137.5 L 40.5 152 L 42 152 Q 40.5 155.8 43.5 155 L 53.5 165 L 55 165 L 59.5 171 Q 61.8 170.3 61 172.5 L 71 182.5 L 71 184 L 75.5 186 Q 76.7 183.8 81.5 185 L 85 187 Q 85.5 191.7 89.5 194 Q 91.8 193.3 91 195.5 L 97 200 L 101.5 206 Q 103.8 205.3 103 207.5 L 112.5 217 L 114 217 L 115.5 220 L 124 227.5 L 126 230.5 L 132 235 L 136.5 241 Q 138.8 240.3 138 242.5 L 144 247 L 147.5 252 Q 149.8 251.3 149 253.5 L 161 264.5 L 165.5 270 Q 167.8 269.3 167 271.5 L 171 275.5 L 171 277.5 L 155.5 293 L 154 293 L 152.5 296 L 147.5 299 L 138.5 290 L 137 290 L 132 282 L 126 277.5 Q 126.8 275.3 124.5 276 L 119.5 270 L 114 266.5 L 108 258 L 106.5 258 L 97 248.5 L 95.5 246 L 91 242.5 Q 91.8 240.3 89.5 241 L 85 235 L 79 230.5 L 78.5 229 Q 77.3 231.3 76 228.5 L 73 223 L 65 218 L 61 211 L 56 207.5 L 56 206 Q 52.2 207.5 53 204.5 L 50 200 L 44 195.5 Q 44.8 193.3 42.5 194 L 39 191.5 L 32 182 L 27 178.5 L 25 175.5 L 25.5 174 L 22 172.5 L 20 167 Q 17 168.3 18 164.5 L 14 154.5 L 14.5 153 Q 11.9 153.8 13 150.5 L 10 144.5 L 9 135.5 L 7 133.5 L 5 125.5 L 5.5 117 Z M 78 197 L 78 198 L 80 198 L 78 197 Z M 107 225 L 108 227 L 109 227 L 107 225 Z M 153 271 L 154 273 Q 155 270 153 271 Z "></path><path fill="rgb(174,173,168)" stroke="rgb(174,173,168)" stroke-width="1" opacity="0.9607843137254902" d="M 42.5 125 L 45 125.5 L 42.5 126 L 42.5 125 Z "></path><path fill="rgb(174,173,168)" stroke="rgb(174,173,168)" stroke-width="1" opacity="0.9607843137254902" d="M 72.5 143 L 73.5 145 L 72.5 143 Z "></path><path fill="rgb(174,173,168)" stroke="rgb(174,173,168)" stroke-width="1" opacity="0.9607843137254902" d="M 79.5 149 L 80 151 L 82 151.5 L 80.5 152 L 79.5 149 Z "></path><path fill="rgb(174,173,168)" stroke="rgb(174,173,168)" stroke-width="1" opacity="0.9607843137254902" d="M 82.5 154 L 88 158.5 L 84.5 156 L 82.5 154 Z "></path><path fill="rgb(174,173,168)" stroke="rgb(174,173,168)" stroke-width="1" opacity="0.9607843137254902" d="M 90.5 161 L 95.5 167 L 98 168.5 L 96.5 168 L 93 165.5 L 91.5 163 Q 88.7 163.7 90.5 161 Z "></path><path fill="rgb(174,173,168)" stroke="rgb(174,173,168)" stroke-width="1" opacity="0.9607843137254902" d="M 133.5 204 L 134.5 206 L 133.5 204 Z "></path><path fill="rgb(174,173,168)" stroke="rgb(174,173,168)" stroke-width="1" opacity="0.9607843137254902" d="M 135.5 207 L 141 211.5 L 140.5 213 L 137.5 209 L 135.5 207 Z "></path><path fill="rgb(174,173,168)" stroke="rgb(174,173,168)" stroke-width="1" opacity="0.9607843137254902" d="M 142.5 214 L 147 217.5 L 145 218 L 143.5 215 L 142.5 214 Z "></path><path fill="rgb(174,173,168)" stroke="rgb(174,173,168)" stroke-width="1" opacity="0.9607843137254902" d="M 150.5 221 L 151.5 223 Q 148.7 223.7 150.5 221 Z "></path><path fill="rgb(174,173,168)" stroke="rgb(174,173,168)" stroke-width="1" opacity="0.9607843137254902" d="M 152.5 224 L 157 226.5 L 156.5 228 L 156 226 Q 151.8 226 152.5 224 Z "></path><path fill="rgb(174,173,168)" stroke="rgb(174,173,168)" stroke-width="1" opacity="0.9607843137254902" d="M 187.5 259 L 186.5 261 L 187.5 259 Z "></path><path fill="rgb(174,173,168)" stroke="rgb(174,173,168)" stroke-width="1" opacity="0.9607843137254902" d="M 182.5 264 L 183 265.5 L 181 266.5 L 182.5 264 Z "></path><path fill="rgb(174,173,168)" stroke="rgb(174,173,168)" stroke-width="1" opacity="0.9607843137254902" d="M 179.5 268 L 178.5 270 L 179.5 268 Z "></path><path fill="rgb(174,173,168)" stroke="rgb(174,173,168)" stroke-width="1" opacity="0.9607843137254902" d="M 175.5 272 L 174.5 274 L 175.5 272 Z "></path><path fill="rgb(0,0,0)" stroke="rgb(0,0,0)" stroke-width="1" opacity="0.9764705882352941" d="M 304.5 81 L 306 81.5 L 306 126 L 303.5 126 L 258.5 150 L 256 150 L 256 153.5 L 268 176.5 Q 266.3 179.8 264.5 176 L 230.5 166 L 202 155.5 L 216 113.5 L 216 110.5 L 223.5 91 Q 225.8 90.3 225 92.5 L 235 112.5 L 237.5 115 L 304.5 81 Z "></path><path fill="rgb(148,143,139)" stroke="rgb(148,143,139)" stroke-width="1" opacity="0.9803921568627451" d="M 6 115 L 13.5 116 L 15 115.5 Q 13.9 118.8 16.5 118 L 20 117 Q 18.8 120 22.5 119 L 38.5 123 L 42.5 126 L 46.5 126 L 54 129 L 54.5 131 L 55.5 129 L 57.5 132 L 64 135.5 L 64 137 L 66 137 Q 64.9 139.7 67.5 139 L 70 140.5 L 69.5 142 L 76 146.5 L 77.5 149 Q 79.8 148.3 79 150.5 L 82 152 L 83.5 156 L 88 159.5 L 88 161 L 90 161 Q 88.9 163.7 91.5 163 L 95.5 168 L 100 170 L 101.5 173 L 104.5 175 L 105.5 178 Q 107.8 177.3 107 179.5 Q 109 177.8 111 181.5 L 110.5 183 L 118 187.5 L 117.5 189 L 119 189.5 L 118.5 191 Q 122.5 190.5 123 193.5 L 122.5 195 L 130 200.5 L 130.5 203 Q 131.8 200.7 133 203.5 L 136.5 209 L 140 211.5 L 140 213 L 142 213 Q 140.9 215.7 143.5 215 L 145 218 Q 148 217 147 220 L 150 220 L 150 223 L 152 223 Q 150.9 225.7 153.5 225 L 156 226 Q 154.9 228.7 157.5 228 L 160.5 232 L 165 235.5 Q 164.3 237.8 166.5 237 L 173.5 245 L 176 246.5 L 177.5 249 L 182 252.5 L 184.5 256 L 188 258.5 L 188 260.5 L 184.5 264 Q 181.2 262.9 182 265.5 L 181 268 L 178 269.5 L 176.5 272 L 174 273.5 L 171.5 277 L 167 270 L 161 265.5 L 153.5 257 L 149 253.5 Q 149.8 251.3 147.5 252 L 144 247 L 138 242.5 Q 138.8 240.3 136.5 241 L 132 235 L 126 230.5 L 124 227.5 L 114 218.5 Q 114.8 216.3 112.5 217 L 103 207.5 L 103 206 L 97 201.5 Q 97.8 199.3 95.5 200 L 91 194 L 86 190.5 L 85 187 L 81.5 185 L 76.5 185 L 74.5 186 L 71 184 L 61 171 L 55 166.5 Q 55.8 164.3 53.5 165 L 43.5 155 L 42 155 Q 43.5 151.2 40.5 152 L 26 137.5 L 26 136 L 20 131.5 Q 20.8 129.3 18.5 130 L 6 117.5 L 6 115 Z "></path><path fill="rgb(148,143,139)" stroke="rgb(148,143,139)" stroke-width="1" opacity="0.9803921568627451" d="M 73.5 191 L 76 194.5 L 73 192.5 L 73.5 191 Z "></path><path fill="rgb(148,143,139)" stroke="rgb(148,143,139)" stroke-width="1" opacity="0.9803921568627451" d="M 76.5 196 L 83 200.5 Q 82.3 202.8 84.5 202 L 89 208 L 94 211.5 L 90.5 209 L 88 207.5 L 84.5 203 L 82 201.5 L 79.5 198 Q 75.7 198.5 76.5 196 Z "></path><path fill="rgb(148,143,139)" stroke="rgb(148,143,139)" stroke-width="1" opacity="0.9803921568627451" d="M 95.5 214 L 100 217.5 L 101.5 220 L 106 223.5 Q 105.3 225.8 107.5 225 L 111 229.5 L 109 228.5 Q 109.8 226.3 107.5 227 L 102.5 221 L 99 218.5 L 96.5 215 L 95.5 214 Z "></path><path fill="rgb(148,143,139)" stroke="rgb(148,143,139)" stroke-width="1" opacity="0.9803921568627451" d="M 111.5 231 L 118 235.5 L 116.5 235 Q 111.9 233.8 111.5 231 Z "></path><path fill="rgb(148,143,139)" stroke="rgb(148,143,139)" stroke-width="1" opacity="0.9803921568627451" d="M 120.5 238 L 124 243 L 130 247.5 Q 129.3 249.8 131.5 249 L 134.5 253 L 129 248.5 L 125.5 244 L 123 242.5 L 120.5 238 Z "></path><path fill="rgb(148,143,139)" stroke="rgb(148,143,139)" stroke-width="1" opacity="0.9803921568627451" d="M 135.5 254 L 141 258.5 L 142.5 261 L 147 264.5 L 146.5 266 L 143.5 262 L 140 259.5 L 137.5 256 L 135.5 254 Z "></path><path fill="rgb(148,143,139)" stroke="rgb(148,143,139)" stroke-width="1" opacity="0.9803921568627451" d="M 147.5 267 L 154 271 Q 152.9 273.7 155.5 273 L 158.5 277 L 147.5 268 L 147.5 267 Z "></path><path fill="rgb(148,143,139)" stroke="rgb(148,143,139)" stroke-width="1" opacity="0.9803921568627451" d="M 160.5 278 L 163.5 282 L 160.5 278 Z "></path><path fill="rgb(148,143,139)" stroke="rgb(148,143,139)" stroke-width="1" opacity="0.9803921568627451" d="M 170.5 278 L 166.5 283 L 170.5 278 Z "></path><path fill="rgb(148,143,139)" stroke="rgb(148,143,139)" stroke-width="1" opacity="0.9803921568627451" d="M 151.5 296 L 149.5 299 L 151.5 296 Z "></path><path fill="rgb(35,76,128)" stroke="rgb(35,76,128)" stroke-width="1" opacity="0.9921568627450981" d="M 307 40 L 393.5 40 Q 392.8 43 397 42 L 397 151 L 395 151 L 394.5 154 L 315.5 154 L 315 155.5 L 238.5 302 L 237 295.5 L 312 151.5 L 312 47.5 Q 310.8 44.8 309.5 47 L 27 110 L 26 106.5 L 27.5 105 L 67.5 97 L 76.5 94 L 80.5 94 L 85.5 92 L 89.5 92 L 94.5 90 L 98.5 90 L 125.5 83 L 129.5 83 L 134.5 81 L 138.5 81 L 307 43 L 307 40 Z M 316 45 L 316 149 L 392 149 L 392 45 L 316 45 Z "></path><path fill="rgb(35,76,128)" stroke="rgb(35,76,128)" stroke-width="1" opacity="0.9921568627450981" d="M 217.5 232 Q 226.1 230.9 228 236.5 L 230 241 Q 233.3 239.7 232 244.5 L 234 250.5 L 234 256.5 L 232 265.5 L 226 274 L 221 277.5 L 219.5 280 L 217 281.5 L 218.5 285 L 222 287.5 L 224.5 291 L 229 294.5 L 229 298.5 L 226 303 L 221 306.5 L 221 308.5 L 227.5 315 L 242 328.5 Q 241.3 330.8 243.5 330 L 248 336 L 252 338.5 L 253.5 341 Q 255.8 340.3 255 342.5 L 262.5 349 L 264 346 Q 268.7 346.8 270 342.5 Q 269.2 339.9 272.5 341 L 274.5 341 Q 276.8 340.3 276 342.5 Q 284.7 349.3 283 366.5 L 280 374.5 L 273 384 L 267 388.5 Q 267.8 391.1 264.5 390 Q 258.3 395.3 246.5 395 L 233 390 L 231.5 387 Q 229.3 387.8 230 385.5 L 229 383.5 L 230 381 L 235 377.5 Q 233.9 374.2 236.5 375 L 238 372 L 235 370.5 L 231.5 366 Q 229.3 366.8 230 364.5 L 223 360 L 219.5 355 Q 217.3 355.8 218 353.5 L 212 349 L 201.5 336 Q 199.3 336.8 200 334.5 Q 199.5 331.5 195.5 332 L 190.5 338 L 188 338 L 187.5 340 L 183.5 340 L 179 334 L 170.5 328 L 167.5 332 L 159 338 L 157.5 341 L 146.5 345 L 138.5 345 L 130.5 343 L 126 340 Q 127.1 337.3 124.5 338 Q 119.9 336.1 121 328.5 L 130 319.5 L 130 318 L 136 313.5 Q 135.3 311.3 137.5 312 L 142 306 L 147 302.5 L 165.5 283 L 171 278.5 L 183 264 L 195 254.5 Q 194.3 252.3 196.5 253 L 200.5 248 Q 202.8 248.8 202 246.5 L 209 241 L 214.5 234 L 217.5 232 Z "></path></svg>