<svg width="400" height="400" version="1.1" xmlns="http://www.w3.org/2000/svg" desc="Created with imagetracer.js version 1.2.5"><path fill="rgb(255,0,42)" stroke="rgb(255,0,42)" stroke-width="1" opacity="0.6078431372549019" d="M 52 0 Q 55.7 -1.4 54 4.5 Q 56 14.5 63.5 19 L 90.5 37 L 122.5 54 L 187.5 85 L 198.5 87 Q 207.6 85.1 212 78.5 L 215 73.5 L 237.5 49 L 245 42.5 L 255 30.5 Q 261.7 22.7 265 11.5 L 273.5 0 L 275 0.5 L 265 13.5 Q 261.5 25.5 254 33.5 L 222 67.5 L 218 78.5 L 211.5 85 Q 205.7 89.7 193.5 88 L 184.5 85 L 166.5 75 L 135.5 62 L 101.5 43 L 93.5 40 L 72.5 25 L 64.5 21 L 56 13.5 Q 51 9 52 0 Z "></path><path fill="rgb(255,0,42)" stroke="rgb(255,0,42)" stroke-width="1" opacity="0.6078431372549019" d="M 360.5 24 Q 369.4 22.6 374.5 25 Q 382.3 28.3 387 34.5 L 400 60.5 L 398 59.5 Q 392.7 41.3 380.5 30 Q 374.5 26 365.5 25 L 352.5 28 L 334.5 38 L 322.5 42 L 301.5 53 L 292 61.5 L 289 69.5 L 289 77.5 L 303 103.5 L 322 126.5 L 333.5 138 L 347.5 147 L 351.5 147 L 362.5 152 L 373.5 152 L 384 145.5 L 388 137.5 L 392 112.5 L 399.5 97 L 399 98.5 L 393 112.5 L 388 141.5 L 379.5 152 Q 374.7 156.7 363.5 155 L 339.5 144 L 318 123.5 Q 311.3 112.2 301 104.5 L 296 91.5 L 287 78.5 L 287 67.5 Q 289.1 60.1 294.5 56 L 324.5 40 L 336.5 36 L 360.5 24 Z "></path><path fill="rgb(255,0,42)" stroke="rgb(255,0,42)" stroke-width="1" opacity="0.6078431372549019" d="M 35.5 38 Q 48.3 36.2 54.5 41 L 74 59.5 L 81.5 68 Q 95.1 76.9 105.5 89 L 118.5 96 L 126 103.5 L 130 112.5 L 130 121.5 Q 127.9 130.9 121.5 136 L 108.5 144 L 88.5 150 L 16.5 187 L 17.5 185 L 88.5 149 Q 102.8 146.3 113.5 140 L 124 130.5 Q 128.8 124.3 127 111.5 Q 124.5 103 118.5 98 L 106.5 91 L 55.5 44 L 45.5 40 L 35.5 40 L 25.5 44 Q 14.9 54.9 0.5 62 L 1.5 60 L 9.5 56 L 26.5 42 L 35.5 38 Z "></path><path fill="rgb(255,0,42)" stroke="rgb(255,0,42)" stroke-width="1" opacity="0.6078431372549019" d="M 12.5 188 L 11.5 190 L 0.5 195 L 0.5 194 L 12.5 188 Z "></path><path fill="rgb(255,0,0)" stroke="rgb(255,0,0)" stroke-width="1" opacity="0.00392156862745098" d="M 50 0 Q 54 -1.4 52 5.5 Q 54.5 13.5 60.5 18 L 93.5 40 L 101.5 43 L 135.5 62 L 166.5 75 L 189.5 87 L 204.5 88 Q 213.5 85.5 218 78.5 L 222 67.5 L 254 33.5 Q 261.5 25.5 265 13.5 L 275.5 0 L 276 1.5 L 267 12.5 L 261 25.5 L 249 42 Q 246.3 40.9 247 43.5 L 240 49 L 238.5 52 L 233 56.5 L 222 69.5 L 222 71.5 Q 221.2 82.2 213.5 86 Q 207.9 90.4 197.5 90 L 188.5 88 L 176.5 81 L 156.5 72 L 151.5 71 L 121.5 56 Q 106.5 45.1 87.5 38 L 56 16 L 51 6.5 L 50 0 Z "></path><path fill="rgb(255,0,0)" stroke="rgb(255,0,0)" stroke-width="1" opacity="0.00392156862745098" d="M 364.5 22 Q 379.9 23.1 387 32.5 L 398 52.5 L 400 59.5 L 399 59.5 L 389 37.5 L 381.5 29 Q 375.3 22.2 360.5 24 L 335.5 36 L 336.5 34 L 358.5 23 Q 363.3 24.3 364.5 22 Z "></path><path fill="rgb(255,0,0)" stroke="rgb(255,0,0)" stroke-width="1" opacity="0.00392156862745098" d="M 37.5 36 Q 56.2 35.3 63 46.5 L 84.5 69 L 100 81.5 Q 99.3 83.8 101.5 83 L 108.5 90 L 124 98 L 124 100 Q 126.7 98.9 126 101.5 Q 131.8 107.2 132 118.5 Q 129.7 119.8 131 124.5 L 128 130.5 L 122.5 137 L 106.5 146 L 86.5 152 L 17.5 187 L 0.5 197 L 0 195 L 88.5 150 L 108.5 144 L 124 133.5 L 130 121.5 L 130 112.5 Q 126.9 101.6 118.5 96 L 105.5 89 L 74 60.5 L 68.5 54 L 54.5 41 L 50.5 39 Q 45 36.5 35.5 38 L 26.5 42 L 9.5 56 L 0.5 61 L 1.5 59 L 10.5 54 L 28.5 39 L 37.5 36 Z "></path><path fill="rgb(255,0,0)" stroke="rgb(255,0,0)" stroke-width="1" opacity="0.00392156862745098" d="M 331.5 36 L 334 36.5 Q 309.7 45.2 291 59.5 Q 285.2 65.2 287 78.5 L 296 91.5 L 301 104.5 L 335.5 141 L 344.5 147 L 352.5 149 L 360.5 154 Q 365.2 156.3 373.5 155 Q 381.6 152.1 386 145.5 Q 389.4 140.7 389 133 L 391 133.5 L 387 146.5 L 380.5 153 L 369.5 157 L 367.5 157 L 361.5 156 L 353.5 151 L 345.5 149 Q 330.1 140.9 320 127.5 L 312 116 L 310 116 Q 311.1 113.3 308.5 114 L 300 106.5 Q 296.2 101.8 296 93.5 L 293.5 90 L 290 87.5 L 285 77.5 L 285 67.5 L 293.5 55 L 331.5 36 Z "></path><path fill="rgb(255,0,0)" stroke="rgb(255,0,0)" stroke-width="1" opacity="0.00392156862745098" d="M 399.5 98 L 400 99.5 L 398 100.5 L 399.5 98 Z "></path><path fill="rgb(255,0,0)" stroke="rgb(255,0,0)" stroke-width="1" opacity="0.00392156862745098" d="M 397.5 102 L 398 103.5 Q 392 115.5 390.5 132 L 390 126.5 L 393 112.5 L 397.5 102 Z "></path><path fill="rgb(0,0,0)" stroke="rgb(0,0,0)" stroke-width="1" opacity="0" d="M 0 0 L 49.5 0 L 50 1.5 L 53 11.5 L 56 16 L 87.5 38 Q 106.4 45 121.5 56 L 151.5 71 L 156.5 72 L 176.5 81 L 188.5 88 L 202.5 90 Q 214.5 88 220 79.5 L 223 70.5 L 222 69.5 L 228 63.5 L 237.5 52 L 240 50.5 Q 239.3 48.3 241.5 49 L 247 42 Q 249.7 43.1 249 40.5 L 259 28.5 L 265 15.5 L 275 3.5 L 276 0 L 400 0 L 400 56.5 L 399 56.5 Q 393.9 39.1 382.5 28 L 372.5 23 L 364.5 22 Q 363.3 24.3 358.5 23 L 343.5 30 L 334.5 36 L 321.5 40 L 296.5 53 L 290 58.5 L 285 67.5 L 285 77.5 Q 286.7 85.8 292.5 90 L 295 91.5 L 297 100.5 L 300 106.5 L 306.5 113 L 310 114 L 310 116 Q 312.7 114.9 312 117.5 L 334.5 142 L 347.5 150 L 353.5 151 Q 358.1 156.4 367.5 157 L 370.5 156 L 377.5 155 L 387 146.5 L 391 133.5 L 391 131.5 Q 392.3 112.8 399.5 100 L 400 242.5 L 394.5 238 Q 377.9 227.6 366 212.5 L 364 209.5 L 341 184.5 L 341 183 L 339 183 Q 340.1 180.3 337.5 181 L 332.5 175 L 308.5 153 L 261.5 121 L 244.5 114 L 236.5 114 L 231.5 112 L 223.5 112 L 222.5 111 L 208.5 114 L 189.5 123 L 145.5 149 L 55.5 196 L 35.5 209 L 11.5 221 L 0.5 229 L 0 197.5 L 17.5 187 L 86.5 152 Q 104.8 148.3 118.5 140 L 125 134.5 L 131 124.5 L 132 114.5 L 126 100 L 124 100 Q 125.1 97.3 122.5 98 L 119.5 95 L 108.5 90 L 100 83 L 96.5 78 Q 77.5 65 63 47.5 L 57.5 41 Q 50.7 35.3 37.5 36 L 28.5 39 L 10.5 54 L 0.5 60 L 0 0 Z "></path><path fill="rgb(255,0,42)" stroke="rgb(255,0,42)" stroke-width="1" opacity="0.996078431372549" d="M 54 0 L 273 0.5 L 265 11.5 Q 261.7 22.7 255 30.5 L 238.5 49 L 232 54.5 L 207.5 83 Q 203.7 86.7 196.5 87 L 187.5 85 Q 169.8 74.2 148.5 67 L 90.5 37 L 63.5 19 L 57 12.5 Q 53.6 7.7 54 0 Z "></path><path fill="rgb(255,0,42)" stroke="rgb(255,0,42)" stroke-width="1" opacity="0.996078431372549" d="M 365.5 25 Q 380.4 26.6 387 36.5 L 400 61.5 L 400 96.5 L 392 112.5 L 387 140.5 L 381.5 148 Q 375.8 153.8 362.5 152 L 341.5 144 L 322 126.5 L 301 100.5 L 290 80.5 L 289 69.5 Q 291 59.5 298.5 55 L 352.5 28 L 365.5 25 Z "></path><path fill="rgb(255,0,42)" stroke="rgb(255,0,42)" stroke-width="1" opacity="0.996078431372549" d="M 35.5 40 L 45.5 40 L 55.5 44 L 106.5 91 Q 116 94.5 122 101.5 Q 129 108 127 123.5 Q 124.3 133.3 116.5 138 Q 105 146 88.5 149 L 0 194 L 0 62.5 L 1.5 62 Q 15 54.5 25.5 44 L 35.5 40 Z "></path><path fill="rgb(0,255,154)" stroke="rgb(0,255,154)" stroke-width="1" opacity="0.7568627450980392" d="M 222.5 111 L 223.5 112 L 231.5 112 L 236.5 114 L 244.5 114 L 261.5 121 L 308.5 153 L 336 178.5 L 337.5 181 L 339 181 L 339 183 Q 341.7 181.9 341 184.5 L 364 209.5 L 364 211 Q 366.7 209.9 366 212.5 L 384.5 231 L 400 243.5 L 399.5 247 L 368 218.5 L 329.5 176 L 298.5 149 L 265.5 127 L 246.5 119 L 235.5 117 L 223.5 117 Q 216.6 120.6 204.5 119 L 195.5 123 L 158.5 145 L 59.5 197 L 0.5 232 L 0 229.5 L 11.5 221 L 35.5 209 L 55.5 196 L 145.5 149 L 189.5 123 L 208.5 114 L 222.5 111 Z "></path><path fill="rgb(0,255,153)" stroke="rgb(0,255,153)" stroke-width="1" opacity="0.996078431372549" d="M 223.5 117 L 235.5 117 L 246.5 119 L 265.5 127 L 307.5 156 L 336 182.5 L 377.5 228 L 400 247.5 L 400 257.5 L 399 258.5 L 400 261.5 L 399.5 263 L 399 261 L 396 260.5 L 398 259.5 L 396 259 L 395.5 256 L 392.5 258 L 390 257.5 L 390.5 256 L 389 255.5 L 390.5 255 L 394 257 L 395 254.5 L 393.5 252 L 392.5 255 L 392 253 Q 389.3 254.1 390 251.5 L 388 252.5 L 387.5 254 L 386 248 L 383.5 249 L 381 247.5 L 387 244.5 L 385.5 244 L 384 244.5 L 384.5 243 L 378.5 246 L 378.5 245 L 380 244.5 L 379 242 L 377 241.5 L 379 240.5 L 375 233 Q 371.6 232.3 370.5 235 L 369.5 233 Q 370.8 235.2 372 232.5 L 371 230 L 368 230.5 L 368.5 232 L 365 230.5 L 364 228.5 L 366 228 L 365.5 226 L 364 226.5 L 365.5 224 L 362 223.5 L 365 222.5 L 362 221.5 L 362.5 220 L 357 221 L 358 218.5 L 355.5 218 L 354 218.5 L 357 216.5 L 356 214.5 L 356.5 213 L 354.5 212 L 354 213.5 Q 356.3 214.7 353.5 216 L 352.5 213 L 350 214 L 351 208.5 L 350 208.5 L 348.5 212 L 349 210.5 L 348.5 209 L 346.5 210 L 346.5 209 L 348 208.5 Q 346.8 205.3 343 206 L 342.5 203 L 341.5 205 L 340 201.5 L 341 198.5 L 340 198.5 L 338.5 201 Q 336.3 201.8 337 199.5 L 339 196.5 L 336 195.5 Q 336.8 191.8 334.5 191 L 333 194.5 Q 333.8 196.8 331.5 196 L 331 193.5 L 332 190.5 L 330.5 190 L 329 190.5 L 329 189 Q 332.7 190.5 332 187.5 L 328.5 188 Q 325.2 186.9 326 189.5 L 326.5 191 Q 323.1 191.9 325 186.5 L 327 183.5 L 323.5 182 L 323.5 183 L 325 183.5 L 323.5 184 L 319.5 178 L 317.5 181 L 314 174.5 Q 316.3 173.3 313.5 172 L 311 173.5 Q 313.3 172.3 310.5 171 L 309 173.5 L 311.5 177 Q 310 173.5 308.5 176 Q 305.9 176.8 307 173.5 L 308 171.5 L 308 169.5 L 307.5 168 L 303.5 169 L 303.5 168 Q 307.7 169.3 306 164.5 L 304 165.5 L 303.5 167 L 301 166.5 L 303 162.5 L 300.5 164 L 298.5 162 L 297 162.5 L 298 164.5 L 297 164.5 L 296 162.5 L 296.5 159 Q 292.1 160.5 293 157.5 L 292.5 156 L 295 155.5 L 292.5 154 L 290 155.5 L 291 152.5 L 289 153.5 Q 290.5 157.9 287.5 157 L 286 156.5 L 285.5 158 L 285 156.5 L 285.5 155 L 283 153.5 L 282 151.5 L 284 147.5 L 283 147.5 Q 283.7 150.1 281 149 L 280.5 147 L 279.5 150 L 277 149.5 L 280 145.5 L 277 144.5 L 276.5 142 L 276 144 L 274 144.5 L 276.5 148 L 273.5 145 L 270 145.5 Q 269.3 143.3 271.5 144 L 269.5 141 L 268.5 143 L 268 141.5 L 269 139.5 L 265 141.5 L 267 136.5 L 265 136 L 264.5 138 L 262.5 134 L 262 136 L 258.5 134 L 256 135.5 L 258 136.5 L 255.5 140 L 255.5 138 L 254 137.5 L 254.5 136 Q 251.2 137.1 252 134.5 L 249 130 L 246.5 129 L 245 129.5 Q 245.8 126.9 242.5 128 Q 241.8 125.3 237.5 126 L 235.5 127 Q 234 123.5 232.5 126 L 221.5 124 L 220.5 125 L 209.5 126 Q 198.6 129.6 192.5 138 L 193 136.5 Q 193.8 134.3 191.5 135 L 187.5 141 L 185.5 140 L 183 141.5 L 182.5 140 L 180.5 141 L 178.5 140 L 179 141.5 L 177 144.5 L 175 144.5 L 174.5 146 L 174 144.5 L 174.5 143 Q 172.3 142.3 173 144.5 L 172.5 147 L 167 146.5 Q 166.3 148.8 168.5 148 L 166.5 151 L 165.5 148 L 164 151 L 160 151 Q 161 154 158 153 L 158 155.5 L 157 155.5 L 156.5 154 L 156 156 L 153.5 155 L 152.5 157 L 149 156 L 150 159.5 L 149.5 162 L 148.5 159 Q 146.3 159.8 147 157.5 L 146 157.5 Q 146.8 159.8 144.5 159 L 144.5 160 L 147 160.5 L 144 161.5 L 145 164.5 L 142 164.5 Q 144.3 163.3 141.5 162 Q 138.5 161.1 140 165.5 L 139 166.5 L 140.5 169 Q 138.3 169.8 139 167.5 L 138.5 165 L 133.5 169 L 133.5 167 L 129 168.5 L 131 169 L 130 171.5 L 132 172.5 L 129.5 174 L 129.5 172 L 128 171.5 L 130 170.5 L 127.5 169 L 126 171.5 L 127.5 174 Q 125.3 174.8 126 172.5 Q 124.8 170 121 171 L 121 173.5 L 117.5 179 L 116 175.5 L 116.5 174 Q 113.9 173.2 115 176.5 L 113.5 176 Q 111.3 175.3 112 177.5 L 112 179.5 L 109.5 183 Q 105.8 184 107 181 Q 110 182 109 179 Q 105.3 177.5 106 180.5 L 105 183.5 L 103.5 186 L 100.5 184 L 100.5 186 Q 98.3 185.3 99 187.5 L 96 188.5 Q 97.1 191.8 94.5 191 L 94.5 193 L 91 190.5 L 92.5 191 L 94 190.5 L 93.5 188 L 88 190.5 L 89 193.5 L 88 193.5 L 87.5 192 L 81.5 194 L 79.5 193 L 79 194.5 L 81.5 196 L 83 195.5 Q 80.8 196.8 83.5 198 L 85 197.5 L 82 198.5 L 81.5 200 L 81 198.5 L 81.5 197 L 79 197.5 L 79.5 199 L 76.5 195 L 76 196.5 Q 78.3 197.8 75.5 199 Q 72.2 200.1 73 197.5 L 72 197.5 L 72 200 Q 69.3 198.9 70 201.5 L 72 201.5 Q 72.8 203.8 70.5 203 L 68.5 200 L 68 204 L 70 204.5 L 68.5 205 L 66.5 205 L 65 204.5 L 65.5 203 L 62 204 L 61.5 206 L 60 205.5 L 61 207.5 L 59 207.5 L 56.5 211 L 56.5 209 Q 54.3 209.8 55 207.5 L 54 207.5 L 53 210.5 L 55 210.5 Q 53.7 213.3 52.5 211 L 51 211.5 L 51.5 213 L 49 212 Q 50.3 215 46.5 214 L 44.5 214 L 43 214.5 L 47 215.5 L 45 216 L 42.5 220 L 38.5 220 L 37 220.5 L 38 222.5 L 37 222.5 L 35 219.5 L 34 219.5 L 34.5 223 L 36 222.5 L 34 225.5 Q 36.3 226.8 33.5 228 L 33.5 226 Q 30.2 227.1 31 224.5 L 30.5 223 L 32.5 224 L 33 221.5 L 31.5 222 Q 28.2 220.9 29 223.5 L 24.5 229 L 22 230.5 L 21.5 232 L 21 229.5 L 21.5 228 L 16 230 L 17 232.5 L 14.5 236 L 14 234 L 10.5 235 Q 9.3 232.8 8 235.5 L 7.5 239 L 6.5 237 L 6 239 L 2 240.5 L 2.5 244 L 0 243.5 L 0 232.5 L 1.5 231 L 59.5 197 L 158.5 145 L 195.5 123 L 204.5 119 Q 216.6 120.6 223.5 117 Z M 186 136 L 186 138 L 184 138 L 185 140 L 187 139 L 188 137 L 186 136 Z M 273 140 L 273 142 L 275 141 L 273 140 Z M 171 143 L 170 146 L 171 146 L 171 143 Z M 286 149 Q 283 150 285 152 L 284 154 L 289 152 L 286 149 Z M 299 159 L 297 161 L 299 161 L 299 159 Z M 142 160 L 142 162 L 144 161 L 142 160 Z M 310 169 L 308 171 L 310 171 L 310 169 Z M 312 169 L 312 170 L 314 170 L 312 169 Z M 120 172 L 118 175 L 120 174 L 120 172 Z M 316 174 Q 316 178 318 175 L 316 174 Z M 318 176 Q 315 178 318 179 Q 321 178 318 176 Z M 320 176 L 321 178 Q 322 175 320 176 Z M 344 202 L 345 204 Q 346 201 344 202 Z M 346 204 L 348 207 Q 349 203 346 204 Z M 43 215 L 42 217 L 40 216 L 39 218 L 39 219 L 41 218 L 43 219 L 43 218 Q 45 216 43 215 Z M 23 225 L 20 227 L 25 228 L 25 226 L 23 225 Z M 368 228 L 366 230 L 367 231 L 370 229 L 368 228 Z M 374 229 L 372 232 L 374 231 L 374 229 Z M 14 232 L 14 234 L 16 233 L 14 232 Z M 380 237 L 380 240 Q 383 239 380 237 Z M 383 239 L 381 242 L 383 241 L 383 239 Z M 391 248 L 391 250 Q 390 253 393 252 L 392 250 Q 393 247 391 248 Z M 388 249 Q 386 252 389 251 L 388 249 Z "></path><path fill="rgb(0,255,153)" stroke="rgb(0,255,153)" stroke-width="1" opacity="0.996078431372549" d="M 261.5 137 L 262.5 139 L 261.5 137 Z "></path><path fill="rgb(0,255,153)" stroke="rgb(0,255,153)" stroke-width="1" opacity="0.996078431372549" d="M 262.5 140 L 264 140.5 L 262 141.5 L 262.5 143 Q 259.5 141.5 262.5 140 Z "></path><path fill="rgb(0,255,153)" stroke="rgb(0,255,153)" stroke-width="1" opacity="0.996078431372549" d="M 266.5 143 L 269 144.5 L 265.5 145 L 266.5 143 Z "></path><path fill="rgb(0,255,153)" stroke="rgb(0,255,153)" stroke-width="1" opacity="0.996078431372549" d="M 184 144 L 187 145.5 L 184 145.5 L 184 144 Z "></path><path fill="rgb(0,255,153)" stroke="rgb(0,255,153)" stroke-width="1" opacity="0.996078431372549" d="M 180.5 145 L 181.5 147 L 180.5 145 Z "></path><path fill="rgb(0,255,153)" stroke="rgb(0,255,153)" stroke-width="1" opacity="0.996078431372549" d="M 170.5 150 L 172 150.5 L 168.5 153 L 170.5 150 Z "></path><path fill="rgb(0,255,153)" stroke="rgb(0,255,153)" stroke-width="1" opacity="0.996078431372549" d="M 277.5 151 L 278.5 153 L 276 152.5 L 277.5 151 Z "></path><path fill="rgb(0,255,153)" stroke="rgb(0,255,153)" stroke-width="1" opacity="0.996078431372549" d="M 271.5 152 L 270.5 154 L 271.5 152 Z "></path><path fill="rgb(0,255,153)" stroke="rgb(0,255,153)" stroke-width="1" opacity="0.996078431372549" d="M 167.5 154 L 168 155.5 L 166 156.5 L 167.5 154 Z "></path><path fill="rgb(0,255,153)" stroke="rgb(0,255,153)" stroke-width="1" opacity="0.996078431372549" d="M 279.5 156 L 280.5 158 Q 277.7 158.7 279.5 156 Z "></path><path fill="rgb(0,255,153)" stroke="rgb(0,255,153)" stroke-width="1" opacity="0.996078431372549" d="M 290.5 157 L 290.5 160 Q 287.5 158.5 290.5 157 Z "></path><path fill="rgb(0,255,153)" stroke="rgb(0,255,153)" stroke-width="1" opacity="0.996078431372549" d="M 152.5 159 L 153.5 161 L 154.5 159 L 155 160.5 Q 153.5 163.5 152 160.5 L 152.5 159 Z "></path><path fill="rgb(0,255,153)" stroke="rgb(0,255,153)" stroke-width="1" opacity="0.996078431372549" d="M 297.5 166 L 296.5 168 L 297.5 166 Z "></path><path fill="rgb(0,255,153)" stroke="rgb(0,255,153)" stroke-width="1" opacity="0.996078431372549" d="M 122.5 173 Q 125.8 171.9 125 174.5 L 125.5 176 L 122.5 173 Z "></path><path fill="rgb(0,255,153)" stroke="rgb(0,255,153)" stroke-width="1" opacity="0.996078431372549" d="M 120.5 177 L 121.5 179 Q 118.7 179.7 120.5 177 Z "></path><path fill="rgb(0,255,153)" stroke="rgb(0,255,153)" stroke-width="1" opacity="0.996078431372549" d="M 306.5 179 L 305.5 181 L 306.5 179 Z "></path><path fill="rgb(0,255,153)" stroke="rgb(0,255,153)" stroke-width="1" opacity="0.996078431372549" d="M 308.5 180 L 311 181.5 L 309.5 181 L 308.5 180 Z "></path><path fill="rgb(0,255,153)" stroke="rgb(0,255,153)" stroke-width="1" opacity="0.996078431372549" d="M 121.5 183 L 122.5 185 L 121.5 183 Z "></path><path fill="rgb(0,255,153)" stroke="rgb(0,255,153)" stroke-width="1" opacity="0.996078431372549" d="M 107.5 184 L 108.5 186 L 107.5 184 Z "></path><path fill="rgb(0,255,153)" stroke="rgb(0,255,153)" stroke-width="1" opacity="0.996078431372549" d="M 115.5 184 L 114.5 186 L 115.5 184 Z "></path><path fill="rgb(0,255,153)" stroke="rgb(0,255,153)" stroke-width="1" opacity="0.996078431372549" d="M 102.5 187 L 105 188.5 L 102 189.5 L 101.5 191 L 101 188.5 L 102.5 187 Z "></path><path fill="rgb(0,255,153)" stroke="rgb(0,255,153)" stroke-width="1" opacity="0.996078431372549" d="M 127.5 188 L 126.5 190 L 127.5 188 Z "></path><path fill="rgb(0,255,153)" stroke="rgb(0,255,153)" stroke-width="1" opacity="0.996078431372549" d="M 96.5 193 L 95.5 195 L 96.5 193 Z "></path><path fill="rgb(0,255,153)" stroke="rgb(0,255,153)" stroke-width="1" opacity="0.996078431372549" d="M 110.5 196 L 109.5 198 L 110.5 196 Z "></path><path fill="rgb(0,255,153)" stroke="rgb(0,255,153)" stroke-width="1" opacity="0.996078431372549" d="M 92.5 197 L 94.5 200 L 92 199.5 L 92.5 197 Z "></path><path fill="rgb(0,255,153)" stroke="rgb(0,255,153)" stroke-width="1" opacity="0.996078431372549" d="M 94.5 201 L 95 203.5 L 94 203.5 L 94.5 201 Z "></path><path fill="rgb(0,255,153)" stroke="rgb(0,255,153)" stroke-width="1" opacity="0.996078431372549" d="M 110.5 202 L 111.5 204 L 110.5 202 Z "></path><path fill="rgb(0,255,153)" stroke="rgb(0,255,153)" stroke-width="1" opacity="0.996078431372549" d="M 334.5 202 L 333.5 204 L 334.5 202 Z "></path><path fill="rgb(0,255,153)" stroke="rgb(0,255,153)" stroke-width="1" opacity="0.996078431372549" d="M 338 203 L 340 203.5 L 338 204.5 L 338 203 Z "></path><path fill="rgb(0,255,153)" stroke="rgb(0,255,153)" stroke-width="1" opacity="0.996078431372549" d="M 338.5 206 L 337.5 208 L 338.5 206 Z "></path><path fill="rgb(0,255,153)" stroke="rgb(0,255,153)" stroke-width="1" opacity="0.996078431372549" d="M 91.5 207 L 90.5 209 L 91.5 207 Z "></path><path fill="rgb(0,255,153)" stroke="rgb(0,255,153)" stroke-width="1" opacity="0.996078431372549" d="M 70.5 208 L 69.5 210 L 70.5 208 Z "></path><path fill="rgb(0,255,153)" stroke="rgb(0,255,153)" stroke-width="1" opacity="0.996078431372549" d="M 343.5 208 L 344 209.5 L 342 210.5 L 343.5 208 Z "></path><path fill="rgb(0,255,153)" stroke="rgb(0,255,153)" stroke-width="1" opacity="0.996078431372549" d="M 60.5 209 L 62 209.5 L 60 210 Q 61.1 212.7 58.5 212 L 60.5 209 Z "></path><path fill="rgb(0,255,153)" stroke="rgb(0,255,153)" stroke-width="1" opacity="0.996078431372549" d="M 82.5 212 L 85 213.5 L 83.5 213 L 82.5 212 Z "></path><path fill="rgb(0,255,153)" stroke="rgb(0,255,153)" stroke-width="1" opacity="0.996078431372549" d="M 346.5 213 L 345.5 215 L 346.5 213 Z "></path><path fill="rgb(0,255,153)" stroke="rgb(0,255,153)" stroke-width="1" opacity="0.996078431372549" d="M 348.5 215 L 350.5 218 L 348.5 215 Z "></path><path fill="rgb(0,255,153)" stroke="rgb(0,255,153)" stroke-width="1" opacity="0.996078431372549" d="M 44.5 220 L 46 222.5 L 45 222.5 L 44.5 220 Z "></path><path fill="rgb(0,255,153)" stroke="rgb(0,255,153)" stroke-width="1" opacity="0.996078431372549" d="M 51.5 221 L 53.5 224 L 51.5 221 Z "></path><path fill="rgb(0,255,153)" stroke="rgb(0,255,153)" stroke-width="1" opacity="0.996078431372549" d="M 358.5 222 Q 360.8 221.3 360 223.5 L 359.5 226 L 358 224.5 L 358.5 222 Z "></path><path fill="rgb(0,255,153)" stroke="rgb(0,255,153)" stroke-width="1" opacity="0.996078431372549" d="M 30.5 227 L 29.5 229 L 30.5 227 Z "></path><path fill="rgb(0,255,153)" stroke="rgb(0,255,153)" stroke-width="1" opacity="0.996078431372549" d="M 43.5 227 L 44.5 229 L 43.5 227 Z "></path><path fill="rgb(0,255,153)" stroke="rgb(0,255,153)" stroke-width="1" opacity="0.996078431372549" d="M 239.5 227 L 241 227.5 L 238.5 229 L 239.5 227 Z "></path><path fill="rgb(0,255,153)" stroke="rgb(0,255,153)" stroke-width="1" opacity="0.996078431372549" d="M 240.5 229 L 239.5 231 L 240.5 229 Z "></path><path fill="rgb(0,255,153)" stroke="rgb(0,255,153)" stroke-width="1" opacity="0.996078431372549" d="M 252.5 231 L 253.5 233 L 252.5 231 Z "></path><path fill="rgb(0,255,153)" stroke="rgb(0,255,153)" stroke-width="1" opacity="0.996078431372549" d="M 373.5 234 L 375 236.5 L 375 238.5 L 374.5 240 L 372 238.5 L 373.5 236 L 372 235.5 L 373.5 234 Z "></path><path fill="rgb(0,255,153)" stroke="rgb(0,255,153)" stroke-width="1" opacity="0.996078431372549" d="M 10.5 236 L 11.5 238 L 13 237.5 L 12 239.5 L 12.5 241 L 10.5 240 L 10.5 242 L 9 240.5 L 10.5 238 L 9 237.5 L 10.5 236 Z "></path><path fill="rgb(0,255,153)" stroke="rgb(0,255,153)" stroke-width="1" opacity="0.996078431372549" d="M 6.5 240 L 7.5 242 L 5.5 243 L 6 241.5 L 6.5 240 Z "></path><path fill="rgb(0,255,153)" stroke="rgb(0,255,153)" stroke-width="1" opacity="0.996078431372549" d="M 16.5 240 L 17.5 242 L 14 241.5 L 16.5 240 Z "></path><path fill="rgb(0,255,153)" stroke="rgb(0,255,153)" stroke-width="1" opacity="0.996078431372549" d="M 375.5 241 L 376 243.5 L 375 243.5 L 375.5 241 Z "></path><path fill="rgb(0,255,153)" stroke="rgb(0,255,153)" stroke-width="1" opacity="0.996078431372549" d="M 396.5 264 L 397.5 266 Q 394.7 266.7 396.5 264 Z "></path><path fill="rgb(0,255,153)" stroke="rgb(0,255,153)" stroke-width="1" opacity="0.996078431372549" d="M 397.5 343 L 400 347.5 L 399 347.5 L 397.5 345 L 396 344.5 L 397.5 343 Z "></path><path fill="rgb(0,255,153)" stroke="rgb(0,255,153)" stroke-width="1" opacity="0.996078431372549" d="M 382 344 Q 385 343 384 346 Q 381 347 382 344 Z "></path><path fill="rgb(0,255,153)" stroke="rgb(0,255,153)" stroke-width="1" opacity="0.996078431372549" d="M 398 353 Q 401.3 351.7 400 356.5 L 399 356.5 L 398 353 Z "></path><path fill="rgb(0,255,153)" stroke="rgb(0,255,153)" stroke-width="1" opacity="0.996078431372549" d="M 395.5 390 L 396.5 392 L 395.5 390 Z "></path><path fill="rgb(0,255,153)" stroke="rgb(0,255,153)" stroke-width="1" opacity="0.996078431372549" d="M 396.5 394 L 397.5 396 L 396.5 394 Z "></path><path fill="rgb(0,255,153)" stroke="rgb(0,255,153)" stroke-width="1" opacity="1" d="M 221.5 124 L 232.5 126 Q 234 123.5 235.5 127 L 240.5 126 Q 241.6 128.8 245 128 L 245.5 130 L 247.5 130 Q 249.8 129.3 249 131.5 L 252 136 L 255 136.5 L 254.5 138 L 256.5 139 L 258 136.5 L 252 132.5 L 254.5 134 L 257.5 135 Q 259 132.5 260.5 136 Q 262.8 136.8 262 134.5 L 261.5 133 L 264.5 138 L 265 136 L 268 137.5 L 270.5 142 L 271 140.5 L 270 138.5 L 271 138.5 L 272 141.5 L 271.5 144 Q 269.3 143.3 270 145.5 L 272.5 146 L 274.5 144 Q 276.8 144.8 276 142.5 L 273 141.5 Q 272.3 139.3 274.5 140 L 277.5 145 Q 278.8 142.8 280 145.5 L 280.5 147 L 283.5 145 L 283.5 146 L 281 147.5 Q 280.3 150.1 283 149 L 283.5 147 L 284.5 150 Q 286 147.5 287.5 151 L 289 151.5 L 284 154.5 L 286.5 156 L 288 155.5 L 287.5 157 Q 290.5 157.9 289 153.5 L 291 152.5 L 291.5 155 L 293.5 154 L 295.5 157 L 292.5 156 L 293 157.5 Q 292.1 160.5 296.5 159 L 299 159.5 L 300 161.5 Q 297.8 162.8 300.5 164 L 303 162.5 L 303.5 164 Q 304.8 161.8 306 164.5 Q 307.7 169.3 303.5 168 L 303.5 169 L 307.5 168 L 308.5 170 L 310 169.5 L 312.5 173 Q 314 170.5 315.5 174 L 321 176 L 321.5 178 L 323 177.5 Q 319.5 179 322 180.5 L 322.5 183 L 325.5 182 Q 328.3 183.3 326 184.5 L 325 191 L 327 190.5 L 326 188 L 329.5 187 L 332 187.5 Q 331.3 189.8 333.5 189 L 333.5 190 L 332 190.5 L 336 192.5 L 336.5 196 Q 337.8 193.8 339 196.5 L 338 198.5 L 340 199.5 L 340.5 198 L 341.5 201 L 343 200.5 L 341 204.5 L 342 204.5 L 343.5 202 Q 346.1 201.3 345 204 L 348 204 L 348 206.5 L 350 206.5 Q 346.5 208 349 209.5 L 349.5 211 L 350.5 208 L 351 211.5 L 350 214 L 352.5 213 L 353.5 216 Q 356.3 214.7 354 213.5 L 353 211.5 L 355 210.5 Q 352.8 211.7 355.5 213 L 358 214.5 L 356.5 217 L 355 217.5 L 358 218.5 L 357 221 L 360 220.5 L 359.5 219 L 363 220.5 L 362.5 222 L 365 222.5 L 362 223.5 L 366 224.5 L 366 226.5 Q 366.8 228.8 364.5 228 L 365 229.5 L 365.5 231 L 367.5 228 L 370 228.5 L 368 229.5 L 370.5 230 L 374 229.5 L 372 232.5 L 375 233 L 378.5 240 L 379.5 237 Q 383 239 378.5 241 L 377 241.5 L 379 242 L 380 244.5 L 378 245.5 L 380.5 246 Q 385 244 381.5 242 L 380 242.5 L 382.5 239 L 383 240.5 Q 380.8 241.8 383.5 243 L 386.5 244 L 388 243.5 L 381 247.5 L 383.5 249 L 386 248 L 387.5 254 L 389 251.5 L 387 251 L 387.5 249 L 390 253 Q 392.7 251.9 392 254.5 L 393 254.5 L 393 252 Q 390 253.3 391 249.5 L 390.5 248 Q 392.8 247.3 392 249.5 L 395 254.5 L 394 256.5 L 396.5 255 L 398 256.5 L 396 256.5 Q 394.9 259.8 397.5 259 L 397.5 260 L 396 260.5 L 398.5 261 L 400 260.5 L 399 262.5 L 400 266.5 L 400 268.5 L 400 345.5 L 399 347.5 L 400 350.5 L 399.5 353 Q 397.3 352.3 398 354.5 L 400 357.5 L 400 389.5 L 400 391.5 L 399 396.5 L 400 399.5 L 397.5 400 L 377.5 400 L 376.5 399 L 375.5 400 L 0 400 L 0 244.5 L 3 241.5 L 2.5 240 L 6 239 L 5.5 237 Q 4.3 239.3 3 236.5 L 5.5 236 L 7 237.5 L 7.5 239 Q 7.3 234.8 10 233.5 L 9.5 232 L 10.5 233 L 13 231.5 L 10.5 235 L 14 234 L 16 230 L 18.5 230 L 19.5 228 L 18 227.5 L 24.5 225 L 25.5 228 L 29 222 L 32.5 221 L 33 223.5 L 31.5 223 L 30 223.5 L 31 226 L 35 224.5 L 34 219.5 L 36.5 216 L 39 217.5 L 40.5 214 L 41 215.5 L 40.5 217 Q 42.8 217.8 42 215.5 L 45.5 213 L 49 214 Q 47.9 211.3 50.5 212 L 53 211 L 54.5 207 L 55 209 L 57 208.5 L 56.5 207 L 59 208.5 L 60.5 205 L 62 205.5 Q 61.3 203.3 63.5 204 L 65.5 203 L 65.5 205 L 68 203.5 Q 67.3 199.8 69.5 199 L 72 200 L 72.5 197 L 73 199 L 77 197.5 L 76 195.5 L 78 196.5 L 78.5 198 L 82 196.5 L 79 194.5 L 79.5 193 L 81.5 194 L 85.5 192 L 88 192.5 L 88.5 194 L 89 191.5 L 88.5 190 L 93.5 188 L 94.5 191 Q 97.1 191.8 96 188.5 L 99 187.5 Q 99.8 185.3 97.5 186 L 97.5 185 L 100.5 186 L 99.5 183 L 101.5 184 L 104 182.5 L 102 186 L 105 184.5 L 106 182.5 L 104.5 180 L 106 180.5 Q 105.2 177.9 108.5 179 L 112 177.5 Q 111.3 175.3 113.5 176 L 115 176.5 Q 113.9 173.2 116.5 174 L 117 176.5 L 117.5 179 L 119 175.5 L 118 173.5 L 120 172.5 L 120.5 174 L 121 171 L 125.5 170 L 127 170.5 L 127.5 169 L 130.5 171 L 131 169 L 129 168.5 L 134 167 L 134.5 165 L 135.5 167 L 136.5 164 L 139.5 166 L 140 162 L 142 162 Q 140.9 159.3 143.5 160 L 146 159 L 146.5 157 L 147 159 Q 150.3 160.1 149 156 L 151.5 156 L 153 156.5 L 154.5 154 L 154.5 156 Q 156.8 156.8 156 154.5 L 157 154.5 L 157.5 156 L 158 153.5 L 155 152.5 Q 156.8 149.3 158.5 153 Q 161.1 153.7 160 151 L 164 151 L 164 149.5 L 164.5 147 Q 166.8 152.2 169 148.5 L 167 148 L 167.5 146 Q 168.8 148.3 170 145.5 L 170.5 143 L 171.5 146 L 173 143 L 176.5 145 L 177 143.5 Q 174.3 141.7 178.5 140 L 180 139.5 L 179.5 138 L 180.5 141 L 182.5 140 L 183.5 142 Q 186.3 140.8 184 139.5 Q 183.3 137.3 185.5 138 L 185.5 136 L 188 136.5 L 187 138.5 L 189 139.5 L 191.5 135 L 193 134.5 L 192 132.5 L 193 132.5 Q 192.3 134.8 194.5 134 L 194.5 132 Q 197 136.5 199.5 131 L 209.5 126 L 220.5 125 L 221.5 124 Z M 193 135 L 193 137 L 195 136 L 193 135 Z M 267 137 L 265 142 L 268 140 L 267 137 Z M 179 141 L 177 143 L 179 143 L 179 141 Z M 267 143 L 266 145 L 269 145 L 267 143 Z M 184 144 L 184 146 L 186 145 L 184 144 Z M 280 147 L 278 149 L 280 150 L 280 147 Z M 284 150 L 282 152 L 284 154 L 284 153 Q 286 151 284 150 Z M 280 156 Q 278 159 281 158 L 280 156 Z M 145 160 L 145 161 L 147 161 L 145 160 Z M 145 162 L 143 164 L 145 165 L 145 162 Z M 303 164 L 301 167 L 304 167 L 303 164 Z M 140 167 Q 138 170 141 169 L 140 167 Z M 308 171 L 307 174 Q 306 177 309 176 Q 307 174 310 173 Q 311 170 308 171 Z M 127 172 Q 125 175 128 174 L 127 172 Z M 123 173 L 124 174 L 125 175 Q 126 172 123 173 Z M 316 175 L 316 178 Q 319 177 316 175 Z M 121 177 Q 119 180 122 179 L 121 177 Z M 319 178 L 317 181 L 319 180 L 319 178 Z M 110 179 Q 110 182 107 181 L 107 183 L 111 182 L 110 179 Z M 103 187 L 101 189 L 102 191 L 104 188 L 103 187 Z M 329 189 L 330 191 L 332 190 L 329 189 Z M 332 191 L 332 194 Q 335 193 332 191 Z M 333 194 L 331 196 L 333 196 L 333 194 Z M 338 199 Q 336 202 339 201 L 338 199 Z M 72 201 L 70 203 L 72 203 L 72 201 Z M 95 201 L 94 204 L 95 204 L 95 201 Z M 338 203 L 338 205 L 340 204 L 338 203 Z M 344 203 Q 341 207 346 206 L 344 203 Z M 344 208 L 342 211 L 344 210 L 344 208 Z M 60 210 L 58 212 L 60 212 L 60 210 Z M 44 215 L 43 218 L 44 219 L 45 216 L 47 216 L 44 215 Z M 37 217 L 36 219 L 40 221 L 42 218 L 40 219 L 37 217 Z M 36 219 Q 34 222 37 221 L 36 219 Z M 359 222 L 360 224 Q 361 221 359 222 Z M 23 228 L 21 230 L 22 232 L 22 231 L 25 229 L 23 228 Z M 374 234 L 372 236 L 374 236 L 374 234 Z M 11 236 L 9 238 L 11 238 L 11 236 Z M 374 237 L 372 239 L 374 239 L 375 240 L 374 237 Z M 12 238 L 10 240 L 12 240 L 12 238 Z M 7 240 Q 5 243 8 242 L 7 240 Z M 17 240 L 14 242 L 18 242 L 17 240 Z M 376 241 L 375 244 L 376 244 L 376 241 Z M 397 264 Q 395 267 398 266 L 397 264 Z M 398 343 L 396 345 L 398 345 L 398 343 Z M 382 344 Q 381 347 384 346 Q 385 343 382 344 Z "></path><path fill="rgb(0,255,153)" stroke="rgb(0,255,153)" stroke-width="1" opacity="1" d="M 131.5 165 L 130.5 167 L 131.5 165 Z "></path><path fill="rgb(0,255,153)" stroke="rgb(0,255,153)" stroke-width="1" opacity="1" d="M 311.5 169 L 314 169.5 L 311.5 170 L 311.5 169 Z "></path></svg>