<svg width="400" height="400" version="1.1" xmlns="http://www.w3.org/2000/svg" desc="Created with imagetracer.js version 1.2.5"><path fill="rgb(0,0,0)" stroke="rgb(0,0,0)" stroke-width="1" opacity="0" d="M 0 0 L 295 0.5 L 292 2 L 292 4 Q 289.3 2.9 290 5.5 L 286 8.5 L 285 12 Q 282.3 10.9 283 13.5 L 281 17 Q 278.3 15.9 279 18.5 L 271 25 L 264.5 35 L 261.5 37 L 257.5 43 Q 255.3 42.3 256 44.5 L 252.5 50 L 245 55.5 Q 245.8 57.8 243.5 57 L 241 58 L 240 62 L 233 65.5 L 230.5 69 Q 228.3 68.3 229 70.5 L 225 73.5 L 224 77 L 209 85.5 Q 211.8 87.3 207.5 89 L 205 90.5 Q 205.8 92.8 203.5 92 L 198 95 L 196.5 98 Q 194.3 97.3 195 99.5 L 188 105.5 L 186.5 108 L 181 111.5 L 181 113.5 L 176.5 119 L 172 122.5 Q 172.8 124.8 170.5 124 Q 172.1 125.8 169 127.5 Q 169.8 129.8 167.5 129 L 161 134.5 Q 161.8 137.1 158.5 136 L 157 140 L 150 144 L 146.5 149 Q 144.3 148.3 145 150.5 L 144 153 L 141 154.5 L 139.5 157 L 133 161 L 131 164.5 L 131.5 166 L 121 172.5 L 119.5 175 L 109.5 183 L 106 184 L 106 186 Q 103.3 184.9 104 187.5 L 94 195.5 L 93.5 197 L 92 196.5 L 90 199.5 L 90.5 201 L 85 203.5 L 86 205.5 L 77 210.5 L 77.5 212 L 73 213 L 73 215.5 L 67.5 221 Q 63.5 220.5 63 223.5 L 61 228 L 57 229 Q 58.1 231.7 55.5 231 L 51 237 L 47 238 Q 48.1 240.7 45.5 240 L 38.5 248 L 37 248 L 37 251 Q 34.3 249.9 35 252.5 L 29.5 259 L 26.5 261 L 20 266.5 L 20 268.5 L 19.5 270 L 18 269.5 L 16.5 272 L 12.5 275 L 11.5 273 L 9.5 277 Q 7.3 276.3 8 278.5 L 6 278.5 L 4.5 281 L 0.5 284 L 0 281.5 L 0 0 Z "></path><path fill="rgb(0,0,0)" stroke="rgb(0,0,0)" stroke-width="1" opacity="0" d="M 399.5 112 L 400 400 L 84 399.5 L 88.5 399 L 96 394 Q 95.9 389.1 99.5 387 L 108 383 L 108 381 L 110 381 Q 108.9 378.3 111.5 379 L 118.5 370 Q 122.5 370.5 123 367.5 L 135.5 351 L 140 347.5 L 149 336.5 L 152 330 L 157 329 L 157.5 327 L 158 328.5 L 157.5 330 Q 161.3 331.3 160 327.5 L 161.5 328 L 164.5 326 L 168 325 L 169.5 322 L 176.5 319 L 176.5 320 Q 173.9 319.3 175 322 Q 179.5 323.8 178 318.5 L 177.5 317 L 179.5 317 Q 181.8 317.8 181 315.5 L 183 315.5 Q 182.5 311.5 185.5 311 Q 188.8 312.1 188 309.5 L 191 308.5 Q 189.9 305.2 192.5 306 L 195 305 L 196.5 301 L 207 295 L 210 289.5 L 209 288.5 L 215 282.5 L 219 276.5 L 219 274 Q 223.1 275.7 222 271.5 L 226.5 265 L 231 263.5 Q 228.2 261.7 232.5 260 L 236 259 Q 234.9 256.3 237.5 257 L 242 253.5 Q 241.3 250.9 244 252 L 244 250 L 246.5 250 L 249.5 246 L 256 244 Q 254.9 241.3 257.5 242 L 260 241 L 261.5 238 L 263.5 238 L 268 233.5 Q 267.3 231.3 269.5 232 L 282 223.5 L 286.5 218 L 295 213.5 L 296 210 L 303.5 205 L 308 204 L 309.5 200 L 312 198.5 Q 311.2 195.9 314.5 197 L 322.5 188 L 330 184 L 330 182 L 332 182 Q 330.9 179.3 333.5 180 Q 337 175 343 174 L 343 171.5 L 347.5 167 L 352 163.5 L 361.5 151 L 368 147.5 Q 368.1 141.1 372.5 139 L 378 134.5 L 380 129 L 386 124.5 L 387.5 122 L 393 119.5 L 392 117.5 L 394 117.5 L 396 113 L 399.5 112 Z "></path><path fill="rgb(0,0,0)" stroke="rgb(0,0,0)" stroke-width="1" opacity="0" d="M 186 307 L 188 307.5 L 186 308.5 L 186 307 Z "></path><path fill="rgb(0,0,0)" stroke="rgb(0,0,0)" stroke-width="1" opacity="0" d="M 65.5 399 L 69 399.5 L 65.5 400 L 65.5 399 Z "></path><path fill="rgb(18,141,239)" stroke="rgb(18,141,239)" stroke-width="1" opacity="0.9882352941176471" d="M 365.5 76 L 377.5 78 L 381.5 77 L 388 78 Q 386.9 80.7 389.5 80 L 391.5 79 L 400 81.5 L 396.5 82 L 390.5 80 L 387.5 81 L 381 80 Q 382.3 77 378.5 78 L 376.5 79 L 375.5 78 L 365.5 78 L 364.5 79 L 353.5 79 L 353.5 78 Q 362.3 79.8 365.5 76 Z "></path><path fill="rgb(18,141,239)" stroke="rgb(18,141,239)" stroke-width="1" opacity="0.9882352941176471" d="M 255.5 78 L 266 78.5 L 255.5 79 L 251.5 81 L 242.5 81 L 241.5 82 L 242.5 80 L 248.5 80 L 255.5 78 Z "></path><path fill="rgb(18,141,239)" stroke="rgb(18,141,239)" stroke-width="1" opacity="0.9882352941176471" d="M 267.5 78 L 277 78.5 L 276 81 L 284.5 80 Q 286.3 82.8 292.5 81 Q 294.3 78.3 300.5 80 L 301.5 81 L 315.5 81 L 316.5 80 L 324.5 80 L 324.5 81 L 300.5 82 Q 299 79.5 293.5 81 L 292.5 82 L 274 82 L 275 79.5 L 267.5 79 L 267.5 78 Z "></path><path fill="rgb(18,141,239)" stroke="rgb(18,141,239)" stroke-width="1" opacity="0.9882352941176471" d="M 341.5 78 L 352 78.5 L 341.5 79 L 337.5 81 L 328.5 81 L 327.5 82 L 328.5 80 L 334.5 80 L 341.5 78 Z "></path><path fill="rgb(18,141,239)" stroke="rgb(18,141,239)" stroke-width="1" opacity="0.9882352941176471" d="M 230.5 80 L 239 80.5 L 220.5 82 L 220.5 81 L 229.5 81 L 230.5 80 Z "></path><path fill="rgb(18,141,239)" stroke="rgb(18,141,239)" stroke-width="1" opacity="0.9882352941176471" d="M 399.5 101 L 400 103.5 L 399 108 L 392 113.5 Q 392.5 117.5 389.5 118 L 382 123.5 Q 382.7 126.1 380 125 Q 378.9 122.3 381.5 123 L 388 114 L 393 110.5 L 396 104 Q 398.7 105.1 398 102.5 L 399.5 101 Z "></path><path fill="rgb(18,141,239)" stroke="rgb(18,141,239)" stroke-width="1" opacity="0.9882352941176471" d="M 379.5 126 L 377.5 129 L 379.5 126 Z "></path><path fill="rgb(18,141,239)" stroke="rgb(18,141,239)" stroke-width="1" opacity="0.9882352941176471" d="M 376.5 130 L 375.5 132 L 376.5 130 Z "></path><path fill="rgb(18,141,239)" stroke="rgb(18,141,239)" stroke-width="1" opacity="0.9882352941176471" d="M 375.5 133 L 376 134.5 L 374 135.5 L 375.5 133 Z "></path><path fill="rgb(18,141,239)" stroke="rgb(18,141,239)" stroke-width="1" opacity="0.9882352941176471" d="M 32.5 275 L 50.5 277 Q 60.5 284 75.5 286 L 76.5 285 L 94.5 285 L 107.5 289 L 135.5 291 L 136.5 292 L 149.5 292 L 169.5 299 L 177.5 300 L 181 302.5 Q 182 307 179.5 308 L 176.5 303 L 144.5 293 L 114.5 292 L 113.5 291 L 105.5 291 L 91.5 287 L 81.5 287 L 80.5 288 L 66.5 288 L 59.5 286 L 48.5 280 L 39.5 278 L 31.5 278 L 24.5 283 L 22.5 283 L 10.5 293 L 0.5 298 L 0 295 L 10.5 290 Q 19.7 280.7 32.5 275 Z "></path><path fill="rgb(96,94,173)" stroke="rgb(96,94,173)" stroke-width="1" opacity="0.8745098039215686" d="M 365.5 78 Q 373.7 76.3 377.5 79 L 381 78 Q 379.6 82 386.5 80 L 389.5 81 L 391.5 81 L 400 82.5 L 395.5 83 L 391.5 82 L 389.5 82 L 378.5 80 L 377.5 81 Q 367.9 79.9 363 82 L 362.5 80 L 355.5 80 L 355.5 79 L 364.5 79 L 365.5 78 Z "></path><path fill="rgb(96,94,173)" stroke="rgb(96,94,173)" stroke-width="1" opacity="0.8745098039215686" d="M 255.5 79 L 267 79.5 L 256.5 80 L 254.5 82 L 243.5 82 L 243.5 81 Q 251.8 82.3 255.5 79 Z "></path><path fill="rgb(96,94,173)" stroke="rgb(96,94,173)" stroke-width="1" opacity="0.8745098039215686" d="M 269.5 79 L 275 79.5 L 274 82 L 299.5 81 L 300.5 82 L 315.5 82 L 316.5 81 L 326.5 81 L 326.5 82 L 298.5 83 L 293.5 82 L 292.5 83 L 271 83 Q 269.9 80.3 272.5 81 L 272.5 80 Q 268.5 80.8 269.5 79 Z "></path><path fill="rgb(96,94,173)" stroke="rgb(96,94,173)" stroke-width="1" opacity="0.8745098039215686" d="M 341.5 79 L 353 79.5 L 342.5 80 L 340.5 82 L 329.5 82 L 329.5 81 Q 337.8 82.3 341.5 79 Z "></path><path fill="rgb(96,94,173)" stroke="rgb(96,94,173)" stroke-width="1" opacity="0.8745098039215686" d="M 217.5 81 L 218.5 82 L 229.5 82 L 230.5 81 L 240.5 81 L 240.5 82 L 217 83 L 217.5 81 Z "></path><path fill="rgb(96,94,173)" stroke="rgb(96,94,173)" stroke-width="1" opacity="0.8745098039215686" d="M 399.5 97 L 400 100.5 L 398 104 Q 395.3 102.9 396 105.5 L 389.5 114 Q 387.3 113.3 388 115.5 L 381.5 123 L 380 122.5 L 383 120.5 L 388.5 113 L 392 110.5 L 396 101 Q 398.7 102.1 398 99.5 L 399.5 97 Z "></path><path fill="rgb(96,94,173)" stroke="rgb(96,94,173)" stroke-width="1" opacity="0.8745098039215686" d="M 376.5 129 L 375 131.5 L 374.5 135 L 374 131.5 L 376.5 129 Z "></path><path fill="rgb(96,94,173)" stroke="rgb(96,94,173)" stroke-width="1" opacity="0.8745098039215686" d="M 372.5 136 L 374 136.5 L 372 137 L 369.5 142 L 369 140.5 L 372.5 136 Z "></path><path fill="rgb(96,94,173)" stroke="rgb(96,94,173)" stroke-width="1" opacity="0.8745098039215686" d="M 91.5 200 L 88 204.5 L 86 207.5 L 77 213.5 L 75.5 216 L 73 217.5 L 71.5 220 L 66 223 L 64.5 226 L 62 227.5 L 61 231 Q 57.2 230.3 56 233.5 Q 56.8 235.8 54.5 235 L 46 242.5 Q 47.1 245.8 44.5 245 L 24.5 267 L 18.5 272 L 18.5 269 L 20 269.5 L 40.5 246 L 43 244.5 L 46.5 240 L 54 234.5 Q 53.3 232.3 55.5 233 L 61 229 L 64 223 Q 69.4 222.4 72 217.5 L 74 213 L 76.5 213 L 86 205.5 L 87.5 202 L 91.5 200 Z "></path><path fill="rgb(96,94,173)" stroke="rgb(96,94,173)" stroke-width="1" opacity="0.8745098039215686" d="M 31.5 273 L 40.5 273 L 41.5 274 L 52.5 275 L 71.5 283 L 93.5 283 L 112.5 288 L 120.5 288 L 129.5 290 L 148.5 290 L 160.5 293 L 169.5 297 L 179.5 298 L 183 300.5 L 186 309.5 L 185 309.5 L 182.5 306 Q 179.5 306.9 181 302.5 L 177.5 300 L 169.5 299 L 149.5 292 L 136.5 292 L 135.5 291 L 107.5 289 L 94.5 285 L 76.5 285 L 73.5 286 Q 60.1 283.4 50.5 277 L 32.5 275 Q 19.7 280.7 10.5 290 L 0 295 Q -1.5 291.3 1.5 292 L 31.5 273 Z "></path><path fill="rgb(254,0,44)" stroke="rgb(254,0,44)" stroke-width="1" opacity="0.596078431372549" d="M 215.5 82 Q 217.8 81.3 217 83.5 L 213.5 88 L 205 92 L 203.5 95 L 200.5 97 L 191 105.5 L 189.5 108 L 182 114.5 L 176.5 122 L 173 124.5 L 174 125.5 L 170 129.5 L 168.5 132 Q 164.5 131.5 164 134.5 L 162.5 137 L 159.5 139 L 158 142 L 154 144.5 L 151.5 148 L 147 150.5 L 145 156 L 142.5 156 L 133 164.5 L 134 165.5 L 130.5 169 L 123 173.5 L 122 177 Q 119 176 120 179 L 117.5 179 L 112 183.5 L 112 185 L 110 185 Q 111.1 187.7 108.5 187 L 105 189 L 103.5 192 L 100 193 L 96.5 198 L 90.5 200 L 92 197.5 L 92.5 196 L 94 196.5 L 95.5 194 L 104 187.5 L 104 186 L 106 186 Q 104.9 183.3 107.5 184 L 121 173.5 L 123.5 170 L 132 165.5 Q 129.5 164 133 162.5 Q 132.3 160.3 134.5 161 L 141 155.5 L 142.5 153 Q 144.8 153.8 144 151.5 L 145 149 L 150 145.5 Q 149.3 143.3 151.5 144 L 157 140 L 158.5 136 Q 161.8 137.1 161 134.5 L 169 129 L 171 125.5 L 170.5 124 Q 172.8 124.8 172 122.5 L 179 116.5 L 183.5 109 L 188 106.5 L 191.5 102 L 195 99.5 Q 194.3 97.3 196.5 98 L 198 95 L 205 92 L 206.5 89 L 210 86.5 L 209.5 85 L 215.5 82 Z "></path><path fill="rgb(254,0,44)" stroke="rgb(254,0,44)" stroke-width="1" opacity="0.596078431372549" d="M 364.5 147 L 368 147.5 L 360 152.5 L 348.5 167 L 343 171.5 Q 344.1 174.8 341.5 174 L 332 180 L 332 182 L 330 182 Q 331.1 184.7 328.5 184 L 318 192.5 L 314.5 197 Q 311.2 195.9 312 198.5 L 308 201.5 Q 309.3 205.3 305.5 204 L 296 210 L 293.5 215 L 286.5 218 L 282 222.5 L 280.5 225 L 268 232 L 263.5 238 L 260 239.5 Q 260.8 241.8 258.5 241 L 256 242 Q 257.3 245 253.5 244 L 248 247.5 L 246.5 250 L 244 250 L 244 252 Q 241.3 250.9 242 253.5 L 236 257 Q 237.1 259.7 234.5 259 L 230 262.5 L 230.5 264 Q 225.8 264.3 224 267.5 L 222 274 Q 217.9 272.3 219 276.5 L 209 288.5 Q 211.5 290 208 291.5 L 207 295 Q 199.5 296.7 195 302.5 Q 196.1 305.8 193.5 305 L 188.5 306 Q 185.5 305.5 186 301.5 L 190.5 298 L 200 296 L 201.5 293 L 203 292.5 L 202.5 291 L 206 289.5 L 219.5 270 L 224 266.5 L 226 263.5 L 225.5 262 L 236 255.5 L 236 254 Q 239.7 255.5 239 252.5 L 242 251 Q 240.9 248.3 243.5 249 L 248 247 L 249.5 244 L 252.5 242 L 260 237.5 L 261.5 235 L 265 233.5 Q 264.3 231.3 266.5 232 Q 267.8 228.2 272 229 L 273.5 226 L 277 223.5 L 278.5 221 L 284 219 Q 282.9 216.3 285.5 217 L 291 213.5 L 291 212 L 293 212 Q 291.9 209.3 294.5 210 L 303 204 L 304.5 201 L 308 199.5 L 310.5 196 L 315 194 Q 313.9 191.3 316.5 192 L 320 187 L 324 186 L 324 184 Q 326.7 185.1 326 182.5 L 339 174 L 339 172.5 L 347.5 164 Q 349.8 164.8 349 162.5 L 357 152 L 364.5 147 Z "></path><path fill="rgb(254,0,44)" stroke="rgb(254,0,44)" stroke-width="1" opacity="0.596078431372549" d="M 45.5 240 L 44.5 242 L 45.5 240 Z "></path><path fill="rgb(254,0,44)" stroke="rgb(254,0,44)" stroke-width="1" opacity="0.596078431372549" d="M 2.5 282 L 0.5 285 L 2.5 282 Z "></path><path fill="rgb(254,0,44)" stroke="rgb(254,0,44)" stroke-width="1" opacity="0.596078431372549" d="M 188 307 L 191 307.5 L 188.5 309 L 188 307 Z "></path><path fill="rgb(254,0,42)" stroke="rgb(254,0,42)" stroke-width="1" opacity="0.996078431372549" d="M 267.5 83 Q 269.8 82.3 269 84.5 L 268 86.5 L 269.5 89 L 276.5 85 L 279.5 89 Q 281.9 85.2 288 86 L 288.5 88 L 293 87 Q 292 84 295 85 L 296.5 88 L 298.5 87 L 297.5 89 L 293.5 90 L 294.5 87 L 291.5 89 L 289.5 89 L 284.5 91 L 285 89.5 L 286 87.5 L 284.5 87 L 277.5 92 L 275 91.5 L 277 87 Q 270.1 86.8 267.5 92 L 265 91.5 L 268 87.5 Q 265.4 84.1 258.5 85 L 256.5 85 L 251.5 87 L 246.5 86 L 241.5 87 L 233 86.5 L 236.5 85 L 241.5 86 L 242.5 85 L 254.5 85 L 255.5 84 L 266.5 84 L 267.5 83 Z "></path><path fill="rgb(254,0,42)" stroke="rgb(254,0,42)" stroke-width="1" opacity="0.996078431372549" d="M 353.5 83 Q 358.9 81.1 358 84.5 L 356.5 84 L 353 84 Q 354.3 87 350.5 86 Q 349.2 83.8 344.5 85 L 342.5 85 L 337.5 87 L 332.5 86 L 327.5 87 L 319 86.5 L 322.5 85 L 327.5 86 L 328.5 85 L 340.5 85 L 341.5 84 L 352.5 84 L 353.5 83 Z "></path><path fill="rgb(254,0,42)" stroke="rgb(254,0,42)" stroke-width="1" opacity="0.996078431372549" d="M 366.5 83 L 374 84.5 L 371.5 86 L 366.5 84 L 366 86 L 359 84.5 L 366.5 83 Z "></path><path fill="rgb(254,0,42)" stroke="rgb(254,0,42)" stroke-width="1" opacity="0.996078431372549" d="M 378.5 84 L 390.5 86 L 392.5 85 L 394 88.5 L 391 90 L 389 93.5 L 393 95 Q 394.1 97.7 391.5 97 L 389 98 L 390 95.5 Q 388.8 93 385 94 L 385 92 L 388 92 Q 387 89 390 90 L 390 87 Q 387.9 85.4 382.5 86 L 380.5 86 L 378.5 85 L 375.5 86 L 375.5 85 L 378.5 84 Z "></path><path fill="rgb(254,0,42)" stroke="rgb(254,0,42)" stroke-width="1" opacity="0.996078431372549" d="M 221.5 86 Q 225.9 84.5 225 87.5 L 226.5 87 L 232 86 Q 233.1 88.7 230.5 88 L 221.5 91 L 222 89.5 L 223 87.5 L 221.5 87 L 214.5 92 Q 213 89.5 211.5 93 Q 207.8 92.3 207 94.5 L 208 96.5 L 204 98.5 L 205 100.5 L 200.5 103 L 198.5 102 L 198 104.5 L 197.5 106 L 196.5 104 L 195 106.5 L 195.5 108 Q 192.9 107.3 194 110 L 192 110 L 192 112.5 L 189 113.5 L 190 115.5 L 189 115.5 L 188.5 114 L 185.5 118 Q 182.9 117.3 184 120 L 182 120 L 182 124 L 179.5 124 L 180 125.5 L 179.5 127 L 178 126.5 L 178 128 L 174 128 L 174 131.5 L 172.5 131 L 170 132.5 Q 171.7 137.3 167.5 136 L 166.5 139 Q 163.9 138.3 165 141 L 162.5 141 L 162.5 143 Q 157.7 141.7 159 145 L 161 145.5 L 156 148 L 155.5 150 Q 154.3 147.7 153 150.5 L 155 151.5 L 151.5 153 L 150 152.5 Q 151.3 156.3 147.5 155 L 147.5 156 L 149 156.5 L 141 161.5 Q 141.8 163.8 139.5 163 L 139.5 165 L 138 164.5 L 135.5 168 Q 133.3 167.3 134 169.5 L 131 171 L 129.5 175 L 128.5 173 L 125.5 178 L 121 180.5 L 119 183.5 L 120.5 185 L 124.5 181 L 128.5 180 L 129 182.5 Q 129.8 185.1 126.5 184 L 125 184.5 L 126 182.5 L 124 183.5 Q 124.8 185.8 122.5 185 L 123 186.5 Q 123.8 188.8 121.5 188 L 121.5 189 L 123.5 190 L 127 189 L 127.5 187 L 128 189 L 130 188.5 L 129 186.5 L 131 185.5 L 130 187.5 L 131.5 187 L 135 186 Q 133.7 182.3 139.5 184 L 138.5 186 L 136.5 185 L 135 187.5 Q 137.3 188.8 134.5 190 L 134.5 188 L 132 188.5 L 133 191 Q 129.2 190.3 128 193.5 L 129.5 196 L 131.5 196 L 135 194.5 L 135 192.5 L 135.5 191 L 136 192.5 L 135.5 194 L 138.5 193 L 140 193.5 Q 139.2 190.9 142.5 192 Q 144 194.5 145.5 191 Q 148.8 192.1 148 189.5 Q 144.3 187.8 147.5 186 L 147.5 188 L 150.5 186 L 152.5 185 L 152.5 187 Q 155.1 187.7 154 185 L 158.5 185 L 158.5 184 L 157 183.5 Q 158.3 180.8 159.5 183 Q 162.5 182.3 161 186 L 159 186.5 L 162 187.5 L 158.5 192 L 156.5 189 L 154.5 192 L 153.5 190 L 147 195.5 L 151 196 L 152.5 193 L 156 193.5 L 153 195.5 L 152.5 194 L 151 196.5 L 153 197 L 152 199.5 L 155 201.5 L 153.5 201 L 148.5 204 L 145.5 202 L 145 203.5 L 150 205.5 L 149.5 207 Q 152.8 208.1 152 205.5 L 155 203.5 L 153 206.5 L 154.5 206 L 156.5 205 L 155.5 207 L 153.5 208 Q 152.3 205.8 151 208.5 L 153 209.5 L 151 210 L 150.5 212 L 150 210.5 L 150.5 209 L 148.5 210 L 149 208.5 Q 149.8 205.9 146.5 207 L 144 209.5 L 144 211.5 L 145 213.5 L 140.5 220 L 140 218 L 142 217.5 L 139 216.5 L 141 215.5 L 140.5 214 Q 144.3 215.3 143 211.5 L 144 210.5 L 142.5 208 Q 143.8 210.2 145 207.5 L 143.5 204 Q 139.4 206.7 140 212 Q 136.3 210.5 137 213.5 L 137 215.5 L 138 219.5 L 137 219.5 L 136 215 Q 133.3 213.9 134 216.5 Q 136.3 217.8 133.5 219 Q 132 215.5 130.5 218 Q 126 217 125 219.5 L 129 221.5 L 130 223.5 L 127 223.5 Q 129.3 222.3 126.5 221 L 121.5 226 L 120 225.5 Q 119.2 228.1 122.5 227 L 125 225.5 L 123 228.5 L 121.5 228 L 114.5 230 Q 113.3 227.8 112 230.5 L 112.5 232 L 110 232.5 L 110.5 234 L 108.5 231 L 106.5 234 Q 103.2 232.9 104 235.5 L 101 240.5 L 101.5 242 L 99.5 242 L 97 242.5 L 99.5 245 L 105 244.5 L 104.5 246 L 108 245 L 108.5 243 Q 109.9 245.6 114.5 245 L 117 244 L 117.5 246 L 122 244.5 L 121 242.5 L 122 242.5 L 122.5 244 L 125.5 243 L 128.5 244 L 131.5 243 L 139.5 241 L 141.5 241 L 148.5 239 L 149.5 240 L 154.5 235 L 158.5 235 L 160 234.5 L 159 232.5 L 160.5 233 L 163.5 232 L 165.5 232 L 172.5 228 L 174.5 228 Q 176.5 225.2 181 226 L 181.5 224 L 182.5 226 L 185.5 222 L 195.5 218 Q 198.4 213.4 204.5 212 L 206.5 212 L 208.5 211 L 209.5 213 L 213 211.5 L 211 210.5 L 214 210 L 216.5 206 L 215 208.5 L 216 210.5 L 210 214.5 L 212 215 L 212 217 Q 209.3 215.9 210 218.5 L 210 220.5 L 209.5 223 L 208.5 220 Q 204.3 221.8 207 223.5 Q 207.8 225.8 205.5 225 L 204 226.5 L 205.5 229 L 202.5 227 L 199 229 Q 200 232 197 231 L 198 228.5 L 196.5 228 L 195 229.5 L 196 232.5 L 193.5 235 L 191.5 235 L 190 235.5 L 190.5 237 L 186 240.5 Q 186.8 243.1 183.5 242 L 183.5 244 L 181.5 244 L 180 244.5 L 180.5 246 L 178.5 246 L 176 246.5 L 178 247.5 Q 176 251.2 174 249.5 L 172.5 253 L 170.5 252 L 165 255.5 L 166.5 256 L 171 255 L 170 259 Q 172.7 260.1 172 257.5 L 173 257.5 L 171.5 260 L 170 260.5 L 172 261 L 171.5 267 L 169.5 266 L 166 268.5 L 163.5 263 L 162.5 266 L 161 265.5 L 162 267.5 L 159 266.5 L 158.5 270 L 158 267 Q 155 265.8 156 269.5 L 154 270.5 Q 156.3 269.3 153.5 268 L 151 269.5 L 153 270.5 L 147.5 272 L 146 271.5 L 145.5 273 Q 144 270.5 142.5 274 L 136.5 274 L 136 276 L 133.5 276 L 133.5 277 L 135 277.5 L 133.5 278 L 131 277.5 Q 131.8 274.9 128.5 276 L 128.5 277 Q 130.8 276.3 130 278.5 Q 128.3 276.9 126.5 280 L 123 278.5 L 122.5 277 L 120.5 280 L 117.5 279 L 114 280.5 Q 113.5 283.5 120.5 282 L 121.5 283 L 124 281.5 L 123.5 283 L 131.5 283 L 132.5 282 Q 133.7 284.3 138.5 283 L 140 282.5 L 141.5 285 L 155.5 285 L 156.5 284 L 157.5 287 L 159.5 286 L 162.5 288 L 166.5 287 L 166.5 288 Q 163.9 287.3 165 290 L 169 291.5 L 167.5 292 L 158.5 288 L 146.5 287 L 145.5 286 L 136.5 286 L 129.5 284 L 127.5 284 L 108.5 283 L 102.5 280 L 100.5 281 L 97.5 279 L 88.5 278 L 84.5 278 L 80.5 277 L 78.5 277 Q 71.6 277.9 69 274.5 L 70.5 271 L 74.5 273 L 78.5 273 Q 81.7 270.7 88.5 272 L 92.5 273 L 94.5 272 L 96.5 272 L 100.5 271 L 104.5 272 L 106.5 272 L 111.5 270 L 112 273 L 116 272.5 L 115 270.5 L 116 270.5 Q 115.3 273.1 118 272 L 118.5 270 L 121 270.5 L 120.5 272 Q 124.9 273.5 124 270.5 L 123.5 269 L 129.5 270 L 133.5 269 L 135.5 270 L 139.5 268 L 141.5 269 Q 142.8 266.3 147 266.5 L 144.5 265 L 143 265.5 L 143.5 264 L 141.5 265 L 142.5 263 L 146.5 265 L 147 263 L 145 262.5 L 150.5 262 Q 151.9 257.3 157 258 Q 155.8 255 159.5 256 L 175 247 L 176.5 243 Q 179.5 243.9 178 239.5 L 176.5 240 L 173.5 239 L 172.5 241 L 172 239.5 Q 173.3 236.8 174.5 239 L 176 238.5 L 175.5 237 L 177.5 238 L 178.5 235 L 181 235 Q 179.9 232.3 182.5 233 L 187 229.5 Q 186.3 227.3 182.5 228 L 180.5 231 L 178.5 230 L 173.5 233 L 170.5 233 L 167.5 236 L 166 235.5 L 165.5 237 L 163.5 237 L 159.5 239 L 157.5 238 Q 151.5 244 142.5 247 L 141 246.5 Q 141.9 249.5 137.5 248 L 134.5 249 L 129.5 250 L 127.5 250 L 118.5 252 L 114.5 252 L 103.5 253 L 102.5 254 L 98.5 253 L 96.5 253 L 94.5 254 L 92.5 254 L 87.5 253 Q 86 256.5 84.5 254 L 77.5 255 L 75.5 255 L 66.5 255 L 66 253 Q 68.7 254.1 68 251.5 L 73.5 248 L 75.5 248 L 82.5 246 L 84.5 244 Q 86 246.5 87.5 243 L 90.5 243 L 101 237 L 102.5 234 Q 104.8 234.8 104 232.5 L 107 230.5 L 106.5 229 L 109 227.5 L 120 212 L 122 212 Q 120.9 209.3 123.5 210 L 125 206 L 128 204.5 L 127.5 202 L 127 204 L 116 209 Q 117.3 212 113.5 211 L 111 212 Q 112.1 214.7 109.5 214 L 107 215 Q 108.3 218 104.5 217 L 97.5 223 L 99.5 220 Q 101.8 220.8 101 218.5 L 108 210 Q 110.7 211.1 110 208.5 L 125 194.5 L 124.5 193 L 102 208 L 99.5 212 L 96.5 214 L 88 222.5 L 88 224 L 85 225.5 L 82.5 229 L 80 230.5 Q 80.8 232.8 78.5 232 L 73.5 236 L 72 235.5 L 71.5 237 L 70 236.5 Q 70.8 238.8 68.5 238 L 67.5 241 Q 66.3 238.8 65 241.5 L 65.5 243 L 60 244 L 58.5 247 L 52 250 L 53 252.5 L 49 255.5 Q 51.3 256.8 48.5 258 L 46.5 258 L 44.5 259 L 45 257.5 L 48.5 252 L 50 252.5 L 50 250 Q 52.7 251.1 52 248.5 L 58 243.5 Q 56.9 240.2 59.5 241 L 62 237 L 66.5 234 L 69 234 L 71.5 230 Q 73.8 230.8 73 228.5 L 74 226 L 80 222.5 Q 79.3 220.3 81.5 221 L 84 220 Q 82.9 217.3 85.5 218 L 98 208 L 104.5 200 L 107.5 198 L 110 194 L 112 194 Q 110.9 191.3 113.5 192 Q 116.5 190.5 113.5 189 L 107 193 L 105.5 196 L 97.5 201 L 98 199.5 L 99.5 197 L 106 191.5 Q 105.5 187.5 108.5 187 Q 111.1 187.7 110 185 L 112 185 L 112 183.5 L 117.5 179 L 120 179 L 120 177 Q 122.7 178.1 122 175.5 L 124.5 172 L 126.5 172 L 134 165.5 Q 131.8 164.3 134.5 163 L 142.5 156 L 145 156 L 148.5 149 L 154 145.5 L 156.5 142 Q 158.8 142.8 158 140.5 L 161 139 Q 159.9 136.3 162.5 137 L 166.5 132 L 170 130.5 L 174 125.5 Q 171.2 123.7 175.5 122 L 181 117.5 Q 182.6 110.6 188.5 108 L 191 106.5 L 194.5 102 L 202 97 Q 200.9 94.3 203.5 95 L 205 92 L 216 87 L 216.5 89 L 221.5 86 Z M 151 150 L 152 152 L 153 152 L 151 150 Z M 117 185 Q 115 188 118 187 L 117 185 Z M 113 186 Q 112 189 115 188 Q 116 185 113 186 Z M 155 187 L 155 190 Q 158 189 155 187 Z M 159 187 Q 157 190 160 189 L 159 187 Z M 121 189 L 120 191 L 118 191 L 119 193 L 121 192 L 122 193 L 121 189 Z M 114 193 Q 111 195 114 196 L 117 195 L 118 193 L 116 194 L 114 193 Z M 126 195 L 126 198 L 130 199 L 130 198 Q 129 195 126 195 Z M 110 196 L 111 199 L 111 197 L 113 197 L 110 196 Z M 125 197 L 121 201 L 122 202 Q 123 199 126 200 L 125 197 Z M 143 197 L 143 199 L 145 198 L 143 197 Z M 149 199 Q 147 203 151 202 L 151 200 L 149 199 Z M 146 200 L 146 202 L 148 201 L 146 200 Z M 120 201 Q 118 204 121 203 L 120 201 Z M 136 212 L 133 214 L 136 214 L 136 212 Z M 208 215 Q 207 218 210 217 Q 211 214 208 215 Z M 188 226 L 186 228 L 188 229 L 188 226 Z M 189 227 L 189 229 L 191 228 L 189 227 Z M 70 232 Q 69 235 73 234 Q 74 231 70 232 Z M 96 243 L 95 244 Q 90 243 91 246 L 94 245 L 93 247 L 99 248 L 99 246 L 97 247 L 96 245 L 98 246 L 98 245 L 96 243 Z M 109 245 L 109 246 L 111 246 L 109 245 Z M 124 245 L 122 247 L 124 247 L 124 245 Z M 88 246 Q 88 249 86 248 L 86 249 L 89 248 Q 92 249 91 247 L 90 247 L 88 246 Z M 109 247 L 109 248 L 111 248 L 109 247 Z M 167 258 Q 169 263 165 262 L 167 266 L 168 264 L 169 266 L 171 265 L 169 261 Q 170 257 167 258 Z M 150 264 L 148 265 L 148 266 L 151 265 L 150 264 Z M 120 276 L 119 278 L 122 277 L 120 276 Z M 109 277 Q 106 282 112 280 L 113 278 L 109 279 L 109 277 Z M 125 278 L 125 279 L 127 279 L 125 278 Z M 154 286 L 154 287 L 156 287 L 154 286 Z "></path><path fill="rgb(254,0,42)" stroke="rgb(254,0,42)" stroke-width="1" opacity="0.996078431372549" d="M 300.5 86 L 302.5 89 Q 304.9 85.2 311 86 L 311.5 88 L 318 86 Q 319.1 88.7 316.5 88 L 307.5 91 L 308 89.5 L 309 87.5 L 307.5 87 L 300.5 92 L 298 91.5 L 301 87.5 L 300.5 86 Z "></path><path fill="rgb(254,0,42)" stroke="rgb(254,0,42)" stroke-width="1" opacity="0.996078431372549" d="M 216.5 96 L 217 98 L 215 98.5 L 215.5 100 Q 212 98 216.5 96 Z "></path><path fill="rgb(254,0,42)" stroke="rgb(254,0,42)" stroke-width="1" opacity="0.996078431372549" d="M 260.5 96 L 259.5 98 L 260.5 96 Z "></path><path fill="rgb(254,0,42)" stroke="rgb(254,0,42)" stroke-width="1" opacity="0.996078431372549" d="M 270.5 96 L 269.5 98 L 270.5 96 Z "></path><path fill="rgb(254,0,42)" stroke="rgb(254,0,42)" stroke-width="1" opacity="0.996078431372549" d="M 279.5 96 L 277.5 99 L 279.5 96 Z "></path><path fill="rgb(254,0,42)" stroke="rgb(254,0,42)" stroke-width="1" opacity="0.996078431372549" d="M 293.5 96 L 292.5 98 L 293.5 96 Z "></path><path fill="rgb(254,0,42)" stroke="rgb(254,0,42)" stroke-width="1" opacity="0.996078431372549" d="M 302.5 96 L 303 98 L 301 98.5 L 301.5 100 Q 298 98 302.5 96 Z "></path><path fill="rgb(254,0,42)" stroke="rgb(254,0,42)" stroke-width="1" opacity="0.996078431372549" d="M 341.5 96 L 343 96.5 L 340.5 98 L 341.5 96 Z "></path><path fill="rgb(254,0,42)" stroke="rgb(254,0,42)" stroke-width="1" opacity="0.996078431372549" d="M 392.5 98 L 393 100.5 Q 389.3 103.2 390 109 Q 387.3 107.9 388 110.5 L 379.5 120 L 378 119.5 L 383 115.5 L 389 107.5 L 392.5 98 Z "></path><path fill="rgb(254,0,42)" stroke="rgb(254,0,42)" stroke-width="1" opacity="0.996078431372549" d="M 211 103 Q 214 102 213 105 Q 210 106 211 103 Z "></path><path fill="rgb(254,0,42)" stroke="rgb(254,0,42)" stroke-width="1" opacity="0.996078431372549" d="M 297 103 Q 300 102 299 105 Q 296 106 297 103 Z "></path><path fill="rgb(254,0,42)" stroke="rgb(254,0,42)" stroke-width="1" opacity="0.996078431372549" d="M 227.5 106 L 226.5 108 L 227.5 106 Z "></path><path fill="rgb(254,0,42)" stroke="rgb(254,0,42)" stroke-width="1" opacity="0.996078431372549" d="M 313.5 106 L 312.5 108 L 313.5 106 Z "></path><path fill="rgb(254,0,42)" stroke="rgb(254,0,42)" stroke-width="1" opacity="0.996078431372549" d="M 208.5 107 L 207.5 109 L 208.5 107 Z "></path><path fill="rgb(254,0,42)" stroke="rgb(254,0,42)" stroke-width="1" opacity="0.996078431372549" d="M 294.5 107 L 293.5 109 L 294.5 107 Z "></path><path fill="rgb(254,0,42)" stroke="rgb(254,0,42)" stroke-width="1" opacity="0.996078431372549" d="M 331.5 109 L 334 110.5 L 332.5 111 Q 331.3 108.8 330 111.5 L 329.5 114 L 329 111.5 L 331.5 109 Z "></path><path fill="rgb(254,0,42)" stroke="rgb(254,0,42)" stroke-width="1" opacity="0.996078431372549" d="M 338.5 109 L 339.5 111 L 338.5 109 Z "></path><path fill="rgb(254,0,42)" stroke="rgb(254,0,42)" stroke-width="1" opacity="0.996078431372549" d="M 220 111 Q 224.1 109.7 223 113 Q 218.9 114.3 220 111 Z "></path><path fill="rgb(254,0,42)" stroke="rgb(254,0,42)" stroke-width="1" opacity="0.996078431372549" d="M 306 111 Q 310.1 109.7 309 113 Q 304.9 114.3 306 111 Z "></path><path fill="rgb(254,0,42)" stroke="rgb(254,0,42)" stroke-width="1" opacity="0.996078431372549" d="M 218.5 112 L 219 113.5 L 217.5 116 L 217 114.5 L 218.5 112 Z "></path><path fill="rgb(254,0,42)" stroke="rgb(254,0,42)" stroke-width="1" opacity="0.996078431372549" d="M 304.5 112 L 305 113.5 L 303.5 116 L 303 114.5 L 304.5 112 Z "></path><path fill="rgb(254,0,42)" stroke="rgb(254,0,42)" stroke-width="1" opacity="0.996078431372549" d="M 199.5 113 L 200 114.5 L 198.5 117 L 198 115.5 L 199.5 113 Z "></path><path fill="rgb(254,0,42)" stroke="rgb(254,0,42)" stroke-width="1" opacity="0.996078431372549" d="M 201 113 Q 205.1 111.7 204 115 Q 199.9 116.3 201 113 Z "></path><path fill="rgb(254,0,42)" stroke="rgb(254,0,42)" stroke-width="1" opacity="0.996078431372549" d="M 285.5 113 L 286 114.5 L 284.5 117 L 284 115.5 L 285.5 113 Z "></path><path fill="rgb(254,0,42)" stroke="rgb(254,0,42)" stroke-width="1" opacity="0.996078431372549" d="M 287 113 Q 291.1 111.7 290 115 Q 285.9 116.3 287 113 Z "></path><path fill="rgb(254,0,42)" stroke="rgb(254,0,42)" stroke-width="1" opacity="0.996078431372549" d="M 325 115 Q 328 113.8 327 117.5 L 327.5 119 Q 322.9 120.2 325 115 Z "></path><path fill="rgb(254,0,42)" stroke="rgb(254,0,42)" stroke-width="1" opacity="0.996078431372549" d="M 214.5 117 L 216 120.5 L 214 121 L 214.5 117 Z "></path><path fill="rgb(254,0,42)" stroke="rgb(254,0,42)" stroke-width="1" opacity="0.996078431372549" d="M 300.5 117 L 302 120.5 L 300 121 L 300.5 117 Z "></path><path fill="rgb(254,0,42)" stroke="rgb(254,0,42)" stroke-width="1" opacity="0.996078431372549" d="M 195.5 118 L 197 121.5 L 195 122 L 195.5 118 Z "></path><path fill="rgb(254,0,42)" stroke="rgb(254,0,42)" stroke-width="1" opacity="0.996078431372549" d="M 281.5 118 L 283 121.5 L 281 122 L 281.5 118 Z "></path><path fill="rgb(254,0,42)" stroke="rgb(254,0,42)" stroke-width="1" opacity="0.996078431372549" d="M 378.5 121 L 378 122.5 Q 376.8 128.3 372.5 131 Q 369.5 130.1 371 134.5 L 364.5 143 Q 361.9 142.2 363 145.5 L 358.5 152 Q 356.3 151.3 357 153.5 L 349 164 L 347.5 164 L 339 172.5 Q 339.8 174.8 337.5 174 L 326 182.5 L 326 184 L 324 184 Q 325.1 186.7 322.5 186 L 320 187 L 316.5 192 L 313.5 194 L 308 198.5 L 306.5 201 L 303 202.5 Q 303.8 204.8 301.5 204 L 293 210 L 293 212 Q 290.3 210.9 291 213.5 L 284 217 Q 285.1 219.7 282.5 219 L 277 222.5 L 274.5 226 L 272 227.5 Q 272.8 230.1 269.5 229 L 265 232 L 263.5 235 L 260 236.5 L 258.5 239 L 251 242 Q 252.1 244.7 249.5 244 Q 247 248.4 242 249 Q 243.1 251.7 240.5 251 L 239 254 Q 235.2 252.5 236 255.5 L 225 262.5 Q 227.5 264 224 265.5 L 220.5 270 L 217 272.5 L 204.5 291 L 202 291.5 L 202.5 293 L 200 294.5 Q 200.8 297.1 197.5 296 L 188 299 L 186.5 293 L 185.5 294 L 172.5 294 L 170 292.5 L 172.5 292 L 174.5 293 L 176.5 293 L 179.5 292 Q 181 294.5 182.5 291 L 184.5 292 L 186.5 292 Q 191.7 291.8 193.5 295 L 196 293.5 L 193 292.5 L 195.5 289 Q 196.8 291.3 198 288.5 L 197 286 L 199.5 285 L 198.5 288 L 201 286.5 L 202.5 284 Q 204.8 284.8 204 282.5 L 208.5 277 L 210.5 277 L 212 277 L 212 274 Q 214.7 275.1 214 272.5 L 215 270 Q 221.6 268.9 225 263.5 L 225 261.5 Q 224.3 259.3 226.5 260 L 233 256 Q 231.5 252.3 234.5 253 L 237 248 Q 241.9 249.8 240 243.5 L 241 243.5 Q 239.9 246.8 242.5 246 L 242 244.5 Q 241.1 241.1 246.5 243 L 249.5 239 L 252 238.5 L 251.5 237 Q 252.8 239.3 254 236.5 L 252 236 Q 250.7 231.9 254 233 L 254.5 236 L 255.5 233 L 256.5 235 L 257.5 233 L 258.5 235 L 260 232.5 L 258 231.5 L 261 230.5 L 261 228.5 Q 260.2 225.9 263.5 227 L 266.5 229 L 267 227.5 L 265.5 225 L 269 227.5 L 270 225.5 L 269 223 L 272 223 Q 270.8 220 274.5 221 L 275.5 218 L 280 216.5 L 277 215.5 L 279.5 215 L 282.5 216 L 285 213.5 L 284 210.5 L 286.5 210 L 288 209.5 L 286 208.5 L 287.5 208 L 289.5 209 L 289 207.5 L 289.5 206 L 291.5 206 Q 296.3 207.7 295 203.5 L 295.5 202 L 293.5 203 L 294.5 201 L 296.5 200 L 296.5 202 Q 299.8 203.1 299 200.5 L 301.5 199 L 303 199.5 Q 301.3 194.7 305.5 196 L 307 195.5 L 306.5 197 Q 309.1 197.8 308 194.5 L 309 191 L 313 191 L 313 189 Q 315.7 190.1 315 187.5 Q 318.5 186 316 184.5 Q 315.3 182.3 317.5 183 L 319 182.5 L 319.5 185 L 321 180 L 323 179.5 L 321 178.5 L 322.5 178 L 324.5 179 Q 326.3 175.9 328 177.5 Q 327.2 174.9 330.5 176 L 330 174.5 L 331.5 172 Q 335.3 172.8 336 170.5 Q 335.3 168.3 337.5 169 L 337.5 167 L 342 165.5 L 341 163.5 L 347 160.5 Q 345.7 157.8 344.5 160 L 342.5 161 L 344.5 158 L 351 157 L 351.5 153 L 352.5 155 L 354 151.5 L 352 151.5 L 358 148 L 359 145.5 L 358 143 L 360.5 142 L 362 142.5 L 363.5 139 L 368 135.5 L 367 133.5 L 369 130 L 374 129 Q 374.1 123.4 378.5 121 Z M 342 163 L 342 165 L 344 164 L 342 163 Z "></path><path fill="rgb(254,0,42)" stroke="rgb(254,0,42)" stroke-width="1" opacity="0.996078431372549" d="M 302.5 138 L 305 139 Q 306 142 303 141 L 302.5 138 Z "></path><path fill="rgb(254,0,42)" stroke="rgb(254,0,42)" stroke-width="1" opacity="0.996078431372549" d="M 193.5 139 L 194.5 141 L 193.5 139 Z "></path><path fill="rgb(254,0,42)" stroke="rgb(254,0,42)" stroke-width="1" opacity="0.996078431372549" d="M 279.5 139 L 280.5 141 L 279.5 139 Z "></path><path fill="rgb(254,0,42)" stroke="rgb(254,0,42)" stroke-width="1" opacity="0.996078431372549" d="M 174.5 140 L 175.5 142 L 174.5 140 Z "></path><path fill="rgb(254,0,42)" stroke="rgb(254,0,42)" stroke-width="1" opacity="0.996078431372549" d="M 190.5 140 L 193 141 Q 194 144 191 143 L 190.5 140 Z "></path><path fill="rgb(254,0,42)" stroke="rgb(254,0,42)" stroke-width="1" opacity="0.996078431372549" d="M 260.5 140 L 261.5 142 L 260.5 140 Z "></path><path fill="rgb(254,0,42)" stroke="rgb(254,0,42)" stroke-width="1" opacity="0.996078431372549" d="M 276.5 140 L 279 141 Q 280 144 277 143 L 276.5 140 Z "></path><path fill="rgb(254,0,42)" stroke="rgb(254,0,42)" stroke-width="1" opacity="0.996078431372549" d="M 171.5 141 L 174 142 Q 175 145 172 144 L 171.5 141 Z "></path><path fill="rgb(254,0,42)" stroke="rgb(254,0,42)" stroke-width="1" opacity="0.996078431372549" d="M 234.5 141 L 235.5 143 L 234.5 141 Z "></path><path fill="rgb(254,0,42)" stroke="rgb(254,0,42)" stroke-width="1" opacity="0.996078431372549" d="M 257.5 141 L 260 142 Q 261 145 258 144 L 257.5 141 Z "></path><path fill="rgb(254,0,42)" stroke="rgb(254,0,42)" stroke-width="1" opacity="0.996078431372549" d="M 299.5 141 L 304 142.5 L 298.5 144 L 298 142.5 L 299.5 141 Z "></path><path fill="rgb(254,0,42)" stroke="rgb(254,0,42)" stroke-width="1" opacity="0.996078431372549" d="M 188.5 143 L 192 144.5 L 186 146 Q 184.9 143.3 187.5 144 L 188.5 143 Z "></path><path fill="rgb(254,0,42)" stroke="rgb(254,0,42)" stroke-width="1" opacity="0.996078431372549" d="M 274.5 143 L 278 144.5 L 272.5 146 L 271.5 144 L 274.5 143 Z "></path><path fill="rgb(254,0,42)" stroke="rgb(254,0,42)" stroke-width="1" opacity="0.996078431372549" d="M 168.5 145 L 173 145.5 L 167.5 148 L 167 146.5 L 168.5 145 Z "></path><path fill="rgb(254,0,42)" stroke="rgb(254,0,42)" stroke-width="1" opacity="0.996078431372549" d="M 212.5 145 L 214 145.5 L 211.5 147 L 212.5 145 Z "></path><path fill="rgb(254,0,42)" stroke="rgb(254,0,42)" stroke-width="1" opacity="0.996078431372549" d="M 222.5 145 L 224 145.5 L 221.5 147 L 222.5 145 Z "></path><path fill="rgb(254,0,42)" stroke="rgb(254,0,42)" stroke-width="1" opacity="0.996078431372549" d="M 231.5 145 L 233 145.5 L 230.5 147 L 231.5 145 Z "></path><path fill="rgb(254,0,42)" stroke="rgb(254,0,42)" stroke-width="1" opacity="0.996078431372549" d="M 245.5 145 L 247 145.5 L 243.5 147 L 243.5 146 L 245.5 145 Z "></path><path fill="rgb(254,0,42)" stroke="rgb(254,0,42)" stroke-width="1" opacity="0.996078431372549" d="M 254.5 145 L 259 145.5 L 253.5 148 L 253 146.5 L 254.5 145 Z "></path><path fill="rgb(254,0,42)" stroke="rgb(254,0,42)" stroke-width="1" opacity="0.996078431372549" d="M 295.5 146 L 297 146.5 L 294.5 148 L 295.5 146 Z "></path><path fill="rgb(254,0,42)" stroke="rgb(254,0,42)" stroke-width="1" opacity="0.996078431372549" d="M 183 148 L 185 148.5 L 183 149.5 L 183 148 Z "></path><path fill="rgb(254,0,42)" stroke="rgb(254,0,42)" stroke-width="1" opacity="0.996078431372549" d="M 269 148 L 271 148.5 L 269 149.5 L 269 148 Z "></path><path fill="rgb(254,0,42)" stroke="rgb(254,0,42)" stroke-width="1" opacity="0.996078431372549" d="M 164 150 L 166 150.5 L 164 151.5 L 164 150 Z "></path><path fill="rgb(254,0,42)" stroke="rgb(254,0,42)" stroke-width="1" opacity="0.996078431372549" d="M 333.5 168 L 335 168.5 L 331.5 171 L 333.5 168 Z "></path><path fill="rgb(254,0,42)" stroke="rgb(254,0,42)" stroke-width="1" opacity="0.996078431372549" d="M 158.5 170 L 157.5 172 L 158.5 170 Z "></path><path fill="rgb(254,0,42)" stroke="rgb(254,0,42)" stroke-width="1" opacity="0.996078431372549" d="M 214.5 172 L 215.5 174 L 214.5 172 Z "></path><path fill="rgb(254,0,42)" stroke="rgb(254,0,42)" stroke-width="1" opacity="0.996078431372549" d="M 264.5 172 L 266 172.5 L 262.5 175 L 264.5 172 Z "></path><path fill="rgb(254,0,42)" stroke="rgb(254,0,42)" stroke-width="1" opacity="0.996078431372549" d="M 154.5 173 L 156 173.5 L 152.5 176 L 152 174 L 154.5 173 Z "></path><path fill="rgb(254,0,42)" stroke="rgb(254,0,42)" stroke-width="1" opacity="0.996078431372549" d="M 134 174 L 137 174.5 L 131.5 179 L 134 175.5 L 134 174 Z "></path><path fill="rgb(254,0,42)" stroke="rgb(254,0,42)" stroke-width="1" opacity="0.996078431372549" d="M 260.5 174 L 261 176 L 257.5 177 L 258.5 175 L 260.5 174 Z "></path><path fill="rgb(254,0,42)" stroke="rgb(254,0,42)" stroke-width="1" opacity="0.996078431372549" d="M 150.5 175 L 151 177.5 L 150 177.5 L 150.5 175 Z "></path><path fill="rgb(254,0,42)" stroke="rgb(254,0,42)" stroke-width="1" opacity="0.996078431372549" d="M 179 175 L 181 175.5 L 179 176.5 L 179 175 Z "></path><path fill="rgb(254,0,42)" stroke="rgb(254,0,42)" stroke-width="1" opacity="0.996078431372549" d="M 171.5 176 L 174 176.5 L 172 177 L 171.5 179 L 170 178.5 Q 170.8 180.8 168.5 180 L 166 181.5 L 166.5 179 Q 171 179.5 171.5 176 Z "></path><path fill="rgb(254,0,42)" stroke="rgb(254,0,42)" stroke-width="1" opacity="0.996078431372549" d="M 176.5 176 L 178 178.5 L 176 177.5 L 176.5 176 Z "></path><path fill="rgb(254,0,42)" stroke="rgb(254,0,42)" stroke-width="1" opacity="0.996078431372549" d="M 191.5 177 L 190.5 179 L 191.5 177 Z "></path><path fill="rgb(254,0,42)" stroke="rgb(254,0,42)" stroke-width="1" opacity="0.996078431372549" d="M 142.5 178 L 146 179.5 Q 146.8 182.1 143.5 181 L 140.5 183 L 141 181.5 L 142.5 178 Z "></path><path fill="rgb(254,0,42)" stroke="rgb(254,0,42)" stroke-width="1" opacity="0.996078431372549" d="M 148.5 178 L 149 179.5 L 147 180.5 L 148.5 178 Z "></path><path fill="rgb(254,0,42)" stroke="rgb(254,0,42)" stroke-width="1" opacity="0.996078431372549" d="M 157.5 180 L 159 180.5 L 155.5 183 L 157.5 180 Z "></path><path fill="rgb(254,0,42)" stroke="rgb(254,0,42)" stroke-width="1" opacity="0.996078431372549" d="M 163.5 180 L 164.5 182 L 163.5 180 Z "></path><path fill="rgb(254,0,42)" stroke="rgb(254,0,42)" stroke-width="1" opacity="0.996078431372549" d="M 172.5 181 L 171.5 183 L 170 182.5 L 172.5 181 Z "></path><path fill="rgb(254,0,42)" stroke="rgb(254,0,42)" stroke-width="1" opacity="0.996078431372549" d="M 167.5 183 L 171 184.5 L 168 186.5 L 169.5 187 L 171.5 186 L 171.5 187 Q 169.3 186.3 170 188.5 L 167 189.5 Q 168.3 193.3 164.5 192 Q 163.3 194.2 162 191.5 Q 167.4 188.8 165.5 186 L 168 185.5 L 167.5 183 Z "></path><path fill="rgb(254,0,42)" stroke="rgb(254,0,42)" stroke-width="1" opacity="0.996078431372549" d="M 177.5 183 L 176.5 185 L 177.5 183 Z "></path><path fill="rgb(254,0,42)" stroke="rgb(254,0,42)" stroke-width="1" opacity="0.996078431372549" d="M 311.5 186 L 312 188.5 L 311 188.5 L 311.5 186 Z "></path><path fill="rgb(254,0,42)" stroke="rgb(254,0,42)" stroke-width="1" opacity="0.996078431372549" d="M 138.5 187 L 137.5 189 L 138.5 187 Z "></path><path fill="rgb(254,0,42)" stroke="rgb(254,0,42)" stroke-width="1" opacity="0.996078431372549" d="M 143.5 188 L 144.5 190 L 143.5 188 Z "></path><path fill="rgb(254,0,42)" stroke="rgb(254,0,42)" stroke-width="1" opacity="0.996078431372549" d="M 306.5 190 Q 308.8 189.3 308 191.5 L 306.5 190 Z "></path><path fill="rgb(254,0,42)" stroke="rgb(254,0,42)" stroke-width="1" opacity="0.996078431372549" d="M 132.5 192 L 131.5 194 L 132.5 192 Z "></path><path fill="rgb(254,0,42)" stroke="rgb(254,0,42)" stroke-width="1" opacity="0.996078431372549" d="M 295.5 192 L 294.5 194 L 295.5 192 Z "></path><path fill="rgb(254,0,42)" stroke="rgb(254,0,42)" stroke-width="1" opacity="0.996078431372549" d="M 156.5 195 L 158.5 196 L 160 195.5 L 159 198 Q 162 199.3 161 195.5 L 162 195.5 L 160.5 199 Q 157.2 197.9 158 200.5 L 156 201.5 L 158 197.5 L 156.5 197 L 154 198.5 L 156.5 195 Z "></path><path fill="rgb(254,0,42)" stroke="rgb(254,0,42)" stroke-width="1" opacity="0.996078431372549" d="M 95.5 201 L 93 204.5 L 90.5 208 L 90 206.5 L 95.5 201 Z "></path><path fill="rgb(254,0,42)" stroke="rgb(254,0,42)" stroke-width="1" opacity="0.996078431372549" d="M 290.5 202 L 291 204.5 L 290 204.5 L 290.5 202 Z "></path><path fill="rgb(254,0,42)" stroke="rgb(254,0,42)" stroke-width="1" opacity="0.996078431372549" d="M 146 211 L 148 211.5 L 147.5 214 L 146 211 Z "></path><path fill="rgb(254,0,42)" stroke="rgb(254,0,42)" stroke-width="1" opacity="0.996078431372549" d="M 193 211 L 195 211.5 L 192 213.5 L 193 211 Z "></path><path fill="rgb(254,0,42)" stroke="rgb(254,0,42)" stroke-width="1" opacity="0.996078431372549" d="M 82.5 212 L 85 212.5 Q 79.8 219.4 72 222 L 70.5 226 L 65 229.5 Q 65.8 231.8 63.5 231 L 62 231.5 L 64 228.5 L 70 225 L 72.5 221 Q 74.8 221.8 74 219.5 L 79 216.5 L 82.5 212 Z M 82 222 L 82 224 L 84 223 L 82 222 Z M 78 225 L 79 228 L 78 230 Q 81 231 80 228 L 82 228 L 78 225 Z M 82 225 L 82 227 L 84 226 L 82 225 Z M 75 228 L 74 231 L 75 231 L 75 228 Z M 77 229 Q 75 232 78 231 L 77 229 Z "></path><path fill="rgb(254,0,42)" stroke="rgb(254,0,42)" stroke-width="1" opacity="0.996078431372549" d="M 134.5 220 L 134 221.5 L 134.5 223 Q 135.8 220.8 137 223.5 L 134.5 224 L 133 222.5 L 134.5 220 Z "></path><path fill="rgb(254,0,42)" stroke="rgb(254,0,42)" stroke-width="1" opacity="0.996078431372549" d="M 264.5 221 L 265.5 223 L 264.5 221 Z "></path><path fill="rgb(254,0,42)" stroke="rgb(254,0,42)" stroke-width="1" opacity="0.996078431372549" d="M 95.5 224 L 94 226.5 L 94 229 Q 91.3 227.9 92 230.5 Q 90.8 233.8 87 233 L 86.5 235 L 86 233.5 L 89.5 229 L 95.5 224 Z "></path><path fill="rgb(254,0,42)" stroke="rgb(254,0,42)" stroke-width="1" opacity="0.996078431372549" d="M 127.5 227 L 130 228.5 L 128.5 229 L 127.5 227 Z "></path><path fill="rgb(254,0,42)" stroke="rgb(254,0,42)" stroke-width="1" opacity="0.996078431372549" d="M 252.5 230 Q 255.1 229.3 254 232 L 251 231.5 L 252.5 230 Z "></path><path fill="rgb(254,0,42)" stroke="rgb(254,0,42)" stroke-width="1" opacity="0.996078431372549" d="M 197.5 232 L 198.5 234 L 197.5 232 Z "></path><path fill="rgb(254,0,42)" stroke="rgb(254,0,42)" stroke-width="1" opacity="0.996078431372549" d="M 60.5 233 Q 62.8 232.3 62 234.5 L 60.5 233 Z "></path><path fill="rgb(254,0,42)" stroke="rgb(254,0,42)" stroke-width="1" opacity="0.996078431372549" d="M 114.5 233 L 113.5 235 L 114.5 233 Z "></path><path fill="rgb(254,0,42)" stroke="rgb(254,0,42)" stroke-width="1" opacity="0.996078431372549" d="M 117.5 233 L 119 233.5 L 117 234 L 116.5 236 L 116 234.5 L 117.5 233 Z "></path><path fill="rgb(254,0,42)" stroke="rgb(254,0,42)" stroke-width="1" opacity="0.996078431372549" d="M 148.5 234 L 147.5 236 L 148.5 234 Z "></path><path fill="rgb(254,0,42)" stroke="rgb(254,0,42)" stroke-width="1" opacity="0.996078431372549" d="M 57.5 235 L 60 236.5 L 56 237 L 55.5 239 L 55 237.5 L 57.5 235 Z "></path><path fill="rgb(254,0,42)" stroke="rgb(254,0,42)" stroke-width="1" opacity="0.996078431372549" d="M 51.5 240 L 52 241.5 L 49.5 245 L 49 243.5 L 51.5 240 Z "></path><path fill="rgb(254,0,42)" stroke="rgb(254,0,42)" stroke-width="1" opacity="0.996078431372549" d="M 246.5 240 L 245.5 242 L 244 241.5 L 246.5 240 Z "></path><path fill="rgb(254,0,42)" stroke="rgb(254,0,42)" stroke-width="1" opacity="0.996078431372549" d="M 191.5 243 L 190.5 245 L 191.5 243 Z "></path><path fill="rgb(254,0,42)" stroke="rgb(254,0,42)" stroke-width="1" opacity="0.996078431372549" d="M 137.5 264 L 142 266.5 L 140.5 267 L 138.5 267 L 136 265.5 L 137.5 264 Z "></path><path fill="rgb(254,0,42)" stroke="rgb(254,0,42)" stroke-width="1" opacity="0.996078431372549" d="M 162.5 269 L 164 273 L 162 272.5 L 162 270.5 L 162.5 269 Z "></path><path fill="rgb(254,0,42)" stroke="rgb(254,0,42)" stroke-width="1" opacity="0.996078431372549" d="M 166.5 270 L 165.5 272 L 166.5 270 Z "></path><path fill="rgb(254,0,42)" stroke="rgb(254,0,42)" stroke-width="1" opacity="0.996078431372549" d="M 65.5 271 L 67.5 274 Q 65.8 270.9 64 272.5 L 65.5 271 Z "></path><path fill="rgb(254,0,42)" stroke="rgb(254,0,42)" stroke-width="1" opacity="0.996078431372549" d="M 156.5 271 L 157 274 L 154 273.5 L 156 273 L 156.5 271 Z "></path><path fill="rgb(254,0,42)" stroke="rgb(254,0,42)" stroke-width="1" opacity="0.996078431372549" d="M 172.5 271 L 174 274.5 L 173 274.5 L 172.5 273 L 171 273.5 L 172.5 271 Z "></path><path fill="rgb(254,0,42)" stroke="rgb(254,0,42)" stroke-width="1" opacity="0.996078431372549" d="M 148.5 273 L 149.5 275 L 148.5 273 Z "></path><path fill="rgb(254,0,42)" stroke="rgb(254,0,42)" stroke-width="1" opacity="0.996078431372549" d="M 160.5 273 L 163 274.5 L 160 276.5 L 159 274.5 L 160.5 273 Z "></path><path fill="rgb(254,0,42)" stroke="rgb(254,0,42)" stroke-width="1" opacity="0.996078431372549" d="M 166.5 274 L 167 276 L 164 275.5 L 166.5 274 Z "></path><path fill="rgb(254,0,42)" stroke="rgb(254,0,42)" stroke-width="1" opacity="0.996078431372549" d="M 155.5 275 L 156 277 L 154 276.5 L 155.5 275 Z "></path><path fill="rgb(254,0,42)" stroke="rgb(254,0,42)" stroke-width="1" opacity="0.996078431372549" d="M 164.5 277 Q 168 279 163.5 281 L 163 279.5 L 164.5 277 Z "></path><path fill="rgb(254,0,42)" stroke="rgb(254,0,42)" stroke-width="1" opacity="0.996078431372549" d="M 155.5 279 L 154.5 281 L 153 280.5 L 155.5 279 Z "></path><path fill="rgb(254,0,42)" stroke="rgb(254,0,42)" stroke-width="1" opacity="0.996078431372549" d="M 152.5 283 L 155 283.5 L 152.5 284 L 152.5 283 Z "></path><path fill="rgb(254,0,42)" stroke="rgb(254,0,42)" stroke-width="1" opacity="0.996078431372549" d="M 191 290 L 193 290.5 L 191 291.5 L 191 290 Z "></path><path fill="rgb(255,0,42)" stroke="rgb(255,0,42)" stroke-width="1" opacity="1" d="M 353 84 L 357.5 85 L 359.5 85 L 366 86 L 366.5 84 L 371.5 86 L 374.5 85 L 377.5 86 L 379.5 86 L 381.5 87 Q 382.8 84.7 387.5 86 L 390 87 L 390 90 Q 387 89 388 92 L 385 92 L 385 94 Q 388.8 93 390 95.5 L 389 98 L 392.5 97 L 392 98.5 L 389 107.5 L 379.5 119 L 378 119.5 L 379 120.5 L 375 124.5 L 374 129 L 369 130 L 367 133.5 L 368 135.5 L 362 140.5 L 361.5 143 L 359.5 143 Q 357.3 142.3 358 144.5 L 359.5 147 L 358 146.5 Q 358.8 148.8 356.5 148 L 355.5 151 L 353.5 150 L 354 151.5 L 352.5 155 L 351.5 153 L 351 157 L 344.5 158 L 343 159.5 L 344.5 160 Q 345.7 157.8 347 160.5 L 342 162.5 L 344 163.5 L 337 167.5 L 337.5 169 Q 335.3 168.3 336 170.5 L 330 173.5 L 331 175.5 L 328 176 L 327.5 178 Q 326.3 175.8 325 178.5 L 325.5 180 L 323.5 179 L 323.5 181 L 321 180 L 319.5 185 L 318.5 182 L 316 183 L 317 185.5 L 315 189 Q 312 188 313 191 L 309 191 L 309 193.5 L 308 197 L 303 196 L 302.5 200 L 300.5 199 L 300.5 201 L 299 200.5 Q 299.8 203.1 296.5 202 L 295 206 L 290.5 207 L 289 206.5 L 290 208.5 L 285.5 211 L 284 210.5 L 285 213.5 L 280 216.5 L 280.5 218 L 277.5 217 L 277.5 219 L 275.5 218 L 274.5 221 L 272 221 L 272 223 Q 268.3 221.5 269 224.5 L 269 226.5 L 268.5 228 L 267 227.5 L 266.5 229 L 261 227 Q 259.9 229.7 262.5 229 L 262.5 230 L 258 231.5 L 260 232.5 L 258.5 235 L 257.5 233 L 256.5 235 L 255.5 233 L 254 236.5 L 254.5 238 Q 253 235.5 251.5 239 L 248 240.5 L 247 242.5 L 248 244.5 L 247 244.5 L 247 243 L 242 243 L 243 245.5 L 241 246 L 240.5 243 L 240 248 Q 236.2 246.5 237 249.5 L 234.5 253 L 233 253 Q 234.5 256.8 231.5 256 L 225 260 L 224 262.5 L 225 263.5 L 220.5 268 L 215 270 L 214 274 L 212 274 Q 213.5 277.8 210.5 277 L 208 277.5 L 204 284 L 201 285.5 L 199.5 288 L 197 289.5 L 197.5 291 L 195 289.5 L 194 291.5 L 195.5 294 L 193.5 295 L 185.5 291 L 183.5 291 L 180.5 293 L 178.5 292 L 176.5 293 L 174.5 293 L 165 290 Q 163.9 287.3 166.5 288 L 166.5 287 L 163 287.5 L 163.5 289 L 159.5 286 L 157.5 287 L 155.5 287 L 153 286.5 L 156 285.5 L 141.5 285 L 140 283.5 L 139.5 282 Q 138.3 284.3 133.5 283 L 131.5 283 L 123.5 283 L 122.5 282 L 120.5 282 Q 113.5 283.5 114 280.5 L 117.5 279 L 120.5 280 L 122 277 L 118.5 278 L 119.5 276 L 123 277.5 L 123.5 279 L 126.5 278 L 130 278.5 Q 130.8 276.3 128.5 277 L 128.5 276 Q 131.8 274.9 131 277.5 L 133.5 276 L 136 276 L 136.5 274 L 142.5 274 L 142.5 273 L 141 272.5 L 142.5 272 L 146 272.5 L 146.5 271 L 148.5 271 L 153 270.5 L 151 269.5 L 154.5 267 L 155.5 270 L 156 267 Q 159 265.8 158 269.5 L 159 269.5 Q 160.5 265.1 157.5 266 L 157.5 265 L 160.5 267 L 163.5 263 L 165.5 266 L 166 264.5 L 165 262 L 167 262 Q 165.3 256.8 169 258 L 169.5 261 L 172 259.5 L 170 259 L 171 255 L 167 255.5 L 167.5 257 L 165 255.5 L 171.5 252 L 173 252.5 L 174.5 249 Q 176.3 251.8 178 247.5 L 176 246.5 L 183.5 242 L 186 242 L 189 237.5 L 188.5 236 L 190.5 237 L 190.5 235 L 193.5 233 Q 194.8 235.2 196 232.5 L 195 229.5 L 196.5 228 L 198 228.5 L 197 231 L 199 231 Q 197.9 228.3 200.5 229 L 207 225 L 206.5 223 L 205 223.5 L 207.5 219 L 209.5 223 L 211 219.5 L 210 217 Q 207 218 208 215 Q 213.6 214.9 216 210.5 L 214.5 208 L 214 210 L 211 210.5 L 213 211.5 L 209.5 213 L 208.5 211 L 203.5 214 L 201.5 213 L 195.5 218 L 185.5 222 L 183 224.5 L 182.5 226 L 181.5 224 L 181 226 Q 175.6 225.1 173.5 229 Q 172 226.5 170.5 230 L 164.5 233 L 162.5 233 L 159.5 232 L 159 233.5 L 159.5 235 L 157.5 234 L 156.5 237 L 154.5 235 L 149.5 240 L 147.5 240 Q 142.2 239.2 140.5 242 L 138.5 241 L 130.5 244 L 128.5 244 L 123.5 243 L 117.5 246 L 117 244 L 111 245.5 Q 113.3 246.8 110.5 248 L 108 247.5 L 111 246.5 L 106.5 245 L 104.5 246 Q 103 243.5 101.5 247 L 100 246.5 L 102 245.5 L 100.5 244 L 98 244.5 L 99 248 L 91 246 Q 92.3 249 88.5 248 L 85.5 249 L 85.5 248 Q 87.8 248.8 87 246.5 L 89 245.5 L 88.5 247 L 91 245.5 Q 90.1 242.5 94.5 244 L 97 242.5 L 96.5 241 L 99.5 242 L 99.5 240 Q 100.8 242.3 102 239.5 L 101 237.5 L 103 237.5 L 104 234 L 108 232.5 L 108.5 231 L 109.5 233 L 113 231.5 L 111.5 229 L 114.5 230 L 117 229.5 L 116.5 228 L 118.5 229 L 118 227.5 L 118.5 226 L 119 228 L 122.5 229 L 123 227 Q 119.2 228.5 120 225.5 L 121.5 226 L 126.5 221 L 129 222.5 L 127.5 220 L 125 219.5 Q 126 217 130.5 218 L 132.5 216 L 134 216.5 Q 133.3 214.3 135.5 215 L 135.5 214 L 133 213.5 L 135.5 212 L 136.5 214 L 137 212 Q 141.1 213.7 140 209.5 L 141 207 L 138.5 208 L 139.5 206 L 141.5 207 L 143.5 204 L 145.5 208 L 150 205.5 L 146.5 205 L 145 205.5 L 145 203.5 L 146 200 L 148 200.5 L 146.5 203 L 149 201.5 L 148 198.5 L 149.5 199 L 151 198.5 L 150.5 196 L 147 195.5 L 154 189.5 Q 155.1 186.2 152.5 187 L 149.5 191 L 150 189.5 L 153 185.5 L 151.5 185 L 149 186 Q 150.1 188.7 147.5 188 L 148 189.5 Q 148.8 192.1 145.5 191 Q 144 194.5 142.5 192 Q 139.2 190.9 140 193.5 L 140.5 195 L 138 194.5 L 138.5 193 L 131.5 196 Q 130.3 193.8 129 196.5 L 130 198.5 L 128.5 198 L 126 198 Q 127.3 201 123.5 200 L 119 203 L 119.5 201 L 121 201.5 L 124.5 197 L 126 197.5 L 125 195.5 L 128 195 L 130.5 191 Q 133.8 192.1 133 189.5 L 131 189.5 L 135 188 Q 136.1 185.3 133.5 186 L 128 189 L 127.5 187 L 127 189 L 123.5 190 L 121.5 189 L 122 190.5 L 121.5 193 L 119.5 192 L 118.5 195 L 116.5 195 L 111 197 L 112 199.5 L 109.5 200 L 108 199.5 L 110 199 Q 108.3 194.9 112.5 196 L 113.5 193 L 116.5 191 L 116.5 193 Q 119.1 193.8 118 190.5 L 120 190.5 L 121 188.5 L 120.5 187 L 123 188 L 122 185.5 L 124 185 L 125.5 182 L 126 184 Q 129.8 185.5 129 182.5 L 128.5 180 Q 122.5 180.5 120.5 185 Q 117.3 183.3 121 181.5 L 122.5 179 L 127 176.5 L 129.5 172 L 131 172.5 Q 130.3 170.3 132.5 171 L 134 168 L 138 165.5 L 137 163.5 L 139.5 163 Q 141.8 163.8 141 161.5 L 149 156.5 L 147 155.5 L 150 155 L 151 151.5 L 150.5 150 L 152.5 151 Q 154.3 147.9 156 149.5 Q 155.3 147.3 157.5 148 L 161 145.5 L 159 145 Q 157.7 141.7 162.5 143 L 162.5 141 L 165 141 Q 163.9 138.3 166.5 139 L 167.5 136 Q 171.7 137.3 170 132.5 L 172.5 131 L 174 131.5 L 174 128 L 178 128 L 178 126.5 L 180 126.5 L 179 124.5 L 182 124 L 182 120 Q 184.7 121.1 184 118.5 L 183.5 117 L 185.5 118 L 190.5 112 L 192 112.5 L 192 110 L 194 110 Q 192.9 107.3 195.5 108 L 196 105.5 L 196.5 104 L 197.5 106 L 199 103.5 L 198.5 102 L 200.5 103 L 204 101.5 L 203 99.5 L 208 96.5 L 207 94.5 L 213.5 91 L 214.5 92 L 218.5 88 L 222.5 87 L 222 88.5 Q 221.2 91.1 224.5 90 L 232 88 L 232.5 86 L 233.5 87 L 241.5 87 L 246.5 86 L 252.5 87 L 256.5 85 L 258.5 85 Q 265.4 84.1 268 87.5 L 266 90.5 L 267.5 92 L 271.5 88 L 277 87 L 276 90.5 L 277.5 92 L 281.5 88 L 285.5 87 L 285 88.5 Q 284.2 91.1 287.5 90 L 290.5 88 Q 292 90.5 293.5 87 L 295 87.5 L 293.5 90 L 300.5 87 L 299 89.5 L 300.5 92 Q 302.6 87.5 308.5 87 L 308 88.5 Q 307.2 91.1 310.5 90 L 318 88 L 318.5 86 L 319.5 87 L 327.5 87 L 332.5 86 L 338.5 87 L 342.5 85 L 344.5 85 L 353 86 L 353 84 Z M 217 96 L 215 98 L 217 98 L 217 96 Z M 303 96 L 301 98 L 303 98 L 303 96 Z M 211 103 Q 210 106 213 105 Q 214 102 211 103 Z M 297 103 Q 296 106 299 105 Q 300 102 297 103 Z M 332 109 L 333 111 L 334 111 L 332 109 Z M 220 111 Q 219 114 223 113 Q 224 110 220 111 Z M 306 111 Q 305 114 309 113 Q 310 110 306 111 Z M 330 111 L 329 114 L 330 114 L 330 111 Z M 201 113 Q 200 116 204 115 Q 205 112 201 113 Z M 287 113 Q 286 116 290 115 Q 291 112 287 113 Z M 325 115 Q 323 120 328 119 L 327 118 Q 328 114 325 115 Z M 215 117 L 214 121 L 216 121 L 215 117 Z M 301 117 L 300 121 L 302 121 L 301 117 Z M 196 118 L 195 122 L 197 122 L 196 118 Z M 282 118 L 281 122 L 283 122 L 282 118 Z M 303 139 Q 302 142 305 141 Q 306 138 303 139 Z M 191 141 Q 190 144 193 143 Q 194 140 191 141 Z M 277 141 Q 276 144 279 143 Q 280 140 277 141 Z M 300 141 L 298 143 L 299 144 L 304 143 L 300 141 Z M 172 142 Q 171 145 174 144 Q 175 141 172 142 Z M 258 142 Q 257 145 260 144 Q 261 141 258 142 Z M 189 143 L 188 144 Q 185 143 186 146 L 192 145 L 189 143 Z M 275 143 L 272 144 L 273 146 L 278 145 L 275 143 Z M 169 145 L 167 147 L 168 148 L 173 146 L 169 145 Z M 232 145 L 231 147 L 233 146 L 232 145 Z M 255 145 L 253 147 L 254 148 L 259 146 L 255 145 Z M 183 148 L 183 150 L 185 149 L 183 148 Z M 269 148 L 269 150 L 271 149 L 269 148 Z M 164 150 L 164 152 L 166 151 L 164 150 Z M 265 172 L 264 174 L 266 173 L 265 172 Z M 134 174 L 134 176 L 132 179 L 137 175 L 134 174 Z M 152 174 L 152 176 L 154 175 L 152 174 Z M 261 174 L 258 176 L 261 176 L 261 174 Z M 151 175 L 150 178 L 151 178 L 151 175 Z M 179 175 L 179 177 L 181 176 L 179 175 Z M 172 176 Q 169 178 172 179 L 172 177 L 174 177 L 172 176 Z M 143 178 L 141 182 L 144 181 Q 147 182 146 180 Q 144 181 143 178 Z M 170 178 L 167 179 L 168 181 L 170 180 L 170 178 Z M 159 182 L 157 184 L 159 185 L 154 185 L 157 191 L 160 191 Q 161 188 158 189 L 160 186 Q 163 187 161 183 L 159 182 Z M 168 183 L 169 186 L 171 185 L 168 183 Z M 135 184 L 136 186 L 138 185 Q 139 187 140 185 L 135 184 Z M 166 186 Q 166 190 168 187 L 166 186 Z M 312 186 L 311 189 L 312 189 L 312 186 Z M 169 187 L 170 189 Q 171 186 169 187 Z M 166 188 L 163 191 L 167 192 L 166 188 Z M 156 189 L 154 192 L 156 191 L 156 189 Z M 307 190 L 308 192 Q 309 189 307 190 Z M 153 193 L 153 196 L 156 194 L 153 193 Z M 157 195 L 154 199 L 157 197 L 158 198 L 156 202 L 158 201 Q 157 198 161 199 L 161 198 Q 158 199 159 196 L 157 195 Z M 162 195 L 161 198 L 162 198 L 162 195 Z M 152 197 L 153 199 Q 154 196 152 197 Z M 152 199 Q 149 201 152 202 L 154 201 L 152 199 Z M 150 202 L 149 204 L 151 203 L 150 202 Z M 291 202 L 290 205 L 291 205 L 291 202 Z M 149 207 L 149 209 L 152 208 L 149 207 Z M 144 211 Q 144 215 141 214 L 141 216 L 139 217 L 142 217 L 143 218 L 142 216 L 144 216 L 145 214 L 144 211 Z M 146 211 L 146 213 L 148 212 L 146 211 Z M 193 211 L 193 213 L 195 212 L 193 211 Z M 137 215 L 136 218 L 137 218 L 137 215 Z M 210 215 Q 209 218 212 217 Q 213 214 210 215 Z M 278 215 L 278 216 L 280 216 L 278 215 Z M 140 218 L 140 220 L 142 219 L 140 218 Z M 125 225 L 123 227 L 125 227 L 125 225 Z M 128 227 L 129 229 L 130 229 L 128 227 Z M 253 230 L 251 232 L 254 232 Q 255 229 253 230 Z M 252 233 Q 251 237 254 236 Q 255 232 252 233 Z M 109 243 L 108 245 L 111 245 L 109 243 Z M 96 245 L 97 247 L 98 247 L 96 245 Z M 170 261 L 171 265 L 169 266 L 171 266 L 172 267 Q 174 260 170 261 Z M 167 266 L 167 269 Q 170 268 167 266 Z M 163 269 L 162 271 L 162 273 L 164 273 L 163 269 Z M 157 271 L 156 273 L 154 274 L 157 274 L 157 271 Z M 173 271 L 171 274 L 173 273 L 173 271 Z M 161 273 L 159 275 L 160 277 L 163 275 L 161 273 Z M 167 274 L 164 276 L 167 276 L 167 274 Z M 156 275 L 154 277 L 156 277 L 156 275 Z M 165 277 L 163 280 L 164 281 Q 168 279 165 277 Z M 125 279 L 125 280 L 127 280 L 125 279 Z M 153 283 L 153 284 L 155 284 L 153 283 Z M 197 286 L 197 288 L 199 287 L 197 286 Z M 191 290 L 191 292 L 193 291 L 191 290 Z "></path><path fill="rgb(255,0,42)" stroke="rgb(255,0,42)" stroke-width="1" opacity="1" d="M 116.5 183 L 117.5 186 L 119 185.5 L 116 187 L 115 184.5 L 116.5 183 Z "></path><path fill="rgb(255,0,42)" stroke="rgb(255,0,42)" stroke-width="1" opacity="1" d="M 113 186 Q 116 185 115 188 L 112.5 189 L 113 187.5 L 113 186 Z "></path><path fill="rgb(255,0,42)" stroke="rgb(255,0,42)" stroke-width="1" opacity="1" d="M 143 197 L 145 197.5 L 143 198.5 L 143 197 Z "></path><path fill="rgb(255,0,42)" stroke="rgb(255,0,42)" stroke-width="1" opacity="1" d="M 113.5 206 L 114.5 208 L 113.5 206 Z "></path><path fill="rgb(255,0,42)" stroke="rgb(255,0,42)" stroke-width="1" opacity="1" d="M 98.5 209 L 97.5 211 L 98.5 209 Z "></path><path fill="rgb(255,0,42)" stroke="rgb(255,0,42)" stroke-width="1" opacity="1" d="M 89.5 217 L 88.5 219 L 87 219.5 L 87.5 221 Q 84.5 219.5 87.5 218 L 89.5 217 Z "></path><path fill="rgb(255,0,42)" stroke="rgb(255,0,42)" stroke-width="1" opacity="1" d="M 204.5 221 L 202.5 224 L 204.5 221 Z "></path><path fill="rgb(255,0,42)" stroke="rgb(255,0,42)" stroke-width="1" opacity="1" d="M 82 222 L 84.5 223 L 86.5 222 L 86.5 223 L 84.5 224 L 82 223.5 L 82 222 Z "></path><path fill="rgb(255,0,42)" stroke="rgb(255,0,42)" stroke-width="1" opacity="1" d="M 115.5 224 L 116 225.5 L 112.5 228 L 112.5 227 L 115 225.5 L 115.5 224 Z "></path><path fill="rgb(255,0,42)" stroke="rgb(255,0,42)" stroke-width="1" opacity="1" d="M 78 225 L 81.5 227 L 82 225 L 84 225.5 L 80 228 Q 81.1 230.7 78.5 230 L 75.5 232 Q 74.3 229.8 73 232.5 Q 73.7 235.5 70 234 Q 68.8 231 72.5 232 L 74.5 228 L 75.5 231 L 76.5 229 L 78 229.5 L 79 227.5 L 78 225 Z "></path><path fill="rgb(255,0,42)" stroke="rgb(255,0,42)" stroke-width="1" opacity="1" d="M 201.5 225 L 199.5 228 L 201.5 225 Z "></path><path fill="rgb(255,0,42)" stroke="rgb(255,0,42)" stroke-width="1" opacity="1" d="M 64.5 238 L 62.5 241 L 64.5 238 Z "></path><path fill="rgb(255,0,42)" stroke="rgb(255,0,42)" stroke-width="1" opacity="1" d="M 123.5 245 L 124 247 L 122 246.5 L 123.5 245 Z "></path><path fill="rgb(255,0,42)" stroke="rgb(255,0,42)" stroke-width="1" opacity="1" d="M 108.5 277 L 109 279 L 111 278.5 L 110.5 277 L 113 278.5 L 112.5 281 L 108 280 L 108.5 277 Z "></path><path fill="rgb(204,30,84)" stroke="rgb(204,30,84)" stroke-width="1" opacity="0.9019607843137255" d="M 267.5 79 L 273 80.5 L 271 81 Q 269.6 84.7 275.5 83 L 275.5 84 L 270.5 85 L 270 82 Q 267.3 83.1 268 80.5 L 266.5 81 L 256 80.5 L 266.5 80 L 267.5 79 Z "></path><path fill="rgb(204,30,84)" stroke="rgb(204,30,84)" stroke-width="1" opacity="0.9019607843137255" d="M 353.5 79 L 363 80 Q 361.8 83 365.5 82 L 366.5 81 L 377.5 81 L 379.5 80 L 390.5 83 L 394.5 82 L 400 83 L 399.5 85 L 391.5 83 L 389.5 84 L 388.5 83 Q 375.2 84.8 366.5 82 L 362.5 83 L 361.5 82 L 354 82 L 353.5 80 L 352.5 81 L 342.5 81 L 342.5 80 L 352.5 80 L 353.5 79 Z "></path><path fill="rgb(204,30,84)" stroke="rgb(204,30,84)" stroke-width="1" opacity="0.9019607843137255" d="M 242.5 81 L 241.5 83 L 225.5 84 L 225.5 83 L 241.5 82 L 242.5 81 Z "></path><path fill="rgb(204,30,84)" stroke="rgb(204,30,84)" stroke-width="1" opacity="0.9019607843137255" d="M 328.5 81 L 327.5 83 L 311.5 84 L 311.5 83 L 327.5 82 L 328.5 81 Z "></path><path fill="rgb(204,30,84)" stroke="rgb(204,30,84)" stroke-width="1" opacity="0.9019607843137255" d="M 293.5 82 L 309 83.5 L 303.5 85 L 298.5 84 L 297 84.5 Q 297.9 81.5 293.5 83 L 288.5 84 L 288.5 83 L 293.5 82 Z "></path><path fill="rgb(204,30,84)" stroke="rgb(204,30,84)" stroke-width="1" opacity="0.9019607843137255" d="M 217.5 83 L 223 83.5 L 216.5 85 L 217.5 83 Z "></path><path fill="rgb(204,30,84)" stroke="rgb(204,30,84)" stroke-width="1" opacity="0.9019607843137255" d="M 278.5 83 L 286 83.5 L 280.5 85 L 278.5 83 Z "></path><path fill="rgb(204,30,84)" stroke="rgb(204,30,84)" stroke-width="1" opacity="0.9019607843137255" d="M 398.5 90 Q 401.5 89.5 400 96.5 L 398 101 Q 395.3 99.9 396 102.5 L 389.5 113 L 387 114.5 L 381.5 122 L 380 121.5 L 382 121 Q 383.5 114.7 388.5 111 L 392 108.5 Q 392.3 102.3 396 99.5 L 396 95 Q 393 96.3 394 92.5 L 398.5 90 Z "></path><path fill="rgb(204,30,84)" stroke="rgb(204,30,84)" stroke-width="1" opacity="0.9019607843137255" d="M 379.5 123 L 379 124.5 Q 379.5 129.5 375.5 130 L 378 126.5 L 379.5 123 Z "></path><path fill="rgb(204,30,84)" stroke="rgb(204,30,84)" stroke-width="1" opacity="0.9019607843137255" d="M 373.5 132 L 374 136 L 371 137.5 L 369 140.5 L 368 147 L 364 146.5 L 373.5 132 Z "></path><path fill="rgb(204,30,84)" stroke="rgb(204,30,84)" stroke-width="1" opacity="0.9019607843137255" d="M 97.5 197 L 95.5 200 L 91 202 Q 92.5 205.8 89.5 205 Q 85.3 211 78 213 L 77 217 Q 73.3 215.5 74 218.5 L 68 223.5 Q 68.8 225.8 66.5 225 L 65 225.5 L 66 223 L 73 218.5 L 74.5 216 L 77 214.5 L 78.5 212 L 86 207.5 L 88 204.5 L 97.5 197 Z "></path><path fill="rgb(204,30,84)" stroke="rgb(204,30,84)" stroke-width="1" opacity="0.9019607843137255" d="M 100.5 200 L 99.5 202 L 98 201.5 L 100.5 200 Z "></path><path fill="rgb(204,30,84)" stroke="rgb(204,30,84)" stroke-width="1" opacity="0.9019607843137255" d="M 95.5 206 L 93.5 209 L 86 214.5 Q 86.8 216.8 84.5 216 L 77 222.5 Q 77.8 224.8 75.5 224 L 71 230 L 66 232.5 Q 66.8 234.8 64.5 234 L 60.5 239 Q 56.5 238.5 56 241.5 Q 56.5 245.5 53.5 246 L 46 252.5 L 42.5 257 Q 40.3 257.8 41 255.5 L 43 252 L 50 246.5 Q 49.2 243.9 52.5 245 L 57.5 238 Q 61.5 238.5 62 235.5 L 64.5 231 L 73 224.5 L 74 221 L 76.5 221 L 85 215 L 86 211 L 95.5 206 Z "></path><path fill="rgb(204,30,84)" stroke="rgb(204,30,84)" stroke-width="1" opacity="0.9019607843137255" d="M 91.5 223 L 91 224.5 L 80.5 236 L 78.5 237 L 82 232.5 L 88.5 225 L 91.5 223 Z "></path><path fill="rgb(204,30,84)" stroke="rgb(204,30,84)" stroke-width="1" opacity="0.9019607843137255" d="M 63.5 226 L 62.5 228 L 63.5 226 Z "></path><path fill="rgb(204,30,84)" stroke="rgb(204,30,84)" stroke-width="1" opacity="0.9019607843137255" d="M 58.5 231 L 60 231.5 L 57 233.5 L 56.5 235 L 56 233.5 L 58.5 231 Z "></path><path fill="rgb(204,30,84)" stroke="rgb(204,30,84)" stroke-width="1" opacity="0.9019607843137255" d="M 54.5 235 L 49.5 241 L 47 242.5 L 47 244.5 L 22 274.5 L 23.5 275 L 33.5 270 L 41.5 270 L 52.5 272 L 67.5 279 L 75.5 281 L 93.5 281 L 106.5 285 L 141.5 289 L 144.5 288 L 160.5 291 L 172.5 296 L 180.5 296 L 186 299.5 Q 185 305.5 189 306.5 L 185 307 L 181.5 299 L 169.5 297 L 166.5 295 L 148.5 290 L 129.5 290 L 120.5 288 L 112.5 288 L 93.5 283 L 71.5 283 L 52.5 275 L 41.5 274 L 40.5 273 L 31.5 273 L 9.5 288 L 0 292 L 0 285.5 L 3 281 L 6 281 L 6 279 L 8 279 Q 6.9 276.3 9.5 277 L 18.5 270 L 19.5 271 L 23.5 267 L 33 258.5 L 44.5 245 Q 47.1 245.8 46 242.5 L 54.5 235 Z "></path><path fill="rgb(204,30,84)" stroke="rgb(204,30,84)" stroke-width="1" opacity="0.9019607843137255" d="M 75.5 237 L 77 237.5 L 74.5 239 L 75.5 237 Z "></path><path fill="rgb(247,3,48)" stroke="rgb(247,3,48)" stroke-width="1" opacity="0.996078431372549" d="M 267.5 80 L 268 82 Q 271 80.8 270 84.5 L 271.5 84 L 277.5 83 L 280.5 85 L 287.5 83 L 292.5 84 L 297 83 L 297.5 85 L 302.5 84 L 304.5 84 L 310.5 83 L 315.5 84 L 316.5 83 L 340.5 82 L 341.5 81 L 352.5 81 L 353.5 80 L 354 82 L 365.5 83 L 369.5 82 L 370.5 83 L 388.5 83 L 390.5 84 L 392.5 83 Q 393.8 85.3 398.5 84 L 400 85.5 Q 401.9 90.9 398.5 90 L 394 92.5 L 394 95 L 396 95.5 L 396 99.5 L 389.5 111 L 385 114.5 L 382 121 Q 379.3 119.9 380 122.5 L 364 148 L 360.5 150 L 360 148.5 Q 363.8 147.3 363 143 L 368 139.5 Q 371.8 136.7 371 131 L 376 127.5 L 379 120.5 L 388 109 Q 391.3 110.3 390 105.5 Q 394.1 102.3 393 95 L 389 93.5 L 391 90 L 394 88.5 L 392.5 85 L 389.5 86 L 378.5 84 L 374.5 85 L 366.5 83 Q 364.8 85.8 358.5 84 L 353.5 83 L 352.5 84 L 341.5 84 L 340.5 85 L 323.5 86 L 321.5 86 Q 314.8 85.3 311.5 88 L 311 86 Q 304.9 85.3 302.5 89 L 300.5 86 L 296.5 88 L 295 85 Q 292 84 293 87 L 289.5 87 L 288 87.5 Q 288.9 84.5 284.5 86 L 279.5 89 L 276.5 85 L 269.5 89 L 268 85.5 L 269 83 L 266.5 84 L 255.5 84 L 254.5 85 L 237.5 86 L 235.5 86 Q 228.8 85.3 225.5 88 L 225 86 Q 218.9 85.3 216.5 89 L 215 85 L 224.5 83 L 229.5 84 L 230.5 83 L 254.5 82 L 255.5 81 L 266.5 81 L 267.5 80 Z "></path><path fill="rgb(247,3,48)" stroke="rgb(247,3,48)" stroke-width="1" opacity="0.996078431372549" d="M 105.5 189 L 106 191.5 L 98 198.5 Q 97.3 200.8 99.5 200 L 107 194.5 Q 106.3 192.3 108.5 193 L 113.5 189 Q 116.5 190.5 113.5 192 Q 110.9 191.3 112 194 L 110 194 L 110 195.5 L 106 198 Q 107.1 200.7 104.5 200 L 98 208 L 84 218 Q 85.1 220.7 82.5 220 L 80 221 L 78.5 224 L 74 226 L 73 230 L 69 232.5 Q 69.8 235.1 66.5 234 L 62.5 237 Q 61 234.5 59.5 238 Q 54.5 237.5 54 241.5 L 52.5 245 Q 49.2 243.9 50 246.5 L 43 252 L 41 257 L 46 253.5 L 52.5 246 L 56 243.5 Q 55.5 239.5 58.5 239 L 61.5 238 L 59.5 241 Q 56.9 240.2 58 243.5 L 52 248.5 Q 51.3 250.8 53.5 250 L 60 245.5 Q 59.1 242.5 63.5 244 L 66 242.5 Q 63.8 241.3 66.5 240 Q 67.8 242.3 69 239.5 L 68.5 238 Q 70.8 238.8 70 236.5 L 72 236.5 L 72.5 235 L 74.5 235 L 80 232 L 81.5 229 L 85 226.5 L 86.5 224 Q 88.8 224.8 88 222.5 L 96.5 214 L 98 214 Q 96.9 211.3 99.5 212 L 102 208 L 124.5 193 L 125 194.5 L 110 208.5 L 108 211.5 L 101 219.5 L 104.5 217 L 107 217 Q 105.9 214.3 108.5 215 L 111 214 Q 109.9 211.3 112.5 212 L 116 211 Q 114.9 208.3 117.5 209 L 127 204 L 127.5 202 L 128 204.5 L 125 206 L 123.5 210 Q 120.9 209.3 122 212 L 120 212 L 120 213.5 L 107.5 229 L 106 229.5 L 106.5 231 L 104 232.5 Q 104.8 234.8 102.5 234 L 101 237 L 85.5 245 Q 84 242.5 82.5 246 Q 76.4 245.4 74.5 249 L 72.5 249 L 68 251.5 Q 68.7 254.1 66 253 L 66 255 L 75.5 255 L 76.5 254 L 81.5 255 L 84.5 254 L 88.5 254 L 93.5 253 L 95.5 253 L 97.5 254 L 101.5 253 L 103.5 253 L 109 252.5 L 108.5 251 Q 109.7 253.2 114.5 252 L 118.5 252 L 125.5 251 L 128.5 249 L 130.5 250 L 135.5 248 L 137.5 248 Q 141.9 249.5 141 246.5 L 142.5 247 L 145 246.5 L 143 245.5 L 144.5 245 L 146.5 245 L 158.5 238 L 160.5 239 L 164.5 236 L 166 236.5 L 166.5 235 L 167.5 236 L 170.5 233 L 173.5 233 L 179.5 230 L 181 230.5 L 182.5 228 Q 186.8 228.8 187.5 226 L 188 228.5 L 181 233 Q 182.3 236 178.5 235 L 177.5 238 L 174 239.5 L 176.5 240 L 178 239.5 Q 179.5 243.9 176.5 243 L 175 247 L 165.5 253 L 157 256 Q 158.3 259 154.5 258 Q 152.7 263.2 145 262.5 L 147 263 Q 145.9 265.7 148.5 265 L 150.5 264 L 149.5 266 Q 143.5 266 140.5 269 L 138.5 269 L 134.5 270 L 130.5 269 L 126.5 270 L 123.5 269 L 124 270.5 Q 124.9 273.5 120.5 272 L 118 270.5 Q 118.8 272.8 116.5 272 L 112 273 L 111.5 270 L 106.5 272 L 104.5 272 L 100.5 271 L 95.5 273 L 93.5 272 L 89.5 273 L 88.5 272 L 80.5 272 L 78.5 273 L 73.5 272 L 70.5 271 L 70 272.5 L 70.5 274 L 69 273.5 L 70.5 276 L 79.5 278 L 81.5 278 L 85.5 279 L 88.5 278 L 97.5 279 L 101.5 281 L 103.5 281 L 108.5 283 L 127.5 284 L 128.5 285 L 131.5 284 L 136.5 286 L 145.5 286 L 146.5 287 L 158.5 288 L 172.5 294 L 187 294 L 188 299.5 L 186 300.5 L 183.5 297 L 172.5 296 Q 160.4 289.1 142.5 288 Q 141 290.5 135.5 289 L 128.5 287 L 106.5 285 L 93.5 281 L 75.5 281 L 67.5 279 L 52.5 272 L 41.5 270 L 33.5 270 L 22.5 275 L 24 272.5 L 48.5 241 L 57 235 L 58.5 232 L 61.5 231 L 64 231.5 L 62.5 234 L 60.5 233 L 62.5 236 L 66 234 L 67.5 231 L 71 230 L 75.5 224 Q 77.8 224.8 77 222.5 L 86 216 L 90.5 210 L 95 207.5 L 93.5 207 L 86 211 L 85 215 L 75.5 221 L 75.5 220 L 78 218.5 L 75.5 218 L 74 221 L 70 223.5 Q 70.8 225.8 68.5 225 L 64 228.5 Q 64.7 231.1 62 230 L 64.5 226 L 68 225 L 70.5 221 L 74 218.5 L 74 217 Q 77.8 218.5 77 215.5 L 78 213 L 91 205 Q 89.5 201.2 92.5 202 L 98 197.5 L 100 193 L 105 190.5 L 105.5 189 Z M 93 204 L 90 208 L 93 206 L 93 204 Z M 83 212 L 79 216 L 80 217 L 85 213 L 83 212 Z M 100 220 L 98 223 L 101 221 L 100 220 Z M 91 224 L 89 225 L 82 233 L 80 236 L 91 226 L 91 224 Z M 94 226 L 90 229 L 87 233 Q 91 234 92 231 Q 91 228 94 229 L 94 226 Z M 58 235 L 57 237 L 60 237 L 58 235 Z M 51 242 L 49 245 L 51 244 L 51 242 Z M 50 250 L 50 253 L 49 252 L 45 257 Q 44 259 49 258 Q 51 257 49 256 L 53 253 L 52 252 Q 53 249 50 250 Z M 138 264 Q 135 266 138 267 L 140 266 L 138 264 Z "></path><path fill="rgb(247,3,48)" stroke="rgb(247,3,48)" stroke-width="1" opacity="0.996078431372549" d="M 73.5 222 L 73 223.5 L 69.5 228 L 65.5 231 L 66 229.5 Q 65.3 227.3 67.5 228 L 72 224.5 L 73.5 222 Z "></path><path fill="rgb(247,3,48)" stroke="rgb(247,3,48)" stroke-width="1" opacity="0.996078431372549" d="M 191.5 225 L 192 226.5 L 189 228.5 L 191.5 225 Z "></path><path fill="rgb(0,152,254)" stroke="rgb(0,152,254)" stroke-width="1" opacity="0.996078431372549" d="M 303.5 0 L 400 0 L 400 81 L 390.5 79 L 388 80 Q 389.4 76 382.5 78 L 378.5 77 L 376.5 78 L 365.5 76 L 362.5 78 L 353.5 78 L 352.5 79 L 351.5 78 L 341.5 78 L 325.5 81 L 324.5 80 L 316.5 80 L 315.5 81 L 301.5 81 Q 299.8 78.3 293.5 80 Q 291.8 82.8 285.5 81 L 283.5 80 L 282.5 81 L 276 81 L 277 78.5 L 267.5 78 L 265.5 78 L 255.5 78 L 239.5 81 L 238.5 80 L 230.5 80 L 229.5 81 L 221.5 81 L 223.5 78 L 226 76.5 L 229 71 L 237 67 L 238.5 64 L 241 62.5 L 243.5 59 L 248 57 L 251.5 52 Q 254.8 53.1 254 50.5 Q 257.7 49.2 257 45 L 265 39.5 L 274 27 L 275.5 27 L 291 12.5 L 299.5 2 L 303.5 0 Z "></path><path fill="rgb(0,152,254)" stroke="rgb(0,152,254)" stroke-width="1" opacity="0.996078431372549" d="M 399.5 104 L 400 107.5 L 394.5 112 L 397.5 108 L 399 108 L 399.5 104 Z "></path><path fill="rgb(0,152,254)" stroke="rgb(0,152,254)" stroke-width="1" opacity="0.996078431372549" d="M 386.5 120 L 384 123.5 L 381.5 127 Q 379.3 126.3 380 128.5 L 375 132.5 L 380 125 Q 382.7 126.1 382 123.5 L 386.5 120 Z "></path><path fill="rgb(0,152,254)" stroke="rgb(0,152,254)" stroke-width="1" opacity="0.996078431372549" d="M 31.5 278 L 39.5 278 L 48.5 280 L 59.5 286 L 66.5 288 L 80.5 288 L 81.5 287 L 91.5 287 L 105.5 291 L 127.5 292 L 128.5 293 L 144.5 293 L 176.5 303 L 178 304.5 L 179 307.5 L 171.5 315 L 160.5 321 L 154 327.5 Q 154.8 329.8 152.5 329 L 144.5 339 L 142 340.5 Q 140.8 346.3 136.5 349 L 132 352.5 L 132 354.5 L 120.5 367 L 116 370.5 L 112.5 376 L 105 379 L 103.5 382 Q 101.3 381.3 102 383.5 L 91 392.5 L 89.5 395 Q 83.4 398.4 72.5 397 Q 71.2 394.7 66.5 396 L 57.5 399 L 45.5 399 L 44.5 400 L 0 400 L 0 298.5 L 1.5 297 L 10.5 293 L 22.5 283 L 24.5 283 L 31.5 278 Z "></path><path fill="rgb(4,153,249)" stroke="rgb(4,153,249)" stroke-width="1" opacity="0.18823529411764706" d="M 295.5 0 L 303 0.5 L 297 4.5 L 288.5 15 L 274 27 L 261.5 43 L 257 45 L 257 47.5 L 254 52 Q 249.3 51.3 248 55.5 Q 248.8 57.8 246.5 57 L 241 61.5 L 239.5 64 L 237 65.5 Q 237.8 67.8 235.5 67 L 229 71 L 224.5 78 L 218 82 Q 216.9 79.3 219.5 80 L 224 77 L 226.5 72 L 229 70.5 Q 228.3 68.3 230.5 69 L 234.5 64 L 240 62 L 241 58 L 245 57 L 247.5 53 L 255 47.5 L 256 43 L 258 42.5 L 257.5 41 L 259 41.5 Q 258.5 37.5 261.5 37 L 264.5 35 L 271 25 L 279 18.5 L 281 15.5 L 283 12 Q 285.7 13.1 285 10.5 L 287.5 7 L 290 5.5 Q 289.3 2.9 292 4 L 292 2 L 293.5 2 L 295.5 0 Z "></path><path fill="rgb(4,153,249)" stroke="rgb(4,153,249)" stroke-width="1" opacity="0.18823529411764706" d="M 399.5 108 L 400 111.5 L 396 113 L 393.5 118 L 392 117.5 L 393 119.5 L 386 123.5 L 381.5 129 Q 379.3 128.3 380 130.5 L 373.5 139 L 371.5 140 L 372 138.5 Q 371.3 136.3 373.5 137 L 380 127 L 384 124.5 L 388.5 118 L 392 115.5 L 393.5 112 L 399.5 108 Z "></path><path fill="rgb(4,153,249)" stroke="rgb(4,153,249)" stroke-width="1" opacity="0.18823529411764706" d="M 85.5 204 L 84.5 206 L 85.5 204 Z "></path><path fill="rgb(4,153,249)" stroke="rgb(4,153,249)" stroke-width="1" opacity="0.18823529411764706" d="M 80.5 209 L 79.5 211 L 77 210.5 L 80.5 209 Z "></path><path fill="rgb(4,153,249)" stroke="rgb(4,153,249)" stroke-width="1" opacity="0.18823529411764706" d="M 71.5 217 L 67.5 222 L 64 223 L 61.5 227 L 63 224.5 L 65.5 221 L 67.5 221 L 71.5 217 Z "></path><path fill="rgb(4,153,249)" stroke="rgb(4,153,249)" stroke-width="1" opacity="0.18823529411764706" d="M 59.5 228 L 61 228.5 L 54 233 L 50.5 238 L 47.5 240 L 49.5 237 Q 52.1 237.7 51 235 L 53 235 L 53 233.5 L 57 231 Q 55.9 228.3 58.5 229 L 59.5 228 Z "></path><path fill="rgb(4,153,249)" stroke="rgb(4,153,249)" stroke-width="1" opacity="0.18823529411764706" d="M 42.5 244 L 41.5 246 L 42.5 244 Z "></path><path fill="rgb(4,153,249)" stroke="rgb(4,153,249)" stroke-width="1" opacity="0.18823529411764706" d="M 26.5 261 L 21.5 267 L 20 266.5 L 26.5 261 Z "></path><path fill="rgb(4,153,249)" stroke="rgb(4,153,249)" stroke-width="1" opacity="0.18823529411764706" d="M 181.5 306 L 185 308.5 L 185.5 310 L 188 308.5 Q 189.3 312.3 185.5 311 L 186.5 314 Q 184.8 310.3 183 313.5 L 182.5 316 L 181 315.5 Q 181.8 317.8 179.5 317 Q 177 318.2 178 322 L 175 322 Q 176.1 319.3 173.5 320 L 169 322.5 L 169.5 324 L 168 323.5 Q 168.8 326.1 165.5 325 L 163 326 Q 164.1 328.7 161.5 328 L 160 327.5 Q 161.3 331.3 157.5 330 L 155.5 329 L 152 330 L 149 336.5 L 136.5 351 L 134 352.5 L 134 354.5 L 120.5 370 L 117 371.5 L 111.5 379 L 106.5 383 L 97 389.5 L 96 394 L 88.5 399 L 82.5 400 L 80.5 399 L 75.5 400 L 73.5 400 L 65.5 399 L 64.5 400 L 45.5 400 L 45.5 399 L 57.5 399 L 66.5 396 L 71.5 396 L 72.5 397 L 83.5 397 L 91 393.5 L 93.5 390 L 102 383.5 Q 101.3 381.3 103.5 382 L 105 379 L 112.5 376 L 115 373.5 L 119.5 367 L 124 363.5 L 135.5 349 L 140 345.5 L 143.5 339 L 146 337.5 L 152.5 329 Q 154.8 329.8 154 327.5 L 160.5 321 L 167.5 318 L 181.5 306 Z "></path></svg>