<svg width="400" height="400" version="1.1" xmlns="http://www.w3.org/2000/svg" desc="Created with imagetracer.js version 1.2.5"><path fill="rgb(0,0,0)" stroke="rgb(0,0,0)" stroke-width="1" opacity="0" d="M 0 0 L 399.5 0 L 400 0.5 L 400 114 L 238 113.5 L 266 32.5 L 233 32 L 233 35.5 L 213 99.5 L 210 114 L 199.5 114 L 199 111.5 L 177 33.5 L 175.5 32 L 143.5 32 L 143 33.5 L 185 165 L 190.5 165 L 191 165.5 L 191 196 L 17 196 L 17 399.5 L 16.5 400 L 0 400 L 0 0 Z M 19 32 L 19 121 L 24 140 L 30 150 L 42 160 L 54 165 L 64 167 Q 93 169 109 157 Q 119 149 124 136 L 128 118 L 128 32 L 98 32 L 98 116 L 95 129 L 91 136 Q 86 141 78 143 L 70 143 L 60 139 L 52 129 L 49 116 L 49 32 L 19 32 Z "></path><path fill="rgb(0,0,0)" stroke="rgb(0,0,0)" stroke-width="1" opacity="0" d="M 288 314 L 400 314 L 400 400 L 288 400 L 288 314 Z "></path><path fill="rgb(0,0,0)" stroke="rgb(0,0,0)" stroke-width="1" opacity="0.7843137254901961" d="M 127.5 112 L 128 117.5 L 127 117.5 L 127.5 112 Z "></path><path fill="rgb(0,0,0)" stroke="rgb(0,0,0)" stroke-width="1" opacity="0.7843137254901961" d="M 19.5 116 L 20 120.5 L 19 120.5 L 19.5 116 Z "></path><path fill="rgb(0,0,0)" stroke="rgb(0,0,0)" stroke-width="1" opacity="0.7843137254901961" d="M 49.5 116 L 50 119.5 L 49 119.5 L 49.5 116 Z "></path><path fill="rgb(0,0,0)" stroke="rgb(0,0,0)" stroke-width="1" opacity="0.7843137254901961" d="M 97.5 116 L 98 119.5 L 97 119.5 L 97.5 116 Z "></path><path fill="rgb(0,0,0)" stroke="rgb(0,0,0)" stroke-width="1" opacity="0.7843137254901961" d="M 126.5 122 L 127 124.5 L 126 124.5 L 126.5 122 Z "></path><path fill="rgb(0,0,0)" stroke="rgb(0,0,0)" stroke-width="1" opacity="0.7843137254901961" d="M 20.5 124 L 21 126.5 L 20 126.5 L 20.5 124 Z "></path><path fill="rgb(0,0,0)" stroke="rgb(0,0,0)" stroke-width="1" opacity="0.7843137254901961" d="M 54.5 133 L 55.5 135 L 54.5 133 Z "></path><path fill="rgb(0,0,0)" stroke="rgb(0,0,0)" stroke-width="1" opacity="0.7843137254901961" d="M 92.5 133 L 91.5 135 L 92.5 133 Z "></path><path fill="rgb(0,0,0)" stroke="rgb(0,0,0)" stroke-width="1" opacity="0.7843137254901961" d="M 118.5 145 L 117.5 147 L 118.5 145 Z "></path><path fill="rgb(0,0,0)" stroke="rgb(0,0,0)" stroke-width="1" opacity="0.7843137254901961" d="M 30.5 149 L 32.5 152 L 30.5 149 Z "></path><path fill="rgb(0,0,0)" stroke="rgb(0,0,0)" stroke-width="1" opacity="0.7843137254901961" d="M 115.5 149 L 108.5 157 L 115.5 149 Z "></path><path fill="rgb(0,0,0)" stroke="rgb(0,0,0)" stroke-width="1" opacity="0.7843137254901961" d="M 36.5 155 L 38.5 158 L 36.5 155 Z "></path><path fill="rgb(0,0,0)" stroke="rgb(0,0,0)" stroke-width="1" opacity="0.7843137254901961" d="M 106.5 157 L 105.5 159 L 106.5 157 Z "></path><path fill="rgb(0,0,0)" stroke="rgb(0,0,0)" stroke-width="1" opacity="0.7843137254901961" d="M 40.5 158 L 41.5 160 L 40.5 158 Z "></path><path fill="rgb(0,0,0)" stroke="rgb(0,0,0)" stroke-width="1" opacity="0.7843137254901961" d="M 63.5 166 L 69 166.5 L 63.5 167 L 63.5 166 Z "></path><path fill="rgb(0,0,0)" stroke="rgb(0,0,0)" stroke-width="1" opacity="0.7843137254901961" d="M 76.5 166 L 82 166.5 L 76.5 167 L 76.5 166 Z "></path><path fill="rgb(0,0,0)" stroke="rgb(0,0,0)" stroke-width="1" opacity="1" d="M 19 32 L 49 32 L 49 119.5 L 54 133.5 L 60.5 140 Q 66.7 144.8 79.5 143 Q 88.5 140.5 93 133.5 L 98 119.5 L 98 32 L 128 32 L 128 111.5 L 127 112.5 L 127 121.5 L 123 136.5 Q 117.9 149.4 107.5 157 L 90.5 165 L 69.5 167 L 68.5 166 L 59.5 166 L 48.5 163 L 33 152.5 Q 26.4 145.6 23 135.5 L 19 115.5 L 19 32 Z "></path><path fill="rgb(0,0,0)" stroke="rgb(0,0,0)" stroke-width="1" opacity="1" d="M 144 32 L 175.5 32 L 176 34.5 L 193 90.5 L 204.5 136 L 213 101.5 L 234 32 L 264.5 32 L 265 34.5 L 262 40.5 L 221 165 L 186.5 165 L 186 163.5 L 145 38.5 L 144 32 Z "></path><path fill="rgb(2,198,0)" stroke="rgb(2,198,0)" stroke-width="1" opacity="1" d="M 202.5 126 L 203 128.5 L 202 128.5 L 202.5 126 Z "></path><path fill="rgb(2,198,0)" stroke="rgb(2,198,0)" stroke-width="1" opacity="1" d="M 206.5 126 L 207 128.5 L 206 128.5 L 206.5 126 Z "></path><path fill="rgb(2,198,0)" stroke="rgb(2,198,0)" stroke-width="1" opacity="1" d="M 205.5 130 L 206 132.5 L 205 132.5 L 205.5 130 Z "></path><path fill="rgb(2,198,0)" stroke="rgb(2,198,0)" stroke-width="1" opacity="1" d="M 203.5 131 L 204 133.5 L 203 133.5 L 203.5 131 Z "></path><path fill="rgb(4,255,0)" stroke="rgb(4,255,0)" stroke-width="1" opacity="1" d="M 200 114 L 209 114 L 209 117.5 L 204.5 135 L 200 114 Z "></path><path fill="rgb(4,255,0)" stroke="rgb(4,255,0)" stroke-width="1" opacity="1" d="M 238 114 L 400 114 L 400 314 L 288 314 L 288 196 L 191.5 196 L 191 195.5 L 191 165 L 220.5 165 L 222 163.5 L 238 114 Z "></path><path fill="rgb(0,222,255)" stroke="rgb(0,222,255)" stroke-width="1" opacity="1" d="M 17 196 L 288 196 L 288 400 L 17 400 L 17 196 Z "></path></svg>