<svg width="400" height="400" version="1.1" xmlns="http://www.w3.org/2000/svg" desc="Created with imagetracer.js version 1.2.5"><path fill="rgb(0,0,0)" stroke="rgb(0,0,0)" stroke-width="1" opacity="0" d="M 0 0 L 400 0 L 400 173.5 L 397.5 172 L 393 168.5 L 393 166 Q 389.3 167.5 390 164.5 Q 388.7 160.3 384 161 Q 385.1 158.3 382.5 159 L 379 153 Q 374.3 152.6 372 148.5 L 370 145.5 Q 368.8 142.3 365 143 L 360 135 Q 357.3 136.1 358 133.5 L 354 132 L 354 130 L 350 128 L 350 125.5 L 341 118.5 Q 341.8 116.3 339.5 117 L 335.5 112 L 331 110 L 328.5 106 Q 326.3 106.8 327 104.5 L 326 102 L 320 98.5 L 318.5 96 L 317 96 Q 318.5 92.3 315.5 93 L 311 89.5 Q 311.8 87.3 309.5 88 L 307 87 Q 308 84 305 85 L 305 82 L 303.5 82 L 298 78 Q 299 75 296 76 L 296 73.5 L 291 71 Q 292.3 67.7 287.5 69 L 286.5 70 L 268.5 70 L 267.5 71 L 212 73 L 211.5 75 L 193.5 75 L 192.5 76 L 174.5 76 L 173.5 77 L 155.5 77 L 154.5 78 L 136.5 78 L 135.5 79 L 117.5 79 L 116.5 80 L 99.5 80 L 98.5 81 L 42 83 L 41.5 85 L 23.5 85 L 22.5 86 L 4.5 86 L 0 87 L 0 0 Z "></path><path fill="rgb(0,0,0)" stroke="rgb(0,0,0)" stroke-width="1" opacity="0" d="M 0.5 178 L 2 185 L 4 185 L 4 189 L 6 189 L 6 193 L 8 193 Q 6.8 198.3 10 197.5 L 10 200.5 L 11 205 L 15 207 L 15 212 L 17 212 Q 15.7 216.1 19 215 L 19 219.5 L 20 223 L 22 223 Q 20.8 228.3 24 227.5 L 24 230.5 L 25 235 Q 29.1 233.3 28 237.5 L 29 243 L 33 245 L 33 249.5 L 34 253 Q 38.1 251.3 37 255.5 L 38 261 Q 41 259.8 40 263.5 L 41.5 268 L 43 267.5 L 44 275 L 46 275 Q 44.7 279.1 48 278 L 48 282 Q 51 280.8 50 284.5 L 51.5 289 L 53 288.5 L 54 296 L 56 296 Q 54.7 300.1 58 299 L 58 303.5 L 60 304 L 60 306.5 L 61 310 Q 64 308.8 63 312.5 L 64 317 L 66 317 Q 64.7 321.1 68 320 L 68 324 Q 71 322.8 70 326.5 L 71.5 331 L 73 330.5 L 74 338 L 76 338 L 76 341 L 78 341 L 78 345 Q 80.7 343.9 80 346.5 L 82.5 355 L 84 354.5 L 85 361 L 87 361 L 87 365 Q 90 363.8 89 367.5 L 90 371 Q 93.3 369.7 92 374.5 L 93 378 L 109 374 Q 107.8 371 111.5 372 L 137 364 Q 135.7 360.7 140.5 362 L 169 353 Q 167.7 349.7 172.5 351 L 198 343 Q 196.7 339.7 201.5 341 L 227 333 Q 225.8 330 229.5 331 L 259 322 Q 257.8 319 261.5 320 L 288 312 Q 286.8 309 290.5 310 L 313.5 302 L 317 302 Q 315.8 299 319.5 300 L 349 291 Q 347.8 288 351.5 289 L 374.5 281 L 378 281 Q 376.8 278 380.5 279 L 396.5 273 L 400 273 L 400 399.5 L 399.5 400 L 0 400 L 0.5 178 Z "></path><path fill="rgb(153,0,255)" stroke="rgb(153,0,255)" stroke-width="1" opacity="1" d="M 287.5 69 L 291 69 Q 289.9 71.7 292.5 71 L 296 73.5 L 296 76 L 298 76 Q 296.9 78.7 299.5 78 L 305 82 L 305 85 L 307 85 Q 305.9 87.7 308.5 87 L 311 88 L 313.5 92 L 317 93 Q 315.5 96.8 318.5 96 L 321.5 100 L 326 102 L 327 106 L 331 108.5 Q 330.3 110.8 332.5 110 L 338 114.5 L 339.5 117 Q 341.8 116.3 341 118.5 L 350 125.5 L 350 128 L 352 128 L 354 132 L 356.5 132 L 358 135 Q 360.7 133.9 360 136.5 L 365 142.5 L 363.5 144 L 350 145 Q 351.1 148.5 343.5 147 L 316.5 152 L 309.5 152 L 295.5 155 L 282 156 Q 283.1 159.5 275.5 158 L 274.5 159 L 268.5 159 L 267.5 160 L 261.5 160 L 254.5 162 L 224.5 166 L 223 163 L 219 163 L 219 161.5 L 216 158.5 L 212 150 L 207 148 L 207 145.5 L 202 138 L 199 136.5 L 197.5 133 Q 195.3 133.8 196 131.5 Q 191.3 130.1 192 125 L 189 123.5 Q 189.8 121.3 187.5 122 L 182 112 L 178 110.5 L 175 104 Q 172.3 105.1 173 102.5 L 171 99 L 168 97.5 L 166 94.5 L 162 88 L 158 86.5 L 155.5 81 Q 153.3 81.8 154 79.5 L 153.5 78 L 155.5 77 L 212 75 L 212.5 73 L 229.5 73 L 230.5 72 L 248.5 72 L 249.5 71 L 267.5 71 L 268.5 70 L 286.5 70 L 287.5 69 Z "></path><path fill="rgb(0,221,255)" stroke="rgb(0,221,255)" stroke-width="1" opacity="1" d="M 136.5 78 L 152.5 78 L 154 79.5 Q 153.3 81.8 155.5 81 L 159.5 88 Q 162.8 86.9 162 89.5 L 166 96 Q 168.7 94.9 168 97.5 L 171 99 L 173 104 Q 175.7 102.9 175 105.5 L 179.5 112 Q 182.8 110.9 182 113.5 L 187.5 122 Q 189.8 121.3 189 123.5 L 192 125 L 192 127.5 L 196 133 L 199 134.5 L 200.5 138 Q 202.8 137.3 202 139.5 L 207 145.5 L 207 148 L 212 150 L 219 163 L 223 163 L 223 164.5 L 223.5 166 Q 218.5 165 219.5 168 L 214.5 168 L 213.5 169 L 179.5 173 L 172.5 175 L 158 176 Q 159.4 180 152.5 178 L 131.5 182 L 97 186 Q 98.4 190 91.5 188 L 90.5 189 L 76.5 190 L 69.5 192 L 29 197 Q 30.1 200.5 22.5 199 L 10 201 L 10 197 L 8 197 L 8 193 L 6 193 L 6 189 L 4 189 Q 5.3 183.7 2 184.5 L 2 181.5 L 0 177.5 L 0 87 L 4.5 86 L 42 85 L 42.5 83 L 60.5 83 L 61.5 82 L 98.5 81 L 99.5 80 L 116.5 80 L 117.5 79 L 135.5 79 L 136.5 78 Z "></path><path fill="rgb(255,0,221)" stroke="rgb(255,0,221)" stroke-width="1" opacity="1" d="M 364.5 143 Q 369.3 142.3 370 145.5 L 372 148.5 Q 374.3 152.6 379 153 L 382.5 159 Q 385.1 158.3 384 161 L 386.5 161 L 390 166 Q 394.1 164.3 393 168.5 L 400 174.5 L 400 272.5 L 396.5 273 Q 388.5 277.8 378 279 Q 379.3 282.3 374.5 281 L 349 289 Q 350.3 292 346.5 291 L 336.5 295 L 326 297 Q 327.1 294.3 324.5 295 Q 320.9 287.1 314.5 282 L 312 280.5 Q 312.8 276.8 310.5 276 L 308 274.5 L 305 270.5 L 305 268 L 301 265.5 L 294.5 255 L 289 250.5 L 289 248.5 L 283.5 243 Q 281.3 243.8 282 241.5 L 273.5 230 Q 271.3 230.8 272 228.5 L 264 217 L 261 215.5 L 259.5 213 Q 257.3 213.8 258 211.5 L 254 205 L 250 202.5 L 243 191 L 239 188.5 L 239 186.5 L 232.5 179 L 230 177.5 L 224 166 L 282 158 Q 280.9 154.5 288.5 156 L 302.5 153 L 316.5 152 L 323.5 150 L 350 147 L 350.5 145 L 357.5 145 L 364.5 143 Z "></path><path fill="rgb(217,255,0)" stroke="rgb(217,255,0)" stroke-width="1" opacity="1" d="M 220 166 L 224 166 L 224 167.5 L 231.5 179 L 236 182.5 L 241.5 191 Q 243.8 190.3 243 192.5 L 252.5 205 Q 254.8 204.3 254 206.5 L 258 213 L 261 214.5 L 262.5 217 Q 264.8 216.3 264 218.5 L 272 230 L 275 231.5 Q 280.4 235.9 282 243 L 289 248.5 L 289 250.5 L 293.5 255 L 296 256.5 L 297 260.5 L 303.5 268 Q 306.1 267.2 305 270.5 L 309.5 276 L 312 277.5 Q 311.3 281.3 313.5 282 L 320 287.5 L 324.5 295 Q 326.8 294.3 326 296.5 L 326.5 298 L 317 300 Q 318.3 303.3 313.5 302 L 304.5 306 L 288 310 Q 289.3 313 285.5 312 L 275.5 316 L 259 320 Q 260.3 323 256.5 322 L 243.5 327 L 227 331 Q 228.3 334 224.5 333 Q 212.5 338.8 198 341 Q 199.3 344 195.5 343 L 192.5 345 L 169 351 Q 170.3 354 166.5 353 L 160.5 356 L 137 362 Q 138.1 364.7 135.5 364 L 109 372 Q 110.3 375 106.5 374 L 93 378 L 92 371 Q 89 372.3 90 368.5 L 89 365 L 87 365 L 87 361 Q 84 362.3 85 358.5 L 83.5 354 L 82 354.5 L 80 345 L 78 345 L 78 341 L 76 341 L 76 338 Q 73 339.3 74 335.5 L 72.5 330 L 71 330.5 L 70 324 L 68 324 L 68 320 L 66 320 Q 67.3 315.9 64 317 L 64 313.5 L 63 310 Q 60 311.3 61 307.5 L 60 304 L 58 304 L 58 299 L 56 299 L 56 296 Q 53 297.3 54 293.5 L 52.5 288 L 51 288.5 L 50 282 L 48 282 L 48 278 L 46 278 L 46 275 Q 43 276.3 44 272.5 L 42.5 267 L 41 267.5 L 40 261 Q 36.3 262.4 38 256.5 L 37 253 Q 32.9 254.7 34 250.5 L 33 245 L 29 243 L 29 238.5 L 28 235 Q 23.5 236.8 25 231.5 L 24 227 L 22 227 L 22 223 Q 19 224.3 20 220.5 L 19 215 L 17 215 Q 18.3 210.9 15 212 L 15 207 L 11 205 L 11 201 L 29 199 Q 27.6 195 34.5 197 L 35.5 196 L 49.5 195 L 56.5 193 L 97 188 Q 95.9 184.5 103.5 186 L 117.5 183 L 124.5 183 L 125.5 182 L 158 178 L 158.5 176 L 165.5 176 L 179.5 173 L 220 168 L 220 166 Z "></path></svg>