<svg width="400" height="400" version="1.1" xmlns="http://www.w3.org/2000/svg" desc="Created with imagetracer.js version 1.2.5"><path fill="rgb(19,224,126)" stroke="rgb(19,224,126)" stroke-width="1" opacity="0.7333333333333333" d="M 124.5 5 L 128 5.5 L 124.5 6 L 124.5 5 Z "></path><path fill="rgb(19,224,126)" stroke="rgb(19,224,126)" stroke-width="1" opacity="0.7333333333333333" d="M 79.5 13 L 83 13.5 L 79.5 14 L 79.5 13 Z "></path><path fill="rgb(19,224,126)" stroke="rgb(19,224,126)" stroke-width="1" opacity="0.7333333333333333" d="M 97.5 14 L 101 14.5 L 97.5 15 L 97.5 14 Z "></path><path fill="rgb(19,224,126)" stroke="rgb(19,224,126)" stroke-width="1" opacity="0.7333333333333333" d="M 115.5 15 L 119 15.5 L 115.5 16 L 115.5 15 Z "></path><path fill="rgb(19,224,126)" stroke="rgb(19,224,126)" stroke-width="1" opacity="0.7333333333333333" d="M 350.5 255 L 349.5 257 L 350.5 255 Z "></path><path fill="rgb(19,224,126)" stroke="rgb(19,224,126)" stroke-width="1" opacity="0.7333333333333333" d="M 298.5 334 L 297.5 336 L 298.5 334 Z "></path><path fill="rgb(42,63,197)" stroke="rgb(42,63,197)" stroke-width="1" opacity="0.03137254901960784" d="M 300.5 13 L 318.5 13 L 321 15.5 Q 330 26.5 336 40.5 L 348 74.5 L 349 82.5 L 348 82.5 L 346 71.5 L 334 38.5 Q 328 24 317.5 14 L 300.5 14 L 300.5 13 Z "></path><path fill="rgb(42,63,197)" stroke="rgb(42,63,197)" stroke-width="1" opacity="0.03137254901960784" d="M 284.5 14 L 283.5 16 L 278 15.5 L 284.5 14 Z "></path><path fill="rgb(42,63,197)" stroke="rgb(42,63,197)" stroke-width="1" opacity="0.03137254901960784" d="M 288.5 14 L 297 14.5 L 288.5 15 L 288.5 14 Z "></path><path fill="rgb(42,63,197)" stroke="rgb(42,63,197)" stroke-width="1" opacity="0.03137254901960784" d="M 227.5 22 L 231 22.5 L 227.5 23 L 227.5 22 Z "></path><path fill="rgb(42,63,197)" stroke="rgb(42,63,197)" stroke-width="1" opacity="0.03137254901960784" d="M 218.5 23 L 224 23.5 L 213.5 25 L 213.5 24 L 218.5 23 Z "></path><path fill="rgb(42,63,197)" stroke="rgb(42,63,197)" stroke-width="1" opacity="0.03137254901960784" d="M 207.5 25 L 212 25.5 L 207.5 26 L 207.5 25 Z "></path><path fill="rgb(42,63,197)" stroke="rgb(42,63,197)" stroke-width="1" opacity="0.03137254901960784" d="M 202.5 26 L 206 26.5 L 202.5 27 L 202.5 26 Z "></path><path fill="rgb(42,63,197)" stroke="rgb(42,63,197)" stroke-width="1" opacity="0.03137254901960784" d="M 196.5 27 L 200 27.5 L 196 28 L 209 44.5 L 206 42.5 L 195.5 30 Q 192.9 30.7 194 28 L 196.5 27 Z "></path><path fill="rgb(42,63,197)" stroke="rgb(42,63,197)" stroke-width="1" opacity="0.03137254901960784" d="M 209.5 46 Q 218.7 56.8 224 71.5 L 223 71.5 L 216 56.5 L 209.5 46 Z "></path><path fill="rgb(42,63,197)" stroke="rgb(42,63,197)" stroke-width="1" opacity="0.03137254901960784" d="M 224.5 73 L 227 78.5 L 226 78.5 L 224.5 73 Z "></path><path fill="rgb(42,63,197)" stroke="rgb(42,63,197)" stroke-width="1" opacity="0.03137254901960784" d="M 228.5 83 L 230 87.5 L 229 87.5 L 228.5 83 Z "></path><path fill="rgb(42,63,197)" stroke="rgb(42,63,197)" stroke-width="1" opacity="0.03137254901960784" d="M 349.5 84 L 353 97.5 L 353 110.5 L 352 110.5 L 352 99.5 L 349.5 84 Z "></path><path fill="rgb(42,63,197)" stroke="rgb(42,63,197)" stroke-width="1" opacity="0.03137254901960784" d="M 231.5 92 L 232 94.5 L 231 94.5 L 231.5 92 Z "></path><path fill="rgb(42,63,197)" stroke="rgb(42,63,197)" stroke-width="1" opacity="0.03137254901960784" d="M 232.5 96 L 235 107.5 L 235 114.5 L 234 114.5 L 232.5 96 Z "></path><path fill="rgb(42,63,197)" stroke="rgb(42,63,197)" stroke-width="1" opacity="0.03137254901960784" d="M 353.5 113 L 356 127.5 L 357 168.5 L 358 173.5 L 360 175.5 L 359 181 L 361 181.5 L 361 183.5 L 360.5 186 L 359 185.5 Q 358.2 191.8 361 194.5 L 360.5 198 L 362 198.5 Q 359.7 199.7 361 204.5 L 359.5 206 L 358 206.5 L 360 207 L 361 213 Q 358.3 211.9 359 214.5 Q 356.5 216 360 217.5 L 358 222.5 L 358.5 224 L 357 223.5 L 356 225.5 Q 358.8 227.2 358 232.5 L 357 234.5 L 357 236.5 L 358 238.5 L 356.5 242 L 355 241.5 L 354 243.5 L 354 245.5 L 354 248 Q 351.3 246.9 352 249.5 L 354 249.5 L 351 253.5 L 352 255.5 L 351.5 258 L 350 257.5 L 349 262 L 347 262.5 L 347.5 265 L 349 265.5 L 347 266.5 L 347.5 268 Q 346.3 265.8 345 268.5 L 343 272.5 L 345 275.5 L 341 278.5 Q 339.7 283.3 342 284.5 L 339.5 288 L 338.5 286 L 338 288.5 L 338.5 290 L 337 289.5 L 336 291.5 L 337 293.5 L 336 293.5 L 335.5 292 L 331 300.5 L 332.5 300 L 334 300.5 L 330 302 L 330 304 Q 327.3 302.9 328 305.5 L 329.5 308 L 327 306.5 L 328 309.5 L 327 313 L 325 312.5 L 326 309.5 L 324 310.5 L 322 313.5 L 322.5 315 L 321 314.5 Q 321.8 316.8 319.5 316 L 315 319 Q 315.8 322.8 312.5 324 L 311 323.5 L 310.5 326 Q 309.3 323.7 308 326.5 L 308 328 L 306 328 Q 307.1 330.7 304.5 330 L 302 331 L 300.5 334 L 298 334.5 L 299.5 337 Q 297.7 333.3 296 336.5 L 297 338.5 L 291 342.5 L 291.5 344 Q 289.3 344.8 290 342.5 L 290.5 341 L 288 342.5 Q 288.8 344.8 286.5 344 L 281.5 347 Q 279.3 346.3 280 348.5 L 277 349.5 L 275 354.5 L 275.5 356 Q 273.3 356.8 274 354.5 L 272.5 352 L 271.5 354 L 269.5 353 L 269.5 355 L 268.5 354 L 265.5 357 L 263.5 356 L 260 358.5 L 260.5 360 L 258.5 360 L 252.5 363 L 242 364 L 241.5 366 L 239.5 365 L 237 366.5 L 237.5 368 L 235.5 367 L 235.5 369 L 233.5 368 L 232 368.5 L 232.5 367 L 227.5 369 L 226.5 367 L 224.5 371 L 224 369.5 L 224.5 368 L 222.5 369 L 220.5 369 Q 216.8 368.3 216 370.5 L 216.5 372 L 214 370.5 L 216 370 L 215.5 368 L 212.5 370 L 209.5 369 Q 208 372.5 206.5 370 L 204.5 369 L 198.5 371 L 194.5 370 L 151 369.5 L 187.5 369 L 194.5 367 L 231.5 364 L 245.5 361 L 274.5 348 L 307 325 Q 305.9 322.3 308.5 323 Q 322.3 311.8 331 295.5 L 344 264.5 L 351 243.5 L 354 228.5 L 355 211.5 L 357 201.5 L 357 174.5 L 356 173.5 L 355 128.5 L 353 120.5 L 353.5 113 Z M 358 216 L 357 220 L 358 220 L 358 216 Z "></path><path fill="rgb(42,63,197)" stroke="rgb(42,63,197)" stroke-width="1" opacity="0.03137254901960784" d="M 235.5 116 L 236 141.5 L 234.5 149 L 234 142.5 L 235 141.5 L 235.5 116 Z "></path><path fill="rgb(42,63,197)" stroke="rgb(42,63,197)" stroke-width="1" opacity="0.03137254901960784" d="M 233.5 150 L 234 153.5 L 232.5 158 L 232 154.5 L 233.5 150 Z "></path><path fill="rgb(42,63,197)" stroke="rgb(42,63,197)" stroke-width="1" opacity="0.03137254901960784" d="M 230.5 162 L 231 163.5 L 227 173.5 L 215 191 L 212 192.5 Q 212.8 194.8 210.5 194 Q 191.4 213.4 162.5 223 L 162.5 222 Q 187.9 213.4 206 197.5 L 206 196 L 208 196 Q 206.9 193.3 209.5 194 L 216.5 186 Q 218.8 186.8 218 184.5 Q 226.7 175.7 230.5 162 Z "></path><path fill="rgb(42,63,197)" stroke="rgb(42,63,197)" stroke-width="1" opacity="0.03137254901960784" d="M 360.5 187 L 361 189.5 L 360 189.5 L 360.5 187 Z "></path><path fill="rgb(42,63,197)" stroke="rgb(42,63,197)" stroke-width="1" opacity="0.03137254901960784" d="M 155.5 224 L 158 224.5 L 148.5 227 L 148.5 226 L 155.5 224 Z "></path><path fill="rgb(42,63,197)" stroke="rgb(42,63,197)" stroke-width="1" opacity="0.03137254901960784" d="M 358.5 226 L 359.5 228 L 358.5 226 Z "></path><path fill="rgb(42,63,197)" stroke="rgb(42,63,197)" stroke-width="1" opacity="0.03137254901960784" d="M 144.5 227 L 147 227.5 L 144.5 228 L 144.5 227 Z "></path><path fill="rgb(42,63,197)" stroke="rgb(42,63,197)" stroke-width="1" opacity="0.03137254901960784" d="M 138.5 228 L 142 228.5 L 138.5 229 L 138.5 228 Z "></path><path fill="rgb(42,63,197)" stroke="rgb(42,63,197)" stroke-width="1" opacity="0.03137254901960784" d="M 130.5 229 L 136 229.5 L 130.5 230 L 130.5 229 Z "></path><path fill="rgb(42,63,197)" stroke="rgb(42,63,197)" stroke-width="1" opacity="0.03137254901960784" d="M 116.5 230 L 115.5 232 L 68 231.5 L 115.5 231 L 116.5 230 Z "></path><path fill="rgb(42,63,197)" stroke="rgb(42,63,197)" stroke-width="1" opacity="0.03137254901960784" d="M 118.5 230 L 128 230.5 L 118.5 231 L 118.5 230 Z "></path><path fill="rgb(42,63,197)" stroke="rgb(42,63,197)" stroke-width="1" opacity="0.03137254901960784" d="M 63.5 232 L 66 232.5 L 51 239.5 L 50.5 269 L 49 264.5 L 50 263.5 L 50 239.5 L 52.5 237 L 63.5 232 Z "></path><path fill="rgb(42,63,197)" stroke="rgb(42,63,197)" stroke-width="1" opacity="0.03137254901960784" d="M 49.5 312 L 50 315.5 L 49 315.5 L 49.5 312 Z "></path><path fill="rgb(42,63,197)" stroke="rgb(42,63,197)" stroke-width="1" opacity="0.03137254901960784" d="M 48.5 319 L 49 324.5 L 48 324.5 L 48.5 319 Z "></path><path fill="rgb(42,63,197)" stroke="rgb(42,63,197)" stroke-width="1" opacity="0.03137254901960784" d="M 47.5 327 L 48 332.5 L 47 332.5 L 47.5 327 Z "></path><path fill="rgb(42,63,197)" stroke="rgb(42,63,197)" stroke-width="1" opacity="0.03137254901960784" d="M 46.5 335 L 47 339.5 L 46 339.5 L 46.5 335 Z "></path><path fill="rgb(42,63,197)" stroke="rgb(42,63,197)" stroke-width="1" opacity="0.03137254901960784" d="M 45.5 344 L 46 349.5 L 45 349.5 L 45.5 344 Z "></path><path fill="rgb(42,63,197)" stroke="rgb(42,63,197)" stroke-width="1" opacity="0.03137254901960784" d="M 284 347 L 286 347.5 L 284 348.5 L 284 347 Z "></path><path fill="rgb(42,63,197)" stroke="rgb(42,63,197)" stroke-width="1" opacity="0.03137254901960784" d="M 286.5 349 L 285.5 351 L 286.5 349 Z "></path><path fill="rgb(42,63,197)" stroke="rgb(42,63,197)" stroke-width="1" opacity="0.03137254901960784" d="M 44.5 353 Q 43.6 358.4 46.5 360 L 68.5 366 L 100 366.5 L 66.5 367 L 47.5 362 L 44 359.5 L 44.5 353 Z "></path><path fill="rgb(42,63,197)" stroke="rgb(42,63,197)" stroke-width="1" opacity="0.03137254901960784" d="M 103.5 367 L 132 367.5 L 103.5 368 L 103.5 367 Z "></path><path fill="rgb(42,63,197)" stroke="rgb(42,63,197)" stroke-width="1" opacity="0.03137254901960784" d="M 133.5 368 L 150 368.5 L 133.5 369 L 133.5 368 Z "></path><path fill="rgb(42,63,197)" stroke="rgb(42,63,197)" stroke-width="1" opacity="0.03137254901960784" d="M 209.5 371 L 211.5 374 L 209.5 371 Z "></path><path fill="rgb(110,40,252)" stroke="rgb(110,40,252)" stroke-width="1" opacity="0.7764705882352941" d="M 77 3 L 109.5 4 L 120.5 6 L 145.5 6 L 146.5 7 L 180.5 8 L 181.5 9 L 198.5 9 L 199.5 10 L 234.5 11 L 235.5 12 L 251.5 12 L 252.5 13 L 269.5 13 L 273 14 L 272 24 L 262.5 24 L 261.5 23 L 244.5 23 L 243.5 22 L 221.5 22 L 220.5 21 L 168.5 19 L 167.5 18 L 150.5 18 L 149.5 17 L 132.5 17 L 122.5 15 L 105.5 15 L 104.5 14 L 77 13 L 77 3 Z "></path><path fill="rgb(110,40,252)" stroke="rgb(110,40,252)" stroke-width="1" opacity="0.7764705882352941" d="M 34.5 209 Q 36.8 208.3 36 210.5 L 39 218.5 L 39 222.5 L 43 235.5 L 43 239.5 L 48 256.5 L 48 260.5 L 52 273.5 L 52 278.5 L 62 319 L 52 321 L 49 311.5 L 49 307.5 L 45 294.5 L 45 290.5 L 40 273.5 L 40 269.5 L 26 211.5 L 27.5 210 Q 33 211.5 34.5 209 Z "></path><path fill="rgb(0,132,254)" stroke="rgb(0,132,254)" stroke-width="1" opacity="0.9725490196078431" d="M 297.5 14 L 317.5 14 L 322 18.5 L 330 30.5 L 340 53.5 Q 346.9 71.6 351 92.5 L 353 120.5 L 355 128.5 L 355 144.5 L 356 145.5 L 357 201.5 L 356 202.5 L 355 220.5 L 354 221.5 L 352 239.5 L 344 264.5 L 331 295.5 L 325 305.5 L 308.5 323 L 305.5 325 L 295.5 334 L 274.5 348 L 245.5 361 L 231.5 364 L 194.5 367 L 187.5 369 L 150.5 369 L 149.5 368 L 132.5 368 L 131.5 367 L 68.5 366 L 51.5 362 L 45 358.5 L 49 316.5 L 50.5 315 L 51 323.5 L 48 338.5 L 47 352.5 L 57.5 360 L 74.5 362 L 75.5 363 L 77.5 363 L 98.5 364 L 99.5 365 L 148.5 365 L 155.5 364 Q 161 362.5 162.5 365 Q 163.7 362.7 168.5 364 L 170.5 365 L 186 362 Q 184.9 359.3 187.5 360 L 192.5 359 Q 196.9 364.1 208.5 362 L 209.5 361 L 236.5 358 L 257.5 351 L 271.5 344 L 298 324.5 Q 297.3 322.3 299.5 323 L 303 320.5 L 305.5 317 L 310.5 313 L 310.5 311 Q 312.8 311.8 312 309.5 L 319 300.5 L 322 292 Q 325.3 293.3 324 288.5 L 328 282.5 L 334 266 Q 337 267.3 336 263.5 L 346 242.5 Q 345.3 236.8 348 234.5 L 350 215.5 L 349 213.5 L 350 210.5 L 349 205.5 L 349 203.5 L 350 197.5 L 350 195.5 L 349 193.5 L 350 191.5 L 349 189.5 L 349 187.5 L 350 185.5 L 349.5 180 L 351 180.5 L 350 178.5 Q 353.5 177 351 175.5 Q 349.8 170.8 352 169.5 L 351 166.5 L 352 164.5 L 352 158.5 L 351 156.5 L 351 154.5 L 351 142.5 L 352 141.5 L 351 140.5 L 351 111.5 L 350 110.5 L 349 94.5 L 342 65.5 L 331 40.5 L 318 22.5 L 315 16 L 310.5 15 L 307.5 16 L 291.5 16 L 290.5 17 L 272.5 18 L 272.5 17 Q 276 14.5 283.5 16 L 284.5 15 L 296.5 15 L 297.5 14 Z "></path><path fill="rgb(0,132,254)" stroke="rgb(0,132,254)" stroke-width="1" opacity="0.9725490196078431" d="M 231.5 22 L 241 22.5 L 198 29.5 Q 219.2 49.8 230 80.5 L 235 97.5 L 236 108.5 L 237 109.5 L 238 139.5 L 237 140.5 L 236 153.5 L 232 167.5 Q 223.9 186.9 208.5 199 L 187.5 214 L 154.5 228 L 126.5 233 L 78.5 234 L 77.5 235 L 75.5 234 L 67.5 238 L 62 238 Q 63.1 240.7 60.5 240 L 56 241 Q 57.1 243.7 54.5 243 L 53 244.5 L 52.5 279 L 51 272.5 L 51 239.5 L 66.5 232 L 115.5 232 L 116.5 231 L 135.5 230 L 154.5 226 Q 171.6 221.1 185.5 213 L 212 194 L 213.5 191 Q 215.8 191.8 215 189.5 Q 239.2 166.7 236 116.5 L 235 115.5 L 235 107.5 L 232 92.5 L 224 70.5 L 212 48.5 L 196 28 L 231.5 22 Z "></path><path fill="rgb(0,255,98)" stroke="rgb(0,255,98)" stroke-width="1" opacity="1" d="M 31 5 L 76.5 5 Q 77.6 5.1 77 10.5 L 76 13 L 79.5 14 L 96.5 14 L 97.5 15 L 130 16 L 130 211 L 37.5 211 Q 36.8 208.3 32.5 209 L 31 209.5 L 31 5 Z "></path><path fill="rgb(0,0,0)" stroke="rgb(0,0,0)" stroke-width="1" opacity="0" d="M 0 0 L 400 0 L 400 400 L 0 400 L 0 0 Z M 77 3 L 77 5 L 32 5 L 31 6 L 31 210 L 26 210 L 28 224 L 49 309 L 49 319 L 46 336 L 45 351 L 45 353 Q 43 354 44 360 L 48 362 L 67 367 L 103 367 L 104 368 L 151 369 L 152 370 L 195 370 L 199 371 L 201 371 Q 202 369 207 370 Q 208 373 210 369 L 213 370 L 216 368 L 217 370 L 221 369 L 224 368 L 226 369 L 227 367 L 228 369 L 232 367 L 234 368 L 240 365 L 242 366 L 242 364 L 253 363 L 263 357 L 265 357 L 270 353 L 272 354 L 272 353 L 275 351 L 277 351 L 277 350 L 279 350 L 280 347 Q 285 347 287 344 Q 289 345 288 343 L 295 338 L 297 339 L 297 338 L 297 336 L 299 336 Q 298 333 301 334 L 302 331 L 305 330 Q 307 331 306 328 L 308 328 L 308 327 Q 309 324 311 326 L 311 324 L 313 324 L 315 321 L 321 316 L 324 311 L 326 310 L 325 313 L 327 313 L 328 310 L 327 308 L 328 306 Q 327 303 330 304 L 330 302 L 332 302 L 331 301 L 338 287 L 339 284 Q 341 285 339 287 L 340 288 L 342 285 Q 340 283 341 279 L 344 277 L 342 276 L 344 275 L 343 273 L 345 269 L 349 266 L 348 265 L 347 263 L 349 262 Q 348 257 352 256 L 351 254 L 354 250 L 353 249 L 353 248 Q 355 249 354 246 L 354 244 L 355 242 L 357 242 L 358 239 L 357 237 L 357 235 L 358 233 Q 359 227 356 226 L 360 219 L 359 216 L 358 220 L 357 220 Q 356 215 359 215 L 358 212 L 359 212 Q 358 214 361 213 L 360 208 L 359 205 L 361 205 L 362 199 L 360 198 L 360 200 L 359 199 L 361 195 Q 358 192 359 186 L 361 186 L 361 184 L 360 184 L 361 181 Q 357 182 359 177 L 359 175 L 357 169 L 357 145 L 356 144 L 356 128 L 353 113 L 353 98 L 349 84 L 348 75 L 336 41 Q 329 25 319 13 L 301 13 L 300 14 L 289 14 L 288 15 L 285 14 L 278 16 Q 272 18 273 15 L 272 13 L 255 13 L 254 12 L 238 12 L 237 11 L 220 11 L 219 10 L 202 10 L 201 9 L 184 9 L 183 8 L 167 8 L 166 7 L 149 7 L 148 6 L 131 6 L 130 5 L 77 3 Z M 361 187 L 360 190 L 361 190 L 361 187 Z M 295 339 L 293 340 L 293 341 L 296 340 L 295 339 Z M 291 342 Q 289 345 292 344 L 291 342 Z M 284 347 L 284 349 L 286 348 L 284 347 Z M 273 352 L 274 355 Q 273 357 276 356 L 275 355 Q 276 351 273 352 Z M 215 370 L 216 372 L 217 372 L 215 370 Z "></path><path fill="rgb(0,0,0)" stroke="rgb(0,0,0)" stroke-width="1" opacity="0" d="M 130 17 L 182.5 19 L 183.5 20 L 200.5 20 L 201.5 21 L 218.5 21 L 227 22.5 L 218.5 23 L 194 28 Q 192.9 30.7 195.5 30 L 209 45.5 Q 219.7 60.8 227 79.5 L 231 91.5 L 234 107.5 Q 232.3 113.8 235 115.5 L 235 141.5 L 231 161.5 L 226 173.5 L 218 186 L 215 187.5 L 209.5 194 L 208 194 L 208 196 Q 205.3 194.9 206 197.5 Q 187.1 213.6 161.5 223 L 143.5 228 L 130.5 229 L 129.5 230 L 118.5 230 L 117.5 231 L 115.5 231 L 68.5 231 L 60.5 233 L 50 239.5 L 49.5 264 L 37 211 L 130 211 L 130 17 Z "></path><path fill="rgb(0,132,255)" stroke="rgb(0,132,255)" stroke-width="1" opacity="1" d="M 120.5 5 L 124 5.5 L 120.5 6 L 120.5 5 Z "></path><path fill="rgb(0,132,255)" stroke="rgb(0,132,255)" stroke-width="1" opacity="1" d="M 83.5 13 L 88 13.5 L 83.5 14 L 83.5 13 Z "></path><path fill="rgb(0,132,255)" stroke="rgb(0,132,255)" stroke-width="1" opacity="1" d="M 101.5 14 L 105 14.5 L 101.5 15 L 101.5 14 Z "></path><path fill="rgb(0,132,255)" stroke="rgb(0,132,255)" stroke-width="1" opacity="1" d="M 119.5 15 L 123 15.5 L 119.5 16 L 119.5 15 Z "></path><path fill="rgb(0,132,255)" stroke="rgb(0,132,255)" stroke-width="1" opacity="1" d="M 308.5 15 L 310.5 15 L 315 16 L 318 22.5 L 331 40.5 L 342 65.5 L 349 94.5 L 350 110.5 L 351 111.5 L 351 140.5 L 352 141.5 L 351 142.5 L 351 154.5 L 352 157.5 L 351 159.5 L 352 164.5 L 351 168.5 L 351 170.5 Q 349.8 175.2 352 176.5 Q 348.5 178 351 179.5 L 349 182.5 L 349 186.5 L 350 188.5 L 349 190.5 L 350 192.5 L 350 194.5 L 349 196.5 L 350 199.5 L 349 203.5 L 350 206.5 L 349 211.5 L 349 213.5 L 350 219.5 L 346 242.5 L 336 266 Q 333 264.8 334 268.5 L 328 282.5 L 325 285.5 L 324 292 Q 321 290.8 322 294.5 L 312 311 L 310 311.5 L 310.5 313 L 305.5 317 L 301.5 322 L 298 323 L 295.5 327 L 271.5 344 L 252.5 353 L 231.5 359 L 224.5 359 L 208.5 362 L 197.5 362 Q 195.2 358.3 188.5 359 L 186 360 Q 187.1 362.7 184.5 362 L 169.5 365 Q 168.2 362.7 163.5 364 L 161.5 364 Q 156 362.5 154.5 365 L 148.5 365 L 99.5 365 L 98.5 364 L 83.5 364 L 76.5 362 L 74.5 362 L 57.5 360 L 47 352.5 L 48 338.5 L 51.5 319 L 52 321 L 62 319 L 53 282.5 L 53 244.5 L 56 243 Q 54.7 239.7 59.5 241 L 62 240 Q 60.6 236 67.5 238 L 76.5 234 L 78.5 234 L 126.5 233 L 154.5 228 L 187.5 214 Q 206.8 202.8 221 186.5 Q 229.6 176.1 234 161.5 L 238 139.5 L 238 118.5 L 237 117.5 L 237 109.5 L 236 108.5 L 235 97.5 L 226 70.5 Q 215.7 46.3 198 29.5 L 243.5 22 L 244.5 23 L 261.5 23 L 262.5 24 L 272 24 L 272 18 L 279.5 18 L 280.5 17 L 307.5 16 L 308.5 15 Z "></path></svg>