<svg width="400" height="400" version="1.1" xmlns="http://www.w3.org/2000/svg" desc="Created with imagetracer.js version 1.2.5"><path fill="rgb(55,99,94)" stroke="rgb(55,99,94)" stroke-width="1" opacity="0.9921568627450981" d="M 24.5 0 L 28.5 1 L 30.5 1 L 41 6 Q 39.9 8.7 42.5 8 L 45 12 Q 47.7 10.9 47 13.5 Q 53.7 20.4 56 31 L 65.5 26 L 71.5 25 L 79.5 28 L 82 30.5 Q 81.2 33.1 84.5 32 L 88 34 L 97 47.5 Q 101 54.5 102 64.5 L 101 68.5 L 101 70.5 L 99 77.5 L 101 79.5 L 101 105 L 106.5 107 L 122.5 98 L 134.5 102 L 136.5 102 L 138.5 103 Q 139.9 100.4 144.5 101 L 146 102.5 L 146 130.5 L 147 131.5 L 142.5 137 L 96.5 163 L 93 160.5 Q 93.7 154.3 89.5 153 Q 88 155.5 86.5 152 Q 73.2 145.3 63 135.5 L 65 134.5 L 55.5 129 L 53 129 Q 54.1 126.3 51.5 127 L 24.5 111 L 18 109 Q 19.1 106.3 16.5 107 L 7 100.5 L 7 58.5 L 9.5 56 L 10.5 57 L 13.5 54 L 19 52 L 13 43.5 L 8 32.5 Q 5.5 25 7 13.5 L 12.5 6 L 24.5 0 Z M 49 53 L 50 58 L 51 58 Q 53 52 49 53 Z M 49 56 L 47 58 L 49 58 L 49 56 Z M 47 58 L 45 60 L 47 60 L 47 58 Z M 37 62 L 38 64 L 41 63 L 37 62 Z M 42 65 L 42 66 L 44 66 L 42 65 Z M 55 65 L 55 69 L 56 69 L 55 65 Z M 45 66 Q 43 69 46 68 L 45 66 Z M 47 68 L 49 70 L 50 70 L 47 68 Z M 51 70 L 52 72 L 53 72 L 51 70 Z M 61 74 L 58 76 L 62 77 L 61 74 Z M 35 83 L 36 86 L 36 97 L 39 97 L 51 105 L 52 105 L 52 109 Q 55 110 57 107 L 57 109 L 64 112 L 65 112 L 65 99 L 35 83 Z M 94 101 L 94 102 L 96 102 L 94 101 Z M 91 102 L 91 103 L 93 103 L 91 102 Z M 88 103 L 88 105 L 90 104 L 88 103 Z M 99 103 L 100 105 Q 101 102 99 103 Z M 86 106 L 84 109 L 86 108 L 86 106 Z M 104 107 L 102 108 L 102 109 L 105 108 L 104 107 Z M 141 107 L 134 111 Q 131 110 132 113 L 128 114 L 125 117 L 98 131 L 99 157 L 133 137 Q 135 138 134 135 L 142 131 L 141 130 L 141 107 Z M 84 109 L 82 111 L 83 113 L 84 111 L 84 109 Z M 97 111 L 95 112 L 95 113 L 98 112 L 97 111 Z M 82 113 L 81 117 L 82 117 L 82 113 Z M 90 115 L 89 117 L 91 116 L 90 115 Z M 81 117 L 80 123 L 81 123 L 81 117 Z M 84 120 L 81 124 L 83 126 L 84 122 L 84 120 Z M 82 130 L 82 132 L 79 134 Q 76 133 77 136 L 69 139 L 85 149 L 87 151 Q 82 146 84 135 L 84 133 L 85 131 L 82 130 Z "></path><path fill="rgb(55,99,94)" stroke="rgb(55,99,94)" stroke-width="1" opacity="0.9921568627450981" d="M 126.5 23 L 132 31.5 L 140 60.5 L 141 69.5 L 143 72.5 L 139 74 L 140 67.5 L 133 39.5 L 126.5 23 Z "></path><path fill="rgb(55,99,94)" stroke="rgb(55,99,94)" stroke-width="1" opacity="0.9921568627450981" d="M 146 36 L 152 39.5 L 149.5 38 Q 147.3 37.3 148 39.5 L 153 55.5 L 156 73.5 L 158 77.5 L 154 74.5 L 155 72.5 L 146 36 Z "></path><path fill="rgb(55,99,94)" stroke="rgb(55,99,94)" stroke-width="1" opacity="0.9921568627450981" d="M 153.5 40 L 155.5 43 L 153.5 40 Z "></path><path fill="rgb(55,99,94)" stroke="rgb(55,99,94)" stroke-width="1" opacity="0.9921568627450981" d="M 158.5 44 L 159.5 46 L 158.5 44 Z "></path><path fill="rgb(55,99,94)" stroke="rgb(55,99,94)" stroke-width="1" opacity="0.9921568627450981" d="M 169.5 52 L 170.5 54 L 169.5 52 Z "></path><path fill="rgb(55,99,94)" stroke="rgb(55,99,94)" stroke-width="1" opacity="0.9921568627450981" d="M 172.5 54 L 173.5 56 L 172.5 54 Z "></path><path fill="rgb(55,99,94)" stroke="rgb(55,99,94)" stroke-width="1" opacity="0.9921568627450981" d="M 176.5 57 L 177.5 59 L 176.5 57 Z "></path><path fill="rgb(55,99,94)" stroke="rgb(55,99,94)" stroke-width="1" opacity="0.9921568627450981" d="M 179.5 59 L 180.5 61 L 179.5 59 Z "></path><path fill="rgb(55,99,94)" stroke="rgb(55,99,94)" stroke-width="1" opacity="0.9921568627450981" d="M 105.5 65 L 106.5 67 L 105.5 65 Z "></path><path fill="rgb(55,99,94)" stroke="rgb(55,99,94)" stroke-width="1" opacity="0.9921568627450981" d="M 188.5 65 L 189.5 67 L 188.5 65 Z "></path><path fill="rgb(55,99,94)" stroke="rgb(55,99,94)" stroke-width="1" opacity="0.9921568627450981" d="M 213 81 Q 217.6 79.8 219 82.5 L 220 84.5 L 220 158.5 Q 222.3 159.8 221 164.5 L 218 166.5 Q 218.8 164.3 216.5 165 L 214 162.5 Q 215.3 157.8 213 156.5 L 213 95.5 L 211 93.5 L 213 90.5 L 213 81 Z "></path><path fill="rgb(55,99,94)" stroke="rgb(55,99,94)" stroke-width="1" opacity="0.9921568627450981" d="M 229.5 90 L 230.5 92 L 229.5 90 Z "></path><path fill="rgb(55,99,94)" stroke="rgb(55,99,94)" stroke-width="1" opacity="0.9921568627450981" d="M 244.5 100 L 245.5 102 L 244.5 100 Z "></path><path fill="rgb(55,99,94)" stroke="rgb(55,99,94)" stroke-width="1" opacity="0.9921568627450981" d="M 281.5 122 L 282.5 124 L 281.5 122 Z "></path><path fill="rgb(55,99,94)" stroke="rgb(55,99,94)" stroke-width="1" opacity="0.9921568627450981" d="M 287.5 126 L 288.5 128 L 287.5 126 Z "></path><path fill="rgb(55,99,94)" stroke="rgb(55,99,94)" stroke-width="1" opacity="0.9921568627450981" d="M 33.5 130 L 39.5 133 L 60.5 150 L 92 170.5 L 90.5 171 L 85.5 169 L 62.5 153 L 34.5 132 L 33.5 130 Z "></path><path fill="rgb(55,99,94)" stroke="rgb(55,99,94)" stroke-width="1" opacity="0.9921568627450981" d="M 296.5 132 L 297.5 134 L 296.5 132 Z "></path><path fill="rgb(55,99,94)" stroke="rgb(55,99,94)" stroke-width="1" opacity="0.9921568627450981" d="M 80.5 134 L 83 135.5 L 78.5 136 L 78.5 135 L 80.5 134 Z "></path><path fill="rgb(55,99,94)" stroke="rgb(55,99,94)" stroke-width="1" opacity="0.9921568627450981" d="M 103.5 163 L 105.5 163 L 116.5 171 L 144.5 187 L 165 202.5 L 164.5 204 L 155.5 196 L 115.5 172 L 103.5 164 L 103.5 163 Z "></path><path fill="rgb(55,99,94)" stroke="rgb(55,99,94)" stroke-width="1" opacity="0.9921568627450981" d="M 147.5 172 L 148.5 174 L 147.5 172 Z "></path><path fill="rgb(55,99,94)" stroke="rgb(55,99,94)" stroke-width="1" opacity="0.9921568627450981" d="M 151.5 176 L 152.5 178 L 151.5 176 Z "></path><path fill="rgb(55,99,94)" stroke="rgb(55,99,94)" stroke-width="1" opacity="0.9921568627450981" d="M 158.5 182 L 159.5 184 L 158.5 182 Z "></path><path fill="rgb(55,99,94)" stroke="rgb(55,99,94)" stroke-width="1" opacity="0.9921568627450981" d="M 164.5 187 L 165.5 189 L 164.5 187 Z "></path><path fill="rgb(55,99,94)" stroke="rgb(55,99,94)" stroke-width="1" opacity="0.9921568627450981" d="M 172.5 194 L 173.5 196 L 172.5 194 Z "></path><path fill="rgb(55,99,94)" stroke="rgb(55,99,94)" stroke-width="1" opacity="0.9921568627450981" d="M 146.5 205 L 159.5 216 L 165.5 217 L 169 213.5 Q 168 208 171.5 207 L 170 209.5 Q 171.3 216.8 166.5 218 L 160.5 218 L 149 209.5 L 146.5 205 Z "></path><path fill="rgb(55,99,94)" stroke="rgb(55,99,94)" stroke-width="1" opacity="0.9921568627450981" d="M 351.5 267 L 382 285.5 L 380.5 285 L 353.5 270 L 351.5 267 Z "></path><path fill="rgb(55,99,94)" stroke="rgb(55,99,94)" stroke-width="1" opacity="0.9921568627450981" d="M 386.5 288 L 390.5 293 L 386.5 288 Z "></path><path fill="rgb(55,99,94)" stroke="rgb(55,99,94)" stroke-width="1" opacity="0.9921568627450981" d="M 392.5 293 L 394.5 296 L 392.5 293 Z "></path><path fill="rgb(55,99,94)" stroke="rgb(55,99,94)" stroke-width="1" opacity="0.9921568627450981" d="M 396.5 296 L 397.5 298 L 396.5 296 Z "></path><path fill="rgb(55,99,94)" stroke="rgb(55,99,94)" stroke-width="1" opacity="0.9921568627450981" d="M 368.5 313 L 371.5 317 L 368.5 313 Z "></path><path fill="rgb(55,99,94)" stroke="rgb(55,99,94)" stroke-width="1" opacity="0.9921568627450981" d="M 399.5 318 L 397.5 321 L 399.5 318 Z "></path><path fill="rgb(55,99,94)" stroke="rgb(55,99,94)" stroke-width="1" opacity="0.9921568627450981" d="M 163.5 349 L 177 360.5 L 180 366.5 L 179 366.5 Q 177.4 359.6 171.5 357 L 163 350.5 L 163.5 349 Z "></path><path fill="rgb(55,99,94)" stroke="rgb(55,99,94)" stroke-width="1" opacity="0.9921568627450981" d="M 146.5 377 L 147.5 379 L 146.5 377 Z "></path><path fill="rgb(12,139,209)" stroke="rgb(12,139,209)" stroke-width="1" opacity="0.1607843137254902" d="M 44.5 0 L 51.5 0 L 67.5 5 L 73.5 5 L 89.5 10 L 93.5 10 L 118.5 18 L 126 22.5 L 124.5 22 L 87.5 10 L 78.5 9 L 48.5 1 L 44.5 1 L 44.5 0 Z "></path><path fill="rgb(12,139,209)" stroke="rgb(12,139,209)" stroke-width="1" opacity="0.1607843137254902" d="M 0 22 L 7 24.5 L 6.5 26 Q 4.5 23.2 0 24 L 0 22 Z "></path><path fill="rgb(12,139,209)" stroke="rgb(12,139,209)" stroke-width="1" opacity="0.1607843137254902" d="M 9.5 38 L 10.5 40 L 9.5 38 Z "></path><path fill="rgb(12,139,209)" stroke="rgb(12,139,209)" stroke-width="1" opacity="0.1607843137254902" d="M 11.5 41 L 13 44.5 L 12 44.5 L 11.5 41 Z "></path><path fill="rgb(12,139,209)" stroke="rgb(12,139,209)" stroke-width="1" opacity="0.1607843137254902" d="M 16.5 49 L 19 50.5 L 17 51.5 L 16.5 49 Z "></path><path fill="rgb(12,139,209)" stroke="rgb(12,139,209)" stroke-width="1" opacity="0.1607843137254902" d="M 102 66 L 139 72 L 140 76 L 136.5 78 L 131.5 78 L 101 72.5 L 102 66 Z "></path><path fill="rgb(12,139,209)" stroke="rgb(12,139,209)" stroke-width="1" opacity="0.1607843137254902" d="M 101.5 74 L 101 75.5 L 102 79.5 L 101 79.5 L 100 75.5 L 101.5 74 Z "></path><path fill="rgb(12,139,209)" stroke="rgb(12,139,209)" stroke-width="1" opacity="0.1607843137254902" d="M 158.5 75 L 184.5 82 Q 196 89 210.5 93 L 213 95.5 Q 215.6 102.8 209.5 101 L 207.5 99 L 192.5 94 L 184.5 89 L 167.5 85 L 160 82 L 158 78.5 L 158.5 75 Z "></path><path fill="rgb(12,139,209)" stroke="rgb(12,139,209)" stroke-width="1" opacity="0.1607843137254902" d="M 101.5 81 L 102.5 83 L 101.5 81 Z "></path><path fill="rgb(12,139,209)" stroke="rgb(12,139,209)" stroke-width="1" opacity="0.1607843137254902" d="M 104.5 84 L 105.5 86 L 104.5 84 Z "></path><path fill="rgb(12,139,209)" stroke="rgb(12,139,209)" stroke-width="1" opacity="0.1607843137254902" d="M 106.5 87 L 107 93 L 110 93.5 L 106 94 L 106.5 87 Z "></path><path fill="rgb(12,139,209)" stroke="rgb(12,139,209)" stroke-width="1" opacity="0.1607843137254902" d="M 118.5 94 L 123 94.5 L 118.5 95 L 118.5 94 Z "></path><path fill="rgb(12,139,209)" stroke="rgb(12,139,209)" stroke-width="1" opacity="0.1607843137254902" d="M 220.5 97 L 237.5 104 L 264.5 120 Q 282.6 131.4 297 146.5 Q 296.3 148.8 298.5 148 L 309 158.5 L 327 184.5 L 341 214.5 L 347 230.5 L 351 266.5 L 350 266.5 L 348 256.5 L 348 254.5 Q 348.9 246.1 346 241.5 L 346 239.5 L 345 233.5 L 345 231.5 L 345 228.5 L 340 218.5 L 340 215.5 L 338 213.5 L 325 183.5 Q 316 174.5 310 162.5 L 294.5 146 Q 279.8 131.2 261.5 120 L 220 105 L 220.5 97 Z "></path><path fill="rgb(12,139,209)" stroke="rgb(12,139,209)" stroke-width="1" opacity="0.1607843137254902" d="M 6.5 101 L 7.5 103 L 6.5 101 Z "></path><path fill="rgb(12,139,209)" stroke="rgb(12,139,209)" stroke-width="1" opacity="0.1607843137254902" d="M 0.5 116 L 2.5 117 L 7.5 116 L 8.5 117 L 25.5 118 L 26.5 119 L 28.5 118 L 33 119 Q 34.3 122 30.5 121 L 21.5 119 L 0 118 L 0.5 116 Z "></path><path fill="rgb(12,139,209)" stroke="rgb(12,139,209)" stroke-width="1" opacity="0.1607843137254902" d="M 31.5 116 L 32.5 118 L 31.5 116 Z "></path><path fill="rgb(12,139,209)" stroke="rgb(12,139,209)" stroke-width="1" opacity="0.1607843137254902" d="M 160.5 133 L 159.5 135 L 160.5 133 Z "></path><path fill="rgb(12,139,209)" stroke="rgb(12,139,209)" stroke-width="1" opacity="0.1607843137254902" d="M 169.5 135 L 179 139.5 L 177.5 140 L 169.5 136 L 169.5 135 Z "></path><path fill="rgb(12,139,209)" stroke="rgb(12,139,209)" stroke-width="1" opacity="0.1607843137254902" d="M 331.5 136 L 345 147.5 L 346.5 150 L 349 151.5 L 369 176.5 L 381 196.5 Q 381.5 203 385 206.5 L 390 222.5 L 390 226.5 L 395 245.5 L 400 294.5 L 398.5 298 L 398 281.5 L 396 274.5 L 396 265.5 L 395 264.5 L 393 243.5 L 383 205.5 L 377 192.5 L 364 172.5 L 342 146 L 340.5 146 L 331.5 136 Z "></path><path fill="rgb(12,139,209)" stroke="rgb(12,139,209)" stroke-width="1" opacity="0.1607843137254902" d="M 180.5 140 L 183 141.5 L 181.5 141 L 180.5 140 Z "></path><path fill="rgb(12,139,209)" stroke="rgb(12,139,209)" stroke-width="1" opacity="0.1607843137254902" d="M 190.5 145 L 194 147.5 L 192.5 147 L 190.5 145 Z "></path><path fill="rgb(12,139,209)" stroke="rgb(12,139,209)" stroke-width="1" opacity="0.1607843137254902" d="M 0 148 L 22.5 149 L 44.5 153 L 73.5 162 L 85 168.5 L 83.5 168 L 65.5 161 L 51.5 158 L 46.5 155 L 24.5 151 L 2.5 150 L 1.5 149 L 0 149.5 L 0 148 Z "></path><path fill="rgb(12,139,209)" stroke="rgb(12,139,209)" stroke-width="1" opacity="0.1607843137254902" d="M 197.5 149 L 198.5 151 L 197.5 149 Z "></path><path fill="rgb(12,139,209)" stroke="rgb(12,139,209)" stroke-width="1" opacity="0.1607843137254902" d="M 186.5 151 L 187.5 153 L 186.5 151 Z "></path><path fill="rgb(12,139,209)" stroke="rgb(12,139,209)" stroke-width="1" opacity="0.1607843137254902" d="M 200.5 151 L 201.5 153 L 200.5 151 Z "></path><path fill="rgb(12,139,209)" stroke="rgb(12,139,209)" stroke-width="1" opacity="0.1607843137254902" d="M 126.5 153 L 128 153.5 L 126 154.5 L 133 159.5 L 131.5 159 L 124 156 Q 122.9 153.3 125.5 154 L 126.5 153 Z "></path><path fill="rgb(12,139,209)" stroke="rgb(12,139,209)" stroke-width="1" opacity="0.1607843137254902" d="M 203.5 153 L 204.5 155 L 203.5 153 Z "></path><path fill="rgb(12,139,209)" stroke="rgb(12,139,209)" stroke-width="1" opacity="0.1607843137254902" d="M 193.5 155 L 194.5 157 L 193.5 155 Z "></path><path fill="rgb(12,139,209)" stroke="rgb(12,139,209)" stroke-width="1" opacity="0.1607843137254902" d="M 206.5 155 L 208.5 158 L 206.5 155 Z "></path><path fill="rgb(12,139,209)" stroke="rgb(12,139,209)" stroke-width="1" opacity="0.1607843137254902" d="M 196.5 157 L 197.5 159 L 196.5 157 Z "></path><path fill="rgb(12,139,209)" stroke="rgb(12,139,209)" stroke-width="1" opacity="0.1607843137254902" d="M 199.5 159 L 200.5 161 L 199.5 159 Z "></path><path fill="rgb(12,139,209)" stroke="rgb(12,139,209)" stroke-width="1" opacity="0.1607843137254902" d="M 211.5 159 L 214 160.5 L 212.5 161 L 211.5 159 Z "></path><path fill="rgb(12,139,209)" stroke="rgb(12,139,209)" stroke-width="1" opacity="0.1607843137254902" d="M 202.5 161 L 204.5 164 L 202.5 161 Z "></path><path fill="rgb(12,139,209)" stroke="rgb(12,139,209)" stroke-width="1" opacity="0.1607843137254902" d="M 206.5 164 L 208.5 167 L 206.5 164 Z "></path><path fill="rgb(12,139,209)" stroke="rgb(12,139,209)" stroke-width="1" opacity="0.1607843137254902" d="M 180.5 200 L 193 214.5 L 206 245.5 L 206 249.5 L 209 257.5 L 209 269.5 L 211 275.5 L 212 289.5 L 211 291.5 L 212 296.5 L 211 297.5 L 210 311.5 Q 206.1 319.6 205 330.5 L 196 348.5 L 196 351.5 L 190 366.5 L 182.5 377 L 181 376.5 L 189 364.5 L 204 327.5 L 209 306.5 L 210 281.5 L 208 273.5 L 207 255.5 L 197 228.5 L 197 225.5 L 191 214.5 L 181 202.5 L 180.5 200 Z "></path><path fill="rgb(12,139,209)" stroke="rgb(12,139,209)" stroke-width="1" opacity="0.1607843137254902" d="M 147.5 211 L 148 213 L 151 212.5 L 150.5 211 L 153 212 Q 156.8 223.3 166 230.5 L 177 258.5 L 178 272.5 L 180 279.5 L 180 299.5 L 173 325.5 L 169 332.5 L 163.5 348 L 163 344.5 L 174 315.5 L 178 300.5 Q 176.7 293.7 179 290.5 L 178 285.5 L 179 283.5 L 177 277.5 L 177 268.5 L 174 253.5 L 172 251.5 L 169 239.5 L 163 230 L 160 228.5 L 158 224 L 155 222.5 L 151 215 L 147 212.5 L 147.5 211 Z "></path><path fill="rgb(12,139,209)" stroke="rgb(12,139,209)" stroke-width="1" opacity="0.1607843137254902" d="M 350.5 303 L 351 318.5 L 350 319.5 L 350 326.5 L 348 333.5 L 346 351.5 L 340 379.5 L 338 385.5 L 326.5 400 L 325 399.5 L 338 381.5 L 338 377.5 L 340 373.5 L 342 365.5 L 342 359.5 L 344 354.5 L 344 348.5 L 347 336.5 L 350 311.5 L 349 307.5 L 350.5 303 Z "></path><path fill="rgb(12,139,209)" stroke="rgb(12,139,209)" stroke-width="1" opacity="0.1607843137254902" d="M 399.5 319 L 400 364.5 L 398 368 L 396 368 L 396 371 L 394 371 L 394 374 Q 391.3 372.9 392 375.5 L 389 377 L 389 380 L 387 380 Q 388.3 384.1 385 383 L 385 388.5 Q 383.8 396.3 378.5 400 L 376 399.5 L 380 396.5 L 383 390.5 L 383 385.5 L 386 375.5 L 397 353.5 L 398 348.5 L 398 320.5 L 399.5 319 Z "></path><path fill="rgb(12,139,209)" stroke="rgb(12,139,209)" stroke-width="1" opacity="0.1607843137254902" d="M 140.5 375 L 143 375.5 L 117.5 400 L 116 400 L 118.5 396 L 132 385 L 132 383.5 L 140.5 375 Z "></path><path fill="rgb(12,139,209)" stroke="rgb(12,139,209)" stroke-width="1" opacity="0.1607843137254902" d="M 175.5 387 Q 177.8 386.3 177 388.5 L 173 400 L 166 400 L 166 397.5 L 170 389 L 175.5 387 Z "></path><path fill="rgb(253,5,24)" stroke="rgb(253,5,24)" stroke-width="1" opacity="0.41568627450980394" d="M 102.5 0 L 129 21.5 Q 129.8 24.1 126.5 23 L 121.5 16 L 102.5 1 L 102.5 0 Z "></path><path fill="rgb(253,5,24)" stroke="rgb(253,5,24)" stroke-width="1" opacity="0.41568627450980394" d="M 151.5 0 L 157 4.5 L 154.5 3 L 151.5 0 Z "></path><path fill="rgb(253,5,24)" stroke="rgb(253,5,24)" stroke-width="1" opacity="0.41568627450980394" d="M 158.5 5 L 185 26.5 L 182.5 25 L 162.5 10 L 158.5 5 Z "></path><path fill="rgb(253,5,24)" stroke="rgb(253,5,24)" stroke-width="1" opacity="0.41568627450980394" d="M 186.5 27 L 232 57.5 L 230.5 57 L 195.5 35 L 188.5 30 L 186.5 27 Z "></path><path fill="rgb(253,5,24)" stroke="rgb(253,5,24)" stroke-width="1" opacity="0.41568627450980394" d="M 233.5 58 L 243.5 63 L 271.5 82 L 286.5 89 L 317.5 111 Q 325.3 112.7 330 117.5 Q 334 121.5 334 129.5 L 331.5 136 L 331 133.5 L 333 127.5 Q 331.8 119.7 326.5 116 L 317.5 112 L 286.5 90 L 271.5 83 L 243.5 64 L 234.5 60 L 233.5 58 Z "></path><path fill="rgb(253,5,24)" stroke="rgb(253,5,24)" stroke-width="1" opacity="0.41568627450980394" d="M 141.5 73 L 144 74 L 146 86.5 L 146 101 L 142 100 L 143 95.5 L 142 91.5 L 142 89.5 Q 143.8 79.2 140 74.5 L 141.5 73 Z "></path><path fill="rgb(253,5,24)" stroke="rgb(253,5,24)" stroke-width="1" opacity="0.41568627450980394" d="M 154 76 L 158 78.5 L 157 79.5 L 157 91.5 L 157 95.5 L 158 99.5 L 157 100.5 L 157 114.5 L 156 115.5 Q 157.3 123.7 155 128.5 L 156 131 L 152 129.5 L 153 113.5 L 154 112.5 L 154 76 Z "></path><path fill="rgb(253,5,24)" stroke="rgb(253,5,24)" stroke-width="1" opacity="0.41568627450980394" d="M 158.5 135 L 159 137 L 157 136.5 L 158.5 135 Z "></path><path fill="rgb(253,5,24)" stroke="rgb(253,5,24)" stroke-width="1" opacity="0.41568627450980394" d="M 164.5 141 L 174 145 L 176.5 149 Q 190.4 162.1 209 170.5 L 205.5 173 L 183.5 159 L 169.5 147 L 164.5 141 Z "></path><path fill="rgb(253,5,24)" stroke="rgb(253,5,24)" stroke-width="1" opacity="0.41568627450980394" d="M 129.5 152 L 134 159.5 L 131 157.5 L 129.5 152 Z "></path><path fill="rgb(253,5,24)" stroke="rgb(253,5,24)" stroke-width="1" opacity="0.41568627450980394" d="M 221.5 166 L 222 168.5 L 221 168.5 L 221.5 166 Z "></path><path fill="rgb(253,5,24)" stroke="rgb(253,5,24)" stroke-width="1" opacity="0.41568627450980394" d="M 211.5 168 L 210.5 170 L 211.5 168 Z "></path><path fill="rgb(253,5,24)" stroke="rgb(253,5,24)" stroke-width="1" opacity="0.41568627450980394" d="M 90.5 171 L 132.5 194 L 149 208.5 L 150 210.5 L 143.5 205 L 91.5 173 L 90.5 171 Z "></path><path fill="rgb(253,5,24)" stroke="rgb(253,5,24)" stroke-width="1" opacity="0.41568627450980394" d="M 218.5 171 L 216.5 174 L 218.5 171 Z "></path><path fill="rgb(253,5,24)" stroke="rgb(253,5,24)" stroke-width="1" opacity="0.41568627450980394" d="M 214.5 174 L 216.5 177 Q 237.5 191.5 255.5 209 L 277 223.5 L 275.5 223 L 241.5 201 L 217.5 181 L 212 178 L 214.5 174 Z "></path><path fill="rgb(253,5,24)" stroke="rgb(253,5,24)" stroke-width="1" opacity="0.41568627450980394" d="M 181.5 200 L 189 204.5 L 187.5 204 Q 181.9 203.2 181.5 200 Z "></path><path fill="rgb(253,5,24)" stroke="rgb(253,5,24)" stroke-width="1" opacity="0.41568627450980394" d="M 192.5 206 L 223 224.5 L 221.5 224 L 194.5 209 L 192.5 206 Z "></path><path fill="rgb(253,5,24)" stroke="rgb(253,5,24)" stroke-width="1" opacity="0.41568627450980394" d="M 224.5 225 L 264 250.5 L 262.5 250 L 238.5 236 L 225.5 227 L 224.5 225 Z "></path><path fill="rgb(253,5,24)" stroke="rgb(253,5,24)" stroke-width="1" opacity="0.41568627450980394" d="M 280.5 225 L 303 238.5 L 301.5 238 L 281.5 227 L 280.5 225 Z "></path><path fill="rgb(253,5,24)" stroke="rgb(253,5,24)" stroke-width="1" opacity="0.41568627450980394" d="M 0.5 231 L 32.5 253 L 33.5 250 L 47.5 262 L 122.5 318 L 146.5 338 L 163 348.5 L 162 351 Q 131 330.2 103.5 305 L 57.5 273 L 36.5 256 L 27.5 251 L 7.5 236 L 2.5 234 L 0.5 231 Z "></path><path fill="rgb(253,5,24)" stroke="rgb(253,5,24)" stroke-width="1" opacity="0.41568627450980394" d="M 304.5 239 L 351 267.5 L 349.5 268 L 314.5 245 L 307.5 242 L 304.5 239 Z "></path><path fill="rgb(253,5,24)" stroke="rgb(253,5,24)" stroke-width="1" opacity="0.41568627450980394" d="M 265.5 251 L 290 265.5 L 288.5 265 L 284.5 264 L 266.5 253 L 265.5 251 Z "></path><path fill="rgb(253,5,24)" stroke="rgb(253,5,24)" stroke-width="1" opacity="0.41568627450980394" d="M 0.5 267 L 1.5 269 L 0.5 267 Z "></path><path fill="rgb(253,5,24)" stroke="rgb(253,5,24)" stroke-width="1" opacity="0.41568627450980394" d="M 295.5 268 L 319 283.5 L 317.5 283 L 296.5 270 L 295.5 268 Z "></path><path fill="rgb(253,5,24)" stroke="rgb(253,5,24)" stroke-width="1" opacity="0.41568627450980394" d="M 3.5 269 L 31.5 291 L 86.5 329 L 99.5 341 L 143 374.5 L 141.5 374 L 133.5 369 L 71.5 319 L 31.5 292 L 5.5 272 L 3.5 269 Z "></path><path fill="rgb(253,5,24)" stroke="rgb(253,5,24)" stroke-width="1" opacity="0.41568627450980394" d="M 320.5 284 L 330 290.5 L 328.5 290 Q 322 288.3 320.5 284 Z "></path><path fill="rgb(253,5,24)" stroke="rgb(253,5,24)" stroke-width="1" opacity="0.41568627450980394" d="M 331.5 291 L 338 295.5 L 336.5 295 Q 331.9 294.2 331.5 291 Z "></path><path fill="rgb(253,5,24)" stroke="rgb(253,5,24)" stroke-width="1" opacity="0.41568627450980394" d="M 339.5 296 L 351 302.5 L 349.5 303 L 340.5 298 L 339.5 296 Z "></path><path fill="rgb(253,5,24)" stroke="rgb(253,5,24)" stroke-width="1" opacity="0.41568627450980394" d="M 399.5 317 L 398.5 319 L 399.5 317 Z "></path><path fill="rgb(253,5,24)" stroke="rgb(253,5,24)" stroke-width="1" opacity="0.41568627450980394" d="M 180.5 377 L 181 379.5 L 173.5 388 L 178 382.5 L 180.5 377 Z "></path><path fill="rgb(246,8,1)" stroke="rgb(246,8,1)" stroke-width="1" opacity="0.01568627450980392" d="M 101.5 0 L 125 19.5 Q 125.8 21.8 123.5 21 L 119 17.5 Q 119.8 15.3 117.5 16 L 116 13 L 111 9.5 L 111 8 L 108 8 Q 109.1 5.3 106.5 6 L 101.5 0 Z "></path><path fill="rgb(246,8,1)" stroke="rgb(246,8,1)" stroke-width="1" opacity="0.01568627450980392" d="M 152.5 0 Q 170.8 11.2 185.5 26 L 206.5 39 L 210.5 43 L 219.5 47 L 229.5 55 L 245.5 63 L 270.5 80 L 288.5 89 L 319.5 111 L 327.5 114 L 332 118.5 L 335 125.5 L 335 129.5 L 332.5 136 L 332 134.5 L 334 126.5 Q 332.8 119.8 328.5 116 L 317.5 111 L 294.5 94 L 281.5 86 L 271.5 82 L 243.5 63 L 232.5 58 L 217.5 47 L 210.5 44 L 181.5 24 L 152.5 1 L 152.5 0 Z "></path><path fill="rgb(246,8,1)" stroke="rgb(246,8,1)" stroke-width="1" opacity="0.01568627450980392" d="M 138.5 76 Q 141.8 74.9 141 77.5 L 142 78.5 L 142 89.5 L 143 90.5 L 142 94.5 L 143 96.5 L 140.5 101 Q 136.8 102.3 138 98.5 L 138 96.5 Q 136.8 91.7 139 90.5 L 138 87.5 L 138 85.5 L 137 77.5 L 138.5 76 Z "></path><path fill="rgb(246,8,1)" stroke="rgb(246,8,1)" stroke-width="1" opacity="0.01568627450980392" d="M 157 79 L 160 80.5 L 162 83.5 L 161 85.5 L 162 87.5 L 161 89.5 L 162 90.5 L 162 102.5 L 161 104.5 L 162 106.5 L 161 107.5 L 161 117.5 L 159 125.5 L 161.5 132 L 163 132.5 L 160.5 133 L 156 130.5 L 155 126.5 L 156 125.5 L 157 100.5 L 158 97.5 L 157 95.5 L 157 91.5 L 157 79 Z "></path><path fill="rgb(246,8,1)" stroke="rgb(246,8,1)" stroke-width="1" opacity="0.01568627450980392" d="M 174.5 146 Q 186.5 150 194.5 158 L 199 159 L 199 161 L 202 161 Q 200.9 163.7 203.5 163 L 211 168.5 Q 210.3 170.8 206.5 170 L 187.5 158 L 176.5 149 L 174.5 146 Z "></path><path fill="rgb(246,8,1)" stroke="rgb(246,8,1)" stroke-width="1" opacity="0.01568627450980392" d="M 128.5 152 L 131 156.5 L 129 157 L 128.5 152 Z "></path><path fill="rgb(246,8,1)" stroke="rgb(246,8,1)" stroke-width="1" opacity="0.01568627450980392" d="M 73.5 164 L 89.5 171 L 133.5 198 L 150 211.5 L 148.5 212 L 104.5 186 L 83.5 171 L 75.5 167 L 73.5 164 Z "></path><path fill="rgb(246,8,1)" stroke="rgb(246,8,1)" stroke-width="1" opacity="0.01568627450980392" d="M 217.5 173 L 224 176 Q 222.9 178.7 225.5 178 L 247 195 Q 245.9 197.7 248.5 197 Q 253.1 204.5 261 207 Q 259.9 209.7 262.5 209 L 267 212 L 267 214 Q 269.7 212.9 269 215.5 L 278.5 223 L 303.5 238 L 313.5 242 L 331.5 253 L 334 253 Q 332.8 256 336.5 255 L 344 258 L 344 260 L 347 260 Q 345.9 262.7 348.5 262 Q 350.8 262.8 350 266.5 L 346.5 264 Q 328.6 255.9 314.5 244 L 277.5 224 L 259.5 212 L 215 175.5 Q 214.3 173.3 216.5 174 L 217.5 173 Z "></path><path fill="rgb(246,8,1)" stroke="rgb(246,8,1)" stroke-width="1" opacity="0.01568627450980392" d="M 183.5 202 L 196 209.5 L 194.5 210 L 191.5 207 L 184.5 204 L 183.5 202 Z "></path><path fill="rgb(246,8,1)" stroke="rgb(246,8,1)" stroke-width="1" opacity="0.01568627450980392" d="M 197.5 210 L 228 228.5 L 226.5 228 L 199.5 213 L 197.5 210 Z "></path><path fill="rgb(246,8,1)" stroke="rgb(246,8,1)" stroke-width="1" opacity="0.01568627450980392" d="M 229.5 229 L 238.5 236 L 279 260.5 L 277.5 261 L 274.5 258 L 258.5 250 L 241.5 238 L 236.5 236 L 229.5 229 Z "></path><path fill="rgb(246,8,1)" stroke="rgb(246,8,1)" stroke-width="1" opacity="0.01568627450980392" d="M 0.5 230 L 15.5 239 L 33 252.5 L 31.5 252 L 7.5 235 L 2.5 233 L 0.5 230 Z "></path><path fill="rgb(246,8,1)" stroke="rgb(246,8,1)" stroke-width="1" opacity="0.01568627450980392" d="M 33.5 245 L 37 247 Q 35.9 249.7 38.5 249 L 43 252 Q 41.9 254.7 44.5 254 L 52 259 L 52 261 L 55 261 Q 53.9 263.7 56.5 263 L 64 268 L 64 270 L 67 270 Q 65.9 272.7 68.5 272 L 76 277 L 76 279 L 79 279 Q 77.9 281.7 80.5 281 L 88 286 L 88 288 L 91 288 Q 89.9 290.7 92.5 290 L 100 295 Q 98.9 297.7 101.5 297 L 109 302 L 109 304 L 112 304 Q 110.9 306.7 113.5 306 L 121 311 L 121 313 L 124 313 Q 122.9 315.7 125.5 315 L 130 318 L 130 320 L 133 320 L 133 322 Q 135.7 320.9 135 323.5 L 138 325 L 138 327 L 141 327 Q 139.9 329.7 142.5 329 L 147 332 L 147 334 L 150 334 Q 148.9 336.7 151.5 336 L 159 341 L 159 343 Q 162.7 341.5 162 344.5 L 163 348 L 160.5 348 L 146.5 338 L 122.5 318 L 47.5 262 L 33 249.5 L 33.5 245 Z "></path><path fill="rgb(246,8,1)" stroke="rgb(246,8,1)" stroke-width="1" opacity="0.01568627450980392" d="M 280.5 261 L 299.5 271 L 309.5 279 L 324 287.5 L 322.5 288 L 319.5 285 L 307.5 279 L 299.5 272 L 282.5 264 L 280.5 261 Z "></path><path fill="rgb(246,8,1)" stroke="rgb(246,8,1)" stroke-width="1" opacity="0.01568627450980392" d="M 0.5 268 L 34 293.5 L 32.5 294 Q 29 288.7 23 287 Q 24.1 284.3 21.5 285 L 2.5 271 L 0.5 268 Z "></path><path fill="rgb(246,8,1)" stroke="rgb(246,8,1)" stroke-width="1" opacity="0.01568627450980392" d="M 325.5 288 L 343 299.5 L 341.5 300 L 327.5 291 L 325.5 288 Z "></path><path fill="rgb(246,8,1)" stroke="rgb(246,8,1)" stroke-width="1" opacity="0.01568627450980392" d="M 35.5 294 L 87.5 331 L 109.5 350 L 142 374.5 L 140.5 375 L 129 366.5 Q 129.8 364.3 127.5 365 L 118.5 357 L 103.5 347 L 88.5 333 L 71.5 320 L 35 296 L 35.5 294 Z "></path><path fill="rgb(246,8,1)" stroke="rgb(246,8,1)" stroke-width="1" opacity="0.01568627450980392" d="M 344.5 300 L 350 303.5 L 348.5 304 L 344.5 300 Z "></path><path fill="rgb(246,8,1)" stroke="rgb(246,8,1)" stroke-width="1" opacity="0.01568627450980392" d="M 181.5 377 L 182 379.5 L 176.5 387 L 174.5 388 L 180 381.5 L 181.5 377 Z "></path><path fill="rgb(181,124,146)" stroke="rgb(181,124,146)" stroke-width="1" opacity="0.9686274509803922" d="M 37.5 4 L 40 5.5 L 38.5 5 L 37.5 4 Z "></path><path fill="rgb(181,124,146)" stroke="rgb(181,124,146)" stroke-width="1" opacity="0.9686274509803922" d="M 6.5 17 L 7 23.5 L 6 23.5 L 6.5 17 Z "></path><path fill="rgb(181,124,146)" stroke="rgb(181,124,146)" stroke-width="1" opacity="0.9686274509803922" d="M 127.5 23 L 131 25.5 L 138 45.5 L 144 71.5 L 142 72 L 132 31.5 L 127.5 23 Z "></path><path fill="rgb(181,124,146)" stroke="rgb(181,124,146)" stroke-width="1" opacity="0.9686274509803922" d="M 64.5 26 L 63.5 28 L 64.5 26 Z "></path><path fill="rgb(181,124,146)" stroke="rgb(181,124,146)" stroke-width="1" opacity="0.9686274509803922" d="M 81.5 29 L 83.5 32 Q 81.3 32.8 82 30.5 L 81.5 29 Z "></path><path fill="rgb(181,124,146)" stroke="rgb(181,124,146)" stroke-width="1" opacity="0.9686274509803922" d="M 144.5 33 L 149 36.5 L 147.5 36 Q 145.3 35.3 146 37.5 L 149 45.5 L 155 74 Q 151.7 75.3 153 70.5 L 147 44.5 L 144 37.5 L 144.5 33 Z "></path><path fill="rgb(181,124,146)" stroke="rgb(181,124,146)" stroke-width="1" opacity="0.9686274509803922" d="M 9.5 36 L 11 38.5 L 9 37.5 L 9.5 36 Z "></path><path fill="rgb(181,124,146)" stroke="rgb(181,124,146)" stroke-width="1" opacity="0.9686274509803922" d="M 150.5 37 L 152.5 40 L 150.5 37 Z "></path><path fill="rgb(181,124,146)" stroke="rgb(181,124,146)" stroke-width="1" opacity="0.9686274509803922" d="M 154.5 40 L 157.5 44 L 154.5 40 Z "></path><path fill="rgb(181,124,146)" stroke="rgb(181,124,146)" stroke-width="1" opacity="0.9686274509803922" d="M 159.5 44 L 162.5 48 L 159.5 44 Z "></path><path fill="rgb(181,124,146)" stroke="rgb(181,124,146)" stroke-width="1" opacity="0.9686274509803922" d="M 16.5 48 L 17.5 50 L 16.5 48 Z "></path><path fill="rgb(181,124,146)" stroke="rgb(181,124,146)" stroke-width="1" opacity="0.9686274509803922" d="M 164.5 48 L 165.5 50 L 164.5 48 Z "></path><path fill="rgb(181,124,146)" stroke="rgb(181,124,146)" stroke-width="1" opacity="0.9686274509803922" d="M 167.5 50 L 168.5 52 L 167.5 50 Z "></path><path fill="rgb(181,124,146)" stroke="rgb(181,124,146)" stroke-width="1" opacity="0.9686274509803922" d="M 13.5 53 L 15 53.5 L 10.5 57 L 13.5 53 Z "></path><path fill="rgb(181,124,146)" stroke="rgb(181,124,146)" stroke-width="1" opacity="0.9686274509803922" d="M 49 53 Q 52.7 51.6 51 57.5 L 52 59.5 L 51 59.5 L 49.5 56 L 49 58 L 47 58 Q 48.1 60.7 45.5 60 L 42.5 62 L 42.5 61 L 49 55.5 L 49 53 Z "></path><path fill="rgb(181,124,146)" stroke="rgb(181,124,146)" stroke-width="1" opacity="0.9686274509803922" d="M 174.5 55 L 175.5 57 L 174.5 55 Z "></path><path fill="rgb(181,124,146)" stroke="rgb(181,124,146)" stroke-width="1" opacity="0.9686274509803922" d="M 7.5 57 L 7 58.5 L 7 100.5 L 9.5 103 L 12 104.5 L 10.5 104 L 6 100.5 L 6 58.5 L 7.5 57 Z "></path><path fill="rgb(181,124,146)" stroke="rgb(181,124,146)" stroke-width="1" opacity="0.9686274509803922" d="M 177.5 57 L 178.5 59 L 177.5 57 Z "></path><path fill="rgb(181,124,146)" stroke="rgb(181,124,146)" stroke-width="1" opacity="0.9686274509803922" d="M 180.5 59 L 182.5 62 L 180.5 59 Z "></path><path fill="rgb(181,124,146)" stroke="rgb(181,124,146)" stroke-width="1" opacity="0.9686274509803922" d="M 52.5 61 L 54 63.5 L 52 62.5 L 52.5 61 Z "></path><path fill="rgb(181,124,146)" stroke="rgb(181,124,146)" stroke-width="1" opacity="0.9686274509803922" d="M 36.5 62 L 41 62.5 Q 38.8 63.7 41.5 65 L 43.5 65 L 55 72.5 L 53.5 73 L 44 68 Q 45.3 65 41.5 66 L 37.5 64 L 36.5 62 Z "></path><path fill="rgb(181,124,146)" stroke="rgb(181,124,146)" stroke-width="1" opacity="0.9686274509803922" d="M 186.5 63 L 187.5 65 L 186.5 63 Z "></path><path fill="rgb(181,124,146)" stroke="rgb(181,124,146)" stroke-width="1" opacity="0.9686274509803922" d="M 54.5 65 L 62 77 L 66 79.5 L 63.5 78 L 58 75.5 L 60 74.5 L 55 68.5 L 54.5 65 Z "></path><path fill="rgb(181,124,146)" stroke="rgb(181,124,146)" stroke-width="1" opacity="0.9686274509803922" d="M 101.5 65 L 102 68.5 L 101 68.5 L 101.5 65 Z "></path><path fill="rgb(181,124,146)" stroke="rgb(181,124,146)" stroke-width="1" opacity="0.9686274509803922" d="M 192.5 67 L 193.5 69 L 192.5 67 Z "></path><path fill="rgb(181,124,146)" stroke="rgb(181,124,146)" stroke-width="1" opacity="0.9686274509803922" d="M 200.5 72 L 201.5 74 L 200.5 72 Z "></path><path fill="rgb(181,124,146)" stroke="rgb(181,124,146)" stroke-width="1" opacity="0.9686274509803922" d="M 205.5 75 L 206.5 77 L 205.5 75 Z "></path><path fill="rgb(181,124,146)" stroke="rgb(181,124,146)" stroke-width="1" opacity="0.9686274509803922" d="M 99.5 76 L 101 78.5 L 99 77.5 L 99.5 76 Z "></path><path fill="rgb(181,124,146)" stroke="rgb(181,124,146)" stroke-width="1" opacity="0.9686274509803922" d="M 208.5 77 L 209.5 79 L 208.5 77 Z "></path><path fill="rgb(181,124,146)" stroke="rgb(181,124,146)" stroke-width="1" opacity="0.9686274509803922" d="M 211.5 79 L 212.5 81 L 211.5 79 Z "></path><path fill="rgb(181,124,146)" stroke="rgb(181,124,146)" stroke-width="1" opacity="0.9686274509803922" d="M 101.5 82 L 104 83 L 106 86.5 L 106 94 L 117.5 94 L 134 99 L 135 101.5 L 133.5 101 L 122.5 98 L 86.5 118 L 86.5 117 L 105 106.5 L 101 105 L 101.5 82 Z "></path><path fill="rgb(181,124,146)" stroke="rgb(181,124,146)" stroke-width="1" opacity="0.9686274509803922" d="M 35 83 L 65 99 L 65 111.5 L 63.5 112 L 57 109 L 56.5 107 Q 55.4 109.8 52 109 L 52 105 L 50.5 105 L 38.5 97 L 36 97 L 36 85.5 L 35 83 Z "></path><path fill="rgb(181,124,146)" stroke="rgb(181,124,146)" stroke-width="1" opacity="0.9686274509803922" d="M 231.5 91 L 232.5 93 L 231.5 91 Z "></path><path fill="rgb(181,124,146)" stroke="rgb(181,124,146)" stroke-width="1" opacity="0.9686274509803922" d="M 234.5 93 L 235.5 95 L 234.5 93 Z "></path><path fill="rgb(181,124,146)" stroke="rgb(181,124,146)" stroke-width="1" opacity="0.9686274509803922" d="M 237.5 95 L 238.5 97 L 237.5 95 Z "></path><path fill="rgb(181,124,146)" stroke="rgb(181,124,146)" stroke-width="1" opacity="0.9686274509803922" d="M 240.5 97 L 241.5 99 L 240.5 97 Z "></path><path fill="rgb(181,124,146)" stroke="rgb(181,124,146)" stroke-width="1" opacity="0.9686274509803922" d="M 141.5 100 L 144 100.5 L 138.5 103 L 139.5 101 L 141.5 100 Z "></path><path fill="rgb(181,124,146)" stroke="rgb(181,124,146)" stroke-width="1" opacity="0.9686274509803922" d="M 93.5 101 L 100 103 L 99.5 105 L 93.5 102 L 86 106 L 82 113.5 L 81 122.5 L 82 122.5 L 84.5 119 L 84 120.5 L 82.5 126 Q 79 124 80 117.5 L 82 110.5 L 86.5 105 L 89.5 103 L 93.5 101 Z "></path><path fill="rgb(181,124,146)" stroke="rgb(181,124,146)" stroke-width="1" opacity="0.9686274509803922" d="M 248.5 102 L 249.5 104 L 248.5 102 Z "></path><path fill="rgb(181,124,146)" stroke="rgb(181,124,146)" stroke-width="1" opacity="0.9686274509803922" d="M 146.5 103 L 147 129 L 151.5 131 L 160 132 L 156.5 137 L 150.5 139 L 147.5 142 L 116.5 159 L 113 159 L 111.5 162 L 103 163.5 L 143.5 188 L 164.5 204 L 166 203.5 L 163.5 205 L 143.5 190 Q 120.7 178.8 101.5 164 L 97 162.5 L 142.5 137 L 146 133.5 L 147 131.5 L 146 130.5 L 146.5 103 Z "></path><path fill="rgb(181,124,146)" stroke="rgb(181,124,146)" stroke-width="1" opacity="0.9686274509803922" d="M 251.5 104 L 252.5 106 L 251.5 104 Z "></path><path fill="rgb(181,124,146)" stroke="rgb(181,124,146)" stroke-width="1" opacity="0.9686274509803922" d="M 13.5 105 L 16 106.5 L 14.5 106 L 13.5 105 Z "></path><path fill="rgb(181,124,146)" stroke="rgb(181,124,146)" stroke-width="1" opacity="0.9686274509803922" d="M 256.5 107 L 257.5 109 L 256.5 107 Z "></path><path fill="rgb(181,124,146)" stroke="rgb(181,124,146)" stroke-width="1" opacity="0.9686274509803922" d="M 20.5 109 L 23 110.5 L 21.5 111 L 20.5 109 Z "></path><path fill="rgb(181,124,146)" stroke="rgb(181,124,146)" stroke-width="1" opacity="0.9686274509803922" d="M 24.5 111 L 25.5 113 Q 22.7 113.7 24.5 111 Z "></path><path fill="rgb(181,124,146)" stroke="rgb(181,124,146)" stroke-width="1" opacity="0.9686274509803922" d="M 29.5 114 L 35 117.5 L 33.5 118 L 29.5 114 Z "></path><path fill="rgb(181,124,146)" stroke="rgb(181,124,146)" stroke-width="1" opacity="0.9686274509803922" d="M 271.5 115 L 272.5 117 L 271.5 115 Z "></path><path fill="rgb(181,124,146)" stroke="rgb(181,124,146)" stroke-width="1" opacity="0.9686274509803922" d="M 36.5 118 L 37.5 120 L 36.5 118 Z "></path><path fill="rgb(181,124,146)" stroke="rgb(181,124,146)" stroke-width="1" opacity="0.9686274509803922" d="M 276.5 118 L 277.5 120 L 276.5 118 Z "></path><path fill="rgb(181,124,146)" stroke="rgb(181,124,146)" stroke-width="1" opacity="0.9686274509803922" d="M 279.5 120 L 280.5 122 L 279.5 120 Z "></path><path fill="rgb(181,124,146)" stroke="rgb(181,124,146)" stroke-width="1" opacity="0.9686274509803922" d="M 283.5 123 L 284.5 125 L 283.5 123 Z "></path><path fill="rgb(181,124,146)" stroke="rgb(181,124,146)" stroke-width="1" opacity="0.9686274509803922" d="M 50.5 126 L 53 127 L 52.5 129 L 50.5 126 Z "></path><path fill="rgb(181,124,146)" stroke="rgb(181,124,146)" stroke-width="1" opacity="0.9686274509803922" d="M 289.5 127 L 290.5 129 L 289.5 127 Z "></path><path fill="rgb(181,124,146)" stroke="rgb(181,124,146)" stroke-width="1" opacity="0.9686274509803922" d="M 33.5 128 L 39.5 131 L 63.5 150 L 111 181.5 L 109.5 181 L 91 171.5 L 91.5 170 L 89.5 171 L 88.5 168 Q 61.6 152.9 39.5 133 L 33 130 L 33.5 128 Z "></path><path fill="rgb(181,124,146)" stroke="rgb(181,124,146)" stroke-width="1" opacity="0.9686274509803922" d="M 54.5 129 L 67 136.5 L 64.5 135 L 63 135.5 L 87.5 153 L 88.5 151 L 93 158.5 L 89.5 156 Q 71.2 146.3 57 132.5 L 55.5 130 L 54.5 129 Z "></path><path fill="rgb(181,124,146)" stroke="rgb(181,124,146)" stroke-width="1" opacity="0.9686274509803922" d="M 82.5 130 L 85 130.5 L 84 132.5 L 84 134.5 L 83.5 145 L 83 135 L 80.5 134 L 77.5 135 L 77.5 134 L 81.5 132 L 82.5 134 L 83 131.5 L 82.5 130 Z "></path><path fill="rgb(181,124,146)" stroke="rgb(181,124,146)" stroke-width="1" opacity="0.9686274509803922" d="M 298.5 133 L 301.5 137 L 298.5 133 Z "></path><path fill="rgb(181,124,146)" stroke="rgb(181,124,146)" stroke-width="1" opacity="0.9686274509803922" d="M 330.5 136 L 327.5 140 L 330.5 136 Z "></path><path fill="rgb(181,124,146)" stroke="rgb(181,124,146)" stroke-width="1" opacity="0.9686274509803922" d="M 303.5 137 L 306 138.5 L 304.5 139 L 303.5 137 Z "></path><path fill="rgb(181,124,146)" stroke="rgb(181,124,146)" stroke-width="1" opacity="0.9686274509803922" d="M 159.5 138 L 160.5 140 L 159.5 138 Z "></path><path fill="rgb(181,124,146)" stroke="rgb(181,124,146)" stroke-width="1" opacity="0.9686274509803922" d="M 127.5 139 L 126.5 141 L 127.5 139 Z "></path><path fill="rgb(181,124,146)" stroke="rgb(181,124,146)" stroke-width="1" opacity="0.9686274509803922" d="M 309.5 140 L 313 141.5 L 311.5 142 L 309.5 140 Z "></path><path fill="rgb(181,124,146)" stroke="rgb(181,124,146)" stroke-width="1" opacity="0.9686274509803922" d="M 325.5 140 L 324.5 142 L 323 141.5 L 325.5 140 Z "></path><path fill="rgb(181,124,146)" stroke="rgb(181,124,146)" stroke-width="1" opacity="0.9686274509803922" d="M 314.5 142 L 322 142.5 L 314.5 143 L 314.5 142 Z "></path><path fill="rgb(181,124,146)" stroke="rgb(181,124,146)" stroke-width="1" opacity="0.9686274509803922" d="M 113.5 147 L 112.5 149 L 113.5 147 Z "></path><path fill="rgb(181,124,146)" stroke="rgb(181,124,146)" stroke-width="1" opacity="0.9686274509803922" d="M 85.5 148 L 86.5 150 L 85.5 148 Z "></path><path fill="rgb(181,124,146)" stroke="rgb(181,124,146)" stroke-width="1" opacity="0.9686274509803922" d="M 106.5 151 L 104.5 154 L 106.5 151 Z "></path><path fill="rgb(181,124,146)" stroke="rgb(181,124,146)" stroke-width="1" opacity="0.9686274509803922" d="M 134.5 160 L 135.5 162 L 134.5 160 Z "></path><path fill="rgb(181,124,146)" stroke="rgb(181,124,146)" stroke-width="1" opacity="0.9686274509803922" d="M 93.5 161 L 96 162.5 L 94.5 163 L 93.5 161 Z "></path><path fill="rgb(181,124,146)" stroke="rgb(181,124,146)" stroke-width="1" opacity="0.9686274509803922" d="M 137.5 162 L 146.5 172 L 137.5 162 Z "></path><path fill="rgb(181,124,146)" stroke="rgb(181,124,146)" stroke-width="1" opacity="0.9686274509803922" d="M 220.5 165 L 217.5 169 L 215 168.5 L 220.5 165 Z "></path><path fill="rgb(181,124,146)" stroke="rgb(181,124,146)" stroke-width="1" opacity="0.9686274509803922" d="M 149.5 174 L 150.5 176 L 149.5 174 Z "></path><path fill="rgb(181,124,146)" stroke="rgb(181,124,146)" stroke-width="1" opacity="0.9686274509803922" d="M 153.5 177 L 157.5 182 L 153.5 177 Z "></path><path fill="rgb(181,124,146)" stroke="rgb(181,124,146)" stroke-width="1" opacity="0.9686274509803922" d="M 160.5 183 L 163.5 187 L 160.5 183 Z "></path><path fill="rgb(181,124,146)" stroke="rgb(181,124,146)" stroke-width="1" opacity="0.9686274509803922" d="M 166.5 189 L 167.5 191 L 166.5 189 Z "></path><path fill="rgb(181,124,146)" stroke="rgb(181,124,146)" stroke-width="1" opacity="0.9686274509803922" d="M 169.5 191 L 171.5 194 L 169.5 191 Z "></path><path fill="rgb(181,124,146)" stroke="rgb(181,124,146)" stroke-width="1" opacity="0.9686274509803922" d="M 169.5 200 L 168.5 202 L 169.5 200 Z "></path><path fill="rgb(181,124,146)" stroke="rgb(181,124,146)" stroke-width="1" opacity="0.9686274509803922" d="M 179.5 200 L 178.5 202 L 179.5 200 Z "></path><path fill="rgb(181,124,146)" stroke="rgb(181,124,146)" stroke-width="1" opacity="0.9686274509803922" d="M 143.5 201 L 161.5 215 L 165.5 215 L 168.5 210 L 169 213.5 Q 168 218 161.5 217 L 144 203.5 L 143.5 201 Z "></path><path fill="rgb(181,124,146)" stroke="rgb(181,124,146)" stroke-width="1" opacity="0.9686274509803922" d="M 174.5 204 L 172.5 207 L 174.5 204 Z "></path><path fill="rgb(181,124,146)" stroke="rgb(181,124,146)" stroke-width="1" opacity="0.9686274509803922" d="M 351.5 268 L 352.5 270 L 351.5 268 Z "></path><path fill="rgb(181,124,146)" stroke="rgb(181,124,146)" stroke-width="1" opacity="0.9686274509803922" d="M 354.5 270 L 360 273.5 L 358.5 273 Q 354.5 272.5 354.5 270 Z "></path><path fill="rgb(181,124,146)" stroke="rgb(181,124,146)" stroke-width="1" opacity="0.9686274509803922" d="M 363.5 275 L 367 277.5 L 365.5 277 L 363.5 275 Z "></path><path fill="rgb(181,124,146)" stroke="rgb(181,124,146)" stroke-width="1" opacity="0.9686274509803922" d="M 370.5 279 L 374 281.5 L 372.5 281 L 370.5 279 Z "></path><path fill="rgb(181,124,146)" stroke="rgb(181,124,146)" stroke-width="1" opacity="0.9686274509803922" d="M 377.5 283 L 378.5 285 L 377.5 283 Z "></path><path fill="rgb(181,124,146)" stroke="rgb(181,124,146)" stroke-width="1" opacity="0.9686274509803922" d="M 382.5 286 L 389 291.5 L 384.5 288 L 382.5 286 Z "></path><path fill="rgb(181,124,146)" stroke="rgb(181,124,146)" stroke-width="1" opacity="0.9686274509803922" d="M 391.5 293 L 393.5 296 L 391.5 293 Z "></path><path fill="rgb(181,124,146)" stroke="rgb(181,124,146)" stroke-width="1" opacity="0.9686274509803922" d="M 395.5 296 L 399 298.5 L 397.5 299 L 395.5 296 Z "></path><path fill="rgb(181,124,146)" stroke="rgb(181,124,146)" stroke-width="1" opacity="0.9686274509803922" d="M 359.5 307 L 360.5 309 L 359.5 307 Z "></path><path fill="rgb(181,124,146)" stroke="rgb(181,124,146)" stroke-width="1" opacity="0.9686274509803922" d="M 366.5 311 L 367.5 313 L 366.5 311 Z "></path><path fill="rgb(181,124,146)" stroke="rgb(181,124,146)" stroke-width="1" opacity="0.9686274509803922" d="M 371.5 315 L 373.5 318 L 371.5 315 Z "></path><path fill="rgb(181,124,146)" stroke="rgb(181,124,146)" stroke-width="1" opacity="0.9686274509803922" d="M 375.5 318 L 377.5 321 L 375.5 318 Z "></path><path fill="rgb(181,124,146)" stroke="rgb(181,124,146)" stroke-width="1" opacity="0.9686274509803922" d="M 397.5 319 L 396.5 321 L 397.5 319 Z "></path><path fill="rgb(181,124,146)" stroke="rgb(181,124,146)" stroke-width="1" opacity="0.9686274509803922" d="M 379.5 321 L 382 322.5 L 380.5 323 L 379.5 321 Z "></path><path fill="rgb(181,124,146)" stroke="rgb(181,124,146)" stroke-width="1" opacity="0.9686274509803922" d="M 394.5 321 L 393.5 323 L 392 322.5 L 394.5 321 Z "></path><path fill="rgb(181,124,146)" stroke="rgb(181,124,146)" stroke-width="1" opacity="0.9686274509803922" d="M 383.5 323 L 391 323.5 L 383.5 324 L 383.5 323 Z "></path><path fill="rgb(181,124,146)" stroke="rgb(181,124,146)" stroke-width="1" opacity="0.9686274509803922" d="M 162.5 349 L 165.5 353 L 178 363.5 L 179 365.5 L 177 364.5 L 174.5 361 L 162 351.5 L 162.5 349 Z "></path><path fill="rgb(181,124,146)" stroke="rgb(181,124,146)" stroke-width="1" opacity="0.9686274509803922" d="M 180.5 370 L 181 376.5 L 180 376.5 L 180.5 370 Z "></path><path fill="rgb(181,124,146)" stroke="rgb(181,124,146)" stroke-width="1" opacity="0.9686274509803922" d="M 144.5 375 L 145.5 377 L 144.5 375 Z "></path><path fill="rgb(181,124,146)" stroke="rgb(181,124,146)" stroke-width="1" opacity="0.9686274509803922" d="M 148.5 378 L 151.5 382 L 148.5 378 Z "></path><path fill="rgb(181,124,146)" stroke="rgb(181,124,146)" stroke-width="1" opacity="0.9686274509803922" d="M 153.5 382 L 156.5 386 L 153.5 382 Z "></path><path fill="rgb(181,124,146)" stroke="rgb(181,124,146)" stroke-width="1" opacity="0.9686274509803922" d="M 158.5 386 L 161 387.5 L 159.5 388 L 158.5 386 Z "></path><path fill="rgb(181,124,146)" stroke="rgb(181,124,146)" stroke-width="1" opacity="0.9686274509803922" d="M 162.5 388 L 170 388.5 L 162.5 389 L 162.5 388 Z "></path><path fill="rgb(253,1,40)" stroke="rgb(253,1,40)" stroke-width="1" opacity="0.996078431372549" d="M 120.5 13 L 123.5 17 L 120.5 13 Z "></path><path fill="rgb(253,1,40)" stroke="rgb(253,1,40)" stroke-width="1" opacity="0.996078431372549" d="M 125.5 17 L 169.5 51 L 215 80.5 L 213.5 81 L 170.5 53 L 144.5 33 L 144 37.5 L 147 44.5 L 153 73.5 L 155 75.5 L 154 76.5 L 154 112.5 L 153 113.5 L 152 129.5 L 152.5 131 L 147 129 L 147 103.5 L 145 101.5 L 146 100.5 L 146 86.5 L 144 74 L 142 73.5 Q 145.5 72 143 70.5 Q 139.8 43.8 129.5 24 L 128 23.5 L 129 21.5 L 125.5 17 Z "></path><path fill="rgb(253,1,40)" stroke="rgb(253,1,40)" stroke-width="1" opacity="0.996078431372549" d="M 217.5 80 L 220 84 L 225.5 86 L 258.5 108 L 276.5 117 L 304.5 137 L 316 141.5 L 313.5 142 L 302.5 137 L 276.5 118 L 258.5 109 L 219 83.5 L 217.5 80 Z "></path><path fill="rgb(253,1,40)" stroke="rgb(253,1,40)" stroke-width="1" opacity="0.996078431372549" d="M 33 118 L 45 123 Q 43.8 126 47.5 125 L 57 131.5 L 62.5 138 L 93 159.5 L 94.5 163 L 101.5 164 Q 120.7 178.8 143.5 190 L 164 205.5 L 163 210 L 166.5 211 L 170 208.5 L 165.5 215 L 161.5 215 L 144.5 202 L 143.5 203 L 139.5 199 Q 126.7 188.7 111 183 L 110.5 181 L 109 181.5 L 109.5 180 L 63.5 150 L 39.5 131 L 33 127.5 L 33 118 Z "></path><path fill="rgb(253,1,40)" stroke="rgb(253,1,40)" stroke-width="1" opacity="0.996078431372549" d="M 82.5 131 L 83 133.5 L 82 133.5 L 82.5 131 Z "></path><path fill="rgb(253,1,40)" stroke="rgb(253,1,40)" stroke-width="1" opacity="0.996078431372549" d="M 330.5 134 L 331 135.5 Q 327.8 141.3 319.5 142 L 319.5 141 L 322.5 141 L 328 138 L 330.5 134 Z "></path><path fill="rgb(253,1,40)" stroke="rgb(253,1,40)" stroke-width="1" opacity="0.996078431372549" d="M 154.5 137 Q 159.9 135.1 159 138.5 L 162.5 140 L 187.5 162 L 206 173.5 L 200.5 178 L 191.5 173 L 153 138.5 L 154.5 137 Z "></path><path fill="rgb(253,1,40)" stroke="rgb(253,1,40)" stroke-width="1" opacity="0.996078431372549" d="M 150.5 139 L 149.5 141 L 150.5 139 Z "></path><path fill="rgb(253,1,40)" stroke="rgb(253,1,40)" stroke-width="1" opacity="0.996078431372549" d="M 133.5 158 L 145 167 L 145 169 Q 147.7 167.9 147 170.5 L 176 195.5 L 174.5 195 Q 151.5 178 133.5 158 Z "></path><path fill="rgb(253,1,40)" stroke="rgb(253,1,40)" stroke-width="1" opacity="0.996078431372549" d="M 220.5 166 L 221 168.5 L 220 171 L 216 169.5 L 220.5 166 Z "></path><path fill="rgb(253,1,40)" stroke="rgb(253,1,40)" stroke-width="1" opacity="0.996078431372549" d="M 212.5 168 L 215 168.5 L 212.5 169 L 212.5 168 Z "></path><path fill="rgb(253,1,40)" stroke="rgb(253,1,40)" stroke-width="1" opacity="0.996078431372549" d="M 210.5 177 L 257 211.5 L 255.5 211 L 207 182 L 210.5 177 Z "></path><path fill="rgb(253,1,40)" stroke="rgb(253,1,40)" stroke-width="1" opacity="0.996078431372549" d="M 173.5 197 L 172.5 199 L 173.5 197 Z "></path><path fill="rgb(253,1,40)" stroke="rgb(253,1,40)" stroke-width="1" opacity="0.996078431372549" d="M 167.5 202 L 165.5 205 L 167.5 202 Z "></path><path fill="rgb(253,1,40)" stroke="rgb(253,1,40)" stroke-width="1" opacity="0.996078431372549" d="M 176.5 202 L 175.5 204 L 176.5 202 Z "></path><path fill="rgb(253,1,40)" stroke="rgb(253,1,40)" stroke-width="1" opacity="0.996078431372549" d="M 258.5 212 L 259.5 214 L 258.5 212 Z "></path><path fill="rgb(253,1,40)" stroke="rgb(253,1,40)" stroke-width="1" opacity="0.996078431372549" d="M 33.5 254 L 92 297.5 L 89.5 296 L 59.5 276 L 33 255.5 L 33.5 254 Z "></path><path fill="rgb(253,1,40)" stroke="rgb(253,1,40)" stroke-width="1" opacity="0.996078431372549" d="M 340.5 262 L 341.5 264 L 340.5 262 Z "></path><path fill="rgb(253,1,40)" stroke="rgb(253,1,40)" stroke-width="1" opacity="0.996078431372549" d="M 345.5 265 L 346.5 267 L 345.5 265 Z "></path><path fill="rgb(253,1,40)" stroke="rgb(253,1,40)" stroke-width="1" opacity="0.996078431372549" d="M 348.5 267 L 381.5 286 L 399 299 L 400 302.5 L 397 300.5 Q 397.8 298.3 395.5 299 L 384.5 289 L 353.5 272 L 348.5 267 Z "></path><path fill="rgb(253,1,40)" stroke="rgb(253,1,40)" stroke-width="1" opacity="0.996078431372549" d="M 93.5 298 L 99 302.5 L 97.5 302 L 93.5 298 Z "></path><path fill="rgb(253,1,40)" stroke="rgb(253,1,40)" stroke-width="1" opacity="0.996078431372549" d="M 350.5 301 L 368.5 311 L 380.5 321 L 385 322.5 L 382.5 323 L 366.5 311 L 351.5 303 L 350.5 301 Z "></path><path fill="rgb(253,1,40)" stroke="rgb(253,1,40)" stroke-width="1" opacity="0.996078431372549" d="M 100.5 303 L 177 363.5 Q 180 366.5 180 372.5 L 179 372.5 Q 178.5 365 173.5 362 L 116.5 318 L 102.5 306 L 100.5 303 Z "></path><path fill="rgb(253,1,40)" stroke="rgb(253,1,40)" stroke-width="1" opacity="0.996078431372549" d="M 399.5 314 L 400 316.5 Q 396.8 322.3 388.5 323 L 388.5 322 L 391.5 322 L 397 319 L 399.5 314 Z "></path><path fill="rgb(253,1,40)" stroke="rgb(253,1,40)" stroke-width="1" opacity="0.996078431372549" d="M 145.5 375 L 156.5 384 L 164 387.5 L 161.5 388 L 147.5 378 L 145.5 375 Z "></path><path fill="rgb(253,1,40)" stroke="rgb(253,1,40)" stroke-width="1" opacity="0.996078431372549" d="M 179.5 376 L 180 379.5 L 173.5 387 L 168.5 388 L 168.5 387 L 176 384 L 179.5 376 Z "></path><path fill="rgb(0,0,0)" stroke="rgb(0,0,0)" stroke-width="1" opacity="0" d="M 52.5 0 L 100.5 0 L 108 6 L 108 8 Q 111.8 6.5 111 9.5 L 116 13 L 117.5 16 Q 119.8 15.3 119 17.5 L 119.5 19 L 93.5 10 L 55.5 2 L 52.5 1 L 52.5 0 Z "></path><path fill="rgb(0,0,0)" stroke="rgb(0,0,0)" stroke-width="1" opacity="0" d="M 154.5 0 L 400 0 L 400 287.5 L 399 287.5 L 399 278.5 L 398 277.5 L 398 268.5 L 397 267.5 L 395 245.5 L 390 226.5 L 390 222.5 L 385 206.5 Q 381.5 203 381 196.5 L 369 176.5 L 347.5 150 L 345 148.5 L 340.5 143 L 333 136.5 L 335 125.5 Q 333.2 117.8 327.5 114 L 319.5 111 L 288.5 89 L 270.5 80 L 245.5 63 L 229.5 55 Q 222.1 46.9 210.5 43 L 206.5 39 L 185.5 26 L 164.5 8 L 156.5 3 L 154.5 0 Z "></path><path fill="rgb(0,0,0)" stroke="rgb(0,0,0)" stroke-width="1" opacity="0" d="M 0 24 L 6 25 L 8 36.5 L 12 42.5 L 12 45 L 15 46.5 L 17 52 L 6 57 L 6 101.5 L 7.5 103 Q 10.1 102.3 9 105 L 11.5 105 L 25.5 114 L 29.5 115 L 33 118.5 L 29.5 119 L 27.5 118 L 25.5 118 L 16.5 118 L 15.5 117 L 3.5 116 L 1.5 117 L 0 115.5 L 0 24 Z "></path><path fill="rgb(0,0,0)" stroke="rgb(0,0,0)" stroke-width="1" opacity="0" d="M 101.5 73 L 111.5 74 L 116.5 76 L 136.5 78 L 138 79.5 Q 136.5 85 139 86.5 L 138 89.5 L 138 91.5 Q 136.8 96.3 139 97.5 L 138 101 L 134 99.5 Q 134.8 96.9 131.5 98 Q 128.5 95.2 123 96 L 122.5 94 L 110.5 94 L 107 93 Q 108.4 83.2 101 80.5 L 102 78.5 L 101 75.5 L 101.5 73 Z "></path><path fill="rgb(0,0,0)" stroke="rgb(0,0,0)" stroke-width="1" opacity="0" d="M 162.5 83 L 184.5 89 L 199.5 97 L 207.5 99 L 209.5 101 L 213 101 L 213 156.5 L 214 160 L 210.5 159 L 192.5 146 L 160 130.5 L 159 125.5 L 160 124.5 L 161 107.5 L 162 105.5 L 161 103.5 L 162 102.5 L 162 90.5 L 161 88.5 L 162 86.5 L 161 84.5 L 162.5 83 Z "></path><path fill="rgb(0,0,0)" stroke="rgb(0,0,0)" stroke-width="1" opacity="0" d="M 220 105 L 261.5 120 Q 285.9 135.6 305 156.5 L 325 183.5 L 338 213.5 L 340 215.5 L 340 218.5 L 346 232.5 L 345 234.5 L 347 240.5 L 346 242.5 L 349 255.5 L 348 257.5 L 349 262 Q 346 263 347 260 L 344 260 L 344 258 L 341.5 258 L 334 255 Q 335.3 252 331.5 253 L 313.5 242 L 291.5 231 L 269 215.5 L 269 214 L 267 214 Q 268.1 211.3 265.5 212 L 261 209 Q 262.1 206.3 259.5 207 L 247 197 Q 248.1 194.3 245.5 195 Q 235.9 184.8 224 178 Q 225.1 175.3 222.5 176 L 218 172.5 L 222 169.5 L 220 158.5 L 220 105 Z "></path><path fill="rgb(0,0,0)" stroke="rgb(0,0,0)" stroke-width="1" opacity="0" d="M 1.5 149 L 2.5 150 L 16.5 150 L 17.5 151 L 31.5 152 L 46.5 155 L 51.5 158 L 55.5 158 L 58.5 160 L 68.5 162 L 120.5 196 L 124.5 197 L 147 211 L 147.5 213 L 150.5 212 L 150.5 213 L 148 213.5 L 151 215 L 156.5 224 Q 158.8 223.3 158 225.5 L 161.5 230 Q 163.8 229.3 163 231.5 L 169 239.5 L 172 251.5 L 174 253.5 L 176 260.5 L 177 277.5 L 179 284.5 L 178 289.5 L 179 291.5 L 178 292.5 L 178 300.5 L 174 315.5 L 162.5 345 L 162 343 L 159 343 Q 160.1 340.3 157.5 341 L 150 336 L 150 334 L 147 334 Q 148.1 331.3 145.5 332 L 141 329 L 141 327 L 138 327 Q 139.1 324.3 136.5 325 L 135 322 L 133 322 L 133 320 L 130 320 Q 131.1 317.3 128.5 318 L 124 315 L 124 313 L 121 313 Q 122.1 310.3 119.5 311 L 112 306 L 112 304 L 109 304 Q 110.1 301.3 107.5 302 L 100 297 Q 101.1 294.3 98.5 295 L 91 290 L 91 288 L 88 288 Q 89.1 285.3 86.5 286 L 79 281 L 79 279 L 76 279 Q 77.1 276.3 74.5 277 L 67 272 L 67 270 L 64 270 Q 65.1 267.3 62.5 268 L 55 263 L 55 261 L 52 261 Q 53.1 258.3 50.5 259 L 43 254 Q 44.1 251.3 41.5 252 L 37 249 Q 38.1 246.3 35.5 247 L 33 245.5 L 32.5 252 L 15.5 239 L 0 230 L 0 150.5 L 1.5 149 Z "></path><path fill="rgb(0,0,0)" stroke="rgb(0,0,0)" stroke-width="1" opacity="0" d="M 126.5 154 L 129 155.5 L 127.5 155 L 126.5 154 Z "></path><path fill="rgb(0,0,0)" stroke="rgb(0,0,0)" stroke-width="1" opacity="0" d="M 192.5 155 L 197 158.5 L 195.5 158 L 192.5 155 Z "></path><path fill="rgb(0,0,0)" stroke="rgb(0,0,0)" stroke-width="1" opacity="0" d="M 185.5 204 L 212.5 221 L 228.5 229 L 236.5 236 L 241.5 238 L 258.5 250 Q 272.3 255.2 282.5 264 L 294.5 269 L 307.5 279 L 350 304 L 349 310.5 L 350 314.5 L 349 315.5 L 346 342.5 L 344 348.5 L 344 354.5 L 342 359.5 L 342 365.5 L 338 377.5 L 338 381.5 L 324.5 400 L 173.5 400 L 173 397.5 L 177 386.5 L 190 366.5 L 194 357.5 L 196 348.5 L 205 330.5 Q 206.1 319.6 210 311.5 L 212 292.5 L 211 290.5 L 212 285.5 L 211 284.5 L 211 275.5 L 209 269.5 L 209 257.5 L 206 249.5 L 206 245.5 L 193 214.5 L 185.5 204 Z "></path><path fill="rgb(0,0,0)" stroke="rgb(0,0,0)" stroke-width="1" opacity="0" d="M 0.5 269 L 19.5 284 L 23 285 Q 21.9 287.7 24.5 287 L 32.5 294 L 35 294 Q 33.9 296.7 36.5 296 L 43.5 302 L 71.5 320 L 88.5 333 L 103.5 347 L 129 365 L 131.5 369 L 140 374 L 132 385 L 116 398.5 L 115.5 400 L 0 400 L 0.5 269 Z "></path><path fill="rgb(0,0,0)" stroke="rgb(0,0,0)" stroke-width="1" opacity="0" d="M 399.5 365 L 400 400 L 379 399.5 Q 385.7 394.5 385 383 L 387 383 L 387 380 L 389 380 Q 387.5 376.3 390.5 377 L 392 374 L 394 374 L 394 371 L 396 371 L 396 368 Q 398.7 369.1 398 366.5 L 399.5 365 Z "></path><path fill="rgb(4,148,250)" stroke="rgb(4,148,250)" stroke-width="1" opacity="0.9803921568627451" d="M 0 0 L 23 0.5 Q 13.3 3.3 8 10.5 L 6 23 L 0 22 L 0 0 Z "></path><path fill="rgb(4,148,250)" stroke="rgb(4,148,250)" stroke-width="1" opacity="0.9803921568627451" d="M 30.5 0 L 43.5 0 L 78.5 9 L 87.5 10 L 110.5 17 L 113.5 19 L 116.5 19 L 119.5 21 L 122.5 21 L 127 24.5 L 137 53.5 L 140 72 L 107.5 67 L 105.5 65 L 102 66 L 100 53.5 L 93 40.5 L 86.5 33 L 75.5 26 L 67.5 25 L 56 31 Q 53.8 19.5 46.5 12 Q 44.3 12.8 45 10.5 L 38.5 4 L 30.5 1 L 30.5 0 Z "></path><path fill="rgb(4,148,250)" stroke="rgb(4,148,250)" stroke-width="1" opacity="0.9803921568627451" d="M 148 38 L 177.5 59 L 213 81.5 Q 214.1 89.7 212 93 L 206 92 L 205.5 89 L 205 91 Q 202 92 203 89 L 199.5 89 L 192 85.5 L 192.5 84 L 190.5 85 L 185.5 82 L 164.5 76 L 159.5 76 L 156 73.5 Q 153.6 53.6 148 38 Z "></path><path fill="rgb(4,148,250)" stroke="rgb(4,148,250)" stroke-width="1" opacity="0.9803921568627451" d="M 220.5 86 L 258.5 110 L 276.5 119 L 302.5 138 L 313.5 143 L 322.5 143 L 331.5 137 L 340.5 146 L 342 146 L 364 172.5 L 377 192.5 L 383 205.5 L 393 243.5 L 395 264.5 L 396 265.5 L 396 274.5 L 398 281.5 L 398 296.5 L 396.5 296 L 377.5 282 L 351 266.5 L 347 230.5 L 341 214.5 L 327 184.5 L 309 158.5 L 298.5 148 Q 296.3 148.8 297 146.5 Q 282.6 131.4 264.5 120 L 237.5 104 L 220 96.5 L 220.5 86 Z "></path><path fill="rgb(4,148,250)" stroke="rgb(4,148,250)" stroke-width="1" opacity="0.9803921568627451" d="M 140.5 107 L 141 131.5 L 119.5 145 L 106.5 151 L 98.5 157 L 98 131 L 140.5 107 Z "></path><path fill="rgb(4,148,250)" stroke="rgb(4,148,250)" stroke-width="1" opacity="0.9803921568627451" d="M 0 118 L 21.5 119 L 33 121 L 33 130.5 L 34.5 132 L 80 164.5 L 78.5 164 L 44.5 153 L 22.5 149 L 0 148 L 0 118 Z "></path><path fill="rgb(4,148,250)" stroke="rgb(4,148,250)" stroke-width="1" opacity="0.9803921568627451" d="M 161.5 133 Q 191.9 143.3 214 161 L 216.5 165 Q 219.5 164.3 218 168 L 214.5 167 L 211.5 168 L 193.5 155 L 159 137.5 Q 158.5 133.5 161.5 133 Z "></path><path fill="rgb(4,148,250)" stroke="rgb(4,148,250)" stroke-width="1" opacity="0.9803921568627451" d="M 77.5 135 L 83 136 Q 81.2 146.5 87 150.5 L 84.5 149 L 69 138.5 L 77.5 135 Z "></path><path fill="rgb(4,148,250)" stroke="rgb(4,148,250)" stroke-width="1" opacity="0.9803921568627451" d="M 122.5 155 L 137.5 163 L 174 196.5 L 165.5 203 L 144.5 187 L 106 163.5 L 113 160.5 Q 112.1 157.5 116.5 159 L 122.5 155 Z "></path><path fill="rgb(4,148,250)" stroke="rgb(4,148,250)" stroke-width="1" opacity="0.9803921568627451" d="M 179.5 201 Q 181.8 200.3 181 202.5 Q 189.8 210.2 195 221.5 L 206 251.5 L 208 273.5 L 210 281.5 L 210 298.5 L 209 299.5 L 208 312.5 L 203 330.5 L 195 347.5 L 189 364.5 L 183 375 Q 179.5 376.1 181 368.5 Q 178.9 361.1 173.5 357 L 163 348.5 L 173 325.5 L 179 305.5 Q 177.7 300.8 180 299.5 L 180 279.5 L 178 272.5 L 177 258.5 L 170 241.5 L 170 238.5 L 166 230.5 Q 157.3 223.7 153 212.5 L 158.5 217 L 166.5 218 Q 171.3 216.8 170 209.5 L 176.5 203 L 179.5 201 Z "></path><path fill="rgb(4,148,250)" stroke="rgb(4,148,250)" stroke-width="1" opacity="0.9803921568627451" d="M 351 304 L 366.5 312 Q 372.9 319.6 382.5 324 L 391.5 324 L 398 321 L 398 348.5 L 396 351.5 L 397 353.5 L 386 375.5 L 383 385.5 L 383 390.5 L 377.5 399 L 375.5 400 L 327.5 400 L 331 395.5 L 338 385.5 L 343 367.5 L 349 327.5 L 350 326.5 L 351 304 Z "></path><path fill="rgb(4,148,250)" stroke="rgb(4,148,250)" stroke-width="1" opacity="0.9803921568627451" d="M 141.5 376 L 144.5 376 L 161.5 389 L 170 389 Q 166.5 393.1 166 400 L 118 399.5 L 141.5 376 Z "></path><path fill="rgb(255,0,42)" stroke="rgb(255,0,42)" stroke-width="1" opacity="1" d="M 104.5 0 L 150.5 0 Q 178.5 24.5 210.5 45 L 234.5 60 L 243.5 64 L 271.5 83 L 286.5 90 L 330 119.5 L 333 128.5 L 332 132.5 L 328 138 Q 324.2 141.5 316.5 142 L 304.5 137 L 276.5 117 L 258.5 108 L 225.5 86 L 220 84 L 217.5 80 L 213.5 80 L 169.5 51 Q 145 30 117.5 12 L 105.5 2 L 104.5 0 Z "></path><path fill="rgb(255,0,42)" stroke="rgb(255,0,42)" stroke-width="1" opacity="1" d="M 151.5 139 L 155.5 140 L 185.5 168 L 200.5 178 L 209 172 Q 207.9 169.3 210.5 170 L 215.5 169 Q 220.5 171.5 215.5 174 L 207 180.5 Q 206.3 182.8 208.5 182 L 275.5 224 L 279.5 225 Q 295.2 236.8 314.5 245 L 353.5 272 L 384.5 289 L 397 299 L 400 303.5 L 400 313.5 L 397 319 Q 393.2 322.5 385.5 323 Q 374.9 319.1 368.5 311 L 350.5 301 L 348.5 301 L 309.5 278 L 299.5 270 L 257.5 247 L 226.5 226 L 180.5 199 L 165.5 211 L 163 210 L 164 205 L 176 195.5 L 147 170.5 L 147 169 L 145 169 Q 146.1 166.3 143.5 167 Q 138.9 160.8 132 158 L 130 151 L 151.5 139 Z "></path><path fill="rgb(255,0,42)" stroke="rgb(255,0,42)" stroke-width="1" opacity="1" d="M 0.5 232 L 33 254.5 L 35.5 258 L 103.5 306 L 116.5 318 L 177 365.5 L 180 375.5 L 176 384 Q 172.2 387.5 164.5 388 L 140.5 373 L 99.5 341 L 86.5 329 L 31.5 291 L 0 266.5 L 0.5 232 Z "></path></svg>