<svg width="400" height="400" version="1.1" xmlns="http://www.w3.org/2000/svg" desc="Created with imagetracer.js version 1.2.5"><path fill="rgb(118,128,133)" stroke="rgb(118,128,133)" stroke-width="1" opacity="0.03137254901960784" d="M 142.5 76 L 143 78.5 L 142 78.5 L 142.5 76 Z "></path><path fill="rgb(118,128,133)" stroke="rgb(118,128,133)" stroke-width="1" opacity="0.03137254901960784" d="M 125.5 83 L 126 85.5 L 125.5 87 L 132 87.5 L 128 88 Q 129.8 92.5 124.5 91 L 121.5 92 L 119.5 91 L 117 92 L 115.5 95 L 113.5 94 L 109 95 L 109 98 L 102.5 98 L 100.5 99 L 99 98.5 L 98 102 Q 94.2 103.5 95 100.5 L 94 100.5 L 92 103.5 L 91 103.5 Q 91.7 100.9 89 102 L 87 106 L 84.5 106 L 80 108 Q 81.1 110.7 78.5 110 L 77 110.5 L 76.5 108 L 76 111 L 70 112 L 70 115 Q 67 114 68 117 L 64 117 L 64 118.5 L 63 121 Q 59.3 119.5 60 122.5 L 59 124.5 L 59.5 126 L 58 125.5 Q 58.8 129.3 56.5 130 L 51.5 129 L 50 133 L 45 134 L 45 137 L 42 137 L 42 141 L 40.5 141 L 38.5 141 L 36 142.5 L 35.5 145 L 35 142 Q 31.7 140.7 33 145.5 L 32 150 L 28 151 L 26.5 155 L 23 154 L 23 160.5 L 21 161 L 21 162.5 L 19 169 L 16 170.5 L 14 179 Q 11 177.8 12 181.5 L 10 189 L 6 191 L 7 187.5 L 6.5 186 L 9 184.5 L 8 179 Q 11.7 180.3 10 174.5 Q 11.2 172 15 173 L 14.5 170 L 13 170.5 Q 12.3 165.8 15.5 165 L 16.5 167 L 18 158 Q 22.1 159.7 21 155.5 L 21.5 154 L 20 153.5 L 21.5 153 L 23 153.5 L 24.5 143 L 25 145 L 27.5 146 L 31 145 L 32 138.5 L 34 135 L 36.5 134 L 40 135 Q 38.9 131.7 43 133 L 43 130.5 L 45 129.5 L 45.5 131 L 46 127 Q 49.7 128.2 48 123 L 51 123 L 51.5 125 L 52 123 L 54.5 122 L 56 122.5 Q 56.8 118.8 54.5 118 L 53 117.5 L 56 117 Q 54.8 114 58.5 115 L 58.5 114 Q 55.9 114.7 57 112 L 61 112 L 61 110.5 Q 63.8 108.5 63 104 Q 66.3 102.7 65 107.5 L 64 110.5 L 65.5 110 Q 69.3 111.3 68 107.5 L 70 104 L 73 104 Q 72 107 75 106 L 74 100 L 78 100 L 78 101.5 L 77.5 103 L 79 103 L 79 99 L 86.5 99 L 88.5 99 L 90 99 L 90 96 Q 92.7 97.1 92 94.5 L 93 94.5 Q 92.3 96.8 94.5 96 L 105 94 Q 103.5 90.3 106.5 91 L 109 92 L 110 88 Q 112.7 86.9 112 89.5 L 111 91.5 L 113.5 90 Q 118.9 91.9 118 88.5 L 117 86.5 L 118.5 87 Q 121.5 86.2 120 90 L 122 90 L 121 86.5 L 122.5 87 L 125 85.5 L 125.5 83 Z M 68 112 L 66 115 L 68 115 L 68 112 Z M 56 126 L 55 129 L 56 129 L 56 126 Z M 31 146 L 30 149 L 31 149 L 31 146 Z "></path><path fill="rgb(118,128,133)" stroke="rgb(118,128,133)" stroke-width="1" opacity="0.03137254901960784" d="M 107.5 84 L 108 87 L 105.5 88 L 107 85.5 L 107.5 84 Z "></path><path fill="rgb(118,128,133)" stroke="rgb(118,128,133)" stroke-width="1" opacity="0.03137254901960784" d="M 110 84 Q 113.3 82.9 112 87 Q 108.7 88.1 110 84 Z "></path><path fill="rgb(118,128,133)" stroke="rgb(118,128,133)" stroke-width="1" opacity="0.03137254901960784" d="M 114 86 Q 117 85 116 88 Q 113 89 114 86 Z "></path><path fill="rgb(118,128,133)" stroke="rgb(118,128,133)" stroke-width="1" opacity="0.03137254901960784" d="M 79.5 88 L 80 90.5 L 79 90.5 L 79.5 88 Z "></path><path fill="rgb(118,128,133)" stroke="rgb(118,128,133)" stroke-width="1" opacity="0.03137254901960784" d="M 67 95 L 70 95.5 L 68 96 L 67.5 98 L 67 95 Z "></path><path fill="rgb(118,128,133)" stroke="rgb(118,128,133)" stroke-width="1" opacity="0.03137254901960784" d="M 58.5 99 L 59 101.5 L 58 101.5 L 58.5 99 Z "></path><path fill="rgb(118,128,133)" stroke="rgb(118,128,133)" stroke-width="1" opacity="0.03137254901960784" d="M 66.5 103 L 67 107.5 L 66 107.5 L 66.5 103 Z "></path><path fill="rgb(118,128,133)" stroke="rgb(118,128,133)" stroke-width="1" opacity="0.03137254901960784" d="M 61.5 104 L 62 106.5 L 61 106.5 L 61.5 104 Z "></path><path fill="rgb(118,128,133)" stroke="rgb(118,128,133)" stroke-width="1" opacity="0.03137254901960784" d="M 45 118 Q 48.3 116.9 47 121 Q 43.7 122.1 45 118 Z "></path><path fill="rgb(118,128,133)" stroke="rgb(118,128,133)" stroke-width="1" opacity="0.03137254901960784" d="M 48.5 118 L 49 120.5 L 48 120.5 L 48.5 118 Z "></path><path fill="rgb(118,128,133)" stroke="rgb(118,128,133)" stroke-width="1" opacity="0.03137254901960784" d="M 43.5 121 L 44.5 125 L 45 123 Q 48.3 121.9 47 126 L 43.5 127 L 43 124.5 L 43.5 121 Z "></path><path fill="rgb(118,128,133)" stroke="rgb(118,128,133)" stroke-width="1" opacity="0.03137254901960784" d="M 63.5 122 L 64 124.5 L 63 124.5 L 63.5 122 Z "></path><path fill="rgb(118,128,133)" stroke="rgb(118,128,133)" stroke-width="1" opacity="0.03137254901960784" d="M 36 123 Q 38.7 121.9 38 124.5 L 38.5 126 L 36 125 L 36 123 Z "></path><path fill="rgb(118,128,133)" stroke="rgb(118,128,133)" stroke-width="1" opacity="0.03137254901960784" d="M 26 134 L 29 135.5 L 28.5 138 L 26 137 L 26 134 Z "></path><path fill="rgb(118,128,133)" stroke="rgb(118,128,133)" stroke-width="1" opacity="0.03137254901960784" d="M 4.5 194 L 5 197.5 L 3.5 202 L 2.5 199 L 0.5 202 L 1 200.5 Q -0.1 196.3 4 198 L 4.5 194 Z "></path><path fill="rgb(118,128,133)" stroke="rgb(118,128,133)" stroke-width="1" opacity="0.03137254901960784" d="M 1.5 205 L 2 207 L 0 206.5 L 1.5 205 Z "></path><path fill="rgb(118,128,133)" stroke="rgb(118,128,133)" stroke-width="1" opacity="0.03137254901960784" d="M 205 206 Q 208 204.8 207 208.5 L 208 208.5 L 208.5 207 L 210 210.5 L 208.5 210 L 205 209 L 205 206 Z "></path><path fill="rgb(118,128,133)" stroke="rgb(118,128,133)" stroke-width="1" opacity="0.03137254901960784" d="M 0 209 Q 3.3 207.7 2 212.5 L 0.5 218 L 0 209 Z "></path><path fill="rgb(118,128,133)" stroke="rgb(118,128,133)" stroke-width="1" opacity="0.03137254901960784" d="M 207.5 213 L 208 218 Q 212.5 216.3 211 221.5 L 212 225.5 L 208 227 L 207 217 Q 204.3 218.1 205 215.5 L 207.5 213 Z M 209 222 Q 207 227 211 226 Q 213 221 209 222 Z "></path><path fill="rgb(118,128,133)" stroke="rgb(118,128,133)" stroke-width="1" opacity="0.03137254901960784" d="M 215.5 222 L 216 226.5 L 215 226.5 L 215.5 222 Z "></path><path fill="rgb(118,128,133)" stroke="rgb(118,128,133)" stroke-width="1" opacity="0.03137254901960784" d="M 204 226 L 206 226 L 206 232 L 204 232 L 204 226 Z "></path><path fill="rgb(118,128,133)" stroke="rgb(118,128,133)" stroke-width="1" opacity="0.03137254901960784" d="M 211 229 L 218 230 L 216 233.5 L 219 234 Q 217.8 237 221.5 236 L 221.5 237 Q 217.3 235.9 219 240 Q 222.4 239.3 223.5 242 L 228 242 L 228.5 244 L 229 242 L 233 240 L 233 242 L 231 242 Q 232.1 244.7 229.5 244 L 229.5 245 Q 234.1 243.7 232 249.5 L 234 248.5 Q 233 244.8 236 246 Q 237.5 249.7 234.5 249 L 234.5 250 L 238 249.5 L 237 246.5 L 238 246.5 Q 237.2 249.5 241 248 Q 240 251 243 250 L 243 253 L 244.5 253 L 244 251.5 Q 243 247.8 246 249 Q 244.5 252.7 247.5 252 L 248.5 254 L 247 254 L 247 258 L 249 258 L 249 256 Q 251.7 257.1 251 254.5 L 252 254.5 Q 250.5 258.9 253.5 258 L 256 257 L 256 260 Q 258.7 258.9 258 261.5 L 261 262.5 L 262 264.5 L 259 270 L 255 272 L 255 276.5 L 255.5 278 Q 253 276.8 254 273 L 251 271.5 Q 251.8 269.3 249.5 270 L 244 268 L 241.5 264 Q 239.3 264.8 240 262.5 L 235 260 Q 236.5 256.3 233.5 257 L 230.5 253 L 229 253 Q 230.5 249.2 227.5 250 Q 226.3 247 222 248 Q 223.5 242.6 220.5 241 L 215 240 L 214 236.5 L 216 230 L 212 230 L 212 231.5 L 211 231.5 L 211 229 Z M 241 253 L 240 256 L 241 256 L 241 253 Z M 245 254 L 244 257 L 245 257 L 245 254 Z M 242 258 L 241 261 L 242 261 L 242 258 Z M 244 260 L 245 264 L 246 264 Q 248 259 244 260 Z M 257 264 L 257 265 L 259 265 L 257 264 Z M 255 265 L 254 268 L 255 268 L 255 265 Z "></path><path fill="rgb(118,128,133)" stroke="rgb(118,128,133)" stroke-width="1" opacity="0.03137254901960784" d="M 223 230 Q 227.1 228.7 226 232 Q 221.9 233.3 223 230 Z "></path><path fill="rgb(118,128,133)" stroke="rgb(118,128,133)" stroke-width="1" opacity="0.03137254901960784" d="M 211.5 233 L 214 233.5 L 211.5 234 L 211.5 233 Z "></path><path fill="rgb(118,128,133)" stroke="rgb(118,128,133)" stroke-width="1" opacity="0.03137254901960784" d="M 230.5 234 L 231 236.5 L 230 236.5 L 230.5 234 Z "></path><path fill="rgb(118,128,133)" stroke="rgb(118,128,133)" stroke-width="1" opacity="0.03137254901960784" d="M 232 234 Q 235.3 232.7 234 237.5 L 232 236.5 L 232 234 Z "></path><path fill="rgb(118,128,133)" stroke="rgb(118,128,133)" stroke-width="1" opacity="0.03137254901960784" d="M 235.5 236 L 236.5 238 Q 233.7 238.7 235.5 236 Z "></path><path fill="rgb(118,128,133)" stroke="rgb(118,128,133)" stroke-width="1" opacity="0.03137254901960784" d="M 227 238 Q 230 237 229 240 Q 226 241 227 238 Z "></path><path fill="rgb(118,128,133)" stroke="rgb(118,128,133)" stroke-width="1" opacity="0.03137254901960784" d="M 238 242 Q 241.3 240.9 240 245 Q 236.7 246.1 238 242 Z "></path><path fill="rgb(118,128,133)" stroke="rgb(118,128,133)" stroke-width="1" opacity="0.03137254901960784" d="M 257.5 280 L 258.5 282 L 257.5 280 Z "></path><path fill="rgb(118,128,133)" stroke="rgb(118,128,133)" stroke-width="1" opacity="0.03137254901960784" d="M 260.5 282 L 262 284.5 L 260 283.5 L 260.5 282 Z "></path><path fill="rgb(118,128,133)" stroke="rgb(118,128,133)" stroke-width="1" opacity="0.03137254901960784" d="M 372.5 337 L 375 338.5 L 374.5 340 L 374 338 L 372.5 337 Z "></path><path fill="rgb(118,128,133)" stroke="rgb(118,128,133)" stroke-width="1" opacity="0.03137254901960784" d="M 13.5 355 L 19 362.5 L 18 362.5 L 13.5 355 Z "></path><path fill="rgb(118,128,133)" stroke="rgb(118,128,133)" stroke-width="1" opacity="0.03137254901960784" d="M 390.5 359 L 391.5 361 L 390.5 359 Z "></path><path fill="rgb(118,128,133)" stroke="rgb(118,128,133)" stroke-width="1" opacity="0.03137254901960784" d="M 23.5 367 L 40 388.5 L 37 386.5 L 23.5 367 Z "></path><path fill="rgb(118,128,133)" stroke="rgb(118,128,133)" stroke-width="1" opacity="0.03137254901960784" d="M 42.5 391 L 43.5 393 L 42.5 391 Z "></path><path fill="rgb(118,128,133)" stroke="rgb(118,128,133)" stroke-width="1" opacity="0.03137254901960784" d="M 47.5 396 L 50 399.5 L 48 398.5 L 47.5 396 Z "></path><path fill="rgb(0,0,0)" stroke="rgb(0,0,0)" stroke-width="1" opacity="0" d="M 0 0 L 399.5 0 L 400 0.5 L 400 59 L 358 60 L 357.5 62 L 342.5 62 L 341.5 63 L 309 64 L 308.5 66 L 293.5 66 L 292.5 67 L 260 68 L 259.5 70 L 244.5 70 L 233 72 L 232.5 74 L 216.5 74 L 215.5 76 L 205.5 76 L 204.5 78 L 195.5 78 L 193.5 80 L 178 80 Q 179.1 83.5 171.5 82 L 166.5 84 L 153 84 L 153 87 L 140.5 87 L 140 90 L 130.5 90 L 130 92 L 125 92 Q 126.1 94.7 123.5 94 L 115.5 96 L 117 93.5 Q 116.2 90.9 119.5 92 L 121.5 92 L 128 91 Q 126.3 86.5 131.5 88 L 131.5 87 Q 126 88.5 124.5 86 L 122 87 Q 123.3 91.1 120 90 Q 121.5 86.3 118.5 87 L 117 86.5 L 118 90 Q 113 88.8 111.5 92 L 111 90.5 L 112 88 Q 109.3 86.9 110 89.5 L 109 92 L 105 91 Q 106.8 95.5 101.5 94 L 93 96 L 92.5 94 L 92 96 L 90 96 Q 91.5 99.7 88.5 99 L 86.5 99 L 79 99 L 79 103 L 77.5 103 L 78 101.5 L 78 100 L 74 100 L 75 106 Q 72 107 73 104 L 70 104 L 68 110 L 64.5 111 L 64 108.5 L 65 104 Q 61.7 102.7 63 107.5 L 61 112 Q 55.8 110.3 57 114 L 59 114.5 L 56 115 Q 57.3 118 53.5 117 L 53.5 118 L 56 119.5 L 55.5 123 L 53.5 123 Q 51.3 122.3 52 124.5 L 51 124.5 Q 51.7 121.5 48 123 Q 49.3 128.3 46 127.5 L 46 130.5 L 45 130.5 L 44.5 129 L 43 133 L 40 133 L 40 135 Q 36.3 133.5 37 136.5 L 38 138.5 L 37 138.5 L 36 135 Q 33.3 133.9 34 136.5 L 32 138.5 L 31 145 L 27.5 146 L 25 145 L 24.5 143 L 23 154 L 25 154.5 L 23.5 155 Q 22.3 152.8 21 155.5 Q 22.1 159.7 18 158 L 18 161.5 L 15.5 169 L 15 167.5 L 16 165.5 L 13 167.5 L 13.5 171 L 15 170.5 Q 16.3 174.7 11.5 173 Q 8.8 174.4 10 179 Q 7 177.8 8 181.5 L 9 184.5 L 6 186.5 L 7 188.5 L 6 193 L 4 193 L 4 198 Q -0.1 196.3 1 200.5 L 2 200.5 L 2.5 199 L 3 201.5 L 0.5 206 L 0 202.5 L 0 200.5 L 0 0 Z M 143 76 L 142 79 L 143 79 L 143 76 Z M 126 83 L 125 86 L 126 86 L 126 83 Z M 108 84 L 106 87 L 108 87 L 108 84 Z M 110 84 Q 109 88 112 87 Q 113 83 110 84 Z M 114 86 Q 113 89 116 88 Q 117 85 114 86 Z M 80 88 L 79 91 L 80 91 L 80 88 Z M 67 95 L 68 98 L 68 96 L 70 96 L 67 95 Z M 59 99 L 58 102 L 59 102 L 59 99 Z M 67 103 L 66 108 L 67 108 L 67 103 Z M 62 104 L 61 107 L 62 107 L 62 104 Z M 45 118 Q 44 122 47 121 Q 48 117 45 118 Z M 49 118 L 48 121 L 49 121 L 49 118 Z M 44 121 L 43 125 L 44 125 L 44 121 Z M 36 123 Q 35 126 38 125 Q 39 122 36 123 Z M 45 123 L 44 126 L 47 126 Q 48 122 45 123 Z M 26 134 L 26 137 L 29 138 L 29 136 L 26 134 Z "></path><path fill="rgb(0,0,0)" stroke="rgb(0,0,0)" stroke-width="1" opacity="0" d="M 109 95 L 112 95.5 L 111 98 Q 107.7 99.1 109 95 Z "></path><path fill="rgb(0,0,0)" stroke="rgb(0,0,0)" stroke-width="1" opacity="0" d="M 397 119 L 400 119.5 L 400 367.5 L 399 367.5 Q 400.1 364.2 397.5 365 L 393 363 L 390.5 359 L 387.5 357 L 381 355 Q 382.3 352 378.5 353 L 373 351 Q 374.3 348 370.5 349 L 366 346.5 Q 366.8 344.3 364.5 345 L 361 344 Q 362.1 341.3 359.5 342 L 356 340 Q 357.1 337.3 354.5 338 L 351 336 L 349.5 333 L 347 331.5 Q 347.9 328.5 343.5 330 L 336 328 Q 337.3 324.7 332.5 326 L 327 324 Q 328.1 321.3 325.5 322 L 319 320 Q 320.3 317 316.5 318 L 313 315.5 Q 313.8 313.3 311.5 314 L 308 312 Q 309.1 309.3 306.5 310 L 303 307.5 Q 303.8 305.3 301.5 306 L 296 304 Q 297.3 301 293.5 302 L 288 300 Q 289.3 297 285.5 298 L 279 296 Q 280.3 293 276.5 294 L 271 292 Q 272.1 289.3 269.5 290 L 265 288 Q 266.1 285.3 263.5 286 L 261 282 L 256 280 L 255 272 L 257 272 L 257 270 Q 259.7 271.1 259 268.5 L 261 265.5 L 261 263.5 L 259.5 261 L 258 261.5 Q 258.7 258.9 256 260 L 256 257 L 254.5 257 L 252 258 L 251.5 254 L 251 256 L 247 258 Q 248.7 252.8 245 254 L 244.5 257 L 244 254.5 L 244.5 253 Q 241.5 253.7 243 250 Q 240 251 241 248 L 238 248 L 238 246.5 L 237 246.5 L 238 249.5 L 234.5 250 L 232 249.5 Q 234.1 243.7 229.5 245 L 228 242 L 223.5 242 Q 222.4 239.3 219 240 L 218 236.5 L 219 234 L 215.5 233 L 214 233.5 Q 212.5 229.1 215.5 230 L 215.5 229 Q 209.7 231.1 211 226.5 L 212 222.5 L 211 218 L 208 218 L 208 211.5 L 206 211 L 204.5 221 L 203 201.5 L 204 198 Q 207 199.3 206 195.5 L 205.5 194 L 208 192.5 L 210 183.5 L 213 180.5 L 220.5 166 L 223 164.5 L 226 159 L 230 156.5 L 231.5 154 L 235 153 Q 233.8 150 237.5 151 L 243 149 Q 241.7 145.7 246.5 147 L 255 145 Q 253.9 142.3 256.5 143 L 264 141 Q 262.8 138 266.5 139 L 274 137 Q 272.8 134 276.5 135 L 282 133 Q 280.6 129.3 286.5 131 L 292 129 Q 290.8 126 294.5 127 L 303.5 125 L 368 125 L 368.5 123 L 377.5 123 L 378.5 122 L 397 121 L 397 119 Z M 205 206 L 206 211 L 207 209 Q 208 205 205 206 Z M 209 207 L 207 210 L 209 210 L 209 207 Z M 216 222 L 215 227 L 216 227 L 216 222 Z M 216 230 L 216 233 L 218 232 Q 219 229 216 230 Z M 223 230 Q 222 233 226 232 Q 227 229 223 230 Z M 231 234 L 230 237 L 231 237 L 231 234 Z M 232 234 L 232 237 L 234 238 Q 235 233 232 234 Z M 220 236 L 220 237 L 222 237 L 220 236 Z M 236 236 Q 234 239 237 238 L 236 236 Z M 227 238 Q 226 241 229 240 Q 230 237 227 238 Z M 231 240 Q 230 243 233 242 Q 234 239 231 240 Z M 229 242 Q 228 245 231 244 Q 232 241 229 242 Z M 238 242 Q 237 246 240 245 Q 241 241 238 242 Z M 234 246 Q 233 250 236 249 Q 237 245 234 246 Z M 244 249 L 244 252 L 249 254 L 248 252 Q 244 253 246 249 L 244 249 Z "></path><path fill="rgb(0,0,0)" stroke="rgb(0,0,0)" stroke-width="1" opacity="0" d="M 204.5 222 L 205 224.5 L 204 224.5 L 204.5 222 Z "></path><path fill="rgb(0,0,0)" stroke="rgb(0,0,0)" stroke-width="1" opacity="0" d="M 240.5 253 L 241 255.5 L 240 255.5 L 240.5 253 Z "></path><path fill="rgb(0,0,0)" stroke="rgb(0,0,0)" stroke-width="1" opacity="0" d="M 241.5 258 L 242 260.5 L 241 260.5 L 241.5 258 Z "></path><path fill="rgb(0,0,0)" stroke="rgb(0,0,0)" stroke-width="1" opacity="0" d="M 243.5 260 Q 247.7 258.7 246 263.5 L 245 263.5 L 243.5 260 Z "></path><path fill="rgb(0,0,0)" stroke="rgb(0,0,0)" stroke-width="1" opacity="0" d="M 256.5 264 L 259 264.5 L 256.5 265 L 256.5 264 Z "></path><path fill="rgb(0,0,0)" stroke="rgb(0,0,0)" stroke-width="1" opacity="0" d="M 254.5 265 L 255 267.5 L 254 267.5 L 254.5 265 Z "></path><path fill="rgb(0,0,0)" stroke="rgb(0,0,0)" stroke-width="1" opacity="0" d="M 0.5 332 L 7 346.5 L 13 353.5 L 18 363 L 22 365.5 L 39.5 389 Q 41.8 388.3 41 390.5 L 45 393 L 49 399.5 L 0 400 L 0.5 332 Z "></path><path fill="rgb(8,22,8)" stroke="rgb(8,22,8)" stroke-width="1" opacity="0.9647058823529412" d="M 396.5 59 L 400 59.5 L 400 72 L 385.5 72 L 384.5 74 L 368.5 74 L 367.5 75 L 336 76 L 335.5 78 L 319.5 78 L 318.5 79 L 286 80 L 285.5 82 L 270.5 82 L 269.5 83 L 237 84 L 236.5 86 L 228.5 86 L 225.5 88 L 210 88 Q 211.3 91.3 206.5 90 L 198.5 92 L 188 92 L 187.5 95 L 174.5 95 L 172.5 94 Q 170.8 97.5 165 96 Q 166.3 99.7 160.5 98 L 159 98.5 Q 160.2 93.9 155 96 Q 156.1 98.7 153.5 98 L 147 99 L 147 102 L 135.5 102 L 134.5 104 L 127 104 L 127 107 L 121.5 107 L 116 108 Q 117.1 110.7 114.5 110 L 113.5 111 L 106 111 Q 107.8 116.3 100.5 114 L 99 117 L 89 118 Q 90.8 122.5 85.5 121 L 83 122 Q 84.7 126.1 80.5 125 L 78 126 Q 79.5 129.8 76.5 129 L 74 130 Q 75.7 134.1 71.5 133 L 69 134 Q 70.8 138.5 65.5 137 L 64 141 L 60 142.5 Q 61.3 146.3 57.5 145 L 54 147 L 51 151.5 L 51 154 L 47 155.5 Q 48.1 158.8 45.5 158 L 43 159 L 42 163 L 40 163 L 40 165 Q 37.3 163.9 38 166.5 L 36 171 Q 32.2 169.5 33 172.5 Q 29.2 174.9 30 181 L 26 183.5 L 24 191 Q 20.7 189.7 22 194.5 L 18 206 Q 14.7 204.7 16 209.5 L 14 211.5 L 14 216.5 L 11 230 Q 8.3 228.9 9 231.5 L 9.5 233 Q 6.5 232.1 8 236.5 L 4 252 L 2 252.5 L 3 257 Q -0.3 255.7 1 260.5 L 2 261.5 L 4 317.5 L 6 320.5 L 6 328.5 L 11 348.5 L 8 346.5 L 0 329.5 L 0 229.5 L 2 221 Q 5 222.3 4 218.5 L 3 215 Q 6.7 216.3 5 210.5 Q 8.8 205.5 9 198 Q 12 199.3 11 195.5 L 13 193.5 L 15 183 Q 17.7 184.1 17 181.5 L 21 171 L 25 168.5 L 26.5 165 Q 29.1 165.8 28 162.5 L 31 161 L 36 151 Q 39.8 152.5 39 149.5 L 40 147 Q 43.7 148.5 43 145.5 L 44 143 L 48 141.5 L 49.5 138 Q 53.3 139.3 52 135.5 L 55 131 L 60 128.5 Q 58.7 124.3 63.5 126 L 66 125 L 67.5 122 L 72 121 L 73.5 117 L 76 117 L 76 114 Q 79 115 78 112 L 81 112 L 83 108 L 89 108 L 89 106 L 94 106 L 94 104.5 Q 98.2 100.9 106 102 L 107.5 99 L 113 99 L 113.5 96 L 120.5 96 Q 122.8 93 128 94 L 128 92 L 134 92 L 134.5 90 L 144.5 90 L 145 88 L 147.5 88 L 156.5 86 L 166 86 L 167.5 83 L 182.5 83 L 183.5 82 L 190 82 Q 188.7 78.7 193.5 80 L 194.5 79 L 211 79 L 211.5 76 L 221.5 76 L 222.5 75 L 233 75 L 233.5 72 L 248.5 72 L 249.5 71 L 282 70 L 282.5 68 L 297.5 68 L 298.5 67 L 331 66 L 331.5 64 L 346.5 64 L 347.5 63 L 380 62 L 380.5 60 L 395.5 60 L 396.5 59 Z "></path><path fill="rgb(8,22,8)" stroke="rgb(8,22,8)" stroke-width="1" opacity="0.9647058823529412" d="M 399.5 108 L 400 119 L 394 119 L 393.5 121 L 386.5 121 L 385.5 122 L 375.5 122 L 374.5 123 L 349 123 L 348.5 125 L 300.5 125 L 291 127 Q 292.3 130 288.5 129 Q 286.5 131.8 282 131 Q 283.3 134 279.5 133 Q 277.3 136 272 135 Q 273.3 138 269.5 137 L 263 139 Q 264.3 142.3 259.5 141 L 254 143 Q 255.3 146.3 250.5 145 L 242 147 Q 243.3 150 239.5 149 L 234 151 Q 235.1 153.7 232.5 153 L 230 157 L 226 159.5 Q 226.8 161.8 224.5 161 L 216 171.5 L 207 193 Q 204.3 191.9 205 194.5 L 202 205.5 L 202 216.5 L 203 217.5 L 203 232 Q 206.7 230.7 205 236.5 L 206 240 Q 208.7 238.9 208 241.5 L 210.5 245 L 213 246.5 Q 211.9 249.8 214.5 249 L 217.5 253 Q 220.1 252.2 219 255.5 L 223 258.5 Q 222.3 260.8 224.5 260 L 227 261 Q 225.5 264.7 228.5 264 L 233 266 L 235.5 270 L 238.5 272 L 243 274 Q 241.9 276.7 244.5 276 L 248 278.5 Q 247.3 280.8 249.5 280 L 254 282 Q 252.8 285 256.5 284 L 260 286.5 Q 259.3 288.8 261.5 288 L 267 290 Q 265.9 292.7 268.5 292 L 274 294 Q 272.9 296.7 275.5 296 L 281 298 Q 279.9 300.7 282.5 300 L 288 302 Q 286.8 305 290.5 304 L 296 306 Q 294.8 309 298.5 308 L 305 310 Q 303.8 313 307.5 312 L 311 314.5 Q 310.3 316.8 312.5 316 L 317 318 Q 315.8 321 319.5 320 L 325 322 Q 323.8 325 327.5 324 L 333 326 Q 331.7 329.3 336.5 328 L 344 330 Q 342.8 333 346.5 332 L 350 334 Q 348.9 336.7 351.5 336 L 355 338 L 356.5 341 L 360 342 Q 358.9 344.7 361.5 344 L 364 345 Q 365.2 348.7 360 347 Q 361.3 343.7 356.5 345 L 352 344 Q 353.3 341 349.5 342 L 342 340 Q 343.3 337 339.5 338 L 333 336 Q 334.3 333 330.5 334 L 323 332 Q 324.3 329 320.5 330 L 315 328 Q 316.3 325 312.5 326 L 306 324 Q 307.1 321.3 304.5 322 L 298 320 Q 299.3 317 295.5 318 L 290 316 Q 291.3 313 287.5 314 L 282 312 Q 283.1 309.3 280.5 310 L 275 308 Q 276.3 305 272.5 306 L 268 304 Q 269.3 301 265.5 302 L 261 300 Q 262.3 297 258.5 298 L 254 296 Q 255.3 293 251.5 294 L 247 292 Q 248.1 289.3 245.5 290 L 241 288 Q 242.1 285.3 239.5 286 L 235 284 Q 236.1 281.3 233.5 282 L 229 280 L 227.5 277 L 224 276 Q 225.1 273.3 222.5 274 L 219 272 Q 220.5 268.3 217.5 269 L 215 268 L 213 262 L 208 260 Q 207.3 254.4 203 251.5 L 203 249 L 200 247.5 Q 200.7 244.9 198 246 L 198 242.5 L 197 240 L 195 239.5 L 195 230.5 L 193 222.5 L 193 209.5 L 194 208.5 L 195 195.5 L 198.5 186 Q 201.1 186.8 200 183.5 L 203.5 177 Q 206.1 177.8 205 174.5 L 214.5 158 Q 218.3 159.3 217 155.5 Q 218.2 153 222 154 Q 220.3 149.9 224.5 151 L 228 149 Q 226.9 146.3 229.5 147 L 234 146 Q 232.5 142.3 235.5 143 L 240 142 L 240 139 L 247.5 139 L 253 137 L 253 135 L 258 135 L 258 133 Q 263.3 134.3 262.5 131 L 267 131 L 267 129 L 274 129 L 274 126 L 281.5 126 L 284 125 Q 282.7 121.7 287.5 123 Q 289 120.5 294.5 122 L 296 120.5 L 296.5 119 L 305 119 L 305.5 117 L 316.5 117 L 317 115 L 318.5 115 L 319.5 114 L 328 114 L 328.5 112 L 343.5 112 L 344.5 111 L 353.5 111 L 354.5 112 L 365.5 112 L 366.5 111 L 399 110 L 399.5 108 Z "></path><path fill="rgb(101,196,96)" stroke="rgb(101,196,96)" stroke-width="1" opacity="0.40784313725490196" d="M 89 102 Q 92 101 91 104 Q 88 105 89 102 Z "></path><path fill="rgb(101,196,96)" stroke="rgb(101,196,96)" stroke-width="1" opacity="0.40784313725490196" d="M 76.5 108 L 77 111.5 L 76 114 L 73 114 Q 74.5 117.7 71.5 117 L 69 118 Q 70.5 121.8 67.5 121 L 63 122 Q 64.8 126.5 59.5 125 L 58 125.5 L 60 121 Q 63.7 122.5 63 119.5 L 64 117 Q 69.2 118.7 68 115 L 66 114.5 L 67.5 112 L 68 115 Q 71.3 116.1 70 112 L 72.5 112 L 76 111 L 76.5 108 Z "></path><path fill="rgb(101,196,96)" stroke="rgb(101,196,96)" stroke-width="1" opacity="0.40784313725490196" d="M 55.5 126 L 56 128.5 L 52.5 134 L 49 135.5 L 47.5 139 L 46 139 Q 47.5 142.8 44.5 142 L 43 146 L 39 147.5 L 37.5 150 L 35 151.5 L 33 157 L 31 157 L 31 159 Q 28.3 157.9 29 160.5 L 26 162 Q 27.3 166.1 24 165 L 24 168.5 L 20 171.5 L 18 178 Q 15 176.8 16 180.5 L 14 183.5 L 12 194 L 9 195.5 L 6 207 Q 3 205.8 4 209.5 L 0.5 223 L 0 218.5 L 2 209 Q -1 210 0 207 L 2 207 L 2 202.5 Q 5 203.5 4 198.5 L 5 194.5 L 4.5 193 Q 7.1 193.7 6 191 L 8 191 L 8 189 L 10 189 L 10 185.5 L 12 179 Q 15.3 180.3 14 175.5 L 17.5 169 Q 19.8 169.8 19 167.5 L 21 161 L 23 161 L 23 155 L 26.5 155 L 28 151 L 32 150 L 33 142 Q 36 140.8 35 144.5 L 36 144.5 L 37.5 141 L 39.5 142 L 42 141 L 42 137 L 45 137 Q 43.5 133.3 46.5 134 L 50 133 L 51.5 129 Q 56.5 130.5 55.5 126 Z "></path><path fill="rgb(101,196,96)" stroke="rgb(101,196,96)" stroke-width="1" opacity="0.40784313725490196" d="M 30.5 146 L 31 148.5 L 30 148.5 L 30.5 146 Z "></path><path fill="rgb(101,196,96)" stroke="rgb(101,196,96)" stroke-width="1" opacity="0.40784313725490196" d="M 205.5 209 L 206 211 Q 208.7 209.9 208 212.5 L 206 213.5 L 205.5 209 Z "></path><path fill="rgb(101,196,96)" stroke="rgb(101,196,96)" stroke-width="1" opacity="0.40784313725490196" d="M 205 217 Q 209 215.6 207 222.5 L 208 227 Q 212.9 225.2 211 231.5 L 212 231.5 Q 211.3 228.9 214 230 Q 215.7 234.1 211.5 233 L 211.5 234 Q 215.9 232.5 215 235.5 L 214 237.5 L 215 240 L 222 242.5 Q 219.4 249.8 225.5 248 L 229 250 Q 227.5 253.7 230.5 253 L 233.5 257 L 235 257 Q 233.5 260.8 236.5 260 L 240 262.5 Q 239.3 264.8 241.5 264 L 244 268 L 251 270 L 252.5 273 Q 255.5 272.1 254 276.5 L 258.5 282 Q 261.1 281.3 260 284 L 258 284 Q 259.1 281.3 256.5 282 L 253 279.5 Q 253.8 277.3 251.5 278 L 247 276 Q 248.1 273.3 245.5 274 L 241 271.5 L 239.5 269 L 235 268 Q 236.1 265.3 233.5 266 L 228 264 Q 229.5 260.2 226.5 261 L 224 260 L 222.5 257 L 219 256 Q 220.5 252.3 217.5 253 L 216 249 Q 213 250.3 214 246.5 L 210 244 L 209 240 Q 206 241.3 207 237.5 L 206 236.5 L 205 217 Z "></path><path fill="rgb(101,196,96)" stroke="rgb(101,196,96)" stroke-width="1" opacity="0.40784313725490196" d="M 209 222 Q 212.7 220.8 211 226 Q 207.3 227.2 209 222 Z "></path><path fill="rgb(101,196,96)" stroke="rgb(101,196,96)" stroke-width="1" opacity="0.40784313725490196" d="M 285 298 Q 288 297 287 300 Q 284 301 285 298 Z "></path><path fill="rgb(101,196,96)" stroke="rgb(101,196,96)" stroke-width="1" opacity="0.40784313725490196" d="M 293 302 Q 296 301 295 304 Q 292 305 293 302 Z "></path><path fill="rgb(101,196,96)" stroke="rgb(101,196,96)" stroke-width="1" opacity="0.40784313725490196" d="M 19.5 361 L 23 366.5 L 22 366.5 L 19 362.5 L 19.5 361 Z "></path><path fill="rgb(101,196,96)" stroke="rgb(101,196,96)" stroke-width="1" opacity="0.40784313725490196" d="M 392.5 361 L 394 363.5 L 392 362.5 L 392.5 361 Z "></path><path fill="rgb(101,196,96)" stroke="rgb(101,196,96)" stroke-width="1" opacity="0.40784313725490196" d="M 39.5 387 L 42 390.5 L 41 390.5 L 39.5 387 Z "></path><path fill="rgb(101,196,96)" stroke="rgb(101,196,96)" stroke-width="1" opacity="0.40784313725490196" d="M 44.5 392 L 47 395.5 L 45 394.5 L 44.5 392 Z "></path><path fill="rgb(101,196,96)" stroke="rgb(101,196,96)" stroke-width="1" opacity="0.40784313725490196" d="M 50.5 399 L 53 399.5 L 50.5 400 L 50.5 399 Z "></path><path fill="rgb(80,205,73)" stroke="rgb(80,205,73)" stroke-width="1" opacity="0.996078431372549" d="M 385 72 L 399.5 72 L 400 74 L 357 76 L 356.5 78 L 341.5 78 L 340.5 79 L 308 80 L 307.5 82 L 292.5 82 L 291.5 83 L 259 84 L 258.5 86 L 243.5 86 L 232 88 L 231.5 90 L 215.5 90 Q 212.2 93.8 204 92 L 204 94 L 193.5 94 L 192.5 96 L 177.5 96 L 176.5 98 L 168.5 98 L 164 100 Q 165.1 103.3 161 102 L 160.5 100 L 149 100 L 147.5 103 L 142 103 Q 143.5 107.5 139 106 L 138.5 103 L 136 104 Q 134.9 106.7 137.5 106 Q 140.3 107.3 138 108.5 Q 138.7 111.5 135 110 L 136 106.5 L 131 106 L 131 108 L 123.5 108 L 123 109.5 L 121.5 111 L 115 111.5 L 116 115 L 113 115 Q 114.5 110.5 110 112 L 108.5 115 L 101 115 Q 102.6 119.9 97 118 L 97 121.5 L 96 121.5 Q 97 117.8 94 119 Q 95.1 121.7 92.5 121 L 89.5 123 L 87 122 Q 88.7 126.1 84.5 125 L 82 126 Q 83.5 129.8 80.5 129 L 77 131.5 Q 77.8 133.8 75.5 133 L 71 135 L 69.5 138 Q 65.8 137.3 65 139.5 L 63.5 142 L 60.5 143 L 61.5 141 Q 65.3 142.3 64 138.5 Q 65.2 136 69 137 Q 67.5 133.3 70.5 134 L 74 133 Q 72.5 129.3 75.5 130 L 78 129 Q 76.5 125.2 79.5 126 L 83 125 Q 81.5 121.2 84.5 122 L 89 121 Q 87.2 116.1 93.5 118 L 99 117 L 100.5 114 L 106 114 L 106.5 111 L 113.5 111 L 116 110 Q 114.7 106.3 120.5 108 L 127 107 L 127 104 L 134.5 104 L 135.5 102 L 146.5 102 L 147.5 99 L 159.5 99 L 165 98 Q 163.6 94 170.5 96 L 171.5 95 L 188 95 L 188.5 92 L 198.5 92 L 210 90 L 210.5 88 L 225.5 88 Q 228.8 84.2 237 86 L 237.5 84 L 253.5 84 L 254.5 83 L 286 82 L 286.5 80 L 302.5 80 L 303.5 79 L 336 78 L 336.5 76 L 351.5 76 L 352.5 75 L 385 74 L 385 72 Z "></path><path fill="rgb(80,205,73)" stroke="rgb(80,205,73)" stroke-width="1" opacity="0.996078431372549" d="M 156 102 Q 160.1 100.7 159 104 Q 154.9 105.3 156 102 Z "></path><path fill="rgb(80,205,73)" stroke="rgb(80,205,73)" stroke-width="1" opacity="0.996078431372549" d="M 393.5 107 L 400 107.5 L 399 110 L 354.5 112 L 353.5 111 L 344.5 111 L 343.5 112 L 328 112 L 327.5 114 L 319.5 114 L 317 115 L 316.5 117 L 305.5 117 L 305 119 L 296.5 119 L 296 120.5 L 294.5 122 L 284 123 Q 285.1 125.7 282.5 125 L 281.5 126 L 274 126 L 274 129 L 267 129 L 267 131 L 262 131 L 262 133 L 258 133 L 258 135 L 253.5 135 L 253 137 L 250.5 137 Q 247.4 140.6 240 139 Q 241.8 143.5 236.5 142 L 234 143 Q 235.8 147.5 230.5 146 L 228 147 Q 229.1 149.7 226.5 149 Q 225.4 151.8 222 151 Q 223.8 155.5 218.5 154 L 217 158 L 213 159.5 L 213 161.5 L 206 171.5 L 205 177 L 202 178.5 L 200 186 L 197 187.5 L 193 209.5 L 193 222.5 L 195 230.5 L 195 240 Q 197.7 238.9 197 241.5 L 198 246 Q 200.7 244.9 200 247.5 L 203 249 L 203 251.5 Q 207.3 254.4 208 260 L 213 262 L 215 268 L 219 269 Q 217.5 272.8 220.5 272 L 224 274 Q 222.9 276.7 225.5 276 L 229 278.5 Q 228.3 280.8 230.5 280 L 235 282 Q 233.9 284.7 236.5 284 L 241 286 Q 239.9 288.7 242.5 288 L 247 290 Q 245.9 292.7 248.5 292 L 254 294 Q 252.9 296.7 255.5 296 L 261 298 Q 259.9 300.7 262.5 300 L 268 302 Q 266.9 304.7 269.5 304 L 275 306 Q 273.9 308.7 276.5 308 L 282 310 Q 280.8 313 284.5 312 L 290 314 Q 288.8 317 292.5 316 L 298 318 Q 296.9 320.7 299.5 320 L 306 322 Q 304.8 325 308.5 324 L 315 326 Q 313.8 329 317.5 328 L 323 330 Q 321.8 333 325.5 332 L 333 334 Q 331.8 337 335.5 336 L 342 338 Q 340.8 341 344.5 340 L 352 342 Q 350.7 345.3 355.5 344 L 360 345 Q 358.6 348.7 364.5 347 L 371 349 Q 369.9 351.7 372.5 351 L 379 353 Q 377.8 356 381.5 355 L 388 357 L 389.5 360 L 392 361.5 L 393.5 364 L 397 365 L 397 367 Q 399.7 365.9 399 368.5 Q 401.8 370.3 400 376.5 L 399 378.5 L 400 383 L 395.5 384 L 392.5 383 Q 389.9 383.7 391 381 L 389 381 L 389 379 L 387 379 L 387 376 L 391 375.5 L 390 373 L 385 370.5 L 384.5 369 L 383.5 371 L 383 369 Q 379.4 366.4 373 367 L 372.5 365 L 372 368 L 377 369 Q 375.9 371.7 378.5 371 L 384 373.5 L 384.5 375 L 385.5 373 L 386 376.5 L 384.5 376 L 381.5 377 L 376 375 L 374.5 372 L 372.5 372 L 368 371 L 367.5 367 L 366.5 369 L 362.5 367 L 360.5 367 Q 356.8 368 358 365 Q 361.7 366.5 361 363.5 L 363.5 365 L 365 363.5 L 364 361 L 361 360.5 L 361 358.5 L 361.5 357 L 363.5 360 L 367 359 Q 368.1 356.3 365.5 357 L 360.5 355 L 358.5 355 Q 356.3 355.8 357 353.5 L 356 353.5 L 355.5 355 L 354.5 352 L 352 352.5 L 351.5 355 L 349.5 351 L 346.5 353 L 343 351 L 341.5 348 L 339.5 349 L 337 348.5 L 337.5 347 L 334.5 348 L 333.5 345 L 332.5 347 L 332 345.5 L 332.5 344 Q 329.5 343.2 331 347 L 329 347 L 330 341.5 L 328 342.5 L 327.5 344 L 327 342.5 L 328 340.5 L 325.5 340 L 322.5 341 L 322 338 L 319 338 L 317 334 L 311.5 334 L 306.5 332 L 305 332.5 L 306 330 L 301.5 330 L 298 328 L 298 326 L 294 326 L 294 324.5 L 291 323.5 Q 291.8 320.9 288.5 322 L 284 320 Q 285.1 317.3 282.5 318 L 277 316 Q 278.1 313.3 275.5 314 L 270 312 L 268.5 309 L 265 307.5 Q 265.8 304.9 262.5 306 L 258 304 L 256.5 301 L 252 300 Q 253.1 297.3 250.5 298 L 245 296 L 243.5 293 L 240 292 Q 241.1 289.3 238.5 290 L 235 288 Q 236.1 285.3 233.5 286 L 230 284 Q 231.3 281 227.5 282 L 225 278 L 222 278 L 222 276 L 220 276 L 220 274 L 216 272 L 216 269.5 L 214 269.5 L 213 266 L 209 263.5 Q 210.1 260.2 207.5 261 L 205.5 256 L 204 256.5 L 202.5 253 L 200 251.5 L 199 248 Q 196 249.3 197 245.5 L 196 241 Q 192.3 242.3 194 236.5 L 192 229.5 L 192 209.5 L 191 205.5 L 193 202.5 L 192 198 Q 195 199.3 194 195.5 L 193 193 Q 196 194.3 195 190.5 L 198 182 L 201 180.5 L 204 170.5 L 209.5 162 Q 212.1 162.8 211 159.5 L 216 157 L 217.5 153 Q 220.5 153.7 219 150 L 222.5 150 L 224 146 L 232 145 Q 230.3 140.9 234.5 142 L 237 141 L 237 138 L 243.5 138 L 245 135 L 255.5 134 L 257 132.5 Q 256.2 129.9 259.5 131 L 265 129 L 265 127 L 271 127 L 271 125 L 278 125 L 278 122 L 285.5 122 L 289 121 Q 287.9 118.3 290.5 119 L 291.5 118 L 299.5 118 L 301 116.5 L 301.5 115 L 310.5 115 L 313 114 L 313.5 112 L 322.5 112 L 323.5 111 L 355 110 Q 353.9 106.7 358 108 Q 356.3 112.1 360.5 111 L 361.5 110 L 377 110 L 377.5 108 L 392.5 108 L 393.5 107 Z M 365 360 L 366 363 L 366 361 L 370 361 L 370 363 L 371 363 L 371 360 L 365 360 Z M 367 363 L 368 365 Q 369 362 367 363 Z M 370 364 L 369 367 L 370 367 L 370 364 Z M 364 365 Q 363 368 367 367 Q 368 364 364 365 Z M 392 376 L 390 378 L 391 380 L 394 379 L 395 380 Q 397 374 392 376 Z M 396 377 Q 395 380 398 379 Q 399 376 396 377 Z "></path><path fill="rgb(80,205,73)" stroke="rgb(80,205,73)" stroke-width="1" opacity="0.996078431372549" d="M 57.5 145 L 60 145.5 L 57 147 Q 58.5 150.8 55.5 150 L 54 154 L 50 155 L 49 159 Q 45.2 157.5 46 160.5 L 45 163 Q 41.3 161.5 42 164.5 L 40 169 L 37 170.5 Q 38.1 173.8 35.5 173 L 33 174 L 32 179 Q 29.3 180.1 30 177.5 L 33 171 Q 36.7 172.5 36 169.5 L 38 165 L 40 165 L 40 163 Q 42.7 164.1 42 161.5 L 43 159 L 47 158 L 48.5 154 Q 52.3 155.3 51 151.5 L 54 147 L 57.5 145 Z "></path><path fill="rgb(80,205,73)" stroke="rgb(80,205,73)" stroke-width="1" opacity="0.996078431372549" d="M 28.5 181 Q 30.8 180.3 30 182.5 L 29 186 L 26 187.5 L 23 201 L 20 202.5 L 19 206.5 L 20 208.5 L 19 208.5 L 18.5 207 L 17 213 Q 13.3 211.7 15 217.5 Q 12.3 219.3 14 225.5 L 12 227.5 L 12 231.5 L 9 238.5 L 9 244 Q 6.3 242.9 7 245.5 L 5 252.5 L 7 253 L 8 257.5 L 6.5 257 Q 3.9 257.8 5 254.5 L 4 254.5 L 3 264.5 L 4.5 264 L 6 264.5 L 4 265 L 3 268.5 L 5 269.5 L 3 270 L 3 274 L 4.5 274 L 6 273.5 L 6 276 L 4 276.5 L 4 289.5 L 5.5 289 Q 8.1 288.2 7 291.5 L 6 293.5 L 8 304 L 10 304.5 L 10 306.5 L 10.5 310 L 12 309.5 L 12.5 312 L 13.5 310 L 14 311.5 L 13 313.5 L 14 316 Q 18.5 314.3 17 319.5 L 17.5 321 L 16 321.5 L 17 323.5 L 16.5 325 L 20 326 Q 18.5 329.8 21.5 329 L 23 328.5 L 21 331.5 L 24 335.5 L 23.5 337 Q 26.1 336.2 25 339.5 L 26 339.5 L 26.5 338 L 27.5 340 L 28.5 338 L 33 347 L 38 349.5 L 38.5 353 L 41.5 351 L 40 353.5 L 42.5 360 L 46 359 L 46 361 Q 48.7 359.9 48 362.5 Q 49.2 365.8 53 365 L 52 368.5 L 53.5 368 L 55 368.5 L 53 369 Q 51.8 372 55.5 371 L 58 375 L 60 375.5 L 60 377.5 L 62 380.5 L 63.5 384 L 64.5 381 L 66.5 388 Q 68.2 385.3 70 389.5 L 71.5 392 Q 74.1 391.2 73 394.5 L 77 399.5 L 53.5 400 L 49 399 L 44.5 392 L 42 390.5 L 39.5 387 Q 37.3 387.8 38 385.5 L 20 361 L 16 358.5 L 11 350.5 L 9 337.5 L 6 328.5 L 6 320.5 L 4 317.5 L 2 261.5 L 1 257 Q 4.3 258.3 3 253.5 L 2.5 252 Q 5.5 252.9 4 248.5 L 8 233 L 10 232.5 L 9 230 Q 12.3 231.3 11 226.5 L 16 206 Q 19 207.3 18 203.5 L 22 194.5 L 22 191 Q 24.7 192.1 24 189.5 L 26 183.5 L 28.5 181 Z "></path><path fill="rgb(80,205,73)" stroke="rgb(80,205,73)" stroke-width="1" opacity="0.996078431372549" d="M 17.5 214 L 18 216.5 L 17 216.5 L 17.5 214 Z "></path><path fill="rgb(80,205,73)" stroke="rgb(80,205,73)" stroke-width="1" opacity="0.996078431372549" d="M 16.5 230 L 17 232.5 L 16 232.5 L 16.5 230 Z "></path><path fill="rgb(80,205,73)" stroke="rgb(80,205,73)" stroke-width="1" opacity="0.996078431372549" d="M 6.5 260 L 8 263.5 L 7 263.5 L 6.5 260 Z "></path><path fill="rgb(80,205,73)" stroke="rgb(80,205,73)" stroke-width="1" opacity="0.996078431372549" d="M 227.5 261 L 228 263.5 L 227 263.5 L 227.5 261 Z "></path><path fill="rgb(80,205,73)" stroke="rgb(80,205,73)" stroke-width="1" opacity="0.996078431372549" d="M 229.5 264 L 235 266 Q 233.8 269 237.5 268 L 241 270.5 L 242.5 273 L 247 274 Q 245.9 276.7 248.5 276 L 253 278 L 254.5 281 L 258 282 Q 256.8 285 260.5 284 L 264 286 Q 262.9 288.7 265.5 288 L 269 290.5 Q 268.3 292.8 270.5 292 L 277 294 Q 275.8 297 279.5 296 L 285 298 Q 283.8 301 287.5 300 L 293 302 Q 291.8 305 295.5 304 L 301 306 Q 299.9 308.7 302.5 308 L 306 310.5 L 305.5 312 L 305 310 L 296 308 Q 297.3 305 293.5 306 L 288 304 Q 289.1 301.3 286.5 302 L 281 300 Q 282.3 297 278.5 298 L 274 296 Q 275.3 293 271.5 294 L 267 292 Q 268.1 289.3 265.5 290 L 260 288 L 258.5 285 L 254 284 Q 255.1 281.3 252.5 282 L 248 280 L 246.5 277 L 243 276 Q 244.1 273.3 241.5 274 L 237 272 Q 238.1 269.3 235.5 270 L 233 266 Q 228.8 266 229.5 264 Z "></path><path fill="rgb(80,205,73)" stroke="rgb(80,205,73)" stroke-width="1" opacity="0.996078431372549" d="M 358 361 Q 361 359.8 360 363.5 L 358 362.5 L 358 361 Z "></path><path fill="rgb(81,207,74)" stroke="rgb(81,207,74)" stroke-width="1" opacity="1" d="M 390.5 74 L 399.5 74 L 400 74.5 L 400 107 L 393.5 107 L 392.5 108 L 377 108 L 376.5 110 L 361.5 110 L 358 111 Q 359.5 106.5 355 108 L 354.5 110 L 339.5 110 L 338.5 111 L 323.5 111 L 322.5 112 L 313 112 Q 314.1 114.7 311.5 114 L 310.5 115 L 301 115 L 299.5 118 Q 292 117 289 119 Q 290.3 122 286.5 121 L 285.5 122 L 278 122 L 278 125 L 271.5 125 L 271 127 L 265.5 127 L 265 129 L 262.5 129 L 257 131 L 255.5 134 L 245 135 L 243.5 138 L 237 138 Q 238.5 141.8 235.5 141 L 232 142 Q 233.8 146.9 227.5 145 L 224 146 L 222.5 150 L 219 150 Q 220.5 153.7 217.5 153 L 216 157 L 211 159.5 Q 212.1 162.8 209.5 162 L 204 170.5 L 199.5 182 Q 196.9 181.2 198 184.5 L 196 186.5 L 195 193 Q 192.3 191.9 193 194.5 L 194 198 Q 190.7 196.7 192 201.5 L 192 203.5 L 191 208.5 L 192 209.5 L 192 229.5 L 194 241 Q 197.3 239.7 196 244.5 L 197 248 Q 199.7 246.9 199 249.5 L 201.5 253 L 204 254.5 L 204.5 257 L 206 256.5 Q 205.3 260.3 207.5 261 Q 210.1 260.2 209 263.5 L 213 266 L 214.5 270 L 216 269.5 L 216 272 L 218 272 L 218 274 L 220 274 L 220 276 Q 223 275 222 278 L 225 278 L 225 279.5 Q 226.2 282.8 230 282 Q 228.9 284.7 231.5 284 L 235 286 Q 233.9 288.7 236.5 288 L 240 290 Q 238.9 292.7 241.5 292 L 245 294.5 Q 244.2 297.1 247.5 296 L 252 298 Q 250.9 300.7 253.5 300 L 258 302.5 Q 257.3 304.8 259.5 304 L 265 306 L 266.5 309 L 270 310.5 Q 269.3 312.8 271.5 312 L 277 314 Q 275.8 317 279.5 316 L 284 318 Q 282.9 320.7 285.5 320 L 291 322 L 292.5 325 L 294 324.5 L 294 326 L 298 326 Q 296.9 328.7 299.5 328 L 302 328.5 L 301.5 330 L 306 330 Q 304.9 332.7 307.5 332 Q 310.8 335 317 334 L 319 338 L 322 338 L 322 340.5 L 323.5 340 L 326.5 341 L 328 340.5 L 328.5 342 L 330 341.5 L 329 347 L 331 347 Q 329.5 343.2 332.5 344 L 334.5 348 L 337.5 347 L 340.5 349 Q 341.8 346.8 343 349.5 Q 342.3 351.8 344.5 351 Q 346 354.5 347.5 352 L 349.5 351 L 351.5 355 L 352.5 352 L 355 352.5 L 355.5 355 L 356.5 353 L 357 355 L 359.5 356 L 361.5 356 L 367 357 Q 368.3 360 364.5 359 L 364.5 360 L 371 360 L 371 362.5 L 371.5 364 L 370 361 Q 364.8 359.3 366 363 Q 368.7 361.9 368 364.5 L 367 366.5 L 368 371 L 373.5 373 Q 374.8 370.7 376 373.5 Q 375.2 376.1 378.5 375 L 380.5 376 L 382.5 376 L 385.5 377 L 386 373.5 L 385 373.5 L 384.5 375 L 382.5 372 L 377 371 Q 378.3 368 374.5 369 L 372 368 L 372.5 365 L 373 367 Q 379.4 366.4 383 369 L 383.5 371 L 384.5 369 L 386.5 372 L 390 373 L 390.5 375 L 391.5 373 L 392 374.5 L 391.5 376 Q 396.8 374.3 395 379.5 L 393.5 379 L 390.5 380 L 390 377.5 L 390.5 376 Q 385.3 374.5 387 379 L 389 379 L 389 381 L 391 381 Q 389.9 383.7 392.5 383 L 396.5 383 L 400 383.5 L 400 400 L 77.5 400 L 76 398.5 L 73 394.5 L 73 392 L 70 390.5 L 67.5 387 L 66 387.5 L 64.5 381 L 63.5 384 L 62 379 Q 59.3 380.1 60 377.5 L 59.5 375 L 57.5 376 L 58 374.5 L 55.5 371 Q 52.2 372.1 53 369.5 L 52 367.5 L 53 365 Q 49.2 365.8 48 362.5 Q 48.7 359.9 46 361 L 46 359 L 43.5 359 L 42 359.5 L 40 353.5 L 40.5 352 L 38.5 353 L 36.5 348 L 33 347 L 29.5 341 L 28 341.5 L 29 338.5 L 28 338.5 L 27.5 340 L 26.5 338 L 25.5 340 L 25 337 L 23 336.5 L 24 334.5 L 21 330 Q 23.7 331.1 23 328.5 L 21.5 329 L 20 329 Q 21.5 325.2 18.5 326 L 16 324.5 L 17 322.5 L 16.5 321 L 18 320.5 L 17 316 Q 13.3 317.5 14 314.5 L 11.5 309 L 10 309.5 L 9 305.5 L 9.5 304 Q 7.3 304.8 8 302.5 Q 5.3 300.8 7 294.5 L 4 289.5 L 4 276 Q 7 277.3 6 273.5 L 4.5 274 L 3 274 L 3 270 L 5 269.5 L 3 268.5 L 4 265.5 L 3 260.5 L 4.5 254 L 5 257 Q 8.7 258.2 7 253 L 5 252.5 L 7 244 Q 11 245.4 9 238.5 L 12 231.5 L 12 227.5 L 14 225.5 L 15 213 Q 17.7 214.1 17 211.5 L 21.5 201 Q 24.5 201.9 23 197.5 L 25 189.5 L 27.5 186 Q 30.1 186.8 29 183.5 L 30 179 Q 32.7 180.1 32 177.5 L 33 174 L 37 173 L 38.5 169 Q 40.8 169.8 40 167.5 L 42 163 Q 45.7 164.5 45 161.5 L 46 159 Q 49.8 160.5 49 157.5 L 50 155 L 54 154 L 55.5 150 L 57 150 Q 55.5 146.3 58.5 147 L 60 143 L 65 140.5 L 66.5 138 Q 70.3 138.8 71 136.5 Q 70.3 134.3 72.5 135 L 77 133 L 78.5 130 L 82 129 Q 80.5 125.2 83.5 126 L 87 125 Q 85.5 121.2 88.5 122 L 90.5 123 L 94 121 Q 93 118 96 119 L 96.5 122 L 97 118 L 101 118 L 101.5 115 L 108.5 115 L 110 112 L 113 112 Q 111.5 116.5 116 115 L 115 111.5 L 121.5 111 L 123 109.5 L 123.5 108 L 131 108 L 131 106 L 136 106 Q 134.9 103.3 137.5 104 L 139 103.5 Q 137.9 107.7 142 106 Q 140.2 100.8 147.5 103 L 149 100 L 160.5 100 Q 159.8 103 164 102 Q 162.9 99.3 165.5 100 Q 168.8 96.2 177 98 L 177.5 96 L 192.5 96 L 193.5 94 L 203.5 94 L 204.5 92 L 212.5 92 L 215.5 90 L 232 90 Q 230.8 87 234.5 88 L 243.5 86 L 259 86 L 259.5 84 L 274.5 84 L 275.5 83 L 308 82 L 308.5 80 L 323.5 80 L 324.5 79 L 357 78 L 357.5 76 L 373.5 76 L 374.5 75 L 389.5 75 L 390.5 74 Z M 156 102 Q 155 105 159 104 Q 160 101 156 102 Z M 137 106 L 135 108 Q 134 112 138 110 L 139 108 L 137 106 Z M 18 214 L 17 217 L 18 217 L 18 214 Z M 17 230 L 16 233 L 17 233 L 17 230 Z M 6 289 L 6 292 L 7 292 Q 8 288 6 289 Z M 363 359 L 361 361 L 364 361 L 363 359 Z M 358 361 L 358 363 L 360 364 Q 361 360 358 361 Z M 362 363 Q 362 366 358 365 L 358 367 L 362 368 L 364 367 L 362 363 Z M 366 363 L 364 365 L 367 365 L 366 363 Z M 365 367 L 366 368 L 367 369 Q 368 366 365 367 Z "></path><path fill="rgb(81,207,74)" stroke="rgb(81,207,74)" stroke-width="1" opacity="1" d="M 369.5 364 L 370 366.5 L 369 366.5 L 369.5 364 Z "></path><path fill="rgb(81,207,74)" stroke="rgb(81,207,74)" stroke-width="1" opacity="1" d="M 396 377 Q 399 376 398 379 Q 395 380 396 377 Z "></path><path fill="rgb(17,42,17)" stroke="rgb(17,42,17)" stroke-width="1" opacity="0.4588235294117647" d="M 375.5 59 L 396 59.5 L 380 60 L 379.5 62 L 364.5 62 L 363.5 63 L 331 64 L 330.5 66 L 315.5 66 L 314.5 67 L 282 68 L 281.5 70 L 265.5 70 L 264.5 71 L 238.5 72 L 238.5 71 L 260 70 L 260.5 68 L 275.5 68 L 276.5 67 L 309 66 L 309.5 64 L 325.5 64 L 326.5 63 L 358 62 L 358.5 60 L 374.5 60 L 375.5 59 Z "></path><path fill="rgb(17,42,17)" stroke="rgb(17,42,17)" stroke-width="1" opacity="0.4588235294117647" d="M 216 74 L 233 74.5 L 216 76 L 216 74 Z "></path><path fill="rgb(17,42,17)" stroke="rgb(17,42,17)" stroke-width="1" opacity="0.4588235294117647" d="M 205 76 L 211 76 L 211 79 L 195 78.5 L 205 78 L 205 76 Z "></path><path fill="rgb(17,42,17)" stroke="rgb(17,42,17)" stroke-width="1" opacity="0.4588235294117647" d="M 178 80 L 189.5 80 L 190 82 L 171.5 83 L 171.5 82 Q 179.1 83.5 178 80 Z "></path><path fill="rgb(17,42,17)" stroke="rgb(17,42,17)" stroke-width="1" opacity="0.4588235294117647" d="M 153 84 L 165.5 84 L 166 86 Q 157.6 85 153 87 L 153 84 Z "></path><path fill="rgb(17,42,17)" stroke="rgb(17,42,17)" stroke-width="1" opacity="0.4588235294117647" d="M 140 87 L 148 87.5 L 145 88 L 145 90 L 140 90 L 140 87 Z "></path><path fill="rgb(17,42,17)" stroke="rgb(17,42,17)" stroke-width="1" opacity="0.4588235294117647" d="M 130 90 Q 135.2 88.3 134 92 Q 128.8 93.7 130 90 Z "></path><path fill="rgb(17,42,17)" stroke="rgb(17,42,17)" stroke-width="1" opacity="0.4588235294117647" d="M 125 92 Q 129.1 90.7 128 94 Q 123.9 95.3 125 92 Z "></path><path fill="rgb(17,42,17)" stroke="rgb(17,42,17)" stroke-width="1" opacity="0.4588235294117647" d="M 112.5 95 L 115 95.5 L 113 96 Q 114.8 101.2 107.5 99 L 106 102 Q 98.2 100.9 94 104.5 L 94 106 L 89 106 L 89 108 L 83 108 L 81 112 L 78 112 Q 79 115 76 114 L 76 117 L 73.5 117 L 72 121 L 66 123.5 Q 66.8 125.8 64.5 125 L 60 126 L 58.5 130 L 55 131 L 52 135.5 L 52 138 L 48 139.5 L 46.5 143 Q 43.2 141.9 44 144.5 L 43 144.5 L 44.5 142 L 46 142 Q 44.5 138.3 47.5 139 L 50.5 134 L 54 132.5 Q 52.8 128.8 56.5 130 L 58 126 L 64 125 Q 62.3 120.9 66.5 122 L 69 121 Q 67.5 117.3 70.5 118 L 73 117 L 73 114 Q 76.7 115.5 76 112.5 L 80 110 Q 78.9 107.3 81.5 108 L 87 106 L 87 104 L 92 104 L 92 102 L 97.5 102 L 98 100 L 99.5 100 Q 103.8 97 111 98 L 112.5 95 Z "></path><path fill="rgb(17,42,17)" stroke="rgb(17,42,17)" stroke-width="1" opacity="0.4588235294117647" d="M 116.5 95 L 121 95.5 L 116.5 96 L 116.5 95 Z "></path><path fill="rgb(17,42,17)" stroke="rgb(17,42,17)" stroke-width="1" opacity="0.4588235294117647" d="M 155 96 Q 160.6 94.1 159 99 L 153 98.5 L 155 98 L 155 96 Z "></path><path fill="rgb(17,42,17)" stroke="rgb(17,42,17)" stroke-width="1" opacity="0.4588235294117647" d="M 394 119 Q 398.1 117.7 397 121 Q 392.9 122.3 394 119 Z "></path><path fill="rgb(17,42,17)" stroke="rgb(17,42,17)" stroke-width="1" opacity="0.4588235294117647" d="M 375.5 122 L 378 122.5 L 375.5 123 L 375.5 122 Z "></path><path fill="rgb(17,42,17)" stroke="rgb(17,42,17)" stroke-width="1" opacity="0.4588235294117647" d="M 349 123 L 367.5 123 L 368 125 L 349.5 125 L 349 123 Z "></path><path fill="rgb(17,42,17)" stroke="rgb(17,42,17)" stroke-width="1" opacity="0.4588235294117647" d="M 300.5 125 L 303 125.5 L 300.5 126 L 300.5 125 Z "></path><path fill="rgb(17,42,17)" stroke="rgb(17,42,17)" stroke-width="1" opacity="0.4588235294117647" d="M 272 135 Q 275 134 274 137 Q 271 138 272 135 Z "></path><path fill="rgb(17,42,17)" stroke="rgb(17,42,17)" stroke-width="1" opacity="0.4588235294117647" d="M 40.5 146 L 43 146.5 L 40 147 L 39 151 Q 35.2 149.5 36 152.5 L 31 161 L 28 162.5 Q 29.1 165.8 26.5 165 L 22.5 171 Q 19.9 170.2 21 173.5 L 19 175.5 L 17 183 Q 14 181.8 15 185.5 L 14 185.5 L 16 178 Q 19 179.3 18 175.5 L 21.5 170 L 24 168.5 L 24 165 L 26 165 Q 24.5 161.2 27.5 162 L 29 159 L 31 159 L 31 157 Q 33.7 158.1 33 155.5 L 36.5 150 L 39 148.5 L 40.5 146 Z "></path><path fill="rgb(17,42,17)" stroke="rgb(17,42,17)" stroke-width="1" opacity="0.4588235294117647" d="M 244.5 146 L 247 146.5 L 244.5 147 L 244.5 146 Z "></path><path fill="rgb(17,42,17)" stroke="rgb(17,42,17)" stroke-width="1" opacity="0.4588235294117647" d="M 228.5 157 L 227.5 159 L 228.5 157 Z "></path><path fill="rgb(17,42,17)" stroke="rgb(17,42,17)" stroke-width="1" opacity="0.4588235294117647" d="M 224.5 161 L 223 163.5 L 221.5 166 L 222 164.5 L 224.5 161 Z "></path><path fill="rgb(17,42,17)" stroke="rgb(17,42,17)" stroke-width="1" opacity="0.4588235294117647" d="M 218.5 169 L 217 171.5 L 214.5 177 L 214 175.5 L 218.5 169 Z "></path><path fill="rgb(17,42,17)" stroke="rgb(17,42,17)" stroke-width="1" opacity="0.4588235294117647" d="M 212.5 179 L 213 180.5 L 211 181.5 L 212.5 179 Z "></path><path fill="rgb(17,42,17)" stroke="rgb(17,42,17)" stroke-width="1" opacity="0.4588235294117647" d="M 13.5 187 L 14 189.5 L 11 198 Q 8 196.8 9 200.5 L 5 210.5 L 5 215 Q 2 213.8 3 217.5 L 4 221 Q 0.7 219.7 2 224.5 L 0.5 229 L 0 225.5 L 2 220.5 L 2 215.5 L 4 207 Q 7.3 208.3 6 203.5 L 10.5 194 Q 13.5 194.9 12 190.5 L 13.5 187 Z "></path><path fill="rgb(17,42,17)" stroke="rgb(17,42,17)" stroke-width="1" opacity="0.4588235294117647" d="M 208.5 189 L 208 190.5 L 206.5 194 L 205 193.5 L 207 193 L 208.5 189 Z "></path><path fill="rgb(17,42,17)" stroke="rgb(17,42,17)" stroke-width="1" opacity="0.4588235294117647" d="M 204 195 Q 207.3 193.9 206 198 Q 202.7 199.1 204 195 Z "></path><path fill="rgb(17,42,17)" stroke="rgb(17,42,17)" stroke-width="1" opacity="0.4588235294117647" d="M 202.5 205 Q 205.1 210.9 204 220.5 L 205 221.5 L 204 225 L 206 225.5 L 204 226 L 203.5 232 L 202.5 205 Z "></path><path fill="rgb(17,42,17)" stroke="rgb(17,42,17)" stroke-width="1" opacity="0.4588235294117647" d="M 205.5 232 L 207 239.5 L 206 239.5 L 205.5 232 Z "></path><path fill="rgb(17,42,17)" stroke="rgb(17,42,17)" stroke-width="1" opacity="0.4588235294117647" d="M 208.5 240 L 210 244 L 214 246.5 L 213.5 249 L 211.5 245 L 209 243.5 L 208.5 240 Z "></path><path fill="rgb(17,42,17)" stroke="rgb(17,42,17)" stroke-width="1" opacity="0.4588235294117647" d="M 310.5 313 L 313 314 L 314 316.5 L 312.5 316 Q 310.3 316.8 311 314.5 L 310.5 313 Z "></path><path fill="rgb(17,42,17)" stroke="rgb(17,42,17)" stroke-width="1" opacity="0.4588235294117647" d="M 317 318 Q 320 317 319 320 Q 316 321 317 318 Z "></path><path fill="rgb(17,42,17)" stroke="rgb(17,42,17)" stroke-width="1" opacity="0.4588235294117647" d="M 323.5 321 L 327 322 Q 328 325 325 324 Q 326.1 321.3 323.5 322 L 323.5 321 Z "></path><path fill="rgb(17,42,17)" stroke="rgb(17,42,17)" stroke-width="1" opacity="0.4588235294117647" d="M 333 326 Q 337.1 324.7 336 328 Q 331.9 329.3 333 326 Z "></path><path fill="rgb(17,42,17)" stroke="rgb(17,42,17)" stroke-width="1" opacity="0.4588235294117647" d="M 337.5 328 L 340 328.5 L 337.5 329 L 337.5 328 Z "></path><path fill="rgb(17,42,17)" stroke="rgb(17,42,17)" stroke-width="1" opacity="0.4588235294117647" d="M 344 330 Q 347 329 346 332 Q 343 333 344 330 Z "></path><path fill="rgb(17,42,17)" stroke="rgb(17,42,17)" stroke-width="1" opacity="0.4588235294117647" d="M 347.5 332 L 351 334.5 L 350.5 336 L 350 334 L 347.5 332 Z "></path><path fill="rgb(17,42,17)" stroke="rgb(17,42,17)" stroke-width="1" opacity="0.4588235294117647" d="M 352.5 336 L 353.5 338 L 352.5 336 Z "></path><path fill="rgb(17,42,17)" stroke="rgb(17,42,17)" stroke-width="1" opacity="0.4588235294117647" d="M 355.5 338 L 356 340 L 359 341.5 L 357.5 341 L 355 339.5 L 355.5 338 Z "></path><path fill="rgb(17,42,17)" stroke="rgb(17,42,17)" stroke-width="1" opacity="0.4588235294117647" d="M 4.5 340 L 7 343.5 L 6 343.5 L 4.5 340 Z "></path><path fill="rgb(17,42,17)" stroke="rgb(17,42,17)" stroke-width="1" opacity="0.4588235294117647" d="M 7.5 345 L 13 352.5 L 10 350.5 L 7 346.5 L 7.5 345 Z "></path></svg>