<svg width="400" height="400" version="1.1" xmlns="http://www.w3.org/2000/svg" desc="Created with imagetracer.js version 1.2.5"><path fill="rgb(224,224,224)" stroke="rgb(224,224,224)" stroke-width="1" opacity="1" d="M 96.5 50 L 100 50.5 L 96.5 51 L 96.5 50 Z "></path><path fill="rgb(224,224,224)" stroke="rgb(224,224,224)" stroke-width="1" opacity="1" d="M 302.5 50 L 307 50.5 L 302.5 51 L 302.5 50 Z "></path><path fill="rgb(224,224,224)" stroke="rgb(224,224,224)" stroke-width="1" opacity="1" d="M 93.5 51 L 90.5 55 L 93.5 51 Z "></path><path fill="rgb(224,224,224)" stroke="rgb(224,224,224)" stroke-width="1" opacity="1" d="M 103.5 51 L 106.5 55 L 103.5 51 Z "></path><path fill="rgb(224,224,224)" stroke="rgb(224,224,224)" stroke-width="1" opacity="1" d="M 310.5 52 L 347.5 90 L 310.5 52 Z "></path><path fill="rgb(224,224,224)" stroke="rgb(224,224,224)" stroke-width="1" opacity="1" d="M 296.5 65 L 312.5 82 L 296.5 65 Z "></path><path fill="rgb(224,224,224)" stroke="rgb(224,224,224)" stroke-width="1" opacity="1" d="M 109.5 84 L 113.5 89 L 109.5 84 Z "></path><path fill="rgb(224,224,224)" stroke="rgb(224,224,224)" stroke-width="1" opacity="1" d="M 86.5 85 L 76.5 96 L 86.5 85 Z "></path><path fill="rgb(224,224,224)" stroke="rgb(224,224,224)" stroke-width="1" opacity="1" d="M 55.5 89 L 54.5 91 L 55.5 89 Z "></path><path fill="rgb(224,224,224)" stroke="rgb(224,224,224)" stroke-width="1" opacity="1" d="M 260.5 90 L 259.5 92 L 260.5 90 Z "></path><path fill="rgb(224,224,224)" stroke="rgb(224,224,224)" stroke-width="1" opacity="1" d="M 352.5 95 L 353 101.5 L 352 101.5 L 352.5 95 Z "></path><path fill="rgb(224,224,224)" stroke="rgb(224,224,224)" stroke-width="1" opacity="1" d="M 50.5 96 L 51 100.5 L 50 100.5 L 50.5 96 Z "></path><path fill="rgb(224,224,224)" stroke="rgb(224,224,224)" stroke-width="1" opacity="1" d="M 351.5 103 L 349.5 106 L 351.5 103 Z "></path><path fill="rgb(224,224,224)" stroke="rgb(224,224,224)" stroke-width="1" opacity="1" d="M 319.5 108 L 311.5 117 L 319.5 108 Z "></path><path fill="rgb(224,224,224)" stroke="rgb(224,224,224)" stroke-width="1" opacity="1" d="M 90.5 142 L 92.5 145 L 90.5 142 Z "></path><path fill="rgb(224,224,224)" stroke="rgb(224,224,224)" stroke-width="1" opacity="1" d="M 106.5 142 L 105.5 144 L 106.5 142 Z "></path><path fill="rgb(224,224,224)" stroke="rgb(224,224,224)" stroke-width="1" opacity="1" d="M 310.5 258 L 311.5 260 L 310.5 258 Z "></path><path fill="rgb(224,224,224)" stroke="rgb(224,224,224)" stroke-width="1" opacity="1" d="M 295.5 263 L 296 319.5 L 295 319.5 L 295.5 263 Z "></path><path fill="rgb(224,224,224)" stroke="rgb(224,224,224)" stroke-width="1" opacity="1" d="M 314.5 264 L 315 317.5 L 314 317.5 L 314.5 264 Z "></path><path fill="rgb(224,224,224)" stroke="rgb(224,224,224)" stroke-width="1" opacity="1" d="M 106.5 272 L 101.5 278 L 106.5 272 Z "></path><path fill="rgb(224,224,224)" stroke="rgb(224,224,224)" stroke-width="1" opacity="1" d="M 65.5 286 L 55.5 297 L 65.5 286 Z "></path><path fill="rgb(224,224,224)" stroke="rgb(224,224,224)" stroke-width="1" opacity="1" d="M 83.5 294 L 84.5 296 L 83.5 294 Z "></path><path fill="rgb(224,224,224)" stroke="rgb(224,224,224)" stroke-width="1" opacity="1" d="M 138.5 295 L 141 295.5 L 138.5 296 L 138.5 295 Z "></path><path fill="rgb(224,224,224)" stroke="rgb(224,224,224)" stroke-width="1" opacity="1" d="M 261.5 296 L 260.5 298 L 261.5 296 Z "></path><path fill="rgb(224,224,224)" stroke="rgb(224,224,224)" stroke-width="1" opacity="1" d="M 336.5 297 L 327.5 307 L 336.5 297 Z "></path><path fill="rgb(224,224,224)" stroke="rgb(224,224,224)" stroke-width="1" opacity="1" d="M 349.5 297 L 350.5 299 L 349.5 297 Z "></path><path fill="rgb(224,224,224)" stroke="rgb(224,224,224)" stroke-width="1" opacity="1" d="M 55.5 313 L 92.5 351 L 55.5 313 Z "></path><path fill="rgb(224,224,224)" stroke="rgb(224,224,224)" stroke-width="1" opacity="1" d="M 85.5 316 L 100.5 332 L 85.5 316 Z "></path><path fill="rgb(224,224,224)" stroke="rgb(224,224,224)" stroke-width="1" opacity="1" d="M 106.5 348 L 104.5 351 L 106.5 348 Z "></path><path fill="rgb(224,224,224)" stroke="rgb(224,224,224)" stroke-width="1" opacity="1" d="M 302.5 352 L 308 352.5 L 302.5 353 L 302.5 352 Z "></path><path fill="rgb(223,231,67)" stroke="rgb(223,231,67)" stroke-width="1" opacity="1" d="M 91.5 7 L 112.5 8 L 131.5 13 Q 153.2 22.3 167 39.5 Q 179.5 54 184 76.5 L 183 76.5 Q 181.5 65.5 176.5 58 L 174 65.5 L 163.5 78 Q 160.3 81.8 154 82.5 L 159 90.5 L 157 89.5 L 156 86.5 L 111.5 42 L 103.5 38 L 92.5 38 L 83.5 43 L 84.5 41 L 93 35.5 Q 95.8 18.3 107 9.5 Q 101.4 6.6 91.5 8 L 91.5 7 Z "></path><path fill="rgb(223,231,67)" stroke="rgb(223,231,67)" stroke-width="1" opacity="1" d="M 354.5 229 L 356.5 232 L 354.5 229 Z "></path><path fill="rgb(223,231,67)" stroke="rgb(223,231,67)" stroke-width="1" opacity="1" d="M 358.5 232 L 360.5 235 L 358.5 232 Z "></path><path fill="rgb(223,231,67)" stroke="rgb(223,231,67)" stroke-width="1" opacity="1" d="M 337.5 235 Q 350.8 233.8 355 241.5 Q 358 245.5 357 253.5 L 351.5 262 Q 347.4 265.9 338.5 265 Q 332.8 263.8 330 259.5 Q 325.8 255.7 327 246.5 Q 328.3 240.8 332.5 238 L 337.5 235 Z "></path><path fill="rgb(223,231,67)" stroke="rgb(223,231,67)" stroke-width="1" opacity="1" d="M 316.5 246 L 317.5 248 L 316.5 246 Z "></path><path fill="rgb(223,231,67)" stroke="rgb(223,231,67)" stroke-width="1" opacity="1" d="M 319.5 248 Q 327 252.5 328 263.5 L 327 263.5 L 325 255.5 L 319.5 248 Z "></path><path fill="rgb(17,115,213)" stroke="rgb(17,115,213)" stroke-width="1" opacity="1" d="M 291.5 7 L 316 7.5 L 312 8.5 L 317 9 L 317.5 11 L 319 10.5 L 316 12.5 L 315.5 11 Q 312.8 12.3 315 13.5 L 312 16.5 L 304 29.5 L 303 36 L 298 37.5 L 300 38.5 L 298.5 39 L 296.5 38 L 296.5 40 L 287 46.5 Q 282.4 51.9 282 61.5 L 283 66.5 L 289 75.5 L 275.5 76 Q 273.5 73.2 269 74 L 266 66.5 L 263 52.5 L 264 50.5 L 263 49.5 L 263 37.5 L 266 20.5 L 268 16.5 L 267 14 L 277.5 10 L 291.5 7 Z "></path><path fill="rgb(17,115,213)" stroke="rgb(17,115,213)" stroke-width="1" opacity="1" d="M 319.5 8 L 322 8.5 L 319.5 9 L 319.5 8 Z "></path><path fill="rgb(17,115,213)" stroke="rgb(17,115,213)" stroke-width="1" opacity="1" d="M 370.5 36 L 371.5 38 L 370.5 36 Z "></path><path fill="rgb(17,115,213)" stroke="rgb(17,115,213)" stroke-width="1" opacity="1" d="M 303.5 37 L 306 37.5 L 303.5 38 L 303.5 37 Z "></path><path fill="rgb(17,115,213)" stroke="rgb(17,115,213)" stroke-width="1" opacity="1" d="M 374.5 41 L 375.5 43 L 374.5 41 Z "></path><path fill="rgb(17,115,213)" stroke="rgb(17,115,213)" stroke-width="1" opacity="1" d="M 380 55 Q 382.7 53.9 382 56.5 L 384.5 61 L 385.5 59 L 386 60.5 L 385 62.5 L 387 62.5 L 386 64.5 L 388 64.5 L 393 84.5 L 393 104.5 L 391.5 107 Q 390 104.5 388.5 108 L 369.5 118 L 354.5 121 L 358 116.5 L 357 115.5 L 360.5 112 L 362 111.5 Q 359.8 110.2 362.5 109 L 364 108.5 L 364 106.5 Q 366.3 101.8 365 93.5 Q 363.6 86.9 359 83.5 L 360 81.5 L 358.5 79 Q 360 81.5 361.5 78 L 373 69.5 L 380 57.5 L 380 55 Z "></path><path fill="rgb(17,115,213)" stroke="rgb(17,115,213)" stroke-width="1" opacity="1" d="M 348.5 72 L 356.5 81 L 348.5 72 Z "></path><path fill="rgb(17,115,213)" stroke="rgb(17,115,213)" stroke-width="1" opacity="1" d="M 261.5 76 L 264 76.5 L 261.5 77 L 261.5 76 Z "></path><path fill="rgb(17,115,213)" stroke="rgb(17,115,213)" stroke-width="1" opacity="1" d="M 244.5 95 L 245 100.5 L 244 100.5 L 244.5 95 Z "></path><path fill="rgb(17,115,213)" stroke="rgb(17,115,213)" stroke-width="1" opacity="1" d="M 263.5 120 L 288.5 120 L 289 121.5 L 286 123.5 L 287.5 121 L 263.5 121 L 263.5 120 Z "></path><path fill="rgb(17,115,213)" stroke="rgb(17,115,213)" stroke-width="1" opacity="1" d="M 287.5 150 L 290.5 154 L 287.5 150 Z "></path><path fill="rgb(17,115,213)" stroke="rgb(17,115,213)" stroke-width="1" opacity="1" d="M 307.5 158 L 310 158.5 L 307.5 159 L 307.5 158 Z "></path><path fill="rgb(255,255,255)" stroke="rgb(255,255,255)" stroke-width="1" opacity="1" d="M 94.5 51 L 102.5 51 L 145 93.5 L 146 101.5 L 141.5 107 L 133.5 108 L 114 89.5 L 109.5 84 L 108 84.5 L 108 139.5 L 103.5 145 L 95.5 146 L 89 140.5 L 89 84.5 L 87.5 84 L 65.5 107 L 57.5 108 L 51 102.5 L 51 94.5 L 94.5 51 Z "></path><path fill="rgb(255,255,255)" stroke="rgb(255,255,255)" stroke-width="1" opacity="1" d="M 301.5 51 L 308.5 51 L 352 93.5 L 352 102.5 L 309.5 145 L 302.5 146 L 297 142.5 Q 294.2 139.8 295 133.5 L 310.5 117 L 320 108.5 L 264.5 108 L 259 104.5 Q 256.2 101.8 257 95.5 L 261.5 90 L 263.5 89 L 320 88.5 L 296 64.5 L 295 57.5 L 299.5 52 L 301.5 51 Z "></path><path fill="rgb(255,255,255)" stroke="rgb(255,255,255)" stroke-width="1" opacity="1" d="M 96.5 257 Q 104.6 256.4 107 261.5 L 108 270.5 L 83 294.5 Q 84.3 297.2 85.5 295 L 137.5 295 L 141.5 296 L 145 299.5 L 146 308.5 L 142.5 313 L 140.5 314 L 83 314.5 L 106 336.5 Q 109.4 339.1 108 346.5 L 102.5 352 L 98.5 353 L 94.5 352 L 52 310.5 Q 49.7 307.3 51 300.5 L 66 286.5 L 67.5 284 Q 69.8 284.8 69 282.5 L 72 281 L 72 279.5 L 92.5 259 L 96.5 257 Z "></path><path fill="rgb(255,255,255)" stroke="rgb(255,255,255)" stroke-width="1" opacity="1" d="M 302.5 257 L 307.5 257 L 313 260 L 314 262.5 L 314.5 320 L 338.5 296 L 345.5 295 L 352 300.5 L 353 306.5 L 351 311 Q 348.3 309.9 349 312.5 L 341 319 L 334.5 327 Q 332.3 326.3 333 328.5 L 328 332 L 326.5 335 Q 324.3 334.3 325 336.5 L 320 340 L 318.5 343 Q 316.3 342.3 317 344.5 L 308.5 352 L 300.5 352 L 296 346 L 293 344.5 Q 293.8 342.3 291.5 343 L 258 309.5 L 257 302.5 L 259 298 L 264.5 295 L 269.5 295 L 295.5 320 L 296 261.5 L 298.5 259 L 302.5 257 Z "></path><path fill="rgb(218,218,1)" stroke="rgb(218,218,1)" stroke-width="1" opacity="1" d="M 90.5 7 L 93 8.5 L 77.5 10 L 57 17.5 L 59 18 L 56 28.5 L 55 50.5 L 58.5 67 L 83 43.5 L 41 86.5 Q 36 92 38 104.5 Q 41.3 113.3 48.5 118 Q 54 122.5 65.5 121 L 75.5 115 L 76 141.5 Q 78.3 149.3 83.5 154 L 93.5 159 L 103.5 159 L 115 153 L 121 140.5 L 121.5 115 Q 126.6 122.9 141.5 121 Q 151.3 118.3 156 110.5 Q 160.7 104.6 159 92.5 L 158.5 91 L 160 92.5 L 161 99.5 Q 158.6 111.6 150.5 118 Q 144.8 122.8 134.5 123 L 122.5 117 L 122 123 L 128.5 124 L 143.5 124 L 164.5 119 Q 176.4 114.4 185 106.5 L 185 85.5 L 183 77.5 L 185 78.5 Q 183.8 83.2 186 84.5 L 186 109.5 L 183 123.5 L 178 136.5 L 171 148.5 L 161 161 L 138.5 177 L 123.5 183 L 108.5 186 L 84.5 186 Q 49.1 179.9 30 157.5 Q 18.5 145 12 127.5 L 8 111.5 L 7 90.5 L 8 89.5 L 8 81.5 L 10 72.5 L 20 49.5 Q 27.9 36.4 39.5 27 Q 49.7 18.2 63.5 13 L 76.5 9 L 89.5 8 L 90.5 7 Z "></path><path fill="rgb(218,218,1)" stroke="rgb(218,218,1)" stroke-width="1" opacity="1" d="M 94.5 8 Q 102.5 7 107 9.5 L 99 18.5 L 94 28.5 L 93 35.5 L 90.5 38 L 86.5 39 L 87 37.5 Q 88.7 19.2 99 9.5 L 94.5 9 L 94.5 8 Z "></path><path fill="rgb(218,218,1)" stroke="rgb(218,218,1)" stroke-width="1" opacity="1" d="M 176.5 59 L 179 67.5 L 168.5 81 L 157.5 88 L 158 86.5 L 156 83.5 L 155.5 82 L 159.5 81 L 169 72.5 Q 174.2 67.2 176.5 59 Z "></path><path fill="rgb(211,211,14)" stroke="rgb(211,211,14)" stroke-width="1" opacity="1" d="M 85.5 7 L 90 7.5 L 85.5 8 L 85.5 7 Z "></path><path fill="rgb(211,211,14)" stroke="rgb(211,211,14)" stroke-width="1" opacity="1" d="M 104.5 7 L 109 7.5 L 104.5 8 L 104.5 7 Z "></path><path fill="rgb(211,211,14)" stroke="rgb(211,211,14)" stroke-width="1" opacity="1" d="M 93.5 8 L 99 9.5 Q 88.4 19.7 87 38 L 90 39.5 L 88.5 39 L 83 42.5 Q 85.8 44.3 81.5 46 L 80.5 45 L 52 72.5 L 58 66.5 L 58 63.5 L 55 50.5 L 55 36.5 L 59 18 L 55.5 19 L 55.5 18 L 59 16.5 L 58.5 15 L 61.5 16 L 73.5 11 L 82.5 9 L 92.5 9 L 93.5 8 Z "></path><path fill="rgb(211,211,14)" stroke="rgb(211,211,14)" stroke-width="1" opacity="1" d="M 52.5 18 Q 55.5 19.5 52.5 21 L 52.5 18 Z "></path><path fill="rgb(211,211,14)" stroke="rgb(211,211,14)" stroke-width="1" opacity="1" d="M 41.5 25 L 40.5 27 L 41.5 25 Z "></path><path fill="rgb(211,211,14)" stroke="rgb(211,211,14)" stroke-width="1" opacity="1" d="M 34.5 31 L 31.5 35 L 34.5 31 Z "></path><path fill="rgb(211,211,14)" stroke="rgb(211,211,14)" stroke-width="1" opacity="1" d="M 26.5 40 L 25.5 42 L 26.5 40 Z "></path><path fill="rgb(211,211,14)" stroke="rgb(211,211,14)" stroke-width="1" opacity="1" d="M 179.5 61 L 179 62.5 L 178.5 64 L 178 62.5 L 179.5 61 Z "></path><path fill="rgb(211,211,14)" stroke="rgb(211,211,14)" stroke-width="1" opacity="1" d="M 179.5 65 L 182.5 74 L 183.5 72 L 184 73.5 L 183 78.5 L 185 85.5 L 185 106.5 Q 174.3 116.3 158.5 121 L 143.5 124 L 128.5 124 L 122 123 Q 120.5 117.6 123.5 116 L 124.5 119 L 126.5 118 L 126.5 120 L 128.5 119 L 128.5 121 L 138.5 123 L 147 119.5 L 146.5 118 L 148.5 119 L 149.5 116 L 149.5 118 L 155 113.5 L 154 111.5 L 157 110.5 L 156 108.5 L 158 108.5 L 157 106.5 L 159 106.5 L 161 97.5 L 159.5 92 L 158.5 94 L 158 92.5 L 159 89.5 L 156.5 86 Q 155.3 88.3 154 85.5 L 156.5 85 L 159.5 87 L 174 75.5 L 179.5 65 Z "></path><path fill="rgb(211,211,14)" stroke="rgb(211,211,14)" stroke-width="1" opacity="1" d="M 152.5 80 L 155.5 84 L 152.5 80 Z "></path><path fill="rgb(211,211,14)" stroke="rgb(211,211,14)" stroke-width="1" opacity="1" d="M 185.5 81 L 186 83.5 L 185 83.5 L 185.5 81 Z "></path><path fill="rgb(211,211,14)" stroke="rgb(211,211,14)" stroke-width="1" opacity="1" d="M 7.5 85 L 8 89.5 L 7 89.5 L 7.5 85 Z "></path><path fill="rgb(211,211,14)" stroke="rgb(211,211,14)" stroke-width="1" opacity="1" d="M 186.5 89 L 187 104.5 L 186 104.5 L 186.5 89 Z "></path><path fill="rgb(211,211,14)" stroke="rgb(211,211,14)" stroke-width="1" opacity="1" d="M 7.5 104 L 8 107.5 L 7 107.5 L 7.5 104 Z "></path><path fill="rgb(211,211,14)" stroke="rgb(211,211,14)" stroke-width="1" opacity="1" d="M 185.5 110 L 186 112.5 L 185 112.5 L 185.5 110 Z "></path><path fill="rgb(211,211,14)" stroke="rgb(211,211,14)" stroke-width="1" opacity="1" d="M 75.5 114 L 73.5 117 L 75.5 114 Z "></path><path fill="rgb(211,211,14)" stroke="rgb(211,211,14)" stroke-width="1" opacity="1" d="M 47.5 116 L 48.5 118 L 47.5 116 Z "></path><path fill="rgb(211,211,14)" stroke="rgb(211,211,14)" stroke-width="1" opacity="1" d="M 120.5 134 L 121 140.5 L 120 140.5 L 120.5 134 Z "></path><path fill="rgb(211,211,14)" stroke="rgb(211,211,14)" stroke-width="1" opacity="1" d="M 81.5 151 L 83.5 154 L 81.5 151 Z "></path><path fill="rgb(211,211,14)" stroke="rgb(211,211,14)" stroke-width="1" opacity="1" d="M 27.5 154 L 29.5 157 L 27.5 154 Z "></path><path fill="rgb(211,211,14)" stroke="rgb(211,211,14)" stroke-width="1" opacity="1" d="M 164.5 156 L 161.5 160 L 164.5 156 Z "></path><path fill="rgb(211,211,14)" stroke="rgb(211,211,14)" stroke-width="1" opacity="1" d="M 93.5 158 L 96 158.5 L 93.5 159 L 93.5 158 Z "></path><path fill="rgb(211,211,14)" stroke="rgb(211,211,14)" stroke-width="1" opacity="1" d="M 101.5 158 L 104 158.5 L 101.5 159 L 101.5 158 Z "></path><path fill="rgb(211,211,14)" stroke="rgb(211,211,14)" stroke-width="1" opacity="1" d="M 159.5 161 L 156.5 165 L 159.5 161 Z "></path><path fill="rgb(211,211,14)" stroke="rgb(211,211,14)" stroke-width="1" opacity="1" d="M 37.5 164 L 39.5 167 L 37.5 164 Z "></path><path fill="rgb(211,211,14)" stroke="rgb(211,211,14)" stroke-width="1" opacity="1" d="M 81.5 185 L 84 185.5 L 81.5 186 L 81.5 185 Z "></path><path fill="rgb(211,211,14)" stroke="rgb(211,211,14)" stroke-width="1" opacity="1" d="M 109.5 185 L 112 185.5 L 109.5 186 L 109.5 185 Z "></path><path fill="rgb(211,211,14)" stroke="rgb(211,211,14)" stroke-width="1" opacity="1" d="M 90.5 186 L 104 186.5 L 90.5 187 L 90.5 186 Z "></path><path fill="rgb(76,150,224)" stroke="rgb(76,150,224)" stroke-width="1" opacity="1" d="M 312.5 8 L 318.5 8 L 337.5 13 Q 357 21 370 35.5 Q 381.3 47.2 387 64.5 L 386 64.5 L 382 55 Q 379 53.8 380 57.5 L 371 71.5 L 371.5 73 Q 370 70.5 368.5 74 L 367 74.5 L 367.5 76 Q 366 73.5 364.5 77 L 363 77.5 L 363.5 79 L 361.5 78 Q 357.2 79.7 360 81.5 L 362 84.5 L 348.5 72 L 316.5 41 Q 311.8 37.2 303.5 37 L 296.5 39 L 296.5 38 L 303 36 L 306 25.5 L 305.5 24 L 307 24.5 L 310 19.5 L 309.5 18 Q 310.8 20.3 312 17.5 L 311 15.5 Q 313 17.2 315 13.5 Q 312.8 12.3 315.5 11 L 316.5 13 Q 319.3 11.8 317 10.5 Q 317.9 7.1 312.5 9 L 312.5 8 Z "></path><path fill="rgb(76,150,224)" stroke="rgb(76,150,224)" stroke-width="1" opacity="1" d="M 298.5 52 L 296.5 55 L 298.5 52 Z "></path><path fill="rgb(76,150,224)" stroke="rgb(76,150,224)" stroke-width="1" opacity="1" d="M 89.5 55 L 66.5 79 L 89.5 55 Z "></path><path fill="rgb(76,150,224)" stroke="rgb(76,150,224)" stroke-width="1" opacity="1" d="M 107.5 55 L 144.5 93 L 107.5 55 Z "></path><path fill="rgb(76,150,224)" stroke="rgb(76,150,224)" stroke-width="1" opacity="1" d="M 294.5 59 L 295 61.5 L 294 61.5 L 294.5 59 Z "></path><path fill="rgb(76,150,224)" stroke="rgb(76,150,224)" stroke-width="1" opacity="1" d="M 64.5 80 L 61.5 84 L 64.5 80 Z "></path><path fill="rgb(76,150,224)" stroke="rgb(76,150,224)" stroke-width="1" opacity="1" d="M 313.5 82 L 317.5 87 L 313.5 82 Z "></path><path fill="rgb(76,150,224)" stroke="rgb(76,150,224)" stroke-width="1" opacity="1" d="M 59.5 85 L 58.5 87 L 59.5 85 Z "></path><path fill="rgb(76,150,224)" stroke="rgb(76,150,224)" stroke-width="1" opacity="1" d="M 88.5 86 L 89 138.5 L 88 138.5 L 88.5 86 Z "></path><path fill="rgb(76,150,224)" stroke="rgb(76,150,224)" stroke-width="1" opacity="1" d="M 264.5 88 L 318 88.5 L 264.5 89 L 264.5 88 Z "></path><path fill="rgb(76,150,224)" stroke="rgb(76,150,224)" stroke-width="1" opacity="1" d="M 53.5 91 L 51.5 94 L 53.5 91 Z "></path><path fill="rgb(76,150,224)" stroke="rgb(76,150,224)" stroke-width="1" opacity="1" d="M 350.5 91 L 351.5 93 L 350.5 91 Z "></path><path fill="rgb(76,150,224)" stroke="rgb(76,150,224)" stroke-width="1" opacity="1" d="M 146.5 96 L 147 100.5 L 146 100.5 L 146.5 96 Z "></path><path fill="rgb(76,150,224)" stroke="rgb(76,150,224)" stroke-width="1" opacity="1" d="M 127.5 103 L 129.5 106 L 127.5 103 Z "></path><path fill="rgb(76,150,224)" stroke="rgb(76,150,224)" stroke-width="1" opacity="1" d="M 52.5 104 L 54.5 107 L 52.5 104 Z "></path><path fill="rgb(76,150,224)" stroke="rgb(76,150,224)" stroke-width="1" opacity="1" d="M 144.5 104 L 143.5 106 L 144.5 104 Z "></path><path fill="rgb(76,150,224)" stroke="rgb(76,150,224)" stroke-width="1" opacity="1" d="M 259.5 105 L 260.5 107 L 259.5 105 Z "></path><path fill="rgb(76,150,224)" stroke="rgb(76,150,224)" stroke-width="1" opacity="1" d="M 58.5 108 L 63 108.5 L 58.5 109 L 58.5 108 Z "></path><path fill="rgb(76,150,224)" stroke="rgb(76,150,224)" stroke-width="1" opacity="1" d="M 134.5 108 L 139 108.5 L 134.5 109 L 134.5 108 Z "></path><path fill="rgb(76,150,224)" stroke="rgb(76,150,224)" stroke-width="1" opacity="1" d="M 340.5 114 L 339.5 116 L 340.5 114 Z "></path><path fill="rgb(76,150,224)" stroke="rgb(76,150,224)" stroke-width="1" opacity="1" d="M 337.5 117 L 310.5 145 L 337.5 117 Z "></path><path fill="rgb(76,150,224)" stroke="rgb(76,150,224)" stroke-width="1" opacity="1" d="M 294.5 135 L 295 137.5 L 294 137.5 L 294.5 135 Z "></path><path fill="rgb(76,150,224)" stroke="rgb(76,150,224)" stroke-width="1" opacity="1" d="M 303.5 146 L 307 146.5 L 303.5 147 L 303.5 146 Z "></path><path fill="rgb(76,150,224)" stroke="rgb(76,150,224)" stroke-width="1" opacity="1" d="M 97.5 256 L 100 256.5 L 97.5 257 L 97.5 256 Z "></path><path fill="rgb(76,150,224)" stroke="rgb(76,150,224)" stroke-width="1" opacity="1" d="M 100.5 278 L 92.5 287 L 100.5 278 Z "></path><path fill="rgb(76,150,224)" stroke="rgb(76,150,224)" stroke-width="1" opacity="1" d="M 265.5 294 L 269 294.5 L 265.5 295 L 265.5 294 Z "></path><path fill="rgb(76,150,224)" stroke="rgb(76,150,224)" stroke-width="1" opacity="1" d="M 341.5 294 L 345 294.5 L 341.5 295 L 341.5 294 Z "></path><path fill="rgb(76,150,224)" stroke="rgb(76,150,224)" stroke-width="1" opacity="1" d="M 338.5 295 L 337.5 297 L 338.5 295 Z "></path><path fill="rgb(76,150,224)" stroke="rgb(76,150,224)" stroke-width="1" opacity="1" d="M 347.5 295 L 348.5 297 L 347.5 295 Z "></path><path fill="rgb(76,150,224)" stroke="rgb(76,150,224)" stroke-width="1" opacity="1" d="M 272.5 296 L 273.5 298 L 272.5 296 Z "></path><path fill="rgb(76,150,224)" stroke="rgb(76,150,224)" stroke-width="1" opacity="1" d="M 275.5 299 L 282.5 307 L 275.5 299 Z "></path><path fill="rgb(76,150,224)" stroke="rgb(76,150,224)" stroke-width="1" opacity="1" d="M 146.5 303 L 147 306.5 L 146 306.5 L 146.5 303 Z "></path><path fill="rgb(76,150,224)" stroke="rgb(76,150,224)" stroke-width="1" opacity="1" d="M 50.5 305 L 51 307.5 L 50 307.5 L 50.5 305 Z "></path><path fill="rgb(76,150,224)" stroke="rgb(76,150,224)" stroke-width="1" opacity="1" d="M 324.5 309 L 316.5 318 L 324.5 309 Z "></path><path fill="rgb(76,150,224)" stroke="rgb(76,150,224)" stroke-width="1" opacity="1" d="M 84 314 L 140 314.5 L 85.5 315 L 84.5 316 L 84 314 Z "></path><path fill="rgb(76,150,224)" stroke="rgb(76,150,224)" stroke-width="1" opacity="1" d="M 312.5 349 L 310.5 352 L 312.5 349 Z "></path><path fill="rgb(0,108,217)" stroke="rgb(0,108,217)" stroke-width="1" opacity="1" d="M 266.5 14 L 268 16.5 L 264 29.5 L 263 49.5 L 264 51.5 L 264 53.5 L 266 66.5 L 269 74 L 275 75.5 L 258.5 77 L 248 85.5 Q 243.8 90.8 244 100.5 Q 245.7 111.8 253.5 117 L 263.5 121 L 288 121.5 Q 281.5 127 282 139.5 Q 284.1 148.9 290.5 154 L 300.5 159 L 309.5 159 L 317.5 155 L 360.5 113 L 354.5 121 L 363.5 120 L 381 112.5 L 380.5 111 L 382.5 112 L 383.5 109 L 385.5 110 L 390 106.5 L 389.5 105 L 392 106.5 L 391 104.5 L 393 105.5 Q 387.4 146.9 360.5 167 Q 349.4 176.4 334.5 182 L 318.5 186 L 296.5 187 L 295.5 186 L 282.5 185 L 267.5 180 Q 248.7 171.8 236 157.5 Q 223.5 144 217 124.5 L 214 111.5 L 213 90.5 L 217 69.5 L 226 49.5 Q 233.9 36.4 245.5 27 L 266.5 14 Z "></path><path fill="rgb(0,108,217)" stroke="rgb(0,108,217)" stroke-width="1" opacity="1" d="M 362.5 110 L 361.5 112 L 362.5 110 Z "></path><path fill="rgb(179,50,34)" stroke="rgb(179,50,34)" stroke-width="1" opacity="1" d="M 121.5 114 L 122.5 116 L 121.5 114 Z "></path><path fill="rgb(179,50,34)" stroke="rgb(179,50,34)" stroke-width="1" opacity="1" d="M 120.5 116 L 121 133.5 L 120 133.5 L 120.5 116 Z "></path><path fill="rgb(179,50,34)" stroke="rgb(179,50,34)" stroke-width="1" opacity="1" d="M 96.5 158 L 101 158.5 L 96.5 159 L 96.5 158 Z "></path><path fill="rgb(179,50,34)" stroke="rgb(179,50,34)" stroke-width="1" opacity="1" d="M 87.5 213 L 107 213.5 L 87.5 214 L 87.5 213 Z "></path><path fill="rgb(179,50,34)" stroke="rgb(179,50,34)" stroke-width="1" opacity="1" d="M 80.5 214 L 83 214.5 L 80.5 215 L 80.5 214 Z "></path><path fill="rgb(179,50,34)" stroke="rgb(179,50,34)" stroke-width="1" opacity="1" d="M 109.5 214 L 114 214.5 L 109 215.5 L 111 216.5 L 104 222.5 L 96 236.5 L 95 243 L 93 243.5 L 103 244.5 Q 92.6 243.6 87.5 248 L 85.5 247 L 86 248.5 L 51.5 283 L 85 248.5 L 84 247.5 L 85 243.5 L 85 241.5 Q 87.1 224.1 97.5 215 L 108.5 215 L 109.5 214 Z M 91 244 L 91 245 L 93 245 L 91 244 Z "></path><path fill="rgb(179,50,34)" stroke="rgb(179,50,34)" stroke-width="1" opacity="1" d="M 115.5 215 L 119 215.5 L 115.5 216 L 115.5 215 Z "></path><path fill="rgb(179,50,34)" stroke="rgb(179,50,34)" stroke-width="1" opacity="1" d="M 155.5 234 L 156.5 236 L 155.5 234 Z "></path><path fill="rgb(179,50,34)" stroke="rgb(179,50,34)" stroke-width="1" opacity="1" d="M 164.5 243 L 166.5 246 L 164.5 243 Z "></path><path fill="rgb(179,50,34)" stroke="rgb(179,50,34)" stroke-width="1" opacity="1" d="M 168.5 248 L 169.5 250 L 168.5 248 Z "></path><path fill="rgb(179,50,34)" stroke="rgb(179,50,34)" stroke-width="1" opacity="1" d="M 112.5 249 L 115.5 253 L 112.5 249 Z "></path><path fill="rgb(179,50,34)" stroke="rgb(179,50,34)" stroke-width="1" opacity="1" d="M 175.5 259 L 176.5 261 L 175 260.5 L 176.5 264 L 177.5 262 L 180 267.5 L 179 270.5 L 180 270.5 L 180.5 269 L 182 272.5 Q 176.4 284.4 166.5 292 L 158 296 L 157.5 298 L 157 296.5 L 158 294.5 L 156 294.5 L 157 292.5 L 154 291.5 L 155 289.5 L 152.5 286 L 154.5 287 L 167 277.5 Q 172.7 271.7 175 262.5 L 174 260.5 L 175.5 259 Z "></path><path fill="rgb(179,50,34)" stroke="rgb(179,50,34)" stroke-width="1" opacity="1" d="M 117.5 278 L 116.5 280 L 117.5 278 Z "></path><path fill="rgb(179,50,34)" stroke="rgb(179,50,34)" stroke-width="1" opacity="1" d="M 184.5 281 L 185 283.5 L 184 283.5 L 184.5 281 Z "></path><path fill="rgb(179,50,34)" stroke="rgb(179,50,34)" stroke-width="1" opacity="1" d="M 114.5 282 L 139 282.5 L 114.5 283 L 114.5 282 Z "></path><path fill="rgb(179,50,34)" stroke="rgb(179,50,34)" stroke-width="1" opacity="1" d="M 47.5 286 L 42.5 292 L 47.5 286 Z "></path><path fill="rgb(179,50,34)" stroke="rgb(179,50,34)" stroke-width="1" opacity="1" d="M 185.5 286 L 186 288.5 L 185 288.5 L 185.5 286 Z "></path><path fill="rgb(179,50,34)" stroke="rgb(179,50,34)" stroke-width="1" opacity="1" d="M 186.5 293 L 187 297.5 L 186 297.5 L 186.5 293 Z "></path><path fill="rgb(179,50,34)" stroke="rgb(179,50,34)" stroke-width="1" opacity="1" d="M 158.5 299 L 159 309.5 L 158 309.5 L 158.5 299 Z "></path><path fill="rgb(179,50,34)" stroke="rgb(179,50,34)" stroke-width="1" opacity="1" d="M 38.5 307 L 39 309.5 L 38 309.5 L 38.5 307 Z "></path><path fill="rgb(179,50,34)" stroke="rgb(179,50,34)" stroke-width="1" opacity="1" d="M 43.5 319 L 46.5 323 L 43.5 319 Z "></path><path fill="rgb(179,50,34)" stroke="rgb(179,50,34)" stroke-width="1" opacity="1" d="M 153.5 319 L 150.5 323 L 153.5 319 Z "></path><path fill="rgb(179,50,34)" stroke="rgb(179,50,34)" stroke-width="1" opacity="1" d="M 139.5 326 L 142 326.5 L 139.5 327 L 139.5 326 Z "></path><path fill="rgb(179,50,34)" stroke="rgb(179,50,34)" stroke-width="1" opacity="1" d="M 120.5 338 L 121 340.5 L 120 340.5 L 120.5 338 Z "></path><path fill="rgb(179,50,34)" stroke="rgb(179,50,34)" stroke-width="1" opacity="1" d="M 120.5 345 L 121 347.5 L 120 347.5 L 120.5 345 Z "></path><path fill="rgb(179,50,34)" stroke="rgb(179,50,34)" stroke-width="1" opacity="1" d="M 117.5 354 L 116.5 356 L 117.5 354 Z "></path><path fill="rgb(179,50,34)" stroke="rgb(179,50,34)" stroke-width="1" opacity="1" d="M 102.5 364 L 105 364.5 L 102.5 365 L 102.5 364 Z "></path><path fill="rgb(233,66,66)" stroke="rgb(233,66,66)" stroke-width="1" opacity="1" d="M 98.5 214 L 114.5 215 L 134.5 221 Q 152 229 164 242.5 L 177 261.5 L 181 272.5 L 180 272.5 L 175.5 262 Q 171.9 273.9 163.5 281 L 153 287.5 L 157 293.5 L 156 293.5 L 149.5 286 L 138.5 282 L 115 281.5 Q 122.7 276.7 121 262.5 Q 118.5 254 112.5 249 L 102.5 244 L 93.5 244 L 88.5 246 L 88.5 245 L 95 243 Q 97.5 227.6 107.5 219 L 111 216.5 Q 107.4 213.1 98.5 215 L 98.5 214 Z "></path><path fill="rgb(0,0,0)" stroke="rgb(0,0,0)" stroke-width="1" opacity="0.023529411764705882" d="M 0 0 L 91 0.5 L 76.5 2 L 58.5 8 Q 37.1 17.6 23 34.5 Q 12.4 46.9 6 63.5 L 1 82.5 L 0.5 92 L 0 0 Z "></path><path fill="rgb(0,0,0)" stroke="rgb(0,0,0)" stroke-width="1" opacity="0.023529411764705882" d="M 103.5 0 L 297 0.5 L 283.5 2 L 262.5 9 Q 245.5 17.5 233 30.5 Q 219.4 44.4 212 64.5 L 207 85.5 L 207 107.5 L 210 122.5 L 218 142.5 Q 227.3 159.2 241.5 171 Q 256.2 183.8 277.5 190 L 291.5 193 L 314.5 193 Q 353.8 186.3 375 161.5 Q 385.3 150.3 392 135.5 L 398 117.5 L 399.5 104 L 400 295.5 L 399 295.5 L 398 282.5 L 392 264.5 Q 382.9 244.6 367.5 231 Q 352 217 329.5 210 L 314.5 207 L 292.5 207 L 277.5 210 L 257.5 218 Q 240.8 227.3 229 241.5 Q 216.2 256.2 210 277.5 L 207 292.5 L 207 314.5 Q 213.3 352.2 236.5 373 Q 247.9 383.7 262.5 391 L 283.5 398 L 297 399.5 L 103.5 400 L 103.5 399 L 116.5 398 L 137.5 391 Q 156.2 382.2 169 367.5 Q 183 352 190 329.5 L 193 315.5 L 193 290.5 Q 185.3 249.2 157.5 228 Q 141.9 215.1 119.5 209 L 108.5 207 L 85.5 207 Q 48 213.5 27 236.5 Q 16.4 247.9 9 262.5 L 2 283.5 L 0.5 298 L 0 102.5 L 1 102.5 L 2 116.5 L 9 137.5 Q 17.5 154.5 30.5 167 Q 44.6 180.4 64.5 188 L 85.5 193 L 108.5 193 Q 150.6 185.6 172 157.5 Q 183.8 143.3 190 123.5 L 193 109.5 L 193 84.5 Q 186 46 161.5 25 Q 151.1 15.4 137.5 9 L 116.5 2 L 103.5 1 L 103.5 0 Z "></path><path fill="rgb(0,0,0)" stroke="rgb(0,0,0)" stroke-width="1" opacity="0.023529411764705882" d="M 309.5 0 L 400 0 L 400 89.5 L 399 89.5 L 399 81.5 L 396 68.5 L 387 48.5 Q 378 33 364.5 22 Q 353.6 12.9 339.5 7 L 323.5 2 L 309.5 1 L 309.5 0 Z "></path><path fill="rgb(0,0,0)" stroke="rgb(0,0,0)" stroke-width="1" opacity="0.023529411764705882" d="M 0.5 308 L 2 322.5 L 8 341.5 Q 17.6 362.9 34.5 377 Q 45.8 386.8 60.5 393 L 76.5 398 L 91 399.5 L 0 400 L 0.5 308 Z "></path><path fill="rgb(0,0,0)" stroke="rgb(0,0,0)" stroke-width="1" opacity="0.023529411764705882" d="M 399.5 310 L 400 400 L 310 399.5 Q 355.7 393.7 378 364.5 Q 388.6 351.6 395 334.5 L 399 318.5 L 399.5 310 Z "></path><path fill="rgb(53,68,54)" stroke="rgb(53,68,54)" stroke-width="1" opacity="1" d="M 88.5 4 L 110.5 4 L 130.5 9 Q 152.6 17.9 167 34.5 Q 175.9 44.6 182 57.5 L 186 68.5 L 187 75.5 L 186 75.5 L 185.5 73 L 184.5 75 L 184 73.5 L 185 70.5 L 183 70.5 L 184 67.5 L 182 67.5 L 183 64.5 L 181 64.5 L 182 62.5 L 180 62.5 L 181 59.5 L 179 59.5 L 180 57.5 L 178 57.5 Q 169 37.5 152.5 25 Q 136 11.1 110 8 L 109.5 6 L 108.5 7 L 88.5 7 L 88.5 6 L 104 5.5 L 88.5 5 L 88.5 4 Z "></path><path fill="rgb(53,68,54)" stroke="rgb(53,68,54)" stroke-width="1" opacity="1" d="M 294.5 4 L 317.5 4 L 339.5 10 Q 361.9 19.6 376 37.5 L 388 56.5 L 393 70.5 L 394 78.5 L 393 78.5 L 392.5 75 L 391.5 78 L 391 75.5 L 392 71.5 L 391 71.5 L 390.5 74 L 390 71.5 L 391 68.5 L 390 68.5 L 389.5 70 L 389 68.5 L 390 65.5 L 389 65.5 L 388.5 67 L 388 65.5 L 389 63.5 L 387 63.5 L 386 60.5 L 386.5 59 L 385 58.5 L 385.5 57 L 384 56.5 L 384.5 55 Q 382.3 55.8 383 53.5 Q 374.9 38.6 362.5 28 Q 349.1 15.9 329.5 10 L 315.5 7 L 294 6.5 L 310 5.5 L 294.5 5 L 294.5 4 Z "></path><path fill="rgb(53,68,54)" stroke="rgb(53,68,54)" stroke-width="1" opacity="1" d="M 81.5 7 L 84 7.5 L 81.5 8 L 81.5 7 Z "></path><path fill="rgb(53,68,54)" stroke="rgb(53,68,54)" stroke-width="1" opacity="1" d="M 287.5 7 L 291 7.5 L 287.5 8 L 287.5 7 Z "></path><path fill="rgb(53,68,54)" stroke="rgb(53,68,54)" stroke-width="1" opacity="1" d="M 247.5 25 L 246.5 27 L 247.5 25 Z "></path><path fill="rgb(53,68,54)" stroke="rgb(53,68,54)" stroke-width="1" opacity="1" d="M 241.5 30 L 238.5 34 L 241.5 30 Z "></path><path fill="rgb(53,68,54)" stroke="rgb(53,68,54)" stroke-width="1" opacity="1" d="M 28.5 37 L 27.5 39 L 28.5 37 Z "></path><path fill="rgb(53,68,54)" stroke="rgb(53,68,54)" stroke-width="1" opacity="1" d="M 94.5 38 L 101.5 38 L 111.5 42 L 154 84.5 L 159 95.5 L 159 101.5 Q 157.1 110.1 151.5 115 Q 145.8 120.8 134.5 121 L 127.5 119 L 120 114 L 120 142.5 Q 117.9 149.9 112.5 154 Q 106.5 160 92.5 158 Q 84.5 155.5 80 149.5 L 76 137.5 L 76 115.5 L 76.5 114 Q 70.8 120.8 58.5 121 Q 48.3 119.3 43 112.5 Q 37.5 107 38 95.5 L 43 84.5 L 85.5 42 L 94.5 38 Z M 96 49 L 95 51 L 90 54 L 55 89 Q 56 91 54 90 L 50 94 L 51 95 L 49 95 L 50 98 L 49 101 Q 48 103 51 102 Q 53 103 51 105 L 55 108 L 57 108 Q 59 107 58 110 L 63 110 L 63 108 L 65 108 L 87 86 Q 89 87 87 89 L 87 138 L 89 140 L 88 142 L 90 142 L 92 146 L 94 145 L 95 146 L 103 146 L 105 146 L 106 144 L 109 142 L 108 141 L 109 84 L 109 87 L 111 86 L 125 101 L 124 102 Q 125 104 127 102 L 126 104 L 130 107 Q 131 105 133 108 Q 135 107 134 110 L 139 110 Q 138 107 141 108 Q 142 104 144 107 L 146 105 L 146 103 Q 145 100 148 101 L 148 96 Q 145 97 146 95 L 146 93 L 104 51 Q 101 52 102 50 L 101 50 L 96 49 Z "></path><path fill="rgb(53,68,54)" stroke="rgb(53,68,54)" stroke-width="1" opacity="1" d="M 300.5 38 Q 312.2 36.8 317.5 42 L 359 82.5 L 365 93.5 L 365 103.5 L 361 111.5 L 318.5 154 Q 313.3 159.3 302.5 159 Q 291.4 156.6 286 148.5 Q 282 143.5 282 134.5 L 284 127.5 L 289 120 L 260.5 120 Q 253.1 117.9 249 112.5 Q 243.3 106.2 245 92.5 Q 247.5 84.5 253.5 80 L 264.5 76 L 289 75.5 Q 282 70.5 282 58.5 Q 283.8 48.3 290.5 43 L 300.5 38 Z M 303 50 L 301 51 L 299 51 L 295 55 L 296 56 L 295 56 L 295 58 Q 296 60 293 59 Q 292 63 295 62 L 294 65 L 307 77 Q 306 79 309 78 L 316 87 L 266 87 L 264 89 L 262 88 L 261 90 L 259 91 Q 256 92 258 94 L 257 94 L 257 96 Q 259 101 256 103 L 258 103 Q 260 104 258 106 Q 260 110 262 107 L 263 108 L 319 109 L 317 109 L 317 111 L 295 132 L 295 134 Q 296 136 293 135 Q 292 139 295 138 L 294 141 L 296 141 L 300 147 L 302 146 Q 304 145 303 148 L 309 146 L 311 146 L 339 118 L 338 117 L 340 117 Q 344 115 341 114 L 343 114 Q 345 113 343 112 L 348 107 L 349 108 L 352 104 Q 351 101 354 102 L 353 101 L 354 96 Q 355 93 353 94 L 353 93 Q 351 88 350 91 L 310 51 L 309 51 Q 307 49 303 50 Z "></path><path fill="rgb(53,68,54)" stroke="rgb(53,68,54)" stroke-width="1" opacity="1" d="M 232.5 40 L 231.5 42 L 232.5 40 Z "></path><path fill="rgb(53,68,54)" stroke="rgb(53,68,54)" stroke-width="1" opacity="1" d="M 185.5 77 L 186 79.5 L 185 79.5 L 185.5 77 Z "></path><path fill="rgb(53,68,54)" stroke="rgb(53,68,54)" stroke-width="1" opacity="1" d="M 187.5 77 L 188 79.5 L 187 79.5 L 187.5 77 Z "></path><path fill="rgb(53,68,54)" stroke="rgb(53,68,54)" stroke-width="1" opacity="1" d="M 392.5 80 L 393 83.5 L 392 83.5 L 392.5 80 Z "></path><path fill="rgb(53,68,54)" stroke="rgb(53,68,54)" stroke-width="1" opacity="1" d="M 186.5 83 L 187 86.5 L 186 86.5 L 186.5 83 Z "></path><path fill="rgb(53,68,54)" stroke="rgb(53,68,54)" stroke-width="1" opacity="1" d="M 213.5 86 L 214 89.5 L 213 89.5 L 213.5 86 Z "></path><path fill="rgb(53,68,54)" stroke="rgb(53,68,54)" stroke-width="1" opacity="1" d="M 393.5 87 L 394 104.5 L 393 104.5 L 393.5 87 Z "></path><path fill="rgb(53,68,54)" stroke="rgb(53,68,54)" stroke-width="1" opacity="1" d="M 6.5 91 L 7 102.5 L 6 102.5 L 6.5 91 Z "></path><path fill="rgb(53,68,54)" stroke="rgb(53,68,54)" stroke-width="1" opacity="1" d="M 213.5 103 L 214 107.5 L 213 107.5 L 213.5 103 Z "></path><path fill="rgb(53,68,54)" stroke="rgb(53,68,54)" stroke-width="1" opacity="1" d="M 392.5 110 L 393 112.5 L 392 112.5 L 392.5 110 Z "></path><path fill="rgb(53,68,54)" stroke="rgb(53,68,54)" stroke-width="1" opacity="1" d="M 375.5 151 L 374.5 153 L 375.5 151 Z "></path><path fill="rgb(53,68,54)" stroke="rgb(53,68,54)" stroke-width="1" opacity="1" d="M 233.5 154 L 235.5 157 L 233.5 154 Z "></path><path fill="rgb(53,68,54)" stroke="rgb(53,68,54)" stroke-width="1" opacity="1" d="M 371.5 156 L 363.5 165 L 371.5 156 Z "></path><path fill="rgb(53,68,54)" stroke="rgb(53,68,54)" stroke-width="1" opacity="1" d="M 30.5 158 L 35.5 164 L 30.5 158 Z "></path><path fill="rgb(53,68,54)" stroke="rgb(53,68,54)" stroke-width="1" opacity="1" d="M 243.5 164 L 245.5 167 L 243.5 164 Z "></path><path fill="rgb(53,68,54)" stroke="rgb(53,68,54)" stroke-width="1" opacity="1" d="M 359.5 167 L 358.5 169 L 359.5 167 Z "></path><path fill="rgb(53,68,54)" stroke="rgb(53,68,54)" stroke-width="1" opacity="1" d="M 355.5 170 L 354.5 172 L 355.5 170 Z "></path><path fill="rgb(53,68,54)" stroke="rgb(53,68,54)" stroke-width="1" opacity="1" d="M 252.5 171 L 253.5 173 L 252.5 171 Z "></path><path fill="rgb(53,68,54)" stroke="rgb(53,68,54)" stroke-width="1" opacity="1" d="M 285.5 185 L 288 185.5 L 285.5 186 L 285.5 185 Z "></path><path fill="rgb(53,68,54)" stroke="rgb(53,68,54)" stroke-width="1" opacity="1" d="M 319.5 185 L 322 185.5 L 319.5 186 L 319.5 185 Z "></path><path fill="rgb(53,68,54)" stroke="rgb(53,68,54)" stroke-width="1" opacity="1" d="M 291.5 186 L 296 186.5 L 291.5 187 L 291.5 186 Z "></path><path fill="rgb(53,68,54)" stroke="rgb(53,68,54)" stroke-width="1" opacity="1" d="M 311.5 186 L 315 186.5 L 311.5 187 L 311.5 186 Z "></path><path fill="rgb(53,68,54)" stroke="rgb(53,68,54)" stroke-width="1" opacity="1" d="M 91.5 210 L 113.5 211 L 136.5 218 Q 156.6 227.9 170 244.5 Q 183.8 260.2 188 285.5 L 187 285.5 L 186.5 283 L 185.5 286 L 185 283.5 L 186 279.5 L 184.5 276 L 183.5 278 L 183 276.5 L 184 273.5 L 182 273.5 L 183 271 L 181 270.5 L 182 268.5 L 180 268.5 L 181 266.5 L 179 265.5 L 179.5 264 L 178 263.5 L 178.5 262 Q 176.3 262.8 177 260.5 Q 168.6 244.8 155.5 234 Q 137.7 217.3 107 213.5 L 107.5 212 L 93.5 213 L 93.5 212 L 98 211.5 L 92.5 211 Q 91 213.5 85.5 212 L 85.5 211 Q 90.3 212.3 91.5 210 Z "></path><path fill="rgb(53,68,54)" stroke="rgb(53,68,54)" stroke-width="1" opacity="1" d="M 298.5 210 L 320.5 211 L 340.5 217 Q 360.6 225.9 374 241.5 Q 383.8 252.7 390 267.5 L 394 284.5 L 393 284.5 L 392.5 282 L 391 282.5 L 391 279.5 L 386.5 269 L 378 284 L 375 285.5 Q 375.8 287.8 373.5 287 L 367.5 292 L 363 293 L 365 298.5 L 365 309.5 L 362 316.5 L 320.5 359 Q 314.8 365.8 301.5 365 Q 292.9 363.1 288 357.5 L 257.5 326 L 251 320.5 L 245 310.5 L 245 299.5 Q 247.4 290.4 254.5 286 Q 259.8 281.8 269.5 282 Q 277.7 283.8 282.5 289 L 283 260.5 Q 285.5 252.5 291.5 248 L 296 245.5 L 294 245 L 296 232.5 L 307 215 L 310 213.5 L 295.5 213 L 291 211.5 L 298.5 210 Z M 338 235 L 333 238 Q 328 241 327 247 Q 326 256 330 260 Q 333 264 339 265 Q 347 266 352 262 L 357 254 Q 358 246 355 242 Q 351 234 338 235 Z M 324 252 L 323 254 L 325 255 L 324 252 Z M 301 256 L 300 258 L 294 263 L 295 264 L 295 317 L 295 319 L 285 310 L 286 309 Q 285 306 284 308 L 284 307 L 273 295 L 272 296 L 268 293 Q 264 292 265 295 L 263 294 L 262 296 L 257 300 L 257 302 Q 259 307 256 309 L 258 309 L 297 349 Q 295 350 298 351 Q 300 350 299 353 L 301 352 L 301 354 L 303 353 Q 307 352 309 354 L 309 353 L 311 353 L 314 350 L 313 349 L 352 310 L 354 302 L 353 301 L 353 300 L 352 299 L 349 296 Q 348 293 347 295 L 344 293 Q 340 292 341 295 L 339 294 L 337 297 L 316 317 L 315 265 L 316 263 Q 313 264 314 262 L 309 257 Q 302 259 301 256 Z M 327 257 L 326 260 L 327 260 L 327 257 Z M 328 260 L 327 264 L 328 264 L 328 260 Z "></path><path fill="rgb(53,68,54)" stroke="rgb(53,68,54)" stroke-width="1" opacity="1" d="M 84.5 213 L 87 213.5 L 84.5 214 L 84.5 213 Z "></path><path fill="rgb(53,68,54)" stroke="rgb(53,68,54)" stroke-width="1" opacity="1" d="M 35.5 236 L 30.5 242 L 35.5 236 Z "></path><path fill="rgb(53,68,54)" stroke="rgb(53,68,54)" stroke-width="1" opacity="1" d="M 93.5 245 L 104.5 245 Q 112.6 247.9 117 254.5 Q 121.2 259.8 121 269.5 Q 119.2 277.7 114 282.5 L 141.5 283 Q 149.8 284.7 154 290.5 Q 160 296.5 158 310.5 Q 155.8 318.8 149.5 323 L 138.5 327 L 115.5 327 L 114 326.5 Q 120.8 332.2 121 344.5 Q 119 355.5 111.5 361 L 101.5 365 L 94.5 365 L 85.5 361 L 42 317.5 Q 37.8 312.2 38 302.5 L 41 293.5 L 86.5 248 L 93.5 245 Z M 99 255 L 97 257 L 95 256 L 94 258 L 55 297 Q 53 295 52 298 Q 53 300 51 299 L 51 301 Q 52 303 50 302 L 50 304 L 49 307 Q 48 309 51 308 L 51 310 L 68 327 L 68 328 L 71 330 Q 70 332 73 331 L 93 353 L 95 352 L 95 354 L 97 353 L 102 354 L 102 353 L 104 353 L 104 352 L 109 348 L 108 347 L 110 346 L 109 344 L 110 342 Q 111 339 109 340 L 109 339 L 108 338 L 88 319 L 88 317 L 86 317 Q 87 314 89 316 L 140 316 L 140 314 L 147 310 L 146 309 Q 145 306 148 307 L 148 303 Q 145 304 146 301 L 145 297 Q 142 298 143 296 L 142 296 L 141 295 L 84 295 L 90 289 L 91 290 Q 93 289 91 288 L 93 288 L 106 275 Q 105 272 108 273 L 107 272 L 110 270 L 109 268 L 110 266 Q 111 263 109 264 L 109 263 L 108 262 L 103 257 L 102 257 L 99 255 Z "></path><path fill="rgb(53,68,54)" stroke="rgb(53,68,54)" stroke-width="1" opacity="1" d="M 186.5 289 L 187 292.5 L 186 292.5 L 186.5 289 Z "></path><path fill="rgb(53,68,54)" stroke="rgb(53,68,54)" stroke-width="1" opacity="1" d="M 6.5 297 L 7 308.5 L 6 308.5 L 6.5 297 Z "></path><path fill="rgb(53,68,54)" stroke="rgb(53,68,54)" stroke-width="1" opacity="1" d="M 164.5 363 L 163.5 365 L 164.5 363 Z "></path><path fill="rgb(53,68,54)" stroke="rgb(53,68,54)" stroke-width="1" opacity="1" d="M 157.5 370 L 156.5 372 L 157.5 370 Z "></path><path fill="rgb(53,68,54)" stroke="rgb(53,68,54)" stroke-width="1" opacity="1" d="M 90.5 393 L 93 393.5 L 90.5 394 L 90.5 393 Z "></path><path fill="rgb(53,68,54)" stroke="rgb(53,68,54)" stroke-width="1" opacity="1" d="M 100.5 393 L 104 393.5 L 100.5 394 L 100.5 393 Z "></path><path fill="rgb(216,3,3)" stroke="rgb(216,3,3)" stroke-width="1" opacity="1" d="M 83.5 214 L 98 214.5 Q 86.9 224.4 84 242.5 L 84 244.5 L 84.5 248 L 86 247.5 L 51 282.5 L 51 284 L 49 284 Q 50.1 286.7 47.5 286 Q 37 292 38 309.5 Q 40.5 318 46.5 323 L 86.5 362 Q 92 367 104.5 365 Q 113.3 361.8 118 354.5 Q 122.3 349.3 121 338.5 L 115 327 L 141.5 327 Q 149.7 325.2 154 319.5 L 159 309.5 L 159 299.5 L 157 294.5 L 158 294.5 Q 157.3 296.8 159.5 296 Q 169.8 291.3 176 282.5 L 180 275 L 183 276.5 L 187 298.5 L 187 313.5 L 184 328.5 L 175 349.5 L 158.5 370 Q 146.4 381.4 129.5 388 L 110.5 393 L 93.5 394 L 92.5 393 L 82.5 393 Q 79.6 390.4 73.5 391 L 59.5 386 Q 40.7 377.3 28 362.5 Q 15.2 347.8 9 326.5 L 7 315.5 L 7 290.5 Q 14.3 251.8 40.5 232 L 60.5 220 L 68.5 217 L 83.5 214 Z "></path><path fill="rgb(4,92,4)" stroke="rgb(4,92,4)" stroke-width="1" opacity="0.996078431372549" d="M 91.5 0 L 111.5 1 L 130.5 6 Q 153.9 15.1 169 32.5 Q 183 48 190 70.5 L 193 84.5 L 193 109.5 Q 185.3 150.8 157.5 172 Q 141.9 184.9 119.5 191 L 108.5 193 L 85.5 193 Q 47.2 186.3 26 162.5 Q 12.5 148 5 127.5 L 1 110.5 L 0 92.5 L 1 91.5 L 2 77.5 L 8 58.5 Q 17.6 37.1 34.5 23 Q 44.9 13.9 58.5 8 L 76.5 2 L 90.5 1 L 91.5 0 Z M 89 4 L 89 5 L 104 6 L 89 6 L 75 9 L 73 9 L 50 19 L 45 23 Q 42 22 43 25 L 40 27 Q 37 26 38 29 L 36 30 L 31 36 L 29 37 L 18 52 L 13 62 L 12 68 Q 8 69 11 71 L 10 73 L 10 75 L 9 77 L 9 79 L 7 83 L 8 85 L 6 92 L 7 109 L 7 111 Q 10 113 9 119 L 9 121 L 12 127 L 12 130 L 14 132 L 14 135 L 22 148 Q 21 150 24 149 L 25 152 Q 24 154 27 153 L 30 159 L 40 167 Q 42 166 41 169 L 63 181 L 66 181 Q 67 184 69 182 L 74 184 L 76 184 L 79 185 L 81 185 L 86 187 L 88 186 L 90 187 L 104 187 L 105 186 L 108 187 L 113 186 L 115 186 L 118 185 L 120 185 L 129 181 L 132 181 L 149 171 Q 151 172 150 169 L 153 168 L 156 166 L 165 156 L 168 154 L 169 152 Q 168 149 171 150 L 173 147 Q 172 143 175 144 Q 176 136 181 132 L 185 116 L 185 114 L 186 110 L 186 108 L 187 106 L 187 84 L 184 73 L 185 70 L 186 76 L 187 76 L 186 69 L 182 58 Q 176 45 167 35 Q 153 18 131 9 L 111 4 L 89 4 Z M 188 77 L 187 80 L 188 80 L 188 77 Z "></path><path fill="rgb(4,92,4)" stroke="rgb(4,92,4)" stroke-width="1" opacity="0.996078431372549" d="M 297.5 0 L 317.5 1 L 339.5 7 Q 363.1 16.9 378 35.5 Q 389.5 49.5 396 68.5 L 399 81.5 L 400 103.5 L 399 104.5 L 398 117.5 L 392 135.5 Q 382.9 155.4 367.5 169 Q 352 183 329.5 190 L 314.5 193 L 291.5 193 Q 250.2 185.8 229 158.5 Q 216.2 143.8 210 122.5 L 207 107.5 L 207 85.5 Q 213.3 47.8 236.5 27 Q 247.9 16.4 262.5 9 L 275.5 4 L 297.5 0 Z M 295 4 L 295 5 L 310 6 L 288 7 L 273 11 Q 254 18 242 30 L 225 51 L 216 72 L 213 87 L 213 108 L 216 123 Q 222 141 233 155 Q 253 180 292 187 L 315 187 L 330 184 Q 350 178 364 165 Q 374 155 382 143 L 390 125 L 394 105 L 393 81 L 388 65 L 389 63 L 392 75 L 393 75 L 393 71 L 388 57 L 376 38 Q 362 20 340 10 L 318 4 L 295 4 Z M 394 75 L 393 79 L 394 79 L 394 75 Z "></path><path fill="rgb(4,92,4)" stroke="rgb(4,92,4)" stroke-width="1" opacity="0.996078431372549" d="M 299.5 50 L 295.5 55 L 299.5 50 Z "></path><path fill="rgb(4,92,4)" stroke="rgb(4,92,4)" stroke-width="1" opacity="0.996078431372549" d="M 89.5 54 L 55.5 89 L 89.5 54 Z "></path><path fill="rgb(4,92,4)" stroke="rgb(4,92,4)" stroke-width="1" opacity="0.996078431372549" d="M 107.5 54 L 146.5 94 L 107.5 54 Z "></path><path fill="rgb(4,92,4)" stroke="rgb(4,92,4)" stroke-width="1" opacity="0.996078431372549" d="M 179.5 57 L 181 60.5 L 180 60.5 L 179.5 57 Z "></path><path fill="rgb(4,92,4)" stroke="rgb(4,92,4)" stroke-width="1" opacity="0.996078431372549" d="M 293.5 59 L 294 61.5 L 293 61.5 L 293.5 59 Z "></path><path fill="rgb(4,92,4)" stroke="rgb(4,92,4)" stroke-width="1" opacity="0.996078431372549" d="M 181.5 62 L 183 65.5 L 182 65.5 L 181.5 62 Z "></path><path fill="rgb(4,92,4)" stroke="rgb(4,92,4)" stroke-width="1" opacity="0.996078431372549" d="M 310.5 80 L 317.5 88 L 265 87.5 L 316 86.5 L 310.5 80 Z "></path><path fill="rgb(4,92,4)" stroke="rgb(4,92,4)" stroke-width="1" opacity="0.996078431372549" d="M 109.5 85 L 131 107.5 L 109 86.5 L 109.5 85 Z "></path><path fill="rgb(4,92,4)" stroke="rgb(4,92,4)" stroke-width="1" opacity="0.996078431372549" d="M 347.5 87 L 352.5 93 L 347.5 87 Z "></path><path fill="rgb(4,92,4)" stroke="rgb(4,92,4)" stroke-width="1" opacity="0.996078431372549" d="M 87.5 88 L 88 137.5 L 87 137.5 L 87.5 88 Z "></path><path fill="rgb(4,92,4)" stroke="rgb(4,92,4)" stroke-width="1" opacity="0.996078431372549" d="M 53.5 90 L 50.5 94 L 53.5 90 Z "></path><path fill="rgb(4,92,4)" stroke="rgb(4,92,4)" stroke-width="1" opacity="0.996078431372549" d="M 258.5 91 L 257.5 93 L 258.5 91 Z "></path><path fill="rgb(4,92,4)" stroke="rgb(4,92,4)" stroke-width="1" opacity="0.996078431372549" d="M 80.5 93 L 66.5 108 L 80.5 93 Z "></path><path fill="rgb(4,92,4)" stroke="rgb(4,92,4)" stroke-width="1" opacity="0.996078431372549" d="M 147.5 96 L 148 100.5 L 147 100.5 L 147.5 96 Z "></path><path fill="rgb(4,92,4)" stroke="rgb(4,92,4)" stroke-width="1" opacity="0.996078431372549" d="M 50.5 103 L 55.5 109 L 50.5 103 Z "></path><path fill="rgb(4,92,4)" stroke="rgb(4,92,4)" stroke-width="1" opacity="0.996078431372549" d="M 145.5 104 L 142.5 108 L 145.5 104 Z "></path><path fill="rgb(4,92,4)" stroke="rgb(4,92,4)" stroke-width="1" opacity="0.996078431372549" d="M 257.5 104 L 260.5 108 L 257.5 104 Z "></path><path fill="rgb(4,92,4)" stroke="rgb(4,92,4)" stroke-width="1" opacity="0.996078431372549" d="M 349.5 106 L 310.5 146 L 349.5 106 Z "></path><path fill="rgb(4,92,4)" stroke="rgb(4,92,4)" stroke-width="1" opacity="0.996078431372549" d="M 58.5 109 L 63 109.5 L 58.5 110 L 58.5 109 Z "></path><path fill="rgb(4,92,4)" stroke="rgb(4,92,4)" stroke-width="1" opacity="0.996078431372549" d="M 134.5 109 L 139 109.5 L 134.5 110 L 134.5 109 Z "></path><path fill="rgb(4,92,4)" stroke="rgb(4,92,4)" stroke-width="1" opacity="0.996078431372549" d="M 310.5 115 L 295.5 131 L 310.5 115 Z "></path><path fill="rgb(4,92,4)" stroke="rgb(4,92,4)" stroke-width="1" opacity="0.996078431372549" d="M 293.5 135 L 294 137.5 L 293 137.5 L 293.5 135 Z "></path><path fill="rgb(4,92,4)" stroke="rgb(4,92,4)" stroke-width="1" opacity="0.996078431372549" d="M 296.5 143 L 297.5 145 L 296.5 143 Z "></path><path fill="rgb(4,92,4)" stroke="rgb(4,92,4)" stroke-width="1" opacity="0.996078431372549" d="M 105.5 144 L 104.5 146 L 105.5 144 Z "></path><path fill="rgb(4,92,4)" stroke="rgb(4,92,4)" stroke-width="1" opacity="0.996078431372549" d="M 303.5 147 L 306 147.5 L 303.5 148 L 303.5 147 Z "></path><path fill="rgb(4,92,4)" stroke="rgb(4,92,4)" stroke-width="1" opacity="0.996078431372549" d="M 85.5 207 L 108.5 207 L 119.5 209 L 136.5 215 Q 158 225 172 242.5 Q 183.8 256.7 190 276.5 L 193 290.5 L 193 315.5 Q 186 354 161.5 375 Q 148.5 387 130.5 394 L 111.5 399 L 91.5 400 L 69.5 396 L 48.5 387 Q 33.8 378.2 23 365.5 Q 12.4 353.1 6 336.5 L 1 317.5 L 0 298.5 L 1 297.5 L 2 283.5 L 9 262.5 Q 17.5 245.5 30.5 233 Q 42.8 221.3 59.5 214 L 70.5 210 L 85.5 207 Z M 92 210 Q 90 212 86 211 L 86 212 Q 91 214 93 211 L 98 212 L 79 214 L 68 217 Q 49 224 36 236 Q 22 248 14 266 L 9 280 Q 10 286 7 289 L 7 297 L 6 298 L 7 318 L 10 331 Q 16 348 27 362 Q 37 373 50 381 L 73 391 Q 79 390 82 393 L 90 393 L 91 394 L 112 393 L 128 389 Q 144 383 157 372 Q 169 360 178 345 L 184 330 L 187 316 L 187 290 L 182 273 L 183 271 L 185 279 L 186 279 L 183 267 L 170 245 Q 157 228 137 218 L 114 211 L 92 210 Z M 187 279 L 186 283 L 187 283 L 187 279 Z M 188 283 L 187 286 L 188 286 L 188 283 Z "></path><path fill="rgb(4,92,4)" stroke="rgb(4,92,4)" stroke-width="1" opacity="0.996078431372549" d="M 292.5 207 L 314.5 207 L 335.5 212 Q 359.4 221.1 375 238.5 Q 387 251.5 394 269.5 L 399 287.5 L 400 309.5 L 396 331.5 L 387 351.5 Q 378 367 364.5 378 Q 349.2 390.7 327.5 397 L 318.5 399 L 310.5 399 L 309.5 400 L 297.5 400 L 275.5 396 L 262.5 391 Q 245.5 382.5 233 369.5 Q 219.4 355.6 212 335.5 L 207 314.5 L 207 292.5 L 210 277.5 L 218 257.5 Q 227.3 240.8 241.5 229 L 263.5 215 L 277.5 210 L 292.5 207 Z M 299 210 L 291 212 L 296 213 L 310 214 L 307 215 L 296 233 L 294 245 L 296 246 L 292 248 Q 286 253 283 261 L 283 289 Q 278 284 270 282 Q 260 282 255 286 Q 247 290 245 300 L 245 311 L 251 321 L 258 326 L 288 358 Q 293 363 302 365 Q 315 366 321 359 L 362 317 L 365 310 Q 367 298 362 293 L 364 293 L 368 292 L 374 287 Q 376 288 375 286 L 378 284 L 387 269 L 391 280 L 391 283 L 393 282 L 393 285 L 394 285 L 390 268 Q 384 253 374 242 Q 361 226 341 217 L 321 211 L 299 210 Z "></path><path fill="rgb(4,92,4)" stroke="rgb(4,92,4)" stroke-width="1" opacity="0.996078431372549" d="M 103.5 212 L 108 212.5 L 103.5 213 L 103.5 212 Z "></path><path fill="rgb(4,92,4)" stroke="rgb(4,92,4)" stroke-width="1" opacity="0.996078431372549" d="M 104.5 257 L 107.5 261 L 104.5 257 Z "></path><path fill="rgb(4,92,4)" stroke="rgb(4,92,4)" stroke-width="1" opacity="0.996078431372549" d="M 91.5 258 L 60.5 290 L 91.5 258 Z "></path><path fill="rgb(4,92,4)" stroke="rgb(4,92,4)" stroke-width="1" opacity="0.996078431372549" d="M 297.5 258 L 295.5 261 L 297.5 258 Z "></path><path fill="rgb(4,92,4)" stroke="rgb(4,92,4)" stroke-width="1" opacity="0.996078431372549" d="M 312.5 258 L 313.5 260 L 312.5 258 Z "></path><path fill="rgb(4,92,4)" stroke="rgb(4,92,4)" stroke-width="1" opacity="0.996078431372549" d="M 108.5 271 L 107.5 273 L 108.5 271 Z "></path><path fill="rgb(4,92,4)" stroke="rgb(4,92,4)" stroke-width="1" opacity="0.996078431372549" d="M 105.5 274 L 86.5 294 L 105.5 274 Z "></path><path fill="rgb(4,92,4)" stroke="rgb(4,92,4)" stroke-width="1" opacity="0.996078431372549" d="M 58.5 291 L 57.5 293 L 58.5 291 Z "></path><path fill="rgb(4,92,4)" stroke="rgb(4,92,4)" stroke-width="1" opacity="0.996078431372549" d="M 265.5 293 L 268 293.5 L 265.5 294 L 265.5 293 Z "></path><path fill="rgb(4,92,4)" stroke="rgb(4,92,4)" stroke-width="1" opacity="0.996078431372549" d="M 341.5 293 L 344 293.5 L 341.5 294 L 341.5 293 Z "></path><path fill="rgb(4,92,4)" stroke="rgb(4,92,4)" stroke-width="1" opacity="0.996078431372549" d="M 271.5 294 L 294.5 318 L 271.5 294 Z "></path><path fill="rgb(4,92,4)" stroke="rgb(4,92,4)" stroke-width="1" opacity="0.996078431372549" d="M 338.5 294 L 337.5 296 L 338.5 294 Z "></path><path fill="rgb(4,92,4)" stroke="rgb(4,92,4)" stroke-width="1" opacity="0.996078431372549" d="M 347.5 294 L 348.5 296 L 347.5 294 Z "></path><path fill="rgb(4,92,4)" stroke="rgb(4,92,4)" stroke-width="1" opacity="0.996078431372549" d="M 54.5 295 L 52.5 298 L 54.5 295 Z "></path><path fill="rgb(4,92,4)" stroke="rgb(4,92,4)" stroke-width="1" opacity="0.996078431372549" d="M 259.5 296 L 258.5 298 L 259.5 296 Z "></path><path fill="rgb(4,92,4)" stroke="rgb(4,92,4)" stroke-width="1" opacity="0.996078431372549" d="M 144.5 297 L 145.5 299 L 144.5 297 Z "></path><path fill="rgb(4,92,4)" stroke="rgb(4,92,4)" stroke-width="1" opacity="0.996078431372549" d="M 147.5 303 L 148 306.5 L 147 306.5 L 147.5 303 Z "></path><path fill="rgb(4,92,4)" stroke="rgb(4,92,4)" stroke-width="1" opacity="0.996078431372549" d="M 328.5 304 L 315.5 318 L 328.5 304 Z "></path><path fill="rgb(4,92,4)" stroke="rgb(4,92,4)" stroke-width="1" opacity="0.996078431372549" d="M 257.5 310 L 297.5 351 L 257.5 310 Z "></path><path fill="rgb(4,92,4)" stroke="rgb(4,92,4)" stroke-width="1" opacity="0.996078431372549" d="M 51.5 311 L 53.5 314 L 51.5 311 Z "></path><path fill="rgb(4,92,4)" stroke="rgb(4,92,4)" stroke-width="1" opacity="0.996078431372549" d="M 351.5 311 L 310.5 353 L 351.5 311 Z "></path><path fill="rgb(4,92,4)" stroke="rgb(4,92,4)" stroke-width="1" opacity="0.996078431372549" d="M 144.5 312 L 143.5 314 L 144.5 312 Z "></path><path fill="rgb(4,92,4)" stroke="rgb(4,92,4)" stroke-width="1" opacity="0.996078431372549" d="M 88.5 315 L 140 315.5 L 88.5 316 L 88.5 315 Z "></path><path fill="rgb(4,92,4)" stroke="rgb(4,92,4)" stroke-width="1" opacity="0.996078431372549" d="M 99.5 328 L 106.5 336 L 99.5 328 Z "></path></svg>