<svg width="400" height="400" version="1.1" xmlns="http://www.w3.org/2000/svg" desc="Created with imagetracer.js version 1.2.5"><path fill="rgb(0,0,0)" stroke="rgb(0,0,0)" stroke-width="1" opacity="0" d="M 0 0 L 284.5 0 L 285 1.5 L 276 19.5 L 264.5 34 L 245 48 L 243.5 51 L 240.5 53 L 234.5 58 L 208.5 68 L 204.5 68 L 191.5 72 L 167.5 72 L 146.5 67 L 141.5 67 L 136.5 65 L 131.5 65 L 125.5 63 L 116.5 63 L 109.5 61 L 78.5 60 L 72.5 58 L 32.5 58 L 26.5 61 L 21.5 61 L 10.5 65 L 6.5 65 L 0 61 L 0 0 Z "></path><path fill="rgb(0,0,0)" stroke="rgb(0,0,0)" stroke-width="1" opacity="0" d="M 310.5 0 L 358 0 L 358 31.5 Q 354.4 38.4 356 50.5 L 354 57 L 349 57.5 L 349 80.5 L 342 106.5 L 327.5 127 L 326 118.5 L 325 91.5 L 320 63.5 L 317 35.5 L 313 19.5 L 312 2.5 L 310.5 0 Z "></path><path fill="rgb(0,0,0)" stroke="rgb(0,0,0)" stroke-width="1" opacity="0" d="M 376 0 L 382 0.5 L 376 5.5 L 376 0 Z "></path><path fill="rgb(0,0,0)" stroke="rgb(0,0,0)" stroke-width="1" opacity="0" d="M 295.5 22 L 300 43.5 L 301 58.5 L 306 85.5 L 306 92.5 L 307 93.5 L 308 118.5 L 309 119.5 L 309 135.5 L 310 136.5 L 310 157.5 L 301.5 166 L 286.5 177 L 275.5 178 L 241.5 187 L 219.5 191 L 212.5 194 Q 202.5 194.5 195.5 198 L 168 199 L 168 173.5 L 169 172.5 L 169 155.5 L 170 154.5 L 170 108.5 L 169 107.5 L 169 90 L 193.5 90 L 202.5 87 L 215.5 85 L 242.5 74 L 261 60 L 262.5 57 Q 275.8 49.8 285 38.5 L 295.5 22 Z "></path><path fill="rgb(0,0,0)" stroke="rgb(0,0,0)" stroke-width="1" opacity="0" d="M 399.5 46 L 400 400 L 67.5 400 L 67 397.5 L 68 394.5 Q 63.7 381.3 56 371.5 L 56 354.5 L 61 339.5 L 81 306.5 L 86 295.5 L 101 274 L 105.5 272 L 112.5 265 L 131.5 251 L 159.5 240 Q 160.8 242.3 165.5 241 Q 172.7 239.2 176 233.5 L 177 229 L 183.5 228 L 238.5 228 Q 244.6 223.6 254.5 223 L 262.5 219 L 272.5 218 L 281.5 215 L 302.5 206 L 306.5 206 L 333.5 193 L 344 184.5 L 366 154.5 L 377 132.5 L 387 97.5 Q 385.5 92 388 90.5 L 388 68.5 L 387 63.5 Q 389.3 62.3 388 57.5 L 399.5 46 Z "></path><path fill="rgb(0,0,0)" stroke="rgb(0,0,0)" stroke-width="1" opacity="0" d="M 36.5 76 L 69.5 76 L 76.5 78 L 106.5 79 L 107.5 80 L 122.5 81 L 144.5 86 L 149.5 86 L 151 87.5 L 152 155.5 L 151 156.5 L 151 170.5 L 150 171.5 L 150 198.5 L 149 201 L 137.5 203 L 133.5 205 Q 122.2 205.2 114.5 209 L 105.5 209 L 100.5 211 L 62.5 230 L 28 254.5 L 27.5 259 L 26 253.5 L 24 219.5 L 23 218.5 L 22 190.5 L 19 177.5 L 17 149.5 L 16 148.5 L 16 140.5 L 14 130.5 L 14 119.5 L 11 110.5 L 10 93.5 L 8 84.5 L 20.5 80 L 30.5 79 L 36.5 76 Z "></path><path fill="rgb(0,0,0)" stroke="rgb(0,0,0)" stroke-width="1" opacity="0" d="M 0.5 170 L 2 186.5 L 5 201.5 L 6 230.5 L 7 231.5 L 8 253.5 L 9 254.5 L 9 263.5 L 10 264.5 L 12 284.5 Q 5.8 291.3 3 301.5 L 2 330.5 L 3 331.5 L 3 355.5 L 4 360.5 L 9 375.5 L 18 389.5 L 21 400 L 0.5 400 L 0 399.5 L 0.5 170 Z "></path><path fill="rgb(225,22,127)" stroke="rgb(225,22,127)" stroke-width="1" opacity="0.996078431372549" d="M 374.5 9 L 375 46.5 L 379 53.5 L 379 60.5 Q 376.9 64.9 370.5 65 L 366 63 L 360 49.5 L 359 29.5 L 360 29.5 L 361 31.5 L 360 33.5 L 361 34.5 Q 359.6 45.4 362 52.5 L 364 57.5 L 367.5 61 Q 374 62 376 58.5 L 377 52.5 L 374 46.5 L 373 32.5 L 373 28.5 L 374 21.5 L 373 19.5 L 373 17.5 L 374 14.5 L 373 12.5 L 374.5 9 Z "></path><path fill="rgb(225,22,127)" stroke="rgb(225,22,127)" stroke-width="1" opacity="0.996078431372549" d="M 325.5 132 L 327 137.5 L 327 158.5 L 330 165.5 L 325.5 172 L 317.5 172 L 314 170 L 311 163.5 L 311 156.5 L 312 156.5 L 313 164.5 L 316.5 170 L 322.5 171 L 327 167.5 Q 328 159.5 325 155.5 L 326 153.5 L 325 150.5 L 326 145.5 L 325 144.5 L 325.5 132 Z "></path><path fill="rgb(225,22,127)" stroke="rgb(225,22,127)" stroke-width="1" opacity="0.996078431372549" d="M 165.5 200 L 166 211.5 L 164 220.5 L 160.5 224 Q 151.8 225.8 150 220.5 L 149 215.5 L 150 214.5 L 150.5 202 Q 153 203 152 207.5 L 151 208.5 L 151 217.5 Q 152.9 221.1 158.5 221 L 163 218.5 L 165.5 200 Z "></path><path fill="rgb(225,22,127)" stroke="rgb(225,22,127)" stroke-width="1" opacity="0.996078431372549" d="M 25.5 262 L 27 264.5 L 28 283.5 L 29 284.5 L 30 320.5 L 31 321.5 L 32 341.5 L 33 342.5 L 33 357.5 L 39 367.5 L 40 376.5 L 38 380 L 30.5 382 L 26 378.5 L 20 368.5 L 18 360.5 L 17 335.5 L 16 334.5 L 16 325.5 L 14 314.5 L 14 291.5 Q 11.8 290.3 13 285.5 L 14 285.5 L 15 287.5 L 15 306.5 L 16 307.5 L 16 309.5 L 16 322.5 L 18 333.5 L 19 359.5 L 21 367.5 L 27.5 377 Q 35.5 378.5 37 373.5 L 38 370.5 L 32 358.5 L 31 332.5 L 30 331.5 L 29 309.5 L 28 308.5 L 28 288.5 L 27 287.5 L 27 275.5 L 26 274.5 L 25.5 262 Z "></path><path fill="rgb(254,0,107)" stroke="rgb(254,0,107)" stroke-width="1" opacity="0.27450980392156865" d="M 285 0 Q 287.7 -1.1 287 1.5 L 275 24.5 L 264.5 36 Q 250.3 43.8 240.5 56 L 225.5 64 L 194.5 73 L 172.5 74 L 171.5 73 L 162.5 73 L 132.5 66 L 119.5 65 L 111.5 63 L 103.5 63 L 102.5 62 L 84.5 62 L 73.5 60 L 31.5 60 L 25.5 63 Q 15.5 63 9.5 67 L 4.5 67 Q 3.4 64.3 0 65 L 0 61 L 1.5 61 L 6.5 65 L 10.5 65 Q 16.5 61 26.5 61 L 32.5 58 L 72.5 58 L 78.5 60 L 98.5 60 L 99.5 61 L 109.5 61 L 116.5 63 L 125.5 63 L 167.5 72 L 191.5 72 L 220.5 64 L 234.5 58 L 242 53 Q 240.9 50.3 243.5 51 L 245 48 L 267 31.5 Q 279.2 18.4 285 0 Z "></path><path fill="rgb(254,0,107)" stroke="rgb(254,0,107)" stroke-width="1" opacity="0.27450980392156865" d="M 305.5 0 Q 311 -1 312 2.5 L 313 19.5 L 316 29.5 L 320 63.5 L 325 91.5 L 327 129.5 L 325 128.5 L 324 97.5 L 323 96.5 L 323 89.5 L 322 88.5 L 319 61.5 L 317 54.5 L 316 39.5 L 312 23.5 L 311 8.5 L 310 4.5 L 306.5 1 L 305.5 0 Z "></path><path fill="rgb(254,0,107)" stroke="rgb(254,0,107)" stroke-width="1" opacity="0.27450980392156865" d="M 358 0 L 360 0.5 L 360 28.5 L 358.5 32 L 358 0 Z "></path><path fill="rgb(254,0,107)" stroke="rgb(254,0,107)" stroke-width="1" opacity="0.27450980392156865" d="M 374 0 Q 377.5 -1.1 376 6.5 L 374 7.5 L 374 0 Z "></path><path fill="rgb(254,0,107)" stroke="rgb(254,0,107)" stroke-width="1" opacity="0.27450980392156865" d="M 295 17 Q 298.5 15.9 297 23.5 L 301 39.5 L 301 46.5 L 302 47.5 L 302 53.5 L 303 54.5 L 303 60.5 L 307 81.5 L 308 95.5 L 309 96.5 L 310 126.5 L 311 127.5 L 311 139.5 L 312 140.5 L 312 155.5 L 310.5 158 L 307 93.5 L 302 65.5 L 302 59.5 L 301 58.5 L 300 43.5 L 295.5 22 L 285 38.5 L 274.5 49 L 261 58.5 Q 261.8 60.8 259.5 60 Q 252.8 68.8 242.5 74 L 215.5 85 L 202.5 87 L 193.5 90 L 169 90 L 169 107.5 L 170 108.5 L 170 154.5 L 169 155.5 L 169 172.5 L 168 173.5 L 168 198.5 L 166.5 200 L 166 178.5 L 167 177.5 L 167 164.5 L 168 163.5 L 168 103.5 L 167 102.5 L 167 89.5 L 168.5 88 L 194.5 88 L 212.5 84 L 230.5 78 L 250.5 67 L 262.5 55 Q 274.4 48.4 283 38.5 Q 290.9 29.1 295 17 Z "></path><path fill="rgb(254,0,107)" stroke="rgb(254,0,107)" stroke-width="1" opacity="0.27450980392156865" d="M 38.5 74 L 64.5 74 L 74.5 76 L 103.5 77 L 104.5 78 L 132.5 81 L 152 85 L 153 87.5 L 154 140.5 L 153 141.5 L 152 193.5 L 151 194.5 L 151 202 Q 148 203.3 149 199.5 L 150 198.5 L 150 171.5 L 151 170.5 L 151 156.5 L 152 155.5 L 152 110.5 L 151 109.5 L 151 87.5 L 149.5 86 L 144.5 86 L 122.5 81 L 114.5 81 L 113.5 80 L 96.5 79 L 95.5 78 L 76.5 78 L 69.5 76 L 36.5 76 L 30.5 79 L 20.5 80 L 8 84.5 L 10 93.5 L 11 110.5 L 14 119.5 L 14 130.5 L 15 131.5 L 15 139.5 L 17 149.5 L 19 177.5 L 22 190.5 L 23 218.5 L 24 219.5 L 24 230.5 L 25 231.5 L 25 242.5 L 26 243.5 L 27 260.5 L 26 260.5 Q 23.5 257 25 249.5 L 24 248.5 L 23 226.5 L 22 225.5 L 21 196.5 L 17 174.5 L 13 126.5 L 9 107.5 L 7 82 L 30.5 77 L 38.5 74 Z "></path><path fill="rgb(254,0,107)" stroke="rgb(254,0,107)" stroke-width="1" opacity="0.27450980392156865" d="M 0.5 154 L 3 181.5 L 6 195.5 L 7 224.5 L 8 225.5 L 8 235.5 L 9 236.5 L 10 257.5 L 13 274.5 L 13 284.5 L 12 284.5 L 11 271.5 L 9 263.5 L 9 254.5 L 8 253.5 L 7 231.5 L 6 230.5 L 5 201.5 L 4 200.5 L 4 193.5 L 3 192.5 L 1 170.5 L 0 169.5 L 0.5 154 Z "></path><path fill="rgb(254,0,111)" stroke="rgb(254,0,111)" stroke-width="1" opacity="0.984313725490196" d="M 287 0 Q 291.1 -1.3 290 2 Q 287.3 0.9 288 3.5 L 281 15.5 L 279 23 Q 276.3 21.9 277 24.5 L 276 27 Q 273.3 25.9 274 28.5 L 273 31 L 271 31 Q 272.1 33.7 269.5 33 L 268 36 L 263 38 Q 264.1 40.7 261.5 40 L 255 44.5 L 255.5 46 L 253 46 Q 254.1 48.7 251.5 48 L 246 52 L 245.5 55 L 244 54.5 Q 244.8 56.8 242.5 56 L 236.5 61 L 232 62 Q 233.3 65.3 228.5 64 L 221.5 68 L 217.5 68 Q 213.9 71.4 207 71.5 L 207.5 73 L 204.5 72 L 199.5 74 L 197.5 74 L 193.5 75 L 191.5 75 L 186.5 76 L 184.5 75 Q 183.3 77.2 178.5 76 L 176.5 76 L 157.5 74 L 143.5 70 L 141.5 70 L 136.5 70 L 128.5 67 L 126.5 67 Q 120.3 68.8 118.5 66 L 116.5 66 Q 109.1 66.9 105.5 64 L 103.5 65 L 100.5 64 L 98.5 64 L 83.5 63 L 81.5 63 L 65.5 62 L 64.5 61 Q 63.3 63.3 58.5 62 L 56.5 62 L 53.5 61 L 49.5 62 L 46.5 61 Q 44.8 63.8 38.5 62 L 36.5 62 L 5.5 69 L 3.5 68 L 0 69 Q -2.1 63.8 2.5 65 Q 3.8 68.3 9.5 67 Q 15.5 63 25.5 63 L 31.5 60 L 73.5 60 L 84.5 62 L 102.5 62 L 103.5 63 L 126.5 65 L 162.5 73 L 185.5 74 L 207.5 70 L 225.5 64 L 237.5 58 L 272 28.5 Q 281.5 15.8 287 0 Z "></path><path fill="rgb(254,0,111)" stroke="rgb(254,0,111)" stroke-width="1" opacity="0.984313725490196" d="M 303.5 0 L 310 4.5 L 312 23.5 L 315 33.5 L 317 54.5 L 322 81.5 L 326 131.5 L 325 135 L 323 134.5 L 324 131.5 L 323 130.5 L 323 120.5 L 322 119.5 L 323 114.5 L 323 112.5 L 322 110.5 L 322 108.5 L 322 96.5 L 319 83.5 L 320 80 L 318 79.5 L 319 77.5 L 318 75.5 L 318 73.5 Q 318.7 66.8 316 63.5 L 316 59.5 L 315 46.5 L 313 42.5 L 314 40.5 L 312 33.5 L 312 31.5 L 310 24.5 L 311 22.5 L 309 18.5 L 309 14.5 L 308 12.5 L 309 9.5 L 307.5 8 L 303.5 7 L 301 8 Q 300.3 2.7 303.5 0 Z "></path><path fill="rgb(254,0,111)" stroke="rgb(254,0,111)" stroke-width="1" opacity="0.984313725490196" d="M 360 0 Q 362.7 -1.1 362 1.5 L 362 5.5 L 361 7.5 L 361 11.5 L 362 19.5 L 361 23.5 L 362 25.5 L 360.5 31 L 360 0 Z "></path><path fill="rgb(254,0,111)" stroke="rgb(254,0,111)" stroke-width="1" opacity="0.984313725490196" d="M 372 0 L 374 0.5 L 374 7.5 L 374 9.5 Q 375.1 12.8 372.5 12 L 373 10.5 L 372 7.5 L 372 5.5 L 372 0 Z "></path><path fill="rgb(254,0,111)" stroke="rgb(254,0,111)" stroke-width="1" opacity="0.984313725490196" d="M 295.5 13 L 299 14.5 L 298 17.5 L 303 37.5 L 303 39.5 Q 301.5 45 304 46.5 L 304 50.5 L 305 53.5 L 305 55.5 L 306 68.5 L 308 73.5 L 307 75.5 Q 310.5 77 308 78.5 L 310 86.5 L 309 88.5 L 311 96.5 L 311 98.5 L 312 103.5 Q 309.5 105 311 110.5 Q 314.5 112 312 113.5 Q 310.7 118.2 313 119.5 L 312 124.5 L 313 126.5 L 312 128.5 L 313 129.5 L 313 140.5 L 314 141.5 L 314 143.5 L 313 150.5 L 314 154.5 L 312.5 158 L 309 96.5 L 308 95.5 L 308 88.5 L 305 74.5 L 305 68.5 L 301 46.5 L 301 39.5 L 297 23.5 L 297 17 Q 294.3 15.9 295 18.5 Q 288 35 275.5 46 Q 260.9 54.4 250.5 67 L 230.5 78 L 212.5 84 L 194.5 88 L 168.5 88 L 167 89.5 L 167 102.5 L 168 103.5 L 168 163.5 L 167 164.5 L 167 177.5 L 166 178.5 L 166 199.5 L 164.5 201 L 164 187.5 L 164 185.5 Q 162.8 180.8 165 179.5 L 165 177.5 L 165 164.5 L 166 163.5 L 166 152.5 L 167 151.5 L 166 150.5 L 166 138.5 L 166 136.5 L 167 127.5 L 166 122.5 L 166 120.5 L 166 109.5 L 165 108.5 L 166 104.5 L 166 102.5 L 165 97.5 L 165 95.5 L 166 92.5 L 166 90.5 Q 165.5 86.5 168.5 86 L 175.5 87 L 178.5 86 L 180.5 86 L 187.5 87 Q 189 84.5 194.5 86 L 196.5 84 L 198.5 85 L 208.5 83 L 215.5 80 L 219.5 80 L 221.5 78 L 229.5 76 L 243.5 69 L 259 57 Q 257.9 54.3 260.5 55 L 280 38.5 Q 278.9 35.2 281.5 36 L 294 16.5 Q 291.3 14.7 295.5 13 Z "></path><path fill="rgb(254,0,111)" stroke="rgb(254,0,111)" stroke-width="1" opacity="0.984313725490196" d="M 38.5 72 L 40.5 73 L 41.5 72 L 50.5 72 L 53.5 73 L 59.5 72 L 61.5 72 L 64.5 73 L 66.5 72 L 74.5 74 L 76.5 74 L 86.5 74 L 87.5 75 L 89.5 75 L 92.5 74 L 95.5 75 L 103.5 75 L 114.5 77 L 116.5 77 L 142.5 81 Q 144.8 83.7 150.5 83 L 154 85.5 L 155 88.5 L 155 90.5 Q 156.5 96 154 97.5 L 154 99.5 L 155 101.5 L 155 113.5 L 156 114.5 L 156 116.5 L 155 118.5 Q 157.5 120 156 125.5 L 156 127.5 L 155 132.5 L 155 134.5 L 156 136.5 L 156 138.5 L 155 142.5 L 156 145.5 L 155 148.5 L 155 150.5 L 156 155.5 L 154 165.5 L 154 171.5 Q 155.8 177.8 153 179.5 L 154 182.5 L 153 185.5 L 154 188.5 L 153 192.5 L 153 194.5 Q 154.8 201.3 151.5 203 L 151 194.5 L 152 193.5 L 154 117.5 L 153 116.5 L 153 87.5 L 152 85 L 132.5 81 L 104.5 78 L 103.5 77 L 74.5 76 L 64.5 74 L 38.5 74 L 30.5 77 L 7 82 L 9 107.5 L 13 126.5 L 17 174.5 L 21 196.5 L 22 225.5 L 23 226.5 L 24 248.5 L 25 249.5 L 26 261.5 L 24.5 264 Q 21.7 262.8 24 261.5 L 22 251.5 L 23 247.5 L 22 245.5 L 22 243.5 L 21 241.5 L 22 238.5 L 20 227.5 L 20 225.5 L 19 216.5 L 20 212.5 L 19 209.5 Q 20.5 200 18 194.5 L 18 192.5 L 17 190.5 L 18 188.5 L 15 176.5 L 15 174.5 L 15 165.5 L 13 156.5 L 13 154.5 L 12 136.5 L 11 135.5 L 11 133.5 L 10 128.5 L 10 126.5 L 9 120.5 L 9 118.5 L 9 113.5 L 6 101.5 L 6 97.5 L 5 92.5 L 6 90.5 Q 3.2 88.7 5 82.5 L 7.5 80 Q 12.1 80.6 13.5 78 L 22.5 77 L 25.5 75 L 29.5 75 L 38.5 72 Z "></path><path fill="rgb(254,0,111)" stroke="rgb(254,0,111)" stroke-width="1" opacity="0.984313725490196" d="M 0.5 137 L 2 151.5 L 3 152.5 L 3 154.5 Q 1.3 160.8 4 162.5 L 4 164.5 L 4 172.5 L 5 173.5 L 5 175.5 L 5 181.5 L 7 189.5 L 7 191.5 L 9 199.5 L 8 204.5 L 8 206.5 L 9 210.5 L 9 212.5 L 10 218.5 L 10 220.5 L 9 224.5 L 11 232.5 L 10 234.5 L 11 237.5 L 12 241.5 L 11 246.5 L 11 248.5 L 13 266.5 L 15 272.5 L 15 274.5 Q 13.3 280.8 16 282.5 L 14.5 286 L 13 284.5 L 13 274.5 L 12 273.5 L 10 248.5 L 9 247.5 L 6 195.5 L 4 188.5 L 2 164.5 L 1 163.5 L 1 154.5 L 0 153.5 L 0.5 137 Z "></path><path fill="rgb(255,0,111)" stroke="rgb(255,0,111)" stroke-width="1" opacity="1" d="M 290 0 L 303 0.5 L 301 8 L 304.5 7 L 309 9.5 L 309 13.5 L 308 15.5 L 310 19.5 L 311 23.5 L 311 25.5 L 313 32.5 L 313 34.5 L 314 41.5 L 314 43.5 L 315 55.5 L 317 60.5 L 317 64.5 L 319 74.5 L 318 76.5 L 319 78.5 L 318.5 80 Q 321.1 79.2 320 82.5 L 320 84.5 L 321 95.5 L 322 96.5 L 322 108.5 L 323 109.5 L 323 111.5 L 322 113.5 L 323 118.5 L 323 120.5 Q 321.7 128.8 324 133.5 L 323.5 135 L 325 135.5 L 325 144.5 L 326 146.5 L 325 150.5 L 326 153.5 L 325 156.5 Q 328.2 159.8 327 167.5 Q 325.4 171.9 318.5 171 L 315 168.5 Q 311.5 164.5 313 155.5 L 314 151.5 L 313 149.5 Q 315.2 148.3 314 143.5 L 313 140.5 L 313 129.5 L 312 127.5 L 313 125.5 L 312 120.5 L 312 118.5 Q 313.2 113.8 311 112.5 L 311 110.5 Q 309.5 105 312 103.5 L 310 97.5 L 311 95.5 L 309 87.5 L 309 85.5 L 308 78.5 Q 310.5 77 307 75.5 L 308 73.5 L 306 68.5 L 306 62.5 L 304 54.5 L 304 52.5 L 305 49.5 L 303 45.5 Q 304.5 40 302 38.5 L 302 36.5 L 298 17.5 L 299 14.5 L 295.5 13 L 292 18.5 L 288 27.5 L 281.5 36 Q 278.9 35.2 280 38.5 Q 271.2 48.8 259 55 Q 260.1 57.7 257.5 57 L 246.5 67 L 229.5 76 L 221.5 78 L 219.5 80 L 215.5 80 L 208.5 83 L 197.5 85 Q 196 82.5 194.5 86 L 186.5 87 Q 185.2 84.7 180.5 86 L 178.5 86 L 174.5 87 Q 173.2 84.7 168.5 86 L 165 91.5 L 166 93.5 L 165 95.5 L 165 97.5 L 166 102.5 L 166 104.5 L 165 108.5 L 166 109.5 L 166 120.5 L 167 121.5 L 166 126.5 L 167 128.5 Q 164.3 130.2 166 136.5 L 166 138.5 L 166 150.5 L 167 151.5 L 166 152.5 L 165 177.5 L 164 178.5 L 164 180.5 Q 162.8 185.2 165 186.5 L 164 187.5 L 164 200.5 L 165 205.5 L 164 206.5 L 164 216.5 L 161.5 220 L 156.5 221 L 151 217.5 L 151 208.5 L 154 193.5 L 153 190.5 L 154 188.5 L 153 185.5 L 154 180.5 L 154 178.5 Q 152.3 172.3 155 170.5 L 155 164.5 L 155 156.5 L 156 155.5 L 155 150.5 L 155 148.5 L 156 145.5 L 156 141.5 L 155 137.5 L 155 135.5 L 156 133.5 L 155 131.5 L 156 127.5 L 156 125.5 Q 157.5 120 155 118.5 L 156 116.5 L 155 113.5 L 155 101.5 L 154 99.5 L 155 96.5 Q 156.5 91 154 89.5 L 154 87.5 L 152.5 84 L 133.5 79 L 119.5 78 L 115.5 76 L 113.5 77 L 112.5 76 L 104.5 76 L 94.5 74 L 92.5 74 L 89.5 75 L 86.5 74 L 76.5 74 L 75.5 73 L 73.5 73 L 65.5 72 L 63.5 72 L 60.5 73 L 55.5 72 L 53.5 73 L 50.5 72 Q 43 70.5 39.5 73 L 37.5 73 L 25.5 75 L 22.5 77 L 13.5 78 Q 12.1 80.6 7.5 80 L 5 82.5 L 6 91.5 L 6 93.5 L 7 98.5 L 7 102.5 L 7 107.5 L 10 119.5 L 9 121.5 L 11 127.5 L 11 129.5 L 12 134.5 L 12 136.5 L 12 146.5 L 14 155.5 L 14 157.5 L 15 174.5 L 16 175.5 L 16 177.5 L 18 189.5 L 18 191.5 L 19 193.5 L 18 196.5 L 19 197.5 L 19 209.5 L 20 210.5 L 20 212.5 L 19 217.5 L 21 226.5 L 21 228.5 Q 19.7 235.3 22 238.5 L 22 242.5 L 23 244.5 L 22 246.5 L 23 250.5 L 23 252.5 L 24 261.5 Q 21.5 263 25 264.5 L 27 275.5 L 27 287.5 L 28 288.5 L 28 308.5 L 29 309.5 L 29 322.5 L 31 332.5 L 32 358.5 L 38 370.5 L 33.5 377 Q 25.5 378.5 24 373.5 L 19 359.5 L 18 333.5 L 17 332.5 L 16 309.5 L 15 308.5 L 15 306.5 L 15 287.5 L 14 286.5 L 16 282.5 L 14 273.5 L 14 271.5 L 11 248.5 L 11 246.5 L 12 241.5 L 10 236.5 L 10 234.5 L 11 232.5 L 9 222.5 L 10 220.5 L 10 218.5 L 8 211.5 L 8 209.5 L 9 205.5 L 8 200.5 L 8 198.5 L 6 190.5 L 7 187.5 L 4 174.5 L 4 172.5 L 4 164.5 L 3 163.5 L 3 161.5 Q 4.8 155.3 2 153.5 L 2 151.5 L 2 144.5 L 0 136.5 L 1 134.5 L 0 133.5 L 0 69 L 4.5 68 L 7.5 69 L 21.5 66 L 28.5 63 L 33.5 63 L 37.5 61 Q 39.2 63.8 45.5 62 L 48.5 61 L 52.5 62 L 54.5 61 L 56.5 62 L 58.5 62 Q 63.3 63.3 64.5 61 L 65.5 62 L 81.5 63 L 82.5 64 L 86.5 63 L 87.5 64 L 98.5 64 L 99.5 65 L 102.5 64 L 104.5 65 L 106.5 65 L 117.5 67 L 119.5 67 Q 125.8 65.3 127.5 68 L 129.5 68 L 142.5 71 L 144.5 71 L 163.5 75 Q 171.8 73.8 176.5 76 L 178.5 76 L 185.5 75 L 187.5 75 L 192.5 74 L 194.5 75 L 198.5 73 L 200.5 73 L 211.5 71 L 214.5 69 L 226.5 66 L 228.5 64 L 232 64 Q 230.9 61.3 233.5 62 L 244 56 L 244.5 54 L 246 54.5 Q 244.9 51.2 247.5 52 L 253 48 Q 251.8 45 255.5 46 L 255.5 44 L 263 40 Q 261.9 37.3 264.5 38 L 268 36 L 269.5 33 L 271 33 L 271 31 Q 273.7 32.1 273 29.5 L 274 27 Q 276.7 28.1 276 25.5 L 277 23 Q 280 24.3 279 20.5 L 288 2 Q 291 3 290 0 Z "></path><path fill="rgb(255,0,111)" stroke="rgb(255,0,111)" stroke-width="1" opacity="1" d="M 362 0 L 372 0 L 372 5.5 L 372 7.5 L 373 10.5 L 373 12.5 L 374 14.5 L 373 17.5 L 373 19.5 L 374 24.5 L 373 28.5 L 373 32.5 L 374 46.5 L 377 52.5 L 377 56.5 L 374.5 60 L 367.5 61 L 364 57.5 L 362 52.5 Q 359.6 45.4 361 34.5 L 360 32.5 L 362 24.5 L 361 20.5 Q 363.3 19.3 362 14.5 L 361 11.5 L 362 6.5 L 361 4.5 L 362 1.5 L 362 0 Z "></path><path fill="rgb(2,193,253)" stroke="rgb(2,193,253)" stroke-width="1" opacity="0.9882352941176471" d="M 384.5 0 L 400 0 L 400 43.5 L 386 57.5 L 385 63.5 L 386 64.5 L 387 83.5 L 386 84.5 L 385 98.5 L 379 120.5 L 368 147.5 L 348 177.5 L 336.5 189 L 309.5 203 L 294.5 207 L 273.5 216 L 264.5 217 L 238.5 226 Q 233.7 224.8 232.5 227 L 177.5 227 L 175 228 Q 174.6 235.1 168.5 238 L 156.5 239 L 130.5 250 Q 110.6 262.6 95 279.5 L 85 294.5 L 57 344.5 L 55 350.5 L 55 372.5 L 65 390.5 L 65 398.5 L 63.5 400 L 23 400 L 20 390.5 L 9 371.5 L 5 357.5 L 3 317.5 L 4 316.5 L 5 300.5 L 10 289.5 L 12.5 287 L 14 291.5 L 14 314.5 L 15 315.5 L 16 334.5 L 17 335.5 L 18 360.5 Q 20.4 373.6 28.5 381 L 33.5 382 L 38 380 L 40 376.5 L 40 370.5 L 33 357.5 L 33 342.5 L 32 341.5 L 32 330.5 L 30 320.5 L 29 284.5 L 28 283.5 L 28 272.5 L 26 262.5 Q 29 261.5 28 256.5 L 31.5 253 L 65.5 230 L 94.5 217 L 102.5 212 L 150 203 L 149 217.5 L 153.5 224 Q 162.3 225.8 164 220.5 L 166 211.5 L 166 200 L 193.5 200 L 226.5 191 L 244.5 188 L 273.5 180 L 287.5 178 L 309 161.5 L 310.5 159 Q 311 166.4 314 170 L 317.5 172 L 325.5 172 Q 329.6 170.1 330 164.5 L 327 158.5 L 327 137.5 L 326 132.5 L 341 111.5 L 346 99.5 L 350 83.5 L 350 57 L 356 57 L 356 54.5 L 358 50.5 L 358.5 35 L 361 53.5 L 366 63 L 373.5 65 L 379 60.5 L 379 53.5 L 375 46.5 L 375 9.5 L 384.5 0 Z "></path><path fill="rgb(0,200,254)" stroke="rgb(0,200,254)" stroke-width="1" opacity="0.1607843137254902" d="M 382.5 0 L 384 0.5 L 375 8.5 L 382.5 0 Z "></path><path fill="rgb(0,200,254)" stroke="rgb(0,200,254)" stroke-width="1" opacity="0.1607843137254902" d="M 357 32 Q 360 30.8 359 34.5 L 358 35.5 L 358 50.5 L 356 57 Q 353 58.3 354 54.5 L 356 50.5 L 356 37.5 L 357 32 Z "></path><path fill="rgb(0,200,254)" stroke="rgb(0,200,254)" stroke-width="1" opacity="0.1607843137254902" d="M 399.5 44 L 400 45.5 L 388 57.5 L 387 67.5 L 388 68.5 L 388 90.5 L 377 132.5 L 366 154.5 L 342.5 186 L 333.5 193 L 306.5 206 L 302.5 206 L 281.5 215 L 272.5 218 L 262.5 219 L 254.5 223 Q 244.6 223.6 238.5 228 L 183.5 228 L 177 229 Q 176.6 236.1 170.5 239 Q 167.2 241.7 160.5 241 L 158.5 240 L 143.5 246 L 141.5 248 L 131.5 251 L 112.5 265 L 105.5 272 L 101 274 L 86 295.5 L 81 306.5 L 59 343.5 L 56 354.5 L 56 371.5 Q 63.7 381.3 68 394.5 L 67 397.5 Q 68.3 401.3 64.5 400 L 65 398.5 L 65 390.5 L 55 372.5 L 55 350.5 L 60 338.5 L 85 294.5 L 95 279.5 L 106.5 268 L 130.5 250 L 156.5 239 L 168.5 238 L 174 232.5 L 175 228 L 177.5 227 L 232.5 227 Q 250 223.5 264.5 217 L 273.5 216 L 322.5 197 L 336.5 189 L 348 177.5 L 364 154.5 L 375 132.5 L 385 98.5 L 387 76.5 L 386 75.5 L 386 64.5 L 385 62.5 L 386 57.5 L 399.5 44 Z "></path><path fill="rgb(0,200,254)" stroke="rgb(0,200,254)" stroke-width="1" opacity="0.1607843137254902" d="M 349.5 57 L 350 83.5 L 344 105.5 L 326.5 132 L 326 130.5 Q 331.4 118.9 340 110.5 L 343 103.5 L 349 80.5 L 349.5 57 Z "></path><path fill="rgb(0,200,254)" stroke="rgb(0,200,254)" stroke-width="1" opacity="0.1607843137254902" d="M 309.5 158 L 311 158.5 L 307.5 163 L 287.5 178 L 273.5 180 L 193.5 200 L 167.5 200 L 167.5 199 L 189.5 199 Q 190.8 196.7 195.5 198 Q 202.5 194.5 212.5 194 L 219.5 191 L 241.5 187 L 275.5 178 L 286.5 177 L 301.5 166 L 309.5 158 Z "></path><path fill="rgb(0,200,254)" stroke="rgb(0,200,254)" stroke-width="1" opacity="0.1607843137254902" d="M 147.5 201 L 150 202.5 L 102.5 212 L 94.5 217 L 65.5 230 L 39.5 247 L 28.5 256 L 28 254.5 L 62.5 230 L 100.5 211 L 105.5 209 L 114.5 209 Q 122.2 205.2 133.5 205 L 147.5 201 Z "></path><path fill="rgb(0,200,254)" stroke="rgb(0,200,254)" stroke-width="1" opacity="0.1607843137254902" d="M 27.5 259 L 28 260.5 L 26 261.5 L 27.5 259 Z "></path><path fill="rgb(0,200,254)" stroke="rgb(0,200,254)" stroke-width="1" opacity="0.1607843137254902" d="M 11 285 Q 13.7 283.9 13 286.5 L 10 289.5 L 5 300.5 L 3 322.5 L 4 323.5 L 4 349.5 L 5 350.5 L 6 361.5 L 9 371.5 L 20 390.5 L 23 400 Q 20 401.3 21 397.5 L 17 387.5 L 9 375.5 L 4 360.5 L 3 355.5 L 2 310.5 L 5 295.5 L 11 285 Z "></path></svg>