<svg width="400" height="400" version="1.1" xmlns="http://www.w3.org/2000/svg" desc="Created with imagetracer.js version 1.2.5"><path fill="rgb(255,0,42)" stroke="rgb(255,0,42)" stroke-width="1" opacity="0.592156862745098" d="M 48.5 12 Q 58.6 10.4 64.5 13 Q 75.4 18.1 82 27.5 L 87 35.5 Q 103.3 50.2 116 68.5 L 152.5 105 L 196.5 146 L 199.5 146 L 280 68.5 Q 292.7 50.2 309 35.5 L 314 27.5 L 324.5 17 Q 331.3 9.8 347.5 12 Q 357.1 13.9 363.5 19 L 390 43.5 L 392 46.5 L 394 55.5 L 391 68.5 Q 388.8 75.3 383.5 79 L 369.5 87 L 327 129.5 L 288 176.5 L 259 205.5 L 288 233.5 L 350 296.5 L 357.5 306 Q 369.5 309 376 317.5 L 390 335.5 L 393 341.5 L 394 349.5 Q 392.4 358.9 386.5 364 Q 368 372.5 354.5 386 L 346.5 389 L 339.5 389 L 318.5 380 Q 301.9 368.1 288.5 353 L 268.5 340 L 257 328.5 L 246.5 317 L 226 299.5 L 199.5 272 L 196.5 272 L 170 298.5 L 163.5 306 L 139 327.5 L 127.5 340 L 107.5 353 Q 92.9 369.4 74.5 382 L 56.5 389 L 49.5 389 L 41.5 386 L 28.5 375 L 7 361.5 Q 2.2 356.8 2 347.5 Q 4.3 346.2 3 341.5 L 6 335.5 L 24.5 313 L 38.5 306 L 43 301.5 L 46 296.5 L 127.5 214 L 137 205.5 L 108 176.5 L 69 129.5 L 26.5 87 L 12.5 79 L 8 74.5 L 3 62.5 Q 4.5 57 2 55.5 L 4 46.5 L 11.5 38 L 32.5 19 Q 38.9 13.9 48.5 12 Z M 50 13 L 38 17 L 23 29 L 8 45 L 4 56 Q 4 67 9 73 Q 15 81 26 85 L 74 134 Q 103 172 138 206 L 137 208 L 126 217 L 49 295 L 43 304 L 40 307 Q 32 308 28 312 Q 13 324 5 342 L 5 352 L 10 362 L 17 367 L 28 373 L 40 383 L 45 385 L 65 384 L 71 382 L 79 378 L 97 363 L 101 357 L 131 336 L 135 331 L 160 308 L 176 291 L 198 270 L 218 288 L 220 292 L 245 314 L 261 332 L 294 357 Q 296 356 295 359 L 318 378 L 332 384 L 341 384 L 342 385 Q 350 386 355 384 Q 367 373 383 365 Q 388 360 391 352 Q 392 343 390 339 L 378 322 Q 371 311 357 307 L 347 295 L 280 227 L 261 209 L 258 206 Q 293 172 322 134 L 371 85 L 380 80 Q 389 74 392 61 Q 392 47 385 41 L 362 19 Q 356 14 347 13 Q 330 12 323 20 L 276 75 L 199 148 L 139 93 L 112 66 Q 103 51 90 41 L 79 26 L 66 15 L 59 13 L 50 13 Z "></path><path fill="rgb(255,0,0)" stroke="rgb(255,0,0)" stroke-width="1" opacity="0.00392156862745098" d="M 52.5 10 L 54.5 10 L 57.5 11 L 59.5 11 L 69.5 14 L 82 25.5 Q 87.4 36.6 96.5 44 L 99 45.5 Q 117.5 71 140.5 92 L 179.5 129 L 198.5 145 L 275 72.5 L 298.5 44 L 307 36.5 Q 312.8 24.8 322.5 17 Q 328.2 11.7 337.5 10 L 339.5 11 L 341.5 10 L 344.5 11 L 348.5 11 L 360.5 15 L 391 41.5 L 394 46.5 L 396 54.5 L 393 67.5 Q 390.2 76.2 383.5 81 L 373.5 85 L 324 134.5 L 282 185 L 279 186.5 L 261 206.5 L 280 223.5 L 304.5 250 L 349 293.5 L 356 304 Q 366.2 306.2 373 312.5 L 375 315.5 L 393 337.5 L 396 348.5 Q 393.8 349.8 395 354.5 L 392 360.5 L 387.5 365 L 376.5 370 L 355.5 387 L 344.5 391 L 341.5 390 L 339.5 390 L 336.5 390 L 330.5 386 L 320.5 383 L 296 362.5 L 294 359.5 Q 281.6 347.4 265.5 339 L 260 333.5 L 250.5 322 L 247.5 320 L 221 295.5 L 211.5 285 L 208.5 283 L 197.5 273 L 187.5 283 L 186 283 Q 187.1 285.7 184.5 285 L 160.5 310 L 147 320 Q 148.1 322.7 145.5 322 L 130.5 339 Q 114.4 347.4 102 359.5 L 100 362.5 L 75.5 383 L 65.5 386 L 55.5 391 L 52.5 390 L 50.5 391 L 40.5 387 L 29.5 377 L 19.5 370 L 11.5 367 L 4 360.5 L 1 354.5 Q 2.3 349.8 0 348.5 L 3 337.5 L 21 314 Q 23.7 315.1 23 312.5 Q 29.8 306.2 40 304 L 47 293.5 L 90.5 250 L 98 243.5 L 123.5 216 L 135 206.5 L 115.5 185 Q 113.3 185.8 114 183.5 L 102 171.5 L 72 134.5 L 22.5 85 Q 12.1 82.9 7 75.5 L 3 67.5 L 0 54.5 L 2 46.5 L 7.5 39 L 11.5 37 L 35.5 15 L 52.5 10 Z M 49 12 Q 39 14 33 19 L 12 38 L 4 47 L 2 56 Q 5 57 3 63 L 8 75 L 13 79 L 27 87 L 69 130 L 108 177 L 137 206 L 128 214 L 46 297 L 43 302 L 39 306 L 25 313 L 6 336 L 3 342 Q 4 346 2 348 Q 2 357 7 362 L 29 375 L 42 386 L 50 389 L 57 389 L 75 382 Q 93 369 108 353 L 128 340 L 139 328 L 164 306 L 170 299 L 197 272 L 200 272 L 226 300 L 247 317 L 257 329 L 269 340 L 289 353 Q 302 368 319 380 L 340 389 L 347 389 L 355 386 Q 368 373 387 364 Q 392 359 394 350 L 393 342 L 390 336 L 376 318 Q 369 309 358 306 L 350 297 L 288 234 L 259 206 L 288 177 L 327 130 L 370 87 L 384 79 Q 389 75 391 69 L 394 56 L 392 47 L 390 44 L 364 19 Q 357 14 348 12 Q 331 10 325 17 L 314 28 L 309 36 Q 293 50 280 69 L 200 146 L 197 146 L 153 105 L 116 69 Q 103 50 87 36 L 82 28 Q 75 18 65 13 Q 59 10 49 12 Z "></path><path fill="rgb(0,0,0)" stroke="rgb(0,0,0)" stroke-width="1" opacity="0" d="M 0 0 L 400 0 L 400 400 L 0.5 400 L 0 399.5 L 0 349.5 L 1 349.5 L 1 354.5 Q 3.3 361.3 8.5 365 L 19.5 370 L 40.5 387 L 51.5 391 L 54.5 390 L 56.5 390 L 59.5 390 L 65.5 386 L 75.5 383 L 100 362.5 L 102 359.5 Q 114.4 347.4 130.5 339 L 136 333.5 L 145.5 322 L 148.5 320 L 175 295.5 L 184.5 285 L 187.5 283 L 198.5 273 L 208.5 283 L 210 283 Q 208.9 285.7 211.5 285 L 235.5 310 L 249 320 Q 247.9 322.7 250.5 322 L 265.5 339 Q 281.6 347.4 294 359.5 L 296 362.5 L 320.5 383 L 330.5 386 L 340.5 391 L 343.5 390 L 345.5 391 L 355.5 387 L 366.5 377 L 376.5 370 L 384.5 367 L 392 360.5 L 395 354.5 Q 393.8 349.8 396 348.5 L 393 337.5 L 375 314 Q 372.3 315.1 373 312.5 Q 366.2 306.2 356 304 L 349 293.5 L 305.5 250 L 298 243.5 L 272.5 216 L 261 206.5 L 280.5 185 Q 282.8 185.8 282 183.5 L 294 171.5 L 324 134.5 L 373.5 85 Q 383.9 82.9 389 75.5 L 393 67.5 L 396 54.5 L 394 46.5 L 388.5 39 L 384.5 37 L 360.5 15 L 343.5 10 L 341.5 10 L 338.5 11 L 336.5 11 L 326.5 14 L 314 25.5 Q 308.6 36.6 299.5 44 L 297 45.5 Q 278.5 71 255.5 92 L 216.5 129 L 197.5 145 L 121 72.5 L 97.5 44 L 89 36.5 Q 83.2 24.8 73.5 17 Q 67.8 11.7 58.5 10 L 56.5 11 L 54.5 10 L 51.5 11 L 47.5 11 L 35.5 15 L 5 41.5 Q 1 46 0.5 54 L 0 0 Z "></path><path fill="rgb(0,0,0)" stroke="rgb(0,0,0)" stroke-width="1" opacity="0" d="M 0.5 55 L 3 67.5 Q 5.8 76.2 12.5 81 L 22.5 85 L 72 134.5 L 114 185 L 117 186.5 L 135 206.5 L 116 223.5 L 91.5 250 L 47 293.5 L 40 304 Q 29.8 306.2 23 312.5 L 21 315.5 L 3 337.5 L 0.5 348 L 0.5 55 Z "></path><path fill="rgb(255,0,42)" stroke="rgb(255,0,42)" stroke-width="1" opacity="0.996078431372549" d="M 49.5 13 L 58.5 13 L 65.5 15 L 79 25.5 L 90 40.5 Q 102.7 51.3 112 65.5 L 138.5 93 L 198.5 148 L 276 74.5 L 322.5 20 Q 330.1 12.1 346.5 13 Q 355.5 14.5 361.5 19 L 385 40.5 Q 392.3 46.7 392 60.5 Q 389 73.5 379.5 80 L 370.5 85 L 322 133.5 Q 292.9 172.4 258 205.5 L 260.5 209 L 280 226.5 L 347 294.5 L 356.5 307 Q 371 310.5 378 321.5 L 390 338.5 Q 392.3 343.2 391 351.5 Q 388.5 360 382.5 365 Q 366.7 372.7 354.5 384 Q 349.8 386.3 341.5 385 L 340.5 384 L 331.5 384 L 317.5 378 L 295 358.5 Q 295.8 356.3 293.5 357 L 261 331.5 L 244.5 314 L 220 291.5 L 217.5 288 L 197.5 270 L 176 290.5 L 159.5 308 L 135 330.5 L 130.5 336 L 101 357 L 96.5 363 L 78.5 378 L 70.5 382 L 64.5 384 L 44.5 385 L 39.5 383 L 27.5 373 L 16.5 367 L 10 361.5 L 5 351.5 L 5 341.5 Q 13.1 323.6 27.5 312 Q 31.8 307.8 39.5 307 L 43 303.5 L 49 294.5 L 125.5 217 L 137 207.5 L 138 205.5 Q 103.1 172.4 74 133.5 L 25.5 85 Q 15.2 80.8 9 72.5 Q 3.9 66.6 4 55.5 L 8 44.5 L 22.5 29 L 37.5 17 L 49.5 13 Z M 49 20 L 49 22 L 51 21 L 49 20 Z M 346 20 L 347 22 Q 348 19 346 20 Z M 46 21 Q 46 24 44 23 L 42 26 L 40 27 L 42 24 L 40 23 L 39 26 L 38 24 Q 35 25 37 27 L 37 28 L 36 27 L 34 28 L 33 27 L 30 29 L 33 30 L 33 31 L 30 29 L 27 30 L 27 32 L 25 33 L 22 39 L 21 38 L 19 37 Q 16 38 18 40 L 17 40 L 15 40 L 16 43 L 12 44 L 12 46 L 11 46 L 11 48 L 7 54 L 8 57 Q 11 58 7 60 L 8 64 L 8 66 L 10 66 Q 9 72 14 73 Q 16 72 15 75 L 18 76 L 19 79 Q 20 81 22 79 L 23 83 L 27 84 Q 28 87 30 86 Q 29 88 32 87 L 36 91 L 37 90 L 37 92 L 40 92 Q 39 95 42 94 L 41 96 L 43 96 L 45 96 Q 49 98 46 100 L 48 102 L 50 98 L 49 100 L 50 102 L 50 101 L 52 100 L 50 103 L 52 108 L 55 107 L 55 109 Q 56 111 58 109 L 60 110 L 60 112 L 63 111 L 60 115 L 63 117 Q 62 119 65 118 L 64 117 L 66 118 Q 65 121 68 120 L 71 125 L 72 123 L 72 127 L 74 126 L 78 132 L 79 132 L 79 135 Q 82 134 81 137 L 83 137 L 84 141 L 87 142 Q 86 144 89 143 L 90 146 L 89 146 L 89 147 Q 92 146 91 150 L 93 149 L 92 151 L 94 152 L 96 151 L 95 153 Q 98 154 96 156 L 101 159 L 100 161 L 102 161 Q 103 164 105 162 Q 103 165 108 167 Q 110 166 109 170 L 111 170 L 110 172 Q 111 174 115 173 L 114 176 L 116 176 L 117 176 L 116 178 L 120 180 L 122 179 L 120 182 L 123 183 L 122 185 L 125 185 L 126 189 L 128 188 L 128 190 L 130 189 L 129 191 L 132 192 L 133 195 L 135 194 L 137 200 L 138 198 L 138 201 L 141 202 L 139 206 L 139 208 L 137 208 L 137 210 L 135 210 Q 136 213 134 212 L 132 215 L 125 221 Q 126 223 124 222 L 120 227 L 115 231 L 115 232 L 113 232 Q 114 235 112 234 L 112 236 L 111 235 L 110 237 L 108 238 L 103 244 L 94 252 Q 95 254 93 253 L 91 256 L 87 259 L 87 261 L 86 260 L 84 264 L 81 266 Q 77 265 79 269 L 77 269 L 68 281 L 65 283 Q 66 285 63 284 L 62 287 Q 59 286 60 290 L 59 289 Q 55 288 57 292 L 56 292 L 56 294 L 54 295 Q 51 294 52 298 L 51 298 L 48 302 L 41 307 L 38 311 L 37 310 L 31 313 L 31 315 L 28 316 L 25 320 Q 26 322 23 321 L 23 323 L 20 325 Q 21 328 18 327 L 17 331 L 18 332 Q 15 331 16 335 L 15 335 L 15 337 L 13 338 L 15 339 L 14 342 L 14 343 Q 16 342 15 345 L 17 346 L 15 347 L 15 346 L 13 345 L 12 348 L 16 349 L 15 354 L 17 353 L 18 354 L 15 356 L 17 356 L 16 358 L 18 358 L 20 364 L 23 363 Q 21 365 24 367 Q 23 369 26 368 L 26 366 L 27 370 L 31 369 L 33 370 L 36 374 L 37 372 Q 35 370 38 369 L 37 371 L 39 371 Q 40 369 41 372 L 38 373 L 42 373 L 44 373 L 46 374 L 45 376 L 47 376 L 50 377 Q 52 376 51 379 L 53 378 L 57 379 L 58 377 L 59 379 L 65 376 L 64 378 L 67 378 L 66 377 L 67 375 L 68 377 L 68 376 L 70 376 L 72 375 L 71 374 L 73 374 L 73 373 Q 71 371 74 370 L 73 372 L 75 372 L 76 373 Q 75 369 78 370 L 77 372 L 78 373 L 81 366 L 81 369 L 83 368 Q 82 365 85 366 L 84 365 L 85 363 L 86 365 L 86 363 L 90 364 L 90 362 L 92 362 L 92 360 Q 102 357 109 350 Q 111 351 110 348 L 115 345 Q 117 346 116 343 L 121 341 Q 120 338 123 339 L 129 332 Q 128 329 133 330 L 132 329 L 134 328 L 135 325 L 140 323 Q 144 321 141 320 Q 143 321 145 318 Q 144 315 147 316 L 148 314 L 159 305 Q 158 302 161 303 L 160 302 L 162 302 L 169 297 Q 171 296 169 295 L 177 289 L 179 286 L 182 284 L 184 279 L 187 278 Q 186 275 189 276 L 192 272 Q 194 273 193 271 L 197 268 Q 202 267 203 271 Q 202 273 205 272 L 208 276 Q 210 275 209 278 L 212 279 L 214 284 L 217 286 L 219 289 L 227 294 L 226 296 L 231 298 L 235 302 L 236 301 L 236 303 Q 238 302 237 305 L 247 312 L 250 316 Q 252 315 251 318 Q 253 322 255 319 L 254 321 L 260 325 Q 262 324 261 327 L 264 328 L 263 330 L 267 330 L 273 338 L 275 341 L 279 343 Q 281 342 280 345 L 285 348 Q 287 347 286 350 L 303 360 Q 305 359 304 362 L 306 361 L 307 364 L 310 363 L 311 365 L 311 364 L 312 364 L 311 366 L 313 366 L 315 369 L 316 366 L 317 372 L 319 373 L 318 371 L 320 370 L 321 373 L 323 372 L 322 371 L 324 372 L 323 374 L 325 373 L 324 375 L 326 375 L 328 375 L 329 377 L 329 376 L 330 376 L 329 378 L 332 378 L 332 376 L 338 379 L 339 377 L 339 379 L 344 378 L 345 379 Q 344 376 347 377 L 349 377 L 351 376 L 350 375 L 352 374 L 354 374 L 358 373 Q 357 370 356 372 L 357 370 L 359 371 L 359 369 Q 361 370 359 372 L 361 374 L 362 372 L 366 369 L 369 370 L 371 366 L 371 368 Q 373 369 372 367 Q 375 365 374 363 L 376 364 L 378 361 Q 377 357 380 358 L 379 357 L 381 356 L 378 354 L 380 353 L 381 354 L 380 349 L 384 348 L 384 346 L 382 345 L 382 347 L 381 347 L 380 345 Q 382 346 381 343 L 383 343 L 381 339 L 383 338 L 382 337 L 382 335 Q 379 336 380 332 L 379 332 L 379 331 L 378 329 Q 379 326 376 327 L 375 323 Q 372 324 373 321 L 371 321 L 370 318 L 367 316 Q 364 315 366 314 L 362 312 Q 360 308 359 311 L 358 310 L 352 305 L 346 298 Q 343 299 344 295 L 341 294 L 341 292 Q 338 293 339 289 L 337 290 L 336 287 L 333 286 L 331 283 L 328 281 L 328 280 L 319 271 Q 320 268 317 269 L 317 266 L 312 264 L 311 261 L 310 261 L 310 260 L 309 259 L 305 255 L 302 253 L 295 244 Q 292 245 293 243 L 288 238 L 286 236 L 285 236 L 285 234 Q 282 235 283 232 L 281 232 L 281 231 L 278 228 L 273 222 Q 270 223 271 221 L 267 217 L 263 212 Q 260 213 261 210 L 259 210 L 259 208 L 257 208 L 255 202 L 258 201 L 259 198 L 260 200 L 261 194 L 264 195 Q 266 194 264 193 L 266 192 Q 268 191 266 190 L 268 190 L 268 189 L 270 189 L 271 185 L 274 185 L 273 183 L 275 183 Q 278 181 274 180 L 276 180 L 279 179 L 280 177 L 280 175 L 282 176 L 281 175 Q 280 171 285 173 L 286 170 Q 289 171 287 167 L 289 167 L 292 164 L 291 163 L 293 163 L 296 161 L 295 159 L 300 156 Q 298 154 301 153 L 300 151 L 303 152 Q 305 151 303 150 L 305 150 L 305 147 L 308 147 L 307 146 L 307 145 L 309 142 L 311 142 L 313 139 Q 312 136 315 137 L 315 135 L 317 135 L 317 132 L 319 132 L 320 129 Q 322 124 324 127 L 325 123 L 326 125 L 328 122 Q 327 119 330 120 L 332 116 L 332 118 Q 334 119 333 117 L 336 115 L 334 111 L 337 112 L 336 111 L 338 110 L 340 110 L 342 107 L 344 108 Q 343 105 346 104 L 345 101 L 345 99 L 347 102 L 347 100 L 347 98 L 348 102 L 350 101 L 349 99 Q 351 94 353 97 L 355 96 L 355 94 Q 357 95 356 92 L 360 92 L 359 91 Q 362 92 365 87 Q 367 88 366 86 L 368 86 L 373 83 L 374 80 L 376 80 L 377 78 L 380 76 L 381 73 L 386 70 Q 384 65 388 66 L 387 65 L 388 61 Q 391 59 387 58 L 389 54 L 388 51 L 385 48 L 386 47 L 385 46 L 385 45 L 381 43 L 381 42 L 381 39 L 379 40 L 379 39 L 376 37 L 375 39 L 373 35 L 371 33 Q 368 32 370 31 L 368 30 Q 366 27 365 31 L 363 31 L 366 29 L 365 28 L 361 26 L 360 28 L 359 27 Q 361 25 359 24 L 358 26 L 356 23 L 354 24 L 355 26 L 356 27 L 354 25 L 351 23 L 351 21 L 349 24 L 348 22 L 347 24 L 345 22 L 342 23 L 341 21 Q 337 20 338 23 L 336 24 L 335 22 L 334 22 Q 335 24 333 23 Q 331 26 330 22 L 329 24 L 318 30 Q 319 32 316 31 L 316 33 L 314 33 L 314 35 L 312 36 L 294 58 Q 295 60 293 59 L 293 61 L 292 61 Q 289 62 291 64 L 287 67 Q 288 70 286 69 L 284 72 L 280 73 L 279 77 L 276 79 Q 273 80 275 82 L 274 81 L 273 83 L 271 84 L 268 88 L 261 92 Q 262 94 259 93 L 259 95 L 256 97 Q 253 96 254 99 L 252 100 L 246 107 L 243 108 L 241 111 L 237 112 L 236 115 L 234 115 L 234 117 Q 231 116 232 119 L 230 120 L 209 141 L 209 142 L 203 147 Q 200 146 201 149 L 195 149 L 195 147 L 189 142 Q 186 143 187 141 L 164 119 Q 165 116 162 117 L 162 115 L 161 115 L 159 112 L 157 111 Q 154 112 155 110 L 152 108 L 150 106 L 144 100 L 142 97 L 139 95 L 137 95 L 137 93 Q 134 94 135 92 L 130 88 Q 127 89 128 87 L 125 84 L 123 82 L 122 82 L 121 79 Q 118 80 119 77 L 116 76 Q 117 72 114 73 L 111 69 Q 108 70 109 67 L 107 65 Q 104 64 106 63 L 104 61 L 104 60 L 102 59 L 89 41 L 84 36 L 83 33 L 80 33 L 80 31 Q 77 32 78 30 L 69 24 Q 66 25 67 23 L 65 24 L 62 23 L 62 21 L 61 24 L 60 23 Q 57 24 58 21 Q 54 19 55 23 L 52 22 L 50 24 L 49 22 L 48 24 L 46 21 Z M 32 371 L 33 373 Q 34 370 32 371 Z M 363 371 L 363 373 L 365 372 L 363 371 Z "></path><path fill="rgb(255,0,42)" stroke="rgb(255,0,42)" stroke-width="1" opacity="0.996078431372549" d="M 38.5 28 L 39 30 L 34.5 31 L 35.5 29 L 38.5 28 Z "></path><path fill="rgb(255,0,42)" stroke="rgb(255,0,42)" stroke-width="1" opacity="0.996078431372549" d="M 357.5 28 L 362 30.5 L 360.5 30 Q 355.4 31.3 357.5 28 Z "></path><path fill="rgb(255,0,42)" stroke="rgb(255,0,42)" stroke-width="1" opacity="0.996078431372549" d="M 21.5 359 L 22.5 361 L 21.5 359 Z "></path><path fill="rgb(255,0,42)" stroke="rgb(255,0,42)" stroke-width="1" opacity="0.996078431372549" d="M 374.5 359 L 373.5 361 L 374.5 359 Z "></path><path fill="rgb(255,0,42)" stroke="rgb(255,0,42)" stroke-width="1" opacity="0.996078431372549" d="M 77.5 365 L 78.5 367 L 77.5 365 Z "></path><path fill="rgb(255,0,42)" stroke="rgb(255,0,42)" stroke-width="1" opacity="0.996078431372549" d="M 318.5 365 L 317.5 367 L 318.5 365 Z "></path><path fill="rgb(255,0,42)" stroke="rgb(255,0,42)" stroke-width="1" opacity="1" d="M 49 20 L 51 20.5 L 49 23.5 L 51.5 22 L 55 22.5 Q 54.2 19.5 58 21 Q 56.9 23.7 59.5 23 L 61 23.5 L 61.5 21 L 62 23 L 64.5 24 L 67 22.5 Q 66.3 24.8 68.5 24 L 78 29.5 Q 77.3 32.1 80 31 L 80 33 L 82.5 33 L 83.5 36 L 89 40.5 L 102 59 L 104 59.5 L 103.5 61 L 106 62.5 Q 103.8 63.7 106.5 65 L 109 66.5 Q 107.9 69.8 110.5 69 L 113.5 73 Q 117.3 71.8 116 75.5 L 119 77 Q 117.9 79.7 120.5 79 L 124.5 84 L 128 86.5 Q 127.3 88.8 129.5 88 L 135 91.5 Q 134.3 94.1 137 93 L 137 95 L 138.5 95 L 142 97 L 143.5 100 L 150 105.5 L 151.5 108 L 155 109.5 Q 154.3 111.8 156.5 111 L 159 112 L 160.5 115 L 162 115 L 162 117 Q 164.7 115.9 164 118.5 L 187 140.5 Q 186.3 142.8 188.5 142 L 195 147 L 195 149 L 201 149 Q 199.9 146.3 202.5 147 L 209 142 L 209 140.5 L 229.5 120 L 232 118.5 Q 231.3 115.9 234 117 L 234 115 L 235.5 115 L 237 112 L 241 111 L 242.5 108 L 246 106.5 L 251.5 100 L 254 98.5 Q 253.3 96.3 255.5 97 L 259 95 L 259 93 Q 261.7 94.1 261 91.5 L 268 88 L 270.5 84 L 273 82.5 L 275.5 79 L 278.5 77 L 280 73 L 284 71.5 L 285.5 69 Q 288.1 69.8 287 66.5 L 291 63.5 Q 288.8 62.2 291.5 61 L 293 60.5 L 292.5 59 Q 294.8 59.8 294 57.5 L 311.5 36 L 314 34.5 L 313.5 33 L 316 33 L 316 31 Q 318.7 32.1 318 29.5 L 329 24 L 329.5 22 Q 331 25.5 332.5 23 Q 334.8 23.8 334 21.5 L 335 21.5 L 335.5 24 L 338 23 Q 336.9 19.7 341 21 L 341.5 23 L 344.5 22 L 347 23.5 L 345 20.5 L 347 20 L 348.5 24 L 350.5 21 L 351 23 L 353.5 24 L 357.5 22 L 357.5 23 Q 355.3 22.3 356 24.5 L 358 25.5 L 358.5 24 L 362.5 28 L 364.5 28 L 366.5 29 L 368 28.5 L 367.5 30 L 370 30.5 Q 367.8 31.7 370.5 33 L 373 34.5 L 374.5 39 L 375.5 37 L 379 38.5 L 378.5 40 L 380.5 39 L 381 41.5 L 380.5 43 L 385 44.5 L 384.5 46 L 386 46.5 L 385 47.5 L 388 50.5 L 389 53.5 L 387 57.5 Q 390.5 59 388 60.5 L 387 64.5 L 387.5 66 Q 384.5 65.1 386 69.5 L 381 73 L 379.5 76 L 377 77.5 L 375.5 80 L 374 79.5 L 373 83 L 367.5 86 L 366 85.5 Q 366.8 87.8 364.5 87 L 359.5 92 L 356 92 Q 357.1 94.7 354.5 94 L 354.5 96 L 352.5 97 Q 350.7 94.3 349 98.5 L 350 100.5 L 348 101.5 L 347.5 99 L 344 108 L 341.5 107 L 338.5 111 L 336.5 110 L 336.5 112 L 334 112.5 L 335.5 115 L 333 116.5 Q 333.8 118.8 331.5 118 L 330 117.5 L 330 120 Q 327.3 118.9 328 121.5 L 325.5 125 L 324.5 123 L 323.5 127 Q 321.7 124.2 320 128.5 L 318.5 132 L 317 132 L 317 135 L 315 135 L 315 137 Q 312.3 135.9 313 138.5 L 310.5 142 L 309 141.5 L 307 144.5 L 306.5 146 L 308.5 145 L 307.5 147 Q 303.8 145.8 305 149.5 Q 303 153.2 301 151.5 L 300 153.5 Q 302.3 154.8 299.5 156 L 295 158.5 L 296 160.5 L 287 167 Q 288.5 170.7 285.5 170 L 284.5 173 Q 280.1 171.5 281 174.5 L 281.5 176 Q 279.3 175.3 280 177.5 L 277 179.5 L 277.5 181 L 275.5 180 L 274.5 183 L 273 182.5 L 274 184.5 L 271 185 L 269.5 189 L 268 188.5 L 269 190.5 Q 267.3 188.9 265.5 192 L 264 192.5 Q 266.3 193.8 263.5 195 L 261 194 L 259.5 200 L 258.5 198 L 258 201 L 255 201.5 L 257 208 L 259 208 L 259 210 L 261 210 Q 259.9 212.7 262.5 212 L 266.5 217 L 271 220.5 Q 270.3 222.8 272.5 222 L 277.5 228 L 281 230.5 L 281 232 L 283 232 Q 281.9 234.7 284.5 234 L 287.5 238 L 293 242.5 Q 292.3 244.8 294.5 244 L 302 253 L 305 254.5 L 308.5 259 L 311 260.5 L 312 264 L 317 266 L 317 269 Q 319.7 267.9 319 270.5 L 328 279.5 L 328 281 L 331 282.5 L 333 285.5 L 336 287 L 336.5 290 L 339 289 Q 337.5 292.8 340.5 292 L 340.5 294 L 344 295 Q 342.5 298.7 345.5 298 L 351.5 305 L 358 309.5 L 358.5 311 Q 360 308.5 361.5 312 L 366 313.5 Q 363.8 314.8 366.5 316 L 370 317.5 L 371 321 L 373 321 Q 371.9 323.7 374.5 323 L 376 327 Q 378.7 325.9 378 328.5 L 379 330.5 L 378.5 332 L 380.5 331 L 380 332.5 Q 378.9 335.8 381.5 335 L 383 334.5 L 381.5 337 L 383 337.5 L 381 338.5 L 384 343.5 L 382.5 343 Q 379.9 342.3 381 345 L 384 345.5 L 383.5 348 L 380 348.5 L 381.5 354 L 383 353.5 L 379 356.5 L 379.5 358 Q 376.9 357.2 378 360.5 L 376 364 L 372 366.5 Q 372.8 368.8 370.5 368 L 369 367.5 Q 370.3 371.3 366.5 370 L 364.5 370 L 363 370.5 L 365 371.5 L 363 372.5 L 362.5 371 L 360.5 374 L 357.5 373 L 353.5 374 L 351.5 374 L 350 374.5 L 350.5 376 L 348.5 377 L 346.5 377 Q 344.3 376.3 345 378.5 L 343.5 378 L 339 379 L 338.5 377 L 337.5 379 L 335.5 378 L 333.5 379 L 333.5 378 L 335 377.5 L 332.5 377 L 329.5 378 L 327.5 375 L 325.5 375 L 323 373.5 Q 323.8 371.3 321.5 372 L 321.5 374 L 320 370 L 318 370.5 L 319 372.5 L 317 371.5 L 316.5 369 L 313 369.5 L 313 367.5 Q 313.8 365.3 311.5 366 L 310 366.5 L 310 364.5 Q 310.8 361.9 307.5 363 L 307.5 364 L 309 364.5 L 307.5 365 L 305.5 361 L 304 361.5 Q 304.8 359.3 302.5 360 L 286 350 Q 287.1 347.3 284.5 348 L 280 345 Q 281.1 342.3 278.5 343 L 275 340.5 L 273 337.5 L 267 330 L 263 329.5 L 263.5 328 L 261 326.5 Q 261.8 324.3 259.5 325 L 251 317.5 Q 251.8 315.3 249.5 316 L 246.5 312 L 237 304.5 Q 237.8 302.3 235.5 303 L 226 295.5 L 226.5 294 L 219 288.5 L 217 285.5 L 214 284 L 212 279 L 209 277.5 Q 209.8 275.3 207.5 276 L 204.5 272 Q 202.3 272.8 203 270.5 Q 201.6 267.4 196.5 268 L 193 270.5 Q 193.8 272.8 191.5 272 L 188.5 276 Q 186.3 275.3 187 277.5 L 184 279 L 182 284 L 179 285.5 L 177 288.5 L 169 294.5 Q 171.3 295.7 168.5 297 L 159 303 L 153.5 310 L 148 313.5 L 146.5 316 Q 144.3 315.3 145 317.5 Q 141.3 323.2 135 325 L 133.5 328 L 132 328.5 L 132.5 330 Q 128.1 328.5 129 331.5 L 123 339 Q 120.3 337.9 121 340.5 L 116 343 Q 117.1 345.7 114.5 345 L 110 348 Q 111.1 350.7 108.5 350 Q 101.9 357.2 92 360 L 91.5 362 L 90 361.5 L 88.5 365 L 87 364.5 L 89 363.5 L 86 363 L 85 365.5 L 85.5 367 L 83 366 L 82 368.5 L 82.5 370 L 79 369.5 L 77.5 373 L 77 371.5 L 77.5 370 Q 74.9 369.2 76 372.5 L 74 373.5 L 74.5 372 Q 72.3 371.3 73 373.5 L 69.5 376 L 68 375.5 L 66.5 378 L 61.5 377 L 61.5 378 L 63 378.5 L 61.5 379 L 59.5 378 L 58 378.5 L 57.5 377 L 57 379 L 52.5 378 L 51 378.5 Q 51.8 376.3 49.5 377 L 46.5 376 L 45 375.5 L 45.5 374 L 43.5 373 L 41.5 373 L 37.5 374 L 34 372.5 L 33.5 371 L 32.5 373 L 31.5 371 L 33 370.5 L 30.5 369 L 27 370 L 26.5 367 L 24 368 L 21.5 364 Q 19.3 364.8 20 362.5 Q 17.3 361.4 18 358 L 16 357.5 L 16.5 356 L 13 353.5 L 15 353.5 L 16 348.5 L 12 347.5 L 12.5 345 Q 16.3 346 15 343 L 12.5 344 L 14 341.5 L 15 338.5 L 13 337.5 L 15 336.5 L 13.5 334 L 16 335 L 15 331.5 L 16.5 332 L 18 331.5 L 17 329.5 L 18 327 Q 21 328.3 20 324.5 L 23 323 L 23 321 Q 25.7 322.1 25 319.5 L 27.5 316 L 31 314.5 L 30.5 313 L 36.5 310 L 38 310.5 L 40.5 307 L 48 301.5 L 50.5 298 L 52 298 Q 50.5 294.2 53.5 295 L 56 293.5 L 55.5 292 L 57 292 Q 55.5 288.3 58.5 289 L 60 289.5 Q 58.9 286.2 61.5 287 L 63 284 Q 65.7 285.1 65 282.5 L 68 281 L 77 269 L 79 269 Q 77.5 265.3 80.5 266 L 84 264 L 86.5 259 L 91 255.5 L 92.5 253 Q 94.8 253.8 94 251.5 L 103 244 L 107.5 238 L 110 236.5 L 111.5 234 Q 114.1 234.7 113 232 L 115 232 L 115 230.5 L 120 226.5 L 123.5 222 Q 125.8 222.8 125 220.5 L 132 214.5 L 133.5 212 Q 136.1 212.7 135 210 L 137 210 L 137 208 L 139 208 L 139 205.5 L 141 201.5 L 138 201 L 137.5 198 L 136.5 200 L 135 194 L 132.5 195 L 131.5 192 L 128.5 190 L 127 190.5 L 128 188.5 L 126 188.5 L 125 185 L 122 184.5 L 123 182.5 L 120 181.5 L 120.5 180 L 118.5 181 L 118.5 179 L 116 177.5 Q 116.8 175.3 114.5 176 L 115 174.5 Q 115.9 171.5 111.5 173 L 110.5 170 L 109 170 Q 110.5 166.2 107.5 167 L 100 160.5 L 101 158.5 L 95 154.5 L 95 152.5 L 94.5 151 Q 92.7 153.8 91 149.5 Q 92.3 145.8 88.5 147 L 87.5 145 L 89.5 146 L 89 144.5 L 87 141.5 L 84 140.5 L 83 137 L 81 137 Q 82 134 79 135 L 79 132 L 77.5 132 L 73.5 126 L 72 126.5 L 71.5 123 L 70.5 125 L 68 120 Q 65 121.3 66 117.5 L 64.5 118 Q 62.3 118.8 63 116.5 L 60 114.5 L 61.5 112 L 59 111.5 L 59.5 110 L 57.5 111 L 54.5 107 L 52 108 L 48.5 99 L 47.5 102 L 46 99.5 Q 48.8 97.7 44.5 96 L 42.5 96 L 41 95.5 L 41.5 94 Q 38.9 94.7 40 92 L 36.5 92 L 30 87 L 29.5 85 Q 28 87.5 26.5 84 L 23 83 L 21.5 79 Q 20.3 81.3 19 78.5 L 17.5 76 L 15 74.5 Q 15.8 72.3 13.5 73 Q 9 71.6 10 66 L 8 65.5 L 8 63.5 L 7 59.5 Q 10.5 58 8 56.5 L 7 53.5 L 11 47.5 L 10.5 46 L 12 45.5 L 11.5 44 L 16 42.5 L 15 39.5 L 16.5 40 L 18 39.5 Q 15.8 38.3 18.5 37 L 21 37.5 L 21.5 39 L 24.5 33 L 27 31.5 L 26.5 30 L 29 29.5 L 28.5 28 L 30.5 28 L 32.5 27 L 33.5 28 L 38 24.5 L 38.5 26 L 40 23 L 38 22.5 L 39.5 22 L 42.5 24 L 45 23 L 45.5 21 L 47.5 24 L 49 20 Z M 39 28 L 35 30 L 39 30 L 39 28 Z M 358 28 L 357 30 L 361 30 L 358 28 Z M 16 345 L 15 347 L 17 346 L 16 345 Z M 380 345 L 381 347 L 382 347 L 380 345 Z M 17 353 L 16 355 L 18 354 L 17 353 Z M 379 353 L 380 355 L 381 355 L 379 353 Z M 81 366 L 80 369 L 81 369 L 81 366 Z M 316 366 L 315 369 L 316 369 L 316 366 Z M 37 371 L 37 373 L 39 372 L 37 371 Z M 358 371 L 359 373 Q 360 370 358 371 Z "></path></svg>