<svg width="400" height="400" version="1.1" xmlns="http://www.w3.org/2000/svg" desc="Created with imagetracer.js version 1.2.5"><path fill="rgb(0,0,0)" stroke="rgb(0,0,0)" stroke-width="1" opacity="0" d="M 35.5 0 L 300 0.5 L 269 26 Q 270.1 28.7 267.5 28 L 232.5 57 L 217.5 43 L 216 43 L 212.5 38 L 202.5 31 L 194.5 31 L 187 37.5 L 184.5 43 L 178 47.5 L 176 54.5 L 179 62.5 L 155 130.5 L 156 134.5 L 159.5 139 Q 162.8 142.2 170.5 141 L 186.5 132 L 213.5 128 L 219.5 126 L 226.5 126 L 234.5 129 Q 240.6 127.6 243.5 123 L 256.5 121 L 264.5 118 L 271.5 120 L 275.5 119 L 280 115.5 L 283 107.5 Q 281.1 97.9 273.5 94 L 270.5 92 L 261 84 Q 262.1 81.3 259.5 82 L 250 73.5 L 262 64 Q 260.9 61.3 263.5 62 L 324.5 10 L 339.5 0 L 400 0 L 399.5 365 L 386 329.5 L 383 319.5 L 382 307.5 L 365 276.5 L 356.5 266 Q 354.3 266.8 355 264.5 L 343 248 L 329.5 239 L 322.5 237 L 316.5 232 L 291.5 221 L 266.5 206 L 258 206 L 257.5 208 L 256.5 207 L 223.5 207 L 222.5 206 L 214.5 206 L 191.5 202 L 161.5 193 L 138.5 183 L 124.5 180 Q 99.3 169.7 77.5 156 L 41.5 132 L 35 125.5 Q 29.8 121.2 31 110.5 L 34 105.5 L 34 101.5 L 32 94.5 L 32 86.5 L 30 82.5 L 30 37.5 L 29 36.5 L 30 35.5 L 30 22.5 L 31 21.5 L 32 7.5 L 35.5 0 Z M 146 65 L 147 67 L 157 72 L 160 72 Q 155 66 146 65 Z M 61 100 L 60 103 L 64 106 L 61 100 Z "></path><path fill="rgb(0,0,0)" stroke="rgb(0,0,0)" stroke-width="1" opacity="0" d="M 0.5 105 L 3 115.5 L 13 132.5 Q 23.6 143.4 31 157.5 L 41.5 168 L 57.5 182 L 82.5 197 L 121.5 201 L 126.5 203 L 158.5 208 L 168.5 211 L 195.5 215 L 199.5 217 L 203.5 217 L 233.5 225 Q 266.2 236.8 295.5 252 L 312.5 262 L 318 267.5 Q 322.2 271.3 321 280.5 L 319 285.5 L 338.5 310 Q 340.8 309.3 340 311.5 L 346 317.5 L 350 328.5 L 353 332.5 L 357 347.5 L 369 377.5 L 370 393.5 L 372 399.5 L 352 400 L 351 394.5 L 352 393.5 L 352 383.5 Q 350 376 344 372.5 L 338 354.5 L 332 345.5 L 322 324.5 L 313.5 315 L 296.5 303 L 279.5 294 L 256.5 277 L 239.5 272 L 198.5 253 L 190.5 251 L 184.5 251 L 179 249 L 181 241.5 L 180 238.5 Q 179.4 232.6 175.5 230 L 171.5 229 L 169.5 229 L 120.5 229 L 119.5 228 L 109.5 228 L 104.5 226 L 99.5 226 L 94.5 224 L 88.5 224 L 79.5 221 L 75.5 221 L 67 225 Q 64 228.3 65 236.5 L 68 242 L 73.5 244 L 107.5 277 L 145.5 306 L 163.5 317 L 168.5 317 L 172 314.5 L 172 309.5 Q 175.5 307.5 175 301.5 L 175 299.5 L 174 297.5 L 175 295.5 L 174 292.5 Q 180.1 288.1 179.5 277 L 192.5 282 L 202.5 284 L 243.5 297 L 268.5 314 L 282 327.5 L 284 330.5 L 289.5 338 L 292 339.5 L 300 355.5 L 311 372.5 L 324 400 L 0 400 L 0.5 105 Z "></path><path fill="rgb(254,0,132)" stroke="rgb(254,0,132)" stroke-width="1" opacity="0.9098039215686274" d="M 300.5 0 L 339 0.5 L 329.5 6 L 268.5 58 L 262 62 Q 263.1 64.7 260.5 64 L 250 73.5 L 261 82 Q 259.9 84.7 262.5 84 L 272 92 Q 270.9 94.7 273.5 94 Q 281.6 97.9 283 108.5 L 282 112.5 L 278.5 117 L 270.5 120 L 263.5 118 L 256.5 121 L 243.5 123 Q 240.6 127.6 234.5 129 L 226.5 126 L 219.5 126 L 213.5 128 L 186.5 132 L 177.5 136 L 173.5 140 L 163.5 141 L 158 137.5 L 155 129.5 L 179 61.5 L 176 53.5 Q 176.9 46.9 181.5 44 L 186 41.5 Q 186.8 34.4 192.5 32 Q 195.7 29.7 202.5 31 L 216 41.5 Q 215.3 43.8 217.5 43 L 233.5 57 L 257.5 36 L 269 28 Q 267.9 25.3 270.5 26 L 300.5 0 Z "></path><path fill="rgb(38,255,0)" stroke="rgb(38,255,0)" stroke-width="1" opacity="0.9921568627450981" d="M 2 0 L 32.5 0 L 33 1.5 L 30 8.5 L 29 23.5 L 28 24.5 L 28 82.5 L 30 87.5 L 32 105.5 Q 28.5 109 29 116.5 Q 31.1 126.4 38.5 131 L 89.5 165 L 119.5 180 L 132.5 184 L 140.5 185 L 163.5 195 L 195.5 204 L 212.5 207 L 221.5 207 L 222.5 208 L 254.5 208 L 258.5 210 Q 259.5 206 265.5 207 L 289 220 L 290.5 223 L 293.5 223 L 316 233 L 317.5 236 L 332.5 243 L 345 253.5 L 363 276.5 L 379 305.5 L 380 316.5 L 385 329.5 L 385 332.5 L 400 372.5 L 400 400 L 373.5 400 Q 372.4 399.9 373 394.5 L 372 393.5 L 372 384.5 L 370 374.5 Q 359.8 353.2 353 328.5 L 345 313.5 L 335 303.5 L 321 285.5 L 321 283.5 L 323 276.5 Q 321.4 265.6 313.5 261 Q 274.4 237.6 227.5 222 L 191.5 213 L 154.5 207 L 127.5 201 L 122.5 201 L 111.5 198 L 84.5 196 Q 52.7 180.3 31 154.5 L 8 121.5 L 2 105.5 L 1 94.5 L 0 93.5 L 0 8.5 L 2 0 Z "></path><path fill="rgb(0,52,254)" stroke="rgb(0,52,254)" stroke-width="1" opacity="0.47843137254901963" d="M 75.5 221 L 79.5 221 L 88.5 224 L 94.5 224 L 99.5 226 L 104.5 226 L 109.5 228 L 119.5 228 L 120.5 229 L 169.5 229 L 170.5 230 L 173.5 229 L 178 232.5 L 181 239.5 L 180 242.5 L 179 249 L 184.5 251 L 190.5 251 L 198.5 253 L 239.5 272 L 256.5 277 Q 275.5 293.5 299.5 305 L 319 320.5 L 338 354.5 L 344 372.5 L 351 380.5 Q 353.2 385.3 352 393.5 L 352 395.5 Q 353.7 401.4 350 400 L 350 385.5 L 345.5 377 Q 343.3 377.8 344 375.5 Q 338.3 366.7 336 354.5 Q 328.8 345.7 325 333.5 Q 319.8 322.2 310.5 315 L 251.5 277 L 242.5 275 L 200.5 256 Q 191.5 252 178.5 252 L 177 250.5 L 177 236.5 L 173.5 232 L 170.5 231 L 120.5 231 L 76.5 223 L 69 227.5 L 68 236.5 L 72.5 242 L 77.5 245 Q 96.9 267.1 120.5 285 L 130.5 291 L 153.5 309 L 166.5 315 L 170 312.5 L 173 298.5 Q 170.3 296.8 172 290.5 L 176 285.5 L 178 275 L 242.5 295 L 254.5 302 L 280 322.5 L 295 340.5 L 301 353.5 L 312 370.5 L 319 386.5 L 323 391.5 L 326 400 Q 323.3 401.1 324 398.5 L 311 372.5 L 300 355.5 L 295 343.5 L 290.5 338 L 288 336.5 L 284 329 Q 281.3 330.1 282 327.5 L 268.5 314 L 243.5 297 L 237.5 296 L 219.5 289 L 192.5 282 L 179.5 277 L 179 284.5 L 174 294.5 L 175 296.5 L 175 298.5 L 174 300.5 L 175 304.5 L 172 309.5 Q 173.3 314.8 170.5 316 L 163.5 317 L 145.5 306 L 107.5 277 L 73.5 244 L 68 242 L 65 236.5 L 65 229.5 L 67 225 L 75.5 221 Z "></path><path fill="rgb(0,51,253)" stroke="rgb(0,51,253)" stroke-width="1" opacity="0.996078431372549" d="M 76.5 223 L 110.5 230 L 119.5 230 L 120.5 231 L 170.5 231 L 176 234.5 L 177 236.5 L 177 250.5 L 178.5 252 Q 191.5 252 200.5 256 L 230.5 270 L 259.5 281 Q 275.5 295.5 296.5 305 L 310.5 315 L 319 323.5 L 336 354.5 L 344 377 L 347 378.5 L 350 385.5 L 350 400 L 326.5 400 L 326 397.5 L 295 340.5 L 274.5 317 L 254.5 302 L 242.5 295 L 178 275 L 176 285.5 L 172 290.5 L 172 297.5 L 173 301.5 L 168.5 314 L 164.5 315 L 143.5 302 L 110.5 277 L 77.5 245 L 69 238.5 L 68 229.5 L 71.5 225 L 76.5 223 Z "></path><path fill="rgb(32,255,0)" stroke="rgb(32,255,0)" stroke-width="1" opacity="0.3411764705882353" d="M 0 0 Q 2.7 -1.1 2 1.5 L 0.5 8 L 0 0 Z "></path><path fill="rgb(32,255,0)" stroke="rgb(32,255,0)" stroke-width="1" opacity="0.3411764705882353" d="M 33 0 L 35 0.5 L 32 7.5 L 31 21.5 L 30 22.5 L 30 35.5 L 29 36.5 L 30 37.5 L 30 82.5 L 32 86.5 L 32 94.5 L 34 105.5 Q 29.7 108.7 31 117.5 Q 34.2 126.8 41.5 132 L 82.5 159 L 124.5 180 L 138.5 183 L 161.5 193 L 191.5 202 L 214.5 206 L 222.5 206 L 223.5 207 L 256.5 207 L 257.5 208 L 258 206 L 266.5 206 L 291.5 221 L 316.5 232 L 322.5 237 L 329.5 239 L 343 248 L 352 259.5 L 355 266 L 361 270.5 L 382 307.5 L 383 319.5 L 389 338.5 L 400 365.5 L 400 371.5 L 399 371.5 L 396 359.5 L 386 335.5 L 380 316.5 L 379 305.5 L 361 273.5 L 338.5 247 L 316 234.5 Q 316.8 232.3 314.5 233 L 289 221.5 Q 289.8 219.3 287.5 220 L 271.5 210 L 265.5 207 L 261.5 207 L 257.5 210 L 254.5 208 L 222.5 208 L 221.5 207 L 212.5 207 L 195.5 204 L 163.5 195 L 140.5 185 L 132.5 184 L 119.5 180 L 98.5 170 L 76.5 157 L 42.5 134 L 33 125.5 Q 28.8 121.2 29 112.5 L 32 105.5 L 32 100.5 L 30 93.5 L 30 87.5 L 28 82.5 L 28 24.5 L 29 23.5 L 30 8.5 L 33 0 Z "></path><path fill="rgb(32,255,0)" stroke="rgb(32,255,0)" stroke-width="1" opacity="0.3411764705882353" d="M 145.5 65 Q 154.9 66.1 160 71.5 L 156.5 72 L 146.5 67 L 145.5 65 Z "></path><path fill="rgb(32,255,0)" stroke="rgb(32,255,0)" stroke-width="1" opacity="0.3411764705882353" d="M 0.5 94 L 3 109.5 L 8 121.5 L 31 154.5 L 47.5 171 Q 63.4 186.1 84.5 196 L 111.5 198 L 154.5 207 L 186.5 212 L 237.5 225 L 294.5 250 L 313.5 261 L 320 267.5 L 323 277.5 L 321 285.5 L 335 303.5 L 345 313.5 L 353 328.5 Q 359.8 353.2 370 374.5 L 372 384.5 L 373 399.5 L 371 398.5 L 369 377.5 L 367 371.5 L 357 347.5 L 353 332.5 L 350 328.5 L 346 317.5 L 340 310 L 334 305.5 L 319 284.5 Q 322.2 281.2 321 273.5 Q 318.4 266.1 312.5 262 L 295.5 252 L 270.5 240 L 239.5 227 L 226.5 223 L 211.5 220 L 203.5 217 L 199.5 217 L 195.5 215 L 168.5 211 L 163.5 209 L 126.5 203 L 121.5 201 L 82.5 197 L 57.5 182 L 31 157.5 Q 23.6 143.4 13 132.5 L 3 115.5 L 0 104.5 L 0.5 94 Z "></path><path fill="rgb(32,255,0)" stroke="rgb(32,255,0)" stroke-width="1" opacity="0.3411764705882353" d="M 60.5 100 L 64 105.5 L 60 102.5 L 60.5 100 Z "></path></svg>