<svg width="400" height="400" version="1.1" xmlns="http://www.w3.org/2000/svg" desc="Created with imagetracer.js version 1.2.5"><path fill="rgb(0,0,0)" stroke="rgb(0,0,0)" stroke-width="1" opacity="0" d="M 0 0 L 181 0.5 L 168 20.5 L 163 36.5 Q 164.5 42 162 43.5 L 162 80.5 L 170 124.5 L 174 131.5 L 176 140.5 L 182 153.5 L 164.5 172 L 159 175 Q 160.1 177.7 157.5 177 L 132 204.5 L 125 218.5 Q 122.8 232.8 117 243.5 L 116 253.5 L 113 265 L 90.5 265 L 86.5 266 L 75.5 271 L 63 281.5 L 51.5 297 L 47 300.5 L 40.5 308 L 34 313.5 Q 28.7 318.2 30 329.5 L 35 338.5 L 35 343.5 L 38 354.5 L 48.5 368 L 62.5 376 L 71.5 376 Q 78 374.5 81 369.5 L 84 360.5 L 81 347.5 L 77 341.5 L 76 332.5 L 74 328 Q 76.7 329.1 76 326.5 L 86 316.5 L 93.5 305 L 98.5 306 L 100.5 305 L 102.5 306 L 104.5 306 L 109 306 L 109 313.5 L 110 314.5 L 110 323.5 L 111 324.5 L 113 341.5 Q 110.3 344.8 111 351.5 L 111 353.5 Q 107 357.9 108 367.5 Q 110.2 375.9 116.5 380 L 124.5 383 L 129.5 383 Q 138.1 381.1 143 375.5 Q 148.1 369.1 150 359.5 L 151 336.5 L 148 319.5 L 149 316 L 152.5 317 L 154.5 317 L 156.5 316 L 158.5 317 L 161.5 316 L 165.5 317 L 167.5 317 L 177.5 315 L 184.5 315 L 186.5 315 L 191.5 316 L 193.5 316 L 199.5 315 L 203.5 315 Q 227.9 313.4 241 300.5 Q 249.3 292.3 254 280.5 L 255 275.5 L 261 264.5 L 265 248.5 L 265 246.5 L 265 230.5 L 264 229.5 L 265 227.5 L 263 221.5 L 263 216.5 L 263 214.5 L 262 203.5 L 261 202.5 L 262.5 199 L 263 207.5 L 264.5 209 L 276.5 209 L 298.5 201 L 310.5 200 L 327.5 195 L 336.5 195 L 337.5 194 L 348.5 193 L 351.5 191 L 369.5 186 L 371.5 186 L 379.5 186 L 400 182 L 400 400 L 0 400 L 0 0 Z "></path><path fill="rgb(0,0,0)" stroke="rgb(0,0,0)" stroke-width="1" opacity="0" d="M 324.5 56 L 326.5 57 L 328.5 57 L 338.5 57 L 339.5 56 L 342.5 57 L 353.5 57 L 369.5 61 L 374.5 61 L 377 62.5 L 363.5 74 L 357.5 77 L 349.5 85 L 334.5 95 L 306.5 105 L 289.5 114 L 251.5 125 L 251 122.5 L 259 106.5 L 277 83.5 L 290.5 69 L 314.5 57 L 323.5 57 L 324.5 56 Z "></path><path fill="rgb(0,0,0)" stroke="rgb(0,0,0)" stroke-width="1" opacity="0" d="M 196.5 228 L 204 228 L 204 234.5 L 203 237.5 L 195 258 L 188.5 261 L 181.5 261 L 164.5 264 L 162.5 264 L 158.5 263 L 156 264 L 157 258 L 162 254.5 Q 164.7 251.2 164 244.5 L 165.5 243 L 170.5 242 Q 175.1 235.1 183.5 232 L 196.5 228 Z "></path><path fill="rgb(71,160,31)" stroke="rgb(71,160,31)" stroke-width="1" opacity="0.9098039215686274" d="M 183.5 0 L 183 1.5 L 168 27.5 L 165 39.5 L 165 56.5 L 164 57.5 L 165 58.5 L 165 69.5 L 165 71.5 L 165 84.5 L 166 85.5 L 168 103.5 L 171 113.5 L 171 118.5 L 200 188.5 L 203 199.5 L 202 199.5 L 195 179.5 L 170 119.5 L 170 114.5 L 165 92.5 L 164 77.5 L 163 76.5 L 163 47.5 L 167 26.5 Q 173.2 11.2 183.5 0 Z "></path><path fill="rgb(71,160,31)" stroke="rgb(71,160,31)" stroke-width="1" opacity="0.9098039215686274" d="M 319.5 54 L 348.5 54 L 381 60.5 L 377.5 61 L 347.5 55 L 319.5 55 L 315.5 56 L 315.5 55 L 319.5 54 Z "></path><path fill="rgb(71,160,31)" stroke="rgb(71,160,31)" stroke-width="1" opacity="0.9098039215686274" d="M 309.5 57 L 311 57.5 L 291.5 67 L 286 71.5 L 258 105.5 L 250.5 119 L 250 117.5 L 259 102.5 L 277 79.5 L 288.5 68 L 309.5 57 Z "></path><path fill="rgb(71,160,31)" stroke="rgb(71,160,31)" stroke-width="1" opacity="0.9098039215686274" d="M 249.5 120 L 250 139.5 L 249 139.5 L 249.5 120 Z "></path><path fill="rgb(71,160,31)" stroke="rgb(71,160,31)" stroke-width="1" opacity="0.9098039215686274" d="M 250.5 141 L 252 152.5 L 257 168.5 L 258 181.5 L 260 186.5 L 260 206.5 L 262 213.5 L 264 243.5 L 263 244.5 L 262 257.5 L 252 281.5 Q 246.5 293.5 237.5 302 L 222.5 310 L 207.5 314 L 171.5 314 L 170.5 315 L 148 315 L 148.5 312 L 149.5 313 L 204.5 313 L 221.5 309 L 237 301 L 238.5 298 L 242 295.5 L 248 286.5 L 260 259.5 L 262 249.5 L 262 225.5 L 261 224.5 L 261 216.5 L 259 206.5 L 259 189.5 L 256 175.5 L 256 168.5 L 250 147.5 L 250.5 141 Z "></path><path fill="rgb(71,160,31)" stroke="rgb(71,160,31)" stroke-width="1" opacity="0.9098039215686274" d="M 203.5 201 L 206 211.5 L 206 228.5 L 207 231.5 L 203 246.5 L 194.5 261 L 181.5 265 L 154.5 266 L 154.5 265 L 169.5 265 L 170.5 264 L 185.5 263 L 192.5 261 L 196 257.5 L 205 237.5 L 205 215.5 L 204 214.5 L 203.5 201 Z "></path><path fill="rgb(71,160,31)" stroke="rgb(71,160,31)" stroke-width="1" opacity="0.9098039215686274" d="M 96.5 266 L 107.5 266 L 114 267.5 L 93.5 268 L 82.5 271 Q 71.1 275.6 64 284.5 L 59 292.5 L 41 310.5 L 37 323.5 L 37 335.5 L 42 355.5 L 49.5 364 L 57.5 370 L 67.5 370 L 76 363.5 Q 79.3 359.8 78 351.5 L 76 348.5 L 71 330.5 L 72 327.5 L 82 317.5 L 91.5 304 L 93.5 303 L 108.5 303 L 109.5 305 L 93.5 304 L 90 306.5 Q 84.3 318.8 74 326.5 L 73 331.5 L 75 335.5 L 76 344.5 L 81 354.5 L 81 363.5 L 74.5 372 Q 70.8 375.3 62.5 374 Q 51.1 369.9 44 361.5 L 38 350.5 L 37 339.5 L 32 323.5 Q 33.5 313.5 40.5 309 L 48 302.5 L 53.5 296 Q 55.8 296.8 55 294.5 L 68.5 278 L 85.5 268 L 96.5 266 Z "></path><path fill="rgb(72,161,31)" stroke="rgb(72,161,31)" stroke-width="1" opacity="0.996078431372549" d="M 184.5 0 Q 188.3 -1 187 2 L 185 2.5 L 186 5.5 L 183 4.5 L 184 6.5 L 182 7 L 183 9.5 L 181 9.5 L 178.5 14 Q 175.9 13.2 177 16.5 L 177 18.5 L 175 22.5 L 175.5 24 L 173 22.5 L 172 25.5 L 174 28.5 L 172 27.5 L 171.5 26 L 170 29.5 L 172 30.5 L 168 33.5 L 170 34 L 169 38.5 L 170 40.5 L 167 42 L 167.5 47 L 168.5 44 L 171 45.5 L 167 48.5 Q 166.3 52.8 169 53.5 L 167 53.5 L 166 56.5 L 167 58.5 L 166 63.5 L 169 68.5 Q 165.8 69.8 167 75.5 L 168.5 75 L 170 75.5 L 168 76.5 L 168 78.5 L 169 82.5 L 167 83 Q 165.9 85.7 168.5 85 L 171 85.5 L 168.5 87 L 167 86.5 L 169 89.5 L 168.5 91 Q 170.8 90.3 170 92.5 L 170 94.5 L 169 97.5 L 172 98.5 L 170 99 L 170.5 102 L 172 101.5 L 171 104.5 L 171 108.5 L 175 119.5 L 176 128.5 L 183 140 L 186 141.5 L 187 143.5 L 186 146 Q 188.7 144.9 188 147.5 L 192.5 153 L 194 152.5 Q 191.5 154 195 155.5 L 194.5 157 L 192.5 154 L 191 155.5 Q 194.1 157.3 192.5 159 Q 195.9 158.1 194 163.5 L 195.5 171 Q 198.3 169.7 196 168.5 L 196.5 167 L 198 169.5 L 197 172.5 Q 196.2 175.1 199.5 174 L 202.5 170 L 202.5 173 Q 199.9 172.2 201 175.5 L 201 177.5 L 202 181.5 Q 199.8 182.8 202.5 184 L 204 183.5 L 203 186.5 L 205 189.5 L 204.5 191 Q 206.8 190.3 206 192.5 L 204 192.5 L 205 196 L 207 196.5 L 205 197.5 L 207 198 L 209 201.5 L 207 201.5 L 208 203.5 L 206 204.5 L 208 205.5 L 207.5 207 L 209.5 206 L 211 211.5 L 209 211.5 L 210 216.5 L 209 217.5 L 211 219.5 L 210.5 223 L 212 223.5 L 210 226.5 L 212 226.5 Q 208.3 227.8 209 232 L 211 232.5 Q 207.3 233.2 208 238.5 L 208.5 240 L 207 240.5 L 209 241.5 L 207 242 L 207.5 244 L 209.5 243 L 209.5 244 L 206 245.5 L 208 246 L 207.5 248 L 205 247 L 206 253.5 L 203.5 255 L 202 254.5 Q 203 258.3 200 257 L 200 260.5 L 202 260.5 Q 202.8 262.8 200.5 262 L 198.5 257 L 196.5 262 L 195 261.5 L 194.5 264 L 193.5 262 L 191.5 265 L 189.5 264 L 189 265.5 L 189.5 267 L 187.5 266 L 186.5 269 Q 184.3 268.3 185 270.5 L 184 270.5 Q 182.8 266.8 186.5 268 L 186.5 267 L 182 267.5 L 182.5 269 Q 181.3 266.8 180 269.5 L 179.5 271 L 178.5 269 L 178 271 L 175.5 270 L 173.5 270 L 172 270.5 L 172.5 272 L 168.5 270 L 166.5 270 L 162.5 271 L 160.5 269 Q 159 272.5 157.5 270 L 155 270.5 L 155.5 272 L 154 271.5 L 150 287.5 L 150 307.5 L 152.5 308 L 162.5 310 L 164.5 310 L 168.5 311 L 170.5 311 L 191.5 312 L 194.5 311 L 201.5 311 L 208.5 308 L 212 309 L 212 307 Q 215.7 308.5 215 305.5 L 216 305.5 L 215 307.5 L 216.5 308 L 220 306.5 L 218.5 304 L 221 305 L 221.5 303 L 222 305 L 224 304.5 L 224 302.5 L 224.5 301 L 226.5 304 L 227 302.5 L 226.5 301 L 229.5 302 Q 233.2 300 231.5 298 L 233.5 299 L 233.5 297 L 235.5 297 L 237 296.5 L 236 292.5 L 237 292.5 L 237.5 295 L 239.5 292 L 241 292.5 L 240 290.5 L 242 290.5 L 241 288.5 L 244 287 L 243 283.5 L 246 282.5 L 245 277.5 L 247 278.5 L 247.5 281 L 249 277.5 L 248 274.5 L 249.5 273 L 252 272.5 L 249.5 269 L 252.5 271 L 254 267.5 L 253 264 L 256 262.5 L 254 262 L 254.5 260 Q 255.8 262.3 257 259.5 L 255 258.5 L 257 257.5 L 255 256.5 L 257 255.5 L 256.5 254 L 258 253.5 L 257.5 252 Q 260.1 252.8 259 249.5 L 258 249.5 L 257.5 251 L 257 248 L 259.5 249 L 260 247 L 257 245.5 L 260 243.5 L 259 239.5 L 260 236.5 L 258 236.5 Q 257.2 233.9 260.5 235 L 260.5 234 L 258 233.5 L 260 230 L 258 229.5 L 258 227.5 L 257.5 226 L 256 226.5 L 260 224.5 L 259 221 L 255 219.5 L 255.5 218 L 256 220 Q 258.7 221.1 258 218.5 L 258 216.5 L 257 213.5 L 258 211.5 L 256 208.5 L 258 203.5 L 254 201.5 L 254.5 200 L 257.5 201 L 257.5 200 L 256 199.5 L 256.5 198 L 255 197.5 L 256 195.5 L 254 190 L 252 189.5 L 254 188.5 Q 253.3 191.1 256 190 L 254 185 L 251 184.5 L 253.5 183 L 256 184 Q 257.3 181 253.5 182 L 253.5 181 Q 255.8 181.8 255 179.5 L 255.5 178 L 253.5 179 L 254 177.5 L 253.5 175 L 251.5 176 L 251.5 175 L 254 173.5 L 252 173 Q 252.6 168.4 249 166.5 L 252 165.5 L 251.5 164 L 250 164.5 L 251 161.5 L 250 159.5 L 251 156.5 L 249 151.5 L 249.5 150 Q 247.3 150.8 248 148.5 L 247 146.5 L 248 144.5 L 246 144.5 L 247 142.5 L 246.5 136 L 245 135.5 L 247 135 L 246 132.5 L 246 130.5 L 248.5 121 L 250 147.5 L 256 168.5 L 256 175.5 L 259 189.5 L 259 206.5 L 260 207.5 L 260 215.5 L 262 225.5 L 262 249.5 Q 255.5 278.5 239.5 298 L 237 299.5 Q 237.8 301.8 235.5 301 L 230.5 305 L 221.5 309 L 204.5 313 L 149.5 313 L 148 311.5 L 148 303.5 L 149 302.5 L 149 284.5 L 154 266 L 181.5 265 L 190.5 263 L 196 259.5 L 205 241.5 L 207 229.5 L 206 228.5 L 206 211.5 L 203 197.5 L 171 118.5 L 171 113.5 L 166 91.5 L 165 71.5 L 164 70.5 L 165 69.5 L 165 58.5 L 165 56.5 L 165 39.5 L 168 27.5 Q 174.5 12 184.5 0 Z M 174 18 Q 173 21 176 20 Q 177 17 174 18 Z M 167 67 Q 165 70 168 69 L 167 67 Z M 250 274 L 250 275 L 252 275 L 250 274 Z "></path><path fill="rgb(72,161,31)" stroke="rgb(72,161,31)" stroke-width="1" opacity="0.996078431372549" d="M 217.5 0 L 217.5 3 Q 214.5 1.5 217.5 0 Z "></path><path fill="rgb(72,161,31)" stroke="rgb(72,161,31)" stroke-width="1" opacity="0.996078431372549" d="M 356 0 L 358 0.5 L 356 1.5 L 356 0 Z "></path><path fill="rgb(72,161,31)" stroke="rgb(72,161,31)" stroke-width="1" opacity="0.996078431372549" d="M 376.5 0 L 379 1.5 L 377.5 1 L 376.5 0 Z "></path><path fill="rgb(72,161,31)" stroke="rgb(72,161,31)" stroke-width="1" opacity="0.996078431372549" d="M 386.5 0 Q 390.3 -0.8 391 1.5 L 388.5 2 L 385 1.5 L 386.5 0 Z "></path><path fill="rgb(72,161,31)" stroke="rgb(72,161,31)" stroke-width="1" opacity="0.996078431372549" d="M 392.5 0 L 400 0 L 400 3.5 L 397.5 5 L 397.5 3 Q 392.1 1.1 393 4.5 L 392 4.5 L 393 1.5 L 392.5 0 Z "></path><path fill="rgb(72,161,31)" stroke="rgb(72,161,31)" stroke-width="1" opacity="0.996078431372549" d="M 384.5 3 L 382.5 6 L 380 5.5 L 384.5 3 Z "></path><path fill="rgb(72,161,31)" stroke="rgb(72,161,31)" stroke-width="1" opacity="0.996078431372549" d="M 352.5 4 L 351.5 6 L 352.5 4 Z "></path><path fill="rgb(72,161,31)" stroke="rgb(72,161,31)" stroke-width="1" opacity="0.996078431372549" d="M 204.5 6 L 203.5 8 L 204.5 6 Z "></path><path fill="rgb(72,161,31)" stroke="rgb(72,161,31)" stroke-width="1" opacity="0.996078431372549" d="M 212.5 6 L 213.5 8 L 212.5 6 Z "></path><path fill="rgb(72,161,31)" stroke="rgb(72,161,31)" stroke-width="1" opacity="0.996078431372549" d="M 287.5 6 L 286.5 8 L 287.5 6 Z "></path><path fill="rgb(72,161,31)" stroke="rgb(72,161,31)" stroke-width="1" opacity="0.996078431372549" d="M 391.5 7 L 393 9.5 L 392 9.5 L 391.5 7 Z "></path><path fill="rgb(72,161,31)" stroke="rgb(72,161,31)" stroke-width="1" opacity="0.996078431372549" d="M 209 8 L 212 8.5 L 209 10 L 209 8 Z "></path><path fill="rgb(72,161,31)" stroke="rgb(72,161,31)" stroke-width="1" opacity="0.996078431372549" d="M 395.5 8 L 396.5 10 L 395.5 8 Z "></path><path fill="rgb(72,161,31)" stroke="rgb(72,161,31)" stroke-width="1" opacity="0.996078431372549" d="M 184.5 9 L 187 10.5 L 185.5 11 L 184.5 9 Z "></path><path fill="rgb(72,161,31)" stroke="rgb(72,161,31)" stroke-width="1" opacity="0.996078431372549" d="M 283.5 29 L 282.5 31 L 283.5 29 Z "></path><path fill="rgb(72,161,31)" stroke="rgb(72,161,31)" stroke-width="1" opacity="0.996078431372549" d="M 172.5 32 L 173 34 L 171 33.5 L 172.5 32 Z "></path><path fill="rgb(72,161,31)" stroke="rgb(72,161,31)" stroke-width="1" opacity="0.996078431372549" d="M 266.5 37 L 267 39.5 L 265.5 39 L 264 38.5 L 266.5 37 Z "></path><path fill="rgb(72,161,31)" stroke="rgb(72,161,31)" stroke-width="1" opacity="0.996078431372549" d="M 261.5 40 Q 264.8 38.9 264 41.5 L 262.5 41 L 261.5 40 Z "></path><path fill="rgb(72,161,31)" stroke="rgb(72,161,31)" stroke-width="1" opacity="0.996078431372549" d="M 189.5 41 L 191 44.5 L 190 47.5 Q 189 52 191.5 53 L 194.5 52 L 195 54.5 L 194 55.5 L 197.5 60 L 195.5 59 L 194 59.5 L 195 57.5 L 193 56.5 L 193 59 L 188 59 L 188 50.5 L 187 49.5 L 189.5 41 Z "></path><path fill="rgb(72,161,31)" stroke="rgb(72,161,31)" stroke-width="1" opacity="0.996078431372549" d="M 257.5 41 L 256.5 43 L 257.5 41 Z "></path><path fill="rgb(72,161,31)" stroke="rgb(72,161,31)" stroke-width="1" opacity="0.996078431372549" d="M 258.5 43 L 257.5 45 L 256 44.5 L 258.5 43 Z "></path><path fill="rgb(72,161,31)" stroke="rgb(72,161,31)" stroke-width="1" opacity="0.996078431372549" d="M 399.5 44 L 400 46 Q 390.7 48.4 385 55.5 L 381.5 60 L 348.5 54 L 320 53.5 L 323.5 52 L 325.5 52 L 330.5 51 L 332 51.5 L 332.5 50 L 336.5 52 L 342 50.5 L 341.5 49 L 343.5 52 L 344.5 50 L 346.5 50 L 351.5 53 L 354.5 52 L 356.5 53 L 358 52.5 L 357.5 54 L 359.5 53 L 376.5 58 L 381.5 58 Q 387.8 48.3 399.5 44 Z "></path><path fill="rgb(72,161,31)" stroke="rgb(72,161,31)" stroke-width="1" opacity="0.996078431372549" d="M 249.5 46 L 250.5 48 L 249.5 46 Z "></path><path fill="rgb(72,161,31)" stroke="rgb(72,161,31)" stroke-width="1" opacity="0.996078431372549" d="M 237.5 48 L 238.5 50 L 237.5 48 Z "></path><path fill="rgb(72,161,31)" stroke="rgb(72,161,31)" stroke-width="1" opacity="0.996078431372549" d="M 241.5 48 L 240.5 50 L 241.5 48 Z "></path><path fill="rgb(72,161,31)" stroke="rgb(72,161,31)" stroke-width="1" opacity="0.996078431372549" d="M 245.5 50 L 246 51.5 Q 244.5 54.5 243 51.5 L 245 51.5 L 245.5 50 Z "></path><path fill="rgb(72,161,31)" stroke="rgb(72,161,31)" stroke-width="1" opacity="0.996078431372549" d="M 241.5 51 L 243 56 L 240 57.5 Q 241.1 60.8 238.5 60 L 237 62.5 L 238.5 62 L 242.5 60 L 245 61.5 L 242 63.5 L 241.5 65 L 240.5 63 L 240 65 L 238 65.5 L 238.5 67 Q 235.2 65.9 236 68.5 L 237 71 L 234.5 70 L 232 71.5 L 233 69 L 235 68.5 L 233.5 67 L 228.5 72 Q 225.9 72.8 227 69.5 L 229 69.5 L 230 67.5 L 228.5 67 L 227 67.5 L 228.5 64 L 229 66 L 233 63.5 L 232 61.5 L 233 61.5 L 233.5 63 Q 238.3 60.5 236.5 58 L 237.5 59 L 241 55.5 L 241.5 51 Z "></path><path fill="rgb(72,161,31)" stroke="rgb(72,161,31)" stroke-width="1" opacity="0.996078431372549" d="M 256 53 L 258 53.5 L 256 54.5 L 256 53 Z "></path><path fill="rgb(72,161,31)" stroke="rgb(72,161,31)" stroke-width="1" opacity="0.996078431372549" d="M 316.5 54 L 319 54.5 L 316.5 55 L 316.5 54 Z "></path><path fill="rgb(72,161,31)" stroke="rgb(72,161,31)" stroke-width="1" opacity="0.996078431372549" d="M 249.5 55 L 251 55.5 L 250.5 58 L 248.5 58 L 244.5 60 L 247.5 56 L 249.5 55 Z "></path><path fill="rgb(72,161,31)" stroke="rgb(72,161,31)" stroke-width="1" opacity="0.996078431372549" d="M 312.5 55 L 315 55.5 Q 290.5 62 277 79.5 L 256 106.5 L 249.5 120 L 249 117.5 L 251 109.5 L 250.5 108 L 253 107.5 L 252.5 106 L 254 106.5 L 253.5 104 L 250 104.5 Q 249.3 102.3 251.5 103 L 252.5 104 Q 254.3 100.9 256 102.5 Q 255.3 100.3 257.5 101 Q 261.8 99.2 259 97.5 Q 258.3 95.3 260.5 96 L 259.5 93 L 262 94.5 L 265 90.5 L 265 88 L 269 85.5 Q 268.3 83.3 270.5 84 L 274 82 L 278.5 73 L 280 73.5 Q 279.3 71.3 281.5 72 L 300 60 Q 298.6 56.3 304.5 58 L 312.5 55 Z "></path><path fill="rgb(72,161,31)" stroke="rgb(72,161,31)" stroke-width="1" opacity="0.996078431372549" d="M 172.5 59 L 171.5 61 L 172.5 59 Z "></path><path fill="rgb(72,161,31)" stroke="rgb(72,161,31)" stroke-width="1" opacity="0.996078431372549" d="M 188.5 60 L 190.5 60 L 195 61.5 L 193.5 62 L 190.5 61 L 191 62.5 L 192 66 L 189 64.5 L 190 62.5 L 188 62 L 188.5 60 Z "></path><path fill="rgb(72,161,31)" stroke="rgb(72,161,31)" stroke-width="1" opacity="0.996078431372549" d="M 167.5 62 L 168.5 64 L 167.5 62 Z "></path><path fill="rgb(72,161,31)" stroke="rgb(72,161,31)" stroke-width="1" opacity="0.996078431372549" d="M 247.5 62 L 247 63.5 Q 247.8 65.8 245.5 65 L 247.5 62 Z "></path><path fill="rgb(72,161,31)" stroke="rgb(72,161,31)" stroke-width="1" opacity="0.996078431372549" d="M 196.5 64 L 195.5 66 L 196.5 64 Z "></path><path fill="rgb(72,161,31)" stroke="rgb(72,161,31)" stroke-width="1" opacity="0.996078431372549" d="M 223.5 73 L 225.5 74 L 227.5 73 L 226.5 75 Q 222.7 75.5 223.5 73 Z "></path><path fill="rgb(72,161,31)" stroke="rgb(72,161,31)" stroke-width="1" opacity="0.996078431372549" d="M 233.5 73 L 236 74.5 L 234.5 74 L 233.5 73 Z "></path><path fill="rgb(72,161,31)" stroke="rgb(72,161,31)" stroke-width="1" opacity="0.996078431372549" d="M 231.5 74 L 233 76.5 L 230 77.5 Q 231.3 82.3 228 81 Q 227.9 76.1 231.5 74 Z "></path><path fill="rgb(72,161,31)" stroke="rgb(72,161,31)" stroke-width="1" opacity="0.996078431372549" d="M 223.5 76 L 224.5 78 L 221.5 79 L 221 77 L 223.5 76 Z "></path><path fill="rgb(72,161,31)" stroke="rgb(72,161,31)" stroke-width="1" opacity="0.996078431372549" d="M 222.5 81 L 221.5 83 L 222.5 81 Z "></path><path fill="rgb(72,161,31)" stroke="rgb(72,161,31)" stroke-width="1" opacity="0.996078431372549" d="M 228.5 82 L 230 82.5 L 227.5 84 L 228.5 82 Z "></path><path fill="rgb(72,161,31)" stroke="rgb(72,161,31)" stroke-width="1" opacity="0.996078431372549" d="M 232.5 83 L 233.5 85 L 232.5 83 Z "></path><path fill="rgb(72,161,31)" stroke="rgb(72,161,31)" stroke-width="1" opacity="0.996078431372549" d="M 219.5 86 L 221 88.5 L 220 88.5 L 219.5 86 Z "></path><path fill="rgb(72,161,31)" stroke="rgb(72,161,31)" stroke-width="1" opacity="0.996078431372549" d="M 170.5 89 L 171.5 91 L 170.5 89 Z "></path><path fill="rgb(72,161,31)" stroke="rgb(72,161,31)" stroke-width="1" opacity="0.996078431372549" d="M 174.5 93 L 172.5 96 L 174.5 93 Z "></path><path fill="rgb(72,161,31)" stroke="rgb(72,161,31)" stroke-width="1" opacity="0.996078431372549" d="M 218 95 L 220 95.5 L 218.5 98 L 218 95 Z "></path><path fill="rgb(72,161,31)" stroke="rgb(72,161,31)" stroke-width="1" opacity="0.996078431372549" d="M 215.5 96 Q 217.8 95.3 217 97.5 L 215.5 96 Z "></path><path fill="rgb(72,161,31)" stroke="rgb(72,161,31)" stroke-width="1" opacity="0.996078431372549" d="M 217.5 100 L 218.5 102 L 216 101.5 L 217.5 100 Z "></path><path fill="rgb(72,161,31)" stroke="rgb(72,161,31)" stroke-width="1" opacity="0.996078431372549" d="M 218.5 103 L 220 103.5 L 220 105.5 L 219 107.5 L 220 109.5 L 219 109.5 L 217.5 107 L 216 107.5 L 217 105.5 L 216.5 104 L 218.5 103 Z "></path><path fill="rgb(72,161,31)" stroke="rgb(72,161,31)" stroke-width="1" opacity="0.996078431372549" d="M 190.5 146 L 191.5 148 Q 188.7 148.7 190.5 146 Z "></path><path fill="rgb(72,161,31)" stroke="rgb(72,161,31)" stroke-width="1" opacity="0.996078431372549" d="M 196.5 162 L 197 165 L 199.5 164 L 198.5 166 Q 193.8 167.2 196.5 162 Z "></path><path fill="rgb(72,161,31)" stroke="rgb(72,161,31)" stroke-width="1" opacity="0.996078431372549" d="M 201.5 168 L 200.5 170 L 201.5 168 Z "></path><path fill="rgb(72,161,31)" stroke="rgb(72,161,31)" stroke-width="1" opacity="0.996078431372549" d="M 221.5 176 L 222.5 178 L 221.5 176 Z "></path><path fill="rgb(72,161,31)" stroke="rgb(72,161,31)" stroke-width="1" opacity="0.996078431372549" d="M 250.5 178 L 251.5 180 L 250.5 178 Z "></path><path fill="rgb(72,161,31)" stroke="rgb(72,161,31)" stroke-width="1" opacity="0.996078431372549" d="M 207.5 183 L 210 184.5 L 208.5 185 L 207.5 183 Z "></path><path fill="rgb(72,161,31)" stroke="rgb(72,161,31)" stroke-width="1" opacity="0.996078431372549" d="M 208.5 193 L 209.5 195 L 208.5 193 Z "></path><path fill="rgb(72,161,31)" stroke="rgb(72,161,31)" stroke-width="1" opacity="0.996078431372549" d="M 210.5 201 Q 212.8 200.3 212 202.5 L 210.5 201 Z "></path><path fill="rgb(72,161,31)" stroke="rgb(72,161,31)" stroke-width="1" opacity="0.996078431372549" d="M 223.5 206 L 222.5 208 L 223.5 206 Z "></path><path fill="rgb(72,161,31)" stroke="rgb(72,161,31)" stroke-width="1" opacity="0.996078431372549" d="M 255.5 211 L 256 213.5 L 254.5 216 L 254 214.5 L 255.5 211 Z "></path><path fill="rgb(72,161,31)" stroke="rgb(72,161,31)" stroke-width="1" opacity="0.996078431372549" d="M 212 215 L 215 216.5 L 211 217.5 L 212 215 Z "></path><path fill="rgb(72,161,31)" stroke="rgb(72,161,31)" stroke-width="1" opacity="0.996078431372549" d="M 218.5 222 L 219.5 224 L 218.5 222 Z "></path><path fill="rgb(72,161,31)" stroke="rgb(72,161,31)" stroke-width="1" opacity="0.996078431372549" d="M 211.5 246 L 212.5 248 L 211.5 246 Z "></path><path fill="rgb(72,161,31)" stroke="rgb(72,161,31)" stroke-width="1" opacity="0.996078431372549" d="M 93.5 268 L 112.5 268 L 113 271.5 L 110 281.5 L 109 299.5 L 110 303.5 L 108.5 303 L 94 302.5 L 98.5 301 L 100.5 302 L 102.5 302 Q 107.9 302.6 108 301.5 L 108 285.5 L 111 272 L 107 272 L 107 273.5 L 106 273.5 Q 107.5 269.1 104.5 270 L 102 271.5 L 103 273.5 L 102 273.5 Q 102.9 270.5 98.5 272 L 96 273.5 Q 98.3 272.3 95.5 271 L 95 273 L 90.5 274 L 88.5 274 Q 72.2 274.2 66 284.5 L 62 292 L 60.5 292 L 44 308.5 L 39 322.5 L 39 333.5 Q 41.8 335.5 41 340 L 45 342.5 L 43 347 L 46 348.5 L 47 355.5 L 51 363 Q 54 362 53 365 L 55.5 365 Q 57.2 367.8 63.5 366 L 71 362 L 75 355.5 L 76 350.5 L 74 342.5 L 70 335.5 L 70 330.5 L 71.5 328 L 72 329.5 L 71 332.5 L 78 351.5 L 78 359.5 L 71.5 368 Q 67.2 371.7 57.5 370 L 45 359.5 L 42 355.5 L 38 342.5 L 37 323.5 L 41 310.5 L 59 292.5 Q 63.3 283.8 70.5 278 Q 79.5 270.5 93.5 268 Z M 109 270 L 109 271 L 111 271 L 109 270 Z "></path><path fill="rgb(72,161,31)" stroke="rgb(72,161,31)" stroke-width="1" opacity="0.996078431372549" d="M 181.5 270 L 182 272.5 L 181 272.5 L 181.5 270 Z "></path><path fill="rgb(72,161,31)" stroke="rgb(72,161,31)" stroke-width="1" opacity="0.996078431372549" d="M 246.5 270 L 249 271.5 L 247.5 271 L 246.5 270 Z "></path><path fill="rgb(72,161,31)" stroke="rgb(72,161,31)" stroke-width="1" opacity="0.996078431372549" d="M 238.5 286 L 239.5 288 L 238.5 286 Z "></path><path fill="rgb(72,161,31)" stroke="rgb(72,161,31)" stroke-width="1" opacity="0.996078431372549" d="M 91.5 303 L 93 303.5 L 88 307.5 Q 82.4 319.4 72.5 327 L 78 320.5 L 87 307.5 L 87 305 L 91.5 303 Z "></path><path fill="rgb(54,102,31)" stroke="rgb(54,102,31)" stroke-width="1" opacity="0.8901960784313725" d="M 380.5 61 L 375.5 67 L 339.5 95 L 312.5 105 L 293.5 114 L 293.5 113 L 309.5 105 L 337.5 95 L 380.5 61 Z "></path><path fill="rgb(54,102,31)" stroke="rgb(54,102,31)" stroke-width="1" opacity="0.8901960784313725" d="M 289.5 114 L 292 114.5 L 289.5 115 L 289.5 114 Z "></path><path fill="rgb(54,102,31)" stroke="rgb(54,102,31)" stroke-width="1" opacity="0.8901960784313725" d="M 285.5 115 L 288 115.5 L 276.5 119 L 276.5 118 L 285.5 115 Z "></path><path fill="rgb(54,102,31)" stroke="rgb(54,102,31)" stroke-width="1" opacity="0.8901960784313725" d="M 269.5 120 L 272 120.5 L 269.5 121 L 269.5 120 Z "></path><path fill="rgb(54,102,31)" stroke="rgb(54,102,31)" stroke-width="1" opacity="0.8901960784313725" d="M 265.5 121 L 268 121.5 L 262.5 123 L 262.5 122 L 265.5 121 Z "></path><path fill="rgb(54,102,31)" stroke="rgb(54,102,31)" stroke-width="1" opacity="0.8901960784313725" d="M 256.5 124 L 258 124.5 L 254.5 126 L 254.5 125 L 256.5 124 Z "></path><path fill="rgb(54,102,31)" stroke="rgb(54,102,31)" stroke-width="1" opacity="0.8901960784313725" d="M 251.5 126 L 253 126.5 L 251 127 L 251 139.5 L 253 146.5 L 253 152.5 L 258 166.5 L 258 174.5 L 260 182.5 L 258 181.5 L 256 163.5 L 251 147.5 L 250 127.5 L 251.5 126 Z "></path><path fill="rgb(54,102,31)" stroke="rgb(54,102,31)" stroke-width="1" opacity="0.8901960784313725" d="M 183.5 154 L 203 200.5 L 205 226 L 191.5 228 L 180.5 232 L 170.5 240 Q 164.8 240.3 162 243.5 L 162 249.5 L 156 257.5 L 154.5 265 L 154 260.5 L 157 250.5 L 161 244.5 Q 160.5 239 163.5 237 L 172.5 237 L 182.5 230 L 195.5 226 L 199.5 226 L 204 222.5 L 202 201.5 L 183.5 156 L 172 166.5 L 163.5 176 L 139 199.5 L 127 221.5 L 114.5 267 L 114 264.5 L 122 232.5 L 127 217.5 L 133 205.5 L 138 198.5 L 160.5 176 L 169 169.5 L 177.5 159 L 183.5 154 Z "></path><path fill="rgb(54,102,31)" stroke="rgb(54,102,31)" stroke-width="1" opacity="0.8901960784313725" d="M 395.5 180 L 400 180.5 L 384.5 184 L 368.5 185 L 346.5 192 L 326.5 194 Q 314.2 199.2 297.5 200 L 279.5 207 L 266.5 208 L 264 207 L 264.5 204 L 267.5 206 L 278.5 206 L 297.5 199 L 308.5 198 L 332.5 192 L 340.5 192 L 368.5 184 L 383.5 183 L 395.5 180 Z "></path><path fill="rgb(54,102,31)" stroke="rgb(54,102,31)" stroke-width="1" opacity="0.8901960784313725" d="M 260.5 184 Q 262.8 184.8 262 188.5 L 261 188.5 L 260.5 184 Z "></path><path fill="rgb(54,102,31)" stroke="rgb(54,102,31)" stroke-width="1" opacity="0.8901960784313725" d="M 262.5 191 L 263 194.5 L 262 194.5 L 262.5 191 Z "></path><path fill="rgb(54,102,31)" stroke="rgb(54,102,31)" stroke-width="1" opacity="0.8901960784313725" d="M 263.5 199 L 264 202.5 L 263 202.5 L 263.5 199 Z "></path><path fill="rgb(54,102,31)" stroke="rgb(54,102,31)" stroke-width="1" opacity="0.8901960784313725" d="M 110.5 305 L 112 309.5 L 114 333.5 L 115 334.5 L 115 350.5 L 114 351.5 L 114 361.5 L 118 369 L 124.5 373 L 133.5 374 L 143 368.5 L 146 362.5 L 148 352.5 L 148 334.5 L 147 333.5 L 147 325.5 L 148 325.5 L 150 346.5 L 149 347.5 L 149 355.5 L 147 365.5 Q 144.1 373.6 137.5 378 Q 133.4 381.9 124.5 381 Q 116.8 379.1 113 373.5 Q 109.8 369.2 110 361.5 L 113 353.5 L 114 336.5 L 111 320.5 L 110.5 305 Z "></path><path fill="rgb(54,102,31)" stroke="rgb(54,102,31)" stroke-width="1" opacity="0.8901960784313725" d="M 147.5 313 L 148 316.5 L 147 316.5 L 147.5 313 Z "></path><path fill="rgb(54,102,31)" stroke="rgb(54,102,31)" stroke-width="1" opacity="0.996078431372549" d="M 398.5 46 L 400 46.5 L 400 180 L 389.5 181 L 383.5 183 L 368.5 184 L 345.5 191 L 332.5 192 L 308.5 198 L 297.5 199 L 278.5 206 L 267.5 206 L 264 203.5 L 262 185.5 L 259 181.5 L 258 166.5 L 253 152.5 L 253 146.5 L 251 139.5 L 251 127 L 261.5 123 L 294.5 114 L 312.5 105 L 339.5 95 L 381 61.5 L 387.5 53 L 398.5 46 Z "></path><path fill="rgb(54,102,31)" stroke="rgb(54,102,31)" stroke-width="1" opacity="0.996078431372549" d="M 183.5 156 L 202 201.5 L 204 222.5 L 199.5 226 L 195.5 226 L 182.5 230 L 172.5 237 L 163.5 237 L 162 238.5 L 161 244.5 L 155 256.5 L 154 268.5 L 149 284.5 L 149 302.5 L 147 313.5 L 147 333.5 L 148 334.5 L 148 352.5 L 145 365.5 L 140.5 371 L 133.5 374 L 128.5 374 L 118 369 L 114 361.5 L 114 351.5 L 115 350.5 L 115 334.5 L 113 326.5 L 112 309.5 L 109 299.5 L 109 291.5 L 113 268.5 L 116 264.5 Q 120 238 129 216.5 L 139 199.5 L 162.5 176 L 172 167.5 L 181.5 157 L 183.5 156 Z "></path><path fill="rgb(72,162,31)" stroke="rgb(72,162,31)" stroke-width="1" opacity="1" d="M 187 0 L 216.5 0 L 217.5 1 L 218.5 0 L 294.5 0 L 296.5 0 L 301.5 1 L 302.5 0 L 337.5 0 L 339.5 0 Q 345 -1.5 346.5 1 L 348.5 1 L 356 0 L 356.5 2 Q 357.5 -1 362.5 0 L 364.5 0 L 372.5 0 L 373 1.5 L 374 1.5 Q 373.3 -0.8 375.5 0 L 377.5 1 L 381 0 L 381.5 2 L 382 0 L 386 0.5 L 385.5 2 Q 390.1 2.6 391.5 0 L 393 3 L 398.5 2 L 397.5 5 L 399.5 4 L 400 5.5 L 400 9.5 L 400 43.5 L 398.5 45 Q 387 48.5 381.5 58 L 376.5 58 L 359.5 53 L 357.5 54 L 354.5 52 L 350.5 52 L 348.5 51 L 346.5 52 L 344 50.5 L 343.5 52 L 342.5 50 L 335.5 52 L 332.5 50 L 331.5 52 L 329.5 52 L 324.5 53 L 322.5 53 L 304.5 58 L 300 58 Q 301.1 60.7 298.5 60 L 283.5 71 L 280 72 L 278.5 76 L 277.5 74 L 274 82 L 269 84 L 267 87.5 L 267.5 89 L 265 88 L 265 90.5 L 260.5 96 Q 258.3 95.3 259 97.5 Q 261.8 99.2 257.5 101 Q 255.3 100.3 256 102.5 L 252.5 108 L 250 108.5 L 250 110.5 L 250 116.5 L 246 130.5 L 247 133.5 Q 247.8 135.8 245.5 135 L 245.5 136 L 247 136.5 L 246 139.5 L 248 141.5 L 246 143.5 L 246.5 145 L 248 144.5 L 247 147.5 L 249 147.5 L 248 150 L 250 150.5 L 250 152.5 L 251 158.5 L 251 160.5 L 252 162.5 L 252 164.5 L 251 166.5 L 251 168.5 L 251.5 170 L 253 169.5 L 252 173 L 254 173.5 L 254 175.5 Q 252.9 178.8 255.5 178 L 255 179.5 Q 255.8 181.8 253.5 181 L 253.5 182 Q 257.3 181 256 184 L 253.5 183 L 251 184.5 L 254 185 L 256 190 Q 253 188.8 254 192.5 L 255.5 195 L 257 194.5 L 255 197.5 L 257 198.5 L 256.5 200 L 258 200.5 L 255.5 201 L 254 200.5 L 255.5 203 L 258 203.5 L 257 207.5 L 258 209.5 L 258 211.5 L 257 214.5 L 259 217.5 L 258 220 L 256 220.5 L 259 221 L 260 224.5 L 258 227.5 L 258.5 230 Q 260.8 229.3 260 231.5 L 258.5 234 L 261 234.5 L 258 235 L 258.5 237 L 260 236.5 L 259 242.5 L 259.5 244 L 257 245.5 L 260 247 L 259 252 L 257 252.5 L 257.5 254 L 256 254.5 L 256.5 256 L 255 256.5 L 257 257.5 L 255 258.5 L 257 259.5 L 254 260.5 Q 253.3 262.8 255.5 262 L 254.5 264 Q 252.3 263.3 253 265.5 L 254 267.5 L 252.5 271 L 251 271.5 L 251.5 273 L 249 273.5 L 252 274.5 L 249 275.5 L 249 277.5 L 247.5 281 L 245.5 277 L 245 278.5 L 246 282.5 L 245.5 285 L 244 284.5 Q 245.1 287.8 242.5 287 L 242.5 288 L 244 288.5 L 242 289 L 240.5 293 Q 239.3 290.8 238 293.5 L 237.5 295 L 236.5 292 L 236 295.5 L 236.5 297 L 229.5 302 L 227 302 L 225.5 305 L 225 302.5 L 224.5 301 L 223 303.5 L 223.5 305 Q 221.3 305.8 222 303.5 L 221 303.5 Q 221.8 305.8 219.5 305 L 219.5 307 L 215.5 308 L 212 307 Q 213.3 310 209.5 309 L 207.5 309 L 193.5 312 L 191.5 312 Q 177.8 313.7 169.5 310 L 167.5 311 L 163.5 309 L 161.5 309 L 151.5 307 L 150 307.5 L 150 287.5 Q 152.5 286 151 280.5 L 155.5 270 L 158.5 271 Q 160.5 267 162.5 271 L 167.5 269 Q 169 271.5 170.5 268 L 172.5 270 L 174.5 271 L 176.5 271 Q 178.8 271.8 178 269.5 L 177.5 268 L 179.5 271 L 182.5 267 L 189 266 L 189.5 264 L 191.5 265 L 193.5 262 L 194.5 264 L 195.5 261 L 197 261.5 Q 197.3 256.8 200.5 255 L 200.5 257 Q 203.1 257.8 202 254.5 L 204 253.5 L 203.5 255 L 206 253.5 L 205 247 L 207.5 248 L 208 246 L 206 245.5 L 208 244.5 L 207 242 L 209 241.5 L 207 240.5 L 209 239.5 L 207 234.5 Q 209 236.2 211 232.5 L 209 232 L 210 228.5 L 208.5 226 L 210 226.5 L 212 223.5 L 210 222.5 L 210 216.5 L 209 211.5 L 211 211.5 L 209.5 206 L 207.5 207 L 207.5 205 L 206 204.5 L 208 203.5 L 206 200.5 L 207 198 L 205 197.5 L 207 196.5 L 205 196 L 204 192.5 L 206 192.5 Q 206.8 190.3 204.5 191 L 205 189.5 L 203.5 187 L 202 187.5 L 203 184.5 Q 199.5 183 202 181.5 L 201.5 180 L 200 180.5 L 201 177.5 L 201 175.5 L 200.5 173 L 197 174 L 195 170.5 L 194 159 L 191 157.5 Q 193.5 156 190 154.5 L 190.5 153 L 191.5 155 Q 195 153 190.5 151 L 188 152.5 L 190 149.5 L 188 146 Q 185.3 147.1 186 144.5 L 186 142.5 L 184.5 140 Q 182.3 140.8 183 138.5 L 176 128.5 L 173.5 116 L 172 116.5 L 173 112.5 Q 170.3 110.2 171 104.5 Q 173.5 103 170 101.5 Q 168.9 98.2 171.5 99 L 171.5 98 L 169 97.5 L 170 94.5 L 169 94.5 L 168.5 96 L 168 94.5 L 170 91 L 168 90.5 Q 170.5 89 167 87.5 L 167.5 86 L 169.5 87 L 168.5 85 Q 165.9 85.7 167 83 L 169 82.5 L 167 77.5 L 167 75.5 Q 165.7 70.8 168 69.5 L 166 69 L 167 64.5 L 166 59.5 L 167 57.5 L 167 55.5 L 166 52.5 L 168 47.5 L 167 42 L 170 40.5 L 169.5 39 L 168 39.5 L 170 34 L 168 33.5 L 172 30.5 L 170 29.5 L 173.5 22 L 175 22.5 L 176 20.5 L 174 20 Q 172.9 17.3 175.5 18 L 177 14 L 180 12.5 L 179 10.5 L 181 10.5 L 182 7 L 184 6.5 L 183 4.5 L 186 5.5 L 185 2.5 L 187 2 L 187 0 Z M 383 4 L 381 5 L 381 6 L 384 5 L 383 4 Z M 209 8 L 209 10 L 212 9 L 209 8 Z M 173 32 L 171 34 L 173 34 L 173 32 Z M 267 37 L 264 39 L 266 39 L 267 40 L 267 37 Z M 262 40 L 263 41 L 264 42 Q 265 39 262 40 Z M 190 41 L 188 49 L 188 51 L 188 59 L 193 59 Q 192 56 195 55 L 195 52 L 192 53 Q 189 52 190 48 L 191 45 L 190 41 Z M 169 44 L 169 47 L 171 46 L 169 44 Z M 242 51 Q 239 57 243 56 L 242 51 Z M 256 53 L 256 55 L 258 54 L 256 53 Z M 250 55 L 248 56 L 247 58 Q 251 59 251 56 L 250 55 Z M 196 57 Q 194 60 197 59 L 196 57 Z M 240 57 L 234 63 L 235 64 L 234 63 L 229 66 L 229 64 L 228 67 L 230 68 L 229 70 L 228 69 L 227 72 L 236 65 L 235 69 Q 232 68 233 71 L 235 70 L 237 71 L 236 69 Q 235 66 239 67 L 239 65 Q 241 66 240 64 L 243 60 L 239 62 L 236 64 L 237 62 L 240 60 L 240 57 Z M 189 60 Q 187 63 190 62 L 189 60 Z M 191 60 L 191 61 L 193 61 L 191 60 Z M 191 62 L 189 65 L 191 64 L 191 62 Z M 247 63 L 245 65 L 247 65 L 247 63 Z M 192 64 L 190 66 L 192 66 L 192 64 Z M 227 73 L 225 74 L 225 75 L 228 74 L 227 73 Z M 232 74 Q 228 76 228 81 Q 231 82 230 78 L 233 77 L 232 74 Z M 224 76 L 221 77 L 222 79 L 225 78 L 224 76 Z M 229 82 L 228 84 L 230 83 L 229 82 Z M 218 95 L 219 98 L 220 96 L 218 95 Z M 216 96 L 217 98 Q 218 95 216 96 Z M 219 103 L 216 105 L 218 107 L 220 104 L 219 103 Z M 250 103 L 250 105 L 252 104 L 250 103 Z M 191 146 Q 189 149 192 148 L 191 146 Z M 197 162 L 196 166 L 199 166 L 197 165 L 197 162 Z M 202 171 Q 200 174 203 173 L 202 171 Z M 254 188 L 252 190 L 254 190 L 254 188 Z M 211 201 L 212 203 Q 213 200 211 201 Z M 256 211 L 255 214 L 256 214 L 256 211 Z M 212 215 L 212 217 L 214 216 L 212 215 Z M 257 248 L 258 251 L 259 249 L 257 248 Z M 200 257 L 199 261 L 200 261 L 200 257 Z M 202 260 L 200 262 L 202 262 L 202 260 Z M 184 268 L 185 271 L 185 269 L 187 269 L 184 268 Z M 171 269 L 169 271 L 172 271 L 171 269 Z M 182 270 L 181 273 L 182 273 L 182 270 Z "></path><path fill="rgb(72,162,31)" stroke="rgb(72,162,31)" stroke-width="1" opacity="1" d="M 104.5 270 Q 107.5 269.1 106 273.5 L 107 273.5 L 107 272 L 111 272 L 108 285.5 L 108 302 L 101.5 301 L 99.5 302 L 97.5 301 L 87 305 Q 82.1 317.8 72 326.5 Q 69.2 329.2 70 335.5 L 74 342.5 L 76 352.5 L 71 362 L 63.5 366 L 56.5 366 L 53 365 L 53 363 Q 50.3 364.1 51 361.5 Q 46 357 45.5 348 L 43.5 349 L 43.5 348 L 45 347.5 L 43 347 L 45 342.5 L 42 341.5 L 42.5 340 Q 39.5 340.9 41 336.5 L 39 333.5 L 39 322.5 L 44 308.5 L 60.5 292 Q 62.8 292.8 62 290.5 L 71.5 279 L 76.5 276 L 89.5 273 L 92.5 274 L 92.5 272 L 95 273 L 95.5 271 L 98.5 272 Q 103.1 272.6 104.5 270 Z "></path><path fill="rgb(72,162,31)" stroke="rgb(72,162,31)" stroke-width="1" opacity="1" d="M 108.5 270 L 111 270.5 L 108.5 271 L 108.5 270 Z "></path><path fill="rgb(68,137,27)" stroke="rgb(68,137,27)" stroke-width="1" opacity="0.18823529411764706" d="M 181.5 0 L 183 0.5 Q 172.2 12.7 166 29.5 L 164 38.5 L 164 46.5 L 163 47.5 L 163 76.5 L 164 77.5 L 164 85.5 L 170 114.5 L 170 119.5 L 184 153.5 L 172 164.5 L 167.5 171 L 160.5 176 L 138 198.5 L 127 217.5 L 118 245.5 L 114 267 L 107.5 266 L 96.5 266 L 85.5 268 Q 73.3 272.8 65 281.5 L 55 296 L 48 301.5 L 41.5 309 L 36 313.5 L 33 318.5 L 32 325.5 L 37 339.5 L 38 350.5 Q 41.3 360.2 48.5 366 L 59.5 373 L 70.5 374 L 79 367.5 Q 82.5 363.5 81 354.5 L 75 341.5 L 75 335.5 L 73 328.5 Q 84 318.5 91.5 305 L 93.5 304 L 105.5 304 L 110 305 L 112 328.5 L 114 336.5 L 114 346.5 L 110 365.5 Q 111.5 374 117.5 378 Q 121.6 381.9 130.5 381 Q 139.5 378.6 144 371.5 L 148 361.5 L 150 340.5 L 147 324.5 L 147 317.5 L 148 315 L 170.5 315 L 171.5 314 L 207.5 314 L 227.5 308 L 241 298.5 L 249 287.5 L 260 263.5 L 263 252.5 L 264 232.5 L 262 223.5 L 262 213.5 L 260 206.5 L 260 186.5 L 259 183.5 L 260 183.5 L 262 190.5 L 262 192.5 L 261 194.5 L 263 195 Q 264 199.3 261 200.5 L 262 203.5 Q 261 211.5 264 215.5 Q 261.7 216.8 263 221.5 L 265 228.5 L 265 230.5 L 265 246.5 L 264 247.5 L 265 249.5 L 261 264.5 L 255 275.5 L 254 280.5 Q 248.6 294.1 238.5 303 L 226.5 310 L 210.5 315 Q 204.3 313.3 202.5 316 L 199.5 315 L 193.5 316 L 191.5 316 L 186.5 315 L 184.5 315 L 177.5 315 L 167.5 317 L 165.5 317 L 161.5 316 L 158.5 317 L 156.5 316 L 154.5 317 L 151.5 316 Q 147.8 314.8 149 318.5 L 148 323.5 L 151 336.5 L 151 350.5 L 148 366.5 L 140.5 378 Q 135.3 383.3 124.5 383 Q 115.3 381.3 111 374.5 Q 107 370.1 108 360.5 L 112 352.5 Q 109.8 351.3 111 346.5 L 113 338.5 L 110 323.5 L 109 306 L 103.5 305 L 101.5 306 L 99.5 305 L 95.5 306 L 93.5 305 L 86 316.5 L 76 326.5 L 76 328 Q 73.3 326.9 74 329.5 L 76 332.5 L 77 341.5 L 81 347.5 L 84 360.5 L 81 369.5 L 76.5 374 Q 71.8 377.3 62.5 376 L 48.5 368 L 44 363.5 L 38 354.5 L 35 343.5 L 35 338.5 L 30 329.5 L 30 321.5 Q 32.8 312.8 39.5 308 L 47 301.5 L 50.5 297 L 56 292.5 Q 61 282 69.5 275 Q 78.3 268.3 90.5 265 L 113 265 L 116 253.5 L 117 243.5 Q 122.8 232.8 125 218.5 L 132 204.5 L 157.5 177 L 160.5 175 L 169 167.5 L 182 152.5 L 170 124.5 L 165 100.5 L 163 81.5 L 162 80.5 L 162 43.5 L 165 28.5 L 168 20.5 L 181.5 0 Z "></path><path fill="rgb(68,137,27)" stroke="rgb(68,137,27)" stroke-width="1" opacity="0.18823529411764706" d="M 319.5 55 L 347.5 55 L 380 61.5 L 337.5 95 L 309.5 105 L 290.5 114 L 290.5 113 L 306.5 105 L 338.5 93 L 377 62.5 L 359.5 58 L 342.5 57 L 341.5 56 L 338.5 57 L 328.5 57 L 327.5 56 L 325.5 57 L 323.5 57 L 314.5 57 L 310.5 60 L 295.5 66 L 287 72.5 L 259 106.5 L 251 122.5 L 251.5 125 L 255.5 124 L 255.5 125 L 250.5 127 L 250 119.5 L 258 105.5 L 288.5 69 L 311.5 57 L 319.5 55 Z "></path><path fill="rgb(68,137,27)" stroke="rgb(68,137,27)" stroke-width="1" opacity="0.18823529411764706" d="M 286.5 114 L 289 114.5 L 286.5 115 L 286.5 114 Z "></path><path fill="rgb(68,137,27)" stroke="rgb(68,137,27)" stroke-width="1" opacity="0.18823529411764706" d="M 273.5 118 L 276 118.5 L 270.5 120 L 270.5 119 L 273.5 118 Z "></path><path fill="rgb(68,137,27)" stroke="rgb(68,137,27)" stroke-width="1" opacity="0.18823529411764706" d="M 266.5 120 L 269 120.5 L 266.5 121 L 266.5 120 Z "></path><path fill="rgb(68,137,27)" stroke="rgb(68,137,27)" stroke-width="1" opacity="0.18823529411764706" d="M 262.5 121 L 265 121.5 L 257.5 124 L 257.5 123 L 262.5 121 Z "></path><path fill="rgb(68,137,27)" stroke="rgb(68,137,27)" stroke-width="1" opacity="0.18823529411764706" d="M 396.5 181 L 400 181.5 L 396.5 183 L 391.5 183 L 379.5 186 L 371.5 186 L 370.5 187 L 368.5 187 L 354.5 190 L 348.5 193 L 337.5 194 L 336.5 195 L 327.5 195 L 310.5 200 L 298.5 201 L 276.5 209 L 264.5 209 Q 262 208 263 203.5 L 264 203.5 Q 262.5 207.9 265.5 207 L 266.5 208 L 274.5 208 Q 287.7 205.7 297.5 200 Q 314.2 199.2 326.5 194 L 341.5 193 L 368.5 185 L 377.5 185 L 396.5 181 Z "></path><path fill="rgb(68,137,27)" stroke="rgb(68,137,27)" stroke-width="1" opacity="0.18823529411764706" d="M 202.5 226 L 205 226.5 L 205 237.5 L 196 257.5 L 192.5 261 L 169.5 265 L 155 265 L 156 257.5 L 162 249.5 Q 160.5 243.5 163.5 242 L 170.5 240 L 180.5 232 L 191.5 228 L 202.5 226 Z M 197 228 L 184 232 Q 175 235 171 242 L 166 243 L 164 245 Q 165 251 162 255 L 157 258 L 156 264 L 159 263 L 163 264 L 165 264 L 182 261 L 189 261 L 195 258 L 203 238 L 204 235 L 204 228 L 197 228 Z "></path></svg>