<svg width="400" height="400" version="1.1" xmlns="http://www.w3.org/2000/svg" desc="Created with imagetracer.js version 1.2.5"><path fill="rgb(38,107,47)" stroke="rgb(38,107,47)" stroke-width="1" opacity="0.1607843137254902" d="M 114 62 L 148.5 62 L 149.5 64 L 157.5 64 Q 156.5 67.5 163.5 66 L 169 67 L 169 69 L 174 69 L 174 71 Q 179.2 69.3 178 73 L 182.5 73 Q 181.5 76 186.5 75 L 192 76 L 192 78 L 198 78 L 198 80 Q 202.1 78.7 201 82 L 205 82 Q 203.8 85 207.5 84 L 212 85 L 212 87 L 216 87 L 216 88.5 L 217 91 Q 222.3 89.8 221.5 93 L 224.5 93 L 226 96 L 230 96 L 230 98 L 233 98 Q 231.9 100.7 234.5 100 L 239 101 L 241 105 L 244 105 L 244 107 L 246 107 Q 244.9 109.7 247.5 109 L 250 110 L 250 112 L 253 112 L 253 114 L 255 114 L 255 116 L 257 116 Q 255.9 118.7 258.5 118 L 260 121 Q 263 120 262 123 L 266 123 L 266 125 Q 268.7 123.9 268 126.5 L 271 128 L 273 132 L 276 132 Q 274.9 134.7 277.5 134 L 280 135 L 280 137 L 282 137 L 282 139 Q 284.7 137.9 284 140.5 L 285 143 L 289 144 L 289 146 L 291 146 L 291 148 Q 293.7 146.9 293 149.5 L 294 152 L 300 153 L 302 157 L 305 157 L 305 159 L 307 159 Q 305.9 161.7 308.5 161 L 310 164 L 312 164 L 312 166 L 314 166 Q 312.9 168.7 315.5 168 L 318 169 L 319 173 L 321 173 L 321 177 L 322.5 177 L 325 178 L 325 184 L 327 184.5 L 327 195 L 323 193 L 323 182.5 L 321 182 L 321 178 Q 318 179.3 319 175.5 L 318 173 L 316 173 L 316 171 L 314 171 Q 315.1 168.3 312.5 169 L 310 168 L 309 164 L 307 164 Q 308.1 161.3 305.5 162 L 303 161 L 303 159 L 300 159 L 300 157 L 298 157 L 298 155 L 296 155 Q 297.1 152.3 294.5 153 L 291 152 L 291 150 L 289 150 L 289 148 L 287 148 L 287 146 Q 284.3 147.1 285 144.5 L 282 143 L 282 141 L 280 141 L 280 139 L 278 139 L 278 137 Q 275.3 138.1 276 135.5 Q 274.8 133 271 134 L 271 132 Q 268.3 133.1 269 130.5 L 268 128 L 264 127 L 264 125 L 260 125 L 260 123.5 L 259 121 L 257 121 Q 258.1 118.3 255.5 119 L 253 118 L 251 114 L 248 114 L 248 112 L 246 112 Q 247.1 109.3 244.5 110 L 242 109 L 242 107 L 239 107 L 237 103 L 233 103 Q 234.3 100 230.5 101 L 228 100 L 228 98 L 225 98 L 225 96 L 221 96 Q 222.1 93.3 219.5 94 L 216 93 L 214 89 L 210 89 L 210 87 Q 205.9 88.3 207 85 L 203.5 85 L 199 84 L 199 82 L 194 82 L 194 80 Q 189.9 81.3 191 78 L 185.5 78 L 185 76 L 182.5 76 L 176 75 L 176 73 L 171 73 L 171 71 L 165.5 71 L 165 69 Q 158.7 70.5 159.5 67 L 155.5 67 L 154.5 66 L 142 66 L 141.5 64 L 122 64 L 121.5 66 L 112.5 66 L 106 67 L 106 69 Q 101.9 67.7 103 71 L 99 71 L 99 73 Q 94.9 71.7 96 75 L 92.5 75 L 88 76 L 87 80 L 83 80 L 83 82 Q 78.9 80.7 80 84 L 76.5 84 L 74 85 L 74 87 Q 69.9 85.7 71 89 L 65 89 L 65 91 Q 60.9 89.7 62 93 L 58.5 93 L 54 94 L 54 96 L 51 96 L 51 98 L 47 98 Q 48.1 100.7 45.5 100 L 42 101 L 42 103 Q 39 102 40 105 L 37 105 L 35 109 L 31.5 109 L 29 110 L 29 112 Q 24.9 110.7 26 114 L 22 114 L 20 118 L 17.5 118 L 15 119 L 15 121 L 11 121 L 11 123 L 8 123 L 6 127 L 3.5 127 L 1 128 L 0.5 130 L 0 127.5 L 1 125 L 4 125 L 6 121 L 10 121 L 10 119.5 Q 11.2 117 15 118 L 15 116 L 19 116 Q 17.9 112.7 22 114 L 24 110 L 27.5 110 L 29 107 Q 32 108 31 105 L 35 105 L 37 101 L 39.5 101 L 44 100 L 45 96 Q 50.3 97.3 49.5 94 L 52.5 94 L 56 93 L 56 91 L 60 91 L 60 89 Q 64.1 90.3 63 87 L 68.5 87 L 69 85 L 71.5 85 L 74 84 L 74 82 L 78 82 Q 76.9 78.7 81 80 L 83 76 L 86.5 76 L 90 75 L 90 73 L 94 73 L 94 71 Q 98.1 72.3 97 69 Q 102.3 70.3 101.5 67 L 104.5 67 L 108 66 L 108 64 L 114 64 L 114 62 Z "></path><path fill="rgb(38,107,47)" stroke="rgb(38,107,47)" stroke-width="1" opacity="0.1607843137254902" d="M 117.5 93 L 150.5 93 L 156 94 L 156 96 L 162 96 L 162 98 Q 166.1 96.7 165 100 L 170.5 100 L 176 101 L 176 103 L 182 103 L 182 105 Q 186.1 103.7 185 107 L 189 107 L 189 109 L 193.5 109 L 196 110 L 196 112 Q 200.1 110.7 199 114 L 203 114 L 205 118 L 207.5 118 L 212 119 L 214 123 L 217 123 L 217 125 L 221 125 Q 219.9 127.7 222.5 127 L 226 128 L 226 130 L 228 130 L 228 132 L 230 132 Q 228.9 134.7 231.5 134 L 235 135 L 235 137 L 237 137 L 237 139 L 239 139 L 239 141 Q 241.7 139.9 241 142.5 L 244 144 L 244 146 L 248 146 L 248 148 Q 250.7 146.9 250 149.5 L 251 152 L 255 153 L 255 155 L 259 155 L 259 156.5 L 260 159 L 262 159 Q 260.9 161.7 263.5 161 L 266 162 L 266 164 Q 268.7 162.9 268 165.5 L 269 167.5 L 268 167.5 L 268 166 L 264 166 L 264 164 L 262 164 Q 263.1 161.3 260.5 162 L 259 159 L 257 159 L 255 155 L 251 155 L 251 153.5 L 248 152 L 248 150 L 246 150 L 244 146 L 241 146 Q 242.1 143.3 239.5 144 L 237 143 L 237 141 L 235 141 L 233 137 L 230 137 Q 231.1 134.3 228.5 135 L 226 134 L 225 130 L 221 130 Q 222.1 127.3 219.5 128 L 216 127 L 216 125 L 212 125 L 212 123 Q 209 124 210 121 L 207 121 L 207 119 L 203.5 119 L 201 118 L 201 116 L 198 116 L 196 112 Q 190.7 113.3 191.5 110 L 187.5 110 L 183 109 L 183 107 L 178 107 L 178 105 Q 172.8 106.7 174 103 Q 167.7 104.5 168.5 101 L 164.5 101 L 160 100 L 160 98 Q 153.7 99.5 154.5 96 L 149 96 L 148.5 94 L 119 94 L 119 96 L 115 96 L 115 98 Q 110.9 96.7 112 100 L 108.5 100 L 105 101 L 105 103 L 101 103 L 101 105 L 97 105 L 97 106.5 L 96 109 L 90 110 L 90 112 Q 85.9 110.7 87 114 L 81 114 L 81 116 Q 76.9 114.7 78 118 L 74.5 118 L 71 119 L 71 121 L 67 121 L 67 123 L 63 123 L 63 125 L 60 125 Q 61.1 127.7 58.5 127 L 54 128 L 54 130 L 51 130 L 51 132 L 49 132 Q 50.1 134.7 47.5 134 L 44 135 L 42 139 L 38 139 L 38 141 L 35 141 Q 36.1 143.7 33.5 143 L 29 144 L 28 148 L 24 148 L 22 152 L 19.5 152 L 15 153 L 13 157 L 10 157 L 10 159 L 6 159 Q 7.3 162 3.5 161 L 0.5 162 L 1 160.5 Q 0.2 157.5 4 159 L 4 157 L 8 157 L 10 153 L 12.5 153 L 17 152 L 19 148 L 22 148 L 22 146 L 26 146 Q 24.9 143.3 27.5 144 L 31 143 L 33 139 L 37 139 L 37 137.5 L 38 135 L 45 134 L 47 130 L 51 130 Q 49.9 127.3 52.5 128 L 56 127 L 58 123 L 62 123 Q 60.9 119.7 65 121 L 65 119 L 68.5 119 L 72 118 L 72 116 L 75.5 116 Q 74.7 112.7 80 114 L 80 112 Q 84.1 113.3 83 110 L 86.5 110 L 90 109 L 90 107 L 94 107 L 94 105 Q 97 106 96 103 L 99 103 L 99 101 L 102.5 101 L 106 100 L 106 98 L 110 98 L 110 96 L 114 96 Q 112.8 93 116.5 94 L 117.5 93 Z "></path><path fill="rgb(39,108,43)" stroke="rgb(39,108,43)" stroke-width="1" opacity="0.9568627450980393" d="M 122 64 L 141.5 64 L 142.5 66 L 154.5 66 L 160 67 L 160 69 L 165 69 L 165 71 L 171 71 L 171 73 Q 177.3 71.5 176.5 75 L 181.5 75 L 185 76 L 185 78 L 191 78 L 191 80 Q 195.1 78.7 194 82 L 198.5 82 Q 197.5 85 202.5 84 L 207 85 L 207 87 Q 211.1 85.7 210 89 L 214 89 L 216 93 L 218.5 93 L 221 94 L 221 96 L 225 96 L 225 98 L 228 98 Q 226.9 100.7 229.5 100 L 233 101 L 233 103 L 237 103 L 239 107 L 242 107 Q 240.9 109.7 243.5 109 L 246 110 L 248 114 L 251 114 L 251 116 L 253 116 Q 251.9 118.7 254.5 118 L 257 119 L 257 121 Q 259.7 119.9 259 122.5 L 260 125 L 264 125 Q 262.9 127.7 265.5 127 L 268 128 L 269 132 Q 272 131 271 134 L 274.5 134 L 276 137 L 278 137 L 278 139 L 280 139 L 280 141 L 282 141 Q 280.9 143.7 283.5 143 L 285 146 L 287 146 L 287 148 L 289 148 L 291 152 L 293.5 152 L 296 153 L 296 155 L 298 155 L 300 159 L 303 159 Q 301.9 161.7 304.5 161 L 307 162 L 307 164 Q 309.7 162.9 309 165.5 L 310 168 L 314 169 L 314 171 L 316 171 L 316 173 Q 318.7 171.9 318 174.5 L 319 178 L 321 178 Q 319.8 183.3 323 182.5 L 323 193 L 321 193 L 321 191 Q 318.3 192.1 319 189.5 L 318 187 L 316 187 L 316 184 L 314 184 L 314 182 L 312 182 L 312 180 Q 309.3 181.1 310 178.5 L 307 177 L 307 175 L 303 175 L 303 173.5 L 302 171 Q 296.7 172.3 297.5 169 L 289.5 169 L 288.5 168 L 269 168 L 268 164 L 266 164 Q 267.1 161.3 264.5 162 L 262 161 L 262 159 Q 259.3 160.1 260 157.5 L 259 155 L 255 155 Q 256.1 152.3 253.5 153 L 251 152 L 250 148 Q 247 149 248 146 L 244 146 Q 245.1 143.3 242.5 144 L 241 141 L 239 141 L 239 139 L 237 139 L 235 135 L 232.5 135 L 230 134 L 230 132 L 228 132 L 226 128 L 223.5 128 L 221 127 L 221 125 L 217 125 Q 218.1 121.7 214 123 L 212 119 L 208.5 119 L 205 118 L 203 114 L 199 114 L 199 112 L 196 112 Q 197.1 109.3 194.5 110 L 189 109 L 189 107 L 185 107 L 185 105 Q 180.9 106.3 182 103 L 176.5 103 Q 177.5 99.7 171.5 101 L 165 100 L 165 98 Q 160.9 99.3 162 96 L 156.5 96 Q 157.5 92.8 151.5 94 L 150.5 93 L 117.5 93 L 114 94 L 114 96 L 110 96 L 110 98 L 106 98 Q 107.3 101 103.5 100 L 99 101 L 99 103 L 96 103 L 94 107 L 90 107 Q 91.3 110 87.5 109 L 83 110 L 83 112 Q 78.9 110.7 80 114 L 76 114 L 76 116 L 72 116 Q 73.3 119 69.5 118 L 65 119 L 65 121 Q 60.9 119.7 62 123 L 58 123 L 56 127 L 53.5 127 L 51 128 L 51 130 L 47 130 L 45 134 L 42.5 134 L 38 135 L 37 139 L 33 139 L 31 143 L 28.5 143 L 26 144 L 26 146 L 22 146 Q 23.1 149.3 19 148 L 17 152 L 13.5 152 L 10 153 L 8 157 L 4 157 L 4 159 Q 0.2 157.5 1 160.5 L 0 160.5 L 0 130.5 L 1 128 L 6 127 L 8 123 L 11 123 L 11 121 L 15 121 Q 13.9 118.3 16.5 119 L 20 118 L 22 114 L 26 114 L 26 112 L 29 112 Q 27.9 109.3 30.5 110 L 35 109 L 37 105 L 40 105 L 42 101 L 44.5 101 L 47 100 L 47 98 L 51 98 L 51 96 Q 55.1 97.3 54 94 L 57.5 94 L 62 93 Q 60.9 89.7 65 91 L 65 89 L 71 89 L 71 87 L 74 87 Q 72.9 84.3 75.5 85 L 80 84 L 80 82 L 83 82 L 83 80 L 87 80 L 87 78.5 L 88 76 L 96 75 L 96 73 Q 100.1 74.3 99 71 L 103 71 L 103 69 Q 107.1 70.3 106 67 L 111.5 67 L 112.5 66 L 122 66 L 122 64 Z "></path><path fill="rgb(0,0,0)" stroke="rgb(0,0,0)" stroke-width="1" opacity="0" d="M 0 0 L 400 0 L 400 264 L 398 264 L 398 261 Q 395.3 262.1 396 259.5 L 395 257 L 391 255 L 391 252 L 389 252 L 389 250 Q 386.3 251.1 387 248.5 L 386 246 L 384 246 L 384 243 L 382 243 L 382 241 Q 379.3 242.1 380 239.5 L 377 238 Q 378 235 375 236 L 375 232 L 373 232 Q 374.1 229.3 371.5 230 L 370 227 L 366 225 L 366 221 L 364.5 221 L 362 220 L 361 216 L 359 216 L 359 214 L 357 214 Q 358.1 211.3 355.5 212 L 353 211 L 352 207 L 350 207 Q 351.1 204.3 348.5 205 L 346 204 L 346 202 L 343 202 L 341 198 L 330.5 198 L 330 196 L 328.5 196 L 327 194.5 L 327 184 L 325 184 L 325 178.5 L 323.5 178 L 321 177 L 321 173 Q 318.3 174.1 319 171.5 L 318 169 L 314 168 L 314 166 L 312 166 L 312 164 Q 309.3 165.1 310 162.5 L 307 161 L 305 157 L 302 157 L 302 155 L 300 155 Q 301.1 152.3 298.5 153 L 294 152 L 293 148 L 291 148 L 291 146 L 289 146 Q 290.1 143.3 287.5 144 L 285 143 L 284 139 L 282 139 L 282 137 L 280 137 Q 281.1 134.3 278.5 135 L 276 134 L 276 132 L 273 132 L 273 130 L 271 130 Q 272.1 127.3 269.5 128 L 268 125 Q 265 126 266 123 L 262 123 L 262 121 Q 259.3 122.1 260 119.5 L 257 118 L 257 116 L 255 116 L 253 112 L 250 112 Q 251.1 109.3 248.5 110 L 246 109 L 246 107 Q 243 108 244 105 L 241 105 L 239 101 L 235.5 101 L 233 100 L 233 98 L 230 98 L 230 96 L 226 96 L 226 94.5 Q 224.8 92 221 93 L 221 91 L 217 91 L 217 89.5 L 216 87 Q 210.7 88.3 211.5 85 L 208.5 85 L 205 84 L 205 82 L 201 82 L 201 80 Q 196.9 81.3 198 78 L 192.5 78 Q 193.5 74.8 187.5 76 L 183 75 L 183 73 L 178 73 L 178 71 Q 172.8 72.7 174 69 Q 167.7 70.5 168.5 67 L 164.5 67 L 158 66 L 158 64 L 149.5 64 L 148.5 62 L 114 62 L 114 64 L 108.5 64 L 108 66 L 105.5 66 L 101 67 L 101 69 L 97 69 L 97 71 Q 92.9 69.7 94 73 L 90 73 Q 91.3 76 87.5 75 L 83 76 L 81 80 L 78 80 L 78 82 L 74 82 Q 75.1 84.7 72.5 84 L 69 85 L 69 87 L 63 87 L 63 89 Q 58.9 87.7 60 91 L 56 91 Q 57.3 94 53.5 93 L 49 94 L 49 96 L 45 96 L 45 97.5 L 44 100 L 37 101 L 35 105 L 31 105 L 31 107 Q 28.3 105.9 29 108.5 Q 27.8 111 24 110 L 24 112 Q 21 111 22 114 L 19 114 L 19 116 Q 13.7 114.7 14.5 118 L 11.5 118 L 10 121 L 6 121 L 6 123 Q 3 122 4 125 L 1 125 L 1 126.5 L 0 126.5 L 0 0 Z "></path><path fill="rgb(0,0,0)" stroke="rgb(0,0,0)" stroke-width="1" opacity="0" d="M 119 94 L 148.5 94 L 149 96 L 154.5 96 L 155 98 L 159.5 98 Q 158.5 101 163.5 100 L 169 101 L 169 103 L 174 103 L 174 105 Q 179.2 103.3 178 107 L 182.5 107 Q 181.5 110 186.5 109 L 192 110 L 192 112 L 196 112 L 198 116 L 201 116 Q 199.9 118.7 202.5 118 L 207 119 L 207 121 L 210 121 L 212 125 L 216 125 Q 214.8 128 218.5 127 L 221 128 L 221 130 L 225 130 L 225 131.5 L 226 134 L 230 135 L 230 137 L 233 137 L 233 139 L 235 139 L 235 141 L 237 141 Q 235.9 143.7 238.5 143 L 241 144 L 241 146 L 244 146 L 244 148 L 246 148 L 246 150 L 248 150 Q 246.9 152.7 249.5 152 L 251 155 L 255 155 L 255 157 L 257 157 L 257 159 Q 259.7 157.9 259 160.5 L 262 162 L 264 166 L 250.5 166 L 249.5 164 L 191.5 164 L 190.5 162 L 158.5 162 L 157.5 161 L 6 161 L 6 159 L 10 159 Q 8.9 155.7 13 157 L 15 153 L 18.5 153 L 22 152 L 24 148 L 28 148 L 28 146.5 L 29 144 L 35 143 L 35 141 Q 39.1 142.3 38 139 L 42 139 L 44 135 L 46.5 135 L 49 134 L 51 130 Q 55.1 131.3 54 128 L 57.5 128 L 60 127 L 60 125 Q 64.1 126.3 63 123 L 67 123 L 67 121 L 71 121 Q 69.8 118 73.5 119 L 78 118 L 78 116 Q 82.1 117.3 81 114 L 87 114 L 87 112 L 90 112 Q 88.9 109.3 91.5 110 L 96 109 L 97 105 L 101 105 L 101 103 L 105 103 Q 103.8 100 107.5 101 L 112 100 L 112 98 Q 116.1 99.3 115 96 L 119 96 L 119 94 Z "></path><path fill="rgb(0,0,0)" stroke="rgb(0,0,0)" stroke-width="1" opacity="0" d="M 210 248 Q 213.1 247.3 212.5 250 L 241 250 L 241.5 248 L 242 250 L 272.5 250 L 275 253.5 L 278 255 Q 277 258 280 257 L 280 261 L 282 261 Q 280.9 263.7 283.5 263 L 285 266 L 287 266 L 287 270 L 289 270 Q 287.9 272.7 290.5 272 L 293 273 L 294 277 L 296 277 L 296 279 L 300 281 L 300 284 Q 302.7 282.9 302 285.5 L 303 288 L 307 289 L 307 291 Q 309.7 289.9 309 292.5 L 310 295 L 312 295 L 312 298 L 314 298 L 314 300 L 316 300 L 316 302 Q 318.7 300.9 318 303.5 L 319 306 L 323 307 L 323 309 L 327 311 L 327 314.5 L 330 316 L 330 318 L 332 318 L 332 320 L 334 320 Q 332.9 322.7 335.5 322 L 337 325 L 339 325 L 339 329 L 341 329 Q 339.9 331.7 342.5 331 L 344 334 L 346 334 L 346 336 L 348 336 L 348 338 L 352 340 L 352 343 L 355 343 L 355 347 L 357 347 Q 355.9 349.7 358.5 349 L 361 350 L 362 354 Q 365.3 352.9 364 357 L 368 357 Q 367 360 370 359 L 370 362.5 L 371 365 L 375 366 L 375 368 L 377 368 L 377 370 Q 379.7 368.9 379 371.5 L 380 374 L 384 375 L 384 379 Q 386.7 377.9 386 380.5 L 387 383 L 391 384 L 391 386 L 393 386 L 393 388 Q 395.7 386.9 395 389.5 L 396 392 L 400 393 L 400 399.5 L 399.5 400 L 0 400 L 0 254.5 L 0.5 254 L 39.5 254 Q 38.9 251.2 42 252 L 42.5 254 L 87 254 L 87.5 252 L 88 254 L 154.5 254 L 155 252.5 L 156 252.5 L 156.5 254 L 162 254 L 162.5 252 L 181.5 252 L 182.5 250 L 209.5 250 L 210 248 Z "></path><path fill="rgb(22,160,239)" stroke="rgb(22,160,239)" stroke-width="1" opacity="1" d="M 275 168 L 298 169 L 298 171 L 302 171 L 302 172.5 L 303 175 L 307 175 Q 305.9 177.7 308.5 177 L 310 180 L 314 182 L 314 186 L 315.5 186 L 315.5 187 L 312 186 L 312 184 Q 309.3 185.1 310 182.5 L 309 180 L 305 180 Q 306.1 177.3 303.5 178 L 300 177 L 300 175 Q 294.7 176.3 295.5 173 L 291 173 L 290.5 171 L 275.5 171 L 275 168 Z "></path><path fill="rgb(23,158,232)" stroke="rgb(23,158,232)" stroke-width="1" opacity="0.9411764705882353" d="M 269.5 168 L 275 168.5 L 269.5 169 L 269.5 168 Z "></path><path fill="rgb(23,158,232)" stroke="rgb(23,158,232)" stroke-width="1" opacity="0.9411764705882353" d="M 314 184 Q 317 183 316 186 Q 313 187 314 184 Z "></path><path fill="rgb(23,158,232)" stroke="rgb(23,158,232)" stroke-width="1" opacity="0.9411764705882353" d="M 316 187 Q 318.7 185.9 318 188.5 L 319 191 L 321 191 L 323 195 L 321 195 L 321 193 Q 318.3 194.1 319 191.5 L 318 189 Q 315 190 316 187 Z "></path><path fill="rgb(16,168,254)" stroke="rgb(16,168,254)" stroke-width="1" opacity="0.3176470588235294" d="M 3.5 161 L 157.5 161 L 158.5 162 L 191 162 L 191.5 164 L 249.5 164 L 250.5 166 L 267.5 166 L 268 168 L 210.5 168 L 209.5 166 L 169.5 166 L 168.5 164 L 0.5 164 L 0 162 L 3.5 161 Z "></path><path fill="rgb(16,168,254)" stroke="rgb(16,168,254)" stroke-width="1" opacity="0.3176470588235294" d="M 323 193 Q 326 192 325 195 L 327.5 195 L 330 196 L 330.5 198 L 341 198 L 343 202 L 346 202 Q 344.9 204.7 347.5 204 L 350 205 L 350 207 Q 352.7 205.9 352 208.5 L 353 211 L 357 212 L 357 214 L 359 214 L 359 216 Q 361.7 214.9 361 217.5 L 362 220 L 366 221 L 366 225 L 368 225 L 368 227 Q 370.7 225.9 370 228.5 L 373 230 Q 372 233 375 232 L 375 236 L 377 236 Q 375.9 238.7 378.5 238 L 380 241 L 384 243 L 384 246 Q 386.7 244.9 386 247.5 L 387 250 L 391 252 L 391 255 L 393 255 L 393 257 Q 395.7 255.9 395 258.5 L 396 261 L 398 261 Q 396.7 265.1 400 264 L 400 268 L 398 268 L 398 266 Q 395.3 267.1 396 264.5 L 393 263 L 393 259 L 391 259 L 391 257 L 389 257 Q 390.1 254.3 387.5 255 Q 385 253.8 386 250 L 384 250 L 384 248 L 382 248 Q 383.1 245.3 380.5 246 L 379 243 L 377 243 L 377 239 L 375.5 239 L 373 238 L 373 236 Q 370.3 237.1 371 234.5 L 370 230 L 366 229 L 366 227 L 364 227 L 364 225 Q 361.3 226.1 362 223.5 L 361 220 L 359 220 L 359 218 L 357 218 L 357 216 L 355 216 L 355 214 Q 352.3 215.1 353 212.5 L 350 211 L 348 207 L 344 207 L 344 205.5 Q 342.8 203 339 204 L 338.5 202 L 328.5 202 L 328 200.5 L 327 198 L 323 196 L 323 193 Z "></path><path fill="rgb(16,168,254)" stroke="rgb(16,168,254)" stroke-width="1" opacity="0.3176470588235294" d="M 183 246 L 274.5 246 L 275 247.5 L 276 250 L 278 250 L 278 254 L 279.5 254 L 282 255 L 282 257 Q 284.7 255.9 284 258.5 L 285 263 L 289 264 L 289 266 L 291 266 L 291 268 Q 293.7 266.9 293 269.5 L 294 272 L 296 272 L 296 275 L 298 275 L 298 277 L 300 277 L 300 279 Q 302.7 277.9 302 280.5 L 305 282 L 305 284 L 309 286 L 309 288.5 L 310 291 L 312 291 L 312 293 L 314 293 L 314 295 L 316 295 Q 314.9 297.7 317.5 297 L 319 300 L 321 300 L 321 304 L 323 304 Q 321.9 306.7 324.5 306 L 327 307 L 328 311 L 330 311 L 330 313 L 334 315 L 334 318 Q 336.7 316.9 336 319.5 L 337 322 L 341 323 L 341 325 Q 343.7 323.9 343 326.5 L 344 329 L 348 331 L 348 334 L 350 334 L 350 336 Q 352.7 334.9 352 337.5 L 353 340 L 357 341 L 357 343 L 359 343 L 359 345 Q 361.7 343.9 361 346.5 L 362 350 L 364 350 L 364 352 L 366 352 L 366 354 L 368 354 Q 366.9 356.7 369.5 356 L 371 359 L 373 359 L 373 361 L 375 361 L 375 363 L 379 365 L 379 367.5 L 380 370 L 382 370 L 382 372 L 384 372 Q 382.9 374.7 385.5 374 L 387 377 L 389 377 L 389 379 L 391 379 L 391 381 L 393 381 Q 391.9 383.7 394.5 383 Q 397 384.2 396 388 L 400 390 L 400 393 L 396 392 L 395 388 L 393 388 L 393 386 L 391 386 Q 392.1 383.3 389.5 384 L 387 383 L 386 379 L 384 379 L 384 375 L 382.5 375 L 380 374 L 379 370 L 377 370 L 377 368 L 375 368 Q 376.1 365.3 373.5 366 L 371 365 L 370 359 Q 367 360 368 357 L 364 357 L 364 354 Q 361.3 355.1 362 352.5 L 361 350 L 357 349 Q 358 346 355 347 L 355 343 L 352 343 L 352 340 L 350 340 L 350 338 L 348 338 L 348 336 L 346 336 L 346 334 Q 343.3 335.1 344 332.5 L 341 331 Q 342 328 339 329 L 339 325 Q 336.3 326.1 337 323.5 L 334 322 L 334 320 L 332 320 L 332 318 L 330 318 Q 331.1 315.3 328.5 316 Q 326 314.8 327 311 L 325 311 L 325 309 L 323 309 Q 324.1 306.3 321.5 307 L 319 306 L 318 302 L 316 302 L 316 300 L 312 298 L 312 295 Q 309.3 296.1 310 293.5 L 309 291 L 307 291 Q 308.1 288.3 305.5 289 L 303 288 L 302 284 L 300 284 L 300 281 L 298 281 L 298 279 L 296 279 L 296 277 Q 293.3 278.1 294 275.5 L 293 273 L 289 272 Q 290 269 287 270 L 287 266 Q 284.3 267.1 285 264.5 L 282 263 Q 283 260 280 261 L 280 257 L 278 257 Q 279.1 254.3 276.5 255 L 275 252 Q 271.9 252.8 272.5 250 L 242.5 250 L 242 248.5 L 241 248.5 L 240.5 250 L 212 250 Q 213 247 210 248 L 209.5 250 L 182.5 250 L 181.5 252 L 162.5 252 L 162 254 L 156 254 L 155.5 252 L 155 254 L 88.5 254 L 88 252.5 L 87 252.5 L 86.5 254 L 42 254 Q 43 251 40 252 L 39.5 254 L 0 254 L 0.5 250 L 164.5 250 L 165.5 248 L 182.5 248 L 183 246 Z "></path><path fill="rgb(21,165,255)" stroke="rgb(21,165,255)" stroke-width="1" opacity="0.996078431372549" d="M 0 164 L 168.5 164 L 169.5 166 L 209.5 166 L 210.5 168 L 268.5 168 L 275 169 L 275.5 171 L 290.5 171 L 291 173 L 296 173 L 296 175 L 300 175 Q 298.8 178 302.5 177 L 305 178 L 305 180 L 309 180 L 309 181.5 L 310 184 L 312 184 Q 310.9 186.7 313.5 186 L 316 187 L 316 189 Q 318.7 187.9 318 190.5 L 319 193 L 321 193 Q 319.9 195.7 322.5 195 L 325 196 L 325 198 Q 327.7 196.9 327 199.5 L 328 202 L 338.5 202 Q 337.5 205 342.5 204 L 344 207 L 348 207 L 348 209 L 350 209 Q 348.9 211.7 351.5 211 L 353 214 L 355 214 L 355 216 L 357 216 L 357 218 L 361 220 L 361 222.5 L 362 225 L 364 225 L 364 227 L 366 227 Q 364.9 229.7 367.5 229 L 370 230 L 371 236 L 373 236 Q 371.9 238.7 374.5 238 L 377 239 L 377 243 Q 379.7 241.9 379 244.5 L 382 246 L 382 248 L 386 250 L 386 253.5 L 389 255 L 389 257 L 393 259 L 393 263 L 394.5 263 L 396 266 L 398 266 Q 397.3 269.1 400 268.5 L 400 390 L 396 388 L 396 384.5 L 393 383 L 393 381 L 391 381 L 391 379 L 389 379 L 389 377 Q 386.3 378.1 387 375.5 L 384 374 L 384 372 L 382 372 L 382 370 Q 379.3 371.1 380 368.5 L 379 365 L 377 365 L 377 363 L 375 363 L 375 361 L 373 361 L 373 359 Q 370.3 360.1 371 357.5 L 368 356 L 368 354 L 366 354 L 366 352 L 362 350 L 362 347.5 L 361 345 L 359 345 L 359 343 L 357 343 Q 358.1 340.3 355.5 341 L 353 340 L 352 336 L 348 334 L 348 331 L 346 331 L 346 329 Q 343.3 330.1 344 327.5 L 343 325 L 341 325 Q 342.1 322.3 339.5 323 L 337 322 L 336 318 L 334 318 L 334 315 L 332 315 L 332 313 L 330 313 L 330 311 Q 327.3 312.1 328 309.5 L 327 307 L 323 306 Q 324 303 321 304 L 321 300 Q 318.3 301.1 319 298.5 L 316 297 L 316 295 L 314 295 L 314 293 L 312 293 L 312 291 Q 309.3 292.1 310 289.5 L 309 286 L 307 286 L 307 284 L 305 284 Q 306.1 281.3 303.5 282 L 302 279 L 300 279 L 300 277 L 296 275 L 296 272 Q 293.3 273.1 294 270.5 L 293 268 L 291 268 L 291 266 L 289 266 Q 290.1 263.3 287.5 264 L 285 263 L 284 257 L 282 257 Q 283.1 254.3 280.5 255 L 278 254 L 278 250 Q 275.3 251.1 276 248.5 L 275 246 L 183.5 246 L 182.5 248 L 165.5 248 L 164.5 250 L 0 250 L 0 164 Z "></path></svg>