<svg width="400" height="400" version="1.1" xmlns="http://www.w3.org/2000/svg" desc="Created with imagetracer.js version 1.2.5"><path fill="rgb(38,255,0)" stroke="rgb(38,255,0)" stroke-width="1" opacity="0.996078431372549" d="M 2 0 Q 6.7 -1 8 2.5 L 6 3.5 L 7 4.5 L 5.5 7 L 7.5 6 L 6 8.5 L 5.5 10 Q 4.3 7.8 3 10.5 L 2 14.5 L 5 13.5 L 2 21.5 L 4 21.5 L 3.5 24 L 2 23.5 Q 1.3 25.8 3.5 25 L 2 27.5 L 2.5 30 L 4 29.5 L 1 33.5 L 2.5 34 Q 3.7 31.7 5 34.5 L 3 35.5 Q 5.5 37 2 38.5 L 1 40.5 L 2 42.5 L 1.5 44 L 3 44.5 L 1 51.5 L 4 54.5 L 3 55.5 Q 4.5 59.9 1.5 59 L 2 60.5 L 2.5 62 L 4 61.5 L 1 62.5 L 2 68 L 4 68.5 L 2.5 69 L 1 68.5 Q -0.3 72.3 3.5 71 L 3.5 72 Q 1.3 71.3 2 73.5 L 3.5 77 L 6 76 Q 7.3 79 3.5 78 L 2.5 80 Q 5.1 79.2 4 82.5 L 3 83.5 L 5 85.5 L 4 86.5 L 5.5 89 L 4 88.5 L 5 93 Q 2 92 3 95 L 5.5 94 L 7 96.5 L 6 98.5 L 8 98.5 L 5 99.5 Q 4.3 101.8 6.5 101 L 10 102.5 L 7 103 L 6 105.5 L 8 108.5 L 7.5 110 L 9.5 111 L 11 110.5 L 10.5 113 L 8.5 112 L 11 115.5 L 12.5 119 L 14 118.5 L 13 120.5 L 15 120.5 Q 11.3 122.3 14.5 124 L 16.5 123 Q 20.8 124.7 18 126.5 L 20 130.5 L 19.5 132 Q 21.8 131.3 21 133.5 L 23 133.5 L 22 136.5 L 27 139.5 L 27 141.5 L 29.5 145 L 31.5 146 L 33 145.5 Q 34.3 149.3 30.5 148 L 30.5 149 L 35 150 L 35 154 L 36.5 154 L 38 153.5 L 38.5 156 L 40.5 155 L 40.5 156 Q 37.9 155.2 39 158.5 L 40 158.5 L 40.5 157 L 41 159 L 43.5 158 L 43 159.5 L 44 163 L 47 163.5 L 45 164.5 L 48 165 Q 46.9 167.7 49.5 167 Q 50.3 170.7 55.5 170 L 57 169.5 L 55 173.5 L 57 173.5 L 57.5 175 L 58.5 173 L 59 174.5 L 58.5 176 L 61.5 178 L 64.5 176 L 68.5 184 L 69.5 182 L 70 184 L 73 183.5 L 71 182.5 L 72.5 182 Q 75.3 183.3 73 184.5 Q 72.2 187.1 75.5 186 L 77.5 189 L 79 188.5 Q 78.1 191.5 82.5 190 L 85 191 L 86.5 194 L 88.5 193 L 90.5 194 L 92 193.5 L 90.5 196 L 92.5 195 Q 93 198.5 97.5 198 L 97.5 196 L 105.5 202 L 107.5 201 L 107.5 202 L 106 202.5 L 110.5 204 L 113.5 202 L 114.5 204 L 111 204.5 L 122.5 207 L 124 206.5 Q 121.8 207.8 124.5 209 L 127 208 L 127.5 206 L 128.5 208 L 127 208.5 L 129.5 210 L 132 208.5 L 131 210.5 L 132.5 210 L 135.5 208 L 136 210.5 Q 135.4 215.1 138 216.5 L 135.5 217 L 131 218.5 L 132 221 L 129.5 220 L 128 222.5 L 130 222.5 L 123 225.5 L 123.5 227 L 125 226.5 Q 124 229 119.5 228 L 117.5 230 L 116 229.5 L 117 232.5 L 115 233 L 114.5 235 L 114 233.5 L 114.5 232 Q 110.8 230.8 112 234.5 L 113.5 237 Q 111.8 233.3 110 236.5 L 110.5 238 L 109.5 235 L 107 236.5 L 106.5 240 L 106 238 L 104 238.5 L 104.5 240 L 102.5 239 L 103 240.5 L 104 242.5 L 102 243.5 Q 104.3 242.3 101.5 241 Q 99.3 240.3 100 242.5 Q 96.9 244.3 98.5 246 Q 97.2 243.8 96 246.5 L 95.5 248 Q 94.3 245.7 93 248.5 L 91.5 251 Q 87.3 249.7 89 254.5 L 89.5 256 L 86 254 L 83 258.5 L 83.5 262 L 82 261.5 L 81.5 264 L 81 262 Q 76.9 260.3 78 264.5 Q 75.3 265.6 76 269 Q 73.3 267.9 74 270.5 L 75.5 270 Q 78.1 269.2 77 272.5 L 76 272.5 L 75.5 271 L 72 272 L 72.5 274 L 74 273.5 Q 69.8 275.3 70.5 282 L 70 280 L 68 280.5 L 68.5 284 L 67 283.5 L 68 285.5 Q 65.2 287.5 66 292 Q 68.7 290.9 68 293.5 L 66.5 293 Q 63.5 292.1 65 296.5 L 65 298.5 L 65.5 300 L 67 299.5 Q 65.8 302.3 64.5 300 L 63 300.5 L 66 306.5 L 64.5 309 Q 63.3 306.8 62 309.5 L 63 311.5 L 62.5 313 L 64 313.5 L 63 317 L 66 318.5 L 64.5 318 L 63 318.5 L 64 320.5 L 63 324 L 65 324.5 L 63 325 L 62 328.5 L 64 328.5 L 63 330.5 L 64 331.5 L 62.5 334 L 64.5 333 L 64 334.5 L 62 339.5 L 64 340 Q 62.9 337.3 65.5 338 L 64.5 342 L 63 342.5 L 65.5 344 Q 66.8 341.8 68 344.5 L 65.5 345 Q 62.9 344.3 64 347 L 66.5 346 L 67 348 L 65 348.5 L 65.5 351 L 67 351.5 L 65 352 L 65.5 354 L 67 353.5 L 66 356.5 L 67 356.5 L 67.5 355 L 68 357.5 L 67 359.5 L 69.5 363 L 71 363.5 L 70.5 365 L 74 365.5 L 73 367.5 L 75 367.5 L 75.5 369 L 77.5 366 L 77 367.5 Q 75.9 370.8 78.5 370 L 80.5 371 L 80.5 369 Q 82.8 368.3 82 370.5 L 83 370.5 Q 81.9 367.2 84.5 368 L 84.5 371 L 83 371.5 Q 84.3 374.3 85.5 372 L 88.5 371 L 89.5 372 L 92 370.5 Q 91.3 372.8 93.5 372 L 95.5 372 L 98 370.5 Q 95.7 369.3 98.5 368 L 98.5 370 Q 101.1 370.8 100 367.5 L 101 367.5 Q 100.3 370.1 103 369 Q 101.8 366 105.5 367 L 105.5 365 L 107.5 366 L 109.5 366 Q 112.8 367.1 112 364.5 L 110.5 362 L 115.5 365 L 116 363.5 Q 112.3 361.8 115.5 360 L 116.5 363 Q 119.3 361.8 117 360.5 L 117.5 359 L 118.5 361 L 119.5 360 L 122 361.5 Q 121.3 359.3 123.5 360 L 128 357.5 L 126 357 L 126.5 355 L 129.5 356 L 129.5 354 L 131 354.5 L 132.5 351 L 135 352 Q 133.9 349.3 136.5 350 L 139 348.5 L 138.5 345 L 140.5 346 Q 143.3 344.8 141 343.5 L 141.5 342 L 144 343.5 L 143 341.5 Q 145 343.2 147 339.5 L 146.5 338 L 148 338.5 L 147 336.5 L 151 335.5 L 150.5 334 Q 151.8 336.2 153 333.5 L 150 332.5 L 151.5 330 L 152.5 332 L 155.5 328 L 154 327.5 L 159 325.5 L 158.5 324 L 160 323.5 L 158 322.5 L 161 322 L 163 316.5 L 161 316.5 L 162.5 315 Q 164.3 318.8 166 315.5 L 167 313.5 L 166 310.5 L 167 308 L 169 307.5 L 167.5 305 L 170.5 306 L 171 303.5 L 168 302.5 L 169 300.5 L 168.5 299 L 170 302 L 172 301.5 L 170 298.5 L 175 291.5 L 173 290.5 L 176 289.5 L 176 287.5 L 174.5 285 Q 172.3 285.8 173 283.5 L 174.5 284 Q 176.8 284.8 176 282.5 L 176 280.5 L 176 278 Q 173 279.3 174 275.5 L 175 275.5 L 175.5 277 L 177 274.5 L 177 272.5 L 178 269.5 L 176 268.5 L 177 265.5 L 177 263.5 L 176 260.5 L 177 257.5 L 176.5 254 L 175 254.5 L 176.5 252 L 177.5 254 L 178 248.5 L 177 248.5 L 176.5 250 L 175.5 248 Q 178.1 248.8 177 245.5 L 177 243.5 L 176 240.5 L 177 238.5 L 176.5 237 L 178 236.5 L 176 235.5 L 178 230.5 L 175.5 224 L 174 224.5 L 175 220 L 178 218.5 L 177.5 217 Q 182.3 215.7 183.5 218 L 186 217 L 186.5 220 L 189.5 218 L 191.5 221 L 194.5 219 L 196.5 220 L 196.5 218 L 198.5 217 L 198 218.5 L 197 221.5 L 201.5 222 L 201.5 221 L 199 220.5 L 200.5 219 L 203.5 222 L 206.5 219 L 208 219.5 L 206 220 L 207 224 L 209 223.5 L 208.5 222 L 211.5 225 L 212.5 224 L 216.5 225 L 220.5 223 L 235.5 225 L 264.5 236 Q 282.7 243.3 295 256.5 L 299.5 262 L 302 263.5 L 301.5 265 L 305 264 Q 304.3 267.8 307.5 269 Q 309.8 268.3 309 270.5 Q 311.8 268.6 314.5 274 Q 316.8 273.3 316 275.5 L 317.5 275 L 321 276.5 L 319 279.5 L 321.5 280 L 323 280.5 L 321 281.5 L 323.5 283 L 324.5 280 L 327 280.5 L 325 284.5 L 328.5 287 Q 329.8 284.8 331 287.5 L 330 291 Q 333.7 289.5 333 292.5 L 332 293.5 Q 337.4 296.3 335.5 299 L 337.5 298 L 341 301.5 L 339.5 304 L 342.5 303 L 342.5 305 Q 345.8 303.9 345 306.5 L 345 308.5 L 346.5 311 L 348 310.5 L 347 313.5 L 350 315 Q 350.2 321 355 323.5 L 354 325.5 L 357 326.5 L 356 330 L 358 330.5 L 358 332.5 L 359 335.5 L 358.5 337 L 363.5 336 L 363 337.5 L 362 339.5 Q 364.5 341 361 342.5 L 363 344.5 L 363.5 348 L 364.5 345 Q 367.8 346.8 364 348.5 L 366 351.5 L 366 353.5 L 365 355.5 L 367.5 359 L 368.5 357 L 369 359 L 371 359.5 L 369.5 360 L 368 359.5 L 367 361.5 L 369 362.5 Q 368.3 360.3 370.5 361 L 371.5 363 L 370 362.5 L 369 365.5 L 372 366.5 L 371 368.5 L 372.5 372 L 374 372.5 L 372.5 373 L 371 372.5 L 374 377.5 L 373 379.5 L 375 379.5 L 374 381.5 L 376 385 L 378 385.5 L 376 386.5 L 377.5 389 L 376 388.5 L 375 390.5 L 377 395 Q 379.7 393.9 379 396.5 L 382.5 398 L 384 397.5 L 385 399.5 L 373 400 L 370 374.5 Q 360.1 354.4 354 330.5 L 345 313.5 L 311.5 275 L 303 269.5 L 291.5 254 L 288.5 252 L 280.5 251 L 273 245.5 L 268.5 239 L 235.5 226 L 222.5 224 L 215.5 227 L 207.5 227 L 179 221 L 181 230.5 L 181 272.5 L 180 273.5 L 180 281.5 L 177 298.5 L 172 311.5 L 162 327.5 L 135.5 356 L 113.5 370 L 96.5 374 L 87.5 378 L 79.5 378 Q 72.8 375.8 69 370.5 Q 62.9 361.1 60 348.5 Q 61.5 343 59 341.5 L 59 313.5 L 60 312.5 L 61 292.5 L 64 279.5 Q 73.9 258.9 90.5 245 L 132 214.5 L 130.5 213 L 126.5 213 L 109.5 208 L 71.5 189 Q 48.4 174.6 31 154.5 L 8 121.5 L 3 109.5 L 0 93.5 L 0 47.5 L 0 45.5 L 0 8.5 L 2 0 Z M 203 35 Q 200 37 203 38 Q 206 37 203 35 Z M 72 82 L 72 84 L 74 83 L 72 82 Z M 3 84 Q 1 87 4 86 L 3 84 Z M 4 96 L 4 98 L 6 97 L 4 96 Z M 16 125 L 16 129 L 17 129 Q 18 124 16 125 Z M 169 130 L 166 132 L 169 132 L 169 130 Z M 184 195 L 184 197 L 187 196 L 184 195 Z M 377 200 Q 375 203 378 202 L 377 200 Z M 368 208 Q 368 212 370 209 L 368 208 Z M 364 209 Q 361 213 355 213 L 361 213 L 365 211 Q 368 212 367 210 L 366 210 L 364 209 Z M 330 287 L 328 289 L 330 289 L 330 287 Z "></path><path fill="rgb(38,255,0)" stroke="rgb(38,255,0)" stroke-width="1" opacity="0.996078431372549" d="M 30 0 Q 33.8 -1.5 33 1.5 L 30 8.5 L 29 23.5 L 28 24.5 L 28 82.5 L 33 105.5 L 55.5 137 L 59 127.5 L 60 111.5 L 64 92.5 L 73 72.5 L 87.5 55 L 96.5 48 L 113.5 40 L 121.5 34 L 148.5 23 L 156.5 18 L 165.5 17 L 179.5 12 L 188.5 12 L 199 18.5 Q 211.2 33.8 211 61.5 Q 203 106 175.5 131 Q 161.2 143.7 142.5 152 L 133.5 154 L 113.5 154 L 104.5 157 L 87 159 L 86 161.5 L 98.5 170 L 128.5 183 L 158.5 189 L 180.5 191 L 202.5 195 L 207.5 197 L 229.5 200 L 258.5 210 L 261 207.5 L 261 196.5 L 266.5 189 Q 286.8 180.8 303.5 169 L 323.5 164 L 341.5 156 L 349.5 154 L 358.5 154 L 359.5 153 L 375.5 153 L 390.5 157 L 396.5 161 L 400 161 L 399.5 164 L 386.5 160 L 384.5 160 L 381.5 158 L 379 159.5 L 379.5 158 L 376.5 157 L 374.5 157 L 371.5 158 L 371 156 L 367.5 157 L 365.5 157 L 362.5 156 L 362.5 158 L 358.5 156 L 355.5 157 L 348.5 157 L 340.5 160 L 338.5 160 Q 335.2 158.9 336 161.5 L 333.5 162 Q 330.2 160.9 331 163.5 L 328.5 164 L 325.5 165 L 323.5 165 L 298 175 L 297.5 177 L 295.5 177 L 288.5 181 L 286.5 181 L 277 185 Q 278.7 189.1 274.5 188 L 273 191 L 271 191.5 L 271.5 193 L 270 193.5 L 270.5 195 L 269 195.5 Q 271.5 197 268 198.5 L 268 201.5 L 263 208.5 Q 265.3 209.8 262.5 211 L 254 212.5 L 254.5 214 L 253 211 L 249 212 L 248.5 210 L 246.5 210 L 234.5 205 L 232.5 206 L 230 205 L 229.5 203 L 225.5 205 L 224.5 203 L 224 205 L 217.5 202 L 215 203.5 L 216 201 L 213 201.5 L 213.5 203 Q 212 199.5 210.5 202 L 205.5 200 L 205.5 202 L 204.5 199 L 195.5 198 L 193.5 198 Q 190.5 197.2 192 201 L 189.5 201 L 189.5 200 Q 191.8 200.8 191 198.5 L 191.5 197 Q 189.3 197.8 190 195.5 L 188.5 196 Q 186.3 195.3 187 197.5 L 187.5 199 L 183 196.5 Q 184.1 193.2 181.5 194 L 178.5 196 L 174.5 194 L 172.5 195 Q 171.5 192 166.5 193 L 166.5 195 L 164.5 192 Q 162.5 196 160.5 192 L 156.5 193 L 154.5 192 L 154.5 194 L 153 190 L 150 190.5 L 150.5 192 L 147.5 191 L 144.5 192 L 145.5 189 Q 140.1 190.9 141 187.5 L 139.5 188 L 137.5 187 L 136.5 189 L 132.5 187 L 129.5 185 L 127 186.5 L 125.5 184 L 122.5 185 L 114.5 181 L 113 181.5 L 113.5 180 L 106 179 L 107 176.5 L 104 176 L 105 180 L 103 179.5 L 103 177.5 Q 104.1 174.2 101.5 175 Q 100.4 172.3 97 173 Q 98.3 169.7 93.5 171 L 91.5 170 L 91.5 172 L 90.5 169 L 88 169 Q 89.5 165.2 86.5 166 L 84 165 L 80 158 L 87 157 L 87.5 154 L 89.5 155 L 92.5 153 L 95.5 154 L 97.5 154 L 101 152.5 L 100 150.5 L 102 151.5 L 102.5 154 L 103 152 L 106.5 153 L 105 150.5 L 106.5 149 L 110 149.5 L 110.5 148 L 111 149.5 L 110 152 L 115.5 151 L 119 151.5 L 118 148.5 L 119 148.5 L 120 152 L 122 151.5 L 121 149.5 L 123.5 151 L 125 150.5 L 124.5 149 L 128 148.5 L 126.5 146 Q 130.8 147.7 128 149.5 L 128.5 151 L 131 149.5 L 130.5 148 L 133 149 L 133.5 147 L 136 147.5 L 135.5 149 L 138 148.5 L 137.5 147 L 139.5 147 L 141 146.5 L 137 145.5 L 139 144.5 L 138.5 143 Q 140.8 147.3 143 145.5 L 142.5 147 L 145 146.5 L 144.5 143 L 148.5 145 L 148.5 144 L 146 142.5 L 147.5 143 L 149.5 144 L 150.5 142 Q 151.8 144.3 153 141.5 L 153.5 139 L 154.5 141 L 157 139.5 L 156.5 138 L 159 137.5 L 158.5 136 L 160.5 137 L 159.5 134 L 161.5 135 L 163 134.5 L 162.5 136 Q 165.1 136.7 164 134 L 166 134 L 166 132 L 164 131.5 L 166 130.5 L 165.5 129 L 167.5 130 L 169.5 130 L 171 129.5 Q 168.8 128.3 171.5 127 L 173.5 126 L 175 126.5 Q 173.9 123.2 176.5 124 L 181.5 118 L 184 116.5 L 185 114.5 L 184.5 113 L 187 111.5 L 188 107.5 L 187.5 106 L 189.5 107 L 190.5 105 L 189 104.5 L 190.5 102 L 191 104 L 194 102.5 L 193 99.5 L 193.5 97 L 196 95.5 L 194.5 93 L 196 93.5 L 197 91.5 L 196.5 90 Q 198.8 89.3 198 91.5 L 199 91.5 L 198 87 Q 202.1 88.7 201 84.5 L 202 82.5 L 199.5 79 Q 200.8 81.3 202 78.5 L 202.5 77 L 204 77.5 L 203 73.5 Q 205.3 72.3 202.5 71 L 201 71.5 L 201.5 69 Q 203.8 68.3 203 70.5 L 205 71.5 L 206 63.5 L 205 60.5 L 207 58.5 L 206.5 56 L 204 55.5 L 206 55 L 205 51.5 L 205 49.5 L 206 44.5 L 204 41.5 Q 206.3 40.3 203.5 39 L 199 36.5 L 201 35.5 L 198 33.5 L 199.5 33 Q 201 36.5 202.5 34 L 204 33.5 Q 202 29.8 200 31.5 L 200.5 30 Q 198.3 29.3 199 31.5 L 198 31.5 L 199 29.5 L 195 28.5 L 198.5 28 L 200.5 29 L 199.5 27 Q 195.5 27.5 195 24.5 L 193.5 21 Q 192.3 23.3 191 20.5 L 191.5 19 L 188.5 21 L 188 19 L 185.5 18 L 183 19.5 L 183.5 21 L 181.5 18 L 180 18.5 Q 182.2 17.3 179.5 16 L 178.5 19 L 175.5 17 L 170.5 18 L 168.5 20 L 165.5 19 L 161.5 21 L 159.5 20 L 128.5 32 L 111 42 Q 112.1 44.7 109.5 44 L 101 50.5 L 101.5 52 L 96 53 L 93 57.5 L 95 58 L 94.5 60 L 91.5 57 L 87 61.5 L 85.5 66 L 84 65.5 Q 84.8 67.8 82.5 67 L 84 69.5 L 82.5 71 L 82.5 69 L 80 69.5 L 81 72 L 78 72.5 L 78.5 74 Q 77.3 71.8 76 74.5 L 77 77 L 75 77.5 L 75.5 79 L 74 78.5 L 76 84.5 L 73.5 85 L 71.5 84 L 71 86.5 L 73 86.5 L 72 87.5 L 73.5 90 L 71 89 L 70.5 87 L 70 92 L 68 92.5 L 69 97.5 L 66 98.5 L 65 104 L 68 105.5 L 65 106.5 L 66 108.5 L 64 108.5 L 63 110.5 L 65 111.5 L 63 116.5 L 63.5 118 L 62 118.5 L 63.5 121 L 62 121.5 L 64 122.5 L 62 123.5 L 64 124.5 L 61 125.5 L 61.5 128 L 63 127.5 L 61 130.5 L 62 131.5 L 60 135.5 Q 60.8 139.3 58.5 140 Q 54 141 53 138.5 Q 53.8 136.3 51.5 137 L 50.5 136 L 48 137.5 L 49 133.5 L 47.5 134 L 46 133.5 L 47 131.5 L 46 127 L 42.5 126 L 41 126.5 L 42.5 124 Q 39.9 124.7 41 122 L 38.5 122 L 40 119.5 L 38.5 118 L 36.5 119 L 35 115.5 L 36 113 L 34 113 Q 35.1 110.3 32.5 111 L 31 109.5 L 31 105.5 L 27 96.5 L 27 94.5 L 27 88 L 24.5 88 L 23.5 86 L 26 87 L 25.5 83 L 24.5 85 L 24 83.5 L 25 81.5 L 22 80.5 L 25 80 L 24 77.5 L 25 75.5 L 23 74.5 L 22.5 76 L 22 74.5 L 25 73.5 L 24 65.5 Q 26.2 64.3 23.5 63 L 22 63.5 Q 21.3 61.3 23.5 62 L 22.5 59 L 24.5 60 L 24 58.5 L 23 54.5 L 25 50.5 L 24 47.5 L 25 45.5 L 23 44.5 L 23 42.5 L 24 40.5 Q 21.5 39 25 37.5 L 24.5 35 L 23 35.5 L 26 30.5 L 23 31.5 L 22 29.5 L 24 29.5 Q 22.5 25.1 25.5 26 L 25 24.5 L 24 20 L 22 19.5 L 25 18 L 25.5 20 L 26 17.5 L 25 15.5 L 27 12.5 L 27 8.5 Q 31.1 6.2 30 0 Z "></path><path fill="rgb(38,255,0)" stroke="rgb(38,255,0)" stroke-width="1" opacity="0.996078431372549" d="M 25 5 L 27 5.5 L 25 6.5 L 25 5 Z "></path><path fill="rgb(38,255,0)" stroke="rgb(38,255,0)" stroke-width="1" opacity="0.996078431372549" d="M 16.5 14 L 17.5 16 L 16.5 14 Z "></path><path fill="rgb(38,255,0)" stroke="rgb(38,255,0)" stroke-width="1" opacity="0.996078431372549" d="M 16.5 23 L 17.5 25 Q 14.7 25.7 16.5 23 Z "></path><path fill="rgb(38,255,0)" stroke="rgb(38,255,0)" stroke-width="1" opacity="0.996078431372549" d="M 22.5 50 L 23 52.5 L 22 52.5 L 22.5 50 Z "></path><path fill="rgb(38,255,0)" stroke="rgb(38,255,0)" stroke-width="1" opacity="0.996078431372549" d="M 96 56 L 98 56.5 L 96 57.5 L 96 56 Z "></path><path fill="rgb(38,255,0)" stroke="rgb(38,255,0)" stroke-width="1" opacity="0.996078431372549" d="M 91.5 59 L 92 62 L 89.5 63 L 91 60.5 L 91.5 59 Z "></path><path fill="rgb(38,255,0)" stroke="rgb(38,255,0)" stroke-width="1" opacity="0.996078431372549" d="M 140.5 59 Q 142.8 58.3 142 60.5 L 141.5 63 L 139.5 62 L 135 69 L 130 70 L 131 72.5 L 128 70.5 L 129 68.5 L 127 68.5 Q 126.3 66.3 128.5 67 L 134 63.5 L 133.5 62 L 140.5 59 Z "></path><path fill="rgb(38,255,0)" stroke="rgb(38,255,0)" stroke-width="1" opacity="0.996078431372549" d="M 88.5 64 L 88 65.5 L 87.5 67 L 87 65.5 L 88.5 64 Z "></path><path fill="rgb(38,255,0)" stroke="rgb(38,255,0)" stroke-width="1" opacity="0.996078431372549" d="M 201.5 65 L 202.5 67 L 201.5 65 Z "></path><path fill="rgb(38,255,0)" stroke="rgb(38,255,0)" stroke-width="1" opacity="0.996078431372549" d="M 125.5 70 Q 127.8 69.3 127 71.5 L 124.5 75 L 122 74.5 L 125 74 L 126 71.5 L 125.5 70 Z "></path><path fill="rgb(38,255,0)" stroke="rgb(38,255,0)" stroke-width="1" opacity="0.996078431372549" d="M 166.5 86 L 167 88.5 L 166 88.5 L 166.5 86 Z "></path><path fill="rgb(38,255,0)" stroke="rgb(38,255,0)" stroke-width="1" opacity="0.996078431372549" d="M 164.5 94 L 165.5 96 L 164.5 94 Z "></path><path fill="rgb(38,255,0)" stroke="rgb(38,255,0)" stroke-width="1" opacity="0.996078431372549" d="M 11.5 98 L 10.5 100 L 11.5 98 Z "></path><path fill="rgb(38,255,0)" stroke="rgb(38,255,0)" stroke-width="1" opacity="0.996078431372549" d="M 191.5 99 L 190.5 101 L 191.5 99 Z "></path><path fill="rgb(38,255,0)" stroke="rgb(38,255,0)" stroke-width="1" opacity="0.996078431372549" d="M 186 103 L 188 103.5 L 186 104.5 L 186 103 Z "></path><path fill="rgb(38,255,0)" stroke="rgb(38,255,0)" stroke-width="1" opacity="0.996078431372549" d="M 12.5 106 L 13 108.5 L 11 107.5 L 12.5 106 Z "></path><path fill="rgb(38,255,0)" stroke="rgb(38,255,0)" stroke-width="1" opacity="0.996078431372549" d="M 14.5 113 L 13.5 115 L 14.5 113 Z "></path><path fill="rgb(38,255,0)" stroke="rgb(38,255,0)" stroke-width="1" opacity="0.996078431372549" d="M 180.5 114 L 181.5 116 L 180.5 114 Z "></path><path fill="rgb(38,255,0)" stroke="rgb(38,255,0)" stroke-width="1" opacity="0.996078431372549" d="M 39.5 128 L 41.5 129 L 43.5 128 L 43.5 129 L 40.5 130 L 39.5 128 Z "></path><path fill="rgb(38,255,0)" stroke="rgb(38,255,0)" stroke-width="1" opacity="0.996078431372549" d="M 148.5 129 L 147.5 131 L 148.5 129 Z "></path><path fill="rgb(38,255,0)" stroke="rgb(38,255,0)" stroke-width="1" opacity="0.996078431372549" d="M 121.5 138 Q 123.8 137.3 123 139.5 L 123.5 141 L 121.5 138 Z "></path><path fill="rgb(38,255,0)" stroke="rgb(38,255,0)" stroke-width="1" opacity="0.996078431372549" d="M 28.5 140 L 30 142.5 L 28 141.5 L 28.5 140 Z "></path><path fill="rgb(38,255,0)" stroke="rgb(38,255,0)" stroke-width="1" opacity="0.996078431372549" d="M 53.5 141 L 54 143.5 L 53.5 145 L 52 142.5 L 53.5 141 Z "></path><path fill="rgb(38,255,0)" stroke="rgb(38,255,0)" stroke-width="1" opacity="0.996078431372549" d="M 35.5 144 L 34.5 146 L 35.5 144 Z "></path><path fill="rgb(38,255,0)" stroke="rgb(38,255,0)" stroke-width="1" opacity="0.996078431372549" d="M 113.5 148 L 112.5 150 L 113.5 148 Z "></path><path fill="rgb(38,255,0)" stroke="rgb(38,255,0)" stroke-width="1" opacity="0.996078431372549" d="M 38.5 150 L 37.5 152 L 36 151.5 L 38.5 150 Z "></path><path fill="rgb(38,255,0)" stroke="rgb(38,255,0)" stroke-width="1" opacity="0.996078431372549" d="M 51.5 161 L 52 163 L 50 162.5 L 51.5 161 Z "></path><path fill="rgb(38,255,0)" stroke="rgb(38,255,0)" stroke-width="1" opacity="0.996078431372549" d="M 64.5 170 L 65 171.5 L 63 172.5 L 64.5 170 Z "></path><path fill="rgb(38,255,0)" stroke="rgb(38,255,0)" stroke-width="1" opacity="0.996078431372549" d="M 94.5 172 Q 97.1 171.2 96 174.5 L 95 174.5 L 94.5 172 Z "></path><path fill="rgb(38,255,0)" stroke="rgb(38,255,0)" stroke-width="1" opacity="0.996078431372549" d="M 107.5 181 L 106.5 183 L 107.5 181 Z "></path><path fill="rgb(38,255,0)" stroke="rgb(38,255,0)" stroke-width="1" opacity="0.996078431372549" d="M 111.5 181 L 109.5 184 L 111.5 181 Z "></path><path fill="rgb(38,255,0)" stroke="rgb(38,255,0)" stroke-width="1" opacity="0.996078431372549" d="M 399.5 182 L 400 183.5 L 393.5 191 L 366.5 212 Q 361.1 215.1 351.5 214 L 342.5 218 L 330.5 218 Q 320.1 212.9 302.5 215 Q 301 217.5 295.5 216 L 290 219.5 L 289 221.5 L 290.5 223 L 298.5 224 L 310.5 231 L 317 231 L 316 234.5 L 320.5 238 L 332.5 243 L 345 253.5 L 363 276.5 L 378 303.5 L 380 308.5 L 380 316.5 L 385 329.5 L 385 332.5 L 399 368.5 L 400 372.5 L 400 389 L 398 389.5 L 400 390 L 400 400 L 392 400 L 391.5 398 L 387.5 400 Q 385.3 400.8 386 398.5 L 385.5 397 L 389.5 399 L 391.5 396 L 393.5 396 L 396.5 395 L 398 395.5 L 397 391.5 L 397 389.5 L 399 386.5 L 398.5 384 Q 395.5 384.9 397 380.5 L 397 378.5 L 396.5 377 L 395 377.5 L 396 372.5 L 394 372.5 L 395 368.5 Q 391.4 366.6 391 361.5 Q 393.3 360.3 390.5 359 L 387 359.5 Q 390 358.3 389 354 L 391 353.5 L 388 351.5 L 389 349.5 L 387.5 350 L 386 349.5 L 387 346.5 Q 388.3 342.8 384.5 344 L 383 344.5 Q 386.5 343 384 341.5 Q 384.8 339.3 382.5 340 L 381.5 338 L 385.5 340 L 384.5 338 L 382 336.5 L 383 333.5 L 378 326.5 L 379 323.5 L 374 303.5 L 368 294.5 L 366.5 289 L 365.5 291 L 364.5 287 Q 363.3 289.3 362 286.5 L 360 283.5 L 362.5 285 L 364 284.5 L 360 281.5 Q 362.3 280.3 359.5 279 Q 356.5 279.9 358 275.5 L 356 275.5 L 356.5 274 L 354.5 275 L 355 273.5 L 354.5 271 L 353 271.5 L 353.5 270 Q 350.9 270.8 352 267.5 L 349.5 264 L 348 264.5 L 347.5 262 L 346 262.5 L 345.5 260 L 344 260.5 L 342.5 257 Q 339.9 257.7 341 255 L 339 255 Q 340.5 251.2 337.5 252 L 335 253 Q 337.1 247.8 332.5 249 L 328.5 247 L 327.5 248 L 326 247.5 L 328 246.5 L 322.5 242 L 320.5 243 L 319.5 240 Q 318.3 242.3 317 239.5 L 317.5 238 Q 312.9 239.3 315 233.5 L 315.5 232 L 303.5 231 L 300 232 Q 301.3 228.7 296.5 230 Q 295.3 227.8 294 230.5 L 293.5 232 L 291.5 229 L 290 229.5 L 287 221.5 L 290.5 217 L 294.5 215 Q 300.8 216.8 302.5 214 L 320.5 214 L 330.5 217 L 341.5 217 L 341.5 215 L 343.5 216 L 343.5 214 Q 346.8 215.1 346 212.5 L 346.5 211 L 342.5 212 L 342.5 211 L 346 210 Q 344.8 207 348.5 208 L 348.5 207 L 347 206.5 L 348.5 206 L 352.5 208 L 354 207.5 Q 351.3 205.8 355.5 204 L 360 205 L 359 202.5 L 362 203.5 L 362.5 202 L 363.5 203 L 366 201.5 L 366.5 203 L 370 200.5 L 369.5 199 L 374.5 200 L 374.5 199 L 373 198.5 L 376.5 197 L 376.5 198 L 375 198.5 L 378 199 Q 376.9 201.7 379.5 201 L 379.5 199 Q 380.8 201.3 382 198.5 L 379 196.5 L 380.5 197 Q 382.8 197.8 382 195.5 L 383 195.5 L 383.5 197 L 398 185.5 L 399.5 182 Z M 394 397 Q 392 400 395 399 L 394 397 Z "></path><path fill="rgb(38,255,0)" stroke="rgb(38,255,0)" stroke-width="1" opacity="0.996078431372549" d="M 131.5 188 L 130.5 190 L 131.5 188 Z "></path><path fill="rgb(38,255,0)" stroke="rgb(38,255,0)" stroke-width="1" opacity="0.996078431372549" d="M 134.5 189 L 132.5 192 L 134.5 189 Z "></path><path fill="rgb(38,255,0)" stroke="rgb(38,255,0)" stroke-width="1" opacity="0.996078431372549" d="M 148.5 195 L 147.5 197 L 148.5 195 Z "></path><path fill="rgb(38,255,0)" stroke="rgb(38,255,0)" stroke-width="1" opacity="0.996078431372549" d="M 156.5 196 L 157.5 198 L 156.5 196 Z "></path><path fill="rgb(38,255,0)" stroke="rgb(38,255,0)" stroke-width="1" opacity="0.996078431372549" d="M 171.5 196 L 172.5 198 L 170 197.5 L 171.5 196 Z "></path><path fill="rgb(38,255,0)" stroke="rgb(38,255,0)" stroke-width="1" opacity="0.996078431372549" d="M 126.5 202 L 127 203.5 L 125 204.5 L 126.5 202 Z "></path><path fill="rgb(38,255,0)" stroke="rgb(38,255,0)" stroke-width="1" opacity="0.996078431372549" d="M 175.5 202 L 174.5 204 L 175.5 202 Z "></path><path fill="rgb(38,255,0)" stroke="rgb(38,255,0)" stroke-width="1" opacity="0.996078431372549" d="M 216.5 205 L 217.5 207 Q 214.7 207.7 216.5 205 Z "></path><path fill="rgb(38,255,0)" stroke="rgb(38,255,0)" stroke-width="1" opacity="0.996078431372549" d="M 235.5 206 L 236.5 208 L 235.5 206 Z "></path><path fill="rgb(38,255,0)" stroke="rgb(38,255,0)" stroke-width="1" opacity="0.996078431372549" d="M 225.5 207 L 226 209.5 L 222.5 212 L 223.5 210 L 225 209.5 Q 222.7 208.3 225.5 207 Z "></path><path fill="rgb(38,255,0)" stroke="rgb(38,255,0)" stroke-width="1" opacity="0.996078431372549" d="M 177.5 213 L 179.5 216 L 177.5 213 Z "></path><path fill="rgb(38,255,0)" stroke="rgb(38,255,0)" stroke-width="1" opacity="0.996078431372549" d="M 333.5 213 L 336 214.5 L 334.5 215 L 333.5 213 Z "></path><path fill="rgb(38,255,0)" stroke="rgb(38,255,0)" stroke-width="1" opacity="0.996078431372549" d="M 144.5 217 L 145.5 219 L 144.5 217 Z "></path><path fill="rgb(38,255,0)" stroke="rgb(38,255,0)" stroke-width="1" opacity="0.996078431372549" d="M 209.5 220 Q 211.8 219.3 211 221.5 L 209.5 220 Z "></path><path fill="rgb(38,255,0)" stroke="rgb(38,255,0)" stroke-width="1" opacity="0.996078431372549" d="M 212.5 220 L 215 221.5 L 212 222 L 212.5 220 Z "></path><path fill="rgb(38,255,0)" stroke="rgb(38,255,0)" stroke-width="1" opacity="0.996078431372549" d="M 222.5 221 L 225 221.5 L 222.5 222 L 222.5 221 Z "></path><path fill="rgb(38,255,0)" stroke="rgb(38,255,0)" stroke-width="1" opacity="0.996078431372549" d="M 140.5 229 L 141.5 231 L 140.5 229 Z "></path><path fill="rgb(38,255,0)" stroke="rgb(38,255,0)" stroke-width="1" opacity="0.996078431372549" d="M 325.5 249 Q 328.1 248.3 327 251 L 329.5 251 L 329.5 252 Q 324.8 252.5 325.5 249 Z "></path><path fill="rgb(38,255,0)" stroke="rgb(38,255,0)" stroke-width="1" opacity="0.996078431372549" d="M 168.5 257 L 170 260.5 L 169 260.5 L 168.5 257 Z "></path><path fill="rgb(38,255,0)" stroke="rgb(38,255,0)" stroke-width="1" opacity="0.996078431372549" d="M 341.5 258 L 340.5 260 L 341.5 258 Z "></path><path fill="rgb(38,255,0)" stroke="rgb(38,255,0)" stroke-width="1" opacity="0.996078431372549" d="M 151.5 261 L 152.5 264 L 155.5 262 L 156 266.5 L 155.5 268 Q 154.3 265.8 153 268.5 L 153 270.5 L 154.5 273 L 156 272.5 Q 154.8 275.3 153.5 273 L 152 273.5 L 152.5 275 Q 151.3 272.8 150 275.5 L 151 277.5 L 149.5 278 Q 146.8 276.8 149 275.5 L 148 273.5 L 148.5 272 L 146.5 273 L 145.5 271 L 149 269.5 L 147 268.5 L 150 266.5 Q 149 262 151.5 261 Z "></path><path fill="rgb(38,255,0)" stroke="rgb(38,255,0)" stroke-width="1" opacity="0.996078431372549" d="M 174.5 266 L 173.5 268 L 174.5 266 Z "></path><path fill="rgb(38,255,0)" stroke="rgb(38,255,0)" stroke-width="1" opacity="0.996078431372549" d="M 79.5 271 Q 82.5 272.5 79.5 274 L 79.5 271 Z "></path><path fill="rgb(38,255,0)" stroke="rgb(38,255,0)" stroke-width="1" opacity="0.996078431372549" d="M 155.5 276 L 155 277.5 L 156 279.5 L 154 278.5 L 155.5 276 Z "></path><path fill="rgb(38,255,0)" stroke="rgb(38,255,0)" stroke-width="1" opacity="0.996078431372549" d="M 147.5 279 L 148 281 L 150 281.5 L 149.5 284 Q 145.8 282.2 147.5 279 Z "></path><path fill="rgb(38,255,0)" stroke="rgb(38,255,0)" stroke-width="1" opacity="0.996078431372549" d="M 165.5 280 L 166.5 282 L 165.5 280 Z "></path><path fill="rgb(38,255,0)" stroke="rgb(38,255,0)" stroke-width="1" opacity="0.996078431372549" d="M 172.5 280 L 173.5 282 L 172.5 280 Z "></path><path fill="rgb(38,255,0)" stroke="rgb(38,255,0)" stroke-width="1" opacity="0.996078431372549" d="M 154.5 284 L 153.5 286 L 154.5 284 Z "></path><path fill="rgb(38,255,0)" stroke="rgb(38,255,0)" stroke-width="1" opacity="0.996078431372549" d="M 145.5 288 L 148 289.5 L 146.5 289 L 145.5 288 Z "></path><path fill="rgb(38,255,0)" stroke="rgb(38,255,0)" stroke-width="1" opacity="0.996078431372549" d="M 146.5 291 L 146 292.5 L 145.5 294 L 145 292.5 L 146.5 291 Z "></path><path fill="rgb(38,255,0)" stroke="rgb(38,255,0)" stroke-width="1" opacity="0.996078431372549" d="M 144.5 295 L 145 297.5 L 144 297.5 L 144.5 295 Z "></path><path fill="rgb(38,255,0)" stroke="rgb(38,255,0)" stroke-width="1" opacity="0.996078431372549" d="M 143.5 300 L 142.5 302 L 143.5 300 Z "></path><path fill="rgb(38,255,0)" stroke="rgb(38,255,0)" stroke-width="1" opacity="0.996078431372549" d="M 140.5 301 L 140 302.5 L 139.5 304 L 139 302.5 L 140.5 301 Z "></path><path fill="rgb(38,255,0)" stroke="rgb(38,255,0)" stroke-width="1" opacity="0.996078431372549" d="M 165.5 304 L 165.5 307 Q 162.5 305.5 165.5 304 Z "></path><path fill="rgb(38,255,0)" stroke="rgb(38,255,0)" stroke-width="1" opacity="0.996078431372549" d="M 68.5 318 L 67.5 320 L 68.5 318 Z "></path><path fill="rgb(38,255,0)" stroke="rgb(38,255,0)" stroke-width="1" opacity="0.996078431372549" d="M 159.5 318 L 159.5 321 Q 156.5 319.5 159.5 318 Z "></path><path fill="rgb(38,255,0)" stroke="rgb(38,255,0)" stroke-width="1" opacity="0.996078431372549" d="M 66.5 323 L 69 324.5 L 67.5 325 L 66.5 323 Z "></path><path fill="rgb(38,255,0)" stroke="rgb(38,255,0)" stroke-width="1" opacity="0.996078431372549" d="M 374.5 332 L 376.5 332 L 378 332.5 L 375.5 334 L 374.5 332 Z "></path><path fill="rgb(38,255,0)" stroke="rgb(38,255,0)" stroke-width="1" opacity="0.996078431372549" d="M 91.5 340 L 92 343 L 94 343.5 L 94 345.5 L 95 348.5 L 92 350.5 L 92.5 349 L 91 348.5 L 92.5 346 L 90.5 347 Q 88 345.8 89 342 Q 91.8 343 91.5 340 Z "></path><path fill="rgb(38,255,0)" stroke="rgb(38,255,0)" stroke-width="1" opacity="0.996078431372549" d="M 103.5 340 L 104.5 342 L 103.5 340 Z "></path><path fill="rgb(38,255,0)" stroke="rgb(38,255,0)" stroke-width="1" opacity="0.996078431372549" d="M 124.5 340 L 123.5 342 L 124.5 340 Z "></path><path fill="rgb(38,255,0)" stroke="rgb(38,255,0)" stroke-width="1" opacity="0.996078431372549" d="M 124.5 343 L 126 343.5 L 123.5 345 L 124.5 343 Z "></path><path fill="rgb(38,255,0)" stroke="rgb(38,255,0)" stroke-width="1" opacity="0.996078431372549" d="M 130.5 344 L 131.5 346 L 130.5 344 Z "></path><path fill="rgb(38,255,0)" stroke="rgb(38,255,0)" stroke-width="1" opacity="0.996078431372549" d="M 95.5 345 L 98 346.5 L 96 347.5 L 95.5 345 Z "></path><path fill="rgb(38,255,0)" stroke="rgb(38,255,0)" stroke-width="1" opacity="0.996078431372549" d="M 136.5 347 L 135.5 349 L 134 348.5 L 136.5 347 Z "></path><path fill="rgb(38,255,0)" stroke="rgb(38,255,0)" stroke-width="1" opacity="0.996078431372549" d="M 69.5 351 L 68.5 353 L 69.5 351 Z "></path><path fill="rgb(38,255,0)" stroke="rgb(38,255,0)" stroke-width="1" opacity="0.996078431372549" d="M 126.5 352 L 127.5 354 L 126.5 352 Z "></path><path fill="rgb(38,255,0)" stroke="rgb(38,255,0)" stroke-width="1" opacity="0.996078431372549" d="M 386.5 354 L 387.5 356 L 386.5 354 Z "></path><path fill="rgb(38,255,0)" stroke="rgb(38,255,0)" stroke-width="1" opacity="0.996078431372549" d="M 71.5 361 L 73 363.5 L 72 363.5 L 71.5 361 Z "></path><path fill="rgb(38,255,0)" stroke="rgb(38,255,0)" stroke-width="1" opacity="0.996078431372549" d="M 385.5 365 L 384.5 367 L 385.5 365 Z "></path><path fill="rgb(38,255,0)" stroke="rgb(38,255,0)" stroke-width="1" opacity="0.996078431372549" d="M 391.5 379 L 390.5 381 L 391.5 379 Z "></path><path fill="rgb(38,255,0)" stroke="rgb(38,255,0)" stroke-width="1" opacity="0.996078431372549" d="M 392 390 L 394 390.5 L 392 391.5 L 392 390 Z "></path><path fill="rgb(38,255,0)" stroke="rgb(38,255,0)" stroke-width="1" opacity="0.996078431372549" d="M 394.5 392 L 395.5 394 Q 392.7 394.7 394.5 392 Z "></path><path fill="rgb(38,255,0)" stroke="rgb(38,255,0)" stroke-width="1" opacity="0.996078431372549" d="M 387.5 395 L 390 396.5 L 388.5 396 L 387.5 395 Z "></path><path fill="rgb(38,255,0)" stroke="rgb(38,255,0)" stroke-width="1" opacity="1" d="M 6.5 0 L 29.5 0 Q 30.5 0 30 4.5 L 27 8.5 L 28 9.5 L 26 13.5 L 25 16.5 L 26 19.5 L 25 19.5 Q 25.8 17.3 23.5 18 L 22.5 20 Q 24.8 19.3 24 21.5 L 26 21.5 L 25 24.5 L 25.5 26 Q 22.5 25.1 24 29.5 L 23 31.5 L 26 30.5 L 24 34.5 L 25 37.5 L 24.5 42 L 23 41.5 L 24 43.5 L 23.5 45 L 25 45.5 L 24 47.5 L 24 51.5 L 23 54.5 L 25 59.5 L 23 60.5 L 26 61.5 L 24 65.5 L 25 73.5 L 25 75.5 L 24 77.5 L 25 80 L 22 80.5 L 25 81.5 L 26 87 L 24 87.5 L 27 88 L 27 94.5 L 28 95.5 L 28 97.5 Q 28.3 103.7 32 106.5 L 31 107.5 Q 34.1 109.3 32.5 111 L 34 111 L 34 113 Q 36.7 111.9 36 114.5 L 35 117.5 L 36 117.5 L 36.5 116 L 37 117.5 L 36.5 119 L 38.5 118 L 40.5 121 Q 39.3 118.8 38 121.5 L 41 122 Q 39.9 124.7 42.5 124 L 43.5 127 Q 47.7 125.7 46 130.5 L 48 130.5 L 46 133.5 L 47.5 134 L 49 133.5 L 49.5 137 L 51.5 137 Q 53.8 136.3 53 138.5 Q 54 141 58.5 140 L 61 134.5 L 60 133.5 L 62 129.5 L 61 125.5 L 64 124.5 L 62 123.5 L 64 122.5 L 62 121.5 L 64 120.5 L 62.5 118 L 64 117.5 L 63 115.5 L 65 111.5 L 63 110.5 L 67 104.5 L 65 104 L 66.5 98 Q 67.8 100.3 69 97.5 L 68.5 93 L 67 93.5 L 70 92 Q 69.4 85.6 72 82 L 74 82.5 L 72.5 85 L 75 83.5 L 74 78.5 L 77 77 L 76 74.5 Q 77.2 71.3 81 72 L 80 69.5 L 83 68.5 L 82.5 67 Q 84.8 67.8 84 65.5 L 86 65.5 L 87 61.5 L 94.5 54 L 96 54.5 Q 95.1 51.5 99.5 53 L 102 51.5 Q 99.8 50.3 102.5 49 L 111 44 Q 109.9 41.3 112.5 42 L 128.5 32 L 138.5 29 L 154.5 21 L 160.5 20 L 162.5 20 L 167.5 19 Q 169 21.5 170.5 18 L 177 17 Q 175.9 19.7 178.5 19 L 179.5 16 Q 181 19.5 182.5 17 L 184 17.5 L 182 18 L 182.5 20 L 185.5 18 L 188 19 L 188.5 21 L 189.5 18 L 195 22.5 Q 194.5 26.5 197.5 27 L 201 28.5 L 199 29.5 L 204 33.5 L 202 34.5 L 205 38.5 L 205 42.5 L 207 48.5 L 205 48.5 L 207 51.5 L 206 55 L 204 55.5 L 206.5 56 L 208 55.5 L 206 57.5 L 206 63.5 L 207 67.5 L 205 67.5 L 204 72.5 L 204 74.5 L 203.5 78 L 202 77.5 L 203 79.5 Q 199.5 81 202 82.5 L 201 87 Q 197.2 85.5 198 88.5 L 199 91.5 L 198 91.5 Q 198.8 89.3 196.5 90 L 196 92.5 L 195 94.5 L 195.5 98 L 193.5 97 L 193 99.5 L 194 102.5 L 191 104 L 190.5 102 L 189 104.5 L 191 105.5 L 188 107 L 185.5 113 L 184 113.5 L 184 115.5 L 182.5 118 L 181 118.5 L 181.5 120 L 180 119.5 L 176.5 124 Q 173.9 123.2 175 126.5 L 172.5 127 L 170 128.5 L 170.5 130 Q 167.9 129.3 169 132 L 166 132 L 166 134 L 164 134 Q 165.1 136.7 162.5 136 L 160.5 135 L 162 137.5 L 160.5 139 L 160.5 137 L 156 138.5 L 156.5 140 L 154.5 141 L 153.5 139 L 151.5 143 L 150 142.5 L 148.5 145 L 141.5 148 L 139.5 147 L 135.5 149 L 133 147.5 Q 133.8 149.8 131.5 149 L 128.5 151 L 128 149 L 124 149.5 L 124.5 151 L 121.5 149 L 121 150.5 L 121.5 152 Q 119.3 152.8 120 150.5 L 119 150.5 L 118.5 152 L 114.5 152 Q 109.1 153.9 110 150.5 L 108 151.5 L 108.5 153 L 106.5 153 L 103 152 L 102.5 154 L 101.5 151 L 99.5 154 L 96.5 155 L 91.5 153 L 90.5 156 L 87.5 154 L 87 157 L 80 158 L 84 165 L 88 166 Q 86.3 170.1 90.5 169 L 92 168.5 L 91.5 170 L 97 171 Q 95.8 174 99.5 173 L 103 175 L 103.5 178 L 104 176 L 107 176.5 L 106 179 Q 116.4 179.2 122.5 185 L 125.5 184 L 127 185.5 L 127.5 187 Q 129.5 183 131.5 187 L 133.5 188 L 134.5 187 L 137 188.5 L 137.5 187 L 139.5 188 L 141 187.5 Q 140.1 190.9 145.5 189 L 144.5 192 L 148.5 191 L 150.5 192 L 150.5 190 Q 154.3 188.8 153 192.5 L 154.5 192 L 156.5 191 L 161.5 193 L 165 192.5 L 165.5 194 L 170.5 193 Q 172 196.5 173.5 194 L 175.5 195 L 178.5 194 L 180.5 195 L 183 194 L 183.5 197 L 184 195 L 188.5 196 L 190 195.5 Q 189.3 197.8 191.5 197 L 193.5 198 L 195.5 198 L 204.5 199 L 208.5 201 L 210.5 200 L 213.5 201 Q 216.8 199.9 216 202.5 L 217.5 202 L 220.5 203 L 222 202.5 Q 219.8 203.8 222.5 205 Q 224.8 205.8 224 203.5 L 225 203.5 L 225.5 205 L 229.5 203 L 230 205 L 233.5 206 L 236.5 205 L 243.5 209 L 245 208.5 L 244.5 210 L 247.5 211 L 249 210.5 Q 248.3 212.8 250.5 212 L 250.5 210 L 253 211 L 253.5 213 Q 256.4 210.4 262.5 211 L 264 209.5 L 263 208.5 L 266 205.5 L 268 198.5 L 270 196.5 L 269.5 195 L 271 194.5 L 270.5 193 L 272 192.5 L 271.5 191 Q 273.8 191.8 273 189.5 L 277 188 Q 275.3 183.9 279.5 185 L 287.5 180 Q 289 182.5 290.5 179 L 296.5 176 L 298 176.5 Q 297.2 173.9 300.5 175 L 306.5 171 L 314.5 169 L 324.5 164 L 326.5 165 L 329.5 163 L 331 163.5 Q 330.2 160.9 333.5 162 L 336 161.5 Q 335.2 158.9 338.5 160 L 340.5 160 L 343.5 158 L 355.5 157 L 356.5 156 L 358.5 156 L 361.5 157 L 363.5 156 L 365.5 157 L 367.5 157 L 371 156 L 371.5 158 L 374.5 157 L 377.5 158 L 380.5 159 L 384 158.5 L 383.5 160 L 385.5 159 L 387.5 161 Q 392.1 160.4 393.5 163 L 398.5 163 L 400 164.5 L 400 181.5 L 393.5 190 Q 385.1 194.1 379.5 201 L 376 202 L 376.5 200 L 378 200.5 Q 378.8 197.9 375.5 199 L 370.5 200 L 366.5 203 L 365.5 201 Q 363.8 204.1 362 202.5 L 361.5 204 L 360 203.5 Q 360.9 206.5 356.5 205 Q 354.7 202.2 353 206.5 L 353.5 208 L 351.5 209 L 348.5 208 L 346 208 Q 347.1 210.7 344.5 210 L 342 211.5 L 344.5 212 L 346.5 211 L 346 212.5 Q 346.8 215.1 343.5 214 L 343.5 216 L 341.5 217 L 330.5 217 Q 320.1 211.9 302.5 214 Q 300.8 216.8 294.5 215 L 289 218.5 L 287 222.5 L 290.5 230 Q 293.3 228.8 291 227.5 L 291.5 226 L 293.5 229 Q 295 226.5 296.5 230 L 300.5 229 L 300 230.5 Q 299.2 233.1 302.5 232 L 302.5 230 Q 307.4 233.1 316 232.5 L 315 238 Q 319.7 237.3 321 241.5 L 320.5 243 L 322.5 242 L 329.5 248 L 332 246.5 Q 329.8 247.7 332.5 249 L 335 249 L 335 253 L 336.5 253 L 336.5 251 L 339 252 L 339 255 L 341 255 Q 339.9 257.7 342.5 257 L 344.5 261 L 346 260.5 L 346.5 263 L 348 262.5 L 348.5 265 Q 349.8 262.8 351 265.5 L 352 270 L 355 271.5 Q 353.9 274.8 356.5 274 Q 359 275.2 358 279 L 361 280.5 L 360.5 282 L 365 285.5 L 365 287.5 L 365.5 291 L 366.5 289 L 368 294.5 L 374 303.5 L 380 324.5 L 380 328.5 L 383 333.5 L 382 336.5 L 386 339.5 L 384 340 L 385 342.5 L 384.5 344 Q 388.3 342.8 387 346.5 L 386.5 350 L 388.5 349 L 390 351.5 L 389.5 353 L 391 353.5 L 389 354 Q 388 357.8 390.5 359 L 391 357.5 L 390.5 356 L 392 358.5 L 391 361.5 L 391.5 364 L 392.5 362 L 394 364.5 L 392 364.5 L 397 374.5 L 395 374.5 L 395.5 378 L 397 377.5 L 396 379.5 L 397 384 L 399 384.5 L 397 388.5 L 397.5 390 L 399.5 389 L 399.5 390 L 398 390.5 L 398.5 392 L 397 391.5 L 398 395.5 L 396.5 395 L 395 395.5 L 395.5 397 L 393.5 396 L 394.5 399 Q 392.3 399.8 393 397.5 L 391 396.5 L 392 400 L 389.5 399 L 388 399.5 L 388.5 398 L 385.5 397 L 386 398.5 L 385.5 400 L 383.5 397 L 379.5 399 L 379 396.5 L 377 393.5 L 376 393.5 L 375.5 395 L 375 393.5 L 376 391.5 L 376 389.5 L 375 387.5 L 378 385.5 L 376 385 L 375.5 383 L 374 383.5 L 374 381.5 L 373 378.5 Q 375.5 377 372 375.5 L 371 372.5 L 371 368.5 L 369 364.5 L 371 361.5 L 369 361 L 368.5 363 Q 365.8 361.8 368 360.5 L 365 355.5 L 366 353.5 L 363 351.5 L 365 350.5 L 361 342.5 L 363 338.5 Q 363.9 335.1 358.5 337 L 358 334.5 L 357 331.5 L 357.5 330 Q 355.3 330.8 356 328.5 L 353 323.5 L 354 322.5 L 351 319.5 L 350 315 L 347 313.5 L 345 308.5 L 345 306.5 Q 345.8 303.9 342.5 305 L 339 303.5 L 340 300.5 L 337.5 298 L 335.5 299 L 336 297.5 L 331.5 292 L 333 292.5 L 333 291 L 330 291 Q 331.1 288.3 328.5 289 L 328.5 287 L 325 284.5 L 324.5 282 L 322.5 282 L 321 281.5 L 323 280.5 L 320.5 279 L 319 279.5 L 318 276.5 L 318.5 275 L 316.5 276 L 316 274 L 310.5 270 L 309 270.5 Q 309.8 268.3 307.5 269 Q 304.3 267.8 305 264 L 301.5 265 L 300.5 262 L 295 257.5 L 290.5 252 L 276.5 242 L 257.5 233 L 235.5 225 L 220.5 223 L 216.5 225 L 215.5 224 L 211.5 225 Q 210 221.5 208.5 224 Q 206.3 224.8 207 222.5 L 205 222.5 L 206 220.5 L 201.5 222 L 197 221.5 L 198 218 L 196 218.5 L 196.5 220 L 193.5 221 L 190 219.5 L 189.5 218 L 186.5 220 L 186 217 L 184 217.5 L 184.5 219 L 182 218.5 L 182.5 217 L 177 217.5 Q 179.3 218.8 176.5 220 Q 173.5 219.1 175 223.5 L 178 231.5 L 176 235.5 L 178 236.5 L 176 237.5 L 178 240.5 L 176 244.5 Q 178.8 247.2 178 253.5 L 176 258.5 Q 179.5 260 177 261.5 L 176 264.5 L 177 267.5 L 176.5 269 L 178 269.5 L 176 273.5 L 176 275.5 L 175.5 277 L 174.5 275 L 174 278 Q 177 276.8 176 280.5 L 176 282.5 Q 176.8 284.8 174.5 284 L 173 283.5 Q 172.3 285.8 174.5 285 L 176 287.5 L 175.5 290 L 173 290.5 L 175 291.5 L 172 296.5 L 172.5 298 Q 171.3 295.7 170 298.5 L 172 301.5 L 170 302.5 L 171 305.5 L 169.5 305 L 167 305.5 L 169.5 309 L 167 308 L 166 312.5 L 166 314.5 L 164.5 317 L 163 316.5 L 161 322 L 158 322.5 L 160 323.5 L 158 324.5 L 158.5 326 L 156 326.5 L 156.5 330 L 155.5 329 L 152 331.5 L 151.5 330 L 150 332.5 L 153 333.5 Q 151.7 336.7 147 336.5 L 148 338.5 L 143.5 344 L 141 342.5 L 142 344.5 L 139 346.5 Q 141.3 347.8 138.5 349 L 135 350 Q 136.1 352.7 133.5 352 L 131 352.5 L 129.5 356 L 126.5 355 L 126 357 L 128 357.5 L 122 360 L 121.5 362 L 119.5 360 L 116 363.5 L 115.5 365 L 112 364 Q 113.3 367 109.5 366 L 109.5 368 L 107.5 368 L 103 367 L 103.5 369 L 105 368.5 Q 103.8 371.3 102.5 369 Q 100.3 369.8 101 367.5 L 100 367.5 L 101 370.5 L 99.5 370 L 94.5 373 L 92.5 372 L 90.5 373 L 87.5 372 L 84.5 373 L 82 369 L 80 369.5 L 80.5 371 L 77 370 L 76.5 367 L 75.5 369 L 74.5 367 L 73 367.5 L 74 365.5 L 70 364.5 L 70.5 363 L 68.5 364 L 68 361.5 L 67 358.5 L 68 355.5 L 67 355.5 L 66.5 357 L 65 352 L 67 351.5 L 65 350.5 L 65.5 348 Q 67.8 348.8 67 346.5 L 65.5 347 Q 62.9 347.7 64 345 L 66 344.5 L 63 342.5 L 65 341.5 L 62 339.5 L 64 334 L 62 333.5 L 63 330.5 L 62 327.5 L 63 325.5 L 63 323.5 L 64 319.5 L 62 319.5 L 63 316.5 L 64 313.5 L 62 312.5 L 63 310.5 Q 60.7 309.3 63.5 308 L 65 308.5 L 63 305.5 L 64 301.5 L 63.5 300 Q 65.8 300.8 65 298.5 L 65 296.5 Q 63.5 292.1 66.5 293 L 68 293.5 Q 68.7 290.9 66 292 L 66 288.5 L 65.5 287 L 67 287.5 L 68 285.5 L 67 283.5 Q 70.1 281.8 68.5 280 Q 70.8 279.3 70 281.5 L 71 281.5 Q 69.8 275.8 73 274.5 L 72 272 L 75 271.5 L 74 269 Q 77 270.3 76 266.5 Q 78.8 265.4 78 262 Q 81.7 260.5 81 263.5 L 82 263.5 L 81 260.5 L 84 259.5 L 83 258.5 L 86 255.5 Q 85.3 253.3 87.5 254 L 89 254.5 Q 87.3 249.7 91.5 251 L 94.5 247 L 96 247.5 L 100 241 L 102.5 242 L 103 240.5 L 102.5 239 L 106 238 L 106.5 240 L 108.5 235 L 110.5 234 L 112 234.5 Q 110.8 230.8 114.5 232 L 116.5 233 L 116 231.5 L 117.5 228 L 119.5 228 L 124 227.5 L 123 225.5 L 127 223.5 L 126.5 222 L 128 222.5 L 131.5 218 L 137 215.5 L 134.5 209 L 131.5 211 L 130.5 209 L 128.5 210 L 125.5 208 L 124.5 209 L 121.5 206 L 111.5 205 L 101.5 200 L 98.5 197 L 95.5 198 L 91.5 196 L 90 195.5 L 90.5 194 L 87.5 193 Q 86.3 195.3 85 192.5 Q 85.8 190.3 83.5 191 L 79 190 L 78.5 188 L 77 188.5 L 75.5 186 L 73 186 L 73 184 Q 69.3 185.5 70 182.5 L 69 182.5 L 68.5 184 L 64.5 176 L 63 176.5 L 63.5 179 L 65 179.5 L 63.5 180 L 57 174.5 L 56.5 173 L 55 173.5 L 56 170 L 52.5 170 L 48 167 Q 49.3 164 45.5 165 L 45.5 164 L 47 163.5 L 44 163 L 43 159 Q 40.3 160.1 41 157.5 L 40 157.5 L 39.5 159 L 37.5 153 L 35 154 Q 37.1 148.8 32.5 150 L 30 148.5 L 33 148 L 32.5 145 L 29.5 147 L 29.5 146 L 31 145.5 L 27 142.5 L 22 136.5 L 21 132 L 18 130.5 L 18 128.5 L 19 125.5 Q 17.3 121.3 15.5 124 L 12 121.5 L 13 119.5 L 7 111.5 L 8.5 112 L 10 111.5 L 6 108.5 L 7 106.5 L 7 104.5 L 6 102.5 L 6.5 101 Q 4.3 101.8 5 99.5 L 6 97.5 L 4 97.5 L 6 94.5 L 4.5 95 Q 1.9 95.7 3 93 Q 6 94.3 5 90.5 L 4 88.5 Q 6.3 87.3 3.5 86 Q 1.3 86.8 2 84.5 Q 4.8 83.4 4 80 L 2 79.5 L 6 78 Q 7.1 75.3 4.5 76 Q 3.3 78.3 2 75.5 L 2 73.5 Q 1.3 71.3 3.5 72 L 3.5 71 Q -0.3 72.3 1 68.5 L 2 66.5 L 1 62.5 L 2 60.5 L 1.5 59 Q 4.5 59.9 3 55.5 L 1 53.5 L 2 50.5 Q 0.7 45.8 3 44.5 L 1 43.5 L 2 41.5 L 2 39.5 L 4 36.5 L 3.5 35 L 5 34.5 Q 3.7 31.7 2.5 34 L 1 33.5 L 3 30.5 L 2 27.5 L 3.5 25 Q 1.3 25.8 2 23.5 L 4 23.5 L 3.5 21 L 2 21.5 L 5 13.5 L 2 14.5 L 4.5 9 L 6 9.5 L 7 7.5 L 5.5 7 L 4 7.5 Q 9.5 5 5 2.5 L 6.5 0 Z M 7 1 Q 5 4 8 3 L 7 1 Z M 25 5 L 25 7 L 27 6 L 25 5 Z M 17 23 Q 15 26 18 25 L 17 23 Z M 196 28 L 196 29 L 199 29 L 196 28 Z M 204 37 L 202 39 L 204 39 L 204 37 Z M 23 50 L 22 53 L 23 53 L 23 50 Z M 96 56 L 96 58 L 98 57 L 96 56 Z M 94 58 L 95 60 Q 96 57 94 58 Z M 92 59 L 90 62 L 92 62 L 92 59 Z M 141 59 L 134 62 L 134 64 L 129 67 Q 126 66 127 69 L 129 68 L 129 70 Q 127 71 130 72 L 130 70 L 135 69 L 138 64 L 142 61 Q 143 58 141 59 Z M 22 62 L 22 64 L 24 63 L 22 62 Z M 202 69 L 203 71 Q 204 68 202 69 Z M 126 70 L 127 72 Q 128 69 126 70 Z M 123 74 L 123 75 L 125 75 L 123 74 Z M 167 86 L 166 89 L 167 89 L 167 86 Z M 72 87 Q 70 90 73 89 L 72 87 Z M 8 102 L 8 103 L 10 103 L 8 102 Z M 186 103 L 186 105 L 188 104 L 186 103 Z M 13 106 L 11 108 L 13 109 L 13 106 Z M 122 138 L 123 140 Q 124 137 122 138 Z M 29 140 L 28 142 L 30 143 L 29 140 Z M 140 144 L 137 146 L 141 146 L 140 144 Z M 52 161 L 50 163 L 52 163 L 52 161 Z M 95 172 L 95 175 L 96 175 Q 97 171 95 172 Z M 105 178 L 103 180 L 105 180 L 105 178 Z M 187 196 L 184 198 L 187 198 L 187 196 Z M 192 198 L 191 200 L 189 201 L 192 201 L 192 198 Z M 113 202 L 112 204 L 115 204 L 113 202 Z M 217 205 Q 215 208 218 207 L 217 205 Z M 128 206 Q 126 209 129 208 L 128 206 Z M 226 207 L 224 209 L 226 210 L 226 207 Z M 132 219 L 130 221 L 132 221 L 132 219 Z M 201 219 L 199 221 L 202 221 L 201 219 Z M 210 220 L 211 222 Q 212 219 210 220 Z M 213 220 L 212 222 L 215 222 L 213 220 Z M 223 221 L 223 222 L 225 222 L 223 221 Z M 293 229 L 292 231 L 294 232 L 293 229 Z M 176 248 L 177 250 Q 178 247 176 248 Z M 326 249 L 327 251 Q 328 248 326 249 Z M 328 251 L 328 252 L 330 252 L 328 251 Z M 170 258 L 169 261 L 170 261 L 170 258 Z M 151 262 L 150 267 L 147 269 L 149 270 L 146 271 L 147 273 L 149 272 L 148 274 L 149 276 Q 147 277 150 278 L 151 278 L 150 276 L 154 273 L 153 271 L 153 269 Q 154 266 156 268 L 156 267 L 151 262 Z M 154 262 L 154 264 L 156 263 L 154 262 Z M 76 270 L 76 273 L 77 273 Q 78 269 76 270 Z M 319 276 L 319 278 L 321 277 L 319 276 Z M 148 281 L 148 283 L 150 282 L 148 281 Z M 361 283 Q 359 286 362 285 L 361 283 Z M 362 285 L 362 287 L 364 286 L 362 285 Z M 145 295 L 144 298 L 145 298 L 145 295 Z M 64 338 L 64 340 L 66 339 L 64 338 Z M 92 340 Q 92 343 89 342 Q 88 346 91 347 L 93 346 L 91 349 L 93 349 L 95 349 L 94 346 L 94 344 L 92 343 L 92 340 Z M 96 346 L 96 348 L 98 347 L 96 346 Z M 83 368 Q 81 372 85 371 L 85 369 L 83 368 Z M 92 370 L 90 372 L 92 372 L 92 370 Z M 392 390 L 392 392 L 394 391 L 392 390 Z M 395 392 Q 393 395 396 394 L 395 392 Z "></path><path fill="rgb(38,255,0)" stroke="rgb(38,255,0)" stroke-width="1" opacity="1" d="M 15.5 125 Q 18.5 124.1 17 128.5 L 16 128.5 L 15.5 125 Z "></path><path fill="rgb(38,255,0)" stroke="rgb(38,255,0)" stroke-width="1" opacity="1" d="M 372.5 205 L 373 206.5 L 368.5 210 L 367 209.5 Q 367.8 212.1 364.5 211 L 360.5 213 L 355 212.5 L 359.5 212 L 365.5 208 L 367.5 208 L 370 207.5 L 369.5 206 L 372 207 L 372.5 205 Z "></path><path fill="rgb(38,255,0)" stroke="rgb(38,255,0)" stroke-width="1" opacity="1" d="M 121.5 225 L 120.5 227 L 121.5 225 Z "></path><path fill="rgb(0,0,0)" stroke="rgb(0,0,0)" stroke-width="1" opacity="0" d="M 35.5 0 L 400 0 L 400 159.5 L 398.5 159 L 390.5 155 L 376.5 151 L 374.5 152 L 373.5 151 L 358.5 151 L 334.5 156 L 321.5 163 L 312.5 164 L 303.5 167 L 287.5 177 L 261 190 L 257 197.5 L 257 206.5 L 257.5 208 L 232.5 199 L 217.5 196 L 211.5 196 L 186.5 190 L 184.5 190 L 157.5 187 L 127.5 181 Q 106.9 173.6 90 162.5 L 91.5 160 Q 104.2 160.2 112.5 156 L 132.5 156 L 142.5 154 L 168.5 139 L 186 122.5 Q 205.8 98.8 213 62.5 L 213 60.5 L 212 55.5 L 213 52.5 L 212 49.5 L 210 36.5 L 204 21.5 L 196.5 14 Q 191.2 7.8 177.5 10 Q 169.4 15.9 155.5 16 L 144.5 23 L 139.5 24 L 119.5 33 L 113.5 38 L 97.5 45 L 78 62.5 Q 69.4 73.4 64 87.5 L 58 111.5 L 58 113.5 L 58 122.5 L 57 123.5 L 57 125.5 L 56 133 Q 53.3 134.1 54 131.5 Q 47.4 125.6 44 116.5 L 39 111.5 L 33 100.5 L 32 86.5 L 30 82.5 L 30 37.5 L 29 36.5 L 30 35.5 L 30 22.5 L 31 21.5 L 32 7.5 L 35.5 0 Z "></path><path fill="rgb(0,0,0)" stroke="rgb(0,0,0)" stroke-width="1" opacity="0" d="M 0.5 105 L 3 115.5 L 13 132.5 Q 23.6 143.4 31 157.5 L 41.5 168 L 57.5 182 L 82.5 197 L 114.5 212 Q 123.3 212.3 129 215.5 L 111.5 226 L 77 255.5 L 63 276.5 L 58 299.5 L 59 301.5 L 58 302.5 L 58 313.5 L 57 314.5 L 57 330.5 L 57 332.5 L 58 348.5 L 61 358.5 L 67 371.5 L 72.5 378 L 80.5 381 L 85.5 380 L 113.5 372 L 123.5 367 Q 137.8 357.8 149 345.5 L 165 326.5 L 173 313.5 L 178 301.5 L 179 292.5 L 181 287.5 L 181 285.5 L 182 272.5 L 183 271.5 L 183 243.5 L 183 241.5 L 183 230.5 L 181 223.5 L 184.5 224 L 208.5 229 L 210.5 229 Q 217.9 229.9 220.5 226 L 230.5 226 L 246.5 231 L 267 240.5 Q 267.9 247.1 272.5 250 L 280.5 254 L 282.5 254 L 288.5 254 L 296 260.5 L 304.5 273 L 316 281.5 L 338.5 310 Q 340.8 309.3 340 311.5 L 346 317.5 L 350 328.5 L 353 332.5 L 357 347.5 L 369 377.5 L 370 393.5 L 372 399.5 L 0 400 L 0.5 105 Z "></path><path fill="rgb(0,0,0)" stroke="rgb(0,0,0)" stroke-width="1" opacity="0" d="M 399.5 186 L 400 364.5 L 399 364.5 L 383 319.5 L 382 307.5 L 365 276.5 L 356.5 266 Q 354.3 266.8 355 264.5 L 343 248 L 329.5 239 Q 321.9 238.1 318 233.5 L 319.5 231 L 311.5 230 Q 304.7 221.9 292 221 Q 290.9 218.3 293.5 219 L 303.5 216 L 313.5 216 L 315.5 216 L 320.5 216 L 329.5 219 L 344.5 219 L 349.5 216 L 361.5 215 L 370.5 211 L 399 187.5 L 399.5 186 Z "></path><path fill="rgb(33,255,0)" stroke="rgb(33,255,0)" stroke-width="1" opacity="0.35294117647058826" d="M 0 0 Q 2.7 -1.1 2 1.5 L 0.5 8 L 0 0 Z "></path><path fill="rgb(33,255,0)" stroke="rgb(33,255,0)" stroke-width="1" opacity="0.35294117647058826" d="M 33 0 L 35 0.5 L 32 7.5 L 31 21.5 L 30 22.5 L 30 35.5 L 29 36.5 L 30 37.5 L 30 82.5 L 32 86.5 L 33 100.5 L 35 105.5 L 44 116.5 L 54 133 Q 57.3 134.3 56 129.5 L 58 124.5 L 58 122.5 L 58 113.5 L 59 112.5 L 59 110.5 Q 64.4 70.9 89.5 51 Q 99.2 42.2 113.5 38 L 119.5 33 L 132.5 28 L 134.5 26 L 144.5 23 L 155.5 16 Q 169.4 15.9 177.5 10 L 189.5 10 Q 198.5 14 204 21.5 L 210 36.5 L 213 50.5 L 213 52.5 L 212 55.5 L 213 60.5 L 213 62.5 Q 203.4 109.9 172.5 136 Q 158 147.5 139.5 155 Q 134 153.5 132.5 156 L 112.5 156 Q 104.2 160.2 91.5 160 L 90 161.5 L 91.5 164 L 127.5 181 L 185.5 191 L 187.5 191 L 192.5 191 L 201.5 194 L 232.5 199 L 257 207 L 257 197.5 L 261 190 L 287.5 177 L 303.5 167 L 312.5 164 L 321.5 163 L 334.5 156 L 350.5 152 L 373.5 151 L 375.5 152 L 377.5 152 L 381.5 152 L 387.5 155 L 390.5 155 L 400 160.5 L 396.5 161 L 390.5 157 L 381.5 154 L 359.5 153 L 358.5 154 L 349.5 154 L 341.5 156 L 323.5 164 L 303.5 169 L 287.5 179 L 269.5 187 L 263 192.5 Q 259.2 197.2 261 207.5 L 258.5 210 L 229.5 200 L 207.5 197 L 202.5 195 L 180.5 191 L 158.5 189 L 128.5 183 L 98.5 170 L 86 161.5 L 87 159 L 104.5 157 L 113.5 154 L 133.5 154 L 142.5 152 Q 166.5 141.5 183 123.5 L 194 108.5 L 207 80.5 L 210 69.5 L 211 51.5 L 206 30.5 L 197.5 17 L 188.5 12 L 179.5 12 L 165.5 17 L 156.5 18 L 148.5 23 L 121.5 34 L 113.5 40 L 96.5 48 L 80 62.5 L 73 72.5 L 63 95.5 L 60 111.5 L 59 127.5 L 55.5 137 L 33 105.5 L 31 99.5 L 30 88.5 L 28 82.5 L 28 24.5 L 29 23.5 L 30 8.5 L 33 0 Z "></path><path fill="rgb(33,255,0)" stroke="rgb(33,255,0)" stroke-width="1" opacity="0.35294117647058826" d="M 0.5 94 L 3 109.5 L 8 121.5 L 31 154.5 L 46.5 170 Q 61.9 185.1 82.5 195 L 109.5 208 L 126.5 213 L 130.5 213 L 132 214.5 L 105.5 233 L 90.5 245 L 78 257.5 L 69 269.5 L 63 282.5 L 61 292.5 L 61 299.5 L 60 300.5 L 60 312.5 L 59 313.5 L 59 341.5 L 61 352.5 L 66 365.5 L 73.5 375 Q 77.7 379.3 87.5 378 L 96.5 374 L 113.5 370 L 121.5 366 Q 139.1 355.1 152 339.5 L 168 318.5 L 174 307.5 L 177 298.5 L 180 281.5 L 180 273.5 L 181 272.5 L 181 230.5 L 179 221 L 201.5 226 L 215.5 227 Q 219 223.5 226.5 224 L 257.5 234 L 268.5 239 L 272 242.5 L 276.5 249 L 283.5 252 L 288.5 252 L 294 256.5 L 304.5 271 Q 314.2 275.3 320 283.5 L 335 303.5 L 345 313.5 L 354 330.5 Q 360.1 354.4 370 374.5 L 372 384.5 L 373 399.5 L 371 398.5 L 369 377.5 L 367 371.5 L 357 347.5 L 353 332.5 L 350 328.5 L 346 317.5 L 340 310 L 334 305.5 Q 325 290 312.5 278 L 303 271.5 Q 298.4 261.6 290.5 255 L 281.5 253 L 279.5 253 Q 272.1 251.9 269 246.5 L 265.5 239 L 230.5 226 L 220.5 226 Q 217.9 229.9 210.5 229 L 207.5 228 L 202.5 228 L 183.5 223 Q 180.8 224.3 182 229.5 L 183 230.5 L 183 241.5 L 183 243.5 L 183 271.5 L 182 272.5 L 182 281.5 L 180 286.5 L 180 288.5 Q 179.5 299.5 176 307.5 L 169 320.5 Q 156.3 338.8 140.5 354 Q 129 365 113.5 372 L 96.5 376 L 84.5 381 L 79.5 380 Q 72 379.5 69 374.5 L 59 352.5 L 58 341.5 L 57 340.5 L 57 332.5 L 57 330.5 L 57 314.5 L 58 313.5 L 58 302.5 L 59 300.5 L 59 298.5 L 61 282.5 L 64 274.5 L 77 255.5 L 85.5 247 Q 99.9 237.9 111.5 226 L 129 215.5 L 109.5 210 L 71.5 191 L 57.5 182 L 31 157.5 Q 23.6 143.4 13 132.5 L 3 115.5 L 0 104.5 L 0.5 94 Z "></path><path fill="rgb(33,255,0)" stroke="rgb(33,255,0)" stroke-width="1" opacity="0.35294117647058826" d="M 399.5 184 L 400 185.5 L 397.5 189 L 373.5 209 L 364.5 214 L 349.5 216 L 344.5 219 L 329.5 219 L 320.5 216 L 315.5 216 L 313.5 216 L 303.5 216 L 292 219 Q 290.7 222.3 295.5 221 Q 305.6 223.4 311.5 230 Q 317.6 228.9 320 231.5 Q 315.8 233.8 320.5 236 L 329.5 239 L 343 248 L 352 259.5 L 355 266 L 361 270.5 L 382 307.5 L 383 319.5 L 389 338.5 L 400 365.5 L 400 371.5 L 399 371.5 L 396 359.5 L 386 335.5 L 380 316.5 L 380 308.5 L 378 303.5 L 361 273.5 L 339.5 248 L 316 234.5 L 317 231 L 310.5 231 L 298.5 224 L 290.5 223 L 289 221.5 L 291.5 218 L 295.5 216 Q 301 217.5 302.5 215 L 320.5 215 L 330.5 218 L 342.5 218 L 347.5 215 L 360.5 214 L 370.5 210 L 399 185.5 L 399.5 184 Z "></path></svg>