<svg width="400" height="400" version="1.1" xmlns="http://www.w3.org/2000/svg" desc="Created with imagetracer.js version 1.2.5"><path fill="rgb(0,210,255)" stroke="rgb(0,210,255)" stroke-width="1" opacity="0.00392156862745098" d="M 383.5 9 L 400 9.5 L 390.5 10 L 389.5 11 L 371.5 11 L 370.5 12 L 351.5 12 L 350.5 13 L 332.5 13 L 331.5 14 L 313.5 14 L 312.5 15 L 293.5 15 L 292.5 16 L 236.5 18 L 235.5 19 L 178.5 21 L 176.5 20 L 168.5 23 Q 153.9 39.9 134.5 52 L 105 80.5 L 96 92.5 L 53.5 137 L 50 139.5 L 44.5 146 L 34.5 151 L 31 154.5 L 30 157.5 L 30 214.5 L 29 215.5 L 29 281.5 L 28 282.5 L 27 400 L 25 399.5 L 25 392.5 L 26 391.5 L 28 197.5 L 29 196.5 L 28 194.5 L 29 193.5 L 29 154.5 L 31.5 151 Q 32.9 148.4 37.5 149 L 49 139.5 L 50.5 137 Q 52.8 137.8 52 135.5 L 57 131.5 Q 56.3 129.3 58.5 130 L 65 122 L 68 120.5 L 80 105 L 81.5 105 L 96 90.5 L 97 87.5 L 109.5 74 L 124 60.5 Q 123.3 58.3 125.5 59 Q 137.3 45.1 153 37 Q 151.9 34.3 154.5 35 L 167.5 22 L 173.5 19 L 180.5 19 Q 182.2 21.8 188.5 20 L 189.5 19 L 229.5 18 L 230.5 17 L 247.5 17 L 248.5 16 L 304.5 14 L 305.5 13 L 324.5 13 L 325.5 12 L 382.5 10 L 383.5 9 Z "></path><path fill="rgb(0,210,255)" stroke="rgb(0,210,255)" stroke-width="1" opacity="0.00392156862745098" d="M 396.5 33 Q 401.3 31.7 400 35 L 352.5 36 L 351.5 37 L 325.5 37 L 324.5 38 L 322.5 38 L 297.5 38 L 296.5 39 L 271.5 39 L 270.5 40 L 193.5 42 L 191 44.5 Q 191.8 46.8 189.5 46 L 178.5 57 L 177 57 L 177 59 Q 174.3 57.9 175 60.5 L 172 62 Q 173.1 64.7 170.5 64 L 169 67 L 167.5 67 L 150 83.5 L 148 86.5 L 145 88 Q 146.1 90.7 143.5 90 L 142 93 L 140.5 93 L 123 109.5 Q 123.8 111.8 121.5 111 L 118 116 L 116.5 116 L 96 135.5 Q 96.8 137.8 94.5 137 L 91 142 L 89.5 142 L 69 161.5 Q 69.8 163.8 67.5 163 L 64 168 L 61 169.5 L 62 212.5 L 63 213.5 L 63 243.5 L 64 245.5 L 64 247.5 L 64 276.5 L 65 277.5 L 65 310.5 L 66 311.5 L 68 399.5 L 67 399.5 L 60 168.5 L 191 42.5 L 191.5 41 L 209.5 41 L 210.5 40 L 288.5 38 L 289.5 37 L 315.5 37 L 316.5 36 L 368.5 35 L 369.5 34 L 395.5 34 L 396.5 33 Z "></path><path fill="rgb(0,210,255)" stroke="rgb(0,210,255)" stroke-width="1" opacity="0.00392156862745098" d="M 191.5 122 L 190.5 124 L 191.5 122 Z "></path><path fill="rgb(0,210,255)" stroke="rgb(0,210,255)" stroke-width="1" opacity="0.00392156862745098" d="M 188.5 125 L 185.5 129 L 188.5 125 Z "></path><path fill="rgb(0,210,255)" stroke="rgb(0,210,255)" stroke-width="1" opacity="0.00392156862745098" d="M 151.5 161 L 150.5 163 L 151.5 161 Z "></path><path fill="rgb(0,210,255)" stroke="rgb(0,210,255)" stroke-width="1" opacity="0.00392156862745098" d="M 148.5 164 L 145.5 168 L 148.5 164 Z "></path><path fill="rgb(0,0,0)" stroke="rgb(0,0,0)" stroke-width="1" opacity="0" d="M 0 0 L 399.5 0 L 400 0.5 L 400 9 L 181.5 20 Q 179.8 17.2 173.5 19 L 167.5 22 L 154.5 35 L 153 35 Q 154.1 37.7 151.5 37 L 124 59 L 124 60.5 L 110.5 74 L 104 79.5 L 96 90.5 L 81.5 105 Q 79.3 104.3 80 106.5 L 66.5 122 Q 64.3 121.3 65 123.5 L 57 130 L 54.5 134 L 52 135.5 Q 52.8 137.8 50.5 137 L 43.5 145 L 30 152.5 L 29 154.5 L 29 193.5 L 28 195.5 L 28 197.5 L 26 391.5 L 25 392.5 L 25 400 L 0.5 400 L 0 399.5 L 0 0 Z "></path><path fill="rgb(0,0,0)" stroke="rgb(0,0,0)" stroke-width="1" opacity="0" d="M 379.5 35 L 399.5 35 L 400 35.5 L 400 112 L 202.5 112 L 126 186.5 L 126 208.5 L 127 209.5 L 127 380.5 L 128 381.5 L 128 400 L 68 400 L 68 375.5 L 67 374.5 L 67 342.5 L 66 341.5 L 66 311.5 L 65 310.5 L 64 247.5 L 63 246.5 L 64 244.5 L 63 243.5 L 63 213.5 L 62 212.5 L 61 169.5 L 64 168 L 67.5 163 Q 69.8 163.8 69 161.5 L 89.5 142 L 91 142 L 94.5 137 Q 96.8 137.8 96 135.5 L 116.5 116 L 118 116 L 121.5 111 Q 123.8 111.8 123 109.5 L 140.5 93 L 142 93 L 143.5 90 L 146.5 88 L 148 85 Q 150.7 86.1 150 83.5 L 167.5 67 L 169 67 L 170.5 64 L 173.5 62 L 175 59 L 177 59 Q 175.9 56.3 178.5 57 L 189.5 46 L 191 46 L 193.5 42 L 270.5 40 L 271.5 39 L 296.5 39 L 297.5 38 L 322.5 38 L 323.5 37 L 325.5 37 L 351.5 37 L 352.5 36 L 378.5 36 L 379.5 35 Z "></path><path fill="rgb(0,186,255)" stroke="rgb(0,186,255)" stroke-width="1" opacity="0.9137254901960784" d="M 390.5 10 L 400 10 L 400 33 L 395.5 34 L 369.5 34 L 368.5 35 L 342.5 35 L 341.5 36 L 316.5 36 L 315.5 37 L 289.5 37 L 288.5 38 L 262.5 38 L 261.5 39 L 235.5 39 L 234.5 40 L 191 41 L 191 42.5 L 170.5 63 L 60 168.5 L 61 222.5 L 62 223.5 L 62 255.5 L 63 256.5 L 63 287.5 L 64 288.5 L 64 320.5 L 65 321.5 L 65 352.5 L 66 353.5 L 66 384.5 L 67 385.5 L 67 400 L 27 400 L 27 347.5 L 28 346.5 L 30 157.5 L 34.5 151 Q 44.4 147.9 50 140.5 L 52.5 137 L 70 120.5 L 73 115.5 L 96 92.5 L 109.5 76 L 134.5 52 Q 153.9 39.9 168.5 23 L 177.5 20 L 178.5 21 L 196.5 21 L 197.5 20 L 235.5 19 L 236.5 18 L 254.5 18 L 255.5 17 L 292.5 16 L 293.5 15 L 312.5 15 L 313.5 14 L 331.5 14 L 332.5 13 L 350.5 13 L 351.5 12 L 370.5 12 L 371.5 11 L 389.5 11 L 390.5 10 Z "></path><path fill="rgb(148,148,148)" stroke="rgb(148,148,148)" stroke-width="1" opacity="0.996078431372549" d="M 211 112 L 400 112 L 400 185.5 L 398.5 185 L 380.5 179 L 344.5 163 L 288.5 146 L 238.5 126 L 224.5 124 L 212 115.5 L 211 112 Z "></path><path fill="rgb(148,148,148)" stroke="rgb(148,148,148)" stroke-width="1" opacity="0.996078431372549" d="M 132.5 180 L 138.5 184 L 171.5 198 L 173.5 200 L 191.5 207 L 331 270.5 L 329.5 271 L 132 181.5 L 132.5 180 Z "></path><path fill="rgb(148,148,148)" stroke="rgb(148,148,148)" stroke-width="1" opacity="0.996078431372549" d="M 129.5 191 L 132 191.5 L 127.5 193 L 127.5 192 L 129.5 191 Z "></path><path fill="rgb(148,148,148)" stroke="rgb(148,148,148)" stroke-width="1" opacity="0.996078431372549" d="M 334.5 272 L 400 301 L 399.5 303 L 346.5 279 L 334.5 273 L 334.5 272 Z "></path><path fill="rgb(153,153,153)" stroke="rgb(153,153,153)" stroke-width="1" opacity="1" d="M 202.5 112 L 210.5 112 L 211 113.5 L 214.5 118 L 224.5 124 L 238.5 126 L 288.5 146 L 344.5 163 L 400 186.5 L 400 300.5 L 398.5 301 L 191.5 207 L 173.5 200 L 133 180.5 L 134.5 178 Q 136.8 178.8 136 176.5 L 142 172 L 144.5 168 L 171.5 142 L 173 142 L 174.5 139 Q 176.8 139.8 176 137.5 L 182 133 L 184.5 129 L 202.5 112 Z "></path><path fill="rgb(153,153,153)" stroke="rgb(153,153,153)" stroke-width="1" opacity="1" d="M 131.5 181 L 132 191 L 126.5 193 L 126 186.5 L 131.5 181 Z "></path><path fill="rgb(103,103,103)" stroke="rgb(103,103,103)" stroke-width="1" opacity="0.5803921568627451" d="M 126.5 193 L 127 208.5 L 126 208.5 L 126.5 193 Z "></path><path fill="rgb(103,103,103)" stroke="rgb(103,103,103)" stroke-width="1" opacity="0.5803921568627451" d="M 127.5 249 L 128 380.5 L 127 380.5 L 127.5 249 Z "></path><path fill="rgb(102,102,102)" stroke="rgb(102,102,102)" stroke-width="1" opacity="1" d="M 132.5 182 L 388.5 297 L 400 303.5 L 400 400 L 128 400 L 128 249.5 L 127 248.5 L 127 193 L 132 192 L 132.5 182 Z "></path></svg>