<svg width="400" height="400" version="1.1" xmlns="http://www.w3.org/2000/svg" desc="Created with imagetracer.js version 1.2.5"><path fill="rgb(41,151,216)" stroke="rgb(41,151,216)" stroke-width="1" opacity="0.9490196078431372" d="M 90 12 Q 92.7 10.9 92 13.5 L 95 15 L 95 19 L 98 19 L 98 22 L 100 22 L 100 25 L 102 25 L 102 27 Q 104.7 25.9 104 28.5 L 105 32 L 107 32 L 107 34 Q 109.7 32.9 109 35.5 L 110 39 L 112 39 Q 110.9 41.7 113.5 41 L 116 42 L 117 48 Q 112.8 49 113.5 46 L 104 46 L 104 94.5 L 100.5 95 L 97 94 L 95 90 L 92 90 Q 93.1 87.3 90.5 88 L 87 87 L 85 83 L 81.5 83 Q 78.8 81.6 80 77 L 78 76.5 L 78 46 L 66 46 L 66 42 L 70 41 L 71 37 L 73 37 L 73 34 Q 76.3 35.1 75 31 L 78 31 L 78 27 Q 80.7 28.1 80 25.5 L 83 24 L 83 20 L 84.5 20 L 87 19 L 88 15 Q 91.3 16.1 90 12 Z "></path><path fill="rgb(0,0,0)" stroke="rgb(0,0,0)" stroke-width="1" opacity="0" d="M 0 0 L 400 0 L 400 220 Q 396.6 218.3 389.5 219 L 380.5 215 L 374.5 215 L 358.5 210 L 349.5 209 L 343.5 205 L 330.5 204 L 322.5 200 L 303.5 197 L 293.5 200 L 287.5 204 L 276.5 206 L 270.5 210 L 267.5 210 L 260.5 214 L 253.5 215 L 246.5 219 L 235.5 221 L 229.5 226 L 218.5 229 L 214.5 232 L 214 218.5 L 215 216.5 L 215 214.5 L 215 202.5 L 217 198.5 Q 215.5 189.5 219 185.5 L 220 158.5 L 222 153.5 L 221 150.5 L 222 149.5 L 222 139.5 L 224 135.5 L 224 123.5 L 225 121.5 L 220.5 114 L 213.5 111 L 208.5 111 L 193.5 106 L 187.5 106 L 174.5 101 L 168.5 101 L 149.5 94 L 143.5 94 L 128.5 89 L 122.5 89 L 104 83 L 104 48.5 L 105 46 L 113.5 46 Q 112.8 49 117 48 L 116 42 L 114 42 L 114 39 L 112 39 Q 113.1 36.3 110.5 37 Q 108 35.8 109 32 L 105 31 L 104 25 L 100 24 Q 101 21 98 22 L 98 19.5 L 97 17 L 93 15 L 93 12 L 90 12 Q 91.1 14.7 88.5 14 Q 86 15.2 87 19 L 83 20 Q 84 23 81 22 L 81 24.5 L 80 27 L 78 27 L 78 29 Q 75.3 27.9 76 30.5 L 75 34 L 73 34 Q 74.1 36.7 71.5 36 Q 69 37.2 70 41 L 66 42 L 66 48 L 68 48 L 68.5 46 L 78 46 L 78 76.5 Q 78 77.5 73.5 77 Q 67.3 82.3 56.5 83 L 46.5 89 L 39.5 90 L 32.5 94 L 29.5 94 L 17.5 99 L 15.5 101 L 9.5 102 L 7.5 104 L 0 106 L 0 0 Z "></path><path fill="rgb(0,0,0)" stroke="rgb(0,0,0)" stroke-width="1" opacity="0" d="M 212.5 236 L 214 238.5 L 215 258.5 L 219 264.5 L 220 280.5 L 222 284.5 L 222 292.5 L 225 300.5 L 227 326.5 Q 230 330.5 230 337.5 L 235.5 344 L 238 345.5 L 240.5 349 L 250.5 352 Q 255.2 358.6 264 360 L 266.5 364 L 271.5 365 L 285.5 375 L 289.5 376 L 293.5 380 L 298.5 381 L 302.5 385 L 308 387.5 Q 307.5 391.5 310.5 392 L 323.5 394 L 329.5 392 L 332 389.5 Q 333.4 383.4 338.5 381 L 344 377.5 L 345.5 375 L 349 372.5 L 350.5 369 L 354 366.5 L 355.5 364 L 360 360.5 Q 359.3 358.3 361.5 359 L 367.5 352 L 374 346.5 Q 373.3 344.3 375.5 345 L 381.5 338 L 390 331.5 L 394 323.5 L 395 303.5 Q 397.5 302 396 296.5 L 398 292.5 L 398 283.5 L 399 282.5 L 399.5 265 L 400 400 L 0.5 400 L 0 399.5 L 0 310.5 L 2.5 312 L 8 313 L 10.5 317 L 15.5 318 L 27.5 327 L 41.5 334 L 44.5 337 L 47 337 L 49.5 341 L 54.5 342 L 58.5 346 L 71.5 352 L 75.5 356 L 82.5 359 L 95.5 368 L 105.5 370 L 109.5 368 L 155 323.5 Q 154.3 321.3 156.5 322 L 160 317 L 172 307.5 L 173.5 305 L 177 302.5 L 178.5 300 L 189 290.5 L 190.5 288 L 194 285.5 L 195.5 283 L 201 278.5 L 202.5 276 L 206 273.5 L 210 261.5 L 210 252.5 L 212 248.5 L 212.5 236 Z "></path><path fill="rgb(117,150,187)" stroke="rgb(117,150,187)" stroke-width="1" opacity="1" d="M 76 85 L 80 85 L 80 86.5 L 82.5 88 L 86.5 87 L 88 90 L 92 88 L 92 92 L 96.5 92 L 97 94 L 99.5 94 L 102 95 Q 101 98 104 97 Q 101.5 89.5 109 92 Q 107.7 95.7 113.5 94 L 114.5 95 L 121 95 L 121 97 L 126 97 L 126 98.5 L 128.5 100 L 132.5 99 L 138 100 L 136 104 Q 131.9 102.7 133 106 L 129.5 106 L 126 107 L 126 109 L 122 109 Q 123.3 112 119.5 111 L 114 112 L 114 114 L 110 114 Q 111.3 117 107.5 116 L 104 117 L 104 119 L 100 119 L 100 121 Q 95.9 119.7 97 123 L 93.5 123 L 90 124 L 88 128 L 98 129 L 98 131 L 104 131 L 104.5 133 L 109.5 133 L 116 134 L 116 136 L 121 136 L 121 138 Q 127.3 136.5 126.5 140 L 130.5 140 L 131.5 141 L 138 141 L 138 143 Q 144.3 141.5 143.5 145 L 147.5 145 L 153 146 L 153 148 L 158 148 L 158 150 L 163 150 L 163 151.5 L 163 153.5 L 162.5 155 L 162 153 L 160 153 L 160 157 L 158.5 157 L 156.5 158 L 155 157.5 L 155 160 L 151 160 L 151 161.5 Q 149.8 164 146 163 L 146 165 Q 143.3 163.9 144 166.5 L 143 166.5 Q 143.7 163.9 141 165 Q 142.7 170.2 139 169 L 138.5 167 L 138 169 L 136 169 L 136 172 Q 131.9 170.7 133 174 L 129.5 174 L 127 175 L 127 177 L 122 177 L 122 179.5 L 120.5 179 L 116 180 L 117 183.5 L 116 183.5 Q 116.7 180.9 114 182 Q 116.2 187.6 110.5 186 L 109 189 Q 103.7 187.8 104.5 191 L 97.5 191 L 95.5 192 L 95.5 191 Q 98.1 191.7 97 189 L 93 189 L 93 190.5 L 92 190.5 L 93 187 L 88 187 L 88 188.5 L 87 188.5 L 88 186.5 L 85.5 186 L 83.5 187 L 83.5 186 Q 86.1 186.7 85 184 L 80 184 Q 81 187 78 186 L 80 182 L 76 182 Q 77.3 179 73.5 180 L 68 179 L 68 177 L 63 177 Q 64 180 61 179 L 63 175 L 58 175 Q 59 178 56 177 Q 54.9 174.3 57.5 175 L 57.5 174 L 52.5 175 L 52.5 174 Q 55.1 174.7 54 172 Q 49.8 173 50.5 170 L 46 170 Q 47 173 44 172 Q 42.9 169.3 45.5 170 L 45.5 169 Q 40.5 170 41.5 167 L 37 167 L 37 165 L 32 165 Q 33 168 30 167 L 32 163 L 29 163 Q 30 166 27 165 Q 28.7 160.9 24.5 162 L 22.5 163 L 22.5 162 Q 25.1 162.7 24 160 L 18 160 L 18 158 L 25 157 L 25 155 Q 30.2 156.7 29 153 L 33.5 153 L 37 152 L 37 150 L 41 150 L 41 148 L 44 148 Q 42.8 145 46.5 146 L 51 145 L 51 143 Q 55.1 144.3 54 141 L 57.5 141 L 61 140 L 61 138 Q 65.1 139.3 64 136 L 69.5 136 L 70 134 L 72.5 134 L 76 133 L 76 131 L 80 131 Q 78.8 128 82.5 129 L 87 128 L 87 126 Q 81.8 127.7 83 124 L 78.5 124 L 73 123 L 73 121 L 66.5 121 L 66 119 Q 59.7 120.5 60.5 117 L 56.5 117 L 51 116 L 51 114 Q 44.7 115.5 45.5 112 L 41.5 112 L 35 111 L 35 109 L 29 109 L 28.5 107 L 22.5 107 L 22.5 106 L 29 106 L 29 104 Q 33.1 105.3 32 102 L 36.5 102 Q 35.5 99 40.5 100 L 44 99 L 44 97 L 48.5 97 L 49 95 L 51.5 95 L 58 94 L 58 92 L 63 92 L 63 90 L 67.5 90 L 68 88 L 70.5 88 L 76 87 L 76 85 Z M 156 155 Q 155 158 158 157 Q 159 154 156 155 Z "></path><path fill="rgb(117,150,187)" stroke="rgb(117,150,187)" stroke-width="1" opacity="1" d="M 144 102 Q 149.2 100.3 148 104 Q 142.8 105.7 144 102 Z "></path><path fill="rgb(117,150,187)" stroke="rgb(117,150,187)" stroke-width="1" opacity="1" d="M 151 104 Q 154 103 153 106 Q 150 107 151 104 Z "></path><path fill="rgb(117,150,187)" stroke="rgb(117,150,187)" stroke-width="1" opacity="1" d="M 165 107 Q 168 106 167 109 Q 164 110 165 107 Z "></path><path fill="rgb(117,150,187)" stroke="rgb(117,150,187)" stroke-width="1" opacity="1" d="M 190 114 Q 193 113 192 116 Q 189 117 190 114 Z "></path><path fill="rgb(117,150,187)" stroke="rgb(117,150,187)" stroke-width="1" opacity="1" d="M 196.5 116 L 199 116.5 L 196.5 117 L 196.5 116 Z "></path><path fill="rgb(117,150,187)" stroke="rgb(117,150,187)" stroke-width="1" opacity="1" d="M 202 117 Q 207.2 115.3 206 119 Q 200.8 120.7 202 117 Z "></path><path fill="rgb(117,150,187)" stroke="rgb(117,150,187)" stroke-width="1" opacity="1" d="M 211 119 Q 214 118 213 121 Q 210 122 211 119 Z "></path><path fill="rgb(117,150,187)" stroke="rgb(117,150,187)" stroke-width="1" opacity="1" d="M 197 131 Q 200 130 199 133 Q 196 134 197 131 Z "></path><path fill="rgb(117,150,187)" stroke="rgb(117,150,187)" stroke-width="1" opacity="1" d="M 170 148 Q 173 147 172 150 Q 169 151 170 148 Z "></path><path fill="rgb(117,150,187)" stroke="rgb(117,150,187)" stroke-width="1" opacity="1" d="M 0.5 152 Q 4.7 150.9 3 155 Q 0.3 156.1 1 153.5 L 0.5 152 Z "></path><path fill="rgb(117,150,187)" stroke="rgb(117,150,187)" stroke-width="1" opacity="1" d="M 10 155 Q 13.3 153.9 12 158 Q 8.7 159.1 10 155 Z "></path><path fill="rgb(117,150,187)" stroke="rgb(117,150,187)" stroke-width="1" opacity="1" d="M 13 158 Q 18.2 156.3 17 160 Q 11.8 161.7 13 158 Z "></path><path fill="rgb(117,150,187)" stroke="rgb(117,150,187)" stroke-width="1" opacity="1" d="M 47 172 Q 50 171 49 174 Q 46 175 47 172 Z "></path><path fill="rgb(117,150,187)" stroke="rgb(117,150,187)" stroke-width="1" opacity="1" d="M 73 182 Q 76 181 75 184 Q 72 185 73 182 Z "></path><path fill="rgb(117,150,187)" stroke="rgb(117,150,187)" stroke-width="1" opacity="1" d="M 100 192 Q 103 191 102 194 Q 99 195 100 192 Z "></path><path fill="rgb(117,150,187)" stroke="rgb(117,150,187)" stroke-width="1" opacity="1" d="M 305.5 204 L 306 207.5 L 305 207.5 L 305.5 204 Z "></path><path fill="rgb(117,150,187)" stroke="rgb(117,150,187)" stroke-width="1" opacity="1" d="M 305.5 209 L 306 219.5 L 305 219.5 L 305.5 209 Z "></path><path fill="rgb(117,150,187)" stroke="rgb(117,150,187)" stroke-width="1" opacity="1" d="M 356 218 Q 360.1 216.7 359 220 Q 354.9 221.3 356 218 Z "></path><path fill="rgb(117,150,187)" stroke="rgb(117,150,187)" stroke-width="1" opacity="1" d="M 395 226 Q 398 225 397 228 Q 394 229 395 226 Z "></path><path fill="rgb(117,150,187)" stroke="rgb(117,150,187)" stroke-width="1" opacity="1" d="M 392.5 228 L 393 231.5 Q 392.3 233.8 388.5 233 L 388.5 232 L 392 232 L 392.5 228 Z "></path><path fill="rgb(117,150,187)" stroke="rgb(117,150,187)" stroke-width="1" opacity="1" d="M 381 235 Q 386.6 233.1 385 238 Q 379.4 239.9 381 235 Z "></path><path fill="rgb(117,150,187)" stroke="rgb(117,150,187)" stroke-width="1" opacity="1" d="M 376 238 Q 381.2 236.3 380 240 L 376 242 L 376 238 Z "></path><path fill="rgb(117,150,187)" stroke="rgb(117,150,187)" stroke-width="1" opacity="1" d="M 395 238 Q 398.7 236.8 397 242 Q 393.3 243.2 395 238 Z "></path><path fill="rgb(117,150,187)" stroke="rgb(117,150,187)" stroke-width="1" opacity="1" d="M 369 242 Q 374.6 240.1 373 245 L 369 245 L 369 246.5 L 368 246.5 L 369 242 Z "></path><path fill="rgb(117,150,187)" stroke="rgb(117,150,187)" stroke-width="1" opacity="1" d="M 393 247 Q 396.3 245.9 395 250 Q 391.7 251.1 393 247 Z "></path><path fill="rgb(117,150,187)" stroke="rgb(117,150,187)" stroke-width="1" opacity="1" d="M 361.5 249 L 363 249.5 L 361 250 Q 362 253 359 252 Q 357.9 249.3 360.5 250 L 361.5 249 Z "></path><path fill="rgb(117,150,187)" stroke="rgb(117,150,187)" stroke-width="1" opacity="1" d="M 352.5 254 L 354 254.5 L 352 255 L 351 259 Q 347.3 260.2 349 255 L 352.5 254 Z "></path><path fill="rgb(117,150,187)" stroke="rgb(117,150,187)" stroke-width="1" opacity="1" d="M 392.5 255 L 393 260.5 L 392 260.5 L 392.5 255 Z "></path><path fill="rgb(117,150,187)" stroke="rgb(117,150,187)" stroke-width="1" opacity="1" d="M 346.5 259 L 347 260.5 L 344.5 262 L 344.5 261 Q 347 261.7 346.5 259 Z "></path><path fill="rgb(117,150,187)" stroke="rgb(117,150,187)" stroke-width="1" opacity="1" d="M 339 262 Q 343.1 260.7 342 264 Q 337.9 265.3 339 262 Z "></path><path fill="rgb(117,150,187)" stroke="rgb(117,150,187)" stroke-width="1" opacity="1" d="M 334.5 266 L 337 266.5 L 334 267 Q 335 270 332 269 Q 330.9 266.3 333.5 267 L 334.5 266 Z "></path><path fill="rgb(117,150,187)" stroke="rgb(117,150,187)" stroke-width="1" opacity="1" d="M 306 269 L 311 269 Q 310 272 313 271 L 313 274 Q 309.7 275.1 311 271 L 306 271 L 306 269 Z "></path><path fill="rgb(117,150,187)" stroke="rgb(117,150,187)" stroke-width="1" opacity="1" d="M 327 269 Q 331.1 267.7 330 271 L 327 271 Q 328.3 275.1 325 274 L 325 271 Q 328 272 327 269 Z "></path><path fill="rgb(117,150,187)" stroke="rgb(117,150,187)" stroke-width="1" opacity="1" d="M 306 274 L 308 274.5 L 308 284 L 306 283.5 L 306 274 Z "></path><path fill="rgb(117,150,187)" stroke="rgb(117,150,187)" stroke-width="1" opacity="1" d="M 318 274 L 323 276.5 L 323 296 L 320 296.5 L 320 324 L 323 323.5 L 323 298.5 Q 325.8 299.1 325 296 L 327 296 L 325 300 Q 328.7 302.2 337 301 L 337 303 Q 332.9 301.7 334 305 L 340 305 L 340 308 L 344 308 Q 343 311 346 310 L 346 308 L 351 308 Q 349.9 311.3 354 310 L 354 315 L 357 315 Q 355.7 310.9 359 312 L 359 315 L 365.5 315 L 366 317 L 363 317.5 L 367.5 318 L 372.5 317 Q 375 318.2 374 322 L 378 322 Q 377 325 380 324 L 380.5 322 L 381 324 L 386 324.5 L 385 327 L 381 325 Q 382 328.8 379.5 330 Q 376.9 329.3 378 332 L 376 332 Q 375 329 378 330 L 378 327 L 374 327 L 374 324 L 369 324 L 369 322 Q 364.9 323.3 366 320 L 361 320 Q 362.1 317.3 359.5 318 L 354 317 Q 355 314 352 315 L 352 312.5 L 351 312.5 Q 352 316.3 349 315 L 349 312 Q 346.3 313.1 347 310.5 L 346 310.5 L 346 312 L 342 312 Q 343.1 308.7 339 310 L 339 312 L 334 312 L 334 317 L 330.5 317 L 327 318 L 327 322 L 325 322 Q 325.8 325.1 323 324.5 L 323 336 L 327 337 L 327 339 L 333.5 339 Q 332.8 342 337 341 L 337 344 L 343.5 344 L 344 346 L 345.5 346 L 348.5 347 L 351 346 L 351 344 L 356 344 L 356 339 L 359 339 Q 358 342 361 341 L 361.5 339 L 368 339 L 368 336.5 L 369 334 L 373 334 L 373 332.5 L 374 332.5 L 373 337 L 369 337 L 369 338.5 L 368 341 L 366 341 L 366 344 L 363 344 Q 364.1 346.7 361.5 346 L 359 347 L 359 351 Q 356.3 349.9 357 352.5 L 354 354 L 354 358 L 352.5 358 L 349 359 L 349 361 Q 346.3 359.9 347 362.5 L 344 364 L 344 366 L 342 366 L 342 368 Q 339.3 366.9 340 369.5 L 337 371 L 337 373 L 334 373 Q 335.1 375.7 332.5 375 L 330 376 L 330 380 Q 325.5 378.5 327 383 L 323 383 L 323 336.5 L 320 336 L 320 386.5 L 318 387 Q 320.3 381 313.5 383 L 311 382 L 311 380 L 308 380 L 308 378 Q 305.3 379.1 306 376.5 Q 304.6 373.8 300 375 Q 301.2 371.3 296 373 L 296 370 L 291 370 L 291 366 Q 286.9 367.3 288 364 L 282.5 364 L 281 361 Q 278 362 279 359 L 274.5 359 L 271 358 L 269 354 L 264 354 Q 265.6 349.1 260 351 L 260 347 L 254 347 L 254 344 L 248 344 L 248 341 Q 243.8 342 244.5 339 L 240 339 Q 241.1 336.3 238.5 337 L 238.5 336 Q 241.1 336.7 240 334 L 242 334 L 242 332 L 247 332 L 247 330.5 L 248 327 L 253.5 327 L 254 325.5 Q 255.4 322.8 260 324 L 260 322 L 264 320 L 264 317 L 271 317 Q 269.9 313.7 274 315 L 274 312 Q 278.1 313.3 277 310 L 281 310 Q 279.9 306.7 284 308 L 284 305 L 289 305 L 291 301 L 293.5 301 L 296 300 L 296 296 L 303 296 L 303 293 Q 307.1 294.3 306 291 L 309.5 291 L 311 290.5 L 310 292.5 L 311 295 Q 313.8 296.9 320 296 L 320 276.5 Q 317.3 277.1 318 274 Z M 301 325 L 301 332 Q 304 333 303 329 Q 307 328 305 336 L 306 336 Q 305 333 308 334 L 308 332 L 311 332 L 311 329 Q 307 330 308 327 L 301 327 L 301 325 Z M 294 327 Q 293 330 296 329 Q 297 326 294 327 Z M 315 329 L 315 332 L 320 332 L 320 330 L 315 329 Z "></path><path fill="rgb(62,100,168)" stroke="rgb(62,100,168)" stroke-width="1" opacity="0.996078431372549" d="M 78 77 Q 81.7 75.7 80 81.5 L 80.5 83 L 78 82 L 78 77 Z "></path><path fill="rgb(62,100,168)" stroke="rgb(62,100,168)" stroke-width="1" opacity="0.996078431372549" d="M 83 83 Q 86 82 85 85 Q 82 86 83 83 Z "></path><path fill="rgb(62,100,168)" stroke="rgb(62,100,168)" stroke-width="1" opacity="0.996078431372549" d="M 213.5 123 L 213 124.5 Q 213.7 127.1 211 126 Q 209.9 123.3 212.5 124 L 213.5 123 Z "></path><path fill="rgb(62,100,168)" stroke="rgb(62,100,168)" stroke-width="1" opacity="0.996078431372549" d="M 208.5 126 L 209 127.5 L 206.5 129 L 206.5 128 Q 209 128.7 208.5 126 Z "></path><path fill="rgb(62,100,168)" stroke="rgb(62,100,168)" stroke-width="1" opacity="0.996078431372549" d="M 202 129 Q 205 128 204 131 Q 201 132 202 129 Z "></path><path fill="rgb(62,100,168)" stroke="rgb(62,100,168)" stroke-width="1" opacity="0.996078431372549" d="M 194 134 Q 197 133 196 136 L 192 138 L 194 134 Z "></path><path fill="rgb(62,100,168)" stroke="rgb(62,100,168)" stroke-width="1" opacity="0.996078431372549" d="M 180 143 Q 183 142 182 145 L 179.5 146 L 180 144.5 L 180 143 Z "></path><path fill="rgb(62,100,168)" stroke="rgb(62,100,168)" stroke-width="1" opacity="0.996078431372549" d="M 175 146 Q 178 145 177 148 Q 174 149 175 146 Z "></path><path fill="rgb(62,100,168)" stroke="rgb(62,100,168)" stroke-width="1" opacity="0.996078431372549" d="M 170 150 Q 173 149 172 152 Q 169 153 170 150 Z "></path><path fill="rgb(62,100,168)" stroke="rgb(62,100,168)" stroke-width="1" opacity="0.996078431372549" d="M 167.5 152 L 167 153.5 Q 167.7 156.1 165 155 L 165 157 L 167 157.5 L 167 184 L 165 184.5 L 165 210.5 L 163 211.5 L 163 237 L 165 237 L 165 235 L 168 235 Q 166.9 232.3 169.5 233 L 172 232 L 173 228 Q 176 229 175 226 L 178.5 226 L 180 223 L 182 223 Q 180.9 220.3 183.5 221 L 187 220 L 187 218 Q 189.7 219.1 189 216.5 L 192 215 L 194 211 L 197 211 Q 195.9 208.3 198.5 209 L 201 208 L 202 204 L 206 203 Q 207 207.3 204 206.5 L 204 226 L 206 226 L 206 232 L 204 232 L 204 226 L 202 226 L 202 241.5 Q 205.5 240.7 204 247 L 201 247 L 201 261.5 L 199 262 L 199 267 Q 196.3 265.9 197 268.5 L 196 271 L 192 272 L 192 274 Q 189.3 272.9 190 275.5 L 189 278 L 185 279 L 184 283 L 180 284 L 179 288 L 177 288 Q 178.1 290.7 175.5 290 L 173 291 L 172 295 L 168 296 L 167 300 L 163 301 L 162 305 L 158 307 L 158 300.5 Q 160.8 301.1 160 298 Q 157 299 158 296 L 160 295.5 L 160 267.5 L 162 266.5 L 162 242.5 L 163 240 L 160 240 L 160 242 L 158 242 Q 159.1 244.7 156.5 244 L 153 245 L 153 247 Q 150.3 245.9 151 248.5 Q 149.8 251 146 250 L 146 252 Q 143.3 250.9 144 253.5 L 141 255 L 139 259 L 136 259 Q 137.1 261.7 134.5 261 L 133 264 L 131 264 Q 132.1 266.7 129.5 266 L 126 267 L 126 269 L 124 269 Q 125.1 271.7 122.5 271 L 121 274 L 117 274 L 117 275.5 L 116 278 L 112 279 L 110 283 L 107 283 L 107 276.5 L 105 276 L 104.5 286 L 104 276 L 102 275.5 L 102 192 L 104 192.5 L 104 275.5 L 105 275.5 L 105 194.5 Q 107.7 195.1 107 192 L 105 191.5 L 107 191 L 107 189 Q 111.1 190.3 110 187 L 113.5 187 L 116 186 L 116.5 184 L 117 186 Q 122.2 187.7 121 184 Q 118 185 119 182 Q 121.7 183.1 121 180.5 L 122 180.5 L 121 184 L 124 184 L 126 180 L 124 179.5 L 125.5 179 L 127 179.5 L 127 177 L 131 175 Q 129.9 178.3 134 177 L 133 174.5 L 134 172 L 138 172 L 138 170.5 L 139 170.5 L 139 172 L 143 172 Q 144.1 169.3 141.5 170 L 141.5 169 Q 143.8 169.8 143 167.5 L 144 167.5 L 144 169 L 148 169 L 146 165 Q 149 166 148 163 L 150.5 163 L 153 162 L 153 160 L 156 160 Q 155 157 158 158 Q 156.8 161.7 162 160 Q 163.1 157.3 160.5 158 L 160.5 157 L 166.5 153 L 167.5 152 Z M 163 157 L 163 158 L 165 158 L 163 157 Z M 156 160 Q 155 163 158 162 Q 159 159 156 160 Z M 151 163 Q 150 166 153 165 Q 154 162 151 163 Z M 148 165 Q 147 168 150 167 Q 151 164 148 165 Z M 135 174 L 135 175 L 138 175 L 135 174 Z M 129 177 Q 128 180 131 179 Q 132 176 129 177 Z M 114 187 Q 113 190 116 189 Q 117 186 114 187 Z M 110 189 Q 109 192 112 191 Q 113 188 110 189 Z "></path><path fill="rgb(62,100,168)" stroke="rgb(62,100,168)" stroke-width="1" opacity="0.996078431372549" d="M 211 165 Q 214 164 213 167 Q 210 168 211 165 Z "></path><path fill="rgb(62,100,168)" stroke="rgb(62,100,168)" stroke-width="1" opacity="0.996078431372549" d="M 305.5 220 L 306 237.5 L 305 237.5 L 305.5 220 Z "></path><path fill="rgb(62,100,168)" stroke="rgb(62,100,168)" stroke-width="1" opacity="0.996078431372549" d="M 228 238 L 231 238 L 233 242 Q 230 243 231 240 L 228 240 L 228 238 Z "></path><path fill="rgb(62,100,168)" stroke="rgb(62,100,168)" stroke-width="1" opacity="0.996078431372549" d="M 305.5 240 L 306 251.5 L 305 251.5 L 305.5 240 Z "></path><path fill="rgb(62,100,168)" stroke="rgb(62,100,168)" stroke-width="1" opacity="0.996078431372549" d="M 238 242 L 243 242 L 243 245 Q 246 244 245 247 Q 240.9 248.3 242 245 L 238 245 L 238 242 Z "></path><path fill="rgb(62,100,168)" stroke="rgb(62,100,168)" stroke-width="1" opacity="0.996078431372549" d="M 248 247 Q 251 246 250 249 Q 247 250 248 247 Z "></path><path fill="rgb(62,100,168)" stroke="rgb(62,100,168)" stroke-width="1" opacity="0.996078431372549" d="M 254.5 249 L 260 250 L 260 252 Q 265.2 250.3 264 254 L 257 254 L 257 252 Q 254.3 253.1 255 250.5 L 254.5 249 Z "></path><path fill="rgb(62,100,168)" stroke="rgb(62,100,168)" stroke-width="1" opacity="0.996078431372549" d="M 267.5 254 L 276 255 L 277 259 Q 280 258 279 261 Q 276 262 277 259 L 272 259 L 272 257 L 269 257 Q 270.1 254.3 267.5 255 L 267.5 254 Z "></path><path fill="rgb(62,100,168)" stroke="rgb(62,100,168)" stroke-width="1" opacity="0.996078431372549" d="M 281 259 Q 285.1 257.7 284 261 L 288 261 L 288 266 L 291 266 Q 289.9 262.7 294 264 L 294 266 L 291 266.5 L 291 280.5 L 289 281 L 289 282.5 L 287.5 284 L 276 284 L 277 271.5 L 276 269 L 282 269 L 282 264 Q 285 265 284 262 Q 279.5 263.5 281 259 Z "></path><path fill="rgb(62,100,168)" stroke="rgb(62,100,168)" stroke-width="1" opacity="0.996078431372549" d="M 296 264 Q 299 263 298 266 Q 295 267 296 264 Z "></path><path fill="rgb(62,100,168)" stroke="rgb(62,100,168)" stroke-width="1" opacity="0.996078431372549" d="M 300.5 266 L 303 267 L 303 269 L 298 269 Q 296.9 266.3 299.5 267 L 300.5 266 Z "></path><path fill="rgb(62,100,168)" stroke="rgb(62,100,168)" stroke-width="1" opacity="0.996078431372549" d="M 303 291 Q 306 290 305 293 Q 302 294 303 291 Z "></path><path fill="rgb(62,100,168)" stroke="rgb(62,100,168)" stroke-width="1" opacity="0.996078431372549" d="M 294 298 Q 297 297 296 300 Q 293 301 294 298 Z "></path><path fill="rgb(62,100,168)" stroke="rgb(62,100,168)" stroke-width="1" opacity="0.996078431372549" d="M 282 305 Q 285.3 303.9 284 308 Q 280.7 309.1 282 305 Z "></path><path fill="rgb(62,100,168)" stroke="rgb(62,100,168)" stroke-width="1" opacity="0.996078431372549" d="M 277 308 Q 280 307 279 310 Q 276 311 277 308 Z "></path><path fill="rgb(62,100,168)" stroke="rgb(62,100,168)" stroke-width="1" opacity="0.996078431372549" d="M 262 318 Q 265 317 264 320 Q 261 321 262 318 Z "></path><path fill="rgb(62,100,168)" stroke="rgb(62,100,168)" stroke-width="1" opacity="0.996078431372549" d="M 252 325 Q 255 324 254 327 Q 251 328 252 325 Z "></path><path fill="rgb(62,100,168)" stroke="rgb(62,100,168)" stroke-width="1" opacity="0.996078431372549" d="M 240 332 Q 243 331 242 334 Q 239 335 240 332 Z "></path><path fill="rgb(133,162,194)" stroke="rgb(133,162,194)" stroke-width="1" opacity="1" d="M 88 88 Q 91 87 90 90 Q 87 91 88 88 Z "></path><path fill="rgb(133,162,194)" stroke="rgb(133,162,194)" stroke-width="1" opacity="1" d="M 92 90 Q 96.1 88.7 95 92 Q 90.9 93.3 92 90 Z "></path><path fill="rgb(133,162,194)" stroke="rgb(133,162,194)" stroke-width="1" opacity="1" d="M 102 95 Q 105 94 104 97 Q 101 98 102 95 Z "></path><path fill="rgb(133,162,194)" stroke="rgb(133,162,194)" stroke-width="1" opacity="1" d="M 136 102 L 143.5 102 L 144.5 104 L 150.5 104 Q 149.6 107.2 157.5 106 L 158.5 107 L 165 107 L 165 109 L 171.5 109 L 172.5 111 L 178.5 111 L 184 112 L 184 114 L 190 114 L 190.5 116 L 195.5 116 L 202 117 L 202.5 119 L 211 119 L 211 121 Q 215.1 119.7 214 123 L 209 124 L 208.5 126 L 208 124 L 206 124 L 206 128 L 204.5 128 L 202.5 129 L 201 128.5 L 201 131 L 197 131 L 197 132.5 Q 195.8 135 192 134 L 192 136 L 189 136 L 189 138 L 185 140 L 184.5 138 L 184 140 L 182 140 L 182 143 L 179 143 Q 180.1 145.7 177.5 145 L 173 146 L 173 148 L 170 148 L 168 152 L 165.5 152 L 162 153 Q 163 156 160 155 Q 158.9 152.3 161.5 153 L 163 150 L 158 150 L 158 148 Q 151.7 149.5 152.5 146 L 148.5 146 L 143 145 L 143 143 L 138 143 L 138 141 L 131.5 141 L 126 140 L 126 138 L 121 138 L 121 136 L 116 136 L 116 134 L 110.5 134 L 104 133 L 104 131 L 98.5 131 Q 99.5 127.8 93.5 129 L 88 128 L 90 124 L 92.5 124 L 97 123 L 97 121 Q 101.1 122.3 100 119 L 104 119 Q 102.8 116 106.5 117 L 110 116 L 110 114 Q 115.2 115.7 114 112 L 118.5 112 L 122 111 L 122 109 L 126 109 Q 124.8 106 128.5 107 L 133 106 L 133 104 Q 137.1 105.3 136 102 Z "></path><path fill="rgb(133,162,194)" stroke="rgb(133,162,194)" stroke-width="1" opacity="1" d="M 18 107 L 28.5 107 L 29 109 L 35 109 L 35.5 111 L 40.5 111 L 46 112 L 46 114 Q 52.3 112.5 51.5 116 L 55.5 116 L 61 117 L 61 119 L 66 119 L 66 121 L 72.5 121 Q 71.5 124.3 77.5 123 L 83 124 L 83 126 Q 88.2 124.3 87 128 L 80 129 L 80 131 L 76 131 Q 77.3 134 73.5 133 L 70 134 L 70 136 L 64 136 L 64 138 L 61 138 Q 62.3 141 58.5 140 L 54 141 L 54 143 Q 49.9 141.7 51 145 L 47.5 145 L 44 146 L 44 148 Q 39.9 146.7 41 150 L 37 150 Q 38.3 153 34.5 152 L 29 153 L 29 155 L 25 155 Q 26.3 158 22.5 157 Q 21 159.5 15.5 158 L 12 157 L 12 155 L 6 155 Q 7.1 158.3 3 157 Q 1.9 153.7 6 155 L 6 153 L 0 152 L 0 116.5 L 1 114 L 5.5 114 Q 4.5 111 9.5 112 L 13 111 L 13 109 L 18 109 L 18 107 Z "></path><path fill="rgb(133,162,194)" stroke="rgb(133,162,194)" stroke-width="1" opacity="1" d="M 156 155 Q 159 154 158 157 L 155.5 158 L 156 156.5 L 156 155 Z "></path><path fill="rgb(133,162,194)" stroke="rgb(133,162,194)" stroke-width="1" opacity="1" d="M 17.5 160 L 18 162 L 27 163 Q 25.9 166.3 30 165 L 30 169 L 32 169 Q 31 166 34 167 L 34.5 170 L 38.5 169 L 38.5 170 Q 35.9 169.3 37 172 L 41 172 Q 39.9 168.7 44 170 L 44 172 Q 48.1 170.7 47 174 L 51.5 174 L 56 175 L 56 177 Q 62.3 175.5 61.5 179 L 65.5 179 L 70 180 Q 68.9 183.3 73 182 L 73 186 L 75 186 Q 73.9 182.7 78 184 Q 76.7 187.7 82.5 186 L 87 187 L 87 189 L 92 189 Q 90.9 192.3 95 191 L 95 194 L 97 194 Q 95.9 190.7 100 192 Q 100.8 195.1 98 194.5 L 98 276 L 100 275.5 L 100 196.5 L 102 196 L 102 275.5 L 100 276.5 L 100 286 L 98 286 Q 99.3 283 95.5 284 L 92 283 L 92 281 L 88 281 Q 89.3 278 85.5 279 L 81 278 L 81 276 L 78 276 L 78 274 Q 73.9 275.3 75 272 L 71.5 272 L 70 269 L 66 269 Q 67.3 266 63.5 267 L 59 266 L 59 264 Q 54.9 265.3 56 262 L 52.5 262 L 49 261 L 49 259 Q 44.9 260.3 46 257 L 42 257 Q 43.3 254 39.5 255 L 35 254 L 35 252 L 32 252 Q 33.3 249 29.5 250 L 27 249 L 27 266.5 L 29 267.5 L 29 285.5 L 30 286.5 L 30 303 L 32 303.5 L 32 317 L 29.5 318 L 27 317 L 27 315 L 24 315 Q 25.1 312.3 22.5 313 L 18 312 Q 19.1 308.7 15 310 L 15 307 L 10 307 Q 11.7 301.8 8 303 Q 9 306 6 305 Q 8.3 299 1.5 301 L 0 299.5 L 0 235.5 L 1 235.5 Q 0.1 238.5 4.5 237 L 8 238 L 8 240 L 12 240 L 12 242 L 15 242 Q 13.8 245 17.5 244 L 22 245 Q 20.9 248.3 25 247 L 24 211 L 22 210.5 L 22 194.5 L 20 193.5 L 20 179.5 L 18 178.5 L 18 162.5 L 17.5 160 Z M 64 180 Q 63 183 66 182 Q 67 179 64 180 Z "></path><path fill="rgb(133,162,194)" stroke="rgb(133,162,194)" stroke-width="1" opacity="1" d="M 143.5 163 L 144 164.5 L 143 167 Q 140 168 141 165 Q 143.8 166 143.5 163 Z "></path><path fill="rgb(133,162,194)" stroke="rgb(133,162,194)" stroke-width="1" opacity="1" d="M 138.5 167 L 139 168.5 L 136.5 170 L 136.5 169 Q 139 169.7 138.5 167 Z "></path><path fill="rgb(133,162,194)" stroke="rgb(133,162,194)" stroke-width="1" opacity="1" d="M 122 177 Q 125 176 124 179 Q 121 180 122 177 Z "></path><path fill="rgb(133,162,194)" stroke="rgb(133,162,194)" stroke-width="1" opacity="1" d="M 119.5 179 L 121 179.5 L 119 180 L 119 182 L 116 182 Q 117 185 114 184 L 116 180 L 118.5 180 L 119.5 179 Z "></path><path fill="rgb(133,162,194)" stroke="rgb(133,162,194)" stroke-width="1" opacity="1" d="M 313 206 Q 318.2 204.3 317 208 Q 311.8 209.7 313 206 Z "></path><path fill="rgb(133,162,194)" stroke="rgb(133,162,194)" stroke-width="1" opacity="1" d="M 323 209 Q 326 208 325 211 Q 322 212 323 209 Z "></path><path fill="rgb(133,162,194)" stroke="rgb(133,162,194)" stroke-width="1" opacity="1" d="M 337 211 Q 340 210 339 213 Q 336 214 337 211 Z "></path><path fill="rgb(133,162,194)" stroke="rgb(133,162,194)" stroke-width="1" opacity="1" d="M 340 213 Q 343 212 342 215 Q 339 216 340 213 Z "></path><path fill="rgb(133,162,194)" stroke="rgb(133,162,194)" stroke-width="1" opacity="1" d="M 347 216 L 354 216 L 354 218 Q 357.1 217.3 356.5 220 L 365.5 220 L 366.5 221 L 374 221 L 374 223 L 379.5 223 L 380 225 L 382.5 225 L 383.5 226 L 395 226 L 397 230 Q 394 229 395 232 L 397 232 L 397 238 L 395 238.5 L 395 246.5 Q 391.6 245.7 393 254.5 L 392 255.5 L 392 283 L 388 281 L 388 278 L 383 278 L 381 274 L 369.5 274 L 369 271.5 L 368 269 L 359 269 L 359 267 L 354 267 L 354 264 Q 356.7 262.9 356 265.5 L 357 265.5 Q 356.3 262.9 359 264 L 359 262 L 349 261 L 349 259 Q 346.3 260.1 347 257.5 L 346 256.5 L 346 226.5 Q 348.3 225.3 347 220.5 L 346 218.5 L 347 216 Z M 392 228 L 392 232 L 393 232 Q 392 229 395 230 Q 396 227 392 228 Z M 389 232 L 389 233 L 392 233 L 389 232 Z M 383 233 Q 384 236 381 235 Q 379 240 385 238 L 385 233 L 383 233 Z M 386 233 Q 385 236 388 235 Q 389 232 386 233 Z M 376 238 Q 377 241 373 240 L 373 242 L 366 242 Q 365 246 368 245 L 368 249 L 369 249 L 369 245 L 374 245 L 374 242 L 378 242 Q 377 239 380 240 Q 381 236 376 238 Z M 361 247 Q 362 251 359 250 L 360 252 L 366 252 Q 367 249 363 250 L 363 247 L 361 247 Z M 354 252 L 354 254 L 352 255 L 356 255 Q 357 251 354 252 Z M 357 252 Q 356 255 359 254 Q 360 251 357 252 Z M 350 254 L 347 255 L 349 259 L 351 259 L 352 256 L 350 254 Z M 352 257 Q 351 260 354 259 Q 355 256 352 257 Z "></path><path fill="rgb(133,162,194)" stroke="rgb(133,162,194)" stroke-width="1" opacity="1" d="M 306 252 Q 312.3 250.5 311.5 254 L 319.5 254 L 323 255 L 323 257 Q 328.2 255.3 327 259 L 334 259 L 334 262 L 337 262 L 337 266 L 338.5 266 L 338.5 267 L 330 266 L 330 269 L 323.5 269 L 323 271 Q 326.3 269.9 325 274 L 330 274 L 330 276 L 327 276.5 L 327 290 L 330 290 L 330 295 L 331.5 295 L 337 296 Q 336 299 339 298 L 339.5 296 L 340 297.5 L 339 302.5 L 340 302.5 Q 339.3 300.3 341.5 301 L 344 300 L 344 303 L 340 303 L 340 304.5 L 339 304.5 Q 339.7 301.9 337 303 L 337 300 L 334.5 300 L 330.5 301 L 327 300 L 327 298 Q 331.1 299.3 330 296 L 323 296 L 323 276 Q 326 277 325 274 L 318 274 L 318 271.5 L 317 271.5 L 317 276 L 320 276.5 L 320 296 L 315 295 L 315 293 L 311 293 L 311 290 Q 306.9 291.3 308 288 Q 311.7 289.2 310 284 L 308 283.5 L 310 283 L 310 274 Q 304.4 275.9 306 271 L 311 271 L 311 269 L 306 268.5 L 306 252 Z M 311 271 Q 310 275 313 274 Q 314 270 311 271 Z M 330 298 Q 329 301 332 300 Q 333 297 330 298 Z "></path><path fill="rgb(133,162,194)" stroke="rgb(133,162,194)" stroke-width="1" opacity="1" d="M 344 259 Q 347 258 346 261 Q 342.7 259.9 344 264 Q 347 265 346 262 L 349 262 L 349 264 L 346 264 Q 347 267 344 266 Q 345 263 342 264 L 342 261 Q 345 262 344 259 Z "></path><path fill="rgb(133,162,194)" stroke="rgb(133,162,194)" stroke-width="1" opacity="1" d="M 344 267 Q 347 266 346 269 Q 343 270 344 267 Z "></path><path fill="rgb(133,162,194)" stroke="rgb(133,162,194)" stroke-width="1" opacity="1" d="M 334 269 Q 341.5 266.5 339 274 L 334 274 L 334 278 L 332 278 Q 333.3 282.1 330 281 Q 328.7 276.9 332 278 L 332 274 L 334 274 L 334 269 Z "></path><path fill="rgb(133,162,194)" stroke="rgb(133,162,194)" stroke-width="1" opacity="1" d="M 344 308 Q 346.7 306.9 346 309.5 L 347 312 L 349 312 Q 347.7 316.1 351 315 L 351.5 312 L 352 315 Q 355.3 316.1 354 312 L 357 312 L 357 315 Q 352.9 313.7 354 317 L 361 318 L 361 320 L 366 320 L 366 322 Q 370.1 320.7 369 324 L 374 324 L 374 327 L 378 327 Q 376.5 330.8 379.5 330 L 381 329.5 L 380 332 L 376 330 L 376 332 Q 372.3 330.5 373 333.5 L 374 335.5 L 373 335.5 L 373 334 L 369 334 L 368 338.5 L 369 338.5 L 369 337 L 373 337 L 373 339 L 369 339 L 369 340.5 L 368 344 Q 365 343 366 346 L 363.5 346 L 361.5 347 L 361.5 346 Q 364.1 346.7 363 344 L 366 344 L 366 341 Q 369 342 368 339 L 361.5 339 Q 362.1 341.8 359 341 Q 360.1 337.7 356 339 L 356 344 L 351 344 Q 352.1 346.7 349.5 346 L 346.5 347 L 344 346 L 343.5 344 L 337 344 L 337 341 Q 332.9 342.3 334 339 L 327.5 339 L 327 337 L 325.5 337 L 323 336 L 323 324 L 327 322 L 327 318 L 329.5 318 L 334 317 L 334 312 L 338.5 312 Q 337.8 309 342 310 Q 340.8 313.7 346 312 L 344 308 Z "></path><path fill="rgb(133,162,194)" stroke="rgb(133,162,194)" stroke-width="1" opacity="1" d="M 361 312 Q 364.3 310.9 363 315 Q 359.7 316.1 361 312 Z "></path><path fill="rgb(133,162,194)" stroke="rgb(133,162,194)" stroke-width="1" opacity="1" d="M 363.5 317 L 368 317.5 L 363.5 318 L 363.5 317 Z "></path><path fill="rgb(133,162,194)" stroke="rgb(133,162,194)" stroke-width="1" opacity="1" d="M 32 318 Q 35 317 34 320 Q 31 321 32 318 Z "></path><path fill="rgb(133,162,194)" stroke="rgb(133,162,194)" stroke-width="1" opacity="1" d="M 376 320 Q 381.2 318.3 380 322 Q 374.8 323.7 376 320 Z "></path><path fill="rgb(133,162,194)" stroke="rgb(133,162,194)" stroke-width="1" opacity="1" d="M 300.5 325 L 301 327 L 308 327 Q 306.9 330.3 311 329 L 311 332 L 308 332 L 308 334 Q 305.3 332.9 306 335.5 L 303.5 337 L 303.5 336 L 305 335.5 L 305 329 L 303 329 Q 304.3 333.1 301 332 L 300.5 325 Z "></path><path fill="rgb(133,162,194)" stroke="rgb(133,162,194)" stroke-width="1" opacity="1" d="M 381 325 Q 384 324 383 327 Q 380 328 381 325 Z "></path><path fill="rgb(133,162,194)" stroke="rgb(133,162,194)" stroke-width="1" opacity="1" d="M 294 327 Q 297 326 296 329 Q 293 330 294 327 Z "></path><path fill="rgb(133,162,194)" stroke="rgb(133,162,194)" stroke-width="1" opacity="1" d="M 315 329 L 320 330 L 320 332 L 315 332 L 315 329 Z "></path><path fill="rgb(58,92,161)" stroke="rgb(58,92,161)" stroke-width="1" opacity="1" d="M 214.5 123 L 216 123.5 L 216 134 L 214 134.5 L 214 147.5 L 213 148.5 L 213 165 Q 210 164 211 167 Q 214 166 213 169 L 211 169.5 L 211 183.5 L 209 184.5 L 209 197.5 L 208 198.5 L 208 213 L 206 213.5 L 206 225.5 L 204 226.5 L 204 241.5 L 202 242 L 202 243.5 L 201 243.5 L 202 241.5 L 202 226 L 204 225.5 L 204 206.5 Q 207 207.3 206 203 L 202 204 L 201 208 L 197 209 L 197 211 L 194 211 L 194 213 L 192 213 Q 193.1 215.7 190.5 215 L 189 218 Q 186 217 187 220 L 184.5 220 L 182 221 L 182 223 Q 179.3 221.9 180 224.5 Q 178.8 227 175 226 L 175 228 Q 172.3 226.9 173 229.5 L 172 232 L 168 233 L 168 235 L 165 235 Q 166 238 163 237 L 163 211.5 L 165 210.5 L 165 184.5 L 167 183.5 L 167 157 L 162 158 L 162 160 L 158 160 Q 159 163 156 162 L 158 158 L 161.5 158 L 165 157 L 165 155 Q 167.7 156.1 167 153.5 Q 168.2 151 172 152 L 173 148 L 177 148 Q 175.8 145 179.5 146 L 182 145 L 182 143 L 185 143 Q 183.9 140.3 186.5 141 L 190 140 L 190 138 L 194 138 L 196 134 L 198.5 134 L 201 133 L 201 131 Q 205.1 132.3 204 129 L 207.5 129 L 209 126 L 213 126 L 213 124.5 L 214.5 123 Z "></path><path fill="rgb(58,92,161)" stroke="rgb(58,92,161)" stroke-width="1" opacity="1" d="M 151 163 Q 154 162 153 165 Q 150 166 151 163 Z "></path><path fill="rgb(58,92,161)" stroke="rgb(58,92,161)" stroke-width="1" opacity="1" d="M 148 165 Q 151 164 150 167 Q 147 166 148 169 L 144.5 169 L 143 172 L 139 172 L 139 173.5 Q 137.8 176 134 175 L 134 177 L 131 177 Q 132 180 129 179 L 131 175 L 133.5 175 L 138 174 L 139 170 Q 142.8 171 144 168.5 L 144 167 L 148 167 L 148 165 Z "></path><path fill="rgb(58,92,161)" stroke="rgb(58,92,161)" stroke-width="1" opacity="1" d="M 126.5 179 L 126 180.5 Q 126.7 183.1 124 182 L 124 184 L 121 184 L 121 186 L 117.5 186 L 116 189 Q 113 190 114 187 L 117 185.5 L 117 184 L 121 184 L 121 182.5 L 122 180 L 126.5 179 Z "></path><path fill="rgb(58,92,161)" stroke="rgb(58,92,161)" stroke-width="1" opacity="1" d="M 110 189 Q 113 188 112 191 Q 109 192 110 189 Z "></path><path fill="rgb(58,92,161)" stroke="rgb(58,92,161)" stroke-width="1" opacity="1" d="M 107.5 191 L 109 191.5 L 107 192 Q 107.8 195.1 105 194.5 L 105 276 L 107 276.5 L 107 283 L 110 283 L 110 281 L 112 281 Q 110.9 278.3 113.5 279 L 116 278 L 117 274 L 121 274 L 121 272.5 L 124 271 L 126 267 L 128.5 267 L 131 266 L 131 264 Q 133.7 265.1 133 262.5 L 136 261 L 136 259 L 139 259 L 139 257 L 141 257 Q 139.9 254.3 142.5 255 L 144 252 Q 147 253 146 250 L 149.5 250 L 151 247 Q 154 248 153 245 L 155.5 245 L 158 244 L 160 240 L 163 240 L 162 242.5 L 162 267 L 160 267.5 L 160 295.5 Q 157.3 294.9 158 298 Q 161 297 160 300 L 158 300 L 158 307.5 L 156 308 L 156 309.5 L 155 312 L 151 313 L 150 317 L 146 318 L 146 320 Q 143.3 318.9 144 321.5 L 143 324 L 139 325 L 138 329 L 134 330 L 133 334 L 131 334 Q 132.1 336.7 129.5 336 L 127 337 L 126 341 L 122 342 L 121 346 L 117 347 L 116 351 L 114 351 Q 115.1 353.7 112.5 353 L 110 354 L 109 358 L 105 359 L 104.5 361 L 104 286.5 L 105 285.5 L 105 276.5 L 104 275.5 L 104 192 L 107.5 191 Z "></path><path fill="rgb(58,92,161)" stroke="rgb(58,92,161)" stroke-width="1" opacity="1" d="M 303 206 L 305 206 L 305 211 L 303 211 L 303 206 Z "></path><path fill="rgb(58,92,161)" stroke="rgb(58,92,161)" stroke-width="1" opacity="1" d="M 201.5 247 L 202 260.5 L 201 260.5 L 201.5 247 Z "></path><path fill="rgb(58,92,161)" stroke="rgb(58,92,161)" stroke-width="1" opacity="1" d="M 199 262 L 201 262 L 201 267 L 199 267 L 199 269 Q 196.3 267.9 197 270.5 L 194 272 L 194 274 L 192 274 L 192 276 Q 189.3 274.9 190 277.5 L 187 279 L 187 281 Q 184.3 279.9 185 282.5 L 182 284 L 182 286 Q 179.3 284.9 180 287.5 L 179 290 L 175 291 L 175 293 Q 172.3 291.9 173 294.5 L 170 296 L 170 298 Q 167.3 296.9 168 299.5 L 165 301 L 165 303 Q 162.3 301.9 163 304.5 L 162 307 Q 159 308 160 305 Q 162.7 306.1 162 303.5 L 163 301 L 167 300 L 168 296 L 172 295 L 173 291 L 177 290 L 177 288 Q 179.7 289.1 179 286.5 L 180 284 L 184 283 L 185 279 L 189 278 L 190 274 L 192 274 Q 190.9 271.3 193.5 272 L 196 271 L 197 267 L 199 267 L 199 262 Z "></path><path fill="rgb(58,92,161)" stroke="rgb(58,92,161)" stroke-width="1" opacity="1" d="M 243 330 Q 246 329 245 332 Q 242 333 243 330 Z "></path><path fill="rgb(58,59,61)" stroke="rgb(58,59,61)" stroke-width="1" opacity="0.9725490196078431" d="M 73.5 77 L 78 77 L 78 82 L 79.5 82 L 81 84.5 L 80 84.5 L 80 83 L 76 83 L 76 85 L 71.5 85 L 71 87 L 68.5 87 L 63 88 L 63 90 L 58 90 L 58 92 Q 52.8 90.3 54 94 L 49.5 94 L 46 95 L 46 97 L 41.5 97 Q 42.5 100 37.5 99 L 32 100 L 32 102 L 27 102 L 27 104 Q 22.9 102.7 24 106 L 20.5 106 L 18 107 L 17.5 109 L 17 107 Q 14 106 15 109 L 10 109 L 10 111 L 5.5 111 L 1 112 L 0.5 114 L 0 106 L 7.5 104 L 9.5 102 L 15.5 101 L 17.5 99 L 24.5 97 L 26.5 95 L 32.5 94 L 39.5 90 L 46.5 89 L 56.5 83 Q 67.3 82.3 73.5 77 Z "></path><path fill="rgb(58,59,61)" stroke="rgb(58,59,61)" stroke-width="1" opacity="0.9725490196078431" d="M 104 83 L 122.5 89 L 128.5 89 L 143.5 94 L 149.5 94 L 158.5 98 L 168.5 101 L 174.5 101 L 187.5 106 L 193.5 106 L 204.5 110 L 213.5 111 L 223 116.5 L 225 122.5 L 224 123.5 L 224 135.5 L 222 139.5 Q 223.3 147.8 221 152.5 L 222 154.5 L 220 158.5 L 219 185.5 L 217 189.5 L 217 198.5 L 215 202.5 L 215 214.5 L 214 215.5 L 215 217.5 L 214 218.5 L 214 231.5 L 216.5 230 L 227.5 227 L 235.5 221 L 246.5 219 L 253.5 215 L 260.5 214 L 267.5 210 L 270.5 210 L 276.5 206 L 287.5 204 L 293.5 200 L 305.5 197 L 311.5 199 L 322.5 200 L 330.5 204 L 343.5 205 L 349.5 209 L 358.5 210 L 374.5 215 L 380.5 215 L 389.5 219 Q 396.5 218.3 400 220 L 400 264.5 L 399 265.5 L 398 292.5 L 396 296.5 Q 397.5 302 395 303.5 L 394 323.5 L 387.5 334 L 379 340.5 L 375.5 345 Q 373.3 344.3 374 346.5 L 364 355.5 L 361.5 359 Q 359.3 358.3 360 360.5 L 354 365.5 L 351.5 369 L 349 370.5 Q 349.5 374.5 346.5 375 L 344 376.5 L 341.5 380 Q 335.4 381.4 333 386.5 L 329.5 392 L 323.5 394 L 318.5 394 L 310.5 392 L 308 389.5 L 306.5 386 Q 300.5 385.4 298.5 381 L 293.5 380 L 278.5 369 Q 273.4 368.7 271.5 365 L 266.5 364 L 264 361.5 Q 264.8 358.9 261.5 360 L 250.5 352 L 240.5 349 L 238 346.5 L 236.5 344 L 231 339.5 L 227 326.5 L 225 300.5 L 222 292.5 L 222 284.5 L 220 280.5 L 219 264.5 L 215 258.5 L 214 238.5 L 212.5 236 L 212 248.5 L 210 252.5 L 210 261.5 Q 207.3 263.8 208 269.5 L 203.5 276 L 201 277.5 L 196.5 283 L 194 284.5 L 191.5 288 L 189 289.5 L 179.5 300 L 177 301.5 L 174.5 305 L 172 306.5 L 167.5 312 L 160 317 L 156.5 322 Q 154.3 321.3 155 323.5 L 109.5 368 Q 107.2 370.7 101.5 370 L 95.5 368 L 82.5 359 L 78.5 358 L 71.5 352 L 63.5 349 L 54.5 342 Q 48.9 342.1 47 338.5 Q 47.8 335.9 44.5 337 L 41.5 334 L 32.5 330 L 15.5 318 Q 9.9 318.1 8 314.5 Q 8.8 311.9 5.5 313 L 0 309.5 L 0.5 300 L 5 301 L 6 307 L 10 305 Q 8.5 308.8 11.5 308 L 13.5 308 Q 16.1 307.3 15 310 L 18 310 Q 16.5 313.7 19.5 313 L 22 312 L 22 315 L 27 315 L 27 318 L 30 318 L 30 320 L 34 322 L 34.5 320 L 35 324 L 44 325 L 44 327 L 47 327 Q 46 330 49 329 L 49 332 L 51 332 L 51.5 330 L 52 332 Q 55 331 54 334 L 58 334 L 58 336 L 60.5 336 L 63 337 L 63 339 L 66 339 Q 64.9 341.7 67.5 341 L 71 342 Q 69.8 345.7 75 344 L 75 346.5 L 76.5 346 L 80 347 L 80 349 L 83 349 L 83 351 L 87 351 L 87 352.5 Q 88.2 355 92 354 L 93 358 L 100 359 Q 99 362 102 361 L 102 364 L 104.5 364 L 107 363 L 107 361 Q 109.7 362.1 109 359.5 L 112 358 L 112 356 L 114 356 Q 112.9 353.3 115.5 354 L 117 351 L 119 351 L 119 349 Q 121.7 350.1 121 347.5 L 124 346 L 124 344 Q 126.7 345.1 126 342.5 L 129 341 L 129 339 L 131 339 Q 129.9 336.3 132.5 337 L 134 334 L 136 334 L 136 332 Q 138.7 333.1 138 330.5 L 141 329 L 141 327 Q 143.7 328.1 143 325.5 L 146 324 L 146 322 L 148 322 L 148 320 Q 150.7 321.1 150 318.5 L 153 317 L 153 315 Q 155.7 316.1 155 313.5 L 158 312 L 158 310 L 160 310 Q 158.9 307.3 161.5 308 L 163 305 L 165 305 L 165 303 Q 167.7 304.1 167 301.5 L 170 300 L 170 298 Q 172.7 299.1 172 296.5 Q 173.2 294 177 295 L 177 293 Q 179.7 294.1 179 291.5 L 182 290 L 182 288 Q 184.7 289.1 184 286.5 L 185 284 L 189 283 L 190 279 L 194 278 L 194 276 Q 196.7 277.1 196 274.5 L 197 272 L 201 271 Q 203 267.9 202 261 Q 205 262 204 259 Q 200.3 260.2 202 255 L 204 254.5 L 204 242.5 L 206 241.5 L 206 226.5 L 208 225.5 L 208 213.5 L 209 212.5 L 209 198 Q 212 199 211 196 Q 207.3 197.2 209 192 L 211 191.5 L 211 179.5 L 213 178.5 L 213 163.5 L 214 162.5 L 214 150 L 216 149.5 L 216 134.5 L 217.5 134 L 217.5 133 L 216 133 L 216 129 L 218 128.5 L 218 121 L 213 121 L 213 119 Q 206.7 120.5 207.5 117 L 202.5 117 L 196 116 L 196 114 L 189.5 114 Q 190.5 110.8 184.5 112 L 183.5 111 L 177 111 L 177 109 L 170.5 109 Q 171.1 106.3 168 107 L 167.5 109 L 167 107 L 156 106 L 156 104 L 150.5 104 L 150 102 L 144.5 102 Q 145.5 98.8 139.5 100 L 133 99 L 133 97 L 126.5 97 L 125.5 95 L 119.5 95 L 118.5 94 L 112 94 L 112 92 L 105.5 92 L 105 90.5 L 104 89.5 L 104 83 Z M 301 204 L 301 208 L 298 209 Q 295 208 296 211 L 291 211 L 291 209 Q 288 208 289 211 L 284 211 L 284 213 Q 281 212 282 215 L 281 215 L 281 213 L 277 213 Q 276 216 279 215 L 279 216 Q 275 215 276 218 L 272 218 Q 273 215 269 216 L 271 220 Q 268 221 269 218 L 265 218 Q 265 221 260 220 L 260 223 Q 256 222 257 225 L 254 226 L 250 225 L 248 226 L 245 226 L 243 230 L 240 230 L 240 232 L 236 233 Q 232 232 233 235 L 229 235 Q 229 232 225 233 L 226 240 L 225 240 Q 227 233 221 235 L 221 242 L 225 242 L 225 249 L 221 249 L 221 255 L 226 255 L 226 262 L 225 263 Q 224 268 226 270 L 226 278 L 228 279 L 228 290 L 230 290 L 230 298 L 231 299 Q 230 306 233 306 L 233 315 L 235 315 Q 236 318 233 317 L 233 325 Q 236 324 235 332 L 236 332 Q 235 329 238 330 Q 239 333 236 332 L 236 337 Q 239 336 238 339 L 243 339 Q 242 342 245 341 L 245 344 L 250 344 L 250 346 L 253 347 L 257 347 L 257 351 L 262 351 L 262 353 L 265 354 Q 271 352 269 358 L 272 359 L 276 359 Q 275 362 279 361 L 279 363 L 282 364 Q 285 363 284 366 L 288 366 L 289 370 L 295 371 L 296 371 L 296 375 Q 302 374 305 376 L 306 379 L 306 380 L 311 380 L 311 383 L 315 383 L 315 387 L 321 388 L 324 387 L 327 387 L 327 382 L 330 382 L 332 378 L 334 378 L 334 375 L 339 375 L 339 370 L 342 370 L 344 366 L 346 366 L 348 363 L 349 363 L 349 359 L 354 359 L 354 354 L 358 353 Q 360 354 359 351 L 361 351 L 361 347 L 366 347 Q 365 343 369 344 L 369 339 L 373 339 L 375 336 Q 377 337 376 334 L 378 334 L 378 332 L 381 332 L 381 329 Q 384 330 383 327 L 386 327 L 386 313 L 388 312 L 388 292 L 390 291 L 390 283 L 392 283 L 392 262 L 393 261 Q 392 253 395 254 L 395 243 L 397 242 L 397 226 L 387 226 L 386 225 L 381 225 Q 382 222 378 223 L 378 221 L 367 221 L 366 220 L 359 220 Q 360 217 356 218 L 356 216 L 347 216 L 346 215 L 342 215 L 342 213 Q 338 214 339 211 L 326 211 L 325 209 L 320 208 L 317 208 L 317 206 L 307 206 Q 307 202 301 204 Z M 292 208 L 292 209 L 294 209 L 292 208 Z M 254 221 Q 253 224 257 223 Q 258 220 254 221 Z M 250 223 Q 249 227 254 225 Q 255 221 250 223 Z M 240 226 Q 239 229 242 228 Q 243 225 240 226 Z M 236 228 Q 235 232 240 230 Q 241 226 236 228 Z M 233 230 Q 232 233 236 232 Q 237 229 233 230 Z "></path><path fill="rgb(58,59,61)" stroke="rgb(58,59,61)" stroke-width="1" opacity="0.9725490196078431" d="M 303 220 L 305 220 L 305 226 L 303 226 L 303 220 Z "></path><path fill="rgb(58,59,61)" stroke="rgb(58,59,61)" stroke-width="1" opacity="0.9725490196078431" d="M 233 238 Q 236 237 235 240 Q 232 241 233 238 Z "></path><path fill="rgb(58,59,61)" stroke="rgb(58,59,61)" stroke-width="1" opacity="0.9725490196078431" d="M 226 264 Q 229.3 262.9 228 267 Q 224.7 268.1 226 264 Z "></path><path fill="rgb(149,172,190)" stroke="rgb(149,172,190)" stroke-width="1" opacity="1" d="M 30 167 Q 33 166 32 169 Q 29 170 30 167 Z "></path><path fill="rgb(149,172,190)" stroke="rgb(149,172,190)" stroke-width="1" opacity="1" d="M 37 170 Q 42.2 168.3 41 172 Q 35.8 173.7 37 170 Z "></path><path fill="rgb(149,172,190)" stroke="rgb(149,172,190)" stroke-width="1" opacity="1" d="M 64 180 Q 67 179 66 182 Q 63 183 64 180 Z "></path><path fill="rgb(149,172,190)" stroke="rgb(149,172,190)" stroke-width="1" opacity="1" d="M 73 184 Q 76 183 75 186 Q 72 187 73 184 Z "></path><path fill="rgb(149,172,190)" stroke="rgb(149,172,190)" stroke-width="1" opacity="1" d="M 95 192 Q 98 191 97 194 Q 94 195 95 192 Z "></path><path fill="rgb(149,172,190)" stroke="rgb(149,172,190)" stroke-width="1" opacity="1" d="M 98 194 L 100 194.5 L 100 276 L 98 275.5 L 98 194 Z "></path><path fill="rgb(149,172,190)" stroke="rgb(149,172,190)" stroke-width="1" opacity="1" d="M 306 206 L 312.5 206 Q 311.5 209.3 317.5 208 L 323 209 L 323.5 211 L 336.5 211 Q 335.8 214 340 213 L 340 215 L 343.5 215 L 347 216 L 346 219.5 Q 348.3 220.8 347 225.5 L 346 226.5 L 346 256.5 L 347 256.5 Q 346.3 254.3 348.5 255 L 350.5 254 L 350.5 255 Q 347.9 254.3 349 257 L 347 257 L 347 259 Q 350 258 349 261 L 353.5 261 L 359 262 L 359 264 Q 356.3 262.9 357 265.5 L 356 265.5 Q 356.7 262.9 354 264 L 354 267 Q 360.3 265.5 359.5 269 L 367.5 269 L 368 270.5 L 369 274 L 380.5 274 Q 379.9 276.8 383 276 L 383 278 L 388 278 Q 387 282.3 390 281.5 L 390 290 L 388 290.5 L 388 311.5 L 386 312.5 L 386 323.5 L 381 324 L 380 320 L 374.5 320 L 374 318.5 Q 372.1 315.3 366 317 Q 367.1 313.7 363 315 L 363 312 L 354 312 L 352 308 L 344 308 L 344 305 L 340 305 L 340 303.5 L 339 298 Q 336 299 337 296 L 332.5 296 L 330 295 L 330 290 L 327 289.5 L 327 276 Q 331.1 277.3 330 274 L 327 274 L 327 271 Q 321.8 272.7 323 269 L 327 269 Q 325.9 272.3 330 271 L 330 266 L 333.5 266 L 339 267 L 339 264 Q 336 265 337 262 L 334 262 L 334 259 L 327 259 L 327 257 L 323 257 Q 324.3 254 320.5 255 L 319.5 254 L 311 254 L 311 252 L 306 251.5 L 306 206 Z M 344 259 L 344 261 L 342 262 Q 338 261 339 264 L 344 264 L 344 262 L 347 261 Q 348 258 344 259 Z M 346 262 Q 345 265 349 264 Q 350 261 346 262 Z M 344 264 Q 343 267 346 266 Q 347 263 344 264 Z M 332 267 Q 331 270 334 269 Q 335 266 332 267 Z M 344 267 Q 343 270 346 269 Q 347 266 344 267 Z M 334 269 Q 332 277 339 274 Q 342 267 334 269 Z M 332 274 Q 330 279 334 278 Q 336 273 332 274 Z M 330 278 Q 329 282 332 281 Q 333 277 330 278 Z M 343 300 L 340 301 Q 339 305 344 303 Q 345 299 343 300 Z "></path><path fill="rgb(149,172,190)" stroke="rgb(149,172,190)" stroke-width="1" opacity="1" d="M 395 230 Q 398 229 397 232 Q 394 233 395 230 Z "></path><path fill="rgb(149,172,190)" stroke="rgb(149,172,190)" stroke-width="1" opacity="1" d="M 383 233 Q 386 232 385 235 Q 382 236 383 233 Z "></path><path fill="rgb(149,172,190)" stroke="rgb(149,172,190)" stroke-width="1" opacity="1" d="M 373.5 240 L 374 244.5 L 373 244.5 L 373.5 240 Z "></path><path fill="rgb(149,172,190)" stroke="rgb(149,172,190)" stroke-width="1" opacity="1" d="M 366 242 Q 370.5 240.5 369 245 Q 364.5 246.5 366 242 Z "></path><path fill="rgb(149,172,190)" stroke="rgb(149,172,190)" stroke-width="1" opacity="1" d="M 361 247 Q 364 246 363 249 Q 360 250 361 247 Z "></path><path fill="rgb(149,172,190)" stroke="rgb(149,172,190)" stroke-width="1" opacity="1" d="M 357.5 249 L 359 249.5 L 357 250 L 356 255 Q 352.7 256.1 354 252 Q 356.7 253.1 356 250.5 L 357.5 249 Z "></path><path fill="rgb(149,172,190)" stroke="rgb(149,172,190)" stroke-width="1" opacity="1" d="M 361 250 L 366 250 L 366 252 L 361 252 L 361 250 Z "></path><path fill="rgb(149,172,190)" stroke="rgb(149,172,190)" stroke-width="1" opacity="1" d="M 352 257 Q 355 256 354 259 Q 351 260 352 257 Z "></path><path fill="rgb(149,172,190)" stroke="rgb(149,172,190)" stroke-width="1" opacity="1" d="M 68 269 Q 71 268 70 271 Q 67 272 68 269 Z "></path><path fill="rgb(149,172,190)" stroke="rgb(149,172,190)" stroke-width="1" opacity="1" d="M 317.5 271 L 318 275.5 L 317 275.5 L 317.5 271 Z "></path><path fill="rgb(149,172,190)" stroke="rgb(149,172,190)" stroke-width="1" opacity="1" d="M 308 274 L 310 274.5 L 310 283 L 308 282.5 L 308 274 Z "></path><path fill="rgb(149,172,190)" stroke="rgb(149,172,190)" stroke-width="1" opacity="1" d="M 323 274 Q 326 273 325 276 Q 322 277 323 274 Z "></path><path fill="rgb(149,172,190)" stroke="rgb(149,172,190)" stroke-width="1" opacity="1" d="M 100 284 Q 103 283 102 286 Q 99 287 100 284 Z "></path><path fill="rgb(149,172,190)" stroke="rgb(149,172,190)" stroke-width="1" opacity="1" d="M 308 284 Q 311.7 282.8 310 288 Q 306.3 289.2 308 284 Z "></path><path fill="rgb(149,172,190)" stroke="rgb(149,172,190)" stroke-width="1" opacity="1" d="M 327 296 L 330 296 L 332 300 Q 329 301 330 298 L 327 298 L 327 296 Z "></path><path fill="rgb(149,172,190)" stroke="rgb(149,172,190)" stroke-width="1" opacity="1" d="M 334.5 300 L 337 300.5 L 334.5 301 L 334.5 300 Z "></path><path fill="rgb(149,172,190)" stroke="rgb(149,172,190)" stroke-width="1" opacity="1" d="M 8 303 Q 11 302 10 305 Q 7 306 8 303 Z "></path><path fill="rgb(147,174,200)" stroke="rgb(147,174,200)" stroke-width="1" opacity="0.9921568627450981" d="M 95 17 Q 98 16 97 19 Q 94 20 95 17 Z "></path><path fill="rgb(147,174,200)" stroke="rgb(147,174,200)" stroke-width="1" opacity="0.9921568627450981" d="M 81 22 Q 84 21 83 24 Q 80 25 81 22 Z "></path><path fill="rgb(147,174,200)" stroke="rgb(147,174,200)" stroke-width="1" opacity="0.9921568627450981" d="M 102 25 Q 105 24 104 27 Q 101 28 102 25 Z "></path><path fill="rgb(147,174,200)" stroke="rgb(147,174,200)" stroke-width="1" opacity="0.9921568627450981" d="M 76 29 Q 79 28 78 31 Q 75 32 76 29 Z "></path><path fill="rgb(147,174,200)" stroke="rgb(147,174,200)" stroke-width="1" opacity="0.9921568627450981" d="M 107 32 Q 110 31 109 34 Q 106 35 107 32 Z "></path><path fill="rgb(147,174,200)" stroke="rgb(147,174,200)" stroke-width="1" opacity="0.9921568627450981" d="M 112 39 Q 115 38 114 41 Q 111 42 112 39 Z "></path><path fill="rgb(147,174,200)" stroke="rgb(147,174,200)" stroke-width="1" opacity="0.9921568627450981" d="M 66 46 Q 69 45 68 48 Q 65 49 66 46 Z "></path><path fill="rgb(147,174,200)" stroke="rgb(147,174,200)" stroke-width="1" opacity="0.9921568627450981" d="M 206 124 Q 209 123 208 126 Q 205 127 206 124 Z "></path><path fill="rgb(147,174,200)" stroke="rgb(147,174,200)" stroke-width="1" opacity="0.9921568627450981" d="M 184.5 138 L 185 139.5 L 182.5 141 L 182.5 140 Q 185 140.7 184.5 138 Z "></path><path fill="rgb(147,174,200)" stroke="rgb(147,174,200)" stroke-width="1" opacity="0.9921568627450981" d="M 0 155 Q 4.3 154 3.5 157 L 7.5 157 L 12 158 L 12 160 L 17 160 L 17 161.5 L 18 162.5 L 18 179 L 20 179.5 L 20 193.5 L 22 194.5 L 22 210.5 L 24 211.5 L 24 231.5 L 25 232.5 L 25 247 Q 20.9 248.3 22 245 L 18.5 245 L 15 244 L 15 242 Q 10.9 243.3 12 240 L 8 240 Q 9.3 237 5.5 238 L 1 237 L 0 234.5 L 0 155 Z "></path><path fill="rgb(147,174,200)" stroke="rgb(147,174,200)" stroke-width="1" opacity="0.9921568627450981" d="M 100 194 Q 103 193 102 196 Q 99 197 100 194 Z "></path><path fill="rgb(147,174,200)" stroke="rgb(147,174,200)" stroke-width="1" opacity="0.9921568627450981" d="M 27 249 L 32 250 L 32 252 Q 36.1 250.7 35 254 L 38.5 254 L 42 255 L 42 257 L 46 257 L 46 259 L 49 259 Q 47.8 262 51.5 261 L 56 262 L 56 264 Q 60.1 262.7 59 266 L 62.5 266 L 66 267 L 68 271 L 70.5 271 L 75 272 L 75 274 L 78 274 L 78 276 Q 82.1 274.7 81 278 L 84.5 278 L 88 279 L 88 281 L 92 281 Q 90.8 284 94.5 283 L 98 284 L 98 286 L 102 286.5 L 102 361 Q 99 362 100 359 L 97.5 359 L 93 358 L 92 354 Q 88.2 355 87 352.5 L 87 351 L 83 351 L 83 349 L 80 349 Q 81.1 346.3 78.5 347 L 75 346 L 75 344 L 71 344 Q 72.3 341 68.5 342 L 66 341 L 66 339 L 63 339 Q 64.1 336.3 61.5 337 L 58 336 L 58 334 L 54 334 L 52 330 L 49.5 330 L 47 329 L 47 327 L 44 327 Q 45.3 324 41.5 325 L 37 324 L 37 322 Q 34.3 323.1 35 320.5 L 34 318 L 32 317.5 L 32 303.5 L 30 302.5 L 30 286.5 L 29 285.5 L 29 267 L 27 266.5 L 27 249 Z "></path><path fill="rgb(147,174,200)" stroke="rgb(147,174,200)" stroke-width="1" opacity="0.9921568627450981" d="M 100 276 Q 103 275 102 278 Q 99 279 100 276 Z "></path><path fill="rgb(147,174,200)" stroke="rgb(147,174,200)" stroke-width="1" opacity="0.9921568627450981" d="M 100 279 L 102 279 L 102 284 L 100 284 L 100 279 Z "></path><path fill="rgb(71,100,127)" stroke="rgb(71,100,127)" stroke-width="1" opacity="1" d="M 76 83 Q 81.2 81.3 80 85 Q 74.8 86.7 76 83 Z "></path><path fill="rgb(71,100,127)" stroke="rgb(71,100,127)" stroke-width="1" opacity="1" d="M 81 83 Q 84 82 83 85 L 87 85 L 87 87 L 83 87 L 81 83 Z "></path><path fill="rgb(71,100,127)" stroke="rgb(71,100,127)" stroke-width="1" opacity="1" d="M 71 85 Q 76.2 83.3 75 87 L 68.5 88 L 68.5 87 Q 72.3 88 71 85 Z "></path><path fill="rgb(71,100,127)" stroke="rgb(71,100,127)" stroke-width="1" opacity="1" d="M 63 88 Q 67.1 86.7 66 90 Q 61.9 91.3 63 88 Z "></path><path fill="rgb(71,100,127)" stroke="rgb(71,100,127)" stroke-width="1" opacity="1" d="M 58 90 Q 62.1 88.7 61 92 Q 56.9 90.7 58 94 L 54 94 L 54 92 Q 59.2 93.7 58 90 Z "></path><path fill="rgb(71,100,127)" stroke="rgb(71,100,127)" stroke-width="1" opacity="1" d="M 109 92 Q 113.1 90.7 112 94 Q 107.9 95.3 109 92 Z "></path><path fill="rgb(71,100,127)" stroke="rgb(71,100,127)" stroke-width="1" opacity="1" d="M 49.5 94 L 52 94.5 L 49 95 Q 50.1 98.3 46 97 Q 44.8 94 48.5 95 L 49.5 94 Z "></path><path fill="rgb(71,100,127)" stroke="rgb(71,100,127)" stroke-width="1" opacity="1" d="M 114.5 94 L 119 94.5 L 114.5 95 L 114.5 94 Z "></path><path fill="rgb(71,100,127)" stroke="rgb(71,100,127)" stroke-width="1" opacity="1" d="M 121 95 L 126 95 L 126 97 L 121 97 L 121 95 Z "></path><path fill="rgb(71,100,127)" stroke="rgb(71,100,127)" stroke-width="1" opacity="1" d="M 41 97 Q 45.1 95.7 44 99 Q 39.9 100.3 41 97 Z "></path><path fill="rgb(71,100,127)" stroke="rgb(71,100,127)" stroke-width="1" opacity="1" d="M 127 97 L 133 97 L 133 99 L 127 99 L 127 97 Z "></path><path fill="rgb(71,100,127)" stroke="rgb(71,100,127)" stroke-width="1" opacity="1" d="M 134.5 99 L 139 99.5 L 134.5 100 L 134.5 99 Z "></path><path fill="rgb(71,100,127)" stroke="rgb(71,100,127)" stroke-width="1" opacity="1" d="M 32 100 Q 36.1 98.7 35 102 Q 30.9 103.3 32 100 Z "></path><path fill="rgb(71,100,127)" stroke="rgb(71,100,127)" stroke-width="1" opacity="1" d="M 141 100 Q 145.1 98.7 144 102 Q 139.9 103.3 141 100 Z "></path><path fill="rgb(71,100,127)" stroke="rgb(71,100,127)" stroke-width="1" opacity="1" d="M 27 102 Q 31.1 100.7 30 104 L 27 104 Q 28.1 107.3 24 106 L 24 104 Q 28.1 105.3 27 102 Z "></path><path fill="rgb(71,100,127)" stroke="rgb(71,100,127)" stroke-width="1" opacity="1" d="M 148 102 Q 151 101 150 104 Q 147 105 148 102 Z "></path><path fill="rgb(71,100,127)" stroke="rgb(71,100,127)" stroke-width="1" opacity="1" d="M 153 104 Q 157.1 102.7 156 106 Q 151.9 107.3 153 104 Z "></path><path fill="rgb(71,100,127)" stroke="rgb(71,100,127)" stroke-width="1" opacity="1" d="M 160.5 106 L 163 106.5 L 160.5 107 L 160.5 106 Z "></path><path fill="rgb(71,100,127)" stroke="rgb(71,100,127)" stroke-width="1" opacity="1" d="M 15 107 Q 18 106 17 109 Q 14 110 15 107 Z "></path><path fill="rgb(71,100,127)" stroke="rgb(71,100,127)" stroke-width="1" opacity="1" d="M 168 107 Q 171 106 170 109 Q 167 110 168 107 Z "></path><path fill="rgb(71,100,127)" stroke="rgb(71,100,127)" stroke-width="1" opacity="1" d="M 10 109 Q 14.1 107.7 13 111 L 5 112 Q 6.2 115.7 1 114 Q -0.3 110.7 4.5 112 L 10 111 L 10 109 Z "></path><path fill="rgb(71,100,127)" stroke="rgb(71,100,127)" stroke-width="1" opacity="1" d="M 173 109 Q 178.2 107.3 177 111 Q 171.8 112.7 173 109 Z "></path><path fill="rgb(71,100,127)" stroke="rgb(71,100,127)" stroke-width="1" opacity="1" d="M 180.5 111 L 184 111.5 L 180.5 112 L 180.5 111 Z "></path><path fill="rgb(71,100,127)" stroke="rgb(71,100,127)" stroke-width="1" opacity="1" d="M 185 112 Q 190.2 110.3 189 114 Q 183.8 115.7 185 112 Z "></path><path fill="rgb(71,100,127)" stroke="rgb(71,100,127)" stroke-width="1" opacity="1" d="M 192 114 Q 197.2 112.3 196 116 Q 190.8 117.7 192 114 Z "></path><path fill="rgb(71,100,127)" stroke="rgb(71,100,127)" stroke-width="1" opacity="1" d="M 199.5 116 L 202 116.5 L 199.5 117 L 199.5 116 Z "></path><path fill="rgb(71,100,127)" stroke="rgb(71,100,127)" stroke-width="1" opacity="1" d="M 206 117 Q 209 116 208 119 Q 205 120 206 117 Z "></path><path fill="rgb(71,100,127)" stroke="rgb(71,100,127)" stroke-width="1" opacity="1" d="M 216 121 L 218 121.5 L 218 129 L 216 128.5 L 216 121 Z "></path><path fill="rgb(71,100,127)" stroke="rgb(71,100,127)" stroke-width="1" opacity="1" d="M 216.5 133 L 218 133.5 L 216 134 L 216 149.5 L 214 150.5 L 214 162.5 L 213 162.5 L 214 134 L 216.5 133 Z "></path><path fill="rgb(71,100,127)" stroke="rgb(71,100,127)" stroke-width="1" opacity="1" d="M 211 169 L 213 169.5 L 213 179 L 211 178.5 L 211 169 Z "></path><path fill="rgb(71,100,127)" stroke="rgb(71,100,127)" stroke-width="1" opacity="1" d="M 209 184 L 211 184.5 L 211 192 L 209 191.5 L 209 184 Z "></path><path fill="rgb(71,100,127)" stroke="rgb(71,100,127)" stroke-width="1" opacity="1" d="M 209 196 Q 212 195 211 198 L 209 198.5 L 209 212.5 L 208 213.5 L 208 226 L 206 225.5 L 206 213 L 208 212.5 L 208 198.5 L 209 196 Z "></path><path fill="rgb(71,100,127)" stroke="rgb(71,100,127)" stroke-width="1" opacity="1" d="M 301 204 Q 306.2 202.3 305 206 L 303 206 L 303 211 L 305 211.5 L 305 220 L 303 220 L 303 226 L 305 226.5 L 305 251.5 L 306 252.5 L 306 291 L 303 291 L 303 295 L 301.5 295 L 296 296 L 294 300 L 291.5 300 L 288 301 L 288 305 L 282 305 L 282 308 L 277 308 L 277 309.5 L 276 312 L 271 312 L 271 315 Q 268 314 269 317 L 264.5 317 L 262 318 Q 263 321 260 320 L 260 324 L 254.5 324 L 252 325 L 252 327 L 248 327 L 248 328.5 Q 246.8 331 243 330 L 243 332 L 240 332 Q 241 335 238 334 L 238 337 Q 241 336 240 339 L 236 337 L 236 332.5 L 235 331.5 L 235 325 L 233 324.5 L 233 317 Q 236 318 235 315 L 233 314.5 L 233 305.5 Q 229.8 306.4 231 298.5 L 230 297.5 L 230 290 L 228 289.5 L 228 278.5 L 226 277.5 L 226 269.5 Q 223.5 268 225 262.5 L 226 261.5 L 226 255 L 221 255 L 221 249 L 225 249 L 225 242 L 221 242 L 221 235 L 225 235 Q 223.9 231.7 228 233 L 228 235 L 233 235 Q 234.1 232.3 231.5 233 L 231.5 232 Q 234.1 232.7 233 230 L 236 230 L 236 228 L 240 228 Q 239 225 242 226 L 240 230 L 243 230 L 245 226 L 247.5 226 L 250 225 L 250 223 L 254 223 Q 252.9 219.7 257 221 Q 255.9 224.3 260 223 L 260 220 L 264 220 L 264 218 L 268.5 218 Q 267.8 215 272 216 Q 270.8 219.7 276 218 Q 274.8 215 278.5 216 L 278.5 215 Q 275.9 215.7 277 213 L 281 213 L 281 211.5 L 282 211.5 Q 281.3 214.1 284 213 L 284 211 L 289 211 Q 287.9 208.3 290.5 209 L 293.5 208 L 293.5 209 Q 289.8 208 291 211 L 296 211 Q 294.9 208.3 297.5 209 L 301 208 L 301 204 Z M 269 218 Q 268 221 271 220 Q 272 217 269 218 Z M 254 223 Q 253 226 257 225 Q 258 222 254 223 Z M 251 225 L 251 226 L 254 226 L 251 225 Z M 236 230 Q 235 234 240 232 Q 241 228 236 230 Z M 234 232 L 234 233 L 236 233 L 234 232 Z M 226 235 L 225 240 L 226 240 L 226 235 Z M 228 238 Q 227 241 231 240 Q 232 237 228 238 Z M 233 238 Q 232 241 235 240 Q 236 237 233 238 Z M 231 240 Q 230 243 233 242 Q 234 239 231 240 Z M 238 242 L 238 245 L 242 245 Q 241 248 245 247 Q 246 244 243 245 L 243 242 L 238 242 Z M 248 247 Q 247 250 250 249 Q 251 246 248 247 Z M 255 249 L 255 251 Q 254 253 257 252 L 257 254 L 264 254 Q 265 250 260 252 L 260 250 L 255 249 Z M 268 254 L 268 255 Q 270 254 269 257 L 272 257 L 272 259 L 277 259 L 276 255 L 268 254 Z M 277 259 L 277 261 L 284 262 Q 285 265 282 264 L 282 269 L 276 269 L 277 272 L 276 284 L 288 284 L 289 283 Q 288 280 291 281 L 291 267 L 288 266 Q 287 263 291 264 L 291 262 L 288 261 Q 283 262 284 259 L 277 259 Z M 226 264 Q 225 268 228 267 Q 229 263 226 264 Z M 291 264 L 291 266 L 297 267 Q 299 266 298 269 L 303 269 L 303 267 L 301 266 L 298 266 L 298 264 L 291 264 Z M 236 330 Q 235 333 238 332 Q 239 329 236 330 Z "></path><path fill="rgb(71,100,127)" stroke="rgb(71,100,127)" stroke-width="1" opacity="1" d="M 354 216 Q 357 215 356 218 Q 353 219 354 216 Z "></path><path fill="rgb(71,100,127)" stroke="rgb(71,100,127)" stroke-width="1" opacity="1" d="M 374 221 Q 379.2 219.3 378 223 Q 372.8 224.7 374 221 Z "></path><path fill="rgb(71,100,127)" stroke="rgb(71,100,127)" stroke-width="1" opacity="1" d="M 204 232 L 206 232.5 L 206 242 L 204 241.5 L 204 232 Z "></path><path fill="rgb(71,100,127)" stroke="rgb(71,100,127)" stroke-width="1" opacity="1" d="M 202 247 L 204 247.5 L 204 255 L 202 254.5 L 202 247 Z "></path><path fill="rgb(71,100,127)" stroke="rgb(71,100,127)" stroke-width="1" opacity="1" d="M 393 250 Q 396.7 248.8 395 254 Q 391.3 255.2 393 250 Z "></path><path fill="rgb(71,100,127)" stroke="rgb(71,100,127)" stroke-width="1" opacity="1" d="M 202 259 Q 205 258 204 261 L 202 261.5 L 202 268.5 L 201 271 L 197 272 L 196 276 L 194 276 Q 195.1 278.7 192.5 278 L 190 279 L 189 283 L 185 284 L 184 288 L 182 288 Q 183.1 290.7 180.5 290 L 179 293 Q 176 292 177 295 L 173.5 295 L 172 298 L 170 298 Q 171.1 300.7 168.5 300 L 167 303 L 165 303 L 165 305 Q 162.3 303.9 163 306.5 L 160 308 L 160 310 L 158 310 Q 159.1 312.7 156.5 312 L 155 315 L 153 315 Q 154.1 317.7 151.5 317 L 150 320 L 148 320 L 148 322 L 146 322 Q 147.1 324.7 144.5 324 L 143 327 L 141 327 Q 142.1 329.7 139.5 329 L 138 332 L 136 332 L 136 334 Q 133.3 332.9 134 335.5 L 131 337 L 131 339 L 129 339 Q 130.1 341.7 127.5 341 L 126 344 L 124 344 Q 125.1 346.7 122.5 346 L 121 349 L 119 349 L 119 351 Q 116.3 349.9 117 352.5 L 114 354 L 114 356 L 112 356 Q 113.1 358.7 110.5 358 L 109 361 L 107 361 Q 108.1 363.7 105.5 363 L 102 364 L 102 361 L 105 361 Q 103.9 358.3 106.5 359 L 109 358 L 110 354 L 114 353 L 114 351 Q 116.7 352.1 116 349.5 L 117 347 L 121 346 L 122 342 L 126 341 L 127 337 L 131 336 L 131 334 Q 133.7 335.1 133 332.5 L 134 330 L 138 329 L 139 325 L 143 324 L 144 320 L 146 320 Q 144.9 317.3 147.5 318 L 150 317 L 151 313 L 155 312 L 156 308 L 162 307 L 163 303 L 165 303 Q 163.9 300.3 166.5 301 L 168 298 L 170 298 Q 168.9 295.3 171.5 296 L 173 293 L 175 293 Q 173.9 290.3 176.5 291 L 179 290 L 180 286 L 182 286 Q 180.9 283.3 183.5 284 L 185 281 L 187 281 Q 185.9 278.3 188.5 279 L 190 276 L 192 276 L 192 274 L 194 274 Q 192.9 271.3 195.5 272 L 197 269 L 201 267 L 201 261.5 L 202 259 Z "></path><path fill="rgb(71,100,127)" stroke="rgb(71,100,127)" stroke-width="1" opacity="1" d="M 5.5 303 L 6 305 Q 9 304 8 307 Q 5.3 308.1 6 305.5 L 5.5 303 Z "></path><path fill="rgb(71,100,127)" stroke="rgb(71,100,127)" stroke-width="1" opacity="1" d="M 22 313 Q 25 312 24 315 Q 21 316 22 313 Z "></path><path fill="rgb(71,100,127)" stroke="rgb(71,100,127)" stroke-width="1" opacity="1" d="M 30 318 L 32 318 L 34 322 L 32 322 L 30 318 Z "></path><path fill="rgb(71,100,127)" stroke="rgb(71,100,127)" stroke-width="1" opacity="1" d="M 35 322 Q 38 321 37 324 Q 34 325 35 322 Z "></path><path fill="rgb(71,100,127)" stroke="rgb(71,100,127)" stroke-width="1" opacity="1" d="M 381 327 Q 384 326 383 329 Q 380 330 381 327 Z "></path><path fill="rgb(71,100,127)" stroke="rgb(71,100,127)" stroke-width="1" opacity="1" d="M 49 330 Q 52 329 51 332 Q 48 333 49 330 Z "></path><path fill="rgb(71,100,127)" stroke="rgb(71,100,127)" stroke-width="1" opacity="1" d="M 374 332 Q 379.2 330.3 378 334 L 376 334 Q 377.1 336.7 374.5 336 L 373 336.5 L 374 332 Z "></path><path fill="rgb(71,100,127)" stroke="rgb(71,100,127)" stroke-width="1" opacity="1" d="M 243 339 Q 246 338 245 341 L 248 341 L 248 344 L 245 344 L 245 341 Q 242 342 243 339 Z "></path><path fill="rgb(71,100,127)" stroke="rgb(71,100,127)" stroke-width="1" opacity="1" d="M 368.5 341 L 369 343.5 L 368 343.5 L 368.5 341 Z "></path><path fill="rgb(71,100,127)" stroke="rgb(71,100,127)" stroke-width="1" opacity="1" d="M 250 344 Q 255.6 342.1 254 347 L 250 346 L 250 344 Z "></path><path fill="rgb(71,100,127)" stroke="rgb(71,100,127)" stroke-width="1" opacity="1" d="M 363.5 346 L 366 346.5 L 363.5 347 L 363.5 346 Z "></path><path fill="rgb(71,100,127)" stroke="rgb(71,100,127)" stroke-width="1" opacity="1" d="M 257 347 Q 261.9 345.4 260 351 Q 255.1 352.6 257 347 Z "></path><path fill="rgb(71,100,127)" stroke="rgb(71,100,127)" stroke-width="1" opacity="1" d="M 359 347 Q 362.7 345.8 361 351 L 359 351 Q 360.1 353.7 357.5 353 L 356 353.5 L 357 351 Q 360.7 352.2 359 347 Z "></path><path fill="rgb(71,100,127)" stroke="rgb(71,100,127)" stroke-width="1" opacity="1" d="M 262 351 Q 265 350 264 353 Q 261 354 262 351 Z "></path><path fill="rgb(71,100,127)" stroke="rgb(71,100,127)" stroke-width="1" opacity="1" d="M 269 356 Q 272 355 271 358 L 273.5 358 L 273.5 359 L 269 358 L 269 356 Z "></path><path fill="rgb(71,100,127)" stroke="rgb(71,100,127)" stroke-width="1" opacity="1" d="M 276 359 L 279 359 L 279 361 Q 281.7 359.9 281 362.5 L 281.5 364 L 279 363 L 279 361 Q 274.9 362.3 276 359 Z "></path><path fill="rgb(71,100,127)" stroke="rgb(71,100,127)" stroke-width="1" opacity="1" d="M 347 361 Q 350 360 349 363 L 346 364.5 Q 346.7 367.1 344 366 L 344 368 L 342 368 L 342 370 L 340 370 L 340 368 L 342 368 L 342 366 L 344 366 Q 342.9 363.3 345.5 364 L 347 361 Z "></path><path fill="rgb(71,100,127)" stroke="rgb(71,100,127)" stroke-width="1" opacity="1" d="M 288.5 366 L 289 368 Q 292 367 291 370 Q 288.3 371.1 289 368.5 L 288.5 366 Z "></path><path fill="rgb(71,100,127)" stroke="rgb(71,100,127)" stroke-width="1" opacity="1" d="M 337 371 Q 340.7 369.8 339 375 L 334 375 L 334 378 L 332 378 L 330 382 L 327 382 Q 325.9 378.7 330 380 L 330 376 L 331.5 376 L 334 375 L 334 373 Q 338.1 374.3 337 371 Z "></path><path fill="rgb(71,100,127)" stroke="rgb(71,100,127)" stroke-width="1" opacity="1" d="M 296 373 Q 301.2 371.3 300 375 Q 294.8 376.7 296 373 Z "></path><path fill="rgb(71,100,127)" stroke="rgb(71,100,127)" stroke-width="1" opacity="1" d="M 303.5 375 L 306 376.5 Q 305.3 379.1 308 378 L 308 380 Q 305.3 381.1 306 378.5 L 305 376 L 303.5 375 Z "></path><path fill="rgb(71,100,127)" stroke="rgb(71,100,127)" stroke-width="1" opacity="1" d="M 315 383 Q 319.9 381.4 318 387 Q 313.1 388.6 315 383 Z "></path><path fill="rgb(71,100,127)" stroke="rgb(71,100,127)" stroke-width="1" opacity="1" d="M 323 383 Q 329 381 327 387 L 320.5 388 L 320.5 387 Q 325.1 388.2 323 383 Z "></path><path fill="rgb(98,143,195)" stroke="rgb(98,143,195)" stroke-width="1" opacity="0.9882352941176471" d="M 110 37 Q 113 36 112 39 Q 109 40 110 37 Z "></path><path fill="rgb(98,143,195)" stroke="rgb(98,143,195)" stroke-width="1" opacity="0.9882352941176471" d="M 80 85 Q 84.1 83.7 83 87 Q 78.9 88.3 80 85 Z "></path><path fill="rgb(98,143,195)" stroke="rgb(98,143,195)" stroke-width="1" opacity="0.9882352941176471" d="M 66 88 Q 69 87 68 90 Q 65 91 66 88 Z "></path><path fill="rgb(98,143,195)" stroke="rgb(98,143,195)" stroke-width="1" opacity="0.9882352941176471" d="M 61 90 Q 64 89 63 92 Q 60 93 61 90 Z "></path><path fill="rgb(98,143,195)" stroke="rgb(98,143,195)" stroke-width="1" opacity="0.9882352941176471" d="M 35 100 Q 38 99 37 102 Q 34 103 35 100 Z "></path><path fill="rgb(98,143,195)" stroke="rgb(98,143,195)" stroke-width="1" opacity="0.9882352941176471" d="M 138 100 Q 142.1 98.7 141 102 Q 136.9 103.3 138 100 Z "></path><path fill="rgb(98,143,195)" stroke="rgb(98,143,195)" stroke-width="1" opacity="0.9882352941176471" d="M 30 102 Q 33 101 32 104 Q 29 105 30 102 Z "></path><path fill="rgb(98,143,195)" stroke="rgb(98,143,195)" stroke-width="1" opacity="0.9882352941176471" d="M 27 104 Q 30 103 29 106 Q 26 107 27 104 Z "></path><path fill="rgb(98,143,195)" stroke="rgb(98,143,195)" stroke-width="1" opacity="0.9882352941176471" d="M 214 121 Q 217 120 216 123 Q 213 124 214 121 Z "></path><path fill="rgb(98,143,195)" stroke="rgb(98,143,195)" stroke-width="1" opacity="0.9882352941176471" d="M 211.5 123 L 213 123.5 L 211 124 Q 212 127 209 126 Q 207.9 123.3 210.5 124 L 211.5 123 Z "></path><path fill="rgb(98,143,195)" stroke="rgb(98,143,195)" stroke-width="1" opacity="0.9882352941176471" d="M 206 126 Q 209 125 208 128 L 204.5 129 L 204.5 128 Q 207.1 128.7 206 126 Z "></path><path fill="rgb(98,143,195)" stroke="rgb(98,143,195)" stroke-width="1" opacity="0.9882352941176471" d="M 201.5 129 L 202 130.5 L 201 133 Q 198 134 199 131 Q 201.8 132 201.5 129 Z "></path><path fill="rgb(98,143,195)" stroke="rgb(98,143,195)" stroke-width="1" opacity="0.9882352941176471" d="M 192 134 Q 195 133 194 136 L 190 138 L 192 134 Z "></path><path fill="rgb(98,143,195)" stroke="rgb(98,143,195)" stroke-width="1" opacity="0.9882352941176471" d="M 187 138 Q 190 137 189 140 L 185.5 141 L 185.5 140 Q 188.1 140.7 187 138 Z "></path><path fill="rgb(98,143,195)" stroke="rgb(98,143,195)" stroke-width="1" opacity="0.9882352941176471" d="M 182 141 Q 185 140 184 143 Q 181 144 182 141 Z "></path><path fill="rgb(98,143,195)" stroke="rgb(98,143,195)" stroke-width="1" opacity="0.9882352941176471" d="M 179.5 143 L 180 144.5 L 177.5 146 L 177.5 145 Q 180 145.7 179.5 143 Z "></path><path fill="rgb(98,143,195)" stroke="rgb(98,143,195)" stroke-width="1" opacity="0.9882352941176471" d="M 173 146 Q 176 145 175 148 Q 172.3 146.9 173 149.5 L 172 149.5 L 173 146 Z "></path><path fill="rgb(98,143,195)" stroke="rgb(98,143,195)" stroke-width="1" opacity="0.9882352941176471" d="M 168 150 Q 171 149 170 152 Q 167 153 168 150 Z "></path><path fill="rgb(98,143,195)" stroke="rgb(98,143,195)" stroke-width="1" opacity="0.9882352941176471" d="M 165.5 152 L 167 152.5 L 165 153 Q 166 156 163 155 Q 161.9 152.3 164.5 153 L 165.5 152 Z "></path><path fill="rgb(98,143,195)" stroke="rgb(98,143,195)" stroke-width="1" opacity="0.9882352941176471" d="M 3 153 Q 6 152 5 155 Q 2 156 3 153 Z "></path><path fill="rgb(98,143,195)" stroke="rgb(98,143,195)" stroke-width="1" opacity="0.9882352941176471" d="M 6 155 Q 11.2 153.3 10 157 Q 4.8 158.7 6 155 Z "></path><path fill="rgb(98,143,195)" stroke="rgb(98,143,195)" stroke-width="1" opacity="0.9882352941176471" d="M 160 155 Q 163 154 162 157 L 158.5 158 L 158.5 157 Q 161.1 157.7 160 155 Z "></path><path fill="rgb(98,143,195)" stroke="rgb(98,143,195)" stroke-width="1" opacity="0.9882352941176471" d="M 12.5 157 L 15 157.5 L 12.5 158 L 12.5 157 Z "></path><path fill="rgb(98,143,195)" stroke="rgb(98,143,195)" stroke-width="1" opacity="0.9882352941176471" d="M 17.5 158 L 18 160 L 23.5 160 L 24 162 L 26.5 162 L 26.5 163 L 18 162 L 17.5 158 Z "></path><path fill="rgb(98,143,195)" stroke="rgb(98,143,195)" stroke-width="1" opacity="0.9882352941176471" d="M 151 160 Q 154 159 153 162 L 150.5 163 L 151 161.5 L 151 160 Z "></path><path fill="rgb(98,143,195)" stroke="rgb(98,143,195)" stroke-width="1" opacity="0.9882352941176471" d="M 29 163 Q 33.3 162 32.5 165 L 37 165 L 37 167 L 42 167 L 42 169 L 45.5 169 L 51 170 L 51 172 Q 55.1 170.7 54 174 L 57.5 174 L 63 175 L 63 177 Q 69.3 175.5 68.5 179 L 72.5 179 L 76 180 L 76 182 L 80 182 L 80 184 L 84.5 184 L 85 186 L 87.5 186 L 93 187 L 93 189 Q 98.2 187.3 97 191 L 105 191 Q 104 188 107 189 Q 108.1 191.7 105.5 191 Q 103.8 193.8 97.5 192 L 93 191 L 93 189 L 88.5 189 L 88 187 L 85.5 187 L 80 186 L 80 184 L 75 184 L 75 182 Q 69.8 183.7 71 180 L 66.5 180 L 63 179 L 63 177 L 58.5 177 Q 59.5 174 54.5 175 L 49 174 L 49 172 Q 44.9 173.3 46 170 L 41.5 170 L 35 169 L 35 167 L 32 167 L 32 165 Q 27.9 166.3 29 163 Z "></path><path fill="rgb(98,143,195)" stroke="rgb(98,143,195)" stroke-width="1" opacity="0.9882352941176471" d="M 146 163 Q 149 162 148 165 L 144 167 L 146 163 Z "></path><path fill="rgb(98,143,195)" stroke="rgb(98,143,195)" stroke-width="1" opacity="0.9882352941176471" d="M 141 167 Q 144 166 143 169 L 138 170 Q 139 173 136 172 Q 134.9 169.3 137.5 170 L 141 169 L 141 167 Z "></path><path fill="rgb(98,143,195)" stroke="rgb(98,143,195)" stroke-width="1" opacity="0.9882352941176471" d="M 133.5 172 L 134 173.5 Q 132.8 176 129 175 L 127 179 L 124.5 179 L 122.5 180 L 122.5 179 L 128.5 175 L 133 174 L 133.5 172 Z "></path><path fill="rgb(98,143,195)" stroke="rgb(98,143,195)" stroke-width="1" opacity="0.9882352941176471" d="M 119 180 Q 122 179 121 182 L 117 184 L 119 180 Z "></path><path fill="rgb(98,143,195)" stroke="rgb(98,143,195)" stroke-width="1" opacity="0.9882352941176471" d="M 114 184 Q 117 183 116 186 L 110 187 L 109.5 189 L 109 187.5 Q 110.2 185 114 186 L 114 184 Z "></path><path fill="rgb(98,143,195)" stroke="rgb(98,143,195)" stroke-width="1" opacity="0.9882352941176471" d="M 393 228 Q 396 227 395 230 Q 392 231 393 228 Z "></path><path fill="rgb(98,143,195)" stroke="rgb(98,143,195)" stroke-width="1" opacity="0.9882352941176471" d="M 386 233 Q 389 232 388 235 Q 385 236 386 233 Z "></path><path fill="rgb(98,143,195)" stroke="rgb(98,143,195)" stroke-width="1" opacity="0.9882352941176471" d="M 374 240 Q 377 239 376 242 Q 373 243 374 240 Z "></path><path fill="rgb(98,143,195)" stroke="rgb(98,143,195)" stroke-width="1" opacity="0.9882352941176471" d="M 357 252 Q 360 251 359 254 Q 356 255 357 252 Z "></path><path fill="rgb(98,143,195)" stroke="rgb(98,143,195)" stroke-width="1" opacity="0.9882352941176471" d="M 279 259 Q 282 258 281 261 Q 278 262 279 259 Z "></path><path fill="rgb(98,143,195)" stroke="rgb(98,143,195)" stroke-width="1" opacity="0.9882352941176471" d="M 288 262 Q 292.1 260.7 291 264 Q 286.9 265.3 288 262 Z "></path><path fill="rgb(98,143,195)" stroke="rgb(98,143,195)" stroke-width="1" opacity="0.9882352941176471" d="M 294 264 Q 297 263 296 266 L 299.5 266 L 299.5 267 L 294 266 L 294 264 Z "></path><path fill="rgb(98,143,195)" stroke="rgb(98,143,195)" stroke-width="1" opacity="0.9882352941176471" d="M 337 264 Q 340 263 339 266 Q 336 267 337 264 Z "></path><path fill="rgb(98,143,195)" stroke="rgb(98,143,195)" stroke-width="1" opacity="0.9882352941176471" d="M 320 274 Q 324.1 272.7 323 276 Q 318.9 277.3 320 274 Z "></path><path fill="rgb(98,143,195)" stroke="rgb(98,143,195)" stroke-width="1" opacity="0.9882352941176471" d="M 102 276 L 104 276.5 L 104 361 L 102 360.5 L 102 276 Z "></path><path fill="rgb(98,143,195)" stroke="rgb(98,143,195)" stroke-width="1" opacity="0.9882352941176471" d="M 306 284 L 308 284 L 308 289.5 L 309.5 290 L 311 293 L 315 293 Q 313.8 296 317.5 295 L 317.5 296 L 311 295 L 310 291 L 306 291 L 306 292.5 L 305 292.5 L 306 284 Z "></path><path fill="rgb(98,143,195)" stroke="rgb(98,143,195)" stroke-width="1" opacity="0.9882352941176471" d="M 320 296 L 325 296 L 327 300 L 329.5 300 L 329.5 301 L 325 300 Q 326 297 323 298 L 323 323.5 L 320 324 L 320 296 Z "></path><path fill="rgb(98,143,195)" stroke="rgb(98,143,195)" stroke-width="1" opacity="0.9882352941176471" d="M 291.5 300 L 294 300.5 L 291 301 L 291 303 Q 288.3 301.9 289 304.5 L 288 304.5 L 289 301 L 291.5 300 Z "></path><path fill="rgb(98,143,195)" stroke="rgb(98,143,195)" stroke-width="1" opacity="0.9882352941176471" d="M 334 303 L 339 303 L 339 305 L 334 305 L 334 303 Z "></path><path fill="rgb(98,143,195)" stroke="rgb(98,143,195)" stroke-width="1" opacity="0.9882352941176471" d="M 340 305 Q 345.6 303.1 344 308 Q 338.4 309.9 340 305 Z "></path><path fill="rgb(98,143,195)" stroke="rgb(98,143,195)" stroke-width="1" opacity="0.9882352941176471" d="M 279 308 Q 282 307 281 310 Q 278 311 279 308 Z "></path><path fill="rgb(98,143,195)" stroke="rgb(98,143,195)" stroke-width="1" opacity="0.9882352941176471" d="M 271 312 Q 275.5 310.5 274 315 L 271 315 Q 272 318 269 317 Q 268 314 271 315 L 271 312 Z "></path><path fill="rgb(98,143,195)" stroke="rgb(98,143,195)" stroke-width="1" opacity="0.9882352941176471" d="M 359 312 Q 362.3 310.9 361 315 Q 357.7 316.1 359 312 Z "></path><path fill="rgb(98,143,195)" stroke="rgb(98,143,195)" stroke-width="1" opacity="0.9882352941176471" d="M 260 320 Q 263 319 262 322 Q 259 323 260 320 Z "></path><path fill="rgb(98,143,195)" stroke="rgb(98,143,195)" stroke-width="1" opacity="0.9882352941176471" d="M 374 320 Q 377 319 376 322 Q 373 323 374 320 Z "></path><path fill="rgb(98,143,195)" stroke="rgb(98,143,195)" stroke-width="1" opacity="0.9882352941176471" d="M 378 322 Q 381 321 380 324 Q 377 325 378 322 Z "></path><path fill="rgb(98,143,195)" stroke="rgb(98,143,195)" stroke-width="1" opacity="0.9882352941176471" d="M 245 330 Q 248 329 247 332 Q 244 333 245 330 Z "></path><path fill="rgb(98,143,195)" stroke="rgb(98,143,195)" stroke-width="1" opacity="0.9882352941176471" d="M 238 334 Q 241 333 240 336 Q 237 337 238 334 Z "></path><path fill="rgb(98,143,195)" stroke="rgb(98,143,195)" stroke-width="1" opacity="0.9882352941176471" d="M 320 336 L 323 336.5 L 323 387 L 320 386.5 L 320 336 Z "></path><path fill="rgb(98,143,195)" stroke="rgb(98,143,195)" stroke-width="1" opacity="0.9882352941176471" d="M 284 364 Q 289.2 362.3 288 366 Q 282.8 367.7 284 364 Z "></path><path fill="rgb(98,143,195)" stroke="rgb(98,143,195)" stroke-width="1" opacity="0.9882352941176471" d="M 289 366 Q 292 365 291 368 Q 288 369 289 366 Z "></path></svg>