<svg width="400" height="400" version="1.1" xmlns="http://www.w3.org/2000/svg" desc="Created with imagetracer.js version 1.2.5"><path fill="rgb(255,0,0)" stroke="rgb(255,0,0)" stroke-width="1" opacity="0.00392156862745098" d="M 6 0 L 8 0.5 L 5 12.5 L 5 35.5 L 3.5 41 L 3 34.5 L 3 32.5 L 4 30.5 L 4 8.5 L 6 0 Z "></path><path fill="rgb(255,0,0)" stroke="rgb(255,0,0)" stroke-width="1" opacity="0.00392156862745098" d="M 146.5 0 L 152 4.5 Q 156.7 11.3 158 21.5 L 158 23.5 L 157 37.5 L 154 46.5 L 154 54.5 L 149 67.5 L 145.5 72 L 137 71.5 L 144.5 71 L 147 68.5 L 151 59.5 L 153 45.5 L 156 36.5 L 156 17.5 Q 152.9 5.9 146.5 0 Z "></path><path fill="rgb(255,0,0)" stroke="rgb(255,0,0)" stroke-width="1" opacity="0.00392156862745098" d="M 217.5 0 L 217 1.5 Q 210.5 12.5 200.5 20 L 190 29.5 L 183 40.5 Q 180.7 45.3 182 53.5 Q 184.2 61.9 190.5 66 L 201.5 71 Q 215.8 84.2 234 93.5 L 232.5 94 L 215.5 84 L 199.5 71 L 188.5 66 L 184 61.5 L 180 50.5 L 181 47.5 L 181 45.5 Q 185.3 29.8 196.5 21 L 210 9.5 L 217.5 0 Z "></path><path fill="rgb(255,0,0)" stroke="rgb(255,0,0)" stroke-width="1" opacity="0.00392156862745098" d="M 382.5 0 L 389 13.5 L 391 23.5 L 394.5 29 L 400 33.5 L 399.5 35 Q 393 31 390 23.5 L 382.5 0 Z "></path><path fill="rgb(255,0,0)" stroke="rgb(255,0,0)" stroke-width="1" opacity="0.00392156862745098" d="M 3.5 42 L 4 45.5 L 3 45.5 L 3.5 42 Z "></path><path fill="rgb(255,0,0)" stroke="rgb(255,0,0)" stroke-width="1" opacity="0.00392156862745098" d="M 3.5 53 L 4 56.5 L 3 56.5 L 3.5 53 Z "></path><path fill="rgb(255,0,0)" stroke="rgb(255,0,0)" stroke-width="1" opacity="0.00392156862745098" d="M 3 58 L 5 58.5 L 5 65.5 Q 7.9 73.6 14.5 78 Q 20.6 82.4 32.5 81 L 42.5 79 L 60.5 78 Q 67.9 74.4 78.5 74 L 78.5 75 L 69.5 76 L 62.5 79 L 43.5 80 L 36.5 82 L 34.5 82 L 25.5 82 L 24.5 83 Q 23.3 80.8 18.5 82 L 12.5 79 L 7 73.5 L 4 67.5 L 3 58 Z "></path><path fill="rgb(255,0,0)" stroke="rgb(255,0,0)" stroke-width="1" opacity="0.00392156862745098" d="M 399.5 64 L 400 65.5 L 389.5 74 L 364.5 83 L 328.5 101 L 318.5 105 L 300.5 109 L 290.5 114 L 280.5 115 L 263.5 110 L 235 94.5 L 236.5 95 L 264.5 109 L 276.5 113 L 288.5 113 L 303.5 107 L 325.5 101 L 366.5 81 L 388.5 73 L 399 65.5 L 399.5 64 Z "></path><path fill="rgb(255,0,0)" stroke="rgb(255,0,0)" stroke-width="1" opacity="0.00392156862745098" d="M 121.5 72 L 132 72.5 L 121.5 73 L 121.5 72 Z "></path><path fill="rgb(255,0,0)" stroke="rgb(255,0,0)" stroke-width="1" opacity="0.00392156862745098" d="M 106.5 73 L 116 73.5 L 106.5 74 L 106.5 73 Z "></path><path fill="rgb(255,0,0)" stroke="rgb(255,0,0)" stroke-width="1" opacity="0.00392156862745098" d="M 86.5 74 L 99 74.5 L 86.5 75 L 86.5 74 Z "></path><path fill="rgb(255,0,0)" stroke="rgb(255,0,0)" stroke-width="1" opacity="0.00392156862745098" d="M 215.5 316 L 218.5 317 L 220.5 317 L 228.5 319 L 280 345.5 L 278.5 346 L 225.5 319 L 211.5 318 Q 201.9 320.9 196 327.5 L 189 341.5 L 162.5 375 L 154 381.5 L 149 391.5 L 149 398.5 L 149.5 400 Q 146.9 400.8 148 397.5 L 148 395.5 L 148 388.5 Q 150.6 381.1 156.5 377 L 159.5 376 L 167 368.5 L 171 361.5 L 190 338.5 L 191 331.5 L 198.5 323 L 206.5 318 L 215.5 316 Z "></path><path fill="rgb(255,0,0)" stroke="rgb(255,0,0)" stroke-width="1" opacity="0.00392156862745098" d="M 281.5 346 L 296.5 353 L 316 368.5 L 321 378.5 L 321 387.5 Q 318.9 395.9 312.5 400 L 311 399.5 Q 316.6 395.6 319 388.5 L 319 377.5 Q 315.8 368.8 308.5 364 L 294.5 353 L 281.5 347 L 281.5 346 Z "></path><path fill="rgb(0,0,0)" stroke="rgb(0,0,0)" stroke-width="1" opacity="0" d="M 0 0 L 6 0 L 6 2.5 L 4 8.5 L 4 30.5 L 3 32.5 L 3 34.5 Q 1.5 40 4 41.5 L 3 45.5 L 3 49.5 L 4 52.5 L 3 56.5 L 3 58.5 Q 2.9 73.6 12.5 79 L 18.5 82 Q 23.3 80.8 24.5 83 L 35.5 81 L 37.5 81 L 62.5 79 L 69.5 76 L 85.5 74 L 86.5 75 L 98.5 75 L 101.5 74 L 103.5 75 L 104.5 74 L 115.5 74 L 117.5 73 L 119.5 73 L 145.5 72 L 147 70.5 L 154 54.5 L 154 46.5 L 157 37.5 L 158 23.5 L 158 21.5 L 154 7.5 L 148 0.5 L 216.5 0 L 214 3.5 L 201.5 18 L 190 27.5 L 182 39.5 L 180 46.5 L 181 49.5 L 181 51.5 Q 181.8 61.7 188.5 66 L 199.5 71 L 224.5 90 L 234.5 94 L 257.5 107 L 275.5 114 L 286.5 115 L 300.5 109 L 318.5 105 L 328.5 101 L 364.5 83 L 389.5 74 L 399.5 66 L 400 400 L 313 399.5 Q 322.2 394.2 321 378.5 Q 319.6 370.9 314.5 367 L 291.5 350 L 283.5 346 L 280.5 346 L 228.5 319 L 219.5 316 L 217.5 316 Q 200.3 317.3 193 328.5 Q 189.3 331.3 190 338.5 L 171 361.5 L 167 368.5 L 159.5 376 Q 153.4 377.4 151 382.5 L 148 388.5 Q 149.8 394.8 147 396.5 L 148 400 L 0.5 400 L 0 399.5 L 0 366.5 L 1 366.5 Q 4.4 381.6 15.5 389 Q 23.3 395.3 34.5 398 L 68.5 398 L 84.5 394 Q 95.5 389.5 103 381.5 Q 111.7 373 116 361 L 148.5 336 L 174 311.5 L 190 288.5 L 190 286.5 L 191 281.5 L 190 280.5 L 190 269.5 L 189 268.5 L 188 255.5 L 188 253.5 L 189 250.5 L 188 249.5 L 188 194.5 L 190 189.5 L 190 172.5 Q 185.2 166.1 187 154 L 180.5 154 L 179 152.5 Q 175.4 143.1 167.5 138 L 146.5 125 L 131.5 118 L 112.5 114 L 96.5 114 L 95.5 113 L 92.5 114 L 90.5 114 L 74.5 114 L 73.5 115 L 64.5 115 L 56.5 117 Q 54.8 114.2 48.5 116 Q 32.1 118.6 23.5 129 L 9.5 132 L 0 136 L 0 0 Z M 292 128 L 291 129 Q 280 128 274 130 Q 270 133 264 134 L 255 140 Q 245 148 239 159 L 232 179 L 232 246 L 234 255 L 236 258 L 235 262 L 235 276 L 236 277 L 236 286 L 237 287 L 238 299 L 256 309 L 266 321 L 274 328 L 299 344 L 318 362 Q 330 362 338 357 L 354 356 L 363 352 L 371 346 L 376 340 L 381 328 L 381 321 L 384 309 L 386 291 L 386 289 L 388 279 L 388 245 L 387 244 L 387 231 L 388 230 Q 386 228 387 224 L 387 222 L 388 219 L 387 217 L 387 215 L 388 212 L 387 211 L 387 189 L 386 188 L 386 181 L 384 171 L 377 158 Q 371 151 363 147 Q 358 144 350 145 L 346 143 Q 340 145 341 141 Q 336 142 335 138 L 320 135 L 303 129 L 293 129 L 292 128 Z "></path><path fill="rgb(0,0,0)" stroke="rgb(0,0,0)" stroke-width="1" opacity="0" d="M 383 0 L 400 0 L 400 32.5 L 395.5 29 L 393 27.5 Q 389.4 22.1 389 13.5 L 383 0 Z "></path><path fill="rgb(236,0,39)" stroke="rgb(236,0,39)" stroke-width="1" opacity="0.6392156862745098" d="M 8.5 0 L 9 4.5 L 6 19.5 L 6 61.5 Q 8.7 71.3 16.5 76 Q 21.9 79.6 30.5 80 L 31.5 79 L 58.5 77 L 73.5 73 L 105.5 73 L 105.5 74 L 74.5 74 L 60.5 78 L 42.5 79 L 32.5 81 L 22.5 81 Q 12.5 79 8 71.5 L 5 65.5 Q 6.7 59.3 4 57.5 L 4 36.5 L 5 35.5 L 5 12.5 L 7 1.5 L 8.5 0 Z "></path><path fill="rgb(236,0,39)" stroke="rgb(236,0,39)" stroke-width="1" opacity="0.6392156862745098" d="M 145.5 0 Q 159.5 9.5 156 36.5 L 153 45.5 L 151 59.5 L 144.5 71 L 123.5 72 L 123.5 71 L 139.5 70 L 143 66.5 Q 156.3 49.8 155 18.5 Q 151.4 6.9 145.5 0 Z "></path><path fill="rgb(236,0,39)" stroke="rgb(236,0,39)" stroke-width="1" opacity="0.6392156862745098" d="M 218.5 0 L 220 0.5 L 204.5 18 L 189 32.5 L 184 42.5 L 184 51.5 Q 186.1 61.4 193.5 66 L 203.5 71 L 224.5 87 L 254.5 103 L 273.5 111 L 284.5 112 L 327.5 99 Q 356.4 82.9 389.5 71 L 399 62.5 L 399.5 61 L 400 63.5 L 397.5 67 L 388.5 73 L 366.5 81 L 325.5 101 L 303.5 107 L 288.5 113 L 276.5 113 L 264.5 109 L 230.5 92 L 201.5 71 L 190.5 66 L 185 60.5 Q 180.5 55 182 43.5 Q 187.7 28.7 199.5 20 L 213 7.5 L 218.5 0 Z "></path><path fill="rgb(236,0,39)" stroke="rgb(236,0,39)" stroke-width="1" opacity="0.6392156862745098" d="M 381.5 0 L 385 6.5 L 390 23.5 Q 393.2 31.3 400 35.5 L 400 37.5 L 399 37.5 L 389 23.5 L 381.5 0 Z "></path><path fill="rgb(236,0,39)" stroke="rgb(236,0,39)" stroke-width="1" opacity="0.6392156862745098" d="M 109.5 72 L 121 72.5 L 109.5 73 L 109.5 72 Z "></path><path fill="rgb(236,0,39)" stroke="rgb(236,0,39)" stroke-width="1" opacity="0.6392156862745098" d="M 211.5 318 L 225.5 319 L 257.5 336 L 294.5 353 L 316 371.5 Q 320.8 376.7 319 388.5 Q 316.4 395.9 310.5 400 L 309 399.5 Q 316.6 394.6 317 382.5 Q 314.8 381.3 316 376.5 L 313 370.5 L 305.5 363 L 290.5 352 Q 258.3 338.7 229.5 322 Q 223 318.5 211.5 320 Q 202.4 321.9 198 328.5 Q 181.8 355.8 160.5 378 L 158 379.5 Q 151.8 383.7 153 395.5 L 154 400 Q 150.2 401 149 398.5 Q 148.5 384.5 156.5 379 L 166 371.5 L 189 341.5 L 194 330.5 L 198.5 325 L 211.5 318 Z "></path><path fill="rgb(236,0,39)" stroke="rgb(236,0,39)" stroke-width="1" opacity="0.996078431372549" d="M 9 0 L 144.5 0 L 148 3.5 L 155 18.5 L 155 35.5 L 150 54.5 L 139.5 70 L 123.5 71 L 122.5 72 L 109.5 72 L 108.5 73 L 73.5 73 L 58.5 77 L 28.5 80 L 16.5 76 L 9 68.5 L 6 61.5 L 6 19.5 L 7 18.5 L 9 0 Z "></path><path fill="rgb(236,0,39)" stroke="rgb(236,0,39)" stroke-width="1" opacity="0.996078431372549" d="M 220.5 0 L 380.5 0 L 381 1.5 L 391 27.5 L 400 38.5 L 400 60.5 L 392.5 69 L 383.5 74 L 359.5 83 L 322.5 101 Q 305 104.5 290.5 111 L 279.5 112 L 262.5 107 L 229.5 90 Q 215.1 81.9 203.5 71 L 193.5 66 L 188 60.5 L 184 51.5 L 184 42.5 L 189 32.5 L 203.5 18 L 211 11.5 L 220.5 0 Z "></path><path fill="rgb(236,0,39)" stroke="rgb(236,0,39)" stroke-width="1" opacity="0.996078431372549" d="M 211.5 320 Q 223 318.5 229.5 322 L 261.5 339 L 282.5 348 Q 300.7 356.3 313 370.5 L 316 376.5 L 317 384.5 L 313 395.5 L 308.5 400 L 154.5 400 L 154 396.5 Q 151.3 394.8 153 388.5 L 159.5 378 L 168 370.5 L 202.5 324 L 211.5 320 Z "></path><path fill="rgb(0,122,235)" stroke="rgb(0,122,235)" stroke-width="1" opacity="0.9176470588235294" d="M 87.5 115 L 114.5 116 L 131.5 120 L 159.5 135 L 174 147.5 L 179.5 155 L 186 155 L 186 166.5 L 185 166.5 L 185 156 L 179.5 156 L 173 152.5 L 171.5 150 Q 169.3 150.8 170 148.5 Q 144.8 118.7 91.5 117 L 90.5 118 L 76.5 118 L 75.5 119 L 52.5 122 L 39.5 129 L 30.5 130 L 0 141 L 1.5 138 L 16.5 132 L 23.5 131 L 44.5 121 L 50.5 121 L 72.5 116 L 86.5 116 L 87.5 115 Z "></path><path fill="rgb(0,122,235)" stroke="rgb(0,122,235)" stroke-width="1" opacity="0.9176470588235294" d="M 284.5 130 L 296.5 130 L 306.5 133 L 311.5 133 L 316.5 136 L 323.5 138 L 328.5 138 L 348.5 147 Q 356.9 146.1 361.5 149 Q 371.2 153.3 377 161.5 L 383 174.5 L 384 186.5 L 385 187.5 L 385 205.5 L 386 206.5 L 386 259.5 L 387 260.5 L 386 263.5 L 385 290.5 L 379 324.5 Q 374.5 340.5 362.5 349 Q 355.6 354.1 343.5 354 L 343.5 353 L 356 349 Q 354.5 343.6 357.5 342 L 365 337.5 L 367 334.5 Q 375.8 327.3 379 314.5 L 380 303.5 L 383 290.5 L 384 263.5 L 385 262.5 L 385 260.5 L 385 210.5 L 384 209.5 L 384 199.5 L 383 198.5 L 383 183.5 Q 379.9 168.1 368.5 161 L 349.5 149 L 342.5 147 L 337.5 147 L 321.5 138 Q 315.4 138.6 312.5 136 L 293.5 136 L 289.5 135 L 284.5 138 L 281.5 137 L 278.5 137 L 269.5 142 Q 268 139.5 266.5 143 Q 263.2 141.9 264 144.5 L 256 149.5 L 248.5 158 L 247 158 L 247 163 Q 243.3 161.5 244 164.5 L 241 173 Q 238 171.8 239 175.5 L 237 179.5 L 237 186.5 L 234 198.5 L 234 225.5 L 237 238.5 L 237 253.5 L 236 253.5 L 233 241.5 L 233 181.5 L 237 171.5 L 237 167.5 L 248.5 148 L 252 145.5 L 253.5 143 L 257 141.5 Q 256.3 139.3 258.5 140 L 270.5 133 L 284.5 130 Z "></path><path fill="rgb(0,122,235)" stroke="rgb(0,122,235)" stroke-width="1" opacity="0.9176470588235294" d="M 186.5 169 L 188 175.5 L 188 186.5 L 187 187.5 L 186.5 260 L 186.5 169 Z "></path><path fill="rgb(0,122,235)" stroke="rgb(0,122,235)" stroke-width="1" opacity="0.9176470588235294" d="M 237.5 257 L 240 267.5 L 240 278.5 L 242 286.5 L 242 295.5 L 244 300 L 252 304.5 L 249.5 303 L 240 298.5 L 237 285.5 L 237.5 257 Z "></path><path fill="rgb(0,122,235)" stroke="rgb(0,122,235)" stroke-width="1" opacity="0.9176470588235294" d="M 187.5 262 L 188 267.5 L 187 267.5 L 187.5 262 Z "></path><path fill="rgb(0,122,235)" stroke="rgb(0,122,235)" stroke-width="1" opacity="0.9176470588235294" d="M 188.5 270 L 189 287.5 L 188 287.5 L 188.5 270 Z "></path><path fill="rgb(0,122,235)" stroke="rgb(0,122,235)" stroke-width="1" opacity="0.9176470588235294" d="M 187.5 289 L 188 290.5 L 183.5 296 L 185 293.5 L 187.5 289 Z "></path><path fill="rgb(0,122,235)" stroke="rgb(0,122,235)" stroke-width="1" opacity="0.9176470588235294" d="M 182.5 297 L 181.5 299 L 182.5 297 Z "></path><path fill="rgb(0,122,235)" stroke="rgb(0,122,235)" stroke-width="1" opacity="0.9176470588235294" d="M 180.5 300 L 178.5 303 L 180.5 300 Z "></path><path fill="rgb(0,122,235)" stroke="rgb(0,122,235)" stroke-width="1" opacity="0.9176470588235294" d="M 177.5 304 L 174 308.5 L 167.5 316 L 173 309.5 L 177.5 304 Z "></path><path fill="rgb(0,122,235)" stroke="rgb(0,122,235)" stroke-width="1" opacity="0.9176470588235294" d="M 253.5 305 L 264 314.5 L 275.5 327 L 285 333.5 L 282.5 332 L 275.5 328 L 253.5 305 Z "></path><path fill="rgb(0,122,235)" stroke="rgb(0,122,235)" stroke-width="1" opacity="0.9176470588235294" d="M 166.5 317 L 162.5 322 L 133.5 346 L 136.5 342 L 145.5 336 L 166.5 317 Z "></path><path fill="rgb(0,122,235)" stroke="rgb(0,122,235)" stroke-width="1" opacity="0.9176470588235294" d="M 286.5 334 Q 305.3 344.7 319 360.5 L 317.5 361 L 301.5 345 L 287.5 336 L 286.5 334 Z "></path><path fill="rgb(0,122,235)" stroke="rgb(0,122,235)" stroke-width="1" opacity="0.9176470588235294" d="M 131.5 346 L 128.5 350 L 113 363.5 Q 107.8 375.3 98.5 383 Q 90.1 390.1 78.5 394 L 68.5 396 L 53.5 396 L 48.5 397 L 47.5 396 L 32.5 395 L 24.5 392 Q 15.8 387.8 10 380.5 Q 1.2 370.8 1 352.5 L 1 350.5 L 0 347.5 L 2 348.5 L 8 356.5 L 8 361.5 L 11 365.5 Q 11 372 14.5 375 L 20 379.5 L 24.5 385 L 32.5 390 L 45.5 394 L 63.5 394 L 80.5 389 L 96 379.5 Q 95.3 377.3 97.5 378 L 103.5 371 Q 105.8 371.8 105 369.5 L 107 366 L 109.5 366 L 131.5 346 Z "></path><path fill="rgb(0,122,235)" stroke="rgb(0,122,235)" stroke-width="1" opacity="0.9176470588235294" d="M 339.5 354 L 342 354.5 L 332.5 358 L 332.5 357 L 339.5 354 Z "></path><path fill="rgb(0,122,235)" stroke="rgb(0,122,235)" stroke-width="1" opacity="0.9176470588235294" d="M 329.5 358 L 331 358.5 L 326.5 360 L 326.5 359 L 329.5 358 Z "></path><path fill="rgb(0,122,235)" stroke="rgb(0,122,235)" stroke-width="1" opacity="0.9176470588235294" d="M 320.5 360 L 325 360.5 L 320.5 361 L 320.5 360 Z "></path><path fill="rgb(0,122,236)" stroke="rgb(0,122,236)" stroke-width="1" opacity="0.996078431372549" d="M 91.5 117 Q 144.8 118.7 170 148.5 Q 169.3 150.8 171.5 150 L 174.5 154 L 179 155.5 L 177.5 156 L 160 153 L 159 149 Q 156 150 157 147 L 153 147 L 153 145.5 L 151 145.5 L 152 143.5 L 150.5 141 L 150 145 L 147 143.5 L 149 143.5 L 148 139.5 L 148.5 138 Q 145.5 137.1 147 141.5 L 143 142.5 L 144 140 L 141 140.5 L 141.5 142 L 139 140.5 L 142 138.5 L 140 138 Q 141.1 134.7 137 136 Q 138.1 138.7 135.5 138 Q 131 136 134.5 134 L 135.5 137 L 137 134.5 Q 135.3 130.2 133.5 133 L 131.5 132 Q 130 134.5 128.5 131 L 125.5 130 L 124 132.5 L 126 132.5 Q 125.3 134.8 121.5 134 L 122 132.5 L 120.5 130 L 119 132.5 Q 121.8 134.2 117.5 136 L 118 134.5 L 118 132 Q 115.3 133.1 116 130.5 L 116.5 129 L 114.5 130 L 114 127 Q 111.3 128.1 112 125.5 L 110.5 126 Q 107.9 125.3 109 128 L 114 131.5 L 113.5 133 L 112.5 131 L 112 133 L 109.5 132 L 107.5 133 L 106.5 131 L 109 132 L 108 129.5 Q 110.3 128.3 107.5 127 L 106 127.5 L 106.5 126 L 103.5 125 L 105 127.5 L 102.5 130 L 99.5 131 L 99.5 130 L 103 129 L 102.5 126 L 100.5 127 L 99 126.5 L 97.5 130 L 96 126.5 L 94.5 124 L 92.5 127 L 88.5 129 L 87.5 126 L 86 126.5 L 85.5 125 L 83 126.5 L 84 128.5 L 83 128.5 L 80.5 124 L 80 125.5 L 81.5 130 L 79 128.5 L 78.5 130 L 77.5 128 L 80 126.5 L 78.5 126 L 75.5 128 L 74.5 125 L 73.5 127 L 71 125.5 L 70.5 127 L 69.5 125 L 67.5 125 L 64 125.5 Q 66.3 126.8 63.5 128 L 62 124 L 60 124.5 L 61 126.5 L 60 126.5 L 59.5 125 L 57 126.5 L 56.5 125 L 54 125.5 Q 55.5 129.9 52.5 129 L 49 129.5 L 49.5 128 L 45.5 130 L 42.5 129 L 26.5 136 L 22 139.5 L 22.5 141 L 20.5 140 L 18.5 143 L 17.5 142 L 6.5 142 L 0.5 145 L 0 141 L 30.5 130 L 39.5 129 L 52.5 122 L 62.5 120 L 69.5 120 L 76.5 118 L 90.5 118 L 91.5 117 Z M 90 123 L 88 126 L 90 125 L 90 123 Z M 92 124 L 93 126 Q 94 123 92 124 Z M 100 124 Q 99 127 102 126 Q 103 123 100 124 Z M 118 128 L 119 132 L 120 130 L 118 128 Z M 123 128 Q 120 130 123 131 Q 126 130 123 128 Z M 110 130 L 110 132 L 112 131 L 110 130 Z M 144 138 L 145 140 L 146 140 L 144 138 Z "></path><path fill="rgb(0,122,236)" stroke="rgb(0,122,236)" stroke-width="1" opacity="0.996078431372549" d="M 66.5 126 L 69 127.5 L 67.5 128 L 66.5 126 Z "></path><path fill="rgb(0,122,236)" stroke="rgb(0,122,236)" stroke-width="1" opacity="0.996078431372549" d="M 94.5 127 L 95 129.5 L 93.5 131 L 93 128.5 L 94.5 127 Z "></path><path fill="rgb(0,122,236)" stroke="rgb(0,122,236)" stroke-width="1" opacity="0.996078431372549" d="M 57.5 128 L 60 129.5 L 58.5 129 L 57.5 128 Z "></path><path fill="rgb(0,122,236)" stroke="rgb(0,122,236)" stroke-width="1" opacity="0.996078431372549" d="M 105.5 129 L 107 129.5 L 104.5 131 L 105.5 129 Z "></path><path fill="rgb(0,122,236)" stroke="rgb(0,122,236)" stroke-width="1" opacity="0.996078431372549" d="M 88.5 130 L 90 133.5 L 88 134 L 88.5 130 Z "></path><path fill="rgb(0,122,236)" stroke="rgb(0,122,236)" stroke-width="1" opacity="0.996078431372549" d="M 90.5 131 L 93 132.5 L 92.5 134 L 90.5 131 Z "></path><path fill="rgb(0,122,236)" stroke="rgb(0,122,236)" stroke-width="1" opacity="0.996078431372549" d="M 82.5 132 L 83.5 134 Q 80.7 134.7 82.5 132 Z "></path><path fill="rgb(0,122,236)" stroke="rgb(0,122,236)" stroke-width="1" opacity="0.996078431372549" d="M 128.5 133 L 130.5 136 L 129 135.5 L 130 137.5 L 127 137.5 L 128 135.5 L 126 134.5 L 128.5 133 Z "></path><path fill="rgb(0,122,236)" stroke="rgb(0,122,236)" stroke-width="1" opacity="0.996078431372549" d="M 122.5 135 L 124 137.5 L 123 137.5 L 122.5 135 Z "></path><path fill="rgb(0,122,236)" stroke="rgb(0,122,236)" stroke-width="1" opacity="0.996078431372549" d="M 289.5 135 L 293.5 136 L 312.5 136 Q 315.4 138.6 321.5 138 L 337.5 147 L 342.5 147 L 349.5 149 L 368.5 161 L 378 170.5 L 383 183.5 L 383 198.5 L 384 199.5 L 384 209.5 L 385 210.5 L 385 260.5 L 384 263.5 L 383 290.5 L 382 291.5 L 379 314.5 L 374 326.5 L 367 336 Q 364.3 334.9 365 337.5 L 356.5 343 L 356 337.5 L 356.5 335 L 359.5 336 L 361 335.5 L 360.5 334 L 362 334.5 L 361 331.5 L 362 331.5 L 362.5 333 L 365 332 L 364 328.5 L 366.5 327 L 367.5 330 L 369 327.5 L 367.5 325 L 370 326 L 371 323.5 L 370.5 322 L 372 321.5 Q 369.5 320 373 318.5 L 375 311.5 Q 372.5 310 376 308.5 Q 374.8 302.4 377.5 303 L 377 301.5 L 379 297.5 L 378 295.5 L 379 292.5 L 378.5 291 L 380 291.5 L 379 287.5 L 380.5 285 L 378 284.5 L 381 282.5 L 382 275.5 L 382 273.5 L 381 269.5 L 383 264.5 L 383 260.5 L 384 257.5 L 382 253.5 L 383 251.5 L 383 245.5 L 382 242.5 Q 385.5 241 383 239.5 L 384 237.5 L 382 236.5 L 384 236 L 382 230.5 L 384 228.5 L 382.5 226 L 384 226.5 L 383 224.5 L 384 221.5 L 383 218.5 L 383.5 217 L 382 216.5 L 383 213.5 Q 379.5 212 382 210.5 Q 383.5 203 381 199.5 L 382 197.5 L 382 195.5 Q 383.9 190.1 380.5 191 L 381 189.5 L 380 186.5 L 381 183.5 L 379 183.5 L 379.5 182 Q 376.1 182.9 378 177.5 L 376.5 175 L 375 175.5 L 375.5 174 L 374 173.5 L 374.5 172 L 371.5 170 L 370 170.5 L 371 168.5 L 369.5 169 L 368 168.5 L 370 167.5 L 365.5 164 Q 367.2 166 363.5 168 L 365 165.5 L 363.5 162 L 359.5 160 L 358.5 162 L 358 160.5 Q 360.3 159.3 357.5 158 L 356 158.5 Q 356.8 154.8 354.5 154 L 342.5 151 L 338.5 148 L 334.5 148 L 329.5 144 L 325.5 147 L 326 145.5 L 326 143 L 319.5 143 L 317.5 143 L 315.5 144 L 314.5 139 L 312.5 140 L 310.5 139 L 307 140 Q 308.3 137 304.5 138 L 304.5 139 Q 307.1 138.3 306 141 Q 303.3 142.1 304 139.5 L 299.5 139 L 297.5 141 L 296.5 140 L 293.5 141 L 292 140.5 L 291 145.5 L 292 147.5 L 291 147.5 L 290 145.5 L 291 142.5 L 289 143.5 L 288.5 145 L 286.5 142 L 283.5 144 Q 282.3 141.8 281 144.5 L 284 145.5 L 280.5 147 L 279 146.5 Q 279.8 149.1 276.5 148 L 273 149.5 L 273.5 153 L 271.5 152 L 271.5 154 L 269.5 153 L 268 156 L 266 156.5 L 266.5 158 L 264 158 L 264 160 Q 261.3 158.9 262 161.5 L 262 163.5 Q 262.7 166.5 259 165 L 259 167.5 L 258 167.5 Q 258.7 164.9 256 166 L 255 168.5 L 257 169.5 L 254 170 Q 252.9 172.7 255.5 172 L 255.5 173 L 252 174 L 251 179.5 L 251 181.5 L 249.5 184 L 246.5 183 L 247 186.5 L 248 190.5 L 247 193 L 244 193.5 L 247 194.5 L 243 197.5 L 244 201 L 246.5 200 L 247 203 L 244.5 202 L 244 204.5 L 244.5 206 L 242 206.5 L 243 209 L 245 209.5 L 244.5 212 L 243 211.5 L 244 213.5 L 243 217 L 240.5 216 L 240 218 L 244 219.5 L 242 221.5 L 243 222.5 L 241 224.5 L 241 228.5 L 242 233.5 L 240 234 L 241 236.5 L 240 238.5 L 241 241.5 L 240 246.5 L 240 248.5 L 239 252.5 L 240 254.5 L 240 258.5 L 241 261.5 L 241 263.5 L 242 265.5 L 241 267.5 L 244 272.5 L 244 274.5 L 246 277.5 L 245 280.5 L 248 283.5 L 247 284.5 L 247.5 286 L 249 285.5 L 248 287.5 L 250 287.5 L 249.5 289 Q 252.5 288.1 251 292.5 L 253 296.5 L 253 298.5 L 252 301.5 L 254 300.5 Q 253.3 298.3 255.5 299 L 257 298.5 L 255.5 301 Q 257.8 300.3 257 302.5 Q 259.3 303.8 256.5 305 L 255 304.5 L 256.5 307 Q 258.8 307.8 258 305.5 L 260 306.5 Q 256.9 308.3 258.5 310 Q 253.2 302.2 244 300 L 242 295.5 L 242 286.5 L 240 278.5 L 240 267.5 L 237 256.5 L 237 238.5 L 234 225.5 L 234 198.5 L 237 186.5 L 237 179.5 L 239 173 Q 241.7 174.1 241 171.5 L 244 163 L 247 163 L 247 158 L 248.5 158 L 257.5 148 Q 262.3 147.8 264 144.5 Q 263.2 141.9 266.5 143 L 270.5 141 L 278.5 137 L 281.5 137 L 285.5 137 L 289.5 135 Z M 245 190 Q 243 193 246 192 L 245 190 Z M 241 204 L 241 206 L 243 205 L 241 204 Z "></path><path fill="rgb(0,122,236)" stroke="rgb(0,122,236)" stroke-width="1" opacity="0.996078431372549" d="M 101.5 138 L 100.5 140 L 101.5 138 Z "></path><path fill="rgb(0,122,236)" stroke="rgb(0,122,236)" stroke-width="1" opacity="0.996078431372549" d="M 120.5 140 L 121.5 142 L 120.5 140 Z "></path><path fill="rgb(0,122,236)" stroke="rgb(0,122,236)" stroke-width="1" opacity="0.996078431372549" d="M 136.5 140 Q 138.8 139.3 138 141.5 L 136.5 140 Z "></path><path fill="rgb(0,122,236)" stroke="rgb(0,122,236)" stroke-width="1" opacity="0.996078431372549" d="M 301.5 141 L 302.5 143 L 301.5 141 Z "></path><path fill="rgb(0,122,236)" stroke="rgb(0,122,236)" stroke-width="1" opacity="0.996078431372549" d="M 307.5 141 L 306.5 143 L 307.5 141 Z "></path><path fill="rgb(0,122,236)" stroke="rgb(0,122,236)" stroke-width="1" opacity="0.996078431372549" d="M 311.5 141 L 310.5 143 L 311.5 141 Z "></path><path fill="rgb(0,122,236)" stroke="rgb(0,122,236)" stroke-width="1" opacity="0.996078431372549" d="M 320.5 145 L 323 146.5 L 321.5 146 L 320.5 145 Z "></path><path fill="rgb(0,122,236)" stroke="rgb(0,122,236)" stroke-width="1" opacity="0.996078431372549" d="M 149.5 146 L 151 148.5 L 150 148.5 L 149.5 147 L 148 147.5 L 149.5 146 Z "></path><path fill="rgb(0,122,236)" stroke="rgb(0,122,236)" stroke-width="1" opacity="0.996078431372549" d="M 138.5 148 L 137.5 150 L 138.5 148 Z "></path><path fill="rgb(0,122,236)" stroke="rgb(0,122,236)" stroke-width="1" opacity="0.996078431372549" d="M 153.5 149 L 158 151.5 L 156.5 152 L 154.5 151 L 152 152 L 153.5 149 Z "></path><path fill="rgb(0,122,236)" stroke="rgb(0,122,236)" stroke-width="1" opacity="0.996078431372549" d="M 185.5 167 L 186 175.5 L 185 175.5 L 185.5 167 Z "></path><path fill="rgb(0,122,236)" stroke="rgb(0,122,236)" stroke-width="1" opacity="0.996078431372549" d="M 248 185 L 250 185.5 L 249.5 188 L 248 185 Z "></path><path fill="rgb(0,122,236)" stroke="rgb(0,122,236)" stroke-width="1" opacity="0.996078431372549" d="M 245.5 197 L 248 197.5 Q 245.9 200.8 245.5 197 Z "></path><path fill="rgb(0,122,236)" stroke="rgb(0,122,236)" stroke-width="1" opacity="0.996078431372549" d="M 186.5 260 L 187 262.5 L 186 262.5 L 186.5 260 Z "></path><path fill="rgb(0,122,236)" stroke="rgb(0,122,236)" stroke-width="1" opacity="0.996078431372549" d="M 187.5 268 L 188 270.5 L 187 270.5 L 187.5 268 Z "></path><path fill="rgb(0,122,236)" stroke="rgb(0,122,236)" stroke-width="1" opacity="0.996078431372549" d="M 184.5 293 L 183.5 295 L 184.5 293 Z "></path><path fill="rgb(0,122,236)" stroke="rgb(0,122,236)" stroke-width="1" opacity="0.996078431372549" d="M 180.5 299 L 179.5 301 L 180.5 299 Z "></path><path fill="rgb(0,122,236)" stroke="rgb(0,122,236)" stroke-width="1" opacity="0.996078431372549" d="M 177.5 303 L 176.5 305 L 177.5 303 Z "></path><path fill="rgb(0,122,236)" stroke="rgb(0,122,236)" stroke-width="1" opacity="0.996078431372549" d="M 260.5 308 L 261 310.5 L 260 310.5 L 260.5 308 Z "></path><path fill="rgb(0,122,236)" stroke="rgb(0,122,236)" stroke-width="1" opacity="0.996078431372549" d="M 172.5 309 L 168.5 314 L 172.5 309 Z "></path><path fill="rgb(0,122,236)" stroke="rgb(0,122,236)" stroke-width="1" opacity="0.996078431372549" d="M 262.5 312 Q 264.8 311.3 264 313.5 L 262.5 312 Z "></path><path fill="rgb(0,122,236)" stroke="rgb(0,122,236)" stroke-width="1" opacity="0.996078431372549" d="M 264.5 315 L 268 316.5 L 267 317.5 L 268.5 320 L 264.5 315 Z "></path><path fill="rgb(0,122,236)" stroke="rgb(0,122,236)" stroke-width="1" opacity="0.996078431372549" d="M 166.5 316 L 162.5 321 L 166.5 316 Z "></path><path fill="rgb(0,122,236)" stroke="rgb(0,122,236)" stroke-width="1" opacity="0.996078431372549" d="M 158.5 323 L 153.5 329 L 158.5 323 Z "></path><path fill="rgb(0,122,236)" stroke="rgb(0,122,236)" stroke-width="1" opacity="0.996078431372549" d="M 274.5 324 L 276 326.5 L 274 325.5 L 274.5 324 Z "></path><path fill="rgb(0,122,236)" stroke="rgb(0,122,236)" stroke-width="1" opacity="0.996078431372549" d="M 148.5 332 L 145.5 336 L 148.5 332 Z "></path><path fill="rgb(0,122,236)" stroke="rgb(0,122,236)" stroke-width="1" opacity="0.996078431372549" d="M 284.5 332 L 288 334.5 L 286.5 334 L 284.5 332 Z "></path><path fill="rgb(0,122,236)" stroke="rgb(0,122,236)" stroke-width="1" opacity="0.996078431372549" d="M 142.5 337 L 141.5 339 L 142.5 337 Z "></path><path fill="rgb(0,122,236)" stroke="rgb(0,122,236)" stroke-width="1" opacity="0.996078431372549" d="M 292.5 337 L 293.5 339 L 292.5 337 Z "></path><path fill="rgb(0,122,236)" stroke="rgb(0,122,236)" stroke-width="1" opacity="0.996078431372549" d="M 138.5 340 L 137.5 342 L 138.5 340 Z "></path><path fill="rgb(0,122,236)" stroke="rgb(0,122,236)" stroke-width="1" opacity="0.996078431372549" d="M 298.5 340 L 301 343.5 L 298 341.5 L 298.5 340 Z "></path><path fill="rgb(0,122,236)" stroke="rgb(0,122,236)" stroke-width="1" opacity="0.996078431372549" d="M 0.5 342 L 4 343.5 Q 0.5 345 3 346.5 Q 2.3 348.8 4.5 348 L 5.5 351 L 8.5 353 L 10 352.5 Q 9.3 354.8 11.5 354 L 11.5 356 L 16 357 L 16.5 359 L 17.5 357 L 19.5 362 Q 22.1 361.2 21 364.5 L 21.5 367 L 26.5 366 L 29 366.5 Q 27.8 369.3 26.5 367 L 25 367.5 L 26 370 L 30.5 368 L 30.5 369 Q 28.3 368.3 29 370.5 L 28 373 Q 30.7 374.1 30 371.5 L 31 371.5 Q 30.3 374.1 33 373 L 32 369.5 L 34 369 L 34 374 L 29.5 374 L 28.5 376 L 31.5 375 L 31 376.5 L 31.5 378 L 33 377.5 L 33.5 379 L 34.5 377 L 36 381 L 39.5 380 L 40 382 L 42 382.5 Q 39.8 383.8 42.5 385 L 44 384.5 L 43 382.5 L 47 380 Q 45.9 382.7 48.5 382 L 48.5 384 Q 53 384.5 53.5 381 L 54.5 384 L 59 382.5 L 57 382 L 56 378.5 L 59 378.5 Q 57.3 383.3 61.5 382 L 63 381.5 L 59 383.5 L 59.5 386 L 61.5 385 L 62.5 387 L 63 383 Q 65.7 384.1 65 381.5 L 66.5 382 Q 69.1 382.8 68 379.5 L 66 379.5 L 67.5 376 L 68 379 L 70 378.5 L 69.5 377 L 71.5 378 L 74 376.5 Q 74.8 378.8 72.5 378 L 72.5 379 Q 76.3 378 75 381 Q 71.6 381.8 70.5 379 L 69.5 381 L 73.5 383 L 76 382 L 78 375.5 L 77.5 374 L 79.5 374 L 82 373.5 L 79 372.5 L 83 372 L 83.5 370 L 88.5 374 L 87 371.5 L 86 369.5 L 88.5 366 L 92.5 367 L 95.5 366 L 106.5 366 L 107 367.5 L 105 371 L 102 372.5 L 97.5 378 Q 95.3 377.3 96 379.5 L 88.5 385 L 71.5 392 L 63.5 394 L 45.5 394 L 32.5 390 L 20 380.5 L 15.5 375 L 13 373.5 Q 12.4 365.6 8 361.5 L 8 356.5 L 0 346.5 L 0.5 342 Z M 90 367 L 88 369 L 91 369 Q 92 366 90 367 Z M 93 368 L 91 370 L 93 371 L 93 368 Z M 23 369 L 25 373 L 27 372 L 27 371 Q 24 372 25 369 L 23 369 Z M 84 372 L 85 374 Q 86 371 84 372 Z M 80 375 L 78 377 L 80 377 L 80 375 Z M 36 381 L 35 383 L 38 383 L 36 381 Z M 46 381 L 44 384 L 47 385 L 46 381 Z M 70 383 L 71 385 Q 72 382 70 383 Z "></path><path fill="rgb(0,122,236)" stroke="rgb(0,122,236)" stroke-width="1" opacity="0.996078431372549" d="M 134.5 343 L 132.5 346 L 134.5 343 Z "></path><path fill="rgb(0,122,236)" stroke="rgb(0,122,236)" stroke-width="1" opacity="0.996078431372549" d="M 304.5 346 L 311.5 354 L 304.5 346 Z "></path><path fill="rgb(0,122,236)" stroke="rgb(0,122,236)" stroke-width="1" opacity="0.996078431372549" d="M 129.5 347 L 128.5 349 L 129.5 347 Z "></path><path fill="rgb(0,122,236)" stroke="rgb(0,122,236)" stroke-width="1" opacity="0.996078431372549" d="M 351.5 349 L 354 349.5 L 346.5 352 L 346.5 351 L 351.5 349 Z "></path><path fill="rgb(0,122,236)" stroke="rgb(0,122,236)" stroke-width="1" opacity="0.996078431372549" d="M 125.5 350 L 124.5 352 L 125.5 350 Z "></path><path fill="rgb(0,122,236)" stroke="rgb(0,122,236)" stroke-width="1" opacity="0.996078431372549" d="M 320.5 354 L 319.5 356 L 318 355.5 L 320.5 354 Z "></path><path fill="rgb(0,122,236)" stroke="rgb(0,122,236)" stroke-width="1" opacity="0.996078431372549" d="M 119.5 355 L 109.5 366 L 119.5 355 Z "></path><path fill="rgb(0,122,236)" stroke="rgb(0,122,236)" stroke-width="1" opacity="0.996078431372549" d="M 313.5 355 L 314.5 357 L 313.5 355 Z "></path><path fill="rgb(0,122,236)" stroke="rgb(0,122,236)" stroke-width="1" opacity="0.996078431372549" d="M 78.5 366 L 77.5 368 L 78.5 366 Z "></path><path fill="rgb(0,122,236)" stroke="rgb(0,122,236)" stroke-width="1" opacity="0.996078431372549" d="M 62.5 372 L 62 373.5 L 61.5 375 L 61 373.5 L 62.5 372 Z "></path><path fill="rgb(0,122,236)" stroke="rgb(0,122,236)" stroke-width="1" opacity="0.996078431372549" d="M 66.5 373 L 65.5 375 L 66.5 373 Z "></path><path fill="rgb(0,122,236)" stroke="rgb(0,122,236)" stroke-width="1" opacity="0.996078431372549" d="M 51.5 375 L 54 378.5 L 51 376.5 L 51.5 375 Z "></path><path fill="rgb(0,122,236)" stroke="rgb(0,122,236)" stroke-width="1" opacity="0.996078431372549" d="M 40.5 378 Q 42.8 377.3 42 379.5 L 40.5 378 Z "></path><path fill="rgb(0,122,236)" stroke="rgb(0,122,236)" stroke-width="1" opacity="0.996078431372549" d="M 44.5 378 L 43.5 380 L 44.5 378 Z "></path><path fill="rgb(0,122,236)" stroke="rgb(0,122,236)" stroke-width="1" opacity="0.996078431372549" d="M 50.5 378 L 51.5 380 L 49 379.5 L 50.5 378 Z "></path><path fill="rgb(0,112,239)" stroke="rgb(0,112,239)" stroke-width="1" opacity="0.21176470588235294" d="M 91.5 113 L 94.5 114 L 96.5 114 Q 120.8 112.7 136.5 120 L 167.5 138 L 176 146.5 L 180.5 154 L 187 154 L 187 165.5 L 190 172.5 L 190 189.5 L 188 194.5 L 188 249.5 L 188 251.5 L 189 254.5 L 188 259.5 L 189 260.5 L 190 280.5 L 191 281.5 L 189.5 287 L 189 270.5 L 187 261.5 L 187 187.5 L 188 186.5 L 188 175.5 Q 184.4 167.4 186 155 Q 178.9 156.7 177 152.5 L 166.5 140 L 142.5 125 L 128.5 119 L 114.5 116 L 87.5 115 L 86.5 116 L 72.5 116 L 50.5 121 L 44.5 121 L 28.5 129 L 7.5 135 L 0.5 139 L 0 136 L 9.5 132 L 23.5 129 Q 29.7 121.7 39.5 118 L 48.5 116 L 55.5 116 L 58.5 117 L 64.5 115 L 90.5 114 L 91.5 113 Z "></path><path fill="rgb(0,112,239)" stroke="rgb(0,112,239)" stroke-width="1" opacity="0.21176470588235294" d="M 291.5 128 L 292.5 129 L 302.5 129 L 319.5 135 L 334.5 138 Q 336.4 141.6 341 141 Q 339.6 144.7 345.5 143 L 349.5 145 Q 357.9 144.1 362.5 147 Q 371.3 150.7 377 157.5 L 384 170.5 L 386 180.5 L 386 187.5 L 387 188.5 L 387 210.5 L 388 211.5 L 387 214.5 L 387 216.5 L 388 218.5 L 387 221.5 L 387 223.5 Q 385.7 228.2 388 229.5 L 387 230.5 L 387 243.5 L 388 244.5 L 388 278.5 L 386 288.5 L 386 290.5 L 384 308.5 L 381 320.5 L 381 327.5 L 376 339.5 L 371 346 L 362.5 352 L 353.5 356 L 337.5 357 Q 330.3 362.3 317.5 362 L 298.5 344 L 273.5 328 L 266 320.5 L 255.5 309 L 238 298.5 L 237 286.5 L 236 285.5 L 236 276.5 L 235 275.5 L 235 261.5 L 236 257.5 L 234 254.5 L 232 245.5 L 232 178.5 L 239 158.5 Q 245.3 147.8 254.5 140 L 263.5 134 Q 270 133.5 273.5 130 Q 280.2 127.7 290.5 129 L 291.5 128 Z M 285 130 L 271 133 L 259 140 Q 256 139 257 142 L 254 143 L 252 146 L 249 148 L 237 168 L 237 172 L 233 182 L 233 242 L 237 255 L 237 286 L 240 299 L 253 305 L 276 328 L 302 345 L 318 361 L 329 360 L 343 354 Q 355 354 363 349 Q 374 340 379 325 L 385 291 L 386 264 L 387 261 L 386 260 L 386 207 L 385 206 L 385 188 L 384 187 L 383 175 L 377 162 Q 371 153 362 149 Q 357 146 349 147 L 329 138 L 324 138 L 317 136 L 312 133 L 307 133 L 297 130 L 285 130 Z "></path><path fill="rgb(0,112,239)" stroke="rgb(0,112,239)" stroke-width="1" opacity="0.21176470588235294" d="M 188 288 L 190 288.5 Q 177 311.5 157.5 328 L 116 361 Q 110.8 375.4 99.5 385 L 84.5 394 L 74.5 397 Q 69.8 395.8 68.5 398 L 34.5 398 Q 16.4 393.6 7 380.5 L 0 365.5 L 0 349.5 L 1 349.5 L 2 351.5 Q -0.3 352.8 1 357.5 L 3 367.5 L 6 374.5 L 16.5 387 L 32.5 395 L 52.5 397 L 53.5 396 L 68.5 396 L 81.5 393 Q 95.8 387.3 105 376.5 L 113 363.5 L 122.5 354 Q 146.8 337.8 167 317.5 L 186 293.5 L 188 288 Z "></path><path fill="rgb(0,122,236)" stroke="rgb(0,122,236)" stroke-width="1" opacity="1" d="M 89.5 123 L 90 124.5 L 89.5 126 L 92.5 127 L 91.5 124 Q 93.8 123.3 93 125.5 L 94 125.5 L 95.5 123 L 98 124.5 L 96.5 124 L 95 124.5 L 96.5 127 L 98 126.5 Q 94.3 128.3 97.5 130 L 100 124.5 L 99.5 123 L 102 124 L 102.5 126 L 104.5 125 L 106.5 126 L 108.5 125 L 110.5 126 L 112 125.5 Q 111.3 128.1 114 127 L 114 129.5 L 115.5 129 L 118.5 128 L 120.5 130 Q 122.3 126.2 124 129.5 L 121 133.5 L 124.5 134 L 124 132.5 L 125.5 130 L 129.5 132 L 133 131.5 L 132.5 133 L 134.5 132 Q 136 135.5 137.5 133 L 142.5 137 L 144 136.5 L 143.5 138 L 146 139.5 L 144 140 L 144.5 142 L 147 141.5 Q 145.5 137.1 148.5 138 L 148 139.5 L 149 143.5 L 148.5 145 Q 151.5 145.9 150 141.5 L 151 141.5 L 152 143.5 L 151 145.5 L 153 145.5 Q 152.1 148.5 156.5 147 L 158 146.5 L 157 149 Q 159.7 147.9 159 150.5 L 161.5 149 L 163 150.5 L 160 151.5 Q 159.1 154.9 164.5 153 L 177.5 156 L 185 156 L 185 175.5 L 186 176.5 L 186 262.5 L 188 271.5 L 188 286.5 Q 176.9 307.9 159.5 323 L 119.5 355 L 108.5 366 L 95.5 366 L 94.5 367 L 92.5 367 Q 90.3 366.3 91 368.5 L 93 368.5 L 92.5 371 L 88.5 369 L 87 371.5 L 89 371.5 L 88.5 374 L 85.5 372 L 84.5 374 Q 83.7 371.2 79.5 372 L 79.5 373 L 82 373.5 L 79 374.5 L 80 377 L 77.5 376 L 76 382 L 72.5 383 L 69 380.5 L 69.5 379 Q 66.9 378.2 68 381.5 L 71 383 L 70.5 385 L 65.5 381 L 65 383 Q 61.7 381.7 63 386.5 L 62 386.5 L 61.5 385 L 59.5 386 L 53.5 383 L 52.5 386 L 48 383.5 L 48.5 382 Q 45.9 381.2 47 384.5 L 50 386.5 L 47.5 388 L 46.5 385 L 44.5 384 L 42.5 385 L 41.5 382 L 39.5 383 L 40 381.5 L 39.5 380 L 36 381.5 L 38 382.5 L 35 383 L 36 378.5 L 34 377.5 L 35 379.5 L 32 379.5 L 33 377.5 L 31 378.5 L 30.5 380 L 30 378.5 L 32 375.5 L 30.5 375 L 28.5 376 L 29.5 374 L 34 374 L 34 369 L 32 369.5 L 33 373 Q 30.3 374.1 31 371.5 L 30 371.5 Q 30.8 373.8 28.5 373 L 27 373.5 L 29 369.5 L 27.5 370 Q 25.3 370.8 26 368.5 L 25.5 367 L 27 366.5 L 23.5 366 L 21.5 367 L 21 364.5 Q 22.1 361.2 19.5 362 L 17.5 357 L 16.5 359 L 16 357 L 11 355.5 L 11.5 354 Q 9.3 354.8 10 352.5 Q 8.3 354.1 6.5 351 L 4 349.5 L 4.5 348 Q 2.3 348.8 3 346.5 L 1 344.5 L 2 343.5 L 0 341.5 L 0 337.5 L 0 145.5 L 1.5 144 L 6.5 142 L 17.5 142 L 19 142.5 L 20.5 140 L 22.5 141 L 22.5 139 L 24 138.5 L 23.5 137 Q 25 139.5 26.5 136 L 44.5 129 L 46.5 130 L 46.5 128 L 48.5 128 L 51.5 126 L 52.5 129 Q 55.5 129.9 54 125.5 L 57 125.5 L 57.5 127 L 62 124 L 62.5 127 Q 63.2 124.3 67.5 125 L 70 125.5 L 70.5 127 L 71.5 125 L 74 126.5 L 75.5 124 L 76.5 127 L 80 126 L 80.5 124 L 82.5 127 L 86.5 124 L 86 125.5 L 86.5 127 L 89.5 123 Z M 104 126 L 104 129 Q 107 128 104 126 Z M 108 126 L 109 128 Q 110 125 108 126 Z M 90 127 L 89 129 L 91 128 L 90 127 Z M 78 128 L 79 130 Q 80 127 78 128 Z M 110 128 L 111 130 L 112 130 L 110 128 Z M 118 129 L 116 131 Q 115 133 118 132 L 118 129 Z M 89 130 L 88 134 L 90 134 L 89 130 Z M 91 131 L 93 134 L 93 133 L 91 131 Z M 112 131 L 110 133 L 112 133 L 112 131 Z M 83 132 Q 81 135 84 134 L 83 132 Z M 119 132 L 119 135 Q 122 134 119 132 Z M 129 133 L 126 135 L 128 135 L 127 137 L 128 138 L 129 136 Q 131 134 129 133 Z M 135 134 L 133 136 L 135 137 L 135 134 Z M 137 134 L 137 136 L 140 136 L 137 134 Z M 137 136 L 135 138 L 137 138 L 137 136 Z M 141 136 Q 139 139 142 138 L 141 136 Z M 143 138 L 141 139 L 140 141 L 144 140 L 143 138 Z M 137 140 L 138 142 Q 139 139 137 140 Z M 153 150 Q 151 153 154 152 L 153 150 Z M 89 366 L 87 368 L 88 369 L 91 367 L 89 366 Z M 84 370 Q 82 373 85 372 L 84 370 Z M 68 376 L 67 379 L 68 379 L 68 376 Z M 74 376 L 72 378 L 74 378 L 74 376 Z M 41 378 L 42 380 Q 43 377 41 378 Z M 59 378 L 57 380 Q 56 383 59 382 L 59 378 Z M 71 378 L 73 381 Q 76 382 75 379 L 71 378 Z M 46 380 L 47 382 Q 48 379 46 380 Z M 60 382 L 60 383 L 62 383 L 60 382 Z "></path><path fill="rgb(0,122,236)" stroke="rgb(0,122,236)" stroke-width="1" opacity="1" d="M 302.5 138 L 304.5 138 L 307 138 Q 305.8 141 309.5 140 L 309.5 139 L 308 138.5 L 309.5 138 L 313.5 140 L 315 139.5 L 315.5 144 L 318.5 142 L 319.5 143 L 326 143 Q 324.5 146.8 327.5 146 Q 330 141.5 332.5 147 L 338.5 148 L 342.5 151 L 352.5 153 L 356 155.5 L 356.5 159 L 357.5 158 L 360.5 161 L 368.5 166 L 370 165.5 Q 367.5 167 371 168.5 L 371 170 L 373 170 Q 371.9 172.7 374.5 172 L 374.5 174 L 377 175.5 L 378 182 L 381 183.5 L 380 186.5 L 381 189.5 L 380.5 191 Q 383.9 190.1 382 195.5 L 382 197.5 L 381 200.5 L 382 201.5 L 382 210.5 Q 379.5 212 383 213.5 L 382 216.5 L 384 217.5 L 383 220.5 L 384 223.5 L 384 225.5 L 383 227.5 L 383 231.5 L 384 236 L 382 236.5 L 384 237.5 L 383 239.5 L 383 243.5 L 384 246.5 L 382 250.5 L 384 252.5 L 383 254.5 L 383 258.5 L 382 261.5 L 383 264.5 L 381 269.5 L 382 273.5 L 382 275.5 L 381 282.5 L 379.5 284 L 378 284.5 L 381 285.5 L 379 289.5 L 380 291.5 L 378 296.5 L 378 298.5 L 377 301.5 L 377.5 303 Q 374.8 302.4 376 308.5 L 374 312.5 L 373 318.5 L 371 320.5 L 371.5 322 L 370 322.5 L 370 324.5 Q 370.8 326.8 368.5 326 L 368 328.5 L 366.5 331 L 367 329.5 L 366.5 327 L 364 328.5 L 365 332 L 362 333.5 L 360.5 336 Q 358.3 335.3 359 337.5 L 358 337.5 L 357.5 336 L 356 337.5 L 356 347.5 L 354.5 349 L 348.5 350 L 343.5 353 L 337.5 354 L 323.5 360 L 318.5 360 L 315 357.5 L 313.5 355 Q 311.3 355.8 312 353.5 L 299 341.5 L 298.5 340 L 296.5 340 L 275 325.5 L 274.5 324 L 273.5 325 L 269 320.5 L 267 317.5 Q 269.3 316.3 266.5 315 Q 262.3 316.1 264 312 L 261 312 L 261 308.5 L 260 308.5 L 259.5 310 L 258 308.5 Q 261.8 306.8 258.5 305 L 258 307 L 255 305.5 L 256 303.5 L 255.5 302 L 257 302.5 Q 257.8 300.3 255.5 301 L 255.5 299 Q 253.3 298.3 254 300.5 L 252 301.5 L 253 298.5 L 253 296.5 L 251 289 L 248 287.5 L 247 284.5 L 248 283.5 L 245 280.5 L 246 277.5 L 242 272.5 L 242 270.5 L 241 266.5 L 241 264.5 L 240 262.5 L 240 260.5 L 239 257.5 L 240 254.5 L 239 251.5 L 241 247.5 L 239 242.5 L 241 242.5 L 240 240.5 L 240 238.5 L 241 236.5 L 240 234 L 242 233.5 L 241 228.5 L 241 224.5 L 243 222.5 L 241.5 220 Q 242.8 222.3 244 219.5 L 240 218 L 243 211.5 L 242 209.5 L 243 207.5 L 241 204 L 243 204.5 L 242.5 206 L 245 205.5 L 244 202.5 L 245.5 203 Q 248.1 203.8 247 200.5 L 245.5 201 Q 243.3 201.8 244 199.5 L 243 199.5 L 241.5 202 L 240 201.5 L 242 201 L 245.5 195 L 247 194.5 L 244.5 194 L 243 194.5 L 247 193 L 246.5 191 L 244 192 L 244.5 190 L 248 190.5 L 246 185.5 L 246.5 183 L 249.5 184 L 252 180.5 L 250 177.5 L 251 177.5 L 251.5 179 L 252 174 L 254 173.5 L 254 171.5 Q 253.2 168.9 256.5 170 L 256.5 169 L 254 167.5 L 256 167.5 Q 255.3 164.9 258 166 L 258.5 168 L 259 165 Q 262.7 166.5 262 163.5 L 260 163.5 L 262 160 Q 265 161 264 158 L 266.5 158 L 266.5 156 Q 268.8 156.8 268 154.5 L 271 152.5 L 270.5 151 L 272.5 152 L 273.5 149 L 276 148.5 L 275.5 147 L 279 148 L 279.5 146 L 281.5 146 L 284 145.5 L 281 144.5 Q 282.3 141.8 283.5 144 L 286.5 142 L 288.5 145 L 290 142.5 L 289.5 141 L 291.5 145 L 292.5 140 L 294.5 141 L 297.5 139 L 300.5 140 L 302.5 138 Z M 304 139 Q 303 142 306 141 Q 307 138 304 139 Z M 248 185 L 248 187 L 250 186 L 248 185 Z M 246 197 Q 246 201 248 198 L 246 197 Z M 243 209 L 243 211 L 245 210 L 243 209 Z M 243 214 L 241 217 L 243 217 L 243 214 Z "></path><path fill="rgb(0,122,236)" stroke="rgb(0,122,236)" stroke-width="1" opacity="1" d="M 248.5 179 L 249.5 181 L 247 180.5 L 248.5 179 Z "></path><path fill="rgb(0,122,236)" stroke="rgb(0,122,236)" stroke-width="1" opacity="1" d="M 18.5 363 L 20 365.5 L 18 364.5 L 18.5 363 Z "></path><path fill="rgb(0,122,236)" stroke="rgb(0,122,236)" stroke-width="1" opacity="1" d="M 23 369 L 25 369 Q 23.9 371.7 26.5 371 L 26.5 372 L 24.5 373 L 23 369 Z "></path><path fill="rgb(0,122,236)" stroke="rgb(0,122,236)" stroke-width="1" opacity="1" d="M 86.5 375 L 88 375.5 L 85.5 377 L 86.5 375 Z "></path><path fill="rgb(0,122,236)" stroke="rgb(0,122,236)" stroke-width="1" opacity="1" d="M 82.5 377 L 83.5 379 L 82.5 377 Z "></path><path fill="rgb(0,122,236)" stroke="rgb(0,122,236)" stroke-width="1" opacity="1" d="M 40.5 385 L 41.5 387 L 40.5 385 Z "></path><path fill="rgb(0,122,236)" stroke="rgb(0,122,236)" stroke-width="1" opacity="1" d="M 55.5 385 L 56.5 387 L 55.5 385 Z "></path></svg>