<svg width="400" height="400" version="1.1" xmlns="http://www.w3.org/2000/svg" desc="Created with imagetracer.js version 1.2.5"><path fill="rgb(0,0,0)" stroke="rgb(0,0,0)" stroke-width="1" opacity="0" d="M 0 0 L 400 0 L 400 400 L 306.5 400 L 306 398.5 L 301 383.5 L 299 372.5 L 294 357.5 L 292 346.5 L 270 268.5 L 268 257.5 L 263 242.5 L 261 231.5 L 256 216.5 L 254 205.5 L 249 190.5 L 247 179.5 L 232 127.5 L 203 16 L 199.5 15 L 196 17.5 L 98 400 L 0.5 400 L 0 399.5 L 0 0 Z "></path><path fill="rgb(237,18,226)" stroke="rgb(237,18,226)" stroke-width="1" opacity="0.9490196078431372" d="M 196.5 19 L 197 20.5 L 195.5 23 L 195 20.5 L 196.5 19 Z "></path><path fill="rgb(237,18,226)" stroke="rgb(237,18,226)" stroke-width="1" opacity="0.9490196078431372" d="M 195.5 127 L 200 127.5 Q 194.5 127 193 130.5 Q 194.1 138.1 189.5 140 L 191 137.5 L 193 128 L 195.5 127 Z "></path><path fill="rgb(237,18,226)" stroke="rgb(237,18,226)" stroke-width="1" opacity="0.9490196078431372" d="M 204.5 128 L 213 135.5 L 205.5 129 L 204.5 128 Z "></path><path fill="rgb(237,18,226)" stroke="rgb(237,18,226)" stroke-width="1" opacity="0.9490196078431372" d="M 213.5 137 L 218.5 143 L 213.5 137 Z "></path><path fill="rgb(237,18,226)" stroke="rgb(237,18,226)" stroke-width="1" opacity="0.9490196078431372" d="M 188.5 141 L 186.5 144 L 188.5 141 Z "></path><path fill="rgb(237,18,226)" stroke="rgb(237,18,226)" stroke-width="1" opacity="0.9490196078431372" d="M 219.5 144 L 224.5 150 L 219.5 144 Z "></path><path fill="rgb(237,18,226)" stroke="rgb(237,18,226)" stroke-width="1" opacity="0.9490196078431372" d="M 185.5 145 L 184.5 147 L 185.5 145 Z "></path><path fill="rgb(237,18,226)" stroke="rgb(237,18,226)" stroke-width="1" opacity="0.9490196078431372" d="M 182.5 149 L 181.5 151 L 182.5 149 Z "></path><path fill="rgb(237,18,226)" stroke="rgb(237,18,226)" stroke-width="1" opacity="0.9490196078431372" d="M 225.5 151 L 230.5 157 L 225.5 151 Z "></path><path fill="rgb(237,18,226)" stroke="rgb(237,18,226)" stroke-width="1" opacity="0.9490196078431372" d="M 179.5 153 L 178.5 155 L 179.5 153 Z "></path><path fill="rgb(237,18,226)" stroke="rgb(237,18,226)" stroke-width="1" opacity="0.9490196078431372" d="M 177.5 156 L 175.5 159 L 177.5 156 Z "></path><path fill="rgb(237,18,226)" stroke="rgb(237,18,226)" stroke-width="1" opacity="0.9490196078431372" d="M 231.5 158 L 236.5 164 L 231.5 158 Z "></path><path fill="rgb(237,18,226)" stroke="rgb(237,18,226)" stroke-width="1" opacity="0.9490196078431372" d="M 173.5 161 L 171.5 164 L 173.5 161 Z "></path><path fill="rgb(237,18,226)" stroke="rgb(237,18,226)" stroke-width="1" opacity="0.9490196078431372" d="M 170.5 165 L 166.5 170 L 170.5 165 Z "></path><path fill="rgb(237,18,226)" stroke="rgb(237,18,226)" stroke-width="1" opacity="0.9490196078431372" d="M 237.5 165 L 242.5 171 L 237.5 165 Z "></path><path fill="rgb(237,18,226)" stroke="rgb(237,18,226)" stroke-width="1" opacity="0.9490196078431372" d="M 162.5 174 L 161.5 176 L 162.5 174 Z "></path><path fill="rgb(237,18,226)" stroke="rgb(237,18,226)" stroke-width="1" opacity="0.9490196078431372" d="M 160.5 177 L 158.5 180 L 160.5 177 Z "></path><path fill="rgb(237,18,226)" stroke="rgb(237,18,226)" stroke-width="1" opacity="0.9490196078431372" d="M 157.5 181 L 154.5 185 L 157.5 181 Z "></path><path fill="rgb(237,18,226)" stroke="rgb(237,18,226)" stroke-width="1" opacity="0.9490196078431372" d="M 153.5 186 L 152.5 188 L 153.5 186 Z "></path><path fill="rgb(255,0,251)" stroke="rgb(255,0,251)" stroke-width="1" opacity="0.996078431372549" d="M 199.5 15 L 203 16 L 202 18.5 L 204 19 L 204 23.5 L 209 38.5 L 211 49.5 L 216 64.5 L 244 171.5 L 243 171.5 L 205.5 128 L 195.5 127 L 193 128 L 191 137.5 L 164.5 172 Q 162.3 171.3 163 173.5 L 152.5 187 L 153 185.5 L 194 23 Q 196.7 24.1 196 21.5 L 197 19.5 L 196 17.5 L 199.5 15 Z "></path><path fill="rgb(1,253,162)" stroke="rgb(1,253,162)" stroke-width="1" opacity="0.5450980392156862" d="M 245.5 176 L 248 185.5 L 247 185.5 L 245.5 176 Z "></path><path fill="rgb(1,253,162)" stroke="rgb(1,253,162)" stroke-width="1" opacity="0.5450980392156862" d="M 248.5 187 L 249 189.5 L 248 189.5 L 248.5 187 Z "></path><path fill="rgb(1,253,162)" stroke="rgb(1,253,162)" stroke-width="1" opacity="0.5450980392156862" d="M 152.5 188 L 153 189.5 L 150.5 197 L 150 194.5 L 152.5 188 Z "></path><path fill="rgb(1,253,162)" stroke="rgb(1,253,162)" stroke-width="1" opacity="0.5450980392156862" d="M 249.5 191 L 252 200.5 L 251 200.5 L 249.5 191 Z "></path><path fill="rgb(1,253,162)" stroke="rgb(1,253,162)" stroke-width="1" opacity="0.5450980392156862" d="M 149.5 198 L 150 200.5 L 149 200.5 L 149.5 198 Z "></path><path fill="rgb(1,253,162)" stroke="rgb(1,253,162)" stroke-width="1" opacity="0.5450980392156862" d="M 148.5 202 L 149 204.5 L 148 204.5 L 148.5 202 Z "></path><path fill="rgb(1,253,162)" stroke="rgb(1,253,162)" stroke-width="1" opacity="0.5450980392156862" d="M 252.5 202 L 255 211.5 L 254 211.5 L 252.5 202 Z "></path><path fill="rgb(1,253,162)" stroke="rgb(1,253,162)" stroke-width="1" opacity="0.5450980392156862" d="M 147.5 206 L 148 208.5 L 147 208.5 L 147.5 206 Z "></path><path fill="rgb(1,253,162)" stroke="rgb(1,253,162)" stroke-width="1" opacity="0.5450980392156862" d="M 146.5 210 L 147 212.5 L 146 212.5 L 146.5 210 Z "></path><path fill="rgb(1,253,162)" stroke="rgb(1,253,162)" stroke-width="1" opacity="0.5450980392156862" d="M 255.5 213 L 256 215.5 L 255 215.5 L 255.5 213 Z "></path><path fill="rgb(1,253,162)" stroke="rgb(1,253,162)" stroke-width="1" opacity="0.5450980392156862" d="M 145.5 214 L 146 216.5 L 141.5 232 L 141 229.5 L 145.5 214 Z "></path><path fill="rgb(1,253,162)" stroke="rgb(1,253,162)" stroke-width="1" opacity="0.5450980392156862" d="M 256.5 217 L 258 222.5 L 257 222.5 L 256.5 217 Z "></path><path fill="rgb(1,253,162)" stroke="rgb(1,253,162)" stroke-width="1" opacity="0.5450980392156862" d="M 258.5 224 L 259 226.5 L 258 226.5 L 258.5 224 Z "></path><path fill="rgb(1,253,162)" stroke="rgb(1,253,162)" stroke-width="1" opacity="0.5450980392156862" d="M 259.5 228 L 262 237.5 L 261 237.5 L 259.5 228 Z "></path><path fill="rgb(1,253,162)" stroke="rgb(1,253,162)" stroke-width="1" opacity="0.5450980392156862" d="M 140.5 233 L 141 235.5 L 140 235.5 L 140.5 233 Z "></path><path fill="rgb(1,253,162)" stroke="rgb(1,253,162)" stroke-width="1" opacity="0.5450980392156862" d="M 139.5 237 L 140 239.5 L 139 239.5 L 139.5 237 Z "></path><path fill="rgb(1,253,162)" stroke="rgb(1,253,162)" stroke-width="1" opacity="0.5450980392156862" d="M 262.5 239 L 263 241.5 L 262 241.5 L 262.5 239 Z "></path><path fill="rgb(1,253,162)" stroke="rgb(1,253,162)" stroke-width="1" opacity="0.5450980392156862" d="M 138.5 241 L 139 243.5 L 138 243.5 L 138.5 241 Z "></path><path fill="rgb(1,253,162)" stroke="rgb(1,253,162)" stroke-width="1" opacity="0.5450980392156862" d="M 263.5 243 L 265 248.5 L 264 248.5 L 263.5 243 Z "></path><path fill="rgb(1,253,162)" stroke="rgb(1,253,162)" stroke-width="1" opacity="0.5450980392156862" d="M 137.5 245 L 138 247.5 L 132.5 267 L 132 264.5 L 137.5 245 Z "></path><path fill="rgb(1,253,162)" stroke="rgb(1,253,162)" stroke-width="1" opacity="0.5450980392156862" d="M 265.5 250 L 266 252.5 L 265 252.5 L 265.5 250 Z "></path><path fill="rgb(1,253,162)" stroke="rgb(1,253,162)" stroke-width="1" opacity="0.5450980392156862" d="M 266.5 254 L 269 263.5 L 268 263.5 L 266.5 254 Z "></path><path fill="rgb(1,253,162)" stroke="rgb(1,253,162)" stroke-width="1" opacity="0.5450980392156862" d="M 269.5 265 L 270 267.5 L 269 267.5 L 269.5 265 Z "></path><path fill="rgb(1,253,162)" stroke="rgb(1,253,162)" stroke-width="1" opacity="0.5450980392156862" d="M 131.5 268 L 132 270.5 L 131 270.5 L 131.5 268 Z "></path><path fill="rgb(1,253,162)" stroke="rgb(1,253,162)" stroke-width="1" opacity="0.5450980392156862" d="M 270.5 269 L 272 274.5 L 271 274.5 L 270.5 269 Z "></path><path fill="rgb(1,253,162)" stroke="rgb(1,253,162)" stroke-width="1" opacity="0.5450980392156862" d="M 130.5 272 L 131 274.5 L 130 274.5 L 130.5 272 Z "></path><path fill="rgb(1,253,162)" stroke="rgb(1,253,162)" stroke-width="1" opacity="0.5450980392156862" d="M 129.5 276 L 130 278.5 L 129 278.5 L 129.5 276 Z "></path><path fill="rgb(1,253,162)" stroke="rgb(1,253,162)" stroke-width="1" opacity="0.5450980392156862" d="M 272.5 276 L 273 278.5 L 272 278.5 L 272.5 276 Z "></path><path fill="rgb(1,253,162)" stroke="rgb(1,253,162)" stroke-width="1" opacity="0.5450980392156862" d="M 128.5 280 L 129 282.5 L 124.5 298 L 124 295.5 L 128.5 280 Z "></path><path fill="rgb(1,253,162)" stroke="rgb(1,253,162)" stroke-width="1" opacity="0.5450980392156862" d="M 273.5 280 L 276 289.5 L 275 289.5 L 273.5 280 Z "></path><path fill="rgb(1,253,162)" stroke="rgb(1,253,162)" stroke-width="1" opacity="0.5450980392156862" d="M 276.5 291 L 279 300.5 L 278 300.5 L 276.5 291 Z "></path><path fill="rgb(1,253,162)" stroke="rgb(1,253,162)" stroke-width="1" opacity="0.5450980392156862" d="M 123.5 299 L 124 301.5 L 123 301.5 L 123.5 299 Z "></path><path fill="rgb(1,253,162)" stroke="rgb(1,253,162)" stroke-width="1" opacity="0.5450980392156862" d="M 279.5 302 L 280 304.5 L 279 304.5 L 279.5 302 Z "></path><path fill="rgb(1,253,162)" stroke="rgb(1,253,162)" stroke-width="1" opacity="0.5450980392156862" d="M 122.5 303 L 123 305.5 L 122 305.5 L 122.5 303 Z "></path><path fill="rgb(1,253,162)" stroke="rgb(1,253,162)" stroke-width="1" opacity="0.5450980392156862" d="M 280.5 306 L 283 315.5 L 282 315.5 L 280.5 306 Z "></path><path fill="rgb(1,253,162)" stroke="rgb(1,253,162)" stroke-width="1" opacity="0.5450980392156862" d="M 121.5 307 L 122 309.5 L 121 309.5 L 121.5 307 Z "></path><path fill="rgb(1,253,162)" stroke="rgb(1,253,162)" stroke-width="1" opacity="0.5450980392156862" d="M 120.5 311 L 121 313.5 L 116.5 329 L 116 326.5 L 120.5 311 Z "></path><path fill="rgb(1,253,162)" stroke="rgb(1,253,162)" stroke-width="1" opacity="0.5450980392156862" d="M 283.5 317 L 286 326.5 L 285 326.5 L 283.5 317 Z "></path><path fill="rgb(1,253,162)" stroke="rgb(1,253,162)" stroke-width="1" opacity="0.5450980392156862" d="M 286.5 328 L 287 330.5 L 286 330.5 L 286.5 328 Z "></path><path fill="rgb(1,253,162)" stroke="rgb(1,253,162)" stroke-width="1" opacity="0.5450980392156862" d="M 115.5 330 L 116 332.5 L 115 332.5 L 115.5 330 Z "></path><path fill="rgb(1,253,162)" stroke="rgb(1,253,162)" stroke-width="1" opacity="0.5450980392156862" d="M 287.5 332 L 289 337.5 L 288 337.5 L 287.5 332 Z "></path><path fill="rgb(1,253,162)" stroke="rgb(1,253,162)" stroke-width="1" opacity="0.5450980392156862" d="M 114.5 334 L 115 336.5 L 114 336.5 L 114.5 334 Z "></path><path fill="rgb(1,253,162)" stroke="rgb(1,253,162)" stroke-width="1" opacity="0.5450980392156862" d="M 113.5 338 L 114 340.5 L 113 340.5 L 113.5 338 Z "></path><path fill="rgb(1,253,162)" stroke="rgb(1,253,162)" stroke-width="1" opacity="0.5450980392156862" d="M 289.5 339 L 290 341.5 L 289 341.5 L 289.5 339 Z "></path><path fill="rgb(1,253,162)" stroke="rgb(1,253,162)" stroke-width="1" opacity="0.5450980392156862" d="M 112.5 342 L 113 344.5 L 112 344.5 L 112.5 342 Z "></path><path fill="rgb(1,253,162)" stroke="rgb(1,253,162)" stroke-width="1" opacity="0.5450980392156862" d="M 290.5 343 L 293 352.5 L 292 352.5 L 290.5 343 Z "></path><path fill="rgb(1,253,162)" stroke="rgb(1,253,162)" stroke-width="1" opacity="0.5450980392156862" d="M 111.5 346 L 112 348.5 L 107.5 364 L 107 361.5 L 111.5 346 Z "></path><path fill="rgb(1,253,162)" stroke="rgb(1,253,162)" stroke-width="1" opacity="0.5450980392156862" d="M 293.5 354 L 294 356.5 L 293 356.5 L 293.5 354 Z "></path><path fill="rgb(1,253,162)" stroke="rgb(1,253,162)" stroke-width="1" opacity="0.5450980392156862" d="M 294.5 358 L 296 363.5 L 295 363.5 L 294.5 358 Z "></path><path fill="rgb(1,253,162)" stroke="rgb(1,253,162)" stroke-width="1" opacity="0.5450980392156862" d="M 106.5 365 L 107 367.5 L 106 367.5 L 106.5 365 Z "></path><path fill="rgb(1,253,162)" stroke="rgb(1,253,162)" stroke-width="1" opacity="0.5450980392156862" d="M 296.5 365 L 297 367.5 L 296 367.5 L 296.5 365 Z "></path><path fill="rgb(1,253,162)" stroke="rgb(1,253,162)" stroke-width="1" opacity="0.5450980392156862" d="M 105.5 369 L 106 371.5 L 105 371.5 L 105.5 369 Z "></path><path fill="rgb(1,253,162)" stroke="rgb(1,253,162)" stroke-width="1" opacity="0.5450980392156862" d="M 297.5 369 L 300 378.5 L 299 378.5 L 297.5 369 Z "></path><path fill="rgb(1,253,162)" stroke="rgb(1,253,162)" stroke-width="1" opacity="0.5450980392156862" d="M 104.5 373 L 105 375.5 L 104 375.5 L 104.5 373 Z "></path><path fill="rgb(1,253,162)" stroke="rgb(1,253,162)" stroke-width="1" opacity="0.5450980392156862" d="M 103.5 377 L 104 379.5 L 103 379.5 L 103.5 377 Z "></path><path fill="rgb(1,253,162)" stroke="rgb(1,253,162)" stroke-width="1" opacity="0.5450980392156862" d="M 300.5 380 L 301 382.5 L 300 382.5 L 300.5 380 Z "></path><path fill="rgb(1,253,162)" stroke="rgb(1,253,162)" stroke-width="1" opacity="0.5450980392156862" d="M 102.5 381 L 103 383.5 L 99.5 395 L 99 392.5 L 102.5 381 Z "></path><path fill="rgb(1,253,162)" stroke="rgb(1,253,162)" stroke-width="1" opacity="0.5450980392156862" d="M 301.5 384 L 303 389.5 L 302 389.5 L 301.5 384 Z "></path><path fill="rgb(1,253,162)" stroke="rgb(1,253,162)" stroke-width="1" opacity="0.5450980392156862" d="M 303.5 391 L 304 393.5 L 303 393.5 L 303.5 391 Z "></path><path fill="rgb(1,253,162)" stroke="rgb(1,253,162)" stroke-width="1" opacity="0.5450980392156862" d="M 304.5 395 L 306 399.5 L 305 399.5 L 304.5 395 Z "></path><path fill="rgb(1,253,162)" stroke="rgb(1,253,162)" stroke-width="1" opacity="0.5450980392156862" d="M 98.5 396 L 99 398.5 L 98 398.5 L 98.5 396 Z "></path><path fill="rgb(0,254,160)" stroke="rgb(0,254,160)" stroke-width="1" opacity="0.996078431372549" d="M 195.5 128 L 203.5 128 L 212 135.5 L 244 173.5 L 238 168.5 L 230 158 Q 227.3 159.1 228 156.5 L 225 155 L 222 149.5 L 205.5 131 L 199.5 130 L 194 134 L 192 139.5 L 171 167.5 L 162 176.5 L 153.5 188 L 154 186.5 L 164.5 172 L 167 170.5 L 192 137.5 L 193 130.5 L 195.5 128 Z "></path><path fill="rgb(0,254,160)" stroke="rgb(0,254,160)" stroke-width="1" opacity="0.996078431372549" d="M 146.5 217 L 147 219.5 L 143.5 230 L 143 228.5 L 146.5 217 Z "></path><path fill="rgb(0,255,161)" stroke="rgb(0,255,161)" stroke-width="1" opacity="1" d="M 199.5 130 Q 206.8 129.8 209 134.5 L 222 149.5 L 225 155 L 228 156.5 L 230 159.5 L 245 176.5 L 252 201.5 L 252 205.5 L 255 212.5 Q 258.5 232.5 265 249.5 L 268 265.5 L 305 400 L 98 399.5 L 101 391.5 L 113 341.5 L 115 337.5 L 116 329.5 L 121 314.5 L 122 306.5 L 131 277.5 L 130 275.5 L 132 272.5 L 132 270.5 L 142.5 229 L 144 229.5 L 143 225.5 L 144 225.5 L 144.5 228 L 145 224.5 L 144 221.5 L 145 221.5 L 145.5 224 L 146 220.5 L 145 217.5 L 153 188.5 L 166 172.5 Q 163.8 171.3 166.5 170 L 167.5 171 L 171 167.5 L 175 161.5 L 174.5 160 L 176 160.5 L 181 153.5 L 180.5 152 L 182 152.5 L 192 139.5 L 194 134 L 199.5 130 Z M 147 217 L 146 220 L 147 220 L 147 217 Z "></path></svg>