<svg width="400" height="400" version="1.1" xmlns="http://www.w3.org/2000/svg" desc="Created with imagetracer.js version 1.2.5"><path fill="rgb(12,155,181)" stroke="rgb(12,155,181)" stroke-width="1" opacity="0.5058823529411764" d="M 181.5 17 L 191 17.5 L 181.5 18 L 181.5 17 Z "></path><path fill="rgb(12,155,181)" stroke="rgb(12,155,181)" stroke-width="1" opacity="0.5058823529411764" d="M 210.5 17 L 220 17.5 L 210.5 18 L 210.5 17 Z "></path><path fill="rgb(12,155,181)" stroke="rgb(12,155,181)" stroke-width="1" opacity="0.5058823529411764" d="M 173.5 18 L 180 18.5 L 173.5 19 L 173.5 18 Z "></path><path fill="rgb(12,155,181)" stroke="rgb(12,155,181)" stroke-width="1" opacity="0.5058823529411764" d="M 221.5 18 L 228 18.5 L 221.5 19 L 221.5 18 Z "></path><path fill="rgb(12,155,181)" stroke="rgb(12,155,181)" stroke-width="1" opacity="0.5058823529411764" d="M 167.5 19 L 172 19.5 L 151.5 24 L 151.5 23 L 167.5 19 Z "></path><path fill="rgb(12,155,181)" stroke="rgb(12,155,181)" stroke-width="1" opacity="0.5058823529411764" d="M 229.5 19 Q 241.4 19.6 250 23.5 L 247.5 24 Q 240.1 20.3 229.5 20 L 229.5 19 Z "></path><path fill="rgb(12,155,181)" stroke="rgb(12,155,181)" stroke-width="1" opacity="0.5058823529411764" d="M 147.5 24 L 150 24.5 Q 102.3 39.3 72 71.5 Q 40.3 102.8 26.5 152 L 26 149.5 Q 42.7 94.2 81.5 61 Q 108.6 36.6 147.5 24 Z "></path><path fill="rgb(12,155,181)" stroke="rgb(12,155,181)" stroke-width="1" opacity="0.5058823529411764" d="M 251.5 24 Q 304.5 40 336 77.5 Q 362.9 107.1 375 151.5 L 374 151.5 L 368 131.5 L 358 110.5 Q 344.1 85.9 324.5 67 Q 307.7 50.8 286.5 39 Q 271 30 251.5 25 L 251.5 24 Z "></path><path fill="rgb(12,155,181)" stroke="rgb(12,155,181)" stroke-width="1" opacity="0.5058823529411764" d="M 25.5 153 L 26 155.5 L 25 155.5 L 25.5 153 Z "></path><path fill="rgb(12,155,181)" stroke="rgb(12,155,181)" stroke-width="1" opacity="0.5058823529411764" d="M 375.5 153 L 376 155.5 L 375 155.5 L 375.5 153 Z "></path><path fill="rgb(12,155,181)" stroke="rgb(12,155,181)" stroke-width="1" opacity="0.5058823529411764" d="M 24.5 157 L 25 160.5 L 22.5 171 L 22 166.5 L 24.5 157 Z "></path><path fill="rgb(12,155,181)" stroke="rgb(12,155,181)" stroke-width="1" opacity="0.5058823529411764" d="M 376.5 157 L 379 170.5 L 378 170.5 L 376.5 157 Z "></path><path fill="rgb(12,155,181)" stroke="rgb(12,155,181)" stroke-width="1" opacity="0.5058823529411764" d="M 21.5 172 L 22 178.5 L 21 178.5 L 21.5 172 Z "></path><path fill="rgb(12,155,181)" stroke="rgb(12,155,181)" stroke-width="1" opacity="0.5058823529411764" d="M 379.5 172 L 380 178.5 L 379 178.5 L 379.5 172 Z "></path><path fill="rgb(12,155,181)" stroke="rgb(12,155,181)" stroke-width="1" opacity="0.5058823529411764" d="M 20.5 180 L 21 190.5 L 20 190.5 L 20.5 180 Z "></path><path fill="rgb(12,155,181)" stroke="rgb(12,155,181)" stroke-width="1" opacity="0.5058823529411764" d="M 380.5 180 L 381 190.5 L 380 190.5 L 380.5 180 Z "></path><path fill="rgb(12,155,181)" stroke="rgb(12,155,181)" stroke-width="1" opacity="0.5058823529411764" d="M 20.5 209 L 21 219.5 L 20 219.5 L 20.5 209 Z "></path><path fill="rgb(12,155,181)" stroke="rgb(12,155,181)" stroke-width="1" opacity="0.5058823529411764" d="M 380.5 209 L 381 219.5 L 380 219.5 L 380.5 209 Z "></path><path fill="rgb(12,155,181)" stroke="rgb(12,155,181)" stroke-width="1" opacity="0.5058823529411764" d="M 21.5 221 L 22 227.5 L 21 227.5 L 21.5 221 Z "></path><path fill="rgb(12,155,181)" stroke="rgb(12,155,181)" stroke-width="1" opacity="0.5058823529411764" d="M 379.5 221 L 380 227.5 L 379 227.5 L 379.5 221 Z "></path><path fill="rgb(12,155,181)" stroke="rgb(12,155,181)" stroke-width="1" opacity="0.5058823529411764" d="M 22.5 229 L 25 242.5 L 24 242.5 L 22 233.5 L 22.5 229 Z "></path><path fill="rgb(12,155,181)" stroke="rgb(12,155,181)" stroke-width="1" opacity="0.5058823529411764" d="M 378.5 229 L 379 233.5 L 376.5 243 L 376 239.5 L 378.5 229 Z "></path><path fill="rgb(12,155,181)" stroke="rgb(12,155,181)" stroke-width="1" opacity="0.5058823529411764" d="M 25.5 244 L 26 246.5 L 25 246.5 L 25.5 244 Z "></path><path fill="rgb(12,155,181)" stroke="rgb(12,155,181)" stroke-width="1" opacity="0.5058823529411764" d="M 375.5 244 L 376 246.5 L 375 246.5 L 375.5 244 Z "></path><path fill="rgb(12,155,181)" stroke="rgb(12,155,181)" stroke-width="1" opacity="0.5058823529411764" d="M 26.5 248 Q 41.3 300.7 76.5 333 Q 105.5 362 150 375.5 L 147.5 376 Q 96.3 359.2 65 322.5 Q 52.5 308.5 43 291.5 Q 31.1 272.3 26.5 248 Z "></path><path fill="rgb(12,155,181)" stroke="rgb(12,155,181)" stroke-width="1" opacity="0.5058823529411764" d="M 374.5 248 L 375 250.5 Q 358.3 305.8 319.5 339 Q 292.1 364.1 251.5 376 L 251.5 375 L 262.5 372 L 286.5 361 Q 310.4 347.4 329 328.5 Q 360.7 297.2 374.5 248 Z "></path><path fill="rgb(12,155,181)" stroke="rgb(12,155,181)" stroke-width="1" opacity="0.5058823529411764" d="M 151.5 376 L 172 380.5 L 167.5 381 L 151.5 377 L 151.5 376 Z "></path><path fill="rgb(12,155,181)" stroke="rgb(12,155,181)" stroke-width="1" opacity="0.5058823529411764" d="M 247.5 376 L 250 376.5 Q 241.4 380.4 229.5 381 L 229.5 380 Q 240.2 379.7 247.5 376 Z "></path><path fill="rgb(12,155,181)" stroke="rgb(12,155,181)" stroke-width="1" opacity="0.5058823529411764" d="M 173.5 381 L 180 381.5 L 173.5 382 L 173.5 381 Z "></path><path fill="rgb(12,155,181)" stroke="rgb(12,155,181)" stroke-width="1" opacity="0.5058823529411764" d="M 221.5 381 L 228 381.5 L 221.5 382 L 221.5 381 Z "></path><path fill="rgb(12,155,181)" stroke="rgb(12,155,181)" stroke-width="1" opacity="0.5058823529411764" d="M 181.5 382 L 191 382.5 L 181.5 383 L 181.5 382 Z "></path><path fill="rgb(12,155,181)" stroke="rgb(12,155,181)" stroke-width="1" opacity="0.5058823529411764" d="M 210.5 382 L 220 382.5 L 210.5 383 L 210.5 382 Z "></path><path fill="rgb(13,154,180)" stroke="rgb(13,154,180)" stroke-width="1" opacity="0.996078431372549" d="M 191.5 42 L 203.5 45 L 233.5 49 L 250.5 54 L 258.5 54 L 266.5 57 L 268.5 57 Q 292.2 58.3 302 73.5 Q 306.5 80 308 89.5 L 308 111.5 L 304 134.5 L 293 169.5 L 289 185.5 L 289 192.5 L 284 211.5 L 282 252.5 Q 278.8 258.3 280 268.5 L 278.5 270 L 250.5 291 L 223.5 317 L 217.5 320 L 196.5 325 L 196.5 324 L 220.5 318 L 246.5 293 Q 264.5 282 279 267.5 L 279 255.5 L 281 245.5 L 281 231.5 L 282 230.5 L 283 209.5 L 293 163.5 L 303 131.5 L 306 115.5 L 307 96.5 L 304 81.5 L 295.5 69 Q 288.7 62.8 278.5 60 L 244.5 54 L 230.5 50 L 190 44 L 187.5 54 L 187 51.5 L 189 44.5 L 191.5 42 Z "></path><path fill="rgb(13,154,180)" stroke="rgb(13,154,180)" stroke-width="1" opacity="0.996078431372549" d="M 186.5 55 L 187 57.5 L 174.5 92 L 174 90.5 L 186.5 55 Z "></path><path fill="rgb(13,154,180)" stroke="rgb(13,154,180)" stroke-width="1" opacity="0.996078431372549" d="M 60.5 85 L 59.5 87 L 60.5 85 Z "></path><path fill="rgb(13,154,180)" stroke="rgb(13,154,180)" stroke-width="1" opacity="0.996078431372549" d="M 340.5 85 L 341.5 87 L 340.5 85 Z "></path><path fill="rgb(13,154,180)" stroke="rgb(13,154,180)" stroke-width="1" opacity="0.996078431372549" d="M 173.5 93 L 174 95.5 L 173 95.5 L 173.5 93 Z "></path><path fill="rgb(13,154,180)" stroke="rgb(13,154,180)" stroke-width="1" opacity="0.996078431372549" d="M 175.5 96 L 182 97.5 L 178.5 98 L 175.5 97 L 175.5 96 Z "></path><path fill="rgb(13,154,180)" stroke="rgb(13,154,180)" stroke-width="1" opacity="0.996078431372549" d="M 183.5 98 L 186 98.5 L 183.5 99 L 183.5 98 Z "></path><path fill="rgb(13,154,180)" stroke="rgb(13,154,180)" stroke-width="1" opacity="0.996078431372549" d="M 187.5 99 L 215.5 107 Q 222.3 109.3 226 114.5 Q 232.2 121.8 230 137.5 Q 227.2 147.7 221 154.5 L 218.5 166 L 218 162.5 L 220 154.5 L 228 140.5 L 229 124.5 Q 227 114.5 219.5 110 L 187.5 100 L 187.5 99 Z "></path><path fill="rgb(13,154,180)" stroke="rgb(13,154,180)" stroke-width="1" opacity="0.996078431372549" d="M 217.5 167 L 218 169.5 L 214.5 178 L 214 176.5 L 217.5 167 Z "></path><path fill="rgb(13,154,180)" stroke="rgb(13,154,180)" stroke-width="1" opacity="0.996078431372549" d="M 213.5 179 L 214 180.5 L 205 199.5 L 198.5 207 Q 194 211 184.5 210 L 177.5 208 Q 173.5 211.5 164.5 210 L 164.5 209 L 172.5 209 Q 175.4 206.4 181.5 207 L 189.5 209 Q 198.8 207.3 203 200.5 Q 209.8 191.3 213.5 179 Z "></path><path fill="rgb(13,154,180)" stroke="rgb(13,154,180)" stroke-width="1" opacity="0.996078431372549" d="M 157.5 210 L 163 210.5 L 151.5 212 L 151.5 211 Q 156.2 212.3 157.5 210 Z "></path><path fill="rgb(13,154,180)" stroke="rgb(13,154,180)" stroke-width="1" opacity="0.996078431372549" d="M 144.5 212 L 150 212.5 L 137.5 215 L 130.5 215 L 130.5 214 L 137.5 214 L 144.5 212 Z "></path><path fill="rgb(13,154,180)" stroke="rgb(13,154,180)" stroke-width="1" opacity="0.996078431372549" d="M 122.5 215 L 129 215.5 L 122.5 216 L 122.5 215 Z "></path><path fill="rgb(13,154,180)" stroke="rgb(13,154,180)" stroke-width="1" opacity="0.996078431372549" d="M 114.5 216 L 121 216.5 L 114.5 217 L 114.5 216 Z "></path><path fill="rgb(13,154,180)" stroke="rgb(13,154,180)" stroke-width="1" opacity="0.996078431372549" d="M 107.5 217 L 113 217.5 L 102.5 219 L 93 223.5 L 92.5 227 L 92 222.5 L 93.5 221 L 107.5 217 Z "></path><path fill="rgb(13,154,180)" stroke="rgb(13,154,180)" stroke-width="1" opacity="0.996078431372549" d="M 93.5 229 L 94 237.5 L 93 237.5 L 93.5 229 Z "></path><path fill="rgb(13,154,180)" stroke="rgb(13,154,180)" stroke-width="1" opacity="0.996078431372549" d="M 94.5 240 L 95 248.5 L 94 248.5 L 94.5 240 Z "></path><path fill="rgb(13,154,180)" stroke="rgb(13,154,180)" stroke-width="1" opacity="0.996078431372549" d="M 95.5 250 L 96 256.5 L 95 256.5 L 95.5 250 Z "></path><path fill="rgb(13,154,180)" stroke="rgb(13,154,180)" stroke-width="1" opacity="0.996078431372549" d="M 96.5 258 L 97 267.5 L 96 267.5 L 96.5 258 Z "></path><path fill="rgb(13,154,180)" stroke="rgb(13,154,180)" stroke-width="1" opacity="0.996078431372549" d="M 97.5 270 L 98 281.5 L 97 281.5 L 97.5 270 Z "></path><path fill="rgb(13,154,180)" stroke="rgb(13,154,180)" stroke-width="1" opacity="0.996078431372549" d="M 98.5 284 L 99 294.5 L 98 294.5 L 98.5 284 Z "></path><path fill="rgb(13,154,180)" stroke="rgb(13,154,180)" stroke-width="1" opacity="0.996078431372549" d="M 99.5 297 L 100 305.5 L 99 305.5 L 99.5 297 Z "></path><path fill="rgb(13,154,180)" stroke="rgb(13,154,180)" stroke-width="1" opacity="0.996078431372549" d="M 100.5 307 L 101 311 Q 125 321.3 144 337.5 L 142.5 337 L 125.5 325 L 100 310.5 L 100.5 307 Z "></path><path fill="rgb(13,154,180)" stroke="rgb(13,154,180)" stroke-width="1" opacity="0.996078431372549" d="M 59.5 313 L 60.5 315 L 59.5 313 Z "></path><path fill="rgb(13,154,180)" stroke="rgb(13,154,180)" stroke-width="1" opacity="0.996078431372549" d="M 341.5 313 L 340.5 315 L 341.5 313 Z "></path><path fill="rgb(13,154,180)" stroke="rgb(13,154,180)" stroke-width="1" opacity="0.996078431372549" d="M 192.5 325 L 195 325.5 L 185.5 328 L 185.5 327 L 192.5 325 Z "></path><path fill="rgb(13,154,180)" stroke="rgb(13,154,180)" stroke-width="1" opacity="0.996078431372549" d="M 181.5 328 L 184 328.5 L 167.5 333 L 167.5 332 L 181.5 328 Z "></path><path fill="rgb(13,154,180)" stroke="rgb(13,154,180)" stroke-width="1" opacity="0.996078431372549" d="M 163.5 333 L 166 333.5 L 156.5 336 L 156.5 335 L 163.5 333 Z "></path><path fill="rgb(13,154,180)" stroke="rgb(13,154,180)" stroke-width="1" opacity="0.996078431372549" d="M 152.5 336 L 155 336.5 L 145.5 339 L 145.5 338 L 152.5 336 Z "></path><path fill="rgb(0,0,0)" stroke="rgb(0,0,0)" stroke-width="1" opacity="0" d="M 0 0 L 400 0 L 400 400 L 0 400 L 0 0 Z M 182 17 L 155 22 L 129 31 Q 102 43 82 61 Q 59 81 43 109 Q 34 124 28 143 L 23 162 L 21 180 L 20 181 L 20 220 L 21 221 L 23 239 L 28 258 Q 41 296 65 323 Q 85 345 113 361 Q 128 370 148 376 L 163 380 L 181 382 L 182 383 L 220 383 L 221 382 L 239 380 L 254 376 Q 292 363 320 339 Q 342 319 358 292 Q 367 276 373 258 L 378 239 L 380 221 L 381 220 L 381 181 L 380 180 L 378 162 L 373 143 Q 360 104 336 78 Q 307 44 263 27 L 239 20 L 221 18 L 220 17 L 182 17 Z "></path><path fill="rgb(13,155,181)" stroke="rgb(13,155,181)" stroke-width="1" opacity="1" d="M 191.5 17 L 196.5 18 Q 198 15.5 203.5 17 L 205.5 17 L 233.5 20 L 267.5 30 L 296.5 45 L 325 67 Q 323.9 69.7 326.5 69 L 348 94.5 L 365 124.5 L 375 152.5 L 379 172.5 L 380 190.5 L 381 191.5 L 381 193.5 L 381 206.5 L 380 207.5 L 380 209.5 L 379 227.5 L 375 247.5 L 365 275.5 L 348 305.5 L 326.5 331 L 323.5 333 Q 311.9 345.9 296.5 355 L 267.5 370 L 233.5 380 L 205.5 383 L 203.5 383 Q 198 384.5 196.5 382 L 191.5 383 L 190.5 382 L 172.5 381 L 158.5 378 L 126.5 367 L 98.5 351 L 76 333 Q 77.1 330.3 74.5 331 L 53 305.5 L 36 275.5 L 26 247.5 L 22 227.5 L 21 209.5 L 20 208.5 L 20 206.5 L 20 193.5 L 21 192.5 L 21 190.5 L 22 172.5 L 26 152.5 L 36 124.5 L 53 94.5 L 74.5 69 L 77.5 67 L 98.5 49 L 126.5 33 L 158.5 22 L 172.5 19 L 190.5 18 L 191.5 17 Z M 192 42 L 189 45 L 187 55 L 173 96 L 194 101 L 220 110 Q 227 115 229 125 Q 230 136 227 144 L 220 155 Q 216 182 203 201 Q 199 207 190 209 L 182 207 Q 175 206 173 209 L 158 210 L 151 212 L 145 212 L 138 214 L 108 217 L 94 221 L 92 223 L 93 238 L 94 239 L 94 249 L 96 258 L 96 268 L 97 269 L 97 282 L 98 283 L 98 295 L 99 296 L 100 311 L 126 325 L 146 339 L 221 319 L 251 291 L 279 270 L 280 269 Q 279 258 282 253 L 284 212 L 289 193 L 289 186 L 293 170 L 304 135 L 308 112 L 308 90 Q 306 80 302 74 Q 292 58 269 57 L 267 57 L 259 54 L 251 54 L 234 49 L 204 45 L 192 42 Z "></path><path fill="rgb(67,68,68)" stroke="rgb(67,68,68)" stroke-width="1" opacity="1" d="M 190 44 L 230.5 50 L 244.5 54 L 278.5 60 Q 289.9 63.1 297 70.5 L 305 84.5 L 306 95.5 L 307 96.5 L 307 104.5 L 306 105.5 L 306 115.5 L 303 131.5 L 293 163.5 L 283 209.5 L 282 230.5 L 281 231.5 L 281 245.5 L 279 255.5 L 279 267.5 L 273.5 273 L 246.5 293 L 220.5 318 L 177.5 329 L 155.5 336 L 144.5 338 Q 125.3 321.4 101 311 Q 99.3 306.1 100 297.5 L 99 296.5 L 98 270.5 L 97 269.5 L 97 258.5 L 95 249.5 L 93 223.5 L 96.5 221 L 107.5 218 L 128.5 216 L 129.5 215 L 137.5 215 L 150.5 212 L 156.5 212 L 163.5 210 L 173.5 210 L 180.5 208 Q 183.8 211.2 191.5 210 Q 199.1 208.1 203 202.5 L 212 186.5 L 218 169.5 L 221 154.5 L 229 141.5 Q 231.4 134.4 230 123.5 Q 228.1 114.4 221.5 110 L 193.5 100 L 174 96 L 174 92.5 L 187 57.5 L 190 44 Z M 193 46 L 190 49 L 175 95 L 191 98 L 219 107 L 224 110 Q 229 114 231 123 Q 233 136 229 145 L 222 155 L 218 174 Q 214 178 213 187 L 203 205 L 193 211 Q 183 213 180 209 L 175 211 L 165 211 L 139 216 L 108 219 L 94 223 L 95 229 L 96 250 L 98 258 L 100 296 L 101 297 L 102 310 Q 126 321 146 337 L 221 317 L 231 308 L 238 299 L 271 274 L 275 270 L 275 266 L 276 258 L 275 255 L 276 254 L 277 240 L 277 236 L 278 234 Q 279 229 277 228 Q 279 226 278 222 L 278 220 Q 281 216 280 210 L 280 208 L 281 202 L 282 199 L 281 196 L 284 191 L 283 189 L 287 178 L 286 175 L 288 172 L 289 164 L 289 162 Q 292 158 293 152 L 293 150 L 295 147 L 297 135 L 299 131 L 298 129 L 300 128 L 299 125 L 299 123 L 301 120 L 301 118 L 300 116 L 301 110 L 302 107 L 300 97 L 300 95 L 299 94 L 297 93 L 298 90 L 297 89 L 297 88 L 291 79 L 290 79 L 289 76 Q 286 77 287 74 L 286 74 L 285 72 L 284 72 L 282 71 L 282 70 L 279 68 Q 276 69 277 66 L 273 64 L 270 64 Q 271 61 269 62 Q 267 64 266 61 L 264 62 L 263 60 L 260 62 L 258 60 L 252 59 L 248 59 L 247 58 L 246 58 L 238 56 L 235 57 L 233 56 L 228 53 L 227 54 L 220 52 L 218 53 L 216 51 L 202 47 L 196 47 L 193 46 Z "></path><path fill="rgb(67,68,68)" stroke="rgb(67,68,68)" stroke-width="1" opacity="1" d="M 139.5 303 L 140 304.5 L 138.5 308 L 138 305.5 L 139.5 303 Z "></path><path fill="rgb(68,68,68)" stroke="rgb(68,68,68)" stroke-width="1" opacity="1" d="M 192.5 46 L 195.5 47 L 201.5 47 L 215.5 51 L 217.5 53 L 219.5 52 L 226.5 54 L 227.5 53 L 232.5 56 L 234.5 57 L 237.5 56 L 245.5 58 L 247 57.5 L 247.5 59 L 251.5 59 L 257.5 60 L 259.5 62 L 262.5 60 L 263.5 62 L 265.5 61 Q 267 64.5 268.5 62 Q 271.1 61.3 270 64 L 272.5 64 L 277 66 Q 275.9 68.7 278.5 68 L 282 69.5 L 281.5 71 L 283.5 72 L 285 71.5 L 285.5 74 L 287 73.5 Q 285.9 76.8 288.5 76 L 297 87.5 L 296.5 89 L 298 89.5 L 297 92.5 L 298.5 94 L 300 94.5 L 300 96.5 L 302 106.5 L 301 109.5 L 300 115.5 L 301 117.5 L 301 119.5 L 299 122.5 L 299 124.5 L 300 128 L 298 128.5 L 299 130.5 L 297 134.5 L 295 146.5 L 293 149.5 L 293 151.5 L 290 160.5 Q 292.5 162 289 163.5 L 288 171.5 L 286 174.5 L 287 177.5 L 283 188.5 L 284 190.5 L 282 194.5 L 282 196.5 L 281 199.5 L 281 201.5 L 280 207.5 L 280 209.5 Q 280.7 216.2 278 219.5 L 278 221.5 Q 279.3 226.3 277 227.5 Q 279.3 228.8 278 233.5 L 277 235.5 L 277 239.5 L 276 253.5 L 275 254.5 L 276 257.5 L 275 265.5 L 275 269.5 L 270.5 274 L 238 299 L 230.5 308 L 220.5 317 L 145.5 337 Q 125.9 321.1 102 309.5 L 101 296.5 L 100 295.5 L 98 257.5 L 96 249.5 L 95 228.5 L 94 223 L 107.5 219 L 138.5 216 L 164.5 211 L 174.5 211 L 179.5 209 Q 183.5 212.5 192.5 211 L 203 204.5 L 213 186.5 Q 213.9 178.4 218 173.5 L 222 154.5 L 229 144.5 Q 233 136.5 231 122.5 Q 229.2 114.3 223.5 110 L 218.5 107 L 190.5 98 L 175 95 L 190 48.5 L 192.5 46 Z M 139 305 L 138 308 L 139 308 L 139 305 Z "></path></svg>