<svg width="400" height="400" version="1.1" xmlns="http://www.w3.org/2000/svg" desc="Created with imagetracer.js version 1.2.5"><path fill="rgb(3,86,94)" stroke="rgb(3,86,94)" stroke-width="1" opacity="0.996078431372549" d="M 0 0 L 5 0 L 5 1.5 L 7 8 Q 9.7 6.9 9 9.5 L 10 15 Q 12.7 13.9 12 16.5 Q 14.2 17.7 13 22.5 L 14.5 24 L 17 23 L 18.5 19 L 30 15 L 30 13 Q 33.1 13.8 32.5 11 L 47 11 L 47 13 L 52.5 13 L 53 15 L 54.5 15 L 58.5 16 L 63 19.5 L 63 24 L 69.5 24 L 70 26 L 71.5 26 L 76 28.5 Q 76.5 34.1 80.5 36 L 82 36 L 82 39 Q 84.7 37.9 84 40.5 Q 87.7 43.6 88 49 L 92 51 L 92 54.5 L 95 59.5 L 96 66 L 98 66 L 98 71.5 Q 101.3 70.5 100 76.5 L 102 85.5 L 102 94.5 L 100 107 L 98 107 Q 99.5 110.7 96.5 110 L 93.5 115 Q 77.7 117.2 68 125.5 L 69 129.5 L 56.5 130 L 55.5 129 L 37.5 128 L 31 123.5 Q 29.5 117 33 115.5 L 30 114 Q 30.8 110.2 27.5 109 Q 25.3 109.8 26 107.5 L 22 104.5 L 20 99 Q 17.3 100.1 18 97.5 L 17 95 Q 14.3 96.1 15 93.5 L 12 85 Q 9 86.3 10 82.5 L 9 80 L 7 80 Q 8.5 76.2 5.5 77 L 1 73.5 L 0 68.5 L 1 66 L 4 66 L 4 58 L 1.5 57 L 0.5 64 L 0 0 Z M 8 64 L 6 66 Q 5 68 8 67 L 8 64 Z M 86 113 Q 84 116 87 115 L 86 113 Z "></path><path fill="rgb(0,0,0)" stroke="rgb(0,0,0)" stroke-width="1" opacity="0" d="M 6 0 L 400 0 L 400 204.5 L 398.5 204 L 391.5 204 L 391 202 L 383.5 202 L 382.5 200 L 374.5 200 L 373.5 199 L 366 199 L 365.5 197 L 357.5 197 L 356.5 196 L 349 196 L 348.5 194 L 339.5 194 L 338.5 193 L 332 193 L 331 190.5 L 331 122.5 L 329 118 Q 326.9 116.4 321.5 117 L 318 120.5 L 318 190 Q 312.7 191.3 313.5 188 L 305 188 L 305 194 L 300.5 194 L 300 196 L 297.5 196 L 294 197 Q 295.3 200 291.5 199 L 288 200 L 288 202 Q 283.9 200.7 285 204 L 280.5 204 L 277 205 Q 278.3 208 274.5 207 L 271 208 Q 272.3 211 268.5 210 L 265 211 Q 266.4 214.7 260.5 213 L 257 214 Q 258.1 217.3 254 216 L 254 218 L 250.5 218 L 247 219 Q 248.3 222 244.5 221 L 240 222 Q 241.3 225.3 236.5 224 L 234.5 224 L 226 222 Q 227.3 218.7 222.5 220 L 210 218 L 209.5 216 L 199.5 216 L 193 212.5 L 192.5 211 L 192 213 L 189 212.5 L 189 161.5 L 185.5 157 L 180.5 156 Q 178.3 159.8 171.5 159 L 162 156.5 L 164 156 Q 165.5 152.2 162.5 153 L 152.5 149 L 143 148 L 143 145 L 134.5 145 L 133.5 144 L 119.5 144 L 118.5 143 L 110 142.5 L 111 141.5 L 111 132.5 L 109 126 L 106 124.5 Q 106.8 122.3 104.5 123 L 101 118.5 L 100 111 Q 97 112 98 109 Q 101 110.3 100 106.5 L 102 101.5 L 103 88.5 L 102 87.5 L 102 77.5 L 100 67 L 98 67 Q 99.3 62.9 96 64 L 96 59.5 Q 92.3 55.5 92 49 L 88 48 L 88 44.5 L 84 38.5 L 84 36 L 78 32.5 Q 77.8 27.8 74.5 26 L 68 22.5 L 66.5 19 L 58.5 15 L 55 15 L 55 13 Q 50.9 14.3 52 11 L 47.5 11 L 46.5 10 L 34.5 10 L 30 11 L 30 13 L 28 13 Q 29.1 15.7 26.5 15 L 15 20 L 14.5 23 L 12 11 Q 9 12.3 10 8.5 L 9 5 Q 6 6.3 7 2.5 L 6 0 Z M 64 219 L 63 222 L 64 222 L 64 219 Z "></path><path fill="rgb(0,0,0)" stroke="rgb(0,0,0)" stroke-width="1" opacity="0" d="M 0.5 206 Q 1.6 208.8 5 208 Q 3.9 210.7 6.5 210 L 10 211 Q 8.9 213.7 11.5 213 L 18 216.5 Q 17.2 219.1 20.5 218 L 26 220 Q 24.9 222.7 27.5 222 L 32 224 Q 30.7 227.3 35.5 226 L 39 228 L 39 230 L 45 230 Q 43.9 227.3 46.5 228 L 52 225.5 Q 51.3 223.3 53.5 224 Q 55.5 221.2 60 222 L 61.5 219 L 64 217.5 Q 63.2 214.5 67 216 L 67 243.5 L 72.5 252 L 76 253.5 L 80 263 L 82 263 Q 80.9 265.7 83.5 265 Q 86.8 266.8 85 273.5 L 88.5 277 L 97.5 276 L 98.5 277 L 116.5 277 L 125 274 Q 122.8 268.4 128.5 270 L 140 265 L 140 263 L 143 263 Q 141.8 260 145.5 261 Q 147.7 257.5 153 258 Q 151.9 255.3 154.5 256 L 157 255 Q 155.9 252.3 158.5 253 L 167 250 Q 165.9 247.3 168.5 248 L 171 247 Q 169.9 244.3 172.5 245 L 180 241.5 Q 179.1 238.5 183.5 240 L 188 238 Q 186.7 234.7 191.5 236 L 195 234 Q 193.9 231.3 196.5 232 L 203 230 L 204.5 227 L 210 226 Q 208.9 223.3 211.5 224 L 213 223.5 L 212 227.5 L 214 232 L 217 232.5 L 216 235 L 210 236 Q 211.3 239 207.5 238 L 204 239 L 204 241 Q 197.7 239.5 198.5 243 L 190 243 L 190 247 Q 185.9 245.7 187 249 L 183.5 249 L 177 250 Q 178.3 253.3 173.5 252 L 169 253 L 169 255 Q 165.2 253.5 166 256.5 L 162 258 Q 163.3 261.3 158.5 260 L 155 261 Q 156.3 264 152.5 263 L 149 264 Q 150.3 267 146.5 266 L 143 267 L 143 269 L 138.5 269 L 138 271 L 135.5 271 L 132 272 Q 133.3 275 129.5 274 L 126 275 Q 127.3 278 123.5 277 L 118 278 L 118 280 L 115 280 Q 116.3 283 112.5 282 L 109 283 Q 110.3 286.3 105.5 285 L 102 286 Q 103.3 289.3 98.5 288 L 95 289 Q 96.3 292.3 91.5 291 L 88 292 L 88 294 L 85 294 Q 86.3 297 82.5 296 L 77 297 Q 78.3 300 74.5 299 L 71 300 Q 72.3 303 68.5 302 L 65 303 Q 66.3 306 62.5 305 L 57 306 L 57 308 L 54 308 Q 55.3 311 51.5 310 L 48 311 Q 49.3 314 45.5 313 L 42 314 Q 43.4 317.7 37.5 316 L 34 317 Q 35.3 320 31.5 319 L 28 320 L 28 322 L 24 322 Q 25.3 325 21.5 324 L 18 325 L 17 335 L 15 335 Q 16.3 339.1 13 338 L 13 342 L 15 342 Q 13.9 344.7 16.5 344 L 18 347 L 21 347 Q 19.9 349.7 22.5 349 L 22.5 350 Q 19.9 349.3 21 352 L 26 353 L 26 356 Q 29.3 354.9 28 359 L 31.5 359 L 36.5 358 L 40 359 L 40 361 L 43 361 Q 41.8 364 45.5 363 L 49 364 Q 47.8 367 51.5 366 L 56 367 Q 54.7 370.3 59.5 369 L 63 370 Q 61.7 373.3 66.5 372 L 70 373 L 70 375 L 73 375 Q 71.8 378 75.5 377 L 79 378 Q 77.8 381 81.5 380 L 85 381 Q 83.8 384 87.5 383 L 91 384 L 91 386 L 95.5 386 L 96 388 L 98.5 388 L 102 389 Q 100.8 392 104.5 391 L 109 392 Q 107.8 395 111.5 394 L 115 395 Q 113.8 398 117.5 397 L 121 398 L 120.5 400 L 0 400 L 0.5 206 Z "></path><path fill="rgb(105,109,108)" stroke="rgb(105,109,108)" stroke-width="1" opacity="0.996078431372549" d="M 37.5 10 L 44 10.5 L 37.5 11 L 37.5 10 Z "></path><path fill="rgb(105,109,108)" stroke="rgb(105,109,108)" stroke-width="1" opacity="0.996078431372549" d="M 47 11 Q 52.2 9.3 51 13 Q 45.8 14.7 47 11 Z "></path><path fill="rgb(105,109,108)" stroke="rgb(105,109,108)" stroke-width="1" opacity="0.996078431372549" d="M 10 13 Q 13 12 12 15 Q 9 16 10 13 Z "></path><path fill="rgb(105,109,108)" stroke="rgb(105,109,108)" stroke-width="1" opacity="0.996078431372549" d="M 62.5 18 Q 65 19.2 64 23 L 68 23.5 L 63 24 L 62.5 18 Z "></path><path fill="rgb(105,109,108)" stroke="rgb(105,109,108)" stroke-width="1" opacity="0.996078431372549" d="M 13.5 19 L 14.5 23 L 15 20 Q 18.3 18.9 17 23 L 14.5 24 Q 11.8 22.8 13.5 19 Z "></path><path fill="rgb(105,109,108)" stroke="rgb(105,109,108)" stroke-width="1" opacity="0.996078431372549" d="M 92.5 52 L 93 54.5 L 92 54.5 L 92.5 52 Z "></path><path fill="rgb(105,109,108)" stroke="rgb(105,109,108)" stroke-width="1" opacity="0.996078431372549" d="M 1.5 57 L 4 58 L 4 66 Q 0.2 64.5 1 67.5 L 0 67.5 L 1.5 57 Z "></path><path fill="rgb(105,109,108)" stroke="rgb(105,109,108)" stroke-width="1" opacity="0.996078431372549" d="M 7.5 64 L 8 67 Q 5.3 68.1 6 65.5 L 7.5 64 Z "></path><path fill="rgb(105,109,108)" stroke="rgb(105,109,108)" stroke-width="1" opacity="0.996078431372549" d="M 0.5 72 L 3.5 76 L 7 77 L 7 80 Q 9.7 78.9 9 81.5 L 10 85 Q 13 83.8 12 87.5 L 15 95 Q 17.7 93.9 17 96.5 L 18 99 Q 20.7 97.9 20 100.5 L 23.5 106 L 26 107.5 Q 25.3 109.8 27.5 109 Q 30.8 110.2 30 114 L 33 115.5 L 30 117 L 28.5 114 L 23 113 Q 24.1 110.3 21.5 111 Q 20.4 108.3 17 109 Q 18.3 106 14.5 107 Q 13.4 104.3 10 105 Q 11.3 102 7.5 103 L 4 100.5 Q 4.8 97.9 1.5 99 L 0 97.5 L 0.5 72 Z "></path><path fill="rgb(105,109,108)" stroke="rgb(105,109,108)" stroke-width="1" opacity="0.996078431372549" d="M 100.5 74 L 101 76.5 L 100 76.5 L 100.5 74 Z "></path><path fill="rgb(105,109,108)" stroke="rgb(105,109,108)" stroke-width="1" opacity="0.996078431372549" d="M 101.5 81 L 102 84.5 L 101 84.5 L 101.5 81 Z "></path><path fill="rgb(105,109,108)" stroke="rgb(105,109,108)" stroke-width="1" opacity="0.996078431372549" d="M 101.5 95 L 102 98.5 L 101 98.5 L 101.5 95 Z "></path><path fill="rgb(105,109,108)" stroke="rgb(105,109,108)" stroke-width="1" opacity="0.996078431372549" d="M 96 111 Q 99 110 98 113 Q 95 114 96 111 Z "></path><path fill="rgb(105,109,108)" stroke="rgb(105,109,108)" stroke-width="1" opacity="0.996078431372549" d="M 85.5 113 L 86.5 115 Q 83.7 115.7 85.5 113 Z "></path><path fill="rgb(105,109,108)" stroke="rgb(105,109,108)" stroke-width="1" opacity="0.996078431372549" d="M 100.5 115 L 101.5 165 L 103.5 165 L 107 166.5 Q 106.3 168.8 108.5 168 L 110.5 168 L 113 168.5 L 110 169 Q 111.7 173.1 107.5 172 L 100.5 176 L 95 177 L 93.5 181 L 82 185 Q 83.7 189.1 79.5 188 L 71 192.5 L 68 197.5 L 67.5 208 L 63.5 207 L 61 204.5 L 60 201.5 L 60 185.5 L 64 173 L 68 171.5 Q 68.5 166 72.5 164 L 75 164 Q 73.5 160.2 76.5 161 L 80.5 158 L 91.5 157 L 100 161 L 100.5 115 Z "></path><path fill="rgb(105,109,108)" stroke="rgb(105,109,108)" stroke-width="1" opacity="0.996078431372549" d="M 0 120 Q 3 119 2 122 L 4.5 122 L 6 125 L 15 128 L 15 130 L 18 130 Q 16.8 133 20.5 132 L 22.5 134 L 30 136 L 31 140 L 36.5 141 L 44 145.5 L 44 229.5 L 40 230 Q 38.8 227 42.5 228 L 42.5 227 L 38.5 228 L 36.5 224 L 36 226 Q 33 227 34 224 L 36 223.5 L 32.5 223 L 31 223.5 L 31.5 222 L 29.5 223 L 28 220.5 L 28.5 219 L 25.5 220 L 25.5 218 L 22.5 219 L 23 217.5 Q 23.7 214.9 21 216 L 20.5 218 L 20 216 L 18 215.5 L 20 214.5 L 17.5 214 L 15.5 215 L 15.5 214 L 17 213.5 L 14.5 213 Q 13.3 215.3 12 212.5 Q 13.1 209.2 10.5 210 L 9 210.5 L 10 208 Q 6.2 206.5 7 209.5 L 6 209.5 L 7 207.5 L 5.5 207 L 3.5 207 Q 1.3 207.8 2 205.5 L 0 205.5 L 1 203.5 L 0 202.5 L 0 161 L 4.5 160 L 9 163.5 L 11.5 167 L 18.5 173 L 29.5 177 L 29 175.5 L 29 157.5 L 30 156.5 L 27.5 152 L 15 148 Q 16.5 144.3 13.5 145 L 12.5 142 L 9.5 143 L 2 140 L 4 136 Q 0.2 134.5 1 137.5 L 0 137.5 L 1 135.5 L 0 134.5 L 0 120 Z M 18 145 Q 17 149 20 148 Q 21 144 18 145 Z M 7 174 L 5 176 L 5 203 L 8 206 L 10 206 L 10 177 L 7 174 Z M 26 177 Q 25 181 28 180 Q 29 176 26 177 Z M 21 182 L 18 183 L 18 211 L 20 211 L 20 213 L 23 214 L 23 185 L 21 182 Z "></path><path fill="rgb(105,109,108)" stroke="rgb(105,109,108)" stroke-width="1" opacity="0.996078431372549" d="M 137.5 153 L 138 155.5 L 137 155.5 L 137.5 153 Z "></path><path fill="rgb(105,109,108)" stroke="rgb(105,109,108)" stroke-width="1" opacity="0.996078431372549" d="M 150 153 Q 154.5 151.5 153 156 Q 148.5 157.5 150 153 Z "></path><path fill="rgb(105,109,108)" stroke="rgb(105,109,108)" stroke-width="1" opacity="0.996078431372549" d="M 179.5 157 L 185 157.5 L 184.5 159 L 186.5 158 L 186 159.5 L 186.5 161 L 188 160.5 L 187 161.5 L 187 215.5 L 188 219.5 L 187 222 L 185 222.5 L 185 224.5 Q 186.1 227.8 183.5 227 L 178 228 L 177.5 230 L 177 228 Q 171.8 226.3 173 230 L 176 230.5 L 173.5 231 L 171.5 230 L 171 232.5 L 170.5 234 L 170 232 Q 165.9 230.7 167 234 L 169 234.5 L 167.5 235 L 164.5 234 L 164.5 236 L 163 235.5 L 161.5 239 L 157.5 238 L 157.5 239 L 159 239.5 L 157.5 240 L 155.5 239 L 156 240.5 L 155.5 242 L 154.5 240 L 152.5 244 L 148.5 243 L 148.5 244 L 150 244.5 L 148.5 245 L 146.5 244 L 147 245.5 L 145.5 248 Q 142.2 246.9 143 249.5 L 142 249.5 Q 142.7 246.5 139 248 L 140 250.5 L 138 250.5 L 136.5 253 L 132.5 252 L 132.5 253 Q 135.1 252.3 134 255 L 130 253 L 131 255.5 L 129 255.5 Q 130.1 258.8 127.5 258 L 125.5 258 L 123 258.5 L 125 259.5 L 123.5 260 L 121.5 259 L 121.5 261 L 119 260 L 117.5 265 L 117 263 Q 113.3 261.5 114 264.5 L 114.5 266 L 111.5 265 L 111.5 266 L 113 266.5 L 110.5 268 L 107.5 267 L 107.5 268 L 109 268.5 L 107.5 269 L 104.5 268 L 104.5 269 L 106 269.5 L 104.5 270 L 103 269.5 Q 103.8 273.3 101.5 274 L 98.5 273 L 98.5 274 L 100 274.5 L 98.5 275 L 95.5 274 L 95.5 276 Q 94 273.5 88.5 275 Q 87.3 277.3 86 274.5 Q 88.7 272.8 87 266.5 L 86 266.5 L 85.5 273 L 84 265.5 L 86 265.5 L 85 262.5 L 85 215.5 L 88 208 L 91.5 208 Q 93.4 204.4 98 205 Q 96.8 202 100.5 203 L 102 200 L 111 196.5 Q 110.2 193.9 113.5 195 L 117 194 L 118.5 191 L 127 187.5 Q 125.8 183.8 129.5 185 L 142 180 L 143.5 176 L 155 172 Q 153.5 168.3 156.5 169 L 169 164 L 169 161 L 175.5 161 L 175.5 160 L 171 159.5 L 175.5 159 L 177.5 160 L 177.5 158 L 179.5 159 L 179.5 157 Z M 178 168 L 177 169 Q 172 167 173 172 L 169 175 Q 164 174 163 177 Q 159 176 161 180 L 152 183 L 150 185 Q 145 184 147 188 L 138 192 Q 134 191 135 194 L 133 194 L 131 197 Q 127 197 125 200 Q 121 199 122 202 L 119 203 Q 116 202 117 205 L 107 208 L 106 211 Q 102 210 103 213 L 100 215 L 97 215 L 94 219 L 94 266 L 97 265 Q 99 266 98 263 L 101 263 L 101 261 Q 106 261 108 258 Q 111 259 110 257 L 111 257 Q 110 259 113 258 L 114 253 L 122 251 L 123 248 L 127 247 Q 130 248 129 245 L 136 242 Q 139 243 138 240 L 143 238 Q 146 239 145 236 L 149 234 Q 152 235 151 232 L 156 231 L 157 228 L 163 227 L 164 224 L 171 222 Q 173 223 172 221 L 178 218 Q 175 216 176 211 L 179 209 L 179 169 L 178 168 Z M 102 270 L 101 273 L 102 273 L 102 270 Z "></path><path fill="rgb(105,109,108)" stroke="rgb(105,109,108)" stroke-width="1" opacity="0.996078431372549" d="M 165.5 158 L 169 158.5 L 165.5 159 L 165.5 158 Z "></path><path fill="rgb(105,109,108)" stroke="rgb(105,109,108)" stroke-width="1" opacity="0.996078431372549" d="M 123 161 Q 126 160 125 163 L 122.5 164 L 123 162.5 L 123 161 Z "></path><path fill="rgb(105,109,108)" stroke="rgb(105,109,108)" stroke-width="1" opacity="0.996078431372549" d="M 116.5 165 L 114.5 168 L 116.5 165 Z "></path><path fill="rgb(105,109,108)" stroke="rgb(105,109,108)" stroke-width="1" opacity="0.996078431372549" d="M 64.5 213 Q 69 212 70 214.5 Q 70.8 217.1 67.5 216 L 67.5 215 L 69 214.5 L 64 214 L 63.5 218 L 63 214.5 L 64.5 213 Z "></path><path fill="rgb(105,109,108)" stroke="rgb(105,109,108)" stroke-width="1" opacity="0.996078431372549" d="M 68.5 218 L 70 221.5 L 68 223.5 L 67.5 242 L 67 223.5 L 69 219.5 L 68.5 218 Z "></path><path fill="rgb(105,109,108)" stroke="rgb(105,109,108)" stroke-width="1" opacity="0.996078431372549" d="M 56 220 Q 60.1 218.7 59 222 Q 54.9 223.3 56 220 Z "></path><path fill="rgb(105,109,108)" stroke="rgb(105,109,108)" stroke-width="1" opacity="0.996078431372549" d="M 69.5 245 L 71 247.5 L 69 246.5 L 69.5 245 Z "></path><path fill="rgb(105,109,108)" stroke="rgb(105,109,108)" stroke-width="1" opacity="0.996078431372549" d="M 72.5 251 L 76 252.5 L 74.5 252 Q 71.5 252.5 72.5 251 Z "></path><path fill="rgb(105,109,108)" stroke="rgb(105,109,108)" stroke-width="1" opacity="0.996078431372549" d="M 78.5 258 L 79.5 260 L 78.5 258 Z "></path><path fill="rgb(105,109,108)" stroke="rgb(105,109,108)" stroke-width="1" opacity="0.996078431372549" d="M 90.5 276 L 94 276.5 L 90.5 277 L 90.5 276 Z "></path><path fill="rgb(105,109,108)" stroke="rgb(105,109,108)" stroke-width="1" opacity="0.996078431372549" d="M 328 282 L 333.5 282 L 334 283.5 L 335 288.5 L 334 288.5 Q 335.9 283.1 332.5 284 L 330 283 L 327.5 289 L 323 288.5 L 328 288 L 328 282 Z "></path><path fill="rgb(105,109,108)" stroke="rgb(105,109,108)" stroke-width="1" opacity="0.996078431372549" d="M 319 286 Q 323.1 284.7 322 288 Q 317.9 289.3 319 286 Z "></path><path fill="rgb(105,109,108)" stroke="rgb(105,109,108)" stroke-width="1" opacity="0.996078431372549" d="M 312.5 290 L 308.5 295 Q 306.3 294.3 307 296.5 L 306 296.5 L 307.5 294 L 312.5 290 Z "></path><path fill="rgb(105,109,108)" stroke="rgb(105,109,108)" stroke-width="1" opacity="0.996078431372549" d="M 332.5 290 L 334 290.5 L 331.5 292 L 332.5 290 Z "></path><path fill="rgb(105,109,108)" stroke="rgb(105,109,108)" stroke-width="1" opacity="0.996078431372549" d="M 324 295 Q 327 294 326 297 L 322.5 299 L 324 296.5 L 324 295 Z "></path><path fill="rgb(105,109,108)" stroke="rgb(105,109,108)" stroke-width="1" opacity="0.996078431372549" d="M 303.5 298 L 300.5 302 L 299 301.5 L 303.5 298 Z "></path><path fill="rgb(105,109,108)" stroke="rgb(105,109,108)" stroke-width="1" opacity="0.996078431372549" d="M 319.5 300 L 317 303.5 Q 317.7 306.1 315 305 Q 313.9 302.3 316.5 303 L 319.5 300 Z "></path><path fill="rgb(105,109,108)" stroke="rgb(105,109,108)" stroke-width="1" opacity="0.996078431372549" d="M 290.5 307 L 292 307.5 L 289.5 309 L 290.5 307 Z "></path><path fill="rgb(105,109,108)" stroke="rgb(105,109,108)" stroke-width="1" opacity="0.996078431372549" d="M 310.5 308 L 309.5 310 L 310.5 308 Z "></path><path fill="rgb(105,109,108)" stroke="rgb(105,109,108)" stroke-width="1" opacity="0.996078431372549" d="M 282 311 Q 285 310 284 313 L 281.5 314 L 282 312.5 L 282 311 Z "></path><path fill="rgb(105,109,108)" stroke="rgb(105,109,108)" stroke-width="1" opacity="0.996078431372549" d="M 304.5 313 L 303.5 315 L 304.5 313 Z "></path><path fill="rgb(105,109,108)" stroke="rgb(105,109,108)" stroke-width="1" opacity="0.996078431372549" d="M 277.5 315 L 276.5 317 L 277.5 315 Z "></path><path fill="rgb(105,109,108)" stroke="rgb(105,109,108)" stroke-width="1" opacity="0.996078431372549" d="M 297.5 317 L 296.5 319 L 297.5 317 Z "></path><path fill="rgb(105,109,108)" stroke="rgb(105,109,108)" stroke-width="1" opacity="0.996078431372549" d="M 263.5 324 L 262.5 326 L 263.5 324 Z "></path><path fill="rgb(105,109,108)" stroke="rgb(105,109,108)" stroke-width="1" opacity="0.996078431372549" d="M 284.5 325 L 283.5 327 L 282 326.5 L 284.5 325 Z "></path><path fill="rgb(105,109,108)" stroke="rgb(105,109,108)" stroke-width="1" opacity="0.996078431372549" d="M 259.5 327 L 259 328.5 Q 259.7 331.1 257 330 Q 255.9 327.3 258.5 328 L 259.5 327 Z "></path><path fill="rgb(105,109,108)" stroke="rgb(105,109,108)" stroke-width="1" opacity="0.996078431372549" d="M 270.5 334 L 269.5 336 L 270.5 334 Z "></path><path fill="rgb(105,109,108)" stroke="rgb(105,109,108)" stroke-width="1" opacity="0.996078431372549" d="M 267.5 336 L 268 337.5 L 265.5 339 L 265.5 338 Q 268 338.7 267.5 336 Z "></path><path fill="rgb(105,109,108)" stroke="rgb(105,109,108)" stroke-width="1" opacity="0.996078431372549" d="M 246.5 339 L 243.5 343 L 246.5 339 Z "></path><path fill="rgb(105,109,108)" stroke="rgb(105,109,108)" stroke-width="1" opacity="0.996078431372549" d="M 260.5 343 L 259.5 345 L 260.5 343 Z "></path><path fill="rgb(105,109,108)" stroke="rgb(105,109,108)" stroke-width="1" opacity="0.996078431372549" d="M 237.5 347 L 236.5 349 L 237.5 347 Z "></path><path fill="rgb(105,109,108)" stroke="rgb(105,109,108)" stroke-width="1" opacity="0.996078431372549" d="M 232.5 350 L 234 350.5 L 230 353.5 L 229.5 355 L 229 353.5 L 232.5 350 Z "></path><path fill="rgb(105,109,108)" stroke="rgb(105,109,108)" stroke-width="1" opacity="0.996078431372549" d="M 252.5 350 L 250.5 353 Q 248.3 352.3 249 354.5 L 248 354.5 L 249.5 352 L 252.5 350 Z "></path><path fill="rgb(105,109,108)" stroke="rgb(105,109,108)" stroke-width="1" opacity="0.996078431372549" d="M 245.5 356 L 243.5 359 L 245.5 356 Z "></path><path fill="rgb(105,109,108)" stroke="rgb(105,109,108)" stroke-width="1" opacity="0.996078431372549" d="M 224.5 357 L 226 357.5 L 222.5 360 L 224.5 357 Z "></path><path fill="rgb(105,109,108)" stroke="rgb(105,109,108)" stroke-width="1" opacity="0.996078431372549" d="M 239.5 360 L 239 361.5 L 236.5 365 L 238 362.5 L 239.5 360 Z "></path><path fill="rgb(105,109,108)" stroke="rgb(105,109,108)" stroke-width="1" opacity="0.996078431372549" d="M 221.5 368 L 224 369.5 L 222.5 370 L 221.5 368 Z "></path><path fill="rgb(105,109,108)" stroke="rgb(105,109,108)" stroke-width="1" opacity="0.996078431372549" d="M 230.5 368 L 229.5 370 L 230.5 368 Z "></path><path fill="rgb(105,109,108)" stroke="rgb(105,109,108)" stroke-width="1" opacity="0.996078431372549" d="M 226 370 Q 229 369 228 372 Q 225 373 226 370 Z "></path><path fill="rgb(186,22,51)" stroke="rgb(186,22,51)" stroke-width="1" opacity="1" d="M 331.5 283 L 334 284 L 334 289.5 L 332.5 290 L 326.5 295 L 324 295 L 320.5 300 L 315 303 L 311.5 308 L 306 311.5 Q 306.8 313.8 304.5 313 L 301.5 316 L 292 320 Q 293.1 322.7 290.5 322 L 278 328 L 276.5 331 L 267 336 Q 268.1 338.7 265.5 338 L 257 345 L 253.5 350 L 248 353.5 L 246.5 356 L 238 361.5 L 233.5 367 L 228.5 370 L 224.5 370 L 221 367.5 Q 220.3 360.3 224.5 358 L 230 355 L 232.5 351 L 239 346.5 L 240.5 344 Q 246.6 342.6 249 337.5 Q 248.3 335.3 250.5 336 L 256.5 330 L 259 330 L 261.5 326 L 269 321.5 Q 268.3 319.3 270.5 320 L 284 313 Q 282.9 310.3 285.5 311 L 297 305 L 298.5 302 L 300.5 302 L 307 297 Q 305.9 294.3 308.5 295 Q 311.4 287.4 322.5 288 L 327.5 289 L 331.5 283 Z "></path><path fill="rgb(64,254,0)" stroke="rgb(64,254,0)" stroke-width="1" opacity="0.5019607843137255" d="M 321.5 117 Q 326.9 116.4 329 118 L 331 122.5 L 331 192.5 L 330 192.5 L 329 190.5 L 329 122.5 L 326.5 119 Q 321.3 117.8 320 120.5 L 319 122.5 L 318.5 190 L 318 120.5 L 321.5 117 Z "></path><path fill="rgb(76,75,73)" stroke="rgb(76,75,73)" stroke-width="1" opacity="1" d="M 77.5 32 L 78.5 34 L 77.5 32 Z "></path><path fill="rgb(76,75,73)" stroke="rgb(76,75,73)" stroke-width="1" opacity="1" d="M 98 70 Q 101 69 100 72 Q 97 73 98 70 Z "></path><path fill="rgb(76,75,73)" stroke="rgb(76,75,73)" stroke-width="1" opacity="1" d="M 0.5 98 L 4 99 L 5.5 102 L 10 103 Q 8.8 106 12.5 105 Q 13.6 107.7 17 107 Q 15.8 110 19.5 109 L 23 111 Q 21.8 114 25.5 113 L 30 115.5 L 31 123.5 L 34.5 127 L 51.5 130 L 55.5 129 L 56.5 130 L 68.5 130 L 68 128.5 Q 67.3 123.8 70.5 123 Q 79 117.5 91.5 116 L 95 113.5 L 95.5 111 L 96 113 L 100 113.5 L 100 161 L 91.5 157 L 84.5 157 L 75 161 Q 76.7 165.1 72.5 164 L 66.5 173 Q 63.2 171.9 64 174.5 L 60 185.5 L 60 201.5 L 63.5 207 L 67.5 208 L 68 197.5 L 72.5 191 L 75.5 191 L 79.5 188 L 82 188 Q 80.3 183.9 84.5 185 L 95 179.5 Q 93.8 175.8 97.5 177 L 104.5 173 L 110 172 Q 108.3 167.9 112.5 169 L 117.5 165 L 125 163 L 126.5 160 L 138 156 Q 136.5 152.2 139.5 153 L 144.5 152 L 150 153 Q 148.2 157.9 154.5 156 L 165.5 159 L 175.5 160 L 179.5 158 L 179.5 159 Q 176 162.2 169 161 Q 170.5 164.8 167.5 164 L 160.5 168 L 155 169 Q 156.5 172.7 153.5 172 L 142 177.5 Q 143.3 181.3 139.5 180 L 127 185 L 125.5 189 L 117 192.5 Q 117.8 195.1 114.5 194 L 111 195 L 109.5 198 L 102 200 L 100.5 203 L 98 203 Q 99.3 206 95.5 205 Q 93.4 208.9 88 208 L 85 215.5 L 85 262.5 Q 88.2 265.8 87 273.5 L 88.5 275 L 94.5 275 L 101 273 L 101.5 270 L 102 272.5 Q 98 277 88.5 276 L 86 273.5 L 86 266.5 L 84 263 L 82 263 L 82 261 Q 79.3 262.1 80 259.5 L 74.5 251 L 71 249.5 L 68 243.5 L 68 223.5 L 70 219.5 L 68 216 Q 70.7 217.1 70 214.5 Q 69 212 64.5 213 L 61.5 219 L 56 220 Q 57.1 222.7 54.5 222 L 51 224 Q 52.3 227.3 47.5 226 L 44 228 L 44 145.5 L 42.5 144 L 31 140 L 30 136 L 18 132 L 18 130 L 15 130 Q 16.1 127.3 13.5 128 Q 11.3 124.5 6 125 L 4.5 122 L 2 122 Q 2.8 118.9 0 119.5 L 0.5 98 Z "></path><path fill="rgb(76,75,73)" stroke="rgb(76,75,73)" stroke-width="1" opacity="1" d="M 0.5 135 L 4 136 L 5 139.5 L 4 139.5 L 4 138 Q 0.2 139.5 1 136.5 L 0.5 135 Z "></path><path fill="rgb(76,75,73)" stroke="rgb(76,75,73)" stroke-width="1" opacity="1" d="M 9.5 141 L 14 143.5 L 12.5 143 Q 8.7 143.5 9.5 141 Z "></path><path fill="rgb(76,75,73)" stroke="rgb(76,75,73)" stroke-width="1" opacity="1" d="M 18 145 Q 21 143.8 20 147.5 L 20.5 149 L 18 148 L 18 145 Z "></path><path fill="rgb(76,75,73)" stroke="rgb(76,75,73)" stroke-width="1" opacity="1" d="M 184.5 158 L 187 159.5 L 188 161.5 L 188 215.5 L 187 215.5 L 187 161.5 L 186 159 L 184.5 158 Z "></path><path fill="rgb(76,75,73)" stroke="rgb(76,75,73)" stroke-width="1" opacity="1" d="M 6.5 174 L 10 176.5 L 10 205.5 L 7.5 206 L 5 202.5 L 5 175.5 L 6.5 174 Z "></path><path fill="rgb(76,75,73)" stroke="rgb(76,75,73)" stroke-width="1" opacity="1" d="M 20.5 174 L 21.5 176 L 20.5 174 Z "></path><path fill="rgb(76,75,73)" stroke="rgb(76,75,73)" stroke-width="1" opacity="1" d="M 26 177 Q 29.3 175.9 28 180 Q 24.7 181.1 26 177 Z "></path><path fill="rgb(76,75,73)" stroke="rgb(76,75,73)" stroke-width="1" opacity="1" d="M 20.5 182 L 23 184.5 L 23 214 L 20 212.5 L 20 211 L 18 210.5 L 18 183 L 20.5 182 Z "></path><path fill="rgb(76,75,73)" stroke="rgb(76,75,73)" stroke-width="1" opacity="1" d="M 0.5 203 L 2 205.5 L 0 204.5 L 0.5 203 Z "></path><path fill="rgb(76,75,73)" stroke="rgb(76,75,73)" stroke-width="1" opacity="1" d="M 4.5 206 L 10 208 Q 8.9 210.7 11.5 210 L 11.5 211 L 7 210 Q 8.1 207.3 5.5 208 L 4.5 206 Z "></path><path fill="rgb(76,75,73)" stroke="rgb(76,75,73)" stroke-width="1" opacity="1" d="M 13.5 211 L 14 213 L 23 216 Q 21.8 219 25.5 218 L 30 220.5 Q 29.3 222.8 31.5 222 L 37 224.5 L 36.5 226 L 36 224 Q 31 224.8 29 221.5 Q 29.8 218.9 26.5 220 L 21 218 L 19.5 215 L 13 212.5 L 13.5 211 Z "></path><path fill="rgb(76,75,73)" stroke="rgb(76,75,73)" stroke-width="1" opacity="1" d="M 38.5 226 L 43 227.5 L 39.5 228 L 38.5 226 Z "></path><path fill="rgb(76,75,73)" stroke="rgb(76,75,73)" stroke-width="1" opacity="1" d="M 177.5 227 L 177 228.5 Q 177.9 231.5 173.5 230 L 170 232.5 Q 170.8 235.1 167.5 234 L 163.5 236 L 164.5 234 L 167 234 Q 165.8 231 169.5 232 L 173 230 Q 171.7 226.7 176.5 228 L 177.5 227 Z "></path><path fill="rgb(76,75,73)" stroke="rgb(76,75,73)" stroke-width="1" opacity="1" d="M 161.5 236 L 162 237.5 L 155 240 L 154.5 242 L 154 240.5 Q 156 237.2 161 238 L 161.5 236 Z "></path><path fill="rgb(76,75,73)" stroke="rgb(76,75,73)" stroke-width="1" opacity="1" d="M 151.5 242 L 153 242.5 L 146 245 L 145.5 247 L 145 245.5 L 151.5 242 Z "></path><path fill="rgb(76,75,73)" stroke="rgb(76,75,73)" stroke-width="1" opacity="1" d="M 142.5 247 L 142 248.5 Q 142.8 251.1 139.5 250 L 138 250.5 L 139 248 L 142.5 247 Z "></path><path fill="rgb(76,75,73)" stroke="rgb(76,75,73)" stroke-width="1" opacity="1" d="M 135.5 251 L 137 251.5 L 132 253 Q 133.1 255.7 130.5 255 L 129 255.5 L 130 253 L 135.5 251 Z "></path><path fill="rgb(76,75,73)" stroke="rgb(76,75,73)" stroke-width="1" opacity="1" d="M 111 256 Q 114 255 113 258 Q 110 259 111 256 Z "></path><path fill="rgb(76,75,73)" stroke="rgb(76,75,73)" stroke-width="1" opacity="1" d="M 126.5 256 L 127 257.5 L 119.5 261 L 119.5 260 L 126 258 L 126.5 256 Z "></path><path fill="rgb(76,75,73)" stroke="rgb(76,75,73)" stroke-width="1" opacity="1" d="M 117.5 261 L 118 262.5 L 117 265 L 103.5 270 L 104.5 268 L 114 265 L 114 263 Q 117.8 264.3 117.5 261 Z "></path><path fill="rgb(216,217,215)" stroke="rgb(216,217,215)" stroke-width="1" opacity="1" d="M 7 5 Q 10 4 9 7 Q 6 8 7 5 Z "></path><path fill="rgb(216,217,215)" stroke="rgb(216,217,215)" stroke-width="1" opacity="1" d="M 34.5 10 L 37 10.5 L 34.5 11 L 34.5 10 Z "></path><path fill="rgb(216,217,215)" stroke="rgb(216,217,215)" stroke-width="1" opacity="1" d="M 10 11 Q 13 10 12 13 Q 9 14 10 11 Z "></path><path fill="rgb(216,217,215)" stroke="rgb(216,217,215)" stroke-width="1" opacity="1" d="M 56.5 15 L 59 15.5 L 56.5 16 L 56.5 15 Z "></path><path fill="rgb(216,217,215)" stroke="rgb(216,217,215)" stroke-width="1" opacity="1" d="M 63.5 18 L 68 20.5 L 67.5 23 L 67 20 Q 63.2 20.8 63.5 18 Z "></path><path fill="rgb(216,217,215)" stroke="rgb(216,217,215)" stroke-width="1" opacity="1" d="M 70.5 24 L 77 28.5 L 78 31.5 L 76 30.5 L 74.5 27 Q 69.8 27.5 70.5 24 Z "></path><path fill="rgb(216,217,215)" stroke="rgb(216,217,215)" stroke-width="1" opacity="1" d="M 82 36 Q 85 34.8 84 38.5 L 84.5 40 L 82 39 L 82 36 Z "></path><path fill="rgb(216,217,215)" stroke="rgb(216,217,215)" stroke-width="1" opacity="1" d="M 85.5 41 L 86.5 43 L 85.5 41 Z "></path><path fill="rgb(216,217,215)" stroke="rgb(216,217,215)" stroke-width="1" opacity="1" d="M 87.5 44 L 88 46.5 L 87 46.5 L 87.5 44 Z "></path><path fill="rgb(216,217,215)" stroke="rgb(216,217,215)" stroke-width="1" opacity="1" d="M 98 67 Q 101 66 100 69 Q 97 70 98 67 Z "></path><path fill="rgb(216,217,215)" stroke="rgb(216,217,215)" stroke-width="1" opacity="1" d="M 101.5 77 L 102 79.5 L 101 79.5 L 101.5 77 Z "></path><path fill="rgb(216,217,215)" stroke="rgb(216,217,215)" stroke-width="1" opacity="1" d="M 102.5 88 L 103 93.5 L 102 93.5 L 102.5 88 Z "></path><path fill="rgb(216,217,215)" stroke="rgb(216,217,215)" stroke-width="1" opacity="1" d="M 101.5 99 L 102 101.5 L 101 101.5 L 101.5 99 Z "></path><path fill="rgb(216,217,215)" stroke="rgb(216,217,215)" stroke-width="1" opacity="1" d="M 98 107 Q 101 106 100 109 Q 97 110 98 107 Z "></path><path fill="rgb(216,217,215)" stroke="rgb(216,217,215)" stroke-width="1" opacity="1" d="M 96.5 110 L 100 111 Q 101 114 98 113 Q 99.1 110.3 96.5 111 L 96.5 110 Z "></path><path fill="rgb(216,217,215)" stroke="rgb(216,217,215)" stroke-width="1" opacity="1" d="M 101.5 119 L 104.5 123 Q 106.8 122.3 106 124.5 L 109 126 Q 112 131.3 111 141.5 L 110.5 143 L 143 145 Q 141.2 149.9 147.5 148 L 164 153 Q 165.5 156.8 162.5 156 L 157.5 157 L 153 156 Q 154.8 150.8 147.5 153 Q 145.8 150.3 139.5 152 L 137 153 Q 138.5 156.8 135.5 156 L 123 161 L 121.5 164 Q 115.5 164 113.5 168 L 110.5 168 L 101 164 L 101.5 119 Z "></path><path fill="rgb(216,217,215)" stroke="rgb(216,217,215)" stroke-width="1" opacity="1" d="M 0 138 L 2 138 Q 0.9 140.7 3.5 140 L 15 145 Q 13.3 149.1 17.5 148 L 29 153.5 L 30 156.5 L 29 157.5 L 29 175.5 L 29.5 177 L 18.5 173 L 9 164.5 L 6.5 161 L 3.5 160 L 0 161 L 0 138 Z "></path><path fill="rgb(216,217,215)" stroke="rgb(216,217,215)" stroke-width="1" opacity="1" d="M 180.5 156 L 184 156.5 L 180.5 157 L 180.5 156 Z "></path><path fill="rgb(216,217,215)" stroke="rgb(216,217,215)" stroke-width="1" opacity="1" d="M 163.5 157 L 167 157.5 L 163.5 158 L 163.5 157 Z "></path><path fill="rgb(216,217,215)" stroke="rgb(216,217,215)" stroke-width="1" opacity="1" d="M 188.5 161 L 189 213 Q 192.8 214.5 192 211.5 L 193 211.5 L 194.5 214 Q 200.1 217.6 210 216 Q 208.8 219 212.5 218 L 215 219 Q 216.5 222.7 213.5 222 L 210 224 Q 211.3 227 207.5 226 L 203 228.5 Q 203.8 230.8 201.5 230 L 195 232 Q 196.1 234.7 193.5 234 Q 192.3 237 188 236 Q 189.1 238.7 186.5 238 Q 184.5 240.8 180 240 L 178.5 243 L 171 245 Q 172.1 247.7 169.5 247 L 167 248 Q 168.3 251 164.5 250 L 157 253 Q 158.1 255.7 155.5 255 L 153 256 Q 154.3 259 150.5 258 L 143 261 L 143 263 L 140 263 Q 141.1 265.7 138.5 265 L 128.5 270 L 125 270 Q 127.1 275.2 122.5 274 L 116.5 277 L 98.5 277 L 96.5 276 L 94.5 277 L 94.5 276 Q 100.3 275.8 103 272.5 Q 101.8 268.8 105.5 270 L 118 265 L 119 261 L 129 258 Q 127.9 255.3 130.5 256 L 134 255 Q 132.8 252 136.5 253 Q 138.4 249.4 143 250 Q 141.8 247 145.5 248 L 147 245 L 156 242 Q 154.8 239 158.5 240 L 163 237.5 Q 162.3 235.3 164.5 236 L 171 234 L 172.5 231 L 178 230 Q 176.7 226.3 182.5 228 L 185 227 L 188 219.5 L 188.5 161 Z "></path><path fill="rgb(216,217,215)" stroke="rgb(216,217,215)" stroke-width="1" opacity="1" d="M 1.5 206 L 4 207.5 L 2.5 208 L 1.5 206 Z "></path><path fill="rgb(216,217,215)" stroke="rgb(216,217,215)" stroke-width="1" opacity="1" d="M 10 211 Q 12.7 209.9 12 212.5 L 12.5 214 L 10 213 L 10 211 Z "></path><path fill="rgb(216,217,215)" stroke="rgb(216,217,215)" stroke-width="1" opacity="1" d="M 64 214 L 69 214.5 L 67 215.5 L 69 221.5 L 67 222.5 L 67 216 Q 62.9 217.3 64 214 Z "></path><path fill="rgb(216,217,215)" stroke="rgb(216,217,215)" stroke-width="1" opacity="1" d="M 17.5 215 L 20 216 Q 21 219 18 218 L 17.5 215 Z "></path><path fill="rgb(216,217,215)" stroke="rgb(216,217,215)" stroke-width="1" opacity="1" d="M 62.5 218 L 64 221.5 L 63 221.5 L 62.5 218 Z "></path><path fill="rgb(216,217,215)" stroke="rgb(216,217,215)" stroke-width="1" opacity="1" d="M 26 220 Q 28.7 218.9 28 221.5 L 28.5 223 L 26 222 L 26 220 Z "></path><path fill="rgb(216,217,215)" stroke="rgb(216,217,215)" stroke-width="1" opacity="1" d="M 32 224 Q 35 223 34 226 Q 31 227 32 224 Z "></path><path fill="rgb(216,217,215)" stroke="rgb(216,217,215)" stroke-width="1" opacity="1" d="M 36.5 226 L 37.5 228 L 36.5 226 Z "></path><path fill="rgb(216,217,215)" stroke="rgb(216,217,215)" stroke-width="1" opacity="1" d="M 48.5 226 L 51 226.5 L 48.5 227 L 48.5 226 Z "></path><path fill="rgb(216,217,215)" stroke="rgb(216,217,215)" stroke-width="1" opacity="1" d="M 67.5 242 L 69 244.5 L 67 243.5 L 67.5 242 Z "></path><path fill="rgb(216,217,215)" stroke="rgb(216,217,215)" stroke-width="1" opacity="1" d="M 70.5 248 L 72 250.5 L 70 249.5 L 70.5 248 Z "></path><path fill="rgb(216,217,215)" stroke="rgb(216,217,215)" stroke-width="1" opacity="1" d="M 76.5 255 L 78 257.5 L 77 257.5 L 76.5 255 Z "></path><path fill="rgb(216,217,215)" stroke="rgb(216,217,215)" stroke-width="1" opacity="1" d="M 80 261 L 82 261 L 84 265 L 82 265 L 80 261 Z "></path><path fill="rgb(4,115,253)" stroke="rgb(4,115,253)" stroke-width="1" opacity="0.9372549019607843" d="M 300 194 Q 303 193 302 196 Q 299 197 300 194 Z "></path><path fill="rgb(4,115,253)" stroke="rgb(4,115,253)" stroke-width="1" opacity="0.9372549019607843" d="M 364 197 Q 367 196 366 199 Q 363 200 364 197 Z "></path><path fill="rgb(4,115,253)" stroke="rgb(4,115,253)" stroke-width="1" opacity="0.9372549019607843" d="M 381 200 Q 384 199 383 202 Q 380 203 381 200 Z "></path><path fill="rgb(4,115,253)" stroke="rgb(4,115,253)" stroke-width="1" opacity="0.9372549019607843" d="M 215 219 L 226 220 Q 224.8 223 228.5 222 Q 235.7 223.3 239.5 228 L 242 228 Q 240.9 230.7 243.5 230 L 248.5 233 L 259 236 Q 257.9 238.7 260.5 238 L 273.5 245 L 276 245 Q 274.9 247.7 277.5 247 L 289 253 L 290.5 256 L 301 261 Q 299.9 263.7 302.5 263 L 313 270.5 Q 312.3 272.8 314.5 272 L 320 275.5 Q 320.5 281.1 324.5 283 L 328 284.5 L 327.5 286 L 315.5 286 L 305 279.5 Q 305.8 277.3 303.5 278 L 294 272 L 292.5 269 L 280 263 Q 281.1 260.3 278.5 261 L 267 255 Q 268.3 252 264.5 253 L 252 247 Q 253.3 244 249.5 245 L 231 238 Q 232.1 235.3 229.5 236 L 226.5 234 L 214 232 L 212 224.5 L 213 222 Q 216.3 223.1 215 219 Z "></path><path fill="rgb(4,115,253)" stroke="rgb(4,115,253)" stroke-width="1" opacity="0.9372549019607843" d="M 199 241 Q 202 240 201 243 L 194 244 Q 195.3 247 191.5 246 L 190 246.5 L 190 243 L 198.5 243 L 199 241 Z "></path><path fill="rgb(4,115,253)" stroke="rgb(4,115,253)" stroke-width="1" opacity="0.9372549019607843" d="M 169 253 Q 172 252 171 255 Q 168 256 169 253 Z "></path><path fill="rgb(4,115,253)" stroke="rgb(4,115,253)" stroke-width="1" opacity="0.9372549019607843" d="M 357.5 257 L 361 257.5 L 357.5 258 L 357.5 257 Z "></path><path fill="rgb(4,115,253)" stroke="rgb(4,115,253)" stroke-width="1" opacity="0.9372549019607843" d="M 363 258 Q 367.1 256.7 366 260 Q 361.9 261.3 363 258 Z "></path><path fill="rgb(4,115,253)" stroke="rgb(4,115,253)" stroke-width="1" opacity="0.9372549019607843" d="M 138 269 Q 141 268 140 271 Q 137 272 138 269 Z "></path><path fill="rgb(4,115,253)" stroke="rgb(4,115,253)" stroke-width="1" opacity="0.9372549019607843" d="M 118 278 Q 121 277 120 280 Q 117 281 118 278 Z "></path><path fill="rgb(4,115,253)" stroke="rgb(4,115,253)" stroke-width="1" opacity="0.9372549019607843" d="M 77 297 Q 80 296 79 299 Q 76 300 77 297 Z "></path><path fill="rgb(4,115,253)" stroke="rgb(4,115,253)" stroke-width="1" opacity="0.9372549019607843" d="M 57 306 Q 60 305 59 308 Q 56 309 57 306 Z "></path><path fill="rgb(62,253,4)" stroke="rgb(62,253,4)" stroke-width="1" opacity="0.996078431372549" d="M 321.5 119 Q 326.8 117.8 328 120.5 L 329 122.5 L 330 252.5 L 331 253.5 L 332 280.5 Q 331.3 282.8 327.5 282 L 323 279.5 L 320 274.5 L 320 260.5 L 319 259.5 L 319 257.5 L 319 224.5 L 318 223.5 L 318 221.5 L 319 219.5 L 318 212.5 L 319 210.5 L 319 204.5 L 318 202.5 L 319 197.5 L 318 195.5 L 318 191.5 L 319 189.5 L 319 122.5 L 321.5 119 Z "></path><path fill="rgb(53,171,209)" stroke="rgb(53,171,209)" stroke-width="1" opacity="0.996078431372549" d="M 64 20 Q 68.5 18.5 67 23 Q 62.5 24.5 64 20 Z "></path><path fill="rgb(53,171,209)" stroke="rgb(53,171,209)" stroke-width="1" opacity="0.996078431372549" d="M 173 169 Q 177.5 167.5 176 172 L 172.5 173 L 173 171.5 L 173 169 Z "></path><path fill="rgb(53,171,209)" stroke="rgb(53,171,209)" stroke-width="1" opacity="0.996078431372549" d="M 170.5 173 L 170 174.5 L 169 202 L 167 202.5 L 167 221.5 L 165.5 222 L 165.5 223 L 167 223.5 L 164 224 L 162.5 227 L 157 228 L 155.5 231 L 151 232 Q 152.3 235 148.5 234 L 145 236 Q 146 239 143 238 Q 141.9 235.3 144.5 236 L 146 234.5 L 148 200 L 150 199.5 L 150 189.5 L 151 183 L 161 180 Q 159.5 176.3 162.5 177 L 170.5 173 Z "></path><path fill="rgb(53,171,209)" stroke="rgb(53,171,209)" stroke-width="1" opacity="0.996078431372549" d="M 147.5 185 L 148 187.5 L 147 187.5 L 147.5 185 Z "></path><path fill="rgb(53,171,209)" stroke="rgb(53,171,209)" stroke-width="1" opacity="0.996078431372549" d="M 142.5 189 L 141.5 191 L 140 190.5 L 142.5 189 Z "></path><path fill="rgb(53,171,209)" stroke="rgb(53,171,209)" stroke-width="1" opacity="0.996078431372549" d="M 135 192 Q 138 191 137 194 Q 134 195 135 192 Z "></path><path fill="rgb(53,171,209)" stroke="rgb(53,171,209)" stroke-width="1" opacity="0.996078431372549" d="M 330.5 193 L 331 252.5 L 330 252.5 L 330.5 193 Z "></path><path fill="rgb(53,171,209)" stroke="rgb(53,171,209)" stroke-width="1" opacity="0.996078431372549" d="M 132.5 194 L 134 194.5 L 132 195 L 129 244 L 127 244.5 L 129 245 Q 130.3 248 126.5 247 L 123 248 L 121.5 251 L 114 253 L 112.5 256 L 110 256 Q 111.3 259 107.5 258 L 102.5 261 L 104 258.5 Q 102.5 251.5 106 252.5 L 106 245.5 L 107 244.5 L 107 236 L 109 235.5 L 109 228.5 L 110 227.5 L 111 210 L 113 210 L 113 206 L 114.5 206 L 117 205 Q 115.9 202.3 118.5 203 L 122 202 Q 120.8 199 124.5 200 Q 126.5 196.8 131 197 L 132.5 194 Z "></path><path fill="rgb(53,171,209)" stroke="rgb(53,171,209)" stroke-width="1" opacity="0.996078431372549" d="M 318.5 197 L 319 201.5 L 318 201.5 L 318.5 197 Z "></path><path fill="rgb(53,171,209)" stroke="rgb(53,171,209)" stroke-width="1" opacity="0.996078431372549" d="M 107 208 Q 110 207 109 210 L 106.5 211 L 107 209.5 L 107 208 Z "></path><path fill="rgb(53,171,209)" stroke="rgb(53,171,209)" stroke-width="1" opacity="0.996078431372549" d="M 176 208 L 179 208.5 L 176 210.5 L 175.5 214 L 175 210.5 L 176 208 Z "></path><path fill="rgb(53,171,209)" stroke="rgb(53,171,209)" stroke-width="1" opacity="0.996078431372549" d="M 175.5 215 L 178 216.5 L 176.5 219 L 177 217.5 Q 177.8 215.3 175.5 216 L 175.5 215 Z "></path><path fill="rgb(53,171,209)" stroke="rgb(53,171,209)" stroke-width="1" opacity="0.996078431372549" d="M 94.5 218 Q 97.3 219.3 95 220.5 L 95.5 265 L 96 263 Q 99 262 98 265 L 94 266 L 94.5 218 Z "></path><path fill="rgb(53,171,209)" stroke="rgb(53,171,209)" stroke-width="1" opacity="0.996078431372549" d="M 318.5 224 L 319 255.5 L 318 255.5 L 318.5 224 Z "></path><path fill="rgb(53,171,209)" stroke="rgb(53,171,209)" stroke-width="1" opacity="0.996078431372549" d="M 140.5 238 L 142 238.5 L 139.5 240 L 140.5 238 Z "></path><path fill="rgb(53,171,209)" stroke="rgb(53,171,209)" stroke-width="1" opacity="0.996078431372549" d="M 131.5 243 L 130.5 245 L 131.5 243 Z "></path><path fill="rgb(53,171,209)" stroke="rgb(53,171,209)" stroke-width="1" opacity="0.996078431372549" d="M 331.5 258 L 332 268.5 L 331 268.5 L 331.5 258 Z "></path><path fill="rgb(53,171,209)" stroke="rgb(53,171,209)" stroke-width="1" opacity="0.996078431372549" d="M 319.5 260 L 320 273.5 L 319 273.5 L 319.5 260 Z "></path><path fill="rgb(53,171,209)" stroke="rgb(53,171,209)" stroke-width="1" opacity="0.996078431372549" d="M 332 274 L 334 274.5 L 334 282 L 332 281.5 L 332 274 Z "></path><path fill="rgb(53,171,209)" stroke="rgb(53,171,209)" stroke-width="1" opacity="0.996078431372549" d="M 320.5 275 L 324.5 281 L 328 282.5 L 327.5 284 L 322 280.5 L 320.5 275 Z "></path><path fill="rgb(53,171,209)" stroke="rgb(53,171,209)" stroke-width="1" opacity="0.996078431372549" d="M 323 286 Q 328.2 284.3 327 288 Q 321.8 289.7 323 286 Z "></path><path fill="rgb(53,171,209)" stroke="rgb(53,171,209)" stroke-width="1" opacity="0.996078431372549" d="M 306.5 294 L 306 295.5 L 304.5 298 L 305 296.5 L 306.5 294 Z "></path><path fill="rgb(53,171,209)" stroke="rgb(53,171,209)" stroke-width="1" opacity="0.996078431372549" d="M 327.5 294 L 327 295.5 L 325.5 298 L 324 297.5 L 326 297 L 327.5 294 Z "></path><path fill="rgb(53,171,209)" stroke="rgb(53,171,209)" stroke-width="1" opacity="0.996078431372549" d="M 299.5 300 L 301 300.5 L 297.5 303 L 299.5 300 Z "></path><path fill="rgb(53,171,209)" stroke="rgb(53,171,209)" stroke-width="1" opacity="0.996078431372549" d="M 314.5 305 L 312.5 308 L 314.5 305 Z "></path><path fill="rgb(53,171,209)" stroke="rgb(53,171,209)" stroke-width="1" opacity="0.996078431372549" d="M 307.5 310 L 309 310.5 L 307 311 L 305.5 314 L 306 312.5 L 307.5 310 Z "></path><path fill="rgb(53,171,209)" stroke="rgb(53,171,209)" stroke-width="1" opacity="0.996078431372549" d="M 269.5 319 L 269 320.5 L 268.5 322 L 268 320.5 L 269.5 319 Z "></path><path fill="rgb(53,171,209)" stroke="rgb(53,171,209)" stroke-width="1" opacity="0.996078431372549" d="M 256.5 328 L 257 329.5 L 249 336 L 247.5 339 L 248 337.5 L 249.5 335 L 256 329.5 L 256.5 328 Z "></path><path fill="rgb(53,171,209)" stroke="rgb(53,171,209)" stroke-width="1" opacity="0.996078431372549" d="M 277.5 330 L 276.5 332 L 277.5 330 Z "></path><path fill="rgb(53,171,209)" stroke="rgb(53,171,209)" stroke-width="1" opacity="0.996078431372549" d="M 273.5 332 L 272.5 334 L 273.5 332 Z "></path><path fill="rgb(53,171,209)" stroke="rgb(53,171,209)" stroke-width="1" opacity="0.996078431372549" d="M 264.5 339 L 261.5 343 L 264.5 339 Z "></path><path fill="rgb(53,171,209)" stroke="rgb(53,171,209)" stroke-width="1" opacity="0.996078431372549" d="M 239.5 344 L 239 345.5 L 238.5 347 L 238 345.5 L 239.5 344 Z "></path><path fill="rgb(53,171,209)" stroke="rgb(53,171,209)" stroke-width="1" opacity="0.996078431372549" d="M 256.5 347 L 255.5 349 L 256.5 347 Z "></path><path fill="rgb(53,171,209)" stroke="rgb(53,171,209)" stroke-width="1" opacity="0.996078431372549" d="M 224 370 Q 227 369 226 372 Q 223 373 224 370 Z "></path><path fill="rgb(0,152,253)" stroke="rgb(0,152,253)" stroke-width="1" opacity="0.9882352941176471" d="M 176 169 Q 179 167.8 178 171.5 L 179 175.5 L 178 175.5 L 178 172 Q 174.7 173.1 176 169 Z "></path><path fill="rgb(0,152,253)" stroke="rgb(0,152,253)" stroke-width="1" opacity="0.9882352941176471" d="M 173 173 L 177 173.5 L 177 207.5 L 175 213 L 172 214.5 L 172.5 216 L 175.5 214 L 174.5 216 Q 172.3 215.3 173 217.5 L 169 220.5 Q 169.7 223.1 167 222 L 167 206.5 L 169 205.5 L 169 185.5 L 170 184.5 L 170 175 Q 174.1 176.3 173 173 Z M 172 177 Q 170 182 176 180 Q 178 175 172 177 Z M 173 183 L 173 189 L 176 189 L 176 183 L 173 183 Z M 173 189 Q 170 190 171 194 L 171 195 L 173 194 L 173 189 Z "></path><path fill="rgb(0,152,253)" stroke="rgb(0,152,253)" stroke-width="1" opacity="0.9882352941176471" d="M 150.5 184 L 151 187.5 L 150 188.5 L 150 199 L 148 199.5 L 148 210.5 L 147 211.5 L 146 233.5 L 145 236 L 142.5 235 L 139 236 L 137.5 239 L 132 240 Q 133 243 130 242 L 130 244.5 L 129 244.5 L 129 232.5 L 130 231.5 L 130 220.5 L 131 219.5 L 131 203.5 L 132 197 Q 134.7 195.9 134 198.5 L 135 198.5 Q 133.4 192.8 139 195 Q 137.9 198.3 142 197 L 142 194 Q 137.9 195.3 139 192 L 142 192 Q 140.9 195.3 145 194 Q 146.1 191.3 143.5 192 L 143.5 191 L 150 188 L 150.5 184 Z M 145 200 L 146 205 L 147 205 Q 149 199 145 200 Z M 135 202 L 134 208 L 135 208 L 135 202 Z M 143 210 L 143 218 L 145 218 L 145 211 L 143 210 Z M 132 222 L 131 226 L 132 226 L 132 222 Z M 143 228 Q 142 232 145 231 Q 146 227 143 228 Z M 143 232 Q 142 235 145 234 Q 146 231 143 232 Z M 130 236 L 130 238 Q 131 240 135 239 L 135 238 L 132 238 Q 133 235 130 236 Z "></path><path fill="rgb(0,152,253)" stroke="rgb(0,152,253)" stroke-width="1" opacity="0.9882352941176471" d="M 305 188 L 313.5 188 Q 312.5 191 317.5 190 L 317.5 191 L 307 190 L 307 196 L 305 196 Q 306.3 200.1 303 199 L 302.5 196 L 299 197 Q 300.3 200 296.5 199 L 293 200 L 293 202 L 288.5 202 L 288 204 L 285.5 204 L 282 205 Q 283.3 208 279.5 207 L 275 208 Q 276.3 211 272.5 210 L 268 211 Q 269.3 214 265.5 213 L 261 214 L 261 216 L 258 216 Q 259.3 219 255.5 218 L 252 219 Q 253.3 222.7 247.5 221 L 244 222 Q 245.3 225 241.5 224 L 238 225 L 237.5 227 L 236 224 L 240.5 224 L 241 222 L 243.5 222 L 247 221 Q 245.8 218 249.5 219 L 254 218 L 254 216 Q 258.1 217.3 257 214 L 260.5 214 L 265 213 Q 263.8 210 267.5 211 L 271 210 Q 269.8 207 273.5 208 L 277 207 Q 275.6 203.3 281.5 205 L 285 204 L 285 202 L 288 202 Q 286.8 199 290.5 200 L 294 199 Q 292.8 196 296.5 197 L 302 196 Q 300.9 192.7 305 194 L 305 188 Z "></path><path fill="rgb(0,152,253)" stroke="rgb(0,152,253)" stroke-width="1" opacity="0.9882352941176471" d="M 331.5 191 L 332 193 L 349 194 L 349.5 196 L 356.5 196 L 357.5 197 L 364 197 L 364.5 199 L 373.5 199 L 374.5 200 L 381 200 L 381.5 202 L 390.5 202 Q 389.7 205.4 398.5 204 L 400 206.5 L 399 206.5 L 398.5 205 L 391.5 205 L 390.5 204 L 381 204 L 381 202 L 374.5 202 L 373.5 200 L 364.5 200 L 363.5 199 L 357 199 L 356.5 197 L 347.5 197 L 346.5 196 L 339 196 Q 340.1 192.5 332.5 194 L 331.5 191 Z "></path><path fill="rgb(0,152,253)" stroke="rgb(0,152,253)" stroke-width="1" opacity="0.9882352941176471" d="M 109.5 208 Q 112.3 210.7 111 217.5 L 110 218.5 L 109 236 L 107 236.5 L 107 243.5 L 106 244.5 L 106 252 Q 102 250.6 104 257.5 L 102.5 260 Q 99.5 258.5 101 252.5 L 102 251.5 L 102 219.5 L 98 218 Q 96.8 215 100.5 216 L 100.5 214 L 102.5 215 L 107 212.5 Q 106.3 209.9 109 211 L 109.5 208 Z M 106 218 L 106 222 L 109 223 L 109 218 L 106 218 Z M 107 230 L 106 235 L 107 235 L 107 230 Z M 104 240 Q 103 244 106 243 Q 107 239 104 240 Z "></path><path fill="rgb(0,152,253)" stroke="rgb(0,152,253)" stroke-width="1" opacity="0.9882352941176471" d="M 98.5 219 L 100 219.5 L 100 263 L 98 263 Q 98.8 259.9 96 260.5 L 96 220 L 98.5 219 Z "></path><path fill="rgb(0,152,253)" stroke="rgb(0,152,253)" stroke-width="1" opacity="0.9882352941176471" d="M 216 233 L 221 233 L 221 235 L 215 236 Q 216.3 239 212.5 238 L 207 239 L 207 241 L 204 241 Q 205.3 244 201.5 243 L 199.5 244 L 199.5 243 Q 202.1 243.7 201 241 L 204 241 L 204 239 L 206.5 239 L 210 238 Q 208.8 235 212.5 236 L 216 235 L 216 233 Z "></path><path fill="rgb(0,152,253)" stroke="rgb(0,152,253)" stroke-width="1" opacity="0.9882352941176471" d="M 187 247 Q 191.1 245.7 190 249 L 183 250 Q 184.3 253 180.5 252 L 177 253 L 177 255 Q 172.9 253.7 174 257 L 169.5 257 L 166 258 Q 167.3 261 163.5 260 L 160 261 Q 161.3 264 157.5 263 L 154 264 Q 155.3 267 151.5 266 L 146 267 L 146 269 L 143 269 Q 144.3 272 140.5 271 L 137 272 Q 138.3 275 134.5 274 L 130 275 Q 131.3 278.3 126.5 277 L 123 278 L 123 280 Q 118.9 278.7 120 282 L 116.5 282 L 113 283 Q 114.3 286 110.5 285 L 105 286 Q 106.3 289 102.5 288 L 99 289 Q 100.3 292 96.5 291 L 93 292 L 93 294 Q 88.9 292.7 90 296 L 85.5 296 L 82 297 Q 83.3 300 79.5 299 L 76 300 Q 77.3 303 73.5 302 L 68 303 Q 69.3 306 65.5 305 L 62 306 L 62 308 L 59 308 Q 60.3 311 56.5 310 L 52 311 Q 53.3 314.3 48.5 313 L 45 314 Q 46.3 317 42.5 316 L 38 317 Q 39.3 320 35.5 319 L 31 320 L 31 322 Q 26.9 320.7 28 324 L 24.5 324 L 21 325 L 20 331 Q 16.7 329.7 18 334.5 L 17 339 Q 13.7 337.9 15 342 L 18 342 L 18 345 L 23 345 L 23 346.5 L 24 352 Q 29.2 349.9 28 354.5 L 29 358 Q 32.1 358.8 31.5 356 L 38 356 Q 36.7 359.3 41.5 358 L 45 359 L 45 361 L 48 361 Q 46.8 364 50.5 363 L 54 364 Q 52.8 367 56.5 366 L 60 367 Q 58.8 370 62.5 369 L 67 370 Q 65.7 373.3 70.5 372 L 74 373 L 74 375 Q 78.1 373.7 77 377 L 80.5 377 L 84 378 Q 82.8 381 86.5 380 L 90 381 Q 88.8 384 92.5 383 L 96 384 L 96 386 L 99 386 Q 97.8 389 101.5 388 L 107 389 Q 105.8 392 109.5 391 L 113 392 Q 111.8 395 115.5 394 L 120 395 Q 118.8 398 122.5 397 L 126 398 L 126 400 L 121 400 Q 122.3 397 118.5 398 L 115 397 Q 116.3 394 112.5 395 L 109 394 Q 110.3 390.7 105.5 392 L 102 391 Q 103.3 388 99.5 389 L 96 388 L 96 386 L 91 386 L 91 384.5 Q 89.6 381.8 85 383 Q 86.3 380 82.5 381 L 79 380 Q 80.3 377 76.5 378 L 73 377 L 73 375 L 70 375 Q 71.3 372 67.5 373 L 63 372 Q 64.3 369 60.5 370 L 57 369 Q 58.3 366 54.5 367 L 49 366 Q 50.3 363 46.5 364 L 43 363 L 43 361 L 40 361 Q 41.3 358 37.5 359 Q 36.2 356.8 31.5 358 L 29.5 359 L 28 356 Q 24.7 357.1 26 353 L 23.5 353 L 21 352 Q 19.9 349.3 22.5 350 L 22.5 349 Q 19.9 349.7 21 347 L 18 347 L 18 345.5 L 15 344 Q 16 341 13 342 L 13 338 L 15 338 Q 13.7 333.9 17 335 L 17 330.5 L 18 325 L 24 324 L 24 322 L 28 322 Q 26.8 319 30.5 320 L 34 319 Q 32.7 315.7 37.5 317 L 42 316 Q 40.8 313 44.5 314 L 48 313 Q 46.8 310 50.5 311 L 54 310 L 54 308 L 58.5 308 L 59 306 L 61.5 306 L 65 305 Q 63.8 302 67.5 303 L 71 302 Q 69.8 299 73.5 300 L 79 299 Q 77.8 296 81.5 297 L 85 296 L 85 294 L 88 294 Q 86.8 291 90.5 292 L 95 291 Q 93.7 287.7 98.5 289 L 102 288 Q 100.8 285 104.5 286 L 109 285 Q 107.8 282 111.5 283 L 115 282 L 115 280 L 119.5 280 L 120 278 L 122.5 278 L 126 277 Q 124.8 274 128.5 275 L 132 274 Q 130.8 271 134.5 272 L 140 271 L 140 269 L 143 269 Q 141.8 266 145.5 267 L 149 266 Q 147.8 263 151.5 264 L 155 263 Q 153.7 259.3 159.5 261 L 162 260 Q 160.8 257 164.5 258 L 166 255 L 171 255 Q 169.9 252.3 172.5 253 L 177 252 Q 175.6 248 182.5 250 L 187 249 L 187 247 Z "></path><path fill="rgb(0,152,253)" stroke="rgb(0,152,253)" stroke-width="1" opacity="0.9882352941176471" d="M 388 267 L 398.5 267 L 399 269 L 388.5 269 L 388 267 Z "></path><path fill="rgb(0,152,253)" stroke="rgb(0,152,253)" stroke-width="1" opacity="0.9882352941176471" d="M 335.5 284 L 336 288.5 L 335 288.5 L 335.5 284 Z "></path><path fill="rgb(0,152,253)" stroke="rgb(0,152,253)" stroke-width="1" opacity="0.9882352941176471" d="M 334.5 290 L 333.5 292 L 331.5 293 L 332.5 291 L 334.5 290 Z "></path><path fill="rgb(0,152,253)" stroke="rgb(0,152,253)" stroke-width="1" opacity="0.9882352941176471" d="M 162.5 296 Q 167.8 294.5 166 299 L 158.5 299 L 158 297 L 162.5 296 Z "></path><path fill="rgb(0,152,253)" stroke="rgb(0,152,253)" stroke-width="1" opacity="0.9882352941176471" d="M 320.5 300 L 319.5 302 L 320.5 300 Z "></path><path fill="rgb(0,152,253)" stroke="rgb(0,152,253)" stroke-width="1" opacity="0.9882352941176471" d="M 49 328 Q 52 327 51 330 Q 48 331 49 328 Z "></path><path fill="rgb(0,152,253)" stroke="rgb(0,152,253)" stroke-width="1" opacity="0.9882352941176471" d="M 73.5 338 Q 79.2 336.4 77 342 L 70 341 Q 68.8 338 72.5 339 L 73.5 338 Z "></path><path fill="rgb(0,152,253)" stroke="rgb(0,152,253)" stroke-width="1" opacity="0.9882352941176471" d="M 243.5 341 L 241.5 344 L 240 343.5 L 243.5 341 Z "></path><path fill="rgb(0,152,253)" stroke="rgb(0,152,253)" stroke-width="1" opacity="0.9882352941176471" d="M 257 345 Q 260 344 259 347 Q 256 348 257 345 Z "></path><path fill="rgb(0,152,253)" stroke="rgb(0,152,253)" stroke-width="1" opacity="0.9882352941176471" d="M 254.5 349 L 252.5 352 L 254.5 349 Z "></path><path fill="rgb(0,152,253)" stroke="rgb(0,152,253)" stroke-width="1" opacity="0.9882352941176471" d="M 246.5 356 L 245.5 358 L 246.5 356 Z "></path><path fill="rgb(0,152,253)" stroke="rgb(0,152,253)" stroke-width="1" opacity="0.9882352941176471" d="M 240.5 360 L 242 360.5 L 240 361 L 238.5 364 L 239 362.5 L 240.5 360 Z "></path><path fill="rgb(0,152,253)" stroke="rgb(0,152,253)" stroke-width="1" opacity="0.9882352941176471" d="M 234.5 366 L 233.5 368 L 230 370.5 L 229.5 372 L 229 370.5 L 234.5 366 Z "></path><path fill="rgb(0,153,255)" stroke="rgb(0,153,255)" stroke-width="1" opacity="1" d="M 178.5 169 L 179 171.5 L 178 175.5 L 179 176.5 L 179 206.5 L 177 207.5 L 177 173.5 L 173 173 Q 174.3 176 170.5 175 L 171.5 173 L 178 172 L 178.5 169 Z "></path><path fill="rgb(0,153,255)" stroke="rgb(0,153,255)" stroke-width="1" opacity="1" d="M 171.5 176 L 176 177 Q 177.6 181.9 172 180 L 171.5 176 Z "></path><path fill="rgb(0,153,255)" stroke="rgb(0,153,255)" stroke-width="1" opacity="1" d="M 173 183 L 176 183 L 176 189 Q 171.1 187.2 173 193.5 L 170.5 195 L 171 193.5 Q 170.3 189.3 173 188.5 L 173 183 Z "></path><path fill="rgb(0,153,255)" stroke="rgb(0,153,255)" stroke-width="1" opacity="1" d="M 148 185 Q 151 183.8 150 187.5 L 150.5 189 L 148.5 188 L 143 191.5 L 145 192 Q 146.1 195.3 142 194 L 142 197 L 139 197 Q 140.2 193.3 135 195 L 134.5 199 L 134 197 Q 131 198 132 195 L 137 194 Q 135.9 191.3 138.5 192 L 148 188 L 148 185 Z M 139 192 Q 138 195 142 194 Q 143 191 139 192 Z "></path><path fill="rgb(0,153,255)" stroke="rgb(0,153,255)" stroke-width="1" opacity="1" d="M 307 190 L 318 191 L 318 255.5 L 319 256.5 L 319 273.5 L 320 274.5 L 318.5 274 L 313 272 L 311.5 269 L 301 263 Q 302.1 260.3 299.5 261 L 289 254.5 Q 289.8 252.3 287.5 253 L 276 247 Q 277.3 244 273.5 245 Q 267.4 239.9 259 238 Q 260.3 235 256.5 236 L 242 230 Q 243.3 227 239.5 228 L 238 225 L 244 224 Q 242.8 221 246.5 222 L 252 221 Q 250.8 218 254.5 219 L 258 218 L 258 216 Q 262.1 217.3 261 214 L 264.5 214 L 268 213 Q 266.7 209.7 271.5 211 L 275 210 Q 273.7 206.7 278.5 208 L 282 207 Q 280.8 204 284.5 205 L 288 204 L 288 202 L 292.5 202 L 293 200 L 295.5 200 L 299 199 Q 297.8 196 301.5 197 L 303 196.5 Q 302 200.3 305 199 Q 304 194.8 307 195.5 L 307 190 Z "></path><path fill="rgb(0,153,255)" stroke="rgb(0,153,255)" stroke-width="1" opacity="1" d="M 331.5 193 L 332.5 194 L 339 194 L 339.5 196 L 346.5 196 L 347.5 197 L 357 197 Q 355.9 200.5 363.5 199 L 364.5 200 L 374 200 L 374 202 L 380.5 202 L 381.5 204 L 390.5 204 L 391.5 205 L 399 205 L 400 207.5 L 400 400 L 126.5 400 L 126 398 L 123.5 398 L 120 397 Q 121.3 393.7 116.5 395 L 113 394 Q 114.3 391 110.5 392 L 107 391 Q 108.3 387.3 102.5 389 L 99 388 L 99 386 L 96 386 Q 97.3 383 93.5 384 L 90 383 Q 91.3 380 87.5 381 L 84 380 Q 85.3 377 81.5 378 L 77 377 L 77 375 L 74 375 Q 75.3 372 71.5 373 L 67 372 Q 68.3 368.7 63.5 370 L 60 369 Q 61.3 366 57.5 367 L 54 366 Q 55.3 363 51.5 364 L 48 363 L 48 361 L 45 361 Q 46.3 358 42.5 359 L 38 358 L 37.5 356 L 31 356 Q 32 359 29 358 L 28 352 Q 22 354.3 24 347.5 L 23 345 L 18 345 L 18 342 Q 13.5 343.5 15 339 Q 18.3 340.3 17 335.5 L 18 331 Q 21 332.3 20 328.5 L 21 325 L 28 324 L 28 322 Q 32.1 323.3 31 320 L 34.5 320 L 38 319 Q 36.7 315.7 41.5 317 L 45 316 Q 43.8 313 47.5 314 L 52 313 Q 50.7 309.7 55.5 311 L 59 310 L 59 308 L 62 308 Q 60.8 305 64.5 306 L 68 305 Q 66.7 301.3 72.5 303 L 76 302 Q 74.8 299 78.5 300 L 82 299 Q 80.8 296 84.5 297 L 90 296 L 90 294 L 93 294 Q 91.8 291 95.5 292 L 99 291 Q 97.8 288 101.5 289 L 105 288 Q 103.7 284.3 109.5 286 L 113 285 Q 111.8 282 115.5 283 L 120 282 L 120 280 L 123 280 Q 121.8 277 125.5 278 L 130 277 Q 128.7 273.7 133.5 275 L 137 274 Q 135.8 271 139.5 272 L 143 271 L 143 269 Q 147.1 270.3 146 267 L 150.5 267 L 154 266 Q 152.8 263 156.5 264 L 160 263 Q 158.8 260 162.5 261 L 166 260 Q 164.8 257 168.5 258 L 174 257 L 174 255 L 177 255 Q 175.8 252 179.5 253 L 183 252 Q 181.7 248.7 186.5 250 L 190 249 L 191.5 246 L 194 246 L 194.5 244 L 200.5 244 L 204 243 L 204 241 Q 208.1 242.3 207 239 L 211.5 239 L 215 238 Q 213.8 235 217.5 236 L 221 235 Q 219.9 232.3 222.5 233 L 231 236 Q 229.8 239 233.5 238 L 246.5 244 L 252 245 Q 250.9 247.7 253.5 247 Q 258.7 252 267 253 Q 265.9 255.7 268.5 255 L 280 261 Q 278.9 263.7 281.5 263 L 294 270.5 Q 293.3 272.8 295.5 272 L 305 278 L 306.5 281 L 317 286 Q 318.3 289 314.5 288 L 310 291 L 308.5 294 L 305 295.5 L 301.5 300 L 295 303 L 293.5 306 L 284.5 311 L 282 311 Q 283.1 313.7 280.5 313 L 268 320.5 Q 268.8 323.1 265.5 322 L 256 328.5 L 250.5 335 L 248 336.5 L 244.5 341 L 238 345.5 L 238 347 L 236 347 Q 237.1 349.7 234.5 349 L 230 351 L 229 355 L 223 357 L 220 361.5 L 220 367.5 L 221 370 Q 224.1 369.3 223.5 372 L 230 372 L 232.5 368 L 240 362.5 Q 239.3 360.3 241.5 361 L 249 354.5 Q 248.3 352.3 250.5 353 L 259 347 L 261.5 343 Q 263.8 343.8 263 341.5 L 269 337.5 L 270.5 335 L 280 330 Q 278.9 327.3 281.5 328 L 294 322 Q 292.9 319.3 295.5 320 L 307 312.5 Q 306.3 310.3 308.5 311 L 317 305 L 318.5 302 L 327 296.5 L 329.5 293 L 335 290.5 L 336 284.5 Q 332.4 281.4 334 274 L 332 273.5 L 332 258.5 L 331 257.5 L 331.5 193 Z M 358 257 L 358 258 L 361 258 L 358 257 Z M 363 258 Q 362 261 366 260 Q 367 257 363 258 Z M 388 267 L 389 269 L 399 269 L 399 267 L 388 267 Z M 163 296 L 158 297 L 159 299 L 166 299 Q 168 295 163 296 Z M 49 328 Q 48 331 51 330 Q 52 327 49 328 Z M 74 338 L 73 339 Q 69 338 70 341 L 77 342 Q 79 336 74 338 Z "></path><path fill="rgb(0,153,255)" stroke="rgb(0,153,255)" stroke-width="1" opacity="1" d="M 145 200 Q 148.7 198.7 147 204.5 L 146 204.5 L 145 200 Z "></path><path fill="rgb(0,153,255)" stroke="rgb(0,153,255)" stroke-width="1" opacity="1" d="M 134.5 202 L 135 207.5 L 134 207.5 L 134.5 202 Z "></path><path fill="rgb(0,153,255)" stroke="rgb(0,153,255)" stroke-width="1" opacity="1" d="M 167 202 Q 170.7 200.8 169 206 Q 165.3 207.2 167 202 Z "></path><path fill="rgb(0,153,255)" stroke="rgb(0,153,255)" stroke-width="1" opacity="1" d="M 111.5 207 Q 114.5 206.2 113 210 Q 109.3 211.5 110 208.5 L 111.5 207 Z "></path><path fill="rgb(0,153,255)" stroke="rgb(0,153,255)" stroke-width="1" opacity="1" d="M 107.5 210 L 110 211.5 L 109.5 213 L 109 211 Q 106.3 209.9 107 212.5 L 106.5 215 L 103.5 214 L 98 216 Q 96.9 218.7 99.5 218 L 102 219 L 102 251.5 Q 99.5 253 101 258.5 L 102 261 L 100 260.5 L 100 219.5 L 98.5 219 L 96 220 L 96 260.5 Q 98.8 259.9 98 263 Q 95.3 261.9 96 264.5 L 95 264.5 L 95 220.5 L 96 219.5 L 96 217.5 Q 95.3 215.3 97.5 216 L 104 213 Q 102.8 210 106.5 211 L 107.5 210 Z "></path><path fill="rgb(0,153,255)" stroke="rgb(0,153,255)" stroke-width="1" opacity="1" d="M 143 210 L 145 210.5 L 145 218 L 143 217.5 L 143 210 Z "></path><path fill="rgb(0,153,255)" stroke="rgb(0,153,255)" stroke-width="1" opacity="1" d="M 173.5 213 Q 176.1 212.3 175 215 L 173 215.5 L 177 216 L 175.5 219 L 171 220 Q 172.1 222.7 169.5 222 L 165.5 223 L 165.5 222 Q 169.9 223.5 169 220.5 L 173 217.5 L 172 214.5 L 173.5 213 Z "></path><path fill="rgb(0,153,255)" stroke="rgb(0,153,255)" stroke-width="1" opacity="1" d="M 106 218 L 109 218 L 109 223 L 106 221.5 L 106 218 Z "></path><path fill="rgb(0,153,255)" stroke="rgb(0,153,255)" stroke-width="1" opacity="1" d="M 131.5 222 L 132 225.5 L 131 225.5 L 131.5 222 Z "></path><path fill="rgb(0,153,255)" stroke="rgb(0,153,255)" stroke-width="1" opacity="1" d="M 143 228 Q 146.3 226.9 145 231 Q 141.7 232.1 143 228 Z "></path><path fill="rgb(0,153,255)" stroke="rgb(0,153,255)" stroke-width="1" opacity="1" d="M 106.5 230 L 107 234.5 L 106 234.5 L 106.5 230 Z "></path><path fill="rgb(0,153,255)" stroke="rgb(0,153,255)" stroke-width="1" opacity="1" d="M 143 232 Q 145.7 230.9 145 233.5 L 145.5 235 L 143 234 L 143 232 Z "></path><path fill="rgb(0,153,255)" stroke="rgb(0,153,255)" stroke-width="1" opacity="1" d="M 142.5 235 L 143 238 L 137 240 Q 138.3 243 134.5 242 L 130.5 244 L 130 242 Q 133 243 132 240 L 134.5 240 L 134.5 239 Q 130.8 239.8 130 237.5 Q 129.3 234.9 132 236 Q 130.8 239 134.5 238 L 137.5 239 L 139 236 L 142.5 235 Z "></path><path fill="rgb(0,153,255)" stroke="rgb(0,153,255)" stroke-width="1" opacity="1" d="M 104 240 Q 107.3 238.9 106 243 Q 102.7 244.1 104 240 Z "></path></svg>