<svg width="400" height="400" version="1.1" xmlns="http://www.w3.org/2000/svg" desc="Created with imagetracer.js version 1.2.5"><path fill="rgb(0,0,0)" stroke="rgb(0,0,0)" stroke-width="1" opacity="0" d="M 0 0 L 393 0.5 L 381.5 4 L 341.5 23 L 324 36.5 Q 324.6 39.3 318.5 38 Q 301.7 41.2 291 50.5 L 297 64.5 L 297 67.5 L 288 80.5 L 278 100.5 L 272 115.5 L 272 120.5 Q 265.1 129.8 263 143 L 249.5 153 L 97.5 286 L 97 259 L 70.5 259 L 37 275.5 L 40 292.5 L 42.5 298 L 66.5 286 L 67 311 L 50.5 318 Q 42.6 325.6 31.5 330 L 10 347 L 10 349 Q 7.3 347.9 8 350.5 Q 2.1 355.1 0.5 364 L 0 0 Z "></path><path fill="rgb(0,0,0)" stroke="rgb(0,0,0)" stroke-width="1" opacity="0" d="M 399.5 67 L 400 400 L 17 399.5 L 59.5 362 L 67 357 L 67 389 L 97 389 L 97 334.5 L 100.5 334 L 141.5 323 L 142.5 324 L 150.5 324 L 154.5 324 L 156.5 323 L 157.5 324 L 170.5 324 L 173.5 323 Q 179 324.5 180.5 322 L 182.5 323 L 183.5 322 L 190.5 322 L 202.5 319 L 207.5 319 L 233.5 310 L 237.5 308 L 252 294.5 L 262 280.5 L 279 244.5 L 282 228.5 L 289 211.5 L 292 197.5 L 295 190.5 L 295 188.5 L 296 179.5 L 299 169 L 381.5 169 L 382 168.5 L 382 144 L 333 143.5 Q 349 132 362 117.5 L 376 96.5 L 379 87.5 L 379 83 L 382.5 82 L 399.5 67 Z "></path><path fill="rgb(0,0,0)" stroke="rgb(0,0,0)" stroke-width="1" opacity="0" d="M 258.5 189 Q 260.8 188.3 260 190.5 L 258 200.5 L 251 216.5 L 249 228.5 L 243 244.5 L 231 267.5 L 221.5 278 L 198.5 287 L 179.5 289 L 178.5 290 L 176.5 290 L 143 289.5 L 150 285 Q 148.9 282.3 151.5 283 L 173 265 Q 171.9 262.3 174.5 263 L 258.5 189 Z "></path><path fill="rgb(0,0,0)" stroke="rgb(0,0,0)" stroke-width="1" opacity="0" d="M 0.5 367 L 1 369.5 L 0 369.5 L 0.5 367 Z "></path><path fill="rgb(1,210,20)" stroke="rgb(1,210,20)" stroke-width="1" opacity="0.9921568627450981" d="M 399.5 0 L 400 24.5 L 383.5 39 L 379 40.5 L 380 41.5 L 373.5 48 L 369.5 50 L 368 47 L 379 41.5 L 377.5 41 L 365.5 47 L 360.5 43 L 347.5 38 L 327 36.5 L 343.5 24 L 381.5 6 L 399.5 0 Z "></path><path fill="rgb(1,210,20)" stroke="rgb(1,210,20)" stroke-width="1" opacity="0.9921568627450981" d="M 324.5 61 Q 338.6 60.4 345 67.5 L 347 70.5 L 265.5 141 L 266 139.5 L 277 107.5 L 289 82.5 L 297 69 Q 299.7 67.9 299 70.5 Q 300.8 73.8 302.5 70 L 315.5 63 L 324.5 61 Z "></path><path fill="rgb(1,210,20)" stroke="rgb(1,210,20)" stroke-width="1" opacity="0.9921568627450981" d="M 288.5 161 L 290 161.5 L 290 169 L 297 169 L 297 171.5 L 289 201.5 L 289 205.5 L 281 226.5 Q 279.4 240.9 274 251.5 L 258 283.5 L 239.5 304 L 233.5 308 L 207.5 317 L 191.5 320 L 184.5 320 L 183.5 321 L 173.5 321 L 172.5 322 L 138.5 322 L 96 333 L 96 329.5 L 102.5 323 L 138.5 292 L 175.5 292 L 176.5 291 L 185.5 291 L 196.5 289 L 220.5 281 L 230 271.5 L 236 262.5 L 249 234.5 L 252 220.5 L 260 198.5 L 264 182 L 265.5 182 L 288.5 161 Z "></path><path fill="rgb(1,210,20)" stroke="rgb(1,210,20)" stroke-width="1" opacity="0.9921568627450981" d="M 65.5 313 Q 67.8 312.3 67 314.5 L 10.5 364 L 3 369 Q 2 360.3 6 355.5 L 16.5 344 L 47.5 322 L 65.5 313 Z "></path><path fill="rgb(0,3,0)" stroke="rgb(0,3,0)" stroke-width="1" opacity="0.7058823529411765" d="M 292.5 49 L 292 50.5 L 291.5 52 L 291 50.5 L 292.5 49 Z "></path><path fill="rgb(0,3,0)" stroke="rgb(0,3,0)" stroke-width="1" opacity="0.7058823529411765" d="M 378.5 85 L 379 87.5 L 378 87.5 L 378.5 85 Z "></path><path fill="rgb(0,3,0)" stroke="rgb(0,3,0)" stroke-width="1" opacity="0.7058823529411765" d="M 372.5 102 L 371.5 104 L 372.5 102 Z "></path><path fill="rgb(0,3,0)" stroke="rgb(0,3,0)" stroke-width="1" opacity="0.7058823529411765" d="M 368.5 108 L 367.5 110 L 368.5 108 Z "></path><path fill="rgb(0,3,0)" stroke="rgb(0,3,0)" stroke-width="1" opacity="0.7058823529411765" d="M 366.5 111 L 364.5 114 L 366.5 111 Z "></path><path fill="rgb(0,3,0)" stroke="rgb(0,3,0)" stroke-width="1" opacity="0.7058823529411765" d="M 361.5 117 L 348.5 131 L 361.5 117 Z "></path><path fill="rgb(0,3,0)" stroke="rgb(0,3,0)" stroke-width="1" opacity="0.7058823529411765" d="M 343.5 134 L 341.5 137 L 343.5 134 Z "></path><path fill="rgb(0,3,0)" stroke="rgb(0,3,0)" stroke-width="1" opacity="0.7058823529411765" d="M 337.5 139 L 335.5 142 L 337.5 139 Z "></path><path fill="rgb(0,3,0)" stroke="rgb(0,3,0)" stroke-width="1" opacity="0.7058823529411765" d="M 96.5 259 L 97 288.5 L 96 288.5 L 96.5 259 Z "></path><path fill="rgb(0,3,0)" stroke="rgb(0,3,0)" stroke-width="1" opacity="0.7058823529411765" d="M 40.5 290 L 41 292.5 L 40 292.5 L 40.5 290 Z "></path><path fill="rgb(0,3,0)" stroke="rgb(0,3,0)" stroke-width="1" opacity="0.7058823529411765" d="M 41.5 295 L 43 297.5 L 41 296.5 L 41.5 295 Z "></path><path fill="rgb(0,3,0)" stroke="rgb(0,3,0)" stroke-width="1" opacity="0.7058823529411765" d="M 96.5 333 L 97 388.5 L 96 388.5 L 96.5 333 Z "></path><path fill="rgb(0,119,252)" stroke="rgb(0,119,252)" stroke-width="1" opacity="0.9490196078431372" d="M 399.5 25 L 400 64.5 L 400 66.5 L 396.5 70 L 382.5 82 L 379 83 Q 380.7 61.1 370 50.5 L 399.5 25 Z "></path><path fill="rgb(0,119,252)" stroke="rgb(0,119,252)" stroke-width="1" opacity="0.9490196078431372" d="M 346.5 71 Q 350.6 74.9 349 84.5 L 340 102.5 L 318.5 125 L 290 150.5 L 290 160.5 L 288.5 161 L 265.5 182 L 264 182 L 259.5 189 L 174.5 263 L 173 263 Q 174.1 265.7 171.5 265 L 150 283 Q 151.1 285.7 148.5 285 L 134.5 295 L 96.5 329 L 96 289.5 L 101.5 282 L 191.5 205 L 249.5 153 L 272.5 136 L 346.5 71 Z "></path><path fill="rgb(0,119,252)" stroke="rgb(0,119,252)" stroke-width="1" opacity="0.9490196078431372" d="M 66.5 315 L 67 357 L 59.5 362 L 16.5 400 L 0 400 L 0 370.5 L 2.5 370 L 66.5 315 Z "></path><path fill="rgb(0,0,0)" stroke="rgb(0,0,0)" stroke-width="1" opacity="1" d="M 326.5 37 L 347.5 38 Q 361.6 41.4 370 50.5 Q 380.9 61.1 379 84.5 Q 376.6 97.6 370 106.5 Q 359.1 122.1 344.5 134 L 333 143.5 L 382 144 L 382 168.5 L 381.5 169 L 290 169 L 290 150.5 L 296.5 144 L 335 108.5 Q 343.1 100.1 348 88.5 L 349 75.5 L 343.5 66 Q 337 60.5 324.5 61 L 315.5 63 L 300.5 72 L 298 68.5 L 298 65.5 L 292 50.5 L 306.5 42 L 326.5 37 Z "></path><path fill="rgb(0,0,0)" stroke="rgb(0,0,0)" stroke-width="1" opacity="1" d="M 71.5 259 L 95.5 259 L 96 259.5 L 96 389 L 67.5 389 L 67 388.5 L 67 286.5 L 65.5 286 L 42 297 L 37 275 L 71.5 259 Z "></path><path fill="rgb(1,215,17)" stroke="rgb(1,215,17)" stroke-width="1" opacity="0.3333333333333333" d="M 393.5 0 L 399 0.5 L 381.5 6 Q 368 14.5 351.5 20 Q 336.7 26.2 326.5 37 L 324.5 37 L 328.5 32 L 349.5 19 L 360.5 15 L 381.5 4 L 393.5 0 Z "></path><path fill="rgb(1,215,17)" stroke="rgb(1,215,17)" stroke-width="1" opacity="0.3333333333333333" d="M 379.5 40 L 381 40.5 L 367.5 48 L 366.5 46 L 379.5 40 Z "></path><path fill="rgb(1,215,17)" stroke="rgb(1,215,17)" stroke-width="1" opacity="0.3333333333333333" d="M 297.5 67 L 298 68.5 L 289 82.5 L 277 107.5 L 272 124.5 Q 266.6 131.8 265 142 L 263 141.5 Q 265.7 129.2 272 120.5 L 272 115.5 L 278 100.5 L 288 80.5 L 297.5 67 Z "></path><path fill="rgb(1,215,17)" stroke="rgb(1,215,17)" stroke-width="1" opacity="0.3333333333333333" d="M 297 169 Q 299.7 167.9 299 170.5 L 294 189.5 L 294 191.5 L 291 205.5 L 282 228.5 L 279 244.5 L 262 280.5 L 252 294.5 L 244.5 302 L 237.5 308 L 219.5 315 L 207.5 319 L 181.5 323 L 179.5 323 Q 174 321.5 172.5 324 L 170.5 324 L 157.5 324 L 156.5 323 L 154.5 324 L 150.5 324 L 142.5 324 L 141.5 323 L 109.5 332 L 97.5 334 L 98.5 332 L 114.5 329 L 138.5 322 L 172.5 322 L 173.5 321 L 183.5 321 L 184.5 320 L 191.5 320 L 207.5 317 L 233.5 308 Q 245.1 301.1 253 290.5 L 261 278.5 L 277 244.5 Q 280.6 222.6 289 205.5 L 289 201.5 L 292 193.5 L 297 169 Z "></path><path fill="rgb(1,215,17)" stroke="rgb(1,215,17)" stroke-width="1" opacity="0.3333333333333333" d="M 262.5 185 L 263 187.5 L 246 241.5 L 233 267.5 L 220.5 281 L 204.5 287 L 185.5 291 L 176.5 291 L 175.5 292 L 140.5 292 L 140.5 291 L 142.5 290 L 176.5 290 L 177.5 289 L 179.5 289 Q 211.5 288 228 271.5 L 235 260.5 L 247 234.5 L 251 216.5 L 258 200.5 L 260 188.5 L 262.5 185 Z "></path><path fill="rgb(1,215,17)" stroke="rgb(1,215,17)" stroke-width="1" opacity="0.3333333333333333" d="M 64.5 311 Q 68.3 310 67 313 L 52.5 319 L 36.5 329 Q 20.9 338.4 9 351.5 L 3 362.5 L 3 370 Q 0 371.3 1 367.5 L 1 363.5 L 3 356.5 L 8 349 L 10 349 Q 8.9 346.3 11.5 347 Q 19.9 336.9 31.5 330 L 64.5 311 Z "></path></svg>