<svg width="400" height="400" version="1.1" xmlns="http://www.w3.org/2000/svg" desc="Created with imagetracer.js version 1.2.5"><path fill="rgb(0,0,0)" stroke="rgb(0,0,0)" stroke-width="1" opacity="0" d="M 0 0 L 186.5 0 L 187 4 L 185 4.5 L 185 35 L 181 35 L 181 43 Q 177.3 41.8 179 47 L 175 47 L 175 55.5 L 173 56.5 L 173 64.5 L 170 65 L 170 72.5 L 167 73 L 167 80 L 164 80 L 164 87.5 L 162 88.5 L 162 95 L 158 95 Q 159.5 101.3 156 100.5 L 156 110 L 152 110 L 152 117.5 Q 148.5 116.7 150 123 L 146 123.5 L 146 158 L 150 158 L 150 163 Q 153.3 161.9 152 166 L 156 166 L 156 169 L 162 169 L 162.5 171 L 169.5 171 L 170.5 173 L 180.5 173 L 181.5 176 L 242.5 176 L 243.5 178 L 291.5 178 L 292.5 181 L 367.5 181 L 368.5 184 L 399.5 184 L 400 184.5 L 400 213 L 0 213 L 0 0 Z "></path><path fill="rgb(0,0,0)" stroke="rgb(0,0,0)" stroke-width="1" opacity="0" d="M 222 0 L 400 0 L 400 153 L 368.5 153 L 367.5 151 L 295.5 151 L 294.5 148 L 240.5 148 L 239.5 145 L 187.5 145 L 187 143 L 181 143 L 181 134 L 185 134 L 185 128 L 187 127.5 L 187 118 L 191 118 L 191 108 L 193 108 L 193 103 L 196 102.5 L 196 93 L 199 93 L 199 88 L 202 88 L 202 78 L 205 78 L 205 73 L 208 73 L 208 60.5 L 210 59.5 L 210 52 L 214 52 Q 213 49 216 50 L 216 40 L 220 39.5 L 220 10.5 L 222 9.5 L 222 0 Z "></path><path fill="rgb(0,0,0)" stroke="rgb(0,0,0)" stroke-width="1" opacity="0" d="M 0 234 L 399.5 234 L 400 234.5 L 400 264 Q 395.8 265 396.5 262 L 226 262 L 225.5 264 L 208.5 264 L 207.5 266 L 193.5 266 L 192.5 269 L 181.5 269 L 181 271 L 170.5 271 L 169.5 273 L 152.5 273 L 152 277 L 144.5 277 L 143.5 279 L 135.5 279 L 135 282 Q 130.9 280.7 132 284 L 127.5 284 Q 128.3 287.3 123 286 Q 124 289 121 288 L 121 292 L 117 292 Q 118 295 115 294 L 115 299 L 111 299 Q 112 302 109 301 L 109 307 L 106 307 L 106 312 L 103 312.5 L 103 319 L 100 319 L 100 325 L 97 325 L 97 341.5 L 94 342.5 L 94 356.5 L 92 357.5 L 92 366.5 L 88 367 L 88 376.5 L 86 377.5 L 86 389.5 L 82 390 L 82 396.5 Q 79 395.8 80 400 L 0 400 L 0 234 Z "></path><path fill="rgb(0,0,0)" stroke="rgb(0,0,0)" stroke-width="1" opacity="0" d="M 231 292 L 390.5 292 L 391.5 294 L 400 294 L 400 400 L 117.5 400 L 117 399.5 L 117 392 L 121 392 L 121 382.5 L 123 381.5 L 123 372.5 L 127 371.5 L 127 360.5 L 129 359.5 L 129 342.5 L 132 341.5 L 132 332.5 L 135 332 L 135 325 L 138 325 L 138 319 L 141 319 L 141 314 L 144 314 Q 143 311 146 312 L 146 309 Q 151.3 310.3 150.5 307 L 162 307 L 162.5 304 L 178.5 304 L 179.5 301 L 190.5 301 L 191 299 L 201.5 299 L 202.5 297 L 215.5 297 L 216.5 294 L 230.5 294 L 231 292 Z "></path><path fill="rgb(21,116,234)" stroke="rgb(21,116,234)" stroke-width="1" opacity="0.21176470588235294" d="M 187 0 L 191 0.5 L 191 30 L 187 30 L 187 39.5 L 185 40.5 L 185 47 L 181 47 L 181 55.5 L 179 56.5 L 179 63 L 175 63 L 175 70.5 L 173 71.5 L 173 80 L 170 80.5 L 170 88 L 167 88 L 167 93 L 164 93 L 164 99.5 L 162 100.5 L 162 108 L 158 108 L 158 118 L 156 118 L 156 123 L 152 123.5 L 152 156 L 156 156 L 156 160 Q 159.3 158.9 158 163 Q 163.6 161.1 162 166 L 167 166 L 167 169 L 178.5 169 L 179.5 171 L 215.5 171 L 216.5 173 L 273.5 173 L 274.5 176 L 349.5 176 L 350.5 178 L 399.5 178 L 400 178.5 L 400 184 L 368.5 184 L 367.5 181 L 292.5 181 L 291.5 178 L 243.5 178 L 242.5 176 L 181.5 176 L 180.5 173 L 170.5 173 L 169.5 171 L 162.5 171 L 162 169 L 156 169 L 156 166 L 152 166 Q 153.3 161.9 150 163 L 150 158 L 146 158 L 146 123 L 150 123 Q 148.5 116.7 152 117.5 L 152 110 L 156 109.5 L 156 100 L 158 100 L 158 95 L 162 95 L 162 88.5 L 164 87.5 L 164 80 L 167 80 L 167 73 L 170 72.5 L 170 65 L 173 64.5 L 173 56.5 L 175 55.5 L 175 47 L 179 47 Q 177.8 41.7 181 42.5 L 181 35 L 185 35 L 185 4.5 Q 188.3 5.3 187 0 Z "></path><path fill="rgb(21,116,234)" stroke="rgb(21,116,234)" stroke-width="1" opacity="0.21176470588235294" d="M 216 0 L 222 0 L 222 10 L 220 10.5 L 220 39.5 L 216 40 L 216 50 Q 213 49 214 52 L 210 52 L 210 59.5 L 208 60.5 L 208 73 L 205 73 L 205 78 L 202 78 L 202 88 L 199 88 L 199 93 L 196 93 L 196 102.5 L 193 103 L 193 108 L 191 108 L 191 118 L 187 118 L 187 127.5 L 185 128 L 185 134 L 181 134 L 181 143 L 187 143 L 187.5 145 L 239.5 145 L 240.5 148 L 294.5 148 L 295.5 151 L 367.5 151 L 368.5 153 L 399.5 153 L 400 158 L 391.5 158 L 390.5 156 L 321.5 156 L 320.5 153 L 261.5 153 L 260.5 151 L 193.5 151 L 193 148 L 179.5 148 L 179 145 L 175 145 L 175 136 L 179 136 L 179 125.5 L 181 124.5 L 181 118 L 185 118 L 185 110.5 L 187 109.5 L 187 103 L 191 103 L 191 95.5 L 193 94.5 L 193 88 L 196 88 L 196 80 L 199 80 L 199 73 L 202 72.5 L 202 63 L 205 63 L 205 56 L 208 56 L 208 50 L 210 49.5 L 210 43 L 214 42.5 L 214 15.5 L 216 14.5 L 216 0 Z "></path><path fill="rgb(21,116,234)" stroke="rgb(21,116,234)" stroke-width="1" opacity="0.21176470588235294" d="M 226 262 L 396.5 262 Q 395.8 265 400 264 L 400 266 L 220.5 266 L 219.5 269 L 205.5 269 L 204.5 271 L 191.5 271 L 190.5 273 L 179.5 273 L 178.5 277 L 167.5 277 L 166.5 279 L 150.5 279 L 150 282 L 141.5 282 L 141 284 L 135 284 L 135 286 L 132 286 Q 133.1 289.3 129 288 L 129 292 L 123.5 292 Q 124.1 294.8 121 294 L 121 299 L 117 299 Q 118 302 115 301 L 115 307 L 111 307 L 111 311.5 Q 107.8 310.7 109 316 L 106 316 L 106 325 L 103 325.5 L 103 335.5 L 100 336.5 L 100 350.5 L 97 351.5 L 97 363.5 L 94 364.5 L 94 374.5 L 92 375.5 L 92 384 L 88 384 L 88 393.5 L 86 394 L 86 400 L 80 400 Q 79 395.8 82 396.5 L 82 390 L 86 389.5 L 86 377.5 L 88 376.5 L 88 367 L 92 366.5 L 92 357.5 L 94 356.5 L 94 342.5 L 97 341.5 L 97 325 L 100 325 L 100 319 L 103 319 L 103 312 L 106 312 L 106 307 L 109 307 L 109 301 Q 112 302 111 299 L 115 299 L 115 294 Q 118 295 117 292 L 121 292 L 121 288 Q 124 289 123 286 Q 128.3 287.3 127.5 284 L 132 284 Q 130.9 280.7 135 282 L 135.5 279 L 143.5 279 L 144.5 277 L 152 277 L 152.5 273 L 169.5 273 L 170 271 L 180.5 271 L 181.5 269 L 192.5 269 L 193.5 266 L 207.5 266 L 208.5 264 L 225.5 264 L 226 262 Z "></path><path fill="rgb(21,116,234)" stroke="rgb(21,116,234)" stroke-width="1" opacity="0.21176470588235294" d="M 234 286 L 382.5 286 L 383.5 288 L 400 288 L 400 294 L 391.5 294 L 390.5 292 L 231 292 L 230.5 294 L 216.5 294 L 215.5 297 L 202.5 297 L 202 299 L 191.5 299 L 190.5 301 L 179.5 301 L 178.5 304 L 162.5 304 L 162 307 L 150.5 307 Q 151.3 310.3 146 309 L 146 312 Q 143 311 144 314 L 141 314 L 141 319 L 138 319 L 138 325 L 135 325 L 135 332 L 132 332.5 L 132 341.5 L 129 342.5 L 129 359.5 L 127 360.5 L 127 371.5 L 123 372.5 L 123 381.5 L 121 382.5 L 121 392 L 117 392 L 117 400 L 111 400 L 111 394 L 115 393.5 L 115 384.5 L 117 383.5 L 117 375 L 121 374.5 L 121 364.5 L 123 363.5 L 123 349.5 L 127 348.5 L 127 334.5 L 129 333.5 L 129 327 L 132 327 L 132 319.5 L 135 319 L 135 314 L 138 314 Q 136.9 310.7 141 312 L 141 309 L 144 309 Q 143 306 146 307 L 146 304 L 152 304 L 152.5 301 L 163.5 301 L 164.5 299 L 180.5 299 L 181.5 297 L 190.5 297 L 191.5 294 L 204.5 294 L 205.5 292 L 219.5 292 L 220 288 L 233.5 288 L 234 286 Z "></path><path fill="rgb(246,46,100)" stroke="rgb(246,46,100)" stroke-width="1" opacity="1" d="M 0 213 L 399.5 213 L 400 213.5 L 400 234 L 0.5 234 L 0 233.5 L 0 213 Z "></path><path fill="rgb(23,120,232)" stroke="rgb(23,120,232)" stroke-width="1" opacity="0.9372549019607843" d="M 191 0 L 216 0 L 216 15 L 214 15.5 L 214 42.5 L 210 43 L 210 49.5 L 208 50 L 208 56 L 205 56 L 205 63 L 202 63 L 202 73 L 199 73 L 199 80 L 196 80.5 L 196 88 L 193 88 L 193 94.5 L 191 95.5 L 191 103 L 187 103 L 187 109.5 L 185 110.5 L 185 118 L 181 118 L 181 124.5 L 179 125.5 L 179 136 L 175 136.5 L 175 145 L 179 145 L 179.5 148 L 193 148 L 193.5 151 L 260.5 151 L 261.5 153 L 320.5 153 L 321.5 156 L 390.5 156 L 391.5 158 L 400 158 L 400 178 L 350.5 178 L 349.5 176 L 274.5 176 L 273.5 173 L 216.5 173 L 215.5 171 L 179.5 171 L 178.5 169 L 167.5 169 L 167 166 L 162 166 Q 163.6 161.1 158 163 Q 159.3 158.9 156 160 L 156 156 L 152 155.5 L 152 123 L 156 123 L 156 118 L 158 118 L 158 108 L 162 108 L 162 100.5 L 164 99.5 L 164 93 L 167 93 L 167 88 L 170 88 L 170 80.5 L 173 79.5 L 173 71.5 L 175 70.5 L 175 63 L 179 63 L 179 56.5 L 181 55.5 L 181 47 L 185 47 L 185 40.5 L 187 39.5 L 187 30 L 191 29.5 L 191 0 Z "></path><path fill="rgb(23,120,232)" stroke="rgb(23,120,232)" stroke-width="1" opacity="0.9372549019607843" d="M 220 266 L 399.5 266 L 400 266.5 L 400 288 L 383.5 288 L 382.5 286 L 234 286 L 233.5 288 L 220 288 L 219.5 292 L 205.5 292 L 204.5 294 L 191.5 294 L 190.5 297 L 181.5 297 L 180.5 299 L 164.5 299 L 163.5 301 L 152.5 301 L 152 304 L 146 304 L 146 307 Q 143 306 144 309 L 141 309 L 141 312 L 138 312 Q 139.1 315.3 135 314 L 135 319 L 132 319.5 L 132 327 L 129 327 L 129 333.5 L 127 334.5 L 127 348.5 L 123 349.5 L 123 363.5 L 121 364.5 L 121 375 L 117 375.5 L 117 383.5 L 115 384.5 L 115 394 L 111 394 L 111 399.5 L 110.5 400 L 86 400 L 86 394 L 88 393.5 L 88 384 L 92 384 L 92 375.5 L 94 374.5 L 94 364.5 L 97 363.5 L 97 351.5 L 100 350.5 L 100 336.5 L 103 335.5 L 103 325.5 L 106 324.5 L 106 316.5 L 109 316 Q 107.8 310.7 111 311.5 L 111 307 L 115 307 L 115 301 Q 118 302 117 299 L 121 299 L 121 294 Q 124 295 123 292 L 129 292 L 129 288 L 132 288 L 132 286 Q 136.1 287.3 135 284 L 141 284 L 141.5 282 L 150 282 L 150.5 279 L 166.5 279 L 167.5 277 L 178.5 277 L 179.5 273 L 190.5 273 L 191.5 271 L 204.5 271 L 205.5 269 L 219.5 269 L 220 266 Z "></path></svg>