<svg width="400" height="400" version="1.1" xmlns="http://www.w3.org/2000/svg" desc="Created with imagetracer.js version 1.2.5"><path fill="rgb(106,122,116)" stroke="rgb(106,122,116)" stroke-width="1" opacity="1" d="M 59.5 0 L 60 52.5 L 61.5 54 L 188 54.5 L 60 55 L 60 191.5 L 61.5 193 L 187.5 193 L 189 194.5 L 188.5 196 L 187.5 195 L 95.5 194 L 94.5 195 L 68.5 195 Q 67 192.5 61.5 194 Q 57.8 196.3 59 203.5 L 60 204.5 L 60 250.5 Q 62.7 252.2 61 258.5 L 60 259.5 L 60 284.5 L 59 285.5 L 59 328 L 61.5 329 L 83.5 329 L 85 330.5 L 66.5 331 Q 65 328.5 59.5 330 L 58 332.5 L 59 335.5 L 58 336.5 L 58 400 L 56 399.5 L 56 337.5 L 57 333.5 Q 55 329 46.5 331 L 45.5 332 L 25.5 333 L 24.5 332 L 2.5 332 L 0 330.5 L 19.5 330 L 20.5 331 L 29.5 331 L 30.5 330 L 46.5 330 L 47.5 329 L 57 329 L 57 310.5 L 58 309.5 L 57 307.5 L 58 306.5 L 58 266.5 L 59 265.5 L 59 223.5 L 58 222.5 L 58 195 L 55.5 194 L 0 193.5 L 56.5 193 L 58 191.5 L 58 171.5 L 59 170.5 L 59 58.5 L 58 56 L 0 55.5 L 41.5 55 L 42.5 54 L 59 54 L 59.5 0 Z "></path><path fill="rgb(106,122,116)" stroke="rgb(106,122,116)" stroke-width="1" opacity="1" d="M 343 0 L 345 0.5 L 345 53.5 L 346.5 55 L 400 55 L 399.5 57 L 378.5 57 L 377.5 56 L 358.5 56 L 356.5 57 L 355.5 56 L 347.5 56 L 345 57 L 345 190.5 L 346 194 L 350.5 195 L 351.5 194 L 372.5 194 L 374.5 194 L 377.5 195 L 400 195.5 L 384.5 196 L 382.5 197 L 381.5 196 L 347.5 196 Q 343.8 197.3 345 203.5 L 346 204.5 L 346 331 L 382.5 331 L 383.5 332 L 400 332 Q 401.4 336 394.5 334 L 393.5 333 L 345 333 L 345 388.5 L 344 389.5 L 343.5 400 L 343 360.5 L 344 359.5 L 344 336.5 L 343 334 L 298 333.5 L 299.5 332 L 344 332 L 344 196.5 L 343.5 196 L 336.5 196 L 335.5 195 L 249.5 195 L 248.5 194 L 225.5 194 L 224.5 195 L 215.5 195 L 214 192.5 L 215.5 193 L 313.5 193 L 314.5 194 L 342.5 194 L 344 192.5 L 344 60.5 L 343 57 Q 339.2 55.2 331.5 56 L 329.5 57 L 328.5 56 L 215.5 56 L 214 56.5 L 214.5 54 L 222.5 54 L 224.5 54 L 249.5 54 L 250.5 55 L 343 55 L 344 52.5 L 344 26.5 L 343 25.5 L 343 0 Z "></path><path fill="rgb(106,122,116)" stroke="rgb(106,122,116)" stroke-width="1" opacity="1" d="M 188.5 89 L 189 160.5 L 188 160.5 L 188.5 89 Z "></path><path fill="rgb(106,122,116)" stroke="rgb(106,122,116)" stroke-width="1" opacity="1" d="M 214.5 240 L 215 303.5 L 214 303.5 L 214.5 240 Z "></path><path fill="rgb(106,122,116)" stroke="rgb(106,122,116)" stroke-width="1" opacity="1" d="M 214.5 305 L 215 308.5 L 214 308.5 L 214.5 305 Z "></path><path fill="rgb(0,100,241)" stroke="rgb(0,100,241)" stroke-width="1" opacity="1" d="M 181.5 58 L 187 58.5 L 163.5 63 L 153.5 63 L 152.5 64 L 142.5 64 L 141.5 65 L 130.5 65 L 129.5 66 L 103.5 68 Q 88 71.5 80 82.5 L 75 92.5 L 70 120.5 L 71 123.5 Q 71.8 139.7 82.5 146 L 93.5 151 L 111.5 155 L 150.5 157 L 151.5 158 L 176.5 159 L 179.5 160 L 181.5 160 L 185.5 159 L 188 159.5 L 187.5 161 L 171.5 161 L 170.5 160 L 159.5 160 L 158.5 159 L 147.5 159 L 146.5 158 L 129.5 158 L 128.5 157 L 108.5 156 L 86.5 150 L 74 141.5 Q 66.3 132.7 69 113.5 L 72 104.5 L 72 96.5 L 74 89.5 L 83 76 Q 89.6 70.1 100.5 67 L 114.5 66 L 115.5 65 L 127.5 65 L 136.5 63 L 149.5 63 L 160.5 61 L 170.5 61 L 181.5 58 Z "></path><path fill="rgb(0,100,241)" stroke="rgb(0,100,241)" stroke-width="1" opacity="1" d="M 271.5 239 Q 286.5 237 292 244.5 L 296.5 250 L 303 255.5 L 306 263.5 L 307 274.5 L 312 295.5 L 312 310.5 L 308 323.5 L 300.5 332 L 297.5 333 L 299 330.5 L 300.5 328 Q 302.8 328.8 302 326.5 L 309 316.5 L 310 311.5 L 310 292.5 L 306 276.5 L 305 266.5 L 301 257 L 298 255.5 L 292.5 249 L 283 246 L 281.5 243 Q 278.3 239.2 269.5 241 L 262.5 243 L 250.5 243 L 249.5 244 L 248.5 243 L 216.5 242 L 215 240.5 L 221.5 240 L 231.5 242 L 261.5 242 L 271.5 239 Z "></path><path fill="rgb(0,100,241)" stroke="rgb(0,100,241)" stroke-width="1" opacity="1" d="M 86.5 330 L 108.5 336 L 124.5 337 L 125.5 338 L 138.5 338 L 140.5 339 L 142.5 339 L 168.5 339 L 177.5 341 L 188 341 Q 189.3 344.3 184.5 343 L 174.5 341 L 165.5 341 L 164.5 340 L 131.5 340 L 130.5 339 L 106.5 337 L 90.5 333 L 86.5 331 L 86.5 330 Z "></path><path fill="rgb(0,106,255)" stroke="rgb(0,106,255)" stroke-width="1" opacity="1" d="M 218.5 58 L 220.5 59 L 221.5 58 L 299.5 58 L 303 60.5 L 306.5 65 L 313 68 Q 311.9 70.7 314.5 70 Q 319 73.3 319 80 Q 322 78.8 321 82.5 L 324 87.5 L 326 98.5 L 326 100.5 L 325 105.5 L 326 107.5 L 325 109.5 L 326 111.5 L 323 123.5 L 323 125.5 Q 321 136 314.5 142 Q 312.3 141.3 313 143.5 L 297.5 153 L 295.5 152 L 292.5 154 Q 287 152.5 285.5 155 L 282.5 154 L 280.5 155 L 234.5 155 L 233.5 156 L 216 157 L 216 112.5 L 215 111.5 L 216 110.5 L 216 94.5 L 216 92.5 L 216 80.5 L 215 79.5 L 216 77.5 L 216 75.5 Q 217.8 69.3 215 67.5 L 216 64.5 Q 214.8 58.4 217.5 59 L 218.5 58 Z "></path><path fill="rgb(0,106,255)" stroke="rgb(0,106,255)" stroke-width="1" opacity="1" d="M 185.5 60 L 187 60.5 L 187 158.5 L 185.5 158 L 182.5 157 Q 180.5 161 178.5 157 Q 176.3 156.3 177 158.5 L 174.5 157 L 171.5 158 L 169.5 158 Q 163.2 158.8 160.5 156 L 157 157 L 156.5 155 L 152.5 157 L 149.5 155 L 148.5 156 L 140 156 L 139.5 154 L 138.5 156 L 136.5 154 Q 135 157.5 133.5 155 L 131.5 156 L 124.5 154 L 122.5 155 L 120.5 155 L 113.5 154 L 109.5 152 L 107.5 152 L 104.5 153 L 103.5 151 L 101 152 L 100.5 150 L 98.5 151 L 96 150.5 L 96.5 149 L 94.5 150 L 89.5 147 L 88 147.5 L 87.5 146 L 86 146.5 L 84.5 144 L 82 144 Q 83.1 141.3 80.5 142 L 80.5 141 L 82 140.5 L 77 137.5 L 74 132.5 L 74.5 131 Q 72.3 131.8 73 129.5 L 73 127.5 L 72 122.5 L 72 118.5 Q 71.3 114.3 74 113.5 L 73 111.5 L 74 109.5 Q 71.8 108.3 73 103.5 L 77 96.5 L 77 94.5 L 78 91.5 Q 75.5 90 79 88.5 L 81 85.5 L 83 81 L 91 77 Q 89.9 74.3 92.5 75 L 98 72.5 L 97.5 71 L 99.5 72 L 105.5 70 L 107 70.5 Q 106.2 67.9 109.5 69 L 111.5 69 L 113.5 68 L 115.5 68 L 117.5 69 L 121.5 67 L 124.5 68 L 130.5 66 L 132.5 67 L 135.5 66 L 137.5 67 L 142.5 65 L 144.5 65 L 149.5 66 L 154.5 64 L 157.5 65 L 159.5 64 L 161.5 64 L 172.5 63 L 179.5 61 L 183.5 62 L 185.5 60 Z "></path><path fill="rgb(0,106,255)" stroke="rgb(0,106,255)" stroke-width="1" opacity="1" d="M 132.5 239 L 136.5 239 L 140.5 240 L 142.5 240 L 150.5 240 L 151.5 241 L 153.5 240 L 161.5 242 Q 162.8 239.8 167.5 241 L 168.5 242 L 187 242 L 187 285.5 L 188 287.5 Q 185.5 289 187 294.5 L 187 298.5 L 188 300.5 L 187 305.5 L 188 307.5 L 187 308.5 L 187 317.5 L 187 319.5 Q 185.5 325 188 326.5 L 187 329.5 L 188 332.5 L 187 334.5 L 187 336.5 L 185.5 340 L 183.5 339 L 181.5 340 L 177.5 339 L 175.5 339 L 169.5 338 L 167.5 338 L 164.5 337 L 162.5 338 L 158.5 338 L 150.5 338 L 150 336.5 L 148.5 337 L 145.5 338 L 143.5 337 L 139.5 337 L 130.5 337 L 129.5 336 L 127.5 336 L 123.5 335 L 121.5 336 L 118.5 335 L 115.5 336 L 112.5 334 L 110 335 L 109.5 333 L 104.5 334 L 101.5 332 L 99.5 333 L 96.5 331 Q 95 333.5 93.5 330 L 86 328 Q 87.1 325.3 84.5 326 L 81 324 L 81 322 Q 78.3 323.1 79 320.5 L 77 317 Q 74 318.3 75 314.5 L 71 306.5 L 70 292.5 L 69 291.5 L 69 289.5 Q 66.8 274.8 73 268.5 L 72 267.5 L 75 264.5 Q 76.4 258.4 81.5 256 L 102.5 247 Q 112.1 246.6 117.5 242 L 132.5 239 Z "></path><path fill="rgb(0,106,255)" stroke="rgb(0,106,255)" stroke-width="1" opacity="1" d="M 216 243 L 219.5 244 L 223 243.5 L 223.5 245 L 224.5 243 L 225.5 244 L 236.5 244 L 237.5 245 L 239.5 244 L 241.5 244 L 246.5 245 L 248.5 245 L 251.5 244 L 254.5 245 L 256.5 244 L 258.5 244 L 262.5 245 L 263 243 L 266.5 244 L 267.5 243 L 275 243 L 275.5 245 Q 277 242.5 278.5 246 L 286.5 249 L 288.5 249 L 296 254.5 L 297.5 258 Q 300.1 257.2 299 260.5 L 304 267.5 L 308 290.5 L 308 292.5 L 309 296 L 307 296.5 L 309 297.5 L 309 299.5 Q 310.5 305 308 306.5 L 309 309.5 Q 309.8 311.8 307.5 311 L 307 313.5 L 306.5 315 L 305 314.5 Q 304.3 316.8 306.5 316 L 306.5 317 Q 303.9 316.2 305 319.5 L 304 322 Q 301.3 320.9 302 323.5 L 300 323.5 L 301 325.5 L 298 327 L 295.5 331 Q 292.2 329.9 293 332.5 L 288.5 336 L 276.5 340 L 258.5 342 L 256.5 341 L 254.5 342 L 251.5 341 L 250.5 342 L 217 342 L 216 339.5 L 216 243 Z M 272 312 L 272 313 L 274 313 L 272 312 Z "></path><path fill="rgb(4,109,252)" stroke="rgb(4,109,252)" stroke-width="1" opacity="1" d="M 215 57 L 305.5 57 L 313 63.5 L 315 69.5 Q 322.2 75.3 325 85.5 L 327 94.5 L 327 115.5 L 325 126.5 L 320 138.5 L 309.5 149 L 298.5 154 L 287.5 156 L 237.5 156 L 236.5 157 L 217.5 158 L 215 159 L 215.5 157 L 222.5 157 L 223.5 156 L 233.5 156 L 234.5 155 L 280.5 155 L 282.5 154 L 286.5 154 Q 293.5 155 296.5 152 Q 298 154.5 299.5 151 Q 308.1 149.1 313 143.5 Q 312.3 141.3 314.5 142 L 319 136.5 L 324 124.5 L 324 122.5 L 326 110.5 L 325 108.5 L 326 106.5 L 326 104.5 L 325 99.5 L 325 97.5 L 325 91.5 L 321 80 Q 318 81.3 319 77.5 L 314.5 70 L 311.5 68 L 303 61.5 L 301.5 59 L 299.5 58 L 221.5 58 L 219.5 58 L 215 59 L 215 57 Z "></path><path fill="rgb(4,109,252)" stroke="rgb(4,109,252)" stroke-width="1" opacity="1" d="M 187.5 80 L 188 82.5 L 187 82.5 L 187.5 80 Z "></path><path fill="rgb(4,109,252)" stroke="rgb(4,109,252)" stroke-width="1" opacity="1" d="M 187.5 84 L 188 156.5 L 187 156.5 L 187.5 84 Z "></path><path fill="rgb(4,109,252)" stroke="rgb(4,109,252)" stroke-width="1" opacity="1" d="M 128.5 238 L 146.5 238 L 157.5 240 L 188 241.5 L 168.5 242 Q 167.3 239.8 162.5 241 L 160.5 241 L 152.5 240 L 150.5 240 L 142.5 240 L 141.5 239 L 138.5 240 L 136.5 239 L 131.5 240 L 117.5 242 L 109.5 246 L 105.5 246 L 91.5 251 Q 81.6 254.1 76 261.5 L 72 267.5 Q 74.5 269 71 270.5 Q 67.4 277.4 69 289.5 L 70 292.5 L 71 306.5 L 75 317 Q 77.7 315.9 77 318.5 L 79 322 L 81 322 Q 79.9 324.7 82.5 324 L 86 326 L 88 330 Q 80.7 328.6 77 322.5 L 71 311.5 L 68 297.5 L 68 271.5 Q 70.8 261.3 78.5 256 L 87.5 251 L 128.5 238 Z "></path><path fill="rgb(4,109,252)" stroke="rgb(4,109,252)" stroke-width="1" opacity="1" d="M 215.5 241 L 216 318.5 L 215 318.5 L 215.5 241 Z "></path><path fill="rgb(4,109,252)" stroke="rgb(4,109,252)" stroke-width="1" opacity="1" d="M 296.5 332 L 295.5 334 L 285.5 339 L 273.5 342 L 260.5 342 L 259.5 343 L 216.5 343 L 216.5 342 L 250.5 342 L 253.5 341 L 255.5 342 L 257.5 341 L 259.5 342 L 260.5 341 L 276.5 340 L 296.5 332 Z "></path><path fill="rgb(59,250,3)" stroke="rgb(59,250,3)" stroke-width="1" opacity="1" d="M 188 0 L 213.5 0 L 214 0.5 L 214 303.5 L 214 305.5 L 215 309.5 L 215 400 L 189.5 400 L 189 399.5 L 189 89.5 L 188 88.5 L 188 0 Z "></path><path fill="rgb(50,74,48)" stroke="rgb(50,74,48)" stroke-width="1" opacity="1" d="M 58.5 0 L 59 54 L 56 53.5 L 58 53 L 58.5 0 Z "></path><path fill="rgb(50,74,48)" stroke="rgb(50,74,48)" stroke-width="1" opacity="1" d="M 343.5 26 L 344 52.5 L 343 55 L 250 54.5 L 341.5 54 L 343 52.5 L 343.5 26 Z "></path><path fill="rgb(50,74,48)" stroke="rgb(50,74,48)" stroke-width="1" opacity="1" d="M 45.5 53 L 55 53.5 L 45.5 54 L 45.5 53 Z "></path><path fill="rgb(50,74,48)" stroke="rgb(50,74,48)" stroke-width="1" opacity="1" d="M 214.5 53 L 220 53.5 L 214.5 54 L 214.5 53 Z "></path><path fill="rgb(50,74,48)" stroke="rgb(50,74,48)" stroke-width="1" opacity="1" d="M 0.5 54 L 42 54.5 L 0.5 55 L 0.5 54 Z "></path><path fill="rgb(50,74,48)" stroke="rgb(50,74,48)" stroke-width="1" opacity="1" d="M 60 55 L 188 55.5 L 61 56 L 60.5 171 L 60 55 Z "></path><path fill="rgb(50,74,48)" stroke="rgb(50,74,48)" stroke-width="1" opacity="1" d="M 347.5 56 Q 354.3 54.7 357.5 57 L 358.5 56 L 377.5 56 L 378.5 57 L 400 57.5 L 347.5 58 L 346 59.5 L 347 70.5 L 346 75.5 L 347 76.5 L 347 184.5 L 346 189.5 L 347 193 L 380.5 193 L 381.5 194 L 400 194.5 L 377.5 195 L 374.5 194 L 372.5 194 L 351.5 194 L 349.5 195 L 346 194 L 345 190.5 L 345 57 L 347.5 56 Z "></path><path fill="rgb(50,74,48)" stroke="rgb(50,74,48)" stroke-width="1" opacity="1" d="M 60.5 180 L 61 183.5 L 60 183.5 L 60.5 180 Z "></path><path fill="rgb(50,74,48)" stroke="rgb(50,74,48)" stroke-width="1" opacity="1" d="M 60.5 190 L 61 192 L 188.5 192 L 189 193.5 L 187.5 193 L 61.5 193 L 60 191.5 L 60.5 190 Z "></path><path fill="rgb(50,74,48)" stroke="rgb(50,74,48)" stroke-width="1" opacity="1" d="M 0.5 194 L 55.5 194 L 58 195 L 58 222.5 L 59 223.5 L 59 265.5 L 58 266.5 L 58 306.5 L 57 308.5 L 57 310.5 L 57 329 L 47.5 329 L 46.5 330 L 20.5 331 L 19.5 330 L 0 330 Q -1.1 327.3 1.5 328 L 2.5 329 L 43.5 329 L 44.5 328 L 54.5 328 L 56 326.5 L 56 276.5 L 57 275.5 L 57 259.5 L 58 258.5 L 58 232.5 L 57 231.5 L 57 203.5 L 56 202.5 L 57 196 L 54.5 195 L 0.5 195 L 0.5 194 Z "></path><path fill="rgb(50,74,48)" stroke="rgb(50,74,48)" stroke-width="1" opacity="1" d="M 214.5 194 L 215.5 195 L 224.5 195 L 225.5 194 L 248.5 194 L 249.5 195 L 335.5 195 L 336.5 196 L 344 196 L 344 331.5 L 343.5 332 L 301.5 332 L 301.5 331 L 342.5 331 L 343 330.5 L 343 197 L 315.5 197 L 314.5 196 L 214 196 L 214.5 194 Z "></path><path fill="rgb(50,74,48)" stroke="rgb(50,74,48)" stroke-width="1" opacity="1" d="M 59.5 330 L 88 331.5 L 64.5 332 L 61.5 331 L 60 332.5 L 60 351.5 L 59 352.5 L 59 385.5 L 60 386.5 L 60 400 L 58 399.5 L 58 336.5 L 59 333.5 L 58 331.5 L 59.5 330 Z "></path><path fill="rgb(50,74,48)" stroke="rgb(50,74,48)" stroke-width="1" opacity="1" d="M 345 333 L 393.5 333 L 400 334.5 L 389.5 335 L 388.5 334 L 347.5 334 L 346 336.5 L 347 337.5 L 347 359.5 L 346 360.5 L 346 400 L 344 399.5 L 344 389.5 L 345 388.5 L 345 333 Z "></path><path fill="rgb(232,232,232)" stroke="rgb(232,232,232)" stroke-width="1" opacity="1" d="M 346.5 0 L 347 52.5 L 346 52.5 L 346.5 0 Z "></path><path fill="rgb(232,232,232)" stroke="rgb(232,232,232)" stroke-width="1" opacity="1" d="M 61.5 51 L 62.5 52 L 71 52.5 L 62.5 53 L 61.5 51 Z "></path><path fill="rgb(232,232,232)" stroke="rgb(232,232,232)" stroke-width="1" opacity="1" d="M 74.5 52 L 79 52.5 L 74.5 53 L 74.5 52 Z "></path><path fill="rgb(232,232,232)" stroke="rgb(232,232,232)" stroke-width="1" opacity="1" d="M 180.5 52 L 187 52.5 L 180.5 53 L 180.5 52 Z "></path><path fill="rgb(232,232,232)" stroke="rgb(232,232,232)" stroke-width="1" opacity="1" d="M 350.5 53 L 354 53.5 L 350.5 54 L 350.5 53 Z "></path><path fill="rgb(232,232,232)" stroke="rgb(232,232,232)" stroke-width="1" opacity="1" d="M 380.5 53 L 400 53.5 L 380.5 54 L 380.5 53 Z "></path><path fill="rgb(232,232,232)" stroke="rgb(232,232,232)" stroke-width="1" opacity="1" d="M 20.5 57 L 19.5 59 L 0 58.5 L 19.5 58 L 20.5 57 Z "></path><path fill="rgb(232,232,232)" stroke="rgb(232,232,232)" stroke-width="1" opacity="1" d="M 42.5 57 L 48.5 58 L 50.5 57 L 49.5 59 L 42.5 58 L 42.5 57 Z "></path><path fill="rgb(232,232,232)" stroke="rgb(232,232,232)" stroke-width="1" opacity="1" d="M 22.5 58 L 41 58.5 L 22.5 59 L 22.5 58 Z "></path><path fill="rgb(232,232,232)" stroke="rgb(232,232,232)" stroke-width="1" opacity="1" d="M 314.5 58 L 328.5 58 L 329.5 59 L 333.5 58 L 333.5 59 L 328.5 60 L 327.5 59 L 314.5 59 L 314.5 58 Z "></path><path fill="rgb(232,232,232)" stroke="rgb(232,232,232)" stroke-width="1" opacity="1" d="M 336.5 58 L 341 58.5 L 336.5 59 L 336.5 58 Z "></path><path fill="rgb(232,232,232)" stroke="rgb(232,232,232)" stroke-width="1" opacity="1" d="M 57.5 59 L 58 61.5 L 57 61.5 L 57.5 59 Z "></path><path fill="rgb(232,232,232)" stroke="rgb(232,232,232)" stroke-width="1" opacity="1" d="M 317.5 62 Q 320.5 62.5 320 66.5 L 319 66.5 L 317.5 62 Z "></path><path fill="rgb(232,232,232)" stroke="rgb(232,232,232)" stroke-width="1" opacity="1" d="M 335 62 Q 340.6 59.8 339 65.5 L 336.5 67 Q 332.3 65.3 335 63.5 L 335 62 Z "></path><path fill="rgb(232,232,232)" stroke="rgb(232,232,232)" stroke-width="1" opacity="1" d="M 42 63 Q 45.8 62.3 47 65.5 L 49 68.5 L 47.5 68 L 41 68 L 41 65.5 L 42 63 Z "></path><path fill="rgb(232,232,232)" stroke="rgb(232,232,232)" stroke-width="1" opacity="1" d="M 19.5 66 L 39 66.5 L 19.5 67 L 19.5 66 Z "></path><path fill="rgb(232,232,232)" stroke="rgb(232,232,232)" stroke-width="1" opacity="1" d="M 332.5 67 Q 335.3 68.4 334 73 Q 328.4 75.2 330 69.5 L 332.5 67 Z "></path><path fill="rgb(232,232,232)" stroke="rgb(232,232,232)" stroke-width="1" opacity="1" d="M 320.5 69 L 321 72.5 L 320 72.5 L 320.5 69 Z "></path><path fill="rgb(232,232,232)" stroke="rgb(232,232,232)" stroke-width="1" opacity="1" d="M 57.5 70 L 58 73.5 L 57 73.5 L 57.5 70 Z "></path><path fill="rgb(232,232,232)" stroke="rgb(232,232,232)" stroke-width="1" opacity="1" d="M 321.5 74 L 322.5 76 L 321.5 74 Z "></path><path fill="rgb(232,232,232)" stroke="rgb(232,232,232)" stroke-width="1" opacity="1" d="M 50 75 Q 53 74 52 77 Q 49 78 50 75 Z "></path><path fill="rgb(232,232,232)" stroke="rgb(232,232,232)" stroke-width="1" opacity="1" d="M 335 75 Q 338.3 73.7 337 78.5 L 335 77.5 L 335 75 Z "></path><path fill="rgb(232,232,232)" stroke="rgb(232,232,232)" stroke-width="1" opacity="1" d="M 57.5 79 L 58 92.5 L 57 92.5 L 57.5 79 Z "></path><path fill="rgb(232,232,232)" stroke="rgb(232,232,232)" stroke-width="1" opacity="1" d="M 328.5 96 L 329 98.5 L 328 98.5 L 328.5 96 Z "></path><path fill="rgb(232,232,232)" stroke="rgb(232,232,232)" stroke-width="1" opacity="1" d="M 51.5 102 L 54 103 L 55 106.5 L 54 107.5 L 53.5 130 Q 52.3 127.7 51 130.5 L 51 135.5 L 48 142.5 L 48 151.5 L 43 161.5 L 41 176.5 Q 43.3 177.8 40.5 179 Q 32.2 178.2 28 181.5 L 31 185.5 L 29 186 Q 30.1 188.7 27.5 188 L 26.5 189 L 18 189.5 L 33 190.5 L 0.5 191 L 0.5 190 L 17 189.5 L 0 189 L 0 139 L 17 139 L 18 154 L 27 154 L 27 129 L 36.5 129 L 42 128 L 44 115.5 L 44 105.5 L 45.5 104 Q 50.5 105 51.5 102 Z "></path><path fill="rgb(232,232,232)" stroke="rgb(232,232,232)" stroke-width="1" opacity="1" d="M 57.5 102 L 58 165.5 L 57 165.5 L 57.5 102 Z "></path><path fill="rgb(232,232,232)" stroke="rgb(232,232,232)" stroke-width="1" opacity="1" d="M 11 103 L 16 103 L 16 115.5 L 17 116.5 L 17 129 L 11.5 129 L 11 128.5 L 11 103 Z "></path><path fill="rgb(232,232,232)" stroke="rgb(232,232,232)" stroke-width="1" opacity="1" d="M 336.5 103 L 337 128.5 L 338 129.5 L 338 180.5 L 336 184 L 339 185.5 L 338.5 189 L 327.5 189 L 323.5 187 L 322.5 188 L 301.5 189 Q 300.2 186.8 295.5 188 L 294.5 189 L 275.5 189 L 274.5 188 L 266.5 188 L 265.5 189 L 250.5 189 L 249.5 188 L 229 187.5 L 248 187 L 247.5 183 L 229.5 183 L 227.5 184 L 223.5 178 Q 221.3 177.3 222 179.5 L 221 186 L 227 187.5 L 224 189 Q 222.9 191.7 225.5 191 L 225.5 192 L 218 191.5 L 223 190.5 L 217.5 188 L 216.5 191 L 215 190.5 L 215 160 L 220.5 159 L 229.5 159 L 230.5 158 L 265.5 158 L 265.5 159 L 256.5 159 L 256 161 L 260 161 Q 258.5 165.5 263 164 L 263 168 L 269 168 L 269 171 L 282 171 L 282 168 L 289 168 L 289 164 L 292 164 Q 290.5 159.5 295 161 L 295 157 L 291 156.5 L 301.5 155 Q 311.6 150.6 318.5 143 L 315.5 148 L 318 148 L 318 155 L 302 156 L 302.5 161 L 326.5 161 L 327 163.5 L 328 164.5 L 328 173.5 L 329.5 181 L 334 177.5 Q 331.8 176.3 333 171.5 L 334 170.5 L 334 130.5 L 336 127.5 L 336.5 103 Z M 221 160 L 222 176 L 224 177 L 226 164 L 226 160 L 221 160 Z M 267 179 L 260 182 Q 265 185 274 183 Q 276 182 274 181 L 274 179 L 267 179 Z M 304 182 L 304 183 L 306 183 L 304 182 Z "></path><path fill="rgb(232,232,232)" stroke="rgb(232,232,232)" stroke-width="1" opacity="1" d="M 328.5 110 L 329 112.5 L 328 112.5 L 328.5 110 Z "></path><path fill="rgb(232,232,232)" stroke="rgb(232,232,232)" stroke-width="1" opacity="1" d="M 327.5 120 L 328 122.5 L 327 122.5 L 327.5 120 Z "></path><path fill="rgb(232,232,232)" stroke="rgb(232,232,232)" stroke-width="1" opacity="1" d="M 323.5 134 L 324 135.5 L 322 136.5 L 323.5 134 Z "></path><path fill="rgb(232,232,232)" stroke="rgb(232,232,232)" stroke-width="1" opacity="1" d="M 320.5 140 L 319.5 142 L 320.5 140 Z "></path><path fill="rgb(232,232,232)" stroke="rgb(232,232,232)" stroke-width="1" opacity="1" d="M 284.5 157 L 288 157.5 L 284.5 158 L 284.5 157 Z "></path><path fill="rgb(232,232,232)" stroke="rgb(232,232,232)" stroke-width="1" opacity="1" d="M 49.5 174 Q 51.8 174.8 51 178.5 L 49 179.5 L 49.5 174 Z "></path><path fill="rgb(232,232,232)" stroke="rgb(232,232,232)" stroke-width="1" opacity="1" d="M 56.5 181 L 57 190.5 L 56 190.5 L 56.5 181 Z "></path><path fill="rgb(232,232,232)" stroke="rgb(232,232,232)" stroke-width="1" opacity="1" d="M 342.5 188 L 343 190.5 L 342 190.5 L 342.5 188 Z "></path><path fill="rgb(232,232,232)" stroke="rgb(232,232,232)" stroke-width="1" opacity="1" d="M 43.5 191 L 55 191.5 L 43.5 192 L 43.5 191 Z "></path><path fill="rgb(232,232,232)" stroke="rgb(232,232,232)" stroke-width="1" opacity="1" d="M 274.5 191 L 319 191.5 L 274.5 192 L 274.5 191 Z "></path><path fill="rgb(232,232,232)" stroke="rgb(232,232,232)" stroke-width="1" opacity="1" d="M 327.5 191 L 336 191.5 L 327.5 192 L 327.5 191 Z "></path><path fill="rgb(232,232,232)" stroke="rgb(232,232,232)" stroke-width="1" opacity="1" d="M 338.5 192 L 341 192.5 L 338.5 193 L 338.5 192 Z "></path><path fill="rgb(232,232,232)" stroke="rgb(232,232,232)" stroke-width="1" opacity="1" d="M 64.5 196 L 70 197.5 L 69 201 L 65 201 L 65 209.5 L 64 210.5 L 64 224.5 L 62.5 232 L 62 221.5 L 61 220.5 L 61 201.5 L 62 201.5 L 62.5 215 L 64 204.5 L 63 201.5 L 65 197.5 L 64.5 196 Z "></path><path fill="rgb(232,232,232)" stroke="rgb(232,232,232)" stroke-width="1" opacity="1" d="M 94.5 196 L 123 196.5 L 120 197.5 Q 123.1 199.3 121.5 201 L 133.5 201 L 140.5 204 L 144.5 204 L 146.5 202 L 155.5 202 L 156.5 201 L 186.5 201 L 187.5 200 L 188 239 L 163.5 239 L 162.5 238 L 152.5 238 L 141.5 236 L 130.5 236 L 87.5 249 L 75 255 Q 74.4 250.4 78 248.5 L 80 235.5 L 83.5 231 Q 85.8 231.8 85 229.5 L 85 227.5 L 85 208.5 L 87.5 206 L 92 202.5 L 90 202 L 91 199.5 L 88 197.5 L 94.5 196 Z "></path><path fill="rgb(232,232,232)" stroke="rgb(232,232,232)" stroke-width="1" opacity="1" d="M 125.5 196 L 186.5 196 L 188 197.5 L 187.5 199 L 186.5 198 L 172.5 198 Q 171.5 201 166.5 200 Q 158.8 196.6 147 198 L 146.5 200 L 130.5 200 L 131.5 198 L 138 197.5 L 125.5 197 L 125.5 196 Z "></path><path fill="rgb(232,232,232)" stroke="rgb(232,232,232)" stroke-width="1" opacity="1" d="M 352.5 198 L 400 198.5 L 352.5 199 L 352.5 198 Z "></path><path fill="rgb(232,232,232)" stroke="rgb(232,232,232)" stroke-width="1" opacity="1" d="M 347.5 201 L 350 203.5 L 350 205.5 L 350.5 208 Q 355.3 205.8 351 203.5 Q 349.7 199.3 354.5 201 L 355.5 202 L 369.5 202 L 370.5 201 L 400 201 L 400 329.5 L 399.5 330 L 366.5 330 L 365.5 329 L 353.5 329 L 348 330 L 347 327.5 L 348 326.5 L 349 315.5 L 347 311.5 L 349 305.5 Q 346.5 304 348 298.5 L 349 295.5 L 349 286.5 L 348 285.5 L 348 204.5 L 347.5 201 Z M 354 309 L 352 313 L 360 313 L 361 312 Q 364 313 363 310 L 354 309 Z M 352 317 Q 350 321 354 320 Q 356 321 354 323 L 355 327 L 361 325 Q 366 327 364 322 L 361 321 Q 358 322 359 318 L 352 317 Z M 381 319 L 380 323 L 382 323 L 384 323 Q 386 324 385 321 L 387 321 L 387 319 L 381 319 Z M 349 325 Q 347 330 352 329 L 351 328 Q 352 324 349 325 Z "></path><path fill="rgb(232,232,232)" stroke="rgb(232,232,232)" stroke-width="1" opacity="1" d="M 71.5 257 L 74 257.5 L 69.5 263 Q 67.3 263.8 68 261.5 L 71.5 257 Z "></path><path fill="rgb(232,232,232)" stroke="rgb(232,232,232)" stroke-width="1" opacity="1" d="M 62 282 Q 64.7 280.9 64 283.5 L 66 285.5 L 66 296.5 L 68 301.5 L 70 314.5 Q 73.1 321.9 79 326.5 L 61.5 327 L 61.5 326 L 66 325.5 L 62.5 323 L 61.5 325 L 61 291.5 L 62 288.5 L 62 286.5 L 62 282 Z M 63 309 L 62 313 L 63 313 L 63 309 Z M 66 312 L 64 315 L 65 318 L 69 320 L 70 318 L 66 312 Z M 71 325 L 71 326 L 77 326 L 71 325 Z "></path><path fill="rgb(232,232,232)" stroke="rgb(232,232,232)" stroke-width="1" opacity="1" d="M 0 333 L 5 333.5 Q 3.8 336 0 335 L 0 333 Z "></path><path fill="rgb(232,232,232)" stroke="rgb(232,232,232)" stroke-width="1" opacity="1" d="M 47.5 333 L 51.5 335 L 55 334 L 55 345.5 L 54 346.5 L 54 400 L 51 399.5 L 51 345.5 L 50 344.5 L 50 337 L 46 335.5 L 47.5 333 Z M 52 336 L 53 339 L 54 337 L 52 336 Z "></path><path fill="rgb(232,232,232)" stroke="rgb(232,232,232)" stroke-width="1" opacity="1" d="M 16.5 334 L 27 335 Q 28.3 338 24.5 337 Q 22 338.2 23 342 Q 20 340.8 21 344.5 L 17 358.5 L 17 369.5 L 14 374.5 L 12 384.5 L 8 389.5 L 6 400 L 0.5 400 L 0 399.5 L 0 381.5 L 6 369.5 L 7 352.5 Q 10.9 348.4 10 339.5 L 11.5 338 Q 17 338.5 19 335.5 Q 15.7 335.6 16.5 334 Z "></path><path fill="rgb(232,232,232)" stroke="rgb(232,232,232)" stroke-width="1" opacity="1" d="M 328.5 335 L 333.5 336 L 336.5 335 L 339.5 336 Q 340.8 333.8 342 336.5 L 342 380.5 L 341 382.5 L 341 384.5 L 341 399.5 L 338 400 L 337 393.5 L 338 392.5 L 338 378.5 L 335.5 368 L 332.5 377 Q 328.8 371.5 330 362 L 332.5 361 L 336 362 L 336.5 359 L 338 359.5 L 337.5 352 Q 336.2 354.3 335 351.5 L 334 342 L 331 342 L 331 348.5 L 329 349.5 L 329 358.5 L 327.5 358 Q 322.7 356.7 324 360 L 328 362.5 L 328 367.5 L 326 374.5 L 326 385 L 320.5 384 L 277 384 L 277.5 387 L 301.5 387 L 302 391 L 276.5 391 L 275.5 397 L 251.5 397 L 250.5 400 L 225 400 Q 223.3 396.6 224 389.5 L 222.5 388 L 219.5 387 L 216.5 391 L 216 345 L 271.5 344 L 282.5 342 L 294.5 336 L 327.5 336 L 328.5 335 Z M 341 337 L 340 341 L 341 341 L 341 337 Z M 341 362 L 339 365 L 340 371 L 341 371 L 341 362 Z "></path><path fill="rgb(232,232,232)" stroke="rgb(232,232,232)" stroke-width="1" opacity="1" d="M 44 355 L 46 355.5 L 46 362 L 42 361 L 42 358 Q 45.3 359.1 44 355 Z "></path><path fill="rgb(232,232,232)" stroke="rgb(232,232,232)" stroke-width="1" opacity="1" d="M 46.5 387 L 48 388.5 L 48 400 L 46 399.5 L 46.5 387 Z "></path><path fill="rgb(232,232,232)" stroke="rgb(232,232,232)" stroke-width="1" opacity="1" d="M 330.5 388 L 333 388 L 333 394 L 331 394 Q 332.3 398.1 329 397 L 329 389.5 L 330.5 388 Z "></path><path fill="rgb(232,232,232)" stroke="rgb(232,232,232)" stroke-width="1" opacity="1" d="M 216.5 397 L 217 399.5 L 216 399.5 L 216.5 397 Z "></path><path fill="rgb(243,243,243)" stroke="rgb(243,243,243)" stroke-width="1" opacity="1" d="M 61 0 L 187 0 L 187 52 L 62.5 52 L 61 50.5 L 61 0 Z "></path><path fill="rgb(243,243,243)" stroke="rgb(243,243,243)" stroke-width="1" opacity="1" d="M 347 0 L 400 0 L 400 53 L 347 53 L 347 0 Z "></path><path fill="rgb(243,243,243)" stroke="rgb(243,243,243)" stroke-width="1" opacity="1" d="M 51.5 57 Q 56 56 57 58.5 L 57 180.5 L 56 181.5 L 56 191 L 33.5 191 L 32.5 190 L 18 189.5 Q 25.6 190 29 188 Q 27.9 185.3 30.5 186 L 28 182.5 L 29.5 180 L 40.5 179 L 42 177.5 L 41 174.5 L 42 173.5 L 43 161.5 L 48 151.5 L 48 142.5 L 51 135.5 L 51 130.5 L 52.5 129 L 54 129.5 L 54 107.5 L 55 106.5 L 54 103 L 51.5 102 L 49.5 104 Q 45 103 44 105.5 L 44 115.5 L 42 128 L 27 129 L 27 154 L 18 154 L 17 139 L 0.5 139 L 0 138.5 L 0 73.5 L 1 71.5 L 0 70.5 L 0 59 L 19.5 59 L 21.5 58 L 22.5 59 L 40.5 59 L 45.5 58 L 49.5 59 L 51.5 57 Z M 42 63 L 41 68 L 48 68 L 47 66 Q 46 62 42 63 Z M 20 66 L 20 67 L 39 67 L 20 66 Z M 50 75 Q 49 78 52 77 Q 53 74 50 75 Z M 11 103 L 11 129 L 12 129 L 17 129 L 17 117 L 16 116 L 16 103 L 11 103 Z M 50 174 L 49 180 L 51 179 Q 52 175 50 174 Z "></path><path fill="rgb(243,243,243)" stroke="rgb(243,243,243)" stroke-width="1" opacity="1" d="M 334.5 58 L 342 59 L 342 180.5 L 341 182.5 L 342 183.5 L 342 192 L 327.5 191 Q 325.8 193.8 319.5 192 L 318.5 191 L 224 191 Q 222.9 188.3 225.5 189 L 226.5 187 L 221 186 L 222 178 L 225 179.5 L 227.5 184 L 229.5 183 L 248 183 L 247.5 187 L 229.5 187 L 229.5 188 L 265.5 189 L 266.5 188 L 274.5 188 L 275.5 189 L 294.5 189 Q 295.8 186.8 300.5 188 L 301.5 189 L 310.5 189 L 311.5 188 L 322.5 188 L 324.5 187 L 327.5 189 L 339 189 Q 340 185.2 337.5 184 Q 335.3 184.8 336 182.5 L 338 180.5 L 338 129.5 L 337 128.5 L 336.5 103 L 336 127.5 L 334 130.5 L 334 170.5 Q 331.8 171.8 333 176.5 Q 335.8 178.3 331.5 180 L 329.5 181 L 327 161 L 302.5 161 L 302 156 L 318 155 L 318 148 L 315.5 148 L 319 143.5 L 324 135.5 L 328 122.5 L 329 96.5 L 326 81.5 L 321 73.5 L 320 64.5 L 315 59.5 L 327.5 59 L 330.5 60 L 334.5 58 Z M 335 62 L 335 64 Q 332 65 337 67 L 339 66 Q 341 60 335 62 Z M 333 67 L 330 70 Q 328 75 334 73 Q 335 68 333 67 Z M 335 75 L 335 78 L 337 79 Q 338 74 335 75 Z "></path><path fill="rgb(243,243,243)" stroke="rgb(243,243,243)" stroke-width="1" opacity="1" d="M 288.5 157 L 290.5 157 Q 297.3 155 295 161 L 292 161 Q 293.5 165.5 289 164 L 289 168 L 282 168 L 282 171 L 269 171 L 269 168 L 263 168 L 263 164 L 260 164 L 260 161 Q 254.8 162.7 256 159 L 273.5 158 L 275.5 158 L 287.5 158 L 288.5 157 Z "></path><path fill="rgb(243,243,243)" stroke="rgb(243,243,243)" stroke-width="1" opacity="1" d="M 221 160 L 226 160 L 226 163.5 L 223.5 177 L 222 175.5 L 221 160 Z "></path><path fill="rgb(243,243,243)" stroke="rgb(243,243,243)" stroke-width="1" opacity="1" d="M 266.5 179 L 273.5 179 L 274 180.5 Q 276.3 181.8 273.5 183 Q 264.5 184.5 260 181.5 L 266.5 179 Z "></path><path fill="rgb(243,243,243)" stroke="rgb(243,243,243)" stroke-width="1" opacity="1" d="M 303.5 182 L 306 182.5 L 303.5 183 L 303.5 182 Z "></path><path fill="rgb(243,243,243)" stroke="rgb(243,243,243)" stroke-width="1" opacity="1" d="M 217.5 188 L 223 190.5 L 217.5 191 Q 214.5 189.5 217.5 188 Z "></path><path fill="rgb(243,243,243)" stroke="rgb(243,243,243)" stroke-width="1" opacity="1" d="M 0.5 189 L 17 189.5 L 0.5 190 L 0.5 189 Z "></path><path fill="rgb(243,243,243)" stroke="rgb(243,243,243)" stroke-width="1" opacity="1" d="M 62.5 196 L 65 197.5 L 63 203.5 L 64 207.5 L 62.5 215 L 61 197.5 L 62.5 196 Z "></path><path fill="rgb(243,243,243)" stroke="rgb(243,243,243)" stroke-width="1" opacity="1" d="M 123.5 196 L 125.5 197 L 138 197.5 L 131.5 198 L 130 199.5 L 147 200 L 147.5 198 L 159.5 198 L 170.5 200 L 172.5 198 L 186.5 198 Q 189.5 199.5 186.5 201 L 156.5 201 L 155.5 202 L 146.5 202 Q 145.5 205 140.5 204 L 133.5 201 L 121 200.5 L 122 199.5 L 120.5 197 L 123.5 196 Z "></path><path fill="rgb(243,243,243)" stroke="rgb(243,243,243)" stroke-width="1" opacity="1" d="M 348.5 198 L 352.5 199 L 400 199 L 399.5 201 L 370.5 201 L 369.5 202 L 355.5 202 L 351 201 Q 350.3 204.4 353 205.5 L 350 207.5 L 349 204.5 L 350 203.5 L 347 200.5 L 348.5 198 Z "></path><path fill="rgb(243,243,243)" stroke="rgb(243,243,243)" stroke-width="1" opacity="1" d="M 62.5 309 L 63 312.5 L 62 312.5 L 62.5 309 Z "></path><path fill="rgb(243,243,243)" stroke="rgb(243,243,243)" stroke-width="1" opacity="1" d="M 62.5 323 L 66 325.5 L 61.5 326 L 62 324.5 L 62.5 323 Z "></path><path fill="rgb(243,243,243)" stroke="rgb(243,243,243)" stroke-width="1" opacity="1" d="M 70.5 325 L 77 325.5 L 70.5 326 L 70.5 325 Z "></path><path fill="rgb(243,243,243)" stroke="rgb(243,243,243)" stroke-width="1" opacity="1" d="M 349 325 Q 352 323.8 351 327.5 L 351.5 329 Q 346.9 330.2 349 325 Z "></path><path fill="rgb(243,243,243)" stroke="rgb(243,243,243)" stroke-width="1" opacity="1" d="M 4.5 334 Q 14.2 332.4 19 335.5 L 10 339.5 Q 10.9 348.4 7 352.5 L 6 369.5 L 0.5 381 L 0 335 L 4.5 334 Z "></path><path fill="rgb(243,243,243)" stroke="rgb(243,243,243)" stroke-width="1" opacity="1" d="M 52 336 L 54 336.5 L 52.5 339 L 52 336 Z "></path><path fill="rgb(243,243,243)" stroke="rgb(243,243,243)" stroke-width="1" opacity="1" d="M 340.5 337 L 341 340.5 L 340 340.5 L 340.5 337 Z "></path><path fill="rgb(243,243,243)" stroke="rgb(243,243,243)" stroke-width="1" opacity="1" d="M 340.5 362 L 341 370.5 L 340 370.5 L 339 364.5 L 340.5 362 Z "></path><path fill="rgb(213,214,215)" stroke="rgb(213,214,215)" stroke-width="1" opacity="1" d="M 60.5 0 L 61 51.5 L 62.5 53 L 73.5 52 L 78.5 53 L 79.5 52 L 179.5 52 L 180.5 53 L 187 53 L 187.5 0 L 188 54 L 61.5 54 L 60 52.5 L 60.5 0 Z "></path><path fill="rgb(213,214,215)" stroke="rgb(213,214,215)" stroke-width="1" opacity="1" d="M 345.5 0 L 346 53 L 353.5 54 L 354.5 53 L 379.5 53 L 380.5 54 L 400 54.5 L 346.5 55 L 345 53.5 L 345.5 0 Z "></path><path fill="rgb(213,214,215)" stroke="rgb(213,214,215)" stroke-width="1" opacity="1" d="M 0 56 L 57.5 56 L 58 57.5 L 59 58.5 L 59 170.5 L 58 171.5 L 58 191.5 L 56.5 193 L 0.5 193 L 0 191 L 42.5 191 L 43.5 192 L 54.5 192 L 57 191 L 57 166.5 L 58 165.5 L 58 102.5 L 57 101.5 L 57 93.5 L 58 92.5 L 58 79.5 L 57 74.5 L 58 70.5 Q 55.3 68.8 57 62.5 L 58 59.5 L 57 57 L 47.5 58 L 42.5 57 L 41.5 58 L 21.5 58 L 19.5 58 L 0.5 58 L 0 56 Z "></path><path fill="rgb(213,214,215)" stroke="rgb(213,214,215)" stroke-width="1" opacity="1" d="M 309.5 56 L 328.5 56 L 330.5 57 L 331.5 56 L 339.5 56 L 343 57 L 344 60.5 L 344 192.5 L 342.5 194 L 314.5 194 L 313.5 193 L 215.5 193 L 214 191.5 L 214 160.5 L 215.5 159 L 220 159.5 L 215 160 L 215 190.5 L 217.5 191 Q 219.3 193.8 225.5 192 L 227.5 192 L 229.5 191 L 273.5 191 L 274.5 192 L 337.5 192 L 340.5 193 Q 343.5 192.5 343 188.5 L 342 187.5 L 342 82.5 L 343 80.5 L 342 79.5 L 342 59.5 L 340.5 58 L 330.5 58 L 329.5 59 L 328.5 58 L 314.5 58 L 317 61.5 Q 320.8 64.7 320 72.5 L 324 78.5 L 322 77.5 Q 317.7 72.3 317 63.5 L 311.5 58 L 309.5 56 Z "></path><path fill="rgb(213,214,215)" stroke="rgb(213,214,215)" stroke-width="1" opacity="1" d="M 326.5 87 L 327 89.5 L 326 89.5 L 326.5 87 Z "></path><path fill="rgb(213,214,215)" stroke="rgb(213,214,215)" stroke-width="1" opacity="1" d="M 327.5 92 L 328 95.5 L 327 95.5 L 327.5 92 Z "></path><path fill="rgb(213,214,215)" stroke="rgb(213,214,215)" stroke-width="1" opacity="1" d="M 328.5 99 L 329 109.5 L 328 109.5 L 328.5 99 Z "></path><path fill="rgb(213,214,215)" stroke="rgb(213,214,215)" stroke-width="1" opacity="1" d="M 327.5 114 L 328 119.5 L 327 119.5 L 327.5 114 Z "></path><path fill="rgb(213,214,215)" stroke="rgb(213,214,215)" stroke-width="1" opacity="1" d="M 326.5 122 L 327 124.5 L 326 124.5 L 326.5 122 Z "></path><path fill="rgb(213,214,215)" stroke="rgb(213,214,215)" stroke-width="1" opacity="1" d="M 320.5 139 L 319 141.5 L 314.5 147 L 318 142.5 L 320.5 139 Z "></path><path fill="rgb(213,214,215)" stroke="rgb(213,214,215)" stroke-width="1" opacity="1" d="M 312.5 147 L 310.5 150 L 299.5 155 L 299.5 154 Q 307.7 152.2 312.5 147 Z "></path><path fill="rgb(213,214,215)" stroke="rgb(213,214,215)" stroke-width="1" opacity="1" d="M 294.5 155 L 298 155.5 L 294.5 156 L 294.5 155 Z "></path><path fill="rgb(213,214,215)" stroke="rgb(213,214,215)" stroke-width="1" opacity="1" d="M 287.5 156 L 291 156.5 L 287.5 157 L 287.5 156 Z "></path><path fill="rgb(213,214,215)" stroke="rgb(213,214,215)" stroke-width="1" opacity="1" d="M 233.5 157 L 284 157.5 L 233.5 158 L 233.5 157 Z "></path><path fill="rgb(213,214,215)" stroke="rgb(213,214,215)" stroke-width="1" opacity="1" d="M 223.5 158 L 230 158.5 L 223.5 159 L 223.5 158 Z "></path><path fill="rgb(213,214,215)" stroke="rgb(213,214,215)" stroke-width="1" opacity="1" d="M 61.5 194 Q 67 192.5 68.5 195 L 94.5 195 L 95.5 194 L 137.5 194 L 138.5 195 L 187.5 195 L 189 196.5 L 189 240 L 165.5 240 L 165.5 239 L 188 239 L 188 197.5 L 186.5 196 L 94.5 196 L 88 197.5 L 91 199.5 L 90 202 L 92 202.5 L 85 208.5 L 85 227.5 L 86 228.5 L 85 231 L 81 233.5 L 78 248.5 L 75 252.5 L 75 255 L 89.5 249 L 89.5 250 Q 77.3 253.3 71 262.5 L 67 271.5 L 67 296.5 L 68 300.5 L 67 300.5 L 66 285.5 L 64 282 Q 60.3 280.6 62 286.5 L 62 288.5 L 61 291.5 L 61 327 L 79 326.5 L 71 316.5 L 69 308.5 L 70 308.5 Q 72.7 321.8 82 328.5 L 61.5 329 L 59 328 L 59 285.5 L 60 284.5 L 60 259.5 Q 62.7 257.8 61 251.5 L 60 250.5 L 60 204.5 Q 57.5 203 59 197.5 L 61.5 194 Z M 61 196 L 61 221 L 62 222 L 63 232 L 64 225 L 64 211 L 65 210 L 65 201 L 69 201 L 70 198 Q 67 195 61 196 Z M 72 257 L 68 262 Q 67 264 70 263 L 74 258 L 72 257 Z "></path><path fill="rgb(213,214,215)" stroke="rgb(213,214,215)" stroke-width="1" opacity="1" d="M 347.5 196 L 381.5 196 L 383.5 197 L 384.5 196 L 400 196 L 399.5 198 L 347.5 198 Q 346.4 198.1 347 203.5 L 348 204.5 L 348 285.5 L 349 286.5 L 349 295.5 L 348 298.5 L 349 306.5 L 347 311.5 Q 349.7 313.8 349 319.5 L 347 327.5 L 348 330 L 353.5 329 L 365.5 329 L 366.5 330 L 400 330 L 399.5 332 L 383.5 332 L 382.5 331 L 346 331 L 346 204.5 Q 343.8 203.2 345 198.5 L 347.5 196 Z "></path><path fill="rgb(213,214,215)" stroke="rgb(213,214,215)" stroke-width="1" opacity="1" d="M 130.5 236 L 142 236.5 L 130.5 237 L 130.5 236 Z "></path><path fill="rgb(213,214,215)" stroke="rgb(213,214,215)" stroke-width="1" opacity="1" d="M 125.5 237 L 129 237.5 L 125.5 238 L 125.5 237 Z "></path><path fill="rgb(213,214,215)" stroke="rgb(213,214,215)" stroke-width="1" opacity="1" d="M 144.5 237 L 152 237.5 L 144.5 238 L 144.5 237 Z "></path><path fill="rgb(213,214,215)" stroke="rgb(213,214,215)" stroke-width="1" opacity="1" d="M 155.5 238 L 163 238.5 L 155.5 239 L 155.5 238 Z "></path><path fill="rgb(213,214,215)" stroke="rgb(213,214,215)" stroke-width="1" opacity="1" d="M 115.5 240 L 118 240.5 L 115.5 241 L 115.5 240 Z "></path><path fill="rgb(213,214,215)" stroke="rgb(213,214,215)" stroke-width="1" opacity="1" d="M 111.5 241 L 114 241.5 L 103.5 245 L 103.5 244 L 111.5 241 Z "></path><path fill="rgb(213,214,215)" stroke="rgb(213,214,215)" stroke-width="1" opacity="1" d="M 97.5 246 L 99 246.5 L 94.5 248 L 94.5 247 L 97.5 246 Z "></path><path fill="rgb(213,214,215)" stroke="rgb(213,214,215)" stroke-width="1" opacity="1" d="M 68.5 302 L 69 306.5 L 68 306.5 L 68.5 302 Z "></path><path fill="rgb(213,214,215)" stroke="rgb(213,214,215)" stroke-width="1" opacity="1" d="M 353.5 309 L 363 310 Q 364.3 313 360.5 312 L 359.5 313 L 352 313 L 353.5 309 Z "></path><path fill="rgb(213,214,215)" stroke="rgb(213,214,215)" stroke-width="1" opacity="1" d="M 65.5 312 L 70 317.5 L 69 320 L 65 317.5 L 64 314.5 L 65.5 312 Z "></path><path fill="rgb(213,214,215)" stroke="rgb(213,214,215)" stroke-width="1" opacity="1" d="M 352 317 L 359 318 Q 357.5 321.8 360.5 321 L 364 322 Q 365.8 326.5 360.5 325 L 355 327 L 354 322.5 Q 356.3 321.3 353.5 320 Q 350.5 320.7 352 317 Z "></path><path fill="rgb(213,214,215)" stroke="rgb(213,214,215)" stroke-width="1" opacity="1" d="M 381 319 L 387 319 L 387 321 L 385 321 Q 386.1 323.7 383.5 323 L 381.5 323 L 380 322.5 L 381 319 Z "></path><path fill="rgb(213,214,215)" stroke="rgb(213,214,215)" stroke-width="1" opacity="1" d="M 0 331 L 2.5 332 L 33.5 333 L 34.5 332 L 54.5 331 Q 57.8 331.8 57 336.5 L 56 337.5 L 56 400 L 54 399.5 L 54 346.5 L 55 345.5 L 55 334 L 50.5 335 L 47.5 333 L 46 335.5 L 50 337 L 50 344.5 L 51 345.5 L 51 400 L 48 399.5 L 48 388.5 L 46 387.5 L 46 399.5 L 45.5 400 L 6 400 L 8 389.5 L 12 384.5 L 14 374.5 L 17 369.5 L 17 358.5 L 21 342 Q 24.3 343.3 23 338.5 L 27 337 Q 28.4 333.3 22.5 335 L 21.5 334 L 5.5 334 L 0 333 L 0 331 Z M 44 355 Q 45 359 42 358 L 42 361 L 46 362 L 46 356 L 44 355 Z "></path><path fill="rgb(213,214,215)" stroke="rgb(213,214,215)" stroke-width="1" opacity="1" d="M 296.5 334 L 342.5 334 L 343 335.5 L 344 336.5 L 344 359.5 L 343 360.5 L 343 400 L 341 399.5 L 341 384.5 L 341 382.5 L 342 380.5 L 342 336.5 Q 340.8 333.8 339.5 336 L 334.5 335 L 331.5 336 L 328.5 335 L 327.5 336 L 294.5 336 L 286.5 340 L 286.5 339 L 296.5 334 Z M 331 388 L 329 390 L 329 397 Q 332 398 331 394 L 333 394 L 333 388 L 331 388 Z "></path><path fill="rgb(213,214,215)" stroke="rgb(213,214,215)" stroke-width="1" opacity="1" d="M 283.5 340 L 285 340.5 L 279.5 343 Q 273.3 341.2 271.5 344 L 256.5 344 L 256.5 343 L 271.5 343 L 283.5 340 Z "></path><path fill="rgb(213,214,215)" stroke="rgb(213,214,215)" stroke-width="1" opacity="1" d="M 331 342 L 334 342 L 334 348.5 L 336.5 353 L 338 352.5 L 337.5 360 L 336 359.5 Q 337.3 363.3 333.5 362 L 331.5 362 L 330 362.5 L 330 370.5 L 332.5 377 L 335.5 368 L 338 378.5 L 338 392.5 L 337 395.5 L 338 400 L 251.5 400 L 251 397 L 275.5 397 L 276 396.5 L 276 391 L 301.5 391 L 302 387 L 277.5 387 L 277 384 L 320.5 384 L 326 385 L 326 374.5 L 327 373.5 L 328 362.5 L 324 360 Q 322.7 356.7 327.5 358 L 329 358.5 L 329 349.5 L 331 348.5 L 331 342 Z "></path><path fill="rgb(213,214,215)" stroke="rgb(213,214,215)" stroke-width="1" opacity="1" d="M 215 344 L 255 344.5 L 216 345 L 216.5 391 L 219.5 387 L 224 389.5 Q 223.3 396.5 225 400 L 217 400 L 217 397.5 L 216 397.5 L 215.5 400 L 215 344 Z "></path><path fill="rgb(43,139,228)" stroke="rgb(43,139,228)" stroke-width="1" opacity="1" d="M 216.5 56 L 308.5 56 L 317 63.5 L 319 72.5 Q 325.2 77.8 326 88.5 L 325 88.5 L 322 78.5 L 315 69.5 L 313 63.5 L 307.5 58 L 305.5 57 L 216.5 57 L 216.5 56 Z "></path><path fill="rgb(43,139,228)" stroke="rgb(43,139,228)" stroke-width="1" opacity="1" d="M 214.5 57 L 215 158.5 L 214 158.5 L 214.5 57 Z "></path><path fill="rgb(43,139,228)" stroke="rgb(43,139,228)" stroke-width="1" opacity="1" d="M 187.5 59 L 188 71.5 L 187 71.5 L 187.5 59 Z "></path><path fill="rgb(43,139,228)" stroke="rgb(43,139,228)" stroke-width="1" opacity="1" d="M 326.5 90 L 327 93.5 L 326 93.5 L 326.5 90 Z "></path><path fill="rgb(43,139,228)" stroke="rgb(43,139,228)" stroke-width="1" opacity="1" d="M 327.5 96 L 328 113.5 L 327 113.5 L 327.5 96 Z "></path><path fill="rgb(43,139,228)" stroke="rgb(43,139,228)" stroke-width="1" opacity="1" d="M 326.5 116 L 327 121.5 L 326 121.5 L 326.5 116 Z "></path><path fill="rgb(43,139,228)" stroke="rgb(43,139,228)" stroke-width="1" opacity="1" d="M 325.5 123 L 326 126.5 Q 322.6 139.6 313.5 147 L 310.5 149 L 320 138.5 L 325.5 123 Z "></path><path fill="rgb(43,139,228)" stroke="rgb(43,139,228)" stroke-width="1" opacity="1" d="M 308.5 149 L 307.5 151 Q 303 154.5 295.5 155 L 295.5 154 Q 304 153.5 308.5 149 Z "></path><path fill="rgb(43,139,228)" stroke="rgb(43,139,228)" stroke-width="1" opacity="1" d="M 288.5 155 L 294 155.5 L 288.5 156 L 288.5 155 Z "></path><path fill="rgb(43,139,228)" stroke="rgb(43,139,228)" stroke-width="1" opacity="1" d="M 237.5 156 L 287 156.5 L 237.5 157 L 237.5 156 Z "></path><path fill="rgb(43,139,228)" stroke="rgb(43,139,228)" stroke-width="1" opacity="1" d="M 226.5 157 L 233 157.5 L 226.5 158 L 226.5 157 Z "></path><path fill="rgb(43,139,228)" stroke="rgb(43,139,228)" stroke-width="1" opacity="1" d="M 217.5 158 L 223 158.5 L 217.5 159 L 217.5 158 Z "></path><path fill="rgb(43,139,228)" stroke="rgb(43,139,228)" stroke-width="1" opacity="1" d="M 129.5 237 L 144 237.5 L 129.5 238 L 129.5 237 Z "></path><path fill="rgb(43,139,228)" stroke="rgb(43,139,228)" stroke-width="1" opacity="1" d="M 124.5 238 L 128 238.5 L 121.5 240 L 121.5 239 L 124.5 238 Z "></path><path fill="rgb(43,139,228)" stroke="rgb(43,139,228)" stroke-width="1" opacity="1" d="M 147.5 238 L 155 238.5 L 147.5 239 L 147.5 238 Z "></path><path fill="rgb(43,139,228)" stroke="rgb(43,139,228)" stroke-width="1" opacity="1" d="M 157.5 239 L 165 239.5 L 157.5 240 L 157.5 239 Z "></path><path fill="rgb(43,139,228)" stroke="rgb(43,139,228)" stroke-width="1" opacity="1" d="M 169.5 240 L 188.5 240 L 189 240.5 L 189 341.5 L 188 341.5 L 188 241.5 L 187.5 241 L 169.5 241 L 169.5 240 Z "></path><path fill="rgb(43,139,228)" stroke="rgb(43,139,228)" stroke-width="1" opacity="1" d="M 114.5 241 L 117 241.5 L 111.5 243 L 111.5 242 L 114.5 241 Z "></path><path fill="rgb(43,139,228)" stroke="rgb(43,139,228)" stroke-width="1" opacity="1" d="M 102.5 245 L 104 245.5 L 97.5 248 L 97.5 247 L 102.5 245 Z "></path><path fill="rgb(43,139,228)" stroke="rgb(43,139,228)" stroke-width="1" opacity="1" d="M 93.5 248 L 96 248.5 Q 80.3 251.8 72 262.5 L 68 271.5 L 67.5 297 L 67 271.5 Q 70.1 260.6 78.5 255 L 93.5 248 Z "></path><path fill="rgb(43,139,228)" stroke="rgb(43,139,228)" stroke-width="1" opacity="1" d="M 68.5 298 L 69 301.5 L 68 301.5 L 68.5 298 Z "></path><path fill="rgb(43,139,228)" stroke="rgb(43,139,228)" stroke-width="1" opacity="1" d="M 69.5 303 Q 71.8 319.7 82.5 328 L 86 330.5 L 83.5 329 L 76 322.5 L 70 311.5 L 69.5 303 Z "></path><path fill="rgb(43,139,228)" stroke="rgb(43,139,228)" stroke-width="1" opacity="1" d="M 215.5 319 L 216 321.5 L 215 321.5 L 215.5 319 Z "></path><path fill="rgb(43,139,228)" stroke="rgb(43,139,228)" stroke-width="1" opacity="1" d="M 215.5 323 L 216 343 L 256 343.5 L 215 344 L 215.5 323 Z "></path><path fill="rgb(43,139,228)" stroke="rgb(43,139,228)" stroke-width="1" opacity="1" d="M 298.5 332 L 297.5 334 L 285.5 340 L 274.5 342 L 274.5 341 L 285.5 339 L 298.5 332 Z "></path><path fill="rgb(43,139,228)" stroke="rgb(43,139,228)" stroke-width="1" opacity="1" d="M 260.5 342 L 272 342.5 L 260.5 343 L 260.5 342 Z "></path><path fill="rgb(17,58,16)" stroke="rgb(17,58,16)" stroke-width="1" opacity="1" d="M 57.5 0 L 58 25.5 L 57 25.5 L 57.5 0 Z "></path><path fill="rgb(17,58,16)" stroke="rgb(17,58,16)" stroke-width="1" opacity="1" d="M 214.5 0 L 215 52.5 L 214 52.5 L 214.5 0 Z "></path><path fill="rgb(17,58,16)" stroke="rgb(17,58,16)" stroke-width="1" opacity="1" d="M 342.5 0 L 343 52.5 L 341.5 54 L 220.5 54 L 220.5 53 L 342 53 L 342.5 0 Z "></path><path fill="rgb(17,58,16)" stroke="rgb(17,58,16)" stroke-width="1" opacity="1" d="M 57.5 29 L 58 48.5 L 57 48.5 L 57.5 29 Z "></path><path fill="rgb(17,58,16)" stroke="rgb(17,58,16)" stroke-width="1" opacity="1" d="M 0.5 53 L 45 53.5 L 0.5 54 L 0.5 53 Z "></path><path fill="rgb(17,58,16)" stroke="rgb(17,58,16)" stroke-width="1" opacity="1" d="M 64.5 56 L 71 56.5 L 64.5 57 L 64.5 56 Z "></path><path fill="rgb(17,58,16)" stroke="rgb(17,58,16)" stroke-width="1" opacity="1" d="M 172.5 56 L 188 56.5 L 185.5 58 L 184.5 57 L 172.5 57 L 172.5 56 Z "></path><path fill="rgb(17,58,16)" stroke="rgb(17,58,16)" stroke-width="1" opacity="1" d="M 178.5 58 L 181 58.5 L 178.5 59 L 178.5 58 Z "></path><path fill="rgb(17,58,16)" stroke="rgb(17,58,16)" stroke-width="1" opacity="1" d="M 347.5 58 L 350 58.5 L 347 59 L 346.5 64 L 346 59.5 L 347.5 58 Z "></path><path fill="rgb(17,58,16)" stroke="rgb(17,58,16)" stroke-width="1" opacity="1" d="M 351.5 58 L 400 58.5 L 351.5 59 L 351.5 58 Z "></path><path fill="rgb(17,58,16)" stroke="rgb(17,58,16)" stroke-width="1" opacity="1" d="M 167.5 60 L 171 60.5 L 167.5 61 L 167.5 60 Z "></path><path fill="rgb(17,58,16)" stroke="rgb(17,58,16)" stroke-width="1" opacity="1" d="M 156.5 61 L 160 61.5 L 156.5 62 L 156.5 61 Z "></path><path fill="rgb(17,58,16)" stroke="rgb(17,58,16)" stroke-width="1" opacity="1" d="M 142.5 62 L 150 62.5 L 142.5 63 L 142.5 62 Z "></path><path fill="rgb(17,58,16)" stroke="rgb(17,58,16)" stroke-width="1" opacity="1" d="M 132.5 63 L 136 63.5 L 132.5 64 L 132.5 63 Z "></path><path fill="rgb(17,58,16)" stroke="rgb(17,58,16)" stroke-width="1" opacity="1" d="M 122.5 64 L 128 64.5 L 122.5 65 L 122.5 64 Z "></path><path fill="rgb(17,58,16)" stroke="rgb(17,58,16)" stroke-width="1" opacity="1" d="M 111.5 65 L 115 65.5 L 111.5 66 L 111.5 65 Z "></path><path fill="rgb(17,58,16)" stroke="rgb(17,58,16)" stroke-width="1" opacity="1" d="M 347.5 65 L 348 69.5 L 347 69.5 L 347.5 65 Z "></path><path fill="rgb(17,58,16)" stroke="rgb(17,58,16)" stroke-width="1" opacity="1" d="M 103.5 66 L 106 66.5 L 103.5 67 L 103.5 66 Z "></path><path fill="rgb(17,58,16)" stroke="rgb(17,58,16)" stroke-width="1" opacity="1" d="M 346.5 71 L 347 75.5 L 346 75.5 L 346.5 71 Z "></path><path fill="rgb(17,58,16)" stroke="rgb(17,58,16)" stroke-width="1" opacity="1" d="M 86.5 73 L 84.5 76 L 86.5 73 Z "></path><path fill="rgb(17,58,16)" stroke="rgb(17,58,16)" stroke-width="1" opacity="1" d="M 82.5 77 L 79.5 81 L 82.5 77 Z "></path><path fill="rgb(17,58,16)" stroke="rgb(17,58,16)" stroke-width="1" opacity="1" d="M 347.5 78 L 348 102.5 L 347 102.5 L 347.5 78 Z "></path><path fill="rgb(17,58,16)" stroke="rgb(17,58,16)" stroke-width="1" opacity="1" d="M 71.5 102 L 72 104.5 L 71 104.5 L 71.5 102 Z "></path><path fill="rgb(17,58,16)" stroke="rgb(17,58,16)" stroke-width="1" opacity="1" d="M 69.5 110 L 70 112.5 L 69 112.5 L 69.5 110 Z "></path><path fill="rgb(17,58,16)" stroke="rgb(17,58,16)" stroke-width="1" opacity="1" d="M 68.5 119 L 69 125.5 L 68 125.5 L 68.5 119 Z "></path><path fill="rgb(17,58,16)" stroke="rgb(17,58,16)" stroke-width="1" opacity="1" d="M 72.5 139 L 73.5 141 L 72.5 139 Z "></path><path fill="rgb(17,58,16)" stroke="rgb(17,58,16)" stroke-width="1" opacity="1" d="M 78.5 145 L 79.5 147 L 78.5 145 Z "></path><path fill="rgb(17,58,16)" stroke="rgb(17,58,16)" stroke-width="1" opacity="1" d="M 347.5 155 L 348 163.5 L 347 163.5 L 347.5 155 Z "></path><path fill="rgb(17,58,16)" stroke="rgb(17,58,16)" stroke-width="1" opacity="1" d="M 113.5 156 L 117 156.5 L 113.5 157 L 113.5 156 Z "></path><path fill="rgb(17,58,16)" stroke="rgb(17,58,16)" stroke-width="1" opacity="1" d="M 123.5 157 L 129 157.5 L 123.5 158 L 123.5 157 Z "></path><path fill="rgb(17,58,16)" stroke="rgb(17,58,16)" stroke-width="1" opacity="1" d="M 139.5 158 L 147 158.5 L 139.5 159 L 139.5 158 Z "></path><path fill="rgb(17,58,16)" stroke="rgb(17,58,16)" stroke-width="1" opacity="1" d="M 154.5 159 L 159 159.5 L 154.5 160 L 154.5 159 Z "></path><path fill="rgb(17,58,16)" stroke="rgb(17,58,16)" stroke-width="1" opacity="1" d="M 165.5 160 L 171 160.5 L 165.5 161 L 165.5 160 Z "></path><path fill="rgb(17,58,16)" stroke="rgb(17,58,16)" stroke-width="1" opacity="1" d="M 187.5 161 L 189 162.5 L 189 191.5 L 188 191.5 L 188 162.5 L 187.5 161 Z "></path><path fill="rgb(17,58,16)" stroke="rgb(17,58,16)" stroke-width="1" opacity="1" d="M 60.5 171 L 61 179.5 L 60 179.5 L 60.5 171 Z "></path><path fill="rgb(17,58,16)" stroke="rgb(17,58,16)" stroke-width="1" opacity="1" d="M 347.5 180 L 348 183.5 L 347 183.5 L 347.5 180 Z "></path><path fill="rgb(17,58,16)" stroke="rgb(17,58,16)" stroke-width="1" opacity="1" d="M 60.5 184 L 61 189.5 L 60 189.5 L 60.5 184 Z "></path><path fill="rgb(17,58,16)" stroke="rgb(17,58,16)" stroke-width="1" opacity="1" d="M 346.5 185 L 347 189.5 L 346 189.5 L 346.5 185 Z "></path><path fill="rgb(17,58,16)" stroke="rgb(17,58,16)" stroke-width="1" opacity="1" d="M 61.5 191 L 127 191.5 L 61.5 192 L 61.5 191 Z "></path><path fill="rgb(17,58,16)" stroke="rgb(17,58,16)" stroke-width="1" opacity="1" d="M 347.5 191 L 348.5 193 Q 345.7 193.7 347.5 191 Z "></path><path fill="rgb(17,58,16)" stroke="rgb(17,58,16)" stroke-width="1" opacity="1" d="M 351.5 192 L 377 192.5 L 351.5 193 L 351.5 192 Z "></path><path fill="rgb(17,58,16)" stroke="rgb(17,58,16)" stroke-width="1" opacity="1" d="M 381.5 193 L 400 193.5 L 381.5 194 L 381.5 193 Z "></path><path fill="rgb(17,58,16)" stroke="rgb(17,58,16)" stroke-width="1" opacity="1" d="M 0.5 195 L 55 195.5 L 0.5 196 L 0.5 195 Z "></path><path fill="rgb(17,58,16)" stroke="rgb(17,58,16)" stroke-width="1" opacity="1" d="M 56.5 196 L 57 201.5 L 57 203.5 L 56.5 219 L 56 203.5 L 55 201.5 L 56.5 196 Z "></path><path fill="rgb(17,58,16)" stroke="rgb(17,58,16)" stroke-width="1" opacity="1" d="M 214 196 L 226 196.5 L 215 197 L 215 238.5 L 216 239.5 L 214 238.5 L 214 196 Z "></path><path fill="rgb(17,58,16)" stroke="rgb(17,58,16)" stroke-width="1" opacity="1" d="M 249.5 196 L 315 196.5 L 249.5 197 L 249.5 196 Z "></path><path fill="rgb(17,58,16)" stroke="rgb(17,58,16)" stroke-width="1" opacity="1" d="M 321.5 197 L 342.5 197 L 343 199.5 L 342 199.5 L 341.5 198 L 321.5 198 L 321.5 197 Z "></path><path fill="rgb(17,58,16)" stroke="rgb(17,58,16)" stroke-width="1" opacity="1" d="M 342.5 201 L 343 330.5 L 342 330.5 L 342.5 201 Z "></path><path fill="rgb(17,58,16)" stroke="rgb(17,58,16)" stroke-width="1" opacity="1" d="M 57.5 232 L 58 258.5 L 57 259.5 L 56.5 276 L 56 259.5 L 57 258.5 L 57.5 232 Z "></path><path fill="rgb(17,58,16)" stroke="rgb(17,58,16)" stroke-width="1" opacity="1" d="M 283.5 239 Q 290.9 240.1 294 245.5 L 297 249.5 L 292 245.5 L 289.5 242 L 283.5 240 L 283.5 239 Z "></path><path fill="rgb(17,58,16)" stroke="rgb(17,58,16)" stroke-width="1" opacity="1" d="M 222.5 240 L 226 240.5 L 222.5 241 L 222.5 240 Z "></path><path fill="rgb(17,58,16)" stroke="rgb(17,58,16)" stroke-width="1" opacity="1" d="M 231.5 241 L 241 241.5 L 231.5 242 L 231.5 241 Z "></path><path fill="rgb(17,58,16)" stroke="rgb(17,58,16)" stroke-width="1" opacity="1" d="M 259.5 241 L 262 241.5 L 259.5 242 L 259.5 241 Z "></path><path fill="rgb(17,58,16)" stroke="rgb(17,58,16)" stroke-width="1" opacity="1" d="M 298.5 250 L 302.5 255 L 298.5 250 Z "></path><path fill="rgb(17,58,16)" stroke="rgb(17,58,16)" stroke-width="1" opacity="1" d="M 306.5 266 L 307 268.5 L 306 268.5 L 306.5 266 Z "></path><path fill="rgb(17,58,16)" stroke="rgb(17,58,16)" stroke-width="1" opacity="1" d="M 55.5 278 L 56 326.5 L 53.5 328 L 53.5 327 L 55 326.5 L 55.5 278 Z "></path><path fill="rgb(17,58,16)" stroke="rgb(17,58,16)" stroke-width="1" opacity="1" d="M 311.5 292 L 312 294.5 L 311 294.5 L 311.5 292 Z "></path><path fill="rgb(17,58,16)" stroke="rgb(17,58,16)" stroke-width="1" opacity="1" d="M 307.5 324 L 306.5 326 L 307.5 324 Z "></path><path fill="rgb(17,58,16)" stroke="rgb(17,58,16)" stroke-width="1" opacity="1" d="M 305.5 327 L 304 329.5 Q 304.8 331.8 302.5 331 L 305.5 327 Z "></path><path fill="rgb(17,58,16)" stroke="rgb(17,58,16)" stroke-width="1" opacity="1" d="M 2.5 328 L 44 328.5 L 2.5 329 L 2.5 328 Z "></path><path fill="rgb(17,58,16)" stroke="rgb(17,58,16)" stroke-width="1" opacity="1" d="M 61.5 331 L 64 331.5 L 61 332 L 60.5 335 L 60 332.5 L 61.5 331 Z "></path><path fill="rgb(17,58,16)" stroke="rgb(17,58,16)" stroke-width="1" opacity="1" d="M 65.5 332 L 90 332.5 L 65.5 333 L 65.5 332 Z "></path><path fill="rgb(17,58,16)" stroke="rgb(17,58,16)" stroke-width="1" opacity="1" d="M 347.5 334 L 347 335.5 L 346.5 337 L 346 335.5 L 347.5 334 Z "></path><path fill="rgb(17,58,16)" stroke="rgb(17,58,16)" stroke-width="1" opacity="1" d="M 379.5 334 L 389 334.5 L 379.5 335 L 379.5 334 Z "></path><path fill="rgb(17,58,16)" stroke="rgb(17,58,16)" stroke-width="1" opacity="1" d="M 392.5 335 L 400 335.5 L 392.5 336 L 392.5 335 Z "></path><path fill="rgb(17,58,16)" stroke="rgb(17,58,16)" stroke-width="1" opacity="1" d="M 103.5 336 L 106 336.5 L 103.5 337 L 103.5 336 Z "></path><path fill="rgb(17,58,16)" stroke="rgb(17,58,16)" stroke-width="1" opacity="1" d="M 110.5 337 L 114 337.5 L 110.5 338 L 110.5 337 Z "></path><path fill="rgb(17,58,16)" stroke="rgb(17,58,16)" stroke-width="1" opacity="1" d="M 119.5 338 L 122 338.5 L 119.5 339 L 119.5 338 Z "></path><path fill="rgb(17,58,16)" stroke="rgb(17,58,16)" stroke-width="1" opacity="1" d="M 347.5 338 L 348 348.5 L 347 348.5 L 347.5 338 Z "></path><path fill="rgb(17,58,16)" stroke="rgb(17,58,16)" stroke-width="1" opacity="1" d="M 126.5 339 L 131 339.5 L 126.5 340 L 126.5 339 Z "></path><path fill="rgb(17,58,16)" stroke="rgb(17,58,16)" stroke-width="1" opacity="1" d="M 155.5 340 L 165 340.5 L 155.5 341 L 155.5 340 Z "></path><path fill="rgb(17,58,16)" stroke="rgb(17,58,16)" stroke-width="1" opacity="1" d="M 171.5 341 L 175 341.5 L 171.5 342 L 171.5 341 Z "></path><path fill="rgb(17,58,16)" stroke="rgb(17,58,16)" stroke-width="1" opacity="1" d="M 180.5 342 L 184 342.5 L 180.5 343 L 180.5 342 Z "></path><path fill="rgb(17,58,16)" stroke="rgb(17,58,16)" stroke-width="1" opacity="1" d="M 188.5 343 L 189 399.5 L 188 399.5 L 188.5 343 Z "></path><path fill="rgb(17,58,16)" stroke="rgb(17,58,16)" stroke-width="1" opacity="1" d="M 59.5 352 L 60 385.5 L 59 385.5 L 59.5 352 Z "></path><path fill="rgb(17,58,16)" stroke="rgb(17,58,16)" stroke-width="1" opacity="1" d="M 346.5 360 L 347 388.5 L 346 388.5 L 346.5 360 Z "></path><path fill="rgb(17,58,16)" stroke="rgb(17,58,16)" stroke-width="1" opacity="1" d="M 60.5 388 L 61 399.5 L 60 399.5 L 60.5 388 Z "></path><path fill="rgb(0,0,1)" stroke="rgb(0,0,1)" stroke-width="1" opacity="1" d="M 43 0 L 46 0.5 L 46 26 L 43 25.5 L 43 0 Z "></path><path fill="rgb(0,0,1)" stroke="rgb(0,0,1)" stroke-width="1" opacity="1" d="M 49 0 L 52 0.5 L 52 25.5 L 51 26.5 L 51 34.5 L 52 35.5 L 53 49 L 42 49 L 42 45.5 L 43 44.5 L 43 38 L 46 38 Q 44.1 43.6 49 42 L 49 0 Z "></path><path fill="rgb(0,0,1)" stroke="rgb(0,0,1)" stroke-width="1" opacity="1" d="M 220 0 L 225.5 0 L 226 0.5 L 226 26 L 221.5 27 L 219 26 L 220 0 Z "></path><path fill="rgb(0,0,1)" stroke="rgb(0,0,1)" stroke-width="1" opacity="1" d="M 332 0 L 337.5 0 L 338 0.5 L 338 25.5 L 337 26.5 L 337 49 L 330.5 49 L 330 48.5 L 330 25 L 332 24.5 L 332 0 Z "></path><path fill="rgb(0,0,1)" stroke="rgb(0,0,1)" stroke-width="1" opacity="1" d="M 215 9 Q 218.5 7.9 217 15.5 L 218 16.5 L 218 26 L 215 25.5 L 215 9 Z "></path><path fill="rgb(0,0,1)" stroke="rgb(0,0,1)" stroke-width="1" opacity="1" d="M 57.5 26 L 58 28.5 L 57 28.5 L 57.5 26 Z "></path><path fill="rgb(0,0,1)" stroke="rgb(0,0,1)" stroke-width="1" opacity="1" d="M 215.5 29 L 218 49 L 215 48.5 L 215.5 29 Z "></path><path fill="rgb(0,0,1)" stroke="rgb(0,0,1)" stroke-width="1" opacity="1" d="M 221 38 L 224 38 L 224 44.5 L 225 49 L 220 49 L 220 45.5 L 221 44.5 L 221 38 Z "></path><path fill="rgb(0,0,1)" stroke="rgb(0,0,1)" stroke-width="1" opacity="1" d="M 57.5 49 L 58 51.5 L 56 52.5 L 57.5 49 Z "></path><path fill="rgb(0,0,1)" stroke="rgb(0,0,1)" stroke-width="1" opacity="1" d="M 45.5 52 L 51 52.5 L 45.5 53 L 45.5 52 Z "></path><path fill="rgb(0,0,1)" stroke="rgb(0,0,1)" stroke-width="1" opacity="1" d="M 222.5 52 L 225 52.5 L 222.5 53 L 222.5 52 Z "></path><path fill="rgb(0,0,1)" stroke="rgb(0,0,1)" stroke-width="1" opacity="1" d="M 335.5 52 L 339 52.5 L 335.5 53 L 335.5 52 Z "></path><path fill="rgb(0,0,1)" stroke="rgb(0,0,1)" stroke-width="1" opacity="1" d="M 71.5 56 L 172 56.5 L 71.5 57 L 71.5 56 Z "></path><path fill="rgb(0,0,1)" stroke="rgb(0,0,1)" stroke-width="1" opacity="1" d="M 66.5 57 L 69 57.5 L 66.5 58 L 66.5 57 Z "></path><path fill="rgb(0,0,1)" stroke="rgb(0,0,1)" stroke-width="1" opacity="1" d="M 177.5 57 L 185 57.5 L 166.5 61 L 142.5 62 L 141.5 63 L 132.5 63 L 131.5 64 L 122.5 64 L 121.5 65 L 111.5 65 L 110.5 66 L 98.5 67 Q 86 71 79 80.5 L 72 94.5 L 72 101.5 L 69 110.5 L 68 125.5 Q 70.5 127 69 132.5 L 72 139.5 L 79.5 147 L 87.5 151 L 101.5 155 L 112.5 156 L 113.5 157 L 122.5 157 L 123.5 158 L 138.5 158 L 140 159.5 L 135.5 160 L 132.5 159 L 119.5 159 L 111.5 157 L 109.5 157 Q 95 155.8 85 151 L 85 180.5 L 84.5 181 L 76 181 L 76 184.5 L 73 186 L 71.5 189 L 66.5 188 Q 65.3 190.3 64 187.5 L 63 182.5 L 64 181.5 L 65 155.5 Q 62.5 154 64 148.5 L 65 147.5 L 65.5 132 L 68 133 Q 69.5 129.3 66.5 130 L 65 128.5 L 65 103.5 L 68.5 102 L 70 102.5 L 72 89.5 L 79 78 L 71.5 78 L 70 79.5 L 69 93 Q 64.1 94.8 66 88.5 L 65 87.5 L 65 62.5 L 66.5 59 L 72 60.5 L 67 61 L 67.5 63 L 93.5 63 L 96.5 60 L 107.5 60 L 108.5 61 L 120.5 61 L 121.5 60 L 144.5 60 L 146.5 60 L 152.5 61 L 155.5 60 Q 161 61.5 162.5 59 L 166.5 59 Q 173.9 59.9 177.5 57 Z M 73 69 L 70 73 L 79 73 L 80 74 L 84 74 L 90 70 L 90 69 L 77 69 L 76 70 L 73 69 Z "></path><path fill="rgb(0,0,1)" stroke="rgb(0,0,1)" stroke-width="1" opacity="1" d="M 350.5 58 L 351.5 59 L 400 59.5 L 348 60 L 350 70.5 L 348 74.5 L 349 75.5 L 349 178.5 L 350.5 180 L 352 178.5 L 352 161.5 L 351 158.5 L 352 157.5 L 352 70 L 354.5 69 L 378.5 69 L 381.5 73 L 399.5 73 L 400 78 L 380.5 78 L 380 78.5 L 380 181 L 399.5 181 L 400 181.5 L 400 187 L 351 188 Q 352.5 184.2 349.5 185 Q 347 186 348 190.5 L 351 192.5 L 349.5 193 Q 345.5 191.5 347 184.5 L 348 180.5 L 347 179.5 L 347 164.5 L 348 163.5 L 348 155.5 L 347 154.5 L 347 103.5 L 348 102.5 L 348 78.5 Q 345.3 76.8 347 70.5 L 348 65.5 L 347 59 L 350.5 58 Z M 379 180 L 378 181 L 355 182 L 378 182 L 379 183 L 379 180 Z "></path><path fill="rgb(0,0,1)" stroke="rgb(0,0,1)" stroke-width="1" opacity="1" d="M 61.5 63 L 62 75.5 L 61 75.5 L 61.5 63 Z "></path><path fill="rgb(0,0,1)" stroke="rgb(0,0,1)" stroke-width="1" opacity="1" d="M 351.5 63 L 355 63.5 L 352.5 65 L 351.5 63 Z "></path><path fill="rgb(0,0,1)" stroke="rgb(0,0,1)" stroke-width="1" opacity="1" d="M 379 63 L 399.5 63 L 400 63.5 L 400 69 L 380.5 69 L 378 66.5 L 379 63 Z "></path><path fill="rgb(0,0,1)" stroke="rgb(0,0,1)" stroke-width="1" opacity="1" d="M 61.5 139 L 62 155.5 L 61 155.5 L 61.5 139 Z "></path><path fill="rgb(0,0,1)" stroke="rgb(0,0,1)" stroke-width="1" opacity="1" d="M 141.5 159 L 153.5 159 L 154.5 160 L 164.5 160 L 165.5 161 L 187 161 Q 188.3 164.3 183.5 163 L 181.5 163 L 178.5 162 L 173.5 163 L 172.5 162 L 163.5 162 L 152.5 160 L 148.5 160 L 141.5 160 L 141.5 159 Z "></path><path fill="rgb(0,0,1)" stroke="rgb(0,0,1)" stroke-width="1" opacity="1" d="M 61.5 179 L 62 186.5 L 61 186.5 L 61.5 179 Z "></path><path fill="rgb(0,0,1)" stroke="rgb(0,0,1)" stroke-width="1" opacity="1" d="M 140.5 179 L 162.5 181 L 166 180 L 166 184 Q 161.5 182.5 163 187 L 169 187.5 L 146 188 L 145.5 186 L 137 186 Q 138.1 182.7 134 184 L 134 180 L 140.5 179 Z "></path><path fill="rgb(0,0,1)" stroke="rgb(0,0,1)" stroke-width="1" opacity="1" d="M 95 180 L 120.5 180 L 121 184 L 95.5 184 L 91.5 185 L 91.5 184 Q 97.2 185.6 95 180 Z "></path><path fill="rgb(0,0,1)" stroke="rgb(0,0,1)" stroke-width="1" opacity="1" d="M 173.5 183 L 188 183 L 188 188 L 173.5 188 L 172 186.5 L 173.5 183 Z "></path><path fill="rgb(0,0,1)" stroke="rgb(0,0,1)" stroke-width="1" opacity="1" d="M 61.5 189 L 62.5 190 L 78 190.5 L 61 191 L 61.5 189 Z "></path><path fill="rgb(0,0,1)" stroke="rgb(0,0,1)" stroke-width="1" opacity="1" d="M 86.5 190 L 121 190.5 L 86.5 191 L 86.5 190 Z "></path><path fill="rgb(0,0,1)" stroke="rgb(0,0,1)" stroke-width="1" opacity="1" d="M 127.5 191 L 188 191.5 L 127.5 192 L 127.5 191 Z "></path><path fill="rgb(0,0,1)" stroke="rgb(0,0,1)" stroke-width="1" opacity="1" d="M 377.5 192 L 400 192.5 L 377.5 193 L 377.5 192 Z "></path><path fill="rgb(0,0,1)" stroke="rgb(0,0,1)" stroke-width="1" opacity="1" d="M 0.5 196 L 44 196.5 L 0.5 197 L 0.5 196 Z "></path><path fill="rgb(0,0,1)" stroke="rgb(0,0,1)" stroke-width="1" opacity="1" d="M 47.5 196 L 56 196 L 56 200.5 L 55 202.5 L 56 203.5 L 56 218.5 L 57 219.5 L 57 258.5 L 56 259.5 L 56 277.5 L 55 278.5 L 54.5 327 L 53 306.5 L 54 305.5 L 54 261.5 L 52.5 259 L 50.5 260 L 49 259.5 L 49 269.5 L 51 271.5 L 51 285 Q 47.2 286 46 283.5 L 46 268.5 L 43 267.5 L 43 258 L 48 258 L 48 245.5 L 47 243 L 42 242 L 42 233 L 18.5 233 L 17 231.5 L 17 205.5 L 15.5 204 L 0.5 204 L 0 201 L 16.5 201 L 17.5 199 L 29.5 199 L 30.5 198 L 49 197.5 L 47.5 196 Z M 53 197 Q 53 201 55 198 L 53 197 Z M 55 222 L 54 232 L 50 234 L 52 243 L 52 245 L 54 246 L 54 257 L 56 257 L 56 233 L 55 232 L 55 222 Z "></path><path fill="rgb(0,0,1)" stroke="rgb(0,0,1)" stroke-width="1" opacity="1" d="M 226.5 196 L 248.5 196 L 249.5 197 L 320.5 197 L 321.5 198 L 342 198.5 L 312.5 199 L 311.5 198 L 302.5 198 L 301.5 199 L 292.5 199 L 291.5 198 L 277.5 198 L 276.5 199 L 248.5 199 L 247.5 198 L 226 198 L 226 200 L 220 200 Q 221.3 197 217.5 198 Q 216.3 200.3 215 197.5 L 225.5 197 L 226.5 196 Z "></path><path fill="rgb(0,0,1)" stroke="rgb(0,0,1)" stroke-width="1" opacity="1" d="M 269.5 200 Q 275.2 199.3 277.5 202 L 315 202.5 L 314 206 L 303.5 208 L 301 204 L 277 203 L 277 231.5 L 275.5 232 L 274.5 233 L 225.5 233 L 224 231.5 L 224 208 L 222 208.5 L 222 239 L 237 240.5 L 226.5 241 L 225.5 240 L 216.5 240 L 215 238.5 L 216 237.5 L 216 208.5 L 215 207.5 L 215 201 L 223.5 202 L 224.5 201 L 268.5 201 L 269.5 200 Z "></path><path fill="rgb(0,0,1)" stroke="rgb(0,0,1)" stroke-width="1" opacity="1" d="M 332.5 200 L 338 202.5 L 338 205 L 332 205 L 332 207.5 L 333.5 207 L 335.5 206 L 338 207 L 337 257.5 L 338 258.5 L 338 283.5 L 337 283.5 L 337 258.5 L 334 258 L 334 283.5 L 331 284 L 331 258.5 L 334 257.5 L 334 233.5 L 331 232 L 330.5 207 L 327.5 208 L 326 204.5 L 327 202 L 332.5 200 Z "></path><path fill="rgb(0,0,1)" stroke="rgb(0,0,1)" stroke-width="1" opacity="1" d="M 341.5 202 L 342 206.5 L 341 206.5 L 341.5 202 Z "></path><path fill="rgb(0,0,1)" stroke="rgb(0,0,1)" stroke-width="1" opacity="1" d="M 272.5 237 L 287.5 238 L 295 243.5 L 297 248 L 304 253.5 L 307 260.5 L 313 296 L 326.5 296 L 328 297.5 L 328 309.5 L 329 312 L 332 313.5 L 330 317.5 L 332.5 318 L 336.5 317 Q 340.1 320.2 339 327 Q 336.6 328.8 330.5 328 L 328 326.5 L 329 323.5 L 328 320.5 L 329 318 L 326.5 317 L 312 317 Q 310.8 325 305 329.5 L 334 330.5 L 304 331 L 311 317.5 L 312 312.5 L 312 292.5 L 307 272.5 L 306 261.5 Q 304.1 253.8 298.5 250 L 294 246.5 L 289.5 241 L 285.5 239 L 269.5 239 L 258.5 242 L 241.5 242 L 238 240.5 L 254.5 240 L 256.5 240 L 263.5 240 L 272.5 237 Z "></path><path fill="rgb(0,0,1)" stroke="rgb(0,0,1)" stroke-width="1" opacity="1" d="M 0 283 L 17.5 283 L 19 284.5 L 18 302.5 L 16.5 304 L 0 304 L 0 283 Z "></path><path fill="rgb(0,0,1)" stroke="rgb(0,0,1)" stroke-width="1" opacity="1" d="M 50.5 290 L 52 311 Q 48.2 310 47 312.5 L 46 314.5 Q 47.3 318.7 52 318 L 52 324 L 35.5 324 L 33 323 L 33.5 319 L 35 319.5 L 35.5 318 L 42 318 L 42 315 L 34 316 L 34 313 L 42 313 L 42 303.5 L 43 297 L 46 297 Q 44.5 301.5 49 300 L 50.5 290 Z "></path><path fill="rgb(0,0,1)" stroke="rgb(0,0,1)" stroke-width="1" opacity="1" d="M 11.5 308 L 30.5 309 L 33 310 Q 34.5 313.7 31.5 313 L 30.5 314 L 19 314.5 L 21 315 L 21 317 L 26.5 317 L 27 318.5 L 25.5 318 L 18.5 319 L 16 318.5 Q 15.3 315.9 18 317 L 18 314.5 L 16.5 315 L 11.5 315 L 5 313 Q 3.5 309.3 6.5 310 L 11.5 308 Z "></path><path fill="rgb(0,0,1)" stroke="rgb(0,0,1)" stroke-width="1" opacity="1" d="M 334.5 308 Q 339.9 306.1 339 309.5 L 340 312.5 L 339 315 Q 334.4 316.3 333 313.5 Q 332 309 334.5 308 Z "></path><path fill="rgb(0,0,1)" stroke="rgb(0,0,1)" stroke-width="1" opacity="1" d="M 0.5 312 L 4 313 Q 6 319 0 317 L 0.5 312 Z "></path><path fill="rgb(0,0,1)" stroke="rgb(0,0,1)" stroke-width="1" opacity="1" d="M 341.5 315 L 342 320.5 L 341 320.5 L 341.5 315 Z "></path><path fill="rgb(0,0,1)" stroke="rgb(0,0,1)" stroke-width="1" opacity="1" d="M 17.5 321 Q 26.5 320 31 322 Q 32.3 325.3 27.5 324 L 24 325 L 24.5 327 L 52.5 327 L 52.5 328 L 0 327.5 L 16.5 327 L 18 325.5 L 16 322.5 L 17.5 321 Z "></path><path fill="rgb(0,0,1)" stroke="rgb(0,0,1)" stroke-width="1" opacity="1" d="M 335.5 330 L 342 330.5 L 335.5 331 L 335.5 330 Z "></path><path fill="rgb(0,0,1)" stroke="rgb(0,0,1)" stroke-width="1" opacity="1" d="M 61 332 L 65.5 333 L 90.5 333 L 103.5 337 L 118.5 338 L 126.5 340 L 154.5 340 L 155.5 341 L 170.5 341 L 171.5 342 L 188 343 L 187.5 345 L 186.5 344 L 178.5 344 L 168.5 342 L 138.5 342 L 137.5 341 L 135.5 341 L 133.5 342 L 117.5 339 L 101.5 338 L 93.5 335 L 69.5 335 L 62.5 333 L 61 333.5 L 61 332 Z "></path><path fill="rgb(0,0,1)" stroke="rgb(0,0,1)" stroke-width="1" opacity="1" d="M 348.5 334 L 378.5 334 L 379.5 335 L 391.5 335 L 400 336.5 L 388.5 337 L 378.5 335 L 348 335 L 349 337.5 L 349 386 L 352 386 L 352 378.5 L 351 377.5 L 351 361.5 L 352 360.5 L 352 338 L 377.5 338 L 378 341 L 380 341 L 380 387 L 377.5 388 L 361 388 L 361 400 L 346 400 L 346 389.5 L 347 388.5 L 347 359.5 L 348 357.5 Q 345.3 355.7 347 349.5 L 348 348.5 L 348 338.5 L 347 335.5 L 348.5 334 Z "></path><path fill="rgb(0,0,1)" stroke="rgb(0,0,1)" stroke-width="1" opacity="1" d="M 60.5 335 L 62 399.5 L 61 399.5 L 61 388.5 L 60 387.5 L 60.5 335 Z "></path><path fill="rgb(0,0,1)" stroke="rgb(0,0,1)" stroke-width="1" opacity="1" d="M 67.5 351 L 70 352 L 71 361.5 L 70 362.5 L 70 387 L 67.5 388 L 65 387 L 65 352.5 L 66.5 352 L 67.5 351 Z "></path><path fill="rgb(1,106,253)" stroke="rgb(1,106,253)" stroke-width="1" opacity="1" d="M 184.5 59 L 187 59.5 L 185 60.5 L 185.5 62 L 183.5 62 L 179.5 61 L 160.5 65 L 158.5 65 L 156.5 64 L 153.5 65 L 150 65.5 L 150.5 67 Q 149.5 64 144.5 65 Q 143.3 67.3 142 64.5 L 171.5 62 L 184.5 59 Z "></path><path fill="rgb(1,106,253)" stroke="rgb(1,106,253)" stroke-width="1" opacity="1" d="M 215.5 62 L 216 64.5 L 215 64.5 L 215.5 62 Z "></path><path fill="rgb(1,106,253)" stroke="rgb(1,106,253)" stroke-width="1" opacity="1" d="M 130.5 65 L 141 65.5 L 137.5 67 L 135.5 66 L 132.5 67 L 130.5 66 L 122.5 68 L 120.5 68 L 117.5 69 L 115.5 68 L 112.5 69 L 110.5 68 L 107 69 L 106.5 71 L 103.5 70 L 99.5 72 L 97.5 71 L 97.5 73 L 91 75 Q 92.1 77.7 89.5 77 L 83 81 L 81 87 Q 78.3 85.9 79 88.5 L 78 91.5 L 76 95.5 Q 78.5 97 75 98.5 L 76 100.5 L 74 100.5 L 73.5 103 L 73 100.5 L 78 85.5 L 85.5 77 L 90.5 73 L 99.5 69 L 109.5 67 L 129.5 66 L 130.5 65 Z "></path><path fill="rgb(1,106,253)" stroke="rgb(1,106,253)" stroke-width="1" opacity="1" d="M 215.5 68 L 216 75.5 L 215 75.5 L 215.5 68 Z "></path><path fill="rgb(1,106,253)" stroke="rgb(1,106,253)" stroke-width="1" opacity="1" d="M 215.5 80 L 216 92.5 L 215 92.5 L 215.5 80 Z "></path><path fill="rgb(1,106,253)" stroke="rgb(1,106,253)" stroke-width="1" opacity="1" d="M 215.5 94 L 216 110.5 L 215 110.5 L 215.5 94 Z "></path><path fill="rgb(1,106,253)" stroke="rgb(1,106,253)" stroke-width="1" opacity="1" d="M 72.5 105 L 74 110.5 L 73 112.5 Q 75.5 114 72 115.5 L 73 119.5 L 73 123.5 L 74 128.5 L 73 131 L 75 131.5 L 75 133.5 L 79.5 140 L 82 140.5 L 80 141.5 L 82 142 Q 80.8 145 84.5 144 L 86.5 147 L 88 146.5 L 88.5 148 Q 90 145.5 91.5 149 L 94.5 148 L 99.5 151 L 101 150.5 Q 100.3 152.8 102.5 152 L 104 151.5 Q 104.9 154.5 100.5 153 L 97 152 L 96.5 150 L 93.5 151 L 82.5 146 L 75 138.5 L 72 132.5 L 70 122.5 L 71 119.5 L 72.5 105 Z "></path><path fill="rgb(1,106,253)" stroke="rgb(1,106,253)" stroke-width="1" opacity="1" d="M 215.5 112 L 216 119.5 L 215 119.5 L 215.5 112 Z "></path><path fill="rgb(1,106,253)" stroke="rgb(1,106,253)" stroke-width="1" opacity="1" d="M 215.5 121 L 216 153.5 L 215 153.5 L 215.5 121 Z "></path><path fill="rgb(1,106,253)" stroke="rgb(1,106,253)" stroke-width="1" opacity="1" d="M 105 152 L 108.5 153 L 110.5 153 L 120.5 155 L 122.5 155 L 124.5 154 L 131 155.5 L 119.5 156 L 118.5 155 L 105 154 L 105 152 Z "></path><path fill="rgb(1,106,253)" stroke="rgb(1,106,253)" stroke-width="1" opacity="1" d="M 136.5 154 L 139 155.5 L 139.5 154 L 140 156 L 150.5 155 L 154.5 157 L 157 155.5 Q 156.2 158.1 159.5 157 L 161.5 156 Q 163.5 159 169.5 158 L 171.5 158 L 174.5 157 L 175.5 159 L 137.5 157 L 135 155.5 L 136.5 154 Z "></path><path fill="rgb(1,106,253)" stroke="rgb(1,106,253)" stroke-width="1" opacity="1" d="M 177 157 L 180 158.5 Q 180.7 161.5 177 160 L 177 157 Z "></path><path fill="rgb(1,106,253)" stroke="rgb(1,106,253)" stroke-width="1" opacity="1" d="M 182.5 157 L 187 159.5 L 184.5 160 Q 180.1 161.5 181 158.5 L 182.5 157 Z "></path><path fill="rgb(1,106,253)" stroke="rgb(1,106,253)" stroke-width="1" opacity="1" d="M 269.5 241 Q 280 239 283 244.5 Q 282.3 246.8 284.5 246 Q 293.8 247.8 298 254.5 L 299.5 257 Q 301.8 256.3 301 258.5 L 305 266.5 Q 305.3 278.2 309 286.5 Q 307.8 291.3 310 292.5 L 310 311.5 L 309 316.5 L 302 328 L 299 329.5 L 297.5 332 L 292.5 334 L 291.5 332 L 293 332.5 Q 292.2 329.9 295.5 331 L 298 327 L 301 325.5 L 300 323.5 L 302 323.5 L 304 320.5 L 305 317 L 307 316.5 L 305 316 L 305.5 314 L 307 314.5 L 308 312.5 L 307.5 311 Q 309.8 311.8 309 309.5 L 309 305.5 Q 310.5 300 308 298.5 L 308.5 297 L 307 296.5 L 309 296 L 307 291.5 L 308 288.5 L 304 267.5 Q 299.4 264.2 299 258 L 296 256.5 L 296 254.5 L 291.5 250 L 287.5 248 L 285.5 248 L 278.5 246 L 277 246.5 Q 279.3 245.3 276.5 244 L 275 244.5 L 274.5 243 L 267.5 243 L 265.5 243 Q 262.2 241.9 263 244.5 L 261.5 244 L 257.5 245 L 255.5 245 L 253.5 244 L 250.5 245 L 247.5 244 L 244.5 245 L 241.5 244 L 239.5 244 L 237.5 245 L 236.5 244 L 225.5 244 L 224.5 243 L 223.5 245 L 222.5 243 L 218.5 243 L 216 242.5 L 227.5 242 L 228.5 243 L 248.5 243 L 249.5 244 L 250.5 243 L 262.5 243 L 269.5 241 Z "></path><path fill="rgb(1,106,253)" stroke="rgb(1,106,253)" stroke-width="1" opacity="1" d="M 187.5 245 L 188 250.5 L 187 250.5 L 187.5 245 Z "></path><path fill="rgb(1,106,253)" stroke="rgb(1,106,253)" stroke-width="1" opacity="1" d="M 187.5 252 L 188 260.5 L 187 260.5 L 187.5 252 Z "></path><path fill="rgb(1,106,253)" stroke="rgb(1,106,253)" stroke-width="1" opacity="1" d="M 187.5 262 L 188 278.5 L 187 278.5 L 187.5 262 Z "></path><path fill="rgb(1,106,253)" stroke="rgb(1,106,253)" stroke-width="1" opacity="1" d="M 187.5 281 L 188 285.5 L 187 285.5 L 187.5 281 Z "></path><path fill="rgb(1,106,253)" stroke="rgb(1,106,253)" stroke-width="1" opacity="1" d="M 187.5 288 L 188 294.5 L 187 294.5 L 187.5 288 Z "></path><path fill="rgb(1,106,253)" stroke="rgb(1,106,253)" stroke-width="1" opacity="1" d="M 187.5 301 L 188 305.5 L 187 305.5 L 187.5 301 Z "></path><path fill="rgb(1,106,253)" stroke="rgb(1,106,253)" stroke-width="1" opacity="1" d="M 187.5 308 L 188 317.5 L 187 317.5 L 187.5 308 Z "></path><path fill="rgb(1,106,253)" stroke="rgb(1,106,253)" stroke-width="1" opacity="1" d="M 271.5 312 L 274 312.5 L 271.5 313 L 271.5 312 Z "></path><path fill="rgb(1,106,253)" stroke="rgb(1,106,253)" stroke-width="1" opacity="1" d="M 187.5 319 L 188 325.5 L 187 325.5 L 187.5 319 Z "></path><path fill="rgb(1,106,253)" stroke="rgb(1,106,253)" stroke-width="1" opacity="1" d="M 88.5 328 L 94.5 331 Q 96 328.5 97.5 332 L 100.5 333 L 102.5 333 L 108.5 334 L 110 333.5 Q 109.3 335.8 111.5 335 L 114 334 Q 115.4 338 108.5 336 L 94.5 333 L 88 330 L 88.5 328 Z "></path><path fill="rgb(1,106,253)" stroke="rgb(1,106,253)" stroke-width="1" opacity="1" d="M 115.5 334 Q 117 337.5 118.5 335 L 122.5 336 L 124.5 336 L 128.5 337 L 130.5 337 L 139.5 337 L 140.5 338 L 143.5 337 L 146.5 338 L 149.5 336 L 150 338 L 158.5 338 L 159.5 337 L 160.5 338 L 163 336.5 L 162.5 338 L 164.5 337 L 168 338.5 L 142.5 339 L 140.5 339 L 138.5 338 L 116 337 L 115.5 334 Z "></path><path fill="rgb(1,106,253)" stroke="rgb(1,106,253)" stroke-width="1" opacity="1" d="M 187.5 336 L 188 341 L 177.5 341 L 177 339 L 182.5 340 L 184.5 340 L 187 338.5 L 187.5 336 Z "></path><path fill="rgb(1,106,253)" stroke="rgb(1,106,253)" stroke-width="1" opacity="1" d="M 169 338 Q 173.7 337.1 176 339.5 L 169 340 L 169 338 Z "></path><path fill="rgb(0,0,0)" stroke="rgb(0,0,0)" stroke-width="1" opacity="1" d="M 0 0 L 43 0 L 43 25.5 L 46 26 L 46 0.5 L 49 0 L 49 41.5 L 46 42 Q 47.9 36.4 43 38 L 42 49 L 53 49 L 53 42.5 L 51 34.5 L 51 26.5 L 52 25.5 L 52 0 L 57 0.5 L 57 51.5 Q 56 54 51.5 53 Q 50.2 50.8 45.5 52 L 44.5 53 L 0 53 L 0 0 Z "></path><path fill="rgb(0,0,0)" stroke="rgb(0,0,0)" stroke-width="1" opacity="1" d="M 215 0 L 220 0 L 220 8.5 L 219 9.5 L 219 26 L 223.5 27 L 226 26 L 226 0.5 L 226.5 0 L 332 0 L 332 24.5 L 330 25.5 L 330 49 L 336.5 49 L 337 48.5 L 337 26.5 L 338 25.5 L 338 0 L 342 0.5 L 342 53 L 335.5 52 L 334.5 53 L 225.5 53 L 222.5 52 Q 221.2 54.3 216.5 53 L 215 49 Q 219.5 50.8 218 45.5 L 217 44.5 L 216 29.5 L 215 26 L 218 25.5 L 218 16.5 L 217 15.5 L 217 9 L 215 8.5 L 215 0 Z M 221 38 L 221 45 L 220 46 L 220 49 L 225 49 L 224 45 L 224 38 L 221 38 Z "></path><path fill="rgb(0,0,0)" stroke="rgb(0,0,0)" stroke-width="1" opacity="1" d="M 62.5 57 L 68.5 58 L 69.5 57 L 176.5 57 L 176.5 58 L 165.5 60 L 161.5 60 Q 156 58.5 154.5 61 L 152.5 61 L 146.5 60 L 144.5 60 L 108.5 61 L 107.5 60 L 96.5 60 L 93.5 63 L 67 63 Q 65.7 59.3 71.5 61 L 71.5 60 L 66.5 59 L 65 62.5 L 65 87.5 L 66 93 Q 71.3 94.8 69 87.5 Q 71.8 85.8 70 79.5 L 71.5 78 Q 77.8 79.8 79.5 77 L 79 78.5 L 72 89.5 L 71 99.5 L 69.5 103 L 66.5 102 L 65 103.5 L 65 128.5 L 68 130 Q 69.5 133.8 66.5 133 L 65 132.5 L 64 154.5 L 65 155.5 L 65 164.5 L 64 165.5 Q 65.6 177.6 63 185.5 L 65.5 189 L 69.5 188 L 71.5 189 L 73 186 L 76 184.5 L 76 181 L 84.5 181 L 85 180.5 L 85 151.5 L 86.5 151 L 89.5 153 L 110.5 158 L 112.5 157 L 119.5 159 L 132.5 159 L 133.5 160 L 135.5 160 L 140.5 159 L 149.5 161 L 152.5 160 L 177.5 163 L 179.5 163 L 182.5 162 L 186.5 163 L 188 162.5 L 188 183 L 173.5 183 L 172 186.5 L 173.5 188 L 188 188 L 187.5 191 L 121.5 191 L 120.5 190 L 86.5 190 Q 84.7 192.7 78.5 191 L 77.5 190 L 62.5 190 L 61 188.5 L 62 179.5 L 61 178.5 L 61 156.5 L 62 155.5 L 62 139.5 L 61 138.5 L 61 76.5 L 62 75.5 L 62 63.5 L 61 58.5 L 62.5 57 Z M 141 179 L 134 180 L 134 184 Q 138 183 137 186 L 146 186 L 146 188 L 169 188 L 163 187 Q 162 183 166 184 L 166 180 L 163 181 L 141 179 Z M 95 180 L 96 184 L 121 184 L 121 180 L 95 180 Z M 92 184 L 92 185 L 95 185 L 92 184 Z "></path><path fill="rgb(0,0,0)" stroke="rgb(0,0,0)" stroke-width="1" opacity="1" d="M 348 60 L 399.5 60 L 400 63 L 379.5 63 L 379 64.5 L 378 66.5 L 380.5 69 L 400 69 L 399.5 73 L 381.5 73 L 378.5 69 L 354.5 69 L 352 70 L 352 157.5 L 351 160.5 L 352 161.5 L 352 178.5 Q 350.5 181.5 349 178.5 L 349 75.5 L 348 72.5 Q 350.8 71.8 350 67.5 L 348 60 Z M 352 63 L 353 65 L 355 64 L 352 63 Z "></path><path fill="rgb(0,0,0)" stroke="rgb(0,0,0)" stroke-width="1" opacity="1" d="M 72.5 69 L 75.5 70 L 76.5 69 L 89.5 69 L 89.5 70 L 83.5 74 L 79.5 74 L 78.5 73 L 70 73 L 72.5 69 Z "></path><path fill="rgb(0,0,0)" stroke="rgb(0,0,0)" stroke-width="1" opacity="1" d="M 380 78 L 399.5 78 L 400 78.5 L 400 181 L 380.5 181 L 380 180.5 L 380 78 Z "></path><path fill="rgb(0,0,0)" stroke="rgb(0,0,0)" stroke-width="1" opacity="1" d="M 378.5 180 L 379 182.5 L 377.5 182 L 355 181.5 L 377.5 181 L 378.5 180 Z "></path><path fill="rgb(0,0,0)" stroke="rgb(0,0,0)" stroke-width="1" opacity="1" d="M 349.5 185 L 351 185 L 351.5 188 L 379.5 188 L 380.5 187 L 400 187 L 399.5 192 L 354.5 192 L 352.5 191 L 349.5 192 Q 347 191 348 186.5 L 349.5 185 Z "></path><path fill="rgb(0,0,0)" stroke="rgb(0,0,0)" stroke-width="1" opacity="1" d="M 44.5 196 L 49 197.5 L 17 199 L 16.5 201 L 0 201 L 0.5 197 L 43.5 197 L 44.5 196 Z "></path><path fill="rgb(0,0,0)" stroke="rgb(0,0,0)" stroke-width="1" opacity="1" d="M 52.5 197 L 55 197.5 Q 52.9 200.8 52.5 197 Z "></path><path fill="rgb(0,0,0)" stroke="rgb(0,0,0)" stroke-width="1" opacity="1" d="M 215.5 198 L 217.5 198 L 220 198 L 220.5 200 L 226 200 L 226.5 198 L 247.5 198 L 248.5 199 L 276.5 199 L 277.5 198 L 291.5 198 L 292.5 199 L 301.5 199 L 302.5 198 L 311.5 198 L 312.5 199 L 342 199 L 341 206.5 L 342 207.5 L 342 314.5 Q 339.7 315.8 341 320.5 L 342 321.5 L 342 330 L 305 329.5 Q 310.8 325 312 317 L 326.5 317 L 329 318 L 328 322.5 L 329 325.5 L 328.5 327 L 336.5 328 L 339 327 Q 340.1 320.2 336.5 317 L 330.5 318 L 331 316.5 L 332 313.5 L 329 312 L 328 309.5 L 328 297.5 L 326.5 296 L 313.5 296 L 313 292.5 L 309 276.5 L 307 260.5 Q 304.8 252.2 298.5 248 Q 296.3 248.8 297 246.5 L 292.5 241 L 287.5 238 L 272.5 237 L 263.5 240 Q 257.3 238.3 255.5 241 L 254.5 240 L 238.5 240 L 236.5 240 L 222 239 L 222 208.5 L 224 208 L 224 231.5 L 225.5 233 L 274.5 233 L 277 232 L 277 203 L 288.5 203 L 289.5 204 L 301 204 L 303.5 208 L 314 206 L 315 202.5 L 277.5 202 Q 275.2 199.3 269.5 200 L 268.5 201 L 224.5 201 L 221.5 202 L 215 201 L 215.5 198 Z M 333 200 L 327 202 L 326 205 L 328 208 L 331 207 L 331 232 L 334 234 L 334 258 L 337 258 L 338 207 L 336 206 L 334 207 L 332 208 L 332 205 L 338 205 L 338 203 L 333 200 Z M 331 258 L 331 284 L 334 284 L 334 259 L 331 258 Z M 338 258 L 337 284 L 338 284 L 338 258 Z M 335 308 Q 332 309 333 314 Q 334 316 339 315 L 340 313 L 339 310 Q 340 306 335 308 Z "></path><path fill="rgb(0,0,0)" stroke="rgb(0,0,0)" stroke-width="1" opacity="1" d="M 0 204 L 15.5 204 L 17 205.5 L 17 231.5 L 18.5 233 L 42 233 L 42 241.5 L 43.5 242 L 47 243 L 48 245.5 L 48 258 L 43 258 L 43 268 L 46 268.5 L 46 283.5 Q 47.2 286 51 285 L 51 271.5 L 49 269.5 L 49 259.5 L 50.5 260 L 52.5 259 L 54 261.5 L 54 305.5 L 53 309.5 L 54 310.5 L 54 327 L 24.5 327 L 24 325 L 31 324 Q 32.3 321 28.5 322 L 27.5 321 L 17.5 321 L 16 323.5 Q 19.8 325.3 16.5 327 L 0.5 327 Q -0.5 327 0 322.5 L 1 320.5 L 0 317 Q 6 319 4 313 L 0 311.5 L 0 304 L 16.5 304 L 18 302.5 L 19 284.5 L 17.5 283 L 0 283 L 0 204 Z M 51 290 L 49 300 Q 45 302 46 297 L 43 297 L 42 304 L 42 313 L 34 313 L 34 316 L 42 315 L 42 318 L 36 318 L 35 320 L 34 319 L 33 323 L 36 324 L 52 324 L 52 318 Q 47 319 46 315 L 47 313 Q 48 310 52 311 L 51 290 Z M 12 308 L 7 310 Q 3 309 5 313 L 12 315 L 17 315 L 18 315 L 18 317 Q 15 316 16 319 L 19 319 L 26 318 L 27 319 L 27 317 L 21 317 L 21 315 L 19 315 L 31 314 L 32 313 Q 34 314 33 310 L 31 309 L 12 308 Z "></path><path fill="rgb(0,0,0)" stroke="rgb(0,0,0)" stroke-width="1" opacity="1" d="M 215.5 208 L 216 237.5 L 215 237.5 L 215.5 208 Z "></path><path fill="rgb(0,0,0)" stroke="rgb(0,0,0)" stroke-width="1" opacity="1" d="M 54.5 222 L 55 231.5 L 56 232.5 L 56 257 L 54 256.5 L 54 245.5 L 52 245 L 52 242.5 L 50 234 L 54 231.5 L 54.5 222 Z "></path><path fill="rgb(0,0,0)" stroke="rgb(0,0,0)" stroke-width="1" opacity="1" d="M 62.5 333 L 69.5 335 L 93.5 335 L 101.5 338 L 117.5 339 L 133.5 342 L 135.5 341 L 138.5 342 L 168.5 342 L 169.5 343 L 186.5 344 L 188 345.5 L 188 400 L 62 400 L 62 387.5 L 61 386.5 L 61 334.5 L 62.5 333 Z M 68 351 L 67 352 L 65 353 L 65 387 L 68 388 L 70 387 L 70 363 L 71 362 L 70 352 L 68 351 Z "></path><path fill="rgb(0,0,0)" stroke="rgb(0,0,0)" stroke-width="1" opacity="1" d="M 348 335 L 378.5 335 L 388.5 337 L 400 337 L 400 400 L 361 400 L 361 388 L 377.5 388 L 380 387 L 380 341 L 378 341 L 377.5 338 L 352 338 L 351 377.5 L 352 378.5 L 352 386 L 349 385.5 L 349 337.5 L 348 335 Z "></path></svg>