<svg width="400" height="400" version="1.1" xmlns="http://www.w3.org/2000/svg" desc="Created with imagetracer.js version 1.2.5"><path fill="rgb(0,0,0)" stroke="rgb(0,0,0)" stroke-width="1" opacity="0" d="M 0 0 L 309 0.5 L 301 5.5 Q 301.8 7.8 299.5 7 L 290.5 13 L 288 13 L 286.5 16 L 278 20 L 276.5 23 Q 269.9 23.9 267 28.5 Q 267.8 31.1 264.5 30 L 256 35.5 Q 256.8 37.8 254.5 37 L 245.5 43 L 243 43 L 241.5 46 L 233 50.5 Q 233.8 52.8 231.5 52 L 222.5 58 L 220 58 L 218.5 61 L 210 65 L 208.5 68 L 198 73 Q 199.1 75.7 196.5 75 L 188 80.5 Q 188.8 82.8 186.5 82 L 177.5 88 L 175 88 L 173.5 91 L 165 95 L 163.5 98 L 153 103 Q 154.3 106 150.5 105 L 141 110 L 139.5 113 L 129 118.5 Q 129.8 120.8 127.5 120 L 119 125.5 Q 119.8 127.8 117.5 127 L 106 133 L 104.5 136 L 96 140 L 94.5 143 L 84 148.5 Q 84.8 150.8 82.5 150 L 74 155.5 Q 74.8 157.8 72.5 157 L 61 163 L 59.5 166 L 51 170 L 49.5 173 L 39 178.5 Q 39.8 180.8 37.5 180 L 29 185.5 Q 29.8 187.8 27.5 187 L 16 193 L 14.5 196 L 6 200 L 4.5 203 L 0.5 205 L 0 0 Z "></path><path fill="rgb(0,0,0)" stroke="rgb(0,0,0)" stroke-width="1" opacity="0" d="M 399.5 102 L 400 314.5 L 399 314.5 L 395.5 310 Q 390.5 310.5 390 306.5 L 386.5 302 L 384 302 L 384 300 Q 381.3 301.1 382 298.5 L 373 292 L 371.5 289 L 366 284.5 L 364.5 282 L 357 276.5 Q 357.8 274.3 355.5 275 Q 353.1 270.6 348 270 L 341.5 262 L 338.5 260 L 332 254.5 L 328.5 250 L 323 246.5 L 319.5 242 L 315 240 L 311.5 235 L 307 231.5 L 305.5 229 L 303.5 229 L 299 224.5 L 296.5 221 L 290 216.5 Q 290.8 214.3 288.5 215 L 282 210 Q 283.1 207.3 280.5 208 L 273 202 L 271.5 199 L 265 195 L 264 192.5 L 275 187 Q 273.9 184.3 276.5 185 L 286 180 L 287.5 177 L 289.5 177 L 295.5 172 L 298 172 L 299.5 169 L 308 165 L 309.5 162 L 320 157 Q 318.9 154.3 321.5 155 L 330 149.5 Q 329.3 147.3 331.5 148 L 340.5 142 L 343 142 L 344.5 139 L 353 135 Q 351.9 132.3 354.5 133 L 365 127 Q 363.9 124.3 366.5 125 L 375 119.5 Q 374.3 117.3 376.5 118 L 385.5 112 L 388 112 L 389.5 109 L 398 105 L 399.5 102 Z "></path><path fill="rgb(0,0,0)" stroke="rgb(0,0,0)" stroke-width="1" opacity="0" d="M 167.5 260 L 168 262 L 171.5 263 L 178 268.5 L 183.5 275 Q 186.8 273.9 186 276.5 Q 189.4 281.5 195 283 L 198.5 288 L 202 290.5 L 203.5 293 L 211 298.5 L 213.5 302 L 219 305 L 220.5 308 L 228 313 Q 226.9 315.7 229.5 315 L 235 322 L 245 328 L 248.5 333 L 253 335.5 L 258.5 342 L 262 343 L 265.5 348 L 269 350.5 L 271.5 354 L 278 358.5 L 280.5 362 L 286 365.5 L 288.5 369 L 295 373 Q 293.3 377.1 297.5 376 L 303.5 383 L 312 388 L 315.5 393 L 320 395 L 323 399.5 L 0 400 L 0 371.5 L 3.5 368 L 7 366.5 Q 6.3 364.3 8.5 365 L 17 360 L 18.5 357 L 29 351.5 Q 28.3 349.3 30.5 350 L 39 344.5 Q 38.2 341.9 41.5 343 L 52 336.5 Q 51.3 334.3 53.5 335 L 63 330 Q 61.9 327.3 64.5 328 L 75 321.5 Q 74.3 319.3 76.5 320 L 84.5 315 L 87 315 L 88.5 312 L 98 306.5 Q 97.3 304.3 99.5 305 L 107.5 300 L 110 300 L 111.5 297 L 121 291.5 Q 120.3 289.3 122.5 290 L 130.5 285 L 133 285 L 134.5 282 L 144 276.5 Q 143.2 273.9 146.5 275 L 153.5 270 L 156 270 L 157.5 267 L 167 261.5 L 167.5 260 Z "></path><path fill="rgb(61,172,235)" stroke="rgb(61,172,235)" stroke-width="1" opacity="0.7372549019607844" d="M 330.5 0 L 332 0.5 L 323 5 L 321.5 8 L 312 13.5 Q 312.8 16.1 309.5 15 L 301 20.5 Q 301.8 22.8 299.5 22 L 296.5 24 L 296.5 23 L 316.5 9 L 322 7 L 323.5 4 L 330.5 0 Z "></path><path fill="rgb(61,172,235)" stroke="rgb(61,172,235)" stroke-width="1" opacity="0.7372549019607844" d="M 294.5 24 L 293.5 26 L 289.5 28 L 289.5 27 L 294.5 24 Z "></path><path fill="rgb(61,172,235)" stroke="rgb(61,172,235)" stroke-width="1" opacity="0.7372549019607844" d="M 287.5 28 L 288 29.5 L 280.5 34 L 280.5 33 L 287 30 L 287.5 28 Z "></path><path fill="rgb(61,172,235)" stroke="rgb(61,172,235)" stroke-width="1" opacity="0.7372549019607844" d="M 278.5 34 L 278 35.5 L 277.5 37 L 277 35.5 L 278.5 34 Z "></path><path fill="rgb(61,172,235)" stroke="rgb(61,172,235)" stroke-width="1" opacity="0.7372549019607844" d="M 275.5 37 L 274.5 39 L 273 38.5 L 275.5 37 Z "></path><path fill="rgb(61,172,235)" stroke="rgb(61,172,235)" stroke-width="1" opacity="0.7372549019607844" d="M 271.5 39 L 270.5 41 L 271.5 39 Z "></path><path fill="rgb(61,172,235)" stroke="rgb(61,172,235)" stroke-width="1" opacity="0.7372549019607844" d="M 268.5 41 L 267.5 43 L 268.5 41 Z "></path><path fill="rgb(61,172,235)" stroke="rgb(61,172,235)" stroke-width="1" opacity="0.7372549019607844" d="M 264 43 L 266 43.5 L 263 45.5 L 264 43 Z "></path><path fill="rgb(61,172,235)" stroke="rgb(61,172,235)" stroke-width="1" opacity="0.7372549019607844" d="M 261.5 46 L 260.5 48 L 261.5 46 Z "></path><path fill="rgb(61,172,235)" stroke="rgb(61,172,235)" stroke-width="1" opacity="0.7372549019607844" d="M 257.5 48 L 256.5 50 L 257.5 48 Z "></path><path fill="rgb(61,172,235)" stroke="rgb(61,172,235)" stroke-width="1" opacity="0.7372549019607844" d="M 254.5 50 L 255 51.5 L 253 52.5 L 254.5 50 Z "></path><path fill="rgb(61,172,235)" stroke="rgb(61,172,235)" stroke-width="1" opacity="0.7372549019607844" d="M 250.5 53 L 252 53.5 L 243 58 Q 244.1 60.7 241.5 60 L 233 65.5 Q 233.8 67.8 231.5 67 L 221.5 73 L 221.5 72 L 229.5 68 L 234.5 63 L 236.5 63 L 250.5 53 Z "></path><path fill="rgb(61,172,235)" stroke="rgb(61,172,235)" stroke-width="1" opacity="0.7372549019607844" d="M 219.5 73 L 220 74.5 L 214.5 78 L 214.5 77 L 219 75 L 219.5 73 Z "></path><path fill="rgb(61,172,235)" stroke="rgb(61,172,235)" stroke-width="1" opacity="0.7372549019607844" d="M 212.5 78 L 211.5 80 Q 209.3 79.3 210 81.5 L 198 88 Q 199.1 90.7 196.5 90 L 192.5 93 L 193.5 91 L 196 89.5 Q 195.3 87.3 197.5 88 L 209 82 L 210.5 79 L 212.5 78 Z "></path><path fill="rgb(61,172,235)" stroke="rgb(61,172,235)" stroke-width="1" opacity="0.7372549019607844" d="M 399.5 87 L 399 88.5 L 397.5 91 L 395.5 92 L 396.5 90 Q 398.8 90.8 398 88.5 L 399.5 87 Z "></path><path fill="rgb(61,172,235)" stroke="rgb(61,172,235)" stroke-width="1" opacity="0.7372549019607844" d="M 392.5 92 L 394 92.5 L 389 95 L 387.5 98 L 377 103.5 Q 377.8 105.8 375.5 105 L 367 110.5 Q 367.8 112.8 365.5 112 L 359.5 116 L 361.5 113 L 365 112 Q 363.9 109.3 366.5 110 L 375 104.5 Q 374.3 102.3 376.5 103 L 385.5 97 L 388 97 L 389.5 94 L 392.5 92 Z "></path><path fill="rgb(61,172,235)" stroke="rgb(61,172,235)" stroke-width="1" opacity="0.7372549019607844" d="M 189.5 93 L 188.5 95 L 189.5 93 Z "></path><path fill="rgb(61,172,235)" stroke="rgb(61,172,235)" stroke-width="1" opacity="0.7372549019607844" d="M 186.5 95 L 187 96.5 L 185 97.5 L 186.5 95 Z "></path><path fill="rgb(61,172,235)" stroke="rgb(61,172,235)" stroke-width="1" opacity="0.7372549019607844" d="M 182.5 98 L 181.5 100 L 182.5 98 Z "></path><path fill="rgb(61,172,235)" stroke="rgb(61,172,235)" stroke-width="1" opacity="0.7372549019607844" d="M 179.5 100 L 178.5 102 L 179.5 100 Z "></path><path fill="rgb(61,172,235)" stroke="rgb(61,172,235)" stroke-width="1" opacity="0.7372549019607844" d="M 175.5 102 L 177 102.5 L 175 103 L 174.5 105 L 174 103.5 L 175.5 102 Z "></path><path fill="rgb(61,172,235)" stroke="rgb(61,172,235)" stroke-width="1" opacity="0.7372549019607844" d="M 172.5 105 L 171.5 107 L 172.5 105 Z "></path><path fill="rgb(61,172,235)" stroke="rgb(61,172,235)" stroke-width="1" opacity="0.7372549019607844" d="M 169.5 107 L 175.5 114 L 182 118.5 L 183.5 121 L 189 125.5 L 190 127.5 L 188 126.5 L 184.5 122 L 181 119.5 Q 181.8 117.3 179.5 118 L 172 111.5 L 169.5 107 Z "></path><path fill="rgb(61,172,235)" stroke="rgb(61,172,235)" stroke-width="1" opacity="0.7372549019607844" d="M 357.5 116 L 356.5 118 L 355 117.5 L 357.5 116 Z "></path><path fill="rgb(61,172,235)" stroke="rgb(61,172,235)" stroke-width="1" opacity="0.7372549019607844" d="M 353.5 118 L 354 119.5 L 352 120.5 L 353.5 118 Z "></path><path fill="rgb(61,172,235)" stroke="rgb(61,172,235)" stroke-width="1" opacity="0.7372549019607844" d="M 350.5 121 L 349.5 123 L 348 122.5 L 350.5 121 Z "></path><path fill="rgb(61,172,235)" stroke="rgb(61,172,235)" stroke-width="1" opacity="0.7372549019607844" d="M 346.5 123 L 345.5 125 L 346.5 123 Z "></path><path fill="rgb(61,172,235)" stroke="rgb(61,172,235)" stroke-width="1" opacity="0.7372549019607844" d="M 343.5 125 L 344 126.5 L 342 127.5 L 343.5 125 Z "></path><path fill="rgb(61,172,235)" stroke="rgb(61,172,235)" stroke-width="1" opacity="0.7372549019607844" d="M 191.5 128 L 198 133.5 Q 197.3 135.8 199.5 135 L 207 140 L 213 147.5 L 206.5 142 Q 204.3 142.8 205 140.5 L 197 134.5 L 192.5 129 L 191.5 128 Z "></path><path fill="rgb(61,172,235)" stroke="rgb(61,172,235)" stroke-width="1" opacity="0.7372549019607844" d="M 339.5 128 L 338.5 130 L 339.5 128 Z "></path><path fill="rgb(61,172,235)" stroke="rgb(61,172,235)" stroke-width="1" opacity="0.7372549019607844" d="M 336.5 130 L 335.5 132 L 336.5 130 Z "></path><path fill="rgb(61,172,235)" stroke="rgb(61,172,235)" stroke-width="1" opacity="0.7372549019607844" d="M 332.5 132 L 332 133.5 L 331.5 135 L 331 133.5 L 332.5 132 Z "></path><path fill="rgb(61,172,235)" stroke="rgb(61,172,235)" stroke-width="1" opacity="0.7372549019607844" d="M 329.5 135 L 328.5 137 L 329.5 135 Z "></path><path fill="rgb(61,172,235)" stroke="rgb(61,172,235)" stroke-width="1" opacity="0.7372549019607844" d="M 325.5 137 L 327 137.5 L 324.5 139 L 325.5 137 Z "></path><path fill="rgb(61,172,235)" stroke="rgb(61,172,235)" stroke-width="1" opacity="0.7372549019607844" d="M 322.5 139 L 322 140.5 L 321.5 142 L 321 140.5 L 322.5 139 Z "></path><path fill="rgb(61,172,235)" stroke="rgb(61,172,235)" stroke-width="1" opacity="0.7372549019607844" d="M 318.5 142 L 320 142.5 L 317.5 144 L 318.5 142 Z "></path><path fill="rgb(61,172,235)" stroke="rgb(61,172,235)" stroke-width="1" opacity="0.7372549019607844" d="M 315.5 144 L 314.5 146 L 315.5 144 Z "></path><path fill="rgb(61,172,235)" stroke="rgb(61,172,235)" stroke-width="1" opacity="0.7372549019607844" d="M 312.5 146 L 311.5 148 L 310 147.5 L 312.5 146 Z "></path><path fill="rgb(61,172,235)" stroke="rgb(61,172,235)" stroke-width="1" opacity="0.7372549019607844" d="M 214.5 148 Q 216.8 147.3 216 149.5 L 223 155.5 L 225.5 159 L 232 163.5 L 235 167.5 L 231 164.5 L 229.5 162 L 222 156.5 Q 222.8 154.3 220.5 155 L 214.5 148 Z "></path><path fill="rgb(61,172,235)" stroke="rgb(61,172,235)" stroke-width="1" opacity="0.7372549019607844" d="M 308.5 148 L 309 149.5 L 307 150.5 L 308.5 148 Z "></path><path fill="rgb(61,172,235)" stroke="rgb(61,172,235)" stroke-width="1" opacity="0.7372549019607844" d="M 305.5 151 L 304.5 153 L 303 152.5 L 305.5 151 Z "></path><path fill="rgb(61,172,235)" stroke="rgb(61,172,235)" stroke-width="1" opacity="0.7372549019607844" d="M 301.5 153 L 300.5 155 L 301.5 153 Z "></path><path fill="rgb(61,172,235)" stroke="rgb(61,172,235)" stroke-width="1" opacity="0.7372549019607844" d="M 298.5 155 L 299 156.5 L 297 157.5 L 298.5 155 Z "></path><path fill="rgb(61,172,235)" stroke="rgb(61,172,235)" stroke-width="1" opacity="0.7372549019607844" d="M 294.5 158 L 293.5 160 L 294.5 158 Z "></path><path fill="rgb(61,172,235)" stroke="rgb(61,172,235)" stroke-width="1" opacity="0.7372549019607844" d="M 291.5 160 L 290.5 162 L 291.5 160 Z "></path><path fill="rgb(61,172,235)" stroke="rgb(61,172,235)" stroke-width="1" opacity="0.7372549019607844" d="M 287.5 162 L 287 163.5 L 286.5 165 L 286 163.5 L 287.5 162 Z "></path><path fill="rgb(61,172,235)" stroke="rgb(61,172,235)" stroke-width="1" opacity="0.7372549019607844" d="M 284.5 165 L 283.5 167 L 284.5 165 Z "></path><path fill="rgb(61,172,235)" stroke="rgb(61,172,235)" stroke-width="1" opacity="0.7372549019607844" d="M 280.5 167 L 282 167.5 L 279.5 169 L 280.5 167 Z "></path><path fill="rgb(61,172,235)" stroke="rgb(61,172,235)" stroke-width="1" opacity="0.7372549019607844" d="M 236.5 168 L 240 170.5 L 243.5 175 L 248 178.5 L 244.5 176 L 239 171.5 Q 239.8 169.3 237.5 170 L 236.5 168 Z "></path><path fill="rgb(61,172,235)" stroke="rgb(61,172,235)" stroke-width="1" opacity="0.7372549019607844" d="M 277.5 169 L 277 170.5 L 276.5 172 L 276 170.5 L 277.5 169 Z "></path><path fill="rgb(61,172,235)" stroke="rgb(61,172,235)" stroke-width="1" opacity="0.7372549019607844" d="M 273.5 172 L 275 172.5 L 272.5 174 L 273.5 172 Z "></path><path fill="rgb(61,172,235)" stroke="rgb(61,172,235)" stroke-width="1" opacity="0.7372549019607844" d="M 270.5 174 L 269.5 176 L 270.5 174 Z "></path><path fill="rgb(61,172,235)" stroke="rgb(61,172,235)" stroke-width="1" opacity="0.7372549019607844" d="M 267.5 176 L 266.5 178 L 265 177.5 L 267.5 176 Z "></path><path fill="rgb(61,172,235)" stroke="rgb(61,172,235)" stroke-width="1" opacity="0.7372549019607844" d="M 263.5 178 L 264 179.5 L 262 180.5 L 263.5 178 Z "></path><path fill="rgb(61,172,235)" stroke="rgb(61,172,235)" stroke-width="1" opacity="0.7372549019607844" d="M 248.5 180 L 255.5 184 L 260.5 181 L 259.5 183 L 254.5 185 L 248.5 181 L 248.5 180 Z "></path><path fill="rgb(71,198,236)" stroke="rgb(71,198,236)" stroke-width="1" opacity="0.6313725490196078" d="M 332.5 0 L 400 0 L 400 86.5 L 398 90 L 388 95.5 Q 388.8 98.1 385.5 97 L 375 103 L 373.5 106 L 365 110 Q 366.1 112.7 363.5 112 L 353 118 L 351.5 121 L 343 125 L 341.5 128 L 331 133.5 Q 331.8 135.8 329.5 135 L 321 140.5 Q 321.8 143.1 318.5 142 L 308 148 L 306.5 151 L 298 155 L 296.5 158 L 286 163.5 Q 286.8 165.8 284.5 165 L 276 170.5 Q 276.8 173.1 273.5 172 L 263 178 L 261.5 181 L 254.5 184 L 248 180 L 244.5 175 L 240 171.5 L 238.5 169 L 232 164.5 L 229.5 161 L 223 156.5 L 221.5 154 L 216 149.5 Q 216.8 146.9 213.5 148 L 207 140 L 198 135 L 192.5 128 L 189 126.5 L 184.5 121 L 182 119.5 L 180.5 117 L 173 111.5 L 170 107.5 L 175 105 Q 173.9 102.3 176.5 103 L 187 96.5 Q 186.3 94.3 188.5 95 L 198 90 Q 196.9 87.3 199.5 88 L 210 81.5 Q 209.3 79.3 211.5 80 L 220 74.5 Q 219.2 71.9 222.5 73 L 233 67 L 234.5 64 L 243 60 Q 241.9 57.3 244.5 58 L 255 51.5 Q 254.3 49.3 256.5 50 L 272.5 39 L 278 37 L 279.5 34 Q 285.3 33.3 288 29.5 Q 287.2 26.9 290.5 28 L 301 22 L 302.5 19 L 312 15 L 313.5 12 L 323 6.5 Q 322.3 4.3 324.5 5 L 332.5 0 Z "></path><path fill="rgb(226,4,46)" stroke="rgb(226,4,46)" stroke-width="1" opacity="0.6745098039215687" d="M 148.5 106 L 146.5 109 L 143 110.5 Q 143.8 112.8 141.5 112 L 132.5 118 L 130 118 L 128.5 121 L 120 125 L 118.5 128 L 108 133 Q 109.1 135.7 106.5 135 L 98 140.5 Q 98.8 142.8 96.5 142 L 87.5 148 L 85 148 L 83.5 151 L 75 155 L 73.5 158 L 63 163 Q 64.1 165.7 61.5 165 L 53 170.5 Q 53.8 172.8 51.5 172 L 42.5 178 L 40 178 L 38.5 181 L 30 185 L 28.5 188 L 27 187.5 L 29 187 L 30.5 184 L 39 180 L 40.5 177 L 51 171.5 Q 50.3 169.3 52.5 170 L 61 164.5 Q 60.3 162.3 62.5 163 L 74 157 L 75.5 154 L 84 150 L 85.5 147 L 96 141.5 Q 95.3 139.3 97.5 140 L 106 134.5 Q 105.3 132.3 107.5 133 L 119 127 L 120.5 124 L 129 120 L 130.5 117 L 141 111.5 Q 140.3 109.3 142.5 110 L 148.5 106 Z "></path><path fill="rgb(226,4,46)" stroke="rgb(226,4,46)" stroke-width="1" opacity="0.6745098039215687" d="M 145.5 124 L 147 124.5 L 144.5 126 L 145.5 124 Z "></path><path fill="rgb(226,4,46)" stroke="rgb(226,4,46)" stroke-width="1" opacity="0.6745098039215687" d="M 142.5 127 L 141.5 129 L 142.5 127 Z "></path><path fill="rgb(226,4,46)" stroke="rgb(226,4,46)" stroke-width="1" opacity="0.6745098039215687" d="M 150.5 142 L 151 152.5 L 150 152.5 L 150.5 142 Z "></path><path fill="rgb(226,4,46)" stroke="rgb(226,4,46)" stroke-width="1" opacity="0.6745098039215687" d="M 113.5 146 L 112.5 148 L 113.5 146 Z "></path><path fill="rgb(226,4,46)" stroke="rgb(226,4,46)" stroke-width="1" opacity="0.6745098039215687" d="M 110.5 148 L 111 149.5 L 108.5 151 L 108.5 150 Q 111 150.7 110.5 148 Z "></path><path fill="rgb(226,4,46)" stroke="rgb(226,4,46)" stroke-width="1" opacity="0.6745098039215687" d="M 81.5 168 L 80.5 170 L 81.5 168 Z "></path><path fill="rgb(226,4,46)" stroke="rgb(226,4,46)" stroke-width="1" opacity="0.6745098039215687" d="M 78.5 170 L 76.5 173 L 78.5 170 Z "></path><path fill="rgb(226,4,46)" stroke="rgb(226,4,46)" stroke-width="1" opacity="0.6745098039215687" d="M 151.5 172 L 152 182.5 L 151 182.5 L 151.5 172 Z "></path><path fill="rgb(226,4,46)" stroke="rgb(226,4,46)" stroke-width="1" opacity="0.6745098039215687" d="M 55 185 Q 58 184 57 187 Q 54 188 55 185 Z "></path><path fill="rgb(226,4,46)" stroke="rgb(226,4,46)" stroke-width="1" opacity="0.6745098039215687" d="M 52.5 188 L 51.5 190 L 52.5 188 Z "></path><path fill="rgb(226,4,46)" stroke="rgb(226,4,46)" stroke-width="1" opacity="0.6745098039215687" d="M 48.5 190 L 50 190.5 L 47.5 192 L 48.5 190 Z "></path><path fill="rgb(226,4,46)" stroke="rgb(226,4,46)" stroke-width="1" opacity="0.6745098039215687" d="M 45.5 192 L 45 193.5 L 44.5 195 L 44 193.5 L 45.5 192 Z "></path><path fill="rgb(226,4,46)" stroke="rgb(226,4,46)" stroke-width="1" opacity="0.6745098039215687" d="M 16 193 Q 19 192 18 195 Q 15 196 16 193 Z "></path><path fill="rgb(226,4,46)" stroke="rgb(226,4,46)" stroke-width="1" opacity="0.6745098039215687" d="M 33 200 Q 36 199 35 202 Q 32 203 33 200 Z "></path><path fill="rgb(226,4,46)" stroke="rgb(226,4,46)" stroke-width="1" opacity="0.6745098039215687" d="M 152.5 203 L 153 213.5 L 152 213.5 L 152.5 203 Z "></path><path fill="rgb(226,4,46)" stroke="rgb(226,4,46)" stroke-width="1" opacity="0.6745098039215687" d="M 23.5 207 L 22.5 209 L 23.5 207 Z "></path><path fill="rgb(226,4,46)" stroke="rgb(226,4,46)" stroke-width="1" opacity="0.6745098039215687" d="M 20.5 210 L 19.5 212 L 18 211.5 L 20.5 210 Z "></path><path fill="rgb(226,4,46)" stroke="rgb(226,4,46)" stroke-width="1" opacity="0.6745098039215687" d="M 16.5 212 L 15.5 214 L 16.5 212 Z "></path><path fill="rgb(226,4,46)" stroke="rgb(226,4,46)" stroke-width="1" opacity="0.6745098039215687" d="M 153.5 233 L 155 234.5 L 155 247 L 151.5 249 L 153 246.5 L 154 244.5 L 153 243.5 L 153.5 233 Z "></path><path fill="rgb(226,4,46)" stroke="rgb(226,4,46)" stroke-width="1" opacity="0.6745098039215687" d="M 144.5 252 L 144 253.5 L 143.5 255 L 143 253.5 L 144.5 252 Z "></path><path fill="rgb(226,4,46)" stroke="rgb(226,4,46)" stroke-width="1" opacity="0.6745098039215687" d="M 136.5 258 L 135.5 260 L 136.5 258 Z "></path><path fill="rgb(226,4,46)" stroke="rgb(226,4,46)" stroke-width="1" opacity="0.6745098039215687" d="M 165.5 258 L 167 261.5 L 156 268.5 Q 156.8 271.1 153.5 270 L 146.5 275 L 144 275 L 142.5 278 L 133 283.5 Q 133.8 286.1 130.5 285 L 121 290 L 119.5 293 L 110 298.5 Q 110.8 301.1 107.5 300 L 98 305 L 96.5 308 L 87 313.5 Q 87.8 316.1 84.5 315 L 75 320 L 73.5 323 L 63 328 Q 64.1 330.7 61.5 330 L 52 335 L 50.5 338 L 39 343 L 37.5 346 L 29 350 L 27.5 353 L 17 358.5 Q 17.8 360.8 15.5 360 L 7 365 L 5.5 368 Q 1 367.5 0.5 371 L 0 369 L 6 367 L 7.5 364 L 15 359.5 Q 14.3 357.3 16.5 358 L 25.5 352 L 28 352 L 29.5 349 L 38 345 L 39.5 342 L 51 337 L 52.5 334 L 61 330 L 62.5 327 L 74 322 L 75.5 319 L 84 315 L 85.5 312 L 97 307 L 98.5 304 L 107 300 L 108.5 297 L 120 292 L 121.5 289 L 130 285 Q 128.9 282.3 131.5 283 L 143 277 L 144.5 274 L 153 270 Q 151.8 267 155.5 268 L 166 262 L 165.5 258 Z "></path><path fill="rgb(226,4,46)" stroke="rgb(226,4,46)" stroke-width="1" opacity="0.6745098039215687" d="M 128.5 264 L 127.5 266 L 128.5 264 Z "></path><path fill="rgb(226,4,46)" stroke="rgb(226,4,46)" stroke-width="1" opacity="0.6745098039215687" d="M 120.5 270 L 119.5 272 L 120.5 270 Z "></path><path fill="rgb(226,4,46)" stroke="rgb(226,4,46)" stroke-width="1" opacity="0.6745098039215687" d="M 112.5 275 L 113 276.5 L 111 277.5 L 112.5 275 Z "></path><path fill="rgb(226,4,46)" stroke="rgb(226,4,46)" stroke-width="1" opacity="0.6745098039215687" d="M 92.5 289 L 92 290.5 L 91.5 292 L 91 290.5 L 92.5 289 Z "></path><path fill="rgb(226,4,46)" stroke="rgb(226,4,46)" stroke-width="1" opacity="0.6745098039215687" d="M 84.5 295 L 83.5 297 L 84.5 295 Z "></path><path fill="rgb(226,4,46)" stroke="rgb(226,4,46)" stroke-width="1" opacity="0.6745098039215687" d="M 80.5 298 L 81 300 L 79 299.5 L 80.5 298 Z "></path><path fill="rgb(226,4,46)" stroke="rgb(226,4,46)" stroke-width="1" opacity="0.6745098039215687" d="M 76.5 301 L 75.5 303 L 76.5 301 Z "></path><path fill="rgb(226,4,46)" stroke="rgb(226,4,46)" stroke-width="1" opacity="0.6745098039215687" d="M 68.5 307 L 67.5 309 L 68.5 307 Z "></path><path fill="rgb(226,4,46)" stroke="rgb(226,4,46)" stroke-width="1" opacity="0.6745098039215687" d="M 60.5 312 L 60 313.5 L 59.5 315 L 59 313.5 L 60.5 312 Z "></path><path fill="rgb(226,4,46)" stroke="rgb(226,4,46)" stroke-width="1" opacity="0.6745098039215687" d="M 52.5 318 L 51.5 320 L 52.5 318 Z "></path><path fill="rgb(226,4,46)" stroke="rgb(226,4,46)" stroke-width="1" opacity="0.6745098039215687" d="M 44.5 324 L 43.5 326 L 44.5 324 Z "></path><path fill="rgb(226,4,46)" stroke="rgb(226,4,46)" stroke-width="1" opacity="0.6745098039215687" d="M 36.5 330 L 35.5 332 L 36.5 330 Z "></path><path fill="rgb(230,1,38)" stroke="rgb(230,1,38)" stroke-width="1" opacity="0.996078431372549" d="M 149.5 106 L 153 106.5 L 148.5 108 L 149.5 106 Z "></path><path fill="rgb(230,1,38)" stroke="rgb(230,1,38)" stroke-width="1" opacity="0.996078431372549" d="M 130 118 Q 133 117 132 120 Q 129 121 130 118 Z "></path><path fill="rgb(230,1,38)" stroke="rgb(230,1,38)" stroke-width="1" opacity="0.996078431372549" d="M 164.5 120 L 165 123.5 L 162 128.5 L 163 129.5 L 163 153.5 L 165 158.5 L 165 171.5 L 166 172.5 L 166 185.5 L 167 186.5 L 167 199.5 L 168 200.5 L 168 213.5 L 169 214.5 L 169 230.5 Q 165.7 234.2 167 242.5 L 171 249.5 L 172 256 L 166.5 256 L 166 258 L 164.5 258 L 166.5 255 L 170 254.5 L 169 251.5 L 169 248.5 L 166 243.5 L 166 232.5 Q 168.6 231.1 168 226.5 L 167 223.5 L 167 215.5 L 166 214.5 L 167 210.5 L 166 209.5 L 166 198.5 L 165 197.5 L 166 194.5 L 165 193.5 L 165 183.5 L 164 182.5 L 163 156.5 Q 159.1 152.4 160 143.5 L 161 142.5 L 161 128.5 L 161 126.5 Q 160.3 120.8 164.5 120 Z "></path><path fill="rgb(230,1,38)" stroke="rgb(230,1,38)" stroke-width="1" opacity="0.996078431372549" d="M 85 148 Q 88 147 87 150 Q 84 151 85 148 Z "></path><path fill="rgb(230,1,38)" stroke="rgb(230,1,38)" stroke-width="1" opacity="0.996078431372549" d="M 40 178 Q 43 177 42 180 Q 39 181 40 178 Z "></path><path fill="rgb(230,1,38)" stroke="rgb(230,1,38)" stroke-width="1" opacity="0.996078431372549" d="M 3.5 203 L 5 203.5 L 2.5 205 L 3.5 203 Z "></path><path fill="rgb(230,1,38)" stroke="rgb(230,1,38)" stroke-width="1" opacity="0.996078431372549" d="M 27.5 337 L 26.5 339 L 25 338.5 L 27.5 337 Z "></path><path fill="rgb(230,1,38)" stroke="rgb(230,1,38)" stroke-width="1" opacity="0.996078431372549" d="M 47.5 337 L 46.5 339 L 47.5 337 Z "></path><path fill="rgb(230,1,38)" stroke="rgb(230,1,38)" stroke-width="1" opacity="0.996078431372549" d="M 23.5 339 L 22.5 341 L 23.5 339 Z "></path><path fill="rgb(230,1,38)" stroke="rgb(230,1,38)" stroke-width="1" opacity="0.996078431372549" d="M 15.5 345 L 14.5 347 L 15.5 345 Z "></path><path fill="rgb(230,1,38)" stroke="rgb(230,1,38)" stroke-width="1" opacity="0.996078431372549" d="M 12.5 347 L 11.5 349 L 10 348.5 L 12.5 347 Z "></path><path fill="rgb(230,1,38)" stroke="rgb(230,1,38)" stroke-width="1" opacity="0.996078431372549" d="M 8.5 349 L 8 350.5 L 7.5 352 L 7 350.5 L 8.5 349 Z "></path><path fill="rgb(230,1,38)" stroke="rgb(230,1,38)" stroke-width="1" opacity="0.996078431372549" d="M 5.5 352 L 4.5 354 L 3 353.5 L 5.5 352 Z "></path><path fill="rgb(230,1,38)" stroke="rgb(230,1,38)" stroke-width="1" opacity="0.996078431372549" d="M 1.5 354 L 0.5 356 L 1.5 354 Z "></path><path fill="rgb(230,1,38)" stroke="rgb(230,1,38)" stroke-width="1" opacity="0.996078431372549" d="M 9.5 362 L 8.5 364 L 9.5 362 Z "></path><path fill="rgb(225,69,102)" stroke="rgb(225,69,102)" stroke-width="1" opacity="0.6274509803921569" d="M 148.5 123 L 150 123.5 L 150 152.5 L 151 153.5 L 152 213.5 L 153 214.5 L 153 243.5 L 154 244.5 L 149.5 250 L 143 253.5 L 141.5 256 L 134 260.5 Q 134.8 262.8 132.5 262 L 122 268.5 Q 122.8 270.8 120.5 270 L 117.5 273 L 112 275 L 109.5 279 L 107.5 279 L 91 290.5 L 89.5 293 L 70 305 Q 71.1 307.7 68.5 307 L 59 313.5 L 57.5 316 L 55.5 316 L 38 328.5 Q 38.8 330.8 36.5 330 L 28 335 L 26.5 338 L 16 343 L 13.5 347 L 7 350.5 Q 7.8 352.8 5.5 352 L 0.5 355 L 0 223 L 10.5 217 L 13 217 L 14.5 214 Q 22 212 25.5 206 L 35 202 L 36.5 199 L 45 195 L 46.5 192 L 54.5 187 L 57 187 L 58.5 184 L 67 180 L 68.5 177 Q 78 174 83.5 167 L 89 165 L 90.5 162 L 111 149.5 Q 110.3 147.3 112.5 148 L 122 141.5 Q 121.2 138.9 124.5 140 L 133 134.5 Q 132.3 132.3 134.5 133 L 148.5 123 Z "></path><path fill="rgb(225,69,102)" stroke="rgb(225,69,102)" stroke-width="1" opacity="0.6274509803921569" d="M 13.5 196 L 12.5 198 L 13.5 196 Z "></path><path fill="rgb(225,69,102)" stroke="rgb(225,69,102)" stroke-width="1" opacity="0.6274509803921569" d="M 9.5 198 L 8.5 200 L 9.5 198 Z "></path><path fill="rgb(225,69,102)" stroke="rgb(225,69,102)" stroke-width="1" opacity="0.6274509803921569" d="M 6.5 200 L 7 201.5 L 5 202.5 L 6.5 200 Z "></path><path fill="rgb(225,69,102)" stroke="rgb(225,69,102)" stroke-width="1" opacity="0.6274509803921569" d="M 2.5 203 L 1.5 205 L 2.5 203 Z "></path><path fill="rgb(225,69,102)" stroke="rgb(225,69,102)" stroke-width="1" opacity="0.6274509803921569" d="M 167.5 234 L 168 236.5 L 167 236.5 L 167.5 234 Z "></path><path fill="rgb(225,69,102)" stroke="rgb(225,69,102)" stroke-width="1" opacity="0.6274509803921569" d="M 167.5 240 L 168 242.5 L 167 242.5 L 167.5 240 Z "></path><path fill="rgb(232,0,39)" stroke="rgb(232,0,39)" stroke-width="1" opacity="1" d="M 153.5 106 L 165 107 L 165 119.5 L 161 123.5 L 160 127.5 L 161 128.5 L 161 142.5 Q 158.5 144 160 149.5 L 163 156.5 L 164 182.5 L 165 183.5 Q 163.8 191.8 166 196.5 L 166 198.5 L 167 213.5 L 167 215.5 L 167 223.5 L 168 224.5 L 168 226.5 Q 168.6 231.1 166 232.5 L 166 243.5 L 170 252.5 L 169.5 255 Q 164.8 254.3 164 257.5 Q 166.7 258.6 166 262 L 155.5 268 L 153 268 Q 154.1 270.7 151.5 270 L 143 275.5 Q 143.8 277.8 141.5 277 L 130 283 Q 131.1 285.7 128.5 285 L 120 290.5 Q 120.8 292.8 118.5 292 L 107 298.5 Q 107.8 300.8 105.5 300 L 97 305.5 Q 97.8 307.8 95.5 307 L 84 313.5 Q 84.8 315.8 82.5 315 L 74 320.5 Q 74.8 322.8 72.5 322 L 60 328 L 58.5 331 L 50 335 Q 51.3 338 47.5 337 L 37 343 L 35.5 346 L 27 350 Q 28.1 352.7 25.5 352 L 15 358.5 Q 15.8 360.8 13.5 360 L 5 365 Q 6.1 367.7 3.5 367 L 0.5 369 L 0 356.5 L 8 352 L 9.5 349 L 11.5 349 L 17 344.5 Q 16.2 341.9 19.5 343 L 29 336.5 Q 28.3 334.3 30.5 335 L 39 330 L 40.5 327 L 50 322 Q 48.9 319.3 51.5 320 L 54.5 317 L 60 315 L 62.5 311 L 64.5 311 L 70 306.5 Q 69.2 303.9 72.5 305 L 78.5 300 L 81 300 L 82.5 297 L 92 292 L 93.5 289 L 102 285 Q 100.9 282.3 103.5 283 L 113 276.5 L 114.5 274 L 116.5 274 L 122 269.5 Q 121.2 266.9 124.5 268 L 134 261.5 Q 133.3 259.3 135.5 260 L 138.5 257 L 144 255 L 145.5 252 L 155 247 L 155 234.5 L 153 231.5 L 153 202.5 L 152 201.5 L 152 172.5 L 151 171.5 L 151 140.5 L 150 139.5 L 150 123 L 144 125.5 Q 144.8 127.8 142.5 127 L 133 133.5 Q 133.8 136.1 130.5 135 L 122 140.5 Q 122.8 142.8 120.5 142 L 110 148 Q 111.1 150.7 108.5 150 L 100 155 Q 101.1 157.7 98.5 157 L 88 163 L 86.5 166 L 84.5 166 L 71.5 176 L 66 178 L 64.5 181 L 55 185 L 53.5 188 L 44 193.5 Q 44.8 195.8 42.5 195 L 35.5 200 L 33 200 L 31.5 203 L 22 208.5 Q 22.8 210.8 20.5 210 L 12 215.5 Q 12.8 217.8 10.5 217 L 0.5 223 L 0 206.5 L 8 201.5 Q 7.3 199.3 9.5 200 L 18 194.5 Q 17.2 191.9 20.5 193 L 31 187 L 32.5 184 L 42 180 L 43.5 177 L 53 171.5 Q 52.3 169.3 54.5 170 L 63 164.5 Q 62.2 161.9 65.5 163 L 76 157 L 77.5 154 L 87 150 L 88.5 147 L 98 141.5 Q 97.3 139.3 99.5 140 L 108 134.5 Q 107.2 131.9 110.5 133 L 121 127 L 122.5 124 L 132 120 L 133.5 117 L 143 111.5 Q 142.3 109.3 144.5 110 L 153.5 106 Z "></path><path fill="rgb(111,224,103)" stroke="rgb(111,224,103)" stroke-width="1" opacity="0.996078431372549" d="M 165.5 122 L 166 127.5 L 165 127.5 L 165.5 122 Z "></path><path fill="rgb(111,224,103)" stroke="rgb(111,224,103)" stroke-width="1" opacity="0.996078431372549" d="M 167.5 122 L 171 124.5 L 169.5 124 L 167.5 122 Z "></path><path fill="rgb(111,224,103)" stroke="rgb(111,224,103)" stroke-width="1" opacity="0.996078431372549" d="M 177.5 130 L 183.5 137 L 185 137.5 L 183.5 138 L 177.5 130 Z "></path><path fill="rgb(111,224,103)" stroke="rgb(111,224,103)" stroke-width="1" opacity="0.996078431372549" d="M 166.5 135 L 167 151.5 L 166 151.5 L 166.5 135 Z "></path><path fill="rgb(111,224,103)" stroke="rgb(111,224,103)" stroke-width="1" opacity="0.996078431372549" d="M 188.5 141 L 196 147.5 L 191.5 144 L 188.5 141 Z "></path><path fill="rgb(111,224,103)" stroke="rgb(111,224,103)" stroke-width="1" opacity="0.996078431372549" d="M 200.5 151 L 205 157 L 208 158.5 L 206.5 158 L 204 156.5 L 200.5 151 Z "></path><path fill="rgb(111,224,103)" stroke="rgb(111,224,103)" stroke-width="1" opacity="0.996078431372549" d="M 167.5 159 L 168 176.5 L 167 176.5 L 167.5 159 Z "></path><path fill="rgb(111,224,103)" stroke="rgb(111,224,103)" stroke-width="1" opacity="0.996078431372549" d="M 210.5 160 L 218.5 169 L 213 165 L 210.5 160 Z "></path><path fill="rgb(111,224,103)" stroke="rgb(111,224,103)" stroke-width="1" opacity="0.996078431372549" d="M 221.5 170 L 231 178.5 L 230.5 180 L 230 178 L 228.5 178 L 221.5 170 Z "></path><path fill="rgb(111,224,103)" stroke="rgb(111,224,103)" stroke-width="1" opacity="0.996078431372549" d="M 233.5 181 L 239 185.5 L 242 189.5 L 238 186.5 L 236.5 184 L 233.5 181 Z "></path><path fill="rgb(111,224,103)" stroke="rgb(111,224,103)" stroke-width="1" opacity="0.996078431372549" d="M 168.5 183 L 170 184.5 L 170 202.5 L 169 202.5 L 168.5 183 Z "></path><path fill="rgb(111,224,103)" stroke="rgb(111,224,103)" stroke-width="1" opacity="0.996078431372549" d="M 243.5 190 L 258 200.5 L 265 210.5 L 263 209.5 L 259.5 205 Q 257.3 205.8 258 203.5 L 252.5 197 L 244 193 L 243.5 190 Z "></path><path fill="rgb(111,224,103)" stroke="rgb(111,224,103)" stroke-width="1" opacity="0.996078431372549" d="M 170.5 208 L 171 232 L 168.5 233 L 169 231.5 L 170.5 208 Z "></path><path fill="rgb(111,224,103)" stroke="rgb(111,224,103)" stroke-width="1" opacity="0.996078431372549" d="M 267.5 211 L 273.5 218 L 277 220.5 L 274.5 219 L 271 216.5 L 267.5 211 Z "></path><path fill="rgb(111,224,103)" stroke="rgb(111,224,103)" stroke-width="1" opacity="0.996078431372549" d="M 278.5 221 L 279.5 223 L 278.5 221 Z "></path><path fill="rgb(111,224,103)" stroke="rgb(111,224,103)" stroke-width="1" opacity="0.996078431372549" d="M 280.5 224 L 288 230.5 L 287.5 232 L 281.5 225 L 280.5 224 Z "></path><path fill="rgb(111,224,103)" stroke="rgb(111,224,103)" stroke-width="1" opacity="0.996078431372549" d="M 290.5 232 L 298 238.5 L 300 241.5 L 297 239.5 Q 297.8 237.3 295.5 238 L 290.5 232 Z "></path><path fill="rgb(111,224,103)" stroke="rgb(111,224,103)" stroke-width="1" opacity="0.996078431372549" d="M 167.5 237 L 168 239.5 L 167 239.5 L 167.5 237 Z "></path><path fill="rgb(111,224,103)" stroke="rgb(111,224,103)" stroke-width="1" opacity="0.996078431372549" d="M 301.5 242 L 306 245.5 L 310 250.5 L 305 246.5 Q 305.8 244.3 303.5 245 L 301.5 242 Z "></path><path fill="rgb(111,224,103)" stroke="rgb(111,224,103)" stroke-width="1" opacity="0.996078431372549" d="M 169.5 246 L 173 248.5 L 175.5 252 L 186 259.5 L 184.5 259 L 174.5 254 L 171 250.5 L 169.5 246 Z "></path><path fill="rgb(111,224,103)" stroke="rgb(111,224,103)" stroke-width="1" opacity="0.996078431372549" d="M 314.5 254 L 322 260.5 L 321.5 262 L 319.5 259 L 314.5 254 Z "></path><path fill="rgb(111,224,103)" stroke="rgb(111,224,103)" stroke-width="1" opacity="0.996078431372549" d="M 188.5 262 L 196 268.5 L 191.5 265 L 188.5 262 Z "></path><path fill="rgb(111,224,103)" stroke="rgb(111,224,103)" stroke-width="1" opacity="0.996078431372549" d="M 324.5 263 L 325.5 265 L 324.5 263 Z "></path><path fill="rgb(111,224,103)" stroke="rgb(111,224,103)" stroke-width="1" opacity="0.996078431372549" d="M 327.5 265 L 333 271.5 L 330 269.5 L 327.5 265 Z "></path><path fill="rgb(111,224,103)" stroke="rgb(111,224,103)" stroke-width="1" opacity="0.996078431372549" d="M 200.5 272 L 205.5 278 L 209 280.5 L 206.5 279 L 203 276.5 L 200.5 272 Z "></path><path fill="rgb(111,224,103)" stroke="rgb(111,224,103)" stroke-width="1" opacity="0.996078431372549" d="M 336.5 273 L 340.5 278 L 345 281.5 L 341.5 279 L 338 276.5 L 336.5 273 Z "></path><path fill="rgb(111,224,103)" stroke="rgb(111,224,103)" stroke-width="1" opacity="0.996078431372549" d="M 211.5 282 L 213 285 L 221 291.5 L 214.5 286 L 212 284.5 L 211.5 282 Z "></path><path fill="rgb(111,224,103)" stroke="rgb(111,224,103)" stroke-width="1" opacity="0.996078431372549" d="M 347.5 284 L 355 290.5 Q 354.3 292.8 356.5 292 L 356.5 293 L 354 291.5 L 349.5 286 L 347.5 284 Z "></path><path fill="rgb(111,224,103)" stroke="rgb(111,224,103)" stroke-width="1" opacity="0.996078431372549" d="M 222.5 292 L 230 298.5 L 228.5 299 L 222.5 292 Z "></path><path fill="rgb(111,224,103)" stroke="rgb(111,224,103)" stroke-width="1" opacity="0.996078431372549" d="M 359.5 294 L 365 298 L 368 302.5 L 364.5 300 Q 362.3 300.8 363 298.5 L 359.5 294 Z "></path><path fill="rgb(111,224,103)" stroke="rgb(111,224,103)" stroke-width="1" opacity="0.996078431372549" d="M 233.5 302 L 238 305.5 L 242 310.5 L 237 306.5 Q 237.8 304.3 235.5 305 L 233.5 302 Z "></path><path fill="rgb(111,224,103)" stroke="rgb(111,224,103)" stroke-width="1" opacity="0.996078431372549" d="M 370.5 304 L 380 312.5 L 378.5 313 L 370.5 304 Z "></path><path fill="rgb(111,224,103)" stroke="rgb(111,224,103)" stroke-width="1" opacity="0.996078431372549" d="M 245.5 312 L 250.5 318 L 254 320.5 L 251.5 319 L 246 314.5 L 245.5 312 Z "></path><path fill="rgb(111,224,103)" stroke="rgb(111,224,103)" stroke-width="1" opacity="0.996078431372549" d="M 382.5 315 L 389 320.5 L 391 323.5 L 388 321.5 L 386.5 319 L 382.5 315 Z "></path><path fill="rgb(111,224,103)" stroke="rgb(111,224,103)" stroke-width="1" opacity="0.996078431372549" d="M 255.5 322 L 263 328.5 L 259.5 326 L 255.5 322 Z "></path><path fill="rgb(111,224,103)" stroke="rgb(111,224,103)" stroke-width="1" opacity="0.996078431372549" d="M 395.5 326 L 400 331.5 L 397 329.5 L 395.5 326 Z "></path><path fill="rgb(111,224,103)" stroke="rgb(111,224,103)" stroke-width="1" opacity="0.996078431372549" d="M 267.5 332 L 273.5 339 L 276 340.5 L 274.5 340 L 270 336.5 L 267.5 332 Z "></path><path fill="rgb(111,224,103)" stroke="rgb(111,224,103)" stroke-width="1" opacity="0.996078431372549" d="M 278.5 342 L 280 345 L 287 350.5 L 281.5 346 L 279 344.5 L 278.5 342 Z "></path><path fill="rgb(111,224,103)" stroke="rgb(111,224,103)" stroke-width="1" opacity="0.996078431372549" d="M 288.5 352 L 297 358.5 L 295.5 359 L 288.5 352 Z "></path><path fill="rgb(111,224,103)" stroke="rgb(111,224,103)" stroke-width="1" opacity="0.996078431372549" d="M 300.5 362 L 305 365 L 309 370.5 L 304.5 367 Q 302.3 367.8 303 365.5 L 300.5 362 Z "></path><path fill="rgb(111,224,103)" stroke="rgb(111,224,103)" stroke-width="1" opacity="0.996078431372549" d="M 312.5 372 L 318 378.5 L 313 374.5 L 312.5 372 Z "></path><path fill="rgb(111,224,103)" stroke="rgb(111,224,103)" stroke-width="1" opacity="0.996078431372549" d="M 319.5 379 L 320.5 381 L 319.5 379 Z "></path><path fill="rgb(111,224,103)" stroke="rgb(111,224,103)" stroke-width="1" opacity="0.996078431372549" d="M 322.5 382 L 330 388.5 L 326.5 386 L 322.5 382 Z "></path><path fill="rgb(111,224,103)" stroke="rgb(111,224,103)" stroke-width="1" opacity="0.996078431372549" d="M 330.5 390 L 331.5 392 L 330.5 390 Z "></path><path fill="rgb(111,224,103)" stroke="rgb(111,224,103)" stroke-width="1" opacity="0.996078431372549" d="M 333.5 392 L 338 395.5 L 340.5 399 L 342 399.5 L 340.5 400 L 334.5 393 L 333.5 392 Z "></path><path fill="rgb(3,74,162)" stroke="rgb(3,74,162)" stroke-width="1" opacity="0.9607843137254902" d="M 309.5 0 L 330 0.5 L 322 5.5 Q 322.8 7.8 320.5 7 L 304.5 18 L 302.5 18 L 297.5 23 L 287 28 Q 288.1 30.7 285.5 30 L 277 35.5 Q 277.8 37.8 275.5 37 L 266.5 43 L 264 43 L 262.5 46 L 254 50 L 252.5 53 L 243.5 57 L 229.5 68 L 219 73 Q 220.1 75.7 217.5 75 L 209 80.5 Q 209.8 82.8 207.5 82 L 196 88 L 194.5 91 L 186 95 L 184.5 98 L 174 103.5 Q 174.8 105.8 172.5 105 L 169 107.5 L 175.5 115 L 181 118 L 183.5 122 L 188 125.5 L 189.5 128 L 197 133.5 L 198.5 136 L 205 140.5 Q 204.3 142.8 206.5 142 L 222 155 L 225.5 160 L 231 163.5 L 234.5 168 L 239 170 L 243.5 176 L 248 179.5 Q 247.3 181.8 249.5 181 L 255.5 185 L 264 179.5 Q 263.2 176.9 266.5 178 L 277 172 L 278.5 169 L 287 165 L 288.5 162 L 299 156.5 Q 298.3 154.3 300.5 155 L 309 149.5 Q 308.2 146.9 311.5 148 L 322 142 L 323.5 139 L 332 135 L 333.5 132 L 344 126.5 Q 343.3 124.3 345.5 125 L 354 119.5 Q 353.2 116.9 356.5 118 L 367 112 L 368.5 109 L 377 105 L 378.5 102 L 389 96.5 Q 388.3 94.3 390.5 95 L 399 89.5 L 399.5 88 L 400 101.5 L 398 105 L 388 110.5 Q 388.8 113.1 385.5 112 L 375 118 L 373.5 121 L 365 125 Q 366.1 127.7 363.5 127 L 353 133 Q 354.1 135.7 351.5 135 L 343 140.5 Q 343.8 143.1 340.5 142 L 330 148 L 328.5 151 L 320 155 Q 321.1 157.7 318.5 157 L 308 163.5 Q 308.8 165.8 306.5 165 L 298 170.5 Q 298.8 173.1 295.5 172 L 286 178.5 Q 286.8 180.8 284.5 180 L 275 185 Q 276.1 187.7 273.5 187 L 264 192.5 L 265 195 L 273 200.5 Q 272.3 202.8 274.5 202 L 282 208 Q 280.9 210.7 283.5 210 L 290 215 L 293.5 220 L 299 223.5 L 303.5 229 L 307 230.5 L 310.5 235 L 315 238.5 Q 314.3 240.8 316.5 240 L 323 245.5 L 325.5 249 L 332 253.5 L 333.5 256 L 340 260 Q 338.9 262.7 341.5 262 L 348 270 L 357 275 L 361.5 281 L 366 283.5 L 370.5 289 L 373 290.5 Q 372.3 292.8 374.5 292 L 382 298.5 Q 381.3 301.1 384 300 L 384 302 L 386.5 302 L 393.5 310 Q 398.5 309.5 399 313.5 L 400 315.5 L 400 330.5 L 398 329.5 L 395.5 326 L 389 321.5 L 386.5 318 L 381 315 L 379.5 312 L 365 299.5 Q 365.8 297.3 363.5 298 L 355 292 L 349.5 285 L 339 276.5 L 336.5 273 L 331 269.5 L 327.5 265 L 322 261.5 L 319.5 258 L 314 253.5 Q 314.8 251.3 312.5 252 L 306 246.5 L 304.5 244 L 298 239.5 L 296.5 237 L 290.5 232 L 288 232 L 281.5 224 Q 279.3 224.8 280 222.5 L 272 216.5 L 267.5 211 L 264 209.5 L 254.5 197 Q 245 193.5 239 186.5 L 236.5 183 L 231 179.5 L 229.5 177 L 210.5 160 L 205 157 L 200.5 151 L 197 150 L 191.5 143 L 188 140.5 Q 188.8 138.3 186.5 139 L 181 134.5 L 177.5 130 L 172 126.5 L 169.5 123 L 165 119.5 L 165 107 L 160.5 107 L 159.5 106 L 151 105.5 L 153 105 Q 151.9 102.3 154.5 103 L 165 96.5 Q 164.3 94.3 166.5 95 L 175 89.5 Q 174.2 86.9 177.5 88 L 183.5 83 L 188 82 L 189.5 79 L 198 75 Q 196.9 72.3 199.5 73 L 210 66.5 Q 209.3 64.3 211.5 65 L 220 59.5 Q 219.2 56.9 222.5 58 L 233 52 L 234.5 49 L 243 44.5 Q 242.2 41.9 245.5 43 L 248.5 40 L 256 37 L 257.5 34 L 267 30 L 268.5 27 L 278 21.5 Q 277.3 19.3 279.5 20 L 288 14.5 Q 287.2 11.9 290.5 13 L 301 7 L 302.5 4 L 304.5 4 L 309.5 0 Z "></path><path fill="rgb(3,74,162)" stroke="rgb(3,74,162)" stroke-width="1" opacity="0.9607843137254902" d="M 164.5 124 L 166 128.5 L 167 176.5 L 168 177.5 L 168 191.5 L 169 192.5 L 169 202.5 L 170 203.5 L 170 226.5 L 169 226.5 L 166 172.5 L 165 171.5 L 165 158.5 L 163 153.5 L 163 129.5 L 162 128.5 L 164.5 124 Z "></path><path fill="rgb(3,74,162)" stroke="rgb(3,74,162)" stroke-width="1" opacity="0.9607843137254902" d="M 171.5 251 L 174.5 254 L 187 260 L 190.5 265 L 196 269.5 Q 195.3 271.8 197.5 271 L 203 275.5 L 205.5 279 L 212 283.5 L 213.5 286 L 230 299 Q 228.9 301.7 231.5 301 L 237 305 L 241.5 311 L 246 313.5 L 250.5 319 L 263 329.5 Q 262.3 331.8 264.5 331 L 270 335.5 L 273.5 340 L 279 343.5 L 280.5 346 L 297 359 Q 295.9 361.7 298.5 361 L 303 367 L 313 373.5 L 317.5 379 L 330 389.5 L 331.5 392 L 337 395.5 L 340 399.5 L 323.5 400 L 320 395 L 312 389.5 Q 312.8 387.3 310.5 388 L 302 381.5 L 297.5 376 L 295 376 Q 296.5 372.3 293.5 373 L 286 366.5 L 283.5 363 L 278 359.5 L 274.5 355 L 269 351.5 L 266.5 348 L 262 344.5 Q 262.8 342.3 260.5 343 L 253 336.5 L 251.5 334 L 245 329.5 Q 245.8 327.3 243.5 328 L 235 322 L 229.5 315 L 226.5 313 L 219 306.5 Q 219.8 304.3 217.5 305 L 211 299.5 L 206.5 294 L 202 291.5 L 199.5 288 L 195 284.5 Q 195.8 282.3 193.5 283 L 186 276.5 Q 186.8 273.9 183.5 275 L 176.5 267 L 168 262 L 166 256 L 171.5 256 L 172 254.5 L 171.5 251 Z "></path><path fill="rgb(156,234,152)" stroke="rgb(156,234,152)" stroke-width="1" opacity="0.996078431372549" d="M 166.5 122 L 172 125.5 L 171.5 127 L 180 133.5 L 183.5 138 Q 187.5 137.5 188 140.5 L 190.5 144 L 197 148 L 198.5 151 L 204 155.5 L 205.5 158 L 213 163.5 Q 212.3 165.8 214.5 165 L 230 178 Q 228.9 180.7 231.5 180 L 238 185.5 L 241.5 190 L 244 191.5 Q 243.3 193.8 245.5 193 L 256 200.5 L 258 205 L 263 208.5 L 264.5 211 L 266.5 211 L 271 215.5 L 273.5 219 L 280 223.5 Q 279.3 225.8 281.5 225 L 287 232 L 289.5 232 L 297 238 L 299.5 242 L 305 245 L 309.5 251 Q 313.5 250.5 314 253.5 L 318.5 259 L 321 260.5 Q 320.3 262.8 322.5 262 L 330 268.5 L 332.5 272 Q 337.5 271.5 338 275.5 L 340.5 279 L 347 283.5 L 348.5 286 L 354 290.5 L 355.5 293 L 357.5 293 L 363 298.5 Q 362.3 300.8 364.5 300 L 378.5 313 L 381 313 L 385.5 319 L 388 320.5 L 390.5 324 L 397 328.5 L 400 332.5 L 400 400 L 342.5 400 L 338 396.5 L 334.5 392 Q 330.5 392.5 330 389.5 L 326.5 385 L 321 382 L 319.5 379 L 314 374.5 L 312.5 372 L 310.5 372 L 305 366.5 Q 305.8 364.3 303.5 365 L 297 359.5 Q 297.8 357.3 295.5 358 L 289.5 352 L 287 352 L 281.5 345 Q 279.3 345.8 280 343.5 L 271 336.5 L 267.5 332 Q 263.5 332.5 263 329.5 L 259.5 325 L 254 322 L 251.5 318 L 247 314.5 L 245.5 312 L 243.5 312 L 238 306.5 L 236.5 304 L 230 299.5 Q 230.8 297.3 228.5 298 L 213 285 L 211.5 282 L 204 276.5 L 200.5 272 Q 196.5 272.5 196 269.5 L 191.5 264 L 187 262 L 184.5 258 L 173 249.5 L 171.5 247 L 169 245.5 Q 166.3 241.7 168 233.5 L 171 232 L 170 184.5 L 168 182.5 L 168 159.5 L 167 158.5 L 166.5 122 Z "></path></svg>