<svg width="400" height="400" version="1.1" xmlns="http://www.w3.org/2000/svg" desc="Created with imagetracer.js version 1.2.5"><path fill="rgb(0,108,232)" stroke="rgb(0,108,232)" stroke-width="1" opacity="0.9647058823529412" d="M 47.5 0 L 49 8.5 L 47.5 17 L 47.5 0 Z "></path><path fill="rgb(0,108,232)" stroke="rgb(0,108,232)" stroke-width="1" opacity="0.9647058823529412" d="M 285.5 16 L 288 21.5 L 285 19.5 L 284 17.5 L 285.5 16 Z "></path><path fill="rgb(0,108,232)" stroke="rgb(0,108,232)" stroke-width="1" opacity="0.9647058823529412" d="M 288.5 32 Q 290.8 31.3 290 33.5 L 288.5 32 Z "></path><path fill="rgb(0,108,232)" stroke="rgb(0,108,232)" stroke-width="1" opacity="0.9647058823529412" d="M 289.5 35 L 291 38.5 L 289 37.5 L 289.5 35 Z "></path><path fill="rgb(0,108,232)" stroke="rgb(0,108,232)" stroke-width="1" opacity="0.9647058823529412" d="M 47.5 142 L 48.5 145 L 50 144.5 L 54.5 151 L 69.5 158 L 104 159.5 L 54.5 160 L 47 155.5 L 47.5 142 Z "></path><path fill="rgb(0,108,232)" stroke="rgb(0,108,232)" stroke-width="1" opacity="0.9647058823529412" d="M 139.5 159 L 183 159.5 L 139.5 160 L 139.5 159 Z "></path><path fill="rgb(0,108,232)" stroke="rgb(0,108,232)" stroke-width="1" opacity="0.9647058823529412" d="M 184.5 159 L 188 159.5 L 184.5 160 L 184.5 159 Z "></path><path fill="rgb(0,108,232)" stroke="rgb(0,108,232)" stroke-width="1" opacity="1" d="M 48 0 L 365 0 L 365 160 L 333 160 L 333 99 L 298 99 L 298 160 L 193.5 160 L 189.5 160 L 184.5 159 L 182.5 159 L 139 159 L 139 92 L 104 92 L 104 158.5 L 103.5 159 L 82.5 159 L 81.5 158 L 69.5 158 L 59.5 154 L 53 149.5 L 49.5 144 L 48 144.5 L 47 141.5 L 47 17.5 L 48 16.5 L 49 4.5 L 48 0 Z M 286 16 L 284 18 L 285 20 L 288 22 L 286 16 Z M 289 32 L 290 34 Q 291 31 289 32 Z M 290 35 L 289 38 L 290 38 L 290 35 Z "></path><path fill="rgb(0,108,232)" stroke="rgb(0,108,232)" stroke-width="1" opacity="1" d="M 0 309 L 185 309 L 185 400 L 0 400 L 0 309 Z "></path><path fill="rgb(0,108,232)" stroke="rgb(0,108,232)" stroke-width="1" opacity="1" d="M 257 309 L 400 309 L 400 400 L 257 400 L 257 309 Z "></path><path fill="rgb(0,0,0)" stroke="rgb(0,0,0)" stroke-width="1" opacity="0" d="M 0 0 L 46.5 0 L 47 0.5 L 47 155.5 L 54.5 160 L 104 160 L 104 201 L 70.5 201 L 70 202.5 L 75 209.5 L 76 214.5 L 84 228.5 L 84 231.5 L 90 241.5 L 90 244.5 L 97 254.5 L 100 263.5 L 117 286.5 L 118 293.5 L 119.5 295 L 121.5 294 L 123.5 295 L 125 293.5 L 126 286.5 L 143 263.5 L 146 254.5 L 153 244.5 L 153 241.5 L 159 231.5 L 159 228.5 L 173 201 L 139 201 L 139 160 L 297.5 160 L 298 160.5 L 298 208 L 264.5 208 L 264 209.5 L 269 216.5 L 270 221.5 L 278 235.5 L 278 238.5 L 284 248.5 L 284 251.5 L 291 261.5 L 294 270.5 L 311 293.5 L 312 300.5 L 313.5 302 L 315.5 301 L 317.5 302 L 319 300.5 L 320 293.5 L 337 270.5 L 340 261.5 L 347 251.5 L 347 248.5 L 353 238.5 L 353 235.5 L 367 208 L 333 208 L 333 160 L 364.5 160 L 365 159.5 L 365 0 L 400 0 L 400 309 L 257 309 L 257 400 L 185 400 L 185 309 L 0 309 L 0 0 Z "></path><path fill="rgb(179,0,233)" stroke="rgb(179,0,233)" stroke-width="1" opacity="0.5176470588235295" d="M 70.5 201 L 72 203.5 L 70 202.5 L 70.5 201 Z "></path><path fill="rgb(179,0,233)" stroke="rgb(179,0,233)" stroke-width="1" opacity="0.5176470588235295" d="M 172.5 201 L 173 202.5 L 171 203.5 L 172.5 201 Z "></path><path fill="rgb(179,0,233)" stroke="rgb(179,0,233)" stroke-width="1" opacity="0.5176470588235295" d="M 72.5 205 L 75 208.5 L 73 207.5 L 72.5 205 Z "></path><path fill="rgb(179,0,233)" stroke="rgb(179,0,233)" stroke-width="1" opacity="0.5176470588235295" d="M 170.5 205 L 170 206.5 L 168.5 209 L 169 207.5 L 170.5 205 Z "></path><path fill="rgb(179,0,233)" stroke="rgb(179,0,233)" stroke-width="1" opacity="0.5176470588235295" d="M 264.5 208 L 266 210.5 L 264 209.5 L 264.5 208 Z "></path><path fill="rgb(179,0,233)" stroke="rgb(179,0,233)" stroke-width="1" opacity="0.5176470588235295" d="M 366.5 208 L 367 209.5 L 365 210.5 L 366.5 208 Z "></path><path fill="rgb(179,0,233)" stroke="rgb(179,0,233)" stroke-width="1" opacity="0.5176470588235295" d="M 75.5 211 Q 78.5 211.5 78 215.5 L 76 214.5 L 75.5 211 Z "></path><path fill="rgb(179,0,233)" stroke="rgb(179,0,233)" stroke-width="1" opacity="0.5176470588235295" d="M 167.5 211 L 167 212.5 L 165.5 216 L 165 213.5 L 167.5 211 Z "></path><path fill="rgb(179,0,233)" stroke="rgb(179,0,233)" stroke-width="1" opacity="0.5176470588235295" d="M 266.5 212 L 269 215.5 L 267 214.5 L 266.5 212 Z "></path><path fill="rgb(179,0,233)" stroke="rgb(179,0,233)" stroke-width="1" opacity="0.5176470588235295" d="M 364.5 212 L 364 213.5 L 362.5 216 L 363 214.5 L 364.5 212 Z "></path><path fill="rgb(179,0,233)" stroke="rgb(179,0,233)" stroke-width="1" opacity="0.5176470588235295" d="M 78.5 217 L 81 221.5 L 80 221.5 L 78.5 217 Z "></path><path fill="rgb(179,0,233)" stroke="rgb(179,0,233)" stroke-width="1" opacity="0.5176470588235295" d="M 164.5 217 L 165 218.5 L 162.5 222 L 162 220.5 L 164.5 217 Z "></path><path fill="rgb(179,0,233)" stroke="rgb(179,0,233)" stroke-width="1" opacity="0.5176470588235295" d="M 269.5 218 Q 272.5 218.5 272 222.5 L 270 221.5 L 269.5 218 Z "></path><path fill="rgb(179,0,233)" stroke="rgb(179,0,233)" stroke-width="1" opacity="0.5176470588235295" d="M 361.5 218 L 361 219.5 L 359.5 223 L 359 220.5 L 361.5 218 Z "></path><path fill="rgb(179,0,233)" stroke="rgb(179,0,233)" stroke-width="1" opacity="0.5176470588235295" d="M 81.5 224 L 84 227.5 L 82 226.5 L 81.5 224 Z "></path><path fill="rgb(179,0,233)" stroke="rgb(179,0,233)" stroke-width="1" opacity="0.5176470588235295" d="M 161.5 224 L 161 225.5 L 159.5 228 L 159 226.5 L 161.5 224 Z "></path><path fill="rgb(179,0,233)" stroke="rgb(179,0,233)" stroke-width="1" opacity="0.5176470588235295" d="M 272.5 224 L 275 228.5 L 274 228.5 L 272.5 224 Z "></path><path fill="rgb(179,0,233)" stroke="rgb(179,0,233)" stroke-width="1" opacity="0.5176470588235295" d="M 358.5 224 L 359 225.5 L 356.5 229 L 356 227.5 L 358.5 224 Z "></path><path fill="rgb(179,0,233)" stroke="rgb(179,0,233)" stroke-width="1" opacity="0.5176470588235295" d="M 84.5 231 L 87 234.5 L 85 233.5 L 84.5 231 Z "></path><path fill="rgb(179,0,233)" stroke="rgb(179,0,233)" stroke-width="1" opacity="0.5176470588235295" d="M 158.5 231 L 158 232.5 L 156.5 235 L 157 233.5 L 158.5 231 Z "></path><path fill="rgb(179,0,233)" stroke="rgb(179,0,233)" stroke-width="1" opacity="0.5176470588235295" d="M 275.5 231 L 278 234.5 L 276 233.5 L 275.5 231 Z "></path><path fill="rgb(179,0,233)" stroke="rgb(179,0,233)" stroke-width="1" opacity="0.5176470588235295" d="M 355.5 231 L 355 232.5 L 353.5 235 L 353 233.5 L 355.5 231 Z "></path><path fill="rgb(179,0,233)" stroke="rgb(179,0,233)" stroke-width="1" opacity="0.5176470588235295" d="M 87.5 237 L 90 240.5 L 88 239.5 L 87.5 237 Z "></path><path fill="rgb(179,0,233)" stroke="rgb(179,0,233)" stroke-width="1" opacity="0.5176470588235295" d="M 155.5 237 L 155 238.5 L 153.5 241 L 154 239.5 L 155.5 237 Z "></path><path fill="rgb(179,0,233)" stroke="rgb(179,0,233)" stroke-width="1" opacity="0.5176470588235295" d="M 278.5 238 L 281 241.5 L 279 240.5 L 278.5 238 Z "></path><path fill="rgb(179,0,233)" stroke="rgb(179,0,233)" stroke-width="1" opacity="0.5176470588235295" d="M 352.5 238 L 352 239.5 L 350.5 242 L 351 240.5 L 352.5 238 Z "></path><path fill="rgb(179,0,233)" stroke="rgb(179,0,233)" stroke-width="1" opacity="0.5176470588235295" d="M 90.5 242 L 93 246.5 L 90 244.5 L 90.5 242 Z "></path><path fill="rgb(179,0,233)" stroke="rgb(179,0,233)" stroke-width="1" opacity="0.5176470588235295" d="M 152.5 242 L 153 244.5 L 150 246.5 L 152.5 242 Z "></path><path fill="rgb(179,0,233)" stroke="rgb(179,0,233)" stroke-width="1" opacity="0.5176470588235295" d="M 281.5 244 L 284 247.5 L 282 246.5 L 281.5 244 Z "></path><path fill="rgb(179,0,233)" stroke="rgb(179,0,233)" stroke-width="1" opacity="0.5176470588235295" d="M 349.5 244 L 349 245.5 L 347.5 248 L 348 246.5 L 349.5 244 Z "></path><path fill="rgb(179,0,233)" stroke="rgb(179,0,233)" stroke-width="1" opacity="0.5176470588235295" d="M 93.5 248 L 97 253.5 L 96 253.5 L 93 249.5 L 93.5 248 Z "></path><path fill="rgb(179,0,233)" stroke="rgb(179,0,233)" stroke-width="1" opacity="0.5176470588235295" d="M 149.5 248 L 150 249.5 L 146.5 254 L 146 252.5 L 149.5 248 Z "></path><path fill="rgb(179,0,233)" stroke="rgb(179,0,233)" stroke-width="1" opacity="0.5176470588235295" d="M 284.5 249 L 287 253.5 L 284 251.5 L 284.5 249 Z "></path><path fill="rgb(179,0,233)" stroke="rgb(179,0,233)" stroke-width="1" opacity="0.5176470588235295" d="M 346.5 249 L 347 251.5 L 344 253.5 L 346.5 249 Z "></path><path fill="rgb(179,0,233)" stroke="rgb(179,0,233)" stroke-width="1" opacity="0.5176470588235295" d="M 287.5 255 L 291 260.5 L 290 260.5 L 287 256.5 L 287.5 255 Z "></path><path fill="rgb(179,0,233)" stroke="rgb(179,0,233)" stroke-width="1" opacity="0.5176470588235295" d="M 343.5 255 L 344 256.5 L 340.5 261 L 340 259.5 L 343.5 255 Z "></path><path fill="rgb(179,0,233)" stroke="rgb(179,0,233)" stroke-width="1" opacity="0.5176470588235295" d="M 97.5 256 L 100 260.5 L 98 259.5 L 97.5 256 Z "></path><path fill="rgb(179,0,233)" stroke="rgb(179,0,233)" stroke-width="1" opacity="0.5176470588235295" d="M 145.5 256 L 145 257.5 L 143.5 261 L 144 259.5 L 145.5 256 Z "></path><path fill="rgb(179,0,233)" stroke="rgb(179,0,233)" stroke-width="1" opacity="0.5176470588235295" d="M 100.5 262 L 103 265.5 L 100 263.5 L 100.5 262 Z "></path><path fill="rgb(179,0,233)" stroke="rgb(179,0,233)" stroke-width="1" opacity="0.5176470588235295" d="M 142.5 262 L 143 263.5 L 140 265.5 L 142.5 262 Z "></path><path fill="rgb(179,0,233)" stroke="rgb(179,0,233)" stroke-width="1" opacity="0.5176470588235295" d="M 291.5 263 L 294 267.5 L 292 266.5 L 291.5 263 Z "></path><path fill="rgb(179,0,233)" stroke="rgb(179,0,233)" stroke-width="1" opacity="0.5176470588235295" d="M 339.5 263 L 339 264.5 L 337.5 268 L 338 266.5 L 339.5 263 Z "></path><path fill="rgb(179,0,233)" stroke="rgb(179,0,233)" stroke-width="1" opacity="0.5176470588235295" d="M 103.5 267 L 105.5 270 L 103.5 267 Z "></path><path fill="rgb(179,0,233)" stroke="rgb(179,0,233)" stroke-width="1" opacity="0.5176470588235295" d="M 139.5 267 L 137.5 270 L 139.5 267 Z "></path><path fill="rgb(179,0,233)" stroke="rgb(179,0,233)" stroke-width="1" opacity="0.5176470588235295" d="M 294.5 269 L 297 272.5 L 294 270.5 L 294.5 269 Z "></path><path fill="rgb(179,0,233)" stroke="rgb(179,0,233)" stroke-width="1" opacity="0.5176470588235295" d="M 336.5 269 L 337 270.5 L 334 272.5 L 336.5 269 Z "></path><path fill="rgb(179,0,233)" stroke="rgb(179,0,233)" stroke-width="1" opacity="0.5176470588235295" d="M 106.5 271 L 109 274.5 L 107 273.5 L 106.5 271 Z "></path><path fill="rgb(179,0,233)" stroke="rgb(179,0,233)" stroke-width="1" opacity="0.5176470588235295" d="M 136.5 271 L 136 272.5 L 134.5 275 L 135 273.5 L 136.5 271 Z "></path><path fill="rgb(179,0,233)" stroke="rgb(179,0,233)" stroke-width="1" opacity="0.5176470588235295" d="M 297.5 274 L 299.5 277 L 297.5 274 Z "></path><path fill="rgb(179,0,233)" stroke="rgb(179,0,233)" stroke-width="1" opacity="0.5176470588235295" d="M 333.5 274 L 331.5 277 L 333.5 274 Z "></path><path fill="rgb(179,0,233)" stroke="rgb(179,0,233)" stroke-width="1" opacity="0.5176470588235295" d="M 109.5 276 L 111.5 279 L 109.5 276 Z "></path><path fill="rgb(179,0,233)" stroke="rgb(179,0,233)" stroke-width="1" opacity="0.5176470588235295" d="M 133.5 276 L 131.5 279 L 133.5 276 Z "></path><path fill="rgb(179,0,233)" stroke="rgb(179,0,233)" stroke-width="1" opacity="0.5176470588235295" d="M 300.5 278 L 303 281.5 L 301 280.5 L 300.5 278 Z "></path><path fill="rgb(179,0,233)" stroke="rgb(179,0,233)" stroke-width="1" opacity="0.5176470588235295" d="M 330.5 278 L 330 279.5 L 328.5 282 L 329 280.5 L 330.5 278 Z "></path><path fill="rgb(179,0,233)" stroke="rgb(179,0,233)" stroke-width="1" opacity="0.5176470588235295" d="M 112.5 280 L 114.5 283 L 112.5 280 Z "></path><path fill="rgb(179,0,233)" stroke="rgb(179,0,233)" stroke-width="1" opacity="0.5176470588235295" d="M 130.5 280 L 128.5 283 L 130.5 280 Z "></path><path fill="rgb(179,0,233)" stroke="rgb(179,0,233)" stroke-width="1" opacity="0.5176470588235295" d="M 303.5 283 L 305.5 286 L 303.5 283 Z "></path><path fill="rgb(179,0,233)" stroke="rgb(179,0,233)" stroke-width="1" opacity="0.5176470588235295" d="M 327.5 283 L 325.5 286 L 327.5 283 Z "></path><path fill="rgb(179,0,233)" stroke="rgb(179,0,233)" stroke-width="1" opacity="0.5176470588235295" d="M 115.5 284 Q 118.5 284.5 118 288.5 L 117 288.5 L 115.5 284 Z "></path><path fill="rgb(179,0,233)" stroke="rgb(179,0,233)" stroke-width="1" opacity="0.5176470588235295" d="M 127.5 284 L 126 286.5 L 125.5 289 L 125 286.5 L 127.5 284 Z "></path><path fill="rgb(179,0,233)" stroke="rgb(179,0,233)" stroke-width="1" opacity="0.5176470588235295" d="M 306.5 287 L 308.5 290 L 306.5 287 Z "></path><path fill="rgb(179,0,233)" stroke="rgb(179,0,233)" stroke-width="1" opacity="0.5176470588235295" d="M 324.5 287 L 322.5 290 L 324.5 287 Z "></path><path fill="rgb(179,0,233)" stroke="rgb(179,0,233)" stroke-width="1" opacity="0.5176470588235295" d="M 309.5 291 Q 312.5 291.5 312 295.5 L 311 295.5 L 309.5 291 Z "></path><path fill="rgb(179,0,233)" stroke="rgb(179,0,233)" stroke-width="1" opacity="0.5176470588235295" d="M 321.5 291 L 320 293.5 L 319.5 296 L 319 293.5 L 321.5 291 Z "></path><path fill="rgb(179,0,233)" stroke="rgb(179,0,233)" stroke-width="1" opacity="0.5176470588235295" d="M 118.5 292 L 119.5 294 L 121.5 292 L 124 293.5 L 124.5 292 L 125 293.5 L 122.5 295 L 120.5 295 L 118 293.5 L 118.5 292 Z "></path><path fill="rgb(179,0,233)" stroke="rgb(179,0,233)" stroke-width="1" opacity="0.5176470588235295" d="M 312.5 299 L 313.5 301 L 315.5 299 L 318 300.5 L 318.5 299 L 319 300.5 L 316.5 302 L 314.5 302 L 312 300.5 L 312.5 299 Z "></path><path fill="rgb(178,0,232)" stroke="rgb(178,0,232)" stroke-width="1" opacity="0.996078431372549" d="M 104 92 L 139 92 L 139 200.5 L 139.5 201 L 171.5 201 L 172 202.5 L 165 213.5 L 162 223.5 L 159 226.5 L 159 230.5 L 151 243.5 L 149 249.5 L 146 252.5 L 146 255.5 L 142 263.5 L 125 286.5 Q 125.9 291.9 123.5 294 L 121.5 292 L 119 293.5 L 118 286.5 L 101 263.5 L 97 255.5 L 97 252.5 L 87 236.5 L 84 230.5 L 84 226.5 L 81 223.5 L 78 213.5 L 75 210.5 L 71 201 L 103.5 201 L 104 200.5 L 104 92 Z "></path><path fill="rgb(178,0,232)" stroke="rgb(178,0,232)" stroke-width="1" opacity="0.996078431372549" d="M 298 99 L 333 99 L 333 207.5 L 333.5 208 L 365.5 208 L 366 209.5 L 359 220.5 L 356 230.5 L 353 233.5 L 353 237.5 L 345 250.5 L 343 256.5 L 340 259.5 L 340 262.5 L 336 270.5 L 319 293.5 Q 319.9 298.9 317.5 301 L 315.5 299 L 313 300.5 L 312 293.5 L 295 270.5 L 291 262.5 L 291 259.5 L 281 243.5 L 278 237.5 L 278 233.5 L 275 230.5 L 272 220.5 L 269 217.5 L 265 208 L 297.5 208 L 298 207.5 L 298 99 Z "></path></svg>