<svg width="400" height="400" version="1.1" xmlns="http://www.w3.org/2000/svg" desc="Created with imagetracer.js version 1.2.5"><path fill="rgb(0,0,0)" stroke="rgb(0,0,0)" stroke-width="1" opacity="0" d="M 0 0 L 311 0.5 L 303 4 Q 304.3 7 300.5 6 Q 296.5 10.2 290 11 Q 291.1 13.7 288.5 13 L 275 19 Q 276.3 22 272.5 21 Q 268.4 25.4 262 26 Q 263.1 28.7 260.5 28 L 258.5 30 L 249 33 Q 250.1 35.7 247.5 35 Q 242.3 40 234 41 L 232.5 44 L 222 48 Q 223.1 50.7 220.5 50 L 208 56.5 Q 208.8 59.1 205.5 58 L 195 63.5 Q 195.8 65.8 193.5 65 L 182 70.5 Q 182.8 72.8 180.5 72 L 169.5 78 L 167 78 Q 168.1 80.7 165.5 80 L 154 85 Q 155.1 87.7 152.5 87 L 141.5 93 L 139 93 Q 140.1 95.7 137.5 95 L 127 100 Q 128.3 103 124.5 102 Q 120.5 106.4 114 107 Q 115.1 109.7 112.5 109 L 99 115 Q 100.1 117.7 97.5 117 L 86 122 Q 87.1 124.7 84.5 124 L 83 126.5 L 83.5 128 Q 77.3 127.3 77 128.5 L 77 165.5 L 78 166.5 L 78 205.5 L 79 206.5 L 80 284 L 82 284.5 L 82 323.5 L 86 329.5 L 87.5 332 Q 89.8 331.3 89 333.5 L 93 336.5 L 94.5 339 L 96.5 339 L 102 344.5 Q 101.3 346.8 103.5 346 L 111 351 L 117 360 L 119.5 360 L 127 366.5 L 129.5 370 L 135 373.5 L 139.5 379 L 144 381.5 L 146.5 385 L 151 388.5 L 152.5 391 L 159 395.5 L 161.5 399 L 163 399.5 L 0 400 L 0 0 Z M 274 55 L 144 122 L 150 131 L 280 65 L 276 57 L 274 55 Z M 106 178 L 98 185 L 98 187 L 166 258 L 173 252 L 173 250 L 106 178 Z M 284 179 L 199 224 L 205 233 L 290 189 L 286 181 L 284 179 Z M 117 303 L 110 311 L 160 355 L 162 355 L 168 348 L 119 303 L 117 303 Z "></path><path fill="rgb(0,0,0)" stroke="rgb(0,0,0)" stroke-width="1" opacity="0" d="M 338.5 0 L 373 0.5 L 324 29.5 L 329.5 39 L 391.5 2 Q 394.5 -0.8 400 0 L 400 118.5 L 398.5 120 L 331 151.5 L 335 161 L 337.5 161 L 400 132 L 400 153.5 L 398.5 155 L 388 159 Q 389.1 161.7 386.5 161 L 375 166 Q 376.1 168.7 373.5 168 L 360 174 Q 361.1 176.7 358.5 176 L 348 181.5 Q 348.8 184.1 345.5 183 L 333 189.5 Q 333.8 192.1 330.5 191 L 319 196 L 317.5 199 L 306 203 Q 307.1 205.7 304.5 205 L 302.5 207 L 291 211 Q 292.1 213.7 289.5 213 L 287.5 215 L 278 218 Q 279.1 220.7 276.5 220 L 266 225 Q 267.3 228 263.5 227 Q 258.3 232 250 233 Q 251.1 235.7 248.5 235 Q 244.5 239.2 238 240 Q 239.3 243 235.5 242 Q 230.4 246.7 223 248 Q 224.3 251 220.5 250 Q 216.4 254.4 210 255 Q 211.1 257.7 208.5 257 L 206.5 257 Q 204.3 257.8 205 255.5 L 200 248 L 195 244.5 L 191.5 239 L 186 234.5 L 184.5 231 L 179 226.5 L 178 223 L 173 219.5 L 169.5 215 Q 167.3 215.8 168 213.5 L 162.5 207 L 160 205.5 L 160 203.5 L 155.5 199 L 153 197.5 L 148 189 L 143 185.5 L 141 181 L 135 176.5 Q 135.5 172.5 132.5 172 L 127 167.5 L 126 164 L 121 160.5 L 118.5 157 Q 116.3 157.8 117 155.5 L 110.5 148 L 108 146.5 L 108 144.5 L 103.5 140 L 101 138.5 L 97 132.5 L 101 131 Q 99.8 128 103.5 129 Q 107.5 124.6 114 124 Q 112.9 121.3 115.5 122 L 117.5 120 L 127 117 Q 125.9 114.3 128.5 115 L 130.5 113 L 142 109 L 143.5 106 L 154 102 Q 152.9 99.3 155.5 100 L 167 95 L 168.5 92 L 181 86.5 Q 180.3 84.3 182.5 85 L 194 79.5 Q 193.3 77.3 195.5 78 L 209 72 Q 207.9 69.3 210.5 70 L 222 65 Q 220.9 62.3 223.5 63 L 234 58 Q 232.8 55 236.5 56 L 249 50 Q 247.8 47 251.5 48 Q 255.6 43.6 262 43 Q 260.9 40.3 263.5 41 L 277 35 Q 275.9 32.3 278.5 33 L 290 28 Q 288.9 25.3 291.5 26 L 300.5 21 L 303 21 Q 301.9 18.3 304.5 19 Q 309.7 14 318 13 Q 316.9 10.3 319.5 11 Q 323.5 6.8 330 6 Q 328.8 3 332.5 4 L 338.5 0 Z "></path><path fill="rgb(0,0,0)" stroke="rgb(0,0,0)" stroke-width="1" opacity="0" d="M 90.5 146 L 98 152.5 L 102.5 159 Q 104.8 158.3 104 160.5 L 109 168 L 116 173.5 L 117.5 177 L 123 181.5 L 124 185 L 130 189.5 L 131.5 192 L 134 193.5 L 139.5 201 L 142 202.5 L 142 204.5 L 146.5 209 L 150 211.5 L 154.5 218 Q 156.8 217.3 156 219.5 L 161 227 L 168 232.5 Q 166.9 235.8 169.5 235 Q 175.2 237.9 176 244 L 182 248.5 L 183.5 251 Q 185.8 250.3 185 252.5 L 190.5 259 L 194 261.5 L 194 263.5 L 198.5 268 L 202 270.5 L 205.5 276 L 208 277.5 L 213.5 285 Q 215.8 284.3 215 286.5 Q 219.4 288.9 220 294 L 227 299.5 L 229 302.5 L 235.5 310 Q 237.8 309.3 237 311.5 L 242.5 318 L 246 320.5 L 246 322.5 L 250.5 327 L 254 329.5 Q 253.5 334.5 257.5 335 L 260 336.5 L 264.5 343 L 267 344.5 L 272 353 L 279 358.5 L 281 361.5 L 286 368 L 289 369.5 L 294.5 377 L 298 379.5 L 301.5 385 L 306 388.5 Q 305.5 393.5 309.5 394 L 312 395.5 L 315 399.5 L 299.5 400 L 221.5 315 L 214 321.5 L 214 323.5 L 283 399.5 L 217.5 400 L 189.5 372 L 187 372 L 181 379.5 L 200.5 400 L 182.5 400 L 179 396.5 L 177.5 394 L 171 389.5 L 169.5 387 L 164 382.5 L 162.5 380 L 160.5 380 L 154 375 L 150.5 370 L 146 368 L 140.5 361 L 137 359.5 L 132.5 354 L 130 352.5 L 128.5 350 L 122 345.5 L 118.5 341 L 113 337.5 L 110.5 334 L 106 330.5 Q 106.8 328.3 104.5 329 L 98 323.5 L 100 316.5 L 98.5 316 Q 97.4 318.8 94 318 L 90.5 146 Z "></path><path fill="rgb(0,0,0)" stroke="rgb(0,0,0)" stroke-width="1" opacity="0" d="M 399.5 169 L 400 400 L 333.5 400 L 329 396.5 L 325 390 Q 322.3 391.1 323 388.5 L 316 383 Q 315.4 377.6 310.5 375 Q 308.3 375.8 309 373.5 L 302.5 365 L 298 361.5 L 295.5 357 L 290 352.5 Q 290.5 348.5 287.5 348 L 284 345.5 L 280.5 340 L 277 337.5 L 273.5 333 Q 271.3 333.8 272 331.5 L 265.5 324 Q 262.9 324.8 264 321.5 L 257 316 L 252 307 L 247 303.5 L 243.5 298 L 238 293.5 L 236.5 290 L 232 286.5 L 228.5 281 L 225 278.5 L 221.5 274 Q 219.3 274.8 220 272.5 L 216 267.5 L 224 263.5 Q 223.3 261.3 225.5 262 L 238 257 L 239.5 254 L 250 250 Q 248.8 247 252.5 248 Q 257.7 243 266 242 Q 264.9 239.3 267.5 240 Q 271.5 235.8 278 235 Q 276.8 232 280.5 233 Q 285.6 228.3 293 227 Q 291.8 224 295.5 225 Q 299.6 220.6 306 220 Q 304.9 217.3 307.5 218 L 316.5 213 L 319 213 Q 317.9 210.3 320.5 211 L 331.5 205 L 334 205 Q 332.9 202.3 335.5 203 L 346 198 Q 344.8 195 348.5 196 L 359 191 Q 357.8 188 361.5 189 L 374 183 Q 372.8 180 376.5 181 L 387 175.5 Q 386.3 173.3 388.5 174 L 399.5 169 Z "></path><path fill="rgb(187,0,255)" stroke="rgb(187,0,255)" stroke-width="1" opacity="0.40784313725490196" d="M 393.5 0 L 395 0.5 L 380.5 9 L 381.5 7 L 393.5 0 Z "></path><path fill="rgb(187,0,255)" stroke="rgb(187,0,255)" stroke-width="1" opacity="0.40784313725490196" d="M 371.5 1 L 370.5 3 L 351.5 14 L 352.5 12 L 371.5 1 Z "></path><path fill="rgb(187,0,255)" stroke="rgb(187,0,255)" stroke-width="1" opacity="0.40784313725490196" d="M 378.5 9 L 377.5 11 L 375.5 12 L 376.5 10 L 378.5 9 Z "></path><path fill="rgb(187,0,255)" stroke="rgb(187,0,255)" stroke-width="1" opacity="0.40784313725490196" d="M 373.5 12 L 372.5 14 L 353.5 25 L 354.5 23 L 373.5 12 Z "></path><path fill="rgb(187,0,255)" stroke="rgb(187,0,255)" stroke-width="1" opacity="0.40784313725490196" d="M 349.5 14 L 348.5 16 L 325 29 L 327 33.5 L 325 32.5 L 324 29.5 L 349.5 14 Z "></path><path fill="rgb(187,0,255)" stroke="rgb(187,0,255)" stroke-width="1" opacity="0.40784313725490196" d="M 351.5 25 L 350.5 27 L 331.5 38 L 332.5 36 L 351.5 25 Z "></path><path fill="rgb(187,0,255)" stroke="rgb(187,0,255)" stroke-width="1" opacity="0.40784313725490196" d="M 327.5 35 L 330 38.5 L 328 37.5 L 327.5 35 Z "></path><path fill="rgb(187,0,255)" stroke="rgb(187,0,255)" stroke-width="1" opacity="0.40784313725490196" d="M 273.5 55 L 276 56.5 L 274.5 56 L 268.5 59 L 269.5 57 L 273.5 55 Z "></path><path fill="rgb(187,0,255)" stroke="rgb(187,0,255)" stroke-width="1" opacity="0.40784313725490196" d="M 258.5 63 L 257.5 65 L 203.5 92 L 204.5 90 L 258.5 63 Z "></path><path fill="rgb(187,0,255)" stroke="rgb(187,0,255)" stroke-width="1" opacity="0.40784313725490196" d="M 279.5 64 L 278.5 66 L 232.5 89 L 233.5 87 L 279.5 64 Z "></path><path fill="rgb(187,0,255)" stroke="rgb(187,0,255)" stroke-width="1" opacity="0.40784313725490196" d="M 220.5 94 L 219.5 96 L 167.5 122 L 168.5 120 L 220.5 94 Z "></path><path fill="rgb(187,0,255)" stroke="rgb(187,0,255)" stroke-width="1" opacity="0.40784313725490196" d="M 193.5 96 L 192.5 98 L 144.5 122 L 145.5 120 L 193.5 96 Z "></path><path fill="rgb(187,0,255)" stroke="rgb(187,0,255)" stroke-width="1" opacity="0.40784313725490196" d="M 155.5 127 L 154.5 129 L 149.5 131 L 148.5 129 L 150.5 130 L 155.5 127 Z "></path><path fill="rgb(187,0,255)" stroke="rgb(187,0,255)" stroke-width="1" opacity="0.40784313725490196" d="M 105.5 178 L 173 249.5 L 173 251.5 L 165.5 258 L 98 186.5 L 98 184.5 L 105.5 178 Z M 106 179 L 99 186 L 154 246 L 166 257 L 172 251 L 106 179 Z "></path><path fill="rgb(187,0,255)" stroke="rgb(187,0,255)" stroke-width="1" opacity="0.40784313725490196" d="M 221.5 315 L 299 399.5 L 297 400 L 297 398.5 L 221.5 316 L 215 321 L 216 324.5 L 284 399.5 L 281 397.5 L 214 323.5 L 214 321.5 L 221.5 315 Z "></path><path fill="rgb(0,255,187)" stroke="rgb(0,255,187)" stroke-width="1" opacity="0.9882352941176471" d="M 398.5 120 L 400 120.5 L 400 132 L 337.5 161 L 335 161 L 331 151.5 L 398.5 120 Z "></path><path fill="rgb(0,255,187)" stroke="rgb(0,255,187)" stroke-width="1" opacity="0.9882352941176471" d="M 284.5 179 L 290 188.5 L 204.5 233 L 199 223.5 L 284.5 179 Z "></path><path fill="rgb(0,255,187)" stroke="rgb(0,255,187)" stroke-width="1" opacity="0.9882352941176471" d="M 116.5 303 L 119 303 Q 117.9 305.7 120.5 305 L 136.5 320 L 144 325 Q 142.9 327.7 145.5 327 L 168 347.5 L 161.5 355 L 159.5 355 L 110 310.5 L 116.5 303 Z "></path><path fill="rgb(0,255,187)" stroke="rgb(0,255,187)" stroke-width="1" opacity="0.9882352941176471" d="M 188.5 372 L 195 377.5 L 195 379 L 197 379 Q 195.9 381.7 198.5 381 L 216.5 400 L 201.5 400 L 181 379.5 L 188.5 372 Z "></path><path fill="rgb(0,85,255)" stroke="rgb(0,85,255)" stroke-width="1" opacity="0.984313725490196" d="M 313.5 0 L 337 0.5 L 328 4 Q 329.1 6.7 326.5 6 L 324.5 8 L 315 11 Q 316.1 13.7 313.5 13 L 311.5 15 L 300 19 L 298.5 22 L 288 26 Q 289.1 28.7 286.5 28 L 275 33 L 273.5 36 L 261 41.5 Q 261.8 43.8 259.5 43 L 248 48.5 Q 248.8 50.8 246.5 50 L 233 56 Q 234.1 58.7 231.5 58 L 220 63 Q 221.1 65.7 218.5 65 L 208 70 Q 209.3 73 205.5 72 L 193 78 Q 194.3 81 190.5 80 Q 186.4 84.4 180 85 Q 181.1 87.7 178.5 87 L 165 93 Q 166.1 95.7 163.5 95 L 152 100 Q 153.1 102.7 150.5 102 L 139 107 Q 140.1 109.7 137.5 109 Q 132.3 114 124 115 Q 125.1 117.7 122.5 117 Q 118.5 121.2 112 122 Q 113.3 125 109.5 124 Q 105.5 128.4 99 129 Q 100.1 131.7 97.5 131 Q 93.7 133.2 99 135.5 L 102.5 141 L 107 144.5 L 109.5 149 L 114 152.5 L 117.5 158 L 120 159.5 L 124.5 165 Q 127.1 164.2 126 167.5 L 134 174.5 L 134 176.5 L 139 183 L 142 184.5 L 146 191 L 151 194.5 L 154.5 200 L 159 203.5 Q 158.5 207.5 161.5 208 L 166 211.5 L 168 216 L 172 218.5 L 176 225 Q 178.7 223.9 178 226.5 L 186 233.5 L 186 235.5 L 190.5 240 Q 192.8 239.3 192 241.5 L 198 250 L 203 253.5 L 205.5 258 L 211 257 Q 209.9 254.3 212.5 255 L 224 249.5 Q 223.3 247.3 225.5 248 L 239 241.5 Q 238.3 239.3 240.5 240 L 252 235 Q 250.9 232.3 253.5 233 L 267 226.5 Q 266.3 224.3 268.5 225 L 281 220 L 282.5 217 L 293 213 Q 291.8 210 295.5 211 Q 300.6 206.3 308 205 Q 306.8 202 310.5 203 Q 314.6 198.6 321 198 Q 319.9 195.3 322.5 196 L 331.5 191 L 334 191 Q 332.9 188.3 335.5 189 L 346.5 183 L 349 183 Q 347.9 180.3 350.5 181 L 359.5 176 L 362 176 Q 360.9 173.3 363.5 174 L 374.5 168 L 377 168 Q 375.9 165.3 378.5 166 L 389 161 Q 387.8 158 391.5 159 L 399.5 155 L 400 167.5 L 386 174 Q 387.1 176.7 384.5 176 L 373 181 Q 374.1 183.7 371.5 183 L 358 189 Q 359.1 191.7 356.5 191 L 347.5 196 L 345 196 Q 346.1 198.7 343.5 198 L 333 203.5 Q 333.8 206.1 330.5 205 L 318 211.5 Q 318.8 214.1 315.5 213 L 305 218.5 Q 305.8 220.8 303.5 220 L 291 225 L 289.5 228 L 276 233 L 274.5 236 L 263 240 Q 264.1 242.7 261.5 242 L 259.5 244 L 248 248 Q 249.1 250.7 246.5 250 L 244.5 252 L 235 255 Q 236.1 257.7 233.5 257 Q 229.5 261.2 223 262 Q 224.3 265 220.5 264 L 215 267.5 L 220 275 L 224 277.5 L 227.5 282 Q 229.8 281.3 229 283.5 L 235.5 291 L 238 292.5 L 238 294.5 L 242.5 299 Q 244.8 298.3 244 300.5 L 250 309 L 255 312.5 L 257.5 317 L 263 321.5 L 264.5 325 L 270 329.5 L 272 334 L 276 336.5 L 279.5 341 Q 281.8 340.3 281 342.5 L 286.5 349 L 290 351.5 L 290 353.5 L 294.5 358 Q 296.8 357.3 296 359.5 L 301.5 366 Q 303.8 365.3 303 367.5 L 309.5 376 L 315 380.5 L 316.5 384 L 322 388.5 L 323 392 L 328 395.5 L 331 399.5 L 315 400 L 310.5 393 L 307 390.5 L 307 388.5 L 302.5 384 L 300 382.5 L 295.5 376 L 293 374.5 L 288 366 L 281 360.5 Q 282.1 357.2 279.5 358 L 274 351 Q 271.3 352.1 272 349.5 L 265.5 342 L 263 340.5 L 258.5 334 L 255 331.5 Q 255.5 326.5 251.5 326 L 247 322.5 L 243.5 317 L 241 315.5 L 236.5 309 Q 234.3 309.8 235 307.5 L 229 301.5 L 229 299 L 222 293.5 L 220 290.5 L 214.5 284 L 211 281.5 L 206.5 275 Q 204.3 275.8 205 273.5 L 199.5 267 L 195 263.5 L 191.5 258 L 189 256.5 L 184.5 250 Q 182.3 250.8 183 248.5 L 178 242 Q 175.3 243.1 176 240.5 L 170 233 Q 167.3 234.1 168 231.5 L 163 225 L 160 223.5 L 155.5 217 L 151 213.5 Q 151.5 208.5 147.5 208 L 143 204.5 Q 143.5 200.5 140.5 200 L 137 197.5 L 132.5 191 Q 130.3 191.8 131 189.5 L 126 183 Q 123.3 184.1 124 181.5 L 117 176 L 111 166 L 108 164.5 L 103.5 158 L 99 154.5 Q 99.5 149.5 95.5 149 L 91 145.5 Q 92 141.8 89 143 L 89 149.5 L 90 150.5 L 91 227.5 L 92 228.5 L 92 266.5 L 93 267.5 L 93 305.5 L 94 306.5 L 94 319 L 98 318 Q 96.3 326.9 102.5 329 Q 105.8 327.9 105 330.5 L 112 336.5 L 114.5 340 L 121 344.5 L 124.5 349 L 129 351.5 L 131.5 355 L 136 358.5 L 137.5 361 L 145 366.5 L 146.5 369 L 153 373.5 L 154.5 376 L 160.5 381 L 163 381 L 168.5 388 Q 170.8 387.3 170 389.5 L 178 395 L 181 399.5 L 164.5 400 L 160 396.5 L 155.5 391 L 152 390 L 147.5 384 L 145 382.5 L 143.5 380 L 136 374.5 L 132.5 370 Q 128.5 370.5 128 367.5 L 125.5 364 L 119 360 Q 120.1 357.3 117.5 358 L 110.5 350 L 104 345.5 Q 104.8 343.3 102.5 344 Q 99.7 338.8 94 338 L 91.5 334 L 89 332.5 L 87 329.5 L 85 325.5 L 85 324 L 83 323.5 L 83 303.5 L 82 302.5 L 82 264 L 80 263.5 L 80 224.5 L 79 223.5 L 79 185.5 L 78 184.5 L 78 146.5 L 77 145.5 L 77 128 L 85 127.5 L 84 125 L 89 124 L 90.5 121 L 101 117 L 102.5 114 L 115 108.5 Q 114.3 106.3 116.5 107 L 128 101.5 Q 127.3 99.3 129.5 100 L 141 95 Q 139.9 92.3 142.5 93 L 153.5 87 L 156 87 Q 154.9 84.3 157.5 85 L 168 80 Q 166.8 77 170.5 78 L 183 72 Q 181.8 69 185.5 70 L 196 65 Q 194.9 62.3 197.5 63 L 209 58 Q 207.9 55.3 210.5 56 L 224 50 Q 222.9 47.3 225.5 48 L 237 43 Q 235.9 40.3 238.5 41 Q 243.7 36 252 35 Q 250.9 32.3 253.5 33 Q 257.5 28.8 264 28 Q 262.8 25 266.5 26 Q 270.6 21.6 277 21 Q 275.9 18.3 278.5 19 L 292 13 L 293.5 10 L 305 6 L 306.5 3 L 313.5 0 Z "></path><path fill="rgb(187,0,255)" stroke="rgb(187,0,255)" stroke-width="1" opacity="0.996078431372549" d="M 374.5 0 L 393 0.5 L 329 38 L 325 29 L 374.5 0 Z "></path><path fill="rgb(187,0,255)" stroke="rgb(187,0,255)" stroke-width="1" opacity="0.996078431372549" d="M 273.5 56 L 276 57.5 L 279 65 L 149.5 130 L 145 121 L 273.5 56 Z "></path><path fill="rgb(187,0,255)" stroke="rgb(187,0,255)" stroke-width="1" opacity="0.996078431372549" d="M 105.5 179 L 172 250.5 L 165.5 257 L 154 245.5 L 99 185.5 L 105.5 179 Z "></path><path fill="rgb(187,0,255)" stroke="rgb(187,0,255)" stroke-width="1" opacity="0.996078431372549" d="M 221.5 316 L 297 398.5 L 297 400 L 284.5 400 L 284 398.5 L 216 324.5 L 215 321 L 221.5 316 Z "></path><path fill="rgb(0,115,241)" stroke="rgb(0,115,241)" stroke-width="1" opacity="0.27058823529411763" d="M 311.5 0 L 313 0.5 L 309.5 2 L 309.5 1 L 311.5 0 Z "></path><path fill="rgb(0,115,241)" stroke="rgb(0,115,241)" stroke-width="1" opacity="0.27058823529411763" d="M 333.5 2 L 332.5 4 L 330 4 Q 331.1 6.7 328.5 6 L 325.5 8 L 326.5 6 L 329.5 4 L 333.5 2 Z "></path><path fill="rgb(0,115,241)" stroke="rgb(0,115,241)" stroke-width="1" opacity="0.27058823529411763" d="M 305.5 3 L 305 4.5 Q 305.8 6.8 303.5 6 L 297.5 9 L 298.5 7 L 303 6 Q 301.9 3.3 304.5 4 L 305.5 3 Z "></path><path fill="rgb(0,115,241)" stroke="rgb(0,115,241)" stroke-width="1" opacity="0.27058823529411763" d="M 320.5 9 L 319.5 11 Q 316.9 10.3 318 13 L 315.5 13 L 312.5 15 L 313.5 13 Q 316.1 13.7 315 11 L 317.5 11 L 320.5 9 Z "></path><path fill="rgb(0,115,241)" stroke="rgb(0,115,241)" stroke-width="1" opacity="0.27058823529411763" d="M 292.5 10 L 292 11.5 Q 292.8 13.8 290.5 13 L 284.5 16 L 285.5 14 L 290 13 Q 288.9 10.3 291.5 11 L 292.5 10 Z "></path><path fill="rgb(0,115,241)" stroke="rgb(0,115,241)" stroke-width="1" opacity="0.27058823529411763" d="M 307.5 16 L 306.5 18 L 303 19 Q 304.3 22 300.5 21 L 299 21.5 L 300 19 L 307.5 16 Z "></path><path fill="rgb(0,115,241)" stroke="rgb(0,115,241)" stroke-width="1" opacity="0.27058823529411763" d="M 279.5 17 L 281 17.5 L 277 19 Q 278.1 21.7 275.5 21 L 271.5 23 L 272.5 21 L 275 21 Q 273.9 18.3 276.5 19 L 279.5 17 Z "></path><path fill="rgb(0,115,241)" stroke="rgb(0,115,241)" stroke-width="1" opacity="0.27058823529411763" d="M 294.5 23 L 296 23.5 L 290 26 Q 291.1 28.7 288.5 28 L 286.5 29 L 286.5 28 L 289.5 26 L 294.5 23 Z "></path><path fill="rgb(0,115,241)" stroke="rgb(0,115,241)" stroke-width="1" opacity="0.27058823529411763" d="M 267.5 24 L 266.5 26 L 264 26 Q 265.1 28.7 262.5 28 L 259.5 30 L 260.5 28 L 263.5 26 L 267.5 24 Z "></path><path fill="rgb(0,115,241)" stroke="rgb(0,115,241)" stroke-width="1" opacity="0.27058823529411763" d="M 282.5 30 L 281.5 32 L 277 33 Q 278.1 35.7 275.5 35 L 274 35.5 L 275 33 L 282.5 30 Z "></path><path fill="rgb(0,115,241)" stroke="rgb(0,115,241)" stroke-width="1" opacity="0.27058823529411763" d="M 254.5 31 L 253.5 33 Q 250.9 32.3 252 35 L 249.5 35 L 246.5 37 L 247.5 35 Q 250.1 35.7 249 33 L 251.5 33 L 254.5 31 Z "></path><path fill="rgb(0,115,241)" stroke="rgb(0,115,241)" stroke-width="1" opacity="0.27058823529411763" d="M 269.5 37 L 268.5 39 L 262 41 L 261.5 43 L 261 41.5 L 269.5 37 Z "></path><path fill="rgb(0,115,241)" stroke="rgb(0,115,241)" stroke-width="1" opacity="0.27058823529411763" d="M 241.5 38 L 240.5 40 L 237 41 Q 238.3 44 234.5 43 L 233 43.5 L 234 41 L 241.5 38 Z "></path><path fill="rgb(0,115,241)" stroke="rgb(0,115,241)" stroke-width="1" opacity="0.27058823529411763" d="M 256.5 44 L 255.5 46 L 249 48 L 248.5 50 L 248 48.5 L 256.5 44 Z "></path><path fill="rgb(0,115,241)" stroke="rgb(0,115,241)" stroke-width="1" opacity="0.27058823529411763" d="M 229.5 45 L 228.5 47 L 224 48 Q 225.1 50.7 222.5 50 L 220.5 51 L 220.5 50 L 223.5 48 L 229.5 45 Z "></path><path fill="rgb(0,115,241)" stroke="rgb(0,115,241)" stroke-width="1" opacity="0.27058823529411763" d="M 244.5 51 L 243.5 53 L 235.5 56 L 235.5 55 L 244.5 51 Z "></path><path fill="rgb(0,115,241)" stroke="rgb(0,115,241)" stroke-width="1" opacity="0.27058823529411763" d="M 216.5 52 L 215.5 54 L 209 56 L 208.5 58 L 208 56.5 L 216.5 52 Z "></path><path fill="rgb(0,115,241)" stroke="rgb(0,115,241)" stroke-width="1" opacity="0.27058823529411763" d="M 231.5 58 L 230.5 60 L 223.5 63 L 224.5 61 L 231.5 58 Z "></path><path fill="rgb(0,115,241)" stroke="rgb(0,115,241)" stroke-width="1" opacity="0.27058823529411763" d="M 203.5 59 L 202.5 61 L 196 63 L 195.5 65 L 195 63.5 L 203.5 59 Z "></path><path fill="rgb(0,115,241)" stroke="rgb(0,115,241)" stroke-width="1" opacity="0.27058823529411763" d="M 220 63 Q 223 62 222 65 Q 219 66 220 63 Z "></path><path fill="rgb(0,115,241)" stroke="rgb(0,115,241)" stroke-width="1" opacity="0.27058823529411763" d="M 218.5 65 L 217.5 67 L 210.5 70 L 211.5 68 L 218.5 65 Z "></path><path fill="rgb(0,115,241)" stroke="rgb(0,115,241)" stroke-width="1" opacity="0.27058823529411763" d="M 190.5 66 L 192 66.5 L 183 70 L 182.5 72 L 182 70.5 L 190.5 66 Z "></path><path fill="rgb(0,115,241)" stroke="rgb(0,115,241)" stroke-width="1" opacity="0.27058823529411763" d="M 205.5 72 L 207 72.5 L 197.5 77 L 198.5 75 L 205.5 72 Z "></path><path fill="rgb(0,115,241)" stroke="rgb(0,115,241)" stroke-width="1" opacity="0.27058823529411763" d="M 178.5 73 L 177.5 75 L 170.5 78 L 171.5 76 L 178.5 73 Z "></path><path fill="rgb(0,115,241)" stroke="rgb(0,115,241)" stroke-width="1" opacity="0.27058823529411763" d="M 193.5 78 L 194 79.5 L 185.5 84 L 186.5 82 L 193 80 L 193.5 78 Z "></path><path fill="rgb(0,115,241)" stroke="rgb(0,115,241)" stroke-width="1" opacity="0.27058823529411763" d="M 165.5 80 L 164.5 82 L 157.5 85 L 158.5 83 L 165.5 80 Z "></path><path fill="rgb(0,115,241)" stroke="rgb(0,115,241)" stroke-width="1" opacity="0.27058823529411763" d="M 154 85 Q 157 84 156 87 Q 153 88 154 85 Z "></path><path fill="rgb(0,115,241)" stroke="rgb(0,115,241)" stroke-width="1" opacity="0.27058823529411763" d="M 180.5 85 L 181 86.5 L 172.5 91 L 173.5 89 L 180 87 L 180.5 85 Z "></path><path fill="rgb(0,115,241)" stroke="rgb(0,115,241)" stroke-width="1" opacity="0.27058823529411763" d="M 152.5 87 L 151.5 89 L 144.5 92 L 145.5 90 L 152.5 87 Z "></path><path fill="rgb(0,115,241)" stroke="rgb(0,115,241)" stroke-width="1" opacity="0.27058823529411763" d="M 167.5 92 L 167 93.5 Q 167.8 95.8 165.5 95 L 159.5 98 L 160.5 96 L 165 95 Q 163.9 92.3 166.5 93 L 167.5 92 Z "></path><path fill="rgb(0,115,241)" stroke="rgb(0,115,241)" stroke-width="1" opacity="0.27058823529411763" d="M 139 93 Q 142 92 141 95 L 131.5 99 L 131.5 98 L 139 95 L 139 93 Z "></path><path fill="rgb(0,115,241)" stroke="rgb(0,115,241)" stroke-width="1" opacity="0.27058823529411763" d="M 154.5 99 L 156 99.5 L 154 100 Q 155.1 102.7 152.5 102 L 146.5 105 L 146.5 104 L 152 102 Q 150.9 99.3 153.5 100 L 154.5 99 Z "></path><path fill="rgb(0,115,241)" stroke="rgb(0,115,241)" stroke-width="1" opacity="0.27058823529411763" d="M 127.5 100 L 128 101.5 L 119.5 106 L 120.5 104 L 127 102 L 127.5 100 Z "></path><path fill="rgb(0,115,241)" stroke="rgb(0,115,241)" stroke-width="1" opacity="0.27058823529411763" d="M 142.5 106 L 142 107.5 Q 142.8 110.1 139.5 109 L 134.5 112 L 135.5 110 L 139 109 Q 137.8 106 141.5 107 L 142.5 106 Z "></path><path fill="rgb(0,115,241)" stroke="rgb(0,115,241)" stroke-width="1" opacity="0.27058823529411763" d="M 114.5 107 L 115 108.5 L 106.5 113 L 107.5 111 L 114 109 L 114.5 107 Z "></path><path fill="rgb(0,115,241)" stroke="rgb(0,115,241)" stroke-width="1" opacity="0.27058823529411763" d="M 129.5 113 L 128.5 115 Q 125.9 114.3 127 117 L 124.5 117 L 121.5 119 L 122.5 117 Q 125.1 117.7 124 115 L 126.5 115 L 129.5 113 Z "></path><path fill="rgb(0,115,241)" stroke="rgb(0,115,241)" stroke-width="1" opacity="0.27058823529411763" d="M 101.5 114 L 101 115.5 Q 101.8 117.8 99.5 117 L 93.5 120 L 94.5 118 L 99 117 Q 97.9 114.3 100.5 115 L 101.5 114 Z "></path><path fill="rgb(0,115,241)" stroke="rgb(0,115,241)" stroke-width="1" opacity="0.27058823529411763" d="M 116.5 120 L 115.5 122 L 112.5 124 L 108.5 126 L 109.5 124 L 112 124 Q 110.9 121.3 113.5 122 L 116.5 120 Z "></path><path fill="rgb(0,115,241)" stroke="rgb(0,115,241)" stroke-width="1" opacity="0.27058823529411763" d="M 89.5 121 L 89 122.5 Q 89.8 125.1 86.5 124 L 84 125 L 85 127.5 L 83 126.5 L 84.5 124 Q 87.1 124.7 86 122 L 88.5 122 L 89.5 121 Z "></path><path fill="rgb(0,115,241)" stroke="rgb(0,115,241)" stroke-width="1" opacity="0.27058823529411763" d="M 104.5 127 L 103.5 129 L 101 129 Q 102.1 131.7 99.5 131 L 97 132.5 L 102.5 140 L 108 144.5 L 107.5 146 L 103.5 141 L 100 138.5 L 96 132.5 L 99 131 Q 97.9 128.3 100.5 129 L 104.5 127 Z "></path><path fill="rgb(0,115,241)" stroke="rgb(0,115,241)" stroke-width="1" opacity="0.27058823529411763" d="M 89 143 Q 92 141.8 91 145.5 L 99 152.5 L 98.5 154 L 95.5 150 L 90.5 146 L 89.5 150 L 89 143 Z "></path><path fill="rgb(0,115,241)" stroke="rgb(0,115,241)" stroke-width="1" opacity="0.27058823529411763" d="M 77.5 146 L 78 165.5 L 77 165.5 L 77.5 146 Z "></path><path fill="rgb(0,115,241)" stroke="rgb(0,115,241)" stroke-width="1" opacity="0.27058823529411763" d="M 108.5 147 L 115 152.5 L 117 157 L 121 159.5 L 124.5 164 L 126 164.5 L 124.5 165 L 118.5 158 L 116 156.5 L 110.5 149 L 108.5 147 Z "></path><path fill="rgb(0,115,241)" stroke="rgb(0,115,241)" stroke-width="1" opacity="0.27058823529411763" d="M 399.5 154 L 398.5 156 L 390.5 159 L 390.5 158 L 399.5 154 Z "></path><path fill="rgb(0,115,241)" stroke="rgb(0,115,241)" stroke-width="1" opacity="0.27058823529411763" d="M 99.5 155 L 105 159.5 L 109.5 166 Q 111.8 165.3 111 167.5 L 115.5 173 L 109 168 L 104 159 Q 99.9 159.5 99.5 155 Z "></path><path fill="rgb(0,115,241)" stroke="rgb(0,115,241)" stroke-width="1" opacity="0.27058823529411763" d="M 384.5 162 L 383.5 164 L 377 166 Q 378 169 375 168 Q 373.9 165.3 376.5 166 L 384.5 162 Z "></path><path fill="rgb(0,115,241)" stroke="rgb(0,115,241)" stroke-width="1" opacity="0.27058823529411763" d="M 126.5 166 L 131.5 172 L 135 174.5 L 135 176.5 L 139.5 181 Q 141.8 180.3 141 182.5 L 146.5 189 Q 148.8 188.3 148 190.5 L 150.5 194 L 146 191 L 140.5 183 Q 138.3 183.8 139 181.5 L 132.5 173 L 126 167.5 L 126.5 166 Z "></path><path fill="rgb(0,115,241)" stroke="rgb(0,115,241)" stroke-width="1" opacity="0.27058823529411763" d="M 90.5 168 L 91 187.5 L 90 187.5 L 90.5 168 Z "></path><path fill="rgb(0,115,241)" stroke="rgb(0,115,241)" stroke-width="1" opacity="0.27058823529411763" d="M 399.5 168 L 398.5 170 L 393.5 172 L 394.5 170 L 399.5 168 Z "></path><path fill="rgb(0,115,241)" stroke="rgb(0,115,241)" stroke-width="1" opacity="0.27058823529411763" d="M 368.5 170 L 370 170.5 L 362 174 Q 363 177 360 176 Q 358.9 173.3 361.5 174 L 368.5 170 Z "></path><path fill="rgb(0,115,241)" stroke="rgb(0,115,241)" stroke-width="1" opacity="0.27058823529411763" d="M 116.5 174 L 117 176 L 124 181.5 L 126 184.5 L 131 191 L 134 192.5 L 132.5 192 L 130 190.5 L 125.5 185 Q 123.3 185.8 124 183.5 L 118.5 177 L 116 175.5 L 116.5 174 Z "></path><path fill="rgb(0,115,241)" stroke="rgb(0,115,241)" stroke-width="1" opacity="0.27058823529411763" d="M 386.5 174 L 387 175.5 L 378.5 180 L 379.5 178 L 386 176 L 386.5 174 Z "></path><path fill="rgb(0,115,241)" stroke="rgb(0,115,241)" stroke-width="1" opacity="0.27058823529411763" d="M 353.5 178 L 355 178.5 L 349 181 L 348.5 183 L 348 181.5 L 353.5 178 Z "></path><path fill="rgb(0,115,241)" stroke="rgb(0,115,241)" stroke-width="1" opacity="0.27058823529411763" d="M 371.5 183 L 370.5 185 L 363.5 188 L 364.5 186 L 371.5 183 Z "></path><path fill="rgb(0,115,241)" stroke="rgb(0,115,241)" stroke-width="1" opacity="0.27058823529411763" d="M 78.5 185 L 79 205.5 L 78 205.5 L 78.5 185 Z "></path><path fill="rgb(0,115,241)" stroke="rgb(0,115,241)" stroke-width="1" opacity="0.27058823529411763" d="M 341.5 185 L 340.5 187 L 334 189 L 333.5 191 L 333 189.5 L 341.5 185 Z "></path><path fill="rgb(0,115,241)" stroke="rgb(0,115,241)" stroke-width="1" opacity="0.27058823529411763" d="M 356.5 191 L 355.5 193 L 348.5 196 L 349.5 194 L 356.5 191 Z "></path><path fill="rgb(0,115,241)" stroke="rgb(0,115,241)" stroke-width="1" opacity="0.27058823529411763" d="M 326.5 193 L 325.5 195 L 321 196 Q 322.1 198.7 319.5 198 L 318 198.5 L 319 196 L 326.5 193 Z "></path><path fill="rgb(0,115,241)" stroke="rgb(0,115,241)" stroke-width="1" opacity="0.27058823529411763" d="M 134.5 194 L 139.5 200 L 143 202.5 Q 142.5 207.5 146.5 208 L 151 211.5 L 150.5 213 L 147.5 209 L 142 204.5 L 140.5 201 L 136 197.5 L 134.5 194 Z "></path><path fill="rgb(0,115,241)" stroke="rgb(0,115,241)" stroke-width="1" opacity="0.27058823529411763" d="M 151.5 195 L 154.5 199 L 160 203.5 L 161.5 207 L 167 211.5 L 168 213.5 L 166 212.5 L 162.5 208 L 159 205.5 Q 159.5 200.5 155.5 200 L 152 197.5 L 151.5 195 Z "></path><path fill="rgb(0,115,241)" stroke="rgb(0,115,241)" stroke-width="1" opacity="0.27058823529411763" d="M 341.5 199 L 340.5 201 L 334 203 L 333.5 205 L 333 203.5 L 341.5 199 Z "></path><path fill="rgb(0,115,241)" stroke="rgb(0,115,241)" stroke-width="1" opacity="0.27058823529411763" d="M 311.5 201 L 310.5 203 L 308 203 Q 309.1 205.7 306.5 205 L 303.5 207 L 304.5 205 L 307.5 203 L 311.5 201 Z "></path><path fill="rgb(0,115,241)" stroke="rgb(0,115,241)" stroke-width="1" opacity="0.27058823529411763" d="M 91.5 207 L 92 227.5 L 91 227.5 L 91.5 207 Z "></path><path fill="rgb(0,115,241)" stroke="rgb(0,115,241)" stroke-width="1" opacity="0.27058823529411763" d="M 326.5 207 L 325.5 209 L 319 211 L 318.5 213 L 318 211.5 L 326.5 207 Z "></path><path fill="rgb(0,115,241)" stroke="rgb(0,115,241)" stroke-width="1" opacity="0.27058823529411763" d="M 296.5 209 L 295.5 211 L 293 211 Q 294.1 213.7 291.5 213 L 288.5 215 L 289.5 213 L 292.5 211 L 296.5 209 Z "></path><path fill="rgb(0,115,241)" stroke="rgb(0,115,241)" stroke-width="1" opacity="0.27058823529411763" d="M 151.5 214 L 157 218.5 L 161.5 225 Q 163.8 224.3 163 226.5 L 167.5 232 L 161 227 L 156 218 Q 151.9 218.5 151.5 214 Z "></path><path fill="rgb(0,115,241)" stroke="rgb(0,115,241)" stroke-width="1" opacity="0.27058823529411763" d="M 168.5 215 L 173 218.5 L 176.5 223 Q 178.8 222.3 178 224.5 L 183.5 231 L 186 232.5 L 184.5 232 L 178 226.5 L 176 223.5 L 169.5 216 L 168.5 215 Z "></path><path fill="rgb(0,115,241)" stroke="rgb(0,115,241)" stroke-width="1" opacity="0.27058823529411763" d="M 311.5 215 L 310.5 217 L 306 218 L 305.5 220 L 305 218.5 L 311.5 215 Z "></path><path fill="rgb(0,115,241)" stroke="rgb(0,115,241)" stroke-width="1" opacity="0.27058823529411763" d="M 281.5 217 L 281 218.5 Q 281.8 221.1 278.5 220 L 272.5 223 L 272.5 222 L 278 220 Q 276.8 217 280.5 218 L 281.5 217 Z "></path><path fill="rgb(0,115,241)" stroke="rgb(0,115,241)" stroke-width="1" opacity="0.27058823529411763" d="M 298.5 222 L 297.5 224 L 293 225 Q 294.1 227.7 291.5 227 L 290 227.5 L 291 225 L 298.5 222 Z "></path><path fill="rgb(0,115,241)" stroke="rgb(0,115,241)" stroke-width="1" opacity="0.27058823529411763" d="M 79.5 224 L 80 244.5 L 79 244.5 L 79.5 224 Z "></path><path fill="rgb(0,115,241)" stroke="rgb(0,115,241)" stroke-width="1" opacity="0.27058823529411763" d="M 266.5 225 L 267 226.5 L 260.5 230 L 261.5 228 L 266 227 L 266.5 225 Z "></path><path fill="rgb(0,115,241)" stroke="rgb(0,115,241)" stroke-width="1" opacity="0.27058823529411763" d="M 283.5 230 L 282.5 232 L 278 233 Q 279.1 235.7 276.5 235 L 275 235.5 L 276 233 L 283.5 230 Z "></path><path fill="rgb(0,115,241)" stroke="rgb(0,115,241)" stroke-width="1" opacity="0.27058823529411763" d="M 168 233 Q 170.7 231.9 170 234.5 L 176 242 Q 178.7 240.9 178 243.5 L 183 250 L 186 251.5 L 190.5 258 L 194 260.5 L 191.5 259 L 188 256.5 L 185 251 L 182 249.5 L 177.5 244 Q 175.3 244.8 176 242.5 L 169.5 235 Q 166.9 235.7 168 233 Z "></path><path fill="rgb(0,115,241)" stroke="rgb(0,115,241)" stroke-width="1" opacity="0.27058823529411763" d="M 250 233 Q 253 232 252 235 L 245.5 238 L 246.5 236 L 250 235 L 250 233 Z "></path><path fill="rgb(0,115,241)" stroke="rgb(0,115,241)" stroke-width="1" opacity="0.27058823529411763" d="M 186.5 235 L 193 240.5 L 198.5 248 Q 200.8 247.3 200 249.5 L 202.5 253 L 198 250 L 192 240 L 190.5 240 L 186.5 235 Z "></path><path fill="rgb(0,115,241)" stroke="rgb(0,115,241)" stroke-width="1" opacity="0.27058823529411763" d="M 268.5 238 L 267.5 240 Q 264.9 239.3 266 242 L 263.5 242 L 260.5 244 L 261.5 242 Q 264.1 242.7 263 240 L 265.5 240 L 268.5 238 Z "></path><path fill="rgb(0,115,241)" stroke="rgb(0,115,241)" stroke-width="1" opacity="0.27058823529411763" d="M 238.5 240 L 239 241.5 L 230.5 246 L 231.5 244 L 238 242 L 238.5 240 Z "></path><path fill="rgb(0,115,241)" stroke="rgb(0,115,241)" stroke-width="1" opacity="0.27058823529411763" d="M 92.5 246 L 93 266.5 L 92 266.5 L 92.5 246 Z "></path><path fill="rgb(0,115,241)" stroke="rgb(0,115,241)" stroke-width="1" opacity="0.27058823529411763" d="M 253.5 246 L 252.5 248 L 250 248 Q 251.1 250.7 248.5 250 L 245.5 252 L 246.5 250 L 249.5 248 L 253.5 246 Z "></path><path fill="rgb(0,115,241)" stroke="rgb(0,115,241)" stroke-width="1" opacity="0.27058823529411763" d="M 223.5 248 L 224 249.5 L 215.5 254 L 216.5 252 L 223 250 L 223.5 248 Z "></path><path fill="rgb(0,115,241)" stroke="rgb(0,115,241)" stroke-width="1" opacity="0.27058823529411763" d="M 203.5 254 L 205 257 L 207 257.5 L 205.5 258 L 203.5 254 Z "></path><path fill="rgb(0,115,241)" stroke="rgb(0,115,241)" stroke-width="1" opacity="0.27058823529411763" d="M 238.5 254 L 238 255.5 Q 238.8 258.1 235.5 257 L 230.5 260 L 231.5 258 L 235 257 Q 233.8 254 237.5 255 L 238.5 254 Z "></path><path fill="rgb(0,115,241)" stroke="rgb(0,115,241)" stroke-width="1" opacity="0.27058823529411763" d="M 194.5 262 L 198.5 267 L 203 270.5 L 205 275 L 209 277.5 L 211 280.5 L 208 278.5 L 206.5 276 L 204 274.5 L 199.5 268 L 194 263.5 L 194.5 262 Z "></path><path fill="rgb(0,115,241)" stroke="rgb(0,115,241)" stroke-width="1" opacity="0.27058823529411763" d="M 223.5 262 L 224 263.5 L 217.5 267 L 218.5 265 L 223 264 L 223.5 262 Z "></path><path fill="rgb(0,115,241)" stroke="rgb(0,115,241)" stroke-width="1" opacity="0.27058823529411763" d="M 80 264 L 82 264.5 L 82 284 L 80 283.5 L 80 264 Z "></path><path fill="rgb(0,115,241)" stroke="rgb(0,115,241)" stroke-width="1" opacity="0.27058823529411763" d="M 215.5 267 L 220 272.5 L 218 271.5 L 215.5 267 Z "></path><path fill="rgb(0,115,241)" stroke="rgb(0,115,241)" stroke-width="1" opacity="0.27058823529411763" d="M 220.5 274 L 225 277.5 L 227.5 281 L 230 282.5 L 235.5 290 L 238 291.5 L 236.5 291 L 231 286.5 L 229 282 L 224 278.5 L 221.5 275 L 220.5 274 Z "></path><path fill="rgb(0,115,241)" stroke="rgb(0,115,241)" stroke-width="1" opacity="0.27058823529411763" d="M 211.5 282 L 216 285.5 L 220 292 Q 222.7 290.9 222 293.5 L 229 299 Q 230 302 227 301 L 221.5 294 Q 219.3 294.8 220 292.5 L 215 285 L 211.5 282 Z "></path><path fill="rgb(0,115,241)" stroke="rgb(0,115,241)" stroke-width="1" opacity="0.27058823529411763" d="M 93.5 285 L 94 305.5 L 93 305.5 L 93.5 285 Z "></path><path fill="rgb(0,115,241)" stroke="rgb(0,115,241)" stroke-width="1" opacity="0.27058823529411763" d="M 238.5 294 L 245 299.5 L 250.5 307 Q 252.8 306.3 252 308.5 L 254.5 312 L 250 309 L 244 299 L 242.5 299 L 238.5 294 Z "></path><path fill="rgb(0,115,241)" stroke="rgb(0,115,241)" stroke-width="1" opacity="0.27058823529411763" d="M 229.5 302 L 235 309 L 238 310.5 L 242.5 317 L 246 319.5 L 243.5 318 L 240 315.5 L 237 310 L 234 308.5 L 229.5 302 Z "></path><path fill="rgb(0,115,241)" stroke="rgb(0,115,241)" stroke-width="1" opacity="0.27058823529411763" d="M 82.5 303 L 83 324 Q 85.7 322.9 85 325.5 L 87 329.5 Q 86.3 331.8 88.5 331 L 88.5 332 L 86 330.5 L 84 327.5 L 85 326.5 L 82 323.5 L 82.5 303 Z "></path><path fill="rgb(0,115,241)" stroke="rgb(0,115,241)" stroke-width="1" opacity="0.27058823529411763" d="M 255.5 313 L 257 316 L 264 321.5 Q 262.9 324.8 265.5 324 L 272 331.5 L 270 330.5 L 265.5 325 L 263 323.5 L 263 321.5 L 258.5 317 L 256 315.5 L 255.5 313 Z "></path><path fill="rgb(0,115,241)" stroke="rgb(0,115,241)" stroke-width="1" opacity="0.27058823529411763" d="M 98.5 316 L 100 316.5 L 98.5 323 L 97 317.5 L 98.5 316 Z "></path><path fill="rgb(0,115,241)" stroke="rgb(0,115,241)" stroke-width="1" opacity="0.27058823529411763" d="M 116.5 316 L 118.5 319 L 116.5 316 Z "></path><path fill="rgb(0,115,241)" stroke="rgb(0,115,241)" stroke-width="1" opacity="0.27058823529411763" d="M 135.5 318 L 136.5 320 L 135.5 318 Z "></path><path fill="rgb(0,115,241)" stroke="rgb(0,115,241)" stroke-width="1" opacity="0.27058823529411763" d="M 246.5 321 L 250.5 326 L 255 329.5 Q 254.5 333.5 257.5 334 L 261 336.5 L 263 339.5 L 260 337.5 L 258.5 335 L 254 331.5 Q 254.5 327.5 251.5 327 L 246 322.5 L 246.5 321 Z "></path><path fill="rgb(0,115,241)" stroke="rgb(0,115,241)" stroke-width="1" opacity="0.27058823529411763" d="M 98.5 324 L 104 328.5 L 102.5 329 L 98.5 324 Z "></path><path fill="rgb(0,115,241)" stroke="rgb(0,115,241)" stroke-width="1" opacity="0.27058823529411763" d="M 105.5 329 L 109.5 334 L 113 336.5 L 115 339.5 L 112 337.5 L 110.5 335 L 105 330.5 L 105.5 329 Z "></path><path fill="rgb(0,115,241)" stroke="rgb(0,115,241)" stroke-width="1" opacity="0.27058823529411763" d="M 89.5 333 L 94 336.5 Q 93.3 338.8 95.5 338 L 95.5 339 L 93 337.5 L 91.5 335 L 89.5 333 Z "></path><path fill="rgb(0,115,241)" stroke="rgb(0,115,241)" stroke-width="1" opacity="0.27058823529411763" d="M 272.5 333 L 277 336.5 L 279.5 340 L 282 341.5 L 286.5 348 L 290 350.5 L 287.5 349 L 283 345.5 L 281 341 L 276 337.5 L 273.5 334 L 272.5 333 Z "></path><path fill="rgb(0,115,241)" stroke="rgb(0,115,241)" stroke-width="1" opacity="0.27058823529411763" d="M 141.5 338 L 143.5 341 L 141.5 338 Z "></path><path fill="rgb(0,115,241)" stroke="rgb(0,115,241)" stroke-width="1" opacity="0.27058823529411763" d="M 97.5 339 L 104 344 L 107 348.5 L 103.5 346 Q 101.3 346.8 102 344.5 L 97.5 339 Z "></path><path fill="rgb(0,115,241)" stroke="rgb(0,115,241)" stroke-width="1" opacity="0.27058823529411763" d="M 116.5 340 L 122 344.5 L 124.5 348 L 127 349.5 L 125.5 349 L 121 345.5 L 118.5 342 L 116.5 340 Z "></path><path fill="rgb(0,115,241)" stroke="rgb(0,115,241)" stroke-width="1" opacity="0.27058823529411763" d="M 160.5 340 L 161.5 342 L 160.5 340 Z "></path><path fill="rgb(0,115,241)" stroke="rgb(0,115,241)" stroke-width="1" opacity="0.27058823529411763" d="M 263.5 341 L 268 344.5 L 272 351 Q 274.7 349.9 274 352.5 L 281 358 Q 282 361 279 360 L 273.5 353 Q 271.3 353.8 272 351.5 L 265.5 343 L 263.5 341 Z "></path><path fill="rgb(0,115,241)" stroke="rgb(0,115,241)" stroke-width="1" opacity="0.27058823529411763" d="M 108.5 349 L 112 351.5 L 117.5 358 Q 120.1 357.3 119 360 Q 116.3 361.1 117 358.5 L 111 351 L 108.5 349 Z "></path><path fill="rgb(0,115,241)" stroke="rgb(0,115,241)" stroke-width="1" opacity="0.27058823529411763" d="M 128.5 350 L 131.5 354 L 137 358.5 L 138 360.5 L 136 359.5 L 132.5 355 L 129 352.5 L 128.5 350 Z "></path><path fill="rgb(0,115,241)" stroke="rgb(0,115,241)" stroke-width="1" opacity="0.27058823529411763" d="M 290.5 353 L 297 358.5 L 298 360.5 L 296 359.5 Q 296.8 357.3 294.5 358 L 290.5 353 Z "></path><path fill="rgb(0,115,241)" stroke="rgb(0,115,241)" stroke-width="1" opacity="0.27058823529411763" d="M 120.5 360 L 128 366.5 L 130 369.5 L 127 367.5 L 125.5 365 L 120.5 360 Z "></path><path fill="rgb(0,115,241)" stroke="rgb(0,115,241)" stroke-width="1" opacity="0.27058823529411763" d="M 139.5 361 L 146 366.5 Q 145.3 368.8 147.5 368 L 154 373.5 Q 153.3 375.8 155.5 375 L 164 381.5 L 168.5 387 L 171 388.5 L 172.5 391 L 179 395.5 L 182 399.5 L 178 396.5 Q 178.8 394.3 176.5 395 L 170 389.5 Q 170.8 387.3 168.5 388 L 163 381 L 160.5 381 L 153 374.5 L 150.5 371 L 145 367.5 L 140.5 362 L 139.5 361 Z "></path><path fill="rgb(0,115,241)" stroke="rgb(0,115,241)" stroke-width="1" opacity="0.27058823529411763" d="M 281.5 361 L 288 366 L 294.5 376 L 298 378.5 L 295.5 377 L 292 374.5 L 287.5 368 Q 285.3 368.8 286 366.5 L 281.5 361 Z "></path><path fill="rgb(0,115,241)" stroke="rgb(0,115,241)" stroke-width="1" opacity="0.27058823529411763" d="M 298.5 362 L 304 366.5 L 309 375 L 315 379.5 L 310.5 376 L 308 374.5 L 303 366 Q 298.9 366.5 298.5 362 Z "></path><path fill="rgb(0,115,241)" stroke="rgb(0,115,241)" stroke-width="1" opacity="0.27058823529411763" d="M 131.5 370 L 136 373.5 L 139.5 378 L 142 379.5 L 140.5 379 L 135 374.5 L 132.5 371 L 131.5 370 Z "></path><path fill="rgb(0,115,241)" stroke="rgb(0,115,241)" stroke-width="1" opacity="0.27058823529411763" d="M 189.5 372 L 190.5 374 L 189.5 372 Z "></path><path fill="rgb(0,115,241)" stroke="rgb(0,115,241)" stroke-width="1" opacity="0.27058823529411763" d="M 143.5 380 L 146.5 384 L 152 388.5 Q 151.3 390.8 153.5 390 L 160 395.5 L 161.5 398 L 164 399.5 L 162.5 399 L 159 396.5 L 155.5 392 L 151 389.5 L 147.5 385 L 144 382.5 L 143.5 380 Z "></path><path fill="rgb(0,115,241)" stroke="rgb(0,115,241)" stroke-width="1" opacity="0.27058823529411763" d="M 298.5 380 L 301.5 384 L 307 388.5 Q 306.5 392.5 309.5 393 L 313 395.5 L 315 398.5 L 312 396.5 L 310.5 394 L 306 390.5 Q 306.5 385.5 302.5 385 L 299 382.5 L 298.5 380 Z "></path><path fill="rgb(0,115,241)" stroke="rgb(0,115,241)" stroke-width="1" opacity="0.27058823529411763" d="M 315.5 381 L 316 383 L 323 388.5 L 325 391.5 L 331.5 399 L 333 399.5 L 331.5 400 L 324.5 392 Q 322.3 392.8 323 390.5 L 317.5 384 L 315 382.5 L 315.5 381 Z "></path></svg>