<svg width="400" height="400" version="1.1" xmlns="http://www.w3.org/2000/svg" desc="Created with imagetracer.js version 1.2.5"><path fill="rgb(0,0,0)" stroke="rgb(0,0,0)" stroke-width="1" opacity="0" d="M 0 0 L 244 0.5 L 238.5 4 L 202 37.5 L 189.5 52 L 55.5 183 Q 41.8 190.8 32 202.5 Q 18.7 217.2 11 237.5 L 5 261.5 L 4 280.5 L 5 281.5 L 5 291.5 L 8 305.5 L 13 320.5 L 19 331.5 L 19 335.5 L 19 337.5 L 19 345.5 L 22 355.5 L 30.5 370 L 36 372 L 36 374 L 39 374 Q 37.5 377.7 40.5 377 L 42.5 377 L 57.5 383 L 59.5 382 L 63.5 384 L 67.5 383 L 69.5 384 L 73.5 383 L 76 384 L 76.5 382 L 101.5 388 L 120.5 389 L 121.5 388 L 131.5 388 L 152.5 383 L 180.5 369 L 182.5 369 L 186.5 368 Q 188 370.5 189.5 367 L 191.5 367 L 205 357 L 208.5 352 Q 210.8 352.8 210 350.5 L 215 347 L 219.5 341 Q 221.8 341.8 221 339.5 L 226 336 L 228.5 332 L 231 330.5 Q 230.3 328.3 232.5 329 L 240.5 320 Q 242.8 320.8 242 318.5 L 247 315 L 250.5 310 Q 252.8 310.8 252 308.5 L 258 304 L 258 302 Q 261.7 303.5 261 300.5 L 266 296.5 L 269.5 291 L 272.5 289 L 276 287 L 276 285 Q 278.7 286.1 278 283.5 L 280.5 280 L 283.5 278 L 287 276 L 288 272 Q 290.7 273.1 290 270.5 Q 292.3 266.4 297 266 Q 295.5 262.2 298.5 263 L 301.5 259 L 304.5 257 L 308 255 L 309.5 251 Q 311.8 251.8 311 249.5 Q 313.3 245.4 318 245 Q 316.5 241.3 319.5 242 L 325.5 235 L 328 233.5 L 330.5 230 Q 332.8 230.8 332 228.5 L 335 227 Q 333.9 224.3 336.5 225 L 341 221.5 L 343.5 218 Q 347.5 218.5 348 215.5 Q 347.3 213.3 349.5 214 Q 352.5 207.9 359 207 L 359.5 205 Q 361 207.5 362.5 204 L 365.5 202 L 377 195 L 377 193 L 379 193 Q 377.9 190.3 380.5 191 L 385 188 L 385 186 Q 387.7 187.1 387 184.5 L 393 178.5 L 399.5 161 L 400 400 L 0 400 L 0 0 Z M 222 5 L 222 6 L 224 6 L 222 5 Z "></path><path fill="rgb(0,0,0)" stroke="rgb(0,0,0)" stroke-width="1" opacity="0" d="M 260.5 0 L 271 0.5 L 264.5 2 L 260.5 1 L 260.5 0 Z "></path><path fill="rgb(0,0,0)" stroke="rgb(0,0,0)" stroke-width="1" opacity="0" d="M 302.5 0 L 311 0.5 L 307.5 2 L 302.5 1 L 302.5 0 Z "></path><path fill="rgb(0,0,0)" stroke="rgb(0,0,0)" stroke-width="1" opacity="0" d="M 345.5 0 L 400 0 L 400 72.5 L 399 72.5 L 398 63.5 L 396 61.5 L 390 43 Q 387.3 44.1 388 41.5 L 385 34 Q 382.3 35.1 383 32.5 L 374 18 L 368 14.5 Q 368.8 12.3 366.5 13 L 362 11 L 362 9 L 360 9 Q 361.1 6.3 358.5 7 L 354 6 L 354 4 L 350 4 Q 351.3 1 347.5 2 L 345.5 0 Z "></path><path fill="rgb(5,5,5)" stroke="rgb(5,5,5)" stroke-width="1" opacity="0.27450980392156865" d="M 228.5 14 L 231 14.5 L 225.5 18 L 228.5 14 Z "></path><path fill="rgb(5,5,5)" stroke="rgb(5,5,5)" stroke-width="1" opacity="0.27450980392156865" d="M 257.5 42 L 217.5 83 L 218 81.5 Q 223.7 66.7 234.5 57 Q 244.1 47.6 257.5 42 Z "></path><path fill="rgb(5,5,5)" stroke="rgb(5,5,5)" stroke-width="1" opacity="0.27450980392156865" d="M 194.5 47 L 183.5 59 L 194.5 47 Z "></path><path fill="rgb(5,5,5)" stroke="rgb(5,5,5)" stroke-width="1" opacity="0.27450980392156865" d="M 160.5 80 L 135.5 106 L 160.5 80 Z "></path><path fill="rgb(5,5,5)" stroke="rgb(5,5,5)" stroke-width="1" opacity="0.27450980392156865" d="M 176.5 88 L 177 90.5 L 175 97.5 L 175 125.5 L 134.5 166 Q 127.4 163.6 116.5 165 L 114.5 164 L 113.5 165 L 101.5 165 L 99 166 L 101 161.5 L 149.5 113 L 152.5 111 L 176.5 88 Z "></path><path fill="rgb(5,5,5)" stroke="rgb(5,5,5)" stroke-width="1" opacity="0.27450980392156865" d="M 398.5 108 L 399 114.5 L 398 114.5 L 398.5 108 Z "></path><path fill="rgb(5,5,5)" stroke="rgb(5,5,5)" stroke-width="1" opacity="0.27450980392156865" d="M 111.5 128 L 87.5 153 L 111.5 128 Z "></path><path fill="rgb(5,5,5)" stroke="rgb(5,5,5)" stroke-width="1" opacity="0.27450980392156865" d="M 61.5 177 L 57.5 182 L 61.5 177 Z "></path><path fill="rgb(5,5,5)" stroke="rgb(5,5,5)" stroke-width="1" opacity="0.27450980392156865" d="M 370.5 185 L 369.5 187 L 370.5 185 Z "></path><path fill="rgb(5,5,5)" stroke="rgb(5,5,5)" stroke-width="1" opacity="0.27450980392156865" d="M 361.5 194 L 360.5 196 L 361.5 194 Z "></path><path fill="rgb(5,5,5)" stroke="rgb(5,5,5)" stroke-width="1" opacity="0.27450980392156865" d="M 342.5 208 L 329.5 222 Q 327.3 221.3 328 223.5 L 317 233.5 Q 317.8 235.8 315.5 235 L 311 241 L 307 243.5 Q 307.8 245.8 305.5 245 L 304 248 L 302.5 248 L 267 283.5 Q 267.8 285.8 265.5 285 L 253 297.5 L 253 299 L 251 299 Q 252.1 301.7 249.5 301 Q 232.1 321.6 210.5 338 L 335.5 212 L 342.5 208 Z "></path><path fill="rgb(5,5,5)" stroke="rgb(5,5,5)" stroke-width="1" opacity="0.27450980392156865" d="M 4.5 274 L 5 278.5 L 4 278.5 L 4.5 274 Z "></path><path fill="rgb(5,5,5)" stroke="rgb(5,5,5)" stroke-width="1" opacity="0.27450980392156865" d="M 32.5 350 L 33.5 352 L 32.5 350 Z "></path><path fill="rgb(5,5,5)" stroke="rgb(5,5,5)" stroke-width="1" opacity="0.27450980392156865" d="M 200.5 350 L 199.5 352 L 200.5 350 Z "></path><path fill="rgb(5,5,5)" stroke="rgb(5,5,5)" stroke-width="1" opacity="0.27450980392156865" d="M 41.5 359 L 42.5 361 L 41.5 359 Z "></path><path fill="rgb(5,5,5)" stroke="rgb(5,5,5)" stroke-width="1" opacity="0.27450980392156865" d="M 191.5 359 L 190.5 361 L 191.5 359 Z "></path><path fill="rgb(5,5,5)" stroke="rgb(5,5,5)" stroke-width="1" opacity="0.27450980392156865" d="M 115.5 388 L 118 388.5 L 115.5 389 L 115.5 388 Z "></path><path fill="rgb(0,99,149)" stroke="rgb(0,99,149)" stroke-width="1" opacity="0.6470588235294118" d="M 361.5 28 L 363.5 31 L 361.5 28 Z "></path><path fill="rgb(0,99,149)" stroke="rgb(0,99,149)" stroke-width="1" opacity="0.6470588235294118" d="M 367.5 34 L 369.5 37 L 367.5 34 Z "></path><path fill="rgb(0,99,149)" stroke="rgb(0,99,149)" stroke-width="1" opacity="0.6470588235294118" d="M 281.5 36 L 293 36.5 L 281.5 37 L 281.5 36 Z "></path><path fill="rgb(0,99,149)" stroke="rgb(0,99,149)" stroke-width="1" opacity="0.6470588235294118" d="M 272.5 37 L 274 37.5 L 270 40.5 L 270.5 43 L 272.5 42 L 271 44.5 Q 269.7 52.7 265 57.5 L 250.5 72 L 244 76 Q 245.1 78.7 242.5 78 L 212.5 104 L 212 97.5 L 217 83.5 L 228.5 72 L 236 65.5 Q 235.3 63.3 237.5 64 L 255.5 45 Q 260.3 39.8 268.5 38 L 269.5 40 L 272.5 37 Z "></path><path fill="rgb(0,99,149)" stroke="rgb(0,99,149)" stroke-width="1" opacity="0.6470588235294118" d="M 341.5 60 L 343.5 63 L 341.5 60 Z "></path><path fill="rgb(0,99,149)" stroke="rgb(0,99,149)" stroke-width="1" opacity="0.6470588235294118" d="M 346.5 66 L 347.5 68 L 346.5 66 Z "></path><path fill="rgb(0,99,149)" stroke="rgb(0,99,149)" stroke-width="1" opacity="0.6470588235294118" d="M 211.5 106 L 212 116.5 L 211 116.5 L 211.5 106 Z "></path><path fill="rgb(0,99,149)" stroke="rgb(0,99,149)" stroke-width="1" opacity="0.6470588235294118" d="M 361.5 106 L 362 114.5 L 360 127 L 355.5 128 L 353.5 128 Q 339.3 133.8 331 145.5 L 326.5 151 L 324 152.5 Q 324.8 154.8 322.5 154 L 284.5 186 L 273.5 186 L 267 183.5 L 273 180 Q 271.9 177.3 274.5 178 L 278 176 Q 276.9 173.3 279.5 174 Q 312 148 340.5 118 Q 348.3 111.5 361 111 L 361.5 106 Z "></path><path fill="rgb(0,99,149)" stroke="rgb(0,99,149)" stroke-width="1" opacity="0.6470588235294118" d="M 174.5 126 Q 177.9 125.1 176 130.5 L 177 133.5 L 147 158.5 L 147 160 L 145 160 Q 146.1 162.7 143.5 162 L 140.5 166 L 138 165.5 L 139 163.5 L 135 165.5 L 174.5 126 Z "></path><path fill="rgb(0,99,149)" stroke="rgb(0,99,149)" stroke-width="1" opacity="0.6470588235294118" d="M 235.5 166 L 237.5 169 L 235.5 166 Z "></path><path fill="rgb(0,99,149)" stroke="rgb(0,99,149)" stroke-width="1" opacity="0.6470588235294118" d="M 241.5 171 L 242.5 173 L 241.5 171 Z "></path><path fill="rgb(0,99,149)" stroke="rgb(0,99,149)" stroke-width="1" opacity="0.6470588235294118" d="M 195.5 176 L 196.5 178 L 195.5 176 Z "></path><path fill="rgb(0,99,149)" stroke="rgb(0,99,149)" stroke-width="1" opacity="0.6470588235294118" d="M 198.5 180 L 199.5 182 L 198.5 180 Z "></path><path fill="rgb(0,99,149)" stroke="rgb(0,99,149)" stroke-width="1" opacity="0.6470588235294118" d="M 206.5 189 L 211.5 195 L 206.5 189 Z "></path><path fill="rgb(0,99,149)" stroke="rgb(0,99,149)" stroke-width="1" opacity="0.6470588235294118" d="M 220.5 201 L 221.5 203 L 220.5 201 Z "></path><path fill="rgb(0,99,149)" stroke="rgb(0,99,149)" stroke-width="1" opacity="0.6470588235294118" d="M 232.5 209 L 247 216 L 241.5 223 L 239 224.5 Q 239.8 226.8 237.5 226 L 228 234 L 225.5 238 Q 222.9 237.3 224 240 L 222 240 Q 220.3 229.6 214 222.5 L 228.5 212 L 232 211 L 232.5 209 Z "></path><path fill="rgb(0,99,149)" stroke="rgb(0,99,149)" stroke-width="1" opacity="0.6470588235294118" d="M 331.5 214 L 224 322.5 Q 224.8 324.8 222.5 324 L 212.5 335 L 213 333.5 L 219.5 323 L 223.5 321 L 243.5 301 L 245 301 L 246.5 298 L 250 295.5 L 252.5 292 L 331.5 214 Z "></path><path fill="rgb(0,99,149)" stroke="rgb(0,99,149)" stroke-width="1" opacity="0.6470588235294118" d="M 249.5 217 L 252 218.5 L 235.5 234 L 234 234 L 234 235.5 L 224.5 245 L 223 243.5 L 249.5 217 Z "></path><path fill="rgb(0,144,219)" stroke="rgb(0,144,219)" stroke-width="1" opacity="0.49019607843137253" d="M 312.5 0 L 334.5 0 L 338.5 1 L 340.5 0 L 340.5 1 L 339 1.5 Q 352.2 6.3 362.5 14 L 376 27.5 L 388.5 48 L 389 45.5 L 382 32.5 L 371 18 L 361.5 11 L 342 0.5 L 344.5 0 L 350 2 L 350 4 Q 355.3 2.7 354.5 6 L 357.5 6 L 360 7 L 360 9 L 362 9 Q 360.9 11.7 363.5 11 L 368 13 L 370.5 17 L 374 18 L 375 21.5 L 382 29.5 L 383 34 Q 385.7 32.9 385 35.5 L 388 43 Q 391 41.8 390 45.5 L 395 57.5 L 393 57.5 Q 392.5 63 395.5 65 L 396 62.5 L 395 59.5 L 396 59.5 L 399 69.5 L 397 69.5 L 400 83.5 L 400 105 L 398 104.5 L 398 96.5 L 392 72.5 L 384 55.5 Q 374.3 39.2 360.5 27 Q 340.6 8.9 310 1.5 L 312.5 0 Z M 390 48 L 391 56 L 393 57 Q 393 51 390 48 Z M 397 65 L 395 67 L 396 69 L 397 69 L 397 65 Z "></path><path fill="rgb(0,144,219)" stroke="rgb(0,144,219)" stroke-width="1" opacity="0.49019607843137253" d="M 329.5 51 Q 335.6 52.4 338 57.5 L 232.5 163 L 227 157.5 L 226 154.5 L 329.5 51 Z "></path><path fill="rgb(0,144,219)" stroke="rgb(0,144,219)" stroke-width="1" opacity="0.49019607843137253" d="M 398 106 Q 401 105 400 108 Q 397 109 398 106 Z "></path><path fill="rgb(0,144,219)" stroke="rgb(0,144,219)" stroke-width="1" opacity="0.49019607843137253" d="M 173.5 179 L 174.5 181 L 173.5 179 Z "></path><path fill="rgb(0,144,219)" stroke="rgb(0,144,219)" stroke-width="1" opacity="0.49019607843137253" d="M 176.5 181 L 177.5 183 L 176.5 181 Z "></path><path fill="rgb(0,144,219)" stroke="rgb(0,144,219)" stroke-width="1" opacity="0.49019607843137253" d="M 198.5 182 L 202 184.5 L 206 189.5 L 196.5 198 L 189 191.5 L 198.5 182 Z "></path><path fill="rgb(0,144,219)" stroke="rgb(0,144,219)" stroke-width="1" opacity="0.49019607843137253" d="M 211.5 195 L 220 201.5 L 208.5 212 L 202 204.5 L 211.5 195 Z "></path><path fill="rgb(4,6,9)" stroke="rgb(4,6,9)" stroke-width="1" opacity="0.6235294117647059" d="M 210.5 29 L 208.5 32 L 210.5 29 Z "></path><path fill="rgb(4,6,9)" stroke="rgb(4,6,9)" stroke-width="1" opacity="0.6235294117647059" d="M 206.5 33 L 204.5 36 L 206.5 33 Z "></path><path fill="rgb(4,6,9)" stroke="rgb(4,6,9)" stroke-width="1" opacity="0.6235294117647059" d="M 192.5 50 L 191 52.5 L 183.5 63 L 180 65.5 Q 180.8 67.8 178.5 67 L 174 70.5 L 172.5 73 L 157 86.5 Q 157.8 88.8 155.5 88 L 152 93 L 147 95 L 144.5 99 L 140 102.5 Q 140.8 104.8 138.5 104 L 182.5 59 L 192.5 50 Z "></path><path fill="rgb(4,6,9)" stroke="rgb(4,6,9)" stroke-width="1" opacity="0.6235294117647059" d="M 242.5 50 L 241.5 52 L 242.5 50 Z "></path><path fill="rgb(4,6,9)" stroke="rgb(4,6,9)" stroke-width="1" opacity="0.6235294117647059" d="M 236.5 55 L 235.5 57 L 236.5 55 Z "></path><path fill="rgb(4,6,9)" stroke="rgb(4,6,9)" stroke-width="1" opacity="0.6235294117647059" d="M 231.5 60 L 230.5 62 L 231.5 60 Z "></path><path fill="rgb(4,6,9)" stroke="rgb(4,6,9)" stroke-width="1" opacity="0.6235294117647059" d="M 226.5 66 L 225.5 68 L 226.5 66 Z "></path><path fill="rgb(4,6,9)" stroke="rgb(4,6,9)" stroke-width="1" opacity="0.6235294117647059" d="M 177.5 85 L 178 86.5 L 152.5 111 L 177.5 85 Z "></path><path fill="rgb(4,6,9)" stroke="rgb(4,6,9)" stroke-width="1" opacity="0.6235294117647059" d="M 136.5 105 L 136 106.5 Q 136.8 108.8 134.5 108 L 131 110 L 128.5 114 L 125 116.5 L 123.5 119 L 104.5 137 L 134.5 106 L 136.5 105 Z "></path><path fill="rgb(4,6,9)" stroke="rgb(4,6,9)" stroke-width="1" opacity="0.6235294117647059" d="M 102.5 138 L 101.5 140 L 102.5 138 Z "></path><path fill="rgb(4,6,9)" stroke="rgb(4,6,9)" stroke-width="1" opacity="0.6235294117647059" d="M 86.5 153 L 70 170.5 Q 69.3 172.8 71.5 172 L 76 170 L 77.5 167 L 80.5 166 L 74.5 173 L 61.5 179 L 86.5 153 Z "></path><path fill="rgb(4,6,9)" stroke="rgb(4,6,9)" stroke-width="1" opacity="0.6235294117647059" d="M 100.5 162 L 99 164.5 Q 99.8 166.8 97.5 166 L 100.5 162 Z "></path><path fill="rgb(4,6,9)" stroke="rgb(4,6,9)" stroke-width="1" opacity="0.6235294117647059" d="M 368.5 187 L 367.5 189 L 368.5 187 Z "></path><path fill="rgb(4,6,9)" stroke="rgb(4,6,9)" stroke-width="1" opacity="0.6235294117647059" d="M 40.5 194 L 38.5 197 L 40.5 194 Z "></path><path fill="rgb(4,6,9)" stroke="rgb(4,6,9)" stroke-width="1" opacity="0.6235294117647059" d="M 36.5 198 L 34.5 201 L 36.5 198 Z "></path><path fill="rgb(4,6,9)" stroke="rgb(4,6,9)" stroke-width="1" opacity="0.6235294117647059" d="M 104.5 202 L 128.5 202 L 133.5 203 Q 146.9 206.1 156 213.5 L 153 214.5 L 156.5 215 L 158 214.5 L 156.5 216 L 149 216.5 L 159.5 218 L 164 220.5 L 163.5 222 L 170 226.5 L 173 234 Q 170 235.3 171 231.5 L 166.5 225 L 159.5 222 Q 158 224.5 156.5 221 L 154.5 220 L 152.5 220 L 150 221.5 L 149.5 223 L 145 220.5 L 145.5 219 L 135 216 L 134.5 218 L 129.5 213 L 126.5 213 Q 125.3 215.3 120.5 214 L 116 216.5 L 118 217.5 L 115.5 222 L 114 222 L 113.5 224 L 104.5 224 L 102.5 224 Q 99.2 225.1 100 222.5 L 100.5 221 L 99 220.5 L 100 218.5 L 98 217.5 Q 98.6 220.3 92.5 219 L 89.5 218 L 82.5 221 L 80.5 220 L 74 225.5 L 68.5 234 L 66.5 235 L 66 232.5 L 67 229.5 Q 67.6 221.6 72 217.5 L 71.5 216 Q 72.8 218.3 74 215.5 Q 73.3 213.3 75.5 214 L 84.5 208 L 104.5 202 Z M 133 211 L 133 213 L 135 212 L 137 214 L 147 217 L 149 216 L 133 211 Z M 150 214 L 150 215 L 152 215 L 150 214 Z "></path><path fill="rgb(4,6,9)" stroke="rgb(4,6,9)" stroke-width="1" opacity="0.6235294117647059" d="M 88.5 220 L 92 221.5 L 83.5 225 L 81 223.5 L 88.5 220 Z "></path><path fill="rgb(4,6,9)" stroke="rgb(4,6,9)" stroke-width="1" opacity="0.6235294117647059" d="M 173.5 228 L 175.5 231 Q 173.3 231.8 174 229.5 L 173.5 228 Z "></path><path fill="rgb(4,6,9)" stroke="rgb(4,6,9)" stroke-width="1" opacity="0.6235294117647059" d="M 181.5 240 L 185 244.5 L 190 258.5 L 191 274.5 L 182 282.5 L 181 256.5 L 177 244.5 L 181.5 240 Z "></path><path fill="rgb(4,6,9)" stroke="rgb(4,6,9)" stroke-width="1" opacity="0.6235294117647059" d="M 189.5 291 L 190 293.5 Q 187.1 306.1 181 315.5 L 170 330 L 155.5 341 L 140.5 348 L 131.5 350 L 133.5 347 L 148 341 Q 146.9 338.3 149.5 339 L 148.5 337 L 145.5 339 L 145 337 Q 149.5 337.2 151.5 334 L 154.5 334 L 164 328 L 172 315 Q 175 316.3 174 312.5 L 179 301.5 L 189.5 291 Z "></path><path fill="rgb(4,6,9)" stroke="rgb(4,6,9)" stroke-width="1" opacity="0.6235294117647059" d="M 34.5 352 L 35.5 354 L 34.5 352 Z "></path><path fill="rgb(4,6,9)" stroke="rgb(4,6,9)" stroke-width="1" opacity="0.6235294117647059" d="M 198.5 352 L 197.5 354 L 198.5 352 Z "></path><path fill="rgb(0,126,199)" stroke="rgb(0,126,199)" stroke-width="1" opacity="0.49019607843137253" d="M 335.5 0 L 340.5 1 Q 342 -1.5 343.5 2 L 356.5 8 L 371 18 L 382 32.5 L 392 51.5 Q 391.8 56.7 395 58.5 L 397 68.5 L 399 70.5 L 400 82.5 L 399 82.5 L 399 76.5 L 395 66.5 Q 397.5 65 394 63.5 Q 384.9 32.1 362.5 14 L 349.5 6 L 338.5 1 L 335.5 1 L 335.5 0 Z "></path><path fill="rgb(0,126,199)" stroke="rgb(0,126,199)" stroke-width="1" opacity="0.49019607843137253" d="M 274.5 37 Q 284.3 33.8 281 43.5 L 276 57.5 L 266 70 L 258 75 L 258 77 L 256 77 Q 257.1 79.7 254.5 79 L 233 97.5 Q 233.8 99.8 231.5 99 L 222 106 L 220.5 109 L 212.5 115 L 212 104.5 L 237.5 82 L 244 78 Q 242.9 75.3 245.5 76 L 265 57.5 L 272 43.5 L 270 42.5 Q 272.5 41 269 39.5 Q 268.3 37.3 270.5 38 L 272.5 38 L 274.5 37 Z "></path><path fill="rgb(0,126,199)" stroke="rgb(0,126,199)" stroke-width="1" opacity="0.49019607843137253" d="M 336.5 55 L 340.5 60 L 336.5 55 Z "></path><path fill="rgb(0,126,199)" stroke="rgb(0,126,199)" stroke-width="1" opacity="0.49019607843137253" d="M 358.5 102 L 361 103 L 361 111 L 357.5 111 Q 347.1 112.6 340.5 118 L 305.5 152 L 278 174 Q 279.1 176.7 276.5 176 L 273 178 Q 274.1 180.7 271.5 180 L 265.5 184 L 259 180.5 L 270 173 Q 268.9 170.3 271.5 171 L 274 170 Q 272.9 167.3 275.5 168 L 282 162.5 Q 281.3 160.3 283.5 161 L 287 159 L 289.5 155 Q 292.8 156.1 292 153.5 L 309.5 137 L 311 137 Q 309.9 134.3 312.5 135 L 314 132 L 316 132 L 316 130 L 318 130 L 318 128 L 320 128 Q 318.9 125.3 321.5 126 L 326.5 120 Q 328.8 120.8 328 118.5 Q 338.5 105.5 358.5 102 Z "></path><path fill="rgb(0,126,199)" stroke="rgb(0,126,199)" stroke-width="1" opacity="0.49019607843137253" d="M 399.5 108 L 400 113.5 L 399 113.5 L 399.5 108 Z "></path><path fill="rgb(0,126,199)" stroke="rgb(0,126,199)" stroke-width="1" opacity="0.49019607843137253" d="M 398.5 115 L 400 120.5 L 399 122.5 L 400 123.5 L 400 151.5 L 396.5 149 Q 392 148.5 391.5 152 L 391 150.5 L 396 136.5 L 399 117.5 L 398.5 115 Z "></path><path fill="rgb(0,126,199)" stroke="rgb(0,126,199)" stroke-width="1" opacity="0.49019607843137253" d="M 176.5 134 L 179 142.5 L 178 145 L 176 145 Q 177.1 147.7 174.5 147 L 172 148 Q 173.1 150.7 170.5 150 L 169 153 L 152 166.5 L 149.5 170 Q 145.2 166.8 137.5 167 L 136 165.5 L 139 163.5 L 138 165.5 L 140.5 166 L 143.5 162 L 145 162 L 145 160 Q 147.7 161.1 147 158.5 L 176.5 134 Z "></path><path fill="rgb(0,126,199)" stroke="rgb(0,126,199)" stroke-width="1" opacity="0.49019607843137253" d="M 230.5 161 L 234.5 166 L 230.5 161 Z "></path><path fill="rgb(0,126,199)" stroke="rgb(0,126,199)" stroke-width="1" opacity="0.49019607843137253" d="M 202.5 185 L 203.5 187 L 202.5 185 Z "></path><path fill="rgb(0,126,199)" stroke="rgb(0,126,199)" stroke-width="1" opacity="0.49019607843137253" d="M 225.5 205 L 232 209 Q 233.1 211.7 230.5 211 L 214.5 222 L 210 215.5 L 215.5 211 L 218 211 Q 216.9 208.3 219.5 209 L 225.5 205 Z "></path><path fill="rgb(0,137,218)" stroke="rgb(0,137,218)" stroke-width="1" opacity="0.5137254901960784" d="M 281 37 L 298.5 37 L 307.5 39 Q 320.5 43 330 50.5 L 225.5 155 L 224 153.5 L 214 132.5 L 212 123.5 L 212 115.5 L 222 107.5 Q 221.3 105.3 223.5 106 L 233 99 L 235.5 95 L 256 79 L 256 77 L 258 77 Q 256.9 74.3 259.5 75 L 266 70 L 276 57.5 L 279 51.5 L 281 37 Z "></path><path fill="rgb(0,137,218)" stroke="rgb(0,137,218)" stroke-width="1" opacity="0.5137254901960784" d="M 337.5 58 L 346 65.5 Q 358.2 80 361 103 L 358.5 102 Q 338.5 105.5 328 118.5 Q 328.8 120.8 326.5 120 L 321.5 126 L 320 126 L 320 128 L 318 128 L 318 130 L 316 130 L 316 132 Q 313.3 130.9 314 133.5 L 311 135 Q 312.1 137.7 309.5 137 L 292 153.5 Q 292.8 156.1 289.5 155 L 287 159 L 282 161 L 280.5 164 L 274 168 Q 275.1 170.7 272.5 170 L 270 171 Q 271.1 173.7 268.5 173 L 257.5 181 Q 242.6 174.9 233 163.5 L 337.5 58 Z "></path><path fill="rgb(0,137,218)" stroke="rgb(0,137,218)" stroke-width="1" opacity="0.5137254901960784" d="M 178.5 143 L 189 167.5 L 199 181.5 L 188.5 191 L 173.5 179 L 150 169.5 L 157.5 161 L 169 153 L 170.5 150 L 173.5 148 L 176 147 L 176 145 Q 178.8 146 178.5 143 Z "></path><path fill="rgb(0,137,218)" stroke="rgb(0,137,218)" stroke-width="1" opacity="0.5137254901960784" d="M 205.5 190 L 211 194.5 L 202.5 204 Q 200.3 204.8 201 202.5 L 197 198.5 L 205.5 190 Z "></path><path fill="rgb(0,137,218)" stroke="rgb(0,137,218)" stroke-width="1" opacity="0.5137254901960784" d="M 219.5 202 L 225 205.5 L 218 209 Q 219.3 212 215.5 211 L 210.5 215 L 208 212.5 L 213.5 207 L 219.5 202 Z "></path><path fill="rgb(0,137,120)" stroke="rgb(0,137,120)" stroke-width="1" opacity="0.9882352941176471" d="M 303.5 9 L 315.5 12 L 316.5 11 L 332.5 11 Q 350.8 17.7 363 30.5 Q 378.6 47.4 387 71.5 L 390 86.5 L 390 122.5 L 391 123.5 Q 389.5 131 392 134.5 L 392 136.5 Q 393.8 142.7 391 144.5 L 391 146.5 L 390 153 Q 387.3 151.9 388 154.5 L 386 155.5 L 388 150.5 L 387 147.5 L 387 145.5 L 386.5 140 Q 381.8 157.8 372 170.5 L 349.5 194 L 346.5 196 L 351 190.5 L 362 177.5 Q 364.7 175.2 364 169.5 L 360.5 165 L 355.5 164 L 348.5 169 L 352 164.5 Q 360.1 154.6 365 141.5 L 368 131.5 L 369 112.5 L 370 111.5 L 362 110 Q 360.3 105.5 361 97.5 L 356 81.5 Q 348.9 65.6 336.5 55 Q 326.3 45.2 311.5 40 L 300.5 37 L 281.5 36 Q 279.8 38.8 273.5 37 L 275 34.5 L 274 30 L 271 29.5 L 286.5 15 L 290.5 19 L 292.5 19 L 303.5 9 Z "></path><path fill="rgb(0,137,120)" stroke="rgb(0,137,120)" stroke-width="1" opacity="0.9882352941176471" d="M 229.5 31 L 227.5 34 L 229.5 31 Z "></path><path fill="rgb(0,137,120)" stroke="rgb(0,137,120)" stroke-width="1" opacity="0.9882352941176471" d="M 218.5 42 L 193.5 68 L 194 66.5 L 202.5 57 L 205.5 55 L 218.5 42 Z "></path><path fill="rgb(0,137,120)" stroke="rgb(0,137,120)" stroke-width="1" opacity="0.9882352941176471" d="M 212.5 94 L 213 96.5 Q 210.5 98 212 103.5 L 205 110.5 L 206.5 111 L 211 107.5 L 212 125.5 L 217 141.5 Q 224.4 158.1 237.5 169 L 248.5 177 L 265 184.5 L 258 189.5 L 277.5 195 L 296.5 195 L 310.5 192 L 321.5 188 L 338.5 177 L 339 179 Q 336.3 177.9 337 180.5 L 308 209.5 L 308 211 L 301.5 214 L 278.5 215 L 269.5 213 L 261.5 213 L 254.5 219 Q 253.3 216.8 252 219.5 Q 254.8 221.2 250.5 223 L 248.5 223 L 243 227.5 L 242 229.5 L 243 230.5 L 239.5 234 L 239.5 232 L 236.5 234 L 232 239.5 L 233 240.5 L 225.5 248 L 224 245.5 L 234 235.5 L 234 234 L 235.5 234 L 252 218.5 L 250 218 L 255 210 L 238.5 204 L 231.5 209 Q 215.8 200.2 204 187.5 Q 191 173.5 183 154.5 L 178 139.5 L 176 128 L 183 122.5 L 183 118.5 L 203.5 98 L 204.5 102 L 212.5 94 Z "></path><path fill="rgb(0,137,120)" stroke="rgb(0,137,120)" stroke-width="1" opacity="0.9882352941176471" d="M 341.5 175 L 340.5 177 L 341.5 175 Z "></path><path fill="rgb(0,137,120)" stroke="rgb(0,137,120)" stroke-width="1" opacity="0.9882352941176471" d="M 224.5 319 L 223.5 321 L 224.5 319 Z "></path><path fill="rgb(0,47,76)" stroke="rgb(0,47,76)" stroke-width="1" opacity="0.7725490196078432" d="M 321.5 5 L 345 16.5 L 343.5 16 L 332.5 11 L 316.5 11 L 314.5 11 L 306.5 10 L 304 8.5 L 321 7 L 321.5 5 Z "></path><path fill="rgb(0,47,76)" stroke="rgb(0,47,76)" stroke-width="1" opacity="0.7725490196078432" d="M 346.5 17 L 347.5 19 L 346.5 17 Z "></path><path fill="rgb(0,47,76)" stroke="rgb(0,47,76)" stroke-width="1" opacity="0.7725490196078432" d="M 356.5 24 L 358.5 27 L 356.5 24 Z "></path><path fill="rgb(0,47,76)" stroke="rgb(0,47,76)" stroke-width="1" opacity="0.7725490196078432" d="M 271.5 30 Q 275.3 28.8 274 32.5 L 275 34.5 L 271.5 38 L 261.5 41 L 271.5 30 Z "></path><path fill="rgb(0,47,76)" stroke="rgb(0,47,76)" stroke-width="1" opacity="0.7725490196078432" d="M 363.5 31 L 367 33.5 Q 383.1 49.9 392 73.5 L 392 77.5 Q 391.3 79.8 393.5 79 L 393 80.5 L 395 119.5 L 397 130.5 L 390.5 152 L 390 150.5 L 392 145.5 L 392 143.5 Q 393.8 137.3 391 135.5 L 392 133.5 L 390 122.5 L 390 86.5 L 387 71.5 Q 378.4 47.1 363.5 31 Z "></path><path fill="rgb(0,47,76)" stroke="rgb(0,47,76)" stroke-width="1" opacity="0.7725490196078432" d="M 259.5 41 L 256.5 45 L 259.5 41 Z "></path><path fill="rgb(0,47,76)" stroke="rgb(0,47,76)" stroke-width="1" opacity="0.7725490196078432" d="M 239.5 61 L 237.5 64 L 239.5 61 Z "></path><path fill="rgb(0,47,76)" stroke="rgb(0,47,76)" stroke-width="1" opacity="0.7725490196078432" d="M 235.5 65 L 229.5 72 L 235.5 65 Z "></path><path fill="rgb(0,47,76)" stroke="rgb(0,47,76)" stroke-width="1" opacity="0.7725490196078432" d="M 181.5 70 L 182 71.5 L 179 82.5 L 99.5 163 L 94.5 167 L 78.5 171 L 112.5 136 L 117.5 132 L 121 127 L 125 126 L 127 121 L 131 120 L 133.5 116 L 137 113.5 Q 136.3 111.3 138.5 112 L 149 102.5 L 148.5 101 Q 152.5 101.5 153 98.5 L 154.5 96 L 159 92.5 Q 158.3 90.3 160.5 91 L 165 85 L 169 83.5 L 170.5 81 L 175 79 L 178.5 74 Q 181.1 74.8 180 71.5 L 181.5 70 Z "></path><path fill="rgb(0,47,76)" stroke="rgb(0,47,76)" stroke-width="1" opacity="0.7725490196078432" d="M 215.5 86 L 215 87.5 L 214 92.5 L 204.5 102 L 204 97.5 L 215.5 86 Z "></path><path fill="rgb(0,47,76)" stroke="rgb(0,47,76)" stroke-width="1" opacity="0.7725490196078432" d="M 211.5 104 L 212 105.5 L 204.5 112 L 211.5 104 Z "></path><path fill="rgb(0,47,76)" stroke="rgb(0,47,76)" stroke-width="1" opacity="0.7725490196078432" d="M 362 110 L 370 111.5 L 369 112.5 L 368 131.5 L 363.5 144 L 363 142.5 L 364 140 L 357.5 139 L 349 154.5 L 342 162.5 L 342 164.5 L 337 171.5 L 324 184.5 L 325.5 185 Q 340.8 177.3 351 164.5 L 353.5 161 L 352 163.5 L 351 165.5 L 352.5 166 L 357.5 164 L 363 167.5 L 364 173.5 L 360 180.5 L 348 193.5 L 349.5 194 Q 351.3 190.3 353 193.5 L 224.5 323 L 244.5 301 L 228.5 316 L 227 316 L 225.5 319 L 217.5 325 L 218 323.5 L 225 305.5 L 228 290.5 L 228 262.5 L 224 247.5 L 236.5 234 L 239.5 232 L 247.5 223 L 253.5 218 L 254.5 219 L 257.5 216 Q 260.3 211.3 269.5 213 L 278.5 215 L 293.5 215 Q 294.7 212.8 299.5 214 L 299.5 215 Q 294 214 293 217.5 L 289 222.5 L 301 223 Q 302.1 225.7 299.5 225 L 294.5 231 L 290 234.5 Q 290.8 236.8 288.5 236 L 285 241 L 280 244.5 L 280 246 L 278 246 Q 279.1 248.7 276.5 248 L 274 252 L 270 254.5 L 267.5 258 Q 265.3 257.3 266 259.5 L 260 264 L 256.5 269 L 254 270.5 L 251.5 274 L 248 276.5 L 246.5 279 L 237 287.5 Q 237.8 289.8 235.5 289 L 229 298.5 L 230.5 302 L 325 208.5 L 324.5 207 Q 315.3 212.3 302.5 214 L 302.5 213 L 308 211 L 308 209.5 L 337 179.5 L 335.5 180 Q 324.8 187.8 310.5 192 L 296.5 195 L 277.5 195 L 258 189.5 L 265.5 184 L 267.5 184 Q 273.6 187.4 284.5 186 L 318.5 157 L 324 154 L 325.5 151 L 331 146.5 L 342.5 134 L 354.5 127 L 356.5 127 Q 361.3 128.7 360 124.5 L 361 123.5 L 362 110 Z M 339 177 L 337 179 L 339 179 L 339 177 Z M 253 292 L 250 296 L 254 293 L 253 292 Z M 247 298 L 245 301 L 248 299 L 247 298 Z "></path><path fill="rgb(0,47,76)" stroke="rgb(0,47,76)" stroke-width="1" opacity="0.7725490196078432" d="M 182.5 119 L 183 122.5 L 176 128 L 175 125.5 L 182.5 119 Z "></path><path fill="rgb(0,47,76)" stroke="rgb(0,47,76)" stroke-width="1" opacity="0.7725490196078432" d="M 386.5 140 L 388 146.5 L 387 149.5 L 387 151.5 L 387.5 155 L 388 153 L 390 153.5 L 369 173.5 Q 381.3 160.3 386.5 140 Z "></path><path fill="rgb(0,47,76)" stroke="rgb(0,47,76)" stroke-width="1" opacity="0.7725490196078432" d="M 362.5 145 L 363 146.5 L 358.5 154 L 359 152.5 L 362.5 145 Z "></path><path fill="rgb(0,47,76)" stroke="rgb(0,47,76)" stroke-width="1" opacity="0.7725490196078432" d="M 357.5 155 L 356.5 157 L 357.5 155 Z "></path><path fill="rgb(0,47,76)" stroke="rgb(0,47,76)" stroke-width="1" opacity="0.7725490196078432" d="M 355.5 158 L 354.5 160 L 355.5 158 Z "></path><path fill="rgb(0,47,76)" stroke="rgb(0,47,76)" stroke-width="1" opacity="0.7725490196078432" d="M 192.5 194 L 194.5 197 L 192.5 194 Z "></path><path fill="rgb(0,47,76)" stroke="rgb(0,47,76)" stroke-width="1" opacity="0.7725490196078432" d="M 197.5 199 L 199.5 202 L 197.5 199 Z "></path><path fill="rgb(0,47,76)" stroke="rgb(0,47,76)" stroke-width="1" opacity="0.7725490196078432" d="M 238.5 204 L 255 210 L 255 211.5 L 223.5 243 L 222 240.5 L 224 240 Q 222.9 237.3 225.5 238 L 228 234 L 239 226 L 240.5 223 L 247 217.5 Q 247.8 215.3 245.5 216 L 232 208.5 L 238.5 204 Z "></path><path fill="rgb(0,47,76)" stroke="rgb(0,47,76)" stroke-width="1" opacity="0.7725490196078432" d="M 64.5 223 L 64 224.5 L 58 236.5 L 58 243.5 L 62.5 249 L 69.5 250 L 78 244.5 L 79.5 242 L 99.5 234 L 109.5 234 L 110.5 233 L 113.5 234 Q 115 231.5 120.5 233 L 120.5 234 L 119 234.5 Q 130.6 233.9 135 240.5 L 136 248.5 L 129.5 260 Q 127.3 259.3 128 261.5 L 125 267 L 122 268.5 L 120 271.5 L 113 280.5 L 112 284 Q 109.3 282.9 110 285.5 L 99 301 L 95 303.5 L 92.5 307 L 84.5 312 L 78.5 313 L 76.5 315 L 63.5 317 L 56.5 321 Q 49.6 313.9 46 303.5 L 42 288.5 L 42 277.5 L 41 276.5 L 42 275.5 L 43 259.5 L 48 244.5 Q 54.2 231.7 64.5 223 Z "></path><path fill="rgb(0,47,76)" stroke="rgb(0,47,76)" stroke-width="1" opacity="0.7725490196078432" d="M 175.5 232 L 179 234.5 L 181 239.5 L 176 243 L 173 234.5 L 175.5 232 Z "></path><path fill="rgb(0,47,76)" stroke="rgb(0,47,76)" stroke-width="1" opacity="0.7725490196078432" d="M 158.5 249 Q 160.8 248.3 160 250.5 L 162 258.5 L 79.5 341 L 77.5 341 L 72 336.5 Q 96.5 306.5 125.5 281 L 158.5 249 Z "></path><path fill="rgb(0,47,76)" stroke="rgb(0,47,76)" stroke-width="1" opacity="0.7725490196078432" d="M 190 275 Q 193 273.8 192 277.5 L 191 278.5 L 191 288.5 L 180.5 299 L 180 296.5 L 181 295.5 L 181 285.5 L 190 276.5 L 190 275 Z "></path><path fill="rgb(0,47,76)" stroke="rgb(0,47,76)" stroke-width="1" opacity="0.7725490196078432" d="M 222.5 324 L 221.5 326 L 222.5 324 Z "></path><path fill="rgb(0,47,76)" stroke="rgb(0,47,76)" stroke-width="1" opacity="0.7725490196078432" d="M 134.5 332 L 136 332.5 L 134 333.5 L 143.5 335 L 145 334.5 L 128.5 351 L 116.5 351 L 134.5 332 Z "></path><path fill="rgb(0,2,0)" stroke="rgb(0,2,0)" stroke-width="1" opacity="0.996078431372549" d="M 274.5 0 L 298.5 0 L 321 5 L 320.5 7 L 312.5 7 L 311.5 8 L 298.5 9 L 297.5 8 L 275.5 8 L 250.5 14 Q 238.5 18 230 25.5 L 228.5 29 Q 226.8 26.3 225 30.5 L 223 35 L 219 37.5 Q 219.8 39.8 217.5 39 L 208 47.5 Q 208.8 49.8 206.5 49 L 199 56.5 L 190 73.5 L 184 94.5 L 183 118.5 L 176.5 125 L 175 123.5 L 175 99.5 L 179 80.5 L 190 54.5 Q 200.5 37.5 215.5 25 Q 227.6 14.6 243.5 8 L 251.5 5 L 274.5 0 Z "></path><path fill="rgb(0,2,0)" stroke="rgb(0,2,0)" stroke-width="1" opacity="0.996078431372549" d="M 266.5 30 L 271 30.5 L 260.5 41 Q 240.8 47.8 229 62.5 Q 220.3 71.8 216 85.5 L 205.5 96 L 205 91.5 Q 212.2 65.7 229.5 50 Q 244.2 36.2 266.5 30 Z "></path><path fill="rgb(0,2,0)" stroke="rgb(0,2,0)" stroke-width="1" opacity="0.996078431372549" d="M 393.5 80 L 398 99.5 L 398 122.5 L 396.5 129 L 396 120.5 L 395 119.5 L 395 107.5 L 394 106.5 L 394 87.5 Q 391.2 85.7 393.5 80 Z "></path><path fill="rgb(0,2,0)" stroke="rgb(0,2,0)" stroke-width="1" opacity="0.996078431372549" d="M 357.5 139 L 364 140 Q 356.7 162.4 339.5 176 L 323.5 186 L 337 171.5 L 342 164.5 L 342 162.5 L 349 154.5 L 357.5 139 Z "></path><path fill="rgb(0,2,0)" stroke="rgb(0,2,0)" stroke-width="1" opacity="0.996078431372549" d="M 389.5 154 L 389 155.5 Q 378.2 181.7 357.5 198 L 335.5 212 L 353 193.5 L 352 192.5 L 355.5 188 L 363 181.5 L 389.5 154 Z "></path><path fill="rgb(0,2,0)" stroke="rgb(0,2,0)" stroke-width="1" opacity="0.996078431372549" d="M 104.5 165 L 128.5 165 Q 130 167.5 135.5 166 L 159.5 173 Q 185.9 184.6 203 205.5 Q 215.9 220.6 223 241.5 L 228 263.5 L 228 289.5 L 222 314.5 L 213 333.5 Q 202.5 350.5 187.5 363 Q 172.4 375.9 151.5 383 L 128.5 388 L 104.5 388 L 81.5 383 L 61.5 374 Q 43.1 363.4 30 347.5 Q 17.1 332.4 10 311.5 L 5 288.5 L 5 264.5 L 10 241.5 L 20 219.5 Q 30.5 202.5 45.5 190 Q 57.6 179.6 73.5 173 L 88.5 168 L 104.5 165 Z M 109 173 L 108 174 L 101 174 L 91 176 L 74 182 L 49 198 Q 35 210 26 226 L 16 250 L 13 266 L 13 288 L 16 304 Q 23 329 39 346 Q 50 358 66 367 L 90 377 L 106 380 L 128 380 L 144 377 Q 168 370 185 355 Q 199 343 208 326 L 217 303 L 220 286 L 220 269 L 215 244 Q 208 223 195 209 Q 180 191 158 181 L 144 176 L 134 174 L 109 173 Z "></path><path fill="rgb(0,2,0)" stroke="rgb(0,2,0)" stroke-width="1" opacity="0.996078431372549" d="M 107.5 193 L 125.5 193 L 146.5 198 Q 166.8 206.2 180 221.5 Q 191.2 234.3 197 252.5 L 200 267.5 L 200 285.5 L 196 303.5 L 188 320.5 L 172.5 339 Q 158.6 352.1 137.5 358 L 126.5 360 L 105.5 360 Q 71.1 353.9 53 331.5 Q 40.6 317.4 35 296.5 L 33 285.5 L 33 266.5 Q 38.8 233.3 59.5 215 Q 70.2 205.2 84.5 199 L 92.5 196 L 107.5 193 Z M 113 201 L 112 202 L 99 203 L 87 207 L 68 219 Q 57 228 50 241 L 44 255 L 41 272 L 42 290 L 45 302 Q 50 316 60 327 Q 71 339 87 346 L 99 350 L 112 351 L 113 352 L 130 351 L 142 348 Q 156 343 167 333 Q 179 322 186 307 L 190 295 L 191 283 L 192 282 L 191 264 L 188 252 Q 183 237 173 227 Q 162 214 147 207 L 130 202 L 113 201 Z "></path><path fill="rgb(0,2,0)" stroke="rgb(0,2,0)" stroke-width="1" opacity="0.996078431372549" d="M 324.5 207 L 325 208.5 L 313.5 220 L 297.5 223 L 289.5 223 L 293 218.5 L 295.5 215 Q 312.7 213.7 324.5 207 Z "></path><path fill="rgb(0,190,28)" stroke="rgb(0,190,28)" stroke-width="1" opacity="1" d="M 275.5 8 L 297.5 8 L 303 9.5 L 292.5 19 L 290.5 19 L 286.5 15 L 272.5 29 Q 242.2 35.2 225 54.5 Q 215 65 209 79.5 L 205 91.5 L 205 96.5 L 183.5 118 L 183 102.5 L 184 101.5 L 185 89.5 L 190 73.5 L 192 69.5 L 204 57.5 L 202.5 57 L 195 63.5 Q 199 54.5 206.5 49 Q 208.8 49.8 208 47.5 L 219 39 L 221.5 35 Q 223.8 35.8 223 33.5 L 227.5 28 Q 228.8 30.3 230 27.5 Q 229.5 23.5 232.5 23 L 250.5 14 L 275.5 8 Z M 204 55 L 204 57 L 206 56 L 204 55 Z "></path><path fill="rgb(0,190,28)" stroke="rgb(0,190,28)" stroke-width="1" opacity="1" d="M 108.5 173 L 133.5 174 L 143.5 176 L 157.5 181 Q 180 191 195 208.5 Q 207.9 223.1 215 243.5 L 220 268.5 L 220 285.5 L 217 302.5 L 208 325.5 Q 198.7 342.7 184.5 355 Q 168 370 143.5 377 L 127.5 380 L 105.5 380 L 89.5 377 L 65.5 367 Q 50.3 358.2 39 345.5 Q 23.4 328.6 16 303.5 L 13 287.5 L 13 265.5 L 16 249.5 L 26 225.5 Q 35.1 209.6 48.5 198 L 73.5 182 L 90.5 176 L 100.5 174 L 107.5 174 L 108.5 173 Z M 108 193 L 93 196 L 85 199 Q 70 205 60 215 Q 39 233 33 267 L 33 286 L 35 297 Q 41 317 53 332 Q 71 354 106 360 L 127 360 L 138 358 Q 159 352 173 339 L 188 321 L 196 304 L 200 286 L 200 268 L 197 253 Q 191 234 180 222 Q 167 206 147 198 L 126 193 L 108 193 Z "></path><path fill="rgb(0,190,28)" stroke="rgb(0,190,28)" stroke-width="1" opacity="1" d="M 362.5 181 L 356.5 188 L 362.5 181 Z "></path><path fill="rgb(8,8,8)" stroke="rgb(8,8,8)" stroke-width="1" opacity="0.058823529411764705" d="M 234.5 9 L 238 10.5 L 232.5 11 L 232.5 10 L 234.5 9 Z "></path><path fill="rgb(8,8,8)" stroke="rgb(8,8,8)" stroke-width="1" opacity="0.058823529411764705" d="M 229.5 13 L 232 13.5 L 229.5 14 L 229.5 13 Z "></path><path fill="rgb(8,8,8)" stroke="rgb(8,8,8)" stroke-width="1" opacity="0.058823529411764705" d="M 223.5 18 L 222.5 20 L 223.5 18 Z "></path><path fill="rgb(8,8,8)" stroke="rgb(8,8,8)" stroke-width="1" opacity="0.058823529411764705" d="M 177.5 63 L 174.5 67 L 177.5 63 Z "></path><path fill="rgb(8,8,8)" stroke="rgb(8,8,8)" stroke-width="1" opacity="0.058823529411764705" d="M 165.5 75 L 161.5 80 L 165.5 75 Z "></path><path fill="rgb(8,8,8)" stroke="rgb(8,8,8)" stroke-width="1" opacity="0.058823529411764705" d="M 129.5 110 L 125.5 115 L 129.5 110 Z "></path><path fill="rgb(8,8,8)" stroke="rgb(8,8,8)" stroke-width="1" opacity="0.058823529411764705" d="M 116.5 123 L 112.5 128 L 116.5 123 Z "></path><path fill="rgb(8,8,8)" stroke="rgb(8,8,8)" stroke-width="1" opacity="0.058823529411764705" d="M 393.5 150 L 394 154.5 Q 392.1 166.1 386 173.5 L 368.5 192 L 361 197 L 361 199 L 359 199 Q 360.1 201.7 357.5 201 L 338.5 219 L 337 219 L 337 221 Q 334.3 219.9 335 222.5 L 332 224 L 330.5 227 L 327.5 229 L 323 235 L 321.5 235 L 276 280.5 Q 276.8 282.8 274.5 282 L 270 288 L 268.5 288 L 260 296.5 Q 260.8 298.8 258.5 298 L 223.5 333 L 222 333 L 222 335 Q 219.3 333.9 220 336.5 L 217 338 L 214.5 342 L 205 349 Q 206.1 351.7 203.5 351 L 191.5 361 L 198.5 353 L 212 343 Q 210.9 340.3 213.5 341 L 230.5 324 L 232 324 L 235.5 319 L 237 319 L 237 317 Q 239.7 318.1 239 315.5 L 242 314 L 244.5 310 L 246 310 L 246 308 Q 248.7 309.1 248 306.5 L 251 305 L 251 303 Q 253.7 304.1 253 301.5 L 258 298 L 262.5 292 Q 264.8 292.8 264 290.5 L 267 289 Q 265.9 286.3 268.5 287 L 273.5 281 Q 275.8 281.8 275 279.5 L 278 278 Q 276.9 275.3 279.5 276 L 281 273 L 283 273 Q 281.9 270.3 284.5 271 L 286 268 L 288 268 Q 286.9 265.3 289.5 266 L 292 262 L 296 259.5 L 297.5 257 L 299 257 L 299 255 Q 301.7 256.1 301 253.5 L 306 250 L 309.5 245 Q 311.8 245.8 311 243.5 L 328 227.5 Q 327.3 225.3 329.5 226 L 347.5 208 L 349 208 Q 347.9 205.3 350.5 206 L 359.5 197 L 361 197 L 362.5 194 L 376 183 L 387 167.5 L 390 158.5 L 390 154.5 L 393.5 150 Z "></path><path fill="rgb(8,8,8)" stroke="rgb(8,8,8)" stroke-width="1" opacity="0.058823529411764705" d="M 80.5 158 L 76.5 163 L 80.5 158 Z "></path><path fill="rgb(8,8,8)" stroke="rgb(8,8,8)" stroke-width="1" opacity="0.058823529411764705" d="M 67.5 171 L 62.5 177 L 67.5 171 Z "></path><path fill="rgb(8,8,8)" stroke="rgb(8,8,8)" stroke-width="1" opacity="0.058823529411764705" d="M 347.5 205 L 345.5 208 Q 343.3 207.3 344 209.5 L 339 213.5 L 337.5 216 L 225.5 327 L 208.5 342 L 208 340.5 Q 230.5 322.5 249.5 301 L 251 301 L 251 299 Q 253.7 300.1 253 297.5 L 265.5 285 L 267 285 L 267 283.5 L 302.5 248 Q 304.8 248.8 304 246.5 L 307 245 L 309.5 241 Q 311.8 241.8 311 239.5 L 317 235 L 323.5 227 L 328 223.5 Q 327.3 221.3 329.5 222 L 347.5 205 Z "></path><path fill="rgb(8,8,8)" stroke="rgb(8,8,8)" stroke-width="1" opacity="0.058823529411764705" d="M 28.5 346 L 34 352.5 L 38 361 L 40 361 Q 38.9 363.7 41.5 363 L 50.5 370 Q 59 371 64 375.5 L 61.5 376 Q 44.1 372.9 35 361.5 Q 29.6 354.7 28.5 346 Z "></path><path fill="rgb(1,24,41)" stroke="rgb(1,24,41)" stroke-width="1" opacity="0.7372549019607844" d="M 186.5 61 L 186 62.5 L 182.5 71 Q 181.3 68.8 180 71.5 Q 181.1 74.8 178.5 74 L 175 79 L 169 82.5 L 167.5 85 Q 164.2 83.9 165 86.5 L 159 91 L 155.5 96 L 153 97.5 L 150.5 101 L 148 101.5 L 149 102.5 L 145.5 106 L 137 112 L 134.5 116 L 131 118.5 Q 131.8 120.8 129.5 120 L 127 121 L 125 126 L 121 127 L 117.5 132 L 112.5 136 L 78 170.5 L 78 172 L 76 171.5 L 186.5 61 Z "></path><path fill="rgb(1,24,41)" stroke="rgb(1,24,41)" stroke-width="1" opacity="0.7372549019607844" d="M 178.5 83 L 149.5 113 L 178.5 83 Z "></path><path fill="rgb(1,24,41)" stroke="rgb(1,24,41)" stroke-width="1" opacity="0.7372549019607844" d="M 98.5 163 L 95.5 167 L 98.5 163 Z "></path><path fill="rgb(1,24,41)" stroke="rgb(1,24,41)" stroke-width="1" opacity="0.7372549019607844" d="M 195.5 197 L 196.5 199 L 195.5 197 Z "></path><path fill="rgb(1,24,41)" stroke="rgb(1,24,41)" stroke-width="1" opacity="0.7372549019607844" d="M 73.5 215 L 72 217.5 L 69 221.5 L 66 230.5 L 66 232.5 L 66 235 Q 69 234 68 237 L 70.5 237 L 72.5 238 L 83.5 236 L 98.5 227 L 104.5 225 L 117.5 224 L 123.5 226 L 125.5 226 L 133.5 228 L 147 239.5 L 149 249.5 L 138 267.5 L 175.5 231 L 178 232.5 L 176.5 232 L 173 234.5 L 176 243 L 181.5 239 L 79.5 342 L 162 258.5 L 160 249 L 158.5 249 L 83 323.5 L 72 336.5 L 72.5 338 L 60 326.5 L 55 320.5 Q 56.8 322.1 58.5 319 L 84.5 312 L 95 304.5 L 97.5 301 Q 99.8 301.8 99 299.5 L 110 284 Q 112.7 285.1 112 282.5 L 120 270 Q 122.7 271.1 122 268.5 L 125 267 L 128 260 L 131 258.5 L 136 248.5 L 136 242.5 L 131.5 237 Q 126.9 234.1 119 234.5 L 121 233.5 L 114.5 233 L 111.5 234 L 109.5 234 L 99.5 234 L 88.5 239 L 82.5 240 L 78 243.5 L 75.5 247 Q 72.3 250.8 64.5 250 L 59 245.5 L 58 236.5 L 64 224.5 L 60 226.5 L 73.5 215 Z "></path><path fill="rgb(1,24,41)" stroke="rgb(1,24,41)" stroke-width="1" opacity="0.7372549019607844" d="M 310.5 220 L 312 220.5 L 230 301.5 L 229 298.5 L 235.5 289 Q 237.8 289.8 237 287.5 L 248 277.5 L 250.5 274 L 254 271.5 L 255.5 269 L 260 265.5 Q 259.3 263.3 261.5 264 L 266 258 L 270 255.5 L 272.5 252 Q 274.8 252.8 274 250.5 L 278 248 L 278 246 Q 280.7 247.1 280 244.5 L 285 241 L 288.5 236 Q 290.8 236.8 290 234.5 L 296 229.5 L 299.5 225 Q 302.1 225.7 301 223 L 298 222.5 L 310.5 220 Z "></path><path fill="rgb(1,24,41)" stroke="rgb(1,24,41)" stroke-width="1" opacity="0.7372549019607844" d="M 56.5 231 L 55.5 233 L 56.5 231 Z "></path><path fill="rgb(1,24,41)" stroke="rgb(1,24,41)" stroke-width="1" opacity="0.7372549019607844" d="M 41.5 271 L 42 275.5 L 41 275.5 L 41.5 271 Z "></path><path fill="rgb(1,24,41)" stroke="rgb(1,24,41)" stroke-width="1" opacity="0.7372549019607844" d="M 189.5 276 L 181 285.5 Q 182.3 293.8 180 298.5 L 191 289.5 L 129 350.5 L 143.5 335 L 133.5 333 L 116.5 351 L 121 351.5 L 114.5 352 L 113.5 350 L 115.5 350 L 189.5 276 Z "></path><path fill="rgb(1,24,41)" stroke="rgb(1,24,41)" stroke-width="1" opacity="0.7372549019607844" d="M 41.5 277 L 42 281.5 L 41 281.5 L 41.5 277 Z "></path><path fill="rgb(1,24,41)" stroke="rgb(1,24,41)" stroke-width="1" opacity="0.7372549019607844" d="M 191.5 278 L 192 281.5 L 191 281.5 L 191.5 278 Z "></path><path fill="rgb(4,8,11)" stroke="rgb(4,8,11)" stroke-width="1" opacity="0.6549019607843137" d="M 188.5 57 L 188 58.5 L 89.5 158 Q 87.3 157.3 88 159.5 L 83 163 L 81.5 166 L 76 168.5 Q 76.8 170.8 74.5 170 L 70 172 L 70 170.5 L 100.5 140 L 103 138.5 Q 102.3 136.3 104.5 137 L 125 117.5 L 127.5 114 L 131 111.5 Q 130.3 109.3 132.5 110 L 136 108 L 137 104 Q 140.8 105.5 140 102.5 L 147 96.5 Q 146.3 94.3 148.5 95 L 152 93 L 155.5 88 Q 157.8 88.8 157 86.5 L 174 71.5 L 176.5 68 L 180 67 L 182.5 63 L 185 61.5 L 188.5 57 Z "></path><path fill="rgb(4,8,11)" stroke="rgb(4,8,11)" stroke-width="1" opacity="0.6549019607843137" d="M 68.5 172 L 66.5 175 L 68.5 172 Z "></path><path fill="rgb(4,8,11)" stroke="rgb(4,8,11)" stroke-width="1" opacity="0.6549019607843137" d="M 366.5 189 L 363.5 193 L 366.5 189 Z "></path><path fill="rgb(4,8,11)" stroke="rgb(4,8,11)" stroke-width="1" opacity="0.6549019607843137" d="M 112.5 201 L 121 201.5 L 112.5 202 L 112.5 201 Z "></path><path fill="rgb(4,8,11)" stroke="rgb(4,8,11)" stroke-width="1" opacity="0.6549019607843137" d="M 133 211 L 144.5 215 L 148.5 215 L 151.5 214 L 151.5 215 L 149 215.5 L 156.5 216 L 156.5 215 L 153 214.5 L 156 213.5 L 155.5 212 L 173 226.5 L 175 231.5 L 173 232.5 L 167.5 224 L 163 221.5 L 163.5 220 L 159.5 218 L 148.5 216 L 146.5 217 L 136.5 214 L 134.5 212 L 133 212.5 L 133 211 Z "></path><path fill="rgb(4,8,11)" stroke="rgb(4,8,11)" stroke-width="1" opacity="0.6549019607843137" d="M 130.5 212 L 130 213.5 L 134.5 218 L 135 216 L 140.5 217 L 142 216.5 L 141.5 218 L 146 219.5 L 145.5 221 L 149.5 223 L 151.5 220 L 153.5 221 L 155.5 221 L 158.5 223 L 160.5 223 Q 166.4 223.6 169 227.5 L 172 234.5 L 133 272.5 L 147 254.5 L 149 249.5 L 149 245.5 Q 147.1 235.9 139.5 232 L 133.5 228 L 124.5 225 L 122.5 225 L 114 224 Q 112.9 221.3 115.5 222 L 118 217.5 L 116 216.5 L 120.5 214 Q 127.2 214.7 130.5 212 Z "></path><path fill="rgb(4,8,11)" stroke="rgb(4,8,11)" stroke-width="1" opacity="0.6549019607843137" d="M 90.5 217 Q 92.2 220.5 98 219 L 98.5 217 L 100 219.5 L 99.5 221 L 101 221.5 L 100 224 L 103.5 225 L 107.5 224 L 107.5 225 L 98.5 227 L 83.5 236 L 71.5 238 L 68 237 L 67 234.5 L 71 231.5 Q 73.3 224.8 78.5 221 L 81.5 220 L 83.5 220 L 90.5 217 Z M 89 220 L 81 224 L 84 225 L 92 222 L 89 220 Z "></path><path fill="rgb(4,8,11)" stroke="rgb(4,8,11)" stroke-width="1" opacity="0.6549019607843137" d="M 67.5 219 L 65.5 222 L 67.5 219 Z "></path><path fill="rgb(4,8,11)" stroke="rgb(4,8,11)" stroke-width="1" opacity="0.6549019607843137" d="M 176.5 245 Q 179.5 244.1 178 248.5 L 180 252.5 L 181 263.5 L 182 264.5 L 182 283.5 L 115.5 350 L 113 350.5 L 113.5 352 L 94.5 349 L 80 343 L 80 341.5 L 176.5 245 Z "></path><path fill="rgb(4,8,11)" stroke="rgb(4,8,11)" stroke-width="1" opacity="0.6549019607843137" d="M 191.5 271 L 192 273.5 L 191 273.5 L 191.5 271 Z "></path><path fill="rgb(4,8,11)" stroke="rgb(4,8,11)" stroke-width="1" opacity="0.6549019607843137" d="M 178.5 302 L 178 303.5 L 174 315 Q 171.3 313.9 172 316.5 L 164 328 L 158.5 332 L 147 336.5 L 150 338.5 L 148 339 Q 149.3 342 145.5 341 L 134.5 347 L 178.5 302 Z M 145 337 L 145 339 L 147 338 L 145 337 Z "></path><path fill="rgb(4,8,11)" stroke="rgb(4,8,11)" stroke-width="1" opacity="0.6549019607843137" d="M 177.5 320 L 176.5 322 L 177.5 320 Z "></path><path fill="rgb(4,8,11)" stroke="rgb(4,8,11)" stroke-width="1" opacity="0.6549019607843137" d="M 172.5 326 L 170.5 329 L 172.5 326 Z "></path><path fill="rgb(4,8,11)" stroke="rgb(4,8,11)" stroke-width="1" opacity="0.6549019607843137" d="M 168.5 330 L 166.5 333 L 168.5 330 Z "></path><path fill="rgb(4,8,11)" stroke="rgb(4,8,11)" stroke-width="1" opacity="0.6549019607843137" d="M 65.5 331 L 66.5 333 L 65.5 331 Z "></path><path fill="rgb(4,8,11)" stroke="rgb(4,8,11)" stroke-width="1" opacity="0.6549019607843137" d="M 161.5 331 L 160.5 333 L 161.5 331 Z "></path><path fill="rgb(4,8,11)" stroke="rgb(4,8,11)" stroke-width="1" opacity="0.6549019607843137" d="M 36.5 354 L 39.5 358 L 36.5 354 Z "></path><path fill="rgb(4,8,11)" stroke="rgb(4,8,11)" stroke-width="1" opacity="0.6549019607843137" d="M 196.5 354 L 193.5 358 L 196.5 354 Z "></path><path fill="rgb(0,0,0)" stroke="rgb(0,0,0)" stroke-width="1" opacity="0.00784313725490196" d="M 244.5 0 Q 256.9 -1.9 264 1.5 L 237.5 10 L 234.5 9 L 233 9.5 L 244.5 0 Z "></path><path fill="rgb(0,0,0)" stroke="rgb(0,0,0)" stroke-width="1" opacity="0.00784313725490196" d="M 224.5 4 L 226 4.5 L 220.5 7 L 221.5 5 L 224.5 4 Z "></path><path fill="rgb(0,0,0)" stroke="rgb(0,0,0)" stroke-width="1" opacity="0.00784313725490196" d="M 231.5 11 L 236 11.5 L 230.5 13 L 231.5 11 Z "></path><path fill="rgb(0,0,0)" stroke="rgb(0,0,0)" stroke-width="1" opacity="0.00784313725490196" d="M 228.5 13 L 224.5 18 L 228.5 13 Z "></path><path fill="rgb(0,0,0)" stroke="rgb(0,0,0)" stroke-width="1" opacity="0.00784313725490196" d="M 188.5 52 L 178.5 63 L 188.5 52 Z "></path><path fill="rgb(0,0,0)" stroke="rgb(0,0,0)" stroke-width="1" opacity="0.00784313725490196" d="M 173.5 67 L 166.5 75 L 173.5 67 Z "></path><path fill="rgb(0,0,0)" stroke="rgb(0,0,0)" stroke-width="1" opacity="0.00784313725490196" d="M 139.5 100 L 130.5 110 L 139.5 100 Z "></path><path fill="rgb(0,0,0)" stroke="rgb(0,0,0)" stroke-width="1" opacity="0.00784313725490196" d="M 124.5 115 L 117.5 123 L 124.5 115 Z "></path><path fill="rgb(0,0,0)" stroke="rgb(0,0,0)" stroke-width="1" opacity="0.00784313725490196" d="M 90.5 148 L 81.5 158 L 90.5 148 Z "></path><path fill="rgb(0,0,0)" stroke="rgb(0,0,0)" stroke-width="1" opacity="0.00784313725490196" d="M 394 149 L 400 152.5 L 400 160.5 L 398 167.5 L 394 173.5 L 393 178.5 L 387 186 L 385 186 Q 386.1 188.7 383.5 188 L 379 191 L 379 193 L 377 193 Q 378.1 195.7 375.5 195 Q 371.1 200.4 364 202 Q 365.1 204.7 362.5 204 Q 360.8 207.1 359 205.5 Q 359.8 207.8 357.5 207 L 348 214 L 345.5 218 Q 341.5 217.5 341 220.5 L 339.5 223 L 335 225 Q 336.1 227.7 333.5 227 L 332 230 L 328 232.5 L 326.5 235 L 321 239.5 L 319.5 242 L 318 242 Q 319.5 245.8 316.5 245 L 311 249.5 Q 311.8 251.8 309.5 251 L 308 255 L 303 257 Q 304.1 259.7 301.5 259 L 298.5 263 L 297 263 Q 298.5 266.7 295.5 266 L 290 270.5 L 288 273.5 L 287 276 L 282 278 Q 283.1 280.7 280.5 280 L 278 285 L 276 285 Q 277.1 287.7 274.5 287 L 271 289 Q 272.1 291.7 269.5 291 L 264.5 298 L 261 300.5 L 261 302 L 258 302 Q 259.1 304.7 256.5 304 L 252 310 L 247 313.5 Q 247.8 315.8 245.5 315 L 242 320 L 239 321.5 L 232.5 329 Q 230.3 328.3 231 330.5 L 226 334.5 Q 226.8 336.8 224.5 336 L 221 341 L 215 345.5 Q 215.8 347.8 213.5 347 L 210 352 L 205 355.5 Q 205.8 357.8 203.5 357 L 197.5 363 L 195.5 363 L 187.5 369 L 185.5 368 L 181.5 370 L 180.5 368 L 205 351 Q 203.9 348.3 206.5 349 L 211.5 343 L 199.5 353 L 201 350.5 L 207.5 342 L 225.5 327 L 339 214.5 L 341.5 211 L 344 209.5 Q 343.3 207.3 345.5 208 L 360.5 196 L 362.5 197 L 382 178.5 L 392 162.5 L 394 149 Z M 360 197 L 351 206 L 348 208 L 338 219 L 358 201 Q 360 202 359 199 L 361 199 Q 362 196 360 197 Z M 337 219 L 335 221 L 337 221 L 337 219 Z M 335 221 L 333 224 L 335 223 L 335 221 Z M 332 224 L 330 226 Q 327 225 328 228 L 328 229 Q 330 230 329 227 L 332 226 L 332 224 Z M 323 233 L 321 235 L 323 235 L 323 233 Z M 316 239 L 311 245 L 317 240 L 316 239 Z M 310 245 L 306 250 L 311 246 L 310 245 Z M 305 250 L 301 255 L 306 251 L 305 250 Z M 299 255 L 299 257 L 301 256 L 299 255 Z M 298 257 L 296 260 L 299 258 L 298 257 Z M 292 262 L 292 264 L 294 263 L 292 262 Z M 288 266 L 288 268 L 290 267 L 288 266 Z M 286 268 L 286 270 L 288 269 L 286 268 Z M 283 271 L 283 273 L 285 272 L 283 271 Z M 281 273 L 281 275 L 283 274 L 281 273 Z M 278 276 L 278 278 L 280 277 L 278 276 Z M 277 278 L 275 281 L 270 285 L 271 286 L 276 282 L 278 279 L 277 278 Z M 270 286 L 267 287 L 268 289 L 270 288 L 270 286 Z M 266 289 L 264 292 L 267 290 L 266 289 Z M 263 292 L 258 297 Q 257 299 260 298 L 264 293 L 263 292 Z M 257 298 L 253 303 L 258 299 L 257 298 Z M 251 303 L 251 305 L 253 304 L 251 303 Z M 250 305 L 248 308 L 251 306 L 250 305 Z M 246 308 L 246 310 L 248 309 L 246 308 Z M 245 310 L 242 314 L 246 311 L 245 310 Z M 241 314 L 239 317 L 242 315 L 241 314 Z M 237 317 L 237 319 L 239 318 L 237 317 Z M 236 319 L 232 324 L 237 320 L 236 319 Z M 231 324 L 223 333 L 232 325 L 231 324 Z M 222 333 L 220 335 L 222 335 L 222 333 Z M 220 335 L 218 338 L 220 337 L 220 335 Z M 217 338 L 212 341 L 213 343 L 217 340 L 217 338 Z "></path><path fill="rgb(0,0,0)" stroke="rgb(0,0,0)" stroke-width="1" opacity="0.00784313725490196" d="M 389.5 156 L 390 158.5 L 387 167.5 L 376 183 L 374.5 183 L 363.5 194 L 371 185.5 Q 382.2 172.7 389.5 156 Z "></path><path fill="rgb(0,0,0)" stroke="rgb(0,0,0)" stroke-width="1" opacity="0.00784313725490196" d="M 75.5 163 L 68.5 171 L 75.5 163 Z "></path><path fill="rgb(0,0,0)" stroke="rgb(0,0,0)" stroke-width="1" opacity="0.00784313725490196" d="M 19.5 332 L 28 344.5 L 28 347.5 L 32 356.5 L 40.5 367 L 52.5 374 L 65.5 376 L 81 382.5 L 77.5 383 L 76 382.5 Q 76.8 384.8 74.5 384 L 70.5 383 L 68.5 384 L 65.5 383 L 63.5 384 L 59.5 382 L 56.5 383 L 41.5 376 L 39 377 L 39 374 L 36 374 Q 37.1 371.3 34.5 372 L 28 367.5 L 21 352.5 L 18 336.5 L 19.5 332 Z "></path><path fill="rgb(0,0,0)" stroke="rgb(0,0,0)" stroke-width="1" opacity="0.00784313725490196" d="M 34.5 353 Q 44.1 363.9 57 371.5 L 55.5 371 L 50.5 370 L 40 363 L 40 361 Q 37.3 362.1 38 359.5 L 34 354.5 L 34.5 353 Z "></path><path fill="rgb(0,0,0)" stroke="rgb(0,0,0)" stroke-width="1" opacity="0.00784313725490196" d="M 112.5 388 L 115 388.5 L 112.5 389 L 112.5 388 Z "></path><path fill="rgb(0,0,0)" stroke="rgb(0,0,0)" stroke-width="1" opacity="0.00784313725490196" d="M 118.5 388 L 121 388.5 L 118.5 389 L 118.5 388 Z "></path></svg>