<svg width="400" height="400" version="1.1" xmlns="http://www.w3.org/2000/svg" desc="Created with imagetracer.js version 1.2.5"><path fill="rgb(46,48,61)" stroke="rgb(46,48,61)" stroke-width="1" opacity="0.9568627450980393" d="M 159 70 L 230.5 70 L 231 71.5 L 230 72.5 L 229 89.5 L 226.5 92 L 204.5 92 Q 202.7 94.7 196.5 93 L 194 95.5 Q 188.6 102.1 187 112.5 L 184.5 115 L 164.5 120 L 159.5 120 L 157 116.5 L 157 96.5 L 154 83.5 L 157 75 Q 160.3 73.7 159 78.5 L 163 99.5 L 163 114 L 177.5 111 L 182 108.5 L 191 89 L 195.5 87 L 213.5 87 L 214.5 86 L 224 86 L 224 77.5 L 222.5 76 L 158 72.5 L 159 70 Z "></path><path fill="rgb(46,48,61)" stroke="rgb(46,48,61)" stroke-width="1" opacity="0.9568627450980393" d="M 296.5 71 L 300.5 74 L 305.5 73 L 310.5 74 L 314 76.5 L 315 78.5 L 315 97.5 L 313 103 L 310.5 104 L 295.5 104 Q 291.5 102.5 293 95.5 L 295 88.5 L 295 80.5 Q 292.5 79 294 73.5 L 296.5 71 Z M 300 79 L 299 98 Q 301 101 308 99 L 309 98 L 309 81 L 308 79 L 300 79 Z "></path><path fill="rgb(46,48,61)" stroke="rgb(46,48,61)" stroke-width="1" opacity="0.9568627450980393" d="M 37.5 75 L 40 75.5 L 37.5 76 L 37.5 75 Z "></path><path fill="rgb(46,48,61)" stroke="rgb(46,48,61)" stroke-width="1" opacity="0.9568627450980393" d="M 79 77 L 88.5 84 L 112 97.5 L 112 102.5 L 110 108.5 L 102 124.5 L 98 139.5 L 95.5 144 L 90.5 145 L 73.5 142 L 34.5 142 L 33 140.5 L 27 120.5 L 24 116.5 L 24 108.5 Q 24.8 106.3 28.5 107 L 40.5 115 L 51.5 98 L 58.5 96 L 58 97.5 L 44.5 121 L 39.5 121 L 31 116 L 36 132.5 L 38.5 136 L 40.5 137 L 78.5 137 L 79.5 138 L 92 139 L 96 124.5 L 104 108.5 L 106 100.5 L 87.5 90 L 77 81.5 L 79 77 Z "></path><path fill="rgb(46,48,61)" stroke="rgb(46,48,61)" stroke-width="1" opacity="0.9568627450980393" d="M 8.5 81 L 10.5 84 L 8.5 81 Z "></path><path fill="rgb(46,48,61)" stroke="rgb(46,48,61)" stroke-width="1" opacity="0.9568627450980393" d="M 240.5 105 Q 247.5 103.5 249 107.5 L 249 115.5 L 250 116.5 L 253 147.5 L 249.5 152 L 231.5 152 L 230.5 153 L 217.5 153 L 216.5 154 L 200.5 155 L 198 152.5 L 197 137.5 L 198 135 L 205.5 131 L 225 112.5 L 227.5 108 L 240.5 105 Z M 239 111 L 232 114 L 210 135 L 205 138 L 203 140 L 203 149 L 221 148 L 222 147 L 243 147 L 247 146 L 246 129 L 244 122 L 244 113 Q 243 110 239 111 Z "></path><path fill="rgb(46,48,61)" stroke="rgb(46,48,61)" stroke-width="1" opacity="0.9568627450980393" d="M 296.5 119 L 310.5 120 L 314 123.5 L 316 131.5 L 317 149.5 L 315 153 L 304 156 Q 305 152.2 302.5 151 L 293.5 153 L 292 151.5 L 291 124.5 L 294.5 120 L 296.5 119 Z M 297 125 L 298 150 L 309 150 L 311 148 L 311 137 L 309 127 L 308 125 L 297 125 Z "></path><path fill="rgb(46,48,61)" stroke="rgb(46,48,61)" stroke-width="1" opacity="0.9568627450980393" d="M 63.5 192 L 70.5 197 Q 71.8 193.8 77.5 195 L 97.5 201 L 103.5 201 L 106 203.5 L 106 214.5 L 107 221 L 101 223 L 101 208.5 L 98.5 206 L 94.5 206 L 78.5 201 L 73.5 201 L 70.5 203 L 67 202 L 67 215.5 L 68.5 217 Q 81.2 223.8 90 234.5 L 98 245 L 101 244.5 L 101 228.5 L 104 230.5 L 107 234.5 L 106 235.5 L 106 256.5 L 103.5 259 L 100 258 L 94 247.5 L 76.5 229 L 62 220 L 61 217.5 L 61 200.5 L 58 196.5 L 63.5 192 Z "></path><path fill="rgb(46,48,61)" stroke="rgb(46,48,61)" stroke-width="1" opacity="0.9568627450980393" d="M 26.5 224 L 39.5 224 L 47 230.5 L 67.5 256 L 74 259 L 75 264.5 L 74 265.5 L 74 274.5 L 70.5 278 L 57.5 279 L 56.5 280 L 32.5 280 L 27.5 279 L 25 276.5 L 24 273.5 L 24 258.5 L 23 257.5 L 23 230.5 L 24 226.5 L 26.5 224 Z M 31 229 L 29 231 L 29 262 L 30 263 L 30 273 L 32 274 L 60 274 Q 61 272 67 273 L 68 272 L 68 264 Q 54 251 43 235 Q 41 228 31 229 Z "></path><path fill="rgb(46,48,61)" stroke="rgb(46,48,61)" stroke-width="1" opacity="0.9568627450980393" d="M 295.5 278 L 309.5 278 L 323.5 282 L 330 286.5 L 331.5 290 L 332 287 L 340 292.5 L 338.5 292 L 333.5 290 L 320 301.5 L 316 309.5 Q 307.8 316.3 303 326.5 L 304 327.5 L 304 338.5 L 304 340.5 L 304 348.5 L 295 370.5 Q 288.5 381.5 278.5 389 L 272.5 392 L 271 391.5 Q 271.8 393.8 269.5 393 L 268 392.5 L 266.5 395 L 260.5 397 Q 259 394.5 257.5 398 Q 252.2 397.2 250.5 400 L 235.5 400 L 232.5 398 L 227.5 398 L 221.5 396 L 213 391.5 L 228.5 377 L 225 381.5 Q 225.8 383.8 223.5 383 L 224.5 385 L 229.5 387 L 237.5 387 L 238.5 388 Q 242.1 385.1 249.5 386 L 263.5 381 L 283 368.5 L 289 356.5 L 290 344.5 L 289 343.5 L 289 335.5 L 287 333.5 L 288 329.5 L 286 327.5 L 284 319 L 281 317.5 Q 281.8 315.3 279.5 316 Q 277.7 312.8 272.5 313 L 269 315.5 L 265 323.5 L 264 332 L 258 334.5 L 260 340.5 L 259.5 342 L 261.5 341 L 261 342.5 Q 261.8 344.8 259.5 344 Q 252.3 352.9 240 356 L 238.5 360 L 238 358.5 L 242 347.5 L 242 327.5 L 241 325.5 Q 245 323.3 245 318 Q 248 319.3 247 315.5 L 255 307.5 L 255 305 Q 257.7 306.1 257 303.5 L 261 297 L 264 295.5 Q 263.3 293.3 265.5 294 Q 268.3 289.8 274.5 289 L 276.5 290 L 274.5 287 L 273 286.5 L 280.5 282 L 291.5 280 L 295.5 278 Z "></path><path fill="rgb(46,48,61)" stroke="rgb(46,48,61)" stroke-width="1" opacity="0.9568627450980393" d="M 237.5 279 L 238.5 281 L 237.5 279 Z "></path><path fill="rgb(46,48,61)" stroke="rgb(46,48,61)" stroke-width="1" opacity="0.9568627450980393" d="M 246.5 280 L 247 282.5 L 246 282.5 L 246.5 280 Z "></path><path fill="rgb(46,48,61)" stroke="rgb(46,48,61)" stroke-width="1" opacity="0.9568627450980393" d="M 148.5 288 L 149.5 290 L 148.5 288 Z "></path><path fill="rgb(46,48,61)" stroke="rgb(46,48,61)" stroke-width="1" opacity="0.9568627450980393" d="M 247.5 288 L 248 290.5 L 247 290.5 L 247.5 288 Z "></path><path fill="rgb(46,48,61)" stroke="rgb(46,48,61)" stroke-width="1" opacity="0.9568627450980393" d="M 209.5 308 Q 223.6 307.9 228 317.5 L 229 323 Q 232.3 321.7 231 326.5 L 232 327.5 L 232 337.5 L 233 338.5 L 233 340.5 Q 233.8 346.3 231.5 349 L 231 341.5 L 226 331 L 220.5 328 L 211.5 328 L 207.5 329 L 202 334.5 Q 197.2 341.9 199 355 L 180.5 365 L 177.5 365 L 171 370 L 170 374.5 L 171.5 376 L 194.5 376 L 199 374 L 199.5 372 L 201.5 372 L 205.5 370 L 209.5 373 L 220 373.5 L 213.5 379 L 210 379 Q 211.1 381.7 208.5 381 L 204.5 384 L 194.5 388 L 187.5 389 L 185.5 391 L 183.5 391 L 167.5 392 Q 158.9 390.1 154 384.5 L 151 379.5 L 151.5 378 Q 148.5 378.9 150 374.5 L 149 372 L 153 372 L 153 358.5 L 154.5 358 L 165.5 353 L 179.5 349 L 183.5 349 L 192 342.5 L 194 339.5 L 197 334.5 L 197 330.5 L 200 324.5 L 201 317 Q 203.7 318.1 203 315.5 L 202 314.5 L 205.5 311 L 208.5 309 L 209.5 308 Z M 165 377 L 166 380 L 198 380 L 198 377 L 165 377 Z "></path><path fill="rgb(46,48,61)" stroke="rgb(46,48,61)" stroke-width="1" opacity="0.9568627450980393" d="M 214.5 336 L 218 337.5 L 221 345.5 L 221 347.5 Q 222.5 353 220 354.5 L 221 356.5 L 216.5 365 Q 211.7 366.3 213 363 Q 215.7 364.1 215 361.5 L 219 355.5 L 219 350.5 L 219 348.5 L 215.5 343 L 210 344 L 209.5 347 L 209 344.5 L 212 337 L 214.5 336 Z "></path><path fill="rgb(46,48,61)" stroke="rgb(46,48,61)" stroke-width="1" opacity="0.9568627450980393" d="M 362.5 336 L 363 341.5 L 362 341.5 L 362.5 336 Z "></path><path fill="rgb(46,48,61)" stroke="rgb(46,48,61)" stroke-width="1" opacity="0.9568627450980393" d="M 209.5 354 L 210 356.5 L 209 356.5 L 209.5 354 Z "></path><path fill="rgb(46,48,61)" stroke="rgb(46,48,61)" stroke-width="1" opacity="0.9568627450980393" d="M 237.5 361 L 238 362.5 L 233.5 370 L 234 368.5 L 237.5 361 Z "></path><path fill="rgb(46,48,61)" stroke="rgb(46,48,61)" stroke-width="1" opacity="0.9568627450980393" d="M 232.5 371 L 232 372.5 L 229.5 376 L 231 373.5 L 232.5 371 Z "></path><path fill="rgb(46,48,61)" stroke="rgb(46,48,61)" stroke-width="1" opacity="0.9568627450980393" d="M 343 381 L 345 381.5 L 343 382.5 L 343 381 Z "></path><path fill="rgb(46,48,61)" stroke="rgb(46,48,61)" stroke-width="1" opacity="0.9568627450980393" d="M 336.5 386 L 339 386.5 L 326.5 395 L 317.5 398 L 313.5 398 L 310.5 400 L 302.5 400 L 302.5 399 L 308.5 399 L 315.5 397 L 331.5 390 L 336.5 386 Z "></path><path fill="rgb(46,48,61)" stroke="rgb(46,48,61)" stroke-width="1" opacity="0.9568627450980393" d="M 292.5 398 L 301 399.5 L 294.5 400 L 292.5 398 Z "></path><path fill="rgb(53,54,58)" stroke="rgb(53,54,58)" stroke-width="1" opacity="0.2235294117647059" d="M 294.5 69 Q 299.5 68 300.5 71 L 311.5 72 L 315 74 L 317 79.5 L 317 96.5 L 314 105 L 311.5 106 L 295.5 106 L 291 102.5 L 292 89.5 L 293 88.5 L 293 78.5 Q 290.5 77 292 71.5 L 294.5 69 Z M 297 71 L 294 74 Q 293 79 295 81 L 295 89 L 293 96 Q 292 103 296 104 L 311 104 L 313 103 L 315 98 L 315 79 L 314 77 L 311 74 L 306 73 L 301 74 L 297 71 Z "></path><path fill="rgb(53,54,58)" stroke="rgb(53,54,58)" stroke-width="1" opacity="0.2235294117647059" d="M 231 70 Q 233.7 68.9 233 71.5 L 231 79.5 L 232 82.5 L 231 90.5 L 228.5 93 L 226.5 94 L 203.5 94 Q 202.3 96.3 197.5 95 L 196 96.5 Q 190.1 102.6 189 113.5 L 186.5 116 L 164.5 122 L 158.5 122 L 155 117.5 L 155 97.5 L 153 86.5 L 154.5 84 L 157 96.5 L 157 116.5 L 159.5 120 L 164.5 120 L 177.5 116 L 181.5 116 L 187 112.5 Q 188.9 99.9 196.5 93 Q 202.7 94.7 204.5 92 L 226.5 92 L 229 89.5 L 230 72.5 L 231 70 Z "></path><path fill="rgb(53,54,58)" stroke="rgb(53,54,58)" stroke-width="1" opacity="0.2235294117647059" d="M 158 73 L 222.5 76 L 224 77.5 L 224 86 L 214.5 86 L 213.5 87 L 195.5 87 L 191 89 L 180.5 110 L 163 114 L 163 99.5 L 160 85.5 L 160 79.5 L 158 73 Z M 161 74 L 164 93 L 166 112 L 181 108 L 182 102 L 189 90 L 196 85 L 214 85 L 215 84 Q 220 83 222 85 L 222 78 L 180 76 L 179 75 L 164 75 L 161 74 Z "></path><path fill="rgb(53,54,58)" stroke="rgb(53,54,58)" stroke-width="1" opacity="0.2235294117647059" d="M 80 75 L 84 77.5 Q 83.3 79.8 85.5 79 L 103.5 91 L 110.5 93 L 114 96.5 L 114 102.5 L 112 109.5 L 104 124.5 L 99 139.5 L 99 143.5 L 96.5 146 L 91.5 147 L 75.5 144 L 33.5 144 L 31 141.5 L 26 123.5 L 21 113.5 L 22 111.5 L 21 109.5 L 24.5 105 L 31.5 106 L 38.5 112 L 41 112 L 48.5 99 L 50.5 98 L 49 100.5 L 40.5 115 L 32.5 109 L 25.5 107 L 24 108.5 L 24 116.5 L 27 120.5 L 32 138.5 L 34.5 142 L 73.5 142 L 74.5 143 L 92.5 145 L 97 142.5 Q 100.8 122.8 110 108.5 L 112 102.5 L 112 97.5 L 88.5 84 L 80 76.5 L 80 75 Z "></path><path fill="rgb(53,54,58)" stroke="rgb(53,54,58)" stroke-width="1" opacity="0.2235294117647059" d="M 300 79 L 307.5 79 L 309 80.5 L 309 97.5 L 307.5 99 Q 300.7 100.8 299 97.5 L 300 79 Z M 302 81 L 302 92 L 301 93 L 301 97 L 307 97 L 307 82 L 302 81 Z "></path><path fill="rgb(53,54,58)" stroke="rgb(53,54,58)" stroke-width="1" opacity="0.2235294117647059" d="M 76 82 L 106 100.5 L 104 108.5 L 96 124.5 L 92 139 L 79.5 138 L 78.5 137 L 40.5 137 L 37 134.5 L 31 116 L 39.5 121 L 44.5 121 Q 50.4 105.9 60.5 95 L 62.5 94 L 63 95.5 L 54 106.5 L 45.5 123 Q 38.2 123.6 35 121 L 39 135 L 78.5 135 L 91 137 L 94 124.5 L 102 108.5 L 104 101.5 L 85.5 91 L 76 83.5 L 76 82 Z "></path><path fill="rgb(53,54,58)" stroke="rgb(53,54,58)" stroke-width="1" opacity="0.2235294117647059" d="M 240.5 103 Q 248.8 101.7 251 106.5 L 252 131.5 L 251 131.5 L 249 107.5 L 246.5 105 L 229.5 107 L 226 109.5 L 222.5 115 L 205.5 131 L 198 135 Q 195.8 138.6 197 147.5 L 198 152.5 L 200.5 155 L 216.5 154 L 217.5 153 L 230.5 153 L 231.5 152 L 249.5 152 L 251.5 150 L 252 153 L 249.5 154 L 227.5 154 L 226.5 155 L 200.5 157 L 196 153.5 L 195 136.5 L 197.5 133 Q 206.2 130.2 211 123.5 L 218.5 115 L 224 110.5 Q 222.5 106.1 225.5 107 L 240.5 103 Z "></path><path fill="rgb(53,54,58)" stroke="rgb(53,54,58)" stroke-width="1" opacity="0.2235294117647059" d="M 238.5 111 Q 243 110 244 112.5 L 244 121.5 L 246 128.5 L 247 146 L 242.5 147 L 221.5 147 L 220.5 148 L 203 149 L 203 139.5 L 204.5 138 L 209.5 135 L 231.5 114 L 238.5 111 Z M 239 113 L 234 115 L 223 125 L 221 125 L 221 127 Q 218 126 219 129 L 204 142 L 205 147 L 220 146 L 221 145 L 238 145 L 239 144 L 241 145 L 245 145 L 244 129 L 242 122 L 242 113 L 239 113 Z "></path><path fill="rgb(53,54,58)" stroke="rgb(53,54,58)" stroke-width="1" opacity="0.2235294117647059" d="M 296.5 117 L 298.5 118 L 301.5 117 L 303.5 118 L 306.5 117 L 311.5 118 L 315 121.5 L 318 131.5 L 319 149.5 L 313.5 156 L 305 158 Q 303.8 155 307.5 156 L 315 153 L 317 149.5 L 317 142.5 L 316 141.5 L 315 126.5 L 310.5 120 L 296.5 119 L 292 122.5 L 291 124.5 L 291 136.5 L 292 137.5 L 292 151.5 L 294 155.5 L 292.5 156 L 290 152.5 L 289 123.5 L 293.5 118 L 296.5 117 Z "></path><path fill="rgb(53,54,58)" stroke="rgb(53,54,58)" stroke-width="1" opacity="0.2235294117647059" d="M 297 125 L 307.5 125 L 309 126.5 L 311 136.5 L 311 147.5 L 308.5 150 L 298 150 L 297 125 Z M 299 127 L 299 143 L 300 148 L 303 149 L 306 148 L 309 148 L 309 139 L 309 137 L 307 129 L 307 127 L 299 127 Z "></path><path fill="rgb(53,54,58)" stroke="rgb(53,54,58)" stroke-width="1" opacity="0.2235294117647059" d="M 61.5 190 L 65.5 190 L 70.5 194 Q 71.8 191.8 76.5 193 L 97.5 199 L 103.5 199 L 108 202.5 Q 106.6 214.1 109 220 Q 105.3 221.3 107 215.5 L 106 214.5 L 106 203.5 L 103.5 201 L 97.5 201 L 77.5 195 L 72.5 195 Q 71 198.5 69.5 196 L 63.5 192 L 58 196.5 L 61 200.5 L 61 217.5 L 62 220 Q 76.2 226.6 86 238.5 L 98 252.5 L 100 258 L 103.5 259 L 106 256.5 L 106 235 L 108 235.5 L 108 256.5 L 104.5 261 Q 99.4 261.6 98 258.5 L 97 254.5 L 82 236 L 80 236 Q 81.1 233.3 78.5 234 Q 70.9 225.3 60 221 L 59 218.5 L 59 201 L 56 199.5 Q 54.8 194.3 57.5 193 L 61.5 190 Z "></path><path fill="rgb(53,54,58)" stroke="rgb(53,54,58)" stroke-width="1" opacity="0.2235294117647059" d="M 73.5 201 L 78.5 201 L 94.5 206 L 98.5 206 L 101 208.5 L 101 223.5 L 99 224 L 99 208.5 Q 99 207.5 94.5 208 L 83.5 204 L 75.5 203 L 70.5 205 L 69 204.5 L 69 214.5 L 70.5 216 L 88 229.5 L 89.5 232 Q 91.8 231.3 91 233.5 L 97.5 241 L 99 240.5 L 98 238.5 L 99 237.5 L 99.5 225 L 101 226.5 L 101 245 Q 97.3 246.5 98 243.5 L 80.5 225 L 67 215.5 L 67 202.5 L 69.5 202 L 71.5 203 L 73.5 201 Z "></path><path fill="rgb(53,54,58)" stroke="rgb(53,54,58)" stroke-width="1" opacity="0.2235294117647059" d="M 25.5 222 L 40.5 222 L 44 224.5 L 46 227.5 L 70.5 256 L 77 260.5 L 78 263.5 L 76 266.5 L 75 276.5 L 72.5 279 L 59.5 282 L 31.5 282 L 25.5 280 L 23 277.5 L 22 258.5 L 21 257.5 L 21 232.5 Q 23.5 231 22 225.5 L 25.5 222 Z M 27 224 L 24 227 L 23 231 L 23 258 L 24 259 L 24 274 L 25 277 L 28 279 L 33 280 L 57 280 L 58 279 L 71 278 L 74 275 L 74 266 L 75 265 L 74 259 L 68 256 L 47 231 L 40 224 L 27 224 Z "></path><path fill="rgb(53,54,58)" stroke="rgb(53,54,58)" stroke-width="1" opacity="0.2235294117647059" d="M 30.5 229 Q 40.9 227.6 43 234.5 Q 53.7 250.8 68 263.5 L 68 271.5 L 66.5 273 Q 61 271.5 59.5 274 L 31.5 274 L 30 272.5 L 30 262.5 L 29 261.5 L 29 230.5 L 30.5 229 Z M 31 231 L 31 262 L 32 263 L 32 272 L 60 272 L 66 271 L 67 266 Q 53 253 43 238 L 37 231 L 31 231 Z "></path><path fill="rgb(53,54,58)" stroke="rgb(53,54,58)" stroke-width="1" opacity="0.2235294117647059" d="M 168.5 278 L 172 278.5 L 159.5 282 L 159.5 281 L 168.5 278 Z "></path><path fill="rgb(53,54,58)" stroke="rgb(53,54,58)" stroke-width="1" opacity="0.2235294117647059" d="M 190.5 278 L 203 281.5 L 201.5 282 L 190.5 279 L 190.5 278 Z "></path><path fill="rgb(53,54,58)" stroke="rgb(53,54,58)" stroke-width="1" opacity="0.2235294117647059" d="M 230.5 278 L 234 278.5 L 221.5 282 L 221.5 281 L 230.5 278 Z "></path><path fill="rgb(53,54,58)" stroke="rgb(53,54,58)" stroke-width="1" opacity="0.2235294117647059" d="M 252.5 278 L 262.5 280 L 273.5 285 L 279.5 282 L 279.5 283 L 271.5 286 Q 264.1 280.4 252.5 279 L 252.5 278 Z "></path><path fill="rgb(53,54,58)" stroke="rgb(53,54,58)" stroke-width="1" opacity="0.2235294117647059" d="M 290.5 278 L 295 278.5 L 281.5 282 L 282.5 280 L 290.5 278 Z "></path><path fill="rgb(53,54,58)" stroke="rgb(53,54,58)" stroke-width="1" opacity="0.2235294117647059" d="M 310.5 278 L 322.5 280 L 329 284.5 L 327.5 284 Q 320.8 279.7 310.5 279 L 310.5 278 Z "></path><path fill="rgb(53,54,58)" stroke="rgb(53,54,58)" stroke-width="1" opacity="0.2235294117647059" d="M 349.5 278 L 352 278.5 L 342.5 281 L 342.5 280 L 349.5 278 Z "></path><path fill="rgb(53,54,58)" stroke="rgb(53,54,58)" stroke-width="1" opacity="0.2235294117647059" d="M 369.5 278 L 371.5 279 L 373.5 279 L 375 279.5 L 371.5 280 L 369.5 278 Z "></path><path fill="rgb(53,54,58)" stroke="rgb(53,54,58)" stroke-width="1" opacity="0.2235294117647059" d="M 334.5 283 L 336 283.5 L 332.5 285 L 332.5 284 L 334.5 283 Z "></path><path fill="rgb(53,54,58)" stroke="rgb(53,54,58)" stroke-width="1" opacity="0.2235294117647059" d="M 208.5 284 L 213.5 285 L 215.5 284 L 215.5 285 L 210.5 286 L 208.5 284 Z "></path><path fill="rgb(53,54,58)" stroke="rgb(53,54,58)" stroke-width="1" opacity="0.2235294117647059" d="M 391.5 286 Q 393.8 285.3 393 287.5 L 391.5 286 Z "></path><path fill="rgb(53,54,58)" stroke="rgb(53,54,58)" stroke-width="1" opacity="0.2235294117647059" d="M 146.5 288 L 144.5 291 L 133 301.5 L 130.5 305 L 132 302.5 L 137.5 295 L 141 292.5 Q 140.3 290.3 142.5 291 L 146.5 288 Z "></path><path fill="rgb(53,54,58)" stroke="rgb(53,54,58)" stroke-width="1" opacity="0.2235294117647059" d="M 129.5 306 L 129 307.5 L 125.5 314 L 125 312.5 L 129.5 306 Z "></path><path fill="rgb(53,54,58)" stroke="rgb(53,54,58)" stroke-width="1" opacity="0.2235294117647059" d="M 124.5 315 L 125 316.5 L 120.5 330 L 120 326.5 L 124.5 315 Z "></path><path fill="rgb(53,54,58)" stroke="rgb(53,54,58)" stroke-width="1" opacity="0.2235294117647059" d="M 120.5 348 L 125 362.5 L 124 362.5 L 122 359.5 L 120.5 348 Z "></path><path fill="rgb(53,54,58)" stroke="rgb(53,54,58)" stroke-width="1" opacity="0.2235294117647059" d="M 125.5 364 Q 132.3 378.7 144.5 388 L 147 389.5 L 145.5 389 L 141 387 L 138.5 383 L 136 381.5 L 127 369.5 L 125.5 364 Z "></path><path fill="rgb(53,54,58)" stroke="rgb(53,54,58)" stroke-width="1" opacity="0.2235294117647059" d="M 399.5 385 L 398.5 387 L 399.5 385 Z "></path><path fill="rgb(53,54,58)" stroke="rgb(53,54,58)" stroke-width="1" opacity="0.2235294117647059" d="M 148.5 390 L 154 393.5 L 152.5 394 L 148 392 L 148.5 390 Z "></path><path fill="rgb(53,54,58)" stroke="rgb(53,54,58)" stroke-width="1" opacity="0.2235294117647059" d="M 212.5 391 L 221.5 396 L 235 399.5 L 230.5 400 L 222.5 398 L 216.5 394 L 210.5 393 L 208.5 394 L 208.5 393 L 212.5 391 Z "></path><path fill="rgb(53,54,58)" stroke="rgb(53,54,58)" stroke-width="1" opacity="0.2235294117647059" d="M 271.5 392 L 280 395.5 L 278.5 396 L 272.5 393 Q 264.5 399 251.5 400 L 251.5 399 L 264.5 396 L 271.5 392 Z "></path><path fill="rgb(53,54,58)" stroke="rgb(53,54,58)" stroke-width="1" opacity="0.2235294117647059" d="M 328.5 393 L 331 393.5 L 327.5 395 L 328.5 393 Z "></path><path fill="rgb(53,54,58)" stroke="rgb(53,54,58)" stroke-width="1" opacity="0.2235294117647059" d="M 157.5 395 L 171 399.5 L 168.5 400 L 160.5 398 L 157.5 395 Z "></path><path fill="rgb(53,54,58)" stroke="rgb(53,54,58)" stroke-width="1" opacity="0.2235294117647059" d="M 324.5 395 L 326 395.5 L 322.5 398 L 311.5 400 L 311.5 399 L 324.5 395 Z "></path><path fill="rgb(53,54,58)" stroke="rgb(53,54,58)" stroke-width="1" opacity="0.2235294117647059" d="M 201.5 396 L 203 396.5 L 201.5 398 L 191.5 400 L 191.5 399 L 201.5 396 Z "></path><path fill="rgb(53,54,58)" stroke="rgb(53,54,58)" stroke-width="1" opacity="0.2235294117647059" d="M 281.5 396 L 294 399.5 L 290.5 400 L 282.5 398 L 281.5 396 Z "></path><path fill="rgb(0,0,0)" stroke="rgb(0,0,0)" stroke-width="1" opacity="0" d="M 28 0 L 49 0 L 49 48 L 28 48 L 28 0 Z "></path><path fill="rgb(0,0,0)" stroke="rgb(0,0,0)" stroke-width="1" opacity="0" d="M 119 0 L 145.5 0 L 146 1.5 L 133 42 Q 129.7 43.3 131 38.5 L 119 0 Z "></path><path fill="rgb(0,0,0)" stroke="rgb(0,0,0)" stroke-width="1" opacity="0" d="M 183 0 L 400 0 L 400 292 L 393 288 Q 394.3 285 390.5 286 L 381 282 L 380.5 280 L 378.5 281 L 372.5 278 L 370.5 278 L 349.5 278 L 332 284 L 332 187.5 L 330.5 187 L 313.5 192 L 307 168.5 L 391 168 L 391 48 L 275.5 48 L 276 46.5 L 274.5 44 Q 270 43 269 45.5 L 269.5 51 L 271 50.5 L 271 167.5 L 271.5 168 L 296.5 168 L 297 170.5 L 303 194 L 285.5 198 L 284 199.5 L 329 283.5 L 327.5 283 L 322.5 280 L 314.5 278 L 290.5 278 L 282.5 280 L 272.5 285 L 255.5 278 L 246 278 L 235 192 L 216 199 L 205 168 L 261 168 L 261 48 L 167 47.5 L 179 16.5 L 183 4.5 L 183 0 Z "></path><path fill="rgb(0,0,0)" stroke="rgb(0,0,0)" stroke-width="1" opacity="0" d="M 85.5 17 L 96 48 L 85 48 L 85.5 17 Z "></path><path fill="rgb(0,0,0)" stroke="rgb(0,0,0)" stroke-width="1" opacity="0" d="M 29 58 L 47.5 58 L 48 61.5 L 44.5 67 Q 41.3 69.3 34.5 68 L 31 65.5 L 29 58 Z "></path><path fill="rgb(0,0,0)" stroke="rgb(0,0,0)" stroke-width="1" opacity="0" d="M 85 58 L 99.5 58 L 100 60.5 L 112 93.5 L 110.5 93 L 103.5 91 L 84 79 L 81 72.5 L 85 58 Z "></path><path fill="rgb(0,0,0)" stroke="rgb(0,0,0)" stroke-width="1" opacity="0" d="M 163 58 L 252 58 L 252 117.5 L 251 117.5 L 251 106.5 L 248.5 104 L 240.5 103 L 224 107 Q 225 113.4 219.5 115 L 211 122.5 L 205.5 129 L 196 134.5 Q 193.5 138 195 145.5 Q 197.8 147.3 196 153.5 L 199 156.5 L 193.5 159 L 151 159 L 151 91.5 L 152.5 88 L 154 89.5 Q 152.3 95.8 155 97.5 L 155 117.5 L 158.5 122 L 164.5 122 L 172.5 119 L 184.5 117 L 189 113.5 Q 190.2 101.2 197.5 95 Q 202.3 96.3 203.5 94 L 226.5 94 L 231 90.5 L 232 82.5 L 231 79.5 L 233 70 L 159 69.5 L 163 58 Z "></path><path fill="rgb(0,0,0)" stroke="rgb(0,0,0)" stroke-width="1" opacity="0" d="M 281 58 L 382 58 L 382 159 L 305 158.5 L 313.5 156 L 318 151.5 Q 320.3 148.3 319 141.5 L 318 140.5 L 317 126.5 Q 315.8 120.8 311.5 118 L 306.5 117 L 302.5 117 L 300.5 118 L 297.5 117 Q 292 117.5 290 121.5 L 289 123.5 L 289 137.5 L 290 138.5 L 290 152.5 L 292.5 156 Q 295.5 155.3 294 159 L 281.5 159 L 281 158.5 L 281 58 Z M 295 69 L 292 72 Q 291 77 293 79 L 293 89 L 292 90 L 291 103 L 296 106 L 312 106 L 314 105 L 317 97 L 317 80 L 315 74 L 312 72 L 301 71 Q 300 68 295 69 Z "></path><path fill="rgb(0,0,0)" stroke="rgb(0,0,0)" stroke-width="1" opacity="0" d="M 161 74 L 163.5 75 L 178.5 75 L 179.5 76 L 222 78 L 221.5 85 Q 220 82.5 214.5 84 L 213.5 85 L 195.5 85 L 189 89.5 L 182 101.5 L 181 108 L 165.5 112 L 164 92.5 L 161 74 Z "></path><path fill="rgb(0,0,0)" stroke="rgb(0,0,0)" stroke-width="1" opacity="0" d="M 302 81 L 307 81.5 L 307 97 L 301 97 L 301 92.5 L 302 91.5 L 302 81 Z "></path><path fill="rgb(0,0,0)" stroke="rgb(0,0,0)" stroke-width="1" opacity="0" d="M 0.5 83 L 9.5 92 L 11 92 L 11 167.5 Q 8.2 169.2 9 174.5 L 11 174.5 L 11 292 L 131 292 L 131.5 266 L 148 287.5 L 141 291 L 138.5 295 L 136 296.5 L 127 308.5 L 121 322.5 L 120 326.5 L 120 351.5 Q 124.9 371.1 137.5 383 L 141 385.5 Q 140.3 387.8 142.5 387 L 148 390 Q 146.9 392.7 149.5 392 L 160.5 398 L 168 399.5 L 0 400 L 0.5 83 Z "></path><path fill="rgb(0,0,0)" stroke="rgb(0,0,0)" stroke-width="1" opacity="0" d="M 75.5 83 L 85.5 91 L 104 101.5 L 102 108.5 L 94 124.5 L 91 137 L 78.5 135 L 39 135 L 35 121 Q 38.2 123.6 45.5 123 Q 52.6 106.3 63 94 L 65 94 Q 63.9 91.3 66.5 92 L 75 84.5 L 75.5 83 Z "></path><path fill="rgb(0,0,0)" stroke="rgb(0,0,0)" stroke-width="1" opacity="0" d="M 21 97 L 27.5 99 L 48 99.5 L 41 112 L 38.5 112 L 31.5 106 L 24.5 105 L 21.5 109 L 21 97 Z "></path><path fill="rgb(0,0,0)" stroke="rgb(0,0,0)" stroke-width="1" opacity="0" d="M 114.5 97 L 122 99 L 122 158.5 L 121.5 159 L 103 159 L 100 150 L 91 153 L 92 159 L 21 159 L 21 115.5 L 22 115.5 L 26 123.5 L 31 141.5 L 33.5 144 L 75.5 144 L 76.5 145 L 93.5 147 L 99 143.5 Q 102.2 123.2 112 109.5 L 114.5 97 Z "></path><path fill="rgb(0,0,0)" stroke="rgb(0,0,0)" stroke-width="1" opacity="0" d="M 132.5 98 L 140.5 98 L 141 98.5 L 141 168 L 193.5 168 L 194 170.5 L 207 203 L 189 209 L 189 211.5 L 236 278 L 230.5 278 L 216.5 284 L 210.5 285 L 193.5 278 L 168.5 278 L 158.5 282 L 157 278.5 L 146 207.5 L 145 205 L 131 210 L 131 172 L 109.5 172 L 109 170.5 L 108 168 L 130.5 168 L 131 167.5 L 131 99.5 L 132.5 98 Z "></path><path fill="rgb(0,0,0)" stroke="rgb(0,0,0)" stroke-width="1" opacity="0" d="M 238.5 113 L 242 113 L 242 121.5 L 244 128.5 L 245 144.5 L 240.5 145 L 238.5 144 L 237.5 145 L 220.5 145 L 219.5 146 L 205 147 L 204 141.5 L 219 128.5 Q 218.3 125.9 221 127 L 221 125 L 222.5 125 L 233.5 115 L 238.5 113 Z "></path><path fill="rgb(0,0,0)" stroke="rgb(0,0,0)" stroke-width="1" opacity="0" d="M 299 127 L 306.5 127 L 307 128.5 L 309 136.5 L 309 138.5 L 309 148 L 305.5 148 L 302.5 149 L 300 148 L 299 142.5 L 299 127 Z "></path><path fill="rgb(0,0,0)" stroke="rgb(0,0,0)" stroke-width="1" opacity="0" d="M 250.5 153 L 252 153.5 L 252 159 L 201.5 159 L 200 157.5 L 216.5 156 L 217.5 155 L 226.5 155 L 227.5 154 L 249.5 154 L 250.5 153 Z "></path><path fill="rgb(0,0,0)" stroke="rgb(0,0,0)" stroke-width="1" opacity="0" d="M 15.5 168 L 96.5 168 L 97 169.5 L 98 172 L 15 171.5 L 16 169.5 L 15.5 168 Z "></path><path fill="rgb(0,0,0)" stroke="rgb(0,0,0)" stroke-width="1" opacity="0" d="M 21 182 L 102.5 182 L 103 183.5 L 115 209.5 L 117 217 L 109.5 220 L 108 216.5 L 108 202.5 L 105.5 200 L 97.5 199 L 76.5 193 L 71.5 193 L 69.5 194 Q 68.5 189 61.5 190 L 56 194.5 Q 54.8 199.8 57.5 201 L 59 201.5 L 59 218.5 L 60 221 L 66.5 224 L 80 234 L 80 236 Q 82.7 234.9 82 237.5 L 94 250.5 L 99.5 260 L 104.5 261 L 108 256.5 L 108.5 236 L 122 253.5 L 122 283 L 21.5 283 L 21 282.5 L 21 258.5 L 22 258.5 Q 19.8 273.2 25.5 280 L 31.5 282 L 59.5 282 L 70.5 280 L 75 276.5 L 76 266.5 L 78 262.5 L 73.5 257 L 70.5 256 L 63 248.5 L 46 226 Q 43.3 227.1 44 224.5 L 40.5 222 L 25.5 222 Q 20.5 224 21.5 232 L 21 182 Z "></path><path fill="rgb(0,0,0)" stroke="rgb(0,0,0)" stroke-width="1" opacity="0" d="M 114 182 L 122 182 L 122 199.5 L 121 199.5 L 114 182 Z "></path><path fill="rgb(0,0,0)" stroke="rgb(0,0,0)" stroke-width="1" opacity="0" d="M 75.5 203 L 99 208 L 99 237.5 L 98 239.5 L 98.5 241 L 95 238.5 L 91 232 L 88 230.5 L 84.5 226 L 69 214.5 L 69.5 204 L 72.5 205 L 75.5 203 Z "></path><path fill="rgb(0,0,0)" stroke="rgb(0,0,0)" stroke-width="1" opacity="0" d="M 31 231 L 36.5 231 L 43 237.5 Q 53.3 253.2 67 265.5 L 66 271 L 59.5 272 L 32 272 L 32 262.5 L 31 261.5 L 31 231 Z "></path><path fill="rgb(0,0,0)" stroke="rgb(0,0,0)" stroke-width="1" opacity="0" d="M 399.5 386 L 400 400 L 371 399.5 L 373.5 398 L 375.5 398 L 379.5 397 L 381 397.5 Q 380.2 394.9 383.5 396 L 393 392 Q 391.9 389.3 394.5 390 L 399.5 386 Z "></path><path fill="rgb(0,0,0)" stroke="rgb(0,0,0)" stroke-width="1" opacity="0" d="M 210.5 393 L 213.5 393 L 222.5 398 L 230 399.5 L 194.5 400 L 194.5 399 L 201.5 398 L 210.5 393 Z "></path><path fill="rgb(0,0,0)" stroke="rgb(0,0,0)" stroke-width="1" opacity="0" d="M 272.5 393 L 282.5 398 L 290 399.5 L 256.5 400 L 256.5 399 L 262.5 398 L 272.5 393 Z "></path><path fill="rgb(0,0,0)" stroke="rgb(0,0,0)" stroke-width="1" opacity="0" d="M 331.5 393 L 344.5 398 L 348.5 398 L 350 399.5 L 315.5 400 L 315.5 399 L 322.5 398 L 331.5 393 Z "></path><path fill="rgb(27,241,61)" stroke="rgb(27,241,61)" stroke-width="1" opacity="0.5254901960784314" d="M 270.5 44 Q 275 43 276 45.5 L 275 47.5 L 391 48.5 L 275.5 49 Q 274.4 46.3 271 47 L 269.5 51 L 269 45.5 L 270.5 44 Z "></path><path fill="rgb(27,241,61)" stroke="rgb(27,241,61)" stroke-width="1" opacity="0.5254901960784314" d="M 29.5 48 L 48 48.5 L 29.5 49 L 29.5 48 Z "></path><path fill="rgb(27,241,61)" stroke="rgb(27,241,61)" stroke-width="1" opacity="0.5254901960784314" d="M 85.5 48 L 96 48.5 L 85.5 49 L 85.5 48 Z "></path><path fill="rgb(27,241,61)" stroke="rgb(27,241,61)" stroke-width="1" opacity="0.5254901960784314" d="M 167.5 48 L 261 48.5 L 167.5 49 L 167.5 48 Z "></path><path fill="rgb(27,241,61)" stroke="rgb(27,241,61)" stroke-width="1" opacity="0.5254901960784314" d="M 29.5 57 L 48 57.5 L 29.5 58 L 29.5 57 Z "></path><path fill="rgb(27,241,61)" stroke="rgb(27,241,61)" stroke-width="1" opacity="0.5254901960784314" d="M 85.5 57 L 99 57.5 L 85.5 58 L 85.5 57 Z "></path><path fill="rgb(27,241,61)" stroke="rgb(27,241,61)" stroke-width="1" opacity="0.5254901960784314" d="M 164.5 57 L 253 57 L 253 138.5 L 252 138.5 L 252 58 L 164.5 58 L 164.5 57 Z "></path><path fill="rgb(27,241,61)" stroke="rgb(27,241,61)" stroke-width="1" opacity="0.5254901960784314" d="M 280 57 L 383 57 L 383 160 L 305 159.5 L 382 159 L 382 58 L 281 58 L 281 158.5 L 281.5 159 L 293.5 159 L 293.5 160 L 280.5 160 L 280 159.5 L 280 57 Z "></path><path fill="rgb(27,241,61)" stroke="rgb(27,241,61)" stroke-width="1" opacity="0.5254901960784314" d="M 150.5 94 L 151 159 L 191 159.5 L 150 160 L 150.5 94 Z "></path><path fill="rgb(27,241,61)" stroke="rgb(27,241,61)" stroke-width="1" opacity="0.5254901960784314" d="M 20.5 97 L 21 159 L 93 159.5 L 20 160 L 20.5 97 Z "></path><path fill="rgb(27,241,61)" stroke="rgb(27,241,61)" stroke-width="1" opacity="0.5254901960784314" d="M 122.5 99 L 123 160 L 104 159.5 L 122 159 L 122.5 99 Z "></path><path fill="rgb(27,241,61)" stroke="rgb(27,241,61)" stroke-width="1" opacity="0.5254901960784314" d="M 252.5 149 L 253 160 L 201 159.5 L 252 159 L 252.5 149 Z "></path><path fill="rgb(27,241,61)" stroke="rgb(27,241,61)" stroke-width="1" opacity="0.5254901960784314" d="M 10 168 Q 14.6 166.8 16 169.5 L 15 171.5 L 98 172.5 L 15.5 173 Q 14.4 170.3 11 171 L 9.5 175 L 9 170.5 L 10 168 Z "></path><path fill="rgb(27,241,61)" stroke="rgb(27,241,61)" stroke-width="1" opacity="0.5254901960784314" d="M 110.5 172 L 131 172.5 L 110.5 173 L 110.5 172 Z "></path><path fill="rgb(27,241,61)" stroke="rgb(27,241,61)" stroke-width="1" opacity="0.5254901960784314" d="M 20 181 L 102 181.5 L 21 182 L 21 283 L 122 283 L 122.5 255 L 123 284 L 20 284 L 20 181 Z "></path><path fill="rgb(27,241,61)" stroke="rgb(27,241,61)" stroke-width="1" opacity="0.5254901960784314" d="M 113.5 181 L 123 181 L 123 201.5 L 122 201.5 L 122 182 L 113.5 182 L 113.5 181 Z "></path><path fill="rgb(23,243,56)" stroke="rgb(23,243,56)" stroke-width="1" opacity="0.996078431372549" d="M 149.5 95 L 148.5 97 L 149.5 95 Z "></path><path fill="rgb(23,243,56)" stroke="rgb(23,243,56)" stroke-width="1" opacity="0.996078431372549" d="M 123.5 256 L 124.5 258 L 123.5 256 Z "></path><path fill="rgb(23,243,56)" stroke="rgb(23,243,56)" stroke-width="1" opacity="0.996078431372549" d="M 127.5 261 L 128.5 263 L 127.5 261 Z "></path><path fill="rgb(23,243,56)" stroke="rgb(23,243,56)" stroke-width="1" opacity="0.996078431372549" d="M 212.5 328 Q 223.4 327.6 227 334.5 L 230 341.5 L 231 352.5 L 229 362.5 L 222.5 371 L 212.5 373 L 204 368.5 Q 198.1 361.4 199 347.5 L 201 338.5 L 207.5 330 L 212.5 328 Z M 212 336 L 209 344 Q 208 354 210 362 Q 211 366 218 365 L 221 359 L 221 343 L 219 338 Q 217 334 212 336 Z "></path><path fill="rgb(23,243,56)" stroke="rgb(23,243,56)" stroke-width="1" opacity="0.996078431372549" d="M 145.5 329 L 152.5 329 L 153 329.5 L 153 372 L 144 372 L 144 338.5 L 141.5 338 L 135 341 L 134 334 L 145.5 329 Z "></path><path fill="rgb(23,243,56)" stroke="rgb(23,243,56)" stroke-width="1" opacity="0.996078431372549" d="M 268.5 329 L 277.5 329 L 278 329.5 L 278 372 L 268.5 372 L 268 371.5 L 268 338.5 L 266.5 339 L 260 341 L 259 334 L 268.5 329 Z "></path><path fill="rgb(23,243,56)" stroke="rgb(23,243,56)" stroke-width="1" opacity="0.996078431372549" d="M 337.5 329 L 346.5 329 L 347 329.5 L 347 372 L 337.5 372 L 337 371.5 L 337 338.5 L 335.5 339 L 329.5 342 L 327 334 L 337.5 329 Z "></path><path fill="rgb(23,243,56)" stroke="rgb(23,243,56)" stroke-width="1" opacity="0.996078431372549" d="M 165 377 L 197.5 377 L 198 380 L 165.5 380 L 165 377 Z "></path><path fill="rgb(23,243,56)" stroke="rgb(23,243,56)" stroke-width="1" opacity="0.996078431372549" d="M 290 377 L 322.5 377 L 323 380 L 290.5 380 L 290 377 Z "></path><path fill="rgb(28,242,61)" stroke="rgb(28,242,61)" stroke-width="1" opacity="1" d="M 271 47 Q 274.4 46.3 275.5 49 L 391 49 L 391 168 L 307 168 L 306 160 L 383 160 L 383 57 L 280 57 L 280 160 L 294.5 160 L 295 163.5 L 296 168 L 271.5 168 L 271 167.5 L 271 47 Z "></path><path fill="rgb(28,242,61)" stroke="rgb(28,242,61)" stroke-width="1" opacity="1" d="M 29 49 L 48 49 L 48 57 L 29 57 L 29 49 Z "></path><path fill="rgb(28,242,61)" stroke="rgb(28,242,61)" stroke-width="1" opacity="1" d="M 85 49 L 95.5 49 L 97 50.5 L 99 56.5 L 85 57 L 85 49 Z "></path><path fill="rgb(28,242,61)" stroke="rgb(28,242,61)" stroke-width="1" opacity="1" d="M 167.5 49 L 261 49 L 261 168 L 204.5 168 L 204 165.5 L 202 160 L 252.5 160 L 253 159.5 L 253 149.5 L 253 147.5 L 253 57 L 164.5 57 L 165 55.5 L 167.5 49 Z "></path><path fill="rgb(28,242,61)" stroke="rgb(28,242,61)" stroke-width="1" opacity="1" d="M 11.5 93 L 20 97.5 L 20 160 L 92.5 160 L 93 161.5 L 96 167.5 L 11 168 L 11.5 93 Z "></path><path fill="rgb(28,242,61)" stroke="rgb(28,242,61)" stroke-width="1" opacity="1" d="M 149.5 96 L 150 160 L 189.5 160 L 191 161.5 L 193 167.5 L 141 168 L 141 99.5 L 143.5 99 L 149.5 96 Z "></path><path fill="rgb(28,242,61)" stroke="rgb(28,242,61)" stroke-width="1" opacity="1" d="M 123 99 L 130.5 99 L 131 99.5 L 131 168 L 108.5 168 L 107 166.5 L 105 160 L 122.5 160 L 123 159.5 L 123 99 Z "></path><path fill="rgb(28,242,61)" stroke="rgb(28,242,61)" stroke-width="1" opacity="1" d="M 11 171 Q 14.4 170.3 15.5 173 L 97.5 173 L 99 174.5 L 101 181 L 20 181 L 20 284 L 122.5 284 L 123 283.5 L 123 257.5 L 127 260.5 L 131 266.5 L 131 292 L 11 292 L 11 171 Z "></path><path fill="rgb(28,242,61)" stroke="rgb(28,242,61)" stroke-width="1" opacity="1" d="M 110.5 173 L 131 173 L 131 209.5 Q 129.8 212 126 211 L 123 203.5 L 123 181 L 113.5 181 L 113 179.5 L 110.5 173 Z "></path><path fill="rgb(28,242,61)" stroke="rgb(28,242,61)" stroke-width="1" opacity="1" d="M 223.5 330 L 226.5 334 L 223.5 330 Z "></path><path fill="rgb(28,242,61)" stroke="rgb(28,242,61)" stroke-width="1" opacity="1" d="M 205.5 331 L 204.5 333 L 205.5 331 Z "></path><path fill="rgb(28,242,61)" stroke="rgb(28,242,61)" stroke-width="1" opacity="1" d="M 217.5 336 L 218.5 338 L 217.5 336 Z "></path><path fill="rgb(28,242,61)" stroke="rgb(28,242,61)" stroke-width="1" opacity="1" d="M 143.5 338 L 144 371.5 L 143 371.5 L 143.5 338 Z "></path><path fill="rgb(28,242,61)" stroke="rgb(28,242,61)" stroke-width="1" opacity="1" d="M 199.5 343 L 200 346.5 L 199 346.5 L 199.5 343 Z "></path><path fill="rgb(28,242,61)" stroke="rgb(28,242,61)" stroke-width="1" opacity="1" d="M 230.5 343 L 231 346.5 L 230 346.5 L 230.5 343 Z "></path><path fill="rgb(28,242,61)" stroke="rgb(28,242,61)" stroke-width="1" opacity="1" d="M 230.5 353 L 231 357.5 L 230 357.5 L 230.5 353 Z "></path><path fill="rgb(28,242,61)" stroke="rgb(28,242,61)" stroke-width="1" opacity="1" d="M 218.5 363 L 217.5 365 L 218.5 363 Z "></path><path fill="rgb(28,242,61)" stroke="rgb(28,242,61)" stroke-width="1" opacity="1" d="M 225.5 368 L 224.5 370 L 225.5 368 Z "></path><path fill="rgb(1,1,3)" stroke="rgb(1,1,3)" stroke-width="1" opacity="0.9882352941176471" d="M 0 0 L 28 0 L 28 55.5 Q 30.2 56.7 29 61.5 L 32.5 67 Q 35.7 69.3 42.5 68 L 46 65.5 L 49 55.5 L 49 0 L 118.5 0 L 119 2.5 L 131 38.5 L 131 42 Q 134 43.3 133 39.5 L 146 0 L 182.5 0 Q 183.5 0 183 4.5 L 151 93.5 L 147.5 97 L 145.5 98 L 132.5 98 L 131.5 99 L 130.5 98 L 122.5 98 L 119.5 99 L 115.5 98 L 112 94.5 L 85.5 17 L 85 59.5 L 84 64.5 Q 81 80.5 70.5 89 L 61.5 95 L 48.5 99 L 27.5 99 L 12.5 94 L 0 82.5 L 0.5 66 Q 2.9 79.6 12.5 86 Q 18.5 90.5 27.5 92 L 48.5 92 Q 63.6 89.1 71 78.5 L 75 71.5 L 78 59.5 L 78 2 L 56 2 L 56 52.5 L 53 67.5 L 46.5 74 Q 41.7 76.3 33.5 75 L 25 68.5 L 22 61.5 L 22 53.5 L 21 52.5 L 21 2 L 0.5 2 L 0 0 Z M 88 2 L 116 87 L 120 92 L 145 91 L 176 5 L 176 2 L 152 2 L 133 65 Q 134 69 131 68 L 129 56 L 113 4 L 112 2 L 88 2 Z "></path><path fill="rgb(1,1,3)" stroke="rgb(1,1,3)" stroke-width="1" opacity="0.9882352941176471" d="M 390.5 322 Q 396 321 397 324.5 L 397 327 L 399 327.5 L 399 331.5 L 400 332.5 L 400 360.5 L 397 362 L 394 369 L 386 372 Q 387.1 374.7 384.5 374 L 376 377 Q 377.3 380 373.5 379 L 366.5 382 L 358.5 382 Q 357 385.2 352 384 L 352 382 L 347 382 L 347 380.5 Q 355.7 374.3 358 363 Q 361.7 364.2 360 359 L 363.5 359 L 367 358 Q 365.9 355.3 368.5 356 L 374 352.5 Q 373.3 350.3 375.5 351 L 381 347.5 Q 380.3 345.3 382.5 346 L 385 342.5 L 386 328 Q 389 329.3 388 325.5 L 390.5 322 Z "></path><path fill="rgb(9,9,12)" stroke="rgb(9,9,12)" stroke-width="1" opacity="0.9921568627450981" d="M 55.5 53 L 56 55.5 L 55 55.5 L 55.5 53 Z "></path><path fill="rgb(9,9,12)" stroke="rgb(9,9,12)" stroke-width="1" opacity="0.9921568627450981" d="M 50.5 70 L 49.5 72 L 50.5 70 Z "></path><path fill="rgb(9,9,12)" stroke="rgb(9,9,12)" stroke-width="1" opacity="0.9921568627450981" d="M 119.5 91 L 132 91.5 L 119.5 92 L 119.5 91 Z "></path><path fill="rgb(9,9,12)" stroke="rgb(9,9,12)" stroke-width="1" opacity="0.9921568627450981" d="M 122.5 98 L 131 98.5 L 122.5 99 L 122.5 98 Z "></path><path fill="rgb(9,9,12)" stroke="rgb(9,9,12)" stroke-width="1" opacity="0.9921568627450981" d="M 98.5 150 Q 100.8 149.3 100 151.5 L 126 212 L 145 205 L 146 207.5 L 161 302.5 L 158 300.5 L 99 224.5 L 117 217 L 94 160.5 L 91 156.5 L 91 153 L 98.5 150 Z "></path><path fill="rgb(9,9,12)" stroke="rgb(9,9,12)" stroke-width="1" opacity="0.9921568627450981" d="M 301.5 151 Q 304.1 150.2 303 153.5 L 305 157.5 L 305 162.5 L 308 169.5 L 308 173.5 L 313.5 192 L 332 187 L 331.5 289 L 284 199.5 L 285.5 198 L 303 194 L 293 153 L 301.5 151 Z "></path><path fill="rgb(9,9,12)" stroke="rgb(9,9,12)" stroke-width="1" opacity="0.9921568627450981" d="M 199.5 156 L 216 199 L 235 192 L 237 203.5 L 237 210.5 L 238 211.5 L 238 218.5 L 239 219.5 L 239 226.5 L 240 227.5 L 240 234.5 L 241 235.5 L 241 242.5 L 243 250.5 L 245 273.5 L 246 274.5 L 247 290.5 L 245 289.5 L 189 211.5 L 189 209 L 207 203 L 194 170.5 L 191 159 L 199.5 156 Z "></path><path fill="rgb(9,9,12)" stroke="rgb(9,9,12)" stroke-width="1" opacity="0.9921568627450981" d="M 390.5 286 L 391 288 L 393.5 288 L 400 292 L 399.5 332 L 399 327 Q 396 328.3 397 324.5 Q 396 321 390.5 322 L 388 328 L 386 328.5 L 386 337.5 L 385 342.5 L 382.5 346 Q 380.3 345.3 381 347.5 L 374 351 L 372.5 354 L 367 356 Q 368.3 359 364.5 358 L 360 359 L 360 363 L 358.5 363 L 359 361.5 L 363 348.5 L 363 328.5 L 359 314.5 L 361 313.5 L 360.5 312 L 363 310.5 L 365.5 307 L 368 305.5 L 370.5 301 Q 372.8 301.8 372 299.5 L 378 295 L 380.5 291 L 384 289.5 Q 383.3 287.3 385.5 288 L 390.5 286 Z "></path><path fill="rgb(9,9,12)" stroke="rgb(9,9,12)" stroke-width="1" opacity="0.9921568627450981" d="M 332.5 321 Q 339 320 340 324.5 L 342 329 L 336.5 329 L 327.5 334 L 327 329.5 L 328 325 Q 330.7 326.1 330 323.5 L 332.5 321 Z "></path><path fill="rgb(9,9,12)" stroke="rgb(9,9,12)" stroke-width="1" opacity="0.9921568627450981" d="M 327.5 337 L 328 342 L 337 339 L 337 367.5 L 335.5 369 L 323.5 376 L 292.5 376 L 294 373.5 L 301.5 359 L 304.5 359 L 315 352.5 Q 314.3 350.3 316.5 351 L 324 347 L 327.5 337 Z "></path><path fill="rgb(9,9,12)" stroke="rgb(9,9,12)" stroke-width="1" opacity="0.9921568627450981" d="M 399.5 361 L 400 384.5 L 395.5 389 L 379.5 397 Q 372.7 396.7 369.5 400 L 351.5 400 L 348.5 398 L 344.5 398 L 335.5 395 L 332 392.5 L 346.5 381 L 352 382 Q 350.6 385.7 356.5 384 L 358.5 382 L 366.5 382 L 376 379 Q 374.8 376 378.5 377 L 386 374 Q 384.9 371.3 387.5 372 L 391.5 369 L 394 369 L 397 362 L 399.5 361 Z "></path><path fill="rgb(9,9,12)" stroke="rgb(9,9,12)" stroke-width="1" opacity="0.9921568627450981" d="M 356.5 367 L 356 368.5 L 352.5 374 L 354 371.5 L 356.5 367 Z "></path><path fill="rgb(9,9,12)" stroke="rgb(9,9,12)" stroke-width="1" opacity="0.9921568627450981" d="M 351.5 375 L 349.5 378 L 351.5 375 Z "></path><path fill="rgb(9,9,12)" stroke="rgb(9,9,12)" stroke-width="1" opacity="0.9921568627450981" d="M 289.5 379 L 290.5 380 L 313 380.5 L 301.5 384 L 299.5 384 L 289.5 383 L 288 381.5 L 289.5 379 Z "></path><path fill="rgb(252,64,205)" stroke="rgb(252,64,205)" stroke-width="1" opacity="0.996078431372549" d="M 0 2 L 21 2 L 21 59.5 L 24 68.5 L 29.5 74 L 35.5 76 L 41.5 76 Q 49.6 74.6 53 68.5 L 56 59.5 L 56 2 L 77 2 L 77 62.5 Q 74.1 78.6 62.5 86 L 50.5 91 L 30.5 92 L 21.5 90 L 13.5 86 L 6 78.5 Q 1.5 72 0 62.5 L 0 2 Z "></path><path fill="rgb(252,64,205)" stroke="rgb(252,64,205)" stroke-width="1" opacity="0.996078431372549" d="M 88.5 2 L 111.5 2 L 112 4.5 L 127 50.5 L 131 70 Q 134.3 71.3 133 66.5 L 153 2 L 176 2.5 L 144 91 L 118.5 91 L 118 88.5 L 88.5 2 Z "></path><path fill="rgb(74,79,124)" stroke="rgb(74,79,124)" stroke-width="1" opacity="0.9921568627450981" d="M 77.5 2 L 78 56.5 L 77 56.5 L 77.5 2 Z "></path><path fill="rgb(74,79,124)" stroke="rgb(74,79,124)" stroke-width="1" opacity="0.9921568627450981" d="M 68.5 80 L 65.5 84 L 68.5 80 Z "></path><path fill="rgb(74,79,124)" stroke="rgb(74,79,124)" stroke-width="1" opacity="0.9921568627450981" d="M 172.5 278 L 189.5 278 L 203.5 282 L 210.5 286 L 213.5 286 L 220.5 282 L 237 278 L 247.5 294 L 248 288.5 L 246 278 Q 265.4 279.4 277 289.5 L 275.5 290 L 272.5 289 L 264 294 L 262.5 297 Q 260.3 296.3 261 298.5 L 257 305 Q 254 303.8 255 307.5 L 247 315.5 L 247 318 Q 244 316.8 245 320.5 L 241 326.5 L 242 327.5 L 242 347.5 L 238 360.5 L 233 370.5 L 217.5 388 L 203.5 396 L 193.5 398 L 190.5 400 L 171.5 400 L 150.5 392 L 133 376.5 L 125 363.5 L 120 347.5 L 120 330.5 L 127 310.5 Q 133.5 299 143.5 291 L 147.5 288 L 161.5 305 L 162 303.5 L 158 282 L 172.5 278 Z M 210 308 L 209 309 L 206 311 L 202 315 L 203 316 Q 204 318 201 317 L 200 325 L 197 331 L 197 335 L 194 340 L 192 343 L 184 349 L 180 349 L 166 353 L 155 358 L 153 358 L 153 329 L 145 329 L 134 335 L 136 342 L 142 339 L 143 339 L 143 372 L 144 372 L 149 372 L 150 375 Q 149 379 152 378 L 151 380 L 154 385 Q 159 390 168 392 L 184 391 L 186 391 L 188 389 L 195 388 L 205 384 L 209 381 Q 211 382 210 379 Q 214 380 217 377 L 220 374 L 219 373 L 225 370 Q 231 365 231 355 L 231 353 L 233 346 L 233 341 L 233 339 L 232 338 L 232 328 L 231 327 Q 232 322 229 323 L 228 318 Q 224 308 210 308 Z "></path><path fill="rgb(74,79,124)" stroke="rgb(74,79,124)" stroke-width="1" opacity="0.9921568627450981" d="M 207.5 329 L 206.5 331 L 207.5 329 Z "></path><path fill="rgb(74,79,124)" stroke="rgb(74,79,124)" stroke-width="1" opacity="0.9921568627450981" d="M 203.5 333 L 202.5 335 L 203.5 333 Z "></path><path fill="rgb(24,28,44)" stroke="rgb(24,28,44)" stroke-width="1" opacity="0.996078431372549" d="M 28.5 49 L 29 53.5 L 28 53.5 L 28.5 49 Z "></path><path fill="rgb(24,28,44)" stroke="rgb(24,28,44)" stroke-width="1" opacity="0.996078431372549" d="M 48.5 49 L 49 53.5 L 48 53.5 L 48.5 49 Z "></path><path fill="rgb(24,28,44)" stroke="rgb(24,28,44)" stroke-width="1" opacity="0.996078431372549" d="M 26.5 70 L 28.5 73 L 26.5 70 Z "></path><path fill="rgb(24,28,44)" stroke="rgb(24,28,44)" stroke-width="1" opacity="0.996078431372549" d="M 141.5 98 L 144 98.5 L 141.5 99 L 141.5 98 Z "></path><path fill="rgb(24,28,44)" stroke="rgb(24,28,44)" stroke-width="1" opacity="0.996078431372549" d="M 101.5 227 L 102.5 229 L 101.5 227 Z "></path><path fill="rgb(24,28,44)" stroke="rgb(24,28,44)" stroke-width="1" opacity="0.996078431372549" d="M 104.5 231 L 105.5 233 L 104.5 231 Z "></path><path fill="rgb(24,28,44)" stroke="rgb(24,28,44)" stroke-width="1" opacity="0.996078431372549" d="M 125.5 258 L 126.5 260 L 125.5 258 Z "></path><path fill="rgb(24,28,44)" stroke="rgb(24,28,44)" stroke-width="1" opacity="0.996078431372549" d="M 352.5 278 L 368.5 278 L 371.5 280 L 382.5 282 L 390 286.5 L 384 288 L 382.5 291 Q 378.5 290.5 378 293.5 Q 378.8 295.8 376.5 295 L 372 301 L 369 302.5 L 366.5 307 L 363 309.5 L 361.5 312 L 360 312.5 L 360.5 314 L 359 314.5 L 363 328.5 L 363 335.5 Q 360.8 336.7 362 341.5 Q 364.5 343 363 348.5 L 360 359 L 358 359.5 L 359 361.5 Q 352.9 376.4 341.5 386 L 331.5 393 L 334.5 389 L 339 386.5 L 336.5 386 L 325.5 393 L 312.5 398 L 301.5 400 L 284.5 396 L 283.5 397 L 278.5 394 L 274 393 Q 272.9 390.3 275.5 391 L 289.5 378 L 288 380.5 L 289.5 383 L 299.5 384 L 301.5 384 L 304.5 384 L 313.5 380 L 323 380 L 322.5 377 L 291.5 377 L 291 375.5 L 294.5 371 L 294 372.5 L 292 375.5 L 323.5 376 L 336.5 368 L 337 372 L 346.5 372 L 347 371.5 L 347 329 L 342 329 L 342 327.5 L 336.5 321 Q 331 320 330 323.5 Q 330.7 326.1 328 325 L 328 328.5 Q 325.5 330 327 335.5 L 327 337.5 L 324 347 L 315 351 L 313.5 354 L 300.5 360 L 300 358.5 L 304 348.5 L 304 327.5 L 303 325.5 L 316 309.5 L 320 301.5 L 328.5 293 L 334.5 290 L 338.5 292 L 337.5 290 L 332 287 Q 330.9 284.3 333.5 285 L 338.5 282 L 352.5 278 Z M 343 381 L 343 383 L 345 382 L 343 381 Z "></path><path fill="rgb(24,28,44)" stroke="rgb(24,28,44)" stroke-width="1" opacity="0.996078431372549" d="M 243.5 287 L 244.5 289 L 243.5 287 Z "></path><path fill="rgb(24,28,44)" stroke="rgb(24,28,44)" stroke-width="1" opacity="0.996078431372549" d="M 246.5 291 Q 248.8 290.3 248 292.5 L 246.5 291 Z "></path><path fill="rgb(24,28,44)" stroke="rgb(24,28,44)" stroke-width="1" opacity="0.996078431372549" d="M 156.5 298 L 157.5 300 L 156.5 298 Z "></path><path fill="rgb(24,28,44)" stroke="rgb(24,28,44)" stroke-width="1" opacity="0.996078431372549" d="M 160.5 303 L 161.5 305 L 160.5 303 Z "></path><path fill="rgb(24,28,44)" stroke="rgb(24,28,44)" stroke-width="1" opacity="0.996078431372549" d="M 272.5 313 L 281 316 L 282.5 319 Q 284.8 318.3 284 320.5 L 286 327.5 L 288 329.5 L 288 332.5 Q 285.5 334 289 335.5 L 290 348.5 Q 287.3 350.3 289 356.5 L 281.5 370 L 271.5 377 L 258.5 382 L 256.5 384 L 249.5 386 L 243.5 386 L 238.5 388 L 237.5 387 L 229.5 387 L 223 383.5 L 225 383 L 235 368.5 L 240 356 L 249.5 352 L 261 344 L 262.5 341 L 268 339 L 268 371.5 L 268.5 372 L 278 372 L 278 329.5 L 277.5 329 L 267.5 329 L 264.5 331 L 264 328.5 L 266 320.5 L 270.5 314 L 272.5 313 Z "></path><path fill="rgb(24,28,44)" stroke="rgb(24,28,44)" stroke-width="1" opacity="0.996078431372549" d="M 212.5 343 Q 217.3 342.3 218 345.5 L 219 348.5 L 219 350.5 L 219 355.5 L 215 363 L 212.5 364 L 210 359.5 L 209 347.5 L 210 344 L 212.5 343 Z "></path><path fill="rgb(24,28,44)" stroke="rgb(24,28,44)" stroke-width="1" opacity="0.996078431372549" d="M 197.5 355 Q 200.5 354.1 199 358.5 Q 200.1 365.9 205 369.5 L 200.5 373 L 199 372.5 Q 199.8 374.8 197.5 374 L 194.5 376 L 171.5 376 L 170 372.5 L 171 370 L 177.5 365 L 180.5 365 L 197.5 355 Z "></path><path fill="rgb(24,28,44)" stroke="rgb(24,28,44)" stroke-width="1" opacity="0.996078431372549" d="M 299.5 361 L 300 362.5 L 295.5 370 L 296 368.5 L 299.5 361 Z "></path></svg>