<svg width="400" height="400" version="1.1" xmlns="http://www.w3.org/2000/svg" desc="Created with imagetracer.js version 1.2.5"><path fill="rgb(153,152,153)" stroke="rgb(153,152,153)" stroke-width="1" opacity="0.9803921568627451" d="M 216.5 33 L 228 37.5 L 226.5 37 L 218.5 35 L 216.5 33 Z "></path><path fill="rgb(153,152,153)" stroke="rgb(153,152,153)" stroke-width="1" opacity="0.9803921568627451" d="M 178.5 34 L 181 34.5 L 175.5 36 L 175.5 35 L 178.5 34 Z "></path><path fill="rgb(153,152,153)" stroke="rgb(153,152,153)" stroke-width="1" opacity="0.9803921568627451" d="M 171.5 36 L 174 36.5 L 163.5 39 L 160.5 41 L 160 39 L 171.5 36 Z "></path><path fill="rgb(153,152,153)" stroke="rgb(153,152,153)" stroke-width="1" opacity="0.9803921568627451" d="M 148.5 42 L 152 42.5 L 141.5 45 L 141.5 44 L 148.5 42 Z "></path><path fill="rgb(153,152,153)" stroke="rgb(153,152,153)" stroke-width="1" opacity="0.9803921568627451" d="M 249.5 44 L 254.5 44 L 269.5 48 L 271 47.5 L 273.5 52 L 276.5 52 L 281.5 55 L 299 60 L 298.5 62 L 276.5 53 L 274.5 54 L 267.5 49 L 249.5 45 L 249.5 44 Z "></path><path fill="rgb(153,152,153)" stroke="rgb(153,152,153)" stroke-width="1" opacity="0.9803921568627451" d="M 137.5 45 L 140 45.5 L 126.5 49 L 126.5 48 L 137.5 45 Z "></path><path fill="rgb(153,152,153)" stroke="rgb(153,152,153)" stroke-width="1" opacity="0.9803921568627451" d="M 122.5 49 L 125 49.5 L 122.5 50 L 122.5 49 Z "></path><path fill="rgb(153,152,153)" stroke="rgb(153,152,153)" stroke-width="1" opacity="0.9803921568627451" d="M 118.5 50 L 121 50.5 L 118.5 51 L 118.5 50 Z "></path><path fill="rgb(153,152,153)" stroke="rgb(153,152,153)" stroke-width="1" opacity="0.9803921568627451" d="M 173.5 51 L 177 52 L 176.5 54 L 173.5 51 Z "></path><path fill="rgb(153,152,153)" stroke="rgb(153,152,153)" stroke-width="1" opacity="0.9803921568627451" d="M 111.5 52 L 114 52.5 L 111.5 53 L 111.5 52 Z "></path><path fill="rgb(153,152,153)" stroke="rgb(153,152,153)" stroke-width="1" opacity="0.9803921568627451" d="M 107.5 53 L 110 53.5 L 107.5 54 L 107.5 53 Z "></path><path fill="rgb(153,152,153)" stroke="rgb(153,152,153)" stroke-width="1" opacity="0.9803921568627451" d="M 186.5 55 Q 188.3 58.1 190 56.5 Q 189.3 58.8 191.5 58 L 193 57.5 L 192.5 59 L 198 61.5 L 196.5 62 L 187 58 L 186.5 56 L 185 56.5 L 186.5 55 Z "></path><path fill="rgb(153,152,153)" stroke="rgb(153,152,153)" stroke-width="1" opacity="0.9803921568627451" d="M 227 56 L 230 56.5 L 227 58 L 227 56 Z "></path><path fill="rgb(153,152,153)" stroke="rgb(153,152,153)" stroke-width="1" opacity="0.9803921568627451" d="M 220.5 58 L 223 59.5 L 221.5 60 L 220.5 58 Z "></path><path fill="rgb(153,152,153)" stroke="rgb(153,152,153)" stroke-width="1" opacity="0.9803921568627451" d="M 217.5 60 L 219 60.5 L 216.5 62 L 217.5 60 Z "></path><path fill="rgb(153,152,153)" stroke="rgb(153,152,153)" stroke-width="1" opacity="0.9803921568627451" d="M 205.5 62 L 206.5 64 Q 203.7 64.7 205.5 62 Z "></path><path fill="rgb(153,152,153)" stroke="rgb(153,152,153)" stroke-width="1" opacity="0.9803921568627451" d="M 51.5 68 L 54 68.5 L 40 72.5 L 47.5 76 L 78 84.5 L 72.5 86 L 34 73.5 L 51.5 68 Z "></path><path fill="rgb(153,152,153)" stroke="rgb(153,152,153)" stroke-width="1" opacity="0.9803921568627451" d="M 181.5 69 L 185 69.5 L 167.5 74 L 167.5 73 L 181.5 69 Z "></path><path fill="rgb(153,152,153)" stroke="rgb(153,152,153)" stroke-width="1" opacity="0.9803921568627451" d="M 339.5 74 L 355.5 79 L 359 81.5 L 325.5 91 L 305.5 95 L 304.5 93 L 354 80.5 L 341.5 76 L 339.5 74 Z "></path><path fill="rgb(153,152,153)" stroke="rgb(153,152,153)" stroke-width="1" opacity="0.9803921568627451" d="M 160.5 75 L 163 75.5 L 157.5 77 L 157.5 76 L 160.5 75 Z "></path><path fill="rgb(153,152,153)" stroke="rgb(153,152,153)" stroke-width="1" opacity="0.9803921568627451" d="M 153.5 77 L 156 77.5 L 153.5 78 L 153.5 77 Z "></path><path fill="rgb(153,152,153)" stroke="rgb(153,152,153)" stroke-width="1" opacity="0.9803921568627451" d="M 146.5 79 L 145.5 81 L 146.5 79 Z "></path><path fill="rgb(153,152,153)" stroke="rgb(153,152,153)" stroke-width="1" opacity="0.9803921568627451" d="M 220.5 84 L 225 85.5 L 221.5 87 L 221.5 85 L 220.5 84 Z "></path><path fill="rgb(153,152,153)" stroke="rgb(153,152,153)" stroke-width="1" opacity="0.9803921568627451" d="M 86.5 86 L 87 88 L 155 108.5 L 150.5 110 L 137.5 105 L 107.5 97 L 99.5 93 L 94.5 93 L 82 88.5 L 86.5 86 Z "></path><path fill="rgb(153,152,153)" stroke="rgb(153,152,153)" stroke-width="1" opacity="0.9803921568627451" d="M 231.5 88 L 233 90.5 L 231.5 90 L 230 89.5 L 231.5 88 Z "></path><path fill="rgb(153,152,153)" stroke="rgb(153,152,153)" stroke-width="1" opacity="0.9803921568627451" d="M 234.5 90 L 243 94.5 L 240.5 95 L 234 92 L 234.5 90 Z "></path><path fill="rgb(153,152,153)" stroke="rgb(153,152,153)" stroke-width="1" opacity="0.9803921568627451" d="M 294.5 95 L 299 97.5 L 230.5 115 L 227 113.5 L 292.5 97 L 294.5 95 Z "></path><path fill="rgb(153,152,153)" stroke="rgb(153,152,153)" stroke-width="1" opacity="0.9803921568627451" d="M 179.5 99 L 178.5 101 L 179.5 99 Z "></path><path fill="rgb(153,152,153)" stroke="rgb(153,152,153)" stroke-width="1" opacity="0.9803921568627451" d="M 163.5 110 L 165.5 112 L 193.5 120 L 197.5 123 L 202.5 120 Q 212.5 119 219.5 115 L 223 117.5 L 196.5 124 L 183.5 119 L 160 113 Q 158.8 110 162.5 111 L 163.5 110 Z "></path><path fill="rgb(153,152,153)" stroke="rgb(153,152,153)" stroke-width="1" opacity="0.9803921568627451" d="M 272.5 371 L 273.5 373 L 272.5 371 Z "></path><path fill="rgb(161,160,161)" stroke="rgb(161,160,161)" stroke-width="1" opacity="0.9764705882352941" d="M 184.5 33 L 187 33.5 L 184.5 34 L 184.5 33 Z "></path><path fill="rgb(161,160,161)" stroke="rgb(161,160,161)" stroke-width="1" opacity="0.9764705882352941" d="M 262.5 48 L 265 48.5 L 262.5 49 L 262.5 48 Z "></path><path fill="rgb(161,160,161)" stroke="rgb(161,160,161)" stroke-width="1" opacity="0.9764705882352941" d="M 254.5 49 L 255 51 L 249.5 52 L 250.5 50 L 254.5 49 Z "></path><path fill="rgb(161,160,161)" stroke="rgb(161,160,161)" stroke-width="1" opacity="0.9764705882352941" d="M 271.5 51 L 273.5 54 Q 271.3 54.8 272 52.5 L 271.5 51 Z "></path><path fill="rgb(161,160,161)" stroke="rgb(161,160,161)" stroke-width="1" opacity="0.9764705882352941" d="M 276.5 53 L 279 54.5 L 277.5 55 L 276.5 53 Z "></path><path fill="rgb(161,160,161)" stroke="rgb(161,160,161)" stroke-width="1" opacity="0.9764705882352941" d="M 102.5 55 L 105 55.5 L 102.5 56 L 102.5 55 Z "></path><path fill="rgb(161,160,161)" stroke="rgb(161,160,161)" stroke-width="1" opacity="0.9764705882352941" d="M 98.5 56 L 101 56.5 L 94 58 L 93.5 60 L 91 58.5 L 98.5 56 Z "></path><path fill="rgb(161,160,161)" stroke="rgb(161,160,161)" stroke-width="1" opacity="0.9764705882352941" d="M 230.5 56 L 229.5 58 L 230.5 56 Z "></path><path fill="rgb(161,160,161)" stroke="rgb(161,160,161)" stroke-width="1" opacity="0.9764705882352941" d="M 79.5 61 L 84 61.5 L 51.5 70 L 51.5 69 L 79.5 61 Z "></path><path fill="rgb(161,160,161)" stroke="rgb(161,160,161)" stroke-width="1" opacity="0.9764705882352941" d="M 200.5 63 L 203 63.5 L 200.5 64 L 200.5 63 Z "></path><path fill="rgb(161,160,161)" stroke="rgb(161,160,161)" stroke-width="1" opacity="0.9764705882352941" d="M 47.5 70 L 50 70.5 L 44.5 72 L 44.5 71 L 47.5 70 Z "></path><path fill="rgb(161,160,161)" stroke="rgb(161,160,161)" stroke-width="1" opacity="0.9764705882352941" d="M 177.5 70 L 178.5 72 L 177.5 70 Z "></path><path fill="rgb(161,160,161)" stroke="rgb(161,160,161)" stroke-width="1" opacity="0.9764705882352941" d="M 40.5 72 L 78 83.5 L 74.5 84 L 41.5 74 L 40.5 72 Z "></path><path fill="rgb(161,160,161)" stroke="rgb(161,160,161)" stroke-width="1" opacity="0.9764705882352941" d="M 170.5 72 L 173 73.5 L 171.5 74 L 170.5 72 Z "></path><path fill="rgb(161,160,161)" stroke="rgb(161,160,161)" stroke-width="1" opacity="0.9764705882352941" d="M 149.5 78 L 148.5 80 L 147 79.5 L 149.5 78 Z "></path><path fill="rgb(161,160,161)" stroke="rgb(161,160,161)" stroke-width="1" opacity="0.9764705882352941" d="M 210.5 79 L 218 82.5 L 216.5 83 L 210.5 80 L 210.5 79 Z "></path><path fill="rgb(161,160,161)" stroke="rgb(161,160,161)" stroke-width="1" opacity="0.9764705882352941" d="M 352.5 79 L 353.5 81 L 349.5 81 L 303.5 94 L 303 92 L 337.5 84 L 352.5 79 Z "></path><path fill="rgb(161,160,161)" stroke="rgb(161,160,161)" stroke-width="1" opacity="0.9764705882352941" d="M 134.5 81 Q 137.5 82.5 134.5 84 L 132 83.5 L 135 82.5 L 134.5 81 Z "></path><path fill="rgb(161,160,161)" stroke="rgb(161,160,161)" stroke-width="1" opacity="0.9764705882352941" d="M 128.5 84 L 131 84.5 L 128.5 85 L 128.5 84 Z "></path><path fill="rgb(161,160,161)" stroke="rgb(161,160,161)" stroke-width="1" opacity="0.9764705882352941" d="M 87.5 86 L 156 107.5 L 152.5 108 L 87 88 L 87.5 86 Z "></path><path fill="rgb(161,160,161)" stroke="rgb(161,160,161)" stroke-width="1" opacity="0.9764705882352941" d="M 233.5 89 L 236 90.5 L 234.5 90 L 233.5 89 Z "></path><path fill="rgb(161,160,161)" stroke="rgb(161,160,161)" stroke-width="1" opacity="0.9764705882352941" d="M 243.5 94 L 244 96 L 242 95.5 L 243.5 94 Z "></path><path fill="rgb(161,160,161)" stroke="rgb(161,160,161)" stroke-width="1" opacity="0.9764705882352941" d="M 292.5 95 L 294 95.5 L 292.5 97 L 277.5 100 L 273.5 102 L 261.5 104 L 258.5 106 L 231.5 113 L 227.5 113 L 227.5 112 L 292.5 95 Z "></path><path fill="rgb(161,160,161)" stroke="rgb(161,160,161)" stroke-width="1" opacity="0.9764705882352941" d="M 164.5 110 L 198.5 121 L 201.5 119 L 214.5 116 L 216.5 114 L 219 115.5 L 205.5 119 L 196.5 123 L 193.5 120 L 165.5 112 L 164.5 110 Z "></path><path fill="rgb(122,122,123)" stroke="rgb(122,122,123)" stroke-width="1" opacity="0.7019607843137254" d="M 196 14 L 199.5 15 L 201.5 14 L 203.5 14 Q 206.1 13.3 205 16 L 208.5 16 L 219.5 19 L 221.5 21 L 223.5 21 L 234.5 24 L 236.5 26 Q 238 23.5 239.5 27 Q 244.8 26.2 246.5 29 L 248.5 29 L 282.5 41 L 284.5 41 Q 288.8 40.3 289.5 43 Q 291 40.5 292.5 44 L 300 45 L 300.5 47 L 302.5 47 L 314.5 50 L 316.5 52 L 318.5 52 L 326.5 54 L 328.5 56 Q 330 53.5 331.5 57 L 339.5 58 L 341.5 60 L 343.5 60 L 357.5 64 L 359.5 66 L 360.5 65 L 365.5 68 Q 370.8 67.2 372.5 70 Q 374 67.5 375.5 71 L 382.5 73 L 386.5 73 L 389 75.5 L 388.5 78 L 385.5 78 L 355.5 67 L 298.5 49 L 293.5 46 L 259.5 36 L 238.5 29 L 236.5 27 L 204.5 17 L 202 18.5 Q 202.9 15.5 198.5 17 L 194.5 19 L 129.5 35 L 127.5 37 Q 120.5 37 116.5 40 L 53 56 L 53.5 54 L 55.5 54 L 65.5 51 L 67 51.5 L 67.5 50 L 69.5 50 L 96.5 42 L 98.5 42 L 101.5 41 L 103.5 41 L 114.5 37 L 116.5 37 L 123.5 36 L 126.5 34 Q 128 36.5 129.5 33 L 133.5 32 Q 135 34.5 136.5 31 L 143.5 29 L 145.5 29 L 147.5 28 L 149 28.5 Q 148.3 26.3 150.5 27 L 152.5 28 L 169.5 22 L 171 22.5 Q 170.1 19.1 175.5 21 L 178 20.5 Q 177.3 18.3 179.5 19 L 181.5 20 L 187.5 17 L 189.5 17 L 194.5 15 L 196 15.5 L 196 14 Z "></path><path fill="rgb(122,122,123)" stroke="rgb(122,122,123)" stroke-width="1" opacity="0.7019607843137254" d="M 227.5 36 L 228.5 38 L 227.5 36 Z "></path><path fill="rgb(122,122,123)" stroke="rgb(122,122,123)" stroke-width="1" opacity="0.7019607843137254" d="M 50.5 55 L 52 55.5 L 47.5 58 L 33.5 61 L 33.5 60 L 50.5 55 Z "></path><path fill="rgb(122,122,123)" stroke="rgb(122,122,123)" stroke-width="1" opacity="0.7019607843137254" d="M 28.5 61 L 30 61.5 L 26.5 63 L 26.5 62 L 28.5 61 Z "></path><path fill="rgb(122,122,123)" stroke="rgb(122,122,123)" stroke-width="1" opacity="0.7019607843137254" d="M 14.5 65 L 16 65.5 L 14 66 L 15 74 L 10 74 L 10 72.5 L 10.5 70 Q 12.8 70.8 12 68.5 L 14.5 65 Z "></path><path fill="rgb(122,122,123)" stroke="rgb(122,122,123)" stroke-width="1" opacity="0.7019607843137254" d="M 358.5 80 L 359.5 82 L 358.5 80 Z "></path><path fill="rgb(161,161,161)" stroke="rgb(161,161,161)" stroke-width="1" opacity="0.9764705882352941" d="M 199.5 29 L 207.5 30 L 211.5 33 L 227 37.5 L 185.5 50 L 161 40.5 L 186.5 34 L 188.5 32 Q 195.5 32 199.5 29 Z "></path><path fill="rgb(161,161,161)" stroke="rgb(161,161,161)" stroke-width="1" opacity="0.9764705882352941" d="M 235.5 40 L 255.5 47 L 259 47 L 259.5 49 L 261.5 48 L 272 52.5 Q 271.1 55.9 276.5 54 L 298 61.5 L 257.5 75 L 252.5 75 L 217 61.5 L 229.5 58 L 231 56.5 L 227.5 56 L 212.5 60 L 196 53.5 L 197.5 52 L 235.5 40 Z M 255 49 L 251 50 L 250 52 L 255 51 L 255 49 Z "></path><path fill="rgb(161,161,161)" stroke="rgb(161,161,161)" stroke-width="1" opacity="0.9764705882352941" d="M 148.5 43 L 153.5 43 L 176 53.5 L 121.5 71 L 94 60 Q 92.7 56.7 97.5 58 L 111.5 53 L 113.5 53 L 148.5 43 Z "></path><path fill="rgb(161,161,161)" stroke="rgb(161,161,161)" stroke-width="1" opacity="0.9764705882352941" d="M 181.5 57 L 185.5 57 L 195.5 61 L 195.5 60 L 190 57.5 L 191.5 57 L 205 62.5 L 200 63.5 L 209.5 64 L 242.5 76 L 246 78.5 L 223.5 85 L 220.5 84 L 220.5 85 L 222 85.5 L 196.5 95 L 186.5 97 L 129 73.5 L 181.5 57 Z M 182 69 L 168 73 L 168 74 L 173 74 L 186 70 L 182 69 Z M 164 74 L 150 78 L 150 79 L 154 79 L 167 75 L 164 74 Z M 147 79 L 147 80 L 149 80 L 147 79 Z M 133 83 L 133 84 L 135 84 L 133 83 Z "></path><path fill="rgb(161,161,161)" stroke="rgb(161,161,161)" stroke-width="1" opacity="0.9764705882352941" d="M 84.5 61 L 112 72 Q 113.3 75 109.5 74 L 78.5 84 L 43 72.5 L 84.5 61 Z "></path><path fill="rgb(161,161,161)" stroke="rgb(161,161,161)" stroke-width="1" opacity="0.9764705882352941" d="M 306.5 64 L 352 79.5 L 301.5 93 L 263 78.5 L 306.5 64 Z "></path><path fill="rgb(161,161,161)" stroke="rgb(161,161,161)" stroke-width="1" opacity="0.9764705882352941" d="M 120.5 76 L 179 99.5 L 156.5 108 L 88 86.5 L 120.5 76 Z M 129 84 L 129 85 L 131 85 L 129 84 Z "></path><path fill="rgb(161,161,161)" stroke="rgb(161,161,161)" stroke-width="1" opacity="0.9764705882352941" d="M 253.5 81 L 285.5 92 L 292 95.5 L 276.5 100 L 271.5 100 L 257.5 105 L 253.5 105 L 225.5 113 L 196 100.5 L 229.5 89 L 244 96 Q 245.1 93.3 242.5 94 L 232 88.5 L 253.5 81 Z "></path><path fill="rgb(161,161,161)" stroke="rgb(161,161,161)" stroke-width="1" opacity="0.9764705882352941" d="M 186.5 103 L 216 114.5 L 214.5 116 L 197.5 121 L 194.5 119 L 166 110.5 L 186.5 103 Z "></path><path fill="rgb(0,124,229)" stroke="rgb(0,124,229)" stroke-width="1" opacity="0.984313725490196" d="M 60.5 94 L 85 101.5 L 82.5 102 L 62.5 96 L 60.5 94 Z "></path><path fill="rgb(0,124,229)" stroke="rgb(0,124,229)" stroke-width="1" opacity="0.984313725490196" d="M 98 106 L 101 106.5 L 100 107.5 L 100 150.5 L 99 151.5 L 100 153.5 L 99 156.5 L 100 158.5 L 99 159.5 L 99 209.5 L 99.5 211 L 98 210.5 L 98 106 Z "></path><path fill="rgb(0,124,229)" stroke="rgb(0,124,229)" stroke-width="1" opacity="0.984313725490196" d="M 130.5 115 L 155 122.5 L 152.5 123 L 132.5 117 L 130.5 115 Z "></path><path fill="rgb(0,124,229)" stroke="rgb(0,124,229)" stroke-width="1" opacity="0.984313725490196" d="M 156.5 123 L 162 124.5 L 159.5 125 L 156.5 124 L 156.5 123 Z "></path><path fill="rgb(0,124,229)" stroke="rgb(0,124,229)" stroke-width="1" opacity="0.984313725490196" d="M 87.5 125 L 88 206 L 85 205.5 Q 88.5 204 86 202.5 L 87 200.5 L 87.5 125 Z "></path><path fill="rgb(0,124,229)" stroke="rgb(0,124,229)" stroke-width="1" opacity="0.984313725490196" d="M 187.5 132 L 189 133.5 L 189 245 L 101 211.5 L 102.5 211 L 187.5 243 L 188 133.5 L 187.5 132 Z "></path><path fill="rgb(0,124,229)" stroke="rgb(0,124,229)" stroke-width="1" opacity="0.984313725490196" d="M 23.5 193 L 88 218 L 88 315.5 L 86.5 317 L 79 313.5 L 80.5 313 L 85 315 L 85 278.5 L 86 277.5 L 85 273.5 L 86 272.5 L 86 218 L 37.5 201 L 29.5 197 L 23 196 L 23.5 193 Z "></path><path fill="rgb(0,124,229)" stroke="rgb(0,124,229)" stroke-width="1" opacity="0.984313725490196" d="M 23.5 199 L 24 287.5 L 23 287.5 L 23.5 199 Z "></path><path fill="rgb(0,124,229)" stroke="rgb(0,124,229)" stroke-width="1" opacity="0.984313725490196" d="M 98 222 L 107 225.5 L 105.5 226 L 99.5 223 L 98 223.5 L 98 222 Z "></path><path fill="rgb(0,124,229)" stroke="rgb(0,124,229)" stroke-width="1" opacity="0.984313725490196" d="M 187.5 256 L 189 257.5 L 189 271.5 L 188 271.5 L 188 257.5 L 187.5 256 Z "></path><path fill="rgb(0,124,229)" stroke="rgb(0,124,229)" stroke-width="1" opacity="0.984313725490196" d="M 29.5 290 L 37 293.5 L 35.5 294 L 29.5 291 L 29.5 290 Z "></path><path fill="rgb(0,124,229)" stroke="rgb(0,124,229)" stroke-width="1" opacity="0.984313725490196" d="M 38.5 294 L 50 299.5 L 48.5 300 L 38.5 295 L 38.5 294 Z "></path><path fill="rgb(0,124,229)" stroke="rgb(0,124,229)" stroke-width="1" opacity="0.984313725490196" d="M 70.5 309 L 74 310.5 L 72.5 311 L 70.5 309 Z "></path><path fill="rgb(0,124,229)" stroke="rgb(0,124,229)" stroke-width="1" opacity="0.984313725490196" d="M 122.5 333 L 128 335.5 L 126.5 336 L 122.5 334 L 122.5 333 Z "></path><path fill="rgb(0,124,229)" stroke="rgb(0,124,229)" stroke-width="1" opacity="0.984313725490196" d="M 131.5 337 L 145 343.5 L 143.5 343 L 131.5 338 L 131.5 337 Z "></path><path fill="rgb(0,124,229)" stroke="rgb(0,124,229)" stroke-width="1" opacity="0.984313725490196" d="M 172.5 356 L 189 363.5 L 187.5 364 L 172.5 357 L 172.5 356 Z "></path><path fill="rgb(0,130,239)" stroke="rgb(0,130,239)" stroke-width="1" opacity="0.984313725490196" d="M 23 84 L 88 103 L 88 118.5 L 87 119.5 L 87 121.5 L 88 124.5 L 87 125.5 L 87 200.5 L 86 202.5 Q 88.3 203.8 85.5 205 L 23 182 L 23 84 Z "></path><path fill="rgb(0,130,239)" stroke="rgb(0,130,239)" stroke-width="1" opacity="0.984313725490196" d="M 100 107 L 123.5 113 L 145.5 121 L 183.5 131 L 188 133.5 L 187.5 243 L 99 209.5 L 99 159.5 L 100 158.5 L 99 156.5 L 100 153.5 L 99 151.5 L 100 150.5 L 100 107 Z "></path><path fill="rgb(0,130,239)" stroke="rgb(0,130,239)" stroke-width="1" opacity="0.984313725490196" d="M 23 196 L 29.5 197 L 37.5 201 L 86 218 L 86 272.5 L 85 276.5 L 85 278.5 L 85 314.5 L 83.5 315 L 24 288 L 24 199.5 L 23 196 Z "></path><path fill="rgb(0,130,239)" stroke="rgb(0,130,239)" stroke-width="1" opacity="0.984313725490196" d="M 99.5 223 L 179.5 253 L 188 257.5 L 188 271.5 L 189 272.5 L 189 363 L 151.5 347 L 141.5 341 L 98 321.5 L 98 231.5 L 99 230.5 L 98 228.5 L 98 224.5 L 99.5 223 Z "></path><path fill="rgb(29,30,32)" stroke="rgb(29,30,32)" stroke-width="1" opacity="0.9921568627450981" d="M 151.5 40 L 155.5 40 L 174 49.5 L 172.5 50 L 152.5 42 L 151.5 40 Z "></path><path fill="rgb(29,30,32)" stroke="rgb(29,30,32)" stroke-width="1" opacity="0.9921568627450981" d="M 102.5 43 L 105 43.5 L 102.5 44 L 102.5 43 Z "></path><path fill="rgb(29,30,32)" stroke="rgb(29,30,32)" stroke-width="1" opacity="0.9921568627450981" d="M 98.5 44 L 101 44.5 L 98.5 45 L 98.5 44 Z "></path><path fill="rgb(29,30,32)" stroke="rgb(29,30,32)" stroke-width="1" opacity="0.9921568627450981" d="M 94.5 45 L 97 45.5 L 25.5 66 L 18.5 67 L 15.5 69 L 14.5 67 L 94.5 45 Z "></path><path fill="rgb(29,30,32)" stroke="rgb(29,30,32)" stroke-width="1" opacity="0.9921568627450981" d="M 179.5 53 L 184 54.5 L 181.5 55 L 179.5 53 Z "></path><path fill="rgb(29,30,32)" stroke="rgb(29,30,32)" stroke-width="1" opacity="0.9921568627450981" d="M 210.5 61 L 214 61.5 L 208.5 63 L 208.5 62 L 210.5 61 Z "></path><path fill="rgb(29,30,32)" stroke="rgb(29,30,32)" stroke-width="1" opacity="0.9921568627450981" d="M 302.5 61 L 308 62.5 L 304.5 63 L 302.5 61 Z "></path><path fill="rgb(29,30,32)" stroke="rgb(29,30,32)" stroke-width="1" opacity="0.9921568627450981" d="M 11 75 L 14 76.5 L 14 210.5 L 15 211.5 L 15 294.5 L 16.5 296 L 82.5 326 L 92.5 329 L 95 326.5 L 95 304.5 L 96 303.5 L 96 231.5 L 97 230.5 L 97 228.5 L 97.5 221 L 98 333 L 196.5 377 L 197 375.5 L 196 374.5 L 196 259 L 120 229.5 L 121.5 229 L 184.5 253 L 194.5 255 Q 196.8 254.3 196 250.5 L 195 248.5 L 196 247.5 L 196 228.5 L 195 227.5 L 195 130.5 Q 195.8 128.3 199.5 129 Q 201 131.5 206.5 130 L 275.5 111 L 290.5 108 L 294.5 106 L 347.5 93 L 351.5 91 L 370.5 87 L 374.5 85 L 378.5 85 L 390.5 79 L 393 80 L 392 83.5 L 395 85.5 L 395 132.5 L 394 133.5 L 394 303.5 L 393 304.5 L 398 308.5 L 399 316.5 L 374 390.5 L 369.5 396 L 366.5 397 L 343.5 397 L 337 392.5 L 322.5 347 Q 324.2 376.2 309.5 389 Q 297.9 399.9 273.5 398 Q 257.9 395.1 250 384.5 Q 244 377 242.5 365 L 210.5 378 L 201 380 L 199.5 377 L 197.5 380 L 186.5 376 L 97.5 334 L 88 333 L 86.5 329 L 17.5 297 L 11 297 L 11 75 Z M 382 91 L 208 134 L 205 137 L 205 268 L 205 270 L 206 271 L 206 333 L 207 334 L 207 366 L 241 354 L 241 314 L 243 309 Q 246 304 252 303 L 268 303 L 273 305 Q 277 308 278 314 L 279 340 L 285 338 L 286 337 L 286 314 L 288 309 Q 290 304 296 304 L 260 287 L 263 283 L 272 286 L 292 297 L 293 300 L 297 303 Q 301 302 303 304 Q 310 302 315 297 L 330 293 L 343 286 Q 347 285 349 288 L 352 287 L 353 282 L 371 277 L 379 278 L 353 287 L 351 291 L 347 290 L 316 302 Q 312 301 313 304 L 317 305 L 323 303 Q 336 301 345 305 Q 349 307 349 313 L 362 309 L 370 304 L 378 303 L 382 301 L 382 278 L 381 277 L 384 275 L 383 273 L 383 238 L 381 227 L 381 198 L 382 197 L 381 182 L 378 178 L 366 172 L 361 172 L 357 170 L 346 168 L 340 165 L 338 163 Q 336 159 330 161 L 317 154 L 317 153 L 381 174 L 381 105 L 382 104 L 382 91 Z M 251 313 L 251 365 L 253 373 L 257 380 Q 262 387 274 389 Q 292 391 302 384 Q 311 378 313 365 L 313 314 L 313 313 L 296 313 L 296 359 L 293 370 L 286 375 L 276 374 L 270 368 L 268 359 L 268 313 L 251 313 Z M 321 313 L 344 387 L 346 388 L 366 388 L 390 316 L 390 313 L 373 313 L 370 318 L 361 348 L 356 370 L 351 350 L 340 315 L 340 313 L 321 313 Z M 360 321 L 352 325 L 356 335 L 360 324 L 360 321 Z M 286 349 L 277 352 Q 276 360 279 365 L 280 366 L 285 366 L 287 360 L 287 350 L 286 349 Z "></path><path fill="rgb(29,30,32)" stroke="rgb(29,30,32)" stroke-width="1" opacity="0.9921568627450981" d="M 88 102 L 101 102.5 L 98 103 L 97.5 105 Q 96.8 102.3 92.5 103 L 90 105.5 L 90 124.5 L 89 125.5 L 88.5 201 L 88 102 Z "></path><path fill="rgb(29,30,32)" stroke="rgb(29,30,32)" stroke-width="1" opacity="0.9921568627450981" d="M 302.5 149 L 304.5 150 L 306.5 150 L 308 150.5 L 301.5 151 L 283 158.5 L 308 167.5 L 302.5 168 L 279.5 159 L 274.5 159 L 266.5 164 L 238.5 167 L 238.5 166 L 302.5 149 Z "></path><path fill="rgb(29,30,32)" stroke="rgb(29,30,32)" stroke-width="1" opacity="0.9921568627450981" d="M 97.5 159 L 98 210.5 L 97 210.5 L 97.5 159 Z "></path><path fill="rgb(29,30,32)" stroke="rgb(29,30,32)" stroke-width="1" opacity="0.9921568627450981" d="M 234.5 167 L 237 167.5 L 231.5 169 L 231.5 168 L 234.5 167 Z "></path><path fill="rgb(29,30,32)" stroke="rgb(29,30,32)" stroke-width="1" opacity="0.9921568627450981" d="M 224.5 170 L 226 170.5 L 224 180.5 L 224 200.5 L 223 201.5 L 223 260.5 Q 225.2 261.8 224 266.5 L 225.5 268 L 231.5 269 L 255 279 Q 254.4 283.6 258 285.5 L 256 286 Q 257.1 283.3 254.5 284 L 227.5 271 L 222 270 L 222 174.5 L 224 172.5 Q 221.8 171.3 224.5 170 Z "></path><path fill="rgb(29,30,32)" stroke="rgb(29,30,32)" stroke-width="1" opacity="0.9921568627450981" d="M 321.5 172 L 352 182 Q 353.8 186.5 348.5 185 L 323.5 176 L 320 173.5 L 321.5 172 Z "></path><path fill="rgb(29,30,32)" stroke="rgb(29,30,32)" stroke-width="1" opacity="0.9921568627450981" d="M 19.5 181 L 70 200.5 L 68.5 201 L 19.5 183 L 18 183.5 L 19.5 181 Z "></path><path fill="rgb(29,30,32)" stroke="rgb(29,30,32)" stroke-width="1" opacity="0.9921568627450981" d="M 353 186 Q 356.7 184.7 355 190.5 L 354 190.5 L 353 186 Z "></path><path fill="rgb(29,30,32)" stroke="rgb(29,30,32)" stroke-width="1" opacity="0.9921568627450981" d="M 71.5 201 L 78 203.5 L 76.5 204 L 71.5 202 L 71.5 201 Z "></path><path fill="rgb(29,30,32)" stroke="rgb(29,30,32)" stroke-width="1" opacity="0.9921568627450981" d="M 79.5 204 L 83 205.5 L 81.5 206 L 79.5 204 Z "></path><path fill="rgb(29,30,32)" stroke="rgb(29,30,32)" stroke-width="1" opacity="0.9921568627450981" d="M 224 222 L 254 233.5 L 252.5 234 L 224 225 L 224 222 Z "></path><path fill="rgb(29,30,32)" stroke="rgb(29,30,32)" stroke-width="1" opacity="0.9921568627450981" d="M 112.5 226 L 119 228.5 L 117.5 229 L 112.5 227 L 112.5 226 Z "></path><path fill="rgb(253,0,253)" stroke="rgb(253,0,253)" stroke-width="1" opacity="1" d="M 251 313 L 268 313 L 268 361.5 L 270 368.5 L 273.5 373 Q 277.5 376.5 286.5 375 L 292 371.5 L 296 362.5 L 296 313 L 313 313 L 313 362.5 Q 310.8 375.8 302.5 383 Q 293.6 390.6 275.5 389 L 263.5 385 L 256 377.5 L 251 362.5 L 251 313 Z "></path><path fill="rgb(253,0,253)" stroke="rgb(253,0,253)" stroke-width="1" opacity="1" d="M 321 313 L 339.5 313 L 340 315.5 L 352 354.5 L 355.5 371 L 372 313 L 389.5 313 L 390 314.5 L 365 388 L 345.5 388 L 345 386.5 L 321 313 Z "></path><path fill="rgb(12,71,122)" stroke="rgb(12,71,122)" stroke-width="1" opacity="0.996078431372549" d="M 95.5 100 L 98 101.5 L 96.5 101 L 95.5 100 Z "></path><path fill="rgb(12,71,122)" stroke="rgb(12,71,122)" stroke-width="1" opacity="0.996078431372549" d="M 92.5 103 Q 97.3 102.3 98 105.5 L 97 211 Q 100.8 209.5 100 212.5 L 101.5 212 Q 103.8 211.3 103 213.5 L 108 214.5 L 108.5 216 L 111 215 L 111.5 217 L 113.5 217 Q 116.8 215.9 116 218.5 L 118.5 219 L 194 247 L 194 181.5 L 193 180.5 L 193 178.5 L 194 176.5 L 193 175.5 L 193 130.5 L 192 129.5 L 193.5 130 L 195 130.5 L 195 227.5 L 196 228.5 L 196 247.5 L 195 249.5 L 196 253.5 Q 195 256 190.5 255 L 138.5 236 L 137 236.5 L 137.5 235 L 134.5 236 L 134.5 234 L 130.5 233 L 129 233.5 L 129.5 232 L 126.5 233 L 126.5 231 L 124.5 232 L 124.5 230 L 121.5 231 L 121.5 229 L 118.5 230 L 118.5 228 L 116.5 229 L 116.5 227 L 113.5 228 L 113.5 226 L 111.5 227 L 111 225 L 108.5 226 L 107.5 224 L 105.5 225 L 105.5 223 L 103.5 224 L 103 222 L 100.5 223 L 99.5 221 L 97 221.5 Q 98.7 227.7 96 229.5 L 96 231.5 L 96 303.5 L 95 304.5 L 95 326.5 L 92.5 329 L 87 327.5 L 88 326.5 L 88 218.5 L 84.5 216 L 17 191 L 16.5 189 L 15 190.5 L 14.5 211 L 14 108.5 L 15 108.5 L 15.5 188 L 17.5 183 L 19.5 183 L 64.5 199 L 66 198.5 L 65.5 200 L 68.5 199 L 68.5 201 L 71.5 200 L 71.5 202 L 73.5 201 L 73.5 203 L 76.5 202 L 76.5 204 L 78.5 203 L 79 205 L 81.5 204 L 81.5 206 L 84.5 205 L 84.5 207 L 86.5 206 L 88 206.5 Q 86.8 201.8 89 200.5 L 89 125.5 L 90 124.5 L 90 105.5 L 92.5 103 Z M 94 105 L 92 107 L 92 121 L 91 122 L 91 197 L 90 198 L 90 209 L 89 210 L 20 185 L 18 189 L 82 212 L 87 214 L 90 218 L 89 326 L 92 327 L 93 326 L 93 310 L 94 309 L 94 239 L 94 237 L 95 235 L 95 219 L 101 219 L 191 253 Q 195 255 194 251 L 187 246 L 96 213 L 95 211 L 95 165 L 96 163 L 96 161 L 96 106 L 94 105 Z "></path><path fill="rgb(12,71,122)" stroke="rgb(12,71,122)" stroke-width="1" opacity="0.996078431372549" d="M 98.5 103 L 101 103.5 L 98.5 104 L 98.5 103 Z "></path><path fill="rgb(12,71,122)" stroke="rgb(12,71,122)" stroke-width="1" opacity="0.996078431372549" d="M 18 180 L 20 180.5 L 18 181.5 L 18 180 Z "></path><path fill="rgb(12,71,122)" stroke="rgb(12,71,122)" stroke-width="1" opacity="0.996078431372549" d="M 193.5 258 L 196 259 L 196 374.5 L 197 376.5 L 195.5 376 L 193 375.5 L 194 374.5 L 194 259.5 L 193.5 258 Z "></path><path fill="rgb(236,108,144)" stroke="rgb(236,108,144)" stroke-width="1" opacity="0.9568627450980393" d="M 302.5 154 L 326 161 Q 327.3 164.3 322.5 163 Q 316.8 166.8 307.5 167 L 286 159.5 L 302.5 154 Z "></path><path fill="rgb(236,108,144)" stroke="rgb(236,108,144)" stroke-width="1" opacity="0.9568627450980393" d="M 269.5 163 L 274 163 Q 272.9 165.7 275.5 165 L 291 171 Q 292.3 174 288.5 173 L 260.5 182 L 256.5 182 L 231 173.5 L 261.5 165 L 265.5 165 L 269.5 163 Z "></path><path fill="rgb(236,108,144)" stroke="rgb(236,108,144)" stroke-width="1" opacity="0.9568627450980393" d="M 337.5 166 L 340.5 166 L 374 177.5 L 353.5 183 L 351.5 181 L 323 171.5 L 333.5 169 L 337.5 166 Z "></path><path fill="rgb(236,108,144)" stroke="rgb(236,108,144)" stroke-width="1" opacity="0.9568627450980393" d="M 301.5 177 L 306.5 177 L 333 187.5 L 313.5 193 L 300.5 195 L 276.5 188 L 272 185.5 L 301.5 177 Z "></path><path fill="rgb(236,108,144)" stroke="rgb(236,108,144)" stroke-width="1" opacity="0.9568627450980393" d="M 227 178 L 252.5 185 L 257 187.5 L 257 224.5 L 255.5 226 L 231.5 217 L 227 217 L 227 178 Z "></path><path fill="rgb(236,108,144)" stroke="rgb(236,108,144)" stroke-width="1" opacity="0.9568627450980393" d="M 375.5 182 Q 380.9 181.4 381 182.5 L 381 222 L 375.5 222 L 358.5 227 L 354 227 L 355 187 L 375.5 182 Z "></path><path fill="rgb(236,108,144)" stroke="rgb(236,108,144)" stroke-width="1" opacity="0.9568627450980393" d="M 265.5 189 L 298 199 L 298 240.5 L 295.5 241 L 267.5 231 L 264 228.5 L 264 190.5 L 265.5 189 Z "></path><path fill="rgb(236,108,144)" stroke="rgb(236,108,144)" stroke-width="1" opacity="0.9568627450980393" d="M 338.5 191 L 345.5 191 L 346 191.5 L 346 228.5 L 343.5 231 L 304.5 241 L 303 239.5 L 303 200 L 338.5 191 Z "></path><path fill="rgb(236,108,144)" stroke="rgb(236,108,144)" stroke-width="1" opacity="0.9568627450980393" d="M 227 227 L 256 235 L 256 277.5 L 252.5 278 L 227 265.5 L 227 227 Z "></path><path fill="rgb(236,108,144)" stroke="rgb(236,108,144)" stroke-width="1" opacity="0.9568627450980393" d="M 380.5 227 L 381 272 L 353 281 L 353 237.5 L 354 235 L 375.5 230 L 380.5 227 Z "></path><path fill="rgb(236,108,144)" stroke="rgb(236,108,144)" stroke-width="1" opacity="0.9568627450980393" d="M 264.5 238 L 287.5 245 L 298 250.5 L 298 297.5 L 296.5 298 L 262 281.5 L 263 280.5 L 263 239.5 L 264.5 238 Z "></path><path fill="rgb(236,108,144)" stroke="rgb(236,108,144)" stroke-width="1" opacity="0.9568627450980393" d="M 341.5 238 Q 346 237.5 346 238.5 L 346 283.5 L 340.5 287 L 304 300 L 304 280.5 L 303 279.5 L 303 251.5 L 304 249 L 341.5 238 Z "></path><path fill="rgb(120,86,97)" stroke="rgb(120,86,97)" stroke-width="1" opacity="0.9411764705882353" d="M 201.5 17 L 202.5 19 L 204 18.5 Q 203.2 21.1 206.5 20 L 354.5 68 L 356 67.5 L 355.5 69 L 357.5 68 L 358 70 L 360.5 69 L 361 71 L 363.5 70 L 364 72 L 366.5 71 L 367 73 L 369.5 72 L 371.5 74 L 372.5 73 L 374.5 75 L 375.5 74 L 379.5 76 L 387 79.5 L 380.5 83 L 349.5 90 L 318.5 99 L 314.5 99 L 299.5 104 L 253.5 115 L 207.5 128 L 200 128 Q 201.3 125 197.5 126 Q 196.5 130 190.5 129 L 107.5 103 L 104 103 Q 105.3 100 101.5 101 Q 100 98.5 94.5 100 L 74.5 93 L 15 76 L 15 70.5 L 16.5 70 L 201 19 L 201.5 17 Z M 202 28 L 160 39 L 160 41 L 155 39 L 153 39 L 150 38 L 146 40 L 151 42 L 100 55 L 90 59 L 87 57 L 80 58 L 80 59 Q 82 58 81 61 L 33 74 L 72 86 L 75 85 L 76 86 L 74 87 L 91 92 L 98 93 L 99 95 L 100 93 L 102 95 L 111 98 L 150 109 L 152 109 L 153 110 L 151 111 L 155 112 L 159 111 Q 161 110 160 113 L 187 120 L 196 124 L 200 124 Q 212 119 228 117 L 231 115 L 251 111 L 299 98 L 298 97 L 298 96 L 300 97 L 304 97 L 307 95 L 327 91 L 360 82 L 359 80 L 307 64 L 309 63 L 307 59 L 300 62 L 300 61 L 282 55 L 276 51 L 274 52 L 272 49 L 271 47 L 265 47 L 261 45 L 246 43 L 237 40 L 241 38 L 239 36 Q 233 35 232 37 L 202 28 Z "></path><path fill="rgb(120,86,97)" stroke="rgb(120,86,97)" stroke-width="1" opacity="0.9411764705882353" d="M 157.5 25 L 160 25.5 L 157.5 26 L 157.5 25 Z "></path><path fill="rgb(120,86,97)" stroke="rgb(120,86,97)" stroke-width="1" opacity="0.9411764705882353" d="M 135.5 31 L 134.5 33 L 135.5 31 Z "></path><path fill="rgb(120,86,97)" stroke="rgb(120,86,97)" stroke-width="1" opacity="0.9411764705882353" d="M 128.5 33 L 127.5 35 L 128.5 33 Z "></path><path fill="rgb(120,86,97)" stroke="rgb(120,86,97)" stroke-width="1" opacity="0.9411764705882353" d="M 121.5 35 L 124 35.5 L 121.5 36 L 121.5 35 Z "></path><path fill="rgb(120,86,97)" stroke="rgb(120,86,97)" stroke-width="1" opacity="0.9411764705882353" d="M 221.5 58 L 224 58.5 L 218.5 60 L 218.5 59 L 221.5 58 Z "></path><path fill="rgb(120,86,97)" stroke="rgb(120,86,97)" stroke-width="1" opacity="0.9411764705882353" d="M 213.5 60 L 217 60.5 Q 215.8 63.3 214.5 61 L 213.5 60 Z "></path><path fill="rgb(120,86,97)" stroke="rgb(120,86,97)" stroke-width="1" opacity="0.9411764705882353" d="M 17.5 64 L 20 64.5 L 17.5 65 L 17.5 64 Z "></path><path fill="rgb(120,86,97)" stroke="rgb(120,86,97)" stroke-width="1" opacity="0.9411764705882353" d="M 12.5 67 L 12 68.5 L 11.5 70 L 11 68.5 L 12.5 67 Z "></path><path fill="rgb(120,86,97)" stroke="rgb(120,86,97)" stroke-width="1" opacity="0.9411764705882353" d="M 384.5 72 L 386.5 75 L 384.5 72 Z "></path><path fill="rgb(120,86,97)" stroke="rgb(120,86,97)" stroke-width="1" opacity="0.9411764705882353" d="M 246.5 77 L 247.5 79 L 246.5 77 Z "></path><path fill="rgb(120,86,97)" stroke="rgb(120,86,97)" stroke-width="1" opacity="0.9411764705882353" d="M 180.5 99 L 179.5 101 L 180.5 99 Z "></path><path fill="rgb(120,86,97)" stroke="rgb(120,86,97)" stroke-width="1" opacity="0.9411764705882353" d="M 303.5 151 L 310.5 152 L 312 151.5 Q 311.2 154.1 314.5 153 L 330 161.5 L 326.5 163 L 326 161 L 302.5 154 L 296.5 156 L 296.5 155 L 303.5 151 Z "></path><path fill="rgb(120,86,97)" stroke="rgb(120,86,97)" stroke-width="1" opacity="0.9411764705882353" d="M 292.5 156 L 295 156.5 L 292.5 157 L 292.5 156 Z "></path><path fill="rgb(120,86,97)" stroke="rgb(120,86,97)" stroke-width="1" opacity="0.9411764705882353" d="M 286.5 158 L 288 158.5 L 285.5 160 L 286.5 158 Z "></path><path fill="rgb(120,86,97)" stroke="rgb(120,86,97)" stroke-width="1" opacity="0.9411764705882353" d="M 276.5 160 L 305.5 170 L 331.5 163 L 336.5 163 L 340 165.5 L 333.5 169 L 321.5 172 L 318.5 171 L 315 173.5 L 351 186.5 L 352 188.5 L 352.5 228 L 353.5 226 L 358.5 227 L 379 222 L 381 226.5 L 375.5 230 L 354 235 L 353.5 237 L 352.5 235 L 352 250.5 L 353 251.5 L 353 280.5 L 354 281.5 L 351 283.5 L 349.5 286 L 345 284.5 L 346 283.5 L 346 238 L 339.5 237 L 339.5 238 L 341 238.5 L 338.5 239 L 335.5 238 L 335.5 239 L 337 239.5 L 335.5 240 L 332.5 239 L 332.5 240 L 334 240.5 L 332.5 241 L 328.5 240 L 328.5 241 L 330 241.5 L 328.5 242 L 324.5 241 L 304 247.5 L 306 248.5 L 304 249 L 303 251.5 L 303 279.5 L 304 280.5 L 304 300 L 307.5 299 L 307.5 300 Q 305.3 299.3 306 301.5 Q 304.8 304.3 299.5 303 L 288 294.5 L 289.5 295 L 298 298 L 298 250.5 L 296.5 249 L 285 244.5 L 285.5 243 L 282.5 244 L 282.5 242 L 279.5 243 L 279.5 242 L 281 241.5 L 266.5 236 L 263.5 236 L 264 237.5 L 263 239.5 L 263 280.5 L 259.5 284 L 257 282.5 L 256 235.5 L 257 233.5 L 253.5 231 L 224 221 L 223.5 224 L 223 211.5 L 224 210.5 L 225 171 L 240.5 167 L 256.5 166 L 256.5 167 L 231 173.5 L 259 182.5 L 257 183.5 L 258 184.5 L 258.5 201 L 259 185.5 L 260.5 184 L 263 182.5 L 261 181.5 L 262.5 181 L 264.5 182 L 264.5 180 L 269.5 179 L 271.5 180 L 271.5 178 L 275.5 179 L 275.5 178 L 274 177.5 L 276.5 177 L 279.5 178 L 279.5 177 L 278 176.5 L 279.5 176 L 282.5 177 L 282.5 176 L 281 175.5 L 282.5 175 L 286.5 176 L 286.5 175 L 285 174.5 L 286.5 174 L 290.5 175 L 293 173.5 L 291 173 Q 292.1 170.3 289.5 171 L 274 165 Q 275.3 162 271.5 163 L 271.5 162 L 276.5 160 Z M 302 177 L 272 186 L 277 188 L 301 195 L 314 193 L 333 188 L 307 177 L 302 177 Z M 227 178 L 227 217 L 232 217 L 256 226 L 258 226 L 257 188 L 253 185 L 227 178 Z M 266 189 L 264 191 L 264 229 L 268 231 L 296 241 L 298 241 L 298 199 L 266 189 Z M 339 191 L 303 200 L 303 240 L 305 241 L 344 231 L 346 229 L 346 192 L 346 191 L 339 191 Z M 258 235 L 257 251 L 258 251 L 258 235 Z M 352 257 L 351 269 L 352 269 L 352 257 Z "></path><path fill="rgb(120,86,97)" stroke="rgb(120,86,97)" stroke-width="1" opacity="0.9411764705882353" d="M 258.5 165 L 261 165.5 L 258.5 166 L 258.5 165 Z "></path><path fill="rgb(120,86,97)" stroke="rgb(120,86,97)" stroke-width="1" opacity="0.9411764705882353" d="M 353.5 170 L 358 171.5 L 356.5 172 L 353.5 171 L 353.5 170 Z "></path><path fill="rgb(120,86,97)" stroke="rgb(120,86,97)" stroke-width="1" opacity="0.9411764705882353" d="M 359.5 172 L 363.5 172 L 373 176.5 L 371.5 177 L 359.5 173 L 359.5 172 Z "></path><path fill="rgb(120,86,97)" stroke="rgb(120,86,97)" stroke-width="1" opacity="0.9411764705882353" d="M 374.5 177 L 377 178 L 378.5 181 L 381 181.5 L 355.5 187 L 352 186 Q 350.3 181.9 354.5 183 L 374.5 177 Z "></path><path fill="rgb(120,86,97)" stroke="rgb(120,86,97)" stroke-width="1" opacity="0.9411764705882353" d="M 354.5 201 L 355 209.5 L 354 209.5 L 354.5 201 Z "></path><path fill="rgb(120,86,97)" stroke="rgb(120,86,97)" stroke-width="1" opacity="0.9411764705882353" d="M 223.5 225 L 228 226.5 L 227 227.5 L 227 265.5 L 239 271.5 L 237.5 272 Q 233.7 268.3 226.5 268 L 224 265.5 L 224 256.5 L 223 255.5 L 223.5 225 Z "></path><path fill="rgb(120,86,97)" stroke="rgb(120,86,97)" stroke-width="1" opacity="0.9411764705882353" d="M 381.5 231 L 382 240.5 L 383 241.5 L 383 274.5 L 381.5 276 L 365.5 278 L 365.5 277 L 381 272 L 381.5 231 Z "></path><path fill="rgb(120,86,97)" stroke="rgb(120,86,97)" stroke-width="1" opacity="0.9411764705882353" d="M 291.5 371 L 290.5 373 L 291.5 371 Z "></path><path fill="rgb(120,86,97)" stroke="rgb(120,86,97)" stroke-width="1" opacity="0.9411764705882353" d="M 258.5 380 L 260.5 383 L 258.5 380 Z "></path><path fill="rgb(6,90,161)" stroke="rgb(6,90,161)" stroke-width="1" opacity="0.996078431372549" d="M 13.5 75 L 79.5 95 L 97 101.5 L 85.5 102 L 23 83 L 23 180.5 L 20.5 181 L 18 180 L 15.5 188 L 15 108.5 L 14 107.5 L 14 76.5 L 13.5 75 Z "></path><path fill="rgb(6,90,161)" stroke="rgb(6,90,161)" stroke-width="1" opacity="0.996078431372549" d="M 101.5 103 L 111.5 105 L 183.5 128 L 191.5 129 L 193 130.5 L 193 175.5 L 194 176.5 L 193 178.5 L 194 181.5 L 194 246.5 L 191.5 247 L 188 245.5 L 189 244.5 L 189 133.5 L 187.5 132 L 158.5 123 L 98 106 Q 96.8 103 100.5 104 L 101.5 103 Z "></path><path fill="rgb(6,90,161)" stroke="rgb(6,90,161)" stroke-width="1" opacity="0.996078431372549" d="M 93.5 105 L 96 105.5 L 96 160.5 L 96 162.5 L 95 164.5 L 95 210.5 L 96 213 L 186.5 246 L 194 250.5 Q 195.3 254.7 190.5 253 L 100.5 219 L 95 219 L 95 234.5 L 94 236.5 L 94 238.5 L 94 308.5 L 93 309.5 L 93 325.5 L 91.5 327 L 89 325.5 L 90 217.5 L 86.5 214 L 81.5 212 L 18 189 L 19.5 185 L 88.5 210 L 90 208.5 L 90 197.5 L 91 196.5 L 91 121.5 L 92 120.5 L 92 106.5 L 93.5 105 Z "></path><path fill="rgb(6,90,161)" stroke="rgb(6,90,161)" stroke-width="1" opacity="0.996078431372549" d="M 15 190 L 23 193.5 L 23 287.5 L 24.5 288 L 86.5 317 L 88 316.5 L 88 326.5 L 86.5 327 L 15 295 L 15 190 Z "></path><path fill="rgb(6,90,161)" stroke="rgb(6,90,161)" stroke-width="1" opacity="0.996078431372549" d="M 188.5 256 L 194 259.5 L 194 374.5 L 192.5 375 L 98 331.5 L 98 323.5 L 99.5 323 L 189 364 L 189 257.5 L 188.5 256 Z "></path><path fill="rgb(6,90,161)" stroke="rgb(6,90,161)" stroke-width="1" opacity="0.996078431372549" d="M 86.5 330 Q 88.8 329.3 88 331.5 L 86.5 330 Z "></path><path fill="rgb(71,69,70)" stroke="rgb(71,69,70)" stroke-width="1" opacity="0.996078431372549" d="M 199.5 17 Q 202.1 16.3 201 19 L 15.5 70 L 16.5 68 L 79 50.5 L 78.5 49 L 82.5 50 L 101 45 L 101.5 43 L 105 44 L 105.5 42 L 107.5 43 Q 109 39.5 110.5 42 L 113.5 40 L 115.5 40 L 117.5 39 Q 119 41.5 120.5 38 L 199.5 17 Z M 180 52 L 179 54 L 182 55 L 184 55 L 180 52 Z "></path><path fill="rgb(71,69,70)" stroke="rgb(71,69,70)" stroke-width="1" opacity="0.996078431372549" d="M 204 17 L 337.5 62 L 352.5 66 L 357 68.5 L 355.5 69 L 204 20 L 204 17 Z "></path><path fill="rgb(71,69,70)" stroke="rgb(71,69,70)" stroke-width="1" opacity="0.996078431372549" d="M 232.5 36 Q 238.6 34.9 241 37.5 L 236.5 40 L 194 52 Q 192.9 54.7 195.5 54 L 213 60.5 L 207.5 63 L 185.5 55 L 127 73.5 L 188.5 98 L 248 78.5 L 244.5 76 L 210 63.5 L 214.5 61 L 250.5 75 L 256.5 76 L 306.5 59 L 309 62.5 L 307.5 62 L 302.5 61 L 302.5 62 L 307 63.5 L 261 78.5 L 306 95.5 Q 304.3 97.8 299.5 97 L 260.5 82 L 251.5 81 L 194 100.5 L 230 115.5 Q 228.3 117.8 223.5 117 L 187.5 102 L 161.5 111 L 154.5 112 L 151 110.5 L 181 99.5 L 123.5 76 L 117.5 76 L 81.5 88 L 77.5 88 L 74 86.5 L 114 74 Q 115.3 71 111.5 72 L 79 58.5 Q 81.1 56.1 86.5 57 L 119.5 71 L 123.5 71 L 178 54 Q 179.1 51.3 176.5 52 L 173 50.5 L 173.5 49 L 171.5 50 L 171.5 48 L 155.5 40 L 151.5 40 L 151.5 42 L 146 39.5 L 149.5 38 L 152.5 39 L 154.5 39 L 187.5 51 L 232.5 36 Z "></path><path fill="rgb(71,69,70)" stroke="rgb(71,69,70)" stroke-width="1" opacity="0.996078431372549" d="M 383.5 77 L 386 78.5 L 384.5 78 L 383.5 77 Z "></path><path fill="rgb(71,69,70)" stroke="rgb(71,69,70)" stroke-width="1" opacity="0.996078431372549" d="M 387.5 79 L 389 79.5 L 386.5 81 L 387.5 79 Z "></path><path fill="rgb(71,69,70)" stroke="rgb(71,69,70)" stroke-width="1" opacity="0.996078431372549" d="M 383.5 81 L 385 81.5 L 378.5 85 L 374.5 85 L 370.5 87 L 351.5 91 L 347.5 93 L 294.5 106 L 214.5 128 L 206.5 130 L 200.5 130 L 196.5 129 L 193.5 130 L 193.5 129 L 197.5 126 L 200 126 L 200.5 128 L 207.5 128 L 230.5 121 L 299.5 104 L 314.5 99 L 318.5 99 L 349.5 90 L 380.5 83 L 383.5 81 Z "></path><path fill="rgb(71,69,70)" stroke="rgb(71,69,70)" stroke-width="1" opacity="0.996078431372549" d="M 381.5 91 L 382 103.5 L 381 104.5 L 381 174 L 318.5 154 L 317 154.5 Q 319.3 153.3 316.5 152 L 315 152.5 L 315.5 154 L 312 152.5 L 315 151.5 L 311.5 151 L 307.5 152 L 307.5 150 L 305.5 149 L 303.5 150 L 301.5 150 L 278.5 156 L 274.5 156 L 271.5 158 L 238 166.5 L 240 167.5 L 237.5 168 L 234.5 167 L 234.5 168 L 236 168.5 L 234.5 169 L 231.5 168 L 231.5 170 L 227.5 169 L 226.5 171 L 224.5 170 L 222 174.5 L 222 269.5 L 224.5 270 L 256 284 L 255 279.5 L 256 278.5 L 256.5 264 L 257 282.5 L 258.5 284 L 262.5 282 L 260 285.5 Q 259.3 287.8 261.5 287 L 294.5 302 L 293 299.5 L 292 297.5 L 296.5 301 L 299 302.5 L 296.5 303 L 295 302.5 Q 295.8 304.8 293.5 304 L 288 308.5 L 286 313.5 L 286 336.5 L 284.5 338 L 278.5 340 L 278 313.5 Q 276.8 307.8 272.5 305 L 267.5 303 L 251.5 303 Q 245.8 304.3 243 308.5 L 241 313.5 L 241 354 L 207 366 L 207 333.5 L 206 332.5 L 206 270.5 L 205 269.5 L 205 267.5 L 205 136.5 L 207.5 134 L 381.5 91 Z M 257 284 Q 255 287 258 286 L 257 284 Z "></path><path fill="rgb(71,69,70)" stroke="rgb(71,69,70)" stroke-width="1" opacity="0.996078431372549" d="M 97.5 100 L 104 101 Q 105.3 104 101.5 103 Q 97.5 102.5 97.5 100 Z "></path><path fill="rgb(71,69,70)" stroke="rgb(71,69,70)" stroke-width="1" opacity="0.996078431372549" d="M 301.5 151 L 303 151.5 L 295.5 156 L 287.5 158 L 287.5 157 L 301.5 151 Z "></path><path fill="rgb(71,69,70)" stroke="rgb(71,69,70)" stroke-width="1" opacity="0.996078431372549" d="M 319.5 155 L 320.5 157 L 319.5 155 Z "></path><path fill="rgb(71,69,70)" stroke="rgb(71,69,70)" stroke-width="1" opacity="0.996078431372549" d="M 283.5 158 L 286 158.5 Q 283.9 161.8 283.5 158 Z "></path><path fill="rgb(71,69,70)" stroke="rgb(71,69,70)" stroke-width="1" opacity="0.996078431372549" d="M 274.5 159 L 279.5 159 L 302.5 168 L 307.5 168 L 330.5 161 L 336.5 161 L 339 164.5 L 336.5 163 L 331.5 163 L 305.5 170 L 276.5 160 L 272.5 162 L 274.5 159 Z "></path><path fill="rgb(71,69,70)" stroke="rgb(71,69,70)" stroke-width="1" opacity="0.996078431372549" d="M 261.5 164 L 264 164.5 L 261.5 165 L 261.5 164 Z "></path><path fill="rgb(71,69,70)" stroke="rgb(71,69,70)" stroke-width="1" opacity="0.996078431372549" d="M 255.5 165 L 258 165.5 L 255.5 166 L 255.5 165 Z "></path><path fill="rgb(71,69,70)" stroke="rgb(71,69,70)" stroke-width="1" opacity="0.996078431372549" d="M 244.5 166 L 251 166.5 L 244.5 167 L 244.5 166 Z "></path><path fill="rgb(71,69,70)" stroke="rgb(71,69,70)" stroke-width="1" opacity="0.996078431372549" d="M 318.5 171 Q 321.8 169.9 321 172.5 Q 318.8 173.8 321.5 175 L 328 177.5 L 326.5 178 L 315 173.5 L 318.5 171 Z "></path><path fill="rgb(71,69,70)" stroke="rgb(71,69,70)" stroke-width="1" opacity="0.996078431372549" d="M 290.5 173 L 293 173.5 L 277.5 178 L 277.5 177 L 290.5 173 Z "></path><path fill="rgb(71,69,70)" stroke="rgb(71,69,70)" stroke-width="1" opacity="0.996078431372549" d="M 372.5 175 L 373.5 177 L 372.5 175 Z "></path><path fill="rgb(71,69,70)" stroke="rgb(71,69,70)" stroke-width="1" opacity="0.996078431372549" d="M 273.5 178 L 276 178.5 L 273.5 179 L 273.5 178 Z "></path><path fill="rgb(71,69,70)" stroke="rgb(71,69,70)" stroke-width="1" opacity="0.996078431372549" d="M 377.5 178 L 379.5 181 L 377 179.5 L 377.5 178 Z "></path><path fill="rgb(71,69,70)" stroke="rgb(71,69,70)" stroke-width="1" opacity="0.996078431372549" d="M 224.5 180 L 225 188.5 L 224 188.5 L 224.5 180 Z "></path><path fill="rgb(71,69,70)" stroke="rgb(71,69,70)" stroke-width="1" opacity="0.996078431372549" d="M 263.5 181 L 265 181.5 L 259 185.5 L 258.5 201 L 258 184.5 L 257 183.5 L 259 183.5 Q 258.1 180.5 262.5 182 L 263.5 181 Z "></path><path fill="rgb(71,69,70)" stroke="rgb(71,69,70)" stroke-width="1" opacity="0.996078431372549" d="M 350.5 185 L 353 186.5 Q 356.3 191.2 355 200.5 L 354 201.5 L 354 225.5 L 352.5 228 L 352 188.5 L 350.5 185 Z "></path><path fill="rgb(71,69,70)" stroke="rgb(71,69,70)" stroke-width="1" opacity="0.996078431372549" d="M 381.5 185 L 382 196.5 L 381 196.5 L 381.5 185 Z "></path><path fill="rgb(71,69,70)" stroke="rgb(71,69,70)" stroke-width="1" opacity="0.996078431372549" d="M 223.5 201 L 224 210.5 L 223 210.5 L 223.5 201 Z "></path><path fill="rgb(71,69,70)" stroke="rgb(71,69,70)" stroke-width="1" opacity="0.996078431372549" d="M 257.5 214 L 258 225.5 L 257 225.5 L 257.5 214 Z "></path><path fill="rgb(71,69,70)" stroke="rgb(71,69,70)" stroke-width="1" opacity="0.996078431372549" d="M 224.5 221 L 253.5 231 L 257 233.5 L 258 235.5 L 258 250.5 L 257 250.5 L 257 235.5 L 254 235 Q 255.1 232.3 252.5 233 L 251 233.5 L 251.5 232 L 248.5 233 L 248.5 231 L 244.5 232 L 244.5 231 L 246 230.5 L 230.5 225 L 224.5 222 L 224.5 221 Z "></path><path fill="rgb(71,69,70)" stroke="rgb(71,69,70)" stroke-width="1" opacity="0.996078431372549" d="M 379 222 Q 382.3 220.7 381 225.5 L 380 225.5 L 379 222 Z "></path><path fill="rgb(71,69,70)" stroke="rgb(71,69,70)" stroke-width="1" opacity="0.996078431372549" d="M 223.5 224 L 226 225.5 L 224.5 226 L 223.5 224 Z "></path><path fill="rgb(71,69,70)" stroke="rgb(71,69,70)" stroke-width="1" opacity="0.996078431372549" d="M 381.5 227 L 382 230.5 L 381 230.5 L 381.5 227 Z "></path><path fill="rgb(71,69,70)" stroke="rgb(71,69,70)" stroke-width="1" opacity="0.996078431372549" d="M 352.5 235 L 353 250.5 L 352 250.5 L 352.5 235 Z "></path><path fill="rgb(71,69,70)" stroke="rgb(71,69,70)" stroke-width="1" opacity="0.996078431372549" d="M 263.5 236 L 266.5 236 L 283 242.5 L 281.5 243 L 264.5 238 L 263.5 236 Z "></path><path fill="rgb(71,69,70)" stroke="rgb(71,69,70)" stroke-width="1" opacity="0.996078431372549" d="M 339.5 237 L 342 237.5 L 339.5 238 L 339.5 237 Z "></path><path fill="rgb(71,69,70)" stroke="rgb(71,69,70)" stroke-width="1" opacity="0.996078431372549" d="M 382.5 237 L 383 240.5 L 382 240.5 L 382.5 237 Z "></path><path fill="rgb(71,69,70)" stroke="rgb(71,69,70)" stroke-width="1" opacity="0.996078431372549" d="M 335.5 238 L 338 238.5 L 304.5 248 L 304.5 247 L 335.5 238 Z "></path><path fill="rgb(71,69,70)" stroke="rgb(71,69,70)" stroke-width="1" opacity="0.996078431372549" d="M 223.5 256 L 224 260.5 L 223 260.5 L 223.5 256 Z "></path><path fill="rgb(71,69,70)" stroke="rgb(71,69,70)" stroke-width="1" opacity="0.996078431372549" d="M 351.5 257 L 352 268.5 L 351 268.5 L 351.5 257 Z "></path><path fill="rgb(71,69,70)" stroke="rgb(71,69,70)" stroke-width="1" opacity="0.996078431372549" d="M 224.5 266 L 225.5 268 L 224.5 266 Z "></path><path fill="rgb(71,69,70)" stroke="rgb(71,69,70)" stroke-width="1" opacity="0.996078431372549" d="M 383.5 273 L 384 274.5 L 382 275.5 L 383.5 273 Z "></path><path fill="rgb(71,69,70)" stroke="rgb(71,69,70)" stroke-width="1" opacity="0.996078431372549" d="M 375.5 276 Q 380.8 274.8 382 277.5 L 382 300.5 L 380.5 301 L 377.5 303 L 369.5 304 L 361.5 309 L 349 313 Q 348.9 307.4 344.5 305 Q 336.5 301 322.5 303 L 316.5 305 L 313 304 Q 311.8 301 315.5 302 L 346.5 290 L 351 291 L 352 287.5 L 350.5 287 L 348.5 288 L 344 285.5 L 347.5 285 L 349.5 286 L 352.5 282 L 353 284.5 L 352 287 L 379 277.5 Q 374.6 277.9 375.5 276 Z "></path><path fill="rgb(71,69,70)" stroke="rgb(71,69,70)" stroke-width="1" opacity="0.996078431372549" d="M 331.5 290 L 333 290.5 Q 329 294.5 321.5 295 L 321.5 294 L 331.5 290 Z "></path><path fill="rgb(71,69,70)" stroke="rgb(71,69,70)" stroke-width="1" opacity="0.996078431372549" d="M 310.5 298 L 312 298.5 L 305.5 303 L 306 301.5 Q 305.3 299.3 307.5 300 L 310.5 298 Z "></path><path fill="rgb(0,0,0)" stroke="rgb(0,0,0)" stroke-width="1" opacity="0.1411764705882353" d="M 0 0 L 400 0 L 400 400 L 0 400 L 0 0 Z M 197 14 L 183 19 L 179 19 L 176 21 L 172 21 L 169 23 L 150 27 L 133 33 L 114 37 L 101 42 L 97 42 L 72 50 L 68 50 L 65 52 L 61 52 L 37 59 L 37 61 L 36 60 L 29 61 L 29 63 L 28 62 L 24 63 L 26 63 L 26 64 L 22 63 L 22 65 L 18 64 L 18 66 L 16 67 L 14 66 L 10 71 L 11 75 L 11 297 L 18 297 L 87 329 L 86 331 L 89 333 L 98 334 L 187 376 L 198 380 L 200 377 L 201 380 L 211 378 L 243 365 Q 244 377 250 385 Q 258 395 274 398 Q 298 400 310 389 Q 324 376 323 347 L 337 393 L 344 397 L 367 397 L 370 396 L 374 391 L 399 317 L 398 309 L 393 305 L 394 304 L 394 134 L 395 133 L 395 86 L 392 84 L 393 80 L 388 79 L 389 76 L 385 72 L 380 72 L 374 69 L 371 69 L 340 58 L 303 47 L 297 44 L 294 44 L 288 41 L 285 41 L 248 28 L 211 17 L 205 14 L 197 14 Z "></path><path fill="rgb(0,0,0)" stroke="rgb(0,0,0)" stroke-width="1" opacity="0.1411764705882353" d="M 359.5 321 L 360 323.5 L 355.5 335 L 352 324.5 L 359.5 321 Z "></path><path fill="rgb(0,0,0)" stroke="rgb(0,0,0)" stroke-width="1" opacity="0.1411764705882353" d="M 285.5 349 L 287 349.5 L 287 359.5 L 285 366 L 279.5 366 L 279 364.5 Q 275.9 359.9 277 352 L 285.5 349 Z "></path></svg>