<svg width="400" height="400" version="1.1" xmlns="http://www.w3.org/2000/svg" desc="Created with imagetracer.js version 1.2.5"><path fill="rgb(0,0,0)" stroke="rgb(0,0,0)" stroke-width="1" opacity="0" d="M 0 0 L 189 0.5 Q 171.5 12.5 158 28.5 Q 148.7 43.2 136 54.5 L 130 64.5 L 118 104.5 L 118 122.5 L 115 138.5 L 115 151.5 L 113 157.5 L 113 162.5 L 110 169.5 L 110 173.5 L 103 189.5 L 96 200.5 L 88.5 208 Q 78 214 70.5 223 L 63.5 226 L 46.5 228 L 38.5 231 L 15.5 231 L 14.5 230 L 5.5 230 L 0 229 L 0 0 Z "></path><path fill="rgb(0,0,0)" stroke="rgb(0,0,0)" stroke-width="1" opacity="0" d="M 399.5 122 L 400 400 L 182 399.5 Q 203.7 386.2 221 368.5 L 233 354.5 L 251 327.5 L 274 288.5 L 290 256.5 L 291 245.5 L 290 243.5 L 312 182.5 L 334 145.5 L 339.5 140 L 346.5 135 L 348.5 135 L 352.5 137 L 358 132.5 L 360.5 127 L 370.5 123 L 398.5 123 L 399.5 122 Z "></path><path fill="rgb(43,159,196)" stroke="rgb(43,159,196)" stroke-width="1" opacity="1" d="M 209.5 0 L 219 0.5 L 216 1 Q 217.5 4.8 214.5 4 L 210 6.5 L 210.5 8 L 204 10.5 L 206 11.5 L 199 15.5 L 197.5 18 L 192 21.5 L 191.5 23 L 189.5 22 L 189.5 24 L 188 23.5 Q 187.3 25.8 189.5 25 L 189.5 26 L 182 29 L 181.5 31 L 180 30.5 Q 179.3 32.8 181.5 32 L 181.5 33 Q 176.7 31.3 178 35.5 L 176 35.5 L 175 39 L 171 39.5 L 171.5 41 L 170 40.5 L 169 42.5 L 169.5 44 Q 167.3 43.3 168 45.5 L 162 48.5 L 165 49 L 164.5 51 Q 163.3 48.8 162 51.5 Q 162.7 54.1 160 53 L 160 55.5 L 155.5 61 L 153 62.5 L 149 67.5 L 150.5 68 L 152 67.5 L 149 69.5 L 148.5 68 L 146 75 Q 143.3 73.9 144 76.5 L 144 78.5 L 143.5 80 L 142.5 78 L 140 82.5 L 136 87.5 L 137.5 88 L 157.5 81 L 190.5 81 L 191.5 82 L 198.5 82 L 208.5 84 L 225.5 90 L 259.5 110 L 274.5 120 L 280 125.5 Q 288.3 133.2 293 144.5 L 298.5 163 L 307 147.5 L 309 142.5 L 309 138.5 L 312.5 134 Q 317.5 134.5 318 130.5 Q 316.9 122.9 321.5 121 L 335 110.5 L 340.5 104 L 352 101 L 353 98.5 L 353 78.5 L 351 72.5 L 350 59.5 L 343 38.5 L 338 29.5 L 322.5 14 L 303 0.5 L 304.5 0 Q 325.3 12.2 340 30.5 L 345 40.5 L 351 59.5 L 351 65.5 L 354 78.5 L 354 100.5 L 353 103 L 345.5 106 L 320 124.5 L 321 130.5 L 318.5 134 Q 312.8 135.3 310 139.5 L 310 143.5 L 298.5 168 L 289 138.5 L 272.5 120 L 235.5 96 L 220.5 89 L 203.5 84 L 191.5 83 L 190.5 82 L 158.5 82 L 143.5 86 L 134 90 L 140 68.5 L 145 60.5 Q 157.7 49.2 167 34.5 L 182.5 19 L 209.5 0 Z "></path><path fill="rgb(43,159,196)" stroke="rgb(43,159,196)" stroke-width="1" opacity="1" d="M 323.5 0 L 329.5 4 L 348 22.5 L 355 35.5 L 361 55.5 L 360 55.5 L 355 38.5 L 350 27.5 L 332.5 8 Q 325.7 4.7 323.5 0 Z "></path><path fill="rgb(43,159,196)" stroke="rgb(43,159,196)" stroke-width="1" opacity="1" d="M 362.5 66 L 365 77.5 L 365.5 95 L 368.5 93 L 380.5 90 L 382.5 91 L 382.5 89 L 385.5 90 L 388.5 88 L 390 88.5 L 390.5 87 L 394.5 87 Q 401.8 84.4 400 90.5 L 394.5 93 L 375.5 95 L 364 98 L 364 77.5 L 362 70.5 L 362.5 66 Z "></path><path fill="rgb(43,159,196)" stroke="rgb(43,159,196)" stroke-width="1" opacity="1" d="M 159.5 92 L 190.5 92 L 191.5 93 L 202.5 94 L 215.5 98 L 240.5 111 L 266.5 128 L 272 133.5 Q 279.3 139.7 283 149.5 Q 284 159.5 288 166.5 L 289 197.5 Q 286.5 199 288 204.5 L 284 210.5 L 278 227.5 L 274 231.5 L 273 236.5 L 269 242.5 L 247 295.5 L 231 320.5 L 204.5 349 L 161 380 L 161 332.5 L 160 331.5 L 160 320.5 L 159 319.5 L 157 302.5 Q 148.4 281.1 131.5 268 L 100.5 243 L 83.5 235 L 70 234.5 L 77.5 231 L 105 206.5 L 120 177.5 Q 120 168.5 124 163.5 L 124.5 157 L 125 163.5 Q 120.8 168.8 121 178.5 Q 115.3 185.3 113 195.5 L 104 209.5 L 97.5 216 L 82 227.5 Q 82.8 229.8 80.5 229 L 75 233.5 L 84.5 234 L 102.5 243 Q 125.1 258.9 144 278.5 Q 154 289.5 159 305.5 L 159 312.5 L 161 319.5 L 161 331.5 L 162 332.5 L 162.5 378 L 187.5 359 L 200.5 351 L 211.5 340 L 213 340 Q 211.9 337.3 214.5 338 L 227 323.5 L 233 311.5 L 247 292.5 L 254 277.5 L 260 258.5 L 265 249.5 L 264 248.5 L 267 245.5 L 273 230.5 L 275 228.5 L 275 225.5 L 280 218.5 L 279.5 217 L 281 216.5 L 281 214.5 L 285 204.5 L 285 200 L 287 199.5 L 287 197.5 L 288 181.5 L 287 180.5 L 287 166.5 L 281 147.5 L 270 132 L 230.5 106 L 215.5 99 L 189.5 93 L 159.5 93 L 143.5 98 L 136 103.5 L 133 107.5 L 133 111.5 L 130 119.5 L 128 140.5 L 127 141.5 L 127 152.5 L 125.5 156 L 125 152.5 L 126 151.5 L 126 138.5 L 127 137.5 L 129 119.5 L 132 111.5 L 132 107.5 L 137.5 100 L 145.5 96 L 159.5 92 Z "></path><path fill="rgb(43,159,196)" stroke="rgb(43,159,196)" stroke-width="1" opacity="1" d="M 0.5 240 Q 8.9 239.1 13.5 242 L 39.5 242 L 42.5 241 L 43.5 242 L 57.5 242 L 60.5 245 L 81.5 245 L 90.5 249 Q 116.4 265.6 137 287.5 Q 144.1 295.9 148 307.5 L 148 313.5 L 150 321.5 L 150 331.5 L 151 332.5 L 151 343.5 L 150 343.5 L 149 321.5 L 146 304.5 L 138 290.5 L 118.5 271 L 95.5 253 L 85.5 248 L 80.5 246 L 59.5 246 L 54.5 243 L 33.5 248 L 28.5 248 L 17.5 245 L 12.5 242 L 0.5 241 L 0.5 240 Z "></path><path fill="rgb(43,159,196)" stroke="rgb(43,159,196)" stroke-width="1" opacity="1" d="M 150.5 360 L 151 379.5 L 148 389.5 L 143.5 394 L 135.5 400 L 133.5 400 L 133.5 399 L 147 389.5 L 150 379.5 L 150.5 360 Z "></path><path fill="rgb(45,167,204)" stroke="rgb(45,167,204)" stroke-width="1" opacity="1" d="M 219.5 0 L 234.5 0 L 236 1.5 L 232.5 7 L 230 6.5 L 233 5.5 L 232 3.5 L 234 3.5 Q 234.7 0.5 231 2 Q 232.1 4.7 229.5 4 Q 226.8 5.3 229 6.5 L 227.5 9 Q 225.3 8.3 226 10.5 L 226.5 12 L 225 11.5 L 225 13 Q 221.3 11.5 222 14.5 L 219 15.5 L 220 18.5 Q 218.2 22.8 216.5 20 Q 214.3 20.8 215 18.5 L 214 18.5 L 215 21.5 L 214.5 23 L 216 23.5 Q 213.5 28.3 211 26.5 L 210.5 28 L 210 26.5 L 210.5 25 L 209 24.5 L 211 24 L 211.5 22 L 212.5 24 L 213 21.5 L 212 19 L 210 19.5 L 210.5 21 L 209 21.5 L 209.5 23 L 207.5 22 L 208 23.5 L 209 26.5 L 208 29.5 L 210 29.5 L 207.5 33 L 207 31.5 L 207.5 30 L 205 30.5 Q 207.7 32.2 203.5 34 L 200 34 Q 201.1 31.3 198.5 32 L 199 33.5 Q 199.6 38.1 197 39.5 L 197.5 41 L 196 41.5 L 198 44.5 L 196 45.5 L 196 43.5 L 195.5 42 L 194.5 45 L 192.5 44 L 191 47 L 189 46.5 L 190 40 L 188 40.5 L 189 44.5 Q 185.5 46 188 47.5 L 187 49.5 L 189 50.5 Q 180.8 52.8 175.5 58 L 173 58 L 173 60 Q 169.2 58.5 170 61.5 L 168 61.5 Q 168.8 63.8 166.5 63 L 164 64 Q 165.1 66.7 162.5 66 L 138 86.5 Q 138.8 88.8 136.5 88 L 140 83.5 L 142 80.5 L 141 79.5 L 144 76.5 Q 143.3 73.9 146 75 L 146 72.5 L 154.5 61 L 156 60.5 L 154 59.5 L 155.5 59 Q 156.8 61.3 158 58.5 L 159 56.5 L 158.5 55 L 160 55.5 L 160 53 Q 162.7 54.1 162 51.5 L 165 50.5 Q 165.8 47.9 162.5 49 L 162.5 48 L 168 45.5 Q 167.3 43.3 169.5 44 L 170 41.5 L 171.5 39 Q 175.9 40.5 175 37.5 L 176.5 35 L 178 35.5 Q 176.7 31.3 181.5 33 L 181.5 32 Q 179.3 32.8 180 30.5 L 182 30.5 Q 181.3 28.3 183.5 29 L 190 25.5 L 188 25 L 189.5 22 L 191.5 23 L 193.5 20 L 199 16.5 L 200.5 14 L 206 11.5 L 204 10.5 L 211 7.5 L 210.5 6 L 216 4 Q 214.3 -0.1 218.5 1 L 219.5 0 Z M 227 3 L 225 5 L 226 7 L 228 4 L 227 3 Z M 223 10 L 221 13 L 224 11 L 223 10 Z M 219 12 L 217 14 L 219 15 L 219 12 Z M 214 13 L 214 15 L 217 15 L 214 13 Z M 212 17 L 213 19 Q 214 16 212 17 Z M 205 24 L 203 26 L 205 26 L 205 24 Z M 204 30 Q 202 33 205 32 L 204 30 Z M 197 31 L 197 36 L 198 36 L 197 31 Z M 193 35 L 194 37 L 196 36 L 193 35 Z M 186 47 L 187 49 Q 188 46 186 47 Z M 186 49 L 184 51 L 186 51 L 186 49 Z M 179 50 L 179 51 L 181 51 L 179 50 Z M 181 51 L 182 53 L 184 52 L 181 51 Z M 173 55 L 174 57 Q 175 54 173 55 Z M 149 68 L 149 70 L 151 69 L 149 68 Z "></path><path fill="rgb(45,167,204)" stroke="rgb(45,167,204)" stroke-width="1" opacity="1" d="M 302.5 0 L 306 2.5 L 304.5 3 L 302.5 0 Z "></path><path fill="rgb(45,167,204)" stroke="rgb(45,167,204)" stroke-width="1" opacity="1" d="M 326.5 1 L 328.5 4 L 326.5 1 Z "></path><path fill="rgb(45,167,204)" stroke="rgb(45,167,204)" stroke-width="1" opacity="1" d="M 310.5 5 L 311.5 7 L 310.5 5 Z "></path><path fill="rgb(45,167,204)" stroke="rgb(45,167,204)" stroke-width="1" opacity="1" d="M 331.5 5 L 345.5 20 L 331.5 5 Z "></path><path fill="rgb(45,167,204)" stroke="rgb(45,167,204)" stroke-width="1" opacity="1" d="M 313.5 7 L 315.5 10 L 313.5 7 Z "></path><path fill="rgb(45,167,204)" stroke="rgb(45,167,204)" stroke-width="1" opacity="1" d="M 322.5 14 L 337.5 30 L 322.5 14 Z "></path><path fill="rgb(45,167,204)" stroke="rgb(45,167,204)" stroke-width="1" opacity="1" d="M 348.5 23 L 349.5 25 L 348.5 23 Z "></path><path fill="rgb(45,167,204)" stroke="rgb(45,167,204)" stroke-width="1" opacity="1" d="M 203.5 35 L 204 37.5 Q 200.5 39 203 40.5 L 202.5 42 L 200 40.5 L 201 38.5 L 200.5 37 Q 204 38 203.5 35 Z "></path><path fill="rgb(45,167,204)" stroke="rgb(45,167,204)" stroke-width="1" opacity="1" d="M 200.5 42 L 201 44.5 L 200 44.5 L 200.5 42 Z "></path><path fill="rgb(45,167,204)" stroke="rgb(45,167,204)" stroke-width="1" opacity="1" d="M 193.5 46 L 195 46.5 L 192.5 48 L 193.5 46 Z "></path><path fill="rgb(45,167,204)" stroke="rgb(45,167,204)" stroke-width="1" opacity="1" d="M 394.5 47 L 398.5 48 L 400 47.5 L 399.5 49 L 390.5 49 L 361.5 55 L 362.5 53 L 394.5 47 Z "></path><path fill="rgb(45,167,204)" stroke="rgb(45,167,204)" stroke-width="1" opacity="1" d="M 349.5 59 L 350 61.5 L 349 61.5 L 349.5 59 Z "></path><path fill="rgb(45,167,204)" stroke="rgb(45,167,204)" stroke-width="1" opacity="1" d="M 393.5 59 Q 401.1 57.5 400 61 L 396.5 60 L 395.5 61 L 372.5 64 L 363.5 67 L 364.5 65 L 393.5 59 Z "></path><path fill="rgb(45,167,204)" stroke="rgb(45,167,204)" stroke-width="1" opacity="1" d="M 350.5 66 L 351 69.5 L 350 69.5 L 350.5 66 Z "></path><path fill="rgb(45,167,204)" stroke="rgb(45,167,204)" stroke-width="1" opacity="1" d="M 363.5 68 L 364 70.5 L 363 70.5 L 363.5 68 Z "></path><path fill="rgb(45,167,204)" stroke="rgb(45,167,204)" stroke-width="1" opacity="1" d="M 364.5 74 L 365 76.5 L 364 76.5 L 364.5 74 Z "></path><path fill="rgb(45,167,204)" stroke="rgb(45,167,204)" stroke-width="1" opacity="1" d="M 308.5 75 L 314 77 L 315 83.5 L 312 89 L 308 91.5 L 301 99.5 L 293 120.5 L 293 122.5 L 294 124.5 L 292 125 Q 293.3 128 289.5 127 L 285.5 128 L 281 124.5 L 280 120.5 L 283 108.5 L 290 92.5 L 305.5 76 L 308.5 75 Z M 308 77 L 306 78 L 290 96 L 282 117 L 283 124 Q 284 126 290 125 L 292 122 L 294 113 L 299 101 L 313 85 L 312 78 L 308 77 Z "></path><path fill="rgb(45,167,204)" stroke="rgb(45,167,204)" stroke-width="1" opacity="1" d="M 352.5 78 L 353 98.5 L 352 101 L 340.5 104 L 335 109.5 L 329.5 116 L 322.5 121 L 320 119.5 Q 320.6 124.1 318 125.5 L 318 130.5 L 314.5 134 Q 310.5 133.5 310 136.5 L 307 147.5 L 298.5 163 L 296 157.5 L 297 154 Q 294 155.3 295 151.5 L 293 146.5 L 294.5 147 L 298 148 L 298.5 145 L 299.5 147 L 301 144.5 L 299 143.5 L 302 143 L 301.5 140 L 300 140.5 L 299.5 139 L 299 142 L 297 141.5 L 297.5 139 L 299 138.5 L 297 138 L 297.5 136 Q 299.7 140.3 302 138.5 L 302.5 140 L 303 138 L 305 137.5 L 302 136.5 L 304 135.5 L 303.5 134 Q 306.1 134.8 305 131.5 L 306 131.5 Q 305 135.3 308 134 L 307 131.5 L 308.5 131 Q 309.7 133.3 311 130.5 L 308 129 L 308.5 127 L 310 127.5 L 308 124.5 L 310.5 126 L 311.5 125 Q 315.9 126.5 315 123.5 L 316 123.5 L 315 125.5 L 316.5 126 L 318 122.5 L 320 117.5 L 319.5 116 L 321.5 117 L 321.5 115 L 323.5 116 L 326 115.5 L 325.5 113 Q 324.3 115.2 323 112.5 L 326 111.5 Q 325.3 109.3 327.5 110 L 327.5 108 L 330 109 L 332 104.5 L 330 103.5 L 328.5 107 L 327 106.5 L 329 106 L 330.5 102 L 332.5 103 L 335 101.5 L 333 100.5 L 334.5 98 L 337.5 103 L 339 101.5 L 335 95.5 L 335.5 94 L 338.5 98 L 341.5 99 L 340.5 96 Q 342 99.5 343.5 97 Q 347.7 98.1 346 94 L 349.5 94 L 352 93 L 350 87.5 L 352 87 L 352.5 78 Z M 347 95 L 348 98 L 349 96 L 347 95 Z M 334 103 L 333 106 L 334 106 L 334 103 Z M 330 111 L 328 113 L 330 113 L 330 111 Z M 314 127 L 310 129 L 314 129 L 314 127 Z M 303 140 L 303 142 L 305 141 L 303 140 Z M 296 149 L 296 152 L 297 152 Q 298 148 296 149 Z M 300 149 L 300 151 L 302 150 L 300 149 Z M 299 156 L 298 159 L 299 159 L 299 156 Z "></path><path fill="rgb(45,167,204)" stroke="rgb(45,167,204)" stroke-width="1" opacity="1" d="M 166.5 80 L 182 80.5 L 166.5 81 L 166.5 80 Z "></path><path fill="rgb(45,167,204)" stroke="rgb(45,167,204)" stroke-width="1" opacity="1" d="M 185.5 80 L 189 80.5 L 185.5 81 L 185.5 80 Z "></path><path fill="rgb(45,167,204)" stroke="rgb(45,167,204)" stroke-width="1" opacity="1" d="M 191.5 81 L 196 81.5 L 191.5 82 L 191.5 81 Z "></path><path fill="rgb(45,167,204)" stroke="rgb(45,167,204)" stroke-width="1" opacity="1" d="M 365.5 83 L 366 90 L 368 89.5 L 367 87 Q 371.1 88.3 370 85 L 367 84.5 L 369.5 84 L 372.5 88 L 373 84 L 379.5 84 L 380.5 83 Q 382 85.5 387.5 84 L 388.5 83 L 400 83 Q 402.3 89.4 394.5 87 L 390 87.5 L 389.5 89 L 387.5 89 L 385.5 90 L 382.5 89 L 382.5 91 L 380.5 90 L 371.5 92 L 365.5 95 L 365.5 83 Z "></path><path fill="rgb(45,167,204)" stroke="rgb(45,167,204)" stroke-width="1" opacity="1" d="M 346.5 91 L 345.5 93 L 346.5 91 Z "></path><path fill="rgb(45,167,204)" stroke="rgb(45,167,204)" stroke-width="1" opacity="1" d="M 159.5 93 L 163 93.5 L 159.5 94 L 159.5 93 Z "></path><path fill="rgb(45,167,204)" stroke="rgb(45,167,204)" stroke-width="1" opacity="1" d="M 167.5 93 L 170 93.5 L 167.5 94 L 167.5 93 Z "></path><path fill="rgb(45,167,204)" stroke="rgb(45,167,204)" stroke-width="1" opacity="1" d="M 177.5 93 L 185 93.5 L 177.5 94 L 177.5 93 Z "></path><path fill="rgb(45,167,204)" stroke="rgb(45,167,204)" stroke-width="1" opacity="1" d="M 186.5 93 L 190 93.5 L 186.5 94 L 186.5 93 Z "></path><path fill="rgb(45,167,204)" stroke="rgb(45,167,204)" stroke-width="1" opacity="1" d="M 343.5 93 L 344.5 95 L 343.5 93 Z "></path><path fill="rgb(45,167,204)" stroke="rgb(45,167,204)" stroke-width="1" opacity="1" d="M 234.5 94 L 237 95.5 L 235.5 95 L 234.5 94 Z "></path><path fill="rgb(45,167,204)" stroke="rgb(45,167,204)" stroke-width="1" opacity="1" d="M 199.5 95 L 202 95.5 L 199.5 96 L 199.5 95 Z "></path><path fill="rgb(45,167,204)" stroke="rgb(45,167,204)" stroke-width="1" opacity="1" d="M 238.5 96 L 239.5 98 L 238.5 96 Z "></path><path fill="rgb(45,167,204)" stroke="rgb(45,167,204)" stroke-width="1" opacity="1" d="M 139.5 100 L 137 103.5 L 133.5 110 L 133 107.5 L 139.5 100 Z "></path><path fill="rgb(45,167,204)" stroke="rgb(45,167,204)" stroke-width="1" opacity="1" d="M 246.5 101 L 247.5 103 L 246.5 101 Z "></path><path fill="rgb(45,167,204)" stroke="rgb(45,167,204)" stroke-width="1" opacity="1" d="M 250.5 104 L 251.5 106 L 250.5 104 Z "></path><path fill="rgb(45,167,204)" stroke="rgb(45,167,204)" stroke-width="1" opacity="1" d="M 255.5 107 L 259 109.5 L 257.5 109 L 255.5 107 Z "></path><path fill="rgb(45,167,204)" stroke="rgb(45,167,204)" stroke-width="1" opacity="1" d="M 233.5 108 L 234.5 110 L 233.5 108 Z "></path><path fill="rgb(45,167,204)" stroke="rgb(45,167,204)" stroke-width="1" opacity="1" d="M 260.5 110 L 261.5 112 L 260.5 110 Z "></path><path fill="rgb(45,167,204)" stroke="rgb(45,167,204)" stroke-width="1" opacity="1" d="M 238.5 111 L 239.5 113 L 238.5 111 Z "></path><path fill="rgb(45,167,204)" stroke="rgb(45,167,204)" stroke-width="1" opacity="1" d="M 132.5 112 L 133 114.5 L 132 114.5 L 132.5 112 Z "></path><path fill="rgb(45,167,204)" stroke="rgb(45,167,204)" stroke-width="1" opacity="1" d="M 263.5 112 L 264.5 114 L 263.5 112 Z "></path><path fill="rgb(45,167,204)" stroke="rgb(45,167,204)" stroke-width="1" opacity="1" d="M 315.5 112 L 317 112.5 L 315 113.5 L 315.5 115 Q 312.5 113.5 315.5 112 Z "></path><path fill="rgb(45,167,204)" stroke="rgb(45,167,204)" stroke-width="1" opacity="1" d="M 266.5 114 L 271 117.5 L 268.5 116 L 266.5 114 Z "></path><path fill="rgb(45,167,204)" stroke="rgb(45,167,204)" stroke-width="1" opacity="1" d="M 312 116 Q 315 115 314 118 Q 311 119 312 116 Z "></path><path fill="rgb(45,167,204)" stroke="rgb(45,167,204)" stroke-width="1" opacity="1" d="M 315.5 117 Q 318.5 116.1 317 120.5 L 316 120.5 L 315.5 117 Z "></path><path fill="rgb(45,167,204)" stroke="rgb(45,167,204)" stroke-width="1" opacity="1" d="M 308.5 120 L 311 121.5 L 309.5 122 L 308 121.5 L 307.5 123 L 307 121.5 L 308.5 120 Z "></path><path fill="rgb(45,167,204)" stroke="rgb(45,167,204)" stroke-width="1" opacity="1" d="M 255.5 122 L 256.5 124 L 255.5 122 Z "></path><path fill="rgb(45,167,204)" stroke="rgb(45,167,204)" stroke-width="1" opacity="1" d="M 277.5 122 L 278.5 124 L 277.5 122 Z "></path><path fill="rgb(45,167,204)" stroke="rgb(45,167,204)" stroke-width="1" opacity="1" d="M 129.5 124 L 130 128.5 L 129 128.5 L 129.5 124 Z "></path><path fill="rgb(45,167,204)" stroke="rgb(45,167,204)" stroke-width="1" opacity="1" d="M 304.5 124 L 303.5 126 L 304.5 124 Z "></path><path fill="rgb(45,167,204)" stroke="rgb(45,167,204)" stroke-width="1" opacity="1" d="M 280.5 126 L 284.5 131 L 280.5 126 Z "></path><path fill="rgb(45,167,204)" stroke="rgb(45,167,204)" stroke-width="1" opacity="1" d="M 296.5 130 L 294.5 133 L 293 132.5 L 296.5 130 Z "></path><path fill="rgb(45,167,204)" stroke="rgb(45,167,204)" stroke-width="1" opacity="1" d="M 270.5 134 L 276.5 141 L 270.5 134 Z "></path><path fill="rgb(45,167,204)" stroke="rgb(45,167,204)" stroke-width="1" opacity="1" d="M 295.5 137 L 293.5 140 L 295.5 137 Z "></path><path fill="rgb(45,167,204)" stroke="rgb(45,167,204)" stroke-width="1" opacity="1" d="M 127.5 141 L 128 147.5 L 127 147.5 L 127.5 141 Z "></path><path fill="rgb(45,167,204)" stroke="rgb(45,167,204)" stroke-width="1" opacity="1" d="M 291.5 141 L 293.5 142 L 295 141.5 L 294 142.5 L 296.5 146 L 294 145 L 293.5 143 L 292 143.5 L 291.5 141 Z "></path><path fill="rgb(45,167,204)" stroke="rgb(45,167,204)" stroke-width="1" opacity="1" d="M 279.5 145 L 281 147.5 L 279 146.5 L 279.5 145 Z "></path><path fill="rgb(45,167,204)" stroke="rgb(45,167,204)" stroke-width="1" opacity="1" d="M 280.5 149 L 281.5 151 L 280.5 149 Z "></path><path fill="rgb(45,167,204)" stroke="rgb(45,167,204)" stroke-width="1" opacity="1" d="M 125.5 156 L 127 160.5 L 125.5 163 L 125.5 156 Z "></path><path fill="rgb(45,167,204)" stroke="rgb(45,167,204)" stroke-width="1" opacity="1" d="M 278.5 157 L 279 160 L 277 159.5 L 278.5 157 Z "></path><path fill="rgb(45,167,204)" stroke="rgb(45,167,204)" stroke-width="1" opacity="1" d="M 265.5 160 Q 272.8 158.8 274 163.5 L 274 169.5 L 268 175.5 L 260 196.5 L 250 214.5 L 248 221.5 L 244 227 L 238.5 231 L 233.5 232 L 229 228.5 L 228 223.5 L 232.5 218 L 235 216.5 L 248 191.5 L 255 172.5 L 263.5 161 L 265.5 160 Z M 266 162 L 264 163 L 254 179 L 252 186 L 237 217 L 234 219 Q 230 221 231 227 Q 232 230 239 229 L 246 222 L 258 198 L 263 184 L 272 169 L 272 165 Q 271 161 266 162 Z M 268 210 L 268 212 L 270 211 L 268 210 Z M 270 218 L 267 220 L 270 220 L 270 218 Z M 267 222 L 263 224 L 267 224 L 267 222 Z M 265 228 L 266 230 Q 267 227 265 228 Z "></path><path fill="rgb(45,167,204)" stroke="rgb(45,167,204)" stroke-width="1" opacity="1" d="M 279.5 162 L 281 162.5 L 278.5 164 L 279.5 162 Z "></path><path fill="rgb(45,167,204)" stroke="rgb(45,167,204)" stroke-width="1" opacity="1" d="M 276.5 163 L 277 165 L 275 164.5 L 276.5 163 Z "></path><path fill="rgb(45,167,204)" stroke="rgb(45,167,204)" stroke-width="1" opacity="1" d="M 285.5 165 L 286.5 167 L 284 166.5 L 285.5 165 Z "></path><path fill="rgb(45,167,204)" stroke="rgb(45,167,204)" stroke-width="1" opacity="1" d="M 286.5 168 L 287 173.5 L 287 175.5 L 288 193.5 L 286 198.5 L 286.5 200 Q 283.1 199.1 285 204.5 L 280 215.5 L 280.5 217 L 279 217.5 Q 281.5 219 278 220.5 L 268 243.5 L 264 248.5 L 264 250.5 L 247 292.5 L 233 311.5 L 227 323.5 L 220.5 331 L 223 327.5 L 233 306.5 L 249 284.5 Q 248.8 279.3 252 277.5 L 255 255.5 L 257 252.5 L 256.5 251 Q 258.8 251.8 258 249.5 L 259 247.5 L 258 245.5 L 258.5 242 Q 255.5 242.9 257 238.5 L 256 236.5 L 257 234 L 261 232.5 L 260 228 L 262 227.5 L 261.5 226 L 263 226.5 L 262 223.5 L 263 222.5 L 261.5 220 L 264.5 221 L 264 217.5 L 263.5 216 L 262 216.5 Q 261.3 214.3 263.5 215 L 266.5 216 L 269 215.5 L 264.5 213 L 263 213.5 Q 262.3 211.3 264.5 212 L 267.5 214 L 268 212.5 L 266 209.5 L 268.5 206 L 269.5 208 L 271 205.5 L 268.5 204 Q 267.3 206.3 266 203.5 L 268.5 203 L 271.5 202 L 273.5 202 L 279 199.5 L 274 193.5 L 277 192.5 Q 277.8 189.9 274.5 191 L 274.5 190 Q 278.9 191.5 278 188.5 Q 275.8 187.3 278.5 186 Q 280.8 185.3 280 187.5 L 279.5 189 L 281.5 190 Q 280.9 184.9 284 183.5 L 281.5 183 L 280 183.5 Q 283.5 182 281 180.5 L 280.5 179 L 277.5 184 L 275 182.5 L 279 180.5 Q 277.9 177.2 280.5 178 L 280 176.5 L 279.5 175 L 277 176.5 L 280 173.5 Q 277.8 172.3 280.5 171 L 281.5 174 L 283 173.5 L 282.5 172 L 284.5 172 L 286 172 L 286.5 168 Z M 283 175 L 281 177 L 285 178 L 286 176 L 283 175 Z M 283 179 L 282 181 L 284 182 L 283 179 Z M 258 236 L 259 238 L 260 238 L 258 236 Z "></path><path fill="rgb(45,167,204)" stroke="rgb(45,167,204)" stroke-width="1" opacity="1" d="M 121.5 173 L 122 175.5 L 121 175.5 L 121.5 173 Z "></path><path fill="rgb(45,167,204)" stroke="rgb(45,167,204)" stroke-width="1" opacity="1" d="M 269.5 176 L 270.5 178 L 269.5 176 Z "></path><path fill="rgb(45,167,204)" stroke="rgb(45,167,204)" stroke-width="1" opacity="1" d="M 276.5 178 L 276.5 181 Q 273.5 179.5 276.5 178 Z "></path><path fill="rgb(45,167,204)" stroke="rgb(45,167,204)" stroke-width="1" opacity="1" d="M 119.5 181 L 118.5 183 L 119.5 181 Z "></path><path fill="rgb(45,167,204)" stroke="rgb(45,167,204)" stroke-width="1" opacity="1" d="M 273.5 181 L 272.5 183 L 273.5 181 Z "></path><path fill="rgb(45,167,204)" stroke="rgb(45,167,204)" stroke-width="1" opacity="1" d="M 268.5 183 L 270 186.5 L 269 186.5 L 268.5 183 Z "></path><path fill="rgb(45,167,204)" stroke="rgb(45,167,204)" stroke-width="1" opacity="1" d="M 274.5 184 L 275.5 186 L 273 186.5 L 276 187.5 L 272.5 190 L 272 187.5 L 274.5 184 Z "></path><path fill="rgb(45,167,204)" stroke="rgb(45,167,204)" stroke-width="1" opacity="1" d="M 115.5 189 L 116 190.5 L 114 191.5 L 115.5 189 Z "></path><path fill="rgb(45,167,204)" stroke="rgb(45,167,204)" stroke-width="1" opacity="1" d="M 271.5 191 L 272.5 193 L 271.5 191 Z "></path><path fill="rgb(45,167,204)" stroke="rgb(45,167,204)" stroke-width="1" opacity="1" d="M 271.5 194 L 274 195.5 L 273.5 197 L 271.5 194 Z "></path><path fill="rgb(45,167,204)" stroke="rgb(45,167,204)" stroke-width="1" opacity="1" d="M 267.5 195 L 272 197.5 L 271 198.5 L 272.5 201 L 271.5 200 L 269 201.5 L 270.5 197 Q 266.7 196.8 267.5 195 Z "></path><path fill="rgb(45,167,204)" stroke="rgb(45,167,204)" stroke-width="1" opacity="1" d="M 112.5 196 L 111.5 198 L 112.5 196 Z "></path><path fill="rgb(45,167,204)" stroke="rgb(45,167,204)" stroke-width="1" opacity="1" d="M 266.5 198 L 265.5 200 L 266.5 198 Z "></path><path fill="rgb(45,167,204)" stroke="rgb(45,167,204)" stroke-width="1" opacity="1" d="M 274 198 L 276 198.5 L 274 199.5 L 274 198 Z "></path><path fill="rgb(45,167,204)" stroke="rgb(45,167,204)" stroke-width="1" opacity="1" d="M 266.5 206 L 264.5 209 L 266.5 206 Z "></path><path fill="rgb(45,167,204)" stroke="rgb(45,167,204)" stroke-width="1" opacity="1" d="M 105.5 207 L 104.5 209 L 105.5 207 Z "></path><path fill="rgb(45,167,204)" stroke="rgb(45,167,204)" stroke-width="1" opacity="1" d="M 92.5 219 L 91.5 221 L 92.5 219 Z "></path><path fill="rgb(45,167,204)" stroke="rgb(45,167,204)" stroke-width="1" opacity="1" d="M 88.5 222 L 86.5 225 L 88.5 222 Z "></path><path fill="rgb(45,167,204)" stroke="rgb(45,167,204)" stroke-width="1" opacity="1" d="M 84.5 225 L 82.5 228 L 84.5 225 Z "></path><path fill="rgb(45,167,204)" stroke="rgb(45,167,204)" stroke-width="1" opacity="1" d="M 80.5 229 L 78.5 233 L 83 233.5 L 75.5 234 L 75.5 233 L 80.5 229 Z "></path><path fill="rgb(45,167,204)" stroke="rgb(45,167,204)" stroke-width="1" opacity="1" d="M 3.5 241 L 7 241.5 L 3.5 242 L 3.5 241 Z "></path><path fill="rgb(45,167,204)" stroke="rgb(45,167,204)" stroke-width="1" opacity="1" d="M 10.5 242 L 23.5 247 L 33.5 248 L 55.5 243 L 59 245.5 L 57.5 246 L 54.5 244 L 40.5 251 L 39.5 250 L 25.5 249 L 10.5 243 L 10.5 242 Z "></path><path fill="rgb(45,167,204)" stroke="rgb(45,167,204)" stroke-width="1" opacity="1" d="M 104.5 244 L 105.5 246 L 104.5 244 Z "></path><path fill="rgb(45,167,204)" stroke="rgb(45,167,204)" stroke-width="1" opacity="1" d="M 60.5 246 L 66 246.5 L 60.5 247 L 60.5 246 Z "></path><path fill="rgb(45,167,204)" stroke="rgb(45,167,204)" stroke-width="1" opacity="1" d="M 67.5 246 L 77 246.5 L 67.5 247 L 67.5 246 Z "></path><path fill="rgb(45,167,204)" stroke="rgb(45,167,204)" stroke-width="1" opacity="1" d="M 78.5 246 L 81 246.5 L 78.5 247 L 78.5 246 Z "></path><path fill="rgb(45,167,204)" stroke="rgb(45,167,204)" stroke-width="1" opacity="1" d="M 108.5 247 L 110.5 250 L 108.5 247 Z "></path><path fill="rgb(45,167,204)" stroke="rgb(45,167,204)" stroke-width="1" opacity="1" d="M 112.5 250 L 113.5 252 L 112.5 250 Z "></path><path fill="rgb(45,167,204)" stroke="rgb(45,167,204)" stroke-width="1" opacity="1" d="M 95.5 253 L 97.5 256 L 95.5 253 Z "></path><path fill="rgb(45,167,204)" stroke="rgb(45,167,204)" stroke-width="1" opacity="1" d="M 116.5 253 L 119.5 257 L 116.5 253 Z "></path><path fill="rgb(45,167,204)" stroke="rgb(45,167,204)" stroke-width="1" opacity="1" d="M 207.5 255 Q 214.8 253.8 216 258.5 L 217 261.5 L 194 316.5 L 189.5 323 L 184.5 325 L 179 321.5 L 178 317.5 L 188 297.5 L 192 285.5 L 197 277.5 L 202 262.5 L 207.5 255 Z M 209 257 L 207 258 L 181 315 L 181 320 Q 182 323 188 322 Q 193 318 195 311 L 215 264 L 214 260 Q 213 256 209 257 Z "></path><path fill="rgb(45,167,204)" stroke="rgb(45,167,204)" stroke-width="1" opacity="1" d="M 100.5 257 L 101.5 259 L 100.5 257 Z "></path><path fill="rgb(45,167,204)" stroke="rgb(45,167,204)" stroke-width="1" opacity="1" d="M 103.5 259 L 105.5 262 L 103.5 259 Z "></path><path fill="rgb(45,167,204)" stroke="rgb(45,167,204)" stroke-width="1" opacity="1" d="M 123.5 259 L 124.5 261 L 123.5 259 Z "></path><path fill="rgb(45,167,204)" stroke="rgb(45,167,204)" stroke-width="1" opacity="1" d="M 107.5 262 L 109.5 265 L 107.5 262 Z "></path><path fill="rgb(45,167,204)" stroke="rgb(45,167,204)" stroke-width="1" opacity="1" d="M 132.5 267 L 140.5 276 L 132.5 267 Z "></path><path fill="rgb(45,167,204)" stroke="rgb(45,167,204)" stroke-width="1" opacity="1" d="M 114.5 268 L 116.5 271 L 114.5 268 Z "></path><path fill="rgb(45,167,204)" stroke="rgb(45,167,204)" stroke-width="1" opacity="1" d="M 118.5 271 L 124.5 278 L 118.5 271 Z "></path><path fill="rgb(45,167,204)" stroke="rgb(45,167,204)" stroke-width="1" opacity="1" d="M 144.5 279 L 145.5 281 L 144.5 279 Z "></path><path fill="rgb(45,167,204)" stroke="rgb(45,167,204)" stroke-width="1" opacity="1" d="M 127.5 280 L 129.5 283 L 127.5 280 Z "></path><path fill="rgb(45,167,204)" stroke="rgb(45,167,204)" stroke-width="1" opacity="1" d="M 147.5 283 L 152 288.5 L 149 286.5 L 147.5 283 Z "></path><path fill="rgb(45,167,204)" stroke="rgb(45,167,204)" stroke-width="1" opacity="1" d="M 136.5 289 L 137.5 291 L 136.5 289 Z "></path><path fill="rgb(45,167,204)" stroke="rgb(45,167,204)" stroke-width="1" opacity="1" d="M 152.5 290 L 155 294.5 L 154 294.5 L 152.5 290 Z "></path><path fill="rgb(45,167,204)" stroke="rgb(45,167,204)" stroke-width="1" opacity="1" d="M 138.5 292 L 139.5 294 L 138.5 292 Z "></path><path fill="rgb(45,167,204)" stroke="rgb(45,167,204)" stroke-width="1" opacity="1" d="M 140.5 295 L 141.5 297 L 140.5 295 Z "></path><path fill="rgb(45,167,204)" stroke="rgb(45,167,204)" stroke-width="1" opacity="1" d="M 146.5 307 L 147 311.5 L 146 311.5 L 146.5 307 Z "></path><path fill="rgb(45,167,204)" stroke="rgb(45,167,204)" stroke-width="1" opacity="1" d="M 159.5 308 L 160 312.5 L 159 312.5 L 159.5 308 Z "></path><path fill="rgb(45,167,204)" stroke="rgb(45,167,204)" stroke-width="1" opacity="1" d="M 147.5 315 L 148 318.5 L 147 318.5 L 147.5 315 Z "></path><path fill="rgb(45,167,204)" stroke="rgb(45,167,204)" stroke-width="1" opacity="1" d="M 160.5 315 L 161 318.5 L 160 318.5 L 160.5 315 Z "></path><path fill="rgb(45,167,204)" stroke="rgb(45,167,204)" stroke-width="1" opacity="1" d="M 148.5 321 L 149 326.5 L 148 326.5 L 148.5 321 Z "></path><path fill="rgb(45,167,204)" stroke="rgb(45,167,204)" stroke-width="1" opacity="1" d="M 161.5 326 L 162 331.5 L 161 331.5 L 161.5 326 Z "></path><path fill="rgb(45,167,204)" stroke="rgb(45,167,204)" stroke-width="1" opacity="1" d="M 149.5 333 L 150 337.5 L 149 337.5 L 149.5 333 Z "></path><path fill="rgb(45,167,204)" stroke="rgb(45,167,204)" stroke-width="1" opacity="1" d="M 216.5 335 L 214.5 338 L 216.5 335 Z "></path><path fill="rgb(45,167,204)" stroke="rgb(45,167,204)" stroke-width="1" opacity="1" d="M 162.5 339 L 163 360.5 L 162 360.5 L 162.5 339 Z "></path><path fill="rgb(45,167,204)" stroke="rgb(45,167,204)" stroke-width="1" opacity="1" d="M 149.5 340 L 150 345.5 L 142.5 354 Q 129.4 358.9 119.5 367 L 110.5 368 L 106 371.5 Q 105 377 108.5 378 L 111.5 379 L 122.5 377 L 146.5 364 L 149.5 361 L 150 379.5 L 149 379.5 L 148.5 364 L 135.5 370 L 124.5 378 L 110.5 381 L 106.5 380 L 104 377.5 Q 102.2 369.7 106.5 368 L 120.5 365 Q 128.5 357.5 140.5 354 L 147 347.5 Q 149.8 345.3 149.5 340 Z "></path><path fill="rgb(45,167,204)" stroke="rgb(45,167,204)" stroke-width="1" opacity="1" d="M 205.5 345 L 200.5 351 L 205.5 345 Z "></path><path fill="rgb(45,167,204)" stroke="rgb(45,167,204)" stroke-width="1" opacity="1" d="M 197.5 352 L 196.5 354 L 197.5 352 Z "></path><path fill="rgb(45,167,204)" stroke="rgb(45,167,204)" stroke-width="1" opacity="1" d="M 193.5 355 L 192.5 357 L 190.5 358 L 191.5 356 L 193.5 355 Z "></path><path fill="rgb(45,167,204)" stroke="rgb(45,167,204)" stroke-width="1" opacity="1" d="M 185.5 360 L 183.5 363 L 185.5 360 Z "></path><path fill="rgb(45,167,204)" stroke="rgb(45,167,204)" stroke-width="1" opacity="1" d="M 162.5 362 L 163 377.5 L 162 377.5 L 162.5 362 Z "></path><path fill="rgb(45,167,204)" stroke="rgb(45,167,204)" stroke-width="1" opacity="1" d="M 181.5 363 L 180.5 365 L 181.5 363 Z "></path><path fill="rgb(45,167,204)" stroke="rgb(45,167,204)" stroke-width="1" opacity="1" d="M 178.5 365 L 174.5 370 L 178.5 365 Z "></path><path fill="rgb(45,167,204)" stroke="rgb(45,167,204)" stroke-width="1" opacity="1" d="M 172.5 370 L 170.5 373 L 172.5 370 Z "></path><path fill="rgb(45,167,204)" stroke="rgb(45,167,204)" stroke-width="1" opacity="1" d="M 168.5 373 L 166.5 376 L 168.5 373 Z "></path><path fill="rgb(45,167,204)" stroke="rgb(45,167,204)" stroke-width="1" opacity="1" d="M 64.5 381 L 69.5 382 L 72 384.5 Q 72.8 390.6 71 393 L 57.5 397 L 36.5 398 L 34.5 398 L 20.5 398 L 18.5 399 L 16.5 399 Q 9 397.5 5.5 400 L 0 396.5 Q -1.8 388.8 2.5 387 Q 7.6 383.6 17.5 385 L 19.5 385 L 32.5 384 L 36.5 384 L 39.5 385 L 42.5 384 L 45.5 385 L 47.5 385 L 55.5 383 L 57.5 383 L 64.5 381 Z M 64 383 L 51 386 L 22 386 L 21 387 L 7 387 L 5 388 Q 1 389 2 395 L 7 398 L 9 397 L 24 397 L 25 396 L 54 396 L 68 393 Q 71 392 70 386 Q 69 382 64 383 Z "></path><path fill="rgb(45,167,204)" stroke="rgb(45,167,204)" stroke-width="1" opacity="1" d="M 146.5 389 L 145.5 391 L 146.5 389 Z "></path><path fill="rgb(45,167,204)" stroke="rgb(45,167,204)" stroke-width="1" opacity="1" d="M 142.5 392 L 140.5 395 L 142.5 392 Z "></path><path fill="rgb(45,167,205)" stroke="rgb(45,167,205)" stroke-width="1" opacity="1" d="M 235.5 0 L 237.5 1 L 238.5 0 L 301.5 0 L 319.5 12 L 339 31.5 L 349 57.5 L 350 69.5 L 352 75.5 L 352 77.5 L 352 86.5 L 350.5 87 L 351 88.5 L 352 93 L 350 93.5 L 351 95.5 L 350 95.5 L 350 94 L 346 94 Q 347.7 98.1 343.5 97 L 343.5 99 L 341.5 99 L 338 100.5 Q 340.3 101.8 337.5 103 Q 336 99.5 334.5 102 L 333 102.5 L 334 105.5 L 333 105.5 L 331.5 102 L 330 102.5 L 332 105.5 L 330 109 L 326 110 L 325 112.5 L 326 115.5 L 323.5 116 L 320 117 L 322 120.5 L 320 121.5 L 319.5 119 L 317 123.5 Q 319.3 124.8 316.5 126 L 314 127.5 Q 314.9 130.5 310.5 129 L 311.5 132 L 308.5 131 L 307 131.5 L 308 134 L 306 134.5 L 306.5 136 L 303.5 134 L 303.5 136 L 302 136.5 L 305 137.5 L 303 138 Q 301.9 140.7 304.5 140 L 305.5 142 L 303 141.5 L 302.5 140 L 302 142.5 L 302.5 144 L 299.5 143 L 299.5 144 L 301 144.5 L 299.5 147 L 298.5 145 L 298 148 L 293 145.5 L 294 142.5 L 291 140.5 L 290 138.5 L 290.5 137 L 288 135.5 L 277.5 122 L 235.5 94 L 207.5 83 L 205.5 83 L 201.5 82 L 199.5 82 L 185.5 80 L 181.5 80 L 166.5 80 L 165.5 81 L 163.5 81 L 161.5 80 L 147.5 83 L 138.5 87 L 143.5 81 L 164 66 Q 162.9 63.3 165.5 64 L 168 63 L 168.5 61 L 170 61.5 L 170 60 Q 173.8 61.5 173 58.5 L 171 58.5 Q 174.1 56.7 172.5 55 Q 174.8 54.3 174 56.5 L 173.5 58 L 178 56.5 L 177.5 55 L 179.5 55 L 181 54.5 L 181 52.5 Q 181.8 49.9 178.5 51 L 178.5 50 L 183.5 51 Q 187.2 49 185.5 47 L 187 46.5 L 185.5 44 Q 187.3 47.8 189 44.5 L 188 40.5 L 190 40 L 190.5 38 L 191 39.5 L 189 46.5 L 191 47 L 192 44.5 L 191.5 41 L 194 42 L 195 39.5 L 194 38.5 L 195.5 36 L 193.5 37 L 193 35 L 196.5 36 L 197 34.5 L 196 31.5 L 197 31.5 L 197.5 33 L 200 32 Q 198.7 35.3 203.5 34 L 204.5 32 Q 202.3 32.8 203 30.5 L 205.5 30 Q 209.3 31.3 208 27.5 L 208 25.5 L 207.5 23 L 206 23.5 L 211 20.5 L 210.5 19 L 212 18.5 L 211.5 17 Q 213.8 16.3 213 18.5 L 212 20.5 L 214.5 25 L 215.5 23 L 214 22.5 L 214 20.5 L 215.5 17 Q 217.7 22.3 220 18.5 L 219.5 16 L 217.5 17 L 217.5 16 L 219 15.5 Q 217.8 12.8 216.5 15 L 212.5 16 L 212.5 15 L 215.5 13 Q 217.3 15.8 219 11.5 L 218.5 10 Q 221.2 11.3 219 12.5 L 219.5 15 L 222 14.5 L 221 11.5 L 223.5 10 L 222.5 13 Q 225.8 14.1 225 11.5 L 226 9 L 228 8.5 L 225 6.5 L 226.5 3 L 228 3.5 L 226 6.5 L 228.5 8 L 229 6.5 Q 226.8 5.3 229.5 4 Q 232.1 4.7 231 2 L 234 2 L 234.5 4 L 236 1.5 L 235.5 0 Z M 233 3 L 232 5 L 234 6 L 233 3 Z M 231 6 L 231 7 L 233 7 L 231 6 Z M 216 18 Q 214 21 217 20 L 216 18 Z M 209 30 L 207 33 L 209 32 L 209 30 Z M 199 33 L 198 36 L 195 39 L 195 41 L 196 42 L 198 41 L 197 40 L 199 37 L 199 33 Z M 204 35 Q 204 38 201 37 L 201 39 L 200 41 L 203 42 L 203 41 Q 201 39 204 38 L 204 35 Z M 197 42 L 196 44 L 198 45 L 197 42 Z M 201 42 L 200 45 L 201 45 L 201 42 Z M 187 49 L 186 51 L 183 52 L 183 53 L 189 51 L 187 49 Z M 309 75 L 306 76 L 290 93 L 283 109 L 280 121 L 281 125 L 286 128 L 290 127 Q 293 128 292 125 L 294 125 L 293 123 L 293 121 L 301 100 L 308 92 L 312 89 L 315 84 L 314 77 L 309 75 Z M 335 98 L 333 101 L 335 101 L 335 98 Z M 330 103 L 329 106 L 330 106 L 330 103 Z M 312 116 Q 311 119 314 118 Q 315 115 312 116 Z M 316 117 L 316 121 L 317 121 Q 318 116 316 117 Z M 312 125 L 310 128 Q 314 129 315 126 L 312 125 Z M 309 127 Q 307 130 310 129 L 309 127 Z M 306 131 L 305 134 L 306 134 L 306 131 Z M 298 136 Q 296 139 299 138 L 298 136 Z M 302 138 L 300 141 L 302 140 L 302 138 Z M 298 139 L 297 142 L 299 142 Q 300 138 298 139 Z M 295 143 Q 293 146 296 145 L 295 143 Z "></path><path fill="rgb(45,167,205)" stroke="rgb(45,167,205)" stroke-width="1" opacity="1" d="M 325.5 0 L 400 0 L 400 46.5 L 396.5 48 L 394.5 47 L 393.5 48 L 386.5 48 L 381.5 50 L 370.5 51 L 361.5 54 L 356 39.5 L 356 36.5 L 348 21 Q 345.3 22.1 346 19.5 Q 337.7 8.3 325.5 1 L 325.5 0 Z "></path><path fill="rgb(45,167,205)" stroke="rgb(45,167,205)" stroke-width="1" opacity="1" d="M 204.5 24 L 205 26 L 203 25.5 L 204.5 24 Z "></path><path fill="rgb(45,167,205)" stroke="rgb(45,167,205)" stroke-width="1" opacity="1" d="M 200.5 27 L 203 27.5 L 199.5 30 L 199.5 29 L 201 28.5 L 200.5 27 Z "></path><path fill="rgb(45,167,205)" stroke="rgb(45,167,205)" stroke-width="1" opacity="1" d="M 186.5 39 L 186.5 42 Q 183.5 40.5 186.5 39 Z "></path><path fill="rgb(45,167,205)" stroke="rgb(45,167,205)" stroke-width="1" opacity="1" d="M 181.5 47 L 180.5 49 L 181.5 47 Z "></path><path fill="rgb(45,167,205)" stroke="rgb(45,167,205)" stroke-width="1" opacity="1" d="M 396.5 60 L 400 61 L 400 83 L 388.5 83 Q 387 85.5 381.5 84 L 379.5 84 L 373 84 L 373 87.5 L 371 86.5 L 370.5 85 L 370 87 Q 366.2 85.5 367 88.5 L 367.5 90 Q 364.5 90.5 366 83.5 L 365 80.5 L 365 78.5 L 363 67.5 L 372.5 64 L 377.5 64 L 382.5 62 L 389.5 62 L 396.5 60 Z M 368 84 L 368 85 L 370 85 L 368 84 Z "></path><path fill="rgb(45,167,205)" stroke="rgb(45,167,205)" stroke-width="1" opacity="1" d="M 163.5 93 L 165.5 93 L 169.5 94 L 171.5 94 L 173.5 93 L 175.5 94 L 177.5 94 Q 183.8 95.8 185.5 93 L 193.5 95 L 195.5 94 L 216.5 100 L 243 114 Q 241.9 116.7 244.5 116 L 265.5 129 L 270 133.5 L 278 142.5 L 281 148.5 Q 278.5 150 282 151.5 L 283 156.5 L 282.5 158 Q 285.5 157.1 284 161.5 L 286 164.5 L 284.5 167 L 287 167.5 L 286 172 L 280 175.5 L 280.5 177 Q 281.8 174.3 286 174.5 L 285.5 173 Q 288.8 174.8 285 176.5 Q 285.8 179.1 282.5 178 L 283.5 180 L 285 179.5 L 283.5 182 Q 282.3 179.8 281 182.5 L 284 183.5 L 283.5 185 L 285.5 184 L 284.5 186 L 282.5 185 L 282 189.5 L 283 191.5 L 282 191.5 L 281.5 190 L 279 191.5 L 280.5 189 L 278.5 188 L 278 190 L 274 190.5 L 277 191 L 276 193.5 L 278 194.5 L 276 195.5 L 279 199.5 L 272.5 203 L 270.5 203 L 268 203.5 L 271 205.5 L 272 207.5 Q 270.5 210.5 269 207.5 L 268.5 206 L 267 208.5 L 270.5 211 L 272.5 210 L 272.5 211 L 270 212.5 L 269.5 214 L 268.5 212 L 267 214.5 L 269 215.5 L 266.5 216 Q 265.3 213.8 264 216.5 L 265 218.5 L 264 219.5 L 267 222.5 Q 267.9 225.5 263.5 224 L 262 223.5 L 263 226.5 L 260 228 L 260.5 232 L 262.5 231 L 262.5 232 L 261 232.5 L 261.5 234 L 259.5 233 L 257 234 Q 255.9 236.7 258.5 236 L 259.5 238 L 256.5 236 L 256 237.5 L 257 242 L 259 242.5 L 258 245.5 L 259 248.5 L 258 251 L 256 251.5 L 256 253.5 L 254 261.5 L 254 267.5 L 252 272.5 L 252 277.5 Q 248.8 279.3 249 284.5 L 233 306.5 L 223 327.5 L 218.5 333 Q 216.3 332.3 217 334.5 L 198.5 352 L 185.5 360 L 163.5 377 L 163 362.5 L 162 361.5 L 163 360.5 L 163 339.5 L 162 336.5 L 163 334.5 L 161 325.5 L 161 323.5 L 160 308.5 L 154 291.5 Q 145.1 277.4 132.5 267 L 129 264.5 Q 129.8 262.3 127.5 263 L 101.5 242 L 85.5 234 L 78 232.5 L 95.5 217 L 100 215 L 108 204.5 L 116 190.5 L 117 185.5 L 122 175.5 L 123 168.5 L 127 160.5 Q 124.7 159.3 126 154.5 L 128 149.5 L 128 147.5 L 128 134.5 L 130 128.5 L 131 117.5 L 133 114.5 L 134 107.5 L 140.5 100 L 156.5 94 Q 162 95.5 163.5 93 Z M 279 157 L 277 160 L 279 160 L 279 157 Z M 266 160 L 264 161 L 255 173 L 248 192 L 235 217 L 233 218 L 228 224 L 229 229 L 234 232 L 239 231 L 244 227 L 248 222 L 250 215 L 260 197 L 268 176 L 274 170 L 274 164 Q 273 159 266 160 Z M 277 163 L 275 165 L 277 165 L 277 163 Z M 279 178 L 280 181 L 281 179 L 279 178 Z M 276 182 L 277 183 L 278 184 Q 279 181 276 182 Z M 270 184 L 269 187 L 270 187 L 270 184 Z M 275 184 L 273 186 L 276 186 L 275 184 Z M 273 186 L 274 189 L 276 188 L 273 186 Z M 279 186 L 280 188 Q 281 185 279 186 Z M 272 194 L 274 197 L 274 196 L 272 194 Z M 274 198 L 274 200 L 276 199 L 274 198 Z M 263 212 L 263 214 L 265 213 L 263 212 Z M 262 215 L 262 217 L 264 216 L 262 215 Z M 263 221 L 264 223 L 266 223 L 263 221 Z M 208 255 L 202 263 L 197 278 L 192 286 L 188 298 L 178 318 L 179 322 L 185 325 L 190 323 L 194 317 L 217 262 L 216 259 Q 215 254 208 255 Z "></path><path fill="rgb(45,167,205)" stroke="rgb(45,167,205)" stroke-width="1" opacity="1" d="M 347 95 L 349 95.5 L 347.5 98 L 347 95 Z "></path><path fill="rgb(45,167,205)" stroke="rgb(45,167,205)" stroke-width="1" opacity="1" d="M 329.5 111 L 330 113 L 328 112.5 L 329.5 111 Z "></path><path fill="rgb(45,167,205)" stroke="rgb(45,167,205)" stroke-width="1" opacity="1" d="M 295.5 149 Q 298.1 148.2 297 151.5 L 296 151.5 L 295.5 149 Z "></path><path fill="rgb(45,167,205)" stroke="rgb(45,167,205)" stroke-width="1" opacity="1" d="M 300 149 L 302 149.5 L 300 150.5 L 300 149 Z "></path><path fill="rgb(45,167,205)" stroke="rgb(45,167,205)" stroke-width="1" opacity="1" d="M 296.5 154 L 297 156.5 L 296 156.5 L 296.5 154 Z "></path><path fill="rgb(45,167,205)" stroke="rgb(45,167,205)" stroke-width="1" opacity="1" d="M 298.5 156 L 299 158.5 L 298 158.5 L 298.5 156 Z "></path><path fill="rgb(45,167,205)" stroke="rgb(45,167,205)" stroke-width="1" opacity="1" d="M 269.5 218 L 270 220 L 267 219.5 L 269.5 218 Z "></path><path fill="rgb(45,167,205)" stroke="rgb(45,167,205)" stroke-width="1" opacity="1" d="M 269.5 223 L 268.5 225 L 269.5 223 Z "></path><path fill="rgb(45,167,205)" stroke="rgb(45,167,205)" stroke-width="1" opacity="1" d="M 266.5 225 L 265.5 227 L 264 226.5 L 266.5 225 Z "></path><path fill="rgb(45,167,205)" stroke="rgb(45,167,205)" stroke-width="1" opacity="1" d="M 264.5 228 Q 266.8 227.3 266 229.5 L 264.5 228 Z "></path><path fill="rgb(45,167,205)" stroke="rgb(45,167,205)" stroke-width="1" opacity="1" d="M 0 241 L 9.5 242 L 29.5 250 Q 37.7 248.3 41.5 251 L 55.5 244 Q 58.1 247.9 65.5 247 L 67.5 247 L 76.5 247 L 77.5 246 L 94.5 253 L 127 279.5 L 129.5 283 L 136 288.5 L 146 306.5 L 149 328.5 L 149 330.5 L 150 339.5 L 149 344.5 L 140.5 354 L 130.5 358 L 118.5 366 L 108.5 367 L 104 370.5 Q 102.2 378.3 106.5 380 L 110.5 381 L 124.5 378 L 135.5 370 L 148.5 364 L 149 381.5 L 147 388.5 L 143.5 392 Q 138.6 397.6 130.5 400 L 7.5 400 L 7.5 399 L 16.5 399 L 17.5 398 L 19.5 399 L 20.5 398 L 34.5 398 L 35.5 397 L 36.5 398 L 50.5 398 L 51.5 397 L 63.5 396 L 71 393 Q 72.8 390.6 72 384.5 L 69.5 382 L 64.5 381 L 56.5 384 L 54.5 384 L 47.5 385 L 45.5 385 L 42.5 384 L 38.5 384 L 35.5 385 L 32.5 384 L 26.5 384 L 18.5 386 L 17.5 385 L 7.5 385 L 0.5 389 L 0 241 Z "></path><path fill="rgb(45,167,205)" stroke="rgb(45,167,205)" stroke-width="1" opacity="1" d="M 0.5 397 L 5 399.5 L 0 400 L 0.5 397 Z "></path><path fill="rgb(26,26,26)" stroke="rgb(26,26,26)" stroke-width="1" opacity="0.7137254901960784" d="M 189.5 0 L 191 0.5 L 162 25.5 Q 151.2 42.2 137 55.5 L 131 65.5 L 120 103.5 L 120 115.5 L 119 116.5 L 118 132.5 L 117 133.5 L 117 147.5 L 111 174.5 L 100 196.5 L 90.5 208 L 74 220.5 Q 74.8 222.8 72.5 222 L 60.5 228 L 48.5 229 L 34.5 233 L 23.5 233 L 22.5 232 L 3.5 231 L 0 229.5 L 4.5 229 L 15.5 231 L 38.5 231 L 46.5 228 L 59.5 227 L 70.5 223 L 96 200.5 L 103 189.5 L 110 173.5 L 110 169.5 L 113 162.5 L 113 157.5 L 115 151.5 L 115 138.5 L 118 122.5 L 118 104.5 L 130 64.5 L 136 54.5 Q 148.7 43.2 158 28.5 L 176.5 10 L 189.5 0 Z "></path><path fill="rgb(26,26,26)" stroke="rgb(26,26,26)" stroke-width="1" opacity="0.7137254901960784" d="M 375.5 121 L 400 121.5 L 398.5 123 L 370.5 123 L 359 128.5 Q 358.6 134.1 354.5 136 L 351.5 137 L 346.5 135 L 334 145.5 L 312 182.5 L 305 199.5 L 301 214.5 L 296 224.5 L 290 244.5 Q 292.8 246.2 291 252.5 L 274 288.5 L 256 319.5 L 233 354.5 L 216.5 373 L 193.5 392 L 181.5 400 L 179.5 400 L 179.5 399 Q 205.6 384.1 225 362.5 Q 248 332.5 267 298.5 L 288 257.5 L 290 247.5 L 289 242.5 L 309 186.5 L 333 144.5 L 337.5 140 L 347.5 133 L 355.5 133 L 357 131.5 L 358 127 L 366.5 123 L 375.5 121 Z "></path><path fill="rgb(26,26,26)" stroke="rgb(26,26,26)" stroke-width="1" opacity="0.7137254901960784" d="M 54.5 237 Q 57.1 236.3 56 239 L 49 238.5 L 54.5 237 Z "></path><path fill="rgb(30,47,51)" stroke="rgb(30,47,51)" stroke-width="1" opacity="1" d="M 208.5 0 L 207.5 2 Q 183.8 14.8 167 34.5 L 141 66.5 L 134 90 L 143.5 86 L 158.5 82 L 190.5 82 L 211.5 86 L 235.5 96 L 272.5 120 L 280 127.5 L 291 142.5 L 298.5 168 L 310 143.5 L 310 139.5 L 313.5 136 L 320 132.5 L 321 129.5 L 320 124.5 L 345.5 106 L 353 103 L 354 100.5 L 354 78.5 L 351 65.5 L 351 59.5 L 345 40.5 L 340 30.5 L 320.5 11 L 305 0.5 L 306.5 0 Q 326.3 11.2 340 28.5 L 346 39.5 L 352 57.5 L 352 63.5 L 355 77.5 L 355 101.5 L 351.5 105 L 324 122 L 324 127.5 L 317.5 136 L 312 139.5 L 297.5 174 L 296 162.5 L 290 143.5 L 286 136.5 L 271.5 121 L 234.5 97 L 219.5 90 L 195.5 84 Q 189.3 85.8 187.5 83 L 163.5 83 L 162.5 84 L 151.5 85 L 133 92 L 134 82.5 L 142 62.5 L 166 33.5 L 179.5 20 L 208.5 0 Z "></path><path fill="rgb(30,47,51)" stroke="rgb(30,47,51)" stroke-width="1" opacity="1" d="M 321.5 0 Q 334.4 8.1 344 19.5 L 353 33.5 L 360 53.5 L 362 70.5 L 364 77.5 L 364 98 L 375.5 95 L 394.5 93 L 399.5 91 L 398.5 93 L 363 99 L 363 81.5 L 362 80.5 L 361 65.5 L 356 45.5 L 347 25.5 L 331.5 9 Q 324.4 5.3 321.5 0 Z "></path><path fill="rgb(30,47,51)" stroke="rgb(30,47,51)" stroke-width="1" opacity="1" d="M 158.5 91 L 192.5 91 L 216.5 97 Q 230.6 101.9 241.5 110 L 267.5 127 L 273 132.5 L 280 140.5 L 289 164.5 L 290 198.5 Q 287.7 199.7 289 204.5 L 280 225.5 L 271 240.5 L 268 250.5 L 265 254.5 L 256 278.5 L 246 299.5 L 228 326.5 L 205.5 350 L 163.5 381 L 159 382 L 160 377.5 L 160 336.5 L 159 335.5 L 159 323.5 L 158 322.5 L 157 309.5 L 154 298.5 Q 144.9 280.1 129.5 268 L 97.5 243 L 84.5 237 L 66 235.5 L 77.5 229 L 85.5 221 L 100 211 Q 112.8 194 120.5 171 L 121 172.5 L 120 177.5 L 107 203.5 L 95.5 216 Q 85 222 77.5 231 L 70 234.5 L 83.5 235 L 100.5 243 Q 124.8 260.2 145 281.5 Q 153.9 291.6 158 306.5 L 158 313.5 L 160 320.5 L 160 331.5 L 161 332.5 L 161 380 L 198.5 354 L 223 330.5 L 247 295.5 L 256 275.5 L 260 262.5 L 273 236.5 L 274 231.5 L 278 227.5 L 284 210.5 L 288 204.5 L 289 180.5 L 288 179.5 L 288 166.5 Q 284 159.5 283 149.5 L 279 141.5 L 266.5 128 L 232.5 106 L 215.5 98 L 202.5 94 L 197.5 94 L 190.5 92 L 159.5 92 L 145.5 96 Q 138.2 98.2 134 103.5 L 128 124.5 L 128 130.5 L 126 138.5 L 126 151.5 L 124.5 157 L 124 151.5 L 125 150.5 L 125 136.5 L 127 129.5 L 127 122.5 L 132 103.5 L 134.5 101 L 144.5 95 L 158.5 91 Z "></path><path fill="rgb(30,47,51)" stroke="rgb(30,47,51)" stroke-width="1" opacity="1" d="M 123.5 99 L 124 105.5 L 121.5 114 L 121 103.5 L 123.5 99 Z "></path><path fill="rgb(30,47,51)" stroke="rgb(30,47,51)" stroke-width="1" opacity="1" d="M 123.5 158 L 124 163.5 L 121.5 169 L 121 167.5 Q 123.8 164.3 123.5 158 Z "></path><path fill="rgb(30,47,51)" stroke="rgb(30,47,51)" stroke-width="1" opacity="1" d="M 0 238 L 18.5 241 L 40 241.5 L 13.5 242 Q 8.3 239 0 240 L 0 238 Z "></path><path fill="rgb(30,47,51)" stroke="rgb(30,47,51)" stroke-width="1" opacity="1" d="M 60.5 239 L 62 239 L 62 243 L 63.5 243 L 64.5 244 L 81.5 244 L 91.5 248 Q 116.8 264.2 137 285.5 L 148 303.5 L 150 312.5 L 151 328.5 L 152 329.5 L 152 381.5 Q 150.1 390.1 144.5 395 L 136.5 400 L 137.5 398 L 148 389.5 L 151 379.5 L 151 332.5 L 150 331.5 L 150 321.5 L 147 304.5 Q 139.9 287.6 126.5 277 L 98.5 254 L 81.5 245 L 60.5 245 L 57.5 242 L 43 241.5 L 57.5 241 L 60.5 239 Z "></path><path fill="rgb(71,186,75)" stroke="rgb(71,186,75)" stroke-width="1" opacity="1" d="M 390.5 49 L 400 49 L 400 59 L 386.5 60 L 362.5 66 L 361 64.5 Q 362.8 58.3 360 56.5 L 368.5 53 L 390.5 49 Z "></path><path fill="rgb(71,186,75)" stroke="rgb(71,186,75)" stroke-width="1" opacity="1" d="M 307.5 77 L 312 78 L 313 84.5 L 299 100.5 L 294 112.5 L 292 121.5 L 289.5 125 Q 284.3 126.3 283 123.5 L 282 116.5 L 290 95.5 L 305.5 78 L 307.5 77 Z "></path><path fill="rgb(71,186,75)" stroke="rgb(71,186,75)" stroke-width="1" opacity="1" d="M 265.5 162 Q 271 161 272 164.5 L 272 168.5 L 263 183.5 L 258 197.5 L 246 221.5 L 238.5 229 Q 232.3 230.3 231 226.5 Q 230.2 220.7 233.5 219 L 237 216.5 L 252 185.5 L 254 178.5 L 263.5 163 L 265.5 162 Z "></path><path fill="rgb(71,186,75)" stroke="rgb(71,186,75)" stroke-width="1" opacity="1" d="M 208.5 257 Q 213.3 256.3 214 259.5 L 215 263.5 L 195 310.5 Q 192.8 317.8 187.5 322 Q 182 323 181 319.5 L 181 314.5 L 206.5 258 L 208.5 257 Z "></path><path fill="rgb(71,186,75)" stroke="rgb(71,186,75)" stroke-width="1" opacity="1" d="M 150.5 344 L 151 359.5 L 146.5 364 L 122.5 377 L 110.5 379 L 106 375.5 Q 105 370 108.5 369 L 116.5 368 L 123.5 365 L 131.5 359 L 142.5 354 L 148 348.5 L 150.5 344 Z "></path><path fill="rgb(71,186,75)" stroke="rgb(71,186,75)" stroke-width="1" opacity="1" d="M 63.5 383 Q 69 382 70 385.5 Q 71.3 391.8 67.5 393 L 53.5 396 L 24.5 396 L 23.5 397 L 8.5 397 L 6.5 398 L 2 394.5 Q 1 389 4.5 388 L 6.5 387 L 20.5 387 L 21.5 386 L 50.5 386 L 63.5 383 Z "></path><path fill="rgb(28,29,29)" stroke="rgb(28,29,29)" stroke-width="1" opacity="0.996078431372549" d="M 191.5 0 L 208 0.5 Q 183.7 13.7 166 33.5 L 142 62.5 L 134 82.5 L 133 92 L 155.5 84 Q 161.8 85.8 163.5 83 L 187.5 83 L 210.5 87 L 234.5 97 L 264.5 116 L 280 129.5 L 290 143.5 L 296 162.5 L 297.5 174 L 303 159.5 L 310 146.5 L 311 141.5 L 314.5 137 L 322 131.5 Q 325 128.3 324 122 L 351.5 105 L 355 101.5 L 355 77.5 Q 352.5 76 354 70.5 L 352 63.5 L 352 57.5 L 346 39.5 L 340 28.5 L 321.5 10 L 307 0.5 L 320.5 0 L 343 20.5 L 351 32.5 L 360 58.5 L 362 80.5 L 363 81.5 L 363 99 L 389.5 94 L 394.5 94 L 399.5 92 L 400 121 L 375.5 121 L 366.5 123 L 358 127 L 355.5 133 L 347.5 133 L 333 144.5 L 309 186.5 L 303 202.5 L 303 205.5 L 294 226.5 L 289 242.5 L 289 246.5 L 290 250.5 Q 274 290 252 323.5 L 230 356.5 L 212.5 375 Q 197.2 389.2 178.5 400 L 138.5 400 L 139.5 398 L 147 392.5 L 152 381.5 L 152 329.5 L 151 328.5 L 151 319.5 L 148 303.5 Q 140.9 287.6 128.5 277 Q 111.5 261 91.5 248 L 81.5 244 L 64.5 244 L 62 243 L 62 239 L 60.5 239 L 57.5 241 L 18.5 241 L 0 238 L 0 230 L 2.5 230 L 12.5 232 L 34.5 233 L 48.5 229 L 60.5 228 L 74 222 L 76.5 218 L 96 202.5 Q 108 186 114 163.5 L 115 153.5 L 117 147.5 L 117 133.5 L 118 132.5 L 119 116.5 L 120 115.5 L 120 103.5 L 131 65.5 L 137 55.5 L 165.5 22 L 191.5 0 Z M 159 91 L 145 95 L 135 101 L 132 104 L 127 123 L 127 130 L 125 137 L 125 151 L 121 171 L 111 194 L 100 211 L 86 221 L 78 229 L 66 236 L 85 237 L 98 243 L 130 268 Q 145 280 154 299 L 157 310 L 158 323 L 159 324 L 159 336 L 160 337 L 160 378 L 159 382 L 164 381 L 206 350 L 228 327 L 246 300 L 256 279 L 265 255 L 268 251 L 271 241 L 280 226 L 289 205 Q 288 200 290 199 L 289 165 L 280 141 L 273 133 L 268 127 L 242 110 Q 231 102 217 97 L 193 91 L 159 91 Z M 124 99 L 121 104 L 122 114 L 124 106 L 124 99 Z M 55 237 L 49 239 L 56 239 Q 57 236 55 237 Z "></path></svg>