<svg width="400" height="400" version="1.1" xmlns="http://www.w3.org/2000/svg" desc="Created with imagetracer.js version 1.2.5"><path fill="rgb(111,213,68)" stroke="rgb(111,213,68)" stroke-width="1" opacity="0.15294117647058825" d="M 92 65 L 97.5 65 L 98 67 L 100.5 67 L 114 75 Q 112.8 78 116.5 77 L 121 80 Q 119.9 82.7 122.5 82 L 128 86 Q 127.3 90.7 131.5 92 L 139 96.5 L 152 113 L 156 115.5 L 157.5 119 L 166 124.5 L 167 126.5 L 167 140.5 L 163.5 145 Q 161.3 144.3 162 146.5 L 159 152 Q 156.3 150.9 157 153.5 L 150 165.5 L 146 169.5 L 146 172 Q 143.3 170.9 144 173.5 Q 138.7 177.9 138 186 Q 135 184.8 136 188.5 L 128.5 203 L 128 201.5 L 134 190.5 L 136 182 Q 139 183.3 138 179.5 L 157.5 150 Q 160.1 150.8 159 147.5 L 166 138.5 L 166 130.5 Q 164.8 124.8 160.5 122 L 155 118.5 Q 155.5 113.5 151.5 113 Q 149.3 113.8 150 111.5 L 137.5 98 Q 135.3 98.8 136 96.5 L 128 90.5 Q 128.8 88.3 126.5 89 L 120.5 82 L 112 76.5 Q 112.7 73.5 109 75 L 109 73 L 106.5 73 Q 102.5 68 93.5 68 L 85 72 L 82 78.5 L 82 82.5 L 85 89.5 L 85 93.5 L 84 97.5 L 85 98.5 L 85 134.5 L 84 135.5 L 84 147.5 L 85 148.5 L 85 199 L 87 199.5 L 87 206.5 L 90 214.5 L 88 213.5 L 87 209 Q 83.7 210.3 85 205.5 L 84 204.5 L 83 131.5 L 84 130.5 L 84 103.5 L 83 102.5 L 83 90.5 L 81 87.5 L 80 78.5 Q 80.9 71.9 85.5 69 L 92 67 L 92 65 Z "></path><path fill="rgb(111,213,68)" stroke="rgb(111,213,68)" stroke-width="1" opacity="0.15294117647058825" d="M 319.5 67 L 324 67 L 324 73 Q 320.3 74.3 322 68.5 L 320.5 69 L 301.5 70 L 292.5 74 L 286.5 75 L 286.5 74 L 303.5 68 L 318.5 68 L 319.5 67 Z "></path><path fill="rgb(111,213,68)" stroke="rgb(111,213,68)" stroke-width="1" opacity="0.15294117647058825" d="M 324.5 74 L 326 82.5 L 325 82.5 L 324.5 74 Z "></path><path fill="rgb(111,213,68)" stroke="rgb(111,213,68)" stroke-width="1" opacity="0.15294117647058825" d="M 280 75 L 285 75 L 285 77 L 277.5 79 L 246.5 83 L 235.5 86 L 222.5 86 L 215.5 83 L 211.5 83 L 207.5 84 L 205 86.5 L 199.5 95 Q 196.5 94.1 198 98.5 L 195 106.5 L 194 157.5 L 195 162.5 L 198 168 L 202 169 L 203.5 172 Q 206.8 170.9 206 173.5 L 213 179.5 L 219.5 188 L 222 189.5 Q 221.3 191.8 223.5 191 L 229.5 199 Q 231.8 198.3 231 200.5 L 245 213.5 L 243.5 214 L 228 200.5 L 228 198 Q 225.3 199.1 226 196.5 L 221.5 191 Q 218.2 192.1 219 189.5 L 212 181.5 L 212 179 L 206 175.5 L 204.5 173 L 198 171 L 193 162.5 L 192 153.5 L 193 152.5 L 193 131.5 L 194 130.5 L 194 101.5 L 198 91 Q 200.7 92.1 200 89.5 L 204.5 84 Q 207.1 84.7 206 82 L 209.5 82 Q 210.8 79.8 215.5 81 L 223.5 85 L 232.5 85 L 261.5 79 L 280 77 L 280 75 Z "></path><path fill="rgb(111,213,68)" stroke="rgb(111,213,68)" stroke-width="1" opacity="0.15294117647058825" d="M 326.5 84 L 328 98.5 L 327 98.5 L 326.5 84 Z "></path><path fill="rgb(111,213,68)" stroke="rgb(111,213,68)" stroke-width="1" opacity="0.15294117647058825" d="M 328.5 100 L 330 110.5 L 329 110.5 L 328.5 100 Z "></path><path fill="rgb(111,213,68)" stroke="rgb(111,213,68)" stroke-width="1" opacity="0.15294117647058825" d="M 330.5 112 L 332 116.5 L 332 132.5 L 331 132.5 L 331 116.5 L 330.5 112 Z "></path><path fill="rgb(111,213,68)" stroke="rgb(111,213,68)" stroke-width="1" opacity="0.15294117647058825" d="M 332.5 134 L 333 187.5 L 332 187.5 L 332.5 134 Z "></path><path fill="rgb(111,213,68)" stroke="rgb(111,213,68)" stroke-width="1" opacity="0.15294117647058825" d="M 333 191 L 335 191.5 L 335 202 L 333 201.5 L 333 191 Z "></path><path fill="rgb(111,213,68)" stroke="rgb(111,213,68)" stroke-width="1" opacity="0.15294117647058825" d="M 126.5 204 Q 129.1 203.3 128 206 Q 125.3 204.9 126 207.5 L 117 216.5 L 117 218 L 113 220.5 L 111.5 223 Q 108 226.5 100.5 226 L 94.5 224 L 92 221.5 L 90 216.5 L 95 220.5 Q 94.2 223.1 97.5 222 L 103.5 224 L 110 221.5 Q 109.3 219.3 111.5 220 L 117 216 L 126.5 204 Z "></path><path fill="rgb(111,213,68)" stroke="rgb(111,213,68)" stroke-width="1" opacity="0.15294117647058825" d="M 335.5 204 L 336 207.5 L 335 211 Q 332.3 209.9 333 212.5 L 323.5 230 L 322 229.5 L 324 229 L 333 208 L 335 208 L 335.5 204 Z "></path><path fill="rgb(111,213,68)" stroke="rgb(111,213,68)" stroke-width="1" opacity="0.15294117647058825" d="M 162.5 206 L 173.5 207 L 187 213 Q 185.8 216 189.5 215 L 198 220 Q 196.9 222.7 199.5 222 L 206 226.5 Q 205.3 228.8 207.5 228 L 212 230 L 216.5 236 L 225 241.5 L 229.5 247 L 239 251 L 240.5 254 L 242.5 254 L 254 262.5 L 258 269.5 L 258 275.5 L 252.5 285 L 234 292 Q 235.1 294.7 232.5 294 L 214 303 Q 215.1 305.7 212.5 305 Q 211.8 307.8 207.5 307 L 207.5 306 L 211 304.5 Q 210.3 302.3 212.5 303 L 228.5 294 L 231 294 Q 229.9 291.3 232.5 292 L 239.5 288 L 243.5 288 L 250 283.5 Q 249.3 281.3 251.5 282 Q 256.5 278.5 256 269.5 L 252 262 L 236 253 L 234.5 250 L 229.5 249 L 223 242.5 L 221.5 240 L 219.5 240 L 210 231.5 Q 210.8 228.9 207.5 230 Q 202.8 223.8 195 222 L 193.5 219 L 179.5 211 L 170.5 208 L 162.5 208 L 155.5 211 L 144 220.5 L 137.5 228 L 133 230 L 128.5 236 L 128 234.5 L 131 230 L 142 221.5 L 143.5 219 L 155.5 209 L 162.5 206 Z "></path><path fill="rgb(111,213,68)" stroke="rgb(111,213,68)" stroke-width="1" opacity="0.15294117647058825" d="M 245 215 L 253 220.5 L 261.5 230 Q 263.8 229.3 263 231.5 L 271.5 241 Q 273.8 240.3 273 242.5 L 284 251.5 L 284 253.5 L 291.5 261 L 295 262 L 298.5 267 L 301 268.5 L 298.5 269 L 293 265 Q 294.5 261.3 291.5 262 L 284 255.5 L 282.5 253 Q 280.3 253.8 281 251.5 L 270 242.5 L 262.5 233 L 261 233 Q 262.5 229.2 259.5 230 L 253 225 L 251.5 222 Q 249.3 222.8 250 220.5 L 245 217 L 245 215 Z "></path><path fill="rgb(111,213,68)" stroke="rgb(111,213,68)" stroke-width="1" opacity="0.15294117647058825" d="M 321.5 233 L 322 234.5 L 314 251 Q 311 249.8 312 253.5 L 303.5 270 L 302 269.5 L 304 269 L 312 249 L 315 247.5 L 321.5 233 Z "></path><path fill="rgb(111,213,68)" stroke="rgb(111,213,68)" stroke-width="1" opacity="0.15294117647058825" d="M 126.5 237 Q 129.1 236.3 128 239 L 124 241.5 L 124 243.5 L 117 253 L 114 254.5 L 109.5 261 L 109 259.5 L 115.5 250 L 119 249 L 123 240.5 L 126.5 237 Z "></path><path fill="rgb(111,213,68)" stroke="rgb(111,213,68)" stroke-width="1" opacity="0.15294117647058825" d="M 331.5 257 L 333 263.5 L 326.5 271 L 327 269.5 L 329 260.5 L 331.5 257 Z M 330 260 L 329 265 L 330 267 L 332 264 Q 333 259 330 260 Z "></path><path fill="rgb(111,213,68)" stroke="rgb(111,213,68)" stroke-width="1" opacity="0.15294117647058825" d="M 108.5 262 L 109 263.5 L 98 271.5 L 96.5 274 Q 94.3 273.3 95 275.5 Q 91.2 278.7 93 287.5 L 95.5 291 L 98 292.5 L 100.5 296 L 118 303 L 119.5 306 L 121 306.5 L 118.5 307 L 114 304.5 Q 114.8 302.3 112.5 303 L 94 293.5 L 90 286.5 L 90 280.5 L 95 271 L 105.5 264 L 108 264 L 108.5 262 Z "></path><path fill="rgb(111,213,68)" stroke="rgb(111,213,68)" stroke-width="1" opacity="0.15294117647058825" d="M 122.5 307 L 127.5 308 L 136 313 Q 134.8 316 138.5 315 L 155 324.5 Q 154.3 326.8 156.5 326 L 156.5 327 L 153 325.5 Q 153.8 323.3 151.5 324 L 137.5 316 L 133 315 Q 134.1 312.3 131.5 313 L 122.5 308 L 122.5 307 Z "></path><path fill="rgb(111,213,68)" stroke="rgb(111,213,68)" stroke-width="1" opacity="0.15294117647058825" d="M 204.5 307 Q 207.1 306.3 206 309 L 195 313 L 193.5 316 L 187 320.5 L 182.5 327 L 172.5 331 L 166.5 331 L 159 327.5 L 161.5 327 Q 164.8 330.2 172.5 329 L 182 326 L 188.5 317 L 193 314.5 L 194.5 312 L 204.5 307 Z "></path><path fill="rgb(0,0,0)" stroke="rgb(0,0,0)" stroke-width="1" opacity="0" d="M 0 0 L 49.5 0 L 50 0.5 L 50 7.5 L 52 16.5 L 51 18.5 L 54 32.5 L 54 336 L 0.5 336 L 0 335.5 L 0 0 Z "></path><path fill="rgb(0,0,0)" stroke="rgb(0,0,0)" stroke-width="1" opacity="0" d="M 65 0 L 400 0 L 400 336 L 354.5 336 L 354 335.5 L 354 48.5 L 349 48 L 349 42 L 65.5 42 L 65 41.5 L 65 0 Z M 92 65 L 92 67 L 86 69 Q 81 72 80 79 L 81 88 L 83 91 L 83 103 L 84 104 L 84 131 L 83 132 L 84 205 L 85 206 Q 84 210 87 209 L 92 222 L 95 224 L 101 226 Q 108 227 112 223 L 113 221 L 117 218 L 117 217 L 126 208 Q 125 205 128 206 L 128 204 L 136 189 Q 135 185 138 186 Q 139 178 144 174 Q 143 171 146 172 L 146 170 L 150 166 L 157 154 Q 156 151 159 152 L 162 147 Q 161 144 164 145 L 167 141 L 167 127 L 166 125 L 158 119 L 156 116 L 152 113 L 139 97 L 132 92 Q 127 91 128 86 L 123 82 Q 120 83 121 80 L 117 77 Q 113 78 114 75 L 101 67 L 98 67 L 98 65 L 92 65 Z M 320 67 L 319 68 L 304 68 L 291 72 L 286 75 Q 279 73 280 77 L 262 79 L 233 85 L 224 85 L 216 81 Q 211 80 210 82 L 206 82 Q 207 85 205 84 L 200 90 Q 201 92 198 91 L 194 102 L 194 131 L 193 132 L 193 153 L 192 154 L 193 163 L 198 171 L 205 173 L 206 176 L 212 179 L 212 182 L 219 190 Q 218 192 222 191 L 226 197 Q 225 199 228 198 L 228 201 L 244 214 Q 246 213 245 217 L 250 221 Q 249 223 252 222 L 253 225 L 260 230 Q 262 229 261 233 L 263 233 L 270 243 L 281 252 Q 280 254 283 253 L 284 256 L 292 262 Q 295 261 293 265 L 299 269 L 304 270 L 312 254 Q 311 250 314 251 L 322 235 Q 320 229 324 230 L 333 213 Q 332 210 335 211 L 336 208 L 335 204 L 335 192 L 333 191 L 332 117 L 330 112 L 330 106 L 327 94 L 327 85 L 324 74 L 324 67 L 320 67 Z M 163 206 L 156 209 L 144 219 L 142 222 L 131 230 L 128 235 Q 129 238 127 237 L 123 241 L 119 249 L 116 250 Q 110 255 108 264 L 106 264 L 95 271 L 90 281 L 90 287 L 94 294 L 113 303 Q 115 302 114 305 Q 116 308 122 307 L 132 313 Q 134 312 133 315 L 138 316 L 152 324 Q 154 323 153 326 L 167 331 L 173 331 L 183 327 L 187 321 L 194 316 L 195 313 L 205 309 Q 207 310 206 307 Q 211 308 213 305 Q 215 306 214 303 L 233 294 Q 235 295 234 292 L 253 285 L 258 276 L 258 270 L 254 263 L 243 254 L 241 254 L 239 251 L 230 247 L 225 242 L 217 236 L 212 230 L 208 228 Q 205 229 206 227 L 200 222 Q 197 223 198 220 L 190 215 Q 186 216 187 213 L 174 207 L 163 206 Z M 332 257 L 327 268 L 328 270 L 333 264 L 332 257 Z "></path><path fill="rgb(0,0,0)" stroke="rgb(0,0,0)" stroke-width="1" opacity="0" d="M 65 53 L 343 53 L 343 336 L 65 336 L 65 53 Z "></path><path fill="rgb(0,0,0)" stroke="rgb(0,0,0)" stroke-width="1" opacity="0" d="M 0 347 L 54 347 L 54 400 L 0 400 L 0 347 Z "></path><path fill="rgb(0,0,0)" stroke="rgb(0,0,0)" stroke-width="1" opacity="0" d="M 65 347 L 399.5 347 L 400 347.5 L 400 400 L 65.5 400 L 65 399.5 L 65 347 Z "></path><path fill="rgb(0,50,254)" stroke="rgb(0,50,254)" stroke-width="1" opacity="0.996078431372549" d="M 50 0 L 65 0 L 65 41.5 L 65.5 42 L 349 42 L 349 48 L 354 48.5 L 354 335.5 L 354.5 336 L 399.5 336 L 400 336.5 L 400 347 L 65.5 347 L 65 347.5 L 65 399.5 L 64.5 400 L 54 400 L 54 347 L 0.5 347 L 0 346.5 L 0 336 L 53.5 336 L 54 335.5 L 54 32.5 L 51 17.5 L 52 14.5 L 50 7.5 L 50 0 Z M 65 53 L 65 336 L 343 336 L 343 53 L 65 53 Z "></path><path fill="rgb(123,210,71)" stroke="rgb(123,210,71)" stroke-width="1" opacity="0.9882352941176471" d="M 93.5 68 L 100.5 69 L 106.5 73 L 109 73 L 109 75 Q 112.8 73.5 112 76.5 L 125 86.5 L 126.5 89 Q 128.8 88.3 128 90.5 L 136 96.5 Q 135.3 98.8 137.5 98 Q 145.7 104.2 150 113 L 155 116.5 Q 154.5 120.5 157.5 121 L 164 125.5 Q 167.1 129.9 166 138.5 L 159 147.5 L 159 150 L 155 152.5 L 151 161.5 L 139 177.5 L 138 182 Q 135.3 180.9 136 183.5 L 134 190.5 L 129 198.5 L 128 204 L 124 206.5 L 117 216 L 110 220 L 108.5 223 L 102.5 224 L 95 222 L 90 215.5 L 90 212.5 L 87 206.5 L 87 199 L 85 198.5 L 85 148.5 L 84 147.5 L 84 135.5 L 85 134.5 L 85 98.5 L 84 94.5 L 85 89.5 L 82 82.5 L 82 78.5 L 85 72 L 93.5 68 Z M 99 74 L 98 75 Q 94 74 95 78 Q 93 82 92 79 L 88 87 L 89 92 L 87 98 L 87 100 L 88 101 L 88 112 L 89 113 L 88 115 L 88 117 L 89 119 L 88 121 L 89 124 L 87 140 L 87 142 L 88 147 L 88 167 L 88 169 L 89 173 L 88 177 L 88 179 L 88 188 L 89 189 L 88 194 L 88 196 L 89 198 L 88 200 Q 87 202 90 201 L 89 205 L 91 213 L 93 212 L 94 215 L 101 218 Q 111 218 117 213 L 120 209 Q 119 206 122 207 L 126 201 Q 125 198 128 199 L 129 193 L 136 179 Q 135 176 138 177 L 140 174 Q 139 171 142 172 L 142 170 L 156 150 L 156 148 L 159 146 L 161 141 L 161 139 L 162 132 L 162 130 L 160 125 L 158 123 Q 152 120 151 114 L 146 111 Q 147 108 144 109 L 144 106 L 137 101 L 133 97 L 128 93 L 128 91 L 125 91 Q 126 88 124 89 L 120 84 Q 117 85 118 82 L 115 82 L 115 80 L 112 79 L 109 75 L 106 74 L 101 75 L 99 74 Z M 92 77 L 92 79 L 94 78 L 92 77 Z "></path><path fill="rgb(123,210,71)" stroke="rgb(123,210,71)" stroke-width="1" opacity="0.9882352941176471" d="M 321.5 68 L 322 70 L 309.5 71 L 295.5 75 L 290 75 Q 291.3 78 287.5 77 L 280.5 80 L 269.5 81 L 258.5 84 L 245.5 85 L 243 86 L 242.5 88 L 242 86 Q 238.9 85.3 239.5 88 L 233.5 88 L 226.5 90 L 218.5 88 L 207 90 Q 208.1 92.7 205.5 92 L 201 95.5 L 200 100 Q 196.7 98.7 198 103.5 L 197 104.5 L 197 115.5 L 196 117.5 L 196 119.5 L 196 160.5 L 198 165 L 204 169.5 L 205 171.5 L 203.5 172 L 202 169 L 198 168 L 195 162.5 L 194 157.5 L 194 137.5 L 195 136.5 L 195 106.5 L 198 95 L 201 93.5 L 201 91.5 L 207.5 84 L 215.5 83 Q 222 87.9 235.5 86 L 246.5 83 L 277.5 79 L 285 77 Q 283.7 73.7 288.5 75 L 301.5 70 L 320.5 69 L 321.5 68 Z "></path><path fill="rgb(123,210,71)" stroke="rgb(123,210,71)" stroke-width="1" opacity="0.9882352941176471" d="M 322 73 Q 326 71.6 324 78.5 L 326 83.5 L 326 93.5 L 328 99.5 L 330 114.5 L 329 114.5 L 327 99.5 L 325.5 98 Q 320.7 99.7 322 95.5 L 321.5 94 L 325 93.5 L 325 83.5 L 324 79 L 322 79 L 322 73 Z "></path><path fill="rgb(123,210,71)" stroke="rgb(123,210,71)" stroke-width="1" opacity="0.9882352941176471" d="M 330.5 116 L 331 132.5 L 332 133.5 L 332 187.5 L 333 188.5 L 333 202 L 335 202 L 335 208 Q 331 209.4 333 202.5 L 332 201.5 L 332 188.5 L 331 187.5 L 331 133.5 L 330 132.5 L 330.5 116 Z "></path><path fill="rgb(123,210,71)" stroke="rgb(123,210,71)" stroke-width="1" opacity="0.9882352941176471" d="M 206.5 172 Q 213.4 173.6 216 179.5 L 216 182 Q 219 181 218 184 L 221 184 L 221 185.5 L 229.5 196 L 234 199.5 L 236.5 203 Q 239.1 202.3 238 205 L 240 205 L 240 208 L 242.5 208 L 247.5 214 Q 250.1 213.3 249 216 L 251.5 216 L 254 220 L 256 220 Q 254.5 223.8 257.5 223 L 261.5 228 L 266 230 L 266 233 L 268 233 L 268 235 Q 270.7 233.9 270 236.5 L 276 241.5 L 278 246 L 284 249.5 L 286 252.5 L 296 260.5 L 296 262 L 298 262 L 298 264 L 300 264 Q 298.9 266.7 301.5 266 L 304 267 L 312.5 248 Q 314.8 248.8 314 246.5 L 321.5 230 L 322 232.5 L 313.5 249 Q 311.3 248.3 312 250.5 L 304 269 L 301.5 269 L 295 263.5 Q 295.8 261.3 293.5 262 L 284 253.5 L 282.5 250 Q 275.6 248.4 273 242.5 Q 273.8 240.3 271.5 241 L 264 233.5 L 263 230 L 261.5 230 L 253 221.5 L 251.5 219 L 245 215 L 241.5 210 L 231 200.5 Q 231.8 198.3 229.5 199 L 223.5 191 Q 221.3 191.8 222 189.5 L 218 186.5 L 209.5 176 L 206 173.5 L 206.5 172 Z "></path><path fill="rgb(123,210,71)" stroke="rgb(123,210,71)" stroke-width="1" opacity="0.9882352941176471" d="M 162.5 208 L 170.5 208 L 179.5 211 L 195 220.5 Q 194.3 222.8 196.5 222 L 207.5 230 L 210 230 L 215.5 237 L 223 241.5 L 229.5 249 Q 234.6 248.4 236 251.5 Q 235.3 253.8 237.5 253 L 252 262 L 256 269.5 L 256 274.5 L 251.5 282 Q 249.3 281.3 250 283.5 L 243.5 288 L 239.5 288 L 231 292 Q 232.3 295 228.5 294 L 211 303 L 209.5 306 L 204.5 307 L 193 313.5 L 191.5 316 L 187 318.5 L 182 326 L 172.5 329 L 165.5 329 L 155 326 L 153.5 323 L 138.5 315 L 136 315 Q 137.1 312.3 134.5 313 L 127.5 308 Q 121 308 118 304.5 Q 118.8 301.9 115.5 303 L 107.5 298 L 100.5 296 L 98 293.5 L 96.5 291 L 94 289.5 Q 91.5 286 93 278.5 L 95 274 L 98 272.5 L 100.5 269 L 109 263.5 L 109 261.5 L 115.5 253 Q 117.8 253.8 117 251.5 L 126.5 239 Q 129.1 239.8 128 236.5 L 133 230 Q 139.9 227.9 144 221.5 L 145.5 219 L 155.5 211 L 162.5 208 Z M 165 211 L 159 214 L 156 214 L 152 217 L 148 222 L 141 228 Q 138 227 139 230 L 135 230 L 135 233 L 128 240 Q 129 244 127 243 L 119 252 L 119 254 L 115 256 L 109 266 Q 110 268 106 267 L 106 269 L 104 269 L 98 278 Q 97 287 101 291 L 103 294 L 116 301 L 119 301 L 121 305 L 129 307 L 140 313 Q 142 312 141 315 L 157 323 L 160 323 L 162 326 L 162 325 L 163 325 L 164 326 L 171 326 L 172 324 L 172 326 Q 175 327 174 324 L 183 321 Q 186 322 184 318 L 189 315 Q 191 316 190 313 L 205 306 Q 208 307 206 303 L 225 295 L 226 293 L 230 290 L 245 286 L 246 284 Q 245 281 248 282 L 248 280 L 250 280 L 250 277 L 252 277 L 252 271 L 253 270 L 250 268 L 248 263 L 244 258 L 241 258 L 235 254 L 233 251 L 227 249 L 225 247 L 221 243 Q 218 244 219 241 L 206 232 Q 207 228 203 230 L 203 228 L 194 222 Q 191 223 192 220 L 181 214 L 171 211 L 168 212 L 165 211 Z "></path><path fill="rgb(123,210,71)" stroke="rgb(123,210,71)" stroke-width="1" opacity="0.9882352941176471" d="M 332.5 209 L 333 210.5 Q 326.8 218.6 324 229 Q 321 230 322 227 Q 324.7 228.1 324 225.5 L 332.5 209 Z "></path><path fill="rgb(123,210,71)" stroke="rgb(123,210,71)" stroke-width="1" opacity="0.9882352941176471" d="M 330 260 Q 333.3 258.7 332 263.5 L 329.5 267 L 329 264.5 L 330 260 Z "></path><path fill="rgb(124,210,72)" stroke="rgb(124,210,72)" stroke-width="1" opacity="1" d="M 316.5 70 L 322 70 L 322 78.5 Q 325 77.5 324 82.5 L 325 83.5 L 325 93.5 L 326 94.5 L 324.5 94 L 321 94.5 L 322 98 Q 325.8 97 327 99.5 L 328 111.5 L 330 115.5 L 330 132.5 L 331 133.5 L 331 187.5 L 332 188.5 L 333 208.5 Q 326.5 216.5 324 227 Q 321 225.8 322 229.5 L 314 248 L 311 249.5 L 304 267 L 300 266 L 300 264 L 298 264 L 298 262 Q 295.3 263.1 296 260.5 L 286 252.5 L 284 249.5 L 278 246 L 272.5 238 L 270 236.5 Q 270.7 233.9 268 235 L 268 233 L 266 233 L 266 230 L 264.5 230 L 259 225.5 L 257.5 223 L 256 223 L 256 220 Q 253.3 221.1 254 218.5 Q 252.8 215.3 249 216 Q 250.1 213.3 247.5 214 L 242.5 208 L 240 208 L 240 205 L 238 205 Q 239.1 202.3 236.5 203 L 230.5 196 L 228 194.5 L 221 184 L 218 184 Q 219 181 216 182 L 216 179.5 L 209.5 173 L 204 170.5 L 199.5 165 Q 197.3 165.8 198 163.5 L 196 160.5 L 196 119.5 L 196 117.5 L 198 100 Q 200.7 101.1 200 98.5 L 202.5 94 L 207 92 Q 205.7 88.3 211.5 90 L 218.5 88 L 226.5 90 L 233.5 88 L 240 88 Q 239 85 242 86 L 242.5 88 L 243 86 L 245.5 85 L 251.5 85 L 252.5 84 L 264.5 83 L 269.5 81 L 280.5 80 L 290 77 Q 288.6 73 295.5 75 L 299.5 73 L 304.5 73 L 316.5 70 Z "></path><path fill="rgb(124,210,72)" stroke="rgb(124,210,72)" stroke-width="1" opacity="1" d="M 98.5 74 L 100.5 75 L 105.5 74 L 109 75 L 111.5 79 L 115 80 L 115 82 L 118 82 Q 116.9 84.7 119.5 84 L 123.5 89 Q 126.1 88.3 125 91 L 128 91 L 128 92.5 L 133 96.5 L 136.5 101 L 144 106 L 144 109 Q 146.7 107.9 146 110.5 L 151 114 Q 151.8 120.1 157.5 123 L 160 124.5 L 162 129.5 L 162 131.5 L 161 138.5 L 161 140.5 L 158.5 146 L 156 147.5 L 156 149.5 L 142 169.5 L 142 172 Q 139.3 170.9 140 173.5 L 138 177 Q 135.3 175.9 136 178.5 L 129 192.5 L 128 199 Q 125.3 197.9 126 200.5 L 122 207 Q 119.3 205.9 120 208.5 L 116.5 213 Q 111.3 218.3 100.5 218 L 94 214.5 L 93.5 213 Q 92.3 215.3 91 212.5 L 89 204.5 L 89.5 201 Q 87.3 201.8 88 199.5 L 89 197.5 L 88 195.5 L 88 193.5 L 89 188.5 L 88 187.5 L 88 178.5 L 88 176.5 L 89 172.5 L 88 168.5 L 88 166.5 L 88 146.5 L 87 141.5 L 87 139.5 L 89 123.5 L 88 120.5 L 89 118.5 L 88 116.5 L 88 114.5 L 89 112.5 L 88 111.5 L 88 100.5 L 87 99.5 L 87 97.5 L 89 91.5 L 88 86.5 L 92 77 L 94.5 78 L 95 75 L 98.5 74 Z "></path><path fill="rgb(124,210,72)" stroke="rgb(124,210,72)" stroke-width="1" opacity="1" d="M 164.5 211 L 167.5 212 L 170.5 211 L 180.5 214 L 192 220 Q 190.9 222.7 193.5 222 L 203 228 L 203 230 Q 206.7 228.5 206 231.5 L 219 241 Q 217.9 243.7 220.5 243 L 225 246.5 L 226.5 249 L 233 251 L 234.5 254 L 240.5 258 L 243.5 258 L 248 262.5 L 250 268 L 253 269.5 L 252 270.5 L 252 277 L 250 277 L 250 280 L 248 280 L 248 282 Q 245.3 280.9 246 283.5 L 245 286 L 229.5 290 L 226 292.5 L 224.5 295 L 206 303 Q 207.5 306.7 204.5 306 L 190 313 Q 191.1 315.7 188.5 315 L 184 318 Q 185.5 321.8 182.5 321 L 174 324 Q 175 327 172 326 L 171.5 324 L 171 326 L 163.5 326 L 163 324.5 L 162 324.5 L 161.5 326 L 159.5 323 L 156.5 323 L 141 315 Q 142.1 312.3 139.5 313 L 128.5 307 L 121 305 L 118.5 301 L 115.5 301 L 103 293.5 L 101 290.5 Q 96.5 287 98 277.5 L 103.5 269 L 106 269 L 106 267 Q 109.8 268.5 109 265.5 L 115 256 L 119 253.5 L 119 251.5 L 126.5 243 Q 129.5 243.9 128 239.5 L 135 232.5 L 135 230 L 139 230 Q 137.9 227.3 140.5 228 L 148 221.5 L 151.5 217 L 155.5 214 L 158.5 214 L 164.5 211 Z "></path></svg>