<svg width="400" height="400" version="1.1" xmlns="http://www.w3.org/2000/svg" desc="Created with imagetracer.js version 1.2.5"><path fill="rgb(0,0,0)" stroke="rgb(0,0,0)" stroke-width="1" opacity="0" d="M 0 0 L 400 0 L 400 400 L 0 400 L 0 0 Z M 14 29 L 14 112 L 15 113 L 15 122 L 17 132 L 25 150 L 39 162 L 51 167 L 61 169 Q 91 171 107 159 L 118 147 L 124 134 L 127 120 L 127 29 L 96 29 L 96 116 L 94 127 L 90 135 Q 85 142 75 144 L 68 144 L 59 141 Q 52 137 49 129 L 46 116 L 46 29 L 14 29 Z M 143 29 L 187 166 L 188 167 L 224 167 L 225 166 L 270 32 L 270 29 L 237 29 L 220 85 L 207 136 L 199 103 L 178 33 L 178 29 L 143 29 Z M 307 149 L 302 155 L 300 156 L 292 167 L 290 168 L 283 176 L 283 178 L 281 179 L 263 201 L 260 202 Q 258 208 253 212 Q 254 214 252 213 L 243 224 Q 244 226 242 225 L 234 235 Q 235 237 233 236 L 224 247 Q 225 249 223 248 L 215 257 Q 216 260 214 259 L 210 265 L 210 266 L 264 266 L 264 379 L 337 379 L 337 269 L 386 269 L 386 267 L 375 252 Q 376 247 373 248 Q 370 239 363 233 L 361 227 L 357 223 L 347 205 L 340 196 L 339 192 L 331 181 Q 332 178 329 179 L 329 176 L 318 161 L 318 158 Q 314 151 307 149 Z "></path><path fill="rgb(0,0,0)" stroke="rgb(0,0,0)" stroke-width="1" opacity="0.7411764705882353" d="M 14.5 29 L 15 111.5 L 14 111.5 L 14.5 29 Z "></path><path fill="rgb(0,0,0)" stroke="rgb(0,0,0)" stroke-width="1" opacity="0.7411764705882353" d="M 46.5 116 L 47 119.5 L 46 119.5 L 46.5 116 Z "></path><path fill="rgb(0,0,0)" stroke="rgb(0,0,0)" stroke-width="1" opacity="0.7411764705882353" d="M 95.5 116 L 96 119.5 L 95 119.5 L 95.5 116 Z "></path><path fill="rgb(0,0,0)" stroke="rgb(0,0,0)" stroke-width="1" opacity="0.7411764705882353" d="M 126.5 116 L 127 119.5 L 126 119.5 L 126.5 116 Z "></path><path fill="rgb(0,0,0)" stroke="rgb(0,0,0)" stroke-width="1" opacity="0.7411764705882353" d="M 15.5 118 L 16 121.5 L 15 121.5 L 15.5 118 Z "></path><path fill="rgb(0,0,0)" stroke="rgb(0,0,0)" stroke-width="1" opacity="0.7411764705882353" d="M 47.5 122 L 48 124.5 L 47 124.5 L 47.5 122 Z "></path><path fill="rgb(0,0,0)" stroke="rgb(0,0,0)" stroke-width="1" opacity="0.7411764705882353" d="M 16.5 125 L 17 127.5 L 16 127.5 L 16.5 125 Z "></path><path fill="rgb(0,0,0)" stroke="rgb(0,0,0)" stroke-width="1" opacity="0.7411764705882353" d="M 204.5 126 L 205 128.5 L 204 128.5 L 204.5 126 Z "></path><path fill="rgb(0,0,0)" stroke="rgb(0,0,0)" stroke-width="1" opacity="0.7411764705882353" d="M 208.5 129 L 209 131.5 L 208 131.5 L 208.5 129 Z "></path><path fill="rgb(0,0,0)" stroke="rgb(0,0,0)" stroke-width="1" opacity="0.7411764705882353" d="M 205.5 131 L 206 133.5 L 205 133.5 L 205.5 131 Z "></path><path fill="rgb(0,0,0)" stroke="rgb(0,0,0)" stroke-width="1" opacity="0.7411764705882353" d="M 91.5 132 L 90.5 134 L 91.5 132 Z "></path><path fill="rgb(0,0,0)" stroke="rgb(0,0,0)" stroke-width="1" opacity="0.7411764705882353" d="M 207.5 134 L 208 135.5 L 206 136.5 L 207.5 134 Z "></path><path fill="rgb(0,0,0)" stroke="rgb(0,0,0)" stroke-width="1" opacity="0.7411764705882353" d="M 52.5 135 L 56.5 140 L 52.5 135 Z "></path><path fill="rgb(0,0,0)" stroke="rgb(0,0,0)" stroke-width="1" opacity="0.7411764705882353" d="M 89.5 135 L 84.5 141 L 89.5 135 Z "></path><path fill="rgb(0,0,0)" stroke="rgb(0,0,0)" stroke-width="1" opacity="0.7411764705882353" d="M 64.5 143 L 67 143.5 L 64.5 144 L 64.5 143 Z "></path><path fill="rgb(0,0,0)" stroke="rgb(0,0,0)" stroke-width="1" opacity="0.7411764705882353" d="M 75.5 143 L 78 143.5 L 75.5 144 L 75.5 143 Z "></path><path fill="rgb(0,0,0)" stroke="rgb(0,0,0)" stroke-width="1" opacity="0.7411764705882353" d="M 117.5 146 L 116.5 148 L 117.5 146 Z "></path><path fill="rgb(0,0,0)" stroke="rgb(0,0,0)" stroke-width="1" opacity="0.7411764705882353" d="M 25.5 149 L 27.5 152 L 25.5 149 Z "></path><path fill="rgb(0,0,0)" stroke="rgb(0,0,0)" stroke-width="1" opacity="0.7411764705882353" d="M 115.5 149 L 112.5 153 L 115.5 149 Z "></path><path fill="rgb(0,0,0)" stroke="rgb(0,0,0)" stroke-width="1" opacity="0.7411764705882353" d="M 109.5 155 L 106.5 159 L 109.5 155 Z "></path><path fill="rgb(0,0,0)" stroke="rgb(0,0,0)" stroke-width="1" opacity="0.7411764705882353" d="M 34.5 158 L 35.5 160 L 34.5 158 Z "></path><path fill="rgb(0,0,0)" stroke="rgb(0,0,0)" stroke-width="1" opacity="0.7411764705882353" d="M 104.5 159 L 103.5 161 L 104.5 159 Z "></path><path fill="rgb(0,0,0)" stroke="rgb(0,0,0)" stroke-width="1" opacity="0.7411764705882353" d="M 37.5 160 L 38.5 162 L 37.5 160 Z "></path><path fill="rgb(0,0,0)" stroke="rgb(0,0,0)" stroke-width="1" opacity="0.7411764705882353" d="M 83.5 167 L 86 167.5 L 83.5 168 L 83.5 167 Z "></path><path fill="rgb(0,0,0)" stroke="rgb(0,0,0)" stroke-width="1" opacity="0.7411764705882353" d="M 60.5 168 L 65 168.5 L 60.5 169 L 60.5 168 Z "></path><path fill="rgb(0,0,0)" stroke="rgb(0,0,0)" stroke-width="1" opacity="0.7411764705882353" d="M 74.5 168 L 80 168.5 L 74.5 169 L 74.5 168 Z "></path><path fill="rgb(0,0,0)" stroke="rgb(0,0,0)" stroke-width="1" opacity="1" d="M 15 29 L 46 29 L 46 119.5 Q 47.5 129 52 135.5 L 56.5 140 Q 62.8 146.2 77.5 144 Q 85.8 141.8 90 135.5 L 93 130.5 L 96 119.5 L 96 29 L 127 29 L 127 115.5 L 122 137.5 Q 117.8 147.8 110.5 155 Q 102.7 162.2 91.5 166 L 82.5 168 L 65.5 169 L 45.5 165 Q 34.8 160.7 28 152.5 L 19 136.5 L 15 117.5 L 15 29 Z "></path><path fill="rgb(0,0,0)" stroke="rgb(0,0,0)" stroke-width="1" opacity="1" d="M 144 29 L 176.5 29 L 177 30.5 L 198 100.5 L 206.5 137 L 208 135.5 L 215 103.5 L 237 32.5 L 237 29 L 269.5 29 L 270 30.5 L 224 167 L 188.5 167 L 187 165.5 L 144 32.5 L 144 29 Z "></path><path fill="rgb(0,143,255)" stroke="rgb(0,143,255)" stroke-width="1" opacity="0.5411764705882353" d="M 306.5 149 Q 314.4 151.1 318 157.5 L 317.5 159 L 315.5 156 Q 312 152.5 305.5 152 L 301 155.5 L 306.5 149 Z "></path><path fill="rgb(0,143,255)" stroke="rgb(0,143,255)" stroke-width="1" opacity="0.5411764705882353" d="M 299.5 156 L 299 157.5 L 295.5 162 L 297 159.5 L 299.5 156 Z "></path><path fill="rgb(0,143,255)" stroke="rgb(0,143,255)" stroke-width="1" opacity="0.5411764705882353" d="M 318.5 161 L 329 176.5 L 327 175.5 L 318.5 161 Z "></path><path fill="rgb(0,143,255)" stroke="rgb(0,143,255)" stroke-width="1" opacity="0.5411764705882353" d="M 294.5 163 L 294 164.5 L 291.5 168 L 292 166.5 L 294.5 163 Z "></path><path fill="rgb(0,143,255)" stroke="rgb(0,143,255)" stroke-width="1" opacity="0.5411764705882353" d="M 289.5 168 L 289 169.5 L 283.5 177 L 283 175.5 L 289.5 168 Z "></path><path fill="rgb(0,143,255)" stroke="rgb(0,143,255)" stroke-width="1" opacity="0.5411764705882353" d="M 280.5 179 L 280 180.5 L 262.5 202 L 263 200.5 L 280.5 179 Z "></path><path fill="rgb(0,143,255)" stroke="rgb(0,143,255)" stroke-width="1" opacity="0.5411764705882353" d="M 330.5 179 L 340 193.5 L 338 192.5 L 331 182.5 L 330.5 179 Z "></path><path fill="rgb(0,143,255)" stroke="rgb(0,143,255)" stroke-width="1" opacity="0.5411764705882353" d="M 340.5 196 L 352 212.5 L 349 210.5 L 342 200.5 L 340.5 196 Z "></path><path fill="rgb(0,143,255)" stroke="rgb(0,143,255)" stroke-width="1" opacity="0.5411764705882353" d="M 259.5 204 L 260 205.5 L 253.5 213 L 253 211.5 L 259.5 204 Z "></path><path fill="rgb(0,143,255)" stroke="rgb(0,143,255)" stroke-width="1" opacity="0.5411764705882353" d="M 251.5 213 L 250 215.5 L 249.5 217 L 249 215.5 L 251.5 213 Z "></path><path fill="rgb(0,143,255)" stroke="rgb(0,143,255)" stroke-width="1" opacity="0.5411764705882353" d="M 352.5 215 L 363 230.5 L 361 229.5 L 352.5 215 Z "></path><path fill="rgb(0,143,255)" stroke="rgb(0,143,255)" stroke-width="1" opacity="0.5411764705882353" d="M 248.5 218 L 245 222.5 L 243.5 225 L 243 223.5 L 248.5 218 Z "></path><path fill="rgb(0,143,255)" stroke="rgb(0,143,255)" stroke-width="1" opacity="0.5411764705882353" d="M 241.5 225 L 240 227.5 L 238.5 230 L 238 228.5 L 241.5 225 Z "></path><path fill="rgb(0,143,255)" stroke="rgb(0,143,255)" stroke-width="1" opacity="0.5411764705882353" d="M 237.5 231 L 236 233.5 L 234.5 236 L 234 234.5 L 237.5 231 Z "></path><path fill="rgb(0,143,255)" stroke="rgb(0,143,255)" stroke-width="1" opacity="0.5411764705882353" d="M 363.5 233 L 373 247.5 L 372 247.5 L 363.5 233 Z "></path><path fill="rgb(0,143,255)" stroke="rgb(0,143,255)" stroke-width="1" opacity="0.5411764705882353" d="M 232.5 236 L 230 239.5 L 226.5 244 L 228 241.5 L 232.5 236 Z "></path><path fill="rgb(0,143,255)" stroke="rgb(0,143,255)" stroke-width="1" opacity="0.5411764705882353" d="M 225.5 245 L 226 246.5 L 224 247.5 L 225.5 245 Z "></path><path fill="rgb(0,143,255)" stroke="rgb(0,143,255)" stroke-width="1" opacity="0.5411764705882353" d="M 222.5 248 L 221 250.5 L 215.5 258 L 215 256.5 L 222.5 248 Z "></path><path fill="rgb(0,143,255)" stroke="rgb(0,143,255)" stroke-width="1" opacity="0.5411764705882353" d="M 375.5 252 L 386 267.5 L 384 266.5 L 375.5 252 Z "></path><path fill="rgb(0,143,255)" stroke="rgb(0,143,255)" stroke-width="1" opacity="0.5411764705882353" d="M 213.5 259 L 214 261.5 L 212 266 L 209 265.5 L 213.5 259 Z "></path><path fill="rgb(0,143,255)" stroke="rgb(0,143,255)" stroke-width="1" opacity="0.5411764705882353" d="M 264.5 378 L 336 378.5 L 264.5 379 L 264.5 378 Z "></path><path fill="rgb(0,140,255)" stroke="rgb(0,140,255)" stroke-width="1" opacity="0.996078431372549" d="M 305.5 152 Q 313.3 152.7 317 157.5 L 319 162.5 L 317.5 162 L 316 162.5 L 316.5 164 Q 313.8 162.8 316 161.5 L 312.5 158 L 309.5 159 L 310 157.5 Q 310.8 154.9 307.5 156 L 305.5 157 L 304 156.5 L 302.5 159 L 302.5 157 Q 299.2 155.9 300 158.5 L 299 158.5 L 300.5 156 L 305.5 152 Z "></path><path fill="rgb(0,140,255)" stroke="rgb(0,140,255)" stroke-width="1" opacity="0.996078431372549" d="M 296.5 161 L 295.5 163 L 296.5 161 Z "></path><path fill="rgb(0,140,255)" stroke="rgb(0,140,255)" stroke-width="1" opacity="0.996078431372549" d="M 319.5 164 L 322 167.5 L 319 167.5 L 319 165.5 L 319.5 164 Z "></path><path fill="rgb(0,140,255)" stroke="rgb(0,140,255)" stroke-width="1" opacity="0.996078431372549" d="M 290.5 168 L 291.5 170 L 289 169.5 L 290.5 168 Z "></path><path fill="rgb(0,140,255)" stroke="rgb(0,140,255)" stroke-width="1" opacity="0.996078431372549" d="M 323.5 169 L 327 174.5 L 325 173.5 L 323.5 171 Q 322.3 173.3 321 170.5 L 323 170.5 L 323.5 169 Z "></path><path fill="rgb(0,140,255)" stroke="rgb(0,140,255)" stroke-width="1" opacity="0.996078431372549" d="M 286.5 173 L 287 175 L 284.5 176 L 286.5 173 Z "></path><path fill="rgb(0,140,255)" stroke="rgb(0,140,255)" stroke-width="1" opacity="0.996078431372549" d="M 328.5 177 L 330 179.5 L 328 178.5 L 328.5 177 Z "></path><path fill="rgb(0,140,255)" stroke="rgb(0,140,255)" stroke-width="1" opacity="0.996078431372549" d="M 281.5 179 L 280.5 181 L 281.5 179 Z "></path><path fill="rgb(0,140,255)" stroke="rgb(0,140,255)" stroke-width="1" opacity="0.996078431372549" d="M 331.5 183 L 332.5 185 L 331.5 183 Z "></path><path fill="rgb(0,140,255)" stroke="rgb(0,140,255)" stroke-width="1" opacity="0.996078431372549" d="M 277.5 184 L 274.5 188 L 277.5 184 Z "></path><path fill="rgb(0,140,255)" stroke="rgb(0,140,255)" stroke-width="1" opacity="0.996078431372549" d="M 333.5 186 L 334.5 188 L 333.5 186 Z "></path><path fill="rgb(0,140,255)" stroke="rgb(0,140,255)" stroke-width="1" opacity="0.996078431372549" d="M 271.5 191 L 270.5 193 L 271.5 191 Z "></path><path fill="rgb(0,140,255)" stroke="rgb(0,140,255)" stroke-width="1" opacity="0.996078431372549" d="M 267.5 196 L 265.5 199 L 267.5 196 Z "></path><path fill="rgb(0,140,255)" stroke="rgb(0,140,255)" stroke-width="1" opacity="0.996078431372549" d="M 261.5 202 L 260.5 204 L 261.5 202 Z "></path><path fill="rgb(0,140,255)" stroke="rgb(0,140,255)" stroke-width="1" opacity="0.996078431372549" d="M 344.5 203 L 345.5 205 L 344.5 203 Z "></path><path fill="rgb(0,140,255)" stroke="rgb(0,140,255)" stroke-width="1" opacity="0.996078431372549" d="M 258.5 207 L 256 210.5 L 255.5 212 L 255 210.5 L 258.5 207 Z "></path><path fill="rgb(0,140,255)" stroke="rgb(0,140,255)" stroke-width="1" opacity="0.996078431372549" d="M 343.5 210 L 342.5 212 L 343.5 210 Z "></path><path fill="rgb(0,140,255)" stroke="rgb(0,140,255)" stroke-width="1" opacity="0.996078431372549" d="M 349.5 211 L 351.5 214 L 349.5 211 Z "></path><path fill="rgb(0,140,255)" stroke="rgb(0,140,255)" stroke-width="1" opacity="0.996078431372549" d="M 252.5 213 L 250.5 216 L 252.5 213 Z "></path><path fill="rgb(0,140,255)" stroke="rgb(0,140,255)" stroke-width="1" opacity="0.996078431372549" d="M 352.5 216 L 355 219.5 L 352 217.5 L 352.5 216 Z "></path><path fill="rgb(0,140,255)" stroke="rgb(0,140,255)" stroke-width="1" opacity="0.996078431372549" d="M 248.5 219 L 249 221 L 247 221 Q 248.1 223.7 245.5 223 L 248.5 219 Z "></path><path fill="rgb(0,140,255)" stroke="rgb(0,140,255)" stroke-width="1" opacity="0.996078431372549" d="M 251.5 222 L 250.5 224 L 251.5 222 Z "></path><path fill="rgb(0,140,255)" stroke="rgb(0,140,255)" stroke-width="1" opacity="0.996078431372549" d="M 357.5 224 L 359.5 227 L 357.5 224 Z "></path><path fill="rgb(0,140,255)" stroke="rgb(0,140,255)" stroke-width="1" opacity="0.996078431372549" d="M 242.5 225 L 243 227 L 240.5 228 L 242.5 225 Z "></path><path fill="rgb(0,140,255)" stroke="rgb(0,140,255)" stroke-width="1" opacity="0.996078431372549" d="M 237.5 232 L 238.5 234 L 236 233.5 L 237.5 232 Z "></path><path fill="rgb(0,140,255)" stroke="rgb(0,140,255)" stroke-width="1" opacity="0.996078431372549" d="M 233.5 236 L 234 238 L 230.5 240 L 233.5 236 Z "></path><path fill="rgb(0,140,255)" stroke="rgb(0,140,255)" stroke-width="1" opacity="0.996078431372549" d="M 367.5 240 L 368.5 242 L 367.5 240 Z "></path><path fill="rgb(0,140,255)" stroke="rgb(0,140,255)" stroke-width="1" opacity="0.996078431372549" d="M 228.5 242 L 229.5 244 L 226.5 245 L 228.5 242 Z "></path><path fill="rgb(0,140,255)" stroke="rgb(0,140,255)" stroke-width="1" opacity="0.996078431372549" d="M 227.5 246 L 230 247.5 L 228.5 247 L 227.5 246 Z "></path><path fill="rgb(0,140,255)" stroke="rgb(0,140,255)" stroke-width="1" opacity="0.996078431372549" d="M 223.5 248 L 224.5 250 L 223 249.5 Q 220.4 250.9 221 255.5 L 215 262.5 L 215 266 Q 211.2 267.5 212 264.5 Q 215.9 254.4 223.5 248 Z "></path><path fill="rgb(0,140,255)" stroke="rgb(0,140,255)" stroke-width="1" opacity="0.996078431372549" d="M 376.5 255 L 377.5 257 L 376.5 255 Z "></path><path fill="rgb(0,140,255)" stroke="rgb(0,140,255)" stroke-width="1" opacity="0.996078431372549" d="M 381.5 262 L 382.5 264 L 381.5 262 Z "></path><path fill="rgb(0,140,255)" stroke="rgb(0,140,255)" stroke-width="1" opacity="0.996078431372549" d="M 319.5 360 L 320.5 362 L 319.5 360 Z "></path><path fill="rgb(0,140,255)" stroke="rgb(0,140,255)" stroke-width="1" opacity="0.996078431372549" d="M 320.5 366 L 319.5 368 L 320.5 366 Z "></path><path fill="rgb(0,140,255)" stroke="rgb(0,140,255)" stroke-width="1" opacity="1" d="M 304.5 156 L 306.5 157 L 310 156 Q 308.8 159 312.5 158 L 316 159.5 Q 313.8 160.8 316.5 162 L 319 163.5 Q 318.5 167.5 321.5 168 Q 324.1 167.2 323 170.5 L 328 176.5 L 335 190 Q 337.7 188.9 337 191.5 L 341 199.5 L 352 214.5 L 352 217.5 L 374 249.5 L 378 259 Q 380.7 257.9 380 260.5 L 385 269 L 337 269 L 337 352.5 L 337 354.5 L 337 377.5 L 336.5 378 L 264 378 L 264 266 L 215.5 266 L 215 262.5 L 221 255.5 L 221 252.5 L 227.5 244 L 230 243.5 L 229 241.5 L 234 238 L 236.5 234 L 239 233.5 L 238 230.5 L 243 227 L 245.5 223 Q 248.1 223.7 247 221 L 249 221 L 249 217.5 L 256 212 L 260 204.5 L 285.5 175 Q 288.1 175.8 287 172.5 L 293 168 L 298.5 159 Q 301.1 159.7 300 157 L 302.5 157 L 304 157.5 L 304.5 156 Z "></path></svg>