<svg width="400" height="400" version="1.1" xmlns="http://www.w3.org/2000/svg" desc="Created with imagetracer.js version 1.2.5"><path fill="rgb(0,0,0)" stroke="rgb(0,0,0)" stroke-width="1" opacity="0" d="M 0 0 L 400 0 L 400 400 L 0 400 L 0 0 Z M 215 11 Q 194 27 168 36 Q 167 39 171 38 L 172 42 L 174 43 L 13 316 L 23 321 L 185 44 L 199 48 L 219 52 L 162 220 L 172 223 L 179 205 L 229 54 L 255 60 L 271 66 Q 281 67 287 65 L 286 218 L 245 223 L 238 225 L 232 225 L 177 235 L 172 235 L 114 248 L 98 256 Q 79 268 65 283 L 50 299 Q 47 298 48 301 L 47 301 L 34 314 L 14 329 L 32 334 L 56 339 L 89 348 L 132 355 L 148 359 L 159 360 L 170 363 L 259 377 L 270 380 L 284 358 L 284 389 L 294 390 L 295 387 L 295 338 L 327 280 L 369 226 L 371 226 L 380 225 L 380 217 L 379 216 L 380 214 L 378 207 L 375 172 L 373 163 L 369 119 L 367 110 L 364 75 L 363 74 L 363 66 Q 360 64 362 58 L 361 56 L 351 57 L 355 102 L 356 103 L 356 111 L 358 120 L 358 128 L 359 129 L 359 137 L 360 138 L 360 146 L 361 147 L 361 155 L 362 156 L 362 164 L 363 165 L 368 212 L 346 211 L 345 210 L 337 210 L 325 213 L 318 213 L 311 215 L 297 216 L 298 63 L 313 60 L 337 58 L 350 54 L 358 54 L 370 48 L 383 34 L 382 32 L 375 32 L 346 27 L 340 27 L 339 26 L 333 26 L 332 25 L 326 25 L 325 24 L 319 24 L 308 21 L 267 15 L 261 13 L 240 12 L 239 11 L 215 11 Z "></path><path fill="rgb(15,254,2)" stroke="rgb(15,254,2)" stroke-width="1" opacity="0.9058823529411765" d="M 175.5 41 L 177.5 43 L 186 43.5 L 22.5 321 L 13 315.5 L 163 59.5 L 175.5 41 Z "></path><path fill="rgb(15,254,2)" stroke="rgb(15,254,2)" stroke-width="1" opacity="0.9058823529411765" d="M 219 50 L 228.5 52 L 230 53.5 L 179 204.5 L 171.5 223 L 162 220 L 219 50 Z "></path><path fill="rgb(15,254,2)" stroke="rgb(15,254,2)" stroke-width="1" opacity="0.9058823529411765" d="M 356.5 56 Q 361 55 362 57.5 L 380 225 L 370 226 L 369 213.5 L 367 207.5 L 367 199.5 L 366 198.5 L 364 172.5 L 362 163.5 L 362 155.5 L 361 154.5 L 361 146.5 L 360 145.5 L 358 119.5 L 356 110.5 L 356 102.5 L 355 101.5 L 351 57 L 356.5 56 Z "></path><path fill="rgb(15,254,2)" stroke="rgb(15,254,2)" stroke-width="1" opacity="0.9058823529411765" d="M 292.5 62 Q 297.9 61.4 298 62.5 L 298 139.5 L 297 140.5 L 297 216.5 L 296 217.5 L 296 260.5 L 295 261.5 L 295 386.5 L 294 390 L 284 389 L 284 352.5 L 285 351.5 L 285 270.5 L 286 269.5 L 287 64.5 L 288.5 63 L 292.5 62 Z "></path><path fill="rgb(168,108,254)" stroke="rgb(168,108,254)" stroke-width="1" opacity="0.9372549019607843" d="M 214.5 11 L 238.5 11 L 239.5 12 L 260.5 13 L 266.5 15 L 307.5 21 L 318.5 24 L 324.5 24 L 325.5 25 L 331.5 25 L 332.5 26 L 338.5 26 L 339.5 27 L 345.5 27 L 374.5 32 L 381.5 32 L 383 33.5 L 369.5 48 L 357.5 54 L 349.5 54 L 336.5 58 L 312.5 60 L 298 63 Q 299.3 60 295.5 61 L 290.5 62 L 283.5 66 L 270.5 66 L 254.5 60 L 230 54 Q 231.3 51 227.5 52 L 219.5 50 L 215.5 51 L 198.5 48 L 188.5 45 L 183.5 42 L 181.5 42 L 174.5 41 L 172 42 L 170.5 38 Q 166.8 39 168 36 Q 194.5 27.2 214.5 11 Z "></path><path fill="rgb(48,75,140)" stroke="rgb(48,75,140)" stroke-width="1" opacity="0.984313725490196" d="M 336.5 210 L 368 212.5 L 357.5 213 L 356.5 212 L 336.5 211 L 330.5 213 L 297.5 217 L 296.5 218 L 297.5 216 L 324.5 213 L 336.5 210 Z "></path><path fill="rgb(48,75,140)" stroke="rgb(48,75,140)" stroke-width="1" opacity="0.984313725490196" d="M 282.5 218 L 286 218.5 L 282.5 219 L 282.5 218 Z "></path><path fill="rgb(48,75,140)" stroke="rgb(48,75,140)" stroke-width="1" opacity="0.984313725490196" d="M 273.5 219 L 281 219.5 L 244.5 224 L 237.5 226 L 231.5 226 L 230.5 227 L 177.5 235 L 132.5 244 L 107.5 251 L 79.5 271 L 38.5 311 L 17 327 Q 15.7 330.3 20.5 329 L 35.5 334 L 43.5 335 L 84.5 346 L 104.5 349 L 115.5 352 L 120.5 352 L 126.5 354 L 131.5 354 L 142.5 357 L 147.5 357 L 153.5 359 L 158.5 359 L 169.5 362 L 258.5 376 L 269.5 379 L 283.5 356 L 284 357.5 L 269.5 380 L 258.5 377 L 169.5 363 L 158.5 360 L 147.5 359 L 131.5 355 L 88.5 348 L 55.5 339 L 31.5 334 L 14 328.5 L 33.5 314 L 46.5 301 L 48 301 Q 46.9 298.3 49.5 299 L 64.5 283 Q 79.5 268 97.5 256 L 113.5 248 L 171.5 235 L 176.5 235 L 231.5 225 L 237.5 225 L 244.5 223 L 272.5 220 L 273.5 219 Z "></path><path fill="rgb(48,75,140)" stroke="rgb(48,75,140)" stroke-width="1" opacity="0.984313725490196" d="M 369.5 224 L 369 225.5 L 327 279.5 L 295.5 337 L 295 335.5 L 319 290.5 L 331 271.5 L 369.5 224 Z "></path><path fill="rgb(48,75,140)" stroke="rgb(48,75,140)" stroke-width="1" opacity="0.984313725490196" d="M 102.5 301 Q 108.5 299.5 110 302.5 L 104.5 304 L 102.5 301 Z "></path><path fill="rgb(49,75,141)" stroke="rgb(49,75,141)" stroke-width="1" opacity="1" d="M 176.5 41 L 182 42.5 L 177.5 43 L 176.5 41 Z "></path><path fill="rgb(49,75,141)" stroke="rgb(49,75,141)" stroke-width="1" opacity="1" d="M 336.5 211 L 369 213 L 370 223.5 L 331 271.5 L 319 290.5 L 295.5 335 L 295 261.5 L 296 260.5 L 296 218.5 L 297.5 217 L 324.5 214 L 336.5 211 Z "></path><path fill="rgb(49,75,141)" stroke="rgb(49,75,141)" stroke-width="1" opacity="1" d="M 281.5 219 Q 286 218.5 286 219.5 L 286 269.5 L 285 270.5 L 285 351.5 L 283 357.5 L 269.5 379 L 258.5 376 L 169.5 362 L 158.5 359 L 142.5 357 L 104.5 349 L 99.5 349 L 17 329 Q 15.9 326.3 18.5 327 L 38.5 311 L 79.5 271 L 107.5 251 L 132.5 244 L 146.5 242 L 166.5 237 L 171.5 237 L 177.5 235 L 188.5 234 L 218.5 228 L 224.5 228 L 231.5 226 L 237.5 226 L 266.5 221 L 273.5 221 L 281.5 219 Z M 103 301 L 105 304 L 110 303 Q 108 300 103 301 Z "></path></svg>