<svg width="400" height="400" version="1.1" xmlns="http://www.w3.org/2000/svg" desc="Created with imagetracer.js version 1.2.5"><path fill="rgb(61,169,19)" stroke="rgb(61,169,19)" stroke-width="1" opacity="1" d="M 15.5 75 L 16 84.5 L 15 84.5 L 15.5 75 Z "></path><path fill="rgb(77,207,26)" stroke="rgb(77,207,26)" stroke-width="1" opacity="1" d="M 0 75 L 15 75 L 15 85 L 0 85 L 0 75 Z "></path><path fill="rgb(77,207,26)" stroke="rgb(77,207,26)" stroke-width="1" opacity="1" d="M 52 75 L 109.5 75 L 110 75.5 L 110 86 L 93.5 86 L 92.5 85 L 52 85 L 52 75 Z "></path><path fill="rgb(77,207,26)" stroke="rgb(77,207,26)" stroke-width="1" opacity="1" d="M 146 75 L 181.5 75 L 182 76.5 L 185 86 L 146.5 86 L 146 85.5 L 146 75 Z "></path><path fill="rgb(77,207,26)" stroke="rgb(77,207,26)" stroke-width="1" opacity="1" d="M 221 75 L 255 75.5 L 252 86 L 224.5 86 L 224 84.5 L 221 75 Z "></path><path fill="rgb(77,207,26)" stroke="rgb(77,207,26)" stroke-width="1" opacity="1" d="M 292 75 L 399.5 75 L 400 75.5 L 400 86 L 289.5 86 L 289 83.5 L 292 75 Z "></path><path fill="rgb(77,207,26)" stroke="rgb(77,207,26)" stroke-width="1" opacity="1" d="M 0 362 L 82.5 362 L 83 362.5 L 83 369 L 93 369 L 93 362.5 L 93.5 362 L 400 362 L 400 371.5 L 399.5 372 L 0 372 L 0 362 Z "></path><path fill="rgb(25,100,206)" stroke="rgb(25,100,206)" stroke-width="1" opacity="1" d="M 83 85 L 92.5 85 L 93 85.5 L 93 148 Q 89.4 150.6 83 150 L 83 85 Z "></path><path fill="rgb(25,100,206)" stroke="rgb(25,100,206)" stroke-width="1" opacity="1" d="M 101.5 176 L 214.5 176 L 215.5 177 L 256.5 177 L 257.5 176 L 400 176 L 400 185.5 L 399.5 186 L 93.5 186 L 93 186.5 L 93 260 L 399.5 260 L 400 260.5 L 400 270 L 93.5 270 L 93 270.5 L 93 368.5 L 92.5 369 L 83 369 L 83 179.5 Q 83.1 178.4 88.5 179 L 101.5 176 Z "></path><path fill="rgb(0,0,0)" stroke="rgb(0,0,0)" stroke-width="1" opacity="0" d="M 0 0 L 399.5 0 L 400 0.5 L 400 75 L 292.5 75 L 292 72.5 L 311 17 L 272.5 17 L 272 20.5 L 266 37.5 L 258 67.5 L 254.5 75 L 220.5 75 L 220 73.5 L 204 17 L 164.5 17 L 164 18.5 L 182 75 L 146 75 L 146 17 L 110 17 L 110 75 L 52 75 L 52 17 L 16 17 L 16 74.5 L 15.5 75 L 0 75 L 0 0 Z "></path><path fill="rgb(0,0,0)" stroke="rgb(0,0,0)" stroke-width="1" opacity="0" d="M 0 85 L 16 85 L 16 120.5 L 17 121.5 L 18 132.5 L 22 145.5 L 34 164 L 45.5 172 L 58.5 177 L 69.5 179 L 83 179 L 83 362 L 0 362 L 0 85 Z "></path><path fill="rgb(0,0,0)" stroke="rgb(0,0,0)" stroke-width="1" opacity="0" d="M 52 85 L 83 85 L 83 150 Q 65.5 151 59 139.5 L 54 128.5 L 52 117.5 L 52 85 Z "></path><path fill="rgb(0,0,0)" stroke="rgb(0,0,0)" stroke-width="1" opacity="0" d="M 93 86 L 110 86 L 110 117.5 L 106 134.5 L 96.5 146 L 93 147 L 93 86 Z "></path><path fill="rgb(0,0,0)" stroke="rgb(0,0,0)" stroke-width="1" opacity="0" d="M 146 86 L 185.5 86 L 186 87.5 L 215 175.5 L 105.5 176 L 105.5 175 Q 122.7 170.2 132 157.5 Q 141.8 144.8 145 125.5 Q 143.3 119.2 146 117.5 L 146 86 Z "></path><path fill="rgb(0,0,0)" stroke="rgb(0,0,0)" stroke-width="1" opacity="0" d="M 223.5 86 L 251.5 86 L 252 87.5 L 244 113.5 L 237.5 142 L 230 108.5 L 223.5 86 Z "></path><path fill="rgb(0,0,0)" stroke="rgb(0,0,0)" stroke-width="1" opacity="0" d="M 288.5 86 L 400 86 L 400 176 L 258.5 176 L 258 173.5 L 263 161.5 L 287 87.5 L 288.5 86 Z "></path><path fill="rgb(0,0,0)" stroke="rgb(0,0,0)" stroke-width="1" opacity="0" d="M 93 186 L 399.5 186 L 400 186.5 L 400 260 L 93.5 260 L 93 259.5 L 93 186 Z "></path><path fill="rgb(0,0,0)" stroke="rgb(0,0,0)" stroke-width="1" opacity="0" d="M 93 270 L 399.5 270 L 400 270.5 L 400 362 L 93.5 362 L 93 361.5 L 93 270 Z "></path><path fill="rgb(0,0,0)" stroke="rgb(0,0,0)" stroke-width="1" opacity="0" d="M 0 372 L 399.5 372 L 400 372.5 L 400 400 L 0.5 400 L 0 399.5 L 0 372 Z "></path><path fill="rgb(0,0,0)" stroke="rgb(0,0,0)" stroke-width="1" opacity="0.9921568627450981" d="M 16 17 L 52 17 L 52 117.5 L 55 131.5 Q 58.2 140.8 65.5 146 Q 72.8 151.7 87.5 150 Q 97.8 147.3 103 139.5 L 108 128.5 L 110 117.5 L 110 17 L 146 17 L 146 117.5 L 145 118.5 L 144 130.5 L 140 143.5 Q 134.4 157.4 123.5 166 Q 114.4 173.9 100.5 177 L 89.5 178 L 88.5 179 L 69.5 179 L 49.5 174 L 34 164 L 22 145.5 L 18 132.5 L 17 121.5 L 16 120.5 L 16 17 Z "></path><path fill="rgb(0,0,0)" stroke="rgb(0,0,0)" stroke-width="1" opacity="0.9921568627450981" d="M 164 17 L 203.5 17 L 204 19.5 L 227 97.5 L 237.5 142 L 248 98.5 L 255 78.5 L 255 74.5 Q 265.2 47 272 17 L 310.5 17 L 311 18.5 L 289 80.5 L 263 161.5 L 256.5 177 L 215.5 177 L 215 175.5 L 164 17 Z "></path></svg>