<svg width="400" height="400" version="1.1" xmlns="http://www.w3.org/2000/svg" desc="Created with imagetracer.js version 1.2.5"><path fill="rgb(0,12,10)" stroke="rgb(0,12,10)" stroke-width="1" opacity="0.03137254901960784" d="M 0 0 L 399.5 0 L 400 0.5 L 400 38 L 396.5 37 L 394.5 37 L 340.5 37 L 338.5 36 L 336.5 36 L 282.5 36 L 281.5 35 L 279.5 35 L 232.5 35 L 225 37 L 224 39.5 L 224 90.5 L 224 92.5 L 225 94.5 L 224 101 L 219.5 100 L 211.5 102 L 209.5 102 L 207.5 101 L 206.5 102 L 193.5 102 L 191.5 103 L 189.5 103 L 181 102 L 181 79.5 L 179 77.5 L 178 72.5 L 177 61.5 L 176 60.5 L 176 50.5 L 170.5 41 L 157.5 41 L 155.5 40 L 153.5 40 Q 140.8 41.8 133.5 38 L 0 38 L 0 0 Z "></path><path fill="rgb(0,12,10)" stroke="rgb(0,12,10)" stroke-width="1" opacity="0.03137254901960784" d="M 218.5 296 L 220.5 297 L 222 296.5 L 223 327.5 L 224 331 Q 226.7 329.9 226 332.5 L 228 335.5 L 226 342.5 L 227 345 L 231.5 346 L 238.5 344 L 240.5 345 L 243.5 344 L 244.5 345 L 268.5 345 L 276.5 347 L 296.5 347 L 297.5 346 L 309.5 346 L 310.5 347 L 342.5 347 L 343.5 348 L 345.5 348 L 375.5 348 L 377.5 349 L 379.5 348 L 380.5 349 L 400 349 L 400 399.5 L 399.5 400 L 0 400 L 0 353.5 Q 0 352.5 4.5 353 L 5.5 352 L 127.5 352 L 128.5 351 L 164.5 351 L 172 346.5 L 178 332.5 L 177 331.5 L 177 302.5 L 178 300 L 183.5 299 L 186.5 300 L 189.5 299 L 203.5 298 L 205.5 298 L 210.5 297 L 212.5 297 Q 217.2 298.3 218.5 296 Z "></path><path fill="rgb(29,217,148)" stroke="rgb(29,217,148)" stroke-width="1" opacity="0.9921568627450981" d="M 20.5 38 L 125.5 38 L 126.5 39 Q 127.7 36.8 132.5 38 Q 135.8 40.8 142 40.5 L 135.5 41 L 134.5 40 L 78.5 40 L 77.5 39 L 20.5 39 L 20.5 38 Z "></path><path fill="rgb(29,217,148)" stroke="rgb(29,217,148)" stroke-width="1" opacity="0.9921568627450981" d="M 235.5 43 L 326.5 44 L 327.5 45 L 386.5 45 L 387.5 46 L 400 46.5 L 364.5 47 L 359.5 46 L 305.5 46 L 304.5 45 L 302.5 46 L 300.5 45 L 298.5 45 L 247.5 45 L 246.5 44 L 244.5 44 Q 236.3 42.8 233 46.5 L 234 50.5 L 233 55.5 L 234 57.5 L 234.5 91 L 236 90.5 L 233 92.5 Q 234.8 86.3 232 84.5 L 232 45.5 L 235.5 43 Z "></path><path fill="rgb(29,217,148)" stroke="rgb(29,217,148)" stroke-width="1" opacity="0.9921568627450981" d="M 0 46 L 27.5 46 L 28.5 47 L 85.5 47 L 86.5 48 L 143.5 48 L 144.5 49 L 165 49 Q 167 52 166 59.5 L 165 64.5 L 168 69.5 L 168 92 L 164 91.5 L 166 91 L 166 69.5 Q 161.9 67.6 163 60.5 L 164 59.5 L 164 51 L 149.5 51 L 148.5 50 L 146.5 50 L 92.5 50 L 89.5 49 L 87.5 50 L 86.5 49 L 32.5 49 L 31.5 48 L 29.5 48 L 1 48 L 1 75.5 L 0 75.5 L 0 46 Z "></path><path fill="rgb(29,217,148)" stroke="rgb(29,217,148)" stroke-width="1" opacity="0.9921568627450981" d="M 174.5 53 L 175 57.5 L 174 57.5 L 174.5 53 Z "></path><path fill="rgb(29,217,148)" stroke="rgb(29,217,148)" stroke-width="1" opacity="0.9921568627450981" d="M 176.5 70 L 179 75.5 L 178 76.5 L 178 97.5 L 181 101.5 L 179 100.5 L 176 96.5 L 176.5 70 Z "></path><path fill="rgb(29,217,148)" stroke="rgb(29,217,148)" stroke-width="1" opacity="0.9921568627450981" d="M 29.5 73 L 66 73.5 L 29.5 74 L 29.5 73 Z "></path><path fill="rgb(29,217,148)" stroke="rgb(29,217,148)" stroke-width="1" opacity="0.9921568627450981" d="M 24.5 74 L 27 74.5 L 24.5 75 L 24.5 74 Z "></path><path fill="rgb(29,217,148)" stroke="rgb(29,217,148)" stroke-width="1" opacity="0.9921568627450981" d="M 68.5 74 L 74 74.5 L 68.5 75 L 68.5 74 Z "></path><path fill="rgb(29,217,148)" stroke="rgb(29,217,148)" stroke-width="1" opacity="0.9921568627450981" d="M 16.5 75 L 22 75.5 L 16.5 76 L 16.5 75 Z "></path><path fill="rgb(29,217,148)" stroke="rgb(29,217,148)" stroke-width="1" opacity="0.9921568627450981" d="M 76.5 75 L 79 75.5 L 76.5 76 L 76.5 75 Z "></path><path fill="rgb(29,217,148)" stroke="rgb(29,217,148)" stroke-width="1" opacity="0.9921568627450981" d="M 2.5 76 L 5 76.5 L 2.5 77 L 2.5 76 Z "></path><path fill="rgb(29,217,148)" stroke="rgb(29,217,148)" stroke-width="1" opacity="0.9921568627450981" d="M 87.5 76 L 90 76.5 L 87.5 77 L 87.5 76 Z "></path><path fill="rgb(29,217,148)" stroke="rgb(29,217,148)" stroke-width="1" opacity="0.9921568627450981" d="M 123.5 81 Q 134.3 79.7 141 82.5 L 136.5 83 L 135.5 82 L 123.5 82 L 123.5 81 Z "></path><path fill="rgb(29,217,148)" stroke="rgb(29,217,148)" stroke-width="1" opacity="0.9921568627450981" d="M 304.5 81 L 307 81.5 L 304.5 82 L 304.5 81 Z "></path><path fill="rgb(29,217,148)" stroke="rgb(29,217,148)" stroke-width="1" opacity="0.9921568627450981" d="M 361.5 81 L 366 81.5 L 361.5 82 L 361.5 81 Z "></path><path fill="rgb(29,217,148)" stroke="rgb(29,217,148)" stroke-width="1" opacity="0.9921568627450981" d="M 297.5 82 L 300 82.5 L 297.5 83 L 297.5 82 Z "></path><path fill="rgb(29,217,148)" stroke="rgb(29,217,148)" stroke-width="1" opacity="0.9921568627450981" d="M 372.5 82 L 376 82.5 L 372.5 83 L 372.5 82 Z "></path><path fill="rgb(29,217,148)" stroke="rgb(29,217,148)" stroke-width="1" opacity="0.9921568627450981" d="M 142.5 83 L 145 83.5 L 142.5 84 L 142.5 83 Z "></path><path fill="rgb(29,217,148)" stroke="rgb(29,217,148)" stroke-width="1" opacity="0.9921568627450981" d="M 289.5 83 L 296 83.5 L 289.5 84 L 289.5 83 Z "></path><path fill="rgb(29,217,148)" stroke="rgb(29,217,148)" stroke-width="1" opacity="0.9921568627450981" d="M 379.5 83 L 383 83.5 L 379.5 84 L 379.5 83 Z "></path><path fill="rgb(29,217,148)" stroke="rgb(29,217,148)" stroke-width="1" opacity="0.9921568627450981" d="M 285.5 84 L 288 84.5 L 285.5 85 L 285.5 84 Z "></path><path fill="rgb(29,217,148)" stroke="rgb(29,217,148)" stroke-width="1" opacity="0.9921568627450981" d="M 386.5 84 L 389 84.5 L 386.5 85 L 386.5 84 Z "></path><path fill="rgb(29,217,148)" stroke="rgb(29,217,148)" stroke-width="1" opacity="0.9921568627450981" d="M 147.5 85 L 150 85.5 L 147.5 86 L 147.5 85 Z "></path><path fill="rgb(29,217,148)" stroke="rgb(29,217,148)" stroke-width="1" opacity="0.9921568627450981" d="M 280.5 85 L 283 85.5 L 280.5 86 L 280.5 85 Z "></path><path fill="rgb(29,217,148)" stroke="rgb(29,217,148)" stroke-width="1" opacity="0.9921568627450981" d="M 391.5 85 L 395 85.5 L 391.5 86 L 391.5 85 Z "></path><path fill="rgb(29,217,148)" stroke="rgb(29,217,148)" stroke-width="1" opacity="0.9921568627450981" d="M 273.5 86 L 277 86.5 L 273.5 87 L 273.5 86 Z "></path><path fill="rgb(29,217,148)" stroke="rgb(29,217,148)" stroke-width="1" opacity="0.9921568627450981" d="M 397.5 86 L 400 86.5 L 397.5 87 L 397.5 86 Z "></path><path fill="rgb(29,217,148)" stroke="rgb(29,217,148)" stroke-width="1" opacity="0.9921568627450981" d="M 262.5 87 L 270 87.5 L 262.5 88 L 262.5 87 Z "></path><path fill="rgb(29,217,148)" stroke="rgb(29,217,148)" stroke-width="1" opacity="0.9921568627450981" d="M 256.5 88 L 259 88.5 L 256.5 89 L 256.5 88 Z "></path><path fill="rgb(29,217,148)" stroke="rgb(29,217,148)" stroke-width="1" opacity="0.9921568627450981" d="M 223 290 Q 226.7 288.5 226 291.5 L 228 299.5 L 228 331.5 L 227 331.5 L 226 326.5 L 226 324.5 L 226 298.5 L 225 296 L 223 296 L 223 290 Z "></path><path fill="rgb(29,217,148)" stroke="rgb(29,217,148)" stroke-width="1" opacity="0.9921568627450981" d="M 236 292 L 239 293.5 L 247 302.5 L 239.5 296 L 237 297.5 L 237 333.5 L 238.5 335 L 291.5 336 L 292.5 337 L 295.5 336 L 296.5 337 L 327.5 337 L 328.5 338 L 332.5 338 L 397.5 339 L 398.5 340 L 400 339.5 L 399.5 341 L 384.5 341 L 383.5 340 L 349.5 340 L 348.5 339 L 247.5 337 L 246.5 336 L 237.5 336 L 236 334.5 L 235 296.5 L 236 292 Z "></path><path fill="rgb(29,217,148)" stroke="rgb(29,217,148)" stroke-width="1" opacity="0.9921568627450981" d="M 165.5 294 L 168 295 L 169 299.5 L 169 329 L 164.5 331 L 156.5 331 L 155.5 332 L 144.5 332 L 143.5 333 L 132.5 333 L 131.5 334 L 120.5 334 L 119.5 335 L 108.5 335 L 107.5 336 L 96.5 336 L 95.5 337 L 84.5 337 L 83.5 338 L 72.5 338 L 71.5 339 L 59.5 339 L 58.5 340 L 47.5 340 L 46.5 341 L 0 343 L 0.5 316 L 1 341 L 20.5 341 L 21.5 340 L 59.5 338 L 60.5 337 L 72.5 337 L 73.5 336 L 84.5 336 L 85.5 335 L 144.5 331 L 145.5 330 L 156.5 330 L 167 328 L 167 304.5 L 165.5 302 L 164.5 303 L 151.5 303 L 149 304 Q 150.1 301.3 147.5 302 L 147.5 304 L 145.5 303 L 141.5 306 L 141.5 305 L 154 297 L 154.5 295 L 164.5 295 L 165.5 294 Z "></path><path fill="rgb(29,217,148)" stroke="rgb(29,217,148)" stroke-width="1" opacity="0.9921568627450981" d="M 251.5 304 L 255 304.5 L 251.5 305 L 251.5 304 Z "></path><path fill="rgb(29,217,148)" stroke="rgb(29,217,148)" stroke-width="1" opacity="0.9921568627450981" d="M 294.5 304 L 340 304.5 L 294.5 305 L 294.5 304 Z "></path><path fill="rgb(29,217,148)" stroke="rgb(29,217,148)" stroke-width="1" opacity="0.9921568627450981" d="M 343.5 305 L 348 305.5 L 343.5 306 L 343.5 305 Z "></path><path fill="rgb(29,217,148)" stroke="rgb(29,217,148)" stroke-width="1" opacity="0.9921568627450981" d="M 357.5 306 L 361 306.5 L 357.5 307 L 357.5 306 Z "></path><path fill="rgb(29,217,148)" stroke="rgb(29,217,148)" stroke-width="1" opacity="0.9921568627450981" d="M 378.5 308 L 381 308.5 L 378.5 309 L 378.5 308 Z "></path><path fill="rgb(29,217,148)" stroke="rgb(29,217,148)" stroke-width="1" opacity="0.9921568627450981" d="M 387.5 309 L 392 309.5 L 387.5 310 L 387.5 309 Z "></path><path fill="rgb(29,217,148)" stroke="rgb(29,217,148)" stroke-width="1" opacity="0.9921568627450981" d="M 121.5 311 L 124 311.5 L 121.5 312 L 121.5 311 Z "></path><path fill="rgb(29,217,148)" stroke="rgb(29,217,148)" stroke-width="1" opacity="0.9921568627450981" d="M 109.5 313 L 115 313.5 L 109.5 314 L 109.5 313 Z "></path><path fill="rgb(29,217,148)" stroke="rgb(29,217,148)" stroke-width="1" opacity="0.9921568627450981" d="M 0.5 314 L 3 314.5 L 0.5 315 L 0.5 314 Z "></path><path fill="rgb(29,217,148)" stroke="rgb(29,217,148)" stroke-width="1" opacity="0.9921568627450981" d="M 102.5 314 L 107 314.5 L 102.5 315 L 102.5 314 Z "></path><path fill="rgb(29,217,148)" stroke="rgb(29,217,148)" stroke-width="1" opacity="0.9921568627450981" d="M 4.5 315 L 12 316.5 L 7.5 317 L 4.5 316 L 4.5 315 Z "></path><path fill="rgb(29,217,148)" stroke="rgb(29,217,148)" stroke-width="1" opacity="0.9921568627450981" d="M 97.5 315 L 101 315.5 L 93.5 318 L 84.5 318 L 84.5 317 Q 93.5 318.5 97.5 315 Z "></path><path fill="rgb(29,217,148)" stroke="rgb(29,217,148)" stroke-width="1" opacity="0.9921568627450981" d="M 14.5 317 L 44 317.5 L 14.5 318 L 14.5 317 Z "></path><path fill="rgb(29,217,148)" stroke="rgb(29,217,148)" stroke-width="1" opacity="0.9921568627450981" d="M 46.5 318 L 82 318.5 L 46.5 319 L 46.5 318 Z "></path><path fill="rgb(29,217,148)" stroke="rgb(29,217,148)" stroke-width="1" opacity="0.9921568627450981" d="M 155.5 339 L 165 339.5 L 159.5 343 L 130.5 343 L 130.5 342 L 143.5 341 L 144.5 340 L 154.5 340 L 155.5 339 Z "></path><path fill="rgb(29,217,148)" stroke="rgb(29,217,148)" stroke-width="1" opacity="0.9921568627450981" d="M 273.5 345 Q 284.9 343.6 292 346.5 L 282.5 347 L 281.5 346 L 273.5 346 L 273.5 345 Z "></path><path fill="rgb(29,217,148)" stroke="rgb(29,217,148)" stroke-width="1" opacity="0.9921568627450981" d="M 55.5 351 L 119 351.5 L 55.5 352 L 55.5 351 Z "></path><path fill="rgb(18,231,150)" stroke="rgb(18,231,150)" stroke-width="1" opacity="0.9058823529411765" d="M 174.5 50 L 176 55.5 L 175 55.5 L 174.5 50 Z "></path><path fill="rgb(18,231,150)" stroke="rgb(18,231,150)" stroke-width="1" opacity="0.9058823529411765" d="M 176.5 67 Q 178.8 67.8 178 71.5 L 177 71.5 L 176.5 67 Z "></path><path fill="rgb(18,231,150)" stroke="rgb(18,231,150)" stroke-width="1" opacity="0.9058823529411765" d="M 178.5 76 Q 182.9 79.1 181 88.5 L 180 88.5 L 178.5 76 Z "></path><path fill="rgb(18,231,150)" stroke="rgb(18,231,150)" stroke-width="1" opacity="0.9058823529411765" d="M 222.5 293 L 224 325.5 L 228 332.5 L 225.5 331 Q 222.9 331.8 224 328.5 L 223 327.5 L 223 312.5 L 222 311.5 L 222.5 293 Z "></path><path fill="rgb(18,231,150)" stroke="rgb(18,231,150)" stroke-width="1" opacity="0.9058823529411765" d="M 277.5 346 L 282 346.5 L 277.5 347 L 277.5 346 Z "></path><path fill="rgb(18,231,150)" stroke="rgb(18,231,150)" stroke-width="1" opacity="0.9058823529411765" d="M 292.5 346 L 295 346.5 L 292.5 347 L 292.5 346 Z "></path><path fill="rgb(18,231,150)" stroke="rgb(18,231,150)" stroke-width="1" opacity="0.9058823529411765" d="M 44.5 351 L 55 351.5 L 44.5 352 L 44.5 351 Z "></path><path fill="rgb(18,231,150)" stroke="rgb(18,231,150)" stroke-width="1" opacity="0.9058823529411765" d="M 119.5 351 L 124 351.5 L 119.5 352 L 119.5 351 Z "></path><path fill="rgb(14,129,107)" stroke="rgb(14,129,107)" stroke-width="1" opacity="0.996078431372549" d="M 2.5 38 L 19.5 38 L 20.5 39 L 77.5 39 L 78.5 40 L 134.5 40 Q 136.3 42.8 142.5 41 L 144.5 41 L 151 42.5 L 140.5 43 L 139.5 42 L 24.5 41 L 23.5 40 L 0 39.5 L 2.5 38 Z "></path><path fill="rgb(14,129,107)" stroke="rgb(14,129,107)" stroke-width="1" opacity="0.996078431372549" d="M 380.5 39 L 400 39.5 L 380.5 40 L 380.5 39 Z "></path><path fill="rgb(14,129,107)" stroke="rgb(14,129,107)" stroke-width="1" opacity="0.996078431372549" d="M 235.5 41 L 264.5 41 L 265.5 42 L 267.5 41 L 268.5 42 L 383.5 43 L 384.5 44 L 400 44 L 399.5 46 L 387.5 46 L 386.5 45 L 327.5 45 L 326.5 44 L 235.5 43 L 232 45.5 L 232 84.5 L 233.5 93 L 237.5 89 L 269.5 88 L 307.5 81 L 360.5 81 L 361.5 82 L 371.5 82 L 372.5 83 L 385.5 84 L 400 87 L 399.5 132 L 391.5 129 L 383.5 129 L 382.5 128 L 375.5 128 L 366.5 126 L 356.5 126 L 355.5 125 L 319.5 123 L 317.5 122 L 312.5 128 L 233 128 L 233 95.5 L 231 94.5 L 231 82.5 L 230 79.5 L 230 75.5 L 230 45.5 L 232.5 42 L 235.5 41 Z "></path><path fill="rgb(14,129,107)" stroke="rgb(14,129,107)" stroke-width="1" opacity="0.996078431372549" d="M 0 44 L 19.5 44 L 20.5 45 L 22.5 44 L 23.5 45 L 79.5 45 L 80.5 46 L 136.5 46 L 137.5 47 L 139.5 47 L 164.5 47 L 167 48 Q 168.7 51.5 168 58.5 Q 165.5 60 167 65.5 L 170 68.5 L 170 93 L 168 93.5 L 168 125.5 L 168.5 127 L 47.5 127 L 40.5 129 L 33.5 129 L 32.5 130 L 0 134 L 0 77.5 Q 0 76.5 4.5 77 L 5.5 76 L 21.5 76 L 27.5 74 L 67.5 74 L 76.5 76 L 86.5 76 L 93.5 78 L 112.5 79 Q 114 81.5 119.5 80 L 123.5 82 L 141.5 83 L 155.5 89 L 168 92 L 168 69.5 Q 164.3 67.3 165 60.5 L 166 59.5 L 166 51.5 L 165 49 L 144.5 49 L 143.5 48 L 86.5 48 L 85.5 47 L 28.5 47 L 27.5 46 L 0 46 L 0 44 Z "></path><path fill="rgb(14,129,107)" stroke="rgb(14,129,107)" stroke-width="1" opacity="0.996078431372549" d="M 171 46 L 174 47.5 L 176 51.5 L 175 51.5 L 174.5 50 L 174 57.5 L 175 57.5 L 175.5 56 L 178 67.5 L 176 67.5 L 176 96.5 L 180.5 102 L 189.5 103 L 191.5 103 L 193.5 102 L 206.5 102 L 207.5 101 L 209.5 102 L 212.5 101 Q 218 102.5 219.5 100 L 223 101 L 225 105.5 L 225 126.5 L 226 127.5 L 218.5 128 L 217.5 127 L 176 127 L 176 98.5 L 174 95.5 L 174 60.5 L 172 58.5 Q 172.9 50.1 171 46 Z "></path><path fill="rgb(14,129,107)" stroke="rgb(14,129,107)" stroke-width="1" opacity="0.996078431372549" d="M 225.5 57 L 227 96.5 L 226 96.5 L 226 88.5 L 225 87.5 L 225.5 57 Z "></path><path fill="rgb(14,129,107)" stroke="rgb(14,129,107)" stroke-width="1" opacity="0.996078431372549" d="M 396.5 242 L 400 242.5 L 400 310 L 381.5 309 L 373.5 307 L 348.5 306 L 339.5 304 L 294.5 304 L 293.5 305 L 255.5 305 L 247.5 303 L 239 294.5 L 237.5 292 Q 234.5 291.1 236 295.5 L 235 296.5 L 235 309.5 L 236 310.5 L 236 334.5 L 237.5 336 L 246.5 336 L 247.5 337 L 280.5 337 L 281.5 338 L 314.5 338 L 315.5 339 L 348.5 339 L 349.5 340 L 383.5 340 L 384.5 341 L 400 341 L 399.5 343 L 386.5 343 L 385.5 342 L 317.5 341 L 316.5 340 L 285.5 340 L 284.5 339 L 282.5 340 L 281.5 339 L 250.5 339 L 249.5 338 L 236.5 338 L 234 337 L 234 307.5 L 233 303.5 L 233 301.5 Q 232 292.5 235 287.5 L 235 252 L 239.5 251 L 274.5 250 L 275.5 249 L 333.5 248 L 342.5 246 L 362.5 246 L 363.5 245 L 385.5 244 L 396.5 242 Z "></path><path fill="rgb(14,129,107)" stroke="rgb(14,129,107)" stroke-width="1" opacity="0.996078431372549" d="M 0.5 250 L 1.5 251 L 18.5 252 L 19.5 253 L 56.5 254 L 67.5 256 L 169 256 L 169 288.5 L 171 295.5 L 171 329.5 L 164.5 333 L 155.5 333 L 154.5 334 L 143.5 334 L 142.5 335 L 131.5 335 L 130.5 336 L 119.5 336 L 118.5 337 L 107.5 337 L 106.5 338 L 94.5 338 L 93.5 339 L 70.5 340 L 69.5 341 L 57.5 341 L 56.5 342 L 43.5 342 L 42.5 343 L 0.5 344 L 0.5 343 L 46.5 341 L 47.5 340 L 58.5 340 L 59.5 339 L 71.5 339 L 72.5 338 L 83.5 338 L 84.5 337 L 143.5 333 L 144.5 332 L 155.5 332 L 156.5 331 L 164.5 331 L 169 329 L 169 299.5 L 168 295 L 165.5 294 L 164.5 295 L 154 295 Q 155.1 297.7 152.5 297 L 140.5 306 L 116.5 313 L 102.5 314 L 93.5 317 L 84.5 317 L 83.5 318 L 44.5 318 L 43.5 317 L 12.5 317 L 0 314 L 0.5 250 Z "></path><path fill="rgb(14,129,107)" stroke="rgb(14,129,107)" stroke-width="1" opacity="0.996078431372549" d="M 224.5 252 L 227 252.5 L 227 282.5 L 229 287.5 L 229 302.5 L 230 303.5 L 230 335 L 226 332.5 L 228 332.5 L 228 299.5 L 226 290 Q 221.9 288.3 223 292.5 L 220.5 297 L 218.5 296 L 211.5 298 L 208.5 297 L 204.5 299 Q 203.2 296.7 198.5 298 L 188.5 300 L 186.5 300 L 183.5 299 L 179 300 L 177 291.5 L 177 256 L 181.5 255 L 214.5 254 L 224.5 252 Z "></path><path fill="rgb(14,129,107)" stroke="rgb(14,129,107)" stroke-width="1" opacity="0.996078431372549" d="M 156.5 337 L 166.5 337 L 168 338.5 L 165 340.5 L 164.5 339 L 155.5 339 L 154.5 340 L 134.5 341 L 130 342.5 L 158 343.5 L 154.5 345 L 93.5 345 L 91 343.5 L 98.5 342 L 107.5 342 L 108.5 341 L 155.5 338 L 156.5 337 Z "></path><path fill="rgb(14,129,107)" stroke="rgb(14,129,107)" stroke-width="1" opacity="0.996078431372549" d="M 162.5 341 L 161.5 343 L 162.5 341 Z "></path><path fill="rgb(14,129,107)" stroke="rgb(14,129,107)" stroke-width="1" opacity="0.996078431372549" d="M 255.5 343 L 354 345.5 L 297.5 346 L 295.5 347 L 286.5 345 L 272.5 345 L 270.5 346 L 269.5 345 L 255.5 344 L 255.5 343 Z "></path><path fill="rgb(14,129,107)" stroke="rgb(14,129,107)" stroke-width="1" opacity="0.996078431372549" d="M 32.5 349 L 134 349.5 L 124.5 352 L 123.5 351 L 44.5 351 L 43.5 352 L 31.5 352 L 30.5 351 L 15 350.5 L 31.5 350 L 32.5 349 Z "></path><path fill="rgb(19,105,100)" stroke="rgb(19,105,100)" stroke-width="1" opacity="0.996078431372549" d="M 232.5 35 L 279.5 35 L 280.5 36 L 282.5 36 L 336.5 36 L 337.5 37 L 339.5 36 L 340.5 37 L 394.5 37 L 395.5 38 L 397.5 37 L 400 38.5 L 380 39.5 L 400 40 L 399.5 44 L 384.5 44 L 383.5 43 L 324.5 43 L 323.5 42 L 268.5 42 L 266.5 41 L 264.5 41 L 235.5 41 L 231 43.5 L 230 45.5 L 230 75.5 L 230 79.5 L 231 82.5 L 231 95 L 233 95.5 L 233 127.5 L 233 129.5 L 235 287.5 Q 232 292.5 233 301.5 L 233 303.5 L 234 307.5 L 234 337 L 236.5 338 L 249.5 338 L 250.5 339 L 281.5 339 L 283.5 340 L 285.5 340 L 351.5 341 L 352.5 342 L 385.5 342 L 386.5 343 L 400 343 L 400 348.5 L 399.5 349 L 380.5 349 L 378.5 348 L 376.5 349 L 375.5 348 L 345.5 348 L 344.5 347 L 342.5 347 L 310 346.5 L 354 345.5 L 255.5 343 L 255.5 344 L 260 344.5 L 244.5 345 L 241.5 344 L 239.5 345 L 236.5 344 L 229.5 346 L 227 345 L 226 340.5 L 228.5 335 L 230 334.5 L 230 303.5 L 229 302.5 L 229 287.5 L 227 282.5 L 227 211.5 L 226 210.5 L 226 134.5 Q 223.8 133.3 225 128.5 L 225 126.5 L 225 105.5 L 223 101.5 L 225 94.5 L 224 92.5 L 224 90.5 L 224 39.5 L 225 37 L 232.5 35 Z M 226 57 L 225 88 L 226 89 L 226 97 L 227 97 L 226 57 Z "></path><path fill="rgb(19,105,100)" stroke="rgb(19,105,100)" stroke-width="1" opacity="0.996078431372549" d="M 0 40 L 23.5 40 L 24.5 41 L 83.5 41 L 84.5 42 L 139.5 42 L 140.5 43 L 150.5 43 L 150.5 42 L 144 40.5 L 153.5 40 L 155.5 40 L 157.5 41 L 170.5 41 L 173 43.5 L 174 46.5 L 172.5 46 Q 169.9 45.2 171 48.5 L 172 49.5 L 172 58.5 L 174 60.5 L 174 95.5 L 176 98.5 L 176 254.5 L 177 255.5 L 177 291.5 L 179 299.5 L 177 302.5 L 177 331.5 L 178 334.5 L 169.5 349 L 164.5 351 L 132.5 351 L 132.5 350 L 134 349.5 L 32.5 349 L 31.5 350 L 15 350.5 L 31 351.5 L 5.5 352 L 0 353 L 0 344.5 L 0.5 344 L 26.5 344 L 27.5 343 L 56.5 342 L 57.5 341 L 69.5 341 L 70.5 340 L 82.5 340 L 83.5 339 L 93.5 339 L 94.5 338 L 106.5 338 L 107.5 337 L 118.5 337 L 119.5 336 L 164.5 333 L 171 329.5 L 171 295.5 L 169 288.5 L 169 138.5 L 168 136.5 L 168 132.5 Q 166.8 127.7 169 126.5 L 168 125.5 L 168 93 L 170 92.5 L 170 68.5 Q 165.5 67 167 59.5 Q 169.8 57.8 168 51.5 L 167 48 L 164.5 47 L 139.5 47 L 138.5 46 L 136.5 46 L 80.5 46 L 79.5 45 L 23.5 45 L 21.5 44 L 19.5 44 L 0.5 44 L 0 40 Z M 157 337 L 156 338 L 109 341 L 108 342 L 99 342 L 91 344 L 94 345 L 155 345 L 162 343 L 168 339 L 167 337 L 157 337 Z "></path><path fill="rgb(76,83,147)" stroke="rgb(76,83,147)" stroke-width="1" opacity="1" d="M 317.5 122 L 319.5 123 L 355.5 125 L 356.5 126 L 366.5 126 L 383.5 129 L 391.5 129 L 400 132.5 L 400 241.5 L 396.5 242 L 395.5 243 L 374.5 244 L 373.5 245 L 363.5 245 L 362.5 246 L 342.5 246 L 333.5 248 L 275.5 249 L 274.5 250 L 239.5 251 L 235 252 L 234 245.5 L 233 129.5 L 234.5 128 L 312.5 128 L 314 126.5 L 317.5 122 Z "></path><path fill="rgb(76,83,147)" stroke="rgb(76,83,147)" stroke-width="1" opacity="1" d="M 47.5 127 L 167.5 127 Q 168.6 127.1 168 132.5 L 168 136.5 L 169 138.5 L 169 256 L 67.5 256 L 56.5 254 L 33.5 254 L 32.5 253 L 8.5 252 Q 7 249.5 1.5 251 L 0 249.5 L 0 134.5 Q 0.1 133.4 5.5 134 L 26.5 130 L 40.5 129 L 47.5 127 Z "></path><path fill="rgb(76,83,147)" stroke="rgb(76,83,147)" stroke-width="1" opacity="1" d="M 176 127 L 217.5 127 L 218.5 128 L 225 128 L 226 134.5 L 226 210.5 L 227 211.5 L 227 252 L 214.5 254 L 198.5 254 L 197.5 255 Q 185.4 253.4 177.5 256 L 176 254.5 L 176 127 Z "></path><path fill="rgb(32,225,152)" stroke="rgb(32,225,152)" stroke-width="1" opacity="0.996078431372549" d="M 1.5 48 L 29.5 48 L 30.5 49 L 32.5 49 L 36 49.5 L 30.5 50 L 26.5 50 L 24.5 49 L 1.5 49 L 1.5 48 Z "></path><path fill="rgb(32,225,152)" stroke="rgb(32,225,152)" stroke-width="1" opacity="0.996078431372549" d="M 39.5 49 L 44 49.5 L 39.5 50 L 39.5 49 Z "></path><path fill="rgb(32,225,152)" stroke="rgb(32,225,152)" stroke-width="1" opacity="0.996078431372549" d="M 45.5 49 L 48 49.5 L 45.5 50 L 45.5 49 Z "></path><path fill="rgb(32,225,152)" stroke="rgb(32,225,152)" stroke-width="1" opacity="0.996078431372549" d="M 55.5 49 L 86.5 49 L 88.5 50 L 92 49 L 91.5 51 L 89.5 51 Q 84.8 52.3 83.5 50 L 55.5 50 L 55.5 49 Z "></path><path fill="rgb(32,225,152)" stroke="rgb(32,225,152)" stroke-width="1" opacity="0.996078431372549" d="M 93.5 50 L 99 50.5 L 93.5 51 L 93.5 50 Z "></path><path fill="rgb(32,225,152)" stroke="rgb(32,225,152)" stroke-width="1" opacity="0.996078431372549" d="M 111.5 50 L 146.5 50 L 147.5 51 L 149.5 51 L 153 51.5 L 147.5 52 L 143.5 52 L 141.5 51 L 111.5 51 L 111.5 50 Z "></path><path fill="rgb(32,225,152)" stroke="rgb(32,225,152)" stroke-width="1" opacity="0.996078431372549" d="M 156.5 51 L 159 51.5 L 156.5 52 L 156.5 51 Z "></path><path fill="rgb(32,225,152)" stroke="rgb(32,225,152)" stroke-width="1" opacity="0.996078431372549" d="M 162.5 51 L 164 51.5 L 164 59.5 L 163 59.5 Q 163.6 52.8 162.5 51 Z "></path><path fill="rgb(32,225,152)" stroke="rgb(32,225,152)" stroke-width="1" opacity="0.996078431372549" d="M 162.5 66 Q 164.8 65.3 164 67.5 L 166 70.5 L 165 70.5 L 163 67.5 L 162.5 66 Z "></path><path fill="rgb(32,225,152)" stroke="rgb(32,225,152)" stroke-width="1" opacity="0.996078431372549" d="M 178.5 80 L 179 86.5 L 178 86.5 L 178.5 80 Z "></path><path fill="rgb(32,225,152)" stroke="rgb(32,225,152)" stroke-width="1" opacity="0.996078431372549" d="M 145.5 83 L 146.5 85 L 145.5 83 Z "></path><path fill="rgb(32,225,152)" stroke="rgb(32,225,152)" stroke-width="1" opacity="0.996078431372549" d="M 178.5 88 L 179.5 98 L 181 97.5 L 180.5 100 L 178 97.5 L 178.5 88 Z "></path><path fill="rgb(32,225,152)" stroke="rgb(32,225,152)" stroke-width="1" opacity="0.996078431372549" d="M 147.5 302 L 150.5 304 L 151.5 303 L 164.5 303 L 165.5 302 L 167 307 L 161.5 305 Q 158.5 308 151.5 307 L 149.5 306 Q 149 309.5 144.5 309 L 142.5 308 L 140.5 309 L 140.5 308 L 142 308 L 142 306 Q 144.7 307.1 144 304.5 L 147.5 302 Z "></path><path fill="rgb(32,225,152)" stroke="rgb(32,225,152)" stroke-width="1" opacity="0.996078431372549" d="M 166.5 308 L 167 315.5 L 166 315.5 L 166.5 308 Z "></path><path fill="rgb(32,225,152)" stroke="rgb(32,225,152)" stroke-width="1" opacity="0.996078431372549" d="M 166.5 317 L 167 324.5 L 166 324.5 L 166.5 317 Z "></path><path fill="rgb(32,225,152)" stroke="rgb(32,225,152)" stroke-width="1" opacity="0.996078431372549" d="M 43.5 318 L 46 318.5 L 43.5 319 L 43.5 318 Z "></path><path fill="rgb(32,225,152)" stroke="rgb(32,225,152)" stroke-width="1" opacity="0.996078431372549" d="M 166.5 326 L 167 328 L 161.5 329 L 161.5 328 Q 165.8 328.8 166.5 326 Z "></path><path fill="rgb(32,225,152)" stroke="rgb(32,225,152)" stroke-width="1" opacity="0.996078431372549" d="M 156.5 328 L 159 328.5 Q 156.9 330.9 151.5 330 L 151.5 329 L 156.5 328 Z "></path><path fill="rgb(32,225,152)" stroke="rgb(32,225,152)" stroke-width="1" opacity="0.996078431372549" d="M 145.5 329 L 147 329.5 Q 144.3 332.3 137.5 331 L 137.5 330 Q 143.8 331.7 145.5 329 Z "></path><path fill="rgb(32,225,152)" stroke="rgb(32,225,152)" stroke-width="1" opacity="0.996078431372549" d="M 133.5 330 L 132.5 332 L 127 331.5 L 133.5 330 Z "></path><path fill="rgb(32,225,152)" stroke="rgb(32,225,152)" stroke-width="1" opacity="0.996078431372549" d="M 120.5 331 L 123 331.5 Q 120.3 334.3 113.5 333 L 113.5 332 Q 119 333.5 120.5 331 Z "></path><path fill="rgb(32,225,152)" stroke="rgb(32,225,152)" stroke-width="1" opacity="0.996078431372549" d="M 109.5 332 L 108.5 334 L 99 333.5 L 108.5 333 L 109.5 332 Z "></path><path fill="rgb(32,225,152)" stroke="rgb(32,225,152)" stroke-width="1" opacity="0.996078431372549" d="M 96.5 333 L 98 333.5 L 96.5 335 L 88.5 335 L 88.5 334 Q 94.8 335.8 96.5 333 Z "></path><path fill="rgb(32,225,152)" stroke="rgb(32,225,152)" stroke-width="1" opacity="0.996078431372549" d="M 85.5 334 L 87 334.5 Q 84.3 337.3 77.5 336 L 77.5 335 Q 83.8 336.7 85.5 334 Z "></path><path fill="rgb(32,225,152)" stroke="rgb(32,225,152)" stroke-width="1" opacity="0.996078431372549" d="M 60.5 336 L 62 336.5 Q 59.3 339.3 52.5 338 L 52.5 337 Q 58.7 338.8 60.5 336 Z "></path><path fill="rgb(32,225,152)" stroke="rgb(32,225,152)" stroke-width="1" opacity="0.996078431372549" d="M 66.5 336 L 73 336.5 L 66.5 337 L 66.5 336 Z "></path><path fill="rgb(32,225,152)" stroke="rgb(32,225,152)" stroke-width="1" opacity="0.996078431372549" d="M 35.5 338 L 37 338.5 Q 34.3 341.3 27.5 340 L 27.5 339 Q 33.7 340.8 35.5 338 Z "></path><path fill="rgb(32,225,152)" stroke="rgb(32,225,152)" stroke-width="1" opacity="0.996078431372549" d="M 41.5 338 L 48 338.5 L 41.5 339 L 41.5 338 Z "></path><path fill="rgb(32,225,152)" stroke="rgb(32,225,152)" stroke-width="1" opacity="0.996078431372549" d="M 1.5 340 L 21 340.5 L 1.5 341 L 1.5 340 Z "></path><path fill="rgb(32,226,153)" stroke="rgb(32,226,153)" stroke-width="1" opacity="1" d="M 1 49 L 24.5 49 L 26.5 50 L 30.5 50 Q 35.3 51.3 36.5 49 L 39.5 50 L 44.5 49 L 47.5 50 L 50.5 49 L 52.5 50 L 54.5 49 L 55.5 50 L 83.5 50 Q 84.8 52.3 89.5 51 L 93.5 51 Q 98.3 52.3 99.5 50 L 101.5 51 Q 102.8 48.8 107.5 50 L 109.5 51 L 111.5 51 L 141.5 51 L 143.5 52 L 147.5 52 Q 152.3 53.3 153.5 51 L 156.5 52 L 161.5 51 L 163 52.5 L 163 60.5 L 163 62.5 L 162 66.5 L 163 69 Q 165.7 67.9 165 70.5 L 166 73.5 L 166 75.5 Q 167.7 81.8 165 83.5 L 166 84.5 L 166 91 L 156.5 89 L 145.5 83 L 135.5 81 L 122.5 81 L 106.5 78 L 96.5 78 L 89.5 76 L 79.5 76 L 65.5 73 L 28.5 73 L 23.5 75 L 2.5 76 L 0.5 77 L 1 75.5 L 1 49 Z "></path><path fill="rgb(32,226,153)" stroke="rgb(32,226,153)" stroke-width="1" opacity="1" d="M 179.5 83 L 181 96.5 L 179 97.5 L 179 88.5 L 178 87.5 L 179.5 83 Z "></path><path fill="rgb(32,226,153)" stroke="rgb(32,226,153)" stroke-width="1" opacity="1" d="M 143.5 305 L 146.5 307 L 149.5 306 L 157.5 307 L 157.5 306 L 156 305.5 L 157.5 305 L 160.5 306 L 163.5 305 L 167 307.5 Q 164.3 309.2 166 315.5 L 166 317.5 Q 164.3 323.8 167 325.5 L 164.5 328 L 159.5 329 L 156.5 328 L 147.5 330 L 145.5 329 L 136.5 331 L 132.5 331 Q 127.7 329.8 126.5 332 L 124.5 332 L 120.5 331 L 110.5 333 L 108.5 333 L 99.5 333 L 98.5 334 L 96.5 333 L 87.5 335 L 85.5 334 L 84.5 335 L 66.5 336 L 65.5 337 L 63.5 336 L 61.5 336 L 51.5 338 L 49.5 337 L 48.5 338 L 37.5 339 L 35.5 338 L 26.5 340 L 24.5 339 L 23.5 340 L 1 340 L 1 316.5 L 0 315.5 L 3.5 315 L 12.5 318 L 83.5 319 L 84.5 318 L 93.5 318 L 101.5 315 L 115.5 314 L 141.5 306 L 142 308 L 146.5 309 L 145.5 307 L 143.5 305 Z "></path><path fill="rgb(19,236,153)" stroke="rgb(19,236,153)" stroke-width="1" opacity="0.996078431372549" d="M 237.5 44 Q 243.7 42.3 245.5 45 L 247.5 45 L 298.5 45 L 299 46.5 L 295.5 46 L 293.5 47 L 290.5 46 L 244.5 46 L 243.5 45 L 240.5 46 Q 235.1 45.4 235 46.5 L 235 90.5 L 234 90.5 L 234 57.5 L 233 55.5 L 233 49.5 Q 232.3 45.8 234.5 45 L 237.5 44 Z "></path><path fill="rgb(19,236,153)" stroke="rgb(19,236,153)" stroke-width="1" opacity="0.996078431372549" d="M 300 45 L 303.5 46 L 305.5 46 L 359.5 46 L 360.5 47 L 364.5 47 L 398.5 47 L 400 48.5 L 398.5 48 L 359.5 48 L 358.5 47 L 354.5 48 L 350.5 47 L 348.5 47 L 300.5 47 L 300 45 Z "></path><path fill="rgb(19,236,153)" stroke="rgb(19,236,153)" stroke-width="1" opacity="0.996078431372549" d="M 399.5 68 L 400 84.5 L 399 84.5 L 399.5 68 Z "></path><path fill="rgb(19,236,153)" stroke="rgb(19,236,153)" stroke-width="1" opacity="0.996078431372549" d="M 308.5 80 L 358 80.5 L 308.5 81 L 308.5 80 Z "></path><path fill="rgb(19,236,153)" stroke="rgb(19,236,153)" stroke-width="1" opacity="0.996078431372549" d="M 300.5 81 L 304 81.5 L 300.5 82 L 300.5 81 Z "></path><path fill="rgb(19,236,153)" stroke="rgb(19,236,153)" stroke-width="1" opacity="0.996078431372549" d="M 366.5 81 L 371 81.5 L 366.5 82 L 366.5 81 Z "></path><path fill="rgb(19,236,153)" stroke="rgb(19,236,153)" stroke-width="1" opacity="0.996078431372549" d="M 376.5 82 L 379 82.5 L 376.5 83 L 376.5 82 Z "></path><path fill="rgb(19,236,153)" stroke="rgb(19,236,153)" stroke-width="1" opacity="0.996078431372549" d="M 223 296 Q 225.7 294.9 225 297.5 L 226 298.5 L 226 324.5 L 227 325.5 L 225 326.5 Q 222.5 323 224 315.5 L 225 314.5 L 225 301.5 L 223 301.5 L 223 296 Z "></path><path fill="rgb(19,236,153)" stroke="rgb(19,236,153)" stroke-width="1" opacity="0.996078431372549" d="M 238.5 296 L 241 297.5 Q 240.3 299.8 242.5 299 L 242.5 300 Q 238 299.5 238 300.5 L 238 332.5 L 239.5 334 L 333.5 336 L 334.5 337 L 336.5 337 L 364.5 337 L 365.5 338 L 367.5 337 L 370.5 338 L 399 338 L 399 311.5 L 400 311.5 L 400 337.5 L 398.5 340 L 397.5 339 L 364.5 339 L 363.5 338 L 332.5 338 L 331.5 337 L 327.5 337 L 296.5 337 L 293.5 336 L 291.5 336 L 238.5 335 L 237 333.5 L 237 297.5 L 238.5 296 Z "></path><path fill="rgb(19,236,153)" stroke="rgb(19,236,153)" stroke-width="1" opacity="0.996078431372549" d="M 255.5 305 L 293 305.5 L 255.5 306 L 255.5 305 Z "></path><path fill="rgb(19,236,153)" stroke="rgb(19,236,153)" stroke-width="1" opacity="0.996078431372549" d="M 349.5 306 L 357 306.5 L 349.5 307 L 349.5 306 Z "></path><path fill="rgb(19,236,153)" stroke="rgb(19,236,153)" stroke-width="1" opacity="0.996078431372549" d="M 368.5 307 L 372 307.5 L 368.5 308 L 368.5 307 Z "></path><path fill="rgb(19,237,154)" stroke="rgb(19,237,154)" stroke-width="1" opacity="1" d="M 241.5 45 L 244.5 46 L 290.5 46 L 291.5 47 L 294.5 46 L 296.5 47 L 300.5 47 L 348.5 47 L 349.5 48 L 353.5 47 L 357.5 48 L 359.5 48 L 398.5 48 L 400 49.5 L 399 84.5 L 399.5 86 L 378.5 82 L 358.5 81 L 357.5 80 L 308.5 80 L 271.5 87 L 261.5 87 L 254.5 89 L 236.5 89 L 235.5 90 L 235 46 L 241.5 45 Z "></path><path fill="rgb(19,237,154)" stroke="rgb(19,237,154)" stroke-width="1" opacity="1" d="M 238 300 L 243.5 300 L 246.5 303 L 255.5 306 L 292.5 306 L 293.5 305 L 340.5 305 L 349.5 307 L 367.5 307 L 368.5 308 L 376.5 308 L 386.5 310 L 400 310.5 L 399 311.5 L 399 338 L 370.5 338 L 369.5 337 L 367.5 337 L 365.5 338 L 364.5 337 L 336.5 337 L 335.5 336 L 333.5 336 L 264.5 335 L 263.5 334 L 239.5 334 L 238 332.5 L 238 300 Z "></path><path fill="rgb(19,237,154)" stroke="rgb(19,237,154)" stroke-width="1" opacity="1" d="M 224.5 301 L 225 314.5 L 224 314.5 L 223 302.5 L 224.5 301 Z "></path></svg>