<svg width="400" height="400" version="1.1" xmlns="http://www.w3.org/2000/svg" desc="Created with imagetracer.js version 1.2.5"><path fill="rgb(32,39,170)" stroke="rgb(32,39,170)" stroke-width="1" opacity="1" d="M 366.5 0 L 400 0 L 400 19 L 394.5 15 L 390 15 L 388.5 12 Q 386.3 12.8 387 10.5 L 380.5 8 L 377.5 5 L 374.5 5 L 371.5 2 L 367.5 2 L 366.5 0 Z "></path><path fill="rgb(32,39,170)" stroke="rgb(32,39,170)" stroke-width="1" opacity="1" d="M 290.5 16 L 295 21.5 L 292 23 Q 293.3 26 289.5 25 Q 285.3 23.7 286 19 L 290.5 16 Z "></path><path fill="rgb(32,39,170)" stroke="rgb(32,39,170)" stroke-width="1" opacity="1" d="M 196.5 18 L 202 24.5 L 202 27.5 L 205 30.5 L 206 35.5 L 204 34.5 Q 205 30 202.5 29 Q 199.1 29.9 201 24.5 Q 196.5 22 196.5 18 Z "></path><path fill="rgb(32,39,170)" stroke="rgb(32,39,170)" stroke-width="1" opacity="1" d="M 47.5 35 L 49 35.5 L 47 36 L 46.5 47 L 46 36.5 L 47.5 35 Z "></path><path fill="rgb(32,39,170)" stroke="rgb(32,39,170)" stroke-width="1" opacity="1" d="M 208.5 41 Q 213 42 212 48.5 L 211 48.5 L 211 44.5 L 208.5 41 Z "></path><path fill="rgb(32,39,170)" stroke="rgb(32,39,170)" stroke-width="1" opacity="1" d="M 213.5 49 L 216.5 56 Q 218.8 55.3 218 57.5 L 214 54.5 L 213.5 49 Z "></path><path fill="rgb(32,39,170)" stroke="rgb(32,39,170)" stroke-width="1" opacity="1" d="M 46.5 50 L 50 54.5 L 46 51.5 L 46.5 50 Z "></path><path fill="rgb(32,39,170)" stroke="rgb(32,39,170)" stroke-width="1" opacity="1" d="M 49.5 57 L 50 94.5 L 53 97.5 L 49 94.5 L 49.5 57 Z "></path><path fill="rgb(32,39,170)" stroke="rgb(32,39,170)" stroke-width="1" opacity="1" d="M 218.5 61 Q 223.2 62.6 222 69 L 225 70.5 Q 224 75 226.5 76 Q 228.8 75.3 228 77.5 L 224 74.5 Q 225.9 69.1 222.5 70 Q 220 69 221 64.5 L 218.5 61 Z "></path><path fill="rgb(32,39,170)" stroke="rgb(32,39,170)" stroke-width="1" opacity="1" d="M 228.5 81 Q 233.2 82.6 232 89 L 235 90.5 L 234.5 92 L 234 90 L 231 88.5 Q 232 84 229.5 83 Q 226.7 83.7 228.5 81 Z "></path><path fill="rgb(32,39,170)" stroke="rgb(32,39,170)" stroke-width="1" opacity="1" d="M 142.5 85 L 148 89.5 L 148 92.5 L 143.5 97 L 140 95.5 Q 140.8 93.3 138.5 94 Q 136 92.8 137 89 L 142.5 85 Z "></path><path fill="rgb(32,39,170)" stroke="rgb(32,39,170)" stroke-width="1" opacity="1" d="M 234.5 94 L 236 98.5 L 234 97.5 L 234.5 94 Z "></path><path fill="rgb(32,39,170)" stroke="rgb(32,39,170)" stroke-width="1" opacity="1" d="M 53.5 142 L 54.5 144 L 53.5 142 Z "></path><path fill="rgb(32,39,170)" stroke="rgb(32,39,170)" stroke-width="1" opacity="1" d="M 385.5 143 L 386.5 145 L 385.5 143 Z "></path><path fill="rgb(32,39,170)" stroke="rgb(32,39,170)" stroke-width="1" opacity="1" d="M 56.5 145 L 57 162.5 L 56 165.5 L 63.5 176 L 86 176.5 L 63 177 Q 64.1 179.7 61.5 179 L 59 184.5 L 60 187.5 L 56 191.5 L 56 198.5 L 53 201.5 Q 54.8 208.3 51.5 210 Q 49.3 209.3 50 211.5 L 49 215.5 L 50 217.5 L 46 221.5 Q 47 226 44.5 227 L 43 227.5 L 43 234.5 Q 38 235.5 39 242.5 L 39 244.5 L 36 248.5 Q 37.8 255.3 34.5 257 L 33 257.5 L 33 265.5 L 30 267 Q 28.3 269.4 29 275.5 L 26 278.5 Q 27 283 24.5 284 Q 21.9 283.2 23 286.5 L 22 288.5 L 23 291.5 L 22 294 Q 19.3 292.9 20 295.5 L 16.5 298 Q 14.8 295.3 8.5 297 Q 6.9 302.3 0 301 L 0 163 L 51.5 163 L 54.5 164 L 56 162.5 L 56.5 145 Z "></path><path fill="rgb(32,39,170)" stroke="rgb(32,39,170)" stroke-width="1" opacity="1" d="M 388.5 146 L 391 146.5 L 388.5 147 L 388.5 146 Z "></path><path fill="rgb(32,39,170)" stroke="rgb(32,39,170)" stroke-width="1" opacity="1" d="M 396.5 148 L 399 149.5 L 397.5 150 L 396.5 148 Z "></path><path fill="rgb(32,39,170)" stroke="rgb(32,39,170)" stroke-width="1" opacity="1" d="M 87.5 178 L 88.5 179 L 105.5 179 L 109 182.5 L 105.5 180 L 88.5 180 L 87.5 178 Z "></path><path fill="rgb(32,39,170)" stroke="rgb(32,39,170)" stroke-width="1" opacity="1" d="M 126.5 183 L 129.5 186 L 146.5 186 L 148 187.5 L 146.5 187 L 129.5 187 L 126.5 183 Z "></path><path fill="rgb(32,39,170)" stroke="rgb(32,39,170)" stroke-width="1" opacity="1" d="M 252.5 187 Q 257.5 186.5 258 190.5 L 258 192.5 L 253.5 197 L 249 192.5 L 249 190.5 L 252.5 187 Z "></path><path fill="rgb(32,39,170)" stroke="rgb(32,39,170)" stroke-width="1" opacity="1" d="M 112.5 275 Q 116.8 276.3 116 281 L 111 283 Q 112 280 109 281 L 109 278.5 L 112.5 275 Z "></path><path fill="rgb(32,39,170)" stroke="rgb(32,39,170)" stroke-width="1" opacity="1" d="M 253.5 341 L 256 341.5 L 253.5 342 L 253.5 341 Z "></path><path fill="rgb(32,39,170)" stroke="rgb(32,39,170)" stroke-width="1" opacity="1" d="M 257.5 342 L 259.5 345 L 257.5 342 Z "></path><path fill="rgb(32,39,170)" stroke="rgb(32,39,170)" stroke-width="1" opacity="1" d="M 267.5 345 L 269 346.5 L 269 385.5 L 268 385.5 L 268 346.5 L 267.5 345 Z "></path><path fill="rgb(32,39,170)" stroke="rgb(32,39,170)" stroke-width="1" opacity="1" d="M 7.5 382 Q 12.5 381.5 13 385.5 Q 13.5 390.5 9.5 391 Q 4.5 391.5 4 387.5 Q 3.5 382.5 7.5 382 Z "></path><path fill="rgb(32,39,170)" stroke="rgb(32,39,170)" stroke-width="1" opacity="1" d="M 267.5 387 L 265.5 390 L 267.5 387 Z "></path><path fill="rgb(0,78,254)" stroke="rgb(0,78,254)" stroke-width="1" opacity="1" d="M 196.5 19 L 201 24.5 L 201 29 L 204 30.5 Q 203 35 205.5 36 Q 207.8 35.3 207 37.5 L 208 41.5 L 211 44.5 L 211 49 L 214 50.5 L 214 54.5 L 218 58.5 L 218 61.5 L 221 64.5 Q 220 69 222.5 70 Q 225.9 69.1 224 74.5 Q 229.3 76.1 228 83 L 231 84.5 Q 230 89 232.5 90 Q 234.8 89.3 234 91.5 L 235 93.5 L 234 97.5 L 237 99.5 L 233.5 100 L 213 119.5 Q 214.3 125.6 211.5 125 L 210 128 L 207 129.5 Q 207.8 131.8 205.5 131 L 203 135 L 200 136.5 Q 200.8 138.8 198.5 138 L 197 141 L 193 143.5 Q 193.8 145.8 191.5 145 L 190 148 L 186 150.5 Q 186.8 152.8 184.5 152 L 183 155 L 179 156 L 180 160.5 L 153 187.5 L 153 190 L 148 189 L 146.5 186 L 129.5 186 L 126.5 183 L 109.5 183 L 105.5 179 L 88.5 179 L 85.5 176 L 63.5 176 L 60 172.5 L 60 169.5 L 56 165.5 L 56 163.5 L 57 162.5 L 57 145.5 L 53 141.5 L 53 97.5 L 50 94.5 L 50 54.5 Q 46.4 52.6 46 47.5 L 47 46.5 L 47 36 Q 50 35 49 38 L 53.5 38 L 56 33.5 L 55.5 32 L 83 32.5 L 58 33.5 L 59.5 35 L 85.5 35 L 89 32.5 L 90.5 30 L 92.5 31 L 122 31 L 123.5 27 L 126.5 28 L 152 28 Q 151.3 24.6 154 23.5 L 153.5 22 L 183 22.5 L 156 23.5 L 186 24 L 187.5 20 L 196 21 L 196.5 19 Z M 188 25 L 186 27 L 186 28 L 154 28 L 153 31 L 123 31 L 122 35 L 90 35 L 89 38 L 56 38 L 55 41 L 52 42 L 52 91 L 53 91 L 53 53 L 55 52 L 56 54 L 56 96 L 58 95 L 59 97 L 59 143 L 61 142 L 62 144 L 62 167 L 63 167 Q 62 164 65 165 L 66 168 L 67 171 L 89 171 L 89 174 L 108 174 L 109 176 L 110 178 L 129 178 L 130 181 L 149 181 L 149 184 L 152 184 L 154 181 L 156 181 L 156 178 L 159 178 Q 158 174 161 175 L 164 171 Q 168 172 166 168 L 169 168 L 169 166 L 172 164 L 174 161 L 176 161 L 176 155 L 179 155 L 179 151 Q 183 152 182 150 L 186 148 L 188 144 Q 191 145 189 141 L 192 141 L 193 138 L 196 137 Q 195 132 199 134 L 199 131 L 202 131 L 205 127 Q 208 128 206 124 L 209 124 L 209 118 L 213 117 Q 212 112 216 114 L 216 111 L 219 111 L 220 109 Q 219 105 223 107 L 223 104 L 226 104 L 226 101 L 229 101 L 230 99 Q 229 95 233 97 L 233 95 L 232 95 L 230 95 L 230 88 L 229 88 Q 230 90 227 89 L 226 85 Q 227 82 224 83 L 223 75 L 222 75 Q 223 77 220 76 L 220 67 L 219 69 Q 215 70 217 65 L 214 63 L 213 54 L 212 56 Q 208 57 210 51 L 207 49 L 206 44 Q 207 41 204 42 L 203 34 L 202 34 Q 203 37 200 36 L 199 31 Q 200 28 197 29 L 197 25 L 188 25 Z "></path><path fill="rgb(0,78,254)" stroke="rgb(0,78,254)" stroke-width="1" opacity="1" d="M 88.5 29 L 87.5 31 L 88.5 29 Z "></path><path fill="rgb(0,78,254)" stroke="rgb(0,78,254)" stroke-width="1" opacity="1" d="M 53.5 34 L 52.5 36 L 53.5 34 Z "></path><path fill="rgb(0,78,254)" stroke="rgb(0,78,254)" stroke-width="1" opacity="1" d="M 140 84 Q 144.6 82.8 146 85.5 Q 145.2 88.1 148.5 87 Q 151.8 88.9 150 95 L 146 95 L 146 96.5 Q 144.6 99.3 140 98 L 138.5 95 L 136 95 L 136 87 L 140 85.5 L 140 84 Z M 143 85 L 137 89 Q 136 93 139 94 Q 141 93 140 96 L 144 97 L 148 93 L 148 90 L 143 85 Z "></path><path fill="rgb(0,78,254)" stroke="rgb(0,78,254)" stroke-width="1" opacity="1" d="M 384.5 116 L 383.5 118 L 384.5 116 Z "></path><path fill="rgb(207,50,200)" stroke="rgb(207,50,200)" stroke-width="1" opacity="1" d="M 0 0 L 16.5 0 L 34 17.5 L 34 20.5 L 48 34.5 L 46 36.5 L 46 51.5 L 50 56.5 L 49 57.5 L 49 94.5 L 53 98.5 L 53 142.5 L 54.5 144 L 56 144.5 L 56 162.5 L 52.5 164 L 51.5 163 L 0 163 L 0 0 Z "></path><path fill="rgb(207,50,200)" stroke="rgb(207,50,200)" stroke-width="1" opacity="1" d="M 375.5 5 L 378 5.5 L 375.5 6 L 375.5 5 Z "></path><path fill="rgb(207,50,200)" stroke="rgb(207,50,200)" stroke-width="1" opacity="1" d="M 385.5 9 L 386.5 11 L 385.5 9 Z "></path><path fill="rgb(207,50,200)" stroke="rgb(207,50,200)" stroke-width="1" opacity="1" d="M 388.5 12 L 389.5 14 L 388.5 12 Z "></path><path fill="rgb(207,50,200)" stroke="rgb(207,50,200)" stroke-width="1" opacity="1" d="M 391.5 15 L 395 15.5 L 391.5 16 L 391.5 15 Z "></path><path fill="rgb(207,50,200)" stroke="rgb(207,50,200)" stroke-width="1" opacity="1" d="M 396.5 17 L 397.5 19 L 396.5 17 Z "></path><path fill="rgb(207,50,200)" stroke="rgb(207,50,200)" stroke-width="1" opacity="1" d="M 197.5 18 L 199 21 L 202 22.5 L 201.5 24 Q 197.4 21.7 197.5 18 Z "></path><path fill="rgb(207,50,200)" stroke="rgb(207,50,200)" stroke-width="1" opacity="1" d="M 202.5 26 L 206 30.5 L 206 33.5 L 209 36.5 Q 208 41 210.5 42 Q 212.8 41.3 212 43.5 L 208 40.5 Q 209.9 35.1 206.5 36 Q 204 35 205 30.5 L 202 27.5 L 202.5 26 Z "></path><path fill="rgb(207,50,200)" stroke="rgb(207,50,200)" stroke-width="1" opacity="1" d="M 212.5 46 L 216 50.5 L 216 53.5 L 219 56.5 Q 218 61 220.5 62 Q 222.8 61.3 222 63.5 L 223 67.5 L 226 70.5 L 226 75 L 229 76.5 Q 228 81 230.5 82 Q 232.8 81.3 232 83.5 L 233 87.5 L 236 90.5 Q 234.3 97.3 237.5 99 L 247.5 99 L 250.5 102 L 263.5 102 L 267 105.5 L 263.5 103 L 249.5 103 L 248 101.5 L 247.5 100 L 237.5 100 L 235 97.5 Q 236.7 90.8 233.5 89 Q 230.1 89.9 232 84.5 Q 226.8 82.8 228 76 L 225 74.5 Q 226 70 223.5 69 Q 220.1 69.9 222 64.5 Q 216.8 62.9 218 56 L 215 54.5 Q 216 50 213.5 49 Q 210.4 49.7 212.5 46 Z "></path><path fill="rgb(207,50,200)" stroke="rgb(207,50,200)" stroke-width="1" opacity="1" d="M 399.5 80 L 400 83.5 L 399 86 Q 396.3 84.9 397 87.5 L 396 87.5 Q 399.4 85.4 399.5 80 Z "></path><path fill="rgb(207,50,200)" stroke="rgb(207,50,200)" stroke-width="1" opacity="1" d="M 395.5 90 L 396 91.5 L 393 94.5 Q 394.8 101.3 391.5 103 Q 388.5 102.1 390 106.5 L 389 106.5 Q 388.3 102.8 390.5 102 L 392 101.5 L 392 93.5 L 395 92 L 395.5 90 Z "></path><path fill="rgb(207,50,200)" stroke="rgb(207,50,200)" stroke-width="1" opacity="1" d="M 271.5 105 Q 279.3 103.7 280.5 109 L 294.5 109 L 297.5 112 L 310.5 112 L 314 115.5 L 310.5 113 L 296.5 113 L 295 111.5 L 294.5 110 L 280.5 110 L 276.5 106 Q 270.5 107.3 271.5 105 Z "></path><path fill="rgb(207,50,200)" stroke="rgb(207,50,200)" stroke-width="1" opacity="1" d="M 388.5 108 L 386 111.5 Q 387.9 116.9 384.5 116 Q 382 117 383 121.5 L 379.5 125 L 379 123.5 L 382 122 L 382 117.5 L 385 114.5 L 386 109 L 388.5 108 Z "></path><path fill="rgb(207,50,200)" stroke="rgb(207,50,200)" stroke-width="1" opacity="1" d="M 324.5 116 L 327.5 119 L 341.5 119 L 343 120.5 L 343.5 122 L 357.5 122 Q 359.3 127.2 367 126.5 L 361.5 127 L 357.5 123 L 343.5 123 L 342 121.5 L 341.5 120 L 327.5 120 L 324.5 116 Z "></path><path fill="rgb(207,50,200)" stroke="rgb(207,50,200)" stroke-width="1" opacity="1" d="M 370.5 126 L 374.5 129 L 377.5 129 L 379 128.5 Q 378.3 130.8 374.5 130 L 370.5 126 Z "></path><path fill="rgb(207,50,200)" stroke="rgb(207,50,200)" stroke-width="1" opacity="1" d="M 386.5 145 L 387.5 147 L 386.5 145 Z "></path><path fill="rgb(207,50,200)" stroke="rgb(207,50,200)" stroke-width="1" opacity="1" d="M 391.5 146 L 394 146.5 L 391.5 147 L 391.5 146 Z "></path><path fill="rgb(207,50,200)" stroke="rgb(207,50,200)" stroke-width="1" opacity="1" d="M 382.5 148 L 380 151.5 L 379.5 162 L 379 151.5 L 382.5 148 Z "></path><path fill="rgb(207,50,200)" stroke="rgb(207,50,200)" stroke-width="1" opacity="1" d="M 377.5 163 L 376.5 165 L 377.5 163 Z "></path><path fill="rgb(207,50,200)" stroke="rgb(207,50,200)" stroke-width="1" opacity="1" d="M 375.5 175 L 373.5 178 L 375.5 175 Z "></path><path fill="rgb(207,50,200)" stroke="rgb(207,50,200)" stroke-width="1" opacity="1" d="M 372.5 179 L 373 181.5 L 372 181.5 L 372.5 179 Z "></path><path fill="rgb(207,50,200)" stroke="rgb(207,50,200)" stroke-width="1" opacity="1" d="M 372.5 185 L 369.5 189 L 372.5 185 Z "></path><path fill="rgb(207,50,200)" stroke="rgb(207,50,200)" stroke-width="1" opacity="1" d="M 369.5 192 L 370 197.5 L 369 197.5 L 369.5 192 Z "></path><path fill="rgb(207,50,200)" stroke="rgb(207,50,200)" stroke-width="1" opacity="1" d="M 368.5 199 L 366.5 202 L 368.5 199 Z "></path><path fill="rgb(207,50,200)" stroke="rgb(207,50,200)" stroke-width="1" opacity="1" d="M 365.5 212 L 363.5 215 L 365.5 212 Z "></path><path fill="rgb(207,50,200)" stroke="rgb(207,50,200)" stroke-width="1" opacity="1" d="M 362.5 216 L 363 221.5 L 362 221.5 L 362.5 216 Z "></path><path fill="rgb(207,50,200)" stroke="rgb(207,50,200)" stroke-width="1" opacity="1" d="M 362.5 225 L 359.5 229 L 362.5 225 Z "></path><path fill="rgb(207,50,200)" stroke="rgb(207,50,200)" stroke-width="1" opacity="1" d="M 359.5 233 L 360 238.5 L 359 238.5 L 359.5 233 Z "></path><path fill="rgb(207,50,200)" stroke="rgb(207,50,200)" stroke-width="1" opacity="1" d="M 357.5 240 L 356.5 242 L 357.5 240 Z "></path><path fill="rgb(207,50,200)" stroke="rgb(207,50,200)" stroke-width="1" opacity="1" d="M 352.5 256 L 353 259.5 L 352 259.5 L 352.5 256 Z "></path><path fill="rgb(207,50,200)" stroke="rgb(207,50,200)" stroke-width="1" opacity="1" d="M 352.5 261 L 353 262.5 L 349 265.5 L 352.5 261 Z "></path><path fill="rgb(207,50,200)" stroke="rgb(207,50,200)" stroke-width="1" opacity="1" d="M 348.5 276 L 346.5 279 L 348.5 276 Z "></path><path fill="rgb(207,50,200)" stroke="rgb(207,50,200)" stroke-width="1" opacity="1" d="M 345.5 289 L 343 292.5 L 342.5 303 L 342 292.5 L 345.5 289 Z "></path><path fill="rgb(207,50,200)" stroke="rgb(207,50,200)" stroke-width="1" opacity="1" d="M 20 294 Q 22.7 292.9 22 295.5 L 23 298 L 26 299.5 L 27.5 302 L 30 303.5 Q 29.3 305.8 31.5 305 L 33 308 L 37 310.5 Q 36.3 312.8 38.5 312 L 40 315 L 43 316.5 Q 42.3 318.8 44.5 318 L 47 322 L 50 323.5 Q 49.3 325.8 51.5 325 L 53 328 L 57 330.5 Q 56.3 332.8 58.5 332 L 60 335 L 63 336.5 Q 62.3 338.8 64.5 338 L 67 342 L 70 343.5 Q 69.3 345.8 71.5 345 L 73 348 L 77 350.5 Q 76.3 352.8 78.5 352 L 80 355 L 83 356.5 L 84.5 359 L 87 360.5 Q 86.3 362.8 88.5 362 L 90 365 L 94 367.5 Q 93.3 369.8 95.5 369 L 97 372 L 100 373.5 Q 99.3 375.8 101.5 375 L 104 379 L 107 380.5 Q 106.3 382.8 108.5 382 L 109.5 383 L 120.5 383 L 122 380 L 124.5 379 L 129.5 380 L 133.5 376 Q 141.8 377.7 143.5 373 L 153.5 373 L 158.5 369 L 163.5 370 L 166 366 L 174.5 366 L 175 364.5 Q 176.8 361.3 183.5 363 L 187.5 359 L 189.5 359 L 193.5 360 L 196 356 L 204.5 356 L 206 354.5 L 206.5 353 L 214.5 353 L 217.5 349 L 222.5 350 L 227.5 346 Q 234.3 347.8 236 344.5 L 236.5 343 L 248.5 343 Q 250.3 340.3 256.5 342 L 262.5 346 L 266.5 345 L 268 346.5 L 268 386.5 L 265 389.5 L 265 400 L 0 400 L 0 301 Q 6.8 302.2 8.5 297 L 15.5 297 L 17.5 297 L 20 295.5 L 20 294 Z M 255 343 L 250 345 L 254 346 L 257 345 L 255 343 Z M 264 347 L 261 348 L 261 349 L 267 349 L 264 347 Z M 8 381 L 6 384 L 3 386 L 3 388 L 8 392 L 11 391 Q 10 388 13 389 L 14 387 L 8 381 Z "></path><path fill="rgb(207,50,200)" stroke="rgb(207,50,200)" stroke-width="1" opacity="1" d="M 340.5 304 L 339.5 306 L 340.5 304 Z "></path><path fill="rgb(254,35,128)" stroke="rgb(254,35,128)" stroke-width="1" opacity="1" d="M 17.5 0 L 32.5 15 L 34 15 L 35 20.5 L 48 33.5 L 34 20.5 L 34 17.5 L 17.5 0 Z "></path><path fill="rgb(254,35,128)" stroke="rgb(254,35,128)" stroke-width="1" opacity="1" d="M 203 0 L 365.5 0 L 367.5 2 L 373 3 Q 371.9 5.7 374.5 5 L 378.5 6 L 381.5 9 L 384.5 9 L 391.5 16 L 396 16 L 397.5 19 L 400 19.5 L 400 79.5 L 399 83.5 L 396 86.5 L 395 92 L 392 93.5 L 392 101.5 L 390.5 102 L 387.5 109 Q 385.3 108.3 386 110.5 L 385 114.5 L 382 117.5 L 382 122 L 379 123.5 Q 380 128 377.5 129 Q 372.2 129.7 371.5 126 L 361.5 126 L 357.5 122 L 343 122 L 341.5 119 L 327.5 119 L 324.5 116 L 314.5 116 L 310.5 112 L 297.5 112 L 294.5 109 L 280.5 109 Q 279.3 103.8 271.5 105 L 267.5 106 L 263.5 102 L 250.5 102 L 247.5 99 L 237.5 99 L 236 97.5 L 236 90.5 L 233 87.5 L 232 82 L 229 80.5 Q 230 76 227.5 75 Q 224.1 75.9 226 70.5 L 223 67.5 L 222 62 L 219 60.5 L 219 56.5 L 212 45.5 L 212 42 L 209 40.5 L 209 36.5 L 206 33.5 L 206 30.5 L 203 27.5 L 200.5 21 Q 198.3 21.8 199 19.5 Q 196.3 18.4 197 15 L 200 13.5 Q 199 9 201.5 8 L 204 6.5 L 203 0 Z M 291 16 L 286 19 Q 285 24 290 25 Q 293 26 292 23 L 295 22 L 291 16 Z "></path><path fill="rgb(254,35,128)" stroke="rgb(254,35,128)" stroke-width="1" opacity="1" d="M 383 144 Q 386.7 142.5 386 145.5 Q 387.8 148.8 394.5 147 Q 395.7 150.8 400 150 L 399.5 360 L 391.5 355 Q 387 356 386 353.5 Q 386.8 351.3 384.5 352 L 383 349 L 377.5 348 L 374.5 345 L 371.5 345 L 368.5 342 L 363.5 341 L 354.5 335 L 349 334 L 347.5 331 L 343.5 331 L 336 323.5 Q 335 317.5 339 316.5 L 339 306.5 L 343 302.5 L 343 292.5 L 346 289.5 L 346 279.5 L 350 273.5 Q 347.5 272 349 266.5 L 353 262.5 Q 351.3 254.3 356 252.5 L 356 242.5 Q 361.3 241.3 360 233.5 L 359 229.5 L 363 225.5 L 363 215.5 L 366 212.5 L 366 202.5 Q 371.1 200.6 370 192.5 L 369 189.5 L 373 185.5 Q 371.2 177.2 376 175.5 L 376 165.5 L 380 161.5 L 380 151.5 Q 384.3 149.9 383 144 Z "></path><path fill="rgb(254,35,128)" stroke="rgb(254,35,128)" stroke-width="1" opacity="1" d="M 236.5 342 L 249 342.5 L 236 343 L 234.5 346 Q 226.3 344.2 224.5 349 L 227.5 345 L 234.5 345 L 235 343.5 L 236.5 342 Z "></path><path fill="rgb(254,35,128)" stroke="rgb(254,35,128)" stroke-width="1" opacity="1" d="M 254.5 343 L 257 344.5 L 253.5 346 L 250 344.5 L 254.5 343 Z "></path><path fill="rgb(254,35,128)" stroke="rgb(254,35,128)" stroke-width="1" opacity="1" d="M 263.5 347 L 267 348.5 L 260.5 349 L 260.5 348 L 263.5 347 Z "></path><path fill="rgb(254,35,128)" stroke="rgb(254,35,128)" stroke-width="1" opacity="1" d="M 216.5 349 L 216 350.5 L 214.5 353 L 206.5 353 L 206 354.5 Q 204.3 357.8 197.5 356 L 197.5 355 L 204.5 355 L 205 353.5 Q 206.8 350.3 213.5 352 L 216.5 349 Z "></path><path fill="rgb(254,35,128)" stroke="rgb(254,35,128)" stroke-width="1" opacity="1" d="M 220.5 349 L 223 349.5 L 220.5 350 L 220.5 349 Z "></path><path fill="rgb(254,35,128)" stroke="rgb(254,35,128)" stroke-width="1" opacity="1" d="M 195.5 356 L 196 357.5 Q 195.3 360.8 190.5 360 L 190.5 359 Q 194.3 359.8 195 357.5 L 195.5 356 Z "></path><path fill="rgb(254,35,128)" stroke="rgb(254,35,128)" stroke-width="1" opacity="1" d="M 186.5 359 L 183.5 363 Q 176.8 361.2 175 364.5 Q 175.8 366.8 173.5 366 L 176.5 362 Q 184.8 363.8 186.5 359 Z "></path><path fill="rgb(254,35,128)" stroke="rgb(254,35,128)" stroke-width="1" opacity="1" d="M 167.5 365 L 170 365.5 L 167.5 366 L 167.5 365 Z "></path><path fill="rgb(254,35,128)" stroke="rgb(254,35,128)" stroke-width="1" opacity="1" d="M 165.5 366 L 166 367.5 Q 165 371 159.5 370 L 159.5 369 Q 164 370 165 367.5 L 165.5 366 Z "></path><path fill="rgb(254,35,128)" stroke="rgb(254,35,128)" stroke-width="1" opacity="1" d="M 156.5 369 L 153.5 373 Q 142.9 370.9 139.5 376 L 139.5 375 Q 142.9 369.9 153.5 372 L 156.5 369 Z "></path><path fill="rgb(254,35,128)" stroke="rgb(254,35,128)" stroke-width="1" opacity="1" d="M 133.5 375 L 136 375.5 Q 130.9 375.9 129.5 380 L 125.5 380 L 125.5 379 Q 132.5 380 133.5 375 Z "></path><path fill="rgb(254,35,128)" stroke="rgb(254,35,128)" stroke-width="1" opacity="1" d="M 122.5 379 L 124 379.5 L 122 380 L 120.5 383 L 111 382.5 L 121 382 L 122.5 379 Z "></path><path fill="rgb(254,35,128)" stroke="rgb(254,35,128)" stroke-width="1" opacity="1" d="M 7.5 381 L 9 381.5 L 6.5 383 L 7.5 381 Z "></path><path fill="rgb(254,35,128)" stroke="rgb(254,35,128)" stroke-width="1" opacity="1" d="M 4.5 384 L 4 385.5 Q 3.5 390.5 7.5 391 L 10.5 390 L 9.5 392 L 7.5 392 L 3 387.5 L 4.5 384 Z "></path><path fill="rgb(0,79,255)" stroke="rgb(0,79,255)" stroke-width="1" opacity="1" d="M 186.5 19 L 195.5 19 L 196 21 L 187.5 20 L 186 24 L 156 23.5 L 182.5 23 L 186.5 19 Z "></path><path fill="rgb(0,79,255)" stroke="rgb(0,79,255)" stroke-width="1" opacity="1" d="M 152.5 23 L 154 23.5 Q 151.3 24.6 152 28 L 126.5 28 L 123.5 27 L 122 31 L 92.5 31 L 90.5 30 L 87.5 34 L 85.5 35 L 59.5 35 L 58.5 33 L 85.5 33 L 89.5 29 L 119.5 29 L 122.5 26 L 149.5 26 L 152.5 23 Z "></path><path fill="rgb(0,79,255)" stroke="rgb(0,79,255)" stroke-width="1" opacity="1" d="M 187.5 25 L 197 25 L 197 29 Q 199.7 27.9 199 30.5 L 200 36 Q 203 37.3 202 33.5 L 203 33.5 L 204 42 Q 206.7 40.9 206 43.5 L 207 49 L 210 50.5 Q 208 57.4 212 56 L 212.5 54 L 214 63 L 217 64.5 Q 215.3 70.3 219 69 L 219.5 67 L 220 76 Q 222.7 77.1 222 74.5 L 223 74.5 L 224 83 Q 226.7 81.9 226 84.5 L 227 89 Q 229.7 90.1 229 87.5 L 230 87.5 L 230 94.5 L 231.5 95 L 233 94.5 L 233 97 Q 229.2 95.5 230 98.5 L 229 101 L 226 101 L 226 104 L 223 104 L 223 107 Q 219.2 105.5 220 108.5 L 219 111 L 216 111 L 216 114 Q 211.9 112.3 213 116.5 L 209 118 L 209 124 L 206 124 Q 207.5 127.7 204.5 127 L 201.5 131 L 199 131 L 199 134 Q 194.9 132.3 196 136.5 L 193 138 L 191.5 141 L 189 141 Q 190.5 144.7 187.5 144 L 186 148 L 182 149.5 Q 182.7 152.5 179 151 L 179 155 L 176 155 L 176 161 L 173.5 161 L 172 164 L 169 165.5 L 169 168 L 166 168 Q 167.7 172.1 163.5 171 L 160.5 175 Q 157.5 174.2 159 178 L 156 178 L 156 181 L 153.5 181 L 152 184 L 149 184 L 148.5 181 L 129.5 181 L 128.5 178 L 109.5 178 L 109 175.5 L 107.5 174 L 89 174 L 88.5 171 L 66.5 171 L 66 167.5 L 65 165 Q 62.3 163.9 63 166.5 L 62 166.5 L 62 143.5 L 60.5 142 L 59 142.5 L 59 96.5 L 57.5 95 L 56 95.5 L 56 53.5 L 54.5 52 L 53 52.5 L 53 90.5 L 52 90.5 L 52 41.5 L 54.5 41 L 55.5 38 L 88.5 38 L 89.5 35 L 121.5 35 L 123 31 L 152.5 31 L 153.5 28 L 185.5 28 L 186 26.5 L 187.5 25 Z M 140 84 L 140 86 L 136 87 L 136 95 L 139 95 L 140 98 Q 145 99 146 97 L 146 95 L 150 95 Q 152 89 149 87 Q 145 88 146 86 Q 145 83 140 84 Z "></path><path fill="rgb(0,79,255)" stroke="rgb(0,79,255)" stroke-width="1" opacity="1" d="M 54 33 Q 56.7 31.9 56 34.5 L 53.5 38 Q 47.6 39.7 49 36 Q 52.8 37 54 34.5 L 54 33 Z "></path><path fill="rgb(0,79,255)" stroke="rgb(0,79,255)" stroke-width="1" opacity="1" d="M 233.5 100 L 235 100.5 L 215 120.5 L 214 126 L 211 127.5 L 209.5 130 Q 207.3 129.3 208 131.5 L 205 133 L 199.5 140 Q 197.3 139.3 198 141.5 L 195 143 L 193.5 146 L 191 147.5 L 189.5 150 Q 187.3 149.3 188 151.5 L 185 153 L 183.5 156 L 181 157.5 L 181 161.5 L 153.5 189 L 153 187.5 L 180 159.5 L 179 156 L 183 155 L 184.5 152 Q 186.8 152.8 186 150.5 L 190 148 L 191.5 145 Q 193.8 145.8 193 143.5 L 197 141 L 198.5 138 Q 200.8 138.8 200 136.5 L 203 135 L 205.5 131 Q 207.8 131.8 207 129.5 L 210 128 L 211.5 125 Q 214.3 125.6 213 119.5 L 233.5 100 Z "></path><path fill="rgb(40,252,197)" stroke="rgb(40,252,197)" stroke-width="1" opacity="1" d="M 186.5 18 L 196 18.5 L 186.5 19 L 186.5 18 Z "></path><path fill="rgb(40,252,197)" stroke="rgb(40,252,197)" stroke-width="1" opacity="1" d="M 91.5 28 L 117 28.5 L 91.5 29 L 91.5 28 Z "></path><path fill="rgb(40,252,197)" stroke="rgb(40,252,197)" stroke-width="1" opacity="1" d="M 54.5 32 L 53.5 34 L 54.5 32 Z "></path><path fill="rgb(40,252,197)" stroke="rgb(40,252,197)" stroke-width="1" opacity="1" d="M 244.5 101 L 246 104 L 239 103.5 L 244.5 101 Z "></path><path fill="rgb(40,252,197)" stroke="rgb(40,252,197)" stroke-width="1" opacity="1" d="M 237.5 102 L 238 104 L 236 103.5 L 237.5 102 Z "></path><path fill="rgb(40,252,197)" stroke="rgb(40,252,197)" stroke-width="1" opacity="1" d="M 260.5 105 Q 264.3 104 263 107 L 249 106.5 L 259.5 106 L 260.5 105 Z "></path><path fill="rgb(40,252,197)" stroke="rgb(40,252,197)" stroke-width="1" opacity="1" d="M 274.5 108 L 277 109.5 Q 277.9 112.5 273.5 111 L 266 109.5 L 274.5 108 Z "></path><path fill="rgb(40,252,197)" stroke="rgb(40,252,197)" stroke-width="1" opacity="1" d="M 280 112 L 292.5 112 L 294 113.5 L 280 114 L 280 112 Z "></path><path fill="rgb(40,252,197)" stroke="rgb(40,252,197)" stroke-width="1" opacity="1" d="M 307.5 115 Q 310.8 113.9 310 116.5 Q 308.8 119.3 307.5 117 L 296 116.5 L 306.5 116 L 307.5 115 Z "></path><path fill="rgb(40,252,197)" stroke="rgb(40,252,197)" stroke-width="1" opacity="1" d="M 321.5 118 L 324 119.5 L 323.5 121 L 314.5 121 L 313.5 119 Q 319.7 120.7 321.5 118 Z "></path><path fill="rgb(40,252,197)" stroke="rgb(40,252,197)" stroke-width="1" opacity="1" d="M 328.5 122 L 339.5 122 L 341 123.5 L 327.5 124 L 328.5 122 Z "></path><path fill="rgb(40,252,197)" stroke="rgb(40,252,197)" stroke-width="1" opacity="1" d="M 354.5 125 Q 358.7 123.9 357 128 L 354.5 127 L 343 126.5 L 353.5 126 L 354.5 125 Z "></path><path fill="rgb(40,252,197)" stroke="rgb(40,252,197)" stroke-width="1" opacity="1" d="M 369.5 128 L 371 131 L 361.5 131 L 360 129.5 L 368.5 129 L 369.5 128 Z "></path><path fill="rgb(40,252,197)" stroke="rgb(40,252,197)" stroke-width="1" opacity="1" d="M 377.5 132 L 378 134 L 376 133.5 L 377.5 132 Z "></path><path fill="rgb(40,252,197)" stroke="rgb(40,252,197)" stroke-width="1" opacity="1" d="M 379.5 144 L 381 146.5 L 380 148.5 Q 382.3 149.8 379.5 151 Q 381.1 149.3 378 147.5 L 379.5 144 Z "></path><path fill="rgb(40,252,197)" stroke="rgb(40,252,197)" stroke-width="1" opacity="1" d="M 375.5 151 L 377 152.5 L 377 162 L 375 161.5 L 375.5 151 Z "></path><path fill="rgb(40,252,197)" stroke="rgb(40,252,197)" stroke-width="1" opacity="1" d="M 372.5 164 L 374 173.5 L 373 175.5 L 373 177.5 L 372.5 179 L 372 177.5 L 372 175.5 L 371 172.5 L 372.5 164 Z "></path><path fill="rgb(40,252,197)" stroke="rgb(40,252,197)" stroke-width="1" opacity="1" d="M 375.5 165 L 376 171.5 L 375 171.5 L 375.5 165 Z "></path><path fill="rgb(40,252,197)" stroke="rgb(40,252,197)" stroke-width="1" opacity="1" d="M 369.5 178 L 371 183.5 L 370 185.5 Q 372.3 186.7 369.5 188 Q 371.1 186.3 368 184.5 Q 366.8 179.3 369.5 178 Z "></path><path fill="rgb(40,252,197)" stroke="rgb(40,252,197)" stroke-width="1" opacity="1" d="M 372.5 182 L 373 184.5 L 372 184.5 L 372.5 182 Z "></path><path fill="rgb(40,252,197)" stroke="rgb(40,252,197)" stroke-width="1" opacity="1" d="M 251 185 L 254.5 185 L 260 189 L 260 195 L 257.5 195 L 254.5 199 L 250 196.5 Q 250.7 193.5 247 195 L 247 189 L 251 186.5 L 251 185 Z M 253 187 L 249 191 L 249 193 L 254 197 L 258 193 L 258 191 Q 258 187 253 187 Z "></path><path fill="rgb(40,252,197)" stroke="rgb(40,252,197)" stroke-width="1" opacity="1" d="M 365.5 188 L 367 191.5 L 366 194.5 L 367 197.5 L 365 198.5 L 365.5 188 Z "></path><path fill="rgb(40,252,197)" stroke="rgb(40,252,197)" stroke-width="1" opacity="1" d="M 154.5 190 L 157.5 192 L 159 195 L 163 196 L 163 201.5 L 165 202 L 165 203.5 L 170 207.5 L 169 210.5 L 173 213.5 Q 171.8 219.6 174.5 219 L 176 222 Q 179.7 220.5 179 223.5 L 180 225.5 L 179 227.5 L 182 229 L 183.5 232 L 186 233.5 Q 185 238 187.5 239 L 190 240.5 Q 188.8 246.6 191.5 246 L 193 249 Q 198.3 247.2 196 254.5 L 200 257.5 L 200 261.5 L 203 266 Q 206.7 264.5 206 267.5 L 206 269.5 L 207.5 273 Q 209.8 272.3 209 274.5 L 213 277.5 Q 212 282 214.5 283 L 217 284.5 L 216 287.5 L 223 293 Q 221.5 298.4 224.5 300 Q 226.8 299.3 226 301.5 L 230 304.5 Q 229 309 231.5 310 L 233 310 L 233 315.5 L 234.5 316 L 236 319 L 240 320 L 240 325.5 L 241.5 326 Q 244 327 243 331.5 L 247.5 336 L 250 337.5 L 249.5 341 L 242 332.5 L 242 328 L 239 326.5 L 239 322.5 L 232 315.5 L 232 312.5 L 229 309.5 L 228 304 L 225 302.5 Q 225.8 300.3 223.5 301 Q 221 300 222 295.5 L 215 288.5 L 215 284 L 212 282.5 Q 213 278 210.5 277 L 208 275.5 Q 208.8 273.3 206.5 274 Q 204 273 205 268.5 L 199 262.5 L 198 257 L 195 255.5 Q 196 251 193.5 250 Q 191.3 250.8 192 248.5 L 189 247 L 188 241.5 L 185 238.5 L 185 234 L 179 229.5 Q 178.8 222.3 173.5 220 Q 170.1 220.9 172 215.5 Q 166.8 213.8 168 207 L 162 202.5 L 161 197.5 L 154.5 190 Z "></path><path fill="rgb(40,252,197)" stroke="rgb(40,252,197)" stroke-width="1" opacity="1" d="M 366.5 200 L 366 201.5 L 365.5 212 L 365 201.5 L 366.5 200 Z "></path><path fill="rgb(40,252,197)" stroke="rgb(40,252,197)" stroke-width="1" opacity="1" d="M 362.5 201 L 364 210.5 L 363 212.5 Q 365.3 213.8 362.5 215 L 362 212.5 L 361 209.5 L 362.5 201 Z "></path><path fill="rgb(40,252,197)" stroke="rgb(40,252,197)" stroke-width="1" opacity="1" d="M 358 215 L 360 215.5 L 360 222.5 L 360 224.5 Q 360.7 227.1 358 226 L 358 215 Z "></path><path fill="rgb(40,252,197)" stroke="rgb(40,252,197)" stroke-width="1" opacity="1" d="M 362.5 222 L 363 224.5 L 362 224.5 L 362.5 222 Z "></path><path fill="rgb(40,252,197)" stroke="rgb(40,252,197)" stroke-width="1" opacity="1" d="M 355.5 228 L 357 231.5 L 356 234.5 L 357 237.5 L 356 239.5 L 356.5 241 L 355 239.5 L 355.5 228 Z "></path><path fill="rgb(40,252,197)" stroke="rgb(40,252,197)" stroke-width="1" opacity="1" d="M 352.5 242 L 354 250.5 L 352.5 253 L 351 249.5 L 352.5 242 Z "></path><path fill="rgb(40,252,197)" stroke="rgb(40,252,197)" stroke-width="1" opacity="1" d="M 355.5 242 L 356 251.5 L 355 251.5 L 355.5 242 Z "></path><path fill="rgb(40,252,197)" stroke="rgb(40,252,197)" stroke-width="1" opacity="1" d="M 348 255 L 350 255.5 L 350 263 L 348 262.5 L 348 255 Z "></path><path fill="rgb(40,252,197)" stroke="rgb(40,252,197)" stroke-width="1" opacity="1" d="M 345.5 265 L 347 274.5 L 346 276.5 L 346 278.5 L 345.5 289 L 345 278.5 L 345 276.5 L 345.5 265 Z "></path><path fill="rgb(40,252,197)" stroke="rgb(40,252,197)" stroke-width="1" opacity="1" d="M 342.5 278 L 344 287.5 L 342.5 290 Q 340.3 289.3 341 285.5 L 342 282.5 L 341 280.5 L 342.5 278 Z "></path><path fill="rgb(40,252,197)" stroke="rgb(40,252,197)" stroke-width="1" opacity="1" d="M 338 292 L 340 292.5 L 340 304.5 L 339 304.5 L 338 302.5 L 338 292 Z "></path><path fill="rgb(40,252,197)" stroke="rgb(40,252,197)" stroke-width="1" opacity="1" d="M 335.5 305 L 337 314.5 L 336 316.5 L 336 318.5 L 335.5 320 L 335 318.5 L 335 316.5 L 334 313.5 L 335.5 305 Z "></path><path fill="rgb(40,252,197)" stroke="rgb(40,252,197)" stroke-width="1" opacity="1" d="M 338.5 306 L 339 311.5 L 338 311.5 L 338.5 306 Z "></path><path fill="rgb(40,252,197)" stroke="rgb(40,252,197)" stroke-width="1" opacity="1" d="M 332.5 319 L 333 323 Q 336 321.8 335 325.5 L 333 329 L 324.5 329 L 323 330.5 Q 323.8 332.8 321.5 332 L 317.5 333 L 315.5 332 L 311.5 336 L 300 336 L 298.5 339 L 291.5 339 Q 290.5 344 283.5 343 L 281.5 342 L 279 346 L 268 345.5 L 269 343 L 276.5 343 L 279.5 340 Q 286.3 341.8 288 338.5 Q 287.3 336.3 289.5 337 L 290.5 336 L 298 336 L 299.5 333 L 310.5 333 L 311 331.5 Q 312.8 328.3 319.5 330 L 323.5 326 L 331 326 L 332 322.5 L 331 320.5 L 332.5 319 Z "></path><path fill="rgb(55,254,216)" stroke="rgb(55,254,216)" stroke-width="1" opacity="1" d="M 375.5 130 L 379 130.5 L 375.5 131 L 375.5 130 Z "></path><path fill="rgb(55,254,216)" stroke="rgb(55,254,216)" stroke-width="1" opacity="1" d="M 378.5 152 L 379 157.5 L 378 157.5 L 378.5 152 Z "></path><path fill="rgb(55,254,216)" stroke="rgb(55,254,216)" stroke-width="1" opacity="1" d="M 378.5 161 L 377.5 163 L 378.5 161 Z "></path><path fill="rgb(55,254,216)" stroke="rgb(55,254,216)" stroke-width="1" opacity="1" d="M 368.5 188 L 369 194.5 L 368 194.5 L 368.5 188 Z "></path><path fill="rgb(55,254,216)" stroke="rgb(55,254,216)" stroke-width="1" opacity="1" d="M 368.5 198 L 367.5 200 L 368.5 198 Z "></path><path fill="rgb(55,254,216)" stroke="rgb(55,254,216)" stroke-width="1" opacity="1" d="M 361.5 225 L 360.5 227 L 361.5 225 Z "></path><path fill="rgb(55,254,216)" stroke="rgb(55,254,216)" stroke-width="1" opacity="1" d="M 358.5 228 L 359 235.5 L 358 235.5 L 358.5 228 Z "></path><path fill="rgb(55,254,216)" stroke="rgb(55,254,216)" stroke-width="1" opacity="1" d="M 358.5 238 L 357.5 240 L 358.5 238 Z "></path><path fill="rgb(55,254,216)" stroke="rgb(55,254,216)" stroke-width="1" opacity="1" d="M 351.5 262 L 350.5 264 L 351.5 262 Z "></path><path fill="rgb(55,254,216)" stroke="rgb(55,254,216)" stroke-width="1" opacity="1" d="M 348.5 268 L 349 274.5 L 348 274.5 L 348.5 268 Z "></path><path fill="rgb(55,254,216)" stroke="rgb(55,254,216)" stroke-width="1" opacity="1" d="M 344.5 289 L 343.5 291 L 344.5 289 Z "></path><path fill="rgb(55,254,216)" stroke="rgb(55,254,216)" stroke-width="1" opacity="1" d="M 341.5 293 L 342 295.5 L 341 295.5 L 341.5 293 Z "></path><path fill="rgb(55,254,216)" stroke="rgb(55,254,216)" stroke-width="1" opacity="1" d="M 341.5 302 L 340.5 304 L 341.5 302 Z "></path><path fill="rgb(55,254,216)" stroke="rgb(55,254,216)" stroke-width="1" opacity="1" d="M 338.5 312 L 339 314.5 L 338 314.5 L 338.5 312 Z "></path><path fill="rgb(79,238,87)" stroke="rgb(79,238,87)" stroke-width="1" opacity="1" d="M 18.5 0 L 202.5 0 L 203 3.5 L 204 6.5 L 200 9.5 Q 201 14 198.5 15 L 197 15 L 196.5 18 L 186.5 18 L 182.5 22 L 151 22 L 149.5 25 L 122.5 25 L 117.5 29 L 116.5 28 L 89.5 28 L 87 29 L 85.5 32 L 54.5 32 L 53 33.5 L 53 35 L 48 35 L 48 33.5 L 35 20.5 L 34 15 L 32.5 15 L 18.5 0 Z "></path><path fill="rgb(79,238,87)" stroke="rgb(79,238,87)" stroke-width="1" opacity="1" d="M 61.5 179 L 60.5 181 L 61.5 179 Z "></path><path fill="rgb(79,238,87)" stroke="rgb(79,238,87)" stroke-width="1" opacity="1" d="M 89.5 180 L 106 180.5 L 89.5 181 L 89.5 180 Z "></path><path fill="rgb(79,238,87)" stroke="rgb(79,238,87)" stroke-width="1" opacity="1" d="M 59.5 182 L 60 184.5 L 59 184.5 L 59.5 182 Z "></path><path fill="rgb(79,238,87)" stroke="rgb(79,238,87)" stroke-width="1" opacity="1" d="M 107.5 182 L 108.5 183 L 125.5 183 L 129 186.5 L 125.5 184 L 108.5 184 L 107.5 182 Z "></path><path fill="rgb(79,238,87)" stroke="rgb(79,238,87)" stroke-width="1" opacity="1" d="M 146.5 187 Q 147.5 191 153.5 190 L 161 197.5 L 153.5 191 Q 146.3 192 146.5 187 Z "></path><path fill="rgb(79,238,87)" stroke="rgb(79,238,87)" stroke-width="1" opacity="1" d="M 59.5 188 L 58.5 190 L 59.5 188 Z "></path><path fill="rgb(79,238,87)" stroke="rgb(79,238,87)" stroke-width="1" opacity="1" d="M 56.5 195 L 57 197.5 L 56 197.5 L 56.5 195 Z "></path><path fill="rgb(79,238,87)" stroke="rgb(79,238,87)" stroke-width="1" opacity="1" d="M 161.5 199 L 163 203.5 L 161 202.5 L 161.5 199 Z "></path><path fill="rgb(79,238,87)" stroke="rgb(79,238,87)" stroke-width="1" opacity="1" d="M 164.5 205 L 165.5 207 L 164.5 205 Z "></path><path fill="rgb(79,238,87)" stroke="rgb(79,238,87)" stroke-width="1" opacity="1" d="M 49.5 212 L 50 215.5 L 49 215.5 L 49.5 212 Z "></path><path fill="rgb(79,238,87)" stroke="rgb(79,238,87)" stroke-width="1" opacity="1" d="M 168.5 212 Q 172.8 212.8 172 218.5 L 171 218.5 L 171 215.5 L 168.5 212 Z "></path><path fill="rgb(79,238,87)" stroke="rgb(79,238,87)" stroke-width="1" opacity="1" d="M 49.5 218 L 47 221.5 L 46.5 224 L 46 221.5 L 49.5 218 Z "></path><path fill="rgb(79,238,87)" stroke="rgb(79,238,87)" stroke-width="1" opacity="1" d="M 173.5 220 L 177.5 225 L 173.5 220 Z "></path><path fill="rgb(79,238,87)" stroke="rgb(79,238,87)" stroke-width="1" opacity="1" d="M 178.5 228 L 180 230.5 L 178 229.5 L 178.5 228 Z "></path><path fill="rgb(79,238,87)" stroke="rgb(79,238,87)" stroke-width="1" opacity="1" d="M 181.5 232 L 182.5 234 L 181.5 232 Z "></path><path fill="rgb(79,238,87)" stroke="rgb(79,238,87)" stroke-width="1" opacity="1" d="M 184.5 234 L 185 236.5 L 184 236.5 L 184.5 234 Z "></path><path fill="rgb(79,238,87)" stroke="rgb(79,238,87)" stroke-width="1" opacity="1" d="M 42.5 235 L 40 238.5 L 39.5 243 L 39 238.5 L 42.5 235 Z "></path><path fill="rgb(79,238,87)" stroke="rgb(79,238,87)" stroke-width="1" opacity="1" d="M 185.5 239 L 187.5 242 L 185.5 239 Z "></path><path fill="rgb(79,238,87)" stroke="rgb(79,238,87)" stroke-width="1" opacity="1" d="M 39.5 244 L 40 245.5 L 38 246.5 L 39.5 244 Z "></path><path fill="rgb(79,238,87)" stroke="rgb(79,238,87)" stroke-width="1" opacity="1" d="M 190.5 247 L 191.5 249 L 190.5 247 Z "></path><path fill="rgb(79,238,87)" stroke="rgb(79,238,87)" stroke-width="1" opacity="1" d="M 193.5 250 L 195 252.5 L 194 252.5 L 193.5 250 Z "></path><path fill="rgb(79,238,87)" stroke="rgb(79,238,87)" stroke-width="1" opacity="1" d="M 195.5 256 L 198 257.5 L 196.5 258 L 195.5 256 Z "></path><path fill="rgb(79,238,87)" stroke="rgb(79,238,87)" stroke-width="1" opacity="1" d="M 198.5 261 L 205 268.5 L 198 262.5 L 198.5 261 Z "></path><path fill="rgb(79,238,87)" stroke="rgb(79,238,87)" stroke-width="1" opacity="1" d="M 29.5 269 L 30 275.5 L 26 278.5 Q 30.5 276.5 29.5 269 Z "></path><path fill="rgb(79,238,87)" stroke="rgb(79,238,87)" stroke-width="1" opacity="1" d="M 210.5 277 Q 212.8 277.8 212 281.5 L 211 281.5 L 210.5 277 Z "></path><path fill="rgb(79,238,87)" stroke="rgb(79,238,87)" stroke-width="1" opacity="1" d="M 212.5 283 L 215 284 L 214.5 286 L 212.5 283 Z "></path><path fill="rgb(79,238,87)" stroke="rgb(79,238,87)" stroke-width="1" opacity="1" d="M 215.5 289 L 222 295.5 L 222 298.5 L 221 298.5 L 221 295.5 L 215.5 289 Z "></path><path fill="rgb(79,238,87)" stroke="rgb(79,238,87)" stroke-width="1" opacity="1" d="M 22.5 292 L 28.5 301 Q 30.8 300.3 30 302.5 L 34 305.5 L 35.5 308 Q 37.8 307.3 37 309.5 L 41 312.5 Q 40.3 314.8 42.5 314 L 45.5 318 Q 47.8 317.3 47 319.5 L 51 322.5 L 52.5 325 Q 54.8 324.3 54 326.5 L 57 328 L 58.5 331 L 61 332.5 L 62.5 335 Q 64.8 334.3 64 336.5 L 67 338 L 68.5 341 L 71 342.5 L 72.5 345 Q 74.8 344.3 74 346.5 L 77 348 L 78.5 351 L 81 352.5 L 82.5 355 Q 84.8 354.3 84 356.5 L 88 359.5 Q 87.3 361.8 89.5 361 L 92.5 365 Q 94.8 364.3 94 366.5 L 98 369.5 L 99.5 372 Q 101.8 371.3 101 373.5 L 104 375 L 105.5 378 L 108 379.5 L 109.5 382 L 111 382.5 L 109.5 383 L 107 382 L 105.5 379 Q 103.3 379.8 104 377.5 L 100 375 L 98.5 372 Q 96.3 372.8 97 370.5 L 94 369 L 91.5 365 Q 89.3 365.8 90 363.5 L 87 362 L 85.5 359 L 83 357.5 L 81.5 355 Q 79.3 355.8 80 353.5 L 77 352 L 74.5 348 Q 72.3 348.8 73 346.5 L 70 345 L 68.5 342 Q 66.3 342.8 67 340.5 L 63 338 L 61.5 335 Q 59.3 335.8 60 333.5 L 57 332 L 54.5 328 Q 52.3 328.8 53 326.5 L 50 325 L 48.5 322 Q 46.3 322.8 47 320.5 L 43 318 L 41.5 315 Q 39.3 315.8 40 313.5 L 37 312 L 34.5 308 Q 32.3 308.8 33 306.5 L 30 305 L 28.5 302 L 26 300.5 L 24.5 298 Q 22.3 298.8 23 296.5 L 22.5 292 Z "></path><path fill="rgb(79,238,87)" stroke="rgb(79,238,87)" stroke-width="1" opacity="1" d="M 228.5 306 Q 228.6 311.4 232 313.5 L 231 313.5 L 228 309.5 L 228.5 306 Z "></path><path fill="rgb(79,238,87)" stroke="rgb(79,238,87)" stroke-width="1" opacity="1" d="M 232.5 316 L 239 322.5 L 240 327.5 L 238 326.5 L 238 322.5 L 232.5 316 Z "></path><path fill="rgb(79,238,87)" stroke="rgb(79,238,87)" stroke-width="1" opacity="1" d="M 335.5 322 L 343.5 331 Q 348 330 349 332.5 Q 348.3 334.8 350.5 334 L 354.5 335 L 357.5 338 L 360.5 338 L 363.5 341 L 368.5 342 L 371.5 345 L 374.5 345 L 377.5 348 L 383 349 L 384.5 352 Q 386.8 351.3 386 353.5 Q 387 356 391.5 355 L 400 360.5 L 400 399.5 L 399.5 400 L 265 400 L 265 390.5 L 269 385.5 L 269 346 L 278.5 346 L 279 344.5 L 282.5 342 L 287.5 343 L 291.5 339 Q 298.3 340.8 300 337.5 L 300.5 336 L 311.5 336 L 316.5 332 L 320.5 333 L 323 332 L 324.5 329 L 332.5 329 L 333 327.5 Q 335.8 326.3 335.5 322 Z "></path><path fill="rgb(79,238,87)" stroke="rgb(79,238,87)" stroke-width="1" opacity="1" d="M 242.5 333 L 248.5 340 L 242.5 333 Z "></path><path fill="rgb(79,238,87)" stroke="rgb(79,238,87)" stroke-width="1" opacity="1" d="M 237.5 341 L 244 341.5 L 237.5 342 L 237.5 341 Z "></path><path fill="rgb(79,238,87)" stroke="rgb(79,238,87)" stroke-width="1" opacity="1" d="M 226.5 345 L 223.5 349 L 216.5 349 Q 215 353.5 207.5 352 L 207.5 351 Q 215 352.5 216.5 348 L 223.5 348 L 226.5 345 Z "></path><path fill="rgb(79,238,87)" stroke="rgb(79,238,87)" stroke-width="1" opacity="1" d="M 194.5 357 L 193.5 359 Q 185.2 357.3 183.5 362 L 186.5 358 Q 192.8 359.8 194.5 357 Z "></path><path fill="rgb(79,238,87)" stroke="rgb(79,238,87)" stroke-width="1" opacity="1" d="M 177.5 361 L 180 361.5 L 177.5 362 L 177.5 361 Z "></path><path fill="rgb(79,238,87)" stroke="rgb(79,238,87)" stroke-width="1" opacity="1" d="M 175.5 362 L 172.5 366 L 170 365.5 L 175.5 362 Z "></path><path fill="rgb(79,238,87)" stroke="rgb(79,238,87)" stroke-width="1" opacity="1" d="M 164.5 367 L 163.5 369 Q 155.3 367.3 153.5 372 L 156.5 368 Q 162.8 369.8 164.5 367 Z "></path><path fill="rgb(79,238,87)" stroke="rgb(79,238,87)" stroke-width="1" opacity="1" d="M 142.5 372 L 140.5 375 L 142.5 372 Z "></path><path fill="rgb(79,238,87)" stroke="rgb(79,238,87)" stroke-width="1" opacity="1" d="M 132.5 375 L 129.5 379 Q 123.3 377.3 121.5 380 L 122.5 378 Q 130.8 379.8 132.5 375 Z "></path><path fill="rgb(79,238,87)" stroke="rgb(79,238,87)" stroke-width="1" opacity="1" d="M 136.5 375 L 139 375.5 L 136.5 376 L 136.5 375 Z "></path><path fill="rgb(53,249,0)" stroke="rgb(53,249,0)" stroke-width="1" opacity="1" d="M 65.5 177 L 85.5 177 L 87 178.5 Q 86.3 180.8 88.5 180 L 89.5 181 L 107 181 L 108.5 184 L 125.5 184 L 128.5 187 L 145.5 187 Q 147.2 191.8 154 191.5 L 147 192 L 145.5 189 L 127.5 189 L 126 187.5 L 124.5 185 Q 118.6 187.6 108.5 186 L 106 185 L 105.5 182 L 86.5 182 L 85.5 179 L 65 179 Q 66.1 181.7 63.5 181 Q 61.3 181.8 62 185.5 L 63 188.5 L 60.5 192 L 59 192.5 L 59 200.5 L 55 203.5 L 56 209.5 L 55 212 L 52 212 L 52 220.5 L 49 222 Q 50.5 227.4 47.5 229 L 45 230.5 L 46 236.5 L 42 239 L 42 247.5 L 40.5 249 L 39 249.5 L 39 257.5 L 35 260.5 L 36 265.5 L 35 269 L 32 269 L 32 277.5 L 29 279 L 28 281.5 L 29 284.5 L 25 286 L 26 291.5 L 25 294 L 23 293.5 L 23 285.5 L 30 275.5 L 30 268.5 L 33 265.5 Q 31.2 258.8 34.5 257 Q 36.8 257.8 36 255.5 L 37 253.5 L 36 249.5 L 37 247 L 40 245.5 L 40 238.5 Q 44.8 236.8 43 228.5 L 50 218.5 L 50 211.5 L 53 208.5 Q 51.3 201.8 54.5 200 Q 56.8 200.8 56 198.5 L 57 195.5 L 56 193.5 L 57 190 L 60 188.5 Q 58.3 179.8 63.5 178 L 65.5 177 Z "></path><path fill="rgb(53,249,0)" stroke="rgb(53,249,0)" stroke-width="1" opacity="1" d="M 110 272 L 115 272 L 115 273.5 L 119 276 L 120 279.5 L 119 283 L 115 284.5 Q 115.9 287.9 110.5 286 L 109 283 Q 105.3 284.5 106 281.5 L 105 277.5 L 110 273.5 L 110 272 Z M 113 275 L 109 279 L 109 281 Q 112 280 111 283 L 116 281 Q 117 276 113 275 Z "></path><path fill="rgb(53,249,0)" stroke="rgb(53,249,0)" stroke-width="1" opacity="1" d="M 235.5 339 Q 243.8 337.6 248 340.5 L 244.5 342 Q 243 339.5 237.5 341 L 235 342 L 233.5 345 L 226.5 345 L 223.5 348 L 216.5 348 L 213.5 351 Q 207.4 350.3 205 352 L 203.5 355 L 196.5 355 Q 194.8 359.8 186.5 358 L 182.5 362 L 180.5 362 L 177.5 361 L 172.5 365 L 165 365 L 163.5 368 L 156.5 368 Q 154.7 373.7 145.5 372 L 143.5 372 L 139.5 375 L 132.5 375 L 129.5 378 Q 122.8 376.3 121 379.5 Q 121.8 381.8 119.5 381 L 118.5 382 L 110.5 382 L 111.5 380 Q 118.3 381.8 120 378.5 L 121.5 376 Q 128.3 377.8 130 374.5 L 130.5 373 L 138.5 373 L 140 370 L 148.5 369 L 151.5 370 L 154.5 366 L 162.5 366 L 163 364.5 L 164.5 363 L 173 363 L 175.5 359 L 181.5 360 L 184 356 L 192.5 356 L 194 354.5 L 194.5 353 L 202.5 353 L 205.5 349 L 213 350 L 214 346 L 222.5 346 L 224 344.5 L 224.5 343 L 232.5 343 L 235.5 339 Z "></path><path fill="rgb(55,255,216)" stroke="rgb(55,255,216)" stroke-width="1" opacity="1" d="M 237.5 100 L 246.5 100 L 248 101.5 Q 247.3 103.8 249.5 103 L 250.5 104 L 260.5 104 L 262.5 104 L 266.5 107 L 276.5 107 L 279.5 110 L 293.5 110 L 295 111.5 Q 294.3 113.8 296.5 113 L 297.5 114 L 310.5 114 L 313.5 117 L 323.5 117 L 326.5 120 L 340.5 120 L 342 121.5 Q 341.3 123.8 343.5 123 L 344.5 124 L 357.5 124 L 360.5 127 L 370.5 127 Q 372.8 132.1 380 131 L 380 136 L 381.5 136 Q 384.3 137.3 383 142.5 L 382 147.5 L 378 152.5 L 378 157.5 L 379 160.5 L 375 164.5 L 375 176 L 372 177.5 L 372 184.5 Q 366.5 186 368 194.5 L 369 197.5 L 365 201.5 L 365 211.5 L 362 214.5 L 362 224.5 Q 356.3 226.3 358 235.5 L 359 237.5 L 355 241.5 L 355 253 L 352 254.5 Q 353.8 263.8 348 265.5 L 348 275.5 L 345 278.5 L 345 288.5 Q 341.3 290.4 341 295.5 Q 343.3 296.8 342 301.5 L 340 302.5 L 340 292.5 L 338 292 L 338 302.5 L 339 304.5 L 338 305.5 L 338 317 L 335 318.5 Q 336.7 324.4 333 323 L 332.5 319 L 331 321.5 L 332 323.5 L 331 326 L 323.5 326 L 319.5 330 Q 312.8 328.3 311 331.5 L 310.5 333 L 299.5 333 L 298 336 Q 291.1 335 288 337 L 286.5 340 Q 278.3 338.3 276.5 343 L 260.5 344 L 254.5 340 L 250 341 Q 251 337.2 248.5 336 L 243 331.5 Q 244 327 241.5 326 L 240 326 L 240 320.5 L 238.5 320 L 236 319 L 234.5 316 L 233 316 L 233 310.5 L 231.5 310 L 228.5 303 L 226 301.5 Q 226.8 299.3 224.5 300 Q 221.5 298.4 223 293 L 216 287.5 L 217 284.5 L 213 281.5 Q 214 277 211.5 276 L 209 274.5 Q 209.8 272.3 207.5 273 L 206 269.5 L 206 267.5 L 206 266 Q 202.2 267.5 203 264.5 L 200 261.5 Q 201 257 198.5 256 L 196 254.5 L 196 249 Q 192.2 250.5 193 247.5 L 190 246 Q 191.5 240.6 188.5 239 L 186 237.5 Q 187 233 184.5 232 L 182 230.5 Q 182.8 228.3 180.5 229 L 179 226.5 L 180 224.5 L 179 222 Q 175.2 223.5 176 220.5 L 173 219 Q 174.5 213.6 171.5 212 L 169 210.5 L 170 207.5 L 165 203.5 L 165 202 L 163 201.5 L 163 196 L 161.5 196 L 159 195 L 157.5 192 Q 155.3 192.8 156 190.5 L 155 189.5 L 180.5 164 Q 183.9 164.9 182 159.5 L 183 157 L 186 155.5 Q 185.3 153.3 187.5 154 L 189 151 L 192 149.5 L 193.5 147 L 196 145.5 Q 195.3 143.3 197.5 144 L 199 141 L 203 138.5 Q 202.3 136.3 204.5 137 L 206 134 L 209 132.5 Q 208.3 130.3 210.5 131 L 213 127 L 216 125.5 L 216 121.5 L 237.5 100 Z M 245 101 L 239 104 L 246 104 L 245 101 Z M 238 102 L 236 104 L 238 104 L 238 102 Z M 261 105 L 260 106 L 249 107 L 263 107 Q 264 104 261 105 Z M 275 108 L 266 110 L 274 111 Q 278 112 277 110 L 275 108 Z M 280 112 L 280 114 L 294 114 L 293 112 L 280 112 Z M 308 115 L 307 116 L 296 117 L 308 117 Q 309 119 310 117 Q 311 114 308 115 Z M 322 118 Q 320 121 314 119 L 315 121 L 324 121 L 324 120 L 322 118 Z M 329 122 L 328 124 L 341 124 L 340 122 L 329 122 Z M 355 125 L 354 126 L 343 127 L 355 127 L 357 128 Q 359 124 355 125 Z M 370 128 L 369 129 L 360 130 L 362 131 L 371 131 L 370 128 Z M 378 132 L 376 134 L 378 134 L 378 132 Z M 380 144 L 378 146 L 380 149 L 381 147 L 380 144 Z M 376 151 L 375 162 L 377 162 L 377 153 L 376 151 Z M 373 164 L 371 173 L 373 176 L 374 174 L 373 164 Z M 370 178 L 368 180 Q 367 185 370 186 L 371 184 L 370 178 Z M 251 185 L 251 187 L 247 189 L 247 195 Q 251 193 250 197 L 255 199 L 258 195 L 260 195 L 260 189 L 255 185 L 251 185 Z M 366 188 L 365 199 L 367 198 L 366 195 L 367 192 L 366 188 Z M 363 201 L 361 210 L 363 213 L 364 211 L 363 201 Z M 358 215 L 358 226 Q 361 227 360 225 L 360 223 L 360 216 L 358 215 Z M 356 228 L 356 240 L 357 238 L 356 235 L 357 232 L 356 228 Z M 353 242 L 351 250 L 353 253 L 354 251 L 353 242 Z M 348 255 L 348 263 L 350 263 L 350 256 L 348 255 Z M 346 265 L 346 277 L 347 275 L 346 265 Z M 343 278 L 341 281 L 342 283 L 341 286 Q 340 289 343 290 L 344 288 L 343 278 Z M 336 305 L 334 314 L 336 317 L 337 315 L 336 305 Z "></path><path fill="rgb(54,251,0)" stroke="rgb(54,251,0)" stroke-width="1" opacity="1" d="M 65 179 L 85.5 179 L 86.5 182 L 105.5 182 L 106 185 L 107.5 185 L 108.5 186 L 121.5 186 L 124.5 185 L 127.5 189 L 145.5 189 L 147 190.5 L 147.5 192 L 154.5 192 L 161 198.5 Q 160 203 162.5 204 Q 164.8 203.3 164 205.5 L 167 207 L 168 212.5 L 171 215.5 L 171 218.5 L 178 225.5 Q 177 230 179.5 231 Q 181.8 230.3 181 232.5 L 184 234 Q 183.7 240.1 188 242.5 L 188 247 L 194 251.5 L 196.5 258 Q 199.9 257.1 198 262.5 L 205 269.5 L 205 274 L 208 275.5 Q 207.3 277.8 209.5 277 L 212 283.5 L 215 286.5 L 215 289.5 L 221 295.5 L 222 301 L 225 302.5 Q 224.3 304.8 226.5 304 Q 229 305 228 309.5 Q 231.7 311.3 232 316.5 L 238 322.5 Q 237 327 239.5 328 Q 241.8 327.3 241 329.5 L 242 333.5 L 249 340.5 L 247.5 340 L 235.5 339 L 232.5 343 L 224.5 343 L 224 344.5 L 222.5 346 L 214 346 L 213 350 L 205.5 349 L 202.5 353 L 194.5 353 L 194 354.5 L 192.5 356 L 184 356 L 181.5 360 L 175.5 359 L 173 363 L 164.5 363 L 163 364.5 L 162.5 366 L 154.5 366 L 151.5 370 L 143.5 369 L 140 370 L 138.5 373 L 130.5 373 L 130 374.5 L 128.5 376 Q 121.8 374.3 120 377.5 L 118.5 380 Q 111.2 378.3 109.5 382 L 106.5 378 L 104 376.5 Q 104.8 374.3 102.5 375 L 101 372 L 98 370.5 L 96.5 368 L 94 366.5 Q 94.8 364.3 92.5 365 L 89.5 361 Q 87.3 361.8 88 359.5 L 84 356.5 Q 84.8 354.3 82.5 355 L 79.5 351 L 77 349.5 Q 77.8 347.3 75.5 348 L 74 345 L 71 343.5 L 69.5 341 L 67 339.5 Q 67.8 337.3 65.5 338 L 64 335 L 61 333.5 L 59.5 331 L 57 329.5 Q 57.8 327.3 55.5 328 L 54 325 L 51 323.5 L 49.5 321 L 47 319.5 Q 47.8 317.3 45.5 318 L 42.5 314 Q 40.3 314.8 41 312.5 L 37 309.5 Q 37.8 307.3 35.5 308 L 32.5 304 L 30 302.5 Q 30.8 300.3 28.5 301 L 23 294.5 L 25 294 L 26 290.5 L 25 286 L 29 284.5 L 28 281.5 L 29 279 L 32 277.5 L 32 269.5 L 35 269 L 35 266.5 L 36 263.5 L 35 260.5 L 39 257.5 L 39 249.5 L 40.5 249 L 42 247.5 L 42 239 L 46 236.5 L 45 230.5 L 49 227.5 Q 47.8 221.4 50.5 222 L 52 220.5 L 52 212 Q 55.8 213.5 55 210.5 L 56 205.5 L 55 203.5 L 59 200.5 L 59 192.5 L 60.5 192 L 63 186.5 L 62 182.5 L 65 181 L 65 179 Z M 110 272 L 110 274 L 105 278 L 106 282 Q 105 285 109 283 L 111 286 Q 116 288 115 285 L 119 283 L 120 280 L 119 276 L 115 274 L 115 272 L 110 272 Z "></path><path fill="rgb(40,220,234)" stroke="rgb(40,220,234)" stroke-width="1" opacity="1" d="M 185.5 19 L 183.5 22 L 185.5 19 Z "></path><path fill="rgb(40,220,234)" stroke="rgb(40,220,234)" stroke-width="1" opacity="1" d="M 122.5 25 L 124 25.5 L 119.5 29 L 122.5 25 Z "></path><path fill="rgb(40,220,234)" stroke="rgb(40,220,234)" stroke-width="1" opacity="1" d="M 125.5 25 L 149 25.5 L 125.5 26 L 125.5 25 Z "></path><path fill="rgb(40,220,234)" stroke="rgb(40,220,234)" stroke-width="1" opacity="1" d="M 399.5 85 L 400 149 Q 395.7 149.7 394.5 146 L 387 146 L 385.5 143 L 383 143 L 383 137.5 L 380 136 Q 381.3 130.9 378 129.5 L 383 121.5 L 383 118.5 L 386 115.5 L 387 110 Q 389.7 111.1 389 108.5 L 390 104.5 L 393 101.5 Q 391.3 94.8 394.5 93 Q 397.1 93.8 396 90.5 L 399.5 85 Z "></path><path fill="rgb(40,220,234)" stroke="rgb(40,220,234)" stroke-width="1" opacity="1" d="M 235.5 100 L 237 100.5 L 216 121.5 Q 217 126 214.5 127 L 212 128.5 Q 212.8 130.8 210.5 130 L 207.5 134 L 205 135.5 Q 205.8 137.8 203.5 137 L 202 140 L 199 141.5 L 197.5 144 L 195 145.5 Q 195.8 147.8 193.5 147 L 192 150 L 189 151.5 L 187.5 154 L 185 155.5 Q 185.8 157.8 183.5 157 Q 181 158 182 162.5 L 154.5 190 L 153 189.5 L 181 161.5 Q 180 157 182.5 156 L 185 154.5 Q 184.3 152.3 186.5 153 L 188 150 L 191 148.5 L 192.5 146 L 195 144.5 Q 194.3 142.3 196.5 143 L 198 140 L 205 134.5 Q 204.3 132.3 206.5 133 L 208 130 L 211 128.5 L 212.5 126 Q 215.1 126.8 214 123.5 L 215 120.5 L 235.5 100 Z "></path><path fill="rgb(40,220,234)" stroke="rgb(40,220,234)" stroke-width="1" opacity="1" d="M 251.5 103 L 259 103.5 L 251.5 104 L 251.5 103 Z "></path><path fill="rgb(40,220,234)" stroke="rgb(40,220,234)" stroke-width="1" opacity="1" d="M 263.5 103 L 266.5 106 L 277 106.5 L 266.5 107 L 263.5 103 Z "></path><path fill="rgb(40,220,234)" stroke="rgb(40,220,234)" stroke-width="1" opacity="1" d="M 278.5 108 L 279.5 110 L 278.5 108 Z "></path><path fill="rgb(40,220,234)" stroke="rgb(40,220,234)" stroke-width="1" opacity="1" d="M 297.5 113 L 308 113.5 L 297.5 114 L 297.5 113 Z "></path><path fill="rgb(40,220,234)" stroke="rgb(40,220,234)" stroke-width="1" opacity="1" d="M 310.5 113 L 315 116.5 L 313.5 117 L 310.5 113 Z "></path><path fill="rgb(40,220,234)" stroke="rgb(40,220,234)" stroke-width="1" opacity="1" d="M 317.5 116 L 324 116.5 L 317.5 117 L 317.5 116 Z "></path><path fill="rgb(40,220,234)" stroke="rgb(40,220,234)" stroke-width="1" opacity="1" d="M 325.5 118 L 326.5 120 L 325.5 118 Z "></path><path fill="rgb(40,220,234)" stroke="rgb(40,220,234)" stroke-width="1" opacity="1" d="M 344.5 123 L 357.5 123 L 361 126.5 L 357.5 124 L 344.5 124 L 344.5 123 Z "></path><path fill="rgb(40,220,234)" stroke="rgb(40,220,234)" stroke-width="1" opacity="1" d="M 367.5 126 L 370 126.5 L 367.5 127 L 367.5 126 Z "></path><path fill="rgb(40,220,234)" stroke="rgb(40,220,234)" stroke-width="1" opacity="1" d="M 371.5 127 L 373.5 130 L 371.5 127 Z "></path><path fill="rgb(40,220,234)" stroke="rgb(40,220,234)" stroke-width="1" opacity="1" d="M 250.5 341 L 253 341.5 L 250.5 342 L 250.5 341 Z "></path><path fill="rgb(40,220,234)" stroke="rgb(40,220,234)" stroke-width="1" opacity="1" d="M 256.5 341 Q 259.5 345.5 268 344.5 L 260.5 345 L 256.5 341 Z "></path></svg>