<svg width="400" height="400" version="1.1" xmlns="http://www.w3.org/2000/svg" desc="Created with imagetracer.js version 1.2.5"><path fill="rgb(0,254,6)" stroke="rgb(0,254,6)" stroke-width="1" opacity="0.3568627450980392" d="M 63 0 Q 67 -1.4 65 5.5 L 64 6.5 L 64 52.5 L 71 78.5 L 76 90.5 Q 89.5 113.5 108.5 131 L 120.5 141 L 160.5 167 L 185.5 180 Q 191 182.5 200.5 181 L 210.5 179 L 223 170.5 L 229.5 162 L 229 163.5 Q 225.9 174.4 217.5 180 Q 209.7 186.2 195.5 186 L 188.5 184 L 151.5 164 L 132.5 150 L 125.5 147 L 106 132 L 104.5 129 Q 102.3 129.8 103 127.5 L 94 119.5 L 81 102.5 L 70 82.5 L 68 71.5 L 62 55.5 L 62 46.5 L 61 45.5 L 62 43.5 L 62 41.5 L 61 36.5 L 62 34.5 L 62 32.5 Q 63.5 27 61 25.5 L 62 22.5 L 62 18.5 Q 60.7 11.7 63 8.5 L 63 6.5 L 63 0 Z "></path><path fill="rgb(0,254,6)" stroke="rgb(0,254,6)" stroke-width="1" opacity="0.3568627450980392" d="M 124 0 Q 126.7 -1.1 126 1.5 L 125 4.5 L 125 16.5 L 124 17.5 L 124 19.5 L 125 21.5 Q 122.2 23.3 124 29.5 L 124 31.5 L 125 33.5 L 124 38.5 L 124 40.5 L 125 42.5 L 124 44.5 L 131 64.5 Q 140.5 79 153.5 90 Q 171.6 99.4 186.5 112 L 199.5 119 L 207.5 121 Q 221.6 113.1 239.5 109 L 250.5 108 L 263.5 104 L 281.5 104 L 280.5 106 L 265.5 106 L 250.5 110 L 240.5 111 Q 221.1 115.6 205.5 124 L 184.5 113 L 154.5 93 L 141 80.5 L 129 64.5 L 125 54.5 L 122 42.5 L 122 20.5 L 123 19.5 L 123 2.5 L 124 0 Z "></path><path fill="rgb(0,254,6)" stroke="rgb(0,254,6)" stroke-width="1" opacity="0.3568627450980392" d="M 362.5 169 L 365 171.5 L 370 194.5 L 370 196.5 L 370 215.5 L 368 222.5 L 392 269.5 L 393 277.5 L 395 281.5 L 397 303.5 L 398 304.5 L 398 358.5 Q 395.5 360 397 365.5 L 388 390.5 L 381.5 400 L 380 399.5 L 387 387.5 L 395 364.5 Q 393.8 359.8 396 358.5 L 396 303.5 L 395 302.5 L 395 294.5 L 391 273.5 L 387 262.5 L 367 224.5 L 367 216.5 L 368 215.5 L 368 195.5 L 367 194.5 L 366 182.5 L 362.5 169 Z "></path><path fill="rgb(0,254,6)" stroke="rgb(0,254,6)" stroke-width="1" opacity="0.3568627450980392" d="M 320 189 Q 323.7 187.7 322 193.5 L 324 201.5 L 324 208.5 L 322 217.5 L 322 230.5 L 325 240.5 L 346 279.5 L 350 292.5 L 351 309.5 L 352 310.5 L 352 351.5 Q 349.3 365.3 343 375.5 L 327 400 L 324 399.5 L 331 391.5 L 339 376.5 L 344 370.5 L 349 357.5 L 350 353.5 L 350 307.5 L 346 284.5 L 332 255.5 L 321 236.5 Q 318.4 228.6 320 216.5 L 322 209.5 L 322 201.5 L 320 189 Z "></path><path fill="rgb(0,0,0)" stroke="rgb(0,0,0)" stroke-width="1" opacity="0" d="M 0 0 L 62.5 0 Q 63.8 0.3 63 6.5 L 63 8.5 L 61 19.5 L 62 22.5 L 61 25.5 Q 63.5 27 62 32.5 L 62 34.5 L 61 36.5 L 62 41.5 L 62 43.5 L 61 45.5 L 62 46.5 L 62 55.5 L 68 71.5 L 70 82.5 L 81 102.5 L 97.5 123 L 103 127.5 Q 102.3 129.8 104.5 129 L 106 132 L 125.5 147 L 132.5 150 L 142.5 158 L 166.5 173 L 188.5 184 L 195.5 186 L 200.5 186 L 214.5 182 L 223.5 174 L 223 175.5 L 217 193.5 L 212 218 L 210 218 Q 211.1 220.7 208.5 220 L 189.5 233 L 165.5 238 L 156 221 Q 153.3 222.1 154 219.5 L 136.5 205 L 122.5 198 L 103.5 191 L 83.5 173 L 52.5 150 L 46.5 148 L 42.5 144 L 21.5 131 L 9.5 127 L 0 121.5 L 0 0 Z "></path><path fill="rgb(0,0,0)" stroke="rgb(0,0,0)" stroke-width="1" opacity="0" d="M 126 0 L 399.5 0 L 400 0.5 L 400 67.5 L 398.5 69 L 368.5 73 L 334.5 81 L 296.5 95 L 281.5 104 L 263.5 104 L 250.5 108 L 239.5 109 Q 221.6 113.1 207.5 121 L 204.5 121 L 186.5 112 Q 173.8 100.7 157.5 93 L 140 76.5 L 129 60.5 L 129 56.5 L 124 43.5 L 124 41.5 L 125 39.5 L 124 34.5 L 124 32.5 L 125 30.5 Q 122.2 28.8 124 22.5 L 124 20.5 L 125 18.5 L 125 16.5 L 125 4.5 L 126 3.5 L 126 1.5 L 126 0 Z "></path><path fill="rgb(0,0,0)" stroke="rgb(0,0,0)" stroke-width="1" opacity="0" d="M 394.5 163 Q 399.9 162.4 400 163.5 L 400 400 L 382 399.5 L 388 390.5 L 397 365.5 Q 395.5 360 398 358.5 L 398 304.5 L 397 303.5 L 396 286.5 L 393 277.5 L 392 269.5 L 368 222.5 L 370 215.5 L 370 196.5 L 369 193.5 L 369 186.5 L 364 170.5 L 370.5 168 L 394.5 163 Z "></path><path fill="rgb(0,0,0)" stroke="rgb(0,0,0)" stroke-width="1" opacity="0" d="M 0 175 L 11.5 181 L 19.5 188 L 28.5 192 Q 39 202.5 52.5 210 L 72 227.5 L 73.5 230 L 84 235.5 L 78.5 236 L 58.5 232 L 55.5 230 L 40.5 226 L 27.5 220 L 14.5 211 L 4.5 207 L 0 207 L 0 175 Z "></path><path fill="rgb(0,0,0)" stroke="rgb(0,0,0)" stroke-width="1" opacity="0" d="M 319.5 192 L 321 193.5 L 322 209.5 Q 318.2 218.2 320 232.5 L 324 243.5 L 332 255.5 L 343 277.5 L 348 291.5 L 348 298.5 L 350 307.5 L 350 353.5 L 344 370.5 L 339 376.5 L 331 391.5 L 323.5 400 L 161.5 400 L 161 396.5 L 160 393.5 L 153 369.5 L 141 346.5 L 150.5 334 L 152.5 333 L 154.5 334 L 157.5 333 L 164.5 333 L 175.5 330 L 192.5 328 L 225.5 319 L 255.5 302 Q 271.4 290.9 284 276.5 Q 293 267 298 253.5 L 309 210.5 L 319.5 192 Z "></path><path fill="rgb(0,0,0)" stroke="rgb(0,0,0)" stroke-width="1" opacity="0" d="M 0 310 L 31.5 321 L 53.5 326 L 58.5 326 L 63.5 328 L 65.5 328 Q 71 326.5 72.5 329 L 74.5 329 L 91 330 L 87 341.5 L 87 349.5 L 88 352.5 Q 89.7 360.8 95.5 365 Q 97.8 364.3 97 366.5 L 109 389.5 L 112 399.5 L 0 400 L 0 310 Z "></path><path fill="rgb(0,254,8)" stroke="rgb(0,254,8)" stroke-width="1" opacity="0.9803921568627451" d="M 65 0 Q 69.1 -1.7 68 2.5 L 70 2.5 L 67 4.5 L 68 9.5 L 68 11.5 L 69 15.5 L 67 19.5 L 68 21.5 L 67 23.5 L 69 23.5 Q 66 26.5 67 33.5 L 68.5 36 Q 65.9 35.2 67 38.5 L 69 44.5 L 68 46.5 Q 71.5 48 69 49.5 L 71 54.5 L 71 58.5 L 72 60.5 L 71 62.5 L 73 68.5 L 72 69.5 L 74 73.5 L 83 93 L 85 93.5 L 85 95.5 L 86.5 99 L 88 98.5 L 88 100.5 L 89 104 L 92 105.5 L 98.5 115 L 100 114.5 L 100 117 Q 103.7 115.5 103 118.5 L 104 122 L 110 125.5 L 109.5 127 L 114 129.5 L 114 131 L 118 131 L 118 132.5 L 119.5 135 L 121 134.5 L 122.5 137 L 126 138 Q 124.8 141 128.5 140 L 135.5 147 L 138 147 L 139.5 150 L 143.5 151 L 149.5 156 L 153.5 157 L 159.5 162 L 163.5 163 L 176.5 171 L 180.5 171 L 185.5 168 L 187.5 170 L 192.5 172 L 197.5 171 L 199.5 172 L 202.5 171 L 208.5 171 L 218.5 168 L 229.5 160 L 235.5 159 L 235.5 160 L 229.5 162 L 227 164.5 L 221.5 172 Q 216 177.5 207.5 180 L 188.5 181 L 160.5 167 L 120.5 141 L 98 120.5 L 76 90.5 L 66 62.5 L 64 52.5 L 64 6.5 L 65 0 Z "></path><path fill="rgb(0,254,8)" stroke="rgb(0,254,8)" stroke-width="1" opacity="0.9803921568627451" d="M 121 0 Q 124.7 -1.5 124 1.5 L 123 2.5 L 123 19.5 L 122 20.5 L 122 42.5 L 129 64.5 Q 137.6 78.4 149.5 89 L 184.5 113 L 206.5 124 Q 221.3 115.3 240.5 111 L 250.5 110 L 265.5 106 L 289.5 105 L 289.5 106 L 279.5 107 L 272.5 110 L 270.5 109 L 264.5 111 L 262.5 111 L 259.5 110 L 248 112.5 L 248.5 114 L 245.5 113 L 242.5 115 L 240.5 115 L 236.5 117 L 234.5 117 Q 228.8 116.3 226.5 119 Q 225.3 116.8 224 119.5 L 223.5 121 L 220.5 120 L 217.5 123 L 210.5 126 L 200.5 126 L 187.5 118 L 186 118.5 Q 187.1 115.2 184.5 116 L 181 115 L 179.5 112 L 177.5 111 L 176.5 112 L 173.5 109 Q 170.2 110.1 171 107.5 L 168 106.5 Q 168.8 104.3 166.5 105 L 165 105.5 L 165.5 104 L 163 103.5 L 163.5 102 L 161.5 102 L 148.5 91 L 144 89 L 140.5 84 Q 138.3 84.8 139 82.5 L 138 80 Q 135.3 81.1 136 78.5 L 129 69.5 L 124 57 Q 121 58.3 122 54.5 L 121 53.5 L 121 43.5 L 119 39.5 L 119 37.5 L 118 35.5 L 119 32.5 L 118 30.5 L 120 25.5 L 119 23.5 L 119 21.5 L 120 19.5 L 119 14.5 L 119 10.5 L 120 8.5 L 120 6.5 L 122 2.5 L 121 0 Z "></path><path fill="rgb(0,254,8)" stroke="rgb(0,254,8)" stroke-width="1" opacity="0.9803921568627451" d="M 361.5 166 L 366 182.5 L 367 194.5 L 368 195.5 L 368 215.5 L 367 216.5 L 367 224.5 L 387 262.5 L 393 281.5 L 395 302.5 L 396 303.5 L 396 358.5 Q 391.4 382.9 379.5 400 L 377 399.5 L 377.5 397 Q 380.1 397.8 379 394.5 L 383 388.5 L 382 386.5 Q 386.2 384.2 384.5 382 Q 386.8 382.8 386 380.5 L 388 376.5 Q 385.5 375 389 373.5 L 390 370.5 L 389 367.5 L 391 364.5 L 392 355.5 L 391.5 354 Q 394.1 354.8 393 351.5 L 393 347.5 L 394 345.5 L 393 342.5 L 394 340.5 L 393 338.5 L 394 335.5 L 393 324.5 L 392 323.5 L 394 320.5 L 393 319.5 L 393 308.5 L 392 306.5 L 392 302.5 L 391 298.5 L 392 294.5 L 390 291.5 L 391 288.5 L 390 286.5 L 391 285.5 L 389 281.5 L 387 272.5 L 381 259.5 L 381 256 L 379 255.5 L 379 253.5 L 371 236.5 L 367 231.5 L 366 222.5 L 364 218.5 L 364 213.5 L 365 211.5 L 364 208.5 L 365 205.5 L 365 203.5 L 364 201.5 L 365 198.5 L 363 190.5 L 363 183 L 361 182.5 L 362 178.5 L 359 170.5 L 361.5 166 Z "></path><path fill="rgb(0,254,8)" stroke="rgb(0,254,8)" stroke-width="1" opacity="0.9803921568627451" d="M 320.5 186 L 324 187.5 L 324 192.5 L 326 198.5 L 326 206.5 L 326 208.5 L 325 212.5 L 326 215.5 L 325 218.5 Q 327.2 219.8 326 224.5 L 328 227.5 L 327 231.5 Q 330.2 236 330 243 L 332 243.5 L 330 244.5 L 337 255.5 L 336.5 257 Q 339.1 256.2 338 259.5 L 350 283.5 L 351 292.5 L 354 302.5 L 354 304.5 L 353 307.5 L 355 317.5 L 354 319.5 L 355 321.5 L 354 326.5 L 355 330.5 L 354 332.5 L 355 335.5 L 354 338.5 L 355 341.5 L 354 343.5 L 355 346.5 L 354 349.5 L 350 367.5 L 346 372.5 L 346 375.5 L 340 386 L 338 386.5 Q 340.5 388 337 389.5 L 331 398.5 L 327 400 L 343 375.5 L 351 356.5 L 352 351.5 L 352 310.5 L 351 309.5 L 351 300.5 L 348 284.5 L 323 234.5 Q 320.7 227.8 322 217.5 L 323 216.5 L 324 201.5 L 323 200.5 L 322 189.5 L 320.5 186 Z "></path><path fill="rgb(0,173,254)" stroke="rgb(0,173,254)" stroke-width="1" opacity="0.9529411764705882" d="M 393.5 71 L 400 71 L 400 74 L 376.5 77 L 356.5 81 L 352.5 83 L 350.5 83 L 310.5 95 L 298.5 102 L 297 101.5 Q 297.8 104.1 294.5 103 Q 291.9 106.4 284.5 105 L 284.5 104 Q 306.1 91.6 332.5 84 L 359.5 77 L 393.5 71 Z "></path><path fill="rgb(0,173,254)" stroke="rgb(0,173,254)" stroke-width="1" opacity="0.9529411764705882" d="M 395.5 158 Q 401.8 156.1 400 161 L 378.5 164 L 362.5 169 L 362 166.5 L 367.5 164 L 380.5 162 L 383.5 160 L 385.5 161 L 395.5 158 Z "></path><path fill="rgb(0,173,254)" stroke="rgb(0,173,254)" stroke-width="1" opacity="0.9529411764705882" d="M 236.5 159 L 237 160.5 L 232 168.5 L 232 171.5 L 230 173.5 L 230 176.5 L 224 189.5 L 218 211.5 Q 213.8 221.8 205.5 228 L 195.5 234 L 176.5 241 L 174.5 241 L 165.5 242 L 164.5 240 L 189.5 235 Q 203.1 228.6 213 218.5 L 224 178.5 L 231 162.5 L 233.5 160 L 236.5 159 Z "></path><path fill="rgb(0,173,254)" stroke="rgb(0,173,254)" stroke-width="1" opacity="0.9529411764705882" d="M 319.5 187 Q 322.1 186.3 321 189 Q 318.3 187.9 319 190.5 Q 311.7 197.7 308 208.5 L 299 244.5 L 293 259.5 Q 283.3 277.8 267.5 290 Q 247.9 306.9 222.5 318 L 196.5 325 L 191.5 325 L 169.5 330 L 151.5 331 L 150.5 332 L 152 329.5 Q 151.3 327.3 153.5 328 L 154.5 327 L 172.5 326 L 179.5 324 L 181.5 325 L 190.5 322 L 192.5 322 L 199.5 321 L 229.5 310 L 252 298 Q 250.9 295.3 253.5 296 L 264 287.5 Q 263.3 285.3 265.5 286 L 280.5 268 Q 282.8 268.8 282 266.5 L 287 256.5 L 290 253.5 L 290 250.5 L 293 247.5 L 305 213.5 Q 302.5 212 306 210.5 Q 309.6 195.6 319.5 187 Z "></path><path fill="rgb(0,173,254)" stroke="rgb(0,173,254)" stroke-width="1" opacity="0.9529411764705882" d="M 0 210 L 14.5 214 Q 30.6 225.9 52.5 232 L 67.5 236 L 97.5 240 L 99.5 240 L 107 242 L 106.5 244 L 98.5 242 L 96.5 242 L 88.5 242 L 53.5 235 L 16.5 220 L 14.5 220 L 12.5 221 L 8.5 221 Q 2.4 220.3 0 222 L 0 210 Z "></path><path fill="rgb(0,173,254)" stroke="rgb(0,173,254)" stroke-width="1" opacity="0.9529411764705882" d="M 0 304 L 26.5 314 L 28.5 314 L 46.5 319 L 48.5 319 L 67.5 323 L 74.5 323 L 79.5 325 L 91.5 325 L 92.5 326 L 94.5 326 Q 97.8 324.9 97 327.5 Q 95.8 330.3 90.5 329 L 89.5 328 L 65.5 326 L 43.5 322 L 0 308 L 0 304 Z "></path><path fill="rgb(0,254,8)" stroke="rgb(0,254,8)" stroke-width="1" opacity="1" d="M 68 0 L 120.5 0 L 121 1.5 L 121 3.5 L 119 7.5 L 119 9.5 L 118 11.5 Q 121.5 13 119 14.5 L 120 19.5 L 119 21.5 L 119 23.5 L 120 25.5 L 118 31.5 L 119 34.5 L 119 36.5 L 120 38.5 L 120 40.5 L 122 57 Q 125 55.8 124 59.5 L 136 80 Q 138.7 78.9 138 81.5 L 139 84 L 144 87.5 Q 143.3 89.8 145.5 89 L 161.5 102 L 164 102.5 L 163.5 104 L 168 105 L 169.5 108 L 171 107.5 Q 170.2 110.1 173.5 109 L 176.5 112 L 178.5 112 L 181 113.5 Q 180.2 116.1 183.5 115 L 186 116 L 186.5 119 L 188.5 118 L 200.5 126 L 210.5 126 L 222.5 120 L 224 120.5 L 225.5 118 L 227.5 119 L 235.5 116 Q 237 118.5 238.5 115 L 241.5 114 L 243.5 114 L 259.5 110 L 262.5 111 L 265.5 110 L 271.5 109 L 273.5 109 L 284.5 106 L 300.5 106 L 311.5 109 L 318.5 113 L 341 133.5 L 355 150.5 L 361 163.5 L 361 168.5 L 359 171.5 Q 362.3 174.7 362 181.5 L 361.5 183 L 363 183.5 L 363 190.5 L 365 198.5 L 365 202.5 L 364 204.5 L 365 206.5 L 364 208.5 L 365 211.5 L 364 218.5 L 366 222.5 L 367 231.5 L 371 236.5 L 380 254.5 L 379.5 256 Q 382.5 255.1 381 259.5 L 384 264.5 L 390 282.5 L 390 286.5 L 391 290.5 L 391 292.5 L 392 297.5 L 392 299.5 L 393 303.5 L 392 306.5 L 393 308.5 L 393 319.5 L 394 320.5 L 393 322.5 L 393 324.5 L 394 335.5 L 393 338.5 L 394 341.5 L 393 344.5 L 393 346.5 L 394 348.5 L 393 351.5 Q 394.1 354.8 391.5 354 L 392 355.5 Q 392.1 364.1 389 369.5 L 389 371.5 L 387 375.5 L 387 377.5 L 386 382 L 384 382.5 L 385 383.5 Q 381.9 385.3 383.5 387 L 382 386.5 L 383 388.5 Q 378.7 390.9 379 397 L 377 397.5 Q 379.3 398.7 376.5 400 L 330 399.5 L 331 397 L 333 397 L 333 394 L 335 394 L 335 391 Q 337.7 392.1 337 389.5 Q 340.1 387.8 338.5 386 Q 340.8 386.8 340 384.5 L 343 381.5 L 346 375.5 L 346 372.5 L 350 367.5 L 353 352.5 L 355 348.5 L 355 346.5 L 354 343.5 L 355 341.5 L 354 338.5 L 355 335.5 L 354 332.5 L 355 327.5 L 354 322.5 L 355 320.5 L 354 318.5 L 355 315.5 L 353 306.5 L 354 304.5 L 353 301.5 L 353 296.5 L 351 292.5 L 350 283.5 L 338 259.5 L 338 257 L 336 256.5 Q 338.5 255 335 253.5 L 330 244.5 L 332 243.5 L 330 243 L 327 228.5 L 327 226.5 L 325 217.5 L 326 215.5 L 326 211.5 L 325 207.5 L 326 206.5 L 326 198.5 L 324 192.5 L 324 187.5 L 322.5 186 Q 318.8 187.3 320 183.5 L 316 173.5 L 296.5 153 L 293.5 151 L 279.5 151 L 278.5 150 L 277.5 151 L 267.5 151 L 258.5 154 L 244.5 156 L 236.5 159 L 231.5 159 L 218.5 168 L 201.5 172 L 199.5 172 L 193.5 171 L 191.5 171 L 185.5 168 L 183.5 170 L 182.5 169 L 180.5 171 L 176.5 171 L 138 148.5 Q 138.8 145.9 135.5 147 L 128.5 140 L 126 140 Q 127.1 137.3 124.5 138 L 121 135.5 L 120.5 134 L 119 134.5 L 118 131 L 114 131 L 114 129.5 L 109 126.5 Q 111.8 124.7 107.5 123 L 104 122 L 103 117 Q 98.9 118.7 100 114.5 L 98 114.5 L 90.5 104 Q 88.3 104.8 89 102.5 L 84 94.5 L 84.5 93 Q 82.3 93.8 83 91.5 L 73 72.5 L 74 71.5 L 72 67.5 L 71 61.5 L 71 59.5 L 70 57.5 L 70 53.5 L 69 49.5 Q 71.5 48 68 46.5 L 69 44.5 L 67 36 L 69 35.5 Q 65.5 34 67 27.5 L 68 24.5 L 67 22.5 L 68 20.5 L 67 18.5 L 69 15.5 L 67 10.5 L 68 5.5 L 67.5 4 L 69 3.5 L 68 0 Z "></path><path fill="rgb(0,165,254)" stroke="rgb(0,165,254)" stroke-width="1" opacity="0.2980392156862745" d="M 399.5 68 L 400 71 L 374.5 74 L 332.5 84 Q 304.5 92.3 282 105 L 283.5 102 L 303.5 92 L 334.5 81 L 354.5 77 L 358.5 75 L 363.5 75 L 368.5 73 L 398.5 69 L 399.5 68 Z "></path><path fill="rgb(0,165,254)" stroke="rgb(0,165,254)" stroke-width="1" opacity="0.2980392156862745" d="M 0.5 122 L 9.5 127 L 21.5 131 L 42.5 144 L 46.5 148 L 52.5 150 L 83.5 173 L 103.5 191 L 122.5 198 L 136.5 205 L 154 219.5 L 156 222.5 L 165.5 238 L 189.5 233 L 210 220 Q 209 217 212 218 L 212 213.5 L 223 175.5 L 230.5 162 L 231 163.5 Q 218.8 186.3 214 216.5 L 208.5 223 L 189.5 235 L 164.5 240 L 155 223.5 L 144.5 213 L 124.5 201 L 103.5 193 L 56.5 155 L 26.5 136 L 0 123.5 L 0.5 122 Z "></path><path fill="rgb(0,165,254)" stroke="rgb(0,165,254)" stroke-width="1" opacity="0.2980392156862745" d="M 394.5 161 Q 401.4 159 400 163 L 388.5 164 L 363 170 Q 361.8 167 365.5 168 L 394.5 161 Z "></path><path fill="rgb(0,165,254)" stroke="rgb(0,165,254)" stroke-width="1" opacity="0.2980392156862745" d="M 0.5 173 L 31.5 192 L 52.5 208 L 77.5 230 L 98 239.5 L 96.5 240 L 95.5 239 L 67.5 236 L 52.5 232 Q 30.6 225.9 14.5 214 L 0 210 Q -1.8 205.1 4.5 207 L 16.5 212 L 27.5 220 L 40.5 226 L 43.5 226 L 58.5 232 L 67.5 233 L 71.5 235 L 83.5 236 L 83.5 235 L 79.5 234 L 72 228.5 L 68.5 224 L 28.5 192 L 19.5 188 L 11.5 181 L 0 175 L 0.5 173 Z "></path><path fill="rgb(0,165,254)" stroke="rgb(0,165,254)" stroke-width="1" opacity="0.2980392156862745" d="M 319.5 189 L 320 191.5 L 309 210.5 L 304 227.5 L 300 248.5 L 294 262.5 Q 284 279 269.5 291 Q 248.4 309.4 220.5 321 L 192.5 328 L 187.5 328 L 156.5 334 L 154.5 334 L 152.5 333 L 149 335.5 L 141 347.5 L 153 369.5 L 161 394.5 L 161 396.5 Q 162.3 401.3 159 400 L 158 390.5 L 152 372.5 L 139 346.5 L 151.5 331 L 162.5 331 L 201.5 324 L 229.5 315 Q 261.5 299 284 273.5 L 297 250.5 L 305 217.5 L 310 203.5 L 319.5 189 Z "></path><path fill="rgb(0,165,254)" stroke="rgb(0,165,254)" stroke-width="1" opacity="0.2980392156862745" d="M 0 308 L 43.5 322 L 65.5 326 L 95 329 L 91 337.5 L 90 348.5 L 92 355.5 L 109 385.5 L 114 399.5 L 112.5 400 L 111 398.5 L 109 389.5 L 98 369.5 L 97 365 L 92 361.5 L 87 351.5 L 87 349.5 L 87 341.5 L 91 330 L 81.5 330 L 73.5 328 L 71.5 328 Q 66 329.5 64.5 327 L 62.5 327 L 38.5 323 L 0 310 L 0 308 Z "></path><path fill="rgb(0,132,255)" stroke="rgb(0,132,255)" stroke-width="1" opacity="0.9921568627450981" d="M 0.5 124 L 26.5 136 L 53.5 153 L 81.5 174 L 100.5 191 L 134.5 206 Q 146.4 213.1 155 223.5 L 166 242.5 L 169 252.5 L 169 267.5 L 170 268.5 Q 167.5 270 169 275.5 L 169 277.5 L 169 291.5 L 164 309.5 L 158 320.5 L 139 347.5 Q 154.2 369.1 159 400 L 114.5 400 L 113 398.5 L 109 385.5 L 92 355.5 L 90 348.5 L 90 341.5 L 95 329.5 L 120 296.5 L 124 287.5 Q 122.7 280.7 125 277.5 L 125 275.5 L 124 259.5 L 117.5 249 L 104.5 241 L 80.5 232 L 31.5 192 L 21.5 187 L 0 172.5 L 0.5 124 Z "></path><path fill="rgb(0,174,254)" stroke="rgb(0,174,254)" stroke-width="1" opacity="1" d="M 387.5 81 L 391.5 83 L 394.5 81 L 395 84 L 398.5 85 L 399 82.5 L 397.5 83 L 396 82.5 L 400 81 L 400 115.5 L 399 116.5 L 400 117.5 L 400 128.5 L 400 130.5 Q 401.3 135.3 399 136.5 Q 401.8 138.3 400 144.5 L 400 146.5 L 398 150.5 L 399.5 153 L 396.5 150 L 393 150.5 L 392.5 149 L 391 153 L 394.5 152 L 394.5 153 L 390.5 155 L 389.5 152 L 387 152.5 L 387.5 154 L 382.5 151 L 382 153 L 384 153.5 L 381 154.5 L 383 155.5 L 380.5 157 L 378.5 155 L 375.5 156 Q 372.2 154.9 373 157.5 L 371 156.5 L 371.5 155 L 369 155.5 Q 371.3 156.8 368.5 158 L 366.5 159 L 365.5 157 L 365 159 L 363 159 Q 364.1 161.7 361.5 161 L 360 161.5 L 361 158.5 L 358 157.5 L 357 155.5 L 357.5 154 Q 354.9 154.8 356 151.5 L 337.5 130 Q 327 118 313 109.5 L 314.5 110 L 316 109.5 L 312.5 108 L 310 109 L 309.5 105 L 308.5 108 L 306 106.5 L 308 105.5 Q 305.8 104.3 308.5 103 L 312.5 103 L 316.5 104 Q 320.2 102 318.5 100 L 320.5 101 L 321.5 99 L 319 98.5 L 321.5 98 L 324 99.5 L 324.5 97 L 325.5 100 L 326.5 99 L 329 100.5 L 329.5 99 L 330.5 101 L 331 98 Q 327.7 99.3 329 94.5 L 330.5 95 L 332 95.5 L 330 96.5 L 333 97 Q 331.3 92.9 335.5 94 L 337 93.5 L 336 96 Q 338.7 97.1 338 94.5 L 339 94.5 L 339.5 96 L 340.5 94 L 342 94.5 L 342.5 92 L 345 93 L 344 90.5 L 348.5 94 L 349.5 93 L 351 92.5 Q 348.7 91.3 351.5 90 L 354.5 92 L 357 91.5 L 356 89.5 L 359 89.5 L 359.5 91 L 360.5 89 L 361 90.5 L 360.5 92 Q 363.8 93.1 363 90.5 L 362 87.5 L 363 87.5 L 363.5 89 L 364.5 87 L 366 87.5 L 366.5 86 L 368.5 86 L 373.5 89 L 373 87.5 Q 373.8 85.3 371.5 86 L 371.5 85 L 374.5 86 L 375.5 84 L 378 84.5 L 375 88.5 L 376.5 88 Q 378.8 88.8 378 86.5 L 381.5 84 L 383.5 87 L 385.5 83 L 386.5 86 L 389 85.5 L 387.5 81 Z M 392 84 Q 391 86 394 85 L 395 86 Q 396 82 392 84 Z M 391 87 Q 389 90 392 89 L 391 87 Z M 354 92 Q 352 95 355 94 L 354 92 Z M 366 92 L 364 94 L 366 94 L 366 92 Z M 347 95 L 348 96 L 350 99 L 350 97 L 347 95 Z M 334 97 L 332 99 Q 330 103 334 102 Q 332 100 335 99 L 334 97 Z M 335 100 L 335 102 L 337 101 L 335 100 Z M 322 101 Q 322 105 324 102 L 322 101 Z M 327 101 L 328 103 Q 329 100 327 101 Z M 313 105 L 311 107 L 313 107 L 313 105 Z M 390 145 L 389 148 L 390 148 L 390 145 Z M 391 145 L 391 147 L 393 146 L 391 145 Z M 364 156 L 362 159 L 364 158 L 364 156 Z "></path><path fill="rgb(0,174,254)" stroke="rgb(0,174,254)" stroke-width="1" opacity="1" d="M 381.5 82 L 384 82.5 L 381.5 83 L 381.5 82 Z "></path><path fill="rgb(0,174,254)" stroke="rgb(0,174,254)" stroke-width="1" opacity="1" d="M 368.5 83 L 369.5 85 L 368.5 83 Z "></path><path fill="rgb(0,174,254)" stroke="rgb(0,174,254)" stroke-width="1" opacity="1" d="M 278.5 150 L 279.5 151 L 293.5 151 L 311 167.5 L 314 173 Q 316.7 171.9 316 174.5 L 319 181 L 316 181.5 L 319 182.5 L 315.5 188 L 313.5 187 L 308.5 194 L 306.5 193 L 306 197.5 L 302 204.5 L 302.5 206 L 301 205.5 L 302.5 209 L 304 208.5 L 300 210.5 L 300 212.5 L 297.5 218 L 293 216.5 L 294.5 219 L 297 219.5 L 293 220.5 L 295 221 L 294 225 L 292 224.5 Q 294.3 223.3 291.5 222 Q 288.9 221.2 290 224.5 L 289.5 226 L 292 226.5 L 290 227.5 Q 292.3 228.8 289.5 230 Q 286.9 229.2 288 232.5 L 285 233.5 L 285.5 235 L 288.5 234 L 288.5 235 L 286 235.5 L 288 236.5 L 287 238.5 L 287.5 240 L 283.5 237 L 285 239.5 L 284 242.5 L 286 242.5 L 283.5 246 L 282 246.5 L 282.5 248 L 280 248 Q 281.1 250.7 278.5 250 Q 275.8 251.3 278 252.5 Q 278.8 254.8 276.5 254 L 276.5 252 L 273.5 254 L 272 257 L 275 256.5 L 274.5 255 L 276.5 258 Q 274.3 257.3 275 259.5 L 271.5 264 L 268.5 263 L 267.5 265 Q 271.9 263.5 271 266.5 Q 267.9 268.3 269.5 270 Q 265.8 269.3 265 271.5 L 266 273.5 L 263.5 275 L 261.5 271 L 261 274 Q 258 275.3 259 271.5 L 257 272.5 Q 255.5 276.9 258.5 276 L 262 275 Q 263.1 277.7 260.5 277 L 260.5 279 Q 258.3 278.3 259 280.5 L 260 281.5 L 256 285.5 L 255.5 287 L 251 284 L 252 286.5 L 250 287 L 248.5 284 L 246 288.5 Q 250.3 290.8 245.5 293 L 241.5 292 L 241.5 294 L 238.5 293 L 234.5 292 L 235 293.5 Q 234.1 296.5 238.5 295 L 238 296.5 L 239 298.5 L 237 297.5 Q 237.8 295.3 235.5 296 L 233 295 L 234.5 298 L 236 297.5 Q 236.8 299.8 234.5 299 L 231 297.5 L 231.5 296 Q 229.3 296.8 230 294.5 L 229 294.5 Q 230.3 298.7 225.5 297 L 227.5 300 L 228.5 298 L 231 301.5 L 227.5 301 L 223.5 302 L 222 301.5 Q 222.8 305.3 220.5 306 L 218.5 306 L 215.5 304 L 215 307 L 211 305.5 Q 211.8 303.3 209.5 304 L 207.5 307 L 209.5 306 L 211 309.5 L 208.5 308 L 206 309.5 L 206.5 311 L 204.5 311 L 201.5 312 L 199 310.5 L 200 312.5 L 198.5 312 L 197 312.5 L 197.5 314 L 195 312.5 L 197 311.5 L 194 311 L 194 313 Q 190.3 311.5 191 314.5 Q 189.8 317.3 188.5 315 L 185.5 314 L 182.5 315 L 181 314.5 Q 181.8 317.1 178.5 316 L 177.5 315 L 174.5 318 L 173.5 317 L 168 318 Q 166.8 315 170.5 316 L 170.5 315 L 168.5 314 Q 164.8 316 166.5 318 L 161 317 L 161.5 319 L 164 318 Q 165.3 321 161.5 320 L 159 318.5 Q 161.8 317.4 161 314 L 163 314.5 L 162.5 316 Q 165.5 316.7 164 313 L 162 312.5 L 166 304.5 L 168 296.5 L 169 277.5 L 170 276.5 Q 167.5 275 169 269.5 L 169 267.5 L 169 256.5 L 170 255.5 L 168 251.5 Q 171.1 249.8 169.5 248 L 174 249.5 L 177.5 245 L 180.5 246 L 185 244.5 L 184.5 246 Q 186.8 246.8 186 244.5 L 186.5 242 L 189.5 243 L 192 241.5 L 188 240.5 L 190.5 239 L 195 240 L 194 237.5 L 196 236.5 Q 193.8 237.8 196.5 239 L 199 238 Q 197.9 235.3 200.5 236 L 204 235 Q 202.9 232.3 205.5 233 L 207 232.5 L 207.5 235 L 209 228.5 L 208.5 227 L 212.5 229 L 213.5 222 L 215 222.5 Q 214.2 219.9 217.5 221 L 216 218.5 L 219 215.5 Q 217.7 210.9 223.5 213 L 223.5 212 L 222 211.5 L 226 210.5 L 224 209.5 L 229 207.5 L 227.5 205 L 225 206.5 L 225.5 204 L 230 202.5 L 228 199.5 L 229.5 200 Q 233.9 201.5 233 198.5 Q 235.2 197.3 232.5 196 L 232 199 L 229 197.5 L 231 197 L 230 193.5 L 230.5 191 L 233 192.5 L 232 190.5 L 234 190.5 L 234.5 189 L 235.5 192 L 237 188.5 Q 237.7 185.9 235 187 L 235 183.5 L 237 184.5 L 237.5 186 L 240 185.5 L 238.5 182 L 237 182.5 L 238 180 L 236 180 Q 237.1 182.7 234.5 182 L 237.5 178 Q 240.1 178.8 239 175.5 L 240.5 176 L 242.5 177 L 243 175 L 239 173.5 L 243 172 L 241 168.5 L 242.5 166 L 243.5 168 L 242 168.5 L 243.5 170 L 247 168.5 L 247 166 Q 243.3 167.5 244 164.5 L 247.5 162 L 249.5 163 L 249 161.5 L 248.5 160 L 246.5 161 L 248 158.5 L 249.5 155 L 252 155.5 L 249 156.5 L 249.5 159 L 255 156.5 L 253 155.5 L 259.5 153 L 261.5 154 L 263.5 152 L 272.5 151 L 274.5 151 L 278.5 150 Z M 259 155 Q 257 158 260 157 L 259 155 Z M 259 162 L 259 164 L 261 163 L 259 162 Z M 249 164 L 251 167 L 252 167 L 249 164 Z M 254 171 L 255 172 L 256 173 Q 257 170 254 171 Z M 249 172 L 245 174 L 249 174 L 250 175 L 249 172 Z M 257 173 L 255 175 L 257 175 L 257 173 Z M 240 178 L 239 180 L 242 181 L 240 178 Z M 241 182 L 241 183 L 243 183 L 241 182 Z M 241 188 L 239 190 L 242 190 L 241 188 Z M 282 189 Q 280 192 283 191 L 282 189 Z M 241 191 L 239 193 L 241 193 L 241 191 Z M 248 192 L 248 195 L 249 195 Q 250 191 248 192 Z M 234 193 L 233 196 L 236 196 L 236 194 L 234 193 Z M 234 202 L 232 204 L 234 204 L 234 202 Z M 300 204 L 299 207 L 300 207 L 300 204 Z M 297 211 L 298 212 Q 299 214 300 212 L 297 211 Z M 290 218 L 289 221 L 291 221 L 290 218 Z M 281 233 L 282 235 Q 283 232 281 233 Z M 202 236 L 202 237 L 204 237 L 202 236 Z M 281 238 L 280 241 L 281 241 L 281 238 Z M 276 240 Q 274 243 277 242 L 276 240 Z M 282 241 L 281 244 L 284 245 L 282 241 Z M 279 246 L 279 248 L 281 247 L 279 246 Z M 181 248 L 181 250 L 183 249 L 181 248 Z M 274 248 L 274 250 L 276 249 L 274 248 Z M 271 250 L 270 253 L 271 253 L 271 250 Z M 266 251 L 267 255 L 268 252 L 266 251 Z M 178 256 L 177 259 L 178 259 L 178 256 Z M 251 260 L 251 261 L 253 261 L 251 260 Z M 266 260 L 267 262 L 269 261 L 266 260 Z M 273 260 L 271 263 L 273 262 L 273 260 Z M 263 261 L 262 263 L 265 263 L 263 261 Z M 267 265 L 266 268 L 268 268 L 267 265 Z M 258 277 L 259 279 Q 260 276 258 277 Z M 257 279 L 257 281 L 256 280 L 255 283 L 257 284 Q 256 281 259 282 L 258 281 Q 259 278 257 279 Z M 254 280 L 252 283 L 254 283 L 254 280 Z M 236 287 L 234 291 L 236 291 L 236 287 Z M 240 289 L 241 291 Q 242 288 240 289 Z M 238 290 L 236 292 L 239 292 Q 240 289 238 290 Z M 245 290 Q 245 294 247 291 L 245 290 Z M 224 297 L 222 299 L 226 300 L 224 297 Z M 218 302 L 219 305 L 219 303 L 221 303 L 218 302 Z M 182 305 L 181 308 L 182 308 L 182 305 Z M 206 306 L 204 308 L 207 308 L 206 306 Z M 192 307 L 192 309 L 194 308 L 192 307 Z M 184 308 L 183 311 L 184 311 L 184 308 Z M 182 311 L 180 314 L 182 313 L 182 311 Z M 173 313 L 171 315 L 173 315 L 173 313 Z "></path><path fill="rgb(0,174,254)" stroke="rgb(0,174,254)" stroke-width="1" opacity="1" d="M 368.5 159 L 371 159.5 Q 368.9 162.8 368.5 159 Z "></path><path fill="rgb(0,174,254)" stroke="rgb(0,174,254)" stroke-width="1" opacity="1" d="M 240.5 170 L 239.5 172 L 240.5 170 Z "></path><path fill="rgb(0,174,254)" stroke="rgb(0,174,254)" stroke-width="1" opacity="1" d="M 236 175 L 238 175.5 L 236 176.5 L 236 175 Z "></path><path fill="rgb(0,174,254)" stroke="rgb(0,174,254)" stroke-width="1" opacity="1" d="M 20.5 229 L 20.5 231 Q 23.8 232.1 23 229.5 L 25 230.5 L 19 232 L 20.5 229 Z "></path><path fill="rgb(0,174,254)" stroke="rgb(0,174,254)" stroke-width="1" opacity="1" d="M 29.5 230 L 32.5 233 L 33.5 232 L 35 232.5 L 34.5 234 L 37.5 233 L 36.5 236 L 39.5 234 L 39 235.5 L 39.5 237 L 41.5 234 L 42 235.5 Q 39.8 236.7 42.5 238 L 44.5 237 L 48 239.5 L 47.5 241 L 51.5 241 Q 50.5 237.8 56.5 239 L 58.5 243 Q 60.5 239 62.5 243 L 66.5 244 L 67.5 242 L 69.5 245 Q 71.2 242.3 73 246.5 L 73.5 248 L 75 247.5 L 75.5 249 L 76.5 245 L 77.5 247 L 81.5 245 L 83.5 245 L 86 247.5 L 83 248.5 L 84.5 251 L 85 249 L 87.5 250 L 88.5 249 L 91 250.5 L 92.5 247 L 94.5 250 L 95 247 L 97 247 Q 95.5 250.8 98.5 250 L 98.5 248 L 101.5 247 L 105.5 249 L 107.5 249 L 109 249.5 L 107.5 250 L 105.5 250 L 104 250.5 L 107 251.5 L 105 252 L 105.5 254 L 107.5 253 L 109 253.5 Q 108.3 251.3 110.5 252 L 110.5 250 L 112.5 249 L 113.5 251 L 112 251.5 L 115.5 253 L 116 251.5 L 115.5 250 L 117.5 251 L 119 250.5 L 118.5 252 L 120 252.5 L 119 254.5 L 121 254.5 L 120.5 256 L 123 257.5 L 125 265.5 L 125 275.5 L 125 277.5 L 123 290.5 L 109.5 311 L 108 311.5 Q 110.8 313.2 106.5 315 L 105 315 L 105 318 Q 102.3 316.9 103 319.5 L 101.5 319 L 99 320.5 L 98.5 322 L 98 319 L 96 318.5 L 97.5 318 Q 98.7 320.3 100 317.5 L 99.5 314 L 98.5 317 L 93.5 314 L 93 315.5 L 94 317.5 Q 92.8 320.3 91.5 318 Q 89.3 318.8 90 316.5 L 92 316.5 Q 92.7 313.5 89 315 L 89 312.5 L 88 312.5 Q 88.8 314.8 86.5 314 L 84.5 314 L 79.5 315 L 78.5 312 L 77.5 317 Q 76 313.5 74.5 316 L 72 314.5 L 73 312.5 L 69.5 311 L 69 313 Q 72 311.8 71 315.5 L 70 315.5 Q 70.9 312.5 66.5 314 L 67.5 316 L 69 315.5 L 66 317 L 63.5 312 L 60.5 314 L 57.5 313 L 54 313 Q 55.5 309.3 52.5 310 L 52.5 312 L 50.5 309 L 49.5 311 L 48.5 309 L 47.5 311 L 42.5 309 L 42.5 311 L 40.5 310 L 39 310.5 L 39 307 Q 35.2 308.5 36 305.5 L 35 305.5 Q 35.8 307.8 33.5 307 L 33.5 308 L 36 308.5 L 33.5 309 L 30 308 L 29.5 305 L 28.5 307 L 26.5 304 L 28.5 305 L 29 303.5 Q 27.8 300.8 26.5 303 L 23.5 302 L 22 304.5 L 22.5 306 L 19 303.5 L 23 302 L 22.5 298 L 20 299.5 L 20.5 301 L 18.5 298 L 17 299.5 L 18.5 302 L 15.5 301 L 12.5 303 Q 14.2 301 10.5 299 L 8.5 300 L 4 297.5 L 6 296.5 L 5.5 294 L 3 294.5 Q 5.2 295.7 2.5 297 L 0 296.5 L 1.5 294 Q -1.3 294.6 0 288.5 L 1 286.5 L 0 284 Q 2.7 285.1 2 282.5 L 0 282.5 L 0 280.5 Q -1.5 276.1 1.5 277 L 1.5 276 Q -1.3 276.6 0 270.5 L 0 268.5 L 2 265.5 L 0.5 263 L 2 263.5 L 1.5 261 L 0 261.5 L 1 258.5 L 0 256.5 L 0 254.5 L 1 252.5 L 0 250.5 L 0.5 248 L 2 248.5 L 0 245.5 L 2.5 244 L 2.5 246 L 4.5 245 L 5.5 247 L 8 245.5 L 5 243.5 L 6 241 L 9 240.5 L 7 240 L 6 237.5 L 7.5 238 L 10 236.5 Q 8.9 233.2 11.5 234 L 11 235.5 L 11.5 238 L 13.5 235 L 15.5 236 L 14 233.5 L 14.5 232 L 16 232.5 L 16.5 231 L 22.5 234 Q 24.3 230.9 26 232.5 L 26.5 231 L 28 233.5 L 26 233.5 Q 25.2 236.1 28.5 235 L 31 232.5 L 29.5 230 Z M 16 233 Q 15 236 18 235 Q 19 232 16 233 Z M 23 235 L 20 236 L 21 238 L 23 237 L 23 235 Z M 33 235 L 30 237 Q 32 240 33 237 L 33 235 Z M 19 237 L 17 239 L 20 239 L 19 237 Z M 38 237 L 36 240 L 38 240 L 38 237 Z M 19 240 L 21 243 L 21 242 L 19 240 Z M 56 240 L 54 242 L 57 242 Q 58 239 56 240 Z M 10 242 L 11 245 L 11 243 L 13 243 L 10 242 Z M 8 243 L 9 245 Q 10 242 8 243 Z M 21 244 L 19 246 L 22 246 L 21 244 Z M 59 244 L 60 246 Q 61 243 59 244 Z M 65 244 L 63 246 L 65 246 L 65 244 Z M 54 245 Q 52 248 55 247 L 54 245 Z M 69 245 L 68 248 L 72 247 L 69 245 Z M 3 247 L 3 249 L 5 248 L 3 247 Z M 79 247 L 79 248 L 81 248 L 79 247 Z M 6 248 Q 6 252 8 249 L 6 248 Z M 5 249 L 3 252 L 5 251 L 5 249 Z M 16 249 L 16 250 L 18 250 L 16 249 Z M 93 249 Q 91 252 94 251 L 93 249 Z M 103 249 L 102 252 L 104 253 L 103 249 Z M 12 251 L 12 253 L 14 252 L 12 251 Z M 120 256 L 118 259 L 120 259 L 120 256 Z M 2 285 L 2 286 L 4 286 L 2 285 Z M 5 289 L 4 292 L 5 292 L 5 289 Z M 8 294 L 8 298 L 10 295 L 8 294 Z M 14 297 L 14 298 Q 16 297 15 300 L 17 299 L 14 297 Z M 14 299 Q 12 302 15 301 L 14 299 Z M 30 303 L 30 305 L 32 304 L 30 303 Z M 33 304 Q 30 306 33 307 Q 36 306 33 304 Z M 42 304 Q 40 307 43 306 L 42 304 Z M 62 304 Q 60 307 63 306 L 62 304 Z M 54 305 Q 51 309 56 308 L 54 305 Z M 62 308 Q 60 311 63 310 L 62 308 Z M 57 309 L 55 312 L 58 312 L 59 313 Q 60 310 57 311 L 57 309 Z M 71 309 L 72 311 Q 73 308 71 309 Z "></path><path fill="rgb(0,174,254)" stroke="rgb(0,174,254)" stroke-width="1" opacity="1" d="M 8.5 234 L 9 236 L 7 235.5 L 8.5 234 Z "></path><path fill="rgb(0,174,254)" stroke="rgb(0,174,254)" stroke-width="1" opacity="1" d="M 0.5 241 L 1.5 243 L 0.5 241 Z "></path><path fill="rgb(0,174,254)" stroke="rgb(0,174,254)" stroke-width="1" opacity="1" d="M 280 252 L 282 252.5 L 280 253.5 L 280 252 Z "></path><path fill="rgb(0,174,254)" stroke="rgb(0,174,254)" stroke-width="1" opacity="1" d="M 87.5 315 Q 90.5 316.5 87.5 318 Q 84.2 319.1 85 316.5 L 86.5 317 L 88 316.5 L 87.5 315 Z "></path><path fill="rgb(0,174,254)" stroke="rgb(0,174,254)" stroke-width="1" opacity="1" d="M 79 316 L 81.5 317 L 83 316.5 L 82.5 319 L 80.5 318 L 78.5 319 L 79 317.5 L 79 316 Z "></path><path fill="rgb(0,174,254)" stroke="rgb(0,174,254)" stroke-width="1" opacity="1" d="M 182.5 316 L 184 318.5 L 181.5 320 L 181.5 319 L 183 318.5 L 180 317.5 L 182.5 316 Z "></path><path fill="rgb(0,174,254)" stroke="rgb(0,174,254)" stroke-width="1" opacity="1" d="M 187.5 316 L 186.5 318 L 185 317.5 L 187.5 316 Z "></path><path fill="rgb(0,174,254)" stroke="rgb(0,174,254)" stroke-width="1" opacity="1" d="M 69.5 317 L 72 317.5 L 69.5 318 L 69.5 317 Z "></path><path fill="rgb(0,174,254)" stroke="rgb(0,174,254)" stroke-width="1" opacity="1" d="M 85.5 319 L 84.5 321 L 85.5 319 Z "></path><path fill="rgb(0,174,254)" stroke="rgb(0,174,254)" stroke-width="1" opacity="0.9921568627450981" d="M 394.5 74 L 400 74 L 400 76.5 L 399 78.5 Q 401.8 80.3 397.5 82 L 399 79.5 L 396.5 77 L 395.5 79 L 394.5 77 L 394 79 L 391.5 80 L 389.5 80 L 386.5 82 L 384.5 81 L 383 81.5 L 383.5 80 L 380 80.5 L 380.5 84 L 378 83 Q 379 80 376 81 L 377 83.5 L 372 83.5 L 371.5 81 L 370.5 83 L 368.5 82 L 364 83 Q 365 86 362 85 L 361.5 83 L 359 84 L 358.5 86 Q 357.3 83.8 356 86.5 L 358 89.5 L 356 88.5 L 354.5 85 L 351.5 89 L 350.5 88 L 348 89.5 L 348.5 88 L 346.5 89 L 345 88.5 L 346 90.5 L 344 91.5 Q 346.3 90.3 343.5 89 L 340 89.5 L 340.5 91 Q 337.2 89.9 338 92.5 L 336.5 92 L 333.5 91 L 334.5 94 Q 331.9 94.7 333 92 L 330 92 L 328.5 95 L 327.5 93 L 326.5 96 L 324 95 L 322.5 99 L 322 97.5 Q 324.3 96.3 321.5 95 L 321 98 L 318.5 97 L 316 98 Q 317.1 100.7 314.5 100 L 313 100.5 L 312.5 99 L 310 100 L 309.5 102 L 308.5 101 L 304 105.5 L 304.5 107 Q 303 103.5 301.5 106 L 290 105.5 L 297 103 L 297.5 101 L 299.5 101 L 310.5 95 L 351.5 82 L 353.5 82 L 394.5 74 Z "></path><path fill="rgb(0,174,254)" stroke="rgb(0,174,254)" stroke-width="1" opacity="0.9921568627450981" d="M 349.5 92 L 348.5 94 L 349.5 92 Z "></path><path fill="rgb(0,174,254)" stroke="rgb(0,174,254)" stroke-width="1" opacity="0.9921568627450981" d="M 398.5 153 L 400 156.5 Q 400.9 159.9 395.5 158 L 384.5 161 L 382.5 161 L 361 166 L 361.5 162 L 363.5 162 L 368.5 160 L 372.5 160 L 374.5 159 L 377.5 160 L 379 158.5 L 379.5 157 L 381.5 158 L 385.5 156 Q 387 158.5 388.5 155 Q 391.8 153.9 391 156.5 L 393 155.5 L 392.5 154 L 396.5 154 L 398.5 153 Z "></path><path fill="rgb(0,174,254)" stroke="rgb(0,174,254)" stroke-width="1" opacity="0.9921568627450981" d="M 241.5 157 L 243 161.5 Q 237.3 164.3 237 171 L 239 171.5 L 237.5 172 L 236 171.5 L 235 176.5 L 236 178.5 L 234.5 181 L 234 178.5 L 234.5 177 Q 232.3 176.3 233 178.5 L 233 180.5 L 232 182.5 L 232.5 184 L 230.5 183 L 230 185 L 232 185.5 L 231 187.5 L 231.5 189 Q 229.7 186.2 228 190.5 L 229 192.5 L 227 194.5 L 228 195.5 Q 224.9 197.3 226.5 199 L 225 198.5 L 226 202.5 L 224 202.5 L 225 204.5 L 223 207.5 L 223.5 209 L 222 208.5 Q 223.1 211.8 220.5 211 L 217 217 Q 214.3 215.9 215 218.5 L 211 224.5 L 211.5 226 L 210 225.5 Q 210.8 227.8 208.5 227 L 209 228.5 L 208.5 230 Q 207.3 227.8 206 230.5 L 203.5 234 L 203.5 232 Q 200.9 231.3 202 234 L 198.5 234 L 194.5 236 L 193 236.5 L 193.5 238 L 190.5 237 L 189 240 Q 186 239 187 242 L 184 242 L 183.5 240 L 179.5 245 L 176.5 244 L 172 245 L 170.5 248 L 169.5 245 L 167.5 245 Q 164.5 245.7 166 242 Q 172.3 243 175.5 240 L 177.5 240 L 180.5 240 L 199.5 232 L 213 220.5 L 221 203.5 L 223 192.5 L 230 176.5 L 230 173.5 L 232 171.5 L 232 168.5 L 238.5 158 L 241.5 157 Z "></path><path fill="rgb(0,174,254)" stroke="rgb(0,174,254)" stroke-width="1" opacity="0.9921568627450981" d="M 243.5 157 L 245 159.5 L 243 158.5 L 243.5 157 Z "></path><path fill="rgb(0,174,254)" stroke="rgb(0,174,254)" stroke-width="1" opacity="0.9921568627450981" d="M 238.5 173 L 239.5 175 L 238.5 173 Z "></path><path fill="rgb(0,174,254)" stroke="rgb(0,174,254)" stroke-width="1" opacity="0.9921568627450981" d="M 319.5 184 L 320 186.5 L 311 197.5 L 306 210.5 L 304 212.5 L 304 214.5 L 296 240.5 Q 292.8 242.3 293 247.5 L 290 250.5 L 290 253.5 L 283 263.5 L 282 268 L 279 269.5 Q 273.8 279.3 265.5 286 Q 263.3 285.3 264 287.5 L 252 296 Q 253.1 298.7 250.5 298 L 229.5 310 L 191.5 323 L 189.5 322 L 180.5 325 L 178.5 324 L 172.5 326 L 154.5 327 L 153.5 328 L 154 326.5 L 156.5 323 L 168 321 L 168.5 323 L 169.5 321 L 171.5 322 L 171 320.5 L 170.5 319 L 169 319.5 Q 170.5 316.5 172 319.5 L 172.5 321 Q 174 318.5 175.5 322 Q 177.3 318.9 179 320.5 Q 178.3 318.3 180.5 319 L 182 318.5 L 180.5 321 L 186.5 318 L 190 319 L 190.5 317 L 191.5 319 L 192.5 317 L 194.5 317 L 196 316.5 L 195.5 315 L 198.5 317 L 202 314.5 L 202.5 316 L 204.5 313 L 205.5 314 L 210 310.5 L 209.5 312 L 211.5 311 L 213 311.5 L 215.5 308 L 218.5 308 L 224.5 305 L 226 305.5 L 225 303.5 L 227.5 305 L 229 304.5 L 228 302 L 231.5 304 L 234 302.5 L 233.5 301 L 237 300 L 236 297.5 L 238.5 299 L 240 298.5 L 239.5 297 L 243 296.5 L 242.5 295 L 245 296.5 L 244 293.5 L 246.5 295 Q 248.8 295.8 248 293.5 L 250.5 290 L 253.5 288 L 255 288.5 L 257.5 285 L 260 284.5 L 258 283.5 L 260.5 280 L 262.5 283 L 264 281.5 L 262.5 279 L 264 279.5 Q 263.3 277.3 265.5 278 L 267 278.5 L 268 275.5 Q 265.8 274.3 268.5 273 L 271 274.5 L 270 272.5 L 271 269 Q 274 270.3 273 266.5 L 272.5 265 L 274.5 268 L 276 266.5 L 275.5 263 L 277 263.5 L 277.5 261 L 279 261.5 L 276 256.5 L 278.5 258 L 279.5 257 L 281.5 256 L 283 256.5 L 284 252.5 L 282.5 250 L 285 251 L 285.5 249 L 287 249.5 Q 287.8 246.9 284.5 248 L 283 248.5 L 287 245.5 L 287 243.5 L 286 240.5 L 287 240.5 L 287.5 242 L 292 238.5 Q 292.8 236.3 290.5 237 L 290.5 236 L 294 234.5 L 293.5 233 L 295 232.5 L 293 227.5 L 294.5 227 L 296 227.5 Q 294.9 224.2 297.5 225 L 297 223.5 L 299 218 L 301 217.5 L 299 216.5 L 301 213.5 L 300.5 212 Q 302.8 212.8 302 210.5 L 303.5 208 L 302 207.5 L 305 205.5 L 306 203.5 L 305.5 202 Q 307.8 202.8 307 200.5 Q 310.5 199 308 197.5 L 309.5 195 L 311 194.5 Q 308.8 193.3 311.5 192 Q 313.8 192.8 313 190.5 L 312.5 189 L 314 189.5 Q 313.3 187.3 315.5 188 L 319 185.5 L 319.5 184 Z "></path><path fill="rgb(0,174,254)" stroke="rgb(0,174,254)" stroke-width="1" opacity="0.9921568627450981" d="M 9.5 220 L 13.5 220 L 15.5 221 L 17.5 221 L 25.5 223 Q 37.7 230.8 53.5 235 L 97.5 243 L 99.5 243 Q 105 241.5 106.5 244 L 108.5 243 L 114 247.5 L 111.5 248 L 109.5 247 L 106.5 248 L 100.5 246 L 100.5 248 Q 98.3 248.8 99 246.5 L 95 245.5 L 94.5 247 L 94 245 L 89 245.5 L 92 246.5 L 89.5 247 L 86.5 245 L 84.5 245 L 81.5 243 L 77.5 244 L 74.5 243 L 71.5 245 L 71.5 244 Q 73.8 244.8 73 242.5 Q 71.8 239.8 70.5 242 L 69 242.5 L 69.5 244 L 68 241 L 62.5 239 L 58.5 241 L 57.5 238 L 54.5 239 L 51.5 238 L 47 237 Q 48.8 232.1 42.5 234 L 33.5 230 L 33.5 232 Q 31.3 232.8 32 230.5 L 32.5 229 Q 28.1 230.5 29 227.5 L 27 228.5 L 27.5 230 L 26 228.5 L 27.5 226 L 24.5 227 L 20.5 225 L 19 226.5 Q 19.9 229.5 15.5 228 L 14.5 231 L 13.5 230 L 11 231.5 Q 10.3 229.3 12.5 230 L 13.5 228 L 9 229.5 L 9.5 233 L 8 232.5 L 7.5 235 L 6 232.5 L 6.5 231 L 1 233.5 L 0.5 235 L 0 222 L 9.5 220 Z M 14 226 L 14 228 L 16 227 L 14 226 Z "></path><path fill="rgb(0,174,254)" stroke="rgb(0,174,254)" stroke-width="1" opacity="0.9921568627450981" d="M 4.5 233 L 5.5 235 L 4.5 233 Z "></path><path fill="rgb(0,174,254)" stroke="rgb(0,174,254)" stroke-width="1" opacity="0.9921568627450981" d="M 5.5 236 L 4.5 238 L 5.5 236 Z "></path><path fill="rgb(0,174,254)" stroke="rgb(0,174,254)" stroke-width="1" opacity="0.9921568627450981" d="M 1.5 237 L 0.5 239 L 1.5 237 Z "></path><path fill="rgb(0,174,254)" stroke="rgb(0,174,254)" stroke-width="1" opacity="0.9921568627450981" d="M 6.5 239 L 7.5 241 Q 4.7 241.7 6.5 239 Z "></path><path fill="rgb(0,174,254)" stroke="rgb(0,174,254)" stroke-width="1" opacity="0.9921568627450981" d="M 278.5 254 L 279.5 256 L 278.5 254 Z "></path><path fill="rgb(0,174,254)" stroke="rgb(0,174,254)" stroke-width="1" opacity="0.9921568627450981" d="M 264.5 275 L 266 275.5 L 262.5 278 L 264.5 275 Z "></path><path fill="rgb(0,174,254)" stroke="rgb(0,174,254)" stroke-width="1" opacity="0.9921568627450981" d="M 0.5 295 L 1.5 297 L 0.5 295 Z "></path><path fill="rgb(0,174,254)" stroke="rgb(0,174,254)" stroke-width="1" opacity="0.9921568627450981" d="M 3.5 297 L 3.5 299 L 7 300 L 7.5 302 L 8 300 L 10 300.5 Q 7.8 301.8 10.5 303 L 15 303 Q 13.9 305.7 16.5 305 L 19.5 307 L 20.5 305 L 17 303.5 L 18.5 304 L 29 308 L 29 310 L 33 310 L 33 311.5 Q 34.5 314.5 36 311.5 L 35.5 310 L 38 311 L 38.5 313 L 40.5 312 L 41.5 313 L 44 311.5 L 44 313.5 L 44.5 315 L 45 313 Q 47.7 311.9 47 314.5 L 49.5 315 L 53.5 316 L 53.5 314 Q 55.3 317.1 57 315.5 L 57.5 317 L 59.5 316 L 62.5 318 L 62.5 316 L 65 317 L 65.5 319 L 66.5 317 L 68.5 320 L 69 318 L 71 318.5 L 70.5 320 Q 73.8 321.1 73 318.5 L 72 316.5 L 74.5 318 L 76 318.5 L 75.5 320 L 77.5 319 Q 79 321.5 80.5 318 L 82 318.5 L 81.5 320 L 84.5 321 L 86.5 320 L 89.5 322 L 91.5 322 L 97.5 321 L 97.5 323 L 100.5 322 L 98 325.5 L 97.5 327 L 93.5 325 L 91.5 325 L 79.5 325 L 74.5 323 L 56.5 321 L 47.5 318 L 45.5 318 L 30.5 315 L 27.5 313 L 25.5 313 L 0 304 Q -1.3 299.4 1.5 298 L 3.5 297 Z M 3 300 L 3 301 L 5 301 L 3 300 Z M 23 307 L 23 309 L 25 308 L 23 307 Z "></path><path fill="rgb(0,174,254)" stroke="rgb(0,174,254)" stroke-width="1" opacity="0.996078431372549" d="M 394.5 77 L 395.5 79 L 396.5 77 L 399 78.5 L 399.5 77 L 400 78.5 L 399.5 81 Q 397.7 78.3 396 82.5 L 397.5 83 L 399 82.5 L 398.5 85 L 395 84 L 394.5 86 L 391 84.5 L 395 84 L 394.5 81 L 389 83 Q 388.2 87.2 392 88.5 L 390 89 L 388.5 86 Q 387.3 88.3 386 85.5 L 385.5 83 L 382.5 88 L 383 86.5 L 382.5 85 L 380.5 85 L 378 86.5 Q 378.8 88.8 376.5 88 L 375 88.5 L 377 85.5 L 375 84.5 L 374.5 86 L 371.5 85 L 371.5 86 Q 373.8 85.3 373 87.5 L 373.5 89 L 368.5 86 Q 370.1 87.8 367 89.5 L 366.5 91 L 366 89.5 Q 369.5 88 367 86.5 L 366.5 85 L 365.5 88 L 364 87.5 L 363.5 89 L 363 87 L 361 87.5 L 363 92 L 359.5 93 Q 356.8 91.8 359 90.5 L 357 87.5 L 356 87.5 L 357 91.5 L 354 92.5 L 354.5 94 L 352.5 90 L 350 91.5 L 350.5 93 L 348.5 93 L 346 91.5 L 345 88.5 L 347.5 88 L 350.5 86 L 351.5 89 L 354.5 85 L 355.5 87 Q 357.3 83.9 359 85.5 L 358 83.5 L 359.5 84 L 361.5 83 L 362 85 Q 365 86 364 83 L 367.5 83 L 369.5 82 L 371 82.5 L 371.5 81 L 372 82.5 L 371.5 84 L 374.5 82 L 376 82.5 Q 375.3 79.9 378 81 Q 376.9 83.7 379.5 83 L 380.5 80 L 388 82 Q 386.9 79.3 389.5 80 L 389.5 78 L 392.5 79 Q 395 79.7 394.5 77 Z M 384 81 L 381 83 L 384 83 L 384 81 Z M 350 88 L 348 90 L 350 90 L 350 88 Z "></path><path fill="rgb(0,174,254)" stroke="rgb(0,174,254)" stroke-width="1" opacity="0.996078431372549" d="M 340.5 89 Q 345.3 87.3 344 91.5 L 344.5 93 L 342.5 92 L 341.5 95 L 338 94.5 Q 338.7 97.1 336 96 L 333.5 92 L 333 96.5 L 335 98.5 Q 331.9 100.3 333.5 102 Q 330.5 102.9 332 98.5 L 332.5 97 L 330 96.5 L 332 95.5 L 330 95 Q 328.3 90.9 332.5 92 L 336.5 90 L 336.5 91 L 335 91.5 L 337.5 93 L 338 91 L 341 90.5 L 340.5 89 Z "></path><path fill="rgb(0,174,254)" stroke="rgb(0,174,254)" stroke-width="1" opacity="0.996078431372549" d="M 370.5 89 L 372 91.5 L 369.5 93 L 369.5 92 Q 371.8 92.8 371 90.5 L 369.5 91 L 368 90.5 L 370.5 89 Z "></path><path fill="rgb(0,174,254)" stroke="rgb(0,174,254)" stroke-width="1" opacity="0.996078431372549" d="M 392.5 90 L 391.5 92 L 392.5 90 Z "></path><path fill="rgb(0,174,254)" stroke="rgb(0,174,254)" stroke-width="1" opacity="0.996078431372549" d="M 365.5 92 L 366 94 L 364 93.5 L 365.5 92 Z "></path><path fill="rgb(0,174,254)" stroke="rgb(0,174,254)" stroke-width="1" opacity="0.996078431372549" d="M 327.5 93 L 329 98 Q 332 96.8 331 100.5 L 330 100.5 L 329.5 99 L 328.5 101 L 326.5 99 L 321 103.5 Q 323.8 101.8 319.5 100 L 318 100.5 L 319.5 103 Q 318 100.5 316.5 104 L 314 104.5 L 316.5 106 L 318 105.5 Q 316.8 108.3 315.5 106 L 313.5 105 L 313 107 L 311 106.5 L 313.5 103 L 310 105.5 L 309.5 109 L 308.5 107 L 306.5 108 L 304.5 106 L 301 106.5 L 301.5 104 L 303.5 106 L 308.5 101 L 310 101.5 Q 309.3 99.3 311.5 100 L 313 99.5 L 313.5 101 L 316 100 L 315 97.5 L 316.5 98 L 318.5 97 L 319 99 L 322 99.5 L 321.5 101 L 324 100.5 L 322.5 97 L 321 97.5 L 321.5 95 L 324 96.5 Q 323.3 93.9 326 95 L 326.5 97 L 327.5 93 Z M 325 97 L 324 100 L 325 100 L 325 97 Z M 308 104 L 306 107 L 308 107 Q 311 106 308 104 Z "></path><path fill="rgb(0,174,254)" stroke="rgb(0,174,254)" stroke-width="1" opacity="0.996078431372549" d="M 344.5 94 L 349.5 96 L 352 94.5 L 349.5 99 L 347.5 96 Q 343.7 95.8 344.5 94 Z "></path><path fill="rgb(0,174,254)" stroke="rgb(0,174,254)" stroke-width="1" opacity="0.996078431372549" d="M 368.5 94 L 370 96.5 L 368 95.5 L 368.5 94 Z "></path><path fill="rgb(0,174,254)" stroke="rgb(0,174,254)" stroke-width="1" opacity="0.996078431372549" d="M 374.5 94 L 375.5 98 Q 371 96 374.5 94 Z "></path><path fill="rgb(0,174,254)" stroke="rgb(0,174,254)" stroke-width="1" opacity="0.996078431372549" d="M 381.5 94 L 380.5 96 L 381.5 94 Z "></path><path fill="rgb(0,174,254)" stroke="rgb(0,174,254)" stroke-width="1" opacity="0.996078431372549" d="M 385.5 95 L 386.5 97 L 385.5 95 Z "></path><path fill="rgb(0,174,254)" stroke="rgb(0,174,254)" stroke-width="1" opacity="0.996078431372549" d="M 346.5 97 L 348 98.5 L 347.5 101 L 345.5 100 L 344 100.5 L 347 98.5 L 346.5 97 Z "></path><path fill="rgb(0,174,254)" stroke="rgb(0,174,254)" stroke-width="1" opacity="0.996078431372549" d="M 357.5 97 L 356.5 99 L 357.5 97 Z "></path><path fill="rgb(0,174,254)" stroke="rgb(0,174,254)" stroke-width="1" opacity="0.996078431372549" d="M 335 100 L 337 100.5 L 335 101.5 L 335 100 Z "></path><path fill="rgb(0,174,254)" stroke="rgb(0,174,254)" stroke-width="1" opacity="0.996078431372549" d="M 326.5 101 L 329.5 105 L 331.5 104 L 331.5 105 L 329.5 106 L 327 105.5 L 328 103.5 L 326 103.5 L 326.5 101 Z "></path><path fill="rgb(0,174,254)" stroke="rgb(0,174,254)" stroke-width="1" opacity="0.996078431372549" d="M 320.5 105 Q 318.9 106.8 322 108.5 L 321.5 110 L 319 106.5 L 320.5 105 Z "></path><path fill="rgb(0,174,254)" stroke="rgb(0,174,254)" stroke-width="1" opacity="0.996078431372549" d="M 312 108 L 316 109.5 L 314.5 110 L 312 109.5 L 312 108 Z "></path><path fill="rgb(0,174,254)" stroke="rgb(0,174,254)" stroke-width="1" opacity="0.996078431372549" d="M 326.5 109 L 325.5 111 L 326.5 109 Z "></path><path fill="rgb(0,174,254)" stroke="rgb(0,174,254)" stroke-width="1" opacity="0.996078431372549" d="M 321.5 111 L 320.5 113 L 321.5 111 Z "></path><path fill="rgb(0,174,254)" stroke="rgb(0,174,254)" stroke-width="1" opacity="0.996078431372549" d="M 375.5 134 L 374.5 136 L 375.5 134 Z "></path><path fill="rgb(0,174,254)" stroke="rgb(0,174,254)" stroke-width="1" opacity="0.996078431372549" d="M 393.5 144 L 391.5 147 L 391 145 L 393.5 144 Z "></path><path fill="rgb(0,174,254)" stroke="rgb(0,174,254)" stroke-width="1" opacity="0.996078431372549" d="M 389.5 145 L 390 147.5 L 389 147.5 L 389.5 145 Z "></path><path fill="rgb(0,174,254)" stroke="rgb(0,174,254)" stroke-width="1" opacity="0.996078431372549" d="M 397.5 147 L 396.5 149 L 397.5 147 Z "></path><path fill="rgb(0,174,254)" stroke="rgb(0,174,254)" stroke-width="1" opacity="0.996078431372549" d="M 373.5 148 L 372.5 150 L 373.5 148 Z "></path><path fill="rgb(0,174,254)" stroke="rgb(0,174,254)" stroke-width="1" opacity="0.996078431372549" d="M 393.5 148 L 393 149.5 L 393.5 151 L 396.5 150 L 399 151.5 L 399.5 149 L 400 151.5 L 399.5 156 L 397 155.5 L 397.5 154 L 395.5 155 L 394.5 154 L 391 156.5 L 390.5 154 L 388 155.5 L 388.5 157 L 384.5 157 L 380.5 158 L 379 157.5 L 377.5 160 L 373.5 160 L 371.5 161 L 370.5 159 L 368 159.5 Q 368.8 161.8 366.5 161 L 362.5 163 L 360 162.5 L 360.5 161 Q 358.3 161.8 359 159.5 L 361 158.5 Q 360 162.3 363 161 L 362 157.5 L 364 156.5 L 363 158.5 L 365 159 L 365.5 157 L 366.5 159 L 369 157.5 L 367.5 155 L 369.5 155 L 373 153.5 L 374.5 151 L 374 152.5 L 371 156.5 L 373 157.5 L 373.5 156 Q 374.8 158.3 376 155.5 L 375.5 154 L 377.5 156 L 381 154.5 L 380.5 153 L 381.5 156 Q 383.8 156.8 383 154.5 L 383.5 153 Q 381.3 153.8 382 151.5 L 384 150.5 L 383.5 152 L 386.5 153 L 389.5 152 L 391 152.5 L 390 149.5 Q 391.8 151.1 393.5 148 Z M 394 152 L 394 153 L 397 153 L 394 152 Z M 392 153 L 393 155 Q 394 152 392 153 Z "></path><path fill="rgb(0,174,254)" stroke="rgb(0,174,254)" stroke-width="1" opacity="0.996078431372549" d="M 363.5 150 L 365.5 150 L 367 150.5 L 365 151 L 365.5 153 L 367 152.5 Q 365.5 155.5 364 152.5 L 363.5 150 Z "></path><path fill="rgb(0,174,254)" stroke="rgb(0,174,254)" stroke-width="1" opacity="0.996078431372549" d="M 376.5 152 L 377.5 154 L 376.5 152 Z "></path><path fill="rgb(0,174,254)" stroke="rgb(0,174,254)" stroke-width="1" opacity="0.996078431372549" d="M 253.5 154 L 253.5 156 L 255.5 155 L 254.5 157 L 250 158.5 L 250.5 160 L 249 157 L 251 156.5 L 250.5 155 Q 252 157.5 253.5 154 Z "></path><path fill="rgb(0,174,254)" stroke="rgb(0,174,254)" stroke-width="1" opacity="0.996078431372549" d="M 248.5 155 L 248 156.5 L 246 160.5 L 247.5 161 L 249 160.5 L 251 163.5 L 250 164.5 L 251.5 167 L 248 164.5 L 250 163.5 L 247.5 162 L 244 164.5 Q 243.2 167.5 247 166 L 247 168.5 L 243 170.5 Q 243.8 172.8 241.5 172 L 241.5 175 Q 243.8 174.3 243 176.5 L 241.5 176 Q 239.3 176.8 240 174.5 L 240.5 173 L 238 173.5 L 239.5 178 L 241 177.5 L 240 178.5 L 241.5 181 L 239 179.5 Q 239.8 177.3 237.5 178 L 236.5 180 Q 238.8 179.3 238 181.5 L 240 185.5 L 237 185.5 L 235.5 183 L 235 187 Q 237.7 185.9 237 188.5 Q 239.8 190.2 235.5 192 L 234.5 189 L 232.5 193 Q 231.3 190.7 230 193.5 L 231 197 L 229 197.5 L 232 199 L 234 193 L 236 193.5 Q 233.7 194.8 236.5 196 L 238 195.5 L 235.5 199 L 235 197.5 L 235.5 196 L 233 196.5 L 233 198.5 L 233 200 L 229 200 L 229 201.5 L 231 201.5 L 229.5 205 L 229.5 203 L 224 204 L 225 198.5 L 228 195.5 Q 225.5 194 229 192.5 L 228 190.5 L 232 185.5 L 230 185 L 230.5 183 L 232.5 184 L 233 181.5 L 232 179.5 L 233 177 Q 236 178.3 235 174.5 L 238 166.5 L 242 162.5 L 242 160.5 L 242.5 157 L 243.5 159 L 244 156 L 248.5 155 Z M 243 166 Q 241 169 244 168 L 243 166 Z M 238 171 L 238 172 L 240 172 L 238 171 Z M 236 175 L 236 177 L 238 176 L 236 175 Z M 236 177 Q 233 178 234 182 Q 237 183 236 181 L 236 179 L 236 177 Z "></path><path fill="rgb(0,174,254)" stroke="rgb(0,174,254)" stroke-width="1" opacity="0.996078431372549" d="M 258.5 155 L 259.5 157 L 257.5 158 L 258 156.5 L 258.5 155 Z "></path><path fill="rgb(0,174,254)" stroke="rgb(0,174,254)" stroke-width="1" opacity="0.996078431372549" d="M 254.5 158 L 253.5 160 L 254.5 158 Z "></path><path fill="rgb(0,174,254)" stroke="rgb(0,174,254)" stroke-width="1" opacity="0.996078431372549" d="M 259 162 L 262 163.5 L 259 164.5 L 259.5 166 Q 256.8 164.8 259 163.5 L 259 162 Z "></path><path fill="rgb(0,174,254)" stroke="rgb(0,174,254)" stroke-width="1" opacity="0.996078431372549" d="M 269.5 162 L 268.5 164 L 269.5 162 Z "></path><path fill="rgb(0,174,254)" stroke="rgb(0,174,254)" stroke-width="1" opacity="0.996078431372549" d="M 253.5 171 Q 256.8 169.9 256 172.5 L 258 175.5 L 256.5 175 L 255 174.5 Q 257.3 173.3 254.5 172 L 253.5 171 Z "></path><path fill="rgb(0,174,254)" stroke="rgb(0,174,254)" stroke-width="1" opacity="0.996078431372549" d="M 262.5 171 L 261.5 173 L 262.5 171 Z "></path><path fill="rgb(0,174,254)" stroke="rgb(0,174,254)" stroke-width="1" opacity="0.996078431372549" d="M 248.5 172 L 250 174.5 L 248.5 174 L 245 173.5 L 248.5 172 Z "></path><path fill="rgb(0,174,254)" stroke="rgb(0,174,254)" stroke-width="1" opacity="0.996078431372549" d="M 268.5 172 L 267.5 174 L 268.5 172 Z "></path><path fill="rgb(0,174,254)" stroke="rgb(0,174,254)" stroke-width="1" opacity="0.996078431372549" d="M 314.5 172 L 313.5 174 L 314.5 172 Z "></path><path fill="rgb(0,174,254)" stroke="rgb(0,174,254)" stroke-width="1" opacity="0.996078431372549" d="M 316.5 181 L 319 181.5 L 318.5 183 L 320 183.5 L 317.5 187 L 317 184 L 315 183.5 L 317 182.5 L 316.5 181 Z "></path><path fill="rgb(0,174,254)" stroke="rgb(0,174,254)" stroke-width="1" opacity="0.996078431372549" d="M 240.5 182 L 243 182.5 L 240.5 183 L 240.5 182 Z "></path><path fill="rgb(0,174,254)" stroke="rgb(0,174,254)" stroke-width="1" opacity="0.996078431372549" d="M 268.5 182 L 267.5 184 L 268.5 182 Z "></path><path fill="rgb(0,174,254)" stroke="rgb(0,174,254)" stroke-width="1" opacity="0.996078431372549" d="M 246.5 184 L 247.5 186 L 246.5 184 Z "></path><path fill="rgb(0,174,254)" stroke="rgb(0,174,254)" stroke-width="1" opacity="0.996078431372549" d="M 315.5 185 L 316 186.5 L 313 192 L 311 192.5 Q 313.3 193.8 310.5 195 L 308 196.5 L 309 198.5 L 307 202 L 305 202.5 L 305 204.5 L 303.5 207 Q 300.2 208.1 301 205.5 L 302.5 202 L 304 202.5 L 305 198.5 L 304.5 197 L 306 197.5 L 306.5 193 L 308.5 194 L 308 192.5 L 308.5 191 L 309.5 193 L 313 189.5 Q 310.8 188.3 313.5 187 Q 316 187.7 315.5 185 Z "></path><path fill="rgb(0,174,254)" stroke="rgb(0,174,254)" stroke-width="1" opacity="0.996078431372549" d="M 307.5 187 L 309 189.5 L 308 189.5 L 307.5 187 Z "></path><path fill="rgb(0,174,254)" stroke="rgb(0,174,254)" stroke-width="1" opacity="0.996078431372549" d="M 240.5 188 Q 242.3 191.1 244 189.5 L 243.5 192 L 239 189.5 L 240.5 188 Z "></path><path fill="rgb(0,174,254)" stroke="rgb(0,174,254)" stroke-width="1" opacity="0.996078431372549" d="M 281.5 189 L 282.5 191 Q 279.7 191.7 281.5 189 Z "></path><path fill="rgb(0,174,254)" stroke="rgb(0,174,254)" stroke-width="1" opacity="0.996078431372549" d="M 240.5 191 L 241 193 L 237.5 194 L 237.5 193 L 240.5 191 Z "></path><path fill="rgb(0,174,254)" stroke="rgb(0,174,254)" stroke-width="1" opacity="0.996078431372549" d="M 247.5 192 Q 250.1 191.2 249 194.5 L 248 194.5 L 247.5 192 Z "></path><path fill="rgb(0,174,254)" stroke="rgb(0,174,254)" stroke-width="1" opacity="0.996078431372549" d="M 262.5 192 L 261.5 194 L 262.5 192 Z "></path><path fill="rgb(0,174,254)" stroke="rgb(0,174,254)" stroke-width="1" opacity="0.996078431372549" d="M 232.5 201 L 234 204 L 232 203.5 L 232.5 201 Z "></path><path fill="rgb(0,174,254)" stroke="rgb(0,174,254)" stroke-width="1" opacity="0.996078431372549" d="M 296.5 201 Q 300.5 201.5 300 206.5 L 299 206.5 L 296.5 201 Z "></path><path fill="rgb(0,174,254)" stroke="rgb(0,174,254)" stroke-width="1" opacity="0.996078431372549" d="M 224.5 205 L 229 207.5 L 224 209.5 L 226 210.5 L 222 211.5 L 224 212.5 L 219.5 213 L 220.5 211 Q 223.1 211.8 222 208.5 L 224.5 205 Z "></path><path fill="rgb(0,174,254)" stroke="rgb(0,174,254)" stroke-width="1" opacity="0.996078431372549" d="M 231.5 206 L 230.5 208 L 231.5 206 Z "></path><path fill="rgb(0,174,254)" stroke="rgb(0,174,254)" stroke-width="1" opacity="0.996078431372549" d="M 296.5 208 L 297.5 210 L 296.5 208 Z "></path><path fill="rgb(0,174,254)" stroke="rgb(0,174,254)" stroke-width="1" opacity="0.996078431372549" d="M 302.5 208 L 302 209.5 L 301.5 212 L 297.5 212 L 296 211.5 Q 301.1 211.6 302.5 208 Z "></path><path fill="rgb(0,174,254)" stroke="rgb(0,174,254)" stroke-width="1" opacity="0.996078431372549" d="M 235.5 211 L 235 212.5 L 234.5 214 L 234 212.5 L 235.5 211 Z "></path><path fill="rgb(0,174,254)" stroke="rgb(0,174,254)" stroke-width="1" opacity="0.996078431372549" d="M 251.5 211 L 252.5 213 L 251.5 211 Z "></path><path fill="rgb(0,174,254)" stroke="rgb(0,174,254)" stroke-width="1" opacity="0.996078431372549" d="M 291.5 213 L 292.5 215 L 291.5 213 Z "></path><path fill="rgb(0,174,254)" stroke="rgb(0,174,254)" stroke-width="1" opacity="0.996078431372549" d="M 296.5 213 L 298.5 215 L 301 213.5 L 299 216.5 L 301 217.5 L 299 218 L 297 223.5 L 297.5 225 Q 294.9 224.2 296 227.5 Q 298.3 228.8 295.5 230 L 294.5 227 Q 292.3 226.3 293 228.5 L 295 232.5 L 293 233.5 Q 295.3 234.8 292.5 236 Q 291.3 233.7 290 236.5 L 292 237.5 L 291 240 L 287 242.5 L 284 247.5 L 287 248 L 286.5 250 L 285 249.5 Q 285.8 251.8 283.5 251 Q 285.1 252.8 282 254.5 L 283 255.5 L 282.5 257 L 280.5 257 L 277 259.5 L 279 260 L 278.5 262 L 277 261.5 Q 275.9 264.8 278.5 264 L 278.5 265 L 276.5 264 L 274.5 268 L 273.5 266 L 273 269 Q 270.3 267.9 271 270.5 L 270 272.5 L 271 274.5 Q 269 272.8 267 276.5 L 266.5 279 L 264 278 L 263 280.5 Q 265.7 282.3 261.5 284 L 260.5 282 L 262 282.5 L 260.5 280 L 257 282 Q 255.8 285 259.5 284 L 259.5 285 L 257 285.5 Q 259.3 286.8 256.5 288 L 257 284.5 L 255 282.5 L 256 279.5 L 253 277.5 L 254.5 277 L 257.5 279 L 257.5 277 L 260.5 279 L 260.5 277 Q 263.1 277.7 262 275 L 257 276 Q 256 272.2 258.5 271 L 259 274 Q 262 275.3 261 271.5 L 262 271.5 Q 261.5 275.5 264.5 276 L 266 275.5 L 263 271.5 L 264 271.5 L 265.5 274 L 266 272.5 Q 263.8 271.3 266.5 270 L 270 269.5 L 269.5 267 L 266 268 L 267 264.5 L 265.5 264 L 263 265.5 L 264.5 263 Q 261.2 264.1 262 261.5 L 261.5 260 L 267.5 264 L 269.5 263 L 271.5 264 L 271 262.5 L 273.5 258 L 274 260 L 276 259.5 L 275.5 258 L 278 257.5 L 275.5 256 L 272 256.5 L 273.5 254 L 276.5 252 L 280 250 L 279 246 L 282 244.5 L 280 238.5 L 281 238.5 Q 280.5 242.5 283.5 243 L 285 239.5 L 283 239.5 L 283.5 237 L 286.5 239 L 289 234.5 L 286.5 234 L 285.5 237 L 285 234.5 L 286.5 232 L 288 232.5 Q 286.9 229.2 289.5 230 L 290.5 227 L 292 226.5 L 289 225.5 L 290 222 L 293 223.5 L 292.5 225 L 295 224.5 L 294.5 223 L 296 222.5 L 293 220.5 L 297 219.5 L 293 217.5 L 293.5 216 L 298 217.5 L 296.5 213 Z M 286 242 L 284 245 L 286 244 L 286 242 Z M 282 246 L 280 248 L 283 248 L 282 246 Z M 278 252 L 276 254 L 278 254 L 278 252 Z M 280 252 L 280 254 L 282 253 L 280 252 Z M 267 265 L 268 267 L 270 266 L 271 267 L 271 265 L 267 265 Z M 269 271 L 268 274 L 269 274 L 269 271 Z "></path><path fill="rgb(0,174,254)" stroke="rgb(0,174,254)" stroke-width="1" opacity="0.996078431372549" d="M 218.5 214 L 219 215.5 L 216 218.5 L 217.5 221 L 213.5 222 L 214 220.5 L 215 217 Q 217.7 218.1 217 215.5 L 218.5 214 Z "></path><path fill="rgb(0,174,254)" stroke="rgb(0,174,254)" stroke-width="1" opacity="0.996078431372549" d="M 287.5 216 L 286.5 218 L 287.5 216 Z "></path><path fill="rgb(0,174,254)" stroke="rgb(0,174,254)" stroke-width="1" opacity="0.996078431372549" d="M 289.5 218 L 290 220.5 L 289 220.5 L 289.5 218 Z "></path><path fill="rgb(0,174,254)" stroke="rgb(0,174,254)" stroke-width="1" opacity="0.996078431372549" d="M 212.5 223 L 213 228.5 L 212 228.5 L 211.5 227 L 209.5 228 L 210 226.5 L 212.5 223 Z "></path><path fill="rgb(0,174,254)" stroke="rgb(0,174,254)" stroke-width="1" opacity="0.996078431372549" d="M 215.5 223 L 217 223.5 L 214.5 225 L 215.5 223 Z "></path><path fill="rgb(0,174,254)" stroke="rgb(0,174,254)" stroke-width="1" opacity="0.996078431372549" d="M 282.5 224 L 283.5 226 L 282.5 224 Z "></path><path fill="rgb(0,174,254)" stroke="rgb(0,174,254)" stroke-width="1" opacity="0.996078431372549" d="M 20.5 225 L 24.5 227 L 27.5 226 L 29 229 L 32.5 229 L 42.5 234 L 47 234 Q 45.3 238.1 49.5 237 L 51 236.5 L 50.5 238 Q 52.8 238.8 52 236.5 L 53 236.5 L 54 238.5 L 52 238.5 Q 53.4 243.1 47.5 241 L 46.5 238 Q 43.9 238.8 45 235.5 L 44 235.5 L 43 237.5 L 44 239.5 L 43 239.5 L 40.5 236 L 39 236.5 L 38.5 235 L 36.5 236 L 37.5 234 L 39 233.5 L 36.5 233 L 34.5 234 Q 36.2 232 32.5 230 L 32 231.5 L 32.5 233 Q 31.3 230.8 30 233.5 L 33 235.5 L 32 237.5 L 32.5 239 Q 31.1 234.3 26 235 L 24.5 232 Q 23 235.5 21.5 233 L 18 233 Q 19.1 235.7 16.5 235 L 14.5 236 Q 13.3 233.7 12 236.5 L 11.5 238 L 11 235.5 L 11.5 234 Q 7.1 235.5 8 232.5 L 9.5 229 Q 10.8 231.3 12 228.5 L 11.5 227 L 14 228 L 14.5 226 L 15 228 L 19 228 L 19 226.5 L 20.5 225 Z M 24 229 L 23 231 L 26 231 L 24 229 Z M 11 230 L 11 232 L 13 231 L 11 230 Z M 20 230 L 19 232 L 23 232 L 20 230 Z M 17 231 Q 15 234 18 233 L 17 231 Z M 15 232 L 14 234 L 16 235 L 15 232 Z "></path><path fill="rgb(0,174,254)" stroke="rgb(0,174,254)" stroke-width="1" opacity="0.996078431372549" d="M 224.5 225 L 225.5 227 L 224.5 225 Z "></path><path fill="rgb(0,174,254)" stroke="rgb(0,174,254)" stroke-width="1" opacity="0.996078431372549" d="M 287.5 226 L 288 227.5 Q 284.9 229.3 286.5 231 Q 283.3 229.3 287 227.5 L 287.5 226 Z "></path><path fill="rgb(0,174,254)" stroke="rgb(0,174,254)" stroke-width="1" opacity="0.996078431372549" d="M 281.5 227 L 282.5 229 L 281.5 227 Z "></path><path fill="rgb(0,174,254)" stroke="rgb(0,174,254)" stroke-width="1" opacity="0.996078431372549" d="M 207.5 229 L 209 231.5 L 206.5 236 L 207 234.5 L 206.5 232 L 203.5 233 L 202 232.5 L 204.5 231 L 206 231.5 L 207.5 229 Z "></path><path fill="rgb(0,174,254)" stroke="rgb(0,174,254)" stroke-width="1" opacity="0.996078431372549" d="M 278.5 229 L 277.5 231 L 278.5 229 Z "></path><path fill="rgb(0,174,254)" stroke="rgb(0,174,254)" stroke-width="1" opacity="0.996078431372549" d="M 273.5 230 L 274.5 232 L 273.5 230 Z "></path><path fill="rgb(0,174,254)" stroke="rgb(0,174,254)" stroke-width="1" opacity="0.996078431372549" d="M 281.5 230 L 283.5 233 L 281.5 230 Z "></path><path fill="rgb(0,174,254)" stroke="rgb(0,174,254)" stroke-width="1" opacity="0.996078431372549" d="M 5.5 231 L 7 231.5 L 7 233.5 Q 5.9 236.8 8.5 236 L 10 235.5 L 8.5 238 L 5 239.5 L 6 242.5 Q 3.7 243.8 6.5 245 L 8 244.5 L 7.5 243 Q 9.8 242.3 9 244.5 L 5 247.5 L 8 248.5 L 5 249.5 L 3.5 252 L 3 250.5 L 3 248.5 L 5 245.5 L 3.5 246 L 2 245.5 L 2.5 244 L 0.5 245 L 0 242.5 L 2 242.5 L 0 239.5 L 2 239.5 L 1.5 237 L 0 237.5 L 2.5 232 L 5.5 231 Z M 4 236 Q 4 240 6 237 L 4 236 Z "></path><path fill="rgb(0,174,254)" stroke="rgb(0,174,254)" stroke-width="1" opacity="0.996078431372549" d="M 280.5 233 Q 282.8 232.3 282 234.5 L 280.5 233 Z "></path><path fill="rgb(0,174,254)" stroke="rgb(0,174,254)" stroke-width="1" opacity="0.996078431372549" d="M 198.5 234 L 204 234.5 L 201 235.5 L 204 236.5 L 200.5 238 L 200.5 236 L 197.5 238 L 198.5 241 L 195.5 238 L 193.5 240 L 189 239.5 L 190.5 237 L 194.5 238 L 194.5 237 L 193 236.5 L 195.5 235 Q 197 237.5 198.5 234 Z "></path><path fill="rgb(0,174,254)" stroke="rgb(0,174,254)" stroke-width="1" opacity="0.996078431372549" d="M 22.5 235 L 23 237 L 20 238.5 L 21 241.5 L 22 243.5 L 21.5 246 L 19 245.5 L 20 242.5 L 18.5 240 L 20 239.5 L 17 239 L 16.5 241 L 16 239.5 Q 18 235.8 20 237.5 Q 19.3 235.3 21.5 236 L 22.5 235 Z "></path><path fill="rgb(0,174,254)" stroke="rgb(0,174,254)" stroke-width="1" opacity="0.996078431372549" d="M 14.5 237 L 15 238.5 L 13 239.5 L 14.5 237 Z "></path><path fill="rgb(0,174,254)" stroke="rgb(0,174,254)" stroke-width="1" opacity="0.996078431372549" d="M 37.5 237 L 38 240 L 35 238.5 L 37 238.5 L 37.5 237 Z "></path><path fill="rgb(0,174,254)" stroke="rgb(0,174,254)" stroke-width="1" opacity="0.996078431372549" d="M 25.5 238 L 24.5 240 L 25.5 238 Z "></path><path fill="rgb(0,174,254)" stroke="rgb(0,174,254)" stroke-width="1" opacity="0.996078431372549" d="M 57.5 238 L 58 239.5 L 57 242 L 53 240.5 L 55.5 240 Q 58 240.7 57.5 238 Z "></path><path fill="rgb(0,174,254)" stroke="rgb(0,174,254)" stroke-width="1" opacity="0.996078431372549" d="M 204.5 238 L 205.5 240 L 204.5 238 Z "></path><path fill="rgb(0,174,254)" stroke="rgb(0,174,254)" stroke-width="1" opacity="0.996078431372549" d="M 62.5 239 L 68 241.5 L 66.5 244 L 60.5 241 L 58 242.5 L 59.5 240 L 62.5 239 Z "></path><path fill="rgb(0,174,254)" stroke="rgb(0,174,254)" stroke-width="1" opacity="0.996078431372549" d="M 186.5 239 Q 187.8 241.8 192 241.5 L 188.5 243 L 186.5 239 Z "></path><path fill="rgb(0,174,254)" stroke="rgb(0,174,254)" stroke-width="1" opacity="0.996078431372549" d="M 202.5 239 L 203.5 241 L 202.5 239 Z "></path><path fill="rgb(0,174,254)" stroke="rgb(0,174,254)" stroke-width="1" opacity="0.996078431372549" d="M 8.5 240 L 12.5 242 L 14 241.5 L 13 242.5 L 14.5 245 L 12 244.5 L 12.5 243 Q 10.3 242.3 11 244.5 L 10 244.5 L 8.5 240 Z "></path><path fill="rgb(0,174,254)" stroke="rgb(0,174,254)" stroke-width="1" opacity="0.996078431372549" d="M 183.5 240 L 184 242 L 187 243.5 L 184 244.5 L 186 245.5 L 184.5 246 L 180.5 246 Q 177.2 244.9 178 247.5 L 177 247.5 L 176.5 246 L 175.5 249 L 174 248.5 L 175 250.5 L 172.5 251 L 170.5 249 L 168 250.5 L 167 245.5 L 169.5 245 L 171.5 247 L 172.5 246 Q 175.1 246.7 174 244 L 177 244 L 177.5 246 L 180.5 242 Q 181.8 244.3 183 241.5 L 183.5 240 Z "></path><path fill="rgb(0,174,254)" stroke="rgb(0,174,254)" stroke-width="1" opacity="0.996078431372549" d="M 275.5 240 L 276.5 242 Q 273.7 242.7 275.5 240 Z "></path><path fill="rgb(0,174,254)" stroke="rgb(0,174,254)" stroke-width="1" opacity="0.996078431372549" d="M 71.5 241 L 73 244 L 76.5 243 L 79.5 245 L 83.5 243 L 85 243.5 L 83 244 L 83.5 246 L 85.5 246 L 88.5 244 L 89.5 247 L 92 246.5 L 90 245.5 L 94 245 L 94.5 247 L 95.5 245 L 99 246.5 L 98 248.5 L 98.5 250 Q 95.5 250.7 97 247 L 95 247 L 93.5 251 Q 91.3 251.8 92 249.5 L 94 249.5 L 92.5 247 L 89.5 252 L 88.5 249 L 86 250.5 L 86.5 249 Q 84.3 248.3 85 250.5 L 83 249.5 Q 82.2 246.9 85.5 248 L 84.5 246 L 80.5 246 L 78 246.5 L 82 248.5 L 80 249.5 L 80.5 248 L 77 246.5 L 76.5 245 L 76 248.5 Q 78.3 249.8 75.5 251 L 75 248.5 L 74.5 247 L 73 247.5 L 72.5 246 L 71.5 249 L 68 248 L 69 244.5 Q 66.8 243.3 69.5 242 L 71.5 241 Z M 71 244 L 70 246 L 73 245 L 71 244 Z "></path><path fill="rgb(0,174,254)" stroke="rgb(0,174,254)" stroke-width="1" opacity="0.996078431372549" d="M 38.5 242 L 37.5 244 L 36 243.5 L 38.5 242 Z "></path><path fill="rgb(0,174,254)" stroke="rgb(0,174,254)" stroke-width="1" opacity="0.996078431372549" d="M 53.5 243 L 55 244.5 L 54.5 247 Q 52.3 247.8 53 245.5 L 53.5 243 Z "></path><path fill="rgb(0,174,254)" stroke="rgb(0,174,254)" stroke-width="1" opacity="0.996078431372549" d="M 272.5 243 L 271.5 245 L 272.5 243 Z "></path><path fill="rgb(0,174,254)" stroke="rgb(0,174,254)" stroke-width="1" opacity="0.996078431372549" d="M 58.5 244 Q 60.8 243.3 60 245.5 L 58.5 244 Z "></path><path fill="rgb(0,174,254)" stroke="rgb(0,174,254)" stroke-width="1" opacity="0.996078431372549" d="M 64.5 244 L 65 246 L 63 245.5 L 64.5 244 Z "></path><path fill="rgb(0,174,254)" stroke="rgb(0,174,254)" stroke-width="1" opacity="0.996078431372549" d="M 109.5 245 Q 112.3 246.2 110 247.5 Q 109.3 251.3 111.5 252 L 114 251 Q 115.1 248.3 112.5 249 L 111 249.5 L 113.5 246 L 118 249 L 119 251.5 L 116.5 250 L 115 250.5 L 116 252.5 L 114.5 252 L 112 252.5 L 113 253.5 L 109.5 257 L 112 253.5 L 110.5 252 Q 108.3 251.3 109 253.5 L 107.5 253 L 105 254.5 L 104.5 256 L 104 254.5 L 105 252 L 108 251.5 L 104 251 L 103.5 253 L 101 248.5 L 101.5 247 L 100 246.5 L 102.5 246 L 106 247 L 106.5 249 L 110 246.5 L 109.5 245 Z M 105 248 L 103 250 L 104 251 L 106 250 L 105 248 Z "></path><path fill="rgb(0,174,254)" stroke="rgb(0,174,254)" stroke-width="1" opacity="0.996078431372549" d="M 274.5 245 L 275 246.5 L 274.5 248 L 276 248.5 L 274 249.5 L 273 247.5 L 274.5 245 Z "></path><path fill="rgb(0,174,254)" stroke="rgb(0,174,254)" stroke-width="1" opacity="0.996078431372549" d="M 0.5 246 L 2 248.5 L 1.5 251 L 0 247.5 L 0.5 246 Z "></path><path fill="rgb(0,174,254)" stroke="rgb(0,174,254)" stroke-width="1" opacity="0.996078431372549" d="M 179.5 247 L 183.5 249 L 186 247.5 L 183.5 250 L 181 249.5 Q 181.8 247.3 179.5 248 L 179.5 247 Z "></path><path fill="rgb(0,174,254)" stroke="rgb(0,174,254)" stroke-width="1" opacity="0.996078431372549" d="M 265.5 247 L 269 248.5 L 267.5 249 L 265.5 247 Z "></path><path fill="rgb(0,174,254)" stroke="rgb(0,174,254)" stroke-width="1" opacity="0.996078431372549" d="M 61.5 248 L 60.5 250 L 61.5 248 Z "></path><path fill="rgb(0,174,254)" stroke="rgb(0,174,254)" stroke-width="1" opacity="0.996078431372549" d="M 206.5 248 L 209 249.5 L 207.5 250 L 205 249.5 L 206.5 248 Z "></path><path fill="rgb(0,174,254)" stroke="rgb(0,174,254)" stroke-width="1" opacity="0.996078431372549" d="M 15.5 249 L 18 249.5 L 15.5 250 L 15.5 249 Z "></path><path fill="rgb(0,174,254)" stroke="rgb(0,174,254)" stroke-width="1" opacity="0.996078431372549" d="M 186.5 249 L 187.5 251 L 186.5 249 Z "></path><path fill="rgb(0,174,254)" stroke="rgb(0,174,254)" stroke-width="1" opacity="0.996078431372549" d="M 271.5 249 L 271 250.5 L 270.5 253 L 270 250.5 L 271.5 249 Z "></path><path fill="rgb(0,174,254)" stroke="rgb(0,174,254)" stroke-width="1" opacity="0.996078431372549" d="M 268.5 250 L 266.5 255 L 266 251 L 268.5 250 Z "></path><path fill="rgb(0,174,254)" stroke="rgb(0,174,254)" stroke-width="1" opacity="0.996078431372549" d="M 12 251 L 14 251.5 L 12 252.5 L 12 251 Z "></path><path fill="rgb(0,174,254)" stroke="rgb(0,174,254)" stroke-width="1" opacity="0.996078431372549" d="M 100.5 252 Q 104 254 99.5 256 L 100.5 252 Z "></path><path fill="rgb(0,174,254)" stroke="rgb(0,174,254)" stroke-width="1" opacity="0.996078431372549" d="M 96.5 253 L 99 253.5 Q 96.9 256.8 96.5 253 Z "></path><path fill="rgb(0,174,254)" stroke="rgb(0,174,254)" stroke-width="1" opacity="0.996078431372549" d="M 119.5 253 L 121 255.5 L 120 259 L 118 258.5 L 119 256 L 117 255.5 L 119 255 L 119.5 253 Z "></path><path fill="rgb(0,174,254)" stroke="rgb(0,174,254)" stroke-width="1" opacity="0.996078431372549" d="M 1.5 254 L 2 256.5 L 0.5 258 L 0 255.5 L 1.5 254 Z "></path><path fill="rgb(0,174,254)" stroke="rgb(0,174,254)" stroke-width="1" opacity="0.996078431372549" d="M 5.5 254 L 6.5 256 L 4 255.5 L 5.5 254 Z "></path><path fill="rgb(0,174,254)" stroke="rgb(0,174,254)" stroke-width="1" opacity="0.996078431372549" d="M 83.5 254 L 82.5 256 L 83.5 254 Z "></path><path fill="rgb(0,174,254)" stroke="rgb(0,174,254)" stroke-width="1" opacity="0.996078431372549" d="M 269.5 254 L 271 254.5 L 269 255 L 268.5 257 L 268 255.5 L 269.5 254 Z "></path><path fill="rgb(0,174,254)" stroke="rgb(0,174,254)" stroke-width="1" opacity="0.996078431372549" d="M 73.5 255 L 74.5 257 L 73.5 255 Z "></path><path fill="rgb(0,174,254)" stroke="rgb(0,174,254)" stroke-width="1" opacity="0.996078431372549" d="M 174.5 255 L 176 257.5 L 174 256.5 L 174.5 255 Z "></path><path fill="rgb(0,174,254)" stroke="rgb(0,174,254)" stroke-width="1" opacity="0.996078431372549" d="M 112.5 256 L 113.5 258 L 112.5 256 Z "></path><path fill="rgb(0,174,254)" stroke="rgb(0,174,254)" stroke-width="1" opacity="0.996078431372549" d="M 177.5 256 L 178 258.5 L 177 258.5 L 177.5 256 Z "></path><path fill="rgb(0,174,254)" stroke="rgb(0,174,254)" stroke-width="1" opacity="0.996078431372549" d="M 257.5 258 L 256.5 260 L 257.5 258 Z "></path><path fill="rgb(0,174,254)" stroke="rgb(0,174,254)" stroke-width="1" opacity="0.996078431372549" d="M 10.5 259 L 11 260.5 L 9 261.5 L 10.5 259 Z "></path><path fill="rgb(0,174,254)" stroke="rgb(0,174,254)" stroke-width="1" opacity="0.996078431372549" d="M 253.5 259 L 252.5 261 L 250 260.5 L 253.5 259 Z "></path><path fill="rgb(0,174,254)" stroke="rgb(0,174,254)" stroke-width="1" opacity="0.996078431372549" d="M 0.5 260 L 2 263.5 L 0.5 267 L 0 264.5 L 0.5 260 Z "></path><path fill="rgb(0,174,254)" stroke="rgb(0,174,254)" stroke-width="1" opacity="0.996078431372549" d="M 265.5 260 Q 269.3 259.3 270 261.5 L 268.5 261 L 266.5 262 L 265.5 260 Z "></path><path fill="rgb(0,174,254)" stroke="rgb(0,174,254)" stroke-width="1" opacity="0.996078431372549" d="M 6.5 264 Q 9.5 265.5 6.5 267 L 6.5 264 Z "></path><path fill="rgb(0,174,254)" stroke="rgb(0,174,254)" stroke-width="1" opacity="0.996078431372549" d="M 261.5 267 L 263 269.5 L 261 268.5 L 261.5 267 Z "></path><path fill="rgb(0,174,254)" stroke="rgb(0,174,254)" stroke-width="1" opacity="0.996078431372549" d="M 187.5 270 L 189 272.5 L 187 271.5 L 187.5 270 Z "></path><path fill="rgb(0,174,254)" stroke="rgb(0,174,254)" stroke-width="1" opacity="0.996078431372549" d="M 252.5 271 L 251.5 273 L 252.5 271 Z "></path><path fill="rgb(0,174,254)" stroke="rgb(0,174,254)" stroke-width="1" opacity="0.996078431372549" d="M 1.5 273 L 2.5 275 L 1.5 273 Z "></path><path fill="rgb(0,174,254)" stroke="rgb(0,174,254)" stroke-width="1" opacity="0.996078431372549" d="M 247.5 274 L 248 275.5 L 246.5 278 L 245 275.5 L 247 275.5 L 247.5 274 Z "></path><path fill="rgb(0,174,254)" stroke="rgb(0,174,254)" stroke-width="1" opacity="0.996078431372549" d="M 242.5 276 L 241.5 278 L 242.5 276 Z "></path><path fill="rgb(0,174,254)" stroke="rgb(0,174,254)" stroke-width="1" opacity="0.996078431372549" d="M 9.5 277 L 10.5 279 L 9.5 277 Z "></path><path fill="rgb(0,174,254)" stroke="rgb(0,174,254)" stroke-width="1" opacity="0.996078431372549" d="M 249.5 279 L 251 281.5 L 249 280.5 L 249.5 279 Z "></path><path fill="rgb(0,174,254)" stroke="rgb(0,174,254)" stroke-width="1" opacity="0.996078431372549" d="M 244.5 280 L 245.5 282 L 244.5 280 Z "></path><path fill="rgb(0,174,254)" stroke="rgb(0,174,254)" stroke-width="1" opacity="0.996078431372549" d="M 253.5 280 L 254 283 L 252 282.5 L 253.5 280 Z "></path><path fill="rgb(0,174,254)" stroke="rgb(0,174,254)" stroke-width="1" opacity="0.996078431372549" d="M 0.5 281 L 2 284 L 0 283.5 L 0.5 281 Z "></path><path fill="rgb(0,174,254)" stroke="rgb(0,174,254)" stroke-width="1" opacity="0.996078431372549" d="M 247.5 281 L 249.5 287 L 252 286.5 L 250 283.5 L 251.5 284 L 255 286.5 Q 253.9 289.8 256.5 289 L 256.5 290 L 254.5 289 L 252 290.5 L 253.5 288 L 250 290.5 L 250.5 292 L 249 291.5 L 250 293.5 L 245 294.5 L 243.5 298 L 240.5 296 L 239.5 299 L 238 296.5 L 238.5 295 L 235 295.5 L 237 296.5 L 234 298.5 L 235.5 299 L 237 298.5 Q 237.8 301.1 234.5 300 L 233.5 303 L 231.5 304 Q 230 301.5 228.5 305 L 226.5 304 L 225.5 306 L 222.5 305 L 221.5 308 L 219.5 307 L 215 308.5 L 215.5 310 Q 214.3 307.8 213 310.5 L 212.5 312 L 210.5 312 L 209 311.5 L 209.5 310 Q 207.3 309.3 208 311.5 L 203 314.5 L 202.5 316 L 201.5 314 L 197.5 317 L 195 315.5 L 195 317 Q 191.3 315.5 192 318.5 L 191 318.5 L 190.5 317 L 190 319 L 187 319 Q 188.1 316.3 185.5 317 L 185.5 319 L 184 319.5 L 184.5 321 Q 180.3 319.2 183 317.5 L 182.5 316 L 180 317.5 L 180.5 319 Q 178.3 318.3 179 320.5 L 175 321.5 Q 175.8 319.3 173.5 320 L 173.5 322 L 171.5 322 L 169.5 321 L 168.5 323 L 168 321 L 165.5 320 L 165 322 L 156.5 323 L 158 320.5 L 158 319 Q 161.7 320.5 161 317.5 L 159 317.5 Q 160.2 314.8 161.5 317 L 166 316.5 L 165.5 315 L 169.5 315 L 172.5 313 L 173 315 L 168 316 Q 166.9 318.7 169.5 318 L 172.5 317 L 174.5 318 Q 178.2 316 176.5 314 L 178.5 314 L 180 314.5 L 178 315.5 L 181 316 L 182 313.5 L 180 312.5 L 182 311.5 Q 181.3 313.8 183.5 313 L 183.5 314 L 182 314.5 L 184.5 315 Q 187.3 313.8 185 312.5 L 187.5 309 Q 190.5 310.5 187.5 312 L 186 311.5 L 187 313.5 L 186 315.5 L 187.5 315 L 189.5 316 L 191 313.5 L 190.5 312 L 194 313 Q 192.8 310 196.5 311 L 199 312 L 198 309.5 L 199.5 310 L 203 307.5 L 202.5 311 L 205 310.5 L 204.5 309 Q 205.8 311.3 207 308.5 L 204 307.5 L 207.5 306 Q 210.1 306.7 209 304 L 211 304 L 212.5 307 Q 216.3 308.3 215 304.5 L 213.5 305 L 212 304.5 L 214.5 303 L 217 303.5 Q 214.8 304.8 217.5 306 L 219.5 305 Q 221 307.5 222.5 304 L 226 303.5 L 222 302.5 L 224 301.5 L 223.5 299 L 222 298.5 L 222.5 296 Q 224 299.5 225.5 297 Q 230.3 298.7 229 294.5 L 226 295.5 Q 228 291 230 294.5 Q 229.3 296.8 231.5 296 L 231.5 298 L 234 297.5 L 233 295 L 236 293.5 L 234 292.5 L 236 291.5 L 234 290.5 L 235.5 287 L 236.5 291 L 241 289 L 240.5 291 L 239 290.5 L 240.5 293 L 245 291.5 L 242 290.5 Q 243.3 287.8 244.5 290 Q 248.7 291.3 247 286.5 L 246.5 285 L 248 285.5 L 247 283.5 L 247.5 281 Z M 248 290 L 246 292 L 248 292 L 248 290 Z M 238 291 L 236 293 L 239 293 L 238 291 Z M 229 298 L 228 300 L 230 301 L 229 298 Z M 227 299 L 224 301 L 228 301 L 227 299 Z M 229 301 L 227 304 L 229 304 Q 232 303 229 301 Z M 210 306 L 207 308 L 209 308 L 211 310 L 210 306 Z M 163 318 L 162 320 L 165 320 L 163 318 Z M 171 318 L 168 320 L 171 320 Q 172 322 173 320 L 171 318 Z "></path><path fill="rgb(0,174,254)" stroke="rgb(0,174,254)" stroke-width="1" opacity="0.996078431372549" d="M 1.5 285 L 4 285.5 L 1 286 L 0.5 288 L 0 286.5 L 1.5 285 Z "></path><path fill="rgb(0,174,254)" stroke="rgb(0,174,254)" stroke-width="1" opacity="0.996078431372549" d="M 238.5 285 L 240 287.5 L 238 286.5 L 238.5 285 Z "></path><path fill="rgb(0,174,254)" stroke="rgb(0,174,254)" stroke-width="1" opacity="0.996078431372549" d="M 243.5 285 Q 246.5 286.5 243.5 288 L 243.5 285 Z "></path><path fill="rgb(0,174,254)" stroke="rgb(0,174,254)" stroke-width="1" opacity="0.996078431372549" d="M 3.5 288 L 5 291.5 L 4 291.5 L 3.5 288 Z "></path><path fill="rgb(0,174,254)" stroke="rgb(0,174,254)" stroke-width="1" opacity="0.996078431372549" d="M 229.5 288 L 230.5 290 L 229 289.5 L 227.5 292 L 226.5 290 L 228 290.5 L 229.5 288 Z "></path><path fill="rgb(0,174,254)" stroke="rgb(0,174,254)" stroke-width="1" opacity="0.996078431372549" d="M 7.5 289 L 8.5 291 L 7.5 289 Z "></path><path fill="rgb(0,174,254)" stroke="rgb(0,174,254)" stroke-width="1" opacity="0.996078431372549" d="M 31.5 289 L 30.5 291 L 31.5 289 Z "></path><path fill="rgb(0,174,254)" stroke="rgb(0,174,254)" stroke-width="1" opacity="0.996078431372549" d="M 2.5 291 L 3.5 294 L 6 294.5 L 5.5 297 L 3 297.5 L 7 298 L 7.5 294 L 10 294.5 L 9 296.5 L 9.5 298 Q 8.3 295.7 7 298.5 L 8 301.5 L 7 301.5 Q 7.8 299.3 5.5 300 L 2.5 301 L 2.5 300 L 5 299.5 L 1.5 298 L 0 298.5 Q -0.8 295.9 2.5 297 L 1.5 295 L 0 294.5 L 2 293.5 Q -0.3 292.3 2.5 291 Z "></path><path fill="rgb(0,174,254)" stroke="rgb(0,174,254)" stroke-width="1" opacity="0.996078431372549" d="M 14.5 291 L 17 294.5 L 14 292.5 L 14.5 291 Z "></path><path fill="rgb(0,174,254)" stroke="rgb(0,174,254)" stroke-width="1" opacity="0.996078431372549" d="M 231.5 291 L 231.5 294 Q 228.5 292.5 231.5 291 Z "></path><path fill="rgb(0,174,254)" stroke="rgb(0,174,254)" stroke-width="1" opacity="0.996078431372549" d="M 219.5 292 L 220.5 294 L 219.5 292 Z "></path><path fill="rgb(0,174,254)" stroke="rgb(0,174,254)" stroke-width="1" opacity="0.996078431372549" d="M 186.5 293 L 187.5 295 L 186.5 293 Z "></path><path fill="rgb(0,174,254)" stroke="rgb(0,174,254)" stroke-width="1" opacity="0.996078431372549" d="M 13.5 294 L 11.5 297 L 13.5 294 Z "></path><path fill="rgb(0,174,254)" stroke="rgb(0,174,254)" stroke-width="1" opacity="0.996078431372549" d="M 23.5 294 L 24 295.5 L 23.5 297 L 25 297.5 L 23 298 L 21.5 302 L 20.5 300 L 18 304.5 L 22 306.5 L 18.5 306 L 15 305 L 14 302.5 L 14.5 301 L 9.5 304 L 10 300.5 L 11.5 298 L 15.5 297 Q 17.3 300.1 19 298.5 L 19.5 300 L 23 297.5 L 21.5 297 L 20 297.5 L 23 296 L 23.5 294 Z M 14 298 L 15 300 Q 16 297 14 298 Z M 12 299 L 13 301 Q 14 298 12 299 Z M 17 299 L 15 301 L 18 301 L 17 299 Z "></path><path fill="rgb(0,174,254)" stroke="rgb(0,174,254)" stroke-width="1" opacity="0.996078431372549" d="M 189.5 294 L 190 295.5 L 188 296.5 L 189.5 294 Z "></path><path fill="rgb(0,174,254)" stroke="rgb(0,174,254)" stroke-width="1" opacity="0.996078431372549" d="M 26.5 295 L 28 296.5 L 27.5 299 L 26 297.5 L 26.5 295 Z "></path><path fill="rgb(0,174,254)" stroke="rgb(0,174,254)" stroke-width="1" opacity="0.996078431372549" d="M 104.5 295 L 107 296.5 L 105.5 296 L 104.5 295 Z "></path><path fill="rgb(0,174,254)" stroke="rgb(0,174,254)" stroke-width="1" opacity="0.996078431372549" d="M 31.5 296 L 34 296.5 Q 31.9 299.8 31.5 296 Z "></path><path fill="rgb(0,174,254)" stroke="rgb(0,174,254)" stroke-width="1" opacity="0.996078431372549" d="M 208.5 296 L 209.5 298 L 208.5 296 Z "></path><path fill="rgb(0,174,254)" stroke="rgb(0,174,254)" stroke-width="1" opacity="0.996078431372549" d="M 173.5 297 L 174.5 299 L 173.5 297 Z "></path><path fill="rgb(0,174,254)" stroke="rgb(0,174,254)" stroke-width="1" opacity="0.996078431372549" d="M 45.5 298 L 46.5 300 L 45.5 298 Z "></path><path fill="rgb(0,174,254)" stroke="rgb(0,174,254)" stroke-width="1" opacity="0.996078431372549" d="M 217.5 299 L 219 299.5 L 216.5 301 L 217.5 299 Z "></path><path fill="rgb(0,174,254)" stroke="rgb(0,174,254)" stroke-width="1" opacity="0.996078431372549" d="M 28.5 301 L 30 301.5 L 28 302.5 L 29.5 305 L 30 303 L 33.5 305 L 36 303.5 L 35.5 306 Q 34 303.5 32.5 307 L 30 305.5 L 31.5 309 L 33.5 309 L 36 308.5 L 34 307.5 L 39 307 L 38 309.5 L 41.5 311 L 43 310.5 L 42.5 309 L 46.5 308 L 46.5 309 L 45 309.5 L 47.5 311 L 49 308.5 L 48 306.5 L 49 306.5 L 49.5 308 L 52 306.5 Q 48.5 308 51 309.5 L 51.5 311 L 54.5 309 L 54 310.5 Q 52.7 314.7 57.5 313 L 57.5 312 L 55 311.5 L 56.5 309 L 57 311 L 59.5 310 L 59 311.5 L 60.5 314 L 63.5 312 L 65.5 315 L 68 314 L 68.5 316 L 69.5 314 L 70.5 316 L 71 313 Q 68.3 314.1 69 311.5 L 70.5 312 L 75 313.5 L 73.5 314 L 72 313.5 L 73.5 316 L 77.5 317 L 78 312.5 L 76 312.5 Q 78 309 80 313.5 L 79.5 315 L 84.5 314 L 86.5 314 Q 88.8 314.8 88 312.5 L 89 312.5 Q 87.8 316.3 91.5 315 L 91.5 316 Q 88.9 315.3 90 318 L 92.5 317 L 94 317.5 L 93 314.5 L 94.5 315 L 98.5 317 L 99 314.5 L 98.5 313 Q 100.8 313.8 100 317.5 L 97.5 321 L 96 320.5 Q 96.9 323.9 91.5 322 L 88.5 321 L 85.5 319 Q 84 322.5 82.5 320 L 81 319.5 L 83 318.5 L 79 316 L 78 318.5 L 79.5 321 Q 78 317.5 76.5 320 L 75 319.5 L 75.5 318 L 72.5 316 L 70.5 317 L 69 316.5 L 68.5 320 L 67 317.5 Q 69.3 316.3 66.5 315 L 65.5 319 L 65 317 L 63 317.5 L 63.5 319 L 58.5 316 L 57 316.5 L 57.5 315 L 55.5 316 L 55 314 L 52.5 313 L 52 315 L 54 315.5 L 52.5 316 L 48.5 314 L 47 314.5 L 45.5 311 L 44.5 315 L 42.5 312 L 40.5 312 L 38.5 313 L 38 311 L 34.5 313 L 33 310 L 29 310 Q 30.3 307 26.5 308 L 23 308.5 L 25 305.5 L 22 304.5 L 23.5 302 L 26.5 303 L 28.5 301 Z M 27 304 L 29 307 L 29 306 L 27 304 Z M 50 309 L 49 312 L 50 312 L 50 309 Z M 59 313 Q 57 316 60 315 L 59 313 Z M 62 315 L 62 317 L 64 316 L 62 315 Z M 86 316 L 85 318 L 88 319 L 88 317 L 86 316 Z "></path><path fill="rgb(0,174,254)" stroke="rgb(0,174,254)" stroke-width="1" opacity="0.996078431372549" d="M 197.5 301 L 198.5 303 L 197.5 301 Z "></path><path fill="rgb(0,174,254)" stroke="rgb(0,174,254)" stroke-width="1" opacity="0.996078431372549" d="M 93.5 302 L 95 304.5 L 94 304.5 L 93.5 303 L 92 303.5 L 93.5 302 Z "></path><path fill="rgb(0,174,254)" stroke="rgb(0,174,254)" stroke-width="1" opacity="0.996078431372549" d="M 218 302 L 221 302.5 L 218.5 304 L 218 302 Z "></path><path fill="rgb(0,174,254)" stroke="rgb(0,174,254)" stroke-width="1" opacity="0.996078431372549" d="M 42.5 303 L 42.5 306 Q 40.3 306.8 41 304.5 L 42.5 303 Z "></path><path fill="rgb(0,174,254)" stroke="rgb(0,174,254)" stroke-width="1" opacity="0.996078431372549" d="M 82.5 303 L 81.5 305 L 82.5 303 Z "></path><path fill="rgb(0,174,254)" stroke="rgb(0,174,254)" stroke-width="1" opacity="0.996078431372549" d="M 54.5 304 L 55.5 308 Q 51.8 309.3 53 305.5 L 54.5 304 Z "></path><path fill="rgb(0,174,254)" stroke="rgb(0,174,254)" stroke-width="1" opacity="0.996078431372549" d="M 61.5 304 L 62.5 306 Q 59.7 306.7 61.5 304 Z "></path><path fill="rgb(0,174,254)" stroke="rgb(0,174,254)" stroke-width="1" opacity="0.996078431372549" d="M 86.5 304 L 87.5 306 L 86.5 304 Z "></path><path fill="rgb(0,174,254)" stroke="rgb(0,174,254)" stroke-width="1" opacity="0.996078431372549" d="M 72.5 305 L 71.5 307 L 72.5 305 Z "></path><path fill="rgb(0,174,254)" stroke="rgb(0,174,254)" stroke-width="1" opacity="0.996078431372549" d="M 181.5 305 L 182 307.5 L 181 307.5 L 181.5 305 Z "></path><path fill="rgb(0,174,254)" stroke="rgb(0,174,254)" stroke-width="1" opacity="0.996078431372549" d="M 41.5 307 L 40.5 309 L 41.5 307 Z "></path><path fill="rgb(0,174,254)" stroke="rgb(0,174,254)" stroke-width="1" opacity="0.996078431372549" d="M 63.5 307 L 66 308.5 L 64.5 309 L 63.5 307 Z "></path><path fill="rgb(0,174,254)" stroke="rgb(0,174,254)" stroke-width="1" opacity="0.996078431372549" d="M 92.5 307 L 91.5 309 L 92.5 307 Z "></path><path fill="rgb(0,174,254)" stroke="rgb(0,174,254)" stroke-width="1" opacity="0.996078431372549" d="M 184.5 307 L 186 307.5 L 184 308 L 183.5 311 L 183 308.5 L 184.5 307 Z "></path><path fill="rgb(0,174,254)" stroke="rgb(0,174,254)" stroke-width="1" opacity="0.996078431372549" d="M 192 307 L 194 307.5 L 192 308.5 L 192 307 Z "></path><path fill="rgb(0,174,254)" stroke="rgb(0,174,254)" stroke-width="1" opacity="0.996078431372549" d="M 61.5 308 L 62.5 310 Q 59.7 310.7 61.5 308 Z "></path><path fill="rgb(0,174,254)" stroke="rgb(0,174,254)" stroke-width="1" opacity="0.996078431372549" d="M 96.5 308 L 98 310.5 L 97 310.5 L 96.5 308 Z "></path><path fill="rgb(0,174,254)" stroke="rgb(0,174,254)" stroke-width="1" opacity="0.996078431372549" d="M 68.5 309 L 67.5 311 L 68.5 309 Z "></path><path fill="rgb(0,174,254)" stroke="rgb(0,174,254)" stroke-width="1" opacity="0.996078431372549" d="M 70.5 309 Q 72.8 308.3 72 310.5 L 70.5 309 Z "></path><path fill="rgb(0,174,254)" stroke="rgb(0,174,254)" stroke-width="1" opacity="0.996078431372549" d="M 172.5 309 L 174 311.5 L 173 311.5 L 172.5 310 L 171 310.5 L 172.5 309 Z "></path><path fill="rgb(0,174,254)" stroke="rgb(0,174,254)" stroke-width="1" opacity="0.996078431372549" d="M 179.5 309 L 178.5 311 L 179.5 309 Z "></path><path fill="rgb(0,174,254)" stroke="rgb(0,174,254)" stroke-width="1" opacity="0.996078431372549" d="M 107.5 310 L 108.5 312 L 107.5 310 Z "></path><path fill="rgb(0,174,254)" stroke="rgb(0,174,254)" stroke-width="1" opacity="0.996078431372549" d="M 191.5 310 L 192.5 312 L 191.5 310 Z "></path><path fill="rgb(0,174,254)" stroke="rgb(0,174,254)" stroke-width="1" opacity="0.996078431372549" d="M 102.5 313 L 101.5 315 L 102.5 313 Z "></path><path fill="rgb(0,174,254)" stroke="rgb(0,174,254)" stroke-width="1" opacity="0.996078431372549" d="M 104.5 313 L 106 316.5 L 105 316.5 L 104.5 313 Z "></path><path fill="rgb(0,174,254)" stroke="rgb(0,174,254)" stroke-width="1" opacity="0.996078431372549" d="M 162.5 313 Q 165.5 312.2 164 316 L 162 315.5 L 162.5 313 Z "></path><path fill="rgb(0,174,254)" stroke="rgb(0,174,254)" stroke-width="1" opacity="0.996078431372549" d="M 102.5 316 L 104 318.5 L 102 317.5 L 102.5 316 Z "></path><path fill="rgb(0,174,254)" stroke="rgb(0,174,254)" stroke-width="1" opacity="0.996078431372549" d="M 71.5 318 Q 74.1 317.3 73 320 L 70 319.5 L 71.5 318 Z "></path><path fill="rgb(0,174,254)" stroke="rgb(0,174,254)" stroke-width="1" opacity="0.996078431372549" d="M 100.5 319 L 101.5 321 L 103 320.5 L 97.5 323 L 97.5 322 Q 99.8 322.8 99 320.5 L 100.5 319 Z "></path></svg>